G04 #@! TF.GenerationSoftware,KiCad,Pcbnew,(6.0.11)*
G04 #@! TF.CreationDate,2023-08-29T15:51:08+09:00*
G04 #@! TF.ProjectId,kicker_board,6b69636b-6572-45f6-926f-6172642e6b69,rev?*
G04 #@! TF.SameCoordinates,Original*
G04 #@! TF.FileFunction,Profile,NP*
%FSLAX46Y46*%
G04 Gerber Fmt 4.6, Leading zero omitted, Abs format (unit mm)*
G04 Created by KiCad (PCBNEW (6.0.11)) date 2023-08-29 15:51:08*
%MOMM*%
%LPD*%
G01*
G04 APERTURE LIST*
G04 #@! TA.AperFunction,Profile*
%ADD10C,0.200000*%
G04 #@! TD*
G04 APERTURE END LIST*
D10*
X181271777Y-120320670D02*
G75*
G03*
X175344838Y-75301240I-102062277J9463070D01*
G01*
X128945714Y-123984298D02*
X144581782Y-133011786D01*
X156327813Y-137525128D02*
X167377956Y-117982704D01*
X153740552Y-72251497D02*
X146734080Y-65245025D01*
X162648125Y-81159070D02*
X153740552Y-72251497D01*
X144581782Y-133011786D02*
X153577963Y-138267601D01*
X172054814Y-74580809D02*
X165476552Y-81159070D01*
X143905653Y-65245025D02*
X136517948Y-72632730D01*
X162648125Y-81159070D02*
G75*
G03*
X165476552Y-81159070I1414214J1414211D01*
G01*
X175344788Y-75301258D02*
G75*
G03*
X172054814Y-74580809I-1875788J-693742D01*
G01*
X179950668Y-118214855D02*
G75*
G03*
X179950668Y-118214855I-1600000J0D01*
G01*
X178280308Y-121868058D02*
G75*
G03*
X181271758Y-120320668I999992J1732058D01*
G01*
X170103303Y-117226203D02*
G75*
G03*
X167377956Y-117982704I-984403J-1740997D01*
G01*
X127994324Y-121813990D02*
G75*
G03*
X123325818Y-87325611I-48784794J10956430D01*
G01*
X170103327Y-117226161D02*
X176743998Y-120981088D01*
X127256964Y-86385419D02*
G75*
G03*
X127256964Y-86385419I-1600000J0D01*
G01*
X146734080Y-65245025D02*
G75*
G03*
X143905653Y-65245025I-1414213J-1414211D01*
G01*
X136517948Y-72632730D02*
X123704891Y-84942053D01*
X127994312Y-121813988D02*
G75*
G03*
X128945714Y-123984298I1951488J-438212D01*
G01*
X123704860Y-84942021D02*
G75*
G03*
X123325818Y-87325611I1385640J-1442279D01*
G01*
X176743998Y-120981088D02*
X178280300Y-121868072D01*
X174604261Y-77908450D02*
G75*
G03*
X174604261Y-77908450I-1600000J0D01*
G01*
X153577978Y-138267576D02*
G75*
G03*
X156327813Y-137525128I1008922J1726776D01*
G01*
X132117673Y-121980682D02*
G75*
G03*
X132117673Y-121980682I-1600000J0D01*
G01*
M02*
