%TF.GenerationSoftware,KiCad,Pcbnew,7.0.9*%
%TF.CreationDate,2024-01-05T12:32:23+09:00*%
%TF.ProjectId,KickerBoard,4b69636b-6572-4426-9f61-72642e6b6963,rev?*%
%TF.SameCoordinates,Original*%
%TF.FileFunction,Copper,L1,Top*%
%TF.FilePolarity,Positive*%
%FSLAX46Y46*%
G04 Gerber Fmt 4.6, Leading zero omitted, Abs format (unit mm)*
G04 Created by KiCad (PCBNEW 7.0.9) date 2024-01-05 12:32:23*
%MOMM*%
%LPD*%
G01*
G04 APERTURE LIST*
G04 Aperture macros list*
%AMRoundRect*
0 Rectangle with rounded corners*
0 $1 Rounding radius*
0 $2 $3 $4 $5 $6 $7 $8 $9 X,Y pos of 4 corners*
0 Add a 4 corners polygon primitive as box body*
4,1,4,$2,$3,$4,$5,$6,$7,$8,$9,$2,$3,0*
0 Add four circle primitives for the rounded corners*
1,1,$1+$1,$2,$3*
1,1,$1+$1,$4,$5*
1,1,$1+$1,$6,$7*
1,1,$1+$1,$8,$9*
0 Add four rect primitives between the rounded corners*
20,1,$1+$1,$2,$3,$4,$5,0*
20,1,$1+$1,$4,$5,$6,$7,0*
20,1,$1+$1,$6,$7,$8,$9,0*
20,1,$1+$1,$8,$9,$2,$3,0*%
%AMHorizOval*
0 Thick line with rounded ends*
0 $1 width*
0 $2 $3 position (X,Y) of the first rounded end (center of the circle)*
0 $4 $5 position (X,Y) of the second rounded end (center of the circle)*
0 Add line between two ends*
20,1,$1,$2,$3,$4,$5,0*
0 Add two circle primitives to create the rounded ends*
1,1,$1,$2,$3*
1,1,$1,$4,$5*%
%AMRotRect*
0 Rectangle, with rotation*
0 The origin of the aperture is its center*
0 $1 length*
0 $2 width*
0 $3 Rotation angle, in degrees counterclockwise*
0 Add horizontal line*
21,1,$1,$2,0,0,$3*%
G04 Aperture macros list end*
%TA.AperFunction,ComponentPad*%
%ADD10C,2.400000*%
%TD*%
%TA.AperFunction,ComponentPad*%
%ADD11O,2.400000X2.400000*%
%TD*%
%TA.AperFunction,ComponentPad*%
%ADD12O,1.700000X2.000000*%
%TD*%
%TA.AperFunction,ComponentPad*%
%ADD13RoundRect,0.250000X0.600000X0.750000X-0.600000X0.750000X-0.600000X-0.750000X0.600000X-0.750000X0*%
%TD*%
%TA.AperFunction,ComponentPad*%
%ADD14R,1.700000X1.700000*%
%TD*%
%TA.AperFunction,ComponentPad*%
%ADD15O,1.700000X1.700000*%
%TD*%
%TA.AperFunction,ComponentPad*%
%ADD16RoundRect,0.250000X-0.882115X-0.327868X0.157115X-0.927868X0.882115X0.327868X-0.157115X0.927868X0*%
%TD*%
%TA.AperFunction,ComponentPad*%
%ADD17HorizOval,1.700000X-0.062500X-0.108253X0.062500X0.108253X0*%
%TD*%
%TA.AperFunction,ComponentPad*%
%ADD18C,2.600000*%
%TD*%
%TA.AperFunction,ComponentPad*%
%ADD19R,1.600000X1.600000*%
%TD*%
%TA.AperFunction,ComponentPad*%
%ADD20O,1.600000X1.600000*%
%TD*%
%TA.AperFunction,ComponentPad*%
%ADD21C,1.400000*%
%TD*%
%TA.AperFunction,ComponentPad*%
%ADD22O,1.400000X1.400000*%
%TD*%
%TA.AperFunction,ComponentPad*%
%ADD23R,2.400000X2.400000*%
%TD*%
%TA.AperFunction,ComponentPad*%
%ADD24O,2.800000X2.800000*%
%TD*%
%TA.AperFunction,ComponentPad*%
%ADD25R,2.800000X2.800000*%
%TD*%
%TA.AperFunction,ComponentPad*%
%ADD26RotRect,2.800000X2.800000X300.000000*%
%TD*%
%TA.AperFunction,ComponentPad*%
%ADD27HorizOval,2.800000X0.000000X0.000000X0.000000X0.000000X0*%
%TD*%
%TA.AperFunction,ComponentPad*%
%ADD28RoundRect,0.250000X-0.144615X-0.949519X0.894615X-0.349519X0.144615X0.949519X-0.894615X0.349519X0*%
%TD*%
%TA.AperFunction,ComponentPad*%
%ADD29HorizOval,1.700000X-0.075000X0.129904X0.075000X-0.129904X0*%
%TD*%
%TA.AperFunction,ComponentPad*%
%ADD30RoundRect,0.250000X-0.600000X-0.725000X0.600000X-0.725000X0.600000X0.725000X-0.600000X0.725000X0*%
%TD*%
%TA.AperFunction,ComponentPad*%
%ADD31O,1.700000X1.950000*%
%TD*%
%TA.AperFunction,ViaPad*%
%ADD32C,0.800000*%
%TD*%
%TA.AperFunction,Conductor*%
%ADD33C,2.000000*%
%TD*%
%TA.AperFunction,Conductor*%
%ADD34C,3.000000*%
%TD*%
%TA.AperFunction,Conductor*%
%ADD35C,2.800000*%
%TD*%
%TA.AperFunction,Conductor*%
%ADD36C,1.000000*%
%TD*%
%TA.AperFunction,Conductor*%
%ADD37C,0.250000*%
%TD*%
G04 APERTURE END LIST*
D10*
%TO.P,R10,1*%
%TO.N,Solenoid-*%
X179730400Y-108508800D03*
D11*
%TO.P,R10,2*%
%TO.N,Net-(Q2-D)*%
X164490400Y-108508800D03*
%TD*%
D12*
%TO.P,J6,2,Pin_2*%
%TO.N,Solenoid-*%
X184190000Y-108204000D03*
D13*
%TO.P,J6,1,Pin_1*%
%TO.N,Solenoid+*%
X186690000Y-108204000D03*
%TD*%
D14*
%TO.P,J5,1,Pin_1*%
%TO.N,K*%
X98338000Y-94316000D03*
D15*
%TO.P,J5,2,Pin_2*%
%TO.N,+3.3V*%
X95798000Y-94316000D03*
%TO.P,J5,3,Pin_3*%
%TO.N,GND*%
X93258000Y-94316000D03*
%TO.P,J5,4,Pin_4*%
%TO.N,Touch*%
X90718000Y-94316000D03*
%TD*%
D16*
%TO.P,J4,1,Pin_1*%
%TO.N,FET1*%
X81982937Y-98378213D03*
D17*
%TO.P,J4,2,Pin_2*%
%TO.N,GND*%
X84148001Y-99628213D03*
%TO.P,J4,3,Pin_3*%
%TO.N,FET2*%
X86313064Y-100878213D03*
%TD*%
D18*
%TO.P,Q2,1,D*%
%TO.N,Net-(Q2-D)*%
X147701000Y-106934000D03*
%TO.P,Q2,2,G*%
%TO.N,Net-(Q2-G)*%
X142621000Y-106934000D03*
%TO.P,Q2,3,S*%
%TO.N,GND*%
X152781000Y-106934000D03*
%TD*%
D19*
%TO.P,U1,1*%
%TO.N,Net-(R3-Pad2)*%
X106436000Y-101849000D03*
D20*
%TO.P,U1,2*%
%TO.N,GND*%
X106436000Y-104389000D03*
%TO.P,U1,3*%
%TO.N,Net-(R7-Pad1)*%
X114056000Y-104389000D03*
%TO.P,U1,4*%
%TO.N,Net-(Q1-G)*%
X114056000Y-101849000D03*
%TD*%
D21*
%TO.P,R8,1*%
%TO.N,Net-(R5-Pad2)*%
X157412000Y-97282000D03*
D22*
%TO.P,R8,2*%
%TO.N,Net-(Q2-G)*%
X157412000Y-102362000D03*
%TD*%
D21*
%TO.P,R5,1*%
%TO.N,GND*%
X180340000Y-103886000D03*
D22*
%TO.P,R5,2*%
%TO.N,Net-(R5-Pad2)*%
X175260000Y-103886000D03*
%TD*%
D23*
%TO.P,C2,1*%
%TO.N,Solenoid+*%
X110109000Y-94368000D03*
D10*
%TO.P,C2,2*%
%TO.N,GND*%
X110109000Y-86868000D03*
%TD*%
D21*
%TO.P,R7,1*%
%TO.N,Net-(R7-Pad1)*%
X116332000Y-104394000D03*
D22*
%TO.P,R7,2*%
%TO.N,GND*%
X121412000Y-104394000D03*
%TD*%
D18*
%TO.P,Q1,1,D*%
%TO.N,Solenoid+*%
X131699000Y-106934000D03*
%TO.P,Q1,2,G*%
%TO.N,Net-(Q1-G)*%
X126619000Y-106934000D03*
%TO.P,Q1,3,S*%
%TO.N,+48V*%
X136779000Y-106934000D03*
%TD*%
D21*
%TO.P,R2,1*%
%TO.N,GND*%
X180340000Y-101600000D03*
D22*
%TO.P,R2,2*%
%TO.N,+15V*%
X175260000Y-101600000D03*
%TD*%
D19*
%TO.P,U2,1*%
%TO.N,Net-(R4-Pad2)*%
X165364000Y-101849000D03*
D20*
%TO.P,U2,2*%
%TO.N,GND*%
X165364000Y-104389000D03*
%TO.P,U2,3*%
%TO.N,Net-(R5-Pad2)*%
X172984000Y-104389000D03*
%TO.P,U2,4*%
%TO.N,+15V*%
X172984000Y-101849000D03*
%TD*%
D23*
%TO.P,C1,1*%
%TO.N,Solenoid+*%
X169291000Y-94409780D03*
D10*
%TO.P,C1,2*%
%TO.N,GND*%
X169291000Y-86909780D03*
%TD*%
D21*
%TO.P,R3,1*%
%TO.N,FET1*%
X104140000Y-106929000D03*
D22*
%TO.P,R3,2*%
%TO.N,Net-(R3-Pad2)*%
X104140000Y-101849000D03*
%TD*%
D21*
%TO.P,R9,1*%
%TO.N,Net-(Q2-G)*%
X159698000Y-102362000D03*
D22*
%TO.P,R9,2*%
%TO.N,GND*%
X159698000Y-97282000D03*
%TD*%
D24*
%TO.P,D2,2,A*%
%TO.N,Solenoid-*%
X181711600Y-95148400D03*
D25*
%TO.P,D2,1,K*%
%TO.N,Solenoid+*%
X181711600Y-84988400D03*
%TD*%
D21*
%TO.P,R1,1*%
%TO.N,+15V*%
X175260000Y-99314000D03*
D22*
%TO.P,R1,2*%
%TO.N,+48V*%
X180340000Y-99314000D03*
%TD*%
D26*
%TO.P,D1,1,K*%
%TO.N,+48V*%
X189230000Y-99740591D03*
D27*
%TO.P,D1,2,A*%
%TO.N,Net-(D1-A)*%
X194310000Y-108539409D03*
%TD*%
D21*
%TO.P,R4,1*%
%TO.N,FET2*%
X163068000Y-105410000D03*
D22*
%TO.P,R4,2*%
%TO.N,Net-(R4-Pad2)*%
X163068000Y-100330000D03*
%TD*%
D14*
%TO.P,J3,1,Pin_1*%
%TO.N,LED*%
X188752000Y-94316000D03*
D15*
%TO.P,J3,2,Pin_2*%
%TO.N,K*%
X186212000Y-94316000D03*
%TD*%
D28*
%TO.P,J2,1,Pin_1*%
%TO.N,Net-(D1-A)*%
X195312469Y-99618213D03*
D29*
%TO.P,J2,2,Pin_2*%
%TO.N,GND*%
X197477533Y-98368213D03*
%TD*%
D21*
%TO.P,R6,1*%
%TO.N,+48V*%
X121412000Y-101849000D03*
D22*
%TO.P,R6,2*%
%TO.N,Net-(Q1-G)*%
X116332000Y-101849000D03*
%TD*%
D30*
%TO.P,J1,1,Pin_1*%
%TO.N,+3.3V*%
X92516000Y-101579000D03*
D31*
%TO.P,J1,2,Pin_2*%
%TO.N,GND*%
X95016000Y-101579000D03*
%TO.P,J1,3,Pin_3*%
%TO.N,LED*%
X97516000Y-101579000D03*
%TO.P,J1,4,Pin_4*%
%TO.N,Touch*%
X100016000Y-101579000D03*
%TD*%
D32*
%TO.N,Solenoid+*%
X179374800Y-105816400D03*
X181243624Y-105808800D03*
X178511200Y-85242400D03*
X176172380Y-87528400D03*
X173634400Y-90066380D03*
X171399200Y-92301580D03*
X175723000Y-106889000D03*
X173691000Y-106889000D03*
X171532000Y-106889000D03*
X177342800Y-105968800D03*
X156210000Y-93980000D03*
X114300000Y-92075000D03*
X144780000Y-92075000D03*
X125730000Y-93980000D03*
X133350000Y-93980000D03*
X138430000Y-93980000D03*
X137160000Y-92075000D03*
X163830000Y-93980000D03*
X120650000Y-93980000D03*
X127000000Y-92075000D03*
X157480000Y-92075000D03*
X148590000Y-93980000D03*
X119380000Y-92075000D03*
X132080000Y-92075000D03*
X113030000Y-93980000D03*
X154940000Y-92075000D03*
X123190000Y-93980000D03*
X130810000Y-93980000D03*
X149860000Y-92075000D03*
X146050000Y-93980000D03*
X152400000Y-92075000D03*
X129540000Y-92075000D03*
X161290000Y-93980000D03*
X162560000Y-92075000D03*
X153670000Y-93980000D03*
X121920000Y-92075000D03*
X116840000Y-92075000D03*
X134620000Y-92075000D03*
X124460000Y-92075000D03*
X142240000Y-92075000D03*
X166370000Y-93980000D03*
X151130000Y-93980000D03*
X143510000Y-93980000D03*
X128270000Y-93980000D03*
X115570000Y-93980000D03*
X140970000Y-93980000D03*
X118110000Y-93980000D03*
X135890000Y-93980000D03*
X160020000Y-92075000D03*
X165100000Y-92075000D03*
X147320000Y-92075000D03*
X139700000Y-92075000D03*
X158750000Y-93980000D03*
%TO.N,GND*%
X155295600Y-97028000D03*
X188468000Y-105359200D03*
X119278400Y-108915200D03*
X110185200Y-97180400D03*
X96062800Y-109423200D03*
X150368000Y-108966000D03*
X171653200Y-86969600D03*
X105206800Y-81584800D03*
X142189200Y-97028000D03*
X110083600Y-84378800D03*
X84429600Y-101650800D03*
X115366800Y-100076000D03*
X85191600Y-97840800D03*
X89255600Y-81686400D03*
X107645200Y-86868000D03*
X118770400Y-106019600D03*
X128778000Y-99314000D03*
X107746800Y-110490000D03*
X81991200Y-94437200D03*
X96723200Y-89966800D03*
X177749200Y-102819200D03*
X161442400Y-103835200D03*
X139090400Y-99364800D03*
X121259600Y-86512400D03*
X123393200Y-104546400D03*
X88747600Y-100584000D03*
X92710000Y-96672400D03*
X102311200Y-90779600D03*
X177698400Y-100380800D03*
X129032000Y-107188000D03*
X166878000Y-86918800D03*
X191262000Y-101803200D03*
X169316400Y-84582000D03*
X187045600Y-91236800D03*
X119430800Y-97993200D03*
X166624000Y-110083600D03*
X112522000Y-86918800D03*
X134315200Y-107188000D03*
X202285600Y-104444800D03*
X192532000Y-90424000D03*
X102362000Y-96774000D03*
X148691600Y-97028000D03*
X86969600Y-108407200D03*
X145186400Y-107086400D03*
X100025200Y-99415600D03*
X110236000Y-103124000D03*
X196291200Y-96418400D03*
X191719200Y-97536000D03*
X87528400Y-89408000D03*
X166928800Y-104343200D03*
X161493200Y-101498400D03*
X95351600Y-84886800D03*
X198526400Y-100330000D03*
X110693200Y-108966000D03*
X139801600Y-86614000D03*
X197358000Y-108204000D03*
X139700000Y-107188000D03*
X190144400Y-81584800D03*
X134264400Y-99364800D03*
X126695200Y-96977200D03*
X105410000Y-108204000D03*
X77317600Y-104495600D03*
X110134400Y-89255600D03*
X95097600Y-99466400D03*
X98044000Y-96266000D03*
X136499600Y-97028000D03*
X93268800Y-92202000D03*
X85344000Y-110236000D03*
X169265600Y-89255600D03*
X155803600Y-86512400D03*
X191008000Y-109880400D03*
X106934000Y-94488000D03*
X107848400Y-106070400D03*
X89052400Y-103784400D03*
%TO.N,+48V*%
X165100000Y-97231200D03*
X166890503Y-97231200D03*
X164211000Y-97230000D03*
X166001503Y-97231200D03*
X163322000Y-97230000D03*
X162420497Y-97230000D03*
%TO.N,Net-(D1-A)*%
X194411600Y-105714800D03*
X194437000Y-101600000D03*
X194411600Y-104190800D03*
X194437000Y-102895400D03*
%TD*%
D33*
%TO.N,Solenoid+*%
X177342800Y-105968800D02*
X177546000Y-105765600D01*
X178046400Y-105808800D02*
X181243624Y-105808800D01*
X177546000Y-105765600D02*
X178003200Y-105765600D01*
X178003200Y-105765600D02*
X178046400Y-105808800D01*
D34*
X176422600Y-106889000D02*
X175723000Y-106889000D01*
X177342800Y-105968800D02*
X176422600Y-106889000D01*
D35*
X186690000Y-108204000D02*
X186690000Y-107089177D01*
X186690000Y-107089177D02*
X185204823Y-105604000D01*
X185204823Y-105604000D02*
X181874692Y-105604000D01*
X181874692Y-105604000D02*
X181356746Y-106121946D01*
D34*
X181711600Y-84988400D02*
X178712380Y-84988400D01*
X178712380Y-84988400D02*
X169291000Y-94409780D01*
X175723000Y-106889000D02*
X173691000Y-106889000D01*
X173691000Y-106889000D02*
X171532000Y-106889000D01*
D36*
%TO.N,LED*%
X188752000Y-94316000D02*
X188752000Y-87172656D01*
X188752000Y-87172656D02*
X184277344Y-82698000D01*
X100634800Y-90068400D02*
X100634800Y-96164400D01*
X184277344Y-82698000D02*
X108005200Y-82698000D01*
X108005200Y-82698000D02*
X100634800Y-90068400D01*
X100634800Y-96164400D02*
X97516000Y-99283200D01*
X97516000Y-99283200D02*
X97516000Y-101579000D01*
D33*
%TO.N,+48V*%
X186690000Y-98298000D02*
X180644800Y-98298000D01*
X179576800Y-97230000D02*
X178308000Y-97230000D01*
X180644800Y-98298000D02*
X179576800Y-97230000D01*
D36*
%TO.N,K*%
X98338000Y-94316000D02*
X98338000Y-90668144D01*
X190144400Y-96342200D02*
X187045600Y-96342200D01*
X184774400Y-81498000D02*
X191008000Y-87731600D01*
X98338000Y-90668144D02*
X107508144Y-81498000D01*
X187045600Y-96342200D02*
X186212000Y-95508600D01*
X107508144Y-81498000D02*
X184774400Y-81498000D01*
X191008000Y-87731600D02*
X191008000Y-95478600D01*
X191008000Y-95478600D02*
X190144400Y-96342200D01*
X186212000Y-95508600D02*
X186212000Y-94316000D01*
D33*
%TO.N,Net-(Q2-D)*%
X156210000Y-104434000D02*
X158231200Y-104434000D01*
X158231200Y-104434000D02*
X162306000Y-108508800D01*
X162306000Y-108508800D02*
X164490400Y-108508800D01*
X164490400Y-108508800D02*
X163479794Y-108508800D01*
X163479794Y-108508800D02*
X159404994Y-104434000D01*
X159404994Y-104434000D02*
X156210000Y-104434000D01*
D34*
%TO.N,Solenoid+*%
X146939000Y-91694000D02*
X145161000Y-91694000D01*
X143122000Y-94368000D02*
X145662000Y-94368000D01*
X162941000Y-91694000D02*
X162560000Y-92075000D01*
X154940000Y-92075000D02*
X154559000Y-91694000D01*
X131699000Y-91694000D02*
X129921000Y-91694000D01*
X125342000Y-94368000D02*
X125730000Y-93980000D01*
X145662000Y-94368000D02*
X148202000Y-94368000D01*
X158362000Y-94368000D02*
X158750000Y-93980000D01*
X121920000Y-92075000D02*
X121539000Y-91694000D01*
X141859000Y-91694000D02*
X140081000Y-91694000D01*
X114681000Y-91694000D02*
X114300000Y-92075000D01*
X126619000Y-91694000D02*
X124841000Y-91694000D01*
X127381000Y-91694000D02*
X127000000Y-92075000D01*
X157099000Y-91694000D02*
X155321000Y-91694000D01*
X131699000Y-94869000D02*
X130810000Y-93980000D01*
X116840000Y-92075000D02*
X116459000Y-91694000D01*
X129921000Y-91694000D02*
X129540000Y-92075000D01*
X123190000Y-93980000D02*
X123578000Y-94368000D01*
X153282000Y-94368000D02*
X155822000Y-94368000D01*
X116459000Y-91694000D02*
X114681000Y-91694000D01*
X119761000Y-91694000D02*
X119380000Y-92075000D01*
X155822000Y-94368000D02*
X158362000Y-94368000D01*
X118110000Y-93980000D02*
X118498000Y-94368000D01*
X127882000Y-94368000D02*
X130422000Y-94368000D01*
X122301000Y-91694000D02*
X121920000Y-92075000D01*
X166624000Y-91694000D02*
X165481000Y-91694000D01*
X138042000Y-94368000D02*
X140582000Y-94368000D01*
X110109000Y-94368000D02*
X113418000Y-94368000D01*
X164719000Y-91694000D02*
X162941000Y-91694000D01*
X165100000Y-92075000D02*
X164719000Y-91694000D01*
X123578000Y-94368000D02*
X125342000Y-94368000D01*
X139700000Y-92075000D02*
X139319000Y-91694000D01*
X169291000Y-94361000D02*
X166624000Y-91694000D01*
X121539000Y-91694000D02*
X119761000Y-91694000D01*
X158362000Y-94368000D02*
X160902000Y-94368000D01*
X145161000Y-91694000D02*
X144780000Y-92075000D01*
X150241000Y-91694000D02*
X149860000Y-92075000D01*
X154559000Y-91694000D02*
X152781000Y-91694000D01*
X124079000Y-91694000D02*
X122301000Y-91694000D01*
X137541000Y-91694000D02*
X137160000Y-92075000D01*
X169291000Y-94409780D02*
X169291000Y-94361000D01*
X115182000Y-94368000D02*
X118498000Y-94368000D01*
X157480000Y-92075000D02*
X157099000Y-91694000D01*
X160020000Y-92075000D02*
X159639000Y-91694000D01*
X135502000Y-94368000D02*
X138042000Y-94368000D01*
X163442000Y-94368000D02*
X165982000Y-94368000D01*
X165982000Y-94368000D02*
X169249220Y-94368000D01*
X136779000Y-91694000D02*
X135001000Y-91694000D01*
X131699000Y-98171000D02*
X135502000Y-94368000D01*
X137160000Y-92075000D02*
X136779000Y-91694000D01*
X144780000Y-92075000D02*
X144399000Y-91694000D01*
X140582000Y-94368000D02*
X143122000Y-94368000D01*
X112783000Y-91694000D02*
X110109000Y-94368000D01*
X152400000Y-92075000D02*
X152019000Y-91694000D01*
X162179000Y-91694000D02*
X160401000Y-91694000D01*
X134239000Y-91694000D02*
X132461000Y-91694000D01*
X149479000Y-91694000D02*
X147701000Y-91694000D01*
X128270000Y-94818200D02*
X128270000Y-93980000D01*
X142621000Y-91694000D02*
X142240000Y-92075000D01*
X144399000Y-91694000D02*
X142621000Y-91694000D01*
X139319000Y-91694000D02*
X137541000Y-91694000D01*
X131699000Y-98247200D02*
X128270000Y-94818200D01*
X138042000Y-94368000D02*
X138430000Y-93980000D01*
X117221000Y-91694000D02*
X116840000Y-92075000D01*
X132962000Y-94368000D02*
X133350000Y-93980000D01*
X143122000Y-94368000D02*
X143510000Y-93980000D01*
X130422000Y-94368000D02*
X130810000Y-93980000D01*
X115182000Y-94368000D02*
X115570000Y-93980000D01*
X162560000Y-92075000D02*
X162179000Y-91694000D01*
X113418000Y-94368000D02*
X115182000Y-94368000D01*
X129159000Y-91694000D02*
X127381000Y-91694000D01*
X147701000Y-91694000D02*
X147320000Y-92075000D01*
X150742000Y-94368000D02*
X151130000Y-93980000D01*
X132080000Y-92075000D02*
X131699000Y-91694000D01*
X132461000Y-91694000D02*
X132080000Y-92075000D01*
X169249220Y-94368000D02*
X169291000Y-94409780D01*
X135001000Y-91694000D02*
X134620000Y-92075000D01*
X134620000Y-92075000D02*
X134239000Y-91694000D01*
X127000000Y-92075000D02*
X126619000Y-91694000D01*
X118498000Y-94368000D02*
X120262000Y-94368000D01*
X165481000Y-91694000D02*
X165100000Y-92075000D01*
X148202000Y-94368000D02*
X150742000Y-94368000D01*
X152019000Y-91694000D02*
X150241000Y-91694000D01*
X120262000Y-94368000D02*
X123578000Y-94368000D01*
X131699000Y-98247200D02*
X131699000Y-94869000D01*
X140081000Y-91694000D02*
X139700000Y-92075000D01*
X160902000Y-94368000D02*
X163442000Y-94368000D01*
X135502000Y-94368000D02*
X135890000Y-93980000D01*
X113030000Y-93980000D02*
X113418000Y-94368000D01*
X155321000Y-91694000D02*
X154940000Y-92075000D01*
X160902000Y-94368000D02*
X161290000Y-93980000D01*
X132962000Y-94368000D02*
X135502000Y-94368000D01*
X124841000Y-91694000D02*
X124460000Y-92075000D01*
X140582000Y-94368000D02*
X140970000Y-93980000D01*
X166624000Y-91694000D02*
X112783000Y-91694000D01*
X153282000Y-94368000D02*
X153670000Y-93980000D01*
X119380000Y-92075000D02*
X118999000Y-91694000D01*
X125342000Y-94368000D02*
X127882000Y-94368000D01*
X148202000Y-94368000D02*
X148590000Y-93980000D01*
X163442000Y-94368000D02*
X163830000Y-93980000D01*
X157861000Y-91694000D02*
X157480000Y-92075000D01*
X124460000Y-92075000D02*
X124079000Y-91694000D01*
X142240000Y-92075000D02*
X141859000Y-91694000D01*
X159639000Y-91694000D02*
X157861000Y-91694000D01*
X155822000Y-94368000D02*
X156210000Y-93980000D01*
X130422000Y-94368000D02*
X132962000Y-94368000D01*
X150742000Y-94368000D02*
X153282000Y-94368000D01*
X127882000Y-94368000D02*
X128270000Y-93980000D01*
X160401000Y-91694000D02*
X160020000Y-92075000D01*
X152781000Y-91694000D02*
X152400000Y-92075000D01*
X118999000Y-91694000D02*
X117221000Y-91694000D01*
X131699000Y-106934000D02*
X131699000Y-98171000D01*
X145662000Y-94368000D02*
X146050000Y-93980000D01*
X129540000Y-92075000D02*
X129159000Y-91694000D01*
X120262000Y-94368000D02*
X120650000Y-93980000D01*
X165982000Y-94368000D02*
X166370000Y-93980000D01*
X131699000Y-106934000D02*
X131699000Y-98247200D01*
X149860000Y-92075000D02*
X149479000Y-91694000D01*
X147320000Y-92075000D02*
X146939000Y-91694000D01*
D37*
%TO.N,GND*%
X159698000Y-97282000D02*
X159698000Y-96960000D01*
X158931000Y-96193000D02*
X158292800Y-96193000D01*
X158292800Y-96193000D02*
X156130600Y-96193000D01*
X159698000Y-96960000D02*
X158931000Y-96193000D01*
X155295600Y-96723200D02*
X155295600Y-97028000D01*
X155825800Y-96193000D02*
X155295600Y-96723200D01*
X158609000Y-96193000D02*
X158292800Y-96193000D01*
X159698000Y-97282000D02*
X158609000Y-96193000D01*
X156130600Y-96193000D02*
X155295600Y-97028000D01*
X158609000Y-96193000D02*
X155825800Y-96193000D01*
D33*
%TO.N,Net-(Q2-D)*%
X150228300Y-104406700D02*
X150255600Y-104434000D01*
X151257000Y-103378000D02*
X150228300Y-104406700D01*
X150255600Y-104434000D02*
X156210000Y-104434000D01*
X150228300Y-104406700D02*
X147701000Y-106934000D01*
X155154000Y-103378000D02*
X153390600Y-103378000D01*
X153390600Y-103378000D02*
X151257000Y-103378000D01*
X153390600Y-103378000D02*
X149275800Y-103378000D01*
X155154000Y-103378000D02*
X156210000Y-104434000D01*
X149275800Y-103378000D02*
X147701000Y-104952800D01*
X147701000Y-104952800D02*
X147701000Y-106934000D01*
%TO.N,+48V*%
X188803409Y-99314000D02*
X189230000Y-99740591D01*
X180340000Y-99314000D02*
X178308000Y-97282000D01*
X166370000Y-97230000D02*
X178308000Y-97230000D01*
X189230000Y-99740591D02*
X188005591Y-100965000D01*
X178308000Y-97282000D02*
X178308000Y-97230000D01*
X187787409Y-98298000D02*
X186690000Y-98298000D01*
X180340000Y-99314000D02*
X181356000Y-98298000D01*
X162306000Y-97230000D02*
X162420497Y-97230000D01*
X188005591Y-100965000D02*
X183616600Y-100965000D01*
X189230000Y-99740591D02*
X187787409Y-98298000D01*
X183616600Y-100965000D02*
X181965600Y-99314000D01*
X181356000Y-98298000D02*
X186690000Y-98298000D01*
X180340000Y-99314000D02*
X181965600Y-99314000D01*
X166295000Y-97230000D02*
X162420497Y-97230000D01*
X181965600Y-99314000D02*
X188803409Y-99314000D01*
X166295000Y-97230000D02*
X166370000Y-97230000D01*
D36*
%TO.N,Net-(Q1-G)*%
X117732000Y-100449000D02*
X116332000Y-101849000D01*
X121991899Y-100449000D02*
X117732000Y-100449000D01*
X116332000Y-101849000D02*
X114056000Y-101849000D01*
X126619000Y-106934000D02*
X126619000Y-105076101D01*
X126619000Y-105076101D02*
X121991899Y-100449000D01*
%TO.N,Net-(R3-Pad2)*%
X104140000Y-101849000D02*
X106436000Y-101849000D01*
%TO.N,Net-(R5-Pad2)*%
X165430200Y-98930000D02*
X166494000Y-98930000D01*
X166494000Y-98930000D02*
X167640000Y-100076000D01*
X166878000Y-102108000D02*
X167640000Y-102870000D01*
X159060000Y-98930000D02*
X165430200Y-98930000D01*
X166878000Y-100380800D02*
X167640000Y-101142800D01*
X174757000Y-104389000D02*
X175260000Y-103886000D01*
X175260000Y-103886000D02*
X169468800Y-103886000D01*
X165430200Y-98930000D02*
X166878000Y-100377800D01*
X157412000Y-97282000D02*
X159060000Y-98930000D01*
X169468800Y-103886000D02*
X167640000Y-102057200D01*
X169159000Y-104389000D02*
X172984000Y-104389000D01*
X167640000Y-102057200D02*
X167640000Y-102870000D01*
X167640000Y-100076000D02*
X167640000Y-101142800D01*
X166878000Y-100377800D02*
X166878000Y-102108000D01*
X172984000Y-104389000D02*
X174757000Y-104389000D01*
X167640000Y-101142800D02*
X167640000Y-102057200D01*
X167640000Y-102870000D02*
X169159000Y-104389000D01*
X166878000Y-100377800D02*
X166878000Y-100380800D01*
%TO.N,+3.3V*%
X92516000Y-99381000D02*
X92516000Y-101579000D01*
X95798000Y-94316000D02*
X95798000Y-96099000D01*
X95798000Y-96099000D02*
X92516000Y-99381000D01*
%TO.N,Touch*%
X91973400Y-103784400D02*
X99060000Y-103784400D01*
X90718000Y-102529000D02*
X91973400Y-103784400D01*
X99060000Y-103784400D02*
X100016000Y-102828400D01*
X90718000Y-94316000D02*
X90718000Y-102529000D01*
X100016000Y-102828400D02*
X100016000Y-101579000D01*
D33*
%TO.N,Net-(D1-A)*%
X193548000Y-101382682D02*
X195312469Y-99618213D01*
X194310000Y-108539409D02*
X193548000Y-107777409D01*
X193548000Y-107777409D02*
X193548000Y-101382682D01*
X195312469Y-107536940D02*
X194310000Y-108539409D01*
X195312469Y-99618213D02*
X195312469Y-107536940D01*
D36*
%TO.N,+15V*%
X174218600Y-101849000D02*
X175011000Y-101849000D01*
X172984000Y-101590000D02*
X175260000Y-99314000D01*
X172984000Y-101849000D02*
X172984000Y-101590000D01*
X175260000Y-101600000D02*
X175260000Y-100660200D01*
X174172800Y-100660200D02*
X175260000Y-100660200D01*
X175260000Y-100807600D02*
X174218600Y-101849000D01*
X172984000Y-101849000D02*
X174218600Y-101849000D01*
X172984000Y-101849000D02*
X174172800Y-100660200D01*
X175260000Y-100660200D02*
X175260000Y-100807600D01*
X175260000Y-100660200D02*
X175260000Y-99314000D01*
X175011000Y-101849000D02*
X175260000Y-101600000D01*
%TO.N,Net-(R4-Pad2)*%
X164790000Y-101275000D02*
X163845000Y-100330000D01*
X163068000Y-100330000D02*
X164587000Y-101849000D01*
X163845000Y-100330000D02*
X163068000Y-100330000D01*
X165364000Y-101849000D02*
X164790000Y-101275000D01*
X164587000Y-101849000D02*
X165364000Y-101849000D01*
D33*
%TO.N,Net-(R7-Pad1)*%
X114061000Y-104394000D02*
X114056000Y-104389000D01*
X116332000Y-104394000D02*
X114061000Y-104394000D01*
%TD*%
%TA.AperFunction,Conductor*%
%TO.N,GND*%
G36*
X89009937Y-80920241D02*
G01*
X89040329Y-80928385D01*
X89045732Y-80929833D01*
X89046975Y-80930166D01*
X89046977Y-80930166D01*
X89046979Y-80930167D01*
X89305007Y-80975665D01*
X89566019Y-80998500D01*
X89696925Y-80998500D01*
X106293361Y-80998500D01*
X106360400Y-81018185D01*
X106406155Y-81070989D01*
X106416099Y-81140147D01*
X106387074Y-81203703D01*
X106381042Y-81210181D01*
X97639532Y-89951690D01*
X97574946Y-90013086D01*
X97539899Y-90063438D01*
X97537062Y-90067200D01*
X97498302Y-90114736D01*
X97498299Y-90114741D01*
X97482392Y-90145191D01*
X97478324Y-90151905D01*
X97458702Y-90180098D01*
X97434509Y-90236474D01*
X97432488Y-90240728D01*
X97404091Y-90295095D01*
X97404090Y-90295096D01*
X97394640Y-90328119D01*
X97392007Y-90335515D01*
X97378459Y-90367087D01*
X97366113Y-90427163D01*
X97364990Y-90431739D01*
X97348113Y-90490721D01*
X97348113Y-90490723D01*
X97345503Y-90524985D01*
X97344414Y-90532752D01*
X97344121Y-90534183D01*
X97337500Y-90566402D01*
X97337500Y-90627741D01*
X97337321Y-90632450D01*
X97332662Y-90693618D01*
X97334707Y-90709671D01*
X97337003Y-90727704D01*
X97337500Y-90735532D01*
X97337500Y-92901858D01*
X97317815Y-92968897D01*
X97265011Y-93014652D01*
X97256847Y-93018034D01*
X97245669Y-93022204D01*
X97245664Y-93022206D01*
X97130455Y-93108452D01*
X97130452Y-93108455D01*
X97044206Y-93223664D01*
X97044203Y-93223669D01*
X96995189Y-93355083D01*
X96953317Y-93411016D01*
X96887853Y-93435433D01*
X96819580Y-93420581D01*
X96791326Y-93399430D01*
X96669402Y-93277506D01*
X96669395Y-93277501D01*
X96647884Y-93262439D01*
X96620187Y-93243045D01*
X96475834Y-93141967D01*
X96475830Y-93141965D01*
X96475828Y-93141964D01*
X96261663Y-93042097D01*
X96261659Y-93042096D01*
X96261655Y-93042094D01*
X96033413Y-92980938D01*
X96033403Y-92980936D01*
X95798001Y-92960341D01*
X95797999Y-92960341D01*
X95562596Y-92980936D01*
X95562586Y-92980938D01*
X95334344Y-93042094D01*
X95334335Y-93042098D01*
X95120171Y-93141964D01*
X95120169Y-93141965D01*
X94926597Y-93277505D01*
X94759508Y-93444594D01*
X94629269Y-93630595D01*
X94574692Y-93674219D01*
X94505193Y-93681412D01*
X94442839Y-93649890D01*
X94426119Y-93630594D01*
X94296113Y-93444926D01*
X94296108Y-93444920D01*
X94129082Y-93277894D01*
X93935578Y-93142399D01*
X93721492Y-93042570D01*
X93721486Y-93042567D01*
X93508000Y-92985364D01*
X93508000Y-93880498D01*
X93400315Y-93831320D01*
X93293763Y-93816000D01*
X93222237Y-93816000D01*
X93115685Y-93831320D01*
X93008000Y-93880498D01*
X93008000Y-92985364D01*
X93007999Y-92985364D01*
X92794513Y-93042567D01*
X92794507Y-93042570D01*
X92580422Y-93142399D01*
X92580420Y-93142400D01*
X92386926Y-93277886D01*
X92386920Y-93277891D01*
X92219891Y-93444920D01*
X92219890Y-93444922D01*
X92089880Y-93630595D01*
X92035303Y-93674219D01*
X91965804Y-93681412D01*
X91903450Y-93649890D01*
X91886730Y-93630594D01*
X91756494Y-93444597D01*
X91589402Y-93277506D01*
X91589395Y-93277501D01*
X91567884Y-93262439D01*
X91540187Y-93243045D01*
X91395834Y-93141967D01*
X91395830Y-93141965D01*
X91395828Y-93141964D01*
X91181663Y-93042097D01*
X91181659Y-93042096D01*
X91181655Y-93042094D01*
X90953413Y-92980938D01*
X90953403Y-92980936D01*
X90718001Y-92960341D01*
X90717999Y-92960341D01*
X90482596Y-92980936D01*
X90482586Y-92980938D01*
X90254344Y-93042094D01*
X90254335Y-93042098D01*
X90040171Y-93141964D01*
X90040169Y-93141965D01*
X89846597Y-93277505D01*
X89679505Y-93444597D01*
X89543965Y-93638169D01*
X89543964Y-93638171D01*
X89444098Y-93852335D01*
X89444094Y-93852344D01*
X89382938Y-94080586D01*
X89382936Y-94080596D01*
X89362341Y-94315999D01*
X89362341Y-94316000D01*
X89382936Y-94551403D01*
X89382938Y-94551413D01*
X89444094Y-94779655D01*
X89444096Y-94779659D01*
X89444097Y-94779663D01*
X89523801Y-94950588D01*
X89543965Y-94993830D01*
X89543967Y-94993834D01*
X89652195Y-95148398D01*
X89679504Y-95187400D01*
X89679506Y-95187402D01*
X89681181Y-95189077D01*
X89681682Y-95189995D01*
X89682982Y-95191544D01*
X89682670Y-95191805D01*
X89714666Y-95250400D01*
X89717500Y-95276758D01*
X89717500Y-102516283D01*
X89715243Y-102605362D01*
X89715243Y-102605370D01*
X89722722Y-102647092D01*
X89725641Y-102663382D01*
X89726064Y-102665739D01*
X89726718Y-102670404D01*
X89732925Y-102731430D01*
X89732927Y-102731444D01*
X89743208Y-102764213D01*
X89745079Y-102771837D01*
X89751142Y-102805652D01*
X89751142Y-102805655D01*
X89773894Y-102862612D01*
X89775474Y-102867051D01*
X89793841Y-102925588D01*
X89793844Y-102925595D01*
X89810509Y-102955619D01*
X89813879Y-102962714D01*
X89826622Y-102994614D01*
X89826627Y-102994624D01*
X89860377Y-103045833D01*
X89862818Y-103049863D01*
X89892588Y-103103498D01*
X89892589Y-103103499D01*
X89892591Y-103103502D01*
X89914968Y-103129567D01*
X89919693Y-103135835D01*
X89929005Y-103149964D01*
X89938598Y-103164519D01*
X89981978Y-103207899D01*
X89985169Y-103211343D01*
X90025131Y-103257892D01*
X90025134Y-103257895D01*
X90052294Y-103278918D01*
X90058190Y-103284111D01*
X91256966Y-104482887D01*
X91318338Y-104547450D01*
X91318341Y-104547453D01*
X91368681Y-104582492D01*
X91372443Y-104585328D01*
X91419987Y-104624094D01*
X91419990Y-104624095D01*
X91419993Y-104624098D01*
X91450445Y-104640004D01*
X91457158Y-104644072D01*
X91485351Y-104663695D01*
X91541729Y-104687889D01*
X91545978Y-104689907D01*
X91600351Y-104718309D01*
X91627889Y-104726188D01*
X91633374Y-104727758D01*
X91640768Y-104730390D01*
X91672342Y-104743940D01*
X91672345Y-104743940D01*
X91672346Y-104743941D01*
X91732422Y-104756287D01*
X91737000Y-104757410D01*
X91739104Y-104758012D01*
X91795982Y-104774287D01*
X91830239Y-104776895D01*
X91838014Y-104777986D01*
X91871655Y-104784900D01*
X91871659Y-104784900D01*
X91932999Y-104784900D01*
X91937705Y-104785078D01*
X91964996Y-104787157D01*
X91998876Y-104789737D01*
X91998876Y-104789736D01*
X91998877Y-104789737D01*
X92032960Y-104785396D01*
X92040790Y-104784900D01*
X99047284Y-104784900D01*
X99136358Y-104787157D01*
X99136358Y-104787156D01*
X99136363Y-104787157D01*
X99196753Y-104776332D01*
X99201412Y-104775680D01*
X99243607Y-104771388D01*
X99262438Y-104769474D01*
X99295227Y-104759186D01*
X99302840Y-104757318D01*
X99336653Y-104751258D01*
X99393621Y-104728501D01*
X99398053Y-104726924D01*
X99456588Y-104708559D01*
X99486627Y-104691884D01*
X99493708Y-104688522D01*
X99525617Y-104675777D01*
X99576854Y-104642008D01*
X99580851Y-104639587D01*
X99634502Y-104609809D01*
X99660568Y-104587430D01*
X99666843Y-104582700D01*
X99678168Y-104575237D01*
X99695519Y-104563802D01*
X99738923Y-104520395D01*
X99742327Y-104517241D01*
X99788895Y-104477266D01*
X99809928Y-104450091D01*
X99815098Y-104444221D01*
X100714468Y-103544851D01*
X100779053Y-103483459D01*
X100811699Y-103436554D01*
X100814099Y-103433106D01*
X100816938Y-103429341D01*
X100820612Y-103424835D01*
X100855698Y-103381807D01*
X100871601Y-103351360D01*
X100875674Y-103344639D01*
X100880489Y-103337720D01*
X100895295Y-103316449D01*
X100919492Y-103260060D01*
X100921498Y-103255835D01*
X100949909Y-103201449D01*
X100959357Y-103168422D01*
X100961988Y-103161033D01*
X100975540Y-103129458D01*
X100987895Y-103069330D01*
X100988999Y-103064829D01*
X101005886Y-103005818D01*
X101008494Y-102971557D01*
X101009585Y-102963789D01*
X101016500Y-102930143D01*
X101016500Y-102868798D01*
X101016679Y-102864088D01*
X101021337Y-102802924D01*
X101018473Y-102780438D01*
X101016997Y-102768842D01*
X101016500Y-102761003D01*
X101016500Y-102664758D01*
X101036185Y-102597719D01*
X101052827Y-102577069D01*
X101054495Y-102575401D01*
X101190035Y-102381829D01*
X101289903Y-102167663D01*
X101351063Y-101939408D01*
X101358973Y-101849000D01*
X102934357Y-101849000D01*
X102954884Y-102070535D01*
X102954885Y-102070537D01*
X103015769Y-102284523D01*
X103015775Y-102284538D01*
X103114938Y-102483683D01*
X103114943Y-102483691D01*
X103249020Y-102661238D01*
X103413437Y-102811123D01*
X103413439Y-102811125D01*
X103602595Y-102928245D01*
X103602596Y-102928245D01*
X103602599Y-102928247D01*
X103810060Y-103008618D01*
X104028757Y-103049500D01*
X104028759Y-103049500D01*
X104251241Y-103049500D01*
X104251243Y-103049500D01*
X104469940Y-103008618D01*
X104677401Y-102928247D01*
X104731572Y-102894706D01*
X104774586Y-102868073D01*
X104839863Y-102849500D01*
X105098820Y-102849500D01*
X105165859Y-102869185D01*
X105198085Y-102899187D01*
X105278454Y-103006546D01*
X105294798Y-103018781D01*
X105393664Y-103092793D01*
X105393671Y-103092797D01*
X105528513Y-103143090D01*
X105528514Y-103143090D01*
X105528517Y-103143091D01*
X105564353Y-103146944D01*
X105628901Y-103173679D01*
X105668751Y-103231070D01*
X105671246Y-103300896D01*
X105635595Y-103360985D01*
X105622223Y-103371805D01*
X105597182Y-103389339D01*
X105436342Y-103550179D01*
X105305865Y-103736517D01*
X105209734Y-103942673D01*
X105209730Y-103942682D01*
X105157127Y-104138999D01*
X105157128Y-104139000D01*
X106120314Y-104139000D01*
X106108359Y-104150955D01*
X106050835Y-104263852D01*
X106031014Y-104389000D01*
X106050835Y-104514148D01*
X106108359Y-104627045D01*
X106120314Y-104639000D01*
X105157128Y-104639000D01*
X105209730Y-104835317D01*
X105209734Y-104835326D01*
X105305865Y-105041482D01*
X105436342Y-105227820D01*
X105597179Y-105388657D01*
X105783517Y-105519134D01*
X105989673Y-105615265D01*
X105989682Y-105615269D01*
X106185999Y-105667872D01*
X106186000Y-105667871D01*
X106186000Y-104704686D01*
X106197955Y-104716641D01*
X106310852Y-104774165D01*
X106404519Y-104789000D01*
X106467481Y-104789000D01*
X106561148Y-104774165D01*
X106674045Y-104716641D01*
X106686000Y-104704686D01*
X106686000Y-105667872D01*
X106882317Y-105615269D01*
X106882326Y-105615265D01*
X107088482Y-105519134D01*
X107274820Y-105388657D01*
X107435657Y-105227820D01*
X107566134Y-105041482D01*
X107662265Y-104835326D01*
X107662269Y-104835317D01*
X107714872Y-104639000D01*
X106751686Y-104639000D01*
X106763641Y-104627045D01*
X106821165Y-104514148D01*
X106840986Y-104389000D01*
X106831131Y-104326779D01*
X112551643Y-104326779D01*
X112561918Y-104575234D01*
X112612951Y-104818616D01*
X112612953Y-104818622D01*
X112674186Y-104975547D01*
X112682170Y-104998806D01*
X112682171Y-104998808D01*
X112682172Y-104998810D01*
X112683530Y-105001320D01*
X112684251Y-105002652D01*
X112687481Y-105009620D01*
X112703344Y-105050274D01*
X112776102Y-105172379D01*
X112790720Y-105199390D01*
X112800521Y-105217501D01*
X112800523Y-105217504D01*
X112800526Y-105217509D01*
X112804615Y-105222762D01*
X112808690Y-105227999D01*
X112813026Y-105234345D01*
X112830633Y-105263892D01*
X112830637Y-105263899D01*
X112904625Y-105351255D01*
X112953262Y-105413744D01*
X112953265Y-105413747D01*
X113021921Y-105476950D01*
X113043866Y-105498894D01*
X113043874Y-105498902D01*
X113058855Y-105511590D01*
X113067565Y-105518967D01*
X113071253Y-105522362D01*
X113136215Y-105582164D01*
X113136217Y-105582165D01*
X113136218Y-105582166D01*
X113159086Y-105597106D01*
X113165250Y-105601702D01*
X113186106Y-105619366D01*
X113218505Y-105638671D01*
X113266278Y-105667139D01*
X113311394Y-105696614D01*
X113344393Y-105718173D01*
X113369412Y-105729147D01*
X113376243Y-105732663D01*
X113389657Y-105740656D01*
X113399720Y-105746653D01*
X113399730Y-105746658D01*
X113486663Y-105780579D01*
X113524147Y-105797020D01*
X113572119Y-105818063D01*
X113596908Y-105824340D01*
X113598609Y-105824771D01*
X113605932Y-105827116D01*
X113631386Y-105837049D01*
X113722711Y-105856198D01*
X113813179Y-105879108D01*
X113813184Y-105879108D01*
X113813187Y-105879109D01*
X113840406Y-105881364D01*
X113848016Y-105882473D01*
X113862880Y-105885589D01*
X113874763Y-105888081D01*
X113968009Y-105891937D01*
X113998933Y-105894500D01*
X114029965Y-105894500D01*
X114123219Y-105898357D01*
X114123220Y-105898357D01*
X114123220Y-105898356D01*
X114123221Y-105898357D01*
X114127307Y-105897847D01*
X114150342Y-105894977D01*
X114158018Y-105894500D01*
X116394065Y-105894500D01*
X116394067Y-105894500D01*
X116471533Y-105888081D01*
X116579813Y-105879109D01*
X116579816Y-105879108D01*
X116579821Y-105879108D01*
X116820881Y-105818063D01*
X117048607Y-105718173D01*
X117256785Y-105582164D01*
X117439738Y-105413744D01*
X117592474Y-105217509D01*
X117710828Y-104998810D01*
X117791571Y-104763614D01*
X117811531Y-104644000D01*
X120235505Y-104644000D01*
X120288239Y-104829349D01*
X120387368Y-105028425D01*
X120521391Y-105205900D01*
X120685738Y-105355721D01*
X120874820Y-105472797D01*
X120874822Y-105472798D01*
X121082195Y-105553135D01*
X121162000Y-105568052D01*
X121162000Y-104644000D01*
X120235505Y-104644000D01*
X117811531Y-104644000D01*
X117832500Y-104518335D01*
X117832500Y-104269665D01*
X117791571Y-104024386D01*
X117710828Y-103789190D01*
X117592474Y-103570491D01*
X117439738Y-103374256D01*
X117284489Y-103231339D01*
X117256782Y-103205833D01*
X117048608Y-103069827D01*
X117025937Y-103059883D01*
X116972452Y-103014926D01*
X116951762Y-102948190D01*
X116970437Y-102880863D01*
X117010469Y-102840901D01*
X117058562Y-102811124D01*
X117175233Y-102704764D01*
X117222979Y-102661238D01*
X117222983Y-102661234D01*
X117357058Y-102483689D01*
X117456229Y-102284528D01*
X117505013Y-102113065D01*
X117536596Y-102059323D01*
X118110101Y-101485819D01*
X118171424Y-101452334D01*
X118197782Y-101449500D01*
X120113318Y-101449500D01*
X120180357Y-101469185D01*
X120226112Y-101521989D01*
X120236056Y-101591147D01*
X120232584Y-101607435D01*
X120226884Y-101627464D01*
X120206357Y-101848999D01*
X120206357Y-101849000D01*
X120226884Y-102070535D01*
X120226885Y-102070537D01*
X120287769Y-102284523D01*
X120287775Y-102284538D01*
X120386938Y-102483683D01*
X120386943Y-102483691D01*
X120521020Y-102661238D01*
X120685437Y-102811123D01*
X120685439Y-102811125D01*
X120874595Y-102928245D01*
X120874596Y-102928245D01*
X120874599Y-102928247D01*
X121075668Y-103006141D01*
X121131067Y-103048713D01*
X121154658Y-103114480D01*
X121138947Y-103182560D01*
X121088923Y-103231339D01*
X121075666Y-103237393D01*
X120874831Y-103315197D01*
X120874820Y-103315202D01*
X120685738Y-103432278D01*
X120521391Y-103582099D01*
X120387368Y-103759574D01*
X120288239Y-103958650D01*
X120235505Y-104144000D01*
X121166419Y-104144000D01*
X121114940Y-104199921D01*
X121068018Y-104306892D01*
X121058372Y-104423302D01*
X121087047Y-104536538D01*
X121150936Y-104634327D01*
X121243115Y-104706072D01*
X121353595Y-104744000D01*
X121441005Y-104744000D01*
X121527216Y-104729614D01*
X121629947Y-104674019D01*
X121657581Y-104644000D01*
X121662000Y-104644000D01*
X121662000Y-105568052D01*
X121741804Y-105553135D01*
X121949177Y-105472798D01*
X121949179Y-105472797D01*
X122138261Y-105355721D01*
X122302608Y-105205900D01*
X122436631Y-105028425D01*
X122535760Y-104829349D01*
X122588495Y-104644000D01*
X121662000Y-104644000D01*
X121657581Y-104644000D01*
X121709060Y-104588079D01*
X121755982Y-104481108D01*
X121765628Y-104364698D01*
X121736953Y-104251462D01*
X121673064Y-104153673D01*
X121660636Y-104144000D01*
X122588495Y-104144000D01*
X122535760Y-103958650D01*
X122436631Y-103759574D01*
X122302608Y-103582099D01*
X122138261Y-103432278D01*
X121949179Y-103315202D01*
X121949177Y-103315201D01*
X121748333Y-103237394D01*
X121692931Y-103194821D01*
X121669341Y-103129054D01*
X121685052Y-103060974D01*
X121735076Y-103012195D01*
X121748320Y-103006146D01*
X121949401Y-102928247D01*
X122138562Y-102811124D01*
X122295488Y-102668067D01*
X122302980Y-102661237D01*
X122302981Y-102661236D01*
X122388880Y-102547487D01*
X122426310Y-102497922D01*
X122482419Y-102456285D01*
X122552130Y-102451593D01*
X122612945Y-102484967D01*
X125483717Y-105355738D01*
X125517202Y-105417061D01*
X125512218Y-105486753D01*
X125480377Y-105534318D01*
X125295442Y-105705910D01*
X125127185Y-105916898D01*
X124992258Y-106150599D01*
X124992256Y-106150603D01*
X124893666Y-106401804D01*
X124893664Y-106401811D01*
X124833616Y-106664898D01*
X124813451Y-106933995D01*
X124813451Y-106934004D01*
X124833616Y-107203101D01*
X124893664Y-107466188D01*
X124893666Y-107466195D01*
X124992256Y-107717396D01*
X124992258Y-107717400D01*
X124995593Y-107723177D01*
X125127185Y-107951102D01*
X125254930Y-108111288D01*
X125295442Y-108162089D01*
X125478205Y-108331667D01*
X125493259Y-108345635D01*
X125716226Y-108497651D01*
X125959359Y-108614738D01*
X126217228Y-108694280D01*
X126217229Y-108694280D01*
X126217232Y-108694281D01*
X126484063Y-108734499D01*
X126484068Y-108734499D01*
X126484071Y-108734500D01*
X126484072Y-108734500D01*
X126753928Y-108734500D01*
X126753929Y-108734500D01*
X126753936Y-108734499D01*
X127020767Y-108694281D01*
X127020768Y-108694280D01*
X127020772Y-108694280D01*
X127278641Y-108614738D01*
X127521775Y-108497651D01*
X127744741Y-108345635D01*
X127942561Y-108162085D01*
X128110815Y-107951102D01*
X128245743Y-107717398D01*
X128344334Y-107466195D01*
X128404383Y-107203103D01*
X128416951Y-107035386D01*
X128424549Y-106934004D01*
X128424549Y-106933995D01*
X128404389Y-106664973D01*
X128404383Y-106664897D01*
X128344334Y-106401805D01*
X128245743Y-106150602D01*
X128110815Y-105916898D01*
X127942561Y-105705915D01*
X127942560Y-105705914D01*
X127942557Y-105705910D01*
X127785239Y-105559942D01*
X127744741Y-105522365D01*
X127744737Y-105522362D01*
X127744730Y-105522356D01*
X127673648Y-105473893D01*
X127629346Y-105419864D01*
X127619500Y-105371440D01*
X127619500Y-105088816D01*
X127621757Y-104999742D01*
X127621756Y-104999741D01*
X127621757Y-104999738D01*
X127610933Y-104939350D01*
X127610280Y-104934688D01*
X127604074Y-104873664D01*
X127599727Y-104859809D01*
X127593784Y-104840869D01*
X127591917Y-104833256D01*
X127589294Y-104818622D01*
X127585858Y-104799448D01*
X127563100Y-104742475D01*
X127561521Y-104738039D01*
X127560896Y-104736047D01*
X127543159Y-104679513D01*
X127543158Y-104679511D01*
X127543157Y-104679508D01*
X127526488Y-104649479D01*
X127523117Y-104642379D01*
X127513904Y-104619315D01*
X127510377Y-104610484D01*
X127476620Y-104559264D01*
X127474180Y-104555235D01*
X127463379Y-104535776D01*
X127444409Y-104501599D01*
X127444407Y-104501596D01*
X127422033Y-104475535D01*
X127417302Y-104469260D01*
X127413782Y-104463919D01*
X127398402Y-104440582D01*
X127355012Y-104397192D01*
X127351822Y-104393749D01*
X127311867Y-104347207D01*
X127311863Y-104347203D01*
X127284698Y-104326175D01*
X127278803Y-104320983D01*
X122708351Y-99750532D01*
X122646960Y-99685949D01*
X122646959Y-99685948D01*
X122646958Y-99685947D01*
X122611548Y-99661301D01*
X122596608Y-99650902D01*
X122592845Y-99648064D01*
X122545312Y-99609305D01*
X122545305Y-99609300D01*
X122514858Y-99593397D01*
X122508150Y-99589334D01*
X122479948Y-99569705D01*
X122479945Y-99569703D01*
X122479944Y-99569703D01*
X122479940Y-99569701D01*
X122423579Y-99545514D01*
X122419323Y-99543493D01*
X122364956Y-99515094D01*
X122364949Y-99515091D01*
X122364948Y-99515091D01*
X122358907Y-99513362D01*
X122331929Y-99505642D01*
X122324529Y-99503008D01*
X122292956Y-99489459D01*
X122292957Y-99489459D01*
X122232865Y-99477109D01*
X122228290Y-99475986D01*
X122169319Y-99459113D01*
X122169324Y-99459113D01*
X122135057Y-99456503D01*
X122127279Y-99455412D01*
X122093641Y-99448500D01*
X122093640Y-99448500D01*
X122032301Y-99448500D01*
X122027594Y-99448321D01*
X122022020Y-99447896D01*
X121966423Y-99443662D01*
X121946488Y-99446201D01*
X121932339Y-99448003D01*
X121924510Y-99448500D01*
X117744717Y-99448500D01*
X117655637Y-99446243D01*
X117655628Y-99446243D01*
X117604476Y-99455412D01*
X117595254Y-99457064D01*
X117590595Y-99457718D01*
X117529564Y-99463925D01*
X117529562Y-99463926D01*
X117496780Y-99474210D01*
X117489156Y-99476081D01*
X117486057Y-99476637D01*
X117455349Y-99482141D01*
X117398381Y-99504895D01*
X117393945Y-99506474D01*
X117335414Y-99524840D01*
X117335410Y-99524842D01*
X117305378Y-99541510D01*
X117298284Y-99544879D01*
X117266382Y-99557623D01*
X117266377Y-99557625D01*
X117215156Y-99591381D01*
X117211128Y-99593822D01*
X117157501Y-99623588D01*
X117131434Y-99645965D01*
X117125165Y-99650692D01*
X117096484Y-99669595D01*
X117096478Y-99669600D01*
X117053109Y-99712968D01*
X117049655Y-99716169D01*
X117003102Y-99756136D01*
X116982076Y-99783298D01*
X116976885Y-99789192D01*
X116121008Y-100645069D01*
X116059685Y-100678554D01*
X116056115Y-100679276D01*
X116002067Y-100689380D01*
X116002060Y-100689382D01*
X115794601Y-100769751D01*
X115794595Y-100769754D01*
X115697414Y-100829927D01*
X115632137Y-100848500D01*
X114933588Y-100848500D01*
X114866549Y-100828815D01*
X114862465Y-100826075D01*
X114851442Y-100818357D01*
X114708734Y-100718432D01*
X114664759Y-100697926D01*
X114502497Y-100622261D01*
X114502488Y-100622258D01*
X114282697Y-100563366D01*
X114282693Y-100563365D01*
X114282692Y-100563365D01*
X114282691Y-100563364D01*
X114282686Y-100563364D01*
X114056002Y-100543532D01*
X114055998Y-100543532D01*
X113829313Y-100563364D01*
X113829302Y-100563366D01*
X113609511Y-100622258D01*
X113609502Y-100622261D01*
X113403267Y-100718431D01*
X113403265Y-100718432D01*
X113216858Y-100848954D01*
X113055954Y-101009858D01*
X112925432Y-101196265D01*
X112925431Y-101196267D01*
X112829261Y-101402502D01*
X112829258Y-101402511D01*
X112770366Y-101622302D01*
X112770364Y-101622313D01*
X112750532Y-101848998D01*
X112750532Y-101849001D01*
X112770364Y-102075686D01*
X112770366Y-102075697D01*
X112829258Y-102295488D01*
X112829261Y-102295497D01*
X112925431Y-102501732D01*
X112925432Y-102501734D01*
X113055954Y-102688141D01*
X113216855Y-102849042D01*
X113216858Y-102849044D01*
X113216861Y-102849047D01*
X113282073Y-102894708D01*
X113325696Y-102949283D01*
X113332890Y-103018781D01*
X113301368Y-103081136D01*
X113283002Y-103097199D01*
X113082901Y-103240069D01*
X112907069Y-103415901D01*
X112762570Y-103618284D01*
X112762566Y-103618291D01*
X112653356Y-103841684D01*
X112582401Y-104080018D01*
X112551643Y-104326779D01*
X106831131Y-104326779D01*
X106821165Y-104263852D01*
X106763641Y-104150955D01*
X106751686Y-104139000D01*
X107714872Y-104139000D01*
X107714872Y-104138999D01*
X107662269Y-103942682D01*
X107662265Y-103942673D01*
X107566134Y-103736517D01*
X107435657Y-103550179D01*
X107274820Y-103389342D01*
X107249779Y-103371808D01*
X107206154Y-103317230D01*
X107198962Y-103247732D01*
X107230484Y-103185377D01*
X107290714Y-103149964D01*
X107307650Y-103146943D01*
X107343483Y-103143091D01*
X107362937Y-103135835D01*
X107478331Y-103092796D01*
X107593546Y-103006546D01*
X107679796Y-102891331D01*
X107730091Y-102756483D01*
X107736500Y-102696873D01*
X107736499Y-101001128D01*
X107730091Y-100941517D01*
X107709711Y-100886876D01*
X107679797Y-100806671D01*
X107679793Y-100806664D01*
X107593547Y-100691455D01*
X107593544Y-100691452D01*
X107478335Y-100605206D01*
X107478328Y-100605202D01*
X107343482Y-100554908D01*
X107343483Y-100554908D01*
X107283883Y-100548501D01*
X107283881Y-100548500D01*
X107283873Y-100548500D01*
X107283864Y-100548500D01*
X105588129Y-100548500D01*
X105588123Y-100548501D01*
X105528516Y-100554908D01*
X105393671Y-100605202D01*
X105393664Y-100605206D01*
X105278456Y-100691452D01*
X105278455Y-100691453D01*
X105278454Y-100691454D01*
X105198087Y-100798811D01*
X105142153Y-100840682D01*
X105098820Y-100848500D01*
X104839863Y-100848500D01*
X104774586Y-100829927D01*
X104677404Y-100769754D01*
X104677398Y-100769752D01*
X104469940Y-100689382D01*
X104251243Y-100648500D01*
X104028757Y-100648500D01*
X103810060Y-100689382D01*
X103727415Y-100721399D01*
X103602601Y-100769752D01*
X103602595Y-100769754D01*
X103413439Y-100886874D01*
X103413437Y-100886876D01*
X103249020Y-101036761D01*
X103114943Y-101214308D01*
X103114938Y-101214316D01*
X103015775Y-101413461D01*
X103015769Y-101413476D01*
X102954885Y-101627462D01*
X102954884Y-101627464D01*
X102934357Y-101848999D01*
X102934357Y-101849000D01*
X101358973Y-101849000D01*
X101366500Y-101762966D01*
X101366500Y-101395034D01*
X101351063Y-101218592D01*
X101302342Y-101036761D01*
X101289905Y-100990344D01*
X101289904Y-100990343D01*
X101289903Y-100990337D01*
X101190035Y-100776171D01*
X101185689Y-100769963D01*
X101054494Y-100582597D01*
X100887402Y-100415506D01*
X100887395Y-100415501D01*
X100885318Y-100414047D01*
X100816067Y-100365556D01*
X100693834Y-100279967D01*
X100693830Y-100279965D01*
X100641536Y-100255580D01*
X100479663Y-100180097D01*
X100479659Y-100180096D01*
X100479655Y-100180094D01*
X100251413Y-100118938D01*
X100251403Y-100118936D01*
X100016001Y-100098341D01*
X100015999Y-100098341D01*
X99780596Y-100118936D01*
X99780586Y-100118938D01*
X99552344Y-100180094D01*
X99552335Y-100180098D01*
X99338171Y-100279964D01*
X99338169Y-100279965D01*
X99144597Y-100415505D01*
X98977505Y-100582597D01*
X98867575Y-100739595D01*
X98812998Y-100783220D01*
X98743500Y-100790414D01*
X98681145Y-100758891D01*
X98664425Y-100739595D01*
X98554494Y-100582597D01*
X98552819Y-100580922D01*
X98552315Y-100580000D01*
X98551014Y-100578449D01*
X98551325Y-100578187D01*
X98519334Y-100519599D01*
X98516500Y-100493241D01*
X98516500Y-99748982D01*
X98536185Y-99681943D01*
X98552814Y-99661306D01*
X101333287Y-96880833D01*
X101397853Y-96819459D01*
X101426837Y-96777815D01*
X101432897Y-96769109D01*
X101435724Y-96765357D01*
X101474498Y-96717807D01*
X101490407Y-96687348D01*
X101494467Y-96680648D01*
X101514095Y-96652449D01*
X101538292Y-96596060D01*
X101540298Y-96591835D01*
X101568709Y-96537449D01*
X101578157Y-96504422D01*
X101580788Y-96497033D01*
X101594340Y-96465458D01*
X101606695Y-96405330D01*
X101607799Y-96400829D01*
X101624686Y-96341818D01*
X101627294Y-96307557D01*
X101628385Y-96299789D01*
X101635300Y-96266143D01*
X101635300Y-96204798D01*
X101635479Y-96200088D01*
X101636067Y-96192367D01*
X101640137Y-96138924D01*
X101635797Y-96104842D01*
X101635300Y-96097003D01*
X101635300Y-90534183D01*
X101654985Y-90467144D01*
X101671619Y-90446502D01*
X105250117Y-86868004D01*
X108404233Y-86868004D01*
X108423273Y-87122079D01*
X108479968Y-87370477D01*
X108479973Y-87370494D01*
X108573058Y-87607671D01*
X108573057Y-87607671D01*
X108700457Y-87828332D01*
X108742452Y-87880993D01*
X108742453Y-87880993D01*
X109546226Y-87077219D01*
X109584901Y-87170588D01*
X109681075Y-87295925D01*
X109806412Y-87392099D01*
X109899779Y-87430772D01*
X109095813Y-88234737D01*
X109256623Y-88344375D01*
X109256624Y-88344376D01*
X109486176Y-88454921D01*
X109486174Y-88454921D01*
X109729652Y-88530024D01*
X109729658Y-88530026D01*
X109981595Y-88567999D01*
X109981604Y-88568000D01*
X110236396Y-88568000D01*
X110236404Y-88567999D01*
X110488341Y-88530026D01*
X110488347Y-88530024D01*
X110731824Y-88454921D01*
X110961381Y-88344373D01*
X111122185Y-88234737D01*
X110318220Y-87430772D01*
X110411588Y-87392099D01*
X110536925Y-87295925D01*
X110633099Y-87170589D01*
X110671773Y-87077220D01*
X111475545Y-87880993D01*
X111517545Y-87828327D01*
X111644941Y-87607671D01*
X111738026Y-87370494D01*
X111738031Y-87370477D01*
X111794726Y-87122079D01*
X111813767Y-86868004D01*
X111813767Y-86867995D01*
X111799810Y-86681763D01*
X129870187Y-86681763D01*
X129899813Y-86951013D01*
X129899815Y-86951024D01*
X129968140Y-87212369D01*
X129968328Y-87213088D01*
X130074270Y-87462390D01*
X130155112Y-87594854D01*
X130215379Y-87693605D01*
X130215386Y-87693615D01*
X130388653Y-87901819D01*
X130388659Y-87901824D01*
X130590398Y-88082582D01*
X130816310Y-88232044D01*
X131061576Y-88347020D01*
X131061583Y-88347022D01*
X131061585Y-88347023D01*
X131320957Y-88425057D01*
X131320964Y-88425058D01*
X131320969Y-88425060D01*
X131588961Y-88464500D01*
X131588966Y-88464500D01*
X131792036Y-88464500D01*
X131843533Y-88460730D01*
X131994556Y-88449677D01*
X132107158Y-88424593D01*
X132258946Y-88390782D01*
X132258948Y-88390781D01*
X132258953Y-88390780D01*
X132511958Y-88294014D01*
X132748177Y-88161441D01*
X132962577Y-87995888D01*
X133150586Y-87800881D01*
X133308199Y-87580579D01*
X133382187Y-87436669D01*
X133432049Y-87339690D01*
X133432051Y-87339684D01*
X133432056Y-87339675D01*
X133519518Y-87083305D01*
X133568719Y-86816933D01*
X133573659Y-86681763D01*
X145821387Y-86681763D01*
X145851013Y-86951013D01*
X145851015Y-86951024D01*
X145919340Y-87212369D01*
X145919528Y-87213088D01*
X146025470Y-87462390D01*
X146106312Y-87594854D01*
X146166579Y-87693605D01*
X146166586Y-87693615D01*
X146339853Y-87901819D01*
X146339859Y-87901824D01*
X146541598Y-88082582D01*
X146767510Y-88232044D01*
X147012776Y-88347020D01*
X147012783Y-88347022D01*
X147012785Y-88347023D01*
X147272157Y-88425057D01*
X147272164Y-88425058D01*
X147272169Y-88425060D01*
X147540161Y-88464500D01*
X147540166Y-88464500D01*
X147743236Y-88464500D01*
X147794733Y-88460730D01*
X147945756Y-88449677D01*
X148058358Y-88424593D01*
X148210146Y-88390782D01*
X148210148Y-88390781D01*
X148210153Y-88390780D01*
X148463158Y-88294014D01*
X148699377Y-88161441D01*
X148913777Y-87995888D01*
X149101786Y-87800881D01*
X149259399Y-87580579D01*
X149333387Y-87436669D01*
X149383249Y-87339690D01*
X149383251Y-87339684D01*
X149383256Y-87339675D01*
X149470718Y-87083305D01*
X149502769Y-86909784D01*
X167586233Y-86909784D01*
X167605273Y-87163859D01*
X167661968Y-87412257D01*
X167661973Y-87412274D01*
X167755058Y-87649451D01*
X167755057Y-87649451D01*
X167882457Y-87870112D01*
X167924452Y-87922773D01*
X167924453Y-87922773D01*
X168728226Y-87118999D01*
X168766901Y-87212368D01*
X168863075Y-87337705D01*
X168988412Y-87433879D01*
X169081779Y-87472552D01*
X168277813Y-88276517D01*
X168438623Y-88386155D01*
X168438624Y-88386156D01*
X168668176Y-88496701D01*
X168668174Y-88496701D01*
X168911652Y-88571804D01*
X168911658Y-88571806D01*
X169163595Y-88609779D01*
X169163604Y-88609780D01*
X169418396Y-88609780D01*
X169418404Y-88609779D01*
X169670341Y-88571806D01*
X169670347Y-88571804D01*
X169913824Y-88496701D01*
X170143381Y-88386153D01*
X170304185Y-88276517D01*
X169500220Y-87472552D01*
X169593588Y-87433879D01*
X169718925Y-87337705D01*
X169815099Y-87212369D01*
X169853773Y-87119000D01*
X170657545Y-87922773D01*
X170699545Y-87870107D01*
X170826941Y-87649451D01*
X170920026Y-87412274D01*
X170920031Y-87412257D01*
X170976726Y-87163859D01*
X170995767Y-86909784D01*
X170995767Y-86909775D01*
X170976726Y-86655700D01*
X170920031Y-86407302D01*
X170920026Y-86407285D01*
X170826941Y-86170108D01*
X170826942Y-86170108D01*
X170699544Y-85949451D01*
X170657546Y-85896786D01*
X169853772Y-86700559D01*
X169815099Y-86607192D01*
X169718925Y-86481855D01*
X169593588Y-86385681D01*
X169500220Y-86347007D01*
X170304185Y-85543041D01*
X170143377Y-85433404D01*
X170143376Y-85433403D01*
X169913823Y-85322858D01*
X169913825Y-85322858D01*
X169670347Y-85247755D01*
X169670341Y-85247753D01*
X169418404Y-85209780D01*
X169163595Y-85209780D01*
X168911658Y-85247753D01*
X168911652Y-85247755D01*
X168668175Y-85322858D01*
X168438624Y-85433403D01*
X168438616Y-85433408D01*
X168277813Y-85543041D01*
X169081779Y-86347007D01*
X168988412Y-86385681D01*
X168863075Y-86481855D01*
X168766901Y-86607191D01*
X168728226Y-86700559D01*
X167924453Y-85896786D01*
X167882455Y-85949450D01*
X167755058Y-86170108D01*
X167661973Y-86407285D01*
X167661968Y-86407302D01*
X167605273Y-86655700D01*
X167586233Y-86909775D01*
X167586233Y-86909784D01*
X149502769Y-86909784D01*
X149519919Y-86816933D01*
X149529812Y-86546235D01*
X149500186Y-86276982D01*
X149431672Y-86014912D01*
X149325730Y-85765610D01*
X149184618Y-85534390D01*
X149157048Y-85501261D01*
X149011346Y-85326180D01*
X149011340Y-85326175D01*
X148809602Y-85145418D01*
X148583692Y-84995957D01*
X148567574Y-84988401D01*
X148338424Y-84880980D01*
X148338419Y-84880978D01*
X148338414Y-84880976D01*
X148079042Y-84802942D01*
X148079028Y-84802939D01*
X147963391Y-84785921D01*
X147811039Y-84763500D01*
X147607969Y-84763500D01*
X147607964Y-84763500D01*
X147405444Y-84778323D01*
X147405431Y-84778325D01*
X147141053Y-84837217D01*
X147141046Y-84837220D01*
X146888039Y-84933987D01*
X146651826Y-85066557D01*
X146437422Y-85232112D01*
X146249422Y-85427109D01*
X146249416Y-85427116D01*
X146091802Y-85647419D01*
X146091799Y-85647424D01*
X145967950Y-85888309D01*
X145967943Y-85888327D01*
X145880484Y-86144685D01*
X145880482Y-86144695D01*
X145831977Y-86407302D01*
X145831281Y-86411068D01*
X145831280Y-86411075D01*
X145821387Y-86681763D01*
X133573659Y-86681763D01*
X133578612Y-86546235D01*
X133548986Y-86276982D01*
X133480472Y-86014912D01*
X133374530Y-85765610D01*
X133233418Y-85534390D01*
X133205848Y-85501261D01*
X133060146Y-85326180D01*
X133060140Y-85326175D01*
X132858402Y-85145418D01*
X132632492Y-84995957D01*
X132616374Y-84988401D01*
X132387224Y-84880980D01*
X132387219Y-84880978D01*
X132387214Y-84880976D01*
X132127842Y-84802942D01*
X132127828Y-84802939D01*
X132012191Y-84785921D01*
X131859839Y-84763500D01*
X131656769Y-84763500D01*
X131656764Y-84763500D01*
X131454244Y-84778323D01*
X131454231Y-84778325D01*
X131189853Y-84837217D01*
X131189846Y-84837220D01*
X130936839Y-84933987D01*
X130700626Y-85066557D01*
X130486222Y-85232112D01*
X130298222Y-85427109D01*
X130298216Y-85427116D01*
X130140602Y-85647419D01*
X130140599Y-85647424D01*
X130016750Y-85888309D01*
X130016743Y-85888327D01*
X129929284Y-86144685D01*
X129929282Y-86144695D01*
X129880777Y-86407302D01*
X129880081Y-86411068D01*
X129880080Y-86411075D01*
X129870187Y-86681763D01*
X111799810Y-86681763D01*
X111794726Y-86613920D01*
X111738031Y-86365522D01*
X111738026Y-86365505D01*
X111644941Y-86128328D01*
X111644942Y-86128328D01*
X111517544Y-85907671D01*
X111475546Y-85855006D01*
X110671772Y-86658779D01*
X110633099Y-86565412D01*
X110536925Y-86440075D01*
X110411588Y-86343901D01*
X110318220Y-86305227D01*
X111122185Y-85501261D01*
X110961377Y-85391624D01*
X110961376Y-85391623D01*
X110731823Y-85281078D01*
X110731825Y-85281078D01*
X110488347Y-85205975D01*
X110488341Y-85205973D01*
X110236404Y-85168000D01*
X109981595Y-85168000D01*
X109729658Y-85205973D01*
X109729652Y-85205975D01*
X109486175Y-85281078D01*
X109256624Y-85391623D01*
X109256616Y-85391628D01*
X109095813Y-85501261D01*
X109899779Y-86305227D01*
X109806412Y-86343901D01*
X109681075Y-86440075D01*
X109584901Y-86565411D01*
X109546227Y-86658779D01*
X108742453Y-85855006D01*
X108700455Y-85907670D01*
X108573058Y-86128328D01*
X108479973Y-86365505D01*
X108479968Y-86365522D01*
X108423273Y-86613920D01*
X108404233Y-86867995D01*
X108404233Y-86868004D01*
X105250117Y-86868004D01*
X108383302Y-83734819D01*
X108444625Y-83701334D01*
X108470983Y-83698500D01*
X176873784Y-83698500D01*
X176940823Y-83718185D01*
X176986578Y-83770989D01*
X176996522Y-83840147D01*
X176967497Y-83903703D01*
X176961465Y-83910181D01*
X169403071Y-91468575D01*
X169341748Y-91502060D01*
X169272056Y-91497076D01*
X169227709Y-91468575D01*
X168724094Y-90964960D01*
X167988046Y-90228912D01*
X167962724Y-90203590D01*
X167937404Y-90178269D01*
X167937393Y-90178259D01*
X167881825Y-90136661D01*
X167878378Y-90133884D01*
X167825923Y-90088430D01*
X167825918Y-90088427D01*
X167825917Y-90088426D01*
X167767499Y-90050883D01*
X167763875Y-90048366D01*
X167708315Y-90006774D01*
X167708310Y-90006771D01*
X167708309Y-90006770D01*
X167647396Y-89973509D01*
X167643589Y-89971250D01*
X167585192Y-89933720D01*
X167585182Y-89933715D01*
X167547929Y-89916703D01*
X167522034Y-89904877D01*
X167518104Y-89902910D01*
X167457161Y-89869633D01*
X167457156Y-89869631D01*
X167392117Y-89845372D01*
X167388029Y-89843678D01*
X167324891Y-89814845D01*
X167258292Y-89795289D01*
X167254092Y-89793891D01*
X167189047Y-89769631D01*
X167189050Y-89769631D01*
X167121205Y-89754873D01*
X167116915Y-89753778D01*
X167050331Y-89734227D01*
X167050318Y-89734224D01*
X166981616Y-89724346D01*
X166977272Y-89723562D01*
X166948415Y-89717285D01*
X166909431Y-89708804D01*
X166840184Y-89703850D01*
X166835784Y-89703377D01*
X166767082Y-89693500D01*
X166767079Y-89693500D01*
X166695448Y-89693500D01*
X112926079Y-89693500D01*
X112639921Y-89693500D01*
X112639915Y-89693500D01*
X112571212Y-89703377D01*
X112566814Y-89703850D01*
X112497569Y-89708804D01*
X112429732Y-89723559D01*
X112425380Y-89724344D01*
X112356683Y-89734224D01*
X112356680Y-89734224D01*
X112356677Y-89734225D01*
X112356674Y-89734225D01*
X112356668Y-89734227D01*
X112290078Y-89753778D01*
X112285791Y-89754873D01*
X112217951Y-89769631D01*
X112152918Y-89793887D01*
X112148718Y-89795285D01*
X112082122Y-89814840D01*
X112082110Y-89814844D01*
X112018977Y-89843676D01*
X112014888Y-89845370D01*
X111949842Y-89869631D01*
X111949831Y-89869636D01*
X111888917Y-89902898D01*
X111884960Y-89904878D01*
X111821815Y-89933716D01*
X111821813Y-89933717D01*
X111763414Y-89971247D01*
X111759610Y-89973504D01*
X111698683Y-90006775D01*
X111643117Y-90048370D01*
X111639482Y-90050893D01*
X111581086Y-90088422D01*
X111581075Y-90088430D01*
X111541157Y-90123020D01*
X111528603Y-90133898D01*
X111525167Y-90136667D01*
X111469606Y-90178259D01*
X111469595Y-90178269D01*
X111435835Y-90212031D01*
X111418954Y-90228912D01*
X111017767Y-90630099D01*
X109016683Y-92631181D01*
X108955360Y-92664666D01*
X108929004Y-92667500D01*
X108861130Y-92667500D01*
X108861123Y-92667501D01*
X108801516Y-92673908D01*
X108666671Y-92724202D01*
X108666664Y-92724206D01*
X108551455Y-92810452D01*
X108551452Y-92810455D01*
X108465206Y-92925664D01*
X108465202Y-92925671D01*
X108414908Y-93060517D01*
X108408501Y-93120116D01*
X108408500Y-93120135D01*
X108408500Y-93276343D01*
X108393324Y-93335785D01*
X108388501Y-93344614D01*
X108386247Y-93348412D01*
X108348722Y-93406805D01*
X108319882Y-93469953D01*
X108317901Y-93473911D01*
X108284634Y-93534836D01*
X108284629Y-93534846D01*
X108260373Y-93599879D01*
X108258680Y-93603967D01*
X108229842Y-93667115D01*
X108229841Y-93667119D01*
X108210286Y-93733715D01*
X108208888Y-93737914D01*
X108184632Y-93802947D01*
X108184631Y-93802952D01*
X108169871Y-93870798D01*
X108168777Y-93875086D01*
X108149226Y-93941674D01*
X108149224Y-93941683D01*
X108139344Y-94010386D01*
X108138559Y-94014740D01*
X108123804Y-94082570D01*
X108123803Y-94082574D01*
X108118850Y-94151815D01*
X108118377Y-94156213D01*
X108108500Y-94224915D01*
X108108500Y-94294338D01*
X108108342Y-94298762D01*
X108103390Y-94367998D01*
X108103390Y-94368001D01*
X108108342Y-94437236D01*
X108108500Y-94441660D01*
X108108500Y-94511082D01*
X108118377Y-94579784D01*
X108118850Y-94584184D01*
X108123804Y-94653430D01*
X108123804Y-94653433D01*
X108138560Y-94721259D01*
X108139346Y-94725616D01*
X108149224Y-94794318D01*
X108149227Y-94794331D01*
X108168778Y-94860915D01*
X108169873Y-94865205D01*
X108184631Y-94933048D01*
X108208891Y-94998092D01*
X108210289Y-95002292D01*
X108229845Y-95068891D01*
X108258678Y-95132029D01*
X108260372Y-95136117D01*
X108264954Y-95148401D01*
X108284633Y-95201161D01*
X108317910Y-95262104D01*
X108319883Y-95266046D01*
X108348715Y-95329182D01*
X108348720Y-95329191D01*
X108386247Y-95387583D01*
X108388506Y-95391391D01*
X108393332Y-95400229D01*
X108408500Y-95459655D01*
X108408500Y-95615869D01*
X108408501Y-95615876D01*
X108414908Y-95675483D01*
X108465202Y-95810328D01*
X108465206Y-95810335D01*
X108551452Y-95925544D01*
X108551455Y-95925547D01*
X108666664Y-96011793D01*
X108666671Y-96011797D01*
X108703232Y-96025433D01*
X108801517Y-96062091D01*
X108861127Y-96068500D01*
X109017342Y-96068499D01*
X109076765Y-96083664D01*
X109085603Y-96088490D01*
X109089414Y-96090751D01*
X109147813Y-96128282D01*
X109147815Y-96128283D01*
X109147818Y-96128285D01*
X109210958Y-96157119D01*
X109214917Y-96159101D01*
X109241013Y-96173350D01*
X109275839Y-96192367D01*
X109275842Y-96192368D01*
X109275847Y-96192370D01*
X109340881Y-96216626D01*
X109344955Y-96218313D01*
X109397172Y-96242160D01*
X109408114Y-96247157D01*
X109430347Y-96253684D01*
X109474718Y-96266713D01*
X109478884Y-96268099D01*
X109543954Y-96292369D01*
X109595783Y-96303643D01*
X109611799Y-96307127D01*
X109616078Y-96308219D01*
X109682678Y-96327775D01*
X109751389Y-96337653D01*
X109755733Y-96338438D01*
X109823572Y-96353196D01*
X109892821Y-96358148D01*
X109897197Y-96358618D01*
X109965921Y-96368500D01*
X110037552Y-96368500D01*
X113274921Y-96368500D01*
X113346552Y-96368500D01*
X115038921Y-96368500D01*
X115110552Y-96368500D01*
X118354921Y-96368500D01*
X118426552Y-96368500D01*
X120118921Y-96368500D01*
X120190552Y-96368500D01*
X123434921Y-96368500D01*
X123506552Y-96368500D01*
X125198921Y-96368500D01*
X125270552Y-96368500D01*
X126939804Y-96368500D01*
X127006843Y-96388185D01*
X127027485Y-96404819D01*
X129662181Y-99039515D01*
X129695666Y-99100838D01*
X129698500Y-99127196D01*
X129698500Y-107005448D01*
X129713804Y-107219433D01*
X129774628Y-107499037D01*
X129774630Y-107499043D01*
X129774631Y-107499046D01*
X129864964Y-107741238D01*
X129874635Y-107767166D01*
X130011770Y-108018309D01*
X130011775Y-108018317D01*
X130183254Y-108247387D01*
X130183270Y-108247405D01*
X130385594Y-108449729D01*
X130385612Y-108449745D01*
X130614682Y-108621224D01*
X130614690Y-108621229D01*
X130865833Y-108758364D01*
X130865832Y-108758364D01*
X130865836Y-108758365D01*
X130865839Y-108758367D01*
X131133954Y-108858369D01*
X131133960Y-108858370D01*
X131133962Y-108858371D01*
X131413566Y-108919195D01*
X131413568Y-108919195D01*
X131413572Y-108919196D01*
X131667220Y-108937337D01*
X131698999Y-108939610D01*
X131699000Y-108939610D01*
X131699001Y-108939610D01*
X131727595Y-108937564D01*
X131984428Y-108919196D01*
X132142853Y-108884733D01*
X132264037Y-108858371D01*
X132264037Y-108858370D01*
X132264046Y-108858369D01*
X132532161Y-108758367D01*
X132783315Y-108621226D01*
X133012395Y-108449739D01*
X133214739Y-108247395D01*
X133386226Y-108018315D01*
X133523367Y-107767161D01*
X133623369Y-107499046D01*
X133684196Y-107219428D01*
X133699500Y-107005448D01*
X133699500Y-106934004D01*
X134973451Y-106934004D01*
X134993616Y-107203101D01*
X135053664Y-107466188D01*
X135053666Y-107466195D01*
X135152256Y-107717396D01*
X135152258Y-107717400D01*
X135155593Y-107723177D01*
X135287185Y-107951102D01*
X135414930Y-108111288D01*
X135455442Y-108162089D01*
X135638205Y-108331667D01*
X135653259Y-108345635D01*
X135876226Y-108497651D01*
X136119359Y-108614738D01*
X136377228Y-108694280D01*
X136377229Y-108694280D01*
X136377232Y-108694281D01*
X136644063Y-108734499D01*
X136644068Y-108734499D01*
X136644071Y-108734500D01*
X136644072Y-108734500D01*
X136913928Y-108734500D01*
X136913929Y-108734500D01*
X136913936Y-108734499D01*
X137180767Y-108694281D01*
X137180768Y-108694280D01*
X137180772Y-108694280D01*
X137438641Y-108614738D01*
X137681775Y-108497651D01*
X137904741Y-108345635D01*
X138102561Y-108162085D01*
X138270815Y-107951102D01*
X138405743Y-107717398D01*
X138504334Y-107466195D01*
X138564383Y-107203103D01*
X138576951Y-107035386D01*
X138584549Y-106934004D01*
X140815451Y-106934004D01*
X140835616Y-107203101D01*
X140895664Y-107466188D01*
X140895666Y-107466195D01*
X140994256Y-107717396D01*
X140994258Y-107717400D01*
X140997593Y-107723177D01*
X141129185Y-107951102D01*
X141256930Y-108111288D01*
X141297442Y-108162089D01*
X141480205Y-108331667D01*
X141495259Y-108345635D01*
X141718226Y-108497651D01*
X141961359Y-108614738D01*
X142219228Y-108694280D01*
X142219229Y-108694280D01*
X142219232Y-108694281D01*
X142486063Y-108734499D01*
X142486068Y-108734499D01*
X142486071Y-108734500D01*
X142486072Y-108734500D01*
X142755928Y-108734500D01*
X142755929Y-108734500D01*
X142755936Y-108734499D01*
X143022767Y-108694281D01*
X143022768Y-108694280D01*
X143022772Y-108694280D01*
X143280641Y-108614738D01*
X143523775Y-108497651D01*
X143746741Y-108345635D01*
X143944561Y-108162085D01*
X144112815Y-107951102D01*
X144247743Y-107717398D01*
X144346334Y-107466195D01*
X144406383Y-107203103D01*
X144418951Y-107035386D01*
X144426549Y-106934004D01*
X144426549Y-106933995D01*
X144406389Y-106664973D01*
X144406383Y-106664897D01*
X144346334Y-106401805D01*
X144247743Y-106150602D01*
X144112815Y-105916898D01*
X143944561Y-105705915D01*
X143944560Y-105705914D01*
X143944557Y-105705910D01*
X143746741Y-105522365D01*
X143741756Y-105518966D01*
X143523775Y-105370349D01*
X143523769Y-105370346D01*
X143523768Y-105370345D01*
X143523767Y-105370344D01*
X143280643Y-105253263D01*
X143280645Y-105253263D01*
X143022773Y-105173720D01*
X143022767Y-105173718D01*
X142755936Y-105133500D01*
X142755929Y-105133500D01*
X142486071Y-105133500D01*
X142486063Y-105133500D01*
X142219232Y-105173718D01*
X142219226Y-105173720D01*
X141961358Y-105253262D01*
X141718230Y-105370346D01*
X141495258Y-105522365D01*
X141297442Y-105705910D01*
X141129185Y-105916898D01*
X140994258Y-106150599D01*
X140994256Y-106150603D01*
X140895666Y-106401804D01*
X140895664Y-106401811D01*
X140835616Y-106664898D01*
X140815451Y-106933995D01*
X140815451Y-106934004D01*
X138584549Y-106934004D01*
X138584549Y-106933995D01*
X138564389Y-106664973D01*
X138564383Y-106664897D01*
X138504334Y-106401805D01*
X138405743Y-106150602D01*
X138270815Y-105916898D01*
X138102561Y-105705915D01*
X138102560Y-105705914D01*
X138102557Y-105705910D01*
X137904741Y-105522365D01*
X137899756Y-105518966D01*
X137681775Y-105370349D01*
X137681769Y-105370346D01*
X137681768Y-105370345D01*
X137681767Y-105370344D01*
X137438643Y-105253263D01*
X137438645Y-105253263D01*
X137180773Y-105173720D01*
X137180767Y-105173718D01*
X136913936Y-105133500D01*
X136913929Y-105133500D01*
X136644071Y-105133500D01*
X136644063Y-105133500D01*
X136377232Y-105173718D01*
X136377226Y-105173720D01*
X136119358Y-105253262D01*
X135876230Y-105370346D01*
X135653258Y-105522365D01*
X135455442Y-105705910D01*
X135287185Y-105916898D01*
X135152258Y-106150599D01*
X135152256Y-106150603D01*
X135053666Y-106401804D01*
X135053664Y-106401811D01*
X134993616Y-106664898D01*
X134973451Y-106933995D01*
X134973451Y-106934004D01*
X133699500Y-106934004D01*
X133699500Y-99050996D01*
X133719185Y-98983957D01*
X133735819Y-98963315D01*
X136294315Y-96404819D01*
X136355638Y-96371334D01*
X136381996Y-96368500D01*
X137898921Y-96368500D01*
X137970552Y-96368500D01*
X140438921Y-96368500D01*
X140510552Y-96368500D01*
X142978921Y-96368500D01*
X143050552Y-96368500D01*
X145518921Y-96368500D01*
X145590552Y-96368500D01*
X148058921Y-96368500D01*
X148130552Y-96368500D01*
X150598921Y-96368500D01*
X150670552Y-96368500D01*
X153138921Y-96368500D01*
X153210552Y-96368500D01*
X155678921Y-96368500D01*
X155750552Y-96368500D01*
X156348464Y-96368500D01*
X156415503Y-96388185D01*
X156461258Y-96440989D01*
X156471202Y-96510147D01*
X156447418Y-96567226D01*
X156386947Y-96647302D01*
X156386938Y-96647316D01*
X156287775Y-96846461D01*
X156287769Y-96846476D01*
X156226885Y-97060462D01*
X156226884Y-97060464D01*
X156206357Y-97281999D01*
X156206357Y-97282000D01*
X156226884Y-97503535D01*
X156226885Y-97503537D01*
X156287769Y-97717523D01*
X156287775Y-97717538D01*
X156386938Y-97916683D01*
X156386943Y-97916691D01*
X156521020Y-98094238D01*
X156685437Y-98244123D01*
X156685439Y-98244125D01*
X156874595Y-98361245D01*
X156874596Y-98361245D01*
X156874599Y-98361247D01*
X157082060Y-98441618D01*
X157136115Y-98451722D01*
X157198394Y-98483391D01*
X157201009Y-98485930D01*
X157785980Y-99070900D01*
X158343548Y-99628468D01*
X158404941Y-99693053D01*
X158404944Y-99693055D01*
X158404947Y-99693058D01*
X158433554Y-99712968D01*
X158455303Y-99728106D01*
X158459044Y-99730926D01*
X158506593Y-99769698D01*
X158537045Y-99785604D01*
X158543758Y-99789672D01*
X158571951Y-99809295D01*
X158628329Y-99833489D01*
X158632578Y-99835507D01*
X158686951Y-99863909D01*
X158714489Y-99871788D01*
X158719974Y-99873358D01*
X158727368Y-99875990D01*
X158758942Y-99889540D01*
X158758945Y-99889540D01*
X158758946Y-99889541D01*
X158819022Y-99901887D01*
X158823600Y-99903010D01*
X158837501Y-99906987D01*
X158882582Y-99919887D01*
X158916839Y-99922495D01*
X158924614Y-99923586D01*
X158958255Y-99930500D01*
X158958259Y-99930500D01*
X159019598Y-99930500D01*
X159024304Y-99930678D01*
X159041969Y-99932024D01*
X159085475Y-99935337D01*
X159085475Y-99935336D01*
X159085476Y-99935337D01*
X159119559Y-99930996D01*
X159127389Y-99930500D01*
X161769318Y-99930500D01*
X161836357Y-99950185D01*
X161882112Y-100002989D01*
X161892056Y-100072147D01*
X161888584Y-100088435D01*
X161882884Y-100108464D01*
X161862357Y-100329999D01*
X161862357Y-100330000D01*
X161882884Y-100551535D01*
X161882885Y-100551537D01*
X161943769Y-100765523D01*
X161943775Y-100765538D01*
X162042938Y-100964683D01*
X162042943Y-100964691D01*
X162177020Y-101142238D01*
X162341437Y-101292123D01*
X162341439Y-101292125D01*
X162530595Y-101409245D01*
X162530596Y-101409245D01*
X162530599Y-101409247D01*
X162738060Y-101489618D01*
X162792115Y-101499722D01*
X162854394Y-101531391D01*
X162857009Y-101533930D01*
X163870566Y-102547487D01*
X163931941Y-102612053D01*
X163931944Y-102612055D01*
X163982283Y-102647092D01*
X163986046Y-102649930D01*
X164026103Y-102682592D01*
X164065621Y-102740212D01*
X164068421Y-102750184D01*
X164069909Y-102756485D01*
X164120202Y-102891328D01*
X164120206Y-102891335D01*
X164206452Y-103006544D01*
X164206455Y-103006547D01*
X164321664Y-103092793D01*
X164321671Y-103092797D01*
X164456513Y-103143090D01*
X164456514Y-103143090D01*
X164456517Y-103143091D01*
X164492353Y-103146944D01*
X164556901Y-103173679D01*
X164596751Y-103231070D01*
X164599246Y-103300896D01*
X164563595Y-103360985D01*
X164550223Y-103371805D01*
X164525182Y-103389339D01*
X164364342Y-103550179D01*
X164233865Y-103736517D01*
X164137734Y-103942673D01*
X164137730Y-103942682D01*
X164085127Y-104138999D01*
X164085128Y-104139000D01*
X165048314Y-104139000D01*
X165036359Y-104150955D01*
X164978835Y-104263852D01*
X164959014Y-104389000D01*
X164978835Y-104514148D01*
X165036359Y-104627045D01*
X165048314Y-104639000D01*
X164051324Y-104639000D01*
X163984285Y-104619315D01*
X163963272Y-104601566D01*
X163963218Y-104601626D01*
X163961640Y-104600187D01*
X163959686Y-104598537D01*
X163958980Y-104597762D01*
X163794562Y-104447876D01*
X163794560Y-104447874D01*
X163605404Y-104330754D01*
X163605398Y-104330752D01*
X163397940Y-104250382D01*
X163179243Y-104209500D01*
X162956757Y-104209500D01*
X162738060Y-104250382D01*
X162606864Y-104301207D01*
X162530601Y-104330752D01*
X162530595Y-104330754D01*
X162341439Y-104447874D01*
X162341437Y-104447876D01*
X162177020Y-104597761D01*
X162053689Y-104761079D01*
X161997580Y-104802715D01*
X161927868Y-104807406D01*
X161867054Y-104774033D01*
X161254807Y-104161786D01*
X160534609Y-103441587D01*
X160529518Y-103435822D01*
X160512728Y-103414251D01*
X160511779Y-103413220D01*
X160511524Y-103412705D01*
X160509582Y-103410209D01*
X160510095Y-103409809D01*
X160480858Y-103350565D01*
X160488719Y-103281139D01*
X160519472Y-103237602D01*
X160588979Y-103174238D01*
X160589402Y-103173679D01*
X160723058Y-102996689D01*
X160822229Y-102797528D01*
X160883115Y-102583536D01*
X160903643Y-102362000D01*
X160902677Y-102351580D01*
X160883115Y-102140464D01*
X160883114Y-102140462D01*
X160872985Y-102104863D01*
X160822229Y-101926472D01*
X160822224Y-101926461D01*
X160723061Y-101727316D01*
X160723056Y-101727308D01*
X160588979Y-101549761D01*
X160424562Y-101399876D01*
X160424560Y-101399874D01*
X160235404Y-101282754D01*
X160235398Y-101282752D01*
X160027940Y-101202382D01*
X159809243Y-101161500D01*
X159586757Y-101161500D01*
X159368060Y-101202382D01*
X159317743Y-101221875D01*
X159160601Y-101282752D01*
X159160595Y-101282754D01*
X158971439Y-101399874D01*
X158971437Y-101399876D01*
X158807020Y-101549761D01*
X158672943Y-101727308D01*
X158672940Y-101727313D01*
X158666000Y-101741252D01*
X158618496Y-101792488D01*
X158550833Y-101809909D01*
X158484493Y-101787983D01*
X158444000Y-101741252D01*
X158437059Y-101727313D01*
X158437056Y-101727308D01*
X158302979Y-101549761D01*
X158138562Y-101399876D01*
X158138560Y-101399874D01*
X157949404Y-101282754D01*
X157949398Y-101282752D01*
X157741940Y-101202382D01*
X157523243Y-101161500D01*
X157300757Y-101161500D01*
X157082060Y-101202382D01*
X157031743Y-101221875D01*
X156874601Y-101282752D01*
X156874595Y-101282754D01*
X156685439Y-101399874D01*
X156685437Y-101399876D01*
X156521020Y-101549761D01*
X156386943Y-101727308D01*
X156386938Y-101727316D01*
X156287775Y-101926461D01*
X156287770Y-101926474D01*
X156238283Y-102100401D01*
X156201003Y-102159494D01*
X156137694Y-102189051D01*
X156068454Y-102179689D01*
X156038874Y-102161087D01*
X156038183Y-102160502D01*
X156028894Y-102152634D01*
X155948720Y-102104860D01*
X155870607Y-102053827D01*
X155870604Y-102053825D01*
X155845588Y-102042852D01*
X155838750Y-102039332D01*
X155815275Y-102025344D01*
X155728335Y-101991420D01*
X155713115Y-101984744D01*
X155642881Y-101953937D01*
X155642877Y-101953936D01*
X155642875Y-101953935D01*
X155616387Y-101947227D01*
X155609067Y-101944882D01*
X155583619Y-101934953D01*
X155583614Y-101934951D01*
X155492288Y-101915801D01*
X155492272Y-101915797D01*
X155401819Y-101892891D01*
X155374590Y-101890635D01*
X155366983Y-101889526D01*
X155346986Y-101885334D01*
X155340237Y-101883919D01*
X155340235Y-101883918D01*
X155246990Y-101880062D01*
X155246471Y-101880019D01*
X155216067Y-101877500D01*
X155216064Y-101877500D01*
X155185035Y-101877500D01*
X155091780Y-101873643D01*
X155091779Y-101873643D01*
X155064652Y-101877024D01*
X155056981Y-101877500D01*
X151354018Y-101877500D01*
X151346342Y-101877023D01*
X151323307Y-101874152D01*
X151319221Y-101873643D01*
X151319220Y-101873643D01*
X151225974Y-101877500D01*
X149372819Y-101877500D01*
X149365147Y-101877024D01*
X149338021Y-101873643D01*
X149338019Y-101873643D01*
X149244765Y-101877500D01*
X149213733Y-101877500D01*
X149183328Y-101880019D01*
X149182809Y-101880062D01*
X149089565Y-101883918D01*
X149089551Y-101883920D01*
X149062817Y-101889526D01*
X149055209Y-101890635D01*
X149027985Y-101892890D01*
X149027975Y-101892892D01*
X148955615Y-101911216D01*
X148937525Y-101915797D01*
X148923555Y-101918726D01*
X148846190Y-101934948D01*
X148846175Y-101934953D01*
X148820720Y-101944886D01*
X148813399Y-101947231D01*
X148786919Y-101953937D01*
X148786913Y-101953939D01*
X148701467Y-101991419D01*
X148614523Y-102025345D01*
X148591047Y-102039333D01*
X148584213Y-102042851D01*
X148559188Y-102053829D01*
X148559185Y-102053830D01*
X148481075Y-102104862D01*
X148400901Y-102152637D01*
X148380050Y-102170297D01*
X148373887Y-102174892D01*
X148351015Y-102189835D01*
X148351012Y-102189838D01*
X148282354Y-102253042D01*
X148258671Y-102273101D01*
X148236734Y-102295038D01*
X148168061Y-102358257D01*
X148168056Y-102358262D01*
X148151272Y-102379826D01*
X148146183Y-102385589D01*
X146708588Y-103823182D01*
X146702827Y-103828271D01*
X146681256Y-103845062D01*
X146618049Y-103913722D01*
X146596102Y-103935669D01*
X146596098Y-103935674D01*
X146576033Y-103959364D01*
X146545641Y-103992378D01*
X146512834Y-104028016D01*
X146497892Y-104050887D01*
X146493297Y-104057050D01*
X146475635Y-104077904D01*
X146427860Y-104158078D01*
X146376828Y-104236190D01*
X146376824Y-104236197D01*
X146365853Y-104261209D01*
X146362335Y-104268044D01*
X146348348Y-104291517D01*
X146348343Y-104291526D01*
X146314420Y-104378463D01*
X146276935Y-104463923D01*
X146270226Y-104490416D01*
X146267881Y-104497735D01*
X146257953Y-104523179D01*
X146257948Y-104523195D01*
X146238801Y-104614511D01*
X146215892Y-104704975D01*
X146215890Y-104704985D01*
X146213635Y-104732208D01*
X146212526Y-104739816D01*
X146206920Y-104766550D01*
X146206919Y-104766563D01*
X146203062Y-104859809D01*
X146200500Y-104890736D01*
X146200500Y-104921764D01*
X146196642Y-105015019D01*
X146196642Y-105015020D01*
X146200023Y-105042142D01*
X146200500Y-105049818D01*
X146200500Y-105898715D01*
X146183887Y-105960715D01*
X146074258Y-106150599D01*
X145975666Y-106401804D01*
X145975664Y-106401811D01*
X145915616Y-106664898D01*
X145895451Y-106933995D01*
X145895451Y-106934004D01*
X145915616Y-107203101D01*
X145975664Y-107466188D01*
X145975666Y-107466195D01*
X146074256Y-107717396D01*
X146074258Y-107717400D01*
X146077593Y-107723177D01*
X146209185Y-107951102D01*
X146336930Y-108111288D01*
X146377442Y-108162089D01*
X146560205Y-108331667D01*
X146575259Y-108345635D01*
X146798226Y-108497651D01*
X147041359Y-108614738D01*
X147299228Y-108694280D01*
X147299229Y-108694280D01*
X147299232Y-108694281D01*
X147566063Y-108734499D01*
X147566068Y-108734499D01*
X147566071Y-108734500D01*
X147566072Y-108734500D01*
X147835928Y-108734500D01*
X147835929Y-108734500D01*
X147835936Y-108734499D01*
X148102767Y-108694281D01*
X148102768Y-108694280D01*
X148102772Y-108694280D01*
X148360641Y-108614738D01*
X148603775Y-108497651D01*
X148826741Y-108345635D01*
X149024561Y-108162085D01*
X149192815Y-107951102D01*
X149327743Y-107717398D01*
X149426334Y-107466195D01*
X149453100Y-107348923D01*
X149458458Y-107325448D01*
X149491668Y-107265359D01*
X150786209Y-105970819D01*
X150847532Y-105937334D01*
X150873890Y-105934500D01*
X151064827Y-105934500D01*
X151131866Y-105954185D01*
X151177621Y-106006989D01*
X151187565Y-106076147D01*
X151172213Y-106120501D01*
X151154710Y-106150814D01*
X151154709Y-106150818D01*
X151056148Y-106401947D01*
X151056142Y-106401966D01*
X150996113Y-106664971D01*
X150996113Y-106664973D01*
X150975953Y-106933995D01*
X150975953Y-106934004D01*
X150996113Y-107203026D01*
X150996113Y-107203028D01*
X151056142Y-107466033D01*
X151056148Y-107466052D01*
X151154709Y-107717181D01*
X151154708Y-107717181D01*
X151289602Y-107950822D01*
X151343294Y-108018151D01*
X152064337Y-107297107D01*
X152151577Y-107435948D01*
X152279052Y-107563423D01*
X152417890Y-107650661D01*
X151695848Y-108372702D01*
X151878483Y-108497220D01*
X151878485Y-108497221D01*
X152121539Y-108614269D01*
X152121537Y-108614269D01*
X152379337Y-108693790D01*
X152379343Y-108693792D01*
X152646101Y-108733999D01*
X152646110Y-108734000D01*
X152915890Y-108734000D01*
X152915898Y-108733999D01*
X153182656Y-108693792D01*
X153182662Y-108693790D01*
X153440461Y-108614269D01*
X153683521Y-108497218D01*
X153866150Y-108372702D01*
X153144108Y-107650661D01*
X153282948Y-107563423D01*
X153410423Y-107435948D01*
X153497661Y-107297109D01*
X154218703Y-108018151D01*
X154218704Y-108018150D01*
X154232541Y-108000800D01*
X155819541Y-108000800D01*
X155840136Y-108236203D01*
X155840138Y-108236213D01*
X155901294Y-108464455D01*
X155901296Y-108464459D01*
X155901297Y-108464463D01*
X155916775Y-108497655D01*
X156001164Y-108678628D01*
X156001165Y-108678630D01*
X156136705Y-108872202D01*
X156303797Y-109039294D01*
X156497369Y-109174834D01*
X156497371Y-109174835D01*
X156711537Y-109274703D01*
X156939792Y-109335863D01*
X157116234Y-109351300D01*
X157234166Y-109351300D01*
X157410608Y-109335863D01*
X157638863Y-109274703D01*
X157853029Y-109174835D01*
X158046601Y-109039295D01*
X158213695Y-108872201D01*
X158349235Y-108678630D01*
X158449103Y-108464463D01*
X158510263Y-108236208D01*
X158530859Y-108000800D01*
X158528454Y-107973317D01*
X158518701Y-107861837D01*
X158510263Y-107765392D01*
X158449103Y-107537137D01*
X158349235Y-107322971D01*
X158349234Y-107322969D01*
X158213694Y-107129397D01*
X158046602Y-106962305D01*
X157853030Y-106826765D01*
X157853028Y-106826764D01*
X157745946Y-106776831D01*
X157638863Y-106726897D01*
X157638859Y-106726896D01*
X157638855Y-106726894D01*
X157410613Y-106665738D01*
X157410603Y-106665736D01*
X157234166Y-106650300D01*
X157116234Y-106650300D01*
X156939796Y-106665736D01*
X156939786Y-106665738D01*
X156711544Y-106726894D01*
X156711535Y-106726898D01*
X156497371Y-106826764D01*
X156497369Y-106826765D01*
X156303797Y-106962305D01*
X156136706Y-107129397D01*
X156136701Y-107129404D01*
X156001167Y-107322965D01*
X156001165Y-107322969D01*
X155901298Y-107537135D01*
X155901294Y-107537144D01*
X155840138Y-107765386D01*
X155840136Y-107765396D01*
X155819541Y-108000799D01*
X155819541Y-108000800D01*
X154232541Y-108000800D01*
X154272393Y-107950828D01*
X154272400Y-107950817D01*
X154407290Y-107717181D01*
X154505851Y-107466052D01*
X154505857Y-107466033D01*
X154565886Y-107203028D01*
X154565886Y-107203026D01*
X154586047Y-106934004D01*
X154586047Y-106933995D01*
X154565886Y-106664973D01*
X154565886Y-106664971D01*
X154505857Y-106401966D01*
X154505851Y-106401947D01*
X154407290Y-106150818D01*
X154407289Y-106150814D01*
X154389787Y-106120501D01*
X154373313Y-106052601D01*
X154396165Y-105986574D01*
X154451086Y-105943383D01*
X154497173Y-105934500D01*
X156147933Y-105934500D01*
X156178965Y-105934500D01*
X156272221Y-105938357D01*
X156299347Y-105934975D01*
X156307019Y-105934500D01*
X157558310Y-105934500D01*
X157625349Y-105954185D01*
X157645991Y-105970819D01*
X161176392Y-109501219D01*
X161181476Y-109506977D01*
X161198258Y-109528539D01*
X161198265Y-109528547D01*
X161266933Y-109591761D01*
X161288871Y-109613699D01*
X161305640Y-109627901D01*
X161312552Y-109633755D01*
X161381215Y-109696964D01*
X161381217Y-109696965D01*
X161381218Y-109696966D01*
X161404086Y-109711906D01*
X161410250Y-109716502D01*
X161431106Y-109734166D01*
X161511272Y-109781934D01*
X161585751Y-109830594D01*
X161589393Y-109832973D01*
X161614414Y-109843948D01*
X161621245Y-109847464D01*
X161644726Y-109861455D01*
X161669124Y-109870975D01*
X161731651Y-109895374D01*
X161794116Y-109922773D01*
X161817119Y-109932863D01*
X161817123Y-109932864D01*
X161843609Y-109939571D01*
X161850932Y-109941916D01*
X161876386Y-109951849D01*
X161967702Y-109970996D01*
X162058179Y-109993908D01*
X162085415Y-109996164D01*
X162093018Y-109997271D01*
X162119763Y-110002880D01*
X162212994Y-110006736D01*
X162243933Y-110009300D01*
X162243935Y-110009300D01*
X162274974Y-110009300D01*
X162368221Y-110013157D01*
X162384914Y-110011076D01*
X162395342Y-110009777D01*
X162403018Y-110009300D01*
X163417727Y-110009300D01*
X163448768Y-110009300D01*
X163542015Y-110013157D01*
X163558708Y-110011076D01*
X163569136Y-110009777D01*
X163576812Y-110009300D01*
X163658667Y-110009300D01*
X163712468Y-110021580D01*
X163766541Y-110047620D01*
X163867392Y-110096187D01*
X163867393Y-110096187D01*
X163867396Y-110096189D01*
X164110942Y-110171313D01*
X164362965Y-110209300D01*
X164617835Y-110209300D01*
X164869858Y-110171313D01*
X165113404Y-110096189D01*
X165343034Y-109985605D01*
X165553617Y-109842032D01*
X165740450Y-109668677D01*
X165899359Y-109469412D01*
X166026793Y-109248688D01*
X166119908Y-109011437D01*
X166176622Y-108762957D01*
X166189627Y-108589413D01*
X166195668Y-108508804D01*
X166195668Y-108508795D01*
X166176623Y-108254652D01*
X166176622Y-108254643D01*
X166119908Y-108006163D01*
X166026793Y-107768912D01*
X165899359Y-107548188D01*
X165740450Y-107348923D01*
X165553617Y-107175568D01*
X165343034Y-107031995D01*
X165343030Y-107031993D01*
X165343027Y-107031991D01*
X165343026Y-107031990D01*
X165113406Y-106921412D01*
X165113408Y-106921412D01*
X164869866Y-106846289D01*
X164869862Y-106846288D01*
X164869858Y-106846287D01*
X164748631Y-106828014D01*
X164617840Y-106808300D01*
X164617835Y-106808300D01*
X164362965Y-106808300D01*
X164362959Y-106808300D01*
X164206009Y-106831957D01*
X164110942Y-106846287D01*
X164110939Y-106846288D01*
X164110937Y-106846288D01*
X164051164Y-106864725D01*
X163981300Y-106865674D01*
X163926935Y-106833914D01*
X163701810Y-106608789D01*
X163668325Y-106547466D01*
X163673309Y-106477774D01*
X163715181Y-106421841D01*
X163724201Y-106415688D01*
X163794562Y-106372124D01*
X163958981Y-106222236D01*
X164093058Y-106044689D01*
X164192229Y-105845528D01*
X164253115Y-105631536D01*
X164272412Y-105423281D01*
X164298198Y-105358345D01*
X164354998Y-105317657D01*
X164424779Y-105314137D01*
X164483564Y-105347042D01*
X164525179Y-105388657D01*
X164711517Y-105519134D01*
X164917673Y-105615265D01*
X164917682Y-105615269D01*
X165113999Y-105667872D01*
X165114000Y-105667871D01*
X165114000Y-104704686D01*
X165125955Y-104716641D01*
X165238852Y-104774165D01*
X165332519Y-104789000D01*
X165395481Y-104789000D01*
X165489148Y-104774165D01*
X165602045Y-104716641D01*
X165614000Y-104704686D01*
X165614000Y-105667872D01*
X165810317Y-105615269D01*
X165810326Y-105615265D01*
X166016482Y-105519134D01*
X166202820Y-105388657D01*
X166363657Y-105227820D01*
X166494134Y-105041482D01*
X166590265Y-104835326D01*
X166590269Y-104835317D01*
X166642872Y-104639000D01*
X165679686Y-104639000D01*
X165691641Y-104627045D01*
X165749165Y-104514148D01*
X165768986Y-104389000D01*
X165749165Y-104263852D01*
X165691641Y-104150955D01*
X165679686Y-104139000D01*
X166642872Y-104139000D01*
X166642872Y-104138999D01*
X166590269Y-103942682D01*
X166590265Y-103942673D01*
X166494134Y-103736517D01*
X166363657Y-103550179D01*
X166202820Y-103389342D01*
X166177779Y-103371808D01*
X166134154Y-103317230D01*
X166126962Y-103247732D01*
X166158484Y-103185377D01*
X166218714Y-103149964D01*
X166235650Y-103146943D01*
X166243690Y-103146078D01*
X166271483Y-103143091D01*
X166361926Y-103109357D01*
X166431615Y-103104374D01*
X166492935Y-103137856D01*
X166492938Y-103137859D01*
X166903966Y-103548887D01*
X166907170Y-103552343D01*
X166947131Y-103598893D01*
X166974294Y-103619918D01*
X166980190Y-103625111D01*
X168442566Y-105087487D01*
X168503941Y-105152053D01*
X168503944Y-105152055D01*
X168503947Y-105152058D01*
X168554284Y-105187092D01*
X168558041Y-105189925D01*
X168605592Y-105228698D01*
X168636041Y-105244603D01*
X168642759Y-105248672D01*
X168670951Y-105268295D01*
X168670952Y-105268295D01*
X168670953Y-105268296D01*
X168670954Y-105268297D01*
X168695420Y-105278795D01*
X168727336Y-105292491D01*
X168731574Y-105294505D01*
X168785949Y-105322908D01*
X168785951Y-105322909D01*
X168818973Y-105332356D01*
X168826365Y-105334989D01*
X168852732Y-105346304D01*
X168854451Y-105347042D01*
X168857940Y-105348539D01*
X168857941Y-105348540D01*
X168871054Y-105351234D01*
X168918055Y-105360892D01*
X168922595Y-105362006D01*
X168981582Y-105378886D01*
X169015841Y-105381494D01*
X169023609Y-105382585D01*
X169057255Y-105389500D01*
X169057259Y-105389500D01*
X169118601Y-105389500D01*
X169123308Y-105389678D01*
X169159651Y-105392446D01*
X169184475Y-105394337D01*
X169184475Y-105394336D01*
X169184476Y-105394337D01*
X169218559Y-105389996D01*
X169226389Y-105389500D01*
X169907857Y-105389500D01*
X169974896Y-105409185D01*
X170020651Y-105461989D01*
X170030595Y-105531147D01*
X170007124Y-105587810D01*
X169844775Y-105804682D01*
X169844770Y-105804690D01*
X169707635Y-106055833D01*
X169607628Y-106323962D01*
X169546804Y-106603566D01*
X169526390Y-106888998D01*
X169526390Y-106889001D01*
X169546804Y-107174433D01*
X169607628Y-107454037D01*
X169607630Y-107454043D01*
X169607631Y-107454046D01*
X169705857Y-107717400D01*
X169707635Y-107722166D01*
X169844770Y-107973309D01*
X169844775Y-107973317D01*
X170016254Y-108202387D01*
X170016270Y-108202405D01*
X170218594Y-108404729D01*
X170218612Y-108404745D01*
X170447682Y-108576224D01*
X170447690Y-108576229D01*
X170698833Y-108713364D01*
X170698832Y-108713364D01*
X170698836Y-108713365D01*
X170698839Y-108713367D01*
X170966954Y-108813369D01*
X170966960Y-108813370D01*
X170966962Y-108813371D01*
X171246566Y-108874195D01*
X171246568Y-108874195D01*
X171246572Y-108874196D01*
X171460552Y-108889500D01*
X176565676Y-108889500D01*
X176565679Y-108889500D01*
X176634404Y-108879618D01*
X176638777Y-108879148D01*
X176708028Y-108874196D01*
X176775897Y-108859431D01*
X176780204Y-108858654D01*
X176848922Y-108848775D01*
X176915511Y-108829222D01*
X176919795Y-108828127D01*
X176987646Y-108813369D01*
X177052706Y-108789102D01*
X177056872Y-108787715D01*
X177123488Y-108768156D01*
X177186657Y-108739306D01*
X177190683Y-108737639D01*
X177255761Y-108713367D01*
X177316693Y-108680094D01*
X177320636Y-108678121D01*
X177331528Y-108673147D01*
X177383787Y-108649282D01*
X177442215Y-108611731D01*
X177445980Y-108609498D01*
X177506915Y-108576226D01*
X177562482Y-108534627D01*
X177566109Y-108532109D01*
X177624517Y-108494574D01*
X177676988Y-108449106D01*
X177680423Y-108446339D01*
X177735995Y-108404739D01*
X177820677Y-108320056D01*
X177881998Y-108286573D01*
X177951690Y-108291557D01*
X178007624Y-108333428D01*
X178032041Y-108398892D01*
X178032010Y-108417005D01*
X178025132Y-108508795D01*
X178025132Y-108508804D01*
X178044177Y-108762954D01*
X178079838Y-108919196D01*
X178100892Y-109011437D01*
X178194007Y-109248688D01*
X178321441Y-109469412D01*
X178480350Y-109668677D01*
X178667183Y-109842032D01*
X178877766Y-109985605D01*
X178877771Y-109985607D01*
X178877772Y-109985608D01*
X178877773Y-109985609D01*
X178999728Y-110044338D01*
X179107392Y-110096187D01*
X179107393Y-110096187D01*
X179107396Y-110096189D01*
X179350942Y-110171313D01*
X179602965Y-110209300D01*
X179857835Y-110209300D01*
X180109858Y-110171313D01*
X180353404Y-110096189D01*
X180583034Y-109985605D01*
X180793617Y-109842032D01*
X180980450Y-109668677D01*
X181139359Y-109469412D01*
X181266793Y-109248688D01*
X181359908Y-109011437D01*
X181416622Y-108762957D01*
X181429627Y-108589413D01*
X181435668Y-108508804D01*
X181435668Y-108508795D01*
X181416623Y-108254652D01*
X181416623Y-108254651D01*
X181416622Y-108254645D01*
X181416622Y-108254643D01*
X181396902Y-108168245D01*
X181401175Y-108098510D01*
X181442473Y-108042152D01*
X181507685Y-108017069D01*
X181510989Y-108016842D01*
X181599722Y-108011976D01*
X181872323Y-107956457D01*
X182133936Y-107861838D01*
X182378985Y-107730137D01*
X182602245Y-107564160D01*
X182602982Y-107563423D01*
X182625587Y-107540819D01*
X182686910Y-107507334D01*
X182713268Y-107504500D01*
X182777497Y-107504500D01*
X182844536Y-107524185D01*
X182890291Y-107576989D01*
X182900235Y-107646147D01*
X182897272Y-107660593D01*
X182854938Y-107818586D01*
X182854936Y-107818596D01*
X182839500Y-107995034D01*
X182839500Y-108412966D01*
X182854936Y-108589403D01*
X182854938Y-108589413D01*
X182916094Y-108817655D01*
X182916096Y-108817659D01*
X182916097Y-108817663D01*
X182963443Y-108919195D01*
X183015964Y-109031828D01*
X183015965Y-109031830D01*
X183151505Y-109225402D01*
X183236679Y-109310575D01*
X183318599Y-109392495D01*
X183358143Y-109420184D01*
X183512165Y-109528032D01*
X183512167Y-109528033D01*
X183512170Y-109528035D01*
X183726337Y-109627903D01*
X183954592Y-109689063D01*
X184142918Y-109705539D01*
X184189999Y-109709659D01*
X184190000Y-109709659D01*
X184190001Y-109709659D01*
X184229234Y-109706226D01*
X184425408Y-109689063D01*
X184653663Y-109627903D01*
X184867829Y-109528035D01*
X185058689Y-109394394D01*
X185124895Y-109372067D01*
X185192662Y-109389077D01*
X185227958Y-109420184D01*
X185270774Y-109475633D01*
X185428709Y-109627901D01*
X185471049Y-109668722D01*
X185471052Y-109668724D01*
X185471053Y-109668725D01*
X185697295Y-109830587D01*
X185697298Y-109830588D01*
X185697304Y-109830593D01*
X185757325Y-109861452D01*
X185944701Y-109957790D01*
X185944711Y-109957794D01*
X185944717Y-109957797D01*
X186208014Y-110047621D01*
X186481584Y-110098152D01*
X186697815Y-110106055D01*
X186759594Y-110108313D01*
X186759594Y-110108312D01*
X186759596Y-110108313D01*
X187036124Y-110077886D01*
X187305276Y-110007520D01*
X187561314Y-109898716D01*
X187798781Y-109753792D01*
X187993482Y-109591761D01*
X188012616Y-109575838D01*
X188012621Y-109575832D01*
X188018275Y-109569522D01*
X188198263Y-109368643D01*
X188351763Y-109136627D01*
X188469846Y-108884733D01*
X188527145Y-108694280D01*
X188549992Y-108618342D01*
X188549992Y-108618338D01*
X188549995Y-108618331D01*
X188590500Y-108343099D01*
X188590500Y-107178854D01*
X188590759Y-107173196D01*
X188595266Y-107123985D01*
X188594671Y-107113143D01*
X188590593Y-107038782D01*
X188590500Y-107035386D01*
X188590500Y-107019707D01*
X188586697Y-106967757D01*
X188584846Y-106934004D01*
X188580030Y-106846201D01*
X188577341Y-106833003D01*
X188576259Y-106825146D01*
X188575277Y-106811723D01*
X188575276Y-106811716D01*
X188548801Y-106692872D01*
X188524510Y-106573600D01*
X188519932Y-106560942D01*
X188517715Y-106553321D01*
X188514788Y-106540181D01*
X188496923Y-106493472D01*
X188492015Y-106480639D01*
X188471288Y-106426445D01*
X188429895Y-106311994D01*
X188429894Y-106311993D01*
X188429892Y-106311986D01*
X188423515Y-106300121D01*
X188420218Y-106292916D01*
X188415408Y-106280340D01*
X188415408Y-106280339D01*
X188355818Y-106174162D01*
X188298191Y-106066938D01*
X188290159Y-106056134D01*
X188285844Y-106049481D01*
X188279252Y-106037735D01*
X188279251Y-106037734D01*
X188204839Y-105941367D01*
X188170351Y-105894977D01*
X188132214Y-105843678D01*
X188122689Y-105834153D01*
X188117457Y-105828205D01*
X188115536Y-105825717D01*
X188109226Y-105817545D01*
X188095887Y-105804685D01*
X188021562Y-105733026D01*
X187316961Y-105028425D01*
X186612089Y-104323553D01*
X186608282Y-104319381D01*
X186576661Y-104281383D01*
X186513105Y-104224438D01*
X186510655Y-104222119D01*
X186499562Y-104211026D01*
X186499561Y-104211025D01*
X186499555Y-104211019D01*
X186460145Y-104176986D01*
X186369463Y-104095734D01*
X186358235Y-104088306D01*
X186351917Y-104083519D01*
X186341730Y-104074722D01*
X186341726Y-104074719D01*
X186341725Y-104074718D01*
X186239004Y-104009424D01*
X186163338Y-103959364D01*
X186137455Y-103942240D01*
X186137448Y-103942236D01*
X186125249Y-103936517D01*
X186118309Y-103932705D01*
X186106943Y-103925481D01*
X186080617Y-103913721D01*
X185995782Y-103875825D01*
X185885554Y-103824153D01*
X185880493Y-103822631D01*
X185872662Y-103820274D01*
X185865242Y-103817514D01*
X185852936Y-103812017D01*
X185852931Y-103812015D01*
X185735707Y-103779070D01*
X185619155Y-103744005D01*
X185619145Y-103744003D01*
X185605826Y-103742043D01*
X185598074Y-103740390D01*
X185590319Y-103738211D01*
X185585114Y-103736748D01*
X185464352Y-103721223D01*
X185343922Y-103703500D01*
X185343917Y-103703500D01*
X185330462Y-103703500D01*
X185322548Y-103702993D01*
X185309186Y-103701275D01*
X185187439Y-103703500D01*
X181964380Y-103703500D01*
X181958722Y-103703241D01*
X181909498Y-103698732D01*
X181824285Y-103703407D01*
X181820889Y-103703500D01*
X181805224Y-103703500D01*
X181753295Y-103707301D01*
X181639050Y-103713567D01*
X181571033Y-103697583D01*
X181522455Y-103647364D01*
X181512992Y-103623686D01*
X181463760Y-103450650D01*
X181364635Y-103251580D01*
X181364630Y-103251572D01*
X181348860Y-103230690D01*
X180690987Y-103888563D01*
X180693628Y-103856698D01*
X180664953Y-103743462D01*
X180601064Y-103645673D01*
X180508885Y-103573928D01*
X180398405Y-103536000D01*
X180310995Y-103536000D01*
X180224784Y-103550386D01*
X180122053Y-103605981D01*
X180042940Y-103691921D01*
X179996018Y-103798892D01*
X179988619Y-103888172D01*
X179331138Y-103230691D01*
X179331137Y-103230691D01*
X179315368Y-103251574D01*
X179216240Y-103450649D01*
X179155378Y-103664560D01*
X179134859Y-103885999D01*
X179134859Y-103886000D01*
X179155378Y-104107439D01*
X179167592Y-104150366D01*
X179167004Y-104220234D01*
X179128737Y-104278692D01*
X179064940Y-104307182D01*
X179048325Y-104308300D01*
X178495659Y-104308300D01*
X178428620Y-104288615D01*
X178428619Y-104288615D01*
X178303990Y-104208520D01*
X178303974Y-104208511D01*
X178043691Y-104089645D01*
X178043679Y-104089640D01*
X177769124Y-104009025D01*
X177769120Y-104009024D01*
X177567327Y-103980010D01*
X177485879Y-103968300D01*
X177199721Y-103968300D01*
X177166281Y-103973108D01*
X176916478Y-104009024D01*
X176916474Y-104009025D01*
X176641919Y-104089640D01*
X176641913Y-104089642D01*
X176632877Y-104093769D01*
X176563718Y-104103708D01*
X176500164Y-104074679D01*
X176462394Y-104015898D01*
X176457902Y-103969534D01*
X176465643Y-103886000D01*
X176463614Y-103864108D01*
X176445115Y-103664464D01*
X176445114Y-103664462D01*
X176440249Y-103647364D01*
X176384229Y-103450472D01*
X176377299Y-103436554D01*
X176285061Y-103251316D01*
X176285056Y-103251308D01*
X176150979Y-103073761D01*
X175986562Y-102923876D01*
X175986560Y-102923874D01*
X175914277Y-102879119D01*
X179686671Y-102879119D01*
X180340000Y-103532447D01*
X180340001Y-103532447D01*
X180993327Y-102879119D01*
X180943756Y-102848426D01*
X180897121Y-102796398D01*
X180886017Y-102727416D01*
X180913970Y-102663382D01*
X180943756Y-102637572D01*
X180993326Y-102606879D01*
X180340001Y-101953553D01*
X180340000Y-101953553D01*
X179686672Y-102606879D01*
X179736242Y-102637572D01*
X179782877Y-102689600D01*
X179793981Y-102758582D01*
X179766028Y-102822616D01*
X179736242Y-102848425D01*
X179686672Y-102879117D01*
X179686671Y-102879119D01*
X175914277Y-102879119D01*
X175866177Y-102849337D01*
X175864706Y-102848426D01*
X175818071Y-102796400D01*
X175806967Y-102727418D01*
X175834920Y-102663384D01*
X175864707Y-102637573D01*
X175887704Y-102623334D01*
X175986562Y-102562124D01*
X176134564Y-102427202D01*
X176150979Y-102412238D01*
X176154143Y-102408049D01*
X176285058Y-102234689D01*
X176384229Y-102035528D01*
X176445115Y-101821536D01*
X176465643Y-101600000D01*
X179134859Y-101600000D01*
X179155378Y-101821439D01*
X179216240Y-102035350D01*
X179315369Y-102234428D01*
X179331137Y-102255308D01*
X179331138Y-102255308D01*
X179986447Y-101600000D01*
X179331138Y-100944691D01*
X179331137Y-100944691D01*
X179315368Y-100965574D01*
X179216240Y-101164649D01*
X179155378Y-101378560D01*
X179134859Y-101599999D01*
X179134859Y-101600000D01*
X176465643Y-101600000D01*
X176453784Y-101472024D01*
X176445115Y-101378464D01*
X176445114Y-101378462D01*
X176437484Y-101351646D01*
X176384229Y-101164472D01*
X176382749Y-101161500D01*
X176285055Y-100965305D01*
X176282038Y-100960432D01*
X176283187Y-100959720D01*
X176260853Y-100900583D01*
X176260500Y-100891229D01*
X176260500Y-100848001D01*
X176260679Y-100843292D01*
X176261782Y-100828815D01*
X176264066Y-100798811D01*
X176265337Y-100782126D01*
X176264578Y-100776169D01*
X176263225Y-100765538D01*
X176260997Y-100748042D01*
X176260500Y-100740203D01*
X176260500Y-100687128D01*
X176260580Y-100683988D01*
X176262553Y-100645069D01*
X176264369Y-100609264D01*
X176261930Y-100593342D01*
X176260500Y-100574566D01*
X176260500Y-100022769D01*
X176280185Y-99955730D01*
X176284761Y-99949167D01*
X176285053Y-99948694D01*
X176285058Y-99948689D01*
X176384229Y-99749528D01*
X176445115Y-99535536D01*
X176465643Y-99314000D01*
X176465149Y-99308674D01*
X176445115Y-99092464D01*
X176440383Y-99075834D01*
X176387063Y-98888432D01*
X176387649Y-98818567D01*
X176425916Y-98760108D01*
X176489713Y-98731618D01*
X176506329Y-98730500D01*
X177583110Y-98730500D01*
X177650149Y-98750185D01*
X177670791Y-98766819D01*
X179210384Y-100306412D01*
X179215473Y-100312174D01*
X179232262Y-100333744D01*
X179232264Y-100333746D01*
X179232265Y-100333747D01*
X179300921Y-100396950D01*
X179366898Y-100462927D01*
X179366901Y-100462929D01*
X179366904Y-100462932D01*
X179384816Y-100475721D01*
X179389144Y-100478811D01*
X179395110Y-100483656D01*
X179398669Y-100486932D01*
X179415217Y-100502166D01*
X179438086Y-100517106D01*
X179444250Y-100521702D01*
X179456008Y-100531660D01*
X179465107Y-100539367D01*
X179516398Y-100569930D01*
X179520676Y-100572724D01*
X179569241Y-100607398D01*
X179569283Y-100607428D01*
X179569284Y-100607429D01*
X179593840Y-100619433D01*
X179600521Y-100623229D01*
X179623393Y-100638173D01*
X179623396Y-100638174D01*
X179623397Y-100638175D01*
X179648412Y-100649147D01*
X179655243Y-100652663D01*
X179670894Y-100661989D01*
X179678722Y-100666654D01*
X179678724Y-100666655D01*
X179678726Y-100666656D01*
X179688769Y-100670574D01*
X179734350Y-100688361D01*
X179739045Y-100690420D01*
X179792678Y-100716640D01*
X179792682Y-100716641D01*
X179792687Y-100716644D01*
X179792692Y-100716645D01*
X179797174Y-100718394D01*
X179839786Y-100746233D01*
X180343553Y-101250000D01*
X180310995Y-101250000D01*
X180224784Y-101264386D01*
X180122053Y-101319981D01*
X180042940Y-101405921D01*
X179996018Y-101512892D01*
X179986372Y-101629302D01*
X180015047Y-101742538D01*
X180078936Y-101840327D01*
X180171115Y-101912072D01*
X180281595Y-101950000D01*
X180369005Y-101950000D01*
X180455216Y-101935614D01*
X180557947Y-101880019D01*
X180637060Y-101794079D01*
X180683982Y-101687108D01*
X180691380Y-101597827D01*
X181348861Y-102255308D01*
X181364631Y-102234425D01*
X181364633Y-102234422D01*
X181463759Y-102035350D01*
X181524621Y-101821439D01*
X181545141Y-101600000D01*
X181545141Y-101599999D01*
X181524621Y-101378556D01*
X181524620Y-101378554D01*
X181502771Y-101301761D01*
X181503357Y-101231894D01*
X181541624Y-101173435D01*
X181605421Y-101144945D01*
X181674494Y-101155469D01*
X181709719Y-101180146D01*
X182486992Y-101957419D01*
X182492076Y-101963177D01*
X182508858Y-101984739D01*
X182508865Y-101984747D01*
X182577533Y-102047961D01*
X182599472Y-102069900D01*
X182606304Y-102075686D01*
X182623154Y-102089957D01*
X182691815Y-102153164D01*
X182714689Y-102168108D01*
X182720852Y-102172704D01*
X182741701Y-102190362D01*
X182741706Y-102190366D01*
X182772279Y-102208583D01*
X182821875Y-102238137D01*
X182875388Y-102273098D01*
X182899993Y-102289173D01*
X182925002Y-102300143D01*
X182925018Y-102300150D01*
X182931848Y-102303665D01*
X182955327Y-102317656D01*
X183042267Y-102351580D01*
X183127719Y-102389063D01*
X183154223Y-102395774D01*
X183161520Y-102398112D01*
X183186986Y-102408050D01*
X183278325Y-102427202D01*
X183368779Y-102450108D01*
X183368783Y-102450108D01*
X183368787Y-102450109D01*
X183396006Y-102452364D01*
X183403616Y-102453473D01*
X183416327Y-102456138D01*
X183430363Y-102459081D01*
X183523609Y-102462937D01*
X183554533Y-102465500D01*
X183554534Y-102465500D01*
X183585565Y-102465500D01*
X183678821Y-102469357D01*
X183705947Y-102465975D01*
X183713619Y-102465500D01*
X187908572Y-102465500D01*
X187916243Y-102465975D01*
X187943370Y-102469357D01*
X188036626Y-102465500D01*
X188067658Y-102465500D01*
X188098581Y-102462937D01*
X188191828Y-102459081D01*
X188218573Y-102453472D01*
X188226173Y-102452364D01*
X188253412Y-102450108D01*
X188253415Y-102450107D01*
X188253417Y-102450107D01*
X188253420Y-102450106D01*
X188343879Y-102427198D01*
X188435205Y-102408049D01*
X188460668Y-102398112D01*
X188467965Y-102395774D01*
X188494472Y-102389063D01*
X188579926Y-102351579D01*
X188666865Y-102317656D01*
X188690352Y-102303659D01*
X188697172Y-102300149D01*
X188722198Y-102289173D01*
X188800311Y-102238139D01*
X188880485Y-102190366D01*
X188901345Y-102172697D01*
X188907485Y-102168117D01*
X188930376Y-102153164D01*
X188999026Y-102089966D01*
X189022717Y-102069902D01*
X189033298Y-102059321D01*
X189044661Y-102047958D01*
X189048394Y-102044519D01*
X189051604Y-102041564D01*
X189073589Y-102025402D01*
X191434143Y-100662535D01*
X191482564Y-100627180D01*
X191574198Y-100516200D01*
X191608228Y-100436728D01*
X191630850Y-100383903D01*
X191630850Y-100383900D01*
X191630852Y-100383897D01*
X191647940Y-100240993D01*
X191624072Y-100099064D01*
X191599818Y-100044236D01*
X191599816Y-100044232D01*
X191599814Y-100044228D01*
X190151944Y-97536448D01*
X190150130Y-97533661D01*
X190151322Y-97532884D01*
X190129597Y-97472481D01*
X190145249Y-97404387D01*
X190195231Y-97355565D01*
X190231496Y-97343033D01*
X190281149Y-97334133D01*
X190285801Y-97333480D01*
X190346838Y-97327274D01*
X190379627Y-97316986D01*
X190387240Y-97315118D01*
X190421053Y-97309058D01*
X190478021Y-97286301D01*
X190482453Y-97284724D01*
X190491138Y-97281999D01*
X190540988Y-97266359D01*
X190571027Y-97249684D01*
X190578108Y-97246322D01*
X190610017Y-97233577D01*
X190661254Y-97199808D01*
X190665251Y-97197387D01*
X190718902Y-97167609D01*
X190744968Y-97145230D01*
X190751243Y-97140500D01*
X190752818Y-97139462D01*
X190779919Y-97121602D01*
X190823285Y-97078234D01*
X190826743Y-97075030D01*
X190857173Y-97048906D01*
X190873295Y-97035066D01*
X190894328Y-97007891D01*
X190899498Y-97002021D01*
X191706468Y-96195051D01*
X191771053Y-96133659D01*
X191802491Y-96088490D01*
X191806099Y-96083306D01*
X191808938Y-96079541D01*
X191817941Y-96068500D01*
X191847698Y-96032007D01*
X191863601Y-96001560D01*
X191867674Y-95994839D01*
X191882029Y-95974214D01*
X191887295Y-95966649D01*
X191911492Y-95910260D01*
X191913498Y-95906035D01*
X191941909Y-95851649D01*
X191951360Y-95818615D01*
X191953991Y-95811228D01*
X191967540Y-95779658D01*
X191979893Y-95719540D01*
X191981006Y-95715012D01*
X191997887Y-95656018D01*
X192000495Y-95621755D01*
X192001587Y-95613976D01*
X192002447Y-95609796D01*
X192008500Y-95580341D01*
X192008500Y-95519001D01*
X192008679Y-95514292D01*
X192013337Y-95453126D01*
X192008997Y-95419042D01*
X192008500Y-95411203D01*
X192008500Y-87744315D01*
X192010757Y-87655241D01*
X192010756Y-87655240D01*
X192010757Y-87655237D01*
X191999933Y-87594853D01*
X191999280Y-87590187D01*
X191995270Y-87550757D01*
X191993074Y-87529162D01*
X191982788Y-87496380D01*
X191980918Y-87488766D01*
X191974858Y-87454948D01*
X191952092Y-87397952D01*
X191950527Y-87393555D01*
X191932159Y-87335012D01*
X191915491Y-87304982D01*
X191912120Y-87297884D01*
X191899378Y-87265984D01*
X191899377Y-87265981D01*
X191891471Y-87253986D01*
X191865605Y-87214739D01*
X191863183Y-87210742D01*
X191833409Y-87157098D01*
X191811034Y-87131034D01*
X191806306Y-87124763D01*
X191787404Y-87096084D01*
X191787399Y-87096078D01*
X191757731Y-87066411D01*
X191744019Y-87052699D01*
X191740828Y-87049255D01*
X191700865Y-87002704D01*
X191673694Y-86981672D01*
X191667807Y-86976487D01*
X185901501Y-81210181D01*
X185868016Y-81148858D01*
X185873000Y-81079166D01*
X185914872Y-81023233D01*
X185980336Y-80998816D01*
X185989182Y-80998500D01*
X189715363Y-80998500D01*
X189715488Y-80998487D01*
X189833980Y-80998489D01*
X190094992Y-80975655D01*
X190353021Y-80930160D01*
X190382802Y-80922180D01*
X190452649Y-80923843D01*
X190510512Y-80963005D01*
X190522301Y-80979989D01*
X194847781Y-88477488D01*
X194850719Y-88483257D01*
X194927757Y-88656287D01*
X194927762Y-88656297D01*
X194967051Y-88724344D01*
X195006339Y-88792392D01*
X195006340Y-88792393D01*
X199112919Y-95905195D01*
X202954517Y-102559039D01*
X202956057Y-102561875D01*
X202997012Y-102642253D01*
X203015958Y-102679436D01*
X203098844Y-102843621D01*
X203101376Y-102849337D01*
X203156677Y-102993395D01*
X203214027Y-103147955D01*
X203215788Y-103153479D01*
X203256756Y-103306368D01*
X203295585Y-103462931D01*
X203296645Y-103468158D01*
X203321685Y-103626246D01*
X203342566Y-103784849D01*
X203343012Y-103789698D01*
X203351443Y-103950541D01*
X203354425Y-104109945D01*
X203354350Y-104114350D01*
X203345888Y-104275853D01*
X203331021Y-104434404D01*
X203330529Y-104438312D01*
X203330170Y-104440582D01*
X203305395Y-104597006D01*
X203304851Y-104599971D01*
X203272624Y-104754429D01*
X203271818Y-104757813D01*
X203230214Y-104913086D01*
X203229220Y-104916419D01*
X203179901Y-105066299D01*
X203178889Y-105069139D01*
X203121313Y-105219129D01*
X203119784Y-105222762D01*
X203053384Y-105367510D01*
X202979957Y-105511615D01*
X202977819Y-105515467D01*
X202895538Y-105652021D01*
X202807822Y-105787092D01*
X202805012Y-105791069D01*
X202707614Y-105918002D01*
X202606887Y-106042387D01*
X202603356Y-106046384D01*
X202491452Y-106162553D01*
X202379533Y-106274471D01*
X202375247Y-106278375D01*
X202248284Y-106383568D01*
X202128400Y-106480647D01*
X202123338Y-106484339D01*
X201966789Y-106586823D01*
X201859103Y-106656755D01*
X201856335Y-106658452D01*
X195517624Y-110318106D01*
X195449724Y-110334579D01*
X195383697Y-110311726D01*
X195340506Y-110256805D01*
X195333865Y-110187252D01*
X195365881Y-110125149D01*
X195381305Y-110111459D01*
X195557742Y-109979380D01*
X195749971Y-109787151D01*
X195912887Y-109569522D01*
X195978029Y-109450222D01*
X196043169Y-109330928D01*
X196043169Y-109330926D01*
X196043172Y-109330922D01*
X196138175Y-109076210D01*
X196195961Y-108810569D01*
X196195962Y-108810552D01*
X196195977Y-108810455D01*
X196195994Y-108810416D01*
X196196903Y-108806241D01*
X196197810Y-108806438D01*
X196224990Y-108746894D01*
X196231023Y-108740412D01*
X196304891Y-108666544D01*
X196310636Y-108661470D01*
X196332213Y-108644678D01*
X196395418Y-108576018D01*
X196417371Y-108554066D01*
X196437435Y-108530375D01*
X196500633Y-108461725D01*
X196515586Y-108438834D01*
X196520166Y-108432694D01*
X196537835Y-108411834D01*
X196585603Y-108331667D01*
X196636642Y-108253547D01*
X196647617Y-108228524D01*
X196651137Y-108221687D01*
X196665124Y-108198214D01*
X196679220Y-108162089D01*
X196699043Y-108111288D01*
X196717787Y-108068554D01*
X196736532Y-108025821D01*
X196743243Y-107999314D01*
X196745581Y-107992017D01*
X196755518Y-107966554D01*
X196774665Y-107875237D01*
X196797577Y-107784761D01*
X196799833Y-107757523D01*
X196800940Y-107749920D01*
X196806549Y-107723177D01*
X196810405Y-107629945D01*
X196812969Y-107599007D01*
X196812969Y-107567966D01*
X196816826Y-107474719D01*
X196813444Y-107447593D01*
X196812969Y-107439921D01*
X196812969Y-100456678D01*
X196827823Y-100397828D01*
X196909308Y-100246708D01*
X196954716Y-100077244D01*
X196959818Y-99901876D01*
X196959817Y-99901874D01*
X196960019Y-99894956D01*
X196981645Y-99828518D01*
X197035757Y-99784317D01*
X197105176Y-99776389D01*
X197116060Y-99778787D01*
X197317205Y-99832683D01*
X197317215Y-99832685D01*
X197552530Y-99853274D01*
X197552533Y-99853274D01*
X197787847Y-99832686D01*
X197787854Y-99832685D01*
X198001344Y-99775480D01*
X197477533Y-98868213D01*
X197513296Y-98868213D01*
X197619848Y-98852893D01*
X197750633Y-98793165D01*
X197859294Y-98699011D01*
X197910863Y-98618766D01*
X198434356Y-99525480D01*
X198590641Y-99369196D01*
X198590646Y-99369190D01*
X198726129Y-99175700D01*
X198726131Y-99175696D01*
X198825961Y-98961609D01*
X198825965Y-98961600D01*
X198887099Y-98733443D01*
X198887101Y-98733432D01*
X198907689Y-98498118D01*
X198907689Y-98498114D01*
X198887101Y-98262798D01*
X198887101Y-98262794D01*
X198825966Y-98034634D01*
X198825961Y-98034620D01*
X198768556Y-97911515D01*
X198768555Y-97911514D01*
X197977533Y-98368210D01*
X197977533Y-98296324D01*
X197937026Y-98158369D01*
X197859294Y-98037415D01*
X197750633Y-97943261D01*
X197729938Y-97933810D01*
X198518555Y-97478502D01*
X198518555Y-97478501D01*
X198440642Y-97367228D01*
X198273614Y-97200200D01*
X198080112Y-97064710D01*
X198080110Y-97064709D01*
X197866025Y-96964880D01*
X197866016Y-96964876D01*
X197637859Y-96903742D01*
X197637850Y-96903740D01*
X197402535Y-96883152D01*
X197402532Y-96883152D01*
X197167218Y-96903739D01*
X197167207Y-96903741D01*
X196953721Y-96960944D01*
X197477532Y-97868213D01*
X197441770Y-97868213D01*
X197335218Y-97883533D01*
X197204433Y-97943261D01*
X197095772Y-98037415D01*
X197044201Y-98117660D01*
X196520708Y-97210942D01*
X196364424Y-97367227D01*
X196228934Y-97560729D01*
X196228933Y-97560731D01*
X196129104Y-97774816D01*
X196129101Y-97774822D01*
X196075204Y-97975971D01*
X196038839Y-98035631D01*
X195975992Y-98066160D01*
X195906616Y-98057865D01*
X195896578Y-98053022D01*
X195867633Y-98037415D01*
X195736060Y-97966470D01*
X195679960Y-97951438D01*
X195566593Y-97921061D01*
X195391226Y-97915960D01*
X195219412Y-97951437D01*
X195164736Y-97975971D01*
X195125143Y-97993737D01*
X195125140Y-97993738D01*
X195125137Y-97993740D01*
X195125129Y-97993744D01*
X194669042Y-98257066D01*
X194652140Y-98265187D01*
X194651210Y-98265549D01*
X194651192Y-98265558D01*
X194571030Y-98313324D01*
X194488959Y-98357738D01*
X194475916Y-98367889D01*
X194468833Y-98372656D01*
X194005394Y-98640226D01*
X193999296Y-98643747D01*
X193970491Y-98664547D01*
X193915529Y-98704234D01*
X193915523Y-98704239D01*
X193798895Y-98835294D01*
X193715629Y-98989720D01*
X193686415Y-99098744D01*
X193654322Y-99154330D01*
X192555588Y-100253064D01*
X192549827Y-100258153D01*
X192528256Y-100274944D01*
X192465049Y-100343604D01*
X192443102Y-100365551D01*
X192443098Y-100365556D01*
X192423033Y-100389246D01*
X192398502Y-100415894D01*
X192359834Y-100457898D01*
X192344892Y-100480769D01*
X192340297Y-100486932D01*
X192322635Y-100507786D01*
X192274860Y-100587960D01*
X192223828Y-100666072D01*
X192223824Y-100666079D01*
X192212853Y-100691091D01*
X192209335Y-100697926D01*
X192195348Y-100721399D01*
X192195343Y-100721408D01*
X192161420Y-100808345D01*
X192123935Y-100893805D01*
X192117226Y-100920298D01*
X192114881Y-100927617D01*
X192104953Y-100953061D01*
X192104948Y-100953077D01*
X192085801Y-101044393D01*
X192062892Y-101134857D01*
X192062890Y-101134867D01*
X192060635Y-101162090D01*
X192059526Y-101169698D01*
X192053920Y-101196432D01*
X192053919Y-101196445D01*
X192050062Y-101289691D01*
X192047500Y-101320618D01*
X192047500Y-101351646D01*
X192043642Y-101444901D01*
X192043642Y-101444902D01*
X192047023Y-101472024D01*
X192047500Y-101479700D01*
X192047500Y-107680390D01*
X192047024Y-107688065D01*
X192043643Y-107715188D01*
X192047500Y-107808444D01*
X192047500Y-107839473D01*
X192050062Y-107870399D01*
X192053918Y-107963642D01*
X192059526Y-107990392D01*
X192060635Y-107997999D01*
X192062891Y-108025227D01*
X192062891Y-108025228D01*
X192085801Y-108115697D01*
X192104951Y-108207023D01*
X192104952Y-108207025D01*
X192114882Y-108232476D01*
X192117227Y-108239796D01*
X192120989Y-108254652D01*
X192123937Y-108266290D01*
X192152614Y-108331667D01*
X192161420Y-108351744D01*
X192195344Y-108438684D01*
X192209332Y-108462159D01*
X192212852Y-108468997D01*
X192223825Y-108494013D01*
X192247581Y-108530375D01*
X192274860Y-108572129D01*
X192322634Y-108652303D01*
X192340296Y-108673156D01*
X192344887Y-108679313D01*
X192359836Y-108702194D01*
X192389575Y-108734499D01*
X192391680Y-108736785D01*
X192422603Y-108799440D01*
X192423568Y-108807299D01*
X192424040Y-108810577D01*
X192481823Y-109076202D01*
X192481825Y-109076210D01*
X192537471Y-109225401D01*
X192576830Y-109330928D01*
X192707109Y-109569516D01*
X192707110Y-109569517D01*
X192707113Y-109569522D01*
X192870029Y-109787151D01*
X192870033Y-109787155D01*
X192870038Y-109787161D01*
X193062247Y-109979370D01*
X193062253Y-109979375D01*
X193062258Y-109979380D01*
X193279887Y-110142296D01*
X193279891Y-110142298D01*
X193279892Y-110142299D01*
X193518481Y-110272578D01*
X193518480Y-110272578D01*
X193518484Y-110272579D01*
X193518487Y-110272581D01*
X193773199Y-110367584D01*
X194038840Y-110425370D01*
X194290605Y-110443376D01*
X194309999Y-110444764D01*
X194310000Y-110444764D01*
X194310001Y-110444764D01*
X194328100Y-110443469D01*
X194581160Y-110425370D01*
X194846801Y-110367584D01*
X195101513Y-110272581D01*
X195101528Y-110272572D01*
X195101919Y-110272395D01*
X195102067Y-110272373D01*
X195105662Y-110271033D01*
X195105953Y-110271814D01*
X195171076Y-110262443D01*
X195234635Y-110291460D01*
X195272417Y-110350233D01*
X195272425Y-110420103D01*
X195234658Y-110478886D01*
X195215444Y-110492570D01*
X195143875Y-110533890D01*
X195036907Y-110595649D01*
X195003999Y-110612779D01*
X194986074Y-110622110D01*
X194785967Y-110724066D01*
X194781545Y-110726104D01*
X194674415Y-110770479D01*
X194637787Y-110784539D01*
X194515532Y-110831466D01*
X194511956Y-110832715D01*
X194392472Y-110870387D01*
X194232653Y-110913209D01*
X194110331Y-110940325D01*
X194106610Y-110941031D01*
X193938547Y-110967649D01*
X193823540Y-110982789D01*
X193818694Y-110983234D01*
X193595721Y-110994929D01*
X193543240Y-110997219D01*
X193537169Y-110997485D01*
X193536826Y-110997500D01*
X85862831Y-110997500D01*
X85805670Y-110995004D01*
X85581291Y-110983246D01*
X85576442Y-110982800D01*
X85461447Y-110967662D01*
X85293409Y-110941047D01*
X85289688Y-110940341D01*
X85167332Y-110913215D01*
X85050424Y-110881889D01*
X85007542Y-110870398D01*
X84888010Y-110832708D01*
X84884435Y-110831459D01*
X84789589Y-110795049D01*
X84725623Y-110770495D01*
X84618426Y-110726090D01*
X84614038Y-110724068D01*
X84492589Y-110662189D01*
X84414799Y-110622554D01*
X84367393Y-110597876D01*
X84363087Y-110595634D01*
X84362864Y-110595518D01*
X84160851Y-110478886D01*
X82030090Y-109248690D01*
X78012270Y-106929000D01*
X102934357Y-106929000D01*
X102954884Y-107150535D01*
X102954885Y-107150537D01*
X103015769Y-107364523D01*
X103015775Y-107364538D01*
X103114938Y-107563683D01*
X103114943Y-107563691D01*
X103249020Y-107741238D01*
X103413437Y-107891123D01*
X103413439Y-107891125D01*
X103602595Y-108008245D01*
X103602596Y-108008245D01*
X103602599Y-108008247D01*
X103810060Y-108088618D01*
X104028757Y-108129500D01*
X104028759Y-108129500D01*
X104251241Y-108129500D01*
X104251243Y-108129500D01*
X104469940Y-108088618D01*
X104677401Y-108008247D01*
X104689428Y-108000800D01*
X120869141Y-108000800D01*
X120889736Y-108236203D01*
X120889738Y-108236213D01*
X120950894Y-108464455D01*
X120950896Y-108464459D01*
X120950897Y-108464463D01*
X120966375Y-108497655D01*
X121050764Y-108678628D01*
X121050765Y-108678630D01*
X121186305Y-108872202D01*
X121353397Y-109039294D01*
X121546969Y-109174834D01*
X121546971Y-109174835D01*
X121761137Y-109274703D01*
X121989392Y-109335863D01*
X122165834Y-109351300D01*
X122283766Y-109351300D01*
X122460208Y-109335863D01*
X122688463Y-109274703D01*
X122902629Y-109174835D01*
X123096201Y-109039295D01*
X123263295Y-108872201D01*
X123398835Y-108678630D01*
X123498703Y-108464463D01*
X123559863Y-108236208D01*
X123580459Y-108000800D01*
X123578054Y-107973317D01*
X123568301Y-107861837D01*
X123559863Y-107765392D01*
X123498703Y-107537137D01*
X123398835Y-107322971D01*
X123398834Y-107322969D01*
X123263294Y-107129397D01*
X123096202Y-106962305D01*
X122902630Y-106826765D01*
X122902628Y-106826764D01*
X122795546Y-106776831D01*
X122688463Y-106726897D01*
X122688459Y-106726896D01*
X122688455Y-106726894D01*
X122460213Y-106665738D01*
X122460203Y-106665736D01*
X122283766Y-106650300D01*
X122165834Y-106650300D01*
X121989396Y-106665736D01*
X121989386Y-106665738D01*
X121761144Y-106726894D01*
X121761135Y-106726898D01*
X121546971Y-106826764D01*
X121546969Y-106826765D01*
X121353397Y-106962305D01*
X121186306Y-107129397D01*
X121186301Y-107129404D01*
X121050767Y-107322965D01*
X121050765Y-107322969D01*
X120950898Y-107537135D01*
X120950894Y-107537144D01*
X120889738Y-107765386D01*
X120889736Y-107765396D01*
X120869141Y-108000799D01*
X120869141Y-108000800D01*
X104689428Y-108000800D01*
X104866562Y-107891124D01*
X105030981Y-107741236D01*
X105165058Y-107563689D01*
X105264229Y-107364528D01*
X105325115Y-107150536D01*
X105345643Y-106929000D01*
X105325115Y-106707464D01*
X105264229Y-106493472D01*
X105264224Y-106493461D01*
X105165061Y-106294316D01*
X105165056Y-106294308D01*
X105030979Y-106116761D01*
X104866562Y-105966876D01*
X104866560Y-105966874D01*
X104677404Y-105849754D01*
X104677398Y-105849752D01*
X104469940Y-105769382D01*
X104251243Y-105728500D01*
X104028757Y-105728500D01*
X103810060Y-105769382D01*
X103718933Y-105804685D01*
X103602601Y-105849752D01*
X103602595Y-105849754D01*
X103413439Y-105966874D01*
X103413437Y-105966876D01*
X103249020Y-106116761D01*
X103114943Y-106294308D01*
X103114938Y-106294316D01*
X103015775Y-106493461D01*
X103015769Y-106493476D01*
X102954885Y-106707462D01*
X102954884Y-106707464D01*
X102934357Y-106928999D01*
X102934357Y-106929000D01*
X78012270Y-106929000D01*
X77543986Y-106658636D01*
X77541219Y-106656940D01*
X77430526Y-106585058D01*
X77413021Y-106573597D01*
X77290650Y-106493476D01*
X77276680Y-106484329D01*
X77271621Y-106480639D01*
X77151725Y-106383549D01*
X77024766Y-106278359D01*
X77020479Y-106274455D01*
X76940692Y-106194669D01*
X76908564Y-106162542D01*
X76868067Y-106120501D01*
X76796627Y-106046338D01*
X76793126Y-106042374D01*
X76708066Y-105937334D01*
X76692405Y-105917994D01*
X76665148Y-105882473D01*
X76595007Y-105791063D01*
X76592203Y-105787095D01*
X76504475Y-105652006D01*
X76462392Y-105582166D01*
X76422179Y-105515429D01*
X76420062Y-105511615D01*
X76346639Y-105367513D01*
X76294228Y-105253263D01*
X76280222Y-105222731D01*
X76278712Y-105219143D01*
X76221122Y-105069115D01*
X76220131Y-105066334D01*
X76170788Y-104916381D01*
X76169806Y-104913086D01*
X76128201Y-104757813D01*
X76127402Y-104754462D01*
X76095154Y-104599904D01*
X76094632Y-104597056D01*
X76069486Y-104438288D01*
X76069000Y-104434416D01*
X76054132Y-104275853D01*
X76045667Y-104114335D01*
X76045593Y-104109990D01*
X76048577Y-103950527D01*
X76057007Y-103789684D01*
X76057448Y-103784883D01*
X76078334Y-103626244D01*
X76103376Y-103468145D01*
X76104425Y-103462968D01*
X76143264Y-103306368D01*
X76184237Y-103153458D01*
X76185977Y-103147998D01*
X76243305Y-102993496D01*
X76298645Y-102849334D01*
X76301180Y-102843613D01*
X76311779Y-102822616D01*
X76382463Y-102682578D01*
X76435128Y-102579221D01*
X76444142Y-102561531D01*
X76445675Y-102558705D01*
X78708012Y-98640223D01*
X80348087Y-98640223D01*
X80353189Y-98815592D01*
X80398597Y-98985056D01*
X80429420Y-99042219D01*
X80481863Y-99139481D01*
X80577997Y-99247506D01*
X80598496Y-99270541D01*
X80598497Y-99270543D01*
X80675398Y-99326072D01*
X80682263Y-99331029D01*
X80682269Y-99331032D01*
X80682273Y-99331035D01*
X80901695Y-99457718D01*
X81808111Y-99981037D01*
X81902379Y-100023338D01*
X82074197Y-100058815D01*
X82249564Y-100053713D01*
X82419028Y-100008305D01*
X82573452Y-99925040D01*
X82573455Y-99925037D01*
X82579544Y-99921754D01*
X82647895Y-99907262D01*
X82713229Y-99932024D01*
X82754805Y-99988178D01*
X82758171Y-99998804D01*
X82812068Y-100199950D01*
X82812071Y-100199957D01*
X82911900Y-100414043D01*
X82911902Y-100414047D01*
X83047390Y-100607545D01*
X83203676Y-100763831D01*
X83728732Y-99854406D01*
X83785328Y-99942471D01*
X83888556Y-100031918D01*
X84012802Y-100088659D01*
X84114026Y-100103213D01*
X84162434Y-100103213D01*
X83636689Y-101013829D01*
X83850181Y-101071034D01*
X84085498Y-101091622D01*
X84085502Y-101091622D01*
X84320819Y-101071034D01*
X84320823Y-101071034D01*
X84548983Y-101009899D01*
X84548992Y-101009896D01*
X84722816Y-100928840D01*
X84791893Y-100918348D01*
X84855677Y-100946867D01*
X84893917Y-101005344D01*
X84898749Y-101030414D01*
X84910935Y-101169698D01*
X84915212Y-101218586D01*
X84915500Y-101221872D01*
X84915500Y-101221875D01*
X84976658Y-101450120D01*
X84976660Y-101450124D01*
X84976661Y-101450128D01*
X85046547Y-101599999D01*
X85076527Y-101664292D01*
X85076528Y-101664294D01*
X85212068Y-101857867D01*
X85299084Y-101944882D01*
X85379162Y-102024960D01*
X85572734Y-102160501D01*
X85786901Y-102260368D01*
X86015155Y-102321530D01*
X86093624Y-102328395D01*
X86250561Y-102342125D01*
X86250563Y-102342125D01*
X86250565Y-102342125D01*
X86281076Y-102339455D01*
X86485971Y-102321530D01*
X86714226Y-102260369D01*
X86928393Y-102160501D01*
X87121964Y-102024962D01*
X87289058Y-101857868D01*
X87390645Y-101712787D01*
X87390645Y-101712788D01*
X87390648Y-101712783D01*
X87574614Y-101394145D01*
X87649466Y-101233623D01*
X87710628Y-101005368D01*
X87731223Y-100769961D01*
X87730093Y-100757049D01*
X87726558Y-100716640D01*
X87710628Y-100534553D01*
X87649467Y-100306298D01*
X87637187Y-100279964D01*
X87590619Y-100180097D01*
X87549600Y-100092131D01*
X87549598Y-100092128D01*
X87549597Y-100092126D01*
X87476811Y-99988178D01*
X87414060Y-99898560D01*
X87246966Y-99731466D01*
X87053394Y-99595925D01*
X87047973Y-99593397D01*
X86839232Y-99496060D01*
X86839230Y-99496059D01*
X86839227Y-99496058D01*
X86693703Y-99457064D01*
X86610971Y-99434895D01*
X86375567Y-99414301D01*
X86375563Y-99414301D01*
X86218626Y-99428031D01*
X86140157Y-99434896D01*
X86140154Y-99434896D01*
X85911909Y-99496054D01*
X85911902Y-99496056D01*
X85911902Y-99496057D01*
X85889563Y-99506474D01*
X85737719Y-99577280D01*
X85668641Y-99587772D01*
X85604857Y-99559252D01*
X85566618Y-99500776D01*
X85561786Y-99475705D01*
X85545070Y-99284645D01*
X85545068Y-99284634D01*
X85483934Y-99056477D01*
X85483930Y-99056468D01*
X85384102Y-98842384D01*
X85384101Y-98842382D01*
X85248610Y-98648879D01*
X85092325Y-98492594D01*
X85092324Y-98492594D01*
X84567268Y-99402017D01*
X84510674Y-99313955D01*
X84407446Y-99224508D01*
X84283200Y-99167767D01*
X84181976Y-99153213D01*
X84133567Y-99153213D01*
X84659311Y-98242595D01*
X84445827Y-98185392D01*
X84445817Y-98185390D01*
X84210504Y-98164803D01*
X84210500Y-98164803D01*
X83975186Y-98185390D01*
X83975175Y-98185392D01*
X83774028Y-98239289D01*
X83704178Y-98237626D01*
X83646316Y-98198463D01*
X83618812Y-98134235D01*
X83617987Y-98123120D01*
X83615412Y-98034620D01*
X83612684Y-97940833D01*
X83567276Y-97771369D01*
X83484011Y-97616945D01*
X83367378Y-97485885D01*
X83367377Y-97485884D01*
X83367376Y-97485882D01*
X83283617Y-97425401D01*
X83283600Y-97425390D01*
X82344414Y-96883152D01*
X82157763Y-96775389D01*
X82157753Y-96775384D01*
X82157746Y-96775381D01*
X82063495Y-96733088D01*
X82063496Y-96733088D01*
X81891677Y-96697610D01*
X81716310Y-96702712D01*
X81546846Y-96748120D01*
X81392422Y-96831386D01*
X81261361Y-96948019D01*
X81261359Y-96948020D01*
X81200878Y-97031779D01*
X81200867Y-97031796D01*
X80425873Y-98374128D01*
X80425862Y-98374149D01*
X80383565Y-98468405D01*
X80383564Y-98468409D01*
X80348087Y-98640223D01*
X78708012Y-98640223D01*
X84393360Y-88792912D01*
X84393610Y-88792479D01*
X84393609Y-88792478D01*
X84393687Y-88792345D01*
X84399036Y-88783359D01*
X84399640Y-88782034D01*
X84414243Y-88756740D01*
X84414649Y-88755959D01*
X84472194Y-88656293D01*
X84472197Y-88656287D01*
X84472202Y-88656279D01*
X84568691Y-88439564D01*
X84571614Y-88433824D01*
X84596433Y-88390779D01*
X88870424Y-80978075D01*
X88920961Y-80929833D01*
X88989560Y-80916571D01*
X89009937Y-80920241D01*
G37*
%TD.AperFunction*%
%TA.AperFunction,Conductor*%
G36*
X97003703Y-95343146D02*
G01*
X97038681Y-95393525D01*
X97041182Y-95400229D01*
X97044204Y-95408332D01*
X97044206Y-95408335D01*
X97130452Y-95523544D01*
X97130455Y-95523547D01*
X97245664Y-95609793D01*
X97245671Y-95609797D01*
X97380517Y-95660091D01*
X97380516Y-95660091D01*
X97387444Y-95660835D01*
X97440127Y-95666500D01*
X99235872Y-95666499D01*
X99295483Y-95660091D01*
X99430331Y-95609796D01*
X99430337Y-95609791D01*
X99431491Y-95609162D01*
X99432789Y-95608879D01*
X99438641Y-95606697D01*
X99438954Y-95607537D01*
X99499763Y-95594305D01*
X99565229Y-95618718D01*
X99607105Y-95674648D01*
X99612094Y-95744339D01*
X99578614Y-95805665D01*
X99578607Y-95805671D01*
X96817532Y-98566746D01*
X96752946Y-98628142D01*
X96717899Y-98678494D01*
X96715062Y-98682256D01*
X96676302Y-98729792D01*
X96676299Y-98729797D01*
X96660392Y-98760247D01*
X96656324Y-98766961D01*
X96636702Y-98795154D01*
X96612509Y-98851530D01*
X96610488Y-98855784D01*
X96582091Y-98910151D01*
X96582090Y-98910152D01*
X96572640Y-98943175D01*
X96570007Y-98950571D01*
X96556459Y-98982143D01*
X96544113Y-99042219D01*
X96542990Y-99046795D01*
X96526113Y-99105777D01*
X96526113Y-99105779D01*
X96523503Y-99140041D01*
X96522414Y-99147808D01*
X96516980Y-99174252D01*
X96515500Y-99181458D01*
X96515500Y-99242797D01*
X96515321Y-99247506D01*
X96510662Y-99308674D01*
X96511341Y-99314000D01*
X96515003Y-99342760D01*
X96515500Y-99350588D01*
X96515500Y-100493241D01*
X96495815Y-100560280D01*
X96479181Y-100580922D01*
X96477508Y-100582594D01*
X96367269Y-100740032D01*
X96312692Y-100783656D01*
X96243193Y-100790849D01*
X96180839Y-100759327D01*
X96164119Y-100740031D01*
X96054113Y-100582926D01*
X96054108Y-100582920D01*
X95887082Y-100415894D01*
X95693578Y-100280399D01*
X95479492Y-100180570D01*
X95479486Y-100180567D01*
X95266000Y-100123364D01*
X95266000Y-101170981D01*
X95151199Y-101118554D01*
X95049975Y-101104000D01*
X94982025Y-101104000D01*
X94880801Y-101118554D01*
X94766000Y-101170981D01*
X94766000Y-100123364D01*
X94765999Y-100123364D01*
X94552513Y-100180567D01*
X94552507Y-100180570D01*
X94338422Y-100280399D01*
X94338420Y-100280400D01*
X94144926Y-100415886D01*
X93997668Y-100563144D01*
X93936345Y-100596628D01*
X93866653Y-100591644D01*
X93810720Y-100549772D01*
X93804448Y-100540558D01*
X93791520Y-100519599D01*
X93708712Y-100385344D01*
X93584656Y-100261288D01*
X93584655Y-100261287D01*
X93575402Y-100255580D01*
X93528678Y-100203632D01*
X93516500Y-100150042D01*
X93516500Y-99846781D01*
X93536185Y-99779742D01*
X93552814Y-99759105D01*
X96496467Y-96815452D01*
X96561053Y-96754059D01*
X96596099Y-96703706D01*
X96598938Y-96699941D01*
X96609196Y-96687361D01*
X96637698Y-96652407D01*
X96653601Y-96621960D01*
X96657674Y-96615239D01*
X96671008Y-96596081D01*
X96677295Y-96587049D01*
X96701492Y-96530660D01*
X96703498Y-96526435D01*
X96731909Y-96472049D01*
X96741360Y-96439015D01*
X96743991Y-96431628D01*
X96757540Y-96400058D01*
X96769893Y-96339940D01*
X96771006Y-96335412D01*
X96787887Y-96276418D01*
X96790495Y-96242155D01*
X96791587Y-96234376D01*
X96798151Y-96202440D01*
X96798500Y-96200741D01*
X96798500Y-96139401D01*
X96798679Y-96134692D01*
X96800146Y-96115435D01*
X96803337Y-96073524D01*
X96798997Y-96039442D01*
X96798500Y-96031603D01*
X96798500Y-95436859D01*
X96818185Y-95369820D01*
X96870989Y-95324065D01*
X96940147Y-95314121D01*
X97003703Y-95343146D01*
G37*
%TD.AperFunction*%
%TA.AperFunction,Conductor*%
G36*
X93508000Y-95646633D02*
G01*
X93721483Y-95589433D01*
X93721492Y-95589429D01*
X93935578Y-95489600D01*
X94129082Y-95354105D01*
X94296105Y-95187082D01*
X94426119Y-95001405D01*
X94480696Y-94957781D01*
X94550195Y-94950588D01*
X94612549Y-94982110D01*
X94629269Y-95001405D01*
X94759505Y-95187401D01*
X94759506Y-95187402D01*
X94761181Y-95189077D01*
X94761682Y-95189995D01*
X94762982Y-95191544D01*
X94762670Y-95191805D01*
X94794666Y-95250400D01*
X94797500Y-95276758D01*
X94797500Y-95633216D01*
X94777815Y-95700255D01*
X94761181Y-95720897D01*
X91930181Y-98551897D01*
X91868858Y-98585382D01*
X91799166Y-98580398D01*
X91743233Y-98538526D01*
X91718816Y-98473062D01*
X91718500Y-98464216D01*
X91718500Y-95276758D01*
X91738185Y-95209719D01*
X91754819Y-95189077D01*
X91756495Y-95187401D01*
X91886730Y-95001405D01*
X91941307Y-94957781D01*
X92010805Y-94950587D01*
X92073160Y-94982110D01*
X92089879Y-95001405D01*
X92219890Y-95187078D01*
X92386917Y-95354105D01*
X92580421Y-95489600D01*
X92794507Y-95589429D01*
X92794516Y-95589433D01*
X93008000Y-95646634D01*
X93008000Y-94751501D01*
X93115685Y-94800680D01*
X93222237Y-94816000D01*
X93293763Y-94816000D01*
X93400315Y-94800680D01*
X93508000Y-94751501D01*
X93508000Y-95646633D01*
G37*
%TD.AperFunction*%
%TA.AperFunction,Conductor*%
G36*
X183878600Y-83718185D02*
G01*
X183899242Y-83734819D01*
X187715181Y-87550757D01*
X187748666Y-87612080D01*
X187751500Y-87638438D01*
X187751500Y-92901858D01*
X187731815Y-92968897D01*
X187679011Y-93014652D01*
X187670847Y-93018034D01*
X187659669Y-93022204D01*
X187659664Y-93022206D01*
X187544455Y-93108452D01*
X187544452Y-93108455D01*
X187458206Y-93223664D01*
X187458203Y-93223669D01*
X187409189Y-93355083D01*
X187367317Y-93411016D01*
X187301853Y-93435433D01*
X187233580Y-93420581D01*
X187205326Y-93399430D01*
X187083402Y-93277506D01*
X187083395Y-93277501D01*
X187061884Y-93262439D01*
X187034187Y-93243045D01*
X186889834Y-93141967D01*
X186889830Y-93141965D01*
X186889828Y-93141964D01*
X186675663Y-93042097D01*
X186675659Y-93042096D01*
X186675655Y-93042094D01*
X186447413Y-92980938D01*
X186447403Y-92980936D01*
X186212001Y-92960341D01*
X186211999Y-92960341D01*
X185976596Y-92980936D01*
X185976586Y-92980938D01*
X185748344Y-93042094D01*
X185748335Y-93042098D01*
X185534171Y-93141964D01*
X185534169Y-93141965D01*
X185340597Y-93277505D01*
X185173505Y-93444597D01*
X185037965Y-93638169D01*
X185037964Y-93638171D01*
X184938098Y-93852335D01*
X184938094Y-93852344D01*
X184876938Y-94080586D01*
X184876936Y-94080596D01*
X184856341Y-94315999D01*
X184856341Y-94316000D01*
X184876936Y-94551403D01*
X184876938Y-94551413D01*
X184938094Y-94779655D01*
X184938096Y-94779659D01*
X184938097Y-94779663D01*
X185017801Y-94950588D01*
X185037965Y-94993830D01*
X185037967Y-94993834D01*
X185146195Y-95148398D01*
X185173504Y-95187400D01*
X185173506Y-95187402D01*
X185175181Y-95189077D01*
X185175682Y-95189995D01*
X185176982Y-95191544D01*
X185176670Y-95191805D01*
X185208666Y-95250400D01*
X185211500Y-95276758D01*
X185211500Y-95495883D01*
X185209243Y-95584962D01*
X185209243Y-95584970D01*
X185220064Y-95645339D01*
X185220718Y-95650004D01*
X185226925Y-95711030D01*
X185226927Y-95711044D01*
X185237208Y-95743813D01*
X185239079Y-95751437D01*
X185245142Y-95785252D01*
X185245142Y-95785255D01*
X185267894Y-95842212D01*
X185269474Y-95846651D01*
X185287841Y-95905188D01*
X185287844Y-95905195D01*
X185304509Y-95935219D01*
X185307879Y-95942314D01*
X185320622Y-95974214D01*
X185320627Y-95974224D01*
X185354377Y-96025433D01*
X185356818Y-96029463D01*
X185386588Y-96083098D01*
X185386589Y-96083099D01*
X185386591Y-96083102D01*
X185408968Y-96109167D01*
X185413693Y-96115435D01*
X185425704Y-96133658D01*
X185432598Y-96144119D01*
X185475978Y-96187499D01*
X185479169Y-96190943D01*
X185516456Y-96234376D01*
X185519134Y-96237495D01*
X185546294Y-96258518D01*
X185552190Y-96263711D01*
X185874298Y-96585819D01*
X185907783Y-96647142D01*
X185902799Y-96716834D01*
X185860927Y-96772767D01*
X185795463Y-96797184D01*
X185786617Y-96797500D01*
X183049576Y-96797500D01*
X182982537Y-96777815D01*
X182936782Y-96725011D01*
X182926838Y-96655853D01*
X182955863Y-96592297D01*
X182961895Y-96585819D01*
X183151561Y-96396152D01*
X183151571Y-96396142D01*
X183314487Y-96178513D01*
X183411110Y-96001561D01*
X183444769Y-95939919D01*
X183444769Y-95939917D01*
X183444772Y-95939913D01*
X183539775Y-95685201D01*
X183597561Y-95419560D01*
X183616955Y-95148400D01*
X183616076Y-95136117D01*
X183606505Y-95002292D01*
X183597561Y-94877240D01*
X183539775Y-94611599D01*
X183444772Y-94356887D01*
X183444770Y-94356884D01*
X183444769Y-94356880D01*
X183314490Y-94118292D01*
X183314489Y-94118291D01*
X183314487Y-94118287D01*
X183151571Y-93900658D01*
X183151566Y-93900653D01*
X183151561Y-93900647D01*
X182959352Y-93708438D01*
X182959346Y-93708433D01*
X182959342Y-93708429D01*
X182741713Y-93545513D01*
X182741708Y-93545510D01*
X182741707Y-93545509D01*
X182503118Y-93415230D01*
X182503119Y-93415230D01*
X182453520Y-93396730D01*
X182248401Y-93320225D01*
X182248394Y-93320223D01*
X182248393Y-93320223D01*
X181982767Y-93262440D01*
X181982760Y-93262439D01*
X181711601Y-93243045D01*
X181711599Y-93243045D01*
X181440439Y-93262439D01*
X181440432Y-93262440D01*
X181174806Y-93320223D01*
X181174802Y-93320224D01*
X181174799Y-93320225D01*
X181072135Y-93358517D01*
X180920080Y-93415230D01*
X180681492Y-93545509D01*
X180681491Y-93545510D01*
X180463859Y-93708428D01*
X180463847Y-93708438D01*
X180271638Y-93900647D01*
X180271628Y-93900659D01*
X180108710Y-94118291D01*
X180108709Y-94118292D01*
X179978430Y-94356880D01*
X179946809Y-94441660D01*
X179883425Y-94611599D01*
X179883424Y-94611602D01*
X179883423Y-94611606D01*
X179825640Y-94877232D01*
X179825639Y-94877239D01*
X179806245Y-95148398D01*
X179806245Y-95148401D01*
X179825639Y-95419560D01*
X179825640Y-95419567D01*
X179861522Y-95584516D01*
X179856538Y-95654208D01*
X179814666Y-95710141D01*
X179749202Y-95734558D01*
X179735233Y-95734768D01*
X179669791Y-95732062D01*
X179662059Y-95731421D01*
X179638867Y-95729500D01*
X179638864Y-95729500D01*
X179607835Y-95729500D01*
X179514580Y-95725643D01*
X179514579Y-95725643D01*
X179487452Y-95729024D01*
X179479781Y-95729500D01*
X171115500Y-95729500D01*
X171048461Y-95709815D01*
X171002706Y-95657011D01*
X170991500Y-95605508D01*
X170991499Y-95589783D01*
X171011179Y-95522742D01*
X171027813Y-95502099D01*
X179504695Y-87025219D01*
X179566018Y-86991734D01*
X179592376Y-86988900D01*
X181783048Y-86988900D01*
X181997028Y-86973596D01*
X181997033Y-86973595D01*
X182276642Y-86912770D01*
X182276642Y-86912769D01*
X182276646Y-86912769D01*
X182306869Y-86901496D01*
X182319683Y-86896717D01*
X182363016Y-86888899D01*
X183159471Y-86888899D01*
X183159472Y-86888899D01*
X183219083Y-86882491D01*
X183353931Y-86832196D01*
X183469146Y-86745946D01*
X183555396Y-86630731D01*
X183605691Y-86495883D01*
X183612100Y-86436273D01*
X183612099Y-85639812D01*
X183619917Y-85596479D01*
X183635969Y-85553446D01*
X183696796Y-85273828D01*
X183717210Y-84988400D01*
X183696796Y-84702972D01*
X183635969Y-84423354D01*
X183630408Y-84408444D01*
X183619917Y-84380315D01*
X183612099Y-84336983D01*
X183612099Y-83822500D01*
X183631784Y-83755461D01*
X183684588Y-83709706D01*
X183736099Y-83698500D01*
X183811561Y-83698500D01*
X183878600Y-83718185D01*
G37*
%TD.AperFunction*%
%TA.AperFunction,Conductor*%
G36*
X158702129Y-96388185D02*
G01*
X158747884Y-96440989D01*
X158757828Y-96510147D01*
X158734044Y-96567227D01*
X158673366Y-96647576D01*
X158666278Y-96661812D01*
X158618775Y-96713049D01*
X158551111Y-96730469D01*
X158484771Y-96708542D01*
X158444280Y-96661812D01*
X158437064Y-96647321D01*
X158437052Y-96647302D01*
X158376582Y-96567226D01*
X158351890Y-96501865D01*
X158366455Y-96433530D01*
X158415653Y-96383918D01*
X158475536Y-96368500D01*
X158635090Y-96368500D01*
X158702129Y-96388185D01*
G37*
%TD.AperFunction*%
%TD*%
M02*
