%TF.GenerationSoftware,KiCad,Pcbnew,7.0.9*%
%TF.CreationDate,2024-01-11T17:23:10+09:00*%
%TF.ProjectId,KickerBoard,4b69636b-6572-4426-9f61-72642e6b6963,rev?*%
%TF.SameCoordinates,Original*%
%TF.FileFunction,Legend,Top*%
%TF.FilePolarity,Positive*%
%FSLAX46Y46*%
G04 Gerber Fmt 4.6, Leading zero omitted, Abs format (unit mm)*
G04 Created by KiCad (PCBNEW 7.0.9) date 2024-01-11 17:23:10*
%MOMM*%
%LPD*%
G01*
G04 APERTURE LIST*
%ADD10C,0.120000*%
%ADD11C,0.150000*%
%ADD12C,0.100000*%
G04 APERTURE END LIST*
D10*
X157193804Y-82859379D02*
X157812851Y-82859379D01*
X157812851Y-82859379D02*
X157479518Y-83240331D01*
X157479518Y-83240331D02*
X157622375Y-83240331D01*
X157622375Y-83240331D02*
X157717613Y-83287950D01*
X157717613Y-83287950D02*
X157765232Y-83335569D01*
X157765232Y-83335569D02*
X157812851Y-83430807D01*
X157812851Y-83430807D02*
X157812851Y-83668902D01*
X157812851Y-83668902D02*
X157765232Y-83764140D01*
X157765232Y-83764140D02*
X157717613Y-83811760D01*
X157717613Y-83811760D02*
X157622375Y-83859379D01*
X157622375Y-83859379D02*
X157336661Y-83859379D01*
X157336661Y-83859379D02*
X157241423Y-83811760D01*
X157241423Y-83811760D02*
X157193804Y-83764140D01*
X158146185Y-82859379D02*
X158765232Y-82859379D01*
X158765232Y-82859379D02*
X158431899Y-83240331D01*
X158431899Y-83240331D02*
X158574756Y-83240331D01*
X158574756Y-83240331D02*
X158669994Y-83287950D01*
X158669994Y-83287950D02*
X158717613Y-83335569D01*
X158717613Y-83335569D02*
X158765232Y-83430807D01*
X158765232Y-83430807D02*
X158765232Y-83668902D01*
X158765232Y-83668902D02*
X158717613Y-83764140D01*
X158717613Y-83764140D02*
X158669994Y-83811760D01*
X158669994Y-83811760D02*
X158574756Y-83859379D01*
X158574756Y-83859379D02*
X158289042Y-83859379D01*
X158289042Y-83859379D02*
X158193804Y-83811760D01*
X158193804Y-83811760D02*
X158146185Y-83764140D01*
X159384280Y-82859379D02*
X159479518Y-82859379D01*
X159479518Y-82859379D02*
X159574756Y-82906998D01*
X159574756Y-82906998D02*
X159622375Y-82954617D01*
X159622375Y-82954617D02*
X159669994Y-83049855D01*
X159669994Y-83049855D02*
X159717613Y-83240331D01*
X159717613Y-83240331D02*
X159717613Y-83478426D01*
X159717613Y-83478426D02*
X159669994Y-83668902D01*
X159669994Y-83668902D02*
X159622375Y-83764140D01*
X159622375Y-83764140D02*
X159574756Y-83811760D01*
X159574756Y-83811760D02*
X159479518Y-83859379D01*
X159479518Y-83859379D02*
X159384280Y-83859379D01*
X159384280Y-83859379D02*
X159289042Y-83811760D01*
X159289042Y-83811760D02*
X159241423Y-83764140D01*
X159241423Y-83764140D02*
X159193804Y-83668902D01*
X159193804Y-83668902D02*
X159146185Y-83478426D01*
X159146185Y-83478426D02*
X159146185Y-83240331D01*
X159146185Y-83240331D02*
X159193804Y-83049855D01*
X159193804Y-83049855D02*
X159241423Y-82954617D01*
X159241423Y-82954617D02*
X159289042Y-82906998D01*
X159289042Y-82906998D02*
X159384280Y-82859379D01*
X160336661Y-82859379D02*
X160431899Y-82859379D01*
X160431899Y-82859379D02*
X160527137Y-82906998D01*
X160527137Y-82906998D02*
X160574756Y-82954617D01*
X160574756Y-82954617D02*
X160622375Y-83049855D01*
X160622375Y-83049855D02*
X160669994Y-83240331D01*
X160669994Y-83240331D02*
X160669994Y-83478426D01*
X160669994Y-83478426D02*
X160622375Y-83668902D01*
X160622375Y-83668902D02*
X160574756Y-83764140D01*
X160574756Y-83764140D02*
X160527137Y-83811760D01*
X160527137Y-83811760D02*
X160431899Y-83859379D01*
X160431899Y-83859379D02*
X160336661Y-83859379D01*
X160336661Y-83859379D02*
X160241423Y-83811760D01*
X160241423Y-83811760D02*
X160193804Y-83764140D01*
X160193804Y-83764140D02*
X160146185Y-83668902D01*
X160146185Y-83668902D02*
X160098566Y-83478426D01*
X160098566Y-83478426D02*
X160098566Y-83240331D01*
X160098566Y-83240331D02*
X160146185Y-83049855D01*
X160146185Y-83049855D02*
X160193804Y-82954617D01*
X160193804Y-82954617D02*
X160241423Y-82906998D01*
X160241423Y-82906998D02*
X160336661Y-82859379D01*
X161098566Y-83192712D02*
X161098566Y-84192712D01*
X161574756Y-83716521D02*
X161622375Y-83811760D01*
X161622375Y-83811760D02*
X161717613Y-83859379D01*
X161098566Y-83716521D02*
X161146185Y-83811760D01*
X161146185Y-83811760D02*
X161241423Y-83859379D01*
X161241423Y-83859379D02*
X161431899Y-83859379D01*
X161431899Y-83859379D02*
X161527137Y-83811760D01*
X161527137Y-83811760D02*
X161574756Y-83716521D01*
X161574756Y-83716521D02*
X161574756Y-83192712D01*
X162479518Y-83335569D02*
X162146185Y-83335569D01*
X162146185Y-83859379D02*
X162146185Y-82859379D01*
X162146185Y-82859379D02*
X162622375Y-82859379D01*
X157765232Y-84469379D02*
X157289042Y-84469379D01*
X157289042Y-84469379D02*
X157241423Y-84945569D01*
X157241423Y-84945569D02*
X157289042Y-84897950D01*
X157289042Y-84897950D02*
X157384280Y-84850331D01*
X157384280Y-84850331D02*
X157622375Y-84850331D01*
X157622375Y-84850331D02*
X157717613Y-84897950D01*
X157717613Y-84897950D02*
X157765232Y-84945569D01*
X157765232Y-84945569D02*
X157812851Y-85040807D01*
X157812851Y-85040807D02*
X157812851Y-85278902D01*
X157812851Y-85278902D02*
X157765232Y-85374140D01*
X157765232Y-85374140D02*
X157717613Y-85421760D01*
X157717613Y-85421760D02*
X157622375Y-85469379D01*
X157622375Y-85469379D02*
X157384280Y-85469379D01*
X157384280Y-85469379D02*
X157289042Y-85421760D01*
X157289042Y-85421760D02*
X157241423Y-85374140D01*
X158431899Y-84469379D02*
X158527137Y-84469379D01*
X158527137Y-84469379D02*
X158622375Y-84516998D01*
X158622375Y-84516998D02*
X158669994Y-84564617D01*
X158669994Y-84564617D02*
X158717613Y-84659855D01*
X158717613Y-84659855D02*
X158765232Y-84850331D01*
X158765232Y-84850331D02*
X158765232Y-85088426D01*
X158765232Y-85088426D02*
X158717613Y-85278902D01*
X158717613Y-85278902D02*
X158669994Y-85374140D01*
X158669994Y-85374140D02*
X158622375Y-85421760D01*
X158622375Y-85421760D02*
X158527137Y-85469379D01*
X158527137Y-85469379D02*
X158431899Y-85469379D01*
X158431899Y-85469379D02*
X158336661Y-85421760D01*
X158336661Y-85421760D02*
X158289042Y-85374140D01*
X158289042Y-85374140D02*
X158241423Y-85278902D01*
X158241423Y-85278902D02*
X158193804Y-85088426D01*
X158193804Y-85088426D02*
X158193804Y-84850331D01*
X158193804Y-84850331D02*
X158241423Y-84659855D01*
X158241423Y-84659855D02*
X158289042Y-84564617D01*
X158289042Y-84564617D02*
X158336661Y-84516998D01*
X158336661Y-84516998D02*
X158431899Y-84469379D01*
X159098566Y-84802712D02*
X159336661Y-85469379D01*
X159336661Y-85469379D02*
X159574756Y-84802712D01*
X116777624Y-82859379D02*
X117396671Y-82859379D01*
X117396671Y-82859379D02*
X117063338Y-83240331D01*
X117063338Y-83240331D02*
X117206195Y-83240331D01*
X117206195Y-83240331D02*
X117301433Y-83287950D01*
X117301433Y-83287950D02*
X117349052Y-83335569D01*
X117349052Y-83335569D02*
X117396671Y-83430807D01*
X117396671Y-83430807D02*
X117396671Y-83668902D01*
X117396671Y-83668902D02*
X117349052Y-83764140D01*
X117349052Y-83764140D02*
X117301433Y-83811760D01*
X117301433Y-83811760D02*
X117206195Y-83859379D01*
X117206195Y-83859379D02*
X116920481Y-83859379D01*
X116920481Y-83859379D02*
X116825243Y-83811760D01*
X116825243Y-83811760D02*
X116777624Y-83764140D01*
X117730005Y-82859379D02*
X118349052Y-82859379D01*
X118349052Y-82859379D02*
X118015719Y-83240331D01*
X118015719Y-83240331D02*
X118158576Y-83240331D01*
X118158576Y-83240331D02*
X118253814Y-83287950D01*
X118253814Y-83287950D02*
X118301433Y-83335569D01*
X118301433Y-83335569D02*
X118349052Y-83430807D01*
X118349052Y-83430807D02*
X118349052Y-83668902D01*
X118349052Y-83668902D02*
X118301433Y-83764140D01*
X118301433Y-83764140D02*
X118253814Y-83811760D01*
X118253814Y-83811760D02*
X118158576Y-83859379D01*
X118158576Y-83859379D02*
X117872862Y-83859379D01*
X117872862Y-83859379D02*
X117777624Y-83811760D01*
X117777624Y-83811760D02*
X117730005Y-83764140D01*
X118968100Y-82859379D02*
X119063338Y-82859379D01*
X119063338Y-82859379D02*
X119158576Y-82906998D01*
X119158576Y-82906998D02*
X119206195Y-82954617D01*
X119206195Y-82954617D02*
X119253814Y-83049855D01*
X119253814Y-83049855D02*
X119301433Y-83240331D01*
X119301433Y-83240331D02*
X119301433Y-83478426D01*
X119301433Y-83478426D02*
X119253814Y-83668902D01*
X119253814Y-83668902D02*
X119206195Y-83764140D01*
X119206195Y-83764140D02*
X119158576Y-83811760D01*
X119158576Y-83811760D02*
X119063338Y-83859379D01*
X119063338Y-83859379D02*
X118968100Y-83859379D01*
X118968100Y-83859379D02*
X118872862Y-83811760D01*
X118872862Y-83811760D02*
X118825243Y-83764140D01*
X118825243Y-83764140D02*
X118777624Y-83668902D01*
X118777624Y-83668902D02*
X118730005Y-83478426D01*
X118730005Y-83478426D02*
X118730005Y-83240331D01*
X118730005Y-83240331D02*
X118777624Y-83049855D01*
X118777624Y-83049855D02*
X118825243Y-82954617D01*
X118825243Y-82954617D02*
X118872862Y-82906998D01*
X118872862Y-82906998D02*
X118968100Y-82859379D01*
X119920481Y-82859379D02*
X120015719Y-82859379D01*
X120015719Y-82859379D02*
X120110957Y-82906998D01*
X120110957Y-82906998D02*
X120158576Y-82954617D01*
X120158576Y-82954617D02*
X120206195Y-83049855D01*
X120206195Y-83049855D02*
X120253814Y-83240331D01*
X120253814Y-83240331D02*
X120253814Y-83478426D01*
X120253814Y-83478426D02*
X120206195Y-83668902D01*
X120206195Y-83668902D02*
X120158576Y-83764140D01*
X120158576Y-83764140D02*
X120110957Y-83811760D01*
X120110957Y-83811760D02*
X120015719Y-83859379D01*
X120015719Y-83859379D02*
X119920481Y-83859379D01*
X119920481Y-83859379D02*
X119825243Y-83811760D01*
X119825243Y-83811760D02*
X119777624Y-83764140D01*
X119777624Y-83764140D02*
X119730005Y-83668902D01*
X119730005Y-83668902D02*
X119682386Y-83478426D01*
X119682386Y-83478426D02*
X119682386Y-83240331D01*
X119682386Y-83240331D02*
X119730005Y-83049855D01*
X119730005Y-83049855D02*
X119777624Y-82954617D01*
X119777624Y-82954617D02*
X119825243Y-82906998D01*
X119825243Y-82906998D02*
X119920481Y-82859379D01*
X120682386Y-83192712D02*
X120682386Y-84192712D01*
X121158576Y-83716521D02*
X121206195Y-83811760D01*
X121206195Y-83811760D02*
X121301433Y-83859379D01*
X120682386Y-83716521D02*
X120730005Y-83811760D01*
X120730005Y-83811760D02*
X120825243Y-83859379D01*
X120825243Y-83859379D02*
X121015719Y-83859379D01*
X121015719Y-83859379D02*
X121110957Y-83811760D01*
X121110957Y-83811760D02*
X121158576Y-83716521D01*
X121158576Y-83716521D02*
X121158576Y-83192712D01*
X122063338Y-83335569D02*
X121730005Y-83335569D01*
X121730005Y-83859379D02*
X121730005Y-82859379D01*
X121730005Y-82859379D02*
X122206195Y-82859379D01*
X120396671Y-84469379D02*
X119920481Y-84469379D01*
X119920481Y-84469379D02*
X119872862Y-84945569D01*
X119872862Y-84945569D02*
X119920481Y-84897950D01*
X119920481Y-84897950D02*
X120015719Y-84850331D01*
X120015719Y-84850331D02*
X120253814Y-84850331D01*
X120253814Y-84850331D02*
X120349052Y-84897950D01*
X120349052Y-84897950D02*
X120396671Y-84945569D01*
X120396671Y-84945569D02*
X120444290Y-85040807D01*
X120444290Y-85040807D02*
X120444290Y-85278902D01*
X120444290Y-85278902D02*
X120396671Y-85374140D01*
X120396671Y-85374140D02*
X120349052Y-85421760D01*
X120349052Y-85421760D02*
X120253814Y-85469379D01*
X120253814Y-85469379D02*
X120015719Y-85469379D01*
X120015719Y-85469379D02*
X119920481Y-85421760D01*
X119920481Y-85421760D02*
X119872862Y-85374140D01*
X121063338Y-84469379D02*
X121158576Y-84469379D01*
X121158576Y-84469379D02*
X121253814Y-84516998D01*
X121253814Y-84516998D02*
X121301433Y-84564617D01*
X121301433Y-84564617D02*
X121349052Y-84659855D01*
X121349052Y-84659855D02*
X121396671Y-84850331D01*
X121396671Y-84850331D02*
X121396671Y-85088426D01*
X121396671Y-85088426D02*
X121349052Y-85278902D01*
X121349052Y-85278902D02*
X121301433Y-85374140D01*
X121301433Y-85374140D02*
X121253814Y-85421760D01*
X121253814Y-85421760D02*
X121158576Y-85469379D01*
X121158576Y-85469379D02*
X121063338Y-85469379D01*
X121063338Y-85469379D02*
X120968100Y-85421760D01*
X120968100Y-85421760D02*
X120920481Y-85374140D01*
X120920481Y-85374140D02*
X120872862Y-85278902D01*
X120872862Y-85278902D02*
X120825243Y-85088426D01*
X120825243Y-85088426D02*
X120825243Y-84850331D01*
X120825243Y-84850331D02*
X120872862Y-84659855D01*
X120872862Y-84659855D02*
X120920481Y-84564617D01*
X120920481Y-84564617D02*
X120968100Y-84516998D01*
X120968100Y-84516998D02*
X121063338Y-84469379D01*
X121730005Y-84802712D02*
X121968100Y-85469379D01*
X121968100Y-85469379D02*
X122206195Y-84802712D01*
D11*
X91845143Y-83512819D02*
X91845143Y-82512819D01*
X91845143Y-82512819D02*
X92226095Y-82512819D01*
X92226095Y-82512819D02*
X92321333Y-82560438D01*
X92321333Y-82560438D02*
X92368952Y-82608057D01*
X92368952Y-82608057D02*
X92416571Y-82703295D01*
X92416571Y-82703295D02*
X92416571Y-82846152D01*
X92416571Y-82846152D02*
X92368952Y-82941390D01*
X92368952Y-82941390D02*
X92321333Y-82989009D01*
X92321333Y-82989009D02*
X92226095Y-83036628D01*
X92226095Y-83036628D02*
X91845143Y-83036628D01*
X92845143Y-83512819D02*
X92845143Y-82512819D01*
X93273714Y-83512819D02*
X93273714Y-82989009D01*
X93273714Y-82989009D02*
X93226095Y-82893771D01*
X93226095Y-82893771D02*
X93130857Y-82846152D01*
X93130857Y-82846152D02*
X92988000Y-82846152D01*
X92988000Y-82846152D02*
X92892762Y-82893771D01*
X92892762Y-82893771D02*
X92845143Y-82941390D01*
X93892762Y-83512819D02*
X93797524Y-83465200D01*
X93797524Y-83465200D02*
X93749905Y-83417580D01*
X93749905Y-83417580D02*
X93702286Y-83322342D01*
X93702286Y-83322342D02*
X93702286Y-83036628D01*
X93702286Y-83036628D02*
X93749905Y-82941390D01*
X93749905Y-82941390D02*
X93797524Y-82893771D01*
X93797524Y-82893771D02*
X93892762Y-82846152D01*
X93892762Y-82846152D02*
X94035619Y-82846152D01*
X94035619Y-82846152D02*
X94130857Y-82893771D01*
X94130857Y-82893771D02*
X94178476Y-82941390D01*
X94178476Y-82941390D02*
X94226095Y-83036628D01*
X94226095Y-83036628D02*
X94226095Y-83322342D01*
X94226095Y-83322342D02*
X94178476Y-83417580D01*
X94178476Y-83417580D02*
X94130857Y-83465200D01*
X94130857Y-83465200D02*
X94035619Y-83512819D01*
X94035619Y-83512819D02*
X93892762Y-83512819D01*
X94511810Y-82846152D02*
X94892762Y-82846152D01*
X94654667Y-82512819D02*
X94654667Y-83369961D01*
X94654667Y-83369961D02*
X94702286Y-83465200D01*
X94702286Y-83465200D02*
X94797524Y-83512819D01*
X94797524Y-83512819D02*
X94892762Y-83512819D01*
X95368953Y-83512819D02*
X95273715Y-83465200D01*
X95273715Y-83465200D02*
X95226096Y-83417580D01*
X95226096Y-83417580D02*
X95178477Y-83322342D01*
X95178477Y-83322342D02*
X95178477Y-83036628D01*
X95178477Y-83036628D02*
X95226096Y-82941390D01*
X95226096Y-82941390D02*
X95273715Y-82893771D01*
X95273715Y-82893771D02*
X95368953Y-82846152D01*
X95368953Y-82846152D02*
X95511810Y-82846152D01*
X95511810Y-82846152D02*
X95607048Y-82893771D01*
X95607048Y-82893771D02*
X95654667Y-82941390D01*
X95654667Y-82941390D02*
X95702286Y-83036628D01*
X95702286Y-83036628D02*
X95702286Y-83322342D01*
X95702286Y-83322342D02*
X95654667Y-83417580D01*
X95654667Y-83417580D02*
X95607048Y-83465200D01*
X95607048Y-83465200D02*
X95511810Y-83512819D01*
X95511810Y-83512819D02*
X95368953Y-83512819D01*
X96130858Y-83512819D02*
X96130858Y-82512819D01*
X97178476Y-83417580D02*
X97130857Y-83465200D01*
X97130857Y-83465200D02*
X96988000Y-83512819D01*
X96988000Y-83512819D02*
X96892762Y-83512819D01*
X96892762Y-83512819D02*
X96749905Y-83465200D01*
X96749905Y-83465200D02*
X96654667Y-83369961D01*
X96654667Y-83369961D02*
X96607048Y-83274723D01*
X96607048Y-83274723D02*
X96559429Y-83084247D01*
X96559429Y-83084247D02*
X96559429Y-82941390D01*
X96559429Y-82941390D02*
X96607048Y-82750914D01*
X96607048Y-82750914D02*
X96654667Y-82655676D01*
X96654667Y-82655676D02*
X96749905Y-82560438D01*
X96749905Y-82560438D02*
X96892762Y-82512819D01*
X96892762Y-82512819D02*
X96988000Y-82512819D01*
X96988000Y-82512819D02*
X97130857Y-82560438D01*
X97130857Y-82560438D02*
X97178476Y-82608057D01*
X83838632Y-95878341D02*
X83938540Y-95991009D01*
X83938540Y-95991009D02*
X84144737Y-96110056D01*
X84144737Y-96110056D02*
X84251025Y-96116436D01*
X84251025Y-96116436D02*
X84316074Y-96099006D01*
X84316074Y-96099006D02*
X84404932Y-96040337D01*
X84404932Y-96040337D02*
X84452551Y-95957858D01*
X84452551Y-95957858D02*
X84458931Y-95851570D01*
X84458931Y-95851570D02*
X84441501Y-95786521D01*
X84441501Y-95786521D02*
X84382832Y-95697663D01*
X84382832Y-95697663D02*
X84241685Y-95561186D01*
X84241685Y-95561186D02*
X84183015Y-95472327D01*
X84183015Y-95472327D02*
X84165586Y-95407279D01*
X84165586Y-95407279D02*
X84171965Y-95300990D01*
X84171965Y-95300990D02*
X84219584Y-95218512D01*
X84219584Y-95218512D02*
X84308443Y-95159843D01*
X84308443Y-95159843D02*
X84373492Y-95142413D01*
X84373492Y-95142413D02*
X84479780Y-95148793D01*
X84479780Y-95148793D02*
X84685976Y-95267840D01*
X84685976Y-95267840D02*
X84785885Y-95380508D01*
X84680848Y-96419580D02*
X85014181Y-95842230D01*
X85180848Y-95553555D02*
X85115799Y-95570984D01*
X85115799Y-95570984D02*
X85133229Y-95636033D01*
X85133229Y-95636033D02*
X85198278Y-95618603D01*
X85198278Y-95618603D02*
X85180848Y-95553555D01*
X85180848Y-95553555D02*
X85133229Y-95636033D01*
X85797728Y-96294610D02*
X85392966Y-96995679D01*
X85392966Y-96995679D02*
X85304107Y-97054348D01*
X85304107Y-97054348D02*
X85239059Y-97071777D01*
X85239059Y-97071777D02*
X85132770Y-97065398D01*
X85132770Y-97065398D02*
X85009053Y-96993969D01*
X85009053Y-96993969D02*
X84950383Y-96905111D01*
X85488204Y-96830721D02*
X85381916Y-96824342D01*
X85381916Y-96824342D02*
X85216959Y-96729104D01*
X85216959Y-96729104D02*
X85158289Y-96640245D01*
X85158289Y-96640245D02*
X85140860Y-96575196D01*
X85140860Y-96575196D02*
X85147239Y-96468908D01*
X85147239Y-96468908D02*
X85290097Y-96221472D01*
X85290097Y-96221472D02*
X85378955Y-96162803D01*
X85378955Y-96162803D02*
X85444004Y-96145374D01*
X85444004Y-96145374D02*
X85550292Y-96151753D01*
X85550292Y-96151753D02*
X85715249Y-96246991D01*
X85715249Y-96246991D02*
X85773918Y-96335850D01*
X86210121Y-96532706D02*
X85876788Y-97110056D01*
X86162502Y-96615184D02*
X86227551Y-96597755D01*
X86227551Y-96597755D02*
X86333839Y-96604134D01*
X86333839Y-96604134D02*
X86457557Y-96675563D01*
X86457557Y-96675563D02*
X86516226Y-96764421D01*
X86516226Y-96764421D02*
X86509846Y-96870709D01*
X86509846Y-96870709D02*
X86247941Y-97324342D01*
X87031488Y-97776723D02*
X87293393Y-97323090D01*
X87293393Y-97323090D02*
X87299773Y-97216802D01*
X87299773Y-97216802D02*
X87241104Y-97127944D01*
X87241104Y-97127944D02*
X87076146Y-97032706D01*
X87076146Y-97032706D02*
X86969858Y-97026326D01*
X87055298Y-97735483D02*
X86949010Y-97729104D01*
X86949010Y-97729104D02*
X86742813Y-97610056D01*
X86742813Y-97610056D02*
X86684144Y-97521198D01*
X86684144Y-97521198D02*
X86690524Y-97414910D01*
X86690524Y-97414910D02*
X86738143Y-97332431D01*
X86738143Y-97332431D02*
X86827001Y-97273762D01*
X86827001Y-97273762D02*
X86933289Y-97280142D01*
X86933289Y-97280142D02*
X87139486Y-97399189D01*
X87139486Y-97399189D02*
X87245774Y-97405569D01*
X87567599Y-98086247D02*
X87508930Y-97997388D01*
X87508930Y-97997388D02*
X87515310Y-97891100D01*
X87515310Y-97891100D02*
X87943881Y-97148793D01*
X145843857Y-93926819D02*
X145843857Y-92926819D01*
X145843857Y-92926819D02*
X146415285Y-93926819D01*
X146415285Y-93926819D02*
X146415285Y-92926819D01*
X146891476Y-93926819D02*
X146891476Y-92926819D01*
X146891476Y-92926819D02*
X147224809Y-93641104D01*
X147224809Y-93641104D02*
X147558142Y-92926819D01*
X147558142Y-92926819D02*
X147558142Y-93926819D01*
X148224809Y-92926819D02*
X148415285Y-92926819D01*
X148415285Y-92926819D02*
X148510523Y-92974438D01*
X148510523Y-92974438D02*
X148605761Y-93069676D01*
X148605761Y-93069676D02*
X148653380Y-93260152D01*
X148653380Y-93260152D02*
X148653380Y-93593485D01*
X148653380Y-93593485D02*
X148605761Y-93783961D01*
X148605761Y-93783961D02*
X148510523Y-93879200D01*
X148510523Y-93879200D02*
X148415285Y-93926819D01*
X148415285Y-93926819D02*
X148224809Y-93926819D01*
X148224809Y-93926819D02*
X148129571Y-93879200D01*
X148129571Y-93879200D02*
X148034333Y-93783961D01*
X148034333Y-93783961D02*
X147986714Y-93593485D01*
X147986714Y-93593485D02*
X147986714Y-93260152D01*
X147986714Y-93260152D02*
X148034333Y-93069676D01*
X148034333Y-93069676D02*
X148129571Y-92974438D01*
X148129571Y-92974438D02*
X148224809Y-92926819D01*
X149034333Y-93879200D02*
X149177190Y-93926819D01*
X149177190Y-93926819D02*
X149415285Y-93926819D01*
X149415285Y-93926819D02*
X149510523Y-93879200D01*
X149510523Y-93879200D02*
X149558142Y-93831580D01*
X149558142Y-93831580D02*
X149605761Y-93736342D01*
X149605761Y-93736342D02*
X149605761Y-93641104D01*
X149605761Y-93641104D02*
X149558142Y-93545866D01*
X149558142Y-93545866D02*
X149510523Y-93498247D01*
X149510523Y-93498247D02*
X149415285Y-93450628D01*
X149415285Y-93450628D02*
X149224809Y-93403009D01*
X149224809Y-93403009D02*
X149129571Y-93355390D01*
X149129571Y-93355390D02*
X149081952Y-93307771D01*
X149081952Y-93307771D02*
X149034333Y-93212533D01*
X149034333Y-93212533D02*
X149034333Y-93117295D01*
X149034333Y-93117295D02*
X149081952Y-93022057D01*
X149081952Y-93022057D02*
X149129571Y-92974438D01*
X149129571Y-92974438D02*
X149224809Y-92926819D01*
X149224809Y-92926819D02*
X149462904Y-92926819D01*
X149462904Y-92926819D02*
X149605761Y-92974438D01*
X142272428Y-90547819D02*
X141605761Y-90547819D01*
X141605761Y-91595438D02*
X141605761Y-89595438D01*
X141605761Y-89595438D02*
X142558142Y-89595438D01*
X143224809Y-91500200D02*
X143510523Y-91595438D01*
X143510523Y-91595438D02*
X143986714Y-91595438D01*
X143986714Y-91595438D02*
X144177190Y-91500200D01*
X144177190Y-91500200D02*
X144272428Y-91404961D01*
X144272428Y-91404961D02*
X144367666Y-91214485D01*
X144367666Y-91214485D02*
X144367666Y-91024009D01*
X144367666Y-91024009D02*
X144272428Y-90833533D01*
X144272428Y-90833533D02*
X144177190Y-90738295D01*
X144177190Y-90738295D02*
X143986714Y-90643057D01*
X143986714Y-90643057D02*
X143605761Y-90547819D01*
X143605761Y-90547819D02*
X143415285Y-90452580D01*
X143415285Y-90452580D02*
X143320047Y-90357342D01*
X143320047Y-90357342D02*
X143224809Y-90166866D01*
X143224809Y-90166866D02*
X143224809Y-89976390D01*
X143224809Y-89976390D02*
X143320047Y-89785914D01*
X143320047Y-89785914D02*
X143415285Y-89690676D01*
X143415285Y-89690676D02*
X143605761Y-89595438D01*
X143605761Y-89595438D02*
X144081952Y-89595438D01*
X144081952Y-89595438D02*
X144367666Y-89690676D01*
X145034333Y-89595438D02*
X146367666Y-89595438D01*
X146367666Y-89595438D02*
X145510523Y-91595438D01*
X147510523Y-89595438D02*
X147701000Y-89595438D01*
X147701000Y-89595438D02*
X147891476Y-89690676D01*
X147891476Y-89690676D02*
X147986714Y-89785914D01*
X147986714Y-89785914D02*
X148081952Y-89976390D01*
X148081952Y-89976390D02*
X148177190Y-90357342D01*
X148177190Y-90357342D02*
X148177190Y-90833533D01*
X148177190Y-90833533D02*
X148081952Y-91214485D01*
X148081952Y-91214485D02*
X147986714Y-91404961D01*
X147986714Y-91404961D02*
X147891476Y-91500200D01*
X147891476Y-91500200D02*
X147701000Y-91595438D01*
X147701000Y-91595438D02*
X147510523Y-91595438D01*
X147510523Y-91595438D02*
X147320047Y-91500200D01*
X147320047Y-91500200D02*
X147224809Y-91404961D01*
X147224809Y-91404961D02*
X147129571Y-91214485D01*
X147129571Y-91214485D02*
X147034333Y-90833533D01*
X147034333Y-90833533D02*
X147034333Y-90357342D01*
X147034333Y-90357342D02*
X147129571Y-89976390D01*
X147129571Y-89976390D02*
X147224809Y-89785914D01*
X147224809Y-89785914D02*
X147320047Y-89690676D01*
X147320047Y-89690676D02*
X147510523Y-89595438D01*
X148939095Y-91500200D02*
X149224809Y-91595438D01*
X149224809Y-91595438D02*
X149701000Y-91595438D01*
X149701000Y-91595438D02*
X149891476Y-91500200D01*
X149891476Y-91500200D02*
X149986714Y-91404961D01*
X149986714Y-91404961D02*
X150081952Y-91214485D01*
X150081952Y-91214485D02*
X150081952Y-91024009D01*
X150081952Y-91024009D02*
X149986714Y-90833533D01*
X149986714Y-90833533D02*
X149891476Y-90738295D01*
X149891476Y-90738295D02*
X149701000Y-90643057D01*
X149701000Y-90643057D02*
X149320047Y-90547819D01*
X149320047Y-90547819D02*
X149129571Y-90452580D01*
X149129571Y-90452580D02*
X149034333Y-90357342D01*
X149034333Y-90357342D02*
X148939095Y-90166866D01*
X148939095Y-90166866D02*
X148939095Y-89976390D01*
X148939095Y-89976390D02*
X149034333Y-89785914D01*
X149034333Y-89785914D02*
X149129571Y-89690676D01*
X149129571Y-89690676D02*
X149320047Y-89595438D01*
X149320047Y-89595438D02*
X149796238Y-89595438D01*
X149796238Y-89595438D02*
X150081952Y-89690676D01*
X150939095Y-91595438D02*
X150939095Y-89595438D01*
X150939095Y-89595438D02*
X151605762Y-91024009D01*
X151605762Y-91024009D02*
X152272428Y-89595438D01*
X152272428Y-89595438D02*
X152272428Y-91595438D01*
X153796238Y-89595438D02*
X153796238Y-91024009D01*
X153796238Y-91024009D02*
X153700999Y-91309723D01*
X153700999Y-91309723D02*
X153510523Y-91500200D01*
X153510523Y-91500200D02*
X153224809Y-91595438D01*
X153224809Y-91595438D02*
X153034333Y-91595438D01*
X109484095Y-102578819D02*
X109484095Y-103388342D01*
X109484095Y-103388342D02*
X109531714Y-103483580D01*
X109531714Y-103483580D02*
X109579333Y-103531200D01*
X109579333Y-103531200D02*
X109674571Y-103578819D01*
X109674571Y-103578819D02*
X109865047Y-103578819D01*
X109865047Y-103578819D02*
X109960285Y-103531200D01*
X109960285Y-103531200D02*
X110007904Y-103483580D01*
X110007904Y-103483580D02*
X110055523Y-103388342D01*
X110055523Y-103388342D02*
X110055523Y-102578819D01*
X111055523Y-103578819D02*
X110484095Y-103578819D01*
X110769809Y-103578819D02*
X110769809Y-102578819D01*
X110769809Y-102578819D02*
X110674571Y-102721676D01*
X110674571Y-102721676D02*
X110579333Y-102816914D01*
X110579333Y-102816914D02*
X110484095Y-102864533D01*
X156866819Y-101107713D02*
X156866819Y-100488666D01*
X156866819Y-100488666D02*
X157247771Y-100821999D01*
X157247771Y-100821999D02*
X157247771Y-100679142D01*
X157247771Y-100679142D02*
X157295390Y-100583904D01*
X157295390Y-100583904D02*
X157343009Y-100536285D01*
X157343009Y-100536285D02*
X157438247Y-100488666D01*
X157438247Y-100488666D02*
X157676342Y-100488666D01*
X157676342Y-100488666D02*
X157771580Y-100536285D01*
X157771580Y-100536285D02*
X157819200Y-100583904D01*
X157819200Y-100583904D02*
X157866819Y-100679142D01*
X157866819Y-100679142D02*
X157866819Y-100964856D01*
X157866819Y-100964856D02*
X157819200Y-101060094D01*
X157819200Y-101060094D02*
X157771580Y-101107713D01*
X156866819Y-100155332D02*
X156866819Y-99536285D01*
X156866819Y-99536285D02*
X157247771Y-99869618D01*
X157247771Y-99869618D02*
X157247771Y-99726761D01*
X157247771Y-99726761D02*
X157295390Y-99631523D01*
X157295390Y-99631523D02*
X157343009Y-99583904D01*
X157343009Y-99583904D02*
X157438247Y-99536285D01*
X157438247Y-99536285D02*
X157676342Y-99536285D01*
X157676342Y-99536285D02*
X157771580Y-99583904D01*
X157771580Y-99583904D02*
X157819200Y-99631523D01*
X157819200Y-99631523D02*
X157866819Y-99726761D01*
X157866819Y-99726761D02*
X157866819Y-100012475D01*
X157866819Y-100012475D02*
X157819200Y-100107713D01*
X157819200Y-100107713D02*
X157771580Y-100155332D01*
X156866819Y-98917237D02*
X156866819Y-98821999D01*
X156866819Y-98821999D02*
X156914438Y-98726761D01*
X156914438Y-98726761D02*
X156962057Y-98679142D01*
X156962057Y-98679142D02*
X157057295Y-98631523D01*
X157057295Y-98631523D02*
X157247771Y-98583904D01*
X157247771Y-98583904D02*
X157485866Y-98583904D01*
X157485866Y-98583904D02*
X157676342Y-98631523D01*
X157676342Y-98631523D02*
X157771580Y-98679142D01*
X157771580Y-98679142D02*
X157819200Y-98726761D01*
X157819200Y-98726761D02*
X157866819Y-98821999D01*
X157866819Y-98821999D02*
X157866819Y-98917237D01*
X157866819Y-98917237D02*
X157819200Y-99012475D01*
X157819200Y-99012475D02*
X157771580Y-99060094D01*
X157771580Y-99060094D02*
X157676342Y-99107713D01*
X157676342Y-99107713D02*
X157485866Y-99155332D01*
X157485866Y-99155332D02*
X157247771Y-99155332D01*
X157247771Y-99155332D02*
X157057295Y-99107713D01*
X157057295Y-99107713D02*
X156962057Y-99060094D01*
X156962057Y-99060094D02*
X156914438Y-99012475D01*
X156914438Y-99012475D02*
X156866819Y-98917237D01*
X176680952Y-104721771D02*
X176633333Y-104674152D01*
X176633333Y-104674152D02*
X176538095Y-104531295D01*
X176538095Y-104531295D02*
X176490476Y-104436057D01*
X176490476Y-104436057D02*
X176442857Y-104293200D01*
X176442857Y-104293200D02*
X176395238Y-104055104D01*
X176395238Y-104055104D02*
X176395238Y-103864628D01*
X176395238Y-103864628D02*
X176442857Y-103626533D01*
X176442857Y-103626533D02*
X176490476Y-103483676D01*
X176490476Y-103483676D02*
X176538095Y-103388438D01*
X176538095Y-103388438D02*
X176633333Y-103245580D01*
X176633333Y-103245580D02*
X176680952Y-103197961D01*
X177585714Y-104340819D02*
X177014286Y-104340819D01*
X177300000Y-104340819D02*
X177300000Y-103340819D01*
X177300000Y-103340819D02*
X177204762Y-103483676D01*
X177204762Y-103483676D02*
X177109524Y-103578914D01*
X177109524Y-103578914D02*
X177014286Y-103626533D01*
X178014286Y-104340819D02*
X178014286Y-103340819D01*
X178585714Y-104340819D02*
X178157143Y-103769390D01*
X178585714Y-103340819D02*
X178014286Y-103912247D01*
X178919048Y-104721771D02*
X178966667Y-104674152D01*
X178966667Y-104674152D02*
X179061905Y-104531295D01*
X179061905Y-104531295D02*
X179109524Y-104436057D01*
X179109524Y-104436057D02*
X179157143Y-104293200D01*
X179157143Y-104293200D02*
X179204762Y-104055104D01*
X179204762Y-104055104D02*
X179204762Y-103864628D01*
X179204762Y-103864628D02*
X179157143Y-103626533D01*
X179157143Y-103626533D02*
X179109524Y-103483676D01*
X179109524Y-103483676D02*
X179061905Y-103388438D01*
X179061905Y-103388438D02*
X178966667Y-103245580D01*
X178966667Y-103245580D02*
X178919048Y-103197961D01*
X172142114Y-109065219D02*
X171570686Y-109065219D01*
X171856400Y-109065219D02*
X171856400Y-108065219D01*
X171856400Y-108065219D02*
X171761162Y-108208076D01*
X171761162Y-108208076D02*
X171665924Y-108303314D01*
X171665924Y-108303314D02*
X171570686Y-108350933D01*
X118086286Y-103944057D02*
X118133905Y-103896438D01*
X118133905Y-103896438D02*
X118229143Y-103848819D01*
X118229143Y-103848819D02*
X118467238Y-103848819D01*
X118467238Y-103848819D02*
X118562476Y-103896438D01*
X118562476Y-103896438D02*
X118610095Y-103944057D01*
X118610095Y-103944057D02*
X118657714Y-104039295D01*
X118657714Y-104039295D02*
X118657714Y-104134533D01*
X118657714Y-104134533D02*
X118610095Y-104277390D01*
X118610095Y-104277390D02*
X118038667Y-104848819D01*
X118038667Y-104848819D02*
X118657714Y-104848819D01*
X119086286Y-104848819D02*
X119086286Y-103848819D01*
X119657714Y-104848819D02*
X119229143Y-104277390D01*
X119657714Y-103848819D02*
X119086286Y-104420247D01*
X129865667Y-93926819D02*
X129865667Y-92926819D01*
X129865667Y-92926819D02*
X130246619Y-92926819D01*
X130246619Y-92926819D02*
X130341857Y-92974438D01*
X130341857Y-92974438D02*
X130389476Y-93022057D01*
X130389476Y-93022057D02*
X130437095Y-93117295D01*
X130437095Y-93117295D02*
X130437095Y-93260152D01*
X130437095Y-93260152D02*
X130389476Y-93355390D01*
X130389476Y-93355390D02*
X130341857Y-93403009D01*
X130341857Y-93403009D02*
X130246619Y-93450628D01*
X130246619Y-93450628D02*
X129865667Y-93450628D01*
X130865667Y-93926819D02*
X130865667Y-92926819D01*
X130865667Y-92926819D02*
X131199000Y-93641104D01*
X131199000Y-93641104D02*
X131532333Y-92926819D01*
X131532333Y-92926819D02*
X131532333Y-93926819D01*
X132199000Y-92926819D02*
X132389476Y-92926819D01*
X132389476Y-92926819D02*
X132484714Y-92974438D01*
X132484714Y-92974438D02*
X132579952Y-93069676D01*
X132579952Y-93069676D02*
X132627571Y-93260152D01*
X132627571Y-93260152D02*
X132627571Y-93593485D01*
X132627571Y-93593485D02*
X132579952Y-93783961D01*
X132579952Y-93783961D02*
X132484714Y-93879200D01*
X132484714Y-93879200D02*
X132389476Y-93926819D01*
X132389476Y-93926819D02*
X132199000Y-93926819D01*
X132199000Y-93926819D02*
X132103762Y-93879200D01*
X132103762Y-93879200D02*
X132008524Y-93783961D01*
X132008524Y-93783961D02*
X131960905Y-93593485D01*
X131960905Y-93593485D02*
X131960905Y-93260152D01*
X131960905Y-93260152D02*
X132008524Y-93069676D01*
X132008524Y-93069676D02*
X132103762Y-92974438D01*
X132103762Y-92974438D02*
X132199000Y-92926819D01*
X133008524Y-93879200D02*
X133151381Y-93926819D01*
X133151381Y-93926819D02*
X133389476Y-93926819D01*
X133389476Y-93926819D02*
X133484714Y-93879200D01*
X133484714Y-93879200D02*
X133532333Y-93831580D01*
X133532333Y-93831580D02*
X133579952Y-93736342D01*
X133579952Y-93736342D02*
X133579952Y-93641104D01*
X133579952Y-93641104D02*
X133532333Y-93545866D01*
X133532333Y-93545866D02*
X133484714Y-93498247D01*
X133484714Y-93498247D02*
X133389476Y-93450628D01*
X133389476Y-93450628D02*
X133199000Y-93403009D01*
X133199000Y-93403009D02*
X133103762Y-93355390D01*
X133103762Y-93355390D02*
X133056143Y-93307771D01*
X133056143Y-93307771D02*
X133008524Y-93212533D01*
X133008524Y-93212533D02*
X133008524Y-93117295D01*
X133008524Y-93117295D02*
X133056143Y-93022057D01*
X133056143Y-93022057D02*
X133103762Y-92974438D01*
X133103762Y-92974438D02*
X133199000Y-92926819D01*
X133199000Y-92926819D02*
X133437095Y-92926819D01*
X133437095Y-92926819D02*
X133579952Y-92974438D01*
X124777570Y-89830128D02*
X124868046Y-89739652D01*
X124868046Y-89739652D02*
X125048999Y-89649176D01*
X125048999Y-89649176D02*
X125501380Y-89649176D01*
X125501380Y-89649176D02*
X125682332Y-89739652D01*
X125682332Y-89739652D02*
X125772808Y-89830128D01*
X125772808Y-89830128D02*
X125863285Y-90011080D01*
X125863285Y-90011080D02*
X125863285Y-90192033D01*
X125863285Y-90192033D02*
X125772808Y-90463461D01*
X125772808Y-90463461D02*
X124687094Y-91549176D01*
X124687094Y-91549176D02*
X125863285Y-91549176D01*
X126587094Y-91458700D02*
X126858523Y-91549176D01*
X126858523Y-91549176D02*
X127310904Y-91549176D01*
X127310904Y-91549176D02*
X127491856Y-91458700D01*
X127491856Y-91458700D02*
X127582332Y-91368223D01*
X127582332Y-91368223D02*
X127672809Y-91187271D01*
X127672809Y-91187271D02*
X127672809Y-91006319D01*
X127672809Y-91006319D02*
X127582332Y-90825366D01*
X127582332Y-90825366D02*
X127491856Y-90734890D01*
X127491856Y-90734890D02*
X127310904Y-90644414D01*
X127310904Y-90644414D02*
X126948999Y-90553938D01*
X126948999Y-90553938D02*
X126768047Y-90463461D01*
X126768047Y-90463461D02*
X126677570Y-90372985D01*
X126677570Y-90372985D02*
X126587094Y-90192033D01*
X126587094Y-90192033D02*
X126587094Y-90011080D01*
X126587094Y-90011080D02*
X126677570Y-89830128D01*
X126677570Y-89830128D02*
X126768047Y-89739652D01*
X126768047Y-89739652D02*
X126948999Y-89649176D01*
X126948999Y-89649176D02*
X127401380Y-89649176D01*
X127401380Y-89649176D02*
X127672809Y-89739652D01*
X129029952Y-89649176D02*
X129029952Y-91006319D01*
X129029952Y-91006319D02*
X128939475Y-91277747D01*
X128939475Y-91277747D02*
X128758523Y-91458700D01*
X128758523Y-91458700D02*
X128487094Y-91549176D01*
X128487094Y-91549176D02*
X128306142Y-91549176D01*
X130839475Y-89649176D02*
X129934713Y-89649176D01*
X129934713Y-89649176D02*
X129844237Y-90553938D01*
X129844237Y-90553938D02*
X129934713Y-90463461D01*
X129934713Y-90463461D02*
X130115666Y-90372985D01*
X130115666Y-90372985D02*
X130568047Y-90372985D01*
X130568047Y-90372985D02*
X130748999Y-90463461D01*
X130748999Y-90463461D02*
X130839475Y-90553938D01*
X130839475Y-90553938D02*
X130929952Y-90734890D01*
X130929952Y-90734890D02*
X130929952Y-91187271D01*
X130929952Y-91187271D02*
X130839475Y-91368223D01*
X130839475Y-91368223D02*
X130748999Y-91458700D01*
X130748999Y-91458700D02*
X130568047Y-91549176D01*
X130568047Y-91549176D02*
X130115666Y-91549176D01*
X130115666Y-91549176D02*
X129934713Y-91458700D01*
X129934713Y-91458700D02*
X129844237Y-91368223D01*
X132648999Y-89649176D02*
X131744237Y-89649176D01*
X131744237Y-89649176D02*
X131653761Y-90553938D01*
X131653761Y-90553938D02*
X131744237Y-90463461D01*
X131744237Y-90463461D02*
X131925190Y-90372985D01*
X131925190Y-90372985D02*
X132377571Y-90372985D01*
X132377571Y-90372985D02*
X132558523Y-90463461D01*
X132558523Y-90463461D02*
X132648999Y-90553938D01*
X132648999Y-90553938D02*
X132739476Y-90734890D01*
X132739476Y-90734890D02*
X132739476Y-91187271D01*
X132739476Y-91187271D02*
X132648999Y-91368223D01*
X132648999Y-91368223D02*
X132558523Y-91458700D01*
X132558523Y-91458700D02*
X132377571Y-91549176D01*
X132377571Y-91549176D02*
X131925190Y-91549176D01*
X131925190Y-91549176D02*
X131744237Y-91458700D01*
X131744237Y-91458700D02*
X131653761Y-91368223D01*
X134458523Y-89649176D02*
X133553761Y-89649176D01*
X133553761Y-89649176D02*
X133463285Y-90553938D01*
X133463285Y-90553938D02*
X133553761Y-90463461D01*
X133553761Y-90463461D02*
X133734714Y-90372985D01*
X133734714Y-90372985D02*
X134187095Y-90372985D01*
X134187095Y-90372985D02*
X134368047Y-90463461D01*
X134368047Y-90463461D02*
X134458523Y-90553938D01*
X134458523Y-90553938D02*
X134549000Y-90734890D01*
X134549000Y-90734890D02*
X134549000Y-91187271D01*
X134549000Y-91187271D02*
X134458523Y-91368223D01*
X134458523Y-91368223D02*
X134368047Y-91458700D01*
X134368047Y-91458700D02*
X134187095Y-91549176D01*
X134187095Y-91549176D02*
X133734714Y-91549176D01*
X133734714Y-91549176D02*
X133553761Y-91458700D01*
X133553761Y-91458700D02*
X133463285Y-91368223D01*
X135363285Y-90825366D02*
X136810905Y-90825366D01*
X137715666Y-90553938D02*
X138349000Y-90553938D01*
X138620428Y-91549176D02*
X137715666Y-91549176D01*
X137715666Y-91549176D02*
X137715666Y-89649176D01*
X137715666Y-89649176D02*
X138620428Y-89649176D01*
X177585714Y-102054819D02*
X177014286Y-102054819D01*
X177300000Y-102054819D02*
X177300000Y-101054819D01*
X177300000Y-101054819D02*
X177204762Y-101197676D01*
X177204762Y-101197676D02*
X177109524Y-101292914D01*
X177109524Y-101292914D02*
X177014286Y-101340533D01*
X178014286Y-102054819D02*
X178014286Y-101054819D01*
X178585714Y-102054819D02*
X178157143Y-101483390D01*
X178585714Y-101054819D02*
X178014286Y-101626247D01*
X168412095Y-102578819D02*
X168412095Y-103388342D01*
X168412095Y-103388342D02*
X168459714Y-103483580D01*
X168459714Y-103483580D02*
X168507333Y-103531200D01*
X168507333Y-103531200D02*
X168602571Y-103578819D01*
X168602571Y-103578819D02*
X168793047Y-103578819D01*
X168793047Y-103578819D02*
X168888285Y-103531200D01*
X168888285Y-103531200D02*
X168935904Y-103483580D01*
X168935904Y-103483580D02*
X168983523Y-103388342D01*
X168983523Y-103388342D02*
X168983523Y-102578819D01*
X169412095Y-102674057D02*
X169459714Y-102626438D01*
X169459714Y-102626438D02*
X169554952Y-102578819D01*
X169554952Y-102578819D02*
X169793047Y-102578819D01*
X169793047Y-102578819D02*
X169888285Y-102626438D01*
X169888285Y-102626438D02*
X169935904Y-102674057D01*
X169935904Y-102674057D02*
X169983523Y-102769295D01*
X169983523Y-102769295D02*
X169983523Y-102864533D01*
X169983523Y-102864533D02*
X169935904Y-103007390D01*
X169935904Y-103007390D02*
X169364476Y-103578819D01*
X169364476Y-103578819D02*
X169983523Y-103578819D01*
X103594819Y-105679713D02*
X103594819Y-105060666D01*
X103594819Y-105060666D02*
X103975771Y-105393999D01*
X103975771Y-105393999D02*
X103975771Y-105251142D01*
X103975771Y-105251142D02*
X104023390Y-105155904D01*
X104023390Y-105155904D02*
X104071009Y-105108285D01*
X104071009Y-105108285D02*
X104166247Y-105060666D01*
X104166247Y-105060666D02*
X104404342Y-105060666D01*
X104404342Y-105060666D02*
X104499580Y-105108285D01*
X104499580Y-105108285D02*
X104547200Y-105155904D01*
X104547200Y-105155904D02*
X104594819Y-105251142D01*
X104594819Y-105251142D02*
X104594819Y-105536856D01*
X104594819Y-105536856D02*
X104547200Y-105632094D01*
X104547200Y-105632094D02*
X104499580Y-105679713D01*
X103594819Y-104727332D02*
X103594819Y-104108285D01*
X103594819Y-104108285D02*
X103975771Y-104441618D01*
X103975771Y-104441618D02*
X103975771Y-104298761D01*
X103975771Y-104298761D02*
X104023390Y-104203523D01*
X104023390Y-104203523D02*
X104071009Y-104155904D01*
X104071009Y-104155904D02*
X104166247Y-104108285D01*
X104166247Y-104108285D02*
X104404342Y-104108285D01*
X104404342Y-104108285D02*
X104499580Y-104155904D01*
X104499580Y-104155904D02*
X104547200Y-104203523D01*
X104547200Y-104203523D02*
X104594819Y-104298761D01*
X104594819Y-104298761D02*
X104594819Y-104584475D01*
X104594819Y-104584475D02*
X104547200Y-104679713D01*
X104547200Y-104679713D02*
X104499580Y-104727332D01*
X103594819Y-103489237D02*
X103594819Y-103393999D01*
X103594819Y-103393999D02*
X103642438Y-103298761D01*
X103642438Y-103298761D02*
X103690057Y-103251142D01*
X103690057Y-103251142D02*
X103785295Y-103203523D01*
X103785295Y-103203523D02*
X103975771Y-103155904D01*
X103975771Y-103155904D02*
X104213866Y-103155904D01*
X104213866Y-103155904D02*
X104404342Y-103203523D01*
X104404342Y-103203523D02*
X104499580Y-103251142D01*
X104499580Y-103251142D02*
X104547200Y-103298761D01*
X104547200Y-103298761D02*
X104594819Y-103393999D01*
X104594819Y-103393999D02*
X104594819Y-103489237D01*
X104594819Y-103489237D02*
X104547200Y-103584475D01*
X104547200Y-103584475D02*
X104499580Y-103632094D01*
X104499580Y-103632094D02*
X104404342Y-103679713D01*
X104404342Y-103679713D02*
X104213866Y-103727332D01*
X104213866Y-103727332D02*
X103975771Y-103727332D01*
X103975771Y-103727332D02*
X103785295Y-103679713D01*
X103785295Y-103679713D02*
X103690057Y-103632094D01*
X103690057Y-103632094D02*
X103642438Y-103584475D01*
X103642438Y-103584475D02*
X103594819Y-103489237D01*
X160152819Y-100512476D02*
X160152819Y-101083904D01*
X160152819Y-100798190D02*
X159152819Y-100798190D01*
X159152819Y-100798190D02*
X159295676Y-100893428D01*
X159295676Y-100893428D02*
X159390914Y-100988666D01*
X159390914Y-100988666D02*
X159438533Y-101083904D01*
X159152819Y-99893428D02*
X159152819Y-99798190D01*
X159152819Y-99798190D02*
X159200438Y-99702952D01*
X159200438Y-99702952D02*
X159248057Y-99655333D01*
X159248057Y-99655333D02*
X159343295Y-99607714D01*
X159343295Y-99607714D02*
X159533771Y-99560095D01*
X159533771Y-99560095D02*
X159771866Y-99560095D01*
X159771866Y-99560095D02*
X159962342Y-99607714D01*
X159962342Y-99607714D02*
X160057580Y-99655333D01*
X160057580Y-99655333D02*
X160105200Y-99702952D01*
X160105200Y-99702952D02*
X160152819Y-99798190D01*
X160152819Y-99798190D02*
X160152819Y-99893428D01*
X160152819Y-99893428D02*
X160105200Y-99988666D01*
X160105200Y-99988666D02*
X160057580Y-100036285D01*
X160057580Y-100036285D02*
X159962342Y-100083904D01*
X159962342Y-100083904D02*
X159771866Y-100131523D01*
X159771866Y-100131523D02*
X159533771Y-100131523D01*
X159533771Y-100131523D02*
X159343295Y-100083904D01*
X159343295Y-100083904D02*
X159248057Y-100036285D01*
X159248057Y-100036285D02*
X159200438Y-99988666D01*
X159200438Y-99988666D02*
X159152819Y-99893428D01*
X160152819Y-99131523D02*
X159152819Y-99131523D01*
X160152819Y-98560095D02*
X159581390Y-98988666D01*
X159152819Y-98560095D02*
X159724247Y-99131523D01*
X182396190Y-104039200D02*
X182539047Y-104086819D01*
X182539047Y-104086819D02*
X182777142Y-104086819D01*
X182777142Y-104086819D02*
X182872380Y-104039200D01*
X182872380Y-104039200D02*
X182919999Y-103991580D01*
X182919999Y-103991580D02*
X182967618Y-103896342D01*
X182967618Y-103896342D02*
X182967618Y-103801104D01*
X182967618Y-103801104D02*
X182919999Y-103705866D01*
X182919999Y-103705866D02*
X182872380Y-103658247D01*
X182872380Y-103658247D02*
X182777142Y-103610628D01*
X182777142Y-103610628D02*
X182586666Y-103563009D01*
X182586666Y-103563009D02*
X182491428Y-103515390D01*
X182491428Y-103515390D02*
X182443809Y-103467771D01*
X182443809Y-103467771D02*
X182396190Y-103372533D01*
X182396190Y-103372533D02*
X182396190Y-103277295D01*
X182396190Y-103277295D02*
X182443809Y-103182057D01*
X182443809Y-103182057D02*
X182491428Y-103134438D01*
X182491428Y-103134438D02*
X182586666Y-103086819D01*
X182586666Y-103086819D02*
X182824761Y-103086819D01*
X182824761Y-103086819D02*
X182967618Y-103134438D01*
X183539047Y-104086819D02*
X183443809Y-104039200D01*
X183443809Y-104039200D02*
X183396190Y-103991580D01*
X183396190Y-103991580D02*
X183348571Y-103896342D01*
X183348571Y-103896342D02*
X183348571Y-103610628D01*
X183348571Y-103610628D02*
X183396190Y-103515390D01*
X183396190Y-103515390D02*
X183443809Y-103467771D01*
X183443809Y-103467771D02*
X183539047Y-103420152D01*
X183539047Y-103420152D02*
X183681904Y-103420152D01*
X183681904Y-103420152D02*
X183777142Y-103467771D01*
X183777142Y-103467771D02*
X183824761Y-103515390D01*
X183824761Y-103515390D02*
X183872380Y-103610628D01*
X183872380Y-103610628D02*
X183872380Y-103896342D01*
X183872380Y-103896342D02*
X183824761Y-103991580D01*
X183824761Y-103991580D02*
X183777142Y-104039200D01*
X183777142Y-104039200D02*
X183681904Y-104086819D01*
X183681904Y-104086819D02*
X183539047Y-104086819D01*
X184443809Y-104086819D02*
X184348571Y-104039200D01*
X184348571Y-104039200D02*
X184300952Y-103943961D01*
X184300952Y-103943961D02*
X184300952Y-103086819D01*
X185205714Y-104039200D02*
X185110476Y-104086819D01*
X185110476Y-104086819D02*
X184920000Y-104086819D01*
X184920000Y-104086819D02*
X184824762Y-104039200D01*
X184824762Y-104039200D02*
X184777143Y-103943961D01*
X184777143Y-103943961D02*
X184777143Y-103563009D01*
X184777143Y-103563009D02*
X184824762Y-103467771D01*
X184824762Y-103467771D02*
X184920000Y-103420152D01*
X184920000Y-103420152D02*
X185110476Y-103420152D01*
X185110476Y-103420152D02*
X185205714Y-103467771D01*
X185205714Y-103467771D02*
X185253333Y-103563009D01*
X185253333Y-103563009D02*
X185253333Y-103658247D01*
X185253333Y-103658247D02*
X184777143Y-103753485D01*
X185681905Y-103420152D02*
X185681905Y-104086819D01*
X185681905Y-103515390D02*
X185729524Y-103467771D01*
X185729524Y-103467771D02*
X185824762Y-103420152D01*
X185824762Y-103420152D02*
X185967619Y-103420152D01*
X185967619Y-103420152D02*
X186062857Y-103467771D01*
X186062857Y-103467771D02*
X186110476Y-103563009D01*
X186110476Y-103563009D02*
X186110476Y-104086819D01*
X186729524Y-104086819D02*
X186634286Y-104039200D01*
X186634286Y-104039200D02*
X186586667Y-103991580D01*
X186586667Y-103991580D02*
X186539048Y-103896342D01*
X186539048Y-103896342D02*
X186539048Y-103610628D01*
X186539048Y-103610628D02*
X186586667Y-103515390D01*
X186586667Y-103515390D02*
X186634286Y-103467771D01*
X186634286Y-103467771D02*
X186729524Y-103420152D01*
X186729524Y-103420152D02*
X186872381Y-103420152D01*
X186872381Y-103420152D02*
X186967619Y-103467771D01*
X186967619Y-103467771D02*
X187015238Y-103515390D01*
X187015238Y-103515390D02*
X187062857Y-103610628D01*
X187062857Y-103610628D02*
X187062857Y-103896342D01*
X187062857Y-103896342D02*
X187015238Y-103991580D01*
X187015238Y-103991580D02*
X186967619Y-104039200D01*
X186967619Y-104039200D02*
X186872381Y-104086819D01*
X186872381Y-104086819D02*
X186729524Y-104086819D01*
X187491429Y-104086819D02*
X187491429Y-103420152D01*
X187491429Y-103086819D02*
X187443810Y-103134438D01*
X187443810Y-103134438D02*
X187491429Y-103182057D01*
X187491429Y-103182057D02*
X187539048Y-103134438D01*
X187539048Y-103134438D02*
X187491429Y-103086819D01*
X187491429Y-103086819D02*
X187491429Y-103182057D01*
X188396190Y-104086819D02*
X188396190Y-103086819D01*
X188396190Y-104039200D02*
X188300952Y-104086819D01*
X188300952Y-104086819D02*
X188110476Y-104086819D01*
X188110476Y-104086819D02*
X188015238Y-104039200D01*
X188015238Y-104039200D02*
X187967619Y-103991580D01*
X187967619Y-103991580D02*
X187920000Y-103896342D01*
X187920000Y-103896342D02*
X187920000Y-103610628D01*
X187920000Y-103610628D02*
X187967619Y-103515390D01*
X187967619Y-103515390D02*
X188015238Y-103467771D01*
X188015238Y-103467771D02*
X188110476Y-103420152D01*
X188110476Y-103420152D02*
X188300952Y-103420152D01*
X188300952Y-103420152D02*
X188396190Y-103467771D01*
X182166419Y-91060494D02*
X181166419Y-91060494D01*
X181166419Y-91060494D02*
X181166419Y-90822399D01*
X181166419Y-90822399D02*
X181214038Y-90679542D01*
X181214038Y-90679542D02*
X181309276Y-90584304D01*
X181309276Y-90584304D02*
X181404514Y-90536685D01*
X181404514Y-90536685D02*
X181594990Y-90489066D01*
X181594990Y-90489066D02*
X181737847Y-90489066D01*
X181737847Y-90489066D02*
X181928323Y-90536685D01*
X181928323Y-90536685D02*
X182023561Y-90584304D01*
X182023561Y-90584304D02*
X182118800Y-90679542D01*
X182118800Y-90679542D02*
X182166419Y-90822399D01*
X182166419Y-90822399D02*
X182166419Y-91060494D01*
X181261657Y-90108113D02*
X181214038Y-90060494D01*
X181214038Y-90060494D02*
X181166419Y-89965256D01*
X181166419Y-89965256D02*
X181166419Y-89727161D01*
X181166419Y-89727161D02*
X181214038Y-89631923D01*
X181214038Y-89631923D02*
X181261657Y-89584304D01*
X181261657Y-89584304D02*
X181356895Y-89536685D01*
X181356895Y-89536685D02*
X181452133Y-89536685D01*
X181452133Y-89536685D02*
X181594990Y-89584304D01*
X181594990Y-89584304D02*
X182166419Y-90155732D01*
X182166419Y-90155732D02*
X182166419Y-89536685D01*
X177014286Y-98864057D02*
X177061905Y-98816438D01*
X177061905Y-98816438D02*
X177157143Y-98768819D01*
X177157143Y-98768819D02*
X177395238Y-98768819D01*
X177395238Y-98768819D02*
X177490476Y-98816438D01*
X177490476Y-98816438D02*
X177538095Y-98864057D01*
X177538095Y-98864057D02*
X177585714Y-98959295D01*
X177585714Y-98959295D02*
X177585714Y-99054533D01*
X177585714Y-99054533D02*
X177538095Y-99197390D01*
X177538095Y-99197390D02*
X176966667Y-99768819D01*
X176966667Y-99768819D02*
X177585714Y-99768819D01*
X178014286Y-99768819D02*
X178014286Y-98768819D01*
X178585714Y-99768819D02*
X178157143Y-99197390D01*
X178585714Y-98768819D02*
X178014286Y-99340247D01*
X191261066Y-103982200D02*
X192127092Y-103482200D01*
X192127092Y-103482200D02*
X192246139Y-103688397D01*
X192246139Y-103688397D02*
X192276329Y-103835924D01*
X192276329Y-103835924D02*
X192241469Y-103966022D01*
X192241469Y-103966022D02*
X192182800Y-104054880D01*
X192182800Y-104054880D02*
X192041652Y-104191358D01*
X192041652Y-104191358D02*
X191917934Y-104262786D01*
X191917934Y-104262786D02*
X191729168Y-104316785D01*
X191729168Y-104316785D02*
X191622879Y-104323165D01*
X191622879Y-104323165D02*
X191492782Y-104288305D01*
X191492782Y-104288305D02*
X191380114Y-104188397D01*
X191380114Y-104188397D02*
X191261066Y-103982200D01*
X192022971Y-105301858D02*
X191737257Y-104806986D01*
X191880114Y-105054422D02*
X192746139Y-104554422D01*
X192746139Y-104554422D02*
X192574802Y-104543372D01*
X192574802Y-104543372D02*
X192444705Y-104508513D01*
X192444705Y-104508513D02*
X192355846Y-104449843D01*
X162522819Y-104155713D02*
X162522819Y-103536666D01*
X162522819Y-103536666D02*
X162903771Y-103869999D01*
X162903771Y-103869999D02*
X162903771Y-103727142D01*
X162903771Y-103727142D02*
X162951390Y-103631904D01*
X162951390Y-103631904D02*
X162999009Y-103584285D01*
X162999009Y-103584285D02*
X163094247Y-103536666D01*
X163094247Y-103536666D02*
X163332342Y-103536666D01*
X163332342Y-103536666D02*
X163427580Y-103584285D01*
X163427580Y-103584285D02*
X163475200Y-103631904D01*
X163475200Y-103631904D02*
X163522819Y-103727142D01*
X163522819Y-103727142D02*
X163522819Y-104012856D01*
X163522819Y-104012856D02*
X163475200Y-104108094D01*
X163475200Y-104108094D02*
X163427580Y-104155713D01*
X162522819Y-103203332D02*
X162522819Y-102584285D01*
X162522819Y-102584285D02*
X162903771Y-102917618D01*
X162903771Y-102917618D02*
X162903771Y-102774761D01*
X162903771Y-102774761D02*
X162951390Y-102679523D01*
X162951390Y-102679523D02*
X162999009Y-102631904D01*
X162999009Y-102631904D02*
X163094247Y-102584285D01*
X163094247Y-102584285D02*
X163332342Y-102584285D01*
X163332342Y-102584285D02*
X163427580Y-102631904D01*
X163427580Y-102631904D02*
X163475200Y-102679523D01*
X163475200Y-102679523D02*
X163522819Y-102774761D01*
X163522819Y-102774761D02*
X163522819Y-103060475D01*
X163522819Y-103060475D02*
X163475200Y-103155713D01*
X163475200Y-103155713D02*
X163427580Y-103203332D01*
X162522819Y-101965237D02*
X162522819Y-101869999D01*
X162522819Y-101869999D02*
X162570438Y-101774761D01*
X162570438Y-101774761D02*
X162618057Y-101727142D01*
X162618057Y-101727142D02*
X162713295Y-101679523D01*
X162713295Y-101679523D02*
X162903771Y-101631904D01*
X162903771Y-101631904D02*
X163141866Y-101631904D01*
X163141866Y-101631904D02*
X163332342Y-101679523D01*
X163332342Y-101679523D02*
X163427580Y-101727142D01*
X163427580Y-101727142D02*
X163475200Y-101774761D01*
X163475200Y-101774761D02*
X163522819Y-101869999D01*
X163522819Y-101869999D02*
X163522819Y-101965237D01*
X163522819Y-101965237D02*
X163475200Y-102060475D01*
X163475200Y-102060475D02*
X163427580Y-102108094D01*
X163427580Y-102108094D02*
X163332342Y-102155713D01*
X163332342Y-102155713D02*
X163141866Y-102203332D01*
X163141866Y-102203332D02*
X162903771Y-102203332D01*
X162903771Y-102203332D02*
X162713295Y-102155713D01*
X162713295Y-102155713D02*
X162618057Y-102108094D01*
X162618057Y-102108094D02*
X162570438Y-102060475D01*
X162570438Y-102060475D02*
X162522819Y-101965237D01*
X186809142Y-83512819D02*
X186332952Y-83512819D01*
X186332952Y-83512819D02*
X186332952Y-82512819D01*
X187142476Y-82989009D02*
X187475809Y-82989009D01*
X187618666Y-83512819D02*
X187142476Y-83512819D01*
X187142476Y-83512819D02*
X187142476Y-82512819D01*
X187142476Y-82512819D02*
X187618666Y-82512819D01*
X188047238Y-83512819D02*
X188047238Y-82512819D01*
X188047238Y-82512819D02*
X188285333Y-82512819D01*
X188285333Y-82512819D02*
X188428190Y-82560438D01*
X188428190Y-82560438D02*
X188523428Y-82655676D01*
X188523428Y-82655676D02*
X188571047Y-82750914D01*
X188571047Y-82750914D02*
X188618666Y-82941390D01*
X188618666Y-82941390D02*
X188618666Y-83084247D01*
X188618666Y-83084247D02*
X188571047Y-83274723D01*
X188571047Y-83274723D02*
X188523428Y-83369961D01*
X188523428Y-83369961D02*
X188428190Y-83465200D01*
X188428190Y-83465200D02*
X188285333Y-83512819D01*
X188285333Y-83512819D02*
X188047238Y-83512819D01*
X193160979Y-97344104D02*
X192660979Y-96478078D01*
X192660979Y-96478078D02*
X192990893Y-96287602D01*
X192990893Y-96287602D02*
X193097181Y-96281222D01*
X193097181Y-96281222D02*
X193162230Y-96298652D01*
X193162230Y-96298652D02*
X193251088Y-96357321D01*
X193251088Y-96357321D02*
X193322517Y-96481039D01*
X193322517Y-96481039D02*
X193328897Y-96587327D01*
X193328897Y-96587327D02*
X193311467Y-96652376D01*
X193311467Y-96652376D02*
X193252798Y-96741234D01*
X193252798Y-96741234D02*
X192922883Y-96931711D01*
X194150722Y-96772675D02*
X194044434Y-96779055D01*
X194044434Y-96779055D02*
X193979385Y-96761625D01*
X193979385Y-96761625D02*
X193890527Y-96702956D01*
X193890527Y-96702956D02*
X193747669Y-96455520D01*
X193747669Y-96455520D02*
X193741290Y-96349232D01*
X193741290Y-96349232D02*
X193758720Y-96284183D01*
X193758720Y-96284183D02*
X193817389Y-96195325D01*
X193817389Y-96195325D02*
X193941107Y-96123896D01*
X193941107Y-96123896D02*
X194047395Y-96117517D01*
X194047395Y-96117517D02*
X194112443Y-96134946D01*
X194112443Y-96134946D02*
X194201302Y-96193615D01*
X194201302Y-96193615D02*
X194344159Y-96441051D01*
X194344159Y-96441051D02*
X194350539Y-96547339D01*
X194350539Y-96547339D02*
X194333109Y-96612388D01*
X194333109Y-96612388D02*
X194274440Y-96701247D01*
X194274440Y-96701247D02*
X194150722Y-96772675D01*
X194394739Y-95861992D02*
X194893030Y-96344104D01*
X194893030Y-96344104D02*
X194819891Y-95836473D01*
X194819891Y-95836473D02*
X195222944Y-96153627D01*
X195222944Y-96153627D02*
X195054568Y-95481039D01*
X196023920Y-95636198D02*
X195965251Y-95725056D01*
X195965251Y-95725056D02*
X195800294Y-95820294D01*
X195800294Y-95820294D02*
X195694006Y-95826674D01*
X195694006Y-95826674D02*
X195605148Y-95768005D01*
X195605148Y-95768005D02*
X195414672Y-95438090D01*
X195414672Y-95438090D02*
X195408292Y-95331802D01*
X195408292Y-95331802D02*
X195466961Y-95242944D01*
X195466961Y-95242944D02*
X195631918Y-95147706D01*
X195631918Y-95147706D02*
X195738206Y-95141326D01*
X195738206Y-95141326D02*
X195827065Y-95199995D01*
X195827065Y-95199995D02*
X195874684Y-95282474D01*
X195874684Y-95282474D02*
X195509910Y-95603048D01*
X196460123Y-95439342D02*
X196126790Y-94861991D01*
X196222028Y-95026949D02*
X196215648Y-94920661D01*
X196215648Y-94920661D02*
X196233078Y-94855612D01*
X196233078Y-94855612D02*
X196291747Y-94766753D01*
X196291747Y-94766753D02*
X196374226Y-94719134D01*
X118657714Y-102308819D02*
X118086286Y-102308819D01*
X118372000Y-102308819D02*
X118372000Y-101308819D01*
X118372000Y-101308819D02*
X118276762Y-101451676D01*
X118276762Y-101451676D02*
X118181524Y-101546914D01*
X118181524Y-101546914D02*
X118086286Y-101594533D01*
X119086286Y-102308819D02*
X119086286Y-101308819D01*
X119657714Y-102308819D02*
X119229143Y-101737390D01*
X119657714Y-101308819D02*
X119086286Y-101880247D01*
X94194571Y-97533819D02*
X94765999Y-97533819D01*
X94480285Y-98533819D02*
X94480285Y-97533819D01*
X95242190Y-98533819D02*
X95146952Y-98486200D01*
X95146952Y-98486200D02*
X95099333Y-98438580D01*
X95099333Y-98438580D02*
X95051714Y-98343342D01*
X95051714Y-98343342D02*
X95051714Y-98057628D01*
X95051714Y-98057628D02*
X95099333Y-97962390D01*
X95099333Y-97962390D02*
X95146952Y-97914771D01*
X95146952Y-97914771D02*
X95242190Y-97867152D01*
X95242190Y-97867152D02*
X95385047Y-97867152D01*
X95385047Y-97867152D02*
X95480285Y-97914771D01*
X95480285Y-97914771D02*
X95527904Y-97962390D01*
X95527904Y-97962390D02*
X95575523Y-98057628D01*
X95575523Y-98057628D02*
X95575523Y-98343342D01*
X95575523Y-98343342D02*
X95527904Y-98438580D01*
X95527904Y-98438580D02*
X95480285Y-98486200D01*
X95480285Y-98486200D02*
X95385047Y-98533819D01*
X95385047Y-98533819D02*
X95242190Y-98533819D01*
X96432666Y-97867152D02*
X96432666Y-98533819D01*
X96004095Y-97867152D02*
X96004095Y-98390961D01*
X96004095Y-98390961D02*
X96051714Y-98486200D01*
X96051714Y-98486200D02*
X96146952Y-98533819D01*
X96146952Y-98533819D02*
X96289809Y-98533819D01*
X96289809Y-98533819D02*
X96385047Y-98486200D01*
X96385047Y-98486200D02*
X96432666Y-98438580D01*
X97337428Y-98486200D02*
X97242190Y-98533819D01*
X97242190Y-98533819D02*
X97051714Y-98533819D01*
X97051714Y-98533819D02*
X96956476Y-98486200D01*
X96956476Y-98486200D02*
X96908857Y-98438580D01*
X96908857Y-98438580D02*
X96861238Y-98343342D01*
X96861238Y-98343342D02*
X96861238Y-98057628D01*
X96861238Y-98057628D02*
X96908857Y-97962390D01*
X96908857Y-97962390D02*
X96956476Y-97914771D01*
X96956476Y-97914771D02*
X97051714Y-97867152D01*
X97051714Y-97867152D02*
X97242190Y-97867152D01*
X97242190Y-97867152D02*
X97337428Y-97914771D01*
X97766000Y-98533819D02*
X97766000Y-97533819D01*
X98194571Y-98533819D02*
X98194571Y-98010009D01*
X98194571Y-98010009D02*
X98146952Y-97914771D01*
X98146952Y-97914771D02*
X98051714Y-97867152D01*
X98051714Y-97867152D02*
X97908857Y-97867152D01*
X97908857Y-97867152D02*
X97813619Y-97914771D01*
X97813619Y-97914771D02*
X97766000Y-97962390D01*
D10*
%TO.C,PhotoIC*%
X99668000Y-84226000D02*
X89388000Y-84226000D01*
X99668000Y-84226000D02*
X99668000Y-92856000D01*
X99548000Y-84226000D02*
X99548000Y-92856000D01*
X99429905Y-84226000D02*
X99429905Y-92856000D01*
X99311810Y-84226000D02*
X99311810Y-92856000D01*
X99193715Y-84226000D02*
X99193715Y-92856000D01*
X99075620Y-84226000D02*
X99075620Y-92856000D01*
X98957525Y-84226000D02*
X98957525Y-92856000D01*
X98839430Y-84226000D02*
X98839430Y-92856000D01*
X98721335Y-84226000D02*
X98721335Y-92856000D01*
X98603240Y-84226000D02*
X98603240Y-92856000D01*
X98485145Y-84226000D02*
X98485145Y-92856000D01*
X98367050Y-84226000D02*
X98367050Y-92856000D01*
X98248955Y-84226000D02*
X98248955Y-92856000D01*
X98130860Y-84226000D02*
X98130860Y-92856000D01*
X98012765Y-84226000D02*
X98012765Y-92856000D01*
X97894670Y-84226000D02*
X97894670Y-92856000D01*
X97776575Y-84226000D02*
X97776575Y-92856000D01*
X97658480Y-84226000D02*
X97658480Y-92856000D01*
X97540385Y-84226000D02*
X97540385Y-92856000D01*
X97422290Y-84226000D02*
X97422290Y-92856000D01*
X97304195Y-84226000D02*
X97304195Y-92856000D01*
X97186100Y-84226000D02*
X97186100Y-92856000D01*
X97068000Y-84226000D02*
X97068000Y-92856000D01*
X94528000Y-84226000D02*
X94528000Y-92856000D01*
X91988000Y-84226000D02*
X91988000Y-92856000D01*
X89388000Y-84226000D02*
X89388000Y-92856000D01*
X99668000Y-92856000D02*
X89388000Y-92856000D01*
X98698000Y-92856000D02*
X98698000Y-93206000D01*
X97978000Y-92856000D02*
X97978000Y-93206000D01*
X96158000Y-92856000D02*
X96158000Y-93266000D01*
X95438000Y-92856000D02*
X95438000Y-93266000D01*
X93618000Y-92856000D02*
X93618000Y-93266000D01*
X92898000Y-92856000D02*
X92898000Y-93266000D01*
X91078000Y-92856000D02*
X91078000Y-93266000D01*
X90358000Y-92856000D02*
X90358000Y-93266000D01*
X99668000Y-94316000D02*
X99668000Y-95426000D01*
X99668000Y-95426000D02*
X98338000Y-95426000D01*
%TO.C,Signal*%
X80970912Y-95011092D02*
X82200668Y-95721092D01*
X75110912Y-105160910D02*
X80970912Y-95011092D01*
X82200668Y-95721092D02*
X79950668Y-99618206D01*
X79950668Y-99618206D02*
X83103001Y-101438206D01*
X82773129Y-96409560D02*
X83292745Y-96709560D01*
X80166431Y-101024494D02*
X77416431Y-105787634D01*
X77416431Y-105787634D02*
X77849443Y-106037634D01*
X82732937Y-97079175D02*
X82773129Y-96409560D01*
X80599443Y-101274494D02*
X80166431Y-101024494D01*
X77849443Y-106037634D02*
X80599443Y-101274494D01*
X83292745Y-96709560D02*
X82732937Y-97079175D01*
X82331494Y-102274494D02*
X79581494Y-107037634D01*
X79581494Y-107037634D02*
X80014507Y-107287634D01*
X79493001Y-107690910D02*
X75110912Y-105160910D01*
X79493001Y-107690910D02*
X83875089Y-110220910D01*
X82764507Y-102524494D02*
X82331494Y-102274494D01*
X80014507Y-107287634D02*
X82764507Y-102524494D01*
X84496558Y-103524494D02*
X81746558Y-108287634D01*
X81746558Y-108287634D02*
X82179570Y-108537634D01*
X84929570Y-103774494D02*
X84496558Y-103524494D01*
X82179570Y-108537634D02*
X84929570Y-103774494D01*
X88505333Y-99361092D02*
X86255333Y-103258206D01*
X86255333Y-103258206D02*
X83103001Y-101438206D01*
X89735089Y-100071092D02*
X88505333Y-99361092D01*
X83875089Y-110220910D02*
X89735089Y-100071092D01*
%TO.C,NMOS*%
X140081000Y-83439000D02*
X140081000Y-84074000D01*
X140081000Y-84074000D02*
X140081000Y-101854000D01*
X140081000Y-86614000D02*
X141351000Y-86614000D01*
X140081000Y-101854000D02*
X155321000Y-101854000D01*
X140716000Y-103759000D02*
X140716000Y-101854000D01*
X141621000Y-104759000D02*
X141621000Y-103759000D01*
X141621000Y-105759000D02*
X141621000Y-104759000D01*
X141986000Y-81534000D02*
X140081000Y-83439000D01*
X141986000Y-81534000D02*
X142621000Y-81534000D01*
X143256000Y-82804000D02*
X141351000Y-86614000D01*
X143621000Y-104759000D02*
X143621000Y-103759000D01*
X143621000Y-105759000D02*
X143621000Y-104759000D01*
X144526000Y-101854000D02*
X144526000Y-103759000D01*
X144526000Y-103759000D02*
X140716000Y-103759000D01*
X145796000Y-103759000D02*
X145796000Y-101854000D01*
X146701000Y-104759000D02*
X146701000Y-103759000D01*
X146701000Y-105759000D02*
X146701000Y-104759000D01*
X148701000Y-104759000D02*
X148701000Y-103759000D01*
X148701000Y-105759000D02*
X148701000Y-104759000D01*
X149606000Y-101854000D02*
X149606000Y-103759000D01*
X149606000Y-103759000D02*
X145796000Y-103759000D01*
X150876000Y-103759000D02*
X150876000Y-101854000D01*
X151781000Y-104759000D02*
X151781000Y-103759000D01*
X151781000Y-105759000D02*
X151781000Y-104759000D01*
X152146000Y-82804000D02*
X143256000Y-82804000D01*
X152781000Y-81534000D02*
X142621000Y-81534000D01*
X152781000Y-81534000D02*
X153416000Y-81534000D01*
X153416000Y-81534000D02*
X155321000Y-83439000D01*
X153781000Y-104759000D02*
X153781000Y-103759000D01*
X153781000Y-105759000D02*
X153781000Y-104759000D01*
X154051000Y-86614000D02*
X152146000Y-82804000D01*
X154686000Y-101854000D02*
X154686000Y-103759000D01*
X154686000Y-103759000D02*
X150876000Y-103759000D01*
X155321000Y-83439000D02*
X155321000Y-84074000D01*
X155321000Y-86614000D02*
X154051000Y-86614000D01*
X155321000Y-101854000D02*
X155321000Y-84074000D01*
X143621000Y-105759000D02*
X141621000Y-105759000D01*
X141621000Y-103759000D01*
X143621000Y-103759000D01*
X143621000Y-105759000D01*
G36*
X143621000Y-105759000D02*
G01*
X141621000Y-105759000D01*
X141621000Y-103759000D01*
X143621000Y-103759000D01*
X143621000Y-105759000D01*
G37*
X148701000Y-105759000D02*
X146701000Y-105759000D01*
X146701000Y-103759000D01*
X148701000Y-103759000D01*
X148701000Y-105759000D01*
G36*
X148701000Y-105759000D02*
G01*
X146701000Y-105759000D01*
X146701000Y-103759000D01*
X148701000Y-103759000D01*
X148701000Y-105759000D01*
G37*
X153781000Y-105759000D02*
X151781000Y-105759000D01*
X151781000Y-103759000D01*
X153781000Y-103759000D01*
X153781000Y-105759000D01*
G36*
X153781000Y-105759000D02*
G01*
X151781000Y-105759000D01*
X151781000Y-103759000D01*
X153781000Y-103759000D01*
X153781000Y-105759000D01*
G37*
X155321000Y-83439000D02*
X155321000Y-86614000D01*
X154051000Y-86614000D01*
X152146000Y-82804000D01*
X153416000Y-81534000D01*
X155321000Y-83439000D01*
G36*
X155321000Y-83439000D02*
G01*
X155321000Y-86614000D01*
X154051000Y-86614000D01*
X152146000Y-82804000D01*
X153416000Y-81534000D01*
X155321000Y-83439000D01*
G37*
X152146000Y-82804000D02*
X143256000Y-82804000D01*
X141351000Y-86614000D01*
X140081000Y-86614000D01*
X140081000Y-83439000D01*
X141986000Y-81534000D01*
X153416000Y-81534000D01*
X152146000Y-82804000D01*
G36*
X152146000Y-82804000D02*
G01*
X143256000Y-82804000D01*
X141351000Y-86614000D01*
X140081000Y-86614000D01*
X140081000Y-83439000D01*
X141986000Y-81534000D01*
X153416000Y-81534000D01*
X152146000Y-82804000D01*
G37*
%TO.C,U1*%
X107325000Y-101460000D02*
X108333000Y-100452000D01*
X107325000Y-105540000D02*
X107325000Y-101460000D01*
X108333000Y-100452000D02*
X113167000Y-100452000D01*
X113167000Y-100452000D02*
X113167000Y-105532000D01*
X113167000Y-105532000D02*
X107325000Y-105540000D01*
X109246000Y-100468000D02*
G75*
G03*
X111246000Y-100468000I1000000J0D01*
G01*
%TO.C,330*%
X158332000Y-97902000D02*
X158332000Y-101742000D01*
X156492000Y-97902000D02*
X156492000Y-101742000D01*
%TO.C,(1K)*%
X179720000Y-104806000D02*
X175880000Y-104806000D01*
X179720000Y-102966000D02*
X175880000Y-102966000D01*
%TO.C,C2*%
X101028000Y-90618000D02*
X119190000Y-90618000D01*
X101029000Y-90578000D02*
X119189000Y-90578000D01*
X101029000Y-90538000D02*
X119189000Y-90538000D01*
X101029000Y-90498000D02*
X119189000Y-90498000D01*
X101030000Y-90458000D02*
X119188000Y-90458000D01*
X101031000Y-90418000D02*
X119187000Y-90418000D01*
X101032000Y-90378000D02*
X119186000Y-90378000D01*
X101033000Y-90338000D02*
X119185000Y-90338000D01*
X101034000Y-90298000D02*
X119184000Y-90298000D01*
X101036000Y-90258000D02*
X119182000Y-90258000D01*
X101037000Y-90218000D02*
X119181000Y-90218000D01*
X101039000Y-90178000D02*
X119179000Y-90178000D01*
X101041000Y-90138000D02*
X119177000Y-90138000D01*
X101043000Y-90098000D02*
X119175000Y-90098000D01*
X101046000Y-90058000D02*
X119172000Y-90058000D01*
X101048000Y-90018000D02*
X119170000Y-90018000D01*
X101051000Y-89978000D02*
X119167000Y-89978000D01*
X101054000Y-89938000D02*
X119164000Y-89938000D01*
X101057000Y-89897000D02*
X119161000Y-89897000D01*
X101060000Y-89857000D02*
X119158000Y-89857000D01*
X101064000Y-89817000D02*
X119154000Y-89817000D01*
X101067000Y-89777000D02*
X119151000Y-89777000D01*
X101071000Y-89737000D02*
X119147000Y-89737000D01*
X101075000Y-89697000D02*
X119143000Y-89697000D01*
X101079000Y-89657000D02*
X119139000Y-89657000D01*
X101083000Y-89617000D02*
X119135000Y-89617000D01*
X101088000Y-89577000D02*
X119130000Y-89577000D01*
X101093000Y-89537000D02*
X119125000Y-89537000D01*
X101098000Y-89497000D02*
X119120000Y-89497000D01*
X101103000Y-89457000D02*
X119115000Y-89457000D01*
X101108000Y-89417000D02*
X119110000Y-89417000D01*
X101113000Y-89377000D02*
X119105000Y-89377000D01*
X101119000Y-89337000D02*
X119099000Y-89337000D01*
X101125000Y-89297000D02*
X119093000Y-89297000D01*
X101130000Y-89257000D02*
X119088000Y-89257000D01*
X101137000Y-89217000D02*
X119081000Y-89217000D01*
X101143000Y-89177000D02*
X119075000Y-89177000D01*
X101149000Y-89137000D02*
X119069000Y-89137000D01*
X101156000Y-89097000D02*
X119062000Y-89097000D01*
X101163000Y-89057000D02*
X119055000Y-89057000D01*
X101170000Y-89017000D02*
X119048000Y-89017000D01*
X101177000Y-88977000D02*
X119041000Y-88977000D01*
X101185000Y-88937000D02*
X119033000Y-88937000D01*
X101192000Y-88897000D02*
X119026000Y-88897000D01*
X101200000Y-88857000D02*
X119018000Y-88857000D01*
X101208000Y-88817000D02*
X119010000Y-88817000D01*
X101216000Y-88777000D02*
X119002000Y-88777000D01*
X101224000Y-88737000D02*
X118994000Y-88737000D01*
X101233000Y-88697000D02*
X118985000Y-88697000D01*
X101242000Y-88657000D02*
X118976000Y-88657000D01*
X101251000Y-88617000D02*
X118967000Y-88617000D01*
X101260000Y-88577000D02*
X118958000Y-88577000D01*
X101269000Y-88537000D02*
X118949000Y-88537000D01*
X101278000Y-88497000D02*
X118940000Y-88497000D01*
X101288000Y-88457000D02*
X118930000Y-88457000D01*
X101298000Y-88417000D02*
X118920000Y-88417000D01*
X101308000Y-88377000D02*
X118910000Y-88377000D01*
X101318000Y-88337000D02*
X118900000Y-88337000D01*
X101329000Y-88297000D02*
X108669000Y-88297000D01*
X111549000Y-88297000D02*
X118889000Y-88297000D01*
X101339000Y-88257000D02*
X108669000Y-88257000D01*
X111549000Y-88257000D02*
X118879000Y-88257000D01*
X101350000Y-88217000D02*
X108669000Y-88217000D01*
X111549000Y-88217000D02*
X118868000Y-88217000D01*
X101361000Y-88177000D02*
X108669000Y-88177000D01*
X111549000Y-88177000D02*
X118857000Y-88177000D01*
X101372000Y-88137000D02*
X108669000Y-88137000D01*
X111549000Y-88137000D02*
X118846000Y-88137000D01*
X101384000Y-88097000D02*
X108669000Y-88097000D01*
X111549000Y-88097000D02*
X118834000Y-88097000D01*
X101395000Y-88057000D02*
X108669000Y-88057000D01*
X111549000Y-88057000D02*
X118823000Y-88057000D01*
X101407000Y-88017000D02*
X108669000Y-88017000D01*
X111549000Y-88017000D02*
X118811000Y-88017000D01*
X101419000Y-87977000D02*
X108669000Y-87977000D01*
X111549000Y-87977000D02*
X118799000Y-87977000D01*
X101431000Y-87937000D02*
X108669000Y-87937000D01*
X111549000Y-87937000D02*
X118787000Y-87937000D01*
X101444000Y-87897000D02*
X108669000Y-87897000D01*
X111549000Y-87897000D02*
X118774000Y-87897000D01*
X101456000Y-87857000D02*
X108669000Y-87857000D01*
X111549000Y-87857000D02*
X118762000Y-87857000D01*
X101469000Y-87817000D02*
X108669000Y-87817000D01*
X111549000Y-87817000D02*
X118749000Y-87817000D01*
X101482000Y-87777000D02*
X108669000Y-87777000D01*
X111549000Y-87777000D02*
X118736000Y-87777000D01*
X101495000Y-87737000D02*
X108669000Y-87737000D01*
X111549000Y-87737000D02*
X118723000Y-87737000D01*
X101509000Y-87697000D02*
X108669000Y-87697000D01*
X111549000Y-87697000D02*
X118709000Y-87697000D01*
X101522000Y-87657000D02*
X108669000Y-87657000D01*
X111549000Y-87657000D02*
X118696000Y-87657000D01*
X101536000Y-87617000D02*
X108669000Y-87617000D01*
X111549000Y-87617000D02*
X118682000Y-87617000D01*
X101550000Y-87577000D02*
X108669000Y-87577000D01*
X111549000Y-87577000D02*
X118668000Y-87577000D01*
X101564000Y-87537000D02*
X108669000Y-87537000D01*
X111549000Y-87537000D02*
X118654000Y-87537000D01*
X101579000Y-87497000D02*
X108669000Y-87497000D01*
X111549000Y-87497000D02*
X118639000Y-87497000D01*
X101593000Y-87457000D02*
X108669000Y-87457000D01*
X111549000Y-87457000D02*
X118625000Y-87457000D01*
X101608000Y-87417000D02*
X108669000Y-87417000D01*
X111549000Y-87417000D02*
X118610000Y-87417000D01*
X101623000Y-87377000D02*
X108669000Y-87377000D01*
X111549000Y-87377000D02*
X118595000Y-87377000D01*
X101639000Y-87337000D02*
X108669000Y-87337000D01*
X111549000Y-87337000D02*
X118579000Y-87337000D01*
X101654000Y-87297000D02*
X108669000Y-87297000D01*
X111549000Y-87297000D02*
X118564000Y-87297000D01*
X101670000Y-87257000D02*
X108669000Y-87257000D01*
X111549000Y-87257000D02*
X118548000Y-87257000D01*
X101686000Y-87217000D02*
X108669000Y-87217000D01*
X111549000Y-87217000D02*
X118532000Y-87217000D01*
X101702000Y-87177000D02*
X108669000Y-87177000D01*
X111549000Y-87177000D02*
X118516000Y-87177000D01*
X101719000Y-87137000D02*
X108669000Y-87137000D01*
X111549000Y-87137000D02*
X118499000Y-87137000D01*
X101735000Y-87097000D02*
X108669000Y-87097000D01*
X111549000Y-87097000D02*
X118483000Y-87097000D01*
X101752000Y-87057000D02*
X108669000Y-87057000D01*
X111549000Y-87057000D02*
X118466000Y-87057000D01*
X101769000Y-87017000D02*
X108669000Y-87017000D01*
X111549000Y-87017000D02*
X118449000Y-87017000D01*
X101786000Y-86977000D02*
X108669000Y-86977000D01*
X111549000Y-86977000D02*
X118432000Y-86977000D01*
X101804000Y-86937000D02*
X108669000Y-86937000D01*
X111549000Y-86937000D02*
X118414000Y-86937000D01*
X101822000Y-86897000D02*
X108669000Y-86897000D01*
X111549000Y-86897000D02*
X118396000Y-86897000D01*
X101840000Y-86857000D02*
X108669000Y-86857000D01*
X111549000Y-86857000D02*
X118378000Y-86857000D01*
X101858000Y-86817000D02*
X108669000Y-86817000D01*
X111549000Y-86817000D02*
X118360000Y-86817000D01*
X101876000Y-86777000D02*
X108669000Y-86777000D01*
X111549000Y-86777000D02*
X118342000Y-86777000D01*
X101895000Y-86737000D02*
X108669000Y-86737000D01*
X111549000Y-86737000D02*
X118323000Y-86737000D01*
X101914000Y-86697000D02*
X108669000Y-86697000D01*
X111549000Y-86697000D02*
X118304000Y-86697000D01*
X101933000Y-86657000D02*
X108669000Y-86657000D01*
X111549000Y-86657000D02*
X118285000Y-86657000D01*
X101953000Y-86617000D02*
X108669000Y-86617000D01*
X111549000Y-86617000D02*
X118265000Y-86617000D01*
X101972000Y-86577000D02*
X108669000Y-86577000D01*
X111549000Y-86577000D02*
X118246000Y-86577000D01*
X101992000Y-86537000D02*
X108669000Y-86537000D01*
X111549000Y-86537000D02*
X118226000Y-86537000D01*
X102012000Y-86497000D02*
X108669000Y-86497000D01*
X111549000Y-86497000D02*
X118206000Y-86497000D01*
X102033000Y-86457000D02*
X108669000Y-86457000D01*
X111549000Y-86457000D02*
X118185000Y-86457000D01*
X102053000Y-86417000D02*
X108669000Y-86417000D01*
X111549000Y-86417000D02*
X118165000Y-86417000D01*
X102074000Y-86377000D02*
X108669000Y-86377000D01*
X111549000Y-86377000D02*
X118144000Y-86377000D01*
X102095000Y-86337000D02*
X108669000Y-86337000D01*
X111549000Y-86337000D02*
X118123000Y-86337000D01*
X102117000Y-86297000D02*
X108669000Y-86297000D01*
X111549000Y-86297000D02*
X118101000Y-86297000D01*
X102138000Y-86257000D02*
X108669000Y-86257000D01*
X111549000Y-86257000D02*
X118080000Y-86257000D01*
X102160000Y-86217000D02*
X108669000Y-86217000D01*
X111549000Y-86217000D02*
X118058000Y-86217000D01*
X102182000Y-86177000D02*
X108669000Y-86177000D01*
X111549000Y-86177000D02*
X118036000Y-86177000D01*
X102205000Y-86137000D02*
X108669000Y-86137000D01*
X111549000Y-86137000D02*
X118013000Y-86137000D01*
X102227000Y-86097000D02*
X108669000Y-86097000D01*
X111549000Y-86097000D02*
X117991000Y-86097000D01*
X102250000Y-86057000D02*
X108669000Y-86057000D01*
X111549000Y-86057000D02*
X117968000Y-86057000D01*
X102274000Y-86017000D02*
X108669000Y-86017000D01*
X111549000Y-86017000D02*
X117944000Y-86017000D01*
X102297000Y-85977000D02*
X108669000Y-85977000D01*
X111549000Y-85977000D02*
X117921000Y-85977000D01*
X102321000Y-85937000D02*
X108669000Y-85937000D01*
X111549000Y-85937000D02*
X117897000Y-85937000D01*
X102345000Y-85897000D02*
X108669000Y-85897000D01*
X111549000Y-85897000D02*
X117873000Y-85897000D01*
X102369000Y-85857000D02*
X108669000Y-85857000D01*
X111549000Y-85857000D02*
X117849000Y-85857000D01*
X102394000Y-85817000D02*
X108669000Y-85817000D01*
X111549000Y-85817000D02*
X117824000Y-85817000D01*
X102419000Y-85777000D02*
X108669000Y-85777000D01*
X111549000Y-85777000D02*
X117799000Y-85777000D01*
X102444000Y-85737000D02*
X108669000Y-85737000D01*
X111549000Y-85737000D02*
X117774000Y-85737000D01*
X102469000Y-85697000D02*
X108669000Y-85697000D01*
X111549000Y-85697000D02*
X117749000Y-85697000D01*
X102495000Y-85657000D02*
X108669000Y-85657000D01*
X111549000Y-85657000D02*
X117723000Y-85657000D01*
X102521000Y-85617000D02*
X108669000Y-85617000D01*
X111549000Y-85617000D02*
X117697000Y-85617000D01*
X102548000Y-85577000D02*
X108669000Y-85577000D01*
X111549000Y-85577000D02*
X117670000Y-85577000D01*
X102574000Y-85537000D02*
X108669000Y-85537000D01*
X111549000Y-85537000D02*
X117644000Y-85537000D01*
X102601000Y-85497000D02*
X108669000Y-85497000D01*
X111549000Y-85497000D02*
X117617000Y-85497000D01*
X102629000Y-85457000D02*
X108669000Y-85457000D01*
X111549000Y-85457000D02*
X117589000Y-85457000D01*
X102656000Y-85417000D02*
X117562000Y-85417000D01*
X102684000Y-85377000D02*
X117534000Y-85377000D01*
X102712000Y-85337000D02*
X117506000Y-85337000D01*
X102741000Y-85297000D02*
X117477000Y-85297000D01*
X102770000Y-85257000D02*
X117448000Y-85257000D01*
X102799000Y-85217000D02*
X117419000Y-85217000D01*
X102829000Y-85177000D02*
X117389000Y-85177000D01*
X102859000Y-85137000D02*
X117359000Y-85137000D01*
X102889000Y-85097000D02*
X117329000Y-85097000D01*
X102919000Y-85057000D02*
X117299000Y-85057000D01*
X102950000Y-85017000D02*
X117268000Y-85017000D01*
X102982000Y-84977000D02*
X117236000Y-84977000D01*
X103013000Y-84937000D02*
X117205000Y-84937000D01*
X103045000Y-84897000D02*
X117173000Y-84897000D01*
X103078000Y-84857000D02*
X117140000Y-84857000D01*
X103110000Y-84817000D02*
X117108000Y-84817000D01*
X103144000Y-84777000D02*
X117074000Y-84777000D01*
X103177000Y-84737000D02*
X117041000Y-84737000D01*
X103211000Y-84697000D02*
X117007000Y-84697000D01*
X103245000Y-84657000D02*
X116973000Y-84657000D01*
X103280000Y-84617000D02*
X116938000Y-84617000D01*
X103315000Y-84577000D02*
X116903000Y-84577000D01*
X103351000Y-84537000D02*
X116867000Y-84537000D01*
X103387000Y-84497000D02*
X116831000Y-84497000D01*
X103423000Y-84457000D02*
X116795000Y-84457000D01*
X103460000Y-84417000D02*
X116758000Y-84417000D01*
X103497000Y-84377000D02*
X116721000Y-84377000D01*
X103535000Y-84337000D02*
X116683000Y-84337000D01*
X103573000Y-84297000D02*
X116645000Y-84297000D01*
X103612000Y-84257000D02*
X116606000Y-84257000D01*
X103651000Y-84217000D02*
X116567000Y-84217000D01*
X103691000Y-84177000D02*
X116527000Y-84177000D01*
X103731000Y-84137000D02*
X116487000Y-84137000D01*
X103772000Y-84097000D02*
X116446000Y-84097000D01*
X103813000Y-84057000D02*
X116405000Y-84057000D01*
X103855000Y-84017000D02*
X116363000Y-84017000D01*
X103897000Y-83977000D02*
X116321000Y-83977000D01*
X103939000Y-83937000D02*
X116279000Y-83937000D01*
X103983000Y-83897000D02*
X116235000Y-83897000D01*
X104027000Y-83857000D02*
X116191000Y-83857000D01*
X104071000Y-83817000D02*
X116147000Y-83817000D01*
X104116000Y-83777000D02*
X116102000Y-83777000D01*
X104162000Y-83737000D02*
X116056000Y-83737000D01*
X104208000Y-83697000D02*
X116010000Y-83697000D01*
X104255000Y-83657000D02*
X115963000Y-83657000D01*
X104303000Y-83617000D02*
X115915000Y-83617000D01*
X104351000Y-83577000D02*
X115867000Y-83577000D01*
X104400000Y-83537000D02*
X115818000Y-83537000D01*
X104449000Y-83497000D02*
X115769000Y-83497000D01*
X104500000Y-83457000D02*
X115718000Y-83457000D01*
X104551000Y-83417000D02*
X115667000Y-83417000D01*
X104603000Y-83377000D02*
X115615000Y-83377000D01*
X104655000Y-83337000D02*
X115563000Y-83337000D01*
X104709000Y-83297000D02*
X115509000Y-83297000D01*
X104763000Y-83257000D02*
X115455000Y-83257000D01*
X104818000Y-83217000D02*
X115400000Y-83217000D01*
X104874000Y-83177000D02*
X115344000Y-83177000D01*
X104931000Y-83137000D02*
X115287000Y-83137000D01*
X104989000Y-83097000D02*
X115229000Y-83097000D01*
X105047000Y-83057000D02*
X115171000Y-83057000D01*
X105107000Y-83017000D02*
X115111000Y-83017000D01*
X105168000Y-82977000D02*
X115050000Y-82977000D01*
X105230000Y-82937000D02*
X114988000Y-82937000D01*
X105293000Y-82897000D02*
X114925000Y-82897000D01*
X105357000Y-82857000D02*
X114861000Y-82857000D01*
X105423000Y-82817000D02*
X114795000Y-82817000D01*
X105489000Y-82777000D02*
X114729000Y-82777000D01*
X105557000Y-82737000D02*
X114661000Y-82737000D01*
X105627000Y-82697000D02*
X114591000Y-82697000D01*
X105697000Y-82657000D02*
X114521000Y-82657000D01*
X105770000Y-82617000D02*
X114448000Y-82617000D01*
X105844000Y-82577000D02*
X114374000Y-82577000D01*
X105919000Y-82537000D02*
X114299000Y-82537000D01*
X105996000Y-82497000D02*
X114222000Y-82497000D01*
X106076000Y-82457000D02*
X114142000Y-82457000D01*
X106157000Y-82418000D02*
X114061000Y-82418000D01*
X106240000Y-82378000D02*
X113978000Y-82378000D01*
X106325000Y-82338000D02*
X113893000Y-82338000D01*
X106413000Y-82298000D02*
X113805000Y-82298000D01*
X106504000Y-82258000D02*
X113714000Y-82258000D01*
X106597000Y-82218000D02*
X113621000Y-82218000D01*
X106693000Y-82178000D02*
X113525000Y-82178000D01*
X106792000Y-82138000D02*
X113426000Y-82138000D01*
X106895000Y-82098000D02*
X113323000Y-82098000D01*
X107002000Y-82058000D02*
X113216000Y-82058000D01*
X107113000Y-82018000D02*
X113105000Y-82018000D01*
X107229000Y-81978000D02*
X112989000Y-81978000D01*
X107350000Y-81938000D02*
X112868000Y-81938000D01*
X107477000Y-81898000D02*
X112741000Y-81898000D01*
X107611000Y-81858000D02*
X112607000Y-81858000D01*
X107754000Y-81818000D02*
X112464000Y-81818000D01*
X107906000Y-81778000D02*
X112312000Y-81778000D01*
X108070000Y-81738000D02*
X112148000Y-81738000D01*
X108249000Y-81698000D02*
X111969000Y-81698000D01*
X108448000Y-81658000D02*
X111770000Y-81658000D01*
X108674000Y-81618000D02*
X111544000Y-81618000D01*
X108943000Y-81578000D02*
X111275000Y-81578000D01*
X109295000Y-81538000D02*
X110923000Y-81538000D01*
X110069000Y-81498000D02*
X110149000Y-81498000D01*
X119229000Y-90618000D02*
G75*
G03*
X119229000Y-90618000I-9120000J0D01*
G01*
%TO.C,1*%
X178290400Y-108508800D02*
X178180400Y-108508800D01*
X178180400Y-110878800D02*
X178180400Y-106138800D01*
X178180400Y-106138800D02*
X166040400Y-106138800D01*
X166040400Y-110878800D02*
X178180400Y-110878800D01*
X166040400Y-106138800D02*
X166040400Y-110878800D01*
X165930400Y-108508800D02*
X166040400Y-108508800D01*
%TO.C,2K*%
X116952000Y-103474000D02*
X120792000Y-103474000D01*
X116952000Y-105314000D02*
X120792000Y-105314000D01*
%TO.C,PMOS*%
X124079000Y-83439000D02*
X124079000Y-84074000D01*
X124079000Y-84074000D02*
X124079000Y-101854000D01*
X124079000Y-86614000D02*
X125349000Y-86614000D01*
X124079000Y-101854000D02*
X139319000Y-101854000D01*
X124714000Y-102108000D02*
X124714000Y-101854000D01*
D12*
X125857000Y-102108000D02*
X126111000Y-102108000D01*
X125857000Y-102616000D02*
X125857000Y-102108000D01*
D10*
X125984000Y-81534000D02*
X124079000Y-83439000D01*
X125984000Y-81534000D02*
X126619000Y-81534000D01*
D12*
X126111000Y-102108000D02*
X126111000Y-102870000D01*
X126111000Y-102870000D02*
X125857000Y-102616000D01*
X127111000Y-102108000D02*
X127127000Y-102870000D01*
X127127000Y-102235000D02*
X127127000Y-102870000D01*
X127127000Y-102870000D02*
X127381000Y-102616000D01*
D10*
X127254000Y-82804000D02*
X125349000Y-86614000D01*
D12*
X127381000Y-102108000D02*
X127111000Y-102108000D01*
X127381000Y-102616000D02*
X127381000Y-102108000D01*
D10*
X128524000Y-101854000D02*
X128524000Y-102108000D01*
X128524000Y-102108000D02*
X124714000Y-102108000D01*
X129794000Y-102108000D02*
X129794000Y-101854000D01*
X133604000Y-101854000D02*
X133604000Y-102108000D01*
X133604000Y-102108000D02*
X129794000Y-102108000D01*
X134874000Y-102108000D02*
X134874000Y-101854000D01*
X136144000Y-82804000D02*
X127254000Y-82804000D01*
X136779000Y-81534000D02*
X126619000Y-81534000D01*
X136779000Y-81534000D02*
X137414000Y-81534000D01*
X137414000Y-81534000D02*
X139319000Y-83439000D01*
X138049000Y-86614000D02*
X136144000Y-82804000D01*
X138684000Y-101854000D02*
X138684000Y-102108000D01*
X138684000Y-102108000D02*
X134874000Y-102108000D01*
X139319000Y-83439000D02*
X139319000Y-84074000D01*
X139319000Y-86614000D02*
X138049000Y-86614000D01*
X139319000Y-101854000D02*
X139319000Y-84074000D01*
D12*
X124079000Y-93726000D02*
G75*
G03*
X124079000Y-92202000I0J762000D01*
G01*
X139319000Y-92202000D02*
G75*
G03*
X139319000Y-93726000I0J-762000D01*
G01*
X128524000Y-102108000D02*
X124714000Y-102108000D01*
X124714000Y-101854000D01*
X128524000Y-101854000D01*
X128524000Y-102108000D01*
G36*
X128524000Y-102108000D02*
G01*
X124714000Y-102108000D01*
X124714000Y-101854000D01*
X128524000Y-101854000D01*
X128524000Y-102108000D01*
G37*
D10*
X127111000Y-105505000D02*
X126111000Y-105505000D01*
X126111000Y-102108000D01*
X127111000Y-102108000D01*
X127111000Y-105505000D01*
G36*
X127111000Y-105505000D02*
G01*
X126111000Y-105505000D01*
X126111000Y-102108000D01*
X127111000Y-102108000D01*
X127111000Y-105505000D01*
G37*
D12*
X133604000Y-102108000D02*
X129794000Y-102108000D01*
X129794000Y-101854000D01*
X133604000Y-101854000D01*
X133604000Y-102108000D01*
G36*
X133604000Y-102108000D02*
G01*
X129794000Y-102108000D01*
X129794000Y-101854000D01*
X133604000Y-101854000D01*
X133604000Y-102108000D01*
G37*
D10*
X132191000Y-105505000D02*
X131207000Y-105505000D01*
X131207000Y-102108000D01*
X132191000Y-102108000D01*
X132191000Y-105505000D01*
G36*
X132191000Y-105505000D02*
G01*
X131207000Y-105505000D01*
X131207000Y-102108000D01*
X132191000Y-102108000D01*
X132191000Y-105505000D01*
G37*
D12*
X138684000Y-102108000D02*
X134874000Y-102108000D01*
X134874000Y-101854000D01*
X138684000Y-101854000D01*
X138684000Y-102108000D01*
G36*
X138684000Y-102108000D02*
G01*
X134874000Y-102108000D01*
X134874000Y-101854000D01*
X138684000Y-101854000D01*
X138684000Y-102108000D01*
G37*
D10*
X137271000Y-105505000D02*
X136287000Y-105505000D01*
X136287000Y-102108000D01*
X137271000Y-102108000D01*
X137271000Y-105505000D01*
G36*
X137271000Y-105505000D02*
G01*
X136287000Y-105505000D01*
X136287000Y-102108000D01*
X137271000Y-102108000D01*
X137271000Y-105505000D01*
G37*
X139319000Y-83439000D02*
X139319000Y-86614000D01*
X138049000Y-86614000D01*
X136144000Y-82804000D01*
X137414000Y-81534000D01*
X139319000Y-83439000D01*
G36*
X139319000Y-83439000D02*
G01*
X139319000Y-86614000D01*
X138049000Y-86614000D01*
X136144000Y-82804000D01*
X137414000Y-81534000D01*
X139319000Y-83439000D01*
G37*
D12*
X127381000Y-102616000D02*
X127127000Y-102870000D01*
X126111000Y-102870000D01*
X125857000Y-102616000D01*
X125857000Y-102108000D01*
X127381000Y-102108000D01*
X127381000Y-102616000D01*
G36*
X127381000Y-102616000D02*
G01*
X127127000Y-102870000D01*
X126111000Y-102870000D01*
X125857000Y-102616000D01*
X125857000Y-102108000D01*
X127381000Y-102108000D01*
X127381000Y-102616000D01*
G37*
X132461000Y-102616000D02*
X132207000Y-102870000D01*
X131191000Y-102870000D01*
X130937000Y-102616000D01*
X130937000Y-102108000D01*
X132461000Y-102108000D01*
X132461000Y-102616000D01*
G36*
X132461000Y-102616000D02*
G01*
X132207000Y-102870000D01*
X131191000Y-102870000D01*
X130937000Y-102616000D01*
X130937000Y-102108000D01*
X132461000Y-102108000D01*
X132461000Y-102616000D01*
G37*
X137541000Y-102616000D02*
X137287000Y-102870000D01*
X136271000Y-102870000D01*
X136017000Y-102616000D01*
X136017000Y-102108000D01*
X137541000Y-102108000D01*
X137541000Y-102616000D01*
G36*
X137541000Y-102616000D02*
G01*
X137287000Y-102870000D01*
X136271000Y-102870000D01*
X136017000Y-102616000D01*
X136017000Y-102108000D01*
X137541000Y-102108000D01*
X137541000Y-102616000D01*
G37*
X124460000Y-92329000D02*
X124714000Y-92583000D01*
X124841000Y-92964000D01*
X124714000Y-93345000D01*
X124460000Y-93599000D01*
X124079000Y-93726000D01*
X124079000Y-92202000D01*
X124460000Y-92329000D01*
G36*
X124460000Y-92329000D02*
G01*
X124714000Y-92583000D01*
X124841000Y-92964000D01*
X124714000Y-93345000D01*
X124460000Y-93599000D01*
X124079000Y-93726000D01*
X124079000Y-92202000D01*
X124460000Y-92329000D01*
G37*
D10*
X136144000Y-82804000D02*
X127254000Y-82804000D01*
X125349000Y-86614000D01*
X124079000Y-86614000D01*
X124079000Y-83439000D01*
X125984000Y-81534000D01*
X137414000Y-81534000D01*
X136144000Y-82804000D01*
G36*
X136144000Y-82804000D02*
G01*
X127254000Y-82804000D01*
X125349000Y-86614000D01*
X124079000Y-86614000D01*
X124079000Y-83439000D01*
X125984000Y-81534000D01*
X137414000Y-81534000D01*
X136144000Y-82804000D01*
G37*
D12*
X139319000Y-93726000D02*
X138938000Y-93599000D01*
X138684000Y-93345000D01*
X138557000Y-92964000D01*
X138684000Y-92583000D01*
X138938000Y-92329000D01*
X139319000Y-92202000D01*
X139319000Y-93726000D01*
G36*
X139319000Y-93726000D02*
G01*
X138938000Y-93599000D01*
X138684000Y-93345000D01*
X138557000Y-92964000D01*
X138684000Y-92583000D01*
X138938000Y-92329000D01*
X139319000Y-92202000D01*
X139319000Y-93726000D01*
G37*
D10*
%TO.C,1K*%
X179720000Y-102520000D02*
X175880000Y-102520000D01*
X179720000Y-100680000D02*
X175880000Y-100680000D01*
%TO.C,U2*%
X166253000Y-101587000D02*
X167261000Y-100579000D01*
X166253000Y-105667000D02*
X166253000Y-101587000D01*
X167261000Y-100579000D02*
X172095000Y-100579000D01*
X172095000Y-100579000D02*
X172095000Y-105659000D01*
X172095000Y-105659000D02*
X166253000Y-105667000D01*
X168174000Y-100595000D02*
G75*
G03*
X170174000Y-100595000I1000000J0D01*
G01*
X168174000Y-100595000D02*
G75*
G03*
X170174000Y-100595000I1000000J0D01*
G01*
%TO.C,C1*%
X160210000Y-90659780D02*
X178372000Y-90659780D01*
X160211000Y-90619780D02*
X178371000Y-90619780D01*
X160211000Y-90579780D02*
X178371000Y-90579780D01*
X160211000Y-90539780D02*
X178371000Y-90539780D01*
X160212000Y-90499780D02*
X178370000Y-90499780D01*
X160213000Y-90459780D02*
X178369000Y-90459780D01*
X160214000Y-90419780D02*
X178368000Y-90419780D01*
X160215000Y-90379780D02*
X178367000Y-90379780D01*
X160216000Y-90339780D02*
X178366000Y-90339780D01*
X160218000Y-90299780D02*
X178364000Y-90299780D01*
X160219000Y-90259780D02*
X178363000Y-90259780D01*
X160221000Y-90219780D02*
X178361000Y-90219780D01*
X160223000Y-90179780D02*
X178359000Y-90179780D01*
X160225000Y-90139780D02*
X178357000Y-90139780D01*
X160228000Y-90099780D02*
X178354000Y-90099780D01*
X160230000Y-90059780D02*
X178352000Y-90059780D01*
X160233000Y-90019780D02*
X178349000Y-90019780D01*
X160236000Y-89979780D02*
X178346000Y-89979780D01*
X160239000Y-89938780D02*
X178343000Y-89938780D01*
X160242000Y-89898780D02*
X178340000Y-89898780D01*
X160246000Y-89858780D02*
X178336000Y-89858780D01*
X160249000Y-89818780D02*
X178333000Y-89818780D01*
X160253000Y-89778780D02*
X178329000Y-89778780D01*
X160257000Y-89738780D02*
X178325000Y-89738780D01*
X160261000Y-89698780D02*
X178321000Y-89698780D01*
X160265000Y-89658780D02*
X178317000Y-89658780D01*
X160270000Y-89618780D02*
X178312000Y-89618780D01*
X160275000Y-89578780D02*
X178307000Y-89578780D01*
X160280000Y-89538780D02*
X178302000Y-89538780D01*
X160285000Y-89498780D02*
X178297000Y-89498780D01*
X160290000Y-89458780D02*
X178292000Y-89458780D01*
X160295000Y-89418780D02*
X178287000Y-89418780D01*
X160301000Y-89378780D02*
X178281000Y-89378780D01*
X160307000Y-89338780D02*
X178275000Y-89338780D01*
X160312000Y-89298780D02*
X178270000Y-89298780D01*
X160319000Y-89258780D02*
X178263000Y-89258780D01*
X160325000Y-89218780D02*
X178257000Y-89218780D01*
X160331000Y-89178780D02*
X178251000Y-89178780D01*
X160338000Y-89138780D02*
X178244000Y-89138780D01*
X160345000Y-89098780D02*
X178237000Y-89098780D01*
X160352000Y-89058780D02*
X178230000Y-89058780D01*
X160359000Y-89018780D02*
X178223000Y-89018780D01*
X160367000Y-88978780D02*
X178215000Y-88978780D01*
X160374000Y-88938780D02*
X178208000Y-88938780D01*
X160382000Y-88898780D02*
X178200000Y-88898780D01*
X160390000Y-88858780D02*
X178192000Y-88858780D01*
X160398000Y-88818780D02*
X178184000Y-88818780D01*
X160406000Y-88778780D02*
X178176000Y-88778780D01*
X160415000Y-88738780D02*
X178167000Y-88738780D01*
X160424000Y-88698780D02*
X178158000Y-88698780D01*
X160433000Y-88658780D02*
X178149000Y-88658780D01*
X160442000Y-88618780D02*
X178140000Y-88618780D01*
X160451000Y-88578780D02*
X178131000Y-88578780D01*
X160460000Y-88538780D02*
X178122000Y-88538780D01*
X160470000Y-88498780D02*
X178112000Y-88498780D01*
X160480000Y-88458780D02*
X178102000Y-88458780D01*
X160490000Y-88418780D02*
X178092000Y-88418780D01*
X160500000Y-88378780D02*
X178082000Y-88378780D01*
X160511000Y-88338780D02*
X167851000Y-88338780D01*
X170731000Y-88338780D02*
X178071000Y-88338780D01*
X160521000Y-88298780D02*
X167851000Y-88298780D01*
X170731000Y-88298780D02*
X178061000Y-88298780D01*
X160532000Y-88258780D02*
X167851000Y-88258780D01*
X170731000Y-88258780D02*
X178050000Y-88258780D01*
X160543000Y-88218780D02*
X167851000Y-88218780D01*
X170731000Y-88218780D02*
X178039000Y-88218780D01*
X160554000Y-88178780D02*
X167851000Y-88178780D01*
X170731000Y-88178780D02*
X178028000Y-88178780D01*
X160566000Y-88138780D02*
X167851000Y-88138780D01*
X170731000Y-88138780D02*
X178016000Y-88138780D01*
X160577000Y-88098780D02*
X167851000Y-88098780D01*
X170731000Y-88098780D02*
X178005000Y-88098780D01*
X160589000Y-88058780D02*
X167851000Y-88058780D01*
X170731000Y-88058780D02*
X177993000Y-88058780D01*
X160601000Y-88018780D02*
X167851000Y-88018780D01*
X170731000Y-88018780D02*
X177981000Y-88018780D01*
X160613000Y-87978780D02*
X167851000Y-87978780D01*
X170731000Y-87978780D02*
X177969000Y-87978780D01*
X160626000Y-87938780D02*
X167851000Y-87938780D01*
X170731000Y-87938780D02*
X177956000Y-87938780D01*
X160638000Y-87898780D02*
X167851000Y-87898780D01*
X170731000Y-87898780D02*
X177944000Y-87898780D01*
X160651000Y-87858780D02*
X167851000Y-87858780D01*
X170731000Y-87858780D02*
X177931000Y-87858780D01*
X160664000Y-87818780D02*
X167851000Y-87818780D01*
X170731000Y-87818780D02*
X177918000Y-87818780D01*
X160677000Y-87778780D02*
X167851000Y-87778780D01*
X170731000Y-87778780D02*
X177905000Y-87778780D01*
X160691000Y-87738780D02*
X167851000Y-87738780D01*
X170731000Y-87738780D02*
X177891000Y-87738780D01*
X160704000Y-87698780D02*
X167851000Y-87698780D01*
X170731000Y-87698780D02*
X177878000Y-87698780D01*
X160718000Y-87658780D02*
X167851000Y-87658780D01*
X170731000Y-87658780D02*
X177864000Y-87658780D01*
X160732000Y-87618780D02*
X167851000Y-87618780D01*
X170731000Y-87618780D02*
X177850000Y-87618780D01*
X160746000Y-87578780D02*
X167851000Y-87578780D01*
X170731000Y-87578780D02*
X177836000Y-87578780D01*
X160761000Y-87538780D02*
X167851000Y-87538780D01*
X170731000Y-87538780D02*
X177821000Y-87538780D01*
X160775000Y-87498780D02*
X167851000Y-87498780D01*
X170731000Y-87498780D02*
X177807000Y-87498780D01*
X160790000Y-87458780D02*
X167851000Y-87458780D01*
X170731000Y-87458780D02*
X177792000Y-87458780D01*
X160805000Y-87418780D02*
X167851000Y-87418780D01*
X170731000Y-87418780D02*
X177777000Y-87418780D01*
X160821000Y-87378780D02*
X167851000Y-87378780D01*
X170731000Y-87378780D02*
X177761000Y-87378780D01*
X160836000Y-87338780D02*
X167851000Y-87338780D01*
X170731000Y-87338780D02*
X177746000Y-87338780D01*
X160852000Y-87298780D02*
X167851000Y-87298780D01*
X170731000Y-87298780D02*
X177730000Y-87298780D01*
X160868000Y-87258780D02*
X167851000Y-87258780D01*
X170731000Y-87258780D02*
X177714000Y-87258780D01*
X160884000Y-87218780D02*
X167851000Y-87218780D01*
X170731000Y-87218780D02*
X177698000Y-87218780D01*
X160901000Y-87178780D02*
X167851000Y-87178780D01*
X170731000Y-87178780D02*
X177681000Y-87178780D01*
X160917000Y-87138780D02*
X167851000Y-87138780D01*
X170731000Y-87138780D02*
X177665000Y-87138780D01*
X160934000Y-87098780D02*
X167851000Y-87098780D01*
X170731000Y-87098780D02*
X177648000Y-87098780D01*
X160951000Y-87058780D02*
X167851000Y-87058780D01*
X170731000Y-87058780D02*
X177631000Y-87058780D01*
X160968000Y-87018780D02*
X167851000Y-87018780D01*
X170731000Y-87018780D02*
X177614000Y-87018780D01*
X160986000Y-86978780D02*
X167851000Y-86978780D01*
X170731000Y-86978780D02*
X177596000Y-86978780D01*
X161004000Y-86938780D02*
X167851000Y-86938780D01*
X170731000Y-86938780D02*
X177578000Y-86938780D01*
X161022000Y-86898780D02*
X167851000Y-86898780D01*
X170731000Y-86898780D02*
X177560000Y-86898780D01*
X161040000Y-86858780D02*
X167851000Y-86858780D01*
X170731000Y-86858780D02*
X177542000Y-86858780D01*
X161058000Y-86818780D02*
X167851000Y-86818780D01*
X170731000Y-86818780D02*
X177524000Y-86818780D01*
X161077000Y-86778780D02*
X167851000Y-86778780D01*
X170731000Y-86778780D02*
X177505000Y-86778780D01*
X161096000Y-86738780D02*
X167851000Y-86738780D01*
X170731000Y-86738780D02*
X177486000Y-86738780D01*
X161115000Y-86698780D02*
X167851000Y-86698780D01*
X170731000Y-86698780D02*
X177467000Y-86698780D01*
X161135000Y-86658780D02*
X167851000Y-86658780D01*
X170731000Y-86658780D02*
X177447000Y-86658780D01*
X161154000Y-86618780D02*
X167851000Y-86618780D01*
X170731000Y-86618780D02*
X177428000Y-86618780D01*
X161174000Y-86578780D02*
X167851000Y-86578780D01*
X170731000Y-86578780D02*
X177408000Y-86578780D01*
X161194000Y-86538780D02*
X167851000Y-86538780D01*
X170731000Y-86538780D02*
X177388000Y-86538780D01*
X161215000Y-86498780D02*
X167851000Y-86498780D01*
X170731000Y-86498780D02*
X177367000Y-86498780D01*
X161235000Y-86458780D02*
X167851000Y-86458780D01*
X170731000Y-86458780D02*
X177347000Y-86458780D01*
X161256000Y-86418780D02*
X167851000Y-86418780D01*
X170731000Y-86418780D02*
X177326000Y-86418780D01*
X161277000Y-86378780D02*
X167851000Y-86378780D01*
X170731000Y-86378780D02*
X177305000Y-86378780D01*
X161299000Y-86338780D02*
X167851000Y-86338780D01*
X170731000Y-86338780D02*
X177283000Y-86338780D01*
X161320000Y-86298780D02*
X167851000Y-86298780D01*
X170731000Y-86298780D02*
X177262000Y-86298780D01*
X161342000Y-86258780D02*
X167851000Y-86258780D01*
X170731000Y-86258780D02*
X177240000Y-86258780D01*
X161364000Y-86218780D02*
X167851000Y-86218780D01*
X170731000Y-86218780D02*
X177218000Y-86218780D01*
X161387000Y-86178780D02*
X167851000Y-86178780D01*
X170731000Y-86178780D02*
X177195000Y-86178780D01*
X161409000Y-86138780D02*
X167851000Y-86138780D01*
X170731000Y-86138780D02*
X177173000Y-86138780D01*
X161432000Y-86098780D02*
X167851000Y-86098780D01*
X170731000Y-86098780D02*
X177150000Y-86098780D01*
X161456000Y-86058780D02*
X167851000Y-86058780D01*
X170731000Y-86058780D02*
X177126000Y-86058780D01*
X161479000Y-86018780D02*
X167851000Y-86018780D01*
X170731000Y-86018780D02*
X177103000Y-86018780D01*
X161503000Y-85978780D02*
X167851000Y-85978780D01*
X170731000Y-85978780D02*
X177079000Y-85978780D01*
X161527000Y-85938780D02*
X167851000Y-85938780D01*
X170731000Y-85938780D02*
X177055000Y-85938780D01*
X161551000Y-85898780D02*
X167851000Y-85898780D01*
X170731000Y-85898780D02*
X177031000Y-85898780D01*
X161576000Y-85858780D02*
X167851000Y-85858780D01*
X170731000Y-85858780D02*
X177006000Y-85858780D01*
X161601000Y-85818780D02*
X167851000Y-85818780D01*
X170731000Y-85818780D02*
X176981000Y-85818780D01*
X161626000Y-85778780D02*
X167851000Y-85778780D01*
X170731000Y-85778780D02*
X176956000Y-85778780D01*
X161651000Y-85738780D02*
X167851000Y-85738780D01*
X170731000Y-85738780D02*
X176931000Y-85738780D01*
X161677000Y-85698780D02*
X167851000Y-85698780D01*
X170731000Y-85698780D02*
X176905000Y-85698780D01*
X161703000Y-85658780D02*
X167851000Y-85658780D01*
X170731000Y-85658780D02*
X176879000Y-85658780D01*
X161730000Y-85618780D02*
X167851000Y-85618780D01*
X170731000Y-85618780D02*
X176852000Y-85618780D01*
X161756000Y-85578780D02*
X167851000Y-85578780D01*
X170731000Y-85578780D02*
X176826000Y-85578780D01*
X161783000Y-85538780D02*
X167851000Y-85538780D01*
X170731000Y-85538780D02*
X176799000Y-85538780D01*
X161811000Y-85498780D02*
X167851000Y-85498780D01*
X170731000Y-85498780D02*
X176771000Y-85498780D01*
X161838000Y-85458780D02*
X176744000Y-85458780D01*
X161866000Y-85418780D02*
X176716000Y-85418780D01*
X161894000Y-85378780D02*
X176688000Y-85378780D01*
X161923000Y-85338780D02*
X176659000Y-85338780D01*
X161952000Y-85298780D02*
X176630000Y-85298780D01*
X161981000Y-85258780D02*
X176601000Y-85258780D01*
X162011000Y-85218780D02*
X176571000Y-85218780D01*
X162041000Y-85178780D02*
X176541000Y-85178780D01*
X162071000Y-85138780D02*
X176511000Y-85138780D01*
X162101000Y-85098780D02*
X176481000Y-85098780D01*
X162132000Y-85058780D02*
X176450000Y-85058780D01*
X162164000Y-85018780D02*
X176418000Y-85018780D01*
X162195000Y-84978780D02*
X176387000Y-84978780D01*
X162227000Y-84938780D02*
X176355000Y-84938780D01*
X162260000Y-84898780D02*
X176322000Y-84898780D01*
X162292000Y-84858780D02*
X176290000Y-84858780D01*
X162326000Y-84818780D02*
X176256000Y-84818780D01*
X162359000Y-84778780D02*
X176223000Y-84778780D01*
X162393000Y-84738780D02*
X176189000Y-84738780D01*
X162427000Y-84698780D02*
X176155000Y-84698780D01*
X162462000Y-84658780D02*
X176120000Y-84658780D01*
X162497000Y-84618780D02*
X176085000Y-84618780D01*
X162533000Y-84578780D02*
X176049000Y-84578780D01*
X162569000Y-84538780D02*
X176013000Y-84538780D01*
X162605000Y-84498780D02*
X175977000Y-84498780D01*
X162642000Y-84458780D02*
X175940000Y-84458780D01*
X162679000Y-84418780D02*
X175903000Y-84418780D01*
X162717000Y-84378780D02*
X175865000Y-84378780D01*
X162755000Y-84338780D02*
X175827000Y-84338780D01*
X162794000Y-84298780D02*
X175788000Y-84298780D01*
X162833000Y-84258780D02*
X175749000Y-84258780D01*
X162873000Y-84218780D02*
X175709000Y-84218780D01*
X162913000Y-84178780D02*
X175669000Y-84178780D01*
X162954000Y-84138780D02*
X175628000Y-84138780D01*
X162995000Y-84098780D02*
X175587000Y-84098780D01*
X163037000Y-84058780D02*
X175545000Y-84058780D01*
X163079000Y-84018780D02*
X175503000Y-84018780D01*
X163121000Y-83978780D02*
X175461000Y-83978780D01*
X163165000Y-83938780D02*
X175417000Y-83938780D01*
X163209000Y-83898780D02*
X175373000Y-83898780D01*
X163253000Y-83858780D02*
X175329000Y-83858780D01*
X163298000Y-83818780D02*
X175284000Y-83818780D01*
X163344000Y-83778780D02*
X175238000Y-83778780D01*
X163390000Y-83738780D02*
X175192000Y-83738780D01*
X163437000Y-83698780D02*
X175145000Y-83698780D01*
X163485000Y-83658780D02*
X175097000Y-83658780D01*
X163533000Y-83618780D02*
X175049000Y-83618780D01*
X163582000Y-83578780D02*
X175000000Y-83578780D01*
X163631000Y-83538780D02*
X174951000Y-83538780D01*
X163682000Y-83498780D02*
X174900000Y-83498780D01*
X163733000Y-83458780D02*
X174849000Y-83458780D01*
X163785000Y-83418780D02*
X174797000Y-83418780D01*
X163837000Y-83378780D02*
X174745000Y-83378780D01*
X163891000Y-83338780D02*
X174691000Y-83338780D01*
X163945000Y-83298780D02*
X174637000Y-83298780D01*
X164000000Y-83258780D02*
X174582000Y-83258780D01*
X164056000Y-83218780D02*
X174526000Y-83218780D01*
X164113000Y-83178780D02*
X174469000Y-83178780D01*
X164171000Y-83138780D02*
X174411000Y-83138780D01*
X164229000Y-83098780D02*
X174353000Y-83098780D01*
X164289000Y-83058780D02*
X174293000Y-83058780D01*
X164350000Y-83018780D02*
X174232000Y-83018780D01*
X164412000Y-82978780D02*
X174170000Y-82978780D01*
X164475000Y-82938780D02*
X174107000Y-82938780D01*
X164539000Y-82898780D02*
X174043000Y-82898780D01*
X164605000Y-82858780D02*
X173977000Y-82858780D01*
X164671000Y-82818780D02*
X173911000Y-82818780D01*
X164739000Y-82778780D02*
X173843000Y-82778780D01*
X164809000Y-82738780D02*
X173773000Y-82738780D01*
X164879000Y-82698780D02*
X173703000Y-82698780D01*
X164952000Y-82658780D02*
X173630000Y-82658780D01*
X165026000Y-82618780D02*
X173556000Y-82618780D01*
X165101000Y-82578780D02*
X173481000Y-82578780D01*
X165178000Y-82538780D02*
X173404000Y-82538780D01*
X165258000Y-82498780D02*
X173324000Y-82498780D01*
X165339000Y-82459780D02*
X173243000Y-82459780D01*
X165422000Y-82419780D02*
X173160000Y-82419780D01*
X165507000Y-82379780D02*
X173075000Y-82379780D01*
X165595000Y-82339780D02*
X172987000Y-82339780D01*
X165686000Y-82299780D02*
X172896000Y-82299780D01*
X165779000Y-82259780D02*
X172803000Y-82259780D01*
X165875000Y-82219780D02*
X172707000Y-82219780D01*
X165974000Y-82179780D02*
X172608000Y-82179780D01*
X166077000Y-82139780D02*
X172505000Y-82139780D01*
X166184000Y-82099780D02*
X172398000Y-82099780D01*
X166295000Y-82059780D02*
X172287000Y-82059780D01*
X166411000Y-82019780D02*
X172171000Y-82019780D01*
X166532000Y-81979780D02*
X172050000Y-81979780D01*
X166659000Y-81939780D02*
X171923000Y-81939780D01*
X166793000Y-81899780D02*
X171789000Y-81899780D01*
X166936000Y-81859780D02*
X171646000Y-81859780D01*
X167088000Y-81819780D02*
X171494000Y-81819780D01*
X167252000Y-81779780D02*
X171330000Y-81779780D01*
X167431000Y-81739780D02*
X171151000Y-81739780D01*
X167630000Y-81699780D02*
X170952000Y-81699780D01*
X167856000Y-81659780D02*
X170726000Y-81659780D01*
X168125000Y-81619780D02*
X170457000Y-81619780D01*
X168477000Y-81579780D02*
X170105000Y-81579780D01*
X169251000Y-81539780D02*
X169331000Y-81539780D01*
X178411000Y-90659780D02*
G75*
G03*
X178411000Y-90659780I-9120000J0D01*
G01*
%TO.C,330*%
X103220000Y-106309000D02*
X103220000Y-102469000D01*
X105060000Y-106309000D02*
X105060000Y-102469000D01*
%TO.C,10K*%
X158778000Y-101742000D02*
X158778000Y-97902000D01*
X160618000Y-101742000D02*
X160618000Y-97902000D01*
%TO.C,Solenoid*%
X189540000Y-110954000D02*
X189540000Y-109704000D01*
X189250000Y-110664000D02*
X189250000Y-104694000D01*
X189250000Y-104694000D02*
X181630000Y-104694000D01*
X189240000Y-110654000D02*
X189240000Y-109904000D01*
X189240000Y-109904000D02*
X187440000Y-109904000D01*
X189240000Y-108404000D02*
X188490000Y-108404000D01*
X188490000Y-108404000D02*
X188490000Y-105454000D01*
X188490000Y-105454000D02*
X185440000Y-105454000D01*
X188290000Y-110954000D02*
X189540000Y-110954000D01*
X187440000Y-110654000D02*
X189240000Y-110654000D01*
X187440000Y-109904000D02*
X187440000Y-110654000D01*
X185940000Y-110654000D02*
X185940000Y-109904000D01*
X185940000Y-109904000D02*
X184940000Y-109904000D01*
X184940000Y-110654000D02*
X185940000Y-110654000D01*
X184940000Y-109904000D02*
X184940000Y-110654000D01*
X183440000Y-110654000D02*
X183440000Y-109904000D01*
X183440000Y-109904000D02*
X181640000Y-109904000D01*
X182390000Y-108404000D02*
X182390000Y-105454000D01*
X182390000Y-105454000D02*
X185440000Y-105454000D01*
X181640000Y-110654000D02*
X183440000Y-110654000D01*
X181640000Y-109904000D02*
X181640000Y-110654000D01*
X181640000Y-108404000D02*
X182390000Y-108404000D01*
X181630000Y-110664000D02*
X189250000Y-110664000D01*
X181630000Y-104694000D02*
X181630000Y-110664000D01*
%TO.C,D2*%
X183681600Y-85498400D02*
X183681600Y-94638400D01*
X183351600Y-85498400D02*
X183681600Y-85498400D01*
X180071600Y-85498400D02*
X179741600Y-85498400D01*
X179741600Y-85498400D02*
X179741600Y-94638400D01*
X183681600Y-86833400D02*
X179741600Y-86833400D01*
X183681600Y-86953400D02*
X179741600Y-86953400D01*
X183681600Y-87073400D02*
X179741600Y-87073400D01*
X183681600Y-94638400D02*
X183351600Y-94638400D01*
X179741600Y-94638400D02*
X180071600Y-94638400D01*
%TO.C,2K*%
X175880000Y-98394000D02*
X179720000Y-98394000D01*
X175880000Y-100234000D02*
X179720000Y-100234000D01*
%TO.C,D1*%
X191191070Y-99197264D02*
X195761070Y-107112736D01*
X190905282Y-99362264D02*
X191191070Y-99197264D01*
X188064718Y-101002264D02*
X187778930Y-101167264D01*
X187778930Y-101167264D02*
X192348930Y-109082736D01*
X191858570Y-100353408D02*
X188446430Y-102323408D01*
X191918570Y-100457331D02*
X188506430Y-102427331D01*
X191978570Y-100561254D02*
X188566430Y-102531254D01*
X195761070Y-107112736D02*
X195475282Y-107277736D01*
X192348930Y-109082736D02*
X192634718Y-108917736D01*
%TO.C,330*%
X162148000Y-104790000D02*
X162148000Y-100950000D01*
X163988000Y-104790000D02*
X163988000Y-100950000D01*
%TO.C,LED*%
X190082000Y-84226000D02*
X184882000Y-84226000D01*
X190082000Y-84226000D02*
X190082000Y-92856000D01*
X189962000Y-84226000D02*
X189962000Y-92856000D01*
X189843905Y-84226000D02*
X189843905Y-92856000D01*
X189725810Y-84226000D02*
X189725810Y-92856000D01*
X189607715Y-84226000D02*
X189607715Y-92856000D01*
X189489620Y-84226000D02*
X189489620Y-92856000D01*
X189371525Y-84226000D02*
X189371525Y-92856000D01*
X189253430Y-84226000D02*
X189253430Y-92856000D01*
X189135335Y-84226000D02*
X189135335Y-92856000D01*
X189017240Y-84226000D02*
X189017240Y-92856000D01*
X188899145Y-84226000D02*
X188899145Y-92856000D01*
X188781050Y-84226000D02*
X188781050Y-92856000D01*
X188662955Y-84226000D02*
X188662955Y-92856000D01*
X188544860Y-84226000D02*
X188544860Y-92856000D01*
X188426765Y-84226000D02*
X188426765Y-92856000D01*
X188308670Y-84226000D02*
X188308670Y-92856000D01*
X188190575Y-84226000D02*
X188190575Y-92856000D01*
X188072480Y-84226000D02*
X188072480Y-92856000D01*
X187954385Y-84226000D02*
X187954385Y-92856000D01*
X187836290Y-84226000D02*
X187836290Y-92856000D01*
X187718195Y-84226000D02*
X187718195Y-92856000D01*
X187600100Y-84226000D02*
X187600100Y-92856000D01*
X187482000Y-84226000D02*
X187482000Y-92856000D01*
X184882000Y-84226000D02*
X184882000Y-92856000D01*
X190082000Y-92856000D02*
X184882000Y-92856000D01*
X189112000Y-92856000D02*
X189112000Y-93206000D01*
X188392000Y-92856000D02*
X188392000Y-93206000D01*
X186572000Y-92856000D02*
X186572000Y-93266000D01*
X185852000Y-92856000D02*
X185852000Y-93266000D01*
X190082000Y-94316000D02*
X190082000Y-95426000D01*
X190082000Y-95426000D02*
X188752000Y-95426000D01*
%TO.C,Power*%
X191890444Y-98811092D02*
X193120200Y-98101092D01*
X197750444Y-108960910D02*
X191890444Y-98811092D01*
X193120200Y-98101092D02*
X195370200Y-101998206D01*
X195370200Y-101998206D02*
X197440001Y-100803206D01*
X194002661Y-97949560D02*
X194522277Y-97649560D01*
X196695963Y-102514494D02*
X199445963Y-107277634D01*
X199445963Y-107277634D02*
X199878975Y-107027634D01*
X194562469Y-98319175D02*
X194002661Y-97949560D01*
X197128975Y-102264494D02*
X196695963Y-102514494D01*
X199878975Y-107027634D02*
X197128975Y-102264494D01*
X194522277Y-97649560D02*
X194562469Y-98319175D01*
X201050001Y-107055910D02*
X197750444Y-108960910D01*
X201050001Y-107055910D02*
X204349558Y-105150910D01*
X198861026Y-101264494D02*
X201611026Y-106027634D01*
X201611026Y-106027634D02*
X202044039Y-105777634D01*
X199294039Y-101014494D02*
X198861026Y-101264494D01*
X202044039Y-105777634D02*
X199294039Y-101014494D01*
X197259801Y-95711092D02*
X199509801Y-99608206D01*
X199509801Y-99608206D02*
X197440001Y-100803206D01*
X198489558Y-95001092D02*
X197259801Y-95711092D01*
X204349558Y-105150910D02*
X198489558Y-95001092D01*
%TO.C,1K*%
X120792000Y-102769000D02*
X116952000Y-102769000D01*
X120792000Y-100929000D02*
X116952000Y-100929000D01*
%TO.C,Touch*%
X89956000Y-99169000D02*
X91376000Y-99169000D01*
X89956000Y-110889000D02*
X89956000Y-99169000D01*
X91376000Y-99169000D02*
X91376000Y-103669000D01*
X91376000Y-103669000D02*
X96266000Y-103669000D01*
X92216000Y-99479000D02*
X92816000Y-99479000D01*
X92266000Y-104779000D02*
X92266000Y-110279000D01*
X92266000Y-110279000D02*
X92766000Y-110279000D01*
X92516000Y-100079000D02*
X92216000Y-99479000D01*
X92766000Y-104779000D02*
X92266000Y-104779000D01*
X92766000Y-110279000D02*
X92766000Y-104779000D01*
X92816000Y-99479000D02*
X92516000Y-100079000D01*
X94766000Y-104779000D02*
X94766000Y-110279000D01*
X94766000Y-110279000D02*
X95266000Y-110279000D01*
X95266000Y-104779000D02*
X94766000Y-104779000D01*
X95266000Y-110279000D02*
X95266000Y-104779000D01*
X96266000Y-110889000D02*
X89956000Y-110889000D01*
X96266000Y-110889000D02*
X102576000Y-110889000D01*
X97266000Y-104779000D02*
X97266000Y-110279000D01*
X97266000Y-110279000D02*
X97766000Y-110279000D01*
X97766000Y-104779000D02*
X97266000Y-104779000D01*
X97766000Y-110279000D02*
X97766000Y-104779000D01*
X99766000Y-104779000D02*
X99766000Y-110279000D01*
X99766000Y-110279000D02*
X100266000Y-110279000D01*
X100266000Y-104779000D02*
X99766000Y-104779000D01*
X100266000Y-110279000D02*
X100266000Y-104779000D01*
X101156000Y-99169000D02*
X101156000Y-103669000D01*
X101156000Y-103669000D02*
X96266000Y-103669000D01*
X102576000Y-99169000D02*
X101156000Y-99169000D01*
X102576000Y-110889000D02*
X102576000Y-99169000D01*
%TD*%
M02*
