%TF.GenerationSoftware,KiCad,Pcbnew,7.0.9*%
%TF.CreationDate,2024-01-11T17:23:10+09:00*%
%TF.ProjectId,KickerBoard,4b69636b-6572-4426-9f61-72642e6b6963,rev?*%
%TF.SameCoordinates,Original*%
%TF.FileFunction,Soldermask,Bot*%
%TF.FilePolarity,Negative*%
%FSLAX46Y46*%
G04 Gerber Fmt 4.6, Leading zero omitted, Abs format (unit mm)*
G04 Created by KiCad (PCBNEW 7.0.9) date 2024-01-11 17:23:10*
%MOMM*%
%LPD*%
G01*
G04 APERTURE LIST*
G04 Aperture macros list*
%AMRoundRect*
0 Rectangle with rounded corners*
0 $1 Rounding radius*
0 $2 $3 $4 $5 $6 $7 $8 $9 X,Y pos of 4 corners*
0 Add a 4 corners polygon primitive as box body*
4,1,4,$2,$3,$4,$5,$6,$7,$8,$9,$2,$3,0*
0 Add four circle primitives for the rounded corners*
1,1,$1+$1,$2,$3*
1,1,$1+$1,$4,$5*
1,1,$1+$1,$6,$7*
1,1,$1+$1,$8,$9*
0 Add four rect primitives between the rounded corners*
20,1,$1+$1,$2,$3,$4,$5,0*
20,1,$1+$1,$4,$5,$6,$7,0*
20,1,$1+$1,$6,$7,$8,$9,0*
20,1,$1+$1,$8,$9,$2,$3,0*%
%AMHorizOval*
0 Thick line with rounded ends*
0 $1 width*
0 $2 $3 position (X,Y) of the first rounded end (center of the circle)*
0 $4 $5 position (X,Y) of the second rounded end (center of the circle)*
0 Add line between two ends*
20,1,$1,$2,$3,$4,$5,0*
0 Add two circle primitives to create the rounded ends*
1,1,$1,$2,$3*
1,1,$1,$4,$5*%
%AMRotRect*
0 Rectangle, with rotation*
0 The origin of the aperture is its center*
0 $1 length*
0 $2 width*
0 $3 Rotation angle, in degrees counterclockwise*
0 Add horizontal line*
21,1,$1,$2,0,0,$3*%
G04 Aperture macros list end*
%ADD10R,1.700000X1.700000*%
%ADD11O,1.700000X1.700000*%
%ADD12RoundRect,0.250000X-0.882115X-0.327868X0.157115X-0.927868X0.882115X0.327868X-0.157115X0.927868X0*%
%ADD13HorizOval,1.700000X-0.062500X-0.108253X0.062500X0.108253X0*%
%ADD14C,2.600000*%
%ADD15R,1.600000X1.600000*%
%ADD16O,1.600000X1.600000*%
%ADD17C,2.200000*%
%ADD18C,3.200000*%
%ADD19C,1.400000*%
%ADD20O,1.400000X1.400000*%
%ADD21R,2.400000X2.400000*%
%ADD22C,2.400000*%
%ADD23O,2.400000X2.400000*%
%ADD24RoundRect,0.250000X0.600000X0.750000X-0.600000X0.750000X-0.600000X-0.750000X0.600000X-0.750000X0*%
%ADD25O,1.700000X2.000000*%
%ADD26R,2.800000X2.800000*%
%ADD27O,2.800000X2.800000*%
%ADD28RotRect,2.800000X2.800000X300.000000*%
%ADD29HorizOval,2.800000X0.000000X0.000000X0.000000X0.000000X0*%
%ADD30RoundRect,0.250000X-0.144615X-0.949519X0.894615X-0.349519X0.144615X0.949519X-0.894615X0.349519X0*%
%ADD31HorizOval,1.700000X-0.075000X0.129904X0.075000X-0.129904X0*%
%ADD32RoundRect,0.250000X-0.600000X-0.725000X0.600000X-0.725000X0.600000X0.725000X-0.600000X0.725000X0*%
%ADD33O,1.700000X1.950000*%
G04 APERTURE END LIST*
D10*
%TO.C,PhotoIC*%
X98338000Y-94316000D03*
D11*
X95798000Y-94316000D03*
X93258000Y-94316000D03*
X90718000Y-94316000D03*
%TD*%
D12*
%TO.C,Signal*%
X81982937Y-98378213D03*
D13*
X84148001Y-99628213D03*
X86313064Y-100878213D03*
%TD*%
D14*
%TO.C,NMOS*%
X147701000Y-106934000D03*
X142621000Y-106934000D03*
X152781000Y-106934000D03*
%TD*%
D15*
%TO.C,U1*%
X106436000Y-101849000D03*
D16*
X106436000Y-104389000D03*
X114056000Y-104389000D03*
X114056000Y-101849000D03*
%TD*%
D17*
%TO.C,REF\u002A\u002A*%
X122224800Y-108000800D03*
%TD*%
D18*
%TO.C,REF\u002A\u002A*%
X131724400Y-86614000D03*
%TD*%
D19*
%TO.C,330*%
X157412000Y-97282000D03*
D20*
X157412000Y-102362000D03*
%TD*%
D19*
%TO.C,(1K)*%
X180340000Y-103886000D03*
D20*
X175260000Y-103886000D03*
%TD*%
D21*
%TO.C,C2*%
X110109000Y-94368000D03*
D22*
X110109000Y-86868000D03*
%TD*%
%TO.C,1*%
X179730400Y-108508800D03*
D23*
X164490400Y-108508800D03*
%TD*%
D19*
%TO.C,2K*%
X116332000Y-104394000D03*
D20*
X121412000Y-104394000D03*
%TD*%
D14*
%TO.C,PMOS*%
X131699000Y-106934000D03*
X126619000Y-106934000D03*
X136779000Y-106934000D03*
%TD*%
D19*
%TO.C,1K*%
X180340000Y-101600000D03*
D20*
X175260000Y-101600000D03*
%TD*%
D15*
%TO.C,U2*%
X165364000Y-101849000D03*
D16*
X165364000Y-104389000D03*
X172984000Y-104389000D03*
X172984000Y-101849000D03*
%TD*%
D17*
%TO.C,REF\u002A\u002A*%
X198424800Y-79908400D03*
%TD*%
D21*
%TO.C,C1*%
X169291000Y-94409780D03*
D22*
X169291000Y-86909780D03*
%TD*%
D19*
%TO.C,330*%
X104140000Y-106929000D03*
D20*
X104140000Y-101849000D03*
%TD*%
D17*
%TO.C,REF\u002A\u002A*%
X80975200Y-79908400D03*
%TD*%
%TO.C,REF\u002A\u002A*%
X157175200Y-108000800D03*
%TD*%
D19*
%TO.C,10K*%
X159698000Y-102362000D03*
D20*
X159698000Y-97282000D03*
%TD*%
D18*
%TO.C,REF\u002A\u002A*%
X147675600Y-86614000D03*
%TD*%
D24*
%TO.C,Solenoid*%
X186690000Y-108204000D03*
D25*
X184190000Y-108204000D03*
%TD*%
D26*
%TO.C,D2*%
X181711600Y-84988400D03*
D27*
X181711600Y-95148400D03*
%TD*%
D19*
%TO.C,2K*%
X175260000Y-99314000D03*
D20*
X180340000Y-99314000D03*
%TD*%
D28*
%TO.C,D1*%
X189230000Y-99740591D03*
D29*
X194310000Y-108539409D03*
%TD*%
D19*
%TO.C,330*%
X163068000Y-105410000D03*
D20*
X163068000Y-100330000D03*
%TD*%
D10*
%TO.C,LED*%
X188752000Y-94316000D03*
D11*
X186212000Y-94316000D03*
%TD*%
D30*
%TO.C,Power*%
X195312469Y-99618213D03*
D31*
X197477533Y-98368213D03*
%TD*%
D19*
%TO.C,1K*%
X121412000Y-101849000D03*
D20*
X116332000Y-101849000D03*
%TD*%
D32*
%TO.C,Touch*%
X92516000Y-101579000D03*
D33*
X95016000Y-101579000D03*
X97516000Y-101579000D03*
X100016000Y-101579000D03*
%TD*%
M02*
