%TF.GenerationSoftware,KiCad,Pcbnew,7.0.9*%
%TF.CreationDate,2024-01-11T17:23:22+09:00*%
%TF.ProjectId,KickerBoard,4b69636b-6572-4426-9f61-72642e6b6963,rev?*%
%TF.SameCoordinates,Original*%
%TF.FileFunction,Drillmap*%
%TF.FilePolarity,Positive*%
%FSLAX45Y45*%
G04 Gerber Fmt 4.5, Leading zero omitted, Abs format (unit mm)*
G04 Created by KiCad (PCBNEW 7.0.9) date 2024-01-11 17:23:22*
%MOMM*%
%LPD*%
G01*
G04 APERTURE LIST*
%ADD10C,0.200000*%
%ADD11C,0.100000*%
%ADD12C,0.120000*%
%ADD13C,0.140000*%
%ADD14C,0.160000*%
G04 APERTURE END LIST*
D10*
X19610490Y-8469415D02*
X19990875Y-8249800D01*
X19353717Y-11099799D02*
G75*
G03*
X19503717Y-11059608I3J299999D01*
G01*
X8209125Y-7989992D02*
G75*
G03*
X8209125Y-7989992I-110000J0D01*
G01*
X8586283Y-11099800D02*
X19353717Y-11099800D01*
X19950875Y-7989992D02*
G75*
G03*
X19950875Y-7989992I-110000J0D01*
G01*
X8439314Y-8879221D02*
G75*
G03*
X8329510Y-8469415I-259804J150001D01*
G01*
X8436284Y-11059607D02*
G75*
G03*
X8586283Y-11099800I149996J259787D01*
G01*
X20185769Y-10665827D02*
G75*
G03*
X20295575Y-10256018I-149999J259807D01*
G01*
X18970298Y-8099799D02*
G75*
G03*
X19120298Y-8059607I2J299999D01*
G01*
X19503717Y-11059608D02*
X20185768Y-10665826D01*
X8819703Y-8059606D02*
G75*
G03*
X8969702Y-8099800I149997J259786D01*
G01*
X19690875Y-7730185D02*
X19120298Y-8059608D01*
X18970298Y-8099800D02*
X8969702Y-8099800D01*
X7754232Y-10665826D02*
X8436283Y-11059608D01*
X8249125Y-7730184D02*
G75*
G03*
X7949125Y-8249800I-150001J-259808D01*
G01*
X7644426Y-10256019D02*
G75*
G03*
X7754232Y-10665826I259804J-150001D01*
G01*
X15830000Y-10799800D02*
G75*
G03*
X15830000Y-10799800I-110000J0D01*
G01*
X19610488Y-8469412D02*
G75*
G03*
X19500682Y-8879223I150002J-259808D01*
G01*
X8819702Y-8059608D02*
X8249125Y-7730185D01*
X12330000Y-10799800D02*
G75*
G03*
X12330000Y-10799800I-110000J0D01*
G01*
X20295575Y-10256018D02*
X19500682Y-8879223D01*
X19990870Y-8249792D02*
G75*
G03*
X19690875Y-7730185I-150000J259802D01*
G01*
X7949125Y-8249800D02*
X8329510Y-8469415D01*
X8439318Y-8879223D02*
X7644425Y-10256018D01*
D11*
X7711760Y-10429560D02*
X7751760Y-10469560D01*
X7751760Y-10429560D02*
X7711760Y-10469560D01*
X8179120Y-9423720D02*
X8219120Y-9463720D01*
X8219120Y-9423720D02*
X8179120Y-9463720D01*
X8422960Y-10145080D02*
X8462960Y-10185080D01*
X8462960Y-10145080D02*
X8422960Y-10185080D01*
X8499160Y-9764080D02*
X8539160Y-9804080D01*
X8539160Y-9764080D02*
X8499160Y-9804080D01*
X8514400Y-11003600D02*
X8554400Y-11043600D01*
X8554400Y-11003600D02*
X8514400Y-11043600D01*
X8676960Y-10820720D02*
X8716960Y-10860720D01*
X8716960Y-10820720D02*
X8676960Y-10860720D01*
X8732840Y-8920800D02*
X8772840Y-8960800D01*
X8772840Y-8920800D02*
X8732840Y-8960800D01*
X8854760Y-10038400D02*
X8894760Y-10078400D01*
X8894760Y-10038400D02*
X8854760Y-10078400D01*
X8885240Y-10358440D02*
X8925240Y-10398440D01*
X8925240Y-10358440D02*
X8885240Y-10398440D01*
X8905560Y-8148640D02*
X8945560Y-8188640D01*
X8945560Y-8148640D02*
X8905560Y-8188640D01*
X9251000Y-9647240D02*
X9291000Y-9687240D01*
X9291000Y-9647240D02*
X9251000Y-9687240D01*
X9306880Y-9200200D02*
X9346880Y-9240200D01*
X9346880Y-9200200D02*
X9306880Y-9240200D01*
X9489760Y-9926640D02*
X9529760Y-9966640D01*
X9529760Y-9926640D02*
X9489760Y-9966640D01*
X9515160Y-8468680D02*
X9555160Y-8508680D01*
X9555160Y-8468680D02*
X9515160Y-8508680D01*
X9586280Y-10922320D02*
X9626280Y-10962320D01*
X9626280Y-10922320D02*
X9586280Y-10962320D01*
X9652320Y-8976680D02*
X9692320Y-9016680D01*
X9692320Y-8976680D02*
X9652320Y-9016680D01*
X9784400Y-9606600D02*
X9824400Y-9646600D01*
X9824400Y-9606600D02*
X9784400Y-9646600D01*
X9982520Y-9921560D02*
X10022520Y-9961560D01*
X10022520Y-9921560D02*
X9982520Y-9961560D01*
X10211120Y-9057960D02*
X10251120Y-9097960D01*
X10251120Y-9057960D02*
X10211120Y-9097960D01*
X10216200Y-9657400D02*
X10256200Y-9697400D01*
X10256200Y-9657400D02*
X10216200Y-9697400D01*
X10500680Y-8138480D02*
X10540680Y-8178480D01*
X10540680Y-8138480D02*
X10500680Y-8178480D01*
X10521000Y-10800400D02*
X10561000Y-10840400D01*
X10561000Y-10800400D02*
X10521000Y-10840400D01*
X10673400Y-9428800D02*
X10713400Y-9468800D01*
X10713400Y-9428800D02*
X10673400Y-9468800D01*
X10744520Y-8666800D02*
X10784520Y-8706800D01*
X10784520Y-8666800D02*
X10744520Y-8706800D01*
X10754680Y-11029000D02*
X10794680Y-11069000D01*
X10794680Y-11029000D02*
X10754680Y-11069000D01*
X10764840Y-10587040D02*
X10804840Y-10627040D01*
X10804840Y-10587040D02*
X10764840Y-10627040D01*
X10988360Y-8417880D02*
X11028360Y-8457880D01*
X11028360Y-8417880D02*
X10988360Y-8457880D01*
X10993440Y-8905560D02*
X11033440Y-8945560D01*
X11033440Y-8905560D02*
X10993440Y-8945560D01*
X10998520Y-9698040D02*
X11038520Y-9738040D01*
X11038520Y-9698040D02*
X10998520Y-9738040D01*
X11003600Y-10292400D02*
X11043600Y-10332400D01*
X11043600Y-10292400D02*
X11003600Y-10332400D01*
X11049320Y-10876600D02*
X11089320Y-10916600D01*
X11089320Y-10876600D02*
X11049320Y-10916600D01*
X11232200Y-8671880D02*
X11272200Y-8711880D01*
X11272200Y-8671880D02*
X11232200Y-8711880D01*
X11283000Y-9378000D02*
X11323000Y-9418000D01*
X11323000Y-9378000D02*
X11283000Y-9418000D01*
X11410000Y-9187500D02*
X11450000Y-9227500D01*
X11450000Y-9187500D02*
X11410000Y-9227500D01*
X11516680Y-9987600D02*
X11556680Y-10027600D01*
X11556680Y-9987600D02*
X11516680Y-10027600D01*
X11537000Y-9378000D02*
X11577000Y-9418000D01*
X11577000Y-9378000D02*
X11537000Y-9418000D01*
X11664000Y-9187500D02*
X11704000Y-9227500D01*
X11704000Y-9187500D02*
X11664000Y-9227500D01*
X11791000Y-9378000D02*
X11831000Y-9418000D01*
X11831000Y-9378000D02*
X11791000Y-9418000D01*
X11857040Y-10581960D02*
X11897040Y-10621960D01*
X11897040Y-10581960D02*
X11857040Y-10621960D01*
X11907840Y-10871520D02*
X11947840Y-10911520D01*
X11947840Y-10871520D02*
X11907840Y-10911520D01*
X11918000Y-9187500D02*
X11958000Y-9227500D01*
X11958000Y-9187500D02*
X11918000Y-9227500D01*
X11923080Y-9779320D02*
X11963080Y-9819320D01*
X11963080Y-9779320D02*
X11923080Y-9819320D01*
X12045000Y-9378000D02*
X12085000Y-9418000D01*
X12085000Y-9378000D02*
X12045000Y-9418000D01*
X12105960Y-8631240D02*
X12145960Y-8671240D01*
X12145960Y-8631240D02*
X12105960Y-8671240D01*
X12172000Y-9187500D02*
X12212000Y-9227500D01*
X12212000Y-9187500D02*
X12172000Y-9227500D01*
X12299000Y-9378000D02*
X12339000Y-9418000D01*
X12339000Y-9378000D02*
X12299000Y-9418000D01*
X12319320Y-10434640D02*
X12359320Y-10474640D01*
X12359320Y-10434640D02*
X12319320Y-10474640D01*
X12426000Y-9187500D02*
X12466000Y-9227500D01*
X12466000Y-9187500D02*
X12426000Y-9227500D01*
X12553000Y-9378000D02*
X12593000Y-9418000D01*
X12593000Y-9378000D02*
X12553000Y-9418000D01*
X12649520Y-9677720D02*
X12689520Y-9717720D01*
X12689520Y-9677720D02*
X12649520Y-9717720D01*
X12680000Y-9187500D02*
X12720000Y-9227500D01*
X12720000Y-9187500D02*
X12680000Y-9227500D01*
X12807000Y-9378000D02*
X12847000Y-9418000D01*
X12847000Y-9378000D02*
X12807000Y-9418000D01*
X12857800Y-9911400D02*
X12897800Y-9951400D01*
X12897800Y-9911400D02*
X12857800Y-9951400D01*
X12883200Y-10698800D02*
X12923200Y-10738800D01*
X12923200Y-10698800D02*
X12883200Y-10738800D01*
X12934000Y-9187500D02*
X12974000Y-9227500D01*
X12974000Y-9187500D02*
X12934000Y-9227500D01*
X13061000Y-9378000D02*
X13101000Y-9418000D01*
X13101000Y-9378000D02*
X13061000Y-9418000D01*
X13188000Y-9187500D02*
X13228000Y-9227500D01*
X13228000Y-9187500D02*
X13188000Y-9227500D01*
X13315000Y-9378000D02*
X13355000Y-9418000D01*
X13355000Y-9378000D02*
X13315000Y-9418000D01*
X13406440Y-9916480D02*
X13446440Y-9956480D01*
X13446440Y-9916480D02*
X13406440Y-9956480D01*
X13411520Y-10698800D02*
X13451520Y-10738800D01*
X13451520Y-10698800D02*
X13411520Y-10738800D01*
X13442000Y-9187500D02*
X13482000Y-9227500D01*
X13482000Y-9187500D02*
X13442000Y-9227500D01*
X13569000Y-9378000D02*
X13609000Y-9418000D01*
X13609000Y-9378000D02*
X13569000Y-9418000D01*
X13629960Y-9682800D02*
X13669960Y-9722800D01*
X13669960Y-9682800D02*
X13629960Y-9722800D01*
X13696000Y-9187500D02*
X13736000Y-9227500D01*
X13736000Y-9187500D02*
X13696000Y-9227500D01*
X13823000Y-9378000D02*
X13863000Y-9418000D01*
X13863000Y-9378000D02*
X13823000Y-9418000D01*
X13889040Y-9916480D02*
X13929040Y-9956480D01*
X13929040Y-9916480D02*
X13889040Y-9956480D01*
X13950000Y-9187500D02*
X13990000Y-9227500D01*
X13990000Y-9187500D02*
X13950000Y-9227500D01*
X13950000Y-10698800D02*
X13990000Y-10738800D01*
X13990000Y-10698800D02*
X13950000Y-10738800D01*
X13960160Y-8641400D02*
X14000160Y-8681400D01*
X14000160Y-8641400D02*
X13960160Y-8681400D01*
X14077000Y-9378000D02*
X14117000Y-9418000D01*
X14117000Y-9378000D02*
X14077000Y-9418000D01*
X14198920Y-9682800D02*
X14238920Y-9722800D01*
X14238920Y-9682800D02*
X14198920Y-9722800D01*
X14204000Y-9187500D02*
X14244000Y-9227500D01*
X14244000Y-9187500D02*
X14204000Y-9227500D01*
X14331000Y-9378000D02*
X14371000Y-9418000D01*
X14371000Y-9378000D02*
X14331000Y-9418000D01*
X14458000Y-9187500D02*
X14498000Y-9227500D01*
X14498000Y-9187500D02*
X14458000Y-9227500D01*
X14498640Y-10688640D02*
X14538640Y-10728640D01*
X14538640Y-10688640D02*
X14498640Y-10728640D01*
X14585000Y-9378000D02*
X14625000Y-9418000D01*
X14625000Y-9378000D02*
X14585000Y-9418000D01*
X14712000Y-9187500D02*
X14752000Y-9227500D01*
X14752000Y-9187500D02*
X14712000Y-9227500D01*
X14839000Y-9378000D02*
X14879000Y-9418000D01*
X14879000Y-9378000D02*
X14839000Y-9418000D01*
X14849160Y-9682800D02*
X14889160Y-9722800D01*
X14889160Y-9682800D02*
X14849160Y-9722800D01*
X14966000Y-9187500D02*
X15006000Y-9227500D01*
X15006000Y-9187500D02*
X14966000Y-9227500D01*
X15016800Y-10876600D02*
X15056800Y-10916600D01*
X15056800Y-10876600D02*
X15016800Y-10916600D01*
X15093000Y-9378000D02*
X15133000Y-9418000D01*
X15133000Y-9378000D02*
X15093000Y-9418000D01*
X15220000Y-9187500D02*
X15260000Y-9227500D01*
X15260000Y-9187500D02*
X15220000Y-9227500D01*
X15347000Y-9378000D02*
X15387000Y-9418000D01*
X15387000Y-9378000D02*
X15347000Y-9418000D01*
X15474000Y-9187500D02*
X15514000Y-9227500D01*
X15514000Y-9187500D02*
X15474000Y-9227500D01*
X15509560Y-9682800D02*
X15549560Y-9722800D01*
X15549560Y-9682800D02*
X15509560Y-9722800D01*
X15560360Y-8631240D02*
X15600360Y-8671240D01*
X15600360Y-8631240D02*
X15560360Y-8671240D01*
X15601000Y-9378000D02*
X15641000Y-9418000D01*
X15641000Y-9378000D02*
X15601000Y-9418000D01*
X15728000Y-9187500D02*
X15768000Y-9227500D01*
X15768000Y-9187500D02*
X15728000Y-9227500D01*
X15855000Y-9378000D02*
X15895000Y-9418000D01*
X15895000Y-9378000D02*
X15855000Y-9418000D01*
X15982000Y-9187500D02*
X16022000Y-9227500D01*
X16022000Y-9187500D02*
X15982000Y-9227500D01*
X16109000Y-9378000D02*
X16149000Y-9418000D01*
X16149000Y-9378000D02*
X16109000Y-9418000D01*
X16124240Y-10363520D02*
X16164240Y-10403520D01*
X16164240Y-10363520D02*
X16124240Y-10403520D01*
X16129320Y-10129840D02*
X16169320Y-10169840D01*
X16169320Y-10129840D02*
X16129320Y-10169840D01*
X16222050Y-9703000D02*
X16262050Y-9743000D01*
X16262050Y-9703000D02*
X16222050Y-9743000D01*
X16236000Y-9187500D02*
X16276000Y-9227500D01*
X16276000Y-9187500D02*
X16236000Y-9227500D01*
X16312200Y-9703000D02*
X16352200Y-9743000D01*
X16352200Y-9703000D02*
X16312200Y-9743000D01*
X16357920Y-10317800D02*
X16397920Y-10357800D01*
X16397920Y-10317800D02*
X16357920Y-10357800D01*
X16363000Y-9378000D02*
X16403000Y-9418000D01*
X16403000Y-9378000D02*
X16363000Y-9418000D01*
X16401100Y-9703000D02*
X16441100Y-9743000D01*
X16441100Y-9703000D02*
X16401100Y-9743000D01*
X16454440Y-10602280D02*
X16494440Y-10642280D01*
X16494440Y-10602280D02*
X16454440Y-10642280D01*
X16490000Y-9187500D02*
X16530000Y-9227500D01*
X16530000Y-9187500D02*
X16490000Y-9227500D01*
X16490000Y-9703120D02*
X16530000Y-9743120D01*
X16530000Y-9703120D02*
X16490000Y-9743120D01*
X16580150Y-9703120D02*
X16620150Y-9743120D01*
X16620150Y-9703120D02*
X16580150Y-9743120D01*
X16617000Y-9378000D02*
X16657000Y-9418000D01*
X16657000Y-9378000D02*
X16617000Y-9418000D01*
X16642400Y-10988360D02*
X16682400Y-11028360D01*
X16682400Y-10988360D02*
X16642400Y-11028360D01*
X16667800Y-8671880D02*
X16707800Y-8711880D01*
X16707800Y-8671880D02*
X16667800Y-8711880D01*
X16669050Y-9703120D02*
X16709050Y-9743120D01*
X16709050Y-9703120D02*
X16669050Y-9743120D01*
X16672880Y-10414320D02*
X16712880Y-10454320D01*
X16712880Y-10414320D02*
X16672880Y-10454320D01*
X16906560Y-8905560D02*
X16946560Y-8945560D01*
X16946560Y-8905560D02*
X16906560Y-8945560D01*
X16911640Y-8438200D02*
X16951640Y-8478200D01*
X16951640Y-8438200D02*
X16911640Y-8478200D01*
X17119920Y-9210158D02*
X17159920Y-9250158D01*
X17159920Y-9210158D02*
X17119920Y-9250158D01*
X17133200Y-10668900D02*
X17173200Y-10708900D01*
X17173200Y-10668900D02*
X17133200Y-10708900D01*
X17145320Y-8676960D02*
X17185320Y-8716960D01*
X17185320Y-8676960D02*
X17145320Y-8716960D01*
X17241840Y-9484680D02*
X17281840Y-9524680D01*
X17281840Y-9484680D02*
X17241840Y-9524680D01*
X17343440Y-8986638D02*
X17383440Y-9026638D01*
X17383440Y-8986638D02*
X17343440Y-9026638D01*
X17349100Y-10668900D02*
X17389100Y-10708900D01*
X17389100Y-10668900D02*
X17349100Y-10708900D01*
X17552300Y-10668900D02*
X17592300Y-10708900D01*
X17592300Y-10668900D02*
X17552300Y-10708900D01*
X17597238Y-8732840D02*
X17637238Y-8772840D01*
X17637238Y-8732840D02*
X17597238Y-8772840D01*
X17678720Y-10968040D02*
X17718720Y-11008040D01*
X17718720Y-10968040D02*
X17678720Y-11008040D01*
X17714280Y-10576880D02*
X17754280Y-10616880D01*
X17754280Y-10576880D02*
X17714280Y-10616880D01*
X17749840Y-10018080D02*
X17789840Y-10058080D01*
X17789840Y-10018080D02*
X17749840Y-10058080D01*
X17754920Y-10261920D02*
X17794920Y-10301920D01*
X17794920Y-10261920D02*
X17754920Y-10301920D01*
X17831120Y-8504240D02*
X17871120Y-8544240D01*
X17871120Y-8504240D02*
X17831120Y-8544240D01*
X17856520Y-9489760D02*
X17896520Y-9529760D01*
X17896520Y-9489760D02*
X17856520Y-9529760D01*
X17917480Y-10561640D02*
X17957480Y-10601640D01*
X17957480Y-10561640D02*
X17917480Y-10601640D01*
X17963200Y-8758240D02*
X18003200Y-8798240D01*
X18003200Y-8758240D02*
X17963200Y-8798240D01*
X18104362Y-10560880D02*
X18144362Y-10600880D01*
X18144362Y-10560880D02*
X18104362Y-10600880D01*
X18146080Y-10251760D02*
X18186080Y-10291760D01*
X18186080Y-10251760D02*
X18146080Y-10291760D01*
X18410240Y-9357680D02*
X18450240Y-9397680D01*
X18450240Y-9357680D02*
X18410240Y-9397680D01*
X18415320Y-8494080D02*
X18455320Y-8534080D01*
X18455320Y-8494080D02*
X18415320Y-8534080D01*
X18664240Y-10302560D02*
X18704240Y-10342560D01*
X18704240Y-10302560D02*
X18664240Y-10342560D01*
X18674400Y-8133400D02*
X18714400Y-8173400D01*
X18714400Y-8133400D02*
X18674400Y-8173400D01*
X18699800Y-8763320D02*
X18739800Y-8803320D01*
X18739800Y-8763320D02*
X18699800Y-8803320D01*
X18826800Y-10515920D02*
X18866800Y-10555920D01*
X18866800Y-10515920D02*
X18826800Y-10555920D01*
X18994440Y-8138480D02*
X19034440Y-8178480D01*
X19034440Y-8138480D02*
X18994440Y-8178480D01*
X19080800Y-10968040D02*
X19120800Y-11008040D01*
X19120800Y-10968040D02*
X19080800Y-11008040D01*
X19106200Y-10160320D02*
X19146200Y-10200320D01*
X19146200Y-10160320D02*
X19106200Y-10200320D01*
X19151920Y-9733600D02*
X19191920Y-9773600D01*
X19191920Y-9733600D02*
X19151920Y-9773600D01*
X19233200Y-9022400D02*
X19273200Y-9062400D01*
X19273200Y-9022400D02*
X19233200Y-9062400D01*
X19421160Y-10399080D02*
X19461160Y-10439080D01*
X19461160Y-10399080D02*
X19421160Y-10439080D01*
X19421160Y-10551480D02*
X19461160Y-10591480D01*
X19461160Y-10551480D02*
X19421160Y-10591480D01*
X19423700Y-10140000D02*
X19463700Y-10180000D01*
X19463700Y-10140000D02*
X19423700Y-10180000D01*
X19423700Y-10269540D02*
X19463700Y-10309540D01*
X19463700Y-10269540D02*
X19423700Y-10309540D01*
X19609120Y-9621840D02*
X19649120Y-9661840D01*
X19649120Y-9621840D02*
X19609120Y-9661840D01*
X19715800Y-10800400D02*
X19755800Y-10840400D01*
X19755800Y-10800400D02*
X19715800Y-10840400D01*
X19832640Y-10013000D02*
X19872640Y-10053000D01*
X19872640Y-10013000D02*
X19832640Y-10053000D01*
X20208560Y-10424480D02*
X20248560Y-10464480D01*
X20248560Y-10424480D02*
X20208560Y-10464480D01*
X10449000Y-10184900D02*
G75*
G03*
X10449000Y-10184900I-35000J0D01*
G01*
X10449000Y-10692900D02*
G75*
G03*
X10449000Y-10692900I-35000J0D01*
G01*
X11668200Y-10184900D02*
G75*
G03*
X11668200Y-10184900I-35000J0D01*
G01*
X11668200Y-10439400D02*
G75*
G03*
X11668200Y-10439400I-35000J0D01*
G01*
X12176200Y-10184900D02*
G75*
G03*
X12176200Y-10184900I-35000J0D01*
G01*
X12176200Y-10439400D02*
G75*
G03*
X12176200Y-10439400I-35000J0D01*
G01*
X15776200Y-9728200D02*
G75*
G03*
X15776200Y-9728200I-35000J0D01*
G01*
X15776200Y-10236200D02*
G75*
G03*
X15776200Y-10236200I-35000J0D01*
G01*
X16004800Y-9728200D02*
G75*
G03*
X16004800Y-9728200I-35000J0D01*
G01*
X16004800Y-10236200D02*
G75*
G03*
X16004800Y-10236200I-35000J0D01*
G01*
X16341800Y-10033000D02*
G75*
G03*
X16341800Y-10033000I-35000J0D01*
G01*
X16341800Y-10541000D02*
G75*
G03*
X16341800Y-10541000I-35000J0D01*
G01*
X17561000Y-9931400D02*
G75*
G03*
X17561000Y-9931400I-35000J0D01*
G01*
X17561000Y-10160000D02*
G75*
G03*
X17561000Y-10160000I-35000J0D01*
G01*
X17561000Y-10388600D02*
G75*
G03*
X17561000Y-10388600I-35000J0D01*
G01*
X18069000Y-9931400D02*
G75*
G03*
X18069000Y-9931400I-35000J0D01*
G01*
X18069000Y-10160000D02*
G75*
G03*
X18069000Y-10160000I-35000J0D01*
G01*
X18069000Y-10388600D02*
G75*
G03*
X18069000Y-10388600I-35000J0D01*
G01*
X10643600Y-10144900D02*
X10643600Y-10224900D01*
X10603600Y-10184900D02*
X10683600Y-10184900D01*
X10643600Y-10398900D02*
X10643600Y-10478900D01*
X10603600Y-10438900D02*
X10683600Y-10438900D01*
X11405600Y-10144900D02*
X11405600Y-10224900D01*
X11365600Y-10184900D02*
X11445600Y-10184900D01*
X11405600Y-10398900D02*
X11405600Y-10478900D01*
X11365600Y-10438900D02*
X11445600Y-10438900D01*
X16536400Y-10144900D02*
X16536400Y-10224900D01*
X16496400Y-10184900D02*
X16576400Y-10184900D01*
X16536400Y-10398900D02*
X16536400Y-10478900D01*
X16496400Y-10438900D02*
X16576400Y-10438900D01*
X17298400Y-10144900D02*
X17298400Y-10224900D01*
X17258400Y-10184900D02*
X17338400Y-10184900D01*
X17298400Y-10398900D02*
X17298400Y-10478900D01*
X17258400Y-10438900D02*
X17338400Y-10438900D01*
X8231882Y-9871409D02*
X8231882Y-9804233D01*
X8164706Y-9804233D01*
X8164706Y-9871409D01*
X8231882Y-9871409D01*
X8448388Y-9996409D02*
X8448388Y-9929233D01*
X8381212Y-9929233D01*
X8381212Y-9996409D01*
X8448388Y-9996409D01*
X8664894Y-10121409D02*
X8664894Y-10054233D01*
X8597719Y-10054233D01*
X8597719Y-10121409D01*
X8664894Y-10121409D01*
X9285188Y-10191488D02*
X9285188Y-10124312D01*
X9218012Y-10124312D01*
X9218012Y-10191488D01*
X9285188Y-10191488D01*
X9535188Y-10191488D02*
X9535188Y-10124312D01*
X9468012Y-10124312D01*
X9468012Y-10191488D01*
X9535188Y-10191488D01*
X9785188Y-10191488D02*
X9785188Y-10124312D01*
X9718012Y-10124312D01*
X9718012Y-10191488D01*
X9785188Y-10191488D01*
X10035188Y-10191488D02*
X10035188Y-10124312D01*
X9968012Y-10124312D01*
X9968012Y-10191488D01*
X10035188Y-10191488D01*
X9071800Y-9481600D02*
X9121800Y-9431600D01*
X9071800Y-9381600D01*
X9021800Y-9431600D01*
X9071800Y-9481600D01*
X9325800Y-9481600D02*
X9375800Y-9431600D01*
X9325800Y-9381600D01*
X9275800Y-9431600D01*
X9325800Y-9481600D01*
X9579800Y-9481600D02*
X9629800Y-9431600D01*
X9579800Y-9381600D01*
X9529800Y-9431600D01*
X9579800Y-9481600D01*
X9833800Y-9481600D02*
X9883800Y-9431600D01*
X9833800Y-9381600D01*
X9783800Y-9431600D01*
X9833800Y-9481600D01*
X18419000Y-10870400D02*
X18469000Y-10820400D01*
X18419000Y-10770400D01*
X18369000Y-10820400D01*
X18419000Y-10870400D01*
X18621200Y-9481600D02*
X18671200Y-9431600D01*
X18621200Y-9381600D01*
X18571200Y-9431600D01*
X18621200Y-9481600D01*
X18669000Y-10870400D02*
X18719000Y-10820400D01*
X18669000Y-10770400D01*
X18619000Y-10820400D01*
X18669000Y-10870400D01*
X18875200Y-9481600D02*
X18925200Y-9431600D01*
X18875200Y-9381600D01*
X18825200Y-9431600D01*
X18875200Y-9481600D01*
X19531247Y-10011821D02*
X19581247Y-9961821D01*
X19531247Y-9911821D01*
X19481247Y-9961821D01*
X19531247Y-10011821D01*
X19747753Y-9886821D02*
X19797753Y-9836821D01*
X19747753Y-9786821D01*
X19697753Y-9836821D01*
X19747753Y-9886821D01*
D12*
X10950900Y-8626800D02*
X11070900Y-8746800D01*
X11070900Y-8626800D02*
X10950900Y-8746800D01*
X11070900Y-8686800D02*
G75*
G03*
X11070900Y-8686800I-60000J0D01*
G01*
X10950900Y-9376800D02*
X11070900Y-9496800D01*
X11070900Y-9376800D02*
X10950900Y-9496800D01*
X11070900Y-9436800D02*
G75*
G03*
X11070900Y-9436800I-60000J0D01*
G01*
X16389040Y-10790880D02*
X16509040Y-10910880D01*
X16509040Y-10790880D02*
X16389040Y-10910880D01*
X16509040Y-10850880D02*
G75*
G03*
X16509040Y-10850880I-60000J0D01*
G01*
X16869100Y-8630978D02*
X16989100Y-8750978D01*
X16989100Y-8630978D02*
X16869100Y-8750978D01*
X16989100Y-8690978D02*
G75*
G03*
X16989100Y-8690978I-60000J0D01*
G01*
X16869100Y-9380978D02*
X16989100Y-9500978D01*
X16989100Y-9380978D02*
X16869100Y-9500978D01*
X16989100Y-9440978D02*
G75*
G03*
X16989100Y-9440978I-60000J0D01*
G01*
X17913040Y-10790880D02*
X18033040Y-10910880D01*
X18033040Y-10790880D02*
X17913040Y-10910880D01*
X18033040Y-10850880D02*
G75*
G03*
X18033040Y-10850880I-60000J0D01*
G01*
D13*
X18101160Y-8428840D02*
X18241160Y-8568840D01*
X18241160Y-8428840D02*
X18101160Y-8568840D01*
X18171160Y-8428840D02*
X18171160Y-8568840D01*
X18101160Y-8498840D02*
X18241160Y-8498840D01*
X18101160Y-9444840D02*
X18241160Y-9584840D01*
X18241160Y-9444840D02*
X18101160Y-9584840D01*
X18171160Y-9444840D02*
X18171160Y-9584840D01*
X18101160Y-9514840D02*
X18241160Y-9514840D01*
X18853000Y-9904059D02*
X18993000Y-10044059D01*
X18993000Y-9904059D02*
X18853000Y-10044059D01*
X18923000Y-9904059D02*
X18923000Y-10044059D01*
X18853000Y-9974059D02*
X18993000Y-9974059D01*
X19361000Y-10783941D02*
X19501000Y-10923941D01*
X19501000Y-10783941D02*
X19361000Y-10923941D01*
X19431000Y-10783941D02*
X19431000Y-10923941D01*
X19361000Y-10853941D02*
X19501000Y-10853941D01*
D14*
X12581900Y-10613400D02*
X12741900Y-10773400D01*
X12741900Y-10613400D02*
X12581900Y-10773400D01*
X12718469Y-10749969D02*
X12718469Y-10636831D01*
X12605331Y-10636831D01*
X12605331Y-10749969D01*
X12718469Y-10749969D01*
X13089900Y-10613400D02*
X13249900Y-10773400D01*
X13249900Y-10613400D02*
X13089900Y-10773400D01*
X13226469Y-10749969D02*
X13226469Y-10636831D01*
X13113331Y-10636831D01*
X13113331Y-10749969D01*
X13226469Y-10749969D01*
X13597900Y-10613400D02*
X13757900Y-10773400D01*
X13757900Y-10613400D02*
X13597900Y-10773400D01*
X13734469Y-10749969D02*
X13734469Y-10636831D01*
X13621331Y-10636831D01*
X13621331Y-10749969D01*
X13734469Y-10749969D01*
X14182100Y-10613400D02*
X14342100Y-10773400D01*
X14342100Y-10613400D02*
X14182100Y-10773400D01*
X14318669Y-10749969D02*
X14318669Y-10636831D01*
X14205531Y-10636831D01*
X14205531Y-10749969D01*
X14318669Y-10749969D01*
X14690100Y-10613400D02*
X14850100Y-10773400D01*
X14850100Y-10613400D02*
X14690100Y-10773400D01*
X14826669Y-10749969D02*
X14826669Y-10636831D01*
X14713531Y-10636831D01*
X14713531Y-10749969D01*
X14826669Y-10749969D01*
X15198100Y-10613400D02*
X15358100Y-10773400D01*
X15358100Y-10613400D02*
X15198100Y-10773400D01*
X15334669Y-10749969D02*
X15334669Y-10636831D01*
X15221531Y-10636831D01*
X15221531Y-10749969D01*
X15334669Y-10749969D01*
D10*
X7855010Y-11421284D02*
X7855010Y-11221284D01*
X7855010Y-11221284D02*
X7902629Y-11221284D01*
X7902629Y-11221284D02*
X7931200Y-11230808D01*
X7931200Y-11230808D02*
X7950248Y-11249855D01*
X7950248Y-11249855D02*
X7959772Y-11268903D01*
X7959772Y-11268903D02*
X7969295Y-11306998D01*
X7969295Y-11306998D02*
X7969295Y-11335569D01*
X7969295Y-11335569D02*
X7959772Y-11373665D01*
X7959772Y-11373665D02*
X7950248Y-11392712D01*
X7950248Y-11392712D02*
X7931200Y-11411760D01*
X7931200Y-11411760D02*
X7902629Y-11421284D01*
X7902629Y-11421284D02*
X7855010Y-11421284D01*
X8055010Y-11421284D02*
X8055010Y-11287950D01*
X8055010Y-11326046D02*
X8064534Y-11306998D01*
X8064534Y-11306998D02*
X8074057Y-11297474D01*
X8074057Y-11297474D02*
X8093105Y-11287950D01*
X8093105Y-11287950D02*
X8112153Y-11287950D01*
X8178819Y-11421284D02*
X8178819Y-11287950D01*
X8178819Y-11221284D02*
X8169295Y-11230808D01*
X8169295Y-11230808D02*
X8178819Y-11240331D01*
X8178819Y-11240331D02*
X8188343Y-11230808D01*
X8188343Y-11230808D02*
X8178819Y-11221284D01*
X8178819Y-11221284D02*
X8178819Y-11240331D01*
X8302629Y-11421284D02*
X8283581Y-11411760D01*
X8283581Y-11411760D02*
X8274057Y-11392712D01*
X8274057Y-11392712D02*
X8274057Y-11221284D01*
X8407391Y-11421284D02*
X8388343Y-11411760D01*
X8388343Y-11411760D02*
X8378819Y-11392712D01*
X8378819Y-11392712D02*
X8378819Y-11221284D01*
X8635962Y-11421284D02*
X8635962Y-11221284D01*
X8635962Y-11221284D02*
X8702629Y-11364141D01*
X8702629Y-11364141D02*
X8769296Y-11221284D01*
X8769296Y-11221284D02*
X8769296Y-11421284D01*
X8950248Y-11421284D02*
X8950248Y-11316522D01*
X8950248Y-11316522D02*
X8940724Y-11297474D01*
X8940724Y-11297474D02*
X8921677Y-11287950D01*
X8921677Y-11287950D02*
X8883581Y-11287950D01*
X8883581Y-11287950D02*
X8864534Y-11297474D01*
X8950248Y-11411760D02*
X8931200Y-11421284D01*
X8931200Y-11421284D02*
X8883581Y-11421284D01*
X8883581Y-11421284D02*
X8864534Y-11411760D01*
X8864534Y-11411760D02*
X8855010Y-11392712D01*
X8855010Y-11392712D02*
X8855010Y-11373665D01*
X8855010Y-11373665D02*
X8864534Y-11354617D01*
X8864534Y-11354617D02*
X8883581Y-11345093D01*
X8883581Y-11345093D02*
X8931200Y-11345093D01*
X8931200Y-11345093D02*
X8950248Y-11335569D01*
X9045486Y-11287950D02*
X9045486Y-11487950D01*
X9045486Y-11297474D02*
X9064534Y-11287950D01*
X9064534Y-11287950D02*
X9102629Y-11287950D01*
X9102629Y-11287950D02*
X9121677Y-11297474D01*
X9121677Y-11297474D02*
X9131200Y-11306998D01*
X9131200Y-11306998D02*
X9140724Y-11326046D01*
X9140724Y-11326046D02*
X9140724Y-11383188D01*
X9140724Y-11383188D02*
X9131200Y-11402236D01*
X9131200Y-11402236D02*
X9121677Y-11411760D01*
X9121677Y-11411760D02*
X9102629Y-11421284D01*
X9102629Y-11421284D02*
X9064534Y-11421284D01*
X9064534Y-11421284D02*
X9045486Y-11411760D01*
X9226438Y-11402236D02*
X9235962Y-11411760D01*
X9235962Y-11411760D02*
X9226438Y-11421284D01*
X9226438Y-11421284D02*
X9216915Y-11411760D01*
X9216915Y-11411760D02*
X9226438Y-11402236D01*
X9226438Y-11402236D02*
X9226438Y-11421284D01*
X9226438Y-11297474D02*
X9235962Y-11306998D01*
X9235962Y-11306998D02*
X9226438Y-11316522D01*
X9226438Y-11316522D02*
X9216915Y-11306998D01*
X9216915Y-11306998D02*
X9226438Y-11297474D01*
X9226438Y-11297474D02*
X9226438Y-11316522D01*
D11*
X7554233Y-11729800D02*
X7594233Y-11769800D01*
X7594233Y-11729800D02*
X7554233Y-11769800D01*
D10*
X7893105Y-11641284D02*
X7912153Y-11641284D01*
X7912153Y-11641284D02*
X7931200Y-11650808D01*
X7931200Y-11650808D02*
X7940724Y-11660331D01*
X7940724Y-11660331D02*
X7950248Y-11679379D01*
X7950248Y-11679379D02*
X7959772Y-11717474D01*
X7959772Y-11717474D02*
X7959772Y-11765093D01*
X7959772Y-11765093D02*
X7950248Y-11803188D01*
X7950248Y-11803188D02*
X7940724Y-11822236D01*
X7940724Y-11822236D02*
X7931200Y-11831760D01*
X7931200Y-11831760D02*
X7912153Y-11841284D01*
X7912153Y-11841284D02*
X7893105Y-11841284D01*
X7893105Y-11841284D02*
X7874057Y-11831760D01*
X7874057Y-11831760D02*
X7864534Y-11822236D01*
X7864534Y-11822236D02*
X7855010Y-11803188D01*
X7855010Y-11803188D02*
X7845486Y-11765093D01*
X7845486Y-11765093D02*
X7845486Y-11717474D01*
X7845486Y-11717474D02*
X7855010Y-11679379D01*
X7855010Y-11679379D02*
X7864534Y-11660331D01*
X7864534Y-11660331D02*
X7874057Y-11650808D01*
X7874057Y-11650808D02*
X7893105Y-11641284D01*
X8045486Y-11822236D02*
X8055010Y-11831760D01*
X8055010Y-11831760D02*
X8045486Y-11841284D01*
X8045486Y-11841284D02*
X8035962Y-11831760D01*
X8035962Y-11831760D02*
X8045486Y-11822236D01*
X8045486Y-11822236D02*
X8045486Y-11841284D01*
X8226438Y-11707950D02*
X8226438Y-11841284D01*
X8178819Y-11631760D02*
X8131200Y-11774617D01*
X8131200Y-11774617D02*
X8255010Y-11774617D01*
X8369295Y-11641284D02*
X8388343Y-11641284D01*
X8388343Y-11641284D02*
X8407391Y-11650808D01*
X8407391Y-11650808D02*
X8416915Y-11660331D01*
X8416915Y-11660331D02*
X8426438Y-11679379D01*
X8426438Y-11679379D02*
X8435962Y-11717474D01*
X8435962Y-11717474D02*
X8435962Y-11765093D01*
X8435962Y-11765093D02*
X8426438Y-11803188D01*
X8426438Y-11803188D02*
X8416915Y-11822236D01*
X8416915Y-11822236D02*
X8407391Y-11831760D01*
X8407391Y-11831760D02*
X8388343Y-11841284D01*
X8388343Y-11841284D02*
X8369295Y-11841284D01*
X8369295Y-11841284D02*
X8350248Y-11831760D01*
X8350248Y-11831760D02*
X8340724Y-11822236D01*
X8340724Y-11822236D02*
X8331200Y-11803188D01*
X8331200Y-11803188D02*
X8321676Y-11765093D01*
X8321676Y-11765093D02*
X8321676Y-11717474D01*
X8321676Y-11717474D02*
X8331200Y-11679379D01*
X8331200Y-11679379D02*
X8340724Y-11660331D01*
X8340724Y-11660331D02*
X8350248Y-11650808D01*
X8350248Y-11650808D02*
X8369295Y-11641284D01*
X8559772Y-11641284D02*
X8578819Y-11641284D01*
X8578819Y-11641284D02*
X8597867Y-11650808D01*
X8597867Y-11650808D02*
X8607391Y-11660331D01*
X8607391Y-11660331D02*
X8616915Y-11679379D01*
X8616915Y-11679379D02*
X8626438Y-11717474D01*
X8626438Y-11717474D02*
X8626438Y-11765093D01*
X8626438Y-11765093D02*
X8616915Y-11803188D01*
X8616915Y-11803188D02*
X8607391Y-11822236D01*
X8607391Y-11822236D02*
X8597867Y-11831760D01*
X8597867Y-11831760D02*
X8578819Y-11841284D01*
X8578819Y-11841284D02*
X8559772Y-11841284D01*
X8559772Y-11841284D02*
X8540724Y-11831760D01*
X8540724Y-11831760D02*
X8531200Y-11822236D01*
X8531200Y-11822236D02*
X8521677Y-11803188D01*
X8521677Y-11803188D02*
X8512153Y-11765093D01*
X8512153Y-11765093D02*
X8512153Y-11717474D01*
X8512153Y-11717474D02*
X8521677Y-11679379D01*
X8521677Y-11679379D02*
X8531200Y-11660331D01*
X8531200Y-11660331D02*
X8540724Y-11650808D01*
X8540724Y-11650808D02*
X8559772Y-11641284D01*
X8712153Y-11841284D02*
X8712153Y-11707950D01*
X8712153Y-11726998D02*
X8721677Y-11717474D01*
X8721677Y-11717474D02*
X8740724Y-11707950D01*
X8740724Y-11707950D02*
X8769296Y-11707950D01*
X8769296Y-11707950D02*
X8788343Y-11717474D01*
X8788343Y-11717474D02*
X8797867Y-11736522D01*
X8797867Y-11736522D02*
X8797867Y-11841284D01*
X8797867Y-11736522D02*
X8807391Y-11717474D01*
X8807391Y-11717474D02*
X8826438Y-11707950D01*
X8826438Y-11707950D02*
X8855010Y-11707950D01*
X8855010Y-11707950D02*
X8874058Y-11717474D01*
X8874058Y-11717474D02*
X8883581Y-11736522D01*
X8883581Y-11736522D02*
X8883581Y-11841284D01*
X8978819Y-11841284D02*
X8978819Y-11707950D01*
X8978819Y-11726998D02*
X8988343Y-11717474D01*
X8988343Y-11717474D02*
X9007391Y-11707950D01*
X9007391Y-11707950D02*
X9035962Y-11707950D01*
X9035962Y-11707950D02*
X9055010Y-11717474D01*
X9055010Y-11717474D02*
X9064534Y-11736522D01*
X9064534Y-11736522D02*
X9064534Y-11841284D01*
X9064534Y-11736522D02*
X9074058Y-11717474D01*
X9074058Y-11717474D02*
X9093105Y-11707950D01*
X9093105Y-11707950D02*
X9121677Y-11707950D01*
X9121677Y-11707950D02*
X9140724Y-11717474D01*
X9140724Y-11717474D02*
X9150248Y-11736522D01*
X9150248Y-11736522D02*
X9150248Y-11841284D01*
X9540724Y-11631760D02*
X9369296Y-11888903D01*
X9797867Y-11641284D02*
X9816915Y-11641284D01*
X9816915Y-11641284D02*
X9835962Y-11650808D01*
X9835962Y-11650808D02*
X9845486Y-11660331D01*
X9845486Y-11660331D02*
X9855010Y-11679379D01*
X9855010Y-11679379D02*
X9864534Y-11717474D01*
X9864534Y-11717474D02*
X9864534Y-11765093D01*
X9864534Y-11765093D02*
X9855010Y-11803188D01*
X9855010Y-11803188D02*
X9845486Y-11822236D01*
X9845486Y-11822236D02*
X9835962Y-11831760D01*
X9835962Y-11831760D02*
X9816915Y-11841284D01*
X9816915Y-11841284D02*
X9797867Y-11841284D01*
X9797867Y-11841284D02*
X9778820Y-11831760D01*
X9778820Y-11831760D02*
X9769296Y-11822236D01*
X9769296Y-11822236D02*
X9759772Y-11803188D01*
X9759772Y-11803188D02*
X9750248Y-11765093D01*
X9750248Y-11765093D02*
X9750248Y-11717474D01*
X9750248Y-11717474D02*
X9759772Y-11679379D01*
X9759772Y-11679379D02*
X9769296Y-11660331D01*
X9769296Y-11660331D02*
X9778820Y-11650808D01*
X9778820Y-11650808D02*
X9797867Y-11641284D01*
X9950248Y-11822236D02*
X9959772Y-11831760D01*
X9959772Y-11831760D02*
X9950248Y-11841284D01*
X9950248Y-11841284D02*
X9940724Y-11831760D01*
X9940724Y-11831760D02*
X9950248Y-11822236D01*
X9950248Y-11822236D02*
X9950248Y-11841284D01*
X10083581Y-11641284D02*
X10102629Y-11641284D01*
X10102629Y-11641284D02*
X10121677Y-11650808D01*
X10121677Y-11650808D02*
X10131201Y-11660331D01*
X10131201Y-11660331D02*
X10140724Y-11679379D01*
X10140724Y-11679379D02*
X10150248Y-11717474D01*
X10150248Y-11717474D02*
X10150248Y-11765093D01*
X10150248Y-11765093D02*
X10140724Y-11803188D01*
X10140724Y-11803188D02*
X10131201Y-11822236D01*
X10131201Y-11822236D02*
X10121677Y-11831760D01*
X10121677Y-11831760D02*
X10102629Y-11841284D01*
X10102629Y-11841284D02*
X10083581Y-11841284D01*
X10083581Y-11841284D02*
X10064534Y-11831760D01*
X10064534Y-11831760D02*
X10055010Y-11822236D01*
X10055010Y-11822236D02*
X10045486Y-11803188D01*
X10045486Y-11803188D02*
X10035962Y-11765093D01*
X10035962Y-11765093D02*
X10035962Y-11717474D01*
X10035962Y-11717474D02*
X10045486Y-11679379D01*
X10045486Y-11679379D02*
X10055010Y-11660331D01*
X10055010Y-11660331D02*
X10064534Y-11650808D01*
X10064534Y-11650808D02*
X10083581Y-11641284D01*
X10340724Y-11841284D02*
X10226439Y-11841284D01*
X10283581Y-11841284D02*
X10283581Y-11641284D01*
X10283581Y-11641284D02*
X10264534Y-11669855D01*
X10264534Y-11669855D02*
X10245486Y-11688903D01*
X10245486Y-11688903D02*
X10226439Y-11698427D01*
X10521677Y-11641284D02*
X10426439Y-11641284D01*
X10426439Y-11641284D02*
X10416915Y-11736522D01*
X10416915Y-11736522D02*
X10426439Y-11726998D01*
X10426439Y-11726998D02*
X10445486Y-11717474D01*
X10445486Y-11717474D02*
X10493105Y-11717474D01*
X10493105Y-11717474D02*
X10512153Y-11726998D01*
X10512153Y-11726998D02*
X10521677Y-11736522D01*
X10521677Y-11736522D02*
X10531201Y-11755569D01*
X10531201Y-11755569D02*
X10531201Y-11803188D01*
X10531201Y-11803188D02*
X10521677Y-11822236D01*
X10521677Y-11822236D02*
X10512153Y-11831760D01*
X10512153Y-11831760D02*
X10493105Y-11841284D01*
X10493105Y-11841284D02*
X10445486Y-11841284D01*
X10445486Y-11841284D02*
X10426439Y-11831760D01*
X10426439Y-11831760D02*
X10416915Y-11822236D01*
X10597867Y-11641284D02*
X10731201Y-11641284D01*
X10731201Y-11641284D02*
X10645486Y-11841284D01*
X10797867Y-11641284D02*
X10797867Y-11679379D01*
X10874058Y-11641284D02*
X10874058Y-11679379D01*
X11169296Y-11917474D02*
X11159772Y-11907950D01*
X11159772Y-11907950D02*
X11140724Y-11879379D01*
X11140724Y-11879379D02*
X11131201Y-11860331D01*
X11131201Y-11860331D02*
X11121677Y-11831760D01*
X11121677Y-11831760D02*
X11112153Y-11784141D01*
X11112153Y-11784141D02*
X11112153Y-11746046D01*
X11112153Y-11746046D02*
X11121677Y-11698427D01*
X11121677Y-11698427D02*
X11131201Y-11669855D01*
X11131201Y-11669855D02*
X11140724Y-11650808D01*
X11140724Y-11650808D02*
X11159772Y-11622236D01*
X11159772Y-11622236D02*
X11169296Y-11612712D01*
X11350248Y-11841284D02*
X11235962Y-11841284D01*
X11293105Y-11841284D02*
X11293105Y-11641284D01*
X11293105Y-11641284D02*
X11274058Y-11669855D01*
X11274058Y-11669855D02*
X11255010Y-11688903D01*
X11255010Y-11688903D02*
X11235962Y-11698427D01*
X11521677Y-11707950D02*
X11521677Y-11841284D01*
X11474058Y-11631760D02*
X11426439Y-11774617D01*
X11426439Y-11774617D02*
X11550248Y-11774617D01*
X11655010Y-11726998D02*
X11635962Y-11717474D01*
X11635962Y-11717474D02*
X11626439Y-11707950D01*
X11626439Y-11707950D02*
X11616915Y-11688903D01*
X11616915Y-11688903D02*
X11616915Y-11679379D01*
X11616915Y-11679379D02*
X11626439Y-11660331D01*
X11626439Y-11660331D02*
X11635962Y-11650808D01*
X11635962Y-11650808D02*
X11655010Y-11641284D01*
X11655010Y-11641284D02*
X11693105Y-11641284D01*
X11693105Y-11641284D02*
X11712153Y-11650808D01*
X11712153Y-11650808D02*
X11721677Y-11660331D01*
X11721677Y-11660331D02*
X11731201Y-11679379D01*
X11731201Y-11679379D02*
X11731201Y-11688903D01*
X11731201Y-11688903D02*
X11721677Y-11707950D01*
X11721677Y-11707950D02*
X11712153Y-11717474D01*
X11712153Y-11717474D02*
X11693105Y-11726998D01*
X11693105Y-11726998D02*
X11655010Y-11726998D01*
X11655010Y-11726998D02*
X11635962Y-11736522D01*
X11635962Y-11736522D02*
X11626439Y-11746046D01*
X11626439Y-11746046D02*
X11616915Y-11765093D01*
X11616915Y-11765093D02*
X11616915Y-11803188D01*
X11616915Y-11803188D02*
X11626439Y-11822236D01*
X11626439Y-11822236D02*
X11635962Y-11831760D01*
X11635962Y-11831760D02*
X11655010Y-11841284D01*
X11655010Y-11841284D02*
X11693105Y-11841284D01*
X11693105Y-11841284D02*
X11712153Y-11831760D01*
X11712153Y-11831760D02*
X11721677Y-11822236D01*
X11721677Y-11822236D02*
X11731201Y-11803188D01*
X11731201Y-11803188D02*
X11731201Y-11765093D01*
X11731201Y-11765093D02*
X11721677Y-11746046D01*
X11721677Y-11746046D02*
X11712153Y-11736522D01*
X11712153Y-11736522D02*
X11693105Y-11726998D01*
X11969296Y-11841284D02*
X11969296Y-11641284D01*
X12055010Y-11841284D02*
X12055010Y-11736522D01*
X12055010Y-11736522D02*
X12045486Y-11717474D01*
X12045486Y-11717474D02*
X12026439Y-11707950D01*
X12026439Y-11707950D02*
X11997867Y-11707950D01*
X11997867Y-11707950D02*
X11978820Y-11717474D01*
X11978820Y-11717474D02*
X11969296Y-11726998D01*
X12178820Y-11841284D02*
X12159772Y-11831760D01*
X12159772Y-11831760D02*
X12150248Y-11822236D01*
X12150248Y-11822236D02*
X12140724Y-11803188D01*
X12140724Y-11803188D02*
X12140724Y-11746046D01*
X12140724Y-11746046D02*
X12150248Y-11726998D01*
X12150248Y-11726998D02*
X12159772Y-11717474D01*
X12159772Y-11717474D02*
X12178820Y-11707950D01*
X12178820Y-11707950D02*
X12207391Y-11707950D01*
X12207391Y-11707950D02*
X12226439Y-11717474D01*
X12226439Y-11717474D02*
X12235963Y-11726998D01*
X12235963Y-11726998D02*
X12245486Y-11746046D01*
X12245486Y-11746046D02*
X12245486Y-11803188D01*
X12245486Y-11803188D02*
X12235963Y-11822236D01*
X12235963Y-11822236D02*
X12226439Y-11831760D01*
X12226439Y-11831760D02*
X12207391Y-11841284D01*
X12207391Y-11841284D02*
X12178820Y-11841284D01*
X12359772Y-11841284D02*
X12340724Y-11831760D01*
X12340724Y-11831760D02*
X12331201Y-11812712D01*
X12331201Y-11812712D02*
X12331201Y-11641284D01*
X12512153Y-11831760D02*
X12493105Y-11841284D01*
X12493105Y-11841284D02*
X12455010Y-11841284D01*
X12455010Y-11841284D02*
X12435963Y-11831760D01*
X12435963Y-11831760D02*
X12426439Y-11812712D01*
X12426439Y-11812712D02*
X12426439Y-11736522D01*
X12426439Y-11736522D02*
X12435963Y-11717474D01*
X12435963Y-11717474D02*
X12455010Y-11707950D01*
X12455010Y-11707950D02*
X12493105Y-11707950D01*
X12493105Y-11707950D02*
X12512153Y-11717474D01*
X12512153Y-11717474D02*
X12521677Y-11736522D01*
X12521677Y-11736522D02*
X12521677Y-11755569D01*
X12521677Y-11755569D02*
X12426439Y-11774617D01*
X12597867Y-11831760D02*
X12616915Y-11841284D01*
X12616915Y-11841284D02*
X12655010Y-11841284D01*
X12655010Y-11841284D02*
X12674058Y-11831760D01*
X12674058Y-11831760D02*
X12683582Y-11812712D01*
X12683582Y-11812712D02*
X12683582Y-11803188D01*
X12683582Y-11803188D02*
X12674058Y-11784141D01*
X12674058Y-11784141D02*
X12655010Y-11774617D01*
X12655010Y-11774617D02*
X12626439Y-11774617D01*
X12626439Y-11774617D02*
X12607391Y-11765093D01*
X12607391Y-11765093D02*
X12597867Y-11746046D01*
X12597867Y-11746046D02*
X12597867Y-11736522D01*
X12597867Y-11736522D02*
X12607391Y-11717474D01*
X12607391Y-11717474D02*
X12626439Y-11707950D01*
X12626439Y-11707950D02*
X12655010Y-11707950D01*
X12655010Y-11707950D02*
X12674058Y-11717474D01*
X12750248Y-11917474D02*
X12759772Y-11907950D01*
X12759772Y-11907950D02*
X12778820Y-11879379D01*
X12778820Y-11879379D02*
X12788344Y-11860331D01*
X12788344Y-11860331D02*
X12797867Y-11831760D01*
X12797867Y-11831760D02*
X12807391Y-11784141D01*
X12807391Y-11784141D02*
X12807391Y-11746046D01*
X12807391Y-11746046D02*
X12797867Y-11698427D01*
X12797867Y-11698427D02*
X12788344Y-11669855D01*
X12788344Y-11669855D02*
X12778820Y-11650808D01*
X12778820Y-11650808D02*
X12759772Y-11622236D01*
X12759772Y-11622236D02*
X12750248Y-11612712D01*
D11*
X7594233Y-12013800D02*
G75*
G03*
X7594233Y-12013800I-35000J0D01*
G01*
D10*
X7893105Y-11905284D02*
X7912153Y-11905284D01*
X7912153Y-11905284D02*
X7931200Y-11914808D01*
X7931200Y-11914808D02*
X7940724Y-11924331D01*
X7940724Y-11924331D02*
X7950248Y-11943379D01*
X7950248Y-11943379D02*
X7959772Y-11981474D01*
X7959772Y-11981474D02*
X7959772Y-12029093D01*
X7959772Y-12029093D02*
X7950248Y-12067188D01*
X7950248Y-12067188D02*
X7940724Y-12086236D01*
X7940724Y-12086236D02*
X7931200Y-12095760D01*
X7931200Y-12095760D02*
X7912153Y-12105284D01*
X7912153Y-12105284D02*
X7893105Y-12105284D01*
X7893105Y-12105284D02*
X7874057Y-12095760D01*
X7874057Y-12095760D02*
X7864534Y-12086236D01*
X7864534Y-12086236D02*
X7855010Y-12067188D01*
X7855010Y-12067188D02*
X7845486Y-12029093D01*
X7845486Y-12029093D02*
X7845486Y-11981474D01*
X7845486Y-11981474D02*
X7855010Y-11943379D01*
X7855010Y-11943379D02*
X7864534Y-11924331D01*
X7864534Y-11924331D02*
X7874057Y-11914808D01*
X7874057Y-11914808D02*
X7893105Y-11905284D01*
X8045486Y-12086236D02*
X8055010Y-12095760D01*
X8055010Y-12095760D02*
X8045486Y-12105284D01*
X8045486Y-12105284D02*
X8035962Y-12095760D01*
X8035962Y-12095760D02*
X8045486Y-12086236D01*
X8045486Y-12086236D02*
X8045486Y-12105284D01*
X8121676Y-11905284D02*
X8255010Y-11905284D01*
X8255010Y-11905284D02*
X8169295Y-12105284D01*
X8369295Y-11905284D02*
X8388343Y-11905284D01*
X8388343Y-11905284D02*
X8407391Y-11914808D01*
X8407391Y-11914808D02*
X8416915Y-11924331D01*
X8416915Y-11924331D02*
X8426438Y-11943379D01*
X8426438Y-11943379D02*
X8435962Y-11981474D01*
X8435962Y-11981474D02*
X8435962Y-12029093D01*
X8435962Y-12029093D02*
X8426438Y-12067188D01*
X8426438Y-12067188D02*
X8416915Y-12086236D01*
X8416915Y-12086236D02*
X8407391Y-12095760D01*
X8407391Y-12095760D02*
X8388343Y-12105284D01*
X8388343Y-12105284D02*
X8369295Y-12105284D01*
X8369295Y-12105284D02*
X8350248Y-12095760D01*
X8350248Y-12095760D02*
X8340724Y-12086236D01*
X8340724Y-12086236D02*
X8331200Y-12067188D01*
X8331200Y-12067188D02*
X8321676Y-12029093D01*
X8321676Y-12029093D02*
X8321676Y-11981474D01*
X8321676Y-11981474D02*
X8331200Y-11943379D01*
X8331200Y-11943379D02*
X8340724Y-11924331D01*
X8340724Y-11924331D02*
X8350248Y-11914808D01*
X8350248Y-11914808D02*
X8369295Y-11905284D01*
X8559772Y-11905284D02*
X8578819Y-11905284D01*
X8578819Y-11905284D02*
X8597867Y-11914808D01*
X8597867Y-11914808D02*
X8607391Y-11924331D01*
X8607391Y-11924331D02*
X8616915Y-11943379D01*
X8616915Y-11943379D02*
X8626438Y-11981474D01*
X8626438Y-11981474D02*
X8626438Y-12029093D01*
X8626438Y-12029093D02*
X8616915Y-12067188D01*
X8616915Y-12067188D02*
X8607391Y-12086236D01*
X8607391Y-12086236D02*
X8597867Y-12095760D01*
X8597867Y-12095760D02*
X8578819Y-12105284D01*
X8578819Y-12105284D02*
X8559772Y-12105284D01*
X8559772Y-12105284D02*
X8540724Y-12095760D01*
X8540724Y-12095760D02*
X8531200Y-12086236D01*
X8531200Y-12086236D02*
X8521677Y-12067188D01*
X8521677Y-12067188D02*
X8512153Y-12029093D01*
X8512153Y-12029093D02*
X8512153Y-11981474D01*
X8512153Y-11981474D02*
X8521677Y-11943379D01*
X8521677Y-11943379D02*
X8531200Y-11924331D01*
X8531200Y-11924331D02*
X8540724Y-11914808D01*
X8540724Y-11914808D02*
X8559772Y-11905284D01*
X8712153Y-12105284D02*
X8712153Y-11971950D01*
X8712153Y-11990998D02*
X8721677Y-11981474D01*
X8721677Y-11981474D02*
X8740724Y-11971950D01*
X8740724Y-11971950D02*
X8769296Y-11971950D01*
X8769296Y-11971950D02*
X8788343Y-11981474D01*
X8788343Y-11981474D02*
X8797867Y-12000522D01*
X8797867Y-12000522D02*
X8797867Y-12105284D01*
X8797867Y-12000522D02*
X8807391Y-11981474D01*
X8807391Y-11981474D02*
X8826438Y-11971950D01*
X8826438Y-11971950D02*
X8855010Y-11971950D01*
X8855010Y-11971950D02*
X8874058Y-11981474D01*
X8874058Y-11981474D02*
X8883581Y-12000522D01*
X8883581Y-12000522D02*
X8883581Y-12105284D01*
X8978819Y-12105284D02*
X8978819Y-11971950D01*
X8978819Y-11990998D02*
X8988343Y-11981474D01*
X8988343Y-11981474D02*
X9007391Y-11971950D01*
X9007391Y-11971950D02*
X9035962Y-11971950D01*
X9035962Y-11971950D02*
X9055010Y-11981474D01*
X9055010Y-11981474D02*
X9064534Y-12000522D01*
X9064534Y-12000522D02*
X9064534Y-12105284D01*
X9064534Y-12000522D02*
X9074058Y-11981474D01*
X9074058Y-11981474D02*
X9093105Y-11971950D01*
X9093105Y-11971950D02*
X9121677Y-11971950D01*
X9121677Y-11971950D02*
X9140724Y-11981474D01*
X9140724Y-11981474D02*
X9150248Y-12000522D01*
X9150248Y-12000522D02*
X9150248Y-12105284D01*
X9540724Y-11895760D02*
X9369296Y-12152903D01*
X9797867Y-11905284D02*
X9816915Y-11905284D01*
X9816915Y-11905284D02*
X9835962Y-11914808D01*
X9835962Y-11914808D02*
X9845486Y-11924331D01*
X9845486Y-11924331D02*
X9855010Y-11943379D01*
X9855010Y-11943379D02*
X9864534Y-11981474D01*
X9864534Y-11981474D02*
X9864534Y-12029093D01*
X9864534Y-12029093D02*
X9855010Y-12067188D01*
X9855010Y-12067188D02*
X9845486Y-12086236D01*
X9845486Y-12086236D02*
X9835962Y-12095760D01*
X9835962Y-12095760D02*
X9816915Y-12105284D01*
X9816915Y-12105284D02*
X9797867Y-12105284D01*
X9797867Y-12105284D02*
X9778820Y-12095760D01*
X9778820Y-12095760D02*
X9769296Y-12086236D01*
X9769296Y-12086236D02*
X9759772Y-12067188D01*
X9759772Y-12067188D02*
X9750248Y-12029093D01*
X9750248Y-12029093D02*
X9750248Y-11981474D01*
X9750248Y-11981474D02*
X9759772Y-11943379D01*
X9759772Y-11943379D02*
X9769296Y-11924331D01*
X9769296Y-11924331D02*
X9778820Y-11914808D01*
X9778820Y-11914808D02*
X9797867Y-11905284D01*
X9950248Y-12086236D02*
X9959772Y-12095760D01*
X9959772Y-12095760D02*
X9950248Y-12105284D01*
X9950248Y-12105284D02*
X9940724Y-12095760D01*
X9940724Y-12095760D02*
X9950248Y-12086236D01*
X9950248Y-12086236D02*
X9950248Y-12105284D01*
X10083581Y-11905284D02*
X10102629Y-11905284D01*
X10102629Y-11905284D02*
X10121677Y-11914808D01*
X10121677Y-11914808D02*
X10131201Y-11924331D01*
X10131201Y-11924331D02*
X10140724Y-11943379D01*
X10140724Y-11943379D02*
X10150248Y-11981474D01*
X10150248Y-11981474D02*
X10150248Y-12029093D01*
X10150248Y-12029093D02*
X10140724Y-12067188D01*
X10140724Y-12067188D02*
X10131201Y-12086236D01*
X10131201Y-12086236D02*
X10121677Y-12095760D01*
X10121677Y-12095760D02*
X10102629Y-12105284D01*
X10102629Y-12105284D02*
X10083581Y-12105284D01*
X10083581Y-12105284D02*
X10064534Y-12095760D01*
X10064534Y-12095760D02*
X10055010Y-12086236D01*
X10055010Y-12086236D02*
X10045486Y-12067188D01*
X10045486Y-12067188D02*
X10035962Y-12029093D01*
X10035962Y-12029093D02*
X10035962Y-11981474D01*
X10035962Y-11981474D02*
X10045486Y-11943379D01*
X10045486Y-11943379D02*
X10055010Y-11924331D01*
X10055010Y-11924331D02*
X10064534Y-11914808D01*
X10064534Y-11914808D02*
X10083581Y-11905284D01*
X10226439Y-11924331D02*
X10235962Y-11914808D01*
X10235962Y-11914808D02*
X10255010Y-11905284D01*
X10255010Y-11905284D02*
X10302629Y-11905284D01*
X10302629Y-11905284D02*
X10321677Y-11914808D01*
X10321677Y-11914808D02*
X10331201Y-11924331D01*
X10331201Y-11924331D02*
X10340724Y-11943379D01*
X10340724Y-11943379D02*
X10340724Y-11962427D01*
X10340724Y-11962427D02*
X10331201Y-11990998D01*
X10331201Y-11990998D02*
X10216915Y-12105284D01*
X10216915Y-12105284D02*
X10340724Y-12105284D01*
X10407391Y-11905284D02*
X10540724Y-11905284D01*
X10540724Y-11905284D02*
X10455010Y-12105284D01*
X10702629Y-11905284D02*
X10664534Y-11905284D01*
X10664534Y-11905284D02*
X10645486Y-11914808D01*
X10645486Y-11914808D02*
X10635962Y-11924331D01*
X10635962Y-11924331D02*
X10616915Y-11952903D01*
X10616915Y-11952903D02*
X10607391Y-11990998D01*
X10607391Y-11990998D02*
X10607391Y-12067188D01*
X10607391Y-12067188D02*
X10616915Y-12086236D01*
X10616915Y-12086236D02*
X10626439Y-12095760D01*
X10626439Y-12095760D02*
X10645486Y-12105284D01*
X10645486Y-12105284D02*
X10683582Y-12105284D01*
X10683582Y-12105284D02*
X10702629Y-12095760D01*
X10702629Y-12095760D02*
X10712153Y-12086236D01*
X10712153Y-12086236D02*
X10721677Y-12067188D01*
X10721677Y-12067188D02*
X10721677Y-12019569D01*
X10721677Y-12019569D02*
X10712153Y-12000522D01*
X10712153Y-12000522D02*
X10702629Y-11990998D01*
X10702629Y-11990998D02*
X10683582Y-11981474D01*
X10683582Y-11981474D02*
X10645486Y-11981474D01*
X10645486Y-11981474D02*
X10626439Y-11990998D01*
X10626439Y-11990998D02*
X10616915Y-12000522D01*
X10616915Y-12000522D02*
X10607391Y-12019569D01*
X10797867Y-11905284D02*
X10797867Y-11943379D01*
X10874058Y-11905284D02*
X10874058Y-11943379D01*
X11169296Y-12181474D02*
X11159772Y-12171950D01*
X11159772Y-12171950D02*
X11140724Y-12143379D01*
X11140724Y-12143379D02*
X11131201Y-12124331D01*
X11131201Y-12124331D02*
X11121677Y-12095760D01*
X11121677Y-12095760D02*
X11112153Y-12048141D01*
X11112153Y-12048141D02*
X11112153Y-12010046D01*
X11112153Y-12010046D02*
X11121677Y-11962427D01*
X11121677Y-11962427D02*
X11131201Y-11933855D01*
X11131201Y-11933855D02*
X11140724Y-11914808D01*
X11140724Y-11914808D02*
X11159772Y-11886236D01*
X11159772Y-11886236D02*
X11169296Y-11876712D01*
X11350248Y-12105284D02*
X11235962Y-12105284D01*
X11293105Y-12105284D02*
X11293105Y-11905284D01*
X11293105Y-11905284D02*
X11274058Y-11933855D01*
X11274058Y-11933855D02*
X11255010Y-11952903D01*
X11255010Y-11952903D02*
X11235962Y-11962427D01*
X11464534Y-11990998D02*
X11445486Y-11981474D01*
X11445486Y-11981474D02*
X11435962Y-11971950D01*
X11435962Y-11971950D02*
X11426439Y-11952903D01*
X11426439Y-11952903D02*
X11426439Y-11943379D01*
X11426439Y-11943379D02*
X11435962Y-11924331D01*
X11435962Y-11924331D02*
X11445486Y-11914808D01*
X11445486Y-11914808D02*
X11464534Y-11905284D01*
X11464534Y-11905284D02*
X11502629Y-11905284D01*
X11502629Y-11905284D02*
X11521677Y-11914808D01*
X11521677Y-11914808D02*
X11531201Y-11924331D01*
X11531201Y-11924331D02*
X11540724Y-11943379D01*
X11540724Y-11943379D02*
X11540724Y-11952903D01*
X11540724Y-11952903D02*
X11531201Y-11971950D01*
X11531201Y-11971950D02*
X11521677Y-11981474D01*
X11521677Y-11981474D02*
X11502629Y-11990998D01*
X11502629Y-11990998D02*
X11464534Y-11990998D01*
X11464534Y-11990998D02*
X11445486Y-12000522D01*
X11445486Y-12000522D02*
X11435962Y-12010046D01*
X11435962Y-12010046D02*
X11426439Y-12029093D01*
X11426439Y-12029093D02*
X11426439Y-12067188D01*
X11426439Y-12067188D02*
X11435962Y-12086236D01*
X11435962Y-12086236D02*
X11445486Y-12095760D01*
X11445486Y-12095760D02*
X11464534Y-12105284D01*
X11464534Y-12105284D02*
X11502629Y-12105284D01*
X11502629Y-12105284D02*
X11521677Y-12095760D01*
X11521677Y-12095760D02*
X11531201Y-12086236D01*
X11531201Y-12086236D02*
X11540724Y-12067188D01*
X11540724Y-12067188D02*
X11540724Y-12029093D01*
X11540724Y-12029093D02*
X11531201Y-12010046D01*
X11531201Y-12010046D02*
X11521677Y-12000522D01*
X11521677Y-12000522D02*
X11502629Y-11990998D01*
X11778820Y-12105284D02*
X11778820Y-11905284D01*
X11864534Y-12105284D02*
X11864534Y-12000522D01*
X11864534Y-12000522D02*
X11855010Y-11981474D01*
X11855010Y-11981474D02*
X11835963Y-11971950D01*
X11835963Y-11971950D02*
X11807391Y-11971950D01*
X11807391Y-11971950D02*
X11788343Y-11981474D01*
X11788343Y-11981474D02*
X11778820Y-11990998D01*
X11988343Y-12105284D02*
X11969296Y-12095760D01*
X11969296Y-12095760D02*
X11959772Y-12086236D01*
X11959772Y-12086236D02*
X11950248Y-12067188D01*
X11950248Y-12067188D02*
X11950248Y-12010046D01*
X11950248Y-12010046D02*
X11959772Y-11990998D01*
X11959772Y-11990998D02*
X11969296Y-11981474D01*
X11969296Y-11981474D02*
X11988343Y-11971950D01*
X11988343Y-11971950D02*
X12016915Y-11971950D01*
X12016915Y-11971950D02*
X12035963Y-11981474D01*
X12035963Y-11981474D02*
X12045486Y-11990998D01*
X12045486Y-11990998D02*
X12055010Y-12010046D01*
X12055010Y-12010046D02*
X12055010Y-12067188D01*
X12055010Y-12067188D02*
X12045486Y-12086236D01*
X12045486Y-12086236D02*
X12035963Y-12095760D01*
X12035963Y-12095760D02*
X12016915Y-12105284D01*
X12016915Y-12105284D02*
X11988343Y-12105284D01*
X12169296Y-12105284D02*
X12150248Y-12095760D01*
X12150248Y-12095760D02*
X12140724Y-12076712D01*
X12140724Y-12076712D02*
X12140724Y-11905284D01*
X12321677Y-12095760D02*
X12302629Y-12105284D01*
X12302629Y-12105284D02*
X12264534Y-12105284D01*
X12264534Y-12105284D02*
X12245486Y-12095760D01*
X12245486Y-12095760D02*
X12235963Y-12076712D01*
X12235963Y-12076712D02*
X12235963Y-12000522D01*
X12235963Y-12000522D02*
X12245486Y-11981474D01*
X12245486Y-11981474D02*
X12264534Y-11971950D01*
X12264534Y-11971950D02*
X12302629Y-11971950D01*
X12302629Y-11971950D02*
X12321677Y-11981474D01*
X12321677Y-11981474D02*
X12331201Y-12000522D01*
X12331201Y-12000522D02*
X12331201Y-12019569D01*
X12331201Y-12019569D02*
X12235963Y-12038617D01*
X12407391Y-12095760D02*
X12426439Y-12105284D01*
X12426439Y-12105284D02*
X12464534Y-12105284D01*
X12464534Y-12105284D02*
X12483582Y-12095760D01*
X12483582Y-12095760D02*
X12493105Y-12076712D01*
X12493105Y-12076712D02*
X12493105Y-12067188D01*
X12493105Y-12067188D02*
X12483582Y-12048141D01*
X12483582Y-12048141D02*
X12464534Y-12038617D01*
X12464534Y-12038617D02*
X12435963Y-12038617D01*
X12435963Y-12038617D02*
X12416915Y-12029093D01*
X12416915Y-12029093D02*
X12407391Y-12010046D01*
X12407391Y-12010046D02*
X12407391Y-12000522D01*
X12407391Y-12000522D02*
X12416915Y-11981474D01*
X12416915Y-11981474D02*
X12435963Y-11971950D01*
X12435963Y-11971950D02*
X12464534Y-11971950D01*
X12464534Y-11971950D02*
X12483582Y-11981474D01*
X12559772Y-12181474D02*
X12569296Y-12171950D01*
X12569296Y-12171950D02*
X12588344Y-12143379D01*
X12588344Y-12143379D02*
X12597867Y-12124331D01*
X12597867Y-12124331D02*
X12607391Y-12095760D01*
X12607391Y-12095760D02*
X12616915Y-12048141D01*
X12616915Y-12048141D02*
X12616915Y-12010046D01*
X12616915Y-12010046D02*
X12607391Y-11962427D01*
X12607391Y-11962427D02*
X12597867Y-11933855D01*
X12597867Y-11933855D02*
X12588344Y-11914808D01*
X12588344Y-11914808D02*
X12569296Y-11886236D01*
X12569296Y-11886236D02*
X12559772Y-11876712D01*
D11*
X7554233Y-12237800D02*
X7554233Y-12317800D01*
X7514233Y-12277800D02*
X7594233Y-12277800D01*
D10*
X7893105Y-12169284D02*
X7912153Y-12169284D01*
X7912153Y-12169284D02*
X7931200Y-12178808D01*
X7931200Y-12178808D02*
X7940724Y-12188331D01*
X7940724Y-12188331D02*
X7950248Y-12207379D01*
X7950248Y-12207379D02*
X7959772Y-12245474D01*
X7959772Y-12245474D02*
X7959772Y-12293093D01*
X7959772Y-12293093D02*
X7950248Y-12331188D01*
X7950248Y-12331188D02*
X7940724Y-12350236D01*
X7940724Y-12350236D02*
X7931200Y-12359760D01*
X7931200Y-12359760D02*
X7912153Y-12369284D01*
X7912153Y-12369284D02*
X7893105Y-12369284D01*
X7893105Y-12369284D02*
X7874057Y-12359760D01*
X7874057Y-12359760D02*
X7864534Y-12350236D01*
X7864534Y-12350236D02*
X7855010Y-12331188D01*
X7855010Y-12331188D02*
X7845486Y-12293093D01*
X7845486Y-12293093D02*
X7845486Y-12245474D01*
X7845486Y-12245474D02*
X7855010Y-12207379D01*
X7855010Y-12207379D02*
X7864534Y-12188331D01*
X7864534Y-12188331D02*
X7874057Y-12178808D01*
X7874057Y-12178808D02*
X7893105Y-12169284D01*
X8045486Y-12350236D02*
X8055010Y-12359760D01*
X8055010Y-12359760D02*
X8045486Y-12369284D01*
X8045486Y-12369284D02*
X8035962Y-12359760D01*
X8035962Y-12359760D02*
X8045486Y-12350236D01*
X8045486Y-12350236D02*
X8045486Y-12369284D01*
X8169295Y-12254998D02*
X8150248Y-12245474D01*
X8150248Y-12245474D02*
X8140724Y-12235950D01*
X8140724Y-12235950D02*
X8131200Y-12216903D01*
X8131200Y-12216903D02*
X8131200Y-12207379D01*
X8131200Y-12207379D02*
X8140724Y-12188331D01*
X8140724Y-12188331D02*
X8150248Y-12178808D01*
X8150248Y-12178808D02*
X8169295Y-12169284D01*
X8169295Y-12169284D02*
X8207391Y-12169284D01*
X8207391Y-12169284D02*
X8226438Y-12178808D01*
X8226438Y-12178808D02*
X8235962Y-12188331D01*
X8235962Y-12188331D02*
X8245486Y-12207379D01*
X8245486Y-12207379D02*
X8245486Y-12216903D01*
X8245486Y-12216903D02*
X8235962Y-12235950D01*
X8235962Y-12235950D02*
X8226438Y-12245474D01*
X8226438Y-12245474D02*
X8207391Y-12254998D01*
X8207391Y-12254998D02*
X8169295Y-12254998D01*
X8169295Y-12254998D02*
X8150248Y-12264522D01*
X8150248Y-12264522D02*
X8140724Y-12274046D01*
X8140724Y-12274046D02*
X8131200Y-12293093D01*
X8131200Y-12293093D02*
X8131200Y-12331188D01*
X8131200Y-12331188D02*
X8140724Y-12350236D01*
X8140724Y-12350236D02*
X8150248Y-12359760D01*
X8150248Y-12359760D02*
X8169295Y-12369284D01*
X8169295Y-12369284D02*
X8207391Y-12369284D01*
X8207391Y-12369284D02*
X8226438Y-12359760D01*
X8226438Y-12359760D02*
X8235962Y-12350236D01*
X8235962Y-12350236D02*
X8245486Y-12331188D01*
X8245486Y-12331188D02*
X8245486Y-12293093D01*
X8245486Y-12293093D02*
X8235962Y-12274046D01*
X8235962Y-12274046D02*
X8226438Y-12264522D01*
X8226438Y-12264522D02*
X8207391Y-12254998D01*
X8369295Y-12169284D02*
X8388343Y-12169284D01*
X8388343Y-12169284D02*
X8407391Y-12178808D01*
X8407391Y-12178808D02*
X8416915Y-12188331D01*
X8416915Y-12188331D02*
X8426438Y-12207379D01*
X8426438Y-12207379D02*
X8435962Y-12245474D01*
X8435962Y-12245474D02*
X8435962Y-12293093D01*
X8435962Y-12293093D02*
X8426438Y-12331188D01*
X8426438Y-12331188D02*
X8416915Y-12350236D01*
X8416915Y-12350236D02*
X8407391Y-12359760D01*
X8407391Y-12359760D02*
X8388343Y-12369284D01*
X8388343Y-12369284D02*
X8369295Y-12369284D01*
X8369295Y-12369284D02*
X8350248Y-12359760D01*
X8350248Y-12359760D02*
X8340724Y-12350236D01*
X8340724Y-12350236D02*
X8331200Y-12331188D01*
X8331200Y-12331188D02*
X8321676Y-12293093D01*
X8321676Y-12293093D02*
X8321676Y-12245474D01*
X8321676Y-12245474D02*
X8331200Y-12207379D01*
X8331200Y-12207379D02*
X8340724Y-12188331D01*
X8340724Y-12188331D02*
X8350248Y-12178808D01*
X8350248Y-12178808D02*
X8369295Y-12169284D01*
X8559772Y-12169284D02*
X8578819Y-12169284D01*
X8578819Y-12169284D02*
X8597867Y-12178808D01*
X8597867Y-12178808D02*
X8607391Y-12188331D01*
X8607391Y-12188331D02*
X8616915Y-12207379D01*
X8616915Y-12207379D02*
X8626438Y-12245474D01*
X8626438Y-12245474D02*
X8626438Y-12293093D01*
X8626438Y-12293093D02*
X8616915Y-12331188D01*
X8616915Y-12331188D02*
X8607391Y-12350236D01*
X8607391Y-12350236D02*
X8597867Y-12359760D01*
X8597867Y-12359760D02*
X8578819Y-12369284D01*
X8578819Y-12369284D02*
X8559772Y-12369284D01*
X8559772Y-12369284D02*
X8540724Y-12359760D01*
X8540724Y-12359760D02*
X8531200Y-12350236D01*
X8531200Y-12350236D02*
X8521677Y-12331188D01*
X8521677Y-12331188D02*
X8512153Y-12293093D01*
X8512153Y-12293093D02*
X8512153Y-12245474D01*
X8512153Y-12245474D02*
X8521677Y-12207379D01*
X8521677Y-12207379D02*
X8531200Y-12188331D01*
X8531200Y-12188331D02*
X8540724Y-12178808D01*
X8540724Y-12178808D02*
X8559772Y-12169284D01*
X8712153Y-12369284D02*
X8712153Y-12235950D01*
X8712153Y-12254998D02*
X8721677Y-12245474D01*
X8721677Y-12245474D02*
X8740724Y-12235950D01*
X8740724Y-12235950D02*
X8769296Y-12235950D01*
X8769296Y-12235950D02*
X8788343Y-12245474D01*
X8788343Y-12245474D02*
X8797867Y-12264522D01*
X8797867Y-12264522D02*
X8797867Y-12369284D01*
X8797867Y-12264522D02*
X8807391Y-12245474D01*
X8807391Y-12245474D02*
X8826438Y-12235950D01*
X8826438Y-12235950D02*
X8855010Y-12235950D01*
X8855010Y-12235950D02*
X8874058Y-12245474D01*
X8874058Y-12245474D02*
X8883581Y-12264522D01*
X8883581Y-12264522D02*
X8883581Y-12369284D01*
X8978819Y-12369284D02*
X8978819Y-12235950D01*
X8978819Y-12254998D02*
X8988343Y-12245474D01*
X8988343Y-12245474D02*
X9007391Y-12235950D01*
X9007391Y-12235950D02*
X9035962Y-12235950D01*
X9035962Y-12235950D02*
X9055010Y-12245474D01*
X9055010Y-12245474D02*
X9064534Y-12264522D01*
X9064534Y-12264522D02*
X9064534Y-12369284D01*
X9064534Y-12264522D02*
X9074058Y-12245474D01*
X9074058Y-12245474D02*
X9093105Y-12235950D01*
X9093105Y-12235950D02*
X9121677Y-12235950D01*
X9121677Y-12235950D02*
X9140724Y-12245474D01*
X9140724Y-12245474D02*
X9150248Y-12264522D01*
X9150248Y-12264522D02*
X9150248Y-12369284D01*
X9540724Y-12159760D02*
X9369296Y-12416903D01*
X9797867Y-12169284D02*
X9816915Y-12169284D01*
X9816915Y-12169284D02*
X9835962Y-12178808D01*
X9835962Y-12178808D02*
X9845486Y-12188331D01*
X9845486Y-12188331D02*
X9855010Y-12207379D01*
X9855010Y-12207379D02*
X9864534Y-12245474D01*
X9864534Y-12245474D02*
X9864534Y-12293093D01*
X9864534Y-12293093D02*
X9855010Y-12331188D01*
X9855010Y-12331188D02*
X9845486Y-12350236D01*
X9845486Y-12350236D02*
X9835962Y-12359760D01*
X9835962Y-12359760D02*
X9816915Y-12369284D01*
X9816915Y-12369284D02*
X9797867Y-12369284D01*
X9797867Y-12369284D02*
X9778820Y-12359760D01*
X9778820Y-12359760D02*
X9769296Y-12350236D01*
X9769296Y-12350236D02*
X9759772Y-12331188D01*
X9759772Y-12331188D02*
X9750248Y-12293093D01*
X9750248Y-12293093D02*
X9750248Y-12245474D01*
X9750248Y-12245474D02*
X9759772Y-12207379D01*
X9759772Y-12207379D02*
X9769296Y-12188331D01*
X9769296Y-12188331D02*
X9778820Y-12178808D01*
X9778820Y-12178808D02*
X9797867Y-12169284D01*
X9950248Y-12350236D02*
X9959772Y-12359760D01*
X9959772Y-12359760D02*
X9950248Y-12369284D01*
X9950248Y-12369284D02*
X9940724Y-12359760D01*
X9940724Y-12359760D02*
X9950248Y-12350236D01*
X9950248Y-12350236D02*
X9950248Y-12369284D01*
X10083581Y-12169284D02*
X10102629Y-12169284D01*
X10102629Y-12169284D02*
X10121677Y-12178808D01*
X10121677Y-12178808D02*
X10131201Y-12188331D01*
X10131201Y-12188331D02*
X10140724Y-12207379D01*
X10140724Y-12207379D02*
X10150248Y-12245474D01*
X10150248Y-12245474D02*
X10150248Y-12293093D01*
X10150248Y-12293093D02*
X10140724Y-12331188D01*
X10140724Y-12331188D02*
X10131201Y-12350236D01*
X10131201Y-12350236D02*
X10121677Y-12359760D01*
X10121677Y-12359760D02*
X10102629Y-12369284D01*
X10102629Y-12369284D02*
X10083581Y-12369284D01*
X10083581Y-12369284D02*
X10064534Y-12359760D01*
X10064534Y-12359760D02*
X10055010Y-12350236D01*
X10055010Y-12350236D02*
X10045486Y-12331188D01*
X10045486Y-12331188D02*
X10035962Y-12293093D01*
X10035962Y-12293093D02*
X10035962Y-12245474D01*
X10035962Y-12245474D02*
X10045486Y-12207379D01*
X10045486Y-12207379D02*
X10055010Y-12188331D01*
X10055010Y-12188331D02*
X10064534Y-12178808D01*
X10064534Y-12178808D02*
X10083581Y-12169284D01*
X10216915Y-12169284D02*
X10340724Y-12169284D01*
X10340724Y-12169284D02*
X10274058Y-12245474D01*
X10274058Y-12245474D02*
X10302629Y-12245474D01*
X10302629Y-12245474D02*
X10321677Y-12254998D01*
X10321677Y-12254998D02*
X10331201Y-12264522D01*
X10331201Y-12264522D02*
X10340724Y-12283569D01*
X10340724Y-12283569D02*
X10340724Y-12331188D01*
X10340724Y-12331188D02*
X10331201Y-12350236D01*
X10331201Y-12350236D02*
X10321677Y-12359760D01*
X10321677Y-12359760D02*
X10302629Y-12369284D01*
X10302629Y-12369284D02*
X10245486Y-12369284D01*
X10245486Y-12369284D02*
X10226439Y-12359760D01*
X10226439Y-12359760D02*
X10216915Y-12350236D01*
X10531201Y-12369284D02*
X10416915Y-12369284D01*
X10474058Y-12369284D02*
X10474058Y-12169284D01*
X10474058Y-12169284D02*
X10455010Y-12197855D01*
X10455010Y-12197855D02*
X10435962Y-12216903D01*
X10435962Y-12216903D02*
X10416915Y-12226427D01*
X10712153Y-12169284D02*
X10616915Y-12169284D01*
X10616915Y-12169284D02*
X10607391Y-12264522D01*
X10607391Y-12264522D02*
X10616915Y-12254998D01*
X10616915Y-12254998D02*
X10635962Y-12245474D01*
X10635962Y-12245474D02*
X10683582Y-12245474D01*
X10683582Y-12245474D02*
X10702629Y-12254998D01*
X10702629Y-12254998D02*
X10712153Y-12264522D01*
X10712153Y-12264522D02*
X10721677Y-12283569D01*
X10721677Y-12283569D02*
X10721677Y-12331188D01*
X10721677Y-12331188D02*
X10712153Y-12350236D01*
X10712153Y-12350236D02*
X10702629Y-12359760D01*
X10702629Y-12359760D02*
X10683582Y-12369284D01*
X10683582Y-12369284D02*
X10635962Y-12369284D01*
X10635962Y-12369284D02*
X10616915Y-12359760D01*
X10616915Y-12359760D02*
X10607391Y-12350236D01*
X10797867Y-12169284D02*
X10797867Y-12207379D01*
X10874058Y-12169284D02*
X10874058Y-12207379D01*
X11169296Y-12445474D02*
X11159772Y-12435950D01*
X11159772Y-12435950D02*
X11140724Y-12407379D01*
X11140724Y-12407379D02*
X11131201Y-12388331D01*
X11131201Y-12388331D02*
X11121677Y-12359760D01*
X11121677Y-12359760D02*
X11112153Y-12312141D01*
X11112153Y-12312141D02*
X11112153Y-12274046D01*
X11112153Y-12274046D02*
X11121677Y-12226427D01*
X11121677Y-12226427D02*
X11131201Y-12197855D01*
X11131201Y-12197855D02*
X11140724Y-12178808D01*
X11140724Y-12178808D02*
X11159772Y-12150236D01*
X11159772Y-12150236D02*
X11169296Y-12140712D01*
X11274058Y-12254998D02*
X11255010Y-12245474D01*
X11255010Y-12245474D02*
X11245486Y-12235950D01*
X11245486Y-12235950D02*
X11235962Y-12216903D01*
X11235962Y-12216903D02*
X11235962Y-12207379D01*
X11235962Y-12207379D02*
X11245486Y-12188331D01*
X11245486Y-12188331D02*
X11255010Y-12178808D01*
X11255010Y-12178808D02*
X11274058Y-12169284D01*
X11274058Y-12169284D02*
X11312153Y-12169284D01*
X11312153Y-12169284D02*
X11331201Y-12178808D01*
X11331201Y-12178808D02*
X11340724Y-12188331D01*
X11340724Y-12188331D02*
X11350248Y-12207379D01*
X11350248Y-12207379D02*
X11350248Y-12216903D01*
X11350248Y-12216903D02*
X11340724Y-12235950D01*
X11340724Y-12235950D02*
X11331201Y-12245474D01*
X11331201Y-12245474D02*
X11312153Y-12254998D01*
X11312153Y-12254998D02*
X11274058Y-12254998D01*
X11274058Y-12254998D02*
X11255010Y-12264522D01*
X11255010Y-12264522D02*
X11245486Y-12274046D01*
X11245486Y-12274046D02*
X11235962Y-12293093D01*
X11235962Y-12293093D02*
X11235962Y-12331188D01*
X11235962Y-12331188D02*
X11245486Y-12350236D01*
X11245486Y-12350236D02*
X11255010Y-12359760D01*
X11255010Y-12359760D02*
X11274058Y-12369284D01*
X11274058Y-12369284D02*
X11312153Y-12369284D01*
X11312153Y-12369284D02*
X11331201Y-12359760D01*
X11331201Y-12359760D02*
X11340724Y-12350236D01*
X11340724Y-12350236D02*
X11350248Y-12331188D01*
X11350248Y-12331188D02*
X11350248Y-12293093D01*
X11350248Y-12293093D02*
X11340724Y-12274046D01*
X11340724Y-12274046D02*
X11331201Y-12264522D01*
X11331201Y-12264522D02*
X11312153Y-12254998D01*
X11588343Y-12369284D02*
X11588343Y-12169284D01*
X11674058Y-12369284D02*
X11674058Y-12264522D01*
X11674058Y-12264522D02*
X11664534Y-12245474D01*
X11664534Y-12245474D02*
X11645486Y-12235950D01*
X11645486Y-12235950D02*
X11616915Y-12235950D01*
X11616915Y-12235950D02*
X11597867Y-12245474D01*
X11597867Y-12245474D02*
X11588343Y-12254998D01*
X11797867Y-12369284D02*
X11778820Y-12359760D01*
X11778820Y-12359760D02*
X11769296Y-12350236D01*
X11769296Y-12350236D02*
X11759772Y-12331188D01*
X11759772Y-12331188D02*
X11759772Y-12274046D01*
X11759772Y-12274046D02*
X11769296Y-12254998D01*
X11769296Y-12254998D02*
X11778820Y-12245474D01*
X11778820Y-12245474D02*
X11797867Y-12235950D01*
X11797867Y-12235950D02*
X11826439Y-12235950D01*
X11826439Y-12235950D02*
X11845486Y-12245474D01*
X11845486Y-12245474D02*
X11855010Y-12254998D01*
X11855010Y-12254998D02*
X11864534Y-12274046D01*
X11864534Y-12274046D02*
X11864534Y-12331188D01*
X11864534Y-12331188D02*
X11855010Y-12350236D01*
X11855010Y-12350236D02*
X11845486Y-12359760D01*
X11845486Y-12359760D02*
X11826439Y-12369284D01*
X11826439Y-12369284D02*
X11797867Y-12369284D01*
X11978820Y-12369284D02*
X11959772Y-12359760D01*
X11959772Y-12359760D02*
X11950248Y-12340712D01*
X11950248Y-12340712D02*
X11950248Y-12169284D01*
X12131201Y-12359760D02*
X12112153Y-12369284D01*
X12112153Y-12369284D02*
X12074058Y-12369284D01*
X12074058Y-12369284D02*
X12055010Y-12359760D01*
X12055010Y-12359760D02*
X12045486Y-12340712D01*
X12045486Y-12340712D02*
X12045486Y-12264522D01*
X12045486Y-12264522D02*
X12055010Y-12245474D01*
X12055010Y-12245474D02*
X12074058Y-12235950D01*
X12074058Y-12235950D02*
X12112153Y-12235950D01*
X12112153Y-12235950D02*
X12131201Y-12245474D01*
X12131201Y-12245474D02*
X12140724Y-12264522D01*
X12140724Y-12264522D02*
X12140724Y-12283569D01*
X12140724Y-12283569D02*
X12045486Y-12302617D01*
X12216915Y-12359760D02*
X12235963Y-12369284D01*
X12235963Y-12369284D02*
X12274058Y-12369284D01*
X12274058Y-12369284D02*
X12293105Y-12359760D01*
X12293105Y-12359760D02*
X12302629Y-12340712D01*
X12302629Y-12340712D02*
X12302629Y-12331188D01*
X12302629Y-12331188D02*
X12293105Y-12312141D01*
X12293105Y-12312141D02*
X12274058Y-12302617D01*
X12274058Y-12302617D02*
X12245486Y-12302617D01*
X12245486Y-12302617D02*
X12226439Y-12293093D01*
X12226439Y-12293093D02*
X12216915Y-12274046D01*
X12216915Y-12274046D02*
X12216915Y-12264522D01*
X12216915Y-12264522D02*
X12226439Y-12245474D01*
X12226439Y-12245474D02*
X12245486Y-12235950D01*
X12245486Y-12235950D02*
X12274058Y-12235950D01*
X12274058Y-12235950D02*
X12293105Y-12245474D01*
X12369296Y-12445474D02*
X12378820Y-12435950D01*
X12378820Y-12435950D02*
X12397867Y-12407379D01*
X12397867Y-12407379D02*
X12407391Y-12388331D01*
X12407391Y-12388331D02*
X12416915Y-12359760D01*
X12416915Y-12359760D02*
X12426439Y-12312141D01*
X12426439Y-12312141D02*
X12426439Y-12274046D01*
X12426439Y-12274046D02*
X12416915Y-12226427D01*
X12416915Y-12226427D02*
X12407391Y-12197855D01*
X12407391Y-12197855D02*
X12397867Y-12178808D01*
X12397867Y-12178808D02*
X12378820Y-12150236D01*
X12378820Y-12150236D02*
X12369296Y-12140712D01*
D11*
X7580321Y-12575388D02*
X7580321Y-12508212D01*
X7513145Y-12508212D01*
X7513145Y-12575388D01*
X7580321Y-12575388D01*
D10*
X7893105Y-12433284D02*
X7912153Y-12433284D01*
X7912153Y-12433284D02*
X7931200Y-12442808D01*
X7931200Y-12442808D02*
X7940724Y-12452331D01*
X7940724Y-12452331D02*
X7950248Y-12471379D01*
X7950248Y-12471379D02*
X7959772Y-12509474D01*
X7959772Y-12509474D02*
X7959772Y-12557093D01*
X7959772Y-12557093D02*
X7950248Y-12595188D01*
X7950248Y-12595188D02*
X7940724Y-12614236D01*
X7940724Y-12614236D02*
X7931200Y-12623760D01*
X7931200Y-12623760D02*
X7912153Y-12633284D01*
X7912153Y-12633284D02*
X7893105Y-12633284D01*
X7893105Y-12633284D02*
X7874057Y-12623760D01*
X7874057Y-12623760D02*
X7864534Y-12614236D01*
X7864534Y-12614236D02*
X7855010Y-12595188D01*
X7855010Y-12595188D02*
X7845486Y-12557093D01*
X7845486Y-12557093D02*
X7845486Y-12509474D01*
X7845486Y-12509474D02*
X7855010Y-12471379D01*
X7855010Y-12471379D02*
X7864534Y-12452331D01*
X7864534Y-12452331D02*
X7874057Y-12442808D01*
X7874057Y-12442808D02*
X7893105Y-12433284D01*
X8045486Y-12614236D02*
X8055010Y-12623760D01*
X8055010Y-12623760D02*
X8045486Y-12633284D01*
X8045486Y-12633284D02*
X8035962Y-12623760D01*
X8035962Y-12623760D02*
X8045486Y-12614236D01*
X8045486Y-12614236D02*
X8045486Y-12633284D01*
X8150248Y-12633284D02*
X8188343Y-12633284D01*
X8188343Y-12633284D02*
X8207391Y-12623760D01*
X8207391Y-12623760D02*
X8216915Y-12614236D01*
X8216915Y-12614236D02*
X8235962Y-12585665D01*
X8235962Y-12585665D02*
X8245486Y-12547569D01*
X8245486Y-12547569D02*
X8245486Y-12471379D01*
X8245486Y-12471379D02*
X8235962Y-12452331D01*
X8235962Y-12452331D02*
X8226438Y-12442808D01*
X8226438Y-12442808D02*
X8207391Y-12433284D01*
X8207391Y-12433284D02*
X8169295Y-12433284D01*
X8169295Y-12433284D02*
X8150248Y-12442808D01*
X8150248Y-12442808D02*
X8140724Y-12452331D01*
X8140724Y-12452331D02*
X8131200Y-12471379D01*
X8131200Y-12471379D02*
X8131200Y-12518998D01*
X8131200Y-12518998D02*
X8140724Y-12538046D01*
X8140724Y-12538046D02*
X8150248Y-12547569D01*
X8150248Y-12547569D02*
X8169295Y-12557093D01*
X8169295Y-12557093D02*
X8207391Y-12557093D01*
X8207391Y-12557093D02*
X8226438Y-12547569D01*
X8226438Y-12547569D02*
X8235962Y-12538046D01*
X8235962Y-12538046D02*
X8245486Y-12518998D01*
X8426438Y-12433284D02*
X8331200Y-12433284D01*
X8331200Y-12433284D02*
X8321676Y-12528522D01*
X8321676Y-12528522D02*
X8331200Y-12518998D01*
X8331200Y-12518998D02*
X8350248Y-12509474D01*
X8350248Y-12509474D02*
X8397867Y-12509474D01*
X8397867Y-12509474D02*
X8416915Y-12518998D01*
X8416915Y-12518998D02*
X8426438Y-12528522D01*
X8426438Y-12528522D02*
X8435962Y-12547569D01*
X8435962Y-12547569D02*
X8435962Y-12595188D01*
X8435962Y-12595188D02*
X8426438Y-12614236D01*
X8426438Y-12614236D02*
X8416915Y-12623760D01*
X8416915Y-12623760D02*
X8397867Y-12633284D01*
X8397867Y-12633284D02*
X8350248Y-12633284D01*
X8350248Y-12633284D02*
X8331200Y-12623760D01*
X8331200Y-12623760D02*
X8321676Y-12614236D01*
X8559772Y-12433284D02*
X8578819Y-12433284D01*
X8578819Y-12433284D02*
X8597867Y-12442808D01*
X8597867Y-12442808D02*
X8607391Y-12452331D01*
X8607391Y-12452331D02*
X8616915Y-12471379D01*
X8616915Y-12471379D02*
X8626438Y-12509474D01*
X8626438Y-12509474D02*
X8626438Y-12557093D01*
X8626438Y-12557093D02*
X8616915Y-12595188D01*
X8616915Y-12595188D02*
X8607391Y-12614236D01*
X8607391Y-12614236D02*
X8597867Y-12623760D01*
X8597867Y-12623760D02*
X8578819Y-12633284D01*
X8578819Y-12633284D02*
X8559772Y-12633284D01*
X8559772Y-12633284D02*
X8540724Y-12623760D01*
X8540724Y-12623760D02*
X8531200Y-12614236D01*
X8531200Y-12614236D02*
X8521677Y-12595188D01*
X8521677Y-12595188D02*
X8512153Y-12557093D01*
X8512153Y-12557093D02*
X8512153Y-12509474D01*
X8512153Y-12509474D02*
X8521677Y-12471379D01*
X8521677Y-12471379D02*
X8531200Y-12452331D01*
X8531200Y-12452331D02*
X8540724Y-12442808D01*
X8540724Y-12442808D02*
X8559772Y-12433284D01*
X8712153Y-12633284D02*
X8712153Y-12499950D01*
X8712153Y-12518998D02*
X8721677Y-12509474D01*
X8721677Y-12509474D02*
X8740724Y-12499950D01*
X8740724Y-12499950D02*
X8769296Y-12499950D01*
X8769296Y-12499950D02*
X8788343Y-12509474D01*
X8788343Y-12509474D02*
X8797867Y-12528522D01*
X8797867Y-12528522D02*
X8797867Y-12633284D01*
X8797867Y-12528522D02*
X8807391Y-12509474D01*
X8807391Y-12509474D02*
X8826438Y-12499950D01*
X8826438Y-12499950D02*
X8855010Y-12499950D01*
X8855010Y-12499950D02*
X8874058Y-12509474D01*
X8874058Y-12509474D02*
X8883581Y-12528522D01*
X8883581Y-12528522D02*
X8883581Y-12633284D01*
X8978819Y-12633284D02*
X8978819Y-12499950D01*
X8978819Y-12518998D02*
X8988343Y-12509474D01*
X8988343Y-12509474D02*
X9007391Y-12499950D01*
X9007391Y-12499950D02*
X9035962Y-12499950D01*
X9035962Y-12499950D02*
X9055010Y-12509474D01*
X9055010Y-12509474D02*
X9064534Y-12528522D01*
X9064534Y-12528522D02*
X9064534Y-12633284D01*
X9064534Y-12528522D02*
X9074058Y-12509474D01*
X9074058Y-12509474D02*
X9093105Y-12499950D01*
X9093105Y-12499950D02*
X9121677Y-12499950D01*
X9121677Y-12499950D02*
X9140724Y-12509474D01*
X9140724Y-12509474D02*
X9150248Y-12528522D01*
X9150248Y-12528522D02*
X9150248Y-12633284D01*
X9540724Y-12423760D02*
X9369296Y-12680903D01*
X9797867Y-12433284D02*
X9816915Y-12433284D01*
X9816915Y-12433284D02*
X9835962Y-12442808D01*
X9835962Y-12442808D02*
X9845486Y-12452331D01*
X9845486Y-12452331D02*
X9855010Y-12471379D01*
X9855010Y-12471379D02*
X9864534Y-12509474D01*
X9864534Y-12509474D02*
X9864534Y-12557093D01*
X9864534Y-12557093D02*
X9855010Y-12595188D01*
X9855010Y-12595188D02*
X9845486Y-12614236D01*
X9845486Y-12614236D02*
X9835962Y-12623760D01*
X9835962Y-12623760D02*
X9816915Y-12633284D01*
X9816915Y-12633284D02*
X9797867Y-12633284D01*
X9797867Y-12633284D02*
X9778820Y-12623760D01*
X9778820Y-12623760D02*
X9769296Y-12614236D01*
X9769296Y-12614236D02*
X9759772Y-12595188D01*
X9759772Y-12595188D02*
X9750248Y-12557093D01*
X9750248Y-12557093D02*
X9750248Y-12509474D01*
X9750248Y-12509474D02*
X9759772Y-12471379D01*
X9759772Y-12471379D02*
X9769296Y-12452331D01*
X9769296Y-12452331D02*
X9778820Y-12442808D01*
X9778820Y-12442808D02*
X9797867Y-12433284D01*
X9950248Y-12614236D02*
X9959772Y-12623760D01*
X9959772Y-12623760D02*
X9950248Y-12633284D01*
X9950248Y-12633284D02*
X9940724Y-12623760D01*
X9940724Y-12623760D02*
X9950248Y-12614236D01*
X9950248Y-12614236D02*
X9950248Y-12633284D01*
X10083581Y-12433284D02*
X10102629Y-12433284D01*
X10102629Y-12433284D02*
X10121677Y-12442808D01*
X10121677Y-12442808D02*
X10131201Y-12452331D01*
X10131201Y-12452331D02*
X10140724Y-12471379D01*
X10140724Y-12471379D02*
X10150248Y-12509474D01*
X10150248Y-12509474D02*
X10150248Y-12557093D01*
X10150248Y-12557093D02*
X10140724Y-12595188D01*
X10140724Y-12595188D02*
X10131201Y-12614236D01*
X10131201Y-12614236D02*
X10121677Y-12623760D01*
X10121677Y-12623760D02*
X10102629Y-12633284D01*
X10102629Y-12633284D02*
X10083581Y-12633284D01*
X10083581Y-12633284D02*
X10064534Y-12623760D01*
X10064534Y-12623760D02*
X10055010Y-12614236D01*
X10055010Y-12614236D02*
X10045486Y-12595188D01*
X10045486Y-12595188D02*
X10035962Y-12557093D01*
X10035962Y-12557093D02*
X10035962Y-12509474D01*
X10035962Y-12509474D02*
X10045486Y-12471379D01*
X10045486Y-12471379D02*
X10055010Y-12452331D01*
X10055010Y-12452331D02*
X10064534Y-12442808D01*
X10064534Y-12442808D02*
X10083581Y-12433284D01*
X10216915Y-12433284D02*
X10340724Y-12433284D01*
X10340724Y-12433284D02*
X10274058Y-12509474D01*
X10274058Y-12509474D02*
X10302629Y-12509474D01*
X10302629Y-12509474D02*
X10321677Y-12518998D01*
X10321677Y-12518998D02*
X10331201Y-12528522D01*
X10331201Y-12528522D02*
X10340724Y-12547569D01*
X10340724Y-12547569D02*
X10340724Y-12595188D01*
X10340724Y-12595188D02*
X10331201Y-12614236D01*
X10331201Y-12614236D02*
X10321677Y-12623760D01*
X10321677Y-12623760D02*
X10302629Y-12633284D01*
X10302629Y-12633284D02*
X10245486Y-12633284D01*
X10245486Y-12633284D02*
X10226439Y-12623760D01*
X10226439Y-12623760D02*
X10216915Y-12614236D01*
X10407391Y-12433284D02*
X10540724Y-12433284D01*
X10540724Y-12433284D02*
X10455010Y-12633284D01*
X10702629Y-12499950D02*
X10702629Y-12633284D01*
X10655010Y-12423760D02*
X10607391Y-12566617D01*
X10607391Y-12566617D02*
X10731201Y-12566617D01*
X10797867Y-12433284D02*
X10797867Y-12471379D01*
X10874058Y-12433284D02*
X10874058Y-12471379D01*
X11169296Y-12709474D02*
X11159772Y-12699950D01*
X11159772Y-12699950D02*
X11140724Y-12671379D01*
X11140724Y-12671379D02*
X11131201Y-12652331D01*
X11131201Y-12652331D02*
X11121677Y-12623760D01*
X11121677Y-12623760D02*
X11112153Y-12576141D01*
X11112153Y-12576141D02*
X11112153Y-12538046D01*
X11112153Y-12538046D02*
X11121677Y-12490427D01*
X11121677Y-12490427D02*
X11131201Y-12461855D01*
X11131201Y-12461855D02*
X11140724Y-12442808D01*
X11140724Y-12442808D02*
X11159772Y-12414236D01*
X11159772Y-12414236D02*
X11169296Y-12404712D01*
X11226439Y-12433284D02*
X11359772Y-12433284D01*
X11359772Y-12433284D02*
X11274058Y-12633284D01*
X11588343Y-12633284D02*
X11588343Y-12433284D01*
X11674058Y-12633284D02*
X11674058Y-12528522D01*
X11674058Y-12528522D02*
X11664534Y-12509474D01*
X11664534Y-12509474D02*
X11645486Y-12499950D01*
X11645486Y-12499950D02*
X11616915Y-12499950D01*
X11616915Y-12499950D02*
X11597867Y-12509474D01*
X11597867Y-12509474D02*
X11588343Y-12518998D01*
X11797867Y-12633284D02*
X11778820Y-12623760D01*
X11778820Y-12623760D02*
X11769296Y-12614236D01*
X11769296Y-12614236D02*
X11759772Y-12595188D01*
X11759772Y-12595188D02*
X11759772Y-12538046D01*
X11759772Y-12538046D02*
X11769296Y-12518998D01*
X11769296Y-12518998D02*
X11778820Y-12509474D01*
X11778820Y-12509474D02*
X11797867Y-12499950D01*
X11797867Y-12499950D02*
X11826439Y-12499950D01*
X11826439Y-12499950D02*
X11845486Y-12509474D01*
X11845486Y-12509474D02*
X11855010Y-12518998D01*
X11855010Y-12518998D02*
X11864534Y-12538046D01*
X11864534Y-12538046D02*
X11864534Y-12595188D01*
X11864534Y-12595188D02*
X11855010Y-12614236D01*
X11855010Y-12614236D02*
X11845486Y-12623760D01*
X11845486Y-12623760D02*
X11826439Y-12633284D01*
X11826439Y-12633284D02*
X11797867Y-12633284D01*
X11978820Y-12633284D02*
X11959772Y-12623760D01*
X11959772Y-12623760D02*
X11950248Y-12604712D01*
X11950248Y-12604712D02*
X11950248Y-12433284D01*
X12131201Y-12623760D02*
X12112153Y-12633284D01*
X12112153Y-12633284D02*
X12074058Y-12633284D01*
X12074058Y-12633284D02*
X12055010Y-12623760D01*
X12055010Y-12623760D02*
X12045486Y-12604712D01*
X12045486Y-12604712D02*
X12045486Y-12528522D01*
X12045486Y-12528522D02*
X12055010Y-12509474D01*
X12055010Y-12509474D02*
X12074058Y-12499950D01*
X12074058Y-12499950D02*
X12112153Y-12499950D01*
X12112153Y-12499950D02*
X12131201Y-12509474D01*
X12131201Y-12509474D02*
X12140724Y-12528522D01*
X12140724Y-12528522D02*
X12140724Y-12547569D01*
X12140724Y-12547569D02*
X12045486Y-12566617D01*
X12216915Y-12623760D02*
X12235963Y-12633284D01*
X12235963Y-12633284D02*
X12274058Y-12633284D01*
X12274058Y-12633284D02*
X12293105Y-12623760D01*
X12293105Y-12623760D02*
X12302629Y-12604712D01*
X12302629Y-12604712D02*
X12302629Y-12595188D01*
X12302629Y-12595188D02*
X12293105Y-12576141D01*
X12293105Y-12576141D02*
X12274058Y-12566617D01*
X12274058Y-12566617D02*
X12245486Y-12566617D01*
X12245486Y-12566617D02*
X12226439Y-12557093D01*
X12226439Y-12557093D02*
X12216915Y-12538046D01*
X12216915Y-12538046D02*
X12216915Y-12528522D01*
X12216915Y-12528522D02*
X12226439Y-12509474D01*
X12226439Y-12509474D02*
X12245486Y-12499950D01*
X12245486Y-12499950D02*
X12274058Y-12499950D01*
X12274058Y-12499950D02*
X12293105Y-12509474D01*
X12369296Y-12709474D02*
X12378820Y-12699950D01*
X12378820Y-12699950D02*
X12397867Y-12671379D01*
X12397867Y-12671379D02*
X12407391Y-12652331D01*
X12407391Y-12652331D02*
X12416915Y-12623760D01*
X12416915Y-12623760D02*
X12426439Y-12576141D01*
X12426439Y-12576141D02*
X12426439Y-12538046D01*
X12426439Y-12538046D02*
X12416915Y-12490427D01*
X12416915Y-12490427D02*
X12407391Y-12461855D01*
X12407391Y-12461855D02*
X12397867Y-12442808D01*
X12397867Y-12442808D02*
X12378820Y-12414236D01*
X12378820Y-12414236D02*
X12369296Y-12404712D01*
D11*
X7544233Y-12855800D02*
X7594233Y-12805800D01*
X7544233Y-12755800D01*
X7494233Y-12805800D01*
X7544233Y-12855800D01*
D10*
X7959772Y-12897284D02*
X7845486Y-12897284D01*
X7902629Y-12897284D02*
X7902629Y-12697284D01*
X7902629Y-12697284D02*
X7883581Y-12725855D01*
X7883581Y-12725855D02*
X7864534Y-12744903D01*
X7864534Y-12744903D02*
X7845486Y-12754427D01*
X8045486Y-12878236D02*
X8055010Y-12887760D01*
X8055010Y-12887760D02*
X8045486Y-12897284D01*
X8045486Y-12897284D02*
X8035962Y-12887760D01*
X8035962Y-12887760D02*
X8045486Y-12878236D01*
X8045486Y-12878236D02*
X8045486Y-12897284D01*
X8178819Y-12697284D02*
X8197867Y-12697284D01*
X8197867Y-12697284D02*
X8216915Y-12706808D01*
X8216915Y-12706808D02*
X8226438Y-12716331D01*
X8226438Y-12716331D02*
X8235962Y-12735379D01*
X8235962Y-12735379D02*
X8245486Y-12773474D01*
X8245486Y-12773474D02*
X8245486Y-12821093D01*
X8245486Y-12821093D02*
X8235962Y-12859188D01*
X8235962Y-12859188D02*
X8226438Y-12878236D01*
X8226438Y-12878236D02*
X8216915Y-12887760D01*
X8216915Y-12887760D02*
X8197867Y-12897284D01*
X8197867Y-12897284D02*
X8178819Y-12897284D01*
X8178819Y-12897284D02*
X8159772Y-12887760D01*
X8159772Y-12887760D02*
X8150248Y-12878236D01*
X8150248Y-12878236D02*
X8140724Y-12859188D01*
X8140724Y-12859188D02*
X8131200Y-12821093D01*
X8131200Y-12821093D02*
X8131200Y-12773474D01*
X8131200Y-12773474D02*
X8140724Y-12735379D01*
X8140724Y-12735379D02*
X8150248Y-12716331D01*
X8150248Y-12716331D02*
X8159772Y-12706808D01*
X8159772Y-12706808D02*
X8178819Y-12697284D01*
X8369295Y-12697284D02*
X8388343Y-12697284D01*
X8388343Y-12697284D02*
X8407391Y-12706808D01*
X8407391Y-12706808D02*
X8416915Y-12716331D01*
X8416915Y-12716331D02*
X8426438Y-12735379D01*
X8426438Y-12735379D02*
X8435962Y-12773474D01*
X8435962Y-12773474D02*
X8435962Y-12821093D01*
X8435962Y-12821093D02*
X8426438Y-12859188D01*
X8426438Y-12859188D02*
X8416915Y-12878236D01*
X8416915Y-12878236D02*
X8407391Y-12887760D01*
X8407391Y-12887760D02*
X8388343Y-12897284D01*
X8388343Y-12897284D02*
X8369295Y-12897284D01*
X8369295Y-12897284D02*
X8350248Y-12887760D01*
X8350248Y-12887760D02*
X8340724Y-12878236D01*
X8340724Y-12878236D02*
X8331200Y-12859188D01*
X8331200Y-12859188D02*
X8321676Y-12821093D01*
X8321676Y-12821093D02*
X8321676Y-12773474D01*
X8321676Y-12773474D02*
X8331200Y-12735379D01*
X8331200Y-12735379D02*
X8340724Y-12716331D01*
X8340724Y-12716331D02*
X8350248Y-12706808D01*
X8350248Y-12706808D02*
X8369295Y-12697284D01*
X8559772Y-12697284D02*
X8578819Y-12697284D01*
X8578819Y-12697284D02*
X8597867Y-12706808D01*
X8597867Y-12706808D02*
X8607391Y-12716331D01*
X8607391Y-12716331D02*
X8616915Y-12735379D01*
X8616915Y-12735379D02*
X8626438Y-12773474D01*
X8626438Y-12773474D02*
X8626438Y-12821093D01*
X8626438Y-12821093D02*
X8616915Y-12859188D01*
X8616915Y-12859188D02*
X8607391Y-12878236D01*
X8607391Y-12878236D02*
X8597867Y-12887760D01*
X8597867Y-12887760D02*
X8578819Y-12897284D01*
X8578819Y-12897284D02*
X8559772Y-12897284D01*
X8559772Y-12897284D02*
X8540724Y-12887760D01*
X8540724Y-12887760D02*
X8531200Y-12878236D01*
X8531200Y-12878236D02*
X8521677Y-12859188D01*
X8521677Y-12859188D02*
X8512153Y-12821093D01*
X8512153Y-12821093D02*
X8512153Y-12773474D01*
X8512153Y-12773474D02*
X8521677Y-12735379D01*
X8521677Y-12735379D02*
X8531200Y-12716331D01*
X8531200Y-12716331D02*
X8540724Y-12706808D01*
X8540724Y-12706808D02*
X8559772Y-12697284D01*
X8712153Y-12897284D02*
X8712153Y-12763950D01*
X8712153Y-12782998D02*
X8721677Y-12773474D01*
X8721677Y-12773474D02*
X8740724Y-12763950D01*
X8740724Y-12763950D02*
X8769296Y-12763950D01*
X8769296Y-12763950D02*
X8788343Y-12773474D01*
X8788343Y-12773474D02*
X8797867Y-12792522D01*
X8797867Y-12792522D02*
X8797867Y-12897284D01*
X8797867Y-12792522D02*
X8807391Y-12773474D01*
X8807391Y-12773474D02*
X8826438Y-12763950D01*
X8826438Y-12763950D02*
X8855010Y-12763950D01*
X8855010Y-12763950D02*
X8874058Y-12773474D01*
X8874058Y-12773474D02*
X8883581Y-12792522D01*
X8883581Y-12792522D02*
X8883581Y-12897284D01*
X8978819Y-12897284D02*
X8978819Y-12763950D01*
X8978819Y-12782998D02*
X8988343Y-12773474D01*
X8988343Y-12773474D02*
X9007391Y-12763950D01*
X9007391Y-12763950D02*
X9035962Y-12763950D01*
X9035962Y-12763950D02*
X9055010Y-12773474D01*
X9055010Y-12773474D02*
X9064534Y-12792522D01*
X9064534Y-12792522D02*
X9064534Y-12897284D01*
X9064534Y-12792522D02*
X9074058Y-12773474D01*
X9074058Y-12773474D02*
X9093105Y-12763950D01*
X9093105Y-12763950D02*
X9121677Y-12763950D01*
X9121677Y-12763950D02*
X9140724Y-12773474D01*
X9140724Y-12773474D02*
X9150248Y-12792522D01*
X9150248Y-12792522D02*
X9150248Y-12897284D01*
X9540724Y-12687760D02*
X9369296Y-12944903D01*
X9797867Y-12697284D02*
X9816915Y-12697284D01*
X9816915Y-12697284D02*
X9835962Y-12706808D01*
X9835962Y-12706808D02*
X9845486Y-12716331D01*
X9845486Y-12716331D02*
X9855010Y-12735379D01*
X9855010Y-12735379D02*
X9864534Y-12773474D01*
X9864534Y-12773474D02*
X9864534Y-12821093D01*
X9864534Y-12821093D02*
X9855010Y-12859188D01*
X9855010Y-12859188D02*
X9845486Y-12878236D01*
X9845486Y-12878236D02*
X9835962Y-12887760D01*
X9835962Y-12887760D02*
X9816915Y-12897284D01*
X9816915Y-12897284D02*
X9797867Y-12897284D01*
X9797867Y-12897284D02*
X9778820Y-12887760D01*
X9778820Y-12887760D02*
X9769296Y-12878236D01*
X9769296Y-12878236D02*
X9759772Y-12859188D01*
X9759772Y-12859188D02*
X9750248Y-12821093D01*
X9750248Y-12821093D02*
X9750248Y-12773474D01*
X9750248Y-12773474D02*
X9759772Y-12735379D01*
X9759772Y-12735379D02*
X9769296Y-12716331D01*
X9769296Y-12716331D02*
X9778820Y-12706808D01*
X9778820Y-12706808D02*
X9797867Y-12697284D01*
X9950248Y-12878236D02*
X9959772Y-12887760D01*
X9959772Y-12887760D02*
X9950248Y-12897284D01*
X9950248Y-12897284D02*
X9940724Y-12887760D01*
X9940724Y-12887760D02*
X9950248Y-12878236D01*
X9950248Y-12878236D02*
X9950248Y-12897284D01*
X10083581Y-12697284D02*
X10102629Y-12697284D01*
X10102629Y-12697284D02*
X10121677Y-12706808D01*
X10121677Y-12706808D02*
X10131201Y-12716331D01*
X10131201Y-12716331D02*
X10140724Y-12735379D01*
X10140724Y-12735379D02*
X10150248Y-12773474D01*
X10150248Y-12773474D02*
X10150248Y-12821093D01*
X10150248Y-12821093D02*
X10140724Y-12859188D01*
X10140724Y-12859188D02*
X10131201Y-12878236D01*
X10131201Y-12878236D02*
X10121677Y-12887760D01*
X10121677Y-12887760D02*
X10102629Y-12897284D01*
X10102629Y-12897284D02*
X10083581Y-12897284D01*
X10083581Y-12897284D02*
X10064534Y-12887760D01*
X10064534Y-12887760D02*
X10055010Y-12878236D01*
X10055010Y-12878236D02*
X10045486Y-12859188D01*
X10045486Y-12859188D02*
X10035962Y-12821093D01*
X10035962Y-12821093D02*
X10035962Y-12773474D01*
X10035962Y-12773474D02*
X10045486Y-12735379D01*
X10045486Y-12735379D02*
X10055010Y-12716331D01*
X10055010Y-12716331D02*
X10064534Y-12706808D01*
X10064534Y-12706808D02*
X10083581Y-12697284D01*
X10216915Y-12697284D02*
X10340724Y-12697284D01*
X10340724Y-12697284D02*
X10274058Y-12773474D01*
X10274058Y-12773474D02*
X10302629Y-12773474D01*
X10302629Y-12773474D02*
X10321677Y-12782998D01*
X10321677Y-12782998D02*
X10331201Y-12792522D01*
X10331201Y-12792522D02*
X10340724Y-12811569D01*
X10340724Y-12811569D02*
X10340724Y-12859188D01*
X10340724Y-12859188D02*
X10331201Y-12878236D01*
X10331201Y-12878236D02*
X10321677Y-12887760D01*
X10321677Y-12887760D02*
X10302629Y-12897284D01*
X10302629Y-12897284D02*
X10245486Y-12897284D01*
X10245486Y-12897284D02*
X10226439Y-12887760D01*
X10226439Y-12887760D02*
X10216915Y-12878236D01*
X10435962Y-12897284D02*
X10474058Y-12897284D01*
X10474058Y-12897284D02*
X10493105Y-12887760D01*
X10493105Y-12887760D02*
X10502629Y-12878236D01*
X10502629Y-12878236D02*
X10521677Y-12849665D01*
X10521677Y-12849665D02*
X10531201Y-12811569D01*
X10531201Y-12811569D02*
X10531201Y-12735379D01*
X10531201Y-12735379D02*
X10521677Y-12716331D01*
X10521677Y-12716331D02*
X10512153Y-12706808D01*
X10512153Y-12706808D02*
X10493105Y-12697284D01*
X10493105Y-12697284D02*
X10455010Y-12697284D01*
X10455010Y-12697284D02*
X10435962Y-12706808D01*
X10435962Y-12706808D02*
X10426439Y-12716331D01*
X10426439Y-12716331D02*
X10416915Y-12735379D01*
X10416915Y-12735379D02*
X10416915Y-12782998D01*
X10416915Y-12782998D02*
X10426439Y-12802046D01*
X10426439Y-12802046D02*
X10435962Y-12811569D01*
X10435962Y-12811569D02*
X10455010Y-12821093D01*
X10455010Y-12821093D02*
X10493105Y-12821093D01*
X10493105Y-12821093D02*
X10512153Y-12811569D01*
X10512153Y-12811569D02*
X10521677Y-12802046D01*
X10521677Y-12802046D02*
X10531201Y-12782998D01*
X10702629Y-12763950D02*
X10702629Y-12897284D01*
X10655010Y-12687760D02*
X10607391Y-12830617D01*
X10607391Y-12830617D02*
X10731201Y-12830617D01*
X10797867Y-12697284D02*
X10797867Y-12735379D01*
X10874058Y-12697284D02*
X10874058Y-12735379D01*
X11169296Y-12973474D02*
X11159772Y-12963950D01*
X11159772Y-12963950D02*
X11140724Y-12935379D01*
X11140724Y-12935379D02*
X11131201Y-12916331D01*
X11131201Y-12916331D02*
X11121677Y-12887760D01*
X11121677Y-12887760D02*
X11112153Y-12840141D01*
X11112153Y-12840141D02*
X11112153Y-12802046D01*
X11112153Y-12802046D02*
X11121677Y-12754427D01*
X11121677Y-12754427D02*
X11131201Y-12725855D01*
X11131201Y-12725855D02*
X11140724Y-12706808D01*
X11140724Y-12706808D02*
X11159772Y-12678236D01*
X11159772Y-12678236D02*
X11169296Y-12668712D01*
X11350248Y-12897284D02*
X11235962Y-12897284D01*
X11293105Y-12897284D02*
X11293105Y-12697284D01*
X11293105Y-12697284D02*
X11274058Y-12725855D01*
X11274058Y-12725855D02*
X11255010Y-12744903D01*
X11255010Y-12744903D02*
X11235962Y-12754427D01*
X11474058Y-12697284D02*
X11493105Y-12697284D01*
X11493105Y-12697284D02*
X11512153Y-12706808D01*
X11512153Y-12706808D02*
X11521677Y-12716331D01*
X11521677Y-12716331D02*
X11531201Y-12735379D01*
X11531201Y-12735379D02*
X11540724Y-12773474D01*
X11540724Y-12773474D02*
X11540724Y-12821093D01*
X11540724Y-12821093D02*
X11531201Y-12859188D01*
X11531201Y-12859188D02*
X11521677Y-12878236D01*
X11521677Y-12878236D02*
X11512153Y-12887760D01*
X11512153Y-12887760D02*
X11493105Y-12897284D01*
X11493105Y-12897284D02*
X11474058Y-12897284D01*
X11474058Y-12897284D02*
X11455010Y-12887760D01*
X11455010Y-12887760D02*
X11445486Y-12878236D01*
X11445486Y-12878236D02*
X11435962Y-12859188D01*
X11435962Y-12859188D02*
X11426439Y-12821093D01*
X11426439Y-12821093D02*
X11426439Y-12773474D01*
X11426439Y-12773474D02*
X11435962Y-12735379D01*
X11435962Y-12735379D02*
X11445486Y-12716331D01*
X11445486Y-12716331D02*
X11455010Y-12706808D01*
X11455010Y-12706808D02*
X11474058Y-12697284D01*
X11778820Y-12897284D02*
X11778820Y-12697284D01*
X11864534Y-12897284D02*
X11864534Y-12792522D01*
X11864534Y-12792522D02*
X11855010Y-12773474D01*
X11855010Y-12773474D02*
X11835963Y-12763950D01*
X11835963Y-12763950D02*
X11807391Y-12763950D01*
X11807391Y-12763950D02*
X11788343Y-12773474D01*
X11788343Y-12773474D02*
X11778820Y-12782998D01*
X11988343Y-12897284D02*
X11969296Y-12887760D01*
X11969296Y-12887760D02*
X11959772Y-12878236D01*
X11959772Y-12878236D02*
X11950248Y-12859188D01*
X11950248Y-12859188D02*
X11950248Y-12802046D01*
X11950248Y-12802046D02*
X11959772Y-12782998D01*
X11959772Y-12782998D02*
X11969296Y-12773474D01*
X11969296Y-12773474D02*
X11988343Y-12763950D01*
X11988343Y-12763950D02*
X12016915Y-12763950D01*
X12016915Y-12763950D02*
X12035963Y-12773474D01*
X12035963Y-12773474D02*
X12045486Y-12782998D01*
X12045486Y-12782998D02*
X12055010Y-12802046D01*
X12055010Y-12802046D02*
X12055010Y-12859188D01*
X12055010Y-12859188D02*
X12045486Y-12878236D01*
X12045486Y-12878236D02*
X12035963Y-12887760D01*
X12035963Y-12887760D02*
X12016915Y-12897284D01*
X12016915Y-12897284D02*
X11988343Y-12897284D01*
X12169296Y-12897284D02*
X12150248Y-12887760D01*
X12150248Y-12887760D02*
X12140724Y-12868712D01*
X12140724Y-12868712D02*
X12140724Y-12697284D01*
X12321677Y-12887760D02*
X12302629Y-12897284D01*
X12302629Y-12897284D02*
X12264534Y-12897284D01*
X12264534Y-12897284D02*
X12245486Y-12887760D01*
X12245486Y-12887760D02*
X12235963Y-12868712D01*
X12235963Y-12868712D02*
X12235963Y-12792522D01*
X12235963Y-12792522D02*
X12245486Y-12773474D01*
X12245486Y-12773474D02*
X12264534Y-12763950D01*
X12264534Y-12763950D02*
X12302629Y-12763950D01*
X12302629Y-12763950D02*
X12321677Y-12773474D01*
X12321677Y-12773474D02*
X12331201Y-12792522D01*
X12331201Y-12792522D02*
X12331201Y-12811569D01*
X12331201Y-12811569D02*
X12235963Y-12830617D01*
X12407391Y-12887760D02*
X12426439Y-12897284D01*
X12426439Y-12897284D02*
X12464534Y-12897284D01*
X12464534Y-12897284D02*
X12483582Y-12887760D01*
X12483582Y-12887760D02*
X12493105Y-12868712D01*
X12493105Y-12868712D02*
X12493105Y-12859188D01*
X12493105Y-12859188D02*
X12483582Y-12840141D01*
X12483582Y-12840141D02*
X12464534Y-12830617D01*
X12464534Y-12830617D02*
X12435963Y-12830617D01*
X12435963Y-12830617D02*
X12416915Y-12821093D01*
X12416915Y-12821093D02*
X12407391Y-12802046D01*
X12407391Y-12802046D02*
X12407391Y-12792522D01*
X12407391Y-12792522D02*
X12416915Y-12773474D01*
X12416915Y-12773474D02*
X12435963Y-12763950D01*
X12435963Y-12763950D02*
X12464534Y-12763950D01*
X12464534Y-12763950D02*
X12483582Y-12773474D01*
X12559772Y-12973474D02*
X12569296Y-12963950D01*
X12569296Y-12963950D02*
X12588344Y-12935379D01*
X12588344Y-12935379D02*
X12597867Y-12916331D01*
X12597867Y-12916331D02*
X12607391Y-12887760D01*
X12607391Y-12887760D02*
X12616915Y-12840141D01*
X12616915Y-12840141D02*
X12616915Y-12802046D01*
X12616915Y-12802046D02*
X12607391Y-12754427D01*
X12607391Y-12754427D02*
X12597867Y-12725855D01*
X12597867Y-12725855D02*
X12588344Y-12706808D01*
X12588344Y-12706808D02*
X12569296Y-12678236D01*
X12569296Y-12678236D02*
X12559772Y-12668712D01*
D12*
X7474233Y-13009800D02*
X7594233Y-13129800D01*
X7594233Y-13009800D02*
X7474233Y-13129800D01*
X7594233Y-13069800D02*
G75*
G03*
X7594233Y-13069800I-60000J0D01*
G01*
D10*
X7959772Y-13161284D02*
X7845486Y-13161284D01*
X7902629Y-13161284D02*
X7902629Y-12961284D01*
X7902629Y-12961284D02*
X7883581Y-12989855D01*
X7883581Y-12989855D02*
X7864534Y-13008903D01*
X7864534Y-13008903D02*
X7845486Y-13018427D01*
X8045486Y-13142236D02*
X8055010Y-13151760D01*
X8055010Y-13151760D02*
X8045486Y-13161284D01*
X8045486Y-13161284D02*
X8035962Y-13151760D01*
X8035962Y-13151760D02*
X8045486Y-13142236D01*
X8045486Y-13142236D02*
X8045486Y-13161284D01*
X8131200Y-12980331D02*
X8140724Y-12970808D01*
X8140724Y-12970808D02*
X8159772Y-12961284D01*
X8159772Y-12961284D02*
X8207391Y-12961284D01*
X8207391Y-12961284D02*
X8226438Y-12970808D01*
X8226438Y-12970808D02*
X8235962Y-12980331D01*
X8235962Y-12980331D02*
X8245486Y-12999379D01*
X8245486Y-12999379D02*
X8245486Y-13018427D01*
X8245486Y-13018427D02*
X8235962Y-13046998D01*
X8235962Y-13046998D02*
X8121676Y-13161284D01*
X8121676Y-13161284D02*
X8245486Y-13161284D01*
X8369295Y-12961284D02*
X8388343Y-12961284D01*
X8388343Y-12961284D02*
X8407391Y-12970808D01*
X8407391Y-12970808D02*
X8416915Y-12980331D01*
X8416915Y-12980331D02*
X8426438Y-12999379D01*
X8426438Y-12999379D02*
X8435962Y-13037474D01*
X8435962Y-13037474D02*
X8435962Y-13085093D01*
X8435962Y-13085093D02*
X8426438Y-13123188D01*
X8426438Y-13123188D02*
X8416915Y-13142236D01*
X8416915Y-13142236D02*
X8407391Y-13151760D01*
X8407391Y-13151760D02*
X8388343Y-13161284D01*
X8388343Y-13161284D02*
X8369295Y-13161284D01*
X8369295Y-13161284D02*
X8350248Y-13151760D01*
X8350248Y-13151760D02*
X8340724Y-13142236D01*
X8340724Y-13142236D02*
X8331200Y-13123188D01*
X8331200Y-13123188D02*
X8321676Y-13085093D01*
X8321676Y-13085093D02*
X8321676Y-13037474D01*
X8321676Y-13037474D02*
X8331200Y-12999379D01*
X8331200Y-12999379D02*
X8340724Y-12980331D01*
X8340724Y-12980331D02*
X8350248Y-12970808D01*
X8350248Y-12970808D02*
X8369295Y-12961284D01*
X8559772Y-12961284D02*
X8578819Y-12961284D01*
X8578819Y-12961284D02*
X8597867Y-12970808D01*
X8597867Y-12970808D02*
X8607391Y-12980331D01*
X8607391Y-12980331D02*
X8616915Y-12999379D01*
X8616915Y-12999379D02*
X8626438Y-13037474D01*
X8626438Y-13037474D02*
X8626438Y-13085093D01*
X8626438Y-13085093D02*
X8616915Y-13123188D01*
X8616915Y-13123188D02*
X8607391Y-13142236D01*
X8607391Y-13142236D02*
X8597867Y-13151760D01*
X8597867Y-13151760D02*
X8578819Y-13161284D01*
X8578819Y-13161284D02*
X8559772Y-13161284D01*
X8559772Y-13161284D02*
X8540724Y-13151760D01*
X8540724Y-13151760D02*
X8531200Y-13142236D01*
X8531200Y-13142236D02*
X8521677Y-13123188D01*
X8521677Y-13123188D02*
X8512153Y-13085093D01*
X8512153Y-13085093D02*
X8512153Y-13037474D01*
X8512153Y-13037474D02*
X8521677Y-12999379D01*
X8521677Y-12999379D02*
X8531200Y-12980331D01*
X8531200Y-12980331D02*
X8540724Y-12970808D01*
X8540724Y-12970808D02*
X8559772Y-12961284D01*
X8712153Y-13161284D02*
X8712153Y-13027950D01*
X8712153Y-13046998D02*
X8721677Y-13037474D01*
X8721677Y-13037474D02*
X8740724Y-13027950D01*
X8740724Y-13027950D02*
X8769296Y-13027950D01*
X8769296Y-13027950D02*
X8788343Y-13037474D01*
X8788343Y-13037474D02*
X8797867Y-13056522D01*
X8797867Y-13056522D02*
X8797867Y-13161284D01*
X8797867Y-13056522D02*
X8807391Y-13037474D01*
X8807391Y-13037474D02*
X8826438Y-13027950D01*
X8826438Y-13027950D02*
X8855010Y-13027950D01*
X8855010Y-13027950D02*
X8874058Y-13037474D01*
X8874058Y-13037474D02*
X8883581Y-13056522D01*
X8883581Y-13056522D02*
X8883581Y-13161284D01*
X8978819Y-13161284D02*
X8978819Y-13027950D01*
X8978819Y-13046998D02*
X8988343Y-13037474D01*
X8988343Y-13037474D02*
X9007391Y-13027950D01*
X9007391Y-13027950D02*
X9035962Y-13027950D01*
X9035962Y-13027950D02*
X9055010Y-13037474D01*
X9055010Y-13037474D02*
X9064534Y-13056522D01*
X9064534Y-13056522D02*
X9064534Y-13161284D01*
X9064534Y-13056522D02*
X9074058Y-13037474D01*
X9074058Y-13037474D02*
X9093105Y-13027950D01*
X9093105Y-13027950D02*
X9121677Y-13027950D01*
X9121677Y-13027950D02*
X9140724Y-13037474D01*
X9140724Y-13037474D02*
X9150248Y-13056522D01*
X9150248Y-13056522D02*
X9150248Y-13161284D01*
X9540724Y-12951760D02*
X9369296Y-13208903D01*
X9797867Y-12961284D02*
X9816915Y-12961284D01*
X9816915Y-12961284D02*
X9835962Y-12970808D01*
X9835962Y-12970808D02*
X9845486Y-12980331D01*
X9845486Y-12980331D02*
X9855010Y-12999379D01*
X9855010Y-12999379D02*
X9864534Y-13037474D01*
X9864534Y-13037474D02*
X9864534Y-13085093D01*
X9864534Y-13085093D02*
X9855010Y-13123188D01*
X9855010Y-13123188D02*
X9845486Y-13142236D01*
X9845486Y-13142236D02*
X9835962Y-13151760D01*
X9835962Y-13151760D02*
X9816915Y-13161284D01*
X9816915Y-13161284D02*
X9797867Y-13161284D01*
X9797867Y-13161284D02*
X9778820Y-13151760D01*
X9778820Y-13151760D02*
X9769296Y-13142236D01*
X9769296Y-13142236D02*
X9759772Y-13123188D01*
X9759772Y-13123188D02*
X9750248Y-13085093D01*
X9750248Y-13085093D02*
X9750248Y-13037474D01*
X9750248Y-13037474D02*
X9759772Y-12999379D01*
X9759772Y-12999379D02*
X9769296Y-12980331D01*
X9769296Y-12980331D02*
X9778820Y-12970808D01*
X9778820Y-12970808D02*
X9797867Y-12961284D01*
X9950248Y-13142236D02*
X9959772Y-13151760D01*
X9959772Y-13151760D02*
X9950248Y-13161284D01*
X9950248Y-13161284D02*
X9940724Y-13151760D01*
X9940724Y-13151760D02*
X9950248Y-13142236D01*
X9950248Y-13142236D02*
X9950248Y-13161284D01*
X10083581Y-12961284D02*
X10102629Y-12961284D01*
X10102629Y-12961284D02*
X10121677Y-12970808D01*
X10121677Y-12970808D02*
X10131201Y-12980331D01*
X10131201Y-12980331D02*
X10140724Y-12999379D01*
X10140724Y-12999379D02*
X10150248Y-13037474D01*
X10150248Y-13037474D02*
X10150248Y-13085093D01*
X10150248Y-13085093D02*
X10140724Y-13123188D01*
X10140724Y-13123188D02*
X10131201Y-13142236D01*
X10131201Y-13142236D02*
X10121677Y-13151760D01*
X10121677Y-13151760D02*
X10102629Y-13161284D01*
X10102629Y-13161284D02*
X10083581Y-13161284D01*
X10083581Y-13161284D02*
X10064534Y-13151760D01*
X10064534Y-13151760D02*
X10055010Y-13142236D01*
X10055010Y-13142236D02*
X10045486Y-13123188D01*
X10045486Y-13123188D02*
X10035962Y-13085093D01*
X10035962Y-13085093D02*
X10035962Y-13037474D01*
X10035962Y-13037474D02*
X10045486Y-12999379D01*
X10045486Y-12999379D02*
X10055010Y-12980331D01*
X10055010Y-12980331D02*
X10064534Y-12970808D01*
X10064534Y-12970808D02*
X10083581Y-12961284D01*
X10321677Y-13027950D02*
X10321677Y-13161284D01*
X10274058Y-12951760D02*
X10226439Y-13094617D01*
X10226439Y-13094617D02*
X10350248Y-13094617D01*
X10407391Y-12961284D02*
X10540724Y-12961284D01*
X10540724Y-12961284D02*
X10455010Y-13161284D01*
X10607391Y-12980331D02*
X10616915Y-12970808D01*
X10616915Y-12970808D02*
X10635962Y-12961284D01*
X10635962Y-12961284D02*
X10683582Y-12961284D01*
X10683582Y-12961284D02*
X10702629Y-12970808D01*
X10702629Y-12970808D02*
X10712153Y-12980331D01*
X10712153Y-12980331D02*
X10721677Y-12999379D01*
X10721677Y-12999379D02*
X10721677Y-13018427D01*
X10721677Y-13018427D02*
X10712153Y-13046998D01*
X10712153Y-13046998D02*
X10597867Y-13161284D01*
X10597867Y-13161284D02*
X10721677Y-13161284D01*
X10797867Y-12961284D02*
X10797867Y-12999379D01*
X10874058Y-12961284D02*
X10874058Y-12999379D01*
X11169296Y-13237474D02*
X11159772Y-13227950D01*
X11159772Y-13227950D02*
X11140724Y-13199379D01*
X11140724Y-13199379D02*
X11131201Y-13180331D01*
X11131201Y-13180331D02*
X11121677Y-13151760D01*
X11121677Y-13151760D02*
X11112153Y-13104141D01*
X11112153Y-13104141D02*
X11112153Y-13066046D01*
X11112153Y-13066046D02*
X11121677Y-13018427D01*
X11121677Y-13018427D02*
X11131201Y-12989855D01*
X11131201Y-12989855D02*
X11140724Y-12970808D01*
X11140724Y-12970808D02*
X11159772Y-12942236D01*
X11159772Y-12942236D02*
X11169296Y-12932712D01*
X11331201Y-12961284D02*
X11293105Y-12961284D01*
X11293105Y-12961284D02*
X11274058Y-12970808D01*
X11274058Y-12970808D02*
X11264534Y-12980331D01*
X11264534Y-12980331D02*
X11245486Y-13008903D01*
X11245486Y-13008903D02*
X11235962Y-13046998D01*
X11235962Y-13046998D02*
X11235962Y-13123188D01*
X11235962Y-13123188D02*
X11245486Y-13142236D01*
X11245486Y-13142236D02*
X11255010Y-13151760D01*
X11255010Y-13151760D02*
X11274058Y-13161284D01*
X11274058Y-13161284D02*
X11312153Y-13161284D01*
X11312153Y-13161284D02*
X11331201Y-13151760D01*
X11331201Y-13151760D02*
X11340724Y-13142236D01*
X11340724Y-13142236D02*
X11350248Y-13123188D01*
X11350248Y-13123188D02*
X11350248Y-13075569D01*
X11350248Y-13075569D02*
X11340724Y-13056522D01*
X11340724Y-13056522D02*
X11331201Y-13046998D01*
X11331201Y-13046998D02*
X11312153Y-13037474D01*
X11312153Y-13037474D02*
X11274058Y-13037474D01*
X11274058Y-13037474D02*
X11255010Y-13046998D01*
X11255010Y-13046998D02*
X11245486Y-13056522D01*
X11245486Y-13056522D02*
X11235962Y-13075569D01*
X11588343Y-13161284D02*
X11588343Y-12961284D01*
X11674058Y-13161284D02*
X11674058Y-13056522D01*
X11674058Y-13056522D02*
X11664534Y-13037474D01*
X11664534Y-13037474D02*
X11645486Y-13027950D01*
X11645486Y-13027950D02*
X11616915Y-13027950D01*
X11616915Y-13027950D02*
X11597867Y-13037474D01*
X11597867Y-13037474D02*
X11588343Y-13046998D01*
X11797867Y-13161284D02*
X11778820Y-13151760D01*
X11778820Y-13151760D02*
X11769296Y-13142236D01*
X11769296Y-13142236D02*
X11759772Y-13123188D01*
X11759772Y-13123188D02*
X11759772Y-13066046D01*
X11759772Y-13066046D02*
X11769296Y-13046998D01*
X11769296Y-13046998D02*
X11778820Y-13037474D01*
X11778820Y-13037474D02*
X11797867Y-13027950D01*
X11797867Y-13027950D02*
X11826439Y-13027950D01*
X11826439Y-13027950D02*
X11845486Y-13037474D01*
X11845486Y-13037474D02*
X11855010Y-13046998D01*
X11855010Y-13046998D02*
X11864534Y-13066046D01*
X11864534Y-13066046D02*
X11864534Y-13123188D01*
X11864534Y-13123188D02*
X11855010Y-13142236D01*
X11855010Y-13142236D02*
X11845486Y-13151760D01*
X11845486Y-13151760D02*
X11826439Y-13161284D01*
X11826439Y-13161284D02*
X11797867Y-13161284D01*
X11978820Y-13161284D02*
X11959772Y-13151760D01*
X11959772Y-13151760D02*
X11950248Y-13132712D01*
X11950248Y-13132712D02*
X11950248Y-12961284D01*
X12131201Y-13151760D02*
X12112153Y-13161284D01*
X12112153Y-13161284D02*
X12074058Y-13161284D01*
X12074058Y-13161284D02*
X12055010Y-13151760D01*
X12055010Y-13151760D02*
X12045486Y-13132712D01*
X12045486Y-13132712D02*
X12045486Y-13056522D01*
X12045486Y-13056522D02*
X12055010Y-13037474D01*
X12055010Y-13037474D02*
X12074058Y-13027950D01*
X12074058Y-13027950D02*
X12112153Y-13027950D01*
X12112153Y-13027950D02*
X12131201Y-13037474D01*
X12131201Y-13037474D02*
X12140724Y-13056522D01*
X12140724Y-13056522D02*
X12140724Y-13075569D01*
X12140724Y-13075569D02*
X12045486Y-13094617D01*
X12216915Y-13151760D02*
X12235963Y-13161284D01*
X12235963Y-13161284D02*
X12274058Y-13161284D01*
X12274058Y-13161284D02*
X12293105Y-13151760D01*
X12293105Y-13151760D02*
X12302629Y-13132712D01*
X12302629Y-13132712D02*
X12302629Y-13123188D01*
X12302629Y-13123188D02*
X12293105Y-13104141D01*
X12293105Y-13104141D02*
X12274058Y-13094617D01*
X12274058Y-13094617D02*
X12245486Y-13094617D01*
X12245486Y-13094617D02*
X12226439Y-13085093D01*
X12226439Y-13085093D02*
X12216915Y-13066046D01*
X12216915Y-13066046D02*
X12216915Y-13056522D01*
X12216915Y-13056522D02*
X12226439Y-13037474D01*
X12226439Y-13037474D02*
X12245486Y-13027950D01*
X12245486Y-13027950D02*
X12274058Y-13027950D01*
X12274058Y-13027950D02*
X12293105Y-13037474D01*
X12369296Y-13237474D02*
X12378820Y-13227950D01*
X12378820Y-13227950D02*
X12397867Y-13199379D01*
X12397867Y-13199379D02*
X12407391Y-13180331D01*
X12407391Y-13180331D02*
X12416915Y-13151760D01*
X12416915Y-13151760D02*
X12426439Y-13104141D01*
X12426439Y-13104141D02*
X12426439Y-13066046D01*
X12426439Y-13066046D02*
X12416915Y-13018427D01*
X12416915Y-13018427D02*
X12407391Y-12989855D01*
X12407391Y-12989855D02*
X12397867Y-12970808D01*
X12397867Y-12970808D02*
X12378820Y-12942236D01*
X12378820Y-12942236D02*
X12369296Y-12932712D01*
D13*
X7454233Y-13263800D02*
X7594233Y-13403800D01*
X7594233Y-13263800D02*
X7454233Y-13403800D01*
X7524233Y-13263800D02*
X7524233Y-13403800D01*
X7454233Y-13333800D02*
X7594233Y-13333800D01*
D10*
X7959772Y-13425284D02*
X7845486Y-13425284D01*
X7902629Y-13425284D02*
X7902629Y-13225284D01*
X7902629Y-13225284D02*
X7883581Y-13253855D01*
X7883581Y-13253855D02*
X7864534Y-13272903D01*
X7864534Y-13272903D02*
X7845486Y-13282427D01*
X8045486Y-13406236D02*
X8055010Y-13415760D01*
X8055010Y-13415760D02*
X8045486Y-13425284D01*
X8045486Y-13425284D02*
X8035962Y-13415760D01*
X8035962Y-13415760D02*
X8045486Y-13406236D01*
X8045486Y-13406236D02*
X8045486Y-13425284D01*
X8226438Y-13291950D02*
X8226438Y-13425284D01*
X8178819Y-13215760D02*
X8131200Y-13358617D01*
X8131200Y-13358617D02*
X8255010Y-13358617D01*
X8369295Y-13225284D02*
X8388343Y-13225284D01*
X8388343Y-13225284D02*
X8407391Y-13234808D01*
X8407391Y-13234808D02*
X8416915Y-13244331D01*
X8416915Y-13244331D02*
X8426438Y-13263379D01*
X8426438Y-13263379D02*
X8435962Y-13301474D01*
X8435962Y-13301474D02*
X8435962Y-13349093D01*
X8435962Y-13349093D02*
X8426438Y-13387188D01*
X8426438Y-13387188D02*
X8416915Y-13406236D01*
X8416915Y-13406236D02*
X8407391Y-13415760D01*
X8407391Y-13415760D02*
X8388343Y-13425284D01*
X8388343Y-13425284D02*
X8369295Y-13425284D01*
X8369295Y-13425284D02*
X8350248Y-13415760D01*
X8350248Y-13415760D02*
X8340724Y-13406236D01*
X8340724Y-13406236D02*
X8331200Y-13387188D01*
X8331200Y-13387188D02*
X8321676Y-13349093D01*
X8321676Y-13349093D02*
X8321676Y-13301474D01*
X8321676Y-13301474D02*
X8331200Y-13263379D01*
X8331200Y-13263379D02*
X8340724Y-13244331D01*
X8340724Y-13244331D02*
X8350248Y-13234808D01*
X8350248Y-13234808D02*
X8369295Y-13225284D01*
X8559772Y-13225284D02*
X8578819Y-13225284D01*
X8578819Y-13225284D02*
X8597867Y-13234808D01*
X8597867Y-13234808D02*
X8607391Y-13244331D01*
X8607391Y-13244331D02*
X8616915Y-13263379D01*
X8616915Y-13263379D02*
X8626438Y-13301474D01*
X8626438Y-13301474D02*
X8626438Y-13349093D01*
X8626438Y-13349093D02*
X8616915Y-13387188D01*
X8616915Y-13387188D02*
X8607391Y-13406236D01*
X8607391Y-13406236D02*
X8597867Y-13415760D01*
X8597867Y-13415760D02*
X8578819Y-13425284D01*
X8578819Y-13425284D02*
X8559772Y-13425284D01*
X8559772Y-13425284D02*
X8540724Y-13415760D01*
X8540724Y-13415760D02*
X8531200Y-13406236D01*
X8531200Y-13406236D02*
X8521677Y-13387188D01*
X8521677Y-13387188D02*
X8512153Y-13349093D01*
X8512153Y-13349093D02*
X8512153Y-13301474D01*
X8512153Y-13301474D02*
X8521677Y-13263379D01*
X8521677Y-13263379D02*
X8531200Y-13244331D01*
X8531200Y-13244331D02*
X8540724Y-13234808D01*
X8540724Y-13234808D02*
X8559772Y-13225284D01*
X8712153Y-13425284D02*
X8712153Y-13291950D01*
X8712153Y-13310998D02*
X8721677Y-13301474D01*
X8721677Y-13301474D02*
X8740724Y-13291950D01*
X8740724Y-13291950D02*
X8769296Y-13291950D01*
X8769296Y-13291950D02*
X8788343Y-13301474D01*
X8788343Y-13301474D02*
X8797867Y-13320522D01*
X8797867Y-13320522D02*
X8797867Y-13425284D01*
X8797867Y-13320522D02*
X8807391Y-13301474D01*
X8807391Y-13301474D02*
X8826438Y-13291950D01*
X8826438Y-13291950D02*
X8855010Y-13291950D01*
X8855010Y-13291950D02*
X8874058Y-13301474D01*
X8874058Y-13301474D02*
X8883581Y-13320522D01*
X8883581Y-13320522D02*
X8883581Y-13425284D01*
X8978819Y-13425284D02*
X8978819Y-13291950D01*
X8978819Y-13310998D02*
X8988343Y-13301474D01*
X8988343Y-13301474D02*
X9007391Y-13291950D01*
X9007391Y-13291950D02*
X9035962Y-13291950D01*
X9035962Y-13291950D02*
X9055010Y-13301474D01*
X9055010Y-13301474D02*
X9064534Y-13320522D01*
X9064534Y-13320522D02*
X9064534Y-13425284D01*
X9064534Y-13320522D02*
X9074058Y-13301474D01*
X9074058Y-13301474D02*
X9093105Y-13291950D01*
X9093105Y-13291950D02*
X9121677Y-13291950D01*
X9121677Y-13291950D02*
X9140724Y-13301474D01*
X9140724Y-13301474D02*
X9150248Y-13320522D01*
X9150248Y-13320522D02*
X9150248Y-13425284D01*
X9540724Y-13215760D02*
X9369296Y-13472903D01*
X9797867Y-13225284D02*
X9816915Y-13225284D01*
X9816915Y-13225284D02*
X9835962Y-13234808D01*
X9835962Y-13234808D02*
X9845486Y-13244331D01*
X9845486Y-13244331D02*
X9855010Y-13263379D01*
X9855010Y-13263379D02*
X9864534Y-13301474D01*
X9864534Y-13301474D02*
X9864534Y-13349093D01*
X9864534Y-13349093D02*
X9855010Y-13387188D01*
X9855010Y-13387188D02*
X9845486Y-13406236D01*
X9845486Y-13406236D02*
X9835962Y-13415760D01*
X9835962Y-13415760D02*
X9816915Y-13425284D01*
X9816915Y-13425284D02*
X9797867Y-13425284D01*
X9797867Y-13425284D02*
X9778820Y-13415760D01*
X9778820Y-13415760D02*
X9769296Y-13406236D01*
X9769296Y-13406236D02*
X9759772Y-13387188D01*
X9759772Y-13387188D02*
X9750248Y-13349093D01*
X9750248Y-13349093D02*
X9750248Y-13301474D01*
X9750248Y-13301474D02*
X9759772Y-13263379D01*
X9759772Y-13263379D02*
X9769296Y-13244331D01*
X9769296Y-13244331D02*
X9778820Y-13234808D01*
X9778820Y-13234808D02*
X9797867Y-13225284D01*
X9950248Y-13406236D02*
X9959772Y-13415760D01*
X9959772Y-13415760D02*
X9950248Y-13425284D01*
X9950248Y-13425284D02*
X9940724Y-13415760D01*
X9940724Y-13415760D02*
X9950248Y-13406236D01*
X9950248Y-13406236D02*
X9950248Y-13425284D01*
X10083581Y-13225284D02*
X10102629Y-13225284D01*
X10102629Y-13225284D02*
X10121677Y-13234808D01*
X10121677Y-13234808D02*
X10131201Y-13244331D01*
X10131201Y-13244331D02*
X10140724Y-13263379D01*
X10140724Y-13263379D02*
X10150248Y-13301474D01*
X10150248Y-13301474D02*
X10150248Y-13349093D01*
X10150248Y-13349093D02*
X10140724Y-13387188D01*
X10140724Y-13387188D02*
X10131201Y-13406236D01*
X10131201Y-13406236D02*
X10121677Y-13415760D01*
X10121677Y-13415760D02*
X10102629Y-13425284D01*
X10102629Y-13425284D02*
X10083581Y-13425284D01*
X10083581Y-13425284D02*
X10064534Y-13415760D01*
X10064534Y-13415760D02*
X10055010Y-13406236D01*
X10055010Y-13406236D02*
X10045486Y-13387188D01*
X10045486Y-13387188D02*
X10035962Y-13349093D01*
X10035962Y-13349093D02*
X10035962Y-13301474D01*
X10035962Y-13301474D02*
X10045486Y-13263379D01*
X10045486Y-13263379D02*
X10055010Y-13244331D01*
X10055010Y-13244331D02*
X10064534Y-13234808D01*
X10064534Y-13234808D02*
X10083581Y-13225284D01*
X10331201Y-13225284D02*
X10235962Y-13225284D01*
X10235962Y-13225284D02*
X10226439Y-13320522D01*
X10226439Y-13320522D02*
X10235962Y-13310998D01*
X10235962Y-13310998D02*
X10255010Y-13301474D01*
X10255010Y-13301474D02*
X10302629Y-13301474D01*
X10302629Y-13301474D02*
X10321677Y-13310998D01*
X10321677Y-13310998D02*
X10331201Y-13320522D01*
X10331201Y-13320522D02*
X10340724Y-13339569D01*
X10340724Y-13339569D02*
X10340724Y-13387188D01*
X10340724Y-13387188D02*
X10331201Y-13406236D01*
X10331201Y-13406236D02*
X10321677Y-13415760D01*
X10321677Y-13415760D02*
X10302629Y-13425284D01*
X10302629Y-13425284D02*
X10255010Y-13425284D01*
X10255010Y-13425284D02*
X10235962Y-13415760D01*
X10235962Y-13415760D02*
X10226439Y-13406236D01*
X10521677Y-13225284D02*
X10426439Y-13225284D01*
X10426439Y-13225284D02*
X10416915Y-13320522D01*
X10416915Y-13320522D02*
X10426439Y-13310998D01*
X10426439Y-13310998D02*
X10445486Y-13301474D01*
X10445486Y-13301474D02*
X10493105Y-13301474D01*
X10493105Y-13301474D02*
X10512153Y-13310998D01*
X10512153Y-13310998D02*
X10521677Y-13320522D01*
X10521677Y-13320522D02*
X10531201Y-13339569D01*
X10531201Y-13339569D02*
X10531201Y-13387188D01*
X10531201Y-13387188D02*
X10521677Y-13406236D01*
X10521677Y-13406236D02*
X10512153Y-13415760D01*
X10512153Y-13415760D02*
X10493105Y-13425284D01*
X10493105Y-13425284D02*
X10445486Y-13425284D01*
X10445486Y-13425284D02*
X10426439Y-13415760D01*
X10426439Y-13415760D02*
X10416915Y-13406236D01*
X10721677Y-13425284D02*
X10607391Y-13425284D01*
X10664534Y-13425284D02*
X10664534Y-13225284D01*
X10664534Y-13225284D02*
X10645486Y-13253855D01*
X10645486Y-13253855D02*
X10626439Y-13272903D01*
X10626439Y-13272903D02*
X10607391Y-13282427D01*
X10797867Y-13225284D02*
X10797867Y-13263379D01*
X10874058Y-13225284D02*
X10874058Y-13263379D01*
X11169296Y-13501474D02*
X11159772Y-13491950D01*
X11159772Y-13491950D02*
X11140724Y-13463379D01*
X11140724Y-13463379D02*
X11131201Y-13444331D01*
X11131201Y-13444331D02*
X11121677Y-13415760D01*
X11121677Y-13415760D02*
X11112153Y-13368141D01*
X11112153Y-13368141D02*
X11112153Y-13330046D01*
X11112153Y-13330046D02*
X11121677Y-13282427D01*
X11121677Y-13282427D02*
X11131201Y-13253855D01*
X11131201Y-13253855D02*
X11140724Y-13234808D01*
X11140724Y-13234808D02*
X11159772Y-13206236D01*
X11159772Y-13206236D02*
X11169296Y-13196712D01*
X11331201Y-13291950D02*
X11331201Y-13425284D01*
X11283581Y-13215760D02*
X11235962Y-13358617D01*
X11235962Y-13358617D02*
X11359772Y-13358617D01*
X11588343Y-13425284D02*
X11588343Y-13225284D01*
X11674058Y-13425284D02*
X11674058Y-13320522D01*
X11674058Y-13320522D02*
X11664534Y-13301474D01*
X11664534Y-13301474D02*
X11645486Y-13291950D01*
X11645486Y-13291950D02*
X11616915Y-13291950D01*
X11616915Y-13291950D02*
X11597867Y-13301474D01*
X11597867Y-13301474D02*
X11588343Y-13310998D01*
X11797867Y-13425284D02*
X11778820Y-13415760D01*
X11778820Y-13415760D02*
X11769296Y-13406236D01*
X11769296Y-13406236D02*
X11759772Y-13387188D01*
X11759772Y-13387188D02*
X11759772Y-13330046D01*
X11759772Y-13330046D02*
X11769296Y-13310998D01*
X11769296Y-13310998D02*
X11778820Y-13301474D01*
X11778820Y-13301474D02*
X11797867Y-13291950D01*
X11797867Y-13291950D02*
X11826439Y-13291950D01*
X11826439Y-13291950D02*
X11845486Y-13301474D01*
X11845486Y-13301474D02*
X11855010Y-13310998D01*
X11855010Y-13310998D02*
X11864534Y-13330046D01*
X11864534Y-13330046D02*
X11864534Y-13387188D01*
X11864534Y-13387188D02*
X11855010Y-13406236D01*
X11855010Y-13406236D02*
X11845486Y-13415760D01*
X11845486Y-13415760D02*
X11826439Y-13425284D01*
X11826439Y-13425284D02*
X11797867Y-13425284D01*
X11978820Y-13425284D02*
X11959772Y-13415760D01*
X11959772Y-13415760D02*
X11950248Y-13396712D01*
X11950248Y-13396712D02*
X11950248Y-13225284D01*
X12131201Y-13415760D02*
X12112153Y-13425284D01*
X12112153Y-13425284D02*
X12074058Y-13425284D01*
X12074058Y-13425284D02*
X12055010Y-13415760D01*
X12055010Y-13415760D02*
X12045486Y-13396712D01*
X12045486Y-13396712D02*
X12045486Y-13320522D01*
X12045486Y-13320522D02*
X12055010Y-13301474D01*
X12055010Y-13301474D02*
X12074058Y-13291950D01*
X12074058Y-13291950D02*
X12112153Y-13291950D01*
X12112153Y-13291950D02*
X12131201Y-13301474D01*
X12131201Y-13301474D02*
X12140724Y-13320522D01*
X12140724Y-13320522D02*
X12140724Y-13339569D01*
X12140724Y-13339569D02*
X12045486Y-13358617D01*
X12216915Y-13415760D02*
X12235963Y-13425284D01*
X12235963Y-13425284D02*
X12274058Y-13425284D01*
X12274058Y-13425284D02*
X12293105Y-13415760D01*
X12293105Y-13415760D02*
X12302629Y-13396712D01*
X12302629Y-13396712D02*
X12302629Y-13387188D01*
X12302629Y-13387188D02*
X12293105Y-13368141D01*
X12293105Y-13368141D02*
X12274058Y-13358617D01*
X12274058Y-13358617D02*
X12245486Y-13358617D01*
X12245486Y-13358617D02*
X12226439Y-13349093D01*
X12226439Y-13349093D02*
X12216915Y-13330046D01*
X12216915Y-13330046D02*
X12216915Y-13320522D01*
X12216915Y-13320522D02*
X12226439Y-13301474D01*
X12226439Y-13301474D02*
X12245486Y-13291950D01*
X12245486Y-13291950D02*
X12274058Y-13291950D01*
X12274058Y-13291950D02*
X12293105Y-13301474D01*
X12369296Y-13501474D02*
X12378820Y-13491950D01*
X12378820Y-13491950D02*
X12397867Y-13463379D01*
X12397867Y-13463379D02*
X12407391Y-13444331D01*
X12407391Y-13444331D02*
X12416915Y-13415760D01*
X12416915Y-13415760D02*
X12426439Y-13368141D01*
X12426439Y-13368141D02*
X12426439Y-13330046D01*
X12426439Y-13330046D02*
X12416915Y-13282427D01*
X12416915Y-13282427D02*
X12407391Y-13253855D01*
X12407391Y-13253855D02*
X12397867Y-13234808D01*
X12397867Y-13234808D02*
X12378820Y-13206236D01*
X12378820Y-13206236D02*
X12369296Y-13196712D01*
D14*
X7434233Y-13517800D02*
X7594233Y-13677800D01*
X7594233Y-13517800D02*
X7434233Y-13677800D01*
X7570802Y-13654369D02*
X7570802Y-13541231D01*
X7457664Y-13541231D01*
X7457664Y-13654369D01*
X7570802Y-13654369D01*
D10*
X7959772Y-13689284D02*
X7845486Y-13689284D01*
X7902629Y-13689284D02*
X7902629Y-13489284D01*
X7902629Y-13489284D02*
X7883581Y-13517855D01*
X7883581Y-13517855D02*
X7864534Y-13536903D01*
X7864534Y-13536903D02*
X7845486Y-13546427D01*
X8045486Y-13670236D02*
X8055010Y-13679760D01*
X8055010Y-13679760D02*
X8045486Y-13689284D01*
X8045486Y-13689284D02*
X8035962Y-13679760D01*
X8035962Y-13679760D02*
X8045486Y-13670236D01*
X8045486Y-13670236D02*
X8045486Y-13689284D01*
X8226438Y-13489284D02*
X8188343Y-13489284D01*
X8188343Y-13489284D02*
X8169295Y-13498808D01*
X8169295Y-13498808D02*
X8159772Y-13508331D01*
X8159772Y-13508331D02*
X8140724Y-13536903D01*
X8140724Y-13536903D02*
X8131200Y-13574998D01*
X8131200Y-13574998D02*
X8131200Y-13651188D01*
X8131200Y-13651188D02*
X8140724Y-13670236D01*
X8140724Y-13670236D02*
X8150248Y-13679760D01*
X8150248Y-13679760D02*
X8169295Y-13689284D01*
X8169295Y-13689284D02*
X8207391Y-13689284D01*
X8207391Y-13689284D02*
X8226438Y-13679760D01*
X8226438Y-13679760D02*
X8235962Y-13670236D01*
X8235962Y-13670236D02*
X8245486Y-13651188D01*
X8245486Y-13651188D02*
X8245486Y-13603569D01*
X8245486Y-13603569D02*
X8235962Y-13584522D01*
X8235962Y-13584522D02*
X8226438Y-13574998D01*
X8226438Y-13574998D02*
X8207391Y-13565474D01*
X8207391Y-13565474D02*
X8169295Y-13565474D01*
X8169295Y-13565474D02*
X8150248Y-13574998D01*
X8150248Y-13574998D02*
X8140724Y-13584522D01*
X8140724Y-13584522D02*
X8131200Y-13603569D01*
X8369295Y-13489284D02*
X8388343Y-13489284D01*
X8388343Y-13489284D02*
X8407391Y-13498808D01*
X8407391Y-13498808D02*
X8416915Y-13508331D01*
X8416915Y-13508331D02*
X8426438Y-13527379D01*
X8426438Y-13527379D02*
X8435962Y-13565474D01*
X8435962Y-13565474D02*
X8435962Y-13613093D01*
X8435962Y-13613093D02*
X8426438Y-13651188D01*
X8426438Y-13651188D02*
X8416915Y-13670236D01*
X8416915Y-13670236D02*
X8407391Y-13679760D01*
X8407391Y-13679760D02*
X8388343Y-13689284D01*
X8388343Y-13689284D02*
X8369295Y-13689284D01*
X8369295Y-13689284D02*
X8350248Y-13679760D01*
X8350248Y-13679760D02*
X8340724Y-13670236D01*
X8340724Y-13670236D02*
X8331200Y-13651188D01*
X8331200Y-13651188D02*
X8321676Y-13613093D01*
X8321676Y-13613093D02*
X8321676Y-13565474D01*
X8321676Y-13565474D02*
X8331200Y-13527379D01*
X8331200Y-13527379D02*
X8340724Y-13508331D01*
X8340724Y-13508331D02*
X8350248Y-13498808D01*
X8350248Y-13498808D02*
X8369295Y-13489284D01*
X8559772Y-13489284D02*
X8578819Y-13489284D01*
X8578819Y-13489284D02*
X8597867Y-13498808D01*
X8597867Y-13498808D02*
X8607391Y-13508331D01*
X8607391Y-13508331D02*
X8616915Y-13527379D01*
X8616915Y-13527379D02*
X8626438Y-13565474D01*
X8626438Y-13565474D02*
X8626438Y-13613093D01*
X8626438Y-13613093D02*
X8616915Y-13651188D01*
X8616915Y-13651188D02*
X8607391Y-13670236D01*
X8607391Y-13670236D02*
X8597867Y-13679760D01*
X8597867Y-13679760D02*
X8578819Y-13689284D01*
X8578819Y-13689284D02*
X8559772Y-13689284D01*
X8559772Y-13689284D02*
X8540724Y-13679760D01*
X8540724Y-13679760D02*
X8531200Y-13670236D01*
X8531200Y-13670236D02*
X8521677Y-13651188D01*
X8521677Y-13651188D02*
X8512153Y-13613093D01*
X8512153Y-13613093D02*
X8512153Y-13565474D01*
X8512153Y-13565474D02*
X8521677Y-13527379D01*
X8521677Y-13527379D02*
X8531200Y-13508331D01*
X8531200Y-13508331D02*
X8540724Y-13498808D01*
X8540724Y-13498808D02*
X8559772Y-13489284D01*
X8712153Y-13689284D02*
X8712153Y-13555950D01*
X8712153Y-13574998D02*
X8721677Y-13565474D01*
X8721677Y-13565474D02*
X8740724Y-13555950D01*
X8740724Y-13555950D02*
X8769296Y-13555950D01*
X8769296Y-13555950D02*
X8788343Y-13565474D01*
X8788343Y-13565474D02*
X8797867Y-13584522D01*
X8797867Y-13584522D02*
X8797867Y-13689284D01*
X8797867Y-13584522D02*
X8807391Y-13565474D01*
X8807391Y-13565474D02*
X8826438Y-13555950D01*
X8826438Y-13555950D02*
X8855010Y-13555950D01*
X8855010Y-13555950D02*
X8874058Y-13565474D01*
X8874058Y-13565474D02*
X8883581Y-13584522D01*
X8883581Y-13584522D02*
X8883581Y-13689284D01*
X8978819Y-13689284D02*
X8978819Y-13555950D01*
X8978819Y-13574998D02*
X8988343Y-13565474D01*
X8988343Y-13565474D02*
X9007391Y-13555950D01*
X9007391Y-13555950D02*
X9035962Y-13555950D01*
X9035962Y-13555950D02*
X9055010Y-13565474D01*
X9055010Y-13565474D02*
X9064534Y-13584522D01*
X9064534Y-13584522D02*
X9064534Y-13689284D01*
X9064534Y-13584522D02*
X9074058Y-13565474D01*
X9074058Y-13565474D02*
X9093105Y-13555950D01*
X9093105Y-13555950D02*
X9121677Y-13555950D01*
X9121677Y-13555950D02*
X9140724Y-13565474D01*
X9140724Y-13565474D02*
X9150248Y-13584522D01*
X9150248Y-13584522D02*
X9150248Y-13689284D01*
X9540724Y-13479760D02*
X9369296Y-13736903D01*
X9797867Y-13489284D02*
X9816915Y-13489284D01*
X9816915Y-13489284D02*
X9835962Y-13498808D01*
X9835962Y-13498808D02*
X9845486Y-13508331D01*
X9845486Y-13508331D02*
X9855010Y-13527379D01*
X9855010Y-13527379D02*
X9864534Y-13565474D01*
X9864534Y-13565474D02*
X9864534Y-13613093D01*
X9864534Y-13613093D02*
X9855010Y-13651188D01*
X9855010Y-13651188D02*
X9845486Y-13670236D01*
X9845486Y-13670236D02*
X9835962Y-13679760D01*
X9835962Y-13679760D02*
X9816915Y-13689284D01*
X9816915Y-13689284D02*
X9797867Y-13689284D01*
X9797867Y-13689284D02*
X9778820Y-13679760D01*
X9778820Y-13679760D02*
X9769296Y-13670236D01*
X9769296Y-13670236D02*
X9759772Y-13651188D01*
X9759772Y-13651188D02*
X9750248Y-13613093D01*
X9750248Y-13613093D02*
X9750248Y-13565474D01*
X9750248Y-13565474D02*
X9759772Y-13527379D01*
X9759772Y-13527379D02*
X9769296Y-13508331D01*
X9769296Y-13508331D02*
X9778820Y-13498808D01*
X9778820Y-13498808D02*
X9797867Y-13489284D01*
X9950248Y-13670236D02*
X9959772Y-13679760D01*
X9959772Y-13679760D02*
X9950248Y-13689284D01*
X9950248Y-13689284D02*
X9940724Y-13679760D01*
X9940724Y-13679760D02*
X9950248Y-13670236D01*
X9950248Y-13670236D02*
X9950248Y-13689284D01*
X10083581Y-13489284D02*
X10102629Y-13489284D01*
X10102629Y-13489284D02*
X10121677Y-13498808D01*
X10121677Y-13498808D02*
X10131201Y-13508331D01*
X10131201Y-13508331D02*
X10140724Y-13527379D01*
X10140724Y-13527379D02*
X10150248Y-13565474D01*
X10150248Y-13565474D02*
X10150248Y-13613093D01*
X10150248Y-13613093D02*
X10140724Y-13651188D01*
X10140724Y-13651188D02*
X10131201Y-13670236D01*
X10131201Y-13670236D02*
X10121677Y-13679760D01*
X10121677Y-13679760D02*
X10102629Y-13689284D01*
X10102629Y-13689284D02*
X10083581Y-13689284D01*
X10083581Y-13689284D02*
X10064534Y-13679760D01*
X10064534Y-13679760D02*
X10055010Y-13670236D01*
X10055010Y-13670236D02*
X10045486Y-13651188D01*
X10045486Y-13651188D02*
X10035962Y-13613093D01*
X10035962Y-13613093D02*
X10035962Y-13565474D01*
X10035962Y-13565474D02*
X10045486Y-13527379D01*
X10045486Y-13527379D02*
X10055010Y-13508331D01*
X10055010Y-13508331D02*
X10064534Y-13498808D01*
X10064534Y-13498808D02*
X10083581Y-13489284D01*
X10321677Y-13489284D02*
X10283581Y-13489284D01*
X10283581Y-13489284D02*
X10264534Y-13498808D01*
X10264534Y-13498808D02*
X10255010Y-13508331D01*
X10255010Y-13508331D02*
X10235962Y-13536903D01*
X10235962Y-13536903D02*
X10226439Y-13574998D01*
X10226439Y-13574998D02*
X10226439Y-13651188D01*
X10226439Y-13651188D02*
X10235962Y-13670236D01*
X10235962Y-13670236D02*
X10245486Y-13679760D01*
X10245486Y-13679760D02*
X10264534Y-13689284D01*
X10264534Y-13689284D02*
X10302629Y-13689284D01*
X10302629Y-13689284D02*
X10321677Y-13679760D01*
X10321677Y-13679760D02*
X10331201Y-13670236D01*
X10331201Y-13670236D02*
X10340724Y-13651188D01*
X10340724Y-13651188D02*
X10340724Y-13603569D01*
X10340724Y-13603569D02*
X10331201Y-13584522D01*
X10331201Y-13584522D02*
X10321677Y-13574998D01*
X10321677Y-13574998D02*
X10302629Y-13565474D01*
X10302629Y-13565474D02*
X10264534Y-13565474D01*
X10264534Y-13565474D02*
X10245486Y-13574998D01*
X10245486Y-13574998D02*
X10235962Y-13584522D01*
X10235962Y-13584522D02*
X10226439Y-13603569D01*
X10407391Y-13489284D02*
X10531201Y-13489284D01*
X10531201Y-13489284D02*
X10464534Y-13565474D01*
X10464534Y-13565474D02*
X10493105Y-13565474D01*
X10493105Y-13565474D02*
X10512153Y-13574998D01*
X10512153Y-13574998D02*
X10521677Y-13584522D01*
X10521677Y-13584522D02*
X10531201Y-13603569D01*
X10531201Y-13603569D02*
X10531201Y-13651188D01*
X10531201Y-13651188D02*
X10521677Y-13670236D01*
X10521677Y-13670236D02*
X10512153Y-13679760D01*
X10512153Y-13679760D02*
X10493105Y-13689284D01*
X10493105Y-13689284D02*
X10435962Y-13689284D01*
X10435962Y-13689284D02*
X10416915Y-13679760D01*
X10416915Y-13679760D02*
X10407391Y-13670236D01*
X10655010Y-13489284D02*
X10674058Y-13489284D01*
X10674058Y-13489284D02*
X10693105Y-13498808D01*
X10693105Y-13498808D02*
X10702629Y-13508331D01*
X10702629Y-13508331D02*
X10712153Y-13527379D01*
X10712153Y-13527379D02*
X10721677Y-13565474D01*
X10721677Y-13565474D02*
X10721677Y-13613093D01*
X10721677Y-13613093D02*
X10712153Y-13651188D01*
X10712153Y-13651188D02*
X10702629Y-13670236D01*
X10702629Y-13670236D02*
X10693105Y-13679760D01*
X10693105Y-13679760D02*
X10674058Y-13689284D01*
X10674058Y-13689284D02*
X10655010Y-13689284D01*
X10655010Y-13689284D02*
X10635962Y-13679760D01*
X10635962Y-13679760D02*
X10626439Y-13670236D01*
X10626439Y-13670236D02*
X10616915Y-13651188D01*
X10616915Y-13651188D02*
X10607391Y-13613093D01*
X10607391Y-13613093D02*
X10607391Y-13565474D01*
X10607391Y-13565474D02*
X10616915Y-13527379D01*
X10616915Y-13527379D02*
X10626439Y-13508331D01*
X10626439Y-13508331D02*
X10635962Y-13498808D01*
X10635962Y-13498808D02*
X10655010Y-13489284D01*
X10797867Y-13489284D02*
X10797867Y-13527379D01*
X10874058Y-13489284D02*
X10874058Y-13527379D01*
X11169296Y-13765474D02*
X11159772Y-13755950D01*
X11159772Y-13755950D02*
X11140724Y-13727379D01*
X11140724Y-13727379D02*
X11131201Y-13708331D01*
X11131201Y-13708331D02*
X11121677Y-13679760D01*
X11121677Y-13679760D02*
X11112153Y-13632141D01*
X11112153Y-13632141D02*
X11112153Y-13594046D01*
X11112153Y-13594046D02*
X11121677Y-13546427D01*
X11121677Y-13546427D02*
X11131201Y-13517855D01*
X11131201Y-13517855D02*
X11140724Y-13498808D01*
X11140724Y-13498808D02*
X11159772Y-13470236D01*
X11159772Y-13470236D02*
X11169296Y-13460712D01*
X11331201Y-13489284D02*
X11293105Y-13489284D01*
X11293105Y-13489284D02*
X11274058Y-13498808D01*
X11274058Y-13498808D02*
X11264534Y-13508331D01*
X11264534Y-13508331D02*
X11245486Y-13536903D01*
X11245486Y-13536903D02*
X11235962Y-13574998D01*
X11235962Y-13574998D02*
X11235962Y-13651188D01*
X11235962Y-13651188D02*
X11245486Y-13670236D01*
X11245486Y-13670236D02*
X11255010Y-13679760D01*
X11255010Y-13679760D02*
X11274058Y-13689284D01*
X11274058Y-13689284D02*
X11312153Y-13689284D01*
X11312153Y-13689284D02*
X11331201Y-13679760D01*
X11331201Y-13679760D02*
X11340724Y-13670236D01*
X11340724Y-13670236D02*
X11350248Y-13651188D01*
X11350248Y-13651188D02*
X11350248Y-13603569D01*
X11350248Y-13603569D02*
X11340724Y-13584522D01*
X11340724Y-13584522D02*
X11331201Y-13574998D01*
X11331201Y-13574998D02*
X11312153Y-13565474D01*
X11312153Y-13565474D02*
X11274058Y-13565474D01*
X11274058Y-13565474D02*
X11255010Y-13574998D01*
X11255010Y-13574998D02*
X11245486Y-13584522D01*
X11245486Y-13584522D02*
X11235962Y-13603569D01*
X11588343Y-13689284D02*
X11588343Y-13489284D01*
X11674058Y-13689284D02*
X11674058Y-13584522D01*
X11674058Y-13584522D02*
X11664534Y-13565474D01*
X11664534Y-13565474D02*
X11645486Y-13555950D01*
X11645486Y-13555950D02*
X11616915Y-13555950D01*
X11616915Y-13555950D02*
X11597867Y-13565474D01*
X11597867Y-13565474D02*
X11588343Y-13574998D01*
X11797867Y-13689284D02*
X11778820Y-13679760D01*
X11778820Y-13679760D02*
X11769296Y-13670236D01*
X11769296Y-13670236D02*
X11759772Y-13651188D01*
X11759772Y-13651188D02*
X11759772Y-13594046D01*
X11759772Y-13594046D02*
X11769296Y-13574998D01*
X11769296Y-13574998D02*
X11778820Y-13565474D01*
X11778820Y-13565474D02*
X11797867Y-13555950D01*
X11797867Y-13555950D02*
X11826439Y-13555950D01*
X11826439Y-13555950D02*
X11845486Y-13565474D01*
X11845486Y-13565474D02*
X11855010Y-13574998D01*
X11855010Y-13574998D02*
X11864534Y-13594046D01*
X11864534Y-13594046D02*
X11864534Y-13651188D01*
X11864534Y-13651188D02*
X11855010Y-13670236D01*
X11855010Y-13670236D02*
X11845486Y-13679760D01*
X11845486Y-13679760D02*
X11826439Y-13689284D01*
X11826439Y-13689284D02*
X11797867Y-13689284D01*
X11978820Y-13689284D02*
X11959772Y-13679760D01*
X11959772Y-13679760D02*
X11950248Y-13660712D01*
X11950248Y-13660712D02*
X11950248Y-13489284D01*
X12131201Y-13679760D02*
X12112153Y-13689284D01*
X12112153Y-13689284D02*
X12074058Y-13689284D01*
X12074058Y-13689284D02*
X12055010Y-13679760D01*
X12055010Y-13679760D02*
X12045486Y-13660712D01*
X12045486Y-13660712D02*
X12045486Y-13584522D01*
X12045486Y-13584522D02*
X12055010Y-13565474D01*
X12055010Y-13565474D02*
X12074058Y-13555950D01*
X12074058Y-13555950D02*
X12112153Y-13555950D01*
X12112153Y-13555950D02*
X12131201Y-13565474D01*
X12131201Y-13565474D02*
X12140724Y-13584522D01*
X12140724Y-13584522D02*
X12140724Y-13603569D01*
X12140724Y-13603569D02*
X12045486Y-13622617D01*
X12216915Y-13679760D02*
X12235963Y-13689284D01*
X12235963Y-13689284D02*
X12274058Y-13689284D01*
X12274058Y-13689284D02*
X12293105Y-13679760D01*
X12293105Y-13679760D02*
X12302629Y-13660712D01*
X12302629Y-13660712D02*
X12302629Y-13651188D01*
X12302629Y-13651188D02*
X12293105Y-13632141D01*
X12293105Y-13632141D02*
X12274058Y-13622617D01*
X12274058Y-13622617D02*
X12245486Y-13622617D01*
X12245486Y-13622617D02*
X12226439Y-13613093D01*
X12226439Y-13613093D02*
X12216915Y-13594046D01*
X12216915Y-13594046D02*
X12216915Y-13584522D01*
X12216915Y-13584522D02*
X12226439Y-13565474D01*
X12226439Y-13565474D02*
X12245486Y-13555950D01*
X12245486Y-13555950D02*
X12274058Y-13555950D01*
X12274058Y-13555950D02*
X12293105Y-13565474D01*
X12369296Y-13765474D02*
X12378820Y-13755950D01*
X12378820Y-13755950D02*
X12397867Y-13727379D01*
X12397867Y-13727379D02*
X12407391Y-13708331D01*
X12407391Y-13708331D02*
X12416915Y-13679760D01*
X12416915Y-13679760D02*
X12426439Y-13632141D01*
X12426439Y-13632141D02*
X12426439Y-13594046D01*
X12426439Y-13594046D02*
X12416915Y-13546427D01*
X12416915Y-13546427D02*
X12407391Y-13517855D01*
X12407391Y-13517855D02*
X12397867Y-13498808D01*
X12397867Y-13498808D02*
X12378820Y-13470236D01*
X12378820Y-13470236D02*
X12369296Y-13460712D01*
M02*
