%TF.GenerationSoftware,KiCad,Pcbnew,7.0.9*%
%TF.CreationDate,2024-01-11T17:23:22+09:00*%
%TF.ProjectId,KickerBoard,4b69636b-6572-4426-9f61-72642e6b6963,rev?*%
%TF.SameCoordinates,Original*%
%TF.FileFunction,Drillmap*%
%TF.FilePolarity,Positive*%
%FSLAX45Y45*%
G04 Gerber Fmt 4.5, Leading zero omitted, Abs format (unit mm)*
G04 Created by KiCad (PCBNEW 7.0.9) date 2024-01-11 17:23:22*
%MOMM*%
%LPD*%
G01*
G04 APERTURE LIST*
%ADD10C,0.200000*%
%ADD11C,0.220000*%
%ADD12C,0.320000*%
G04 APERTURE END LIST*
D10*
X19610490Y-8469415D02*
X19990875Y-8249800D01*
X19353717Y-11099799D02*
G75*
G03*
X19503717Y-11059608I3J299999D01*
G01*
X8209125Y-7989992D02*
G75*
G03*
X8209125Y-7989992I-110000J0D01*
G01*
X8586283Y-11099800D02*
X19353717Y-11099800D01*
X19950875Y-7989992D02*
G75*
G03*
X19950875Y-7989992I-110000J0D01*
G01*
X8439314Y-8879221D02*
G75*
G03*
X8329510Y-8469415I-259804J150001D01*
G01*
X8436284Y-11059607D02*
G75*
G03*
X8586283Y-11099800I149996J259787D01*
G01*
X20185769Y-10665827D02*
G75*
G03*
X20295575Y-10256018I-149999J259807D01*
G01*
X18970298Y-8099799D02*
G75*
G03*
X19120298Y-8059607I2J299999D01*
G01*
X19503717Y-11059608D02*
X20185768Y-10665826D01*
X8819703Y-8059606D02*
G75*
G03*
X8969702Y-8099800I149997J259786D01*
G01*
X19690875Y-7730185D02*
X19120298Y-8059608D01*
X18970298Y-8099800D02*
X8969702Y-8099800D01*
X7754232Y-10665826D02*
X8436283Y-11059608D01*
X8249125Y-7730184D02*
G75*
G03*
X7949125Y-8249800I-150001J-259808D01*
G01*
X7644426Y-10256019D02*
G75*
G03*
X7754232Y-10665826I259804J-150001D01*
G01*
X15830000Y-10799800D02*
G75*
G03*
X15830000Y-10799800I-110000J0D01*
G01*
X19610488Y-8469412D02*
G75*
G03*
X19500682Y-8879223I150002J-259808D01*
G01*
X8819702Y-8059608D02*
X8249125Y-7730185D01*
X12330000Y-10799800D02*
G75*
G03*
X12330000Y-10799800I-110000J0D01*
G01*
X20295575Y-10256018D02*
X19500682Y-8879223D01*
X19990870Y-8249792D02*
G75*
G03*
X19690875Y-7730185I-150000J259802D01*
G01*
X7949125Y-8249800D02*
X8329510Y-8469415D01*
X8439318Y-8879223D02*
X7644425Y-10256018D01*
D11*
X7987520Y-7880840D02*
X8207520Y-8100840D01*
X8207520Y-7880840D02*
X7987520Y-8100840D01*
X12112480Y-10690080D02*
X12332480Y-10910080D01*
X12332480Y-10690080D02*
X12112480Y-10910080D01*
X15607520Y-10690080D02*
X15827520Y-10910080D01*
X15827520Y-10690080D02*
X15607520Y-10910080D01*
X19732480Y-7880840D02*
X19952480Y-8100840D01*
X19952480Y-7880840D02*
X19732480Y-8100840D01*
D12*
X13332440Y-8661400D02*
G75*
G03*
X13332440Y-8661400I-160000J0D01*
G01*
X14927560Y-8661400D02*
G75*
G03*
X14927560Y-8661400I-160000J0D01*
G01*
D10*
X7855010Y-11421284D02*
X7855010Y-11221284D01*
X7855010Y-11221284D02*
X7902629Y-11221284D01*
X7902629Y-11221284D02*
X7931200Y-11230808D01*
X7931200Y-11230808D02*
X7950248Y-11249855D01*
X7950248Y-11249855D02*
X7959772Y-11268903D01*
X7959772Y-11268903D02*
X7969295Y-11306998D01*
X7969295Y-11306998D02*
X7969295Y-11335569D01*
X7969295Y-11335569D02*
X7959772Y-11373665D01*
X7959772Y-11373665D02*
X7950248Y-11392712D01*
X7950248Y-11392712D02*
X7931200Y-11411760D01*
X7931200Y-11411760D02*
X7902629Y-11421284D01*
X7902629Y-11421284D02*
X7855010Y-11421284D01*
X8055010Y-11421284D02*
X8055010Y-11287950D01*
X8055010Y-11326046D02*
X8064534Y-11306998D01*
X8064534Y-11306998D02*
X8074057Y-11297474D01*
X8074057Y-11297474D02*
X8093105Y-11287950D01*
X8093105Y-11287950D02*
X8112153Y-11287950D01*
X8178819Y-11421284D02*
X8178819Y-11287950D01*
X8178819Y-11221284D02*
X8169295Y-11230808D01*
X8169295Y-11230808D02*
X8178819Y-11240331D01*
X8178819Y-11240331D02*
X8188343Y-11230808D01*
X8188343Y-11230808D02*
X8178819Y-11221284D01*
X8178819Y-11221284D02*
X8178819Y-11240331D01*
X8302629Y-11421284D02*
X8283581Y-11411760D01*
X8283581Y-11411760D02*
X8274057Y-11392712D01*
X8274057Y-11392712D02*
X8274057Y-11221284D01*
X8407391Y-11421284D02*
X8388343Y-11411760D01*
X8388343Y-11411760D02*
X8378819Y-11392712D01*
X8378819Y-11392712D02*
X8378819Y-11221284D01*
X8635962Y-11421284D02*
X8635962Y-11221284D01*
X8635962Y-11221284D02*
X8702629Y-11364141D01*
X8702629Y-11364141D02*
X8769296Y-11221284D01*
X8769296Y-11221284D02*
X8769296Y-11421284D01*
X8950248Y-11421284D02*
X8950248Y-11316522D01*
X8950248Y-11316522D02*
X8940724Y-11297474D01*
X8940724Y-11297474D02*
X8921677Y-11287950D01*
X8921677Y-11287950D02*
X8883581Y-11287950D01*
X8883581Y-11287950D02*
X8864534Y-11297474D01*
X8950248Y-11411760D02*
X8931200Y-11421284D01*
X8931200Y-11421284D02*
X8883581Y-11421284D01*
X8883581Y-11421284D02*
X8864534Y-11411760D01*
X8864534Y-11411760D02*
X8855010Y-11392712D01*
X8855010Y-11392712D02*
X8855010Y-11373665D01*
X8855010Y-11373665D02*
X8864534Y-11354617D01*
X8864534Y-11354617D02*
X8883581Y-11345093D01*
X8883581Y-11345093D02*
X8931200Y-11345093D01*
X8931200Y-11345093D02*
X8950248Y-11335569D01*
X9045486Y-11287950D02*
X9045486Y-11487950D01*
X9045486Y-11297474D02*
X9064534Y-11287950D01*
X9064534Y-11287950D02*
X9102629Y-11287950D01*
X9102629Y-11287950D02*
X9121677Y-11297474D01*
X9121677Y-11297474D02*
X9131200Y-11306998D01*
X9131200Y-11306998D02*
X9140724Y-11326046D01*
X9140724Y-11326046D02*
X9140724Y-11383188D01*
X9140724Y-11383188D02*
X9131200Y-11402236D01*
X9131200Y-11402236D02*
X9121677Y-11411760D01*
X9121677Y-11411760D02*
X9102629Y-11421284D01*
X9102629Y-11421284D02*
X9064534Y-11421284D01*
X9064534Y-11421284D02*
X9045486Y-11411760D01*
X9226438Y-11402236D02*
X9235962Y-11411760D01*
X9235962Y-11411760D02*
X9226438Y-11421284D01*
X9226438Y-11421284D02*
X9216915Y-11411760D01*
X9216915Y-11411760D02*
X9226438Y-11402236D01*
X9226438Y-11402236D02*
X9226438Y-11421284D01*
X9226438Y-11297474D02*
X9235962Y-11306998D01*
X9235962Y-11306998D02*
X9226438Y-11316522D01*
X9226438Y-11316522D02*
X9216915Y-11306998D01*
X9216915Y-11306998D02*
X9226438Y-11297474D01*
X9226438Y-11297474D02*
X9226438Y-11316522D01*
X7394233Y-11649800D02*
X7594233Y-11849800D01*
X7594233Y-11649800D02*
X7394233Y-11849800D01*
X7845486Y-11660331D02*
X7855010Y-11650808D01*
X7855010Y-11650808D02*
X7874057Y-11641284D01*
X7874057Y-11641284D02*
X7921676Y-11641284D01*
X7921676Y-11641284D02*
X7940724Y-11650808D01*
X7940724Y-11650808D02*
X7950248Y-11660331D01*
X7950248Y-11660331D02*
X7959772Y-11679379D01*
X7959772Y-11679379D02*
X7959772Y-11698427D01*
X7959772Y-11698427D02*
X7950248Y-11726998D01*
X7950248Y-11726998D02*
X7835962Y-11841284D01*
X7835962Y-11841284D02*
X7959772Y-11841284D01*
X8045486Y-11822236D02*
X8055010Y-11831760D01*
X8055010Y-11831760D02*
X8045486Y-11841284D01*
X8045486Y-11841284D02*
X8035962Y-11831760D01*
X8035962Y-11831760D02*
X8045486Y-11822236D01*
X8045486Y-11822236D02*
X8045486Y-11841284D01*
X8131200Y-11660331D02*
X8140724Y-11650808D01*
X8140724Y-11650808D02*
X8159772Y-11641284D01*
X8159772Y-11641284D02*
X8207391Y-11641284D01*
X8207391Y-11641284D02*
X8226438Y-11650808D01*
X8226438Y-11650808D02*
X8235962Y-11660331D01*
X8235962Y-11660331D02*
X8245486Y-11679379D01*
X8245486Y-11679379D02*
X8245486Y-11698427D01*
X8245486Y-11698427D02*
X8235962Y-11726998D01*
X8235962Y-11726998D02*
X8121676Y-11841284D01*
X8121676Y-11841284D02*
X8245486Y-11841284D01*
X8369295Y-11641284D02*
X8388343Y-11641284D01*
X8388343Y-11641284D02*
X8407391Y-11650808D01*
X8407391Y-11650808D02*
X8416915Y-11660331D01*
X8416915Y-11660331D02*
X8426438Y-11679379D01*
X8426438Y-11679379D02*
X8435962Y-11717474D01*
X8435962Y-11717474D02*
X8435962Y-11765093D01*
X8435962Y-11765093D02*
X8426438Y-11803188D01*
X8426438Y-11803188D02*
X8416915Y-11822236D01*
X8416915Y-11822236D02*
X8407391Y-11831760D01*
X8407391Y-11831760D02*
X8388343Y-11841284D01*
X8388343Y-11841284D02*
X8369295Y-11841284D01*
X8369295Y-11841284D02*
X8350248Y-11831760D01*
X8350248Y-11831760D02*
X8340724Y-11822236D01*
X8340724Y-11822236D02*
X8331200Y-11803188D01*
X8331200Y-11803188D02*
X8321676Y-11765093D01*
X8321676Y-11765093D02*
X8321676Y-11717474D01*
X8321676Y-11717474D02*
X8331200Y-11679379D01*
X8331200Y-11679379D02*
X8340724Y-11660331D01*
X8340724Y-11660331D02*
X8350248Y-11650808D01*
X8350248Y-11650808D02*
X8369295Y-11641284D01*
X8559772Y-11641284D02*
X8578819Y-11641284D01*
X8578819Y-11641284D02*
X8597867Y-11650808D01*
X8597867Y-11650808D02*
X8607391Y-11660331D01*
X8607391Y-11660331D02*
X8616915Y-11679379D01*
X8616915Y-11679379D02*
X8626438Y-11717474D01*
X8626438Y-11717474D02*
X8626438Y-11765093D01*
X8626438Y-11765093D02*
X8616915Y-11803188D01*
X8616915Y-11803188D02*
X8607391Y-11822236D01*
X8607391Y-11822236D02*
X8597867Y-11831760D01*
X8597867Y-11831760D02*
X8578819Y-11841284D01*
X8578819Y-11841284D02*
X8559772Y-11841284D01*
X8559772Y-11841284D02*
X8540724Y-11831760D01*
X8540724Y-11831760D02*
X8531200Y-11822236D01*
X8531200Y-11822236D02*
X8521677Y-11803188D01*
X8521677Y-11803188D02*
X8512153Y-11765093D01*
X8512153Y-11765093D02*
X8512153Y-11717474D01*
X8512153Y-11717474D02*
X8521677Y-11679379D01*
X8521677Y-11679379D02*
X8531200Y-11660331D01*
X8531200Y-11660331D02*
X8540724Y-11650808D01*
X8540724Y-11650808D02*
X8559772Y-11641284D01*
X8712153Y-11841284D02*
X8712153Y-11707950D01*
X8712153Y-11726998D02*
X8721677Y-11717474D01*
X8721677Y-11717474D02*
X8740724Y-11707950D01*
X8740724Y-11707950D02*
X8769296Y-11707950D01*
X8769296Y-11707950D02*
X8788343Y-11717474D01*
X8788343Y-11717474D02*
X8797867Y-11736522D01*
X8797867Y-11736522D02*
X8797867Y-11841284D01*
X8797867Y-11736522D02*
X8807391Y-11717474D01*
X8807391Y-11717474D02*
X8826438Y-11707950D01*
X8826438Y-11707950D02*
X8855010Y-11707950D01*
X8855010Y-11707950D02*
X8874058Y-11717474D01*
X8874058Y-11717474D02*
X8883581Y-11736522D01*
X8883581Y-11736522D02*
X8883581Y-11841284D01*
X8978819Y-11841284D02*
X8978819Y-11707950D01*
X8978819Y-11726998D02*
X8988343Y-11717474D01*
X8988343Y-11717474D02*
X9007391Y-11707950D01*
X9007391Y-11707950D02*
X9035962Y-11707950D01*
X9035962Y-11707950D02*
X9055010Y-11717474D01*
X9055010Y-11717474D02*
X9064534Y-11736522D01*
X9064534Y-11736522D02*
X9064534Y-11841284D01*
X9064534Y-11736522D02*
X9074058Y-11717474D01*
X9074058Y-11717474D02*
X9093105Y-11707950D01*
X9093105Y-11707950D02*
X9121677Y-11707950D01*
X9121677Y-11707950D02*
X9140724Y-11717474D01*
X9140724Y-11717474D02*
X9150248Y-11736522D01*
X9150248Y-11736522D02*
X9150248Y-11841284D01*
X9540724Y-11631760D02*
X9369296Y-11888903D01*
X9797867Y-11641284D02*
X9816915Y-11641284D01*
X9816915Y-11641284D02*
X9835962Y-11650808D01*
X9835962Y-11650808D02*
X9845486Y-11660331D01*
X9845486Y-11660331D02*
X9855010Y-11679379D01*
X9855010Y-11679379D02*
X9864534Y-11717474D01*
X9864534Y-11717474D02*
X9864534Y-11765093D01*
X9864534Y-11765093D02*
X9855010Y-11803188D01*
X9855010Y-11803188D02*
X9845486Y-11822236D01*
X9845486Y-11822236D02*
X9835962Y-11831760D01*
X9835962Y-11831760D02*
X9816915Y-11841284D01*
X9816915Y-11841284D02*
X9797867Y-11841284D01*
X9797867Y-11841284D02*
X9778820Y-11831760D01*
X9778820Y-11831760D02*
X9769296Y-11822236D01*
X9769296Y-11822236D02*
X9759772Y-11803188D01*
X9759772Y-11803188D02*
X9750248Y-11765093D01*
X9750248Y-11765093D02*
X9750248Y-11717474D01*
X9750248Y-11717474D02*
X9759772Y-11679379D01*
X9759772Y-11679379D02*
X9769296Y-11660331D01*
X9769296Y-11660331D02*
X9778820Y-11650808D01*
X9778820Y-11650808D02*
X9797867Y-11641284D01*
X9950248Y-11822236D02*
X9959772Y-11831760D01*
X9959772Y-11831760D02*
X9950248Y-11841284D01*
X9950248Y-11841284D02*
X9940724Y-11831760D01*
X9940724Y-11831760D02*
X9950248Y-11822236D01*
X9950248Y-11822236D02*
X9950248Y-11841284D01*
X10083581Y-11641284D02*
X10102629Y-11641284D01*
X10102629Y-11641284D02*
X10121677Y-11650808D01*
X10121677Y-11650808D02*
X10131201Y-11660331D01*
X10131201Y-11660331D02*
X10140724Y-11679379D01*
X10140724Y-11679379D02*
X10150248Y-11717474D01*
X10150248Y-11717474D02*
X10150248Y-11765093D01*
X10150248Y-11765093D02*
X10140724Y-11803188D01*
X10140724Y-11803188D02*
X10131201Y-11822236D01*
X10131201Y-11822236D02*
X10121677Y-11831760D01*
X10121677Y-11831760D02*
X10102629Y-11841284D01*
X10102629Y-11841284D02*
X10083581Y-11841284D01*
X10083581Y-11841284D02*
X10064534Y-11831760D01*
X10064534Y-11831760D02*
X10055010Y-11822236D01*
X10055010Y-11822236D02*
X10045486Y-11803188D01*
X10045486Y-11803188D02*
X10035962Y-11765093D01*
X10035962Y-11765093D02*
X10035962Y-11717474D01*
X10035962Y-11717474D02*
X10045486Y-11679379D01*
X10045486Y-11679379D02*
X10055010Y-11660331D01*
X10055010Y-11660331D02*
X10064534Y-11650808D01*
X10064534Y-11650808D02*
X10083581Y-11641284D01*
X10264534Y-11726998D02*
X10245486Y-11717474D01*
X10245486Y-11717474D02*
X10235962Y-11707950D01*
X10235962Y-11707950D02*
X10226439Y-11688903D01*
X10226439Y-11688903D02*
X10226439Y-11679379D01*
X10226439Y-11679379D02*
X10235962Y-11660331D01*
X10235962Y-11660331D02*
X10245486Y-11650808D01*
X10245486Y-11650808D02*
X10264534Y-11641284D01*
X10264534Y-11641284D02*
X10302629Y-11641284D01*
X10302629Y-11641284D02*
X10321677Y-11650808D01*
X10321677Y-11650808D02*
X10331201Y-11660331D01*
X10331201Y-11660331D02*
X10340724Y-11679379D01*
X10340724Y-11679379D02*
X10340724Y-11688903D01*
X10340724Y-11688903D02*
X10331201Y-11707950D01*
X10331201Y-11707950D02*
X10321677Y-11717474D01*
X10321677Y-11717474D02*
X10302629Y-11726998D01*
X10302629Y-11726998D02*
X10264534Y-11726998D01*
X10264534Y-11726998D02*
X10245486Y-11736522D01*
X10245486Y-11736522D02*
X10235962Y-11746046D01*
X10235962Y-11746046D02*
X10226439Y-11765093D01*
X10226439Y-11765093D02*
X10226439Y-11803188D01*
X10226439Y-11803188D02*
X10235962Y-11822236D01*
X10235962Y-11822236D02*
X10245486Y-11831760D01*
X10245486Y-11831760D02*
X10264534Y-11841284D01*
X10264534Y-11841284D02*
X10302629Y-11841284D01*
X10302629Y-11841284D02*
X10321677Y-11831760D01*
X10321677Y-11831760D02*
X10331201Y-11822236D01*
X10331201Y-11822236D02*
X10340724Y-11803188D01*
X10340724Y-11803188D02*
X10340724Y-11765093D01*
X10340724Y-11765093D02*
X10331201Y-11746046D01*
X10331201Y-11746046D02*
X10321677Y-11736522D01*
X10321677Y-11736522D02*
X10302629Y-11726998D01*
X10512153Y-11641284D02*
X10474058Y-11641284D01*
X10474058Y-11641284D02*
X10455010Y-11650808D01*
X10455010Y-11650808D02*
X10445486Y-11660331D01*
X10445486Y-11660331D02*
X10426439Y-11688903D01*
X10426439Y-11688903D02*
X10416915Y-11726998D01*
X10416915Y-11726998D02*
X10416915Y-11803188D01*
X10416915Y-11803188D02*
X10426439Y-11822236D01*
X10426439Y-11822236D02*
X10435962Y-11831760D01*
X10435962Y-11831760D02*
X10455010Y-11841284D01*
X10455010Y-11841284D02*
X10493105Y-11841284D01*
X10493105Y-11841284D02*
X10512153Y-11831760D01*
X10512153Y-11831760D02*
X10521677Y-11822236D01*
X10521677Y-11822236D02*
X10531201Y-11803188D01*
X10531201Y-11803188D02*
X10531201Y-11755569D01*
X10531201Y-11755569D02*
X10521677Y-11736522D01*
X10521677Y-11736522D02*
X10512153Y-11726998D01*
X10512153Y-11726998D02*
X10493105Y-11717474D01*
X10493105Y-11717474D02*
X10455010Y-11717474D01*
X10455010Y-11717474D02*
X10435962Y-11726998D01*
X10435962Y-11726998D02*
X10426439Y-11736522D01*
X10426439Y-11736522D02*
X10416915Y-11755569D01*
X10702629Y-11641284D02*
X10664534Y-11641284D01*
X10664534Y-11641284D02*
X10645486Y-11650808D01*
X10645486Y-11650808D02*
X10635962Y-11660331D01*
X10635962Y-11660331D02*
X10616915Y-11688903D01*
X10616915Y-11688903D02*
X10607391Y-11726998D01*
X10607391Y-11726998D02*
X10607391Y-11803188D01*
X10607391Y-11803188D02*
X10616915Y-11822236D01*
X10616915Y-11822236D02*
X10626439Y-11831760D01*
X10626439Y-11831760D02*
X10645486Y-11841284D01*
X10645486Y-11841284D02*
X10683582Y-11841284D01*
X10683582Y-11841284D02*
X10702629Y-11831760D01*
X10702629Y-11831760D02*
X10712153Y-11822236D01*
X10712153Y-11822236D02*
X10721677Y-11803188D01*
X10721677Y-11803188D02*
X10721677Y-11755569D01*
X10721677Y-11755569D02*
X10712153Y-11736522D01*
X10712153Y-11736522D02*
X10702629Y-11726998D01*
X10702629Y-11726998D02*
X10683582Y-11717474D01*
X10683582Y-11717474D02*
X10645486Y-11717474D01*
X10645486Y-11717474D02*
X10626439Y-11726998D01*
X10626439Y-11726998D02*
X10616915Y-11736522D01*
X10616915Y-11736522D02*
X10607391Y-11755569D01*
X10797867Y-11641284D02*
X10797867Y-11679379D01*
X10874058Y-11641284D02*
X10874058Y-11679379D01*
X11169296Y-11917474D02*
X11159772Y-11907950D01*
X11159772Y-11907950D02*
X11140724Y-11879379D01*
X11140724Y-11879379D02*
X11131201Y-11860331D01*
X11131201Y-11860331D02*
X11121677Y-11831760D01*
X11121677Y-11831760D02*
X11112153Y-11784141D01*
X11112153Y-11784141D02*
X11112153Y-11746046D01*
X11112153Y-11746046D02*
X11121677Y-11698427D01*
X11121677Y-11698427D02*
X11131201Y-11669855D01*
X11131201Y-11669855D02*
X11140724Y-11650808D01*
X11140724Y-11650808D02*
X11159772Y-11622236D01*
X11159772Y-11622236D02*
X11169296Y-11612712D01*
X11331201Y-11707950D02*
X11331201Y-11841284D01*
X11283581Y-11631760D02*
X11235962Y-11774617D01*
X11235962Y-11774617D02*
X11359772Y-11774617D01*
X11588343Y-11841284D02*
X11588343Y-11641284D01*
X11674058Y-11841284D02*
X11674058Y-11736522D01*
X11674058Y-11736522D02*
X11664534Y-11717474D01*
X11664534Y-11717474D02*
X11645486Y-11707950D01*
X11645486Y-11707950D02*
X11616915Y-11707950D01*
X11616915Y-11707950D02*
X11597867Y-11717474D01*
X11597867Y-11717474D02*
X11588343Y-11726998D01*
X11797867Y-11841284D02*
X11778820Y-11831760D01*
X11778820Y-11831760D02*
X11769296Y-11822236D01*
X11769296Y-11822236D02*
X11759772Y-11803188D01*
X11759772Y-11803188D02*
X11759772Y-11746046D01*
X11759772Y-11746046D02*
X11769296Y-11726998D01*
X11769296Y-11726998D02*
X11778820Y-11717474D01*
X11778820Y-11717474D02*
X11797867Y-11707950D01*
X11797867Y-11707950D02*
X11826439Y-11707950D01*
X11826439Y-11707950D02*
X11845486Y-11717474D01*
X11845486Y-11717474D02*
X11855010Y-11726998D01*
X11855010Y-11726998D02*
X11864534Y-11746046D01*
X11864534Y-11746046D02*
X11864534Y-11803188D01*
X11864534Y-11803188D02*
X11855010Y-11822236D01*
X11855010Y-11822236D02*
X11845486Y-11831760D01*
X11845486Y-11831760D02*
X11826439Y-11841284D01*
X11826439Y-11841284D02*
X11797867Y-11841284D01*
X11978820Y-11841284D02*
X11959772Y-11831760D01*
X11959772Y-11831760D02*
X11950248Y-11812712D01*
X11950248Y-11812712D02*
X11950248Y-11641284D01*
X12131201Y-11831760D02*
X12112153Y-11841284D01*
X12112153Y-11841284D02*
X12074058Y-11841284D01*
X12074058Y-11841284D02*
X12055010Y-11831760D01*
X12055010Y-11831760D02*
X12045486Y-11812712D01*
X12045486Y-11812712D02*
X12045486Y-11736522D01*
X12045486Y-11736522D02*
X12055010Y-11717474D01*
X12055010Y-11717474D02*
X12074058Y-11707950D01*
X12074058Y-11707950D02*
X12112153Y-11707950D01*
X12112153Y-11707950D02*
X12131201Y-11717474D01*
X12131201Y-11717474D02*
X12140724Y-11736522D01*
X12140724Y-11736522D02*
X12140724Y-11755569D01*
X12140724Y-11755569D02*
X12045486Y-11774617D01*
X12216915Y-11831760D02*
X12235963Y-11841284D01*
X12235963Y-11841284D02*
X12274058Y-11841284D01*
X12274058Y-11841284D02*
X12293105Y-11831760D01*
X12293105Y-11831760D02*
X12302629Y-11812712D01*
X12302629Y-11812712D02*
X12302629Y-11803188D01*
X12302629Y-11803188D02*
X12293105Y-11784141D01*
X12293105Y-11784141D02*
X12274058Y-11774617D01*
X12274058Y-11774617D02*
X12245486Y-11774617D01*
X12245486Y-11774617D02*
X12226439Y-11765093D01*
X12226439Y-11765093D02*
X12216915Y-11746046D01*
X12216915Y-11746046D02*
X12216915Y-11736522D01*
X12216915Y-11736522D02*
X12226439Y-11717474D01*
X12226439Y-11717474D02*
X12245486Y-11707950D01*
X12245486Y-11707950D02*
X12274058Y-11707950D01*
X12274058Y-11707950D02*
X12293105Y-11717474D01*
X12369296Y-11917474D02*
X12378820Y-11907950D01*
X12378820Y-11907950D02*
X12397867Y-11879379D01*
X12397867Y-11879379D02*
X12407391Y-11860331D01*
X12407391Y-11860331D02*
X12416915Y-11831760D01*
X12416915Y-11831760D02*
X12426439Y-11784141D01*
X12426439Y-11784141D02*
X12426439Y-11746046D01*
X12426439Y-11746046D02*
X12416915Y-11698427D01*
X12416915Y-11698427D02*
X12407391Y-11669855D01*
X12407391Y-11669855D02*
X12397867Y-11650808D01*
X12397867Y-11650808D02*
X12378820Y-11622236D01*
X12378820Y-11622236D02*
X12369296Y-11612712D01*
X12731201Y-11917474D02*
X12721677Y-11907950D01*
X12721677Y-11907950D02*
X12702629Y-11879379D01*
X12702629Y-11879379D02*
X12693105Y-11860331D01*
X12693105Y-11860331D02*
X12683582Y-11831760D01*
X12683582Y-11831760D02*
X12674058Y-11784141D01*
X12674058Y-11784141D02*
X12674058Y-11746046D01*
X12674058Y-11746046D02*
X12683582Y-11698427D01*
X12683582Y-11698427D02*
X12693105Y-11669855D01*
X12693105Y-11669855D02*
X12702629Y-11650808D01*
X12702629Y-11650808D02*
X12721677Y-11622236D01*
X12721677Y-11622236D02*
X12731201Y-11612712D01*
X12807391Y-11707950D02*
X12807391Y-11841284D01*
X12807391Y-11726998D02*
X12816915Y-11717474D01*
X12816915Y-11717474D02*
X12835963Y-11707950D01*
X12835963Y-11707950D02*
X12864534Y-11707950D01*
X12864534Y-11707950D02*
X12883582Y-11717474D01*
X12883582Y-11717474D02*
X12893105Y-11736522D01*
X12893105Y-11736522D02*
X12893105Y-11841284D01*
X13016915Y-11841284D02*
X12997867Y-11831760D01*
X12997867Y-11831760D02*
X12988344Y-11822236D01*
X12988344Y-11822236D02*
X12978820Y-11803188D01*
X12978820Y-11803188D02*
X12978820Y-11746046D01*
X12978820Y-11746046D02*
X12988344Y-11726998D01*
X12988344Y-11726998D02*
X12997867Y-11717474D01*
X12997867Y-11717474D02*
X13016915Y-11707950D01*
X13016915Y-11707950D02*
X13045486Y-11707950D01*
X13045486Y-11707950D02*
X13064534Y-11717474D01*
X13064534Y-11717474D02*
X13074058Y-11726998D01*
X13074058Y-11726998D02*
X13083582Y-11746046D01*
X13083582Y-11746046D02*
X13083582Y-11803188D01*
X13083582Y-11803188D02*
X13074058Y-11822236D01*
X13074058Y-11822236D02*
X13064534Y-11831760D01*
X13064534Y-11831760D02*
X13045486Y-11841284D01*
X13045486Y-11841284D02*
X13016915Y-11841284D01*
X13140725Y-11707950D02*
X13216915Y-11707950D01*
X13169296Y-11641284D02*
X13169296Y-11812712D01*
X13169296Y-11812712D02*
X13178820Y-11831760D01*
X13178820Y-11831760D02*
X13197867Y-11841284D01*
X13197867Y-11841284D02*
X13216915Y-11841284D01*
X13435963Y-11707950D02*
X13435963Y-11907950D01*
X13435963Y-11717474D02*
X13455010Y-11707950D01*
X13455010Y-11707950D02*
X13493106Y-11707950D01*
X13493106Y-11707950D02*
X13512153Y-11717474D01*
X13512153Y-11717474D02*
X13521677Y-11726998D01*
X13521677Y-11726998D02*
X13531201Y-11746046D01*
X13531201Y-11746046D02*
X13531201Y-11803188D01*
X13531201Y-11803188D02*
X13521677Y-11822236D01*
X13521677Y-11822236D02*
X13512153Y-11831760D01*
X13512153Y-11831760D02*
X13493106Y-11841284D01*
X13493106Y-11841284D02*
X13455010Y-11841284D01*
X13455010Y-11841284D02*
X13435963Y-11831760D01*
X13645486Y-11841284D02*
X13626439Y-11831760D01*
X13626439Y-11831760D02*
X13616915Y-11812712D01*
X13616915Y-11812712D02*
X13616915Y-11641284D01*
X13807391Y-11841284D02*
X13807391Y-11736522D01*
X13807391Y-11736522D02*
X13797867Y-11717474D01*
X13797867Y-11717474D02*
X13778820Y-11707950D01*
X13778820Y-11707950D02*
X13740725Y-11707950D01*
X13740725Y-11707950D02*
X13721677Y-11717474D01*
X13807391Y-11831760D02*
X13788344Y-11841284D01*
X13788344Y-11841284D02*
X13740725Y-11841284D01*
X13740725Y-11841284D02*
X13721677Y-11831760D01*
X13721677Y-11831760D02*
X13712153Y-11812712D01*
X13712153Y-11812712D02*
X13712153Y-11793665D01*
X13712153Y-11793665D02*
X13721677Y-11774617D01*
X13721677Y-11774617D02*
X13740725Y-11765093D01*
X13740725Y-11765093D02*
X13788344Y-11765093D01*
X13788344Y-11765093D02*
X13807391Y-11755569D01*
X13874058Y-11707950D02*
X13950248Y-11707950D01*
X13902629Y-11641284D02*
X13902629Y-11812712D01*
X13902629Y-11812712D02*
X13912153Y-11831760D01*
X13912153Y-11831760D02*
X13931201Y-11841284D01*
X13931201Y-11841284D02*
X13950248Y-11841284D01*
X14093106Y-11831760D02*
X14074058Y-11841284D01*
X14074058Y-11841284D02*
X14035963Y-11841284D01*
X14035963Y-11841284D02*
X14016915Y-11831760D01*
X14016915Y-11831760D02*
X14007391Y-11812712D01*
X14007391Y-11812712D02*
X14007391Y-11736522D01*
X14007391Y-11736522D02*
X14016915Y-11717474D01*
X14016915Y-11717474D02*
X14035963Y-11707950D01*
X14035963Y-11707950D02*
X14074058Y-11707950D01*
X14074058Y-11707950D02*
X14093106Y-11717474D01*
X14093106Y-11717474D02*
X14102629Y-11736522D01*
X14102629Y-11736522D02*
X14102629Y-11755569D01*
X14102629Y-11755569D02*
X14007391Y-11774617D01*
X14274058Y-11841284D02*
X14274058Y-11641284D01*
X14274058Y-11831760D02*
X14255010Y-11841284D01*
X14255010Y-11841284D02*
X14216915Y-11841284D01*
X14216915Y-11841284D02*
X14197867Y-11831760D01*
X14197867Y-11831760D02*
X14188344Y-11822236D01*
X14188344Y-11822236D02*
X14178820Y-11803188D01*
X14178820Y-11803188D02*
X14178820Y-11746046D01*
X14178820Y-11746046D02*
X14188344Y-11726998D01*
X14188344Y-11726998D02*
X14197867Y-11717474D01*
X14197867Y-11717474D02*
X14216915Y-11707950D01*
X14216915Y-11707950D02*
X14255010Y-11707950D01*
X14255010Y-11707950D02*
X14274058Y-11717474D01*
X14350248Y-11917474D02*
X14359772Y-11907950D01*
X14359772Y-11907950D02*
X14378820Y-11879379D01*
X14378820Y-11879379D02*
X14388344Y-11860331D01*
X14388344Y-11860331D02*
X14397867Y-11831760D01*
X14397867Y-11831760D02*
X14407391Y-11784141D01*
X14407391Y-11784141D02*
X14407391Y-11746046D01*
X14407391Y-11746046D02*
X14397867Y-11698427D01*
X14397867Y-11698427D02*
X14388344Y-11669855D01*
X14388344Y-11669855D02*
X14378820Y-11650808D01*
X14378820Y-11650808D02*
X14359772Y-11622236D01*
X14359772Y-11622236D02*
X14350248Y-11612712D01*
X7594233Y-12069800D02*
G75*
G03*
X7594233Y-12069800I-100000J0D01*
G01*
X7835962Y-11961284D02*
X7959772Y-11961284D01*
X7959772Y-11961284D02*
X7893105Y-12037474D01*
X7893105Y-12037474D02*
X7921676Y-12037474D01*
X7921676Y-12037474D02*
X7940724Y-12046998D01*
X7940724Y-12046998D02*
X7950248Y-12056522D01*
X7950248Y-12056522D02*
X7959772Y-12075569D01*
X7959772Y-12075569D02*
X7959772Y-12123188D01*
X7959772Y-12123188D02*
X7950248Y-12142236D01*
X7950248Y-12142236D02*
X7940724Y-12151760D01*
X7940724Y-12151760D02*
X7921676Y-12161284D01*
X7921676Y-12161284D02*
X7864534Y-12161284D01*
X7864534Y-12161284D02*
X7845486Y-12151760D01*
X7845486Y-12151760D02*
X7835962Y-12142236D01*
X8045486Y-12142236D02*
X8055010Y-12151760D01*
X8055010Y-12151760D02*
X8045486Y-12161284D01*
X8045486Y-12161284D02*
X8035962Y-12151760D01*
X8035962Y-12151760D02*
X8045486Y-12142236D01*
X8045486Y-12142236D02*
X8045486Y-12161284D01*
X8131200Y-11980331D02*
X8140724Y-11970808D01*
X8140724Y-11970808D02*
X8159772Y-11961284D01*
X8159772Y-11961284D02*
X8207391Y-11961284D01*
X8207391Y-11961284D02*
X8226438Y-11970808D01*
X8226438Y-11970808D02*
X8235962Y-11980331D01*
X8235962Y-11980331D02*
X8245486Y-11999379D01*
X8245486Y-11999379D02*
X8245486Y-12018427D01*
X8245486Y-12018427D02*
X8235962Y-12046998D01*
X8235962Y-12046998D02*
X8121676Y-12161284D01*
X8121676Y-12161284D02*
X8245486Y-12161284D01*
X8369295Y-11961284D02*
X8388343Y-11961284D01*
X8388343Y-11961284D02*
X8407391Y-11970808D01*
X8407391Y-11970808D02*
X8416915Y-11980331D01*
X8416915Y-11980331D02*
X8426438Y-11999379D01*
X8426438Y-11999379D02*
X8435962Y-12037474D01*
X8435962Y-12037474D02*
X8435962Y-12085093D01*
X8435962Y-12085093D02*
X8426438Y-12123188D01*
X8426438Y-12123188D02*
X8416915Y-12142236D01*
X8416915Y-12142236D02*
X8407391Y-12151760D01*
X8407391Y-12151760D02*
X8388343Y-12161284D01*
X8388343Y-12161284D02*
X8369295Y-12161284D01*
X8369295Y-12161284D02*
X8350248Y-12151760D01*
X8350248Y-12151760D02*
X8340724Y-12142236D01*
X8340724Y-12142236D02*
X8331200Y-12123188D01*
X8331200Y-12123188D02*
X8321676Y-12085093D01*
X8321676Y-12085093D02*
X8321676Y-12037474D01*
X8321676Y-12037474D02*
X8331200Y-11999379D01*
X8331200Y-11999379D02*
X8340724Y-11980331D01*
X8340724Y-11980331D02*
X8350248Y-11970808D01*
X8350248Y-11970808D02*
X8369295Y-11961284D01*
X8559772Y-11961284D02*
X8578819Y-11961284D01*
X8578819Y-11961284D02*
X8597867Y-11970808D01*
X8597867Y-11970808D02*
X8607391Y-11980331D01*
X8607391Y-11980331D02*
X8616915Y-11999379D01*
X8616915Y-11999379D02*
X8626438Y-12037474D01*
X8626438Y-12037474D02*
X8626438Y-12085093D01*
X8626438Y-12085093D02*
X8616915Y-12123188D01*
X8616915Y-12123188D02*
X8607391Y-12142236D01*
X8607391Y-12142236D02*
X8597867Y-12151760D01*
X8597867Y-12151760D02*
X8578819Y-12161284D01*
X8578819Y-12161284D02*
X8559772Y-12161284D01*
X8559772Y-12161284D02*
X8540724Y-12151760D01*
X8540724Y-12151760D02*
X8531200Y-12142236D01*
X8531200Y-12142236D02*
X8521677Y-12123188D01*
X8521677Y-12123188D02*
X8512153Y-12085093D01*
X8512153Y-12085093D02*
X8512153Y-12037474D01*
X8512153Y-12037474D02*
X8521677Y-11999379D01*
X8521677Y-11999379D02*
X8531200Y-11980331D01*
X8531200Y-11980331D02*
X8540724Y-11970808D01*
X8540724Y-11970808D02*
X8559772Y-11961284D01*
X8712153Y-12161284D02*
X8712153Y-12027950D01*
X8712153Y-12046998D02*
X8721677Y-12037474D01*
X8721677Y-12037474D02*
X8740724Y-12027950D01*
X8740724Y-12027950D02*
X8769296Y-12027950D01*
X8769296Y-12027950D02*
X8788343Y-12037474D01*
X8788343Y-12037474D02*
X8797867Y-12056522D01*
X8797867Y-12056522D02*
X8797867Y-12161284D01*
X8797867Y-12056522D02*
X8807391Y-12037474D01*
X8807391Y-12037474D02*
X8826438Y-12027950D01*
X8826438Y-12027950D02*
X8855010Y-12027950D01*
X8855010Y-12027950D02*
X8874058Y-12037474D01*
X8874058Y-12037474D02*
X8883581Y-12056522D01*
X8883581Y-12056522D02*
X8883581Y-12161284D01*
X8978819Y-12161284D02*
X8978819Y-12027950D01*
X8978819Y-12046998D02*
X8988343Y-12037474D01*
X8988343Y-12037474D02*
X9007391Y-12027950D01*
X9007391Y-12027950D02*
X9035962Y-12027950D01*
X9035962Y-12027950D02*
X9055010Y-12037474D01*
X9055010Y-12037474D02*
X9064534Y-12056522D01*
X9064534Y-12056522D02*
X9064534Y-12161284D01*
X9064534Y-12056522D02*
X9074058Y-12037474D01*
X9074058Y-12037474D02*
X9093105Y-12027950D01*
X9093105Y-12027950D02*
X9121677Y-12027950D01*
X9121677Y-12027950D02*
X9140724Y-12037474D01*
X9140724Y-12037474D02*
X9150248Y-12056522D01*
X9150248Y-12056522D02*
X9150248Y-12161284D01*
X9540724Y-11951760D02*
X9369296Y-12208903D01*
X9797867Y-11961284D02*
X9816915Y-11961284D01*
X9816915Y-11961284D02*
X9835962Y-11970808D01*
X9835962Y-11970808D02*
X9845486Y-11980331D01*
X9845486Y-11980331D02*
X9855010Y-11999379D01*
X9855010Y-11999379D02*
X9864534Y-12037474D01*
X9864534Y-12037474D02*
X9864534Y-12085093D01*
X9864534Y-12085093D02*
X9855010Y-12123188D01*
X9855010Y-12123188D02*
X9845486Y-12142236D01*
X9845486Y-12142236D02*
X9835962Y-12151760D01*
X9835962Y-12151760D02*
X9816915Y-12161284D01*
X9816915Y-12161284D02*
X9797867Y-12161284D01*
X9797867Y-12161284D02*
X9778820Y-12151760D01*
X9778820Y-12151760D02*
X9769296Y-12142236D01*
X9769296Y-12142236D02*
X9759772Y-12123188D01*
X9759772Y-12123188D02*
X9750248Y-12085093D01*
X9750248Y-12085093D02*
X9750248Y-12037474D01*
X9750248Y-12037474D02*
X9759772Y-11999379D01*
X9759772Y-11999379D02*
X9769296Y-11980331D01*
X9769296Y-11980331D02*
X9778820Y-11970808D01*
X9778820Y-11970808D02*
X9797867Y-11961284D01*
X9950248Y-12142236D02*
X9959772Y-12151760D01*
X9959772Y-12151760D02*
X9950248Y-12161284D01*
X9950248Y-12161284D02*
X9940724Y-12151760D01*
X9940724Y-12151760D02*
X9950248Y-12142236D01*
X9950248Y-12142236D02*
X9950248Y-12161284D01*
X10150248Y-12161284D02*
X10035962Y-12161284D01*
X10093105Y-12161284D02*
X10093105Y-11961284D01*
X10093105Y-11961284D02*
X10074058Y-11989855D01*
X10074058Y-11989855D02*
X10055010Y-12008903D01*
X10055010Y-12008903D02*
X10035962Y-12018427D01*
X10226439Y-11980331D02*
X10235962Y-11970808D01*
X10235962Y-11970808D02*
X10255010Y-11961284D01*
X10255010Y-11961284D02*
X10302629Y-11961284D01*
X10302629Y-11961284D02*
X10321677Y-11970808D01*
X10321677Y-11970808D02*
X10331201Y-11980331D01*
X10331201Y-11980331D02*
X10340724Y-11999379D01*
X10340724Y-11999379D02*
X10340724Y-12018427D01*
X10340724Y-12018427D02*
X10331201Y-12046998D01*
X10331201Y-12046998D02*
X10216915Y-12161284D01*
X10216915Y-12161284D02*
X10340724Y-12161284D01*
X10512153Y-11961284D02*
X10474058Y-11961284D01*
X10474058Y-11961284D02*
X10455010Y-11970808D01*
X10455010Y-11970808D02*
X10445486Y-11980331D01*
X10445486Y-11980331D02*
X10426439Y-12008903D01*
X10426439Y-12008903D02*
X10416915Y-12046998D01*
X10416915Y-12046998D02*
X10416915Y-12123188D01*
X10416915Y-12123188D02*
X10426439Y-12142236D01*
X10426439Y-12142236D02*
X10435962Y-12151760D01*
X10435962Y-12151760D02*
X10455010Y-12161284D01*
X10455010Y-12161284D02*
X10493105Y-12161284D01*
X10493105Y-12161284D02*
X10512153Y-12151760D01*
X10512153Y-12151760D02*
X10521677Y-12142236D01*
X10521677Y-12142236D02*
X10531201Y-12123188D01*
X10531201Y-12123188D02*
X10531201Y-12075569D01*
X10531201Y-12075569D02*
X10521677Y-12056522D01*
X10521677Y-12056522D02*
X10512153Y-12046998D01*
X10512153Y-12046998D02*
X10493105Y-12037474D01*
X10493105Y-12037474D02*
X10455010Y-12037474D01*
X10455010Y-12037474D02*
X10435962Y-12046998D01*
X10435962Y-12046998D02*
X10426439Y-12056522D01*
X10426439Y-12056522D02*
X10416915Y-12075569D01*
X10655010Y-11961284D02*
X10674058Y-11961284D01*
X10674058Y-11961284D02*
X10693105Y-11970808D01*
X10693105Y-11970808D02*
X10702629Y-11980331D01*
X10702629Y-11980331D02*
X10712153Y-11999379D01*
X10712153Y-11999379D02*
X10721677Y-12037474D01*
X10721677Y-12037474D02*
X10721677Y-12085093D01*
X10721677Y-12085093D02*
X10712153Y-12123188D01*
X10712153Y-12123188D02*
X10702629Y-12142236D01*
X10702629Y-12142236D02*
X10693105Y-12151760D01*
X10693105Y-12151760D02*
X10674058Y-12161284D01*
X10674058Y-12161284D02*
X10655010Y-12161284D01*
X10655010Y-12161284D02*
X10635962Y-12151760D01*
X10635962Y-12151760D02*
X10626439Y-12142236D01*
X10626439Y-12142236D02*
X10616915Y-12123188D01*
X10616915Y-12123188D02*
X10607391Y-12085093D01*
X10607391Y-12085093D02*
X10607391Y-12037474D01*
X10607391Y-12037474D02*
X10616915Y-11999379D01*
X10616915Y-11999379D02*
X10626439Y-11980331D01*
X10626439Y-11980331D02*
X10635962Y-11970808D01*
X10635962Y-11970808D02*
X10655010Y-11961284D01*
X10797867Y-11961284D02*
X10797867Y-11999379D01*
X10874058Y-11961284D02*
X10874058Y-11999379D01*
X11169296Y-12237474D02*
X11159772Y-12227950D01*
X11159772Y-12227950D02*
X11140724Y-12199379D01*
X11140724Y-12199379D02*
X11131201Y-12180331D01*
X11131201Y-12180331D02*
X11121677Y-12151760D01*
X11121677Y-12151760D02*
X11112153Y-12104141D01*
X11112153Y-12104141D02*
X11112153Y-12066046D01*
X11112153Y-12066046D02*
X11121677Y-12018427D01*
X11121677Y-12018427D02*
X11131201Y-11989855D01*
X11131201Y-11989855D02*
X11140724Y-11970808D01*
X11140724Y-11970808D02*
X11159772Y-11942236D01*
X11159772Y-11942236D02*
X11169296Y-11932712D01*
X11235962Y-11980331D02*
X11245486Y-11970808D01*
X11245486Y-11970808D02*
X11264534Y-11961284D01*
X11264534Y-11961284D02*
X11312153Y-11961284D01*
X11312153Y-11961284D02*
X11331201Y-11970808D01*
X11331201Y-11970808D02*
X11340724Y-11980331D01*
X11340724Y-11980331D02*
X11350248Y-11999379D01*
X11350248Y-11999379D02*
X11350248Y-12018427D01*
X11350248Y-12018427D02*
X11340724Y-12046998D01*
X11340724Y-12046998D02*
X11226439Y-12161284D01*
X11226439Y-12161284D02*
X11350248Y-12161284D01*
X11588343Y-12161284D02*
X11588343Y-11961284D01*
X11674058Y-12161284D02*
X11674058Y-12056522D01*
X11674058Y-12056522D02*
X11664534Y-12037474D01*
X11664534Y-12037474D02*
X11645486Y-12027950D01*
X11645486Y-12027950D02*
X11616915Y-12027950D01*
X11616915Y-12027950D02*
X11597867Y-12037474D01*
X11597867Y-12037474D02*
X11588343Y-12046998D01*
X11797867Y-12161284D02*
X11778820Y-12151760D01*
X11778820Y-12151760D02*
X11769296Y-12142236D01*
X11769296Y-12142236D02*
X11759772Y-12123188D01*
X11759772Y-12123188D02*
X11759772Y-12066046D01*
X11759772Y-12066046D02*
X11769296Y-12046998D01*
X11769296Y-12046998D02*
X11778820Y-12037474D01*
X11778820Y-12037474D02*
X11797867Y-12027950D01*
X11797867Y-12027950D02*
X11826439Y-12027950D01*
X11826439Y-12027950D02*
X11845486Y-12037474D01*
X11845486Y-12037474D02*
X11855010Y-12046998D01*
X11855010Y-12046998D02*
X11864534Y-12066046D01*
X11864534Y-12066046D02*
X11864534Y-12123188D01*
X11864534Y-12123188D02*
X11855010Y-12142236D01*
X11855010Y-12142236D02*
X11845486Y-12151760D01*
X11845486Y-12151760D02*
X11826439Y-12161284D01*
X11826439Y-12161284D02*
X11797867Y-12161284D01*
X11978820Y-12161284D02*
X11959772Y-12151760D01*
X11959772Y-12151760D02*
X11950248Y-12132712D01*
X11950248Y-12132712D02*
X11950248Y-11961284D01*
X12131201Y-12151760D02*
X12112153Y-12161284D01*
X12112153Y-12161284D02*
X12074058Y-12161284D01*
X12074058Y-12161284D02*
X12055010Y-12151760D01*
X12055010Y-12151760D02*
X12045486Y-12132712D01*
X12045486Y-12132712D02*
X12045486Y-12056522D01*
X12045486Y-12056522D02*
X12055010Y-12037474D01*
X12055010Y-12037474D02*
X12074058Y-12027950D01*
X12074058Y-12027950D02*
X12112153Y-12027950D01*
X12112153Y-12027950D02*
X12131201Y-12037474D01*
X12131201Y-12037474D02*
X12140724Y-12056522D01*
X12140724Y-12056522D02*
X12140724Y-12075569D01*
X12140724Y-12075569D02*
X12045486Y-12094617D01*
X12216915Y-12151760D02*
X12235963Y-12161284D01*
X12235963Y-12161284D02*
X12274058Y-12161284D01*
X12274058Y-12161284D02*
X12293105Y-12151760D01*
X12293105Y-12151760D02*
X12302629Y-12132712D01*
X12302629Y-12132712D02*
X12302629Y-12123188D01*
X12302629Y-12123188D02*
X12293105Y-12104141D01*
X12293105Y-12104141D02*
X12274058Y-12094617D01*
X12274058Y-12094617D02*
X12245486Y-12094617D01*
X12245486Y-12094617D02*
X12226439Y-12085093D01*
X12226439Y-12085093D02*
X12216915Y-12066046D01*
X12216915Y-12066046D02*
X12216915Y-12056522D01*
X12216915Y-12056522D02*
X12226439Y-12037474D01*
X12226439Y-12037474D02*
X12245486Y-12027950D01*
X12245486Y-12027950D02*
X12274058Y-12027950D01*
X12274058Y-12027950D02*
X12293105Y-12037474D01*
X12369296Y-12237474D02*
X12378820Y-12227950D01*
X12378820Y-12227950D02*
X12397867Y-12199379D01*
X12397867Y-12199379D02*
X12407391Y-12180331D01*
X12407391Y-12180331D02*
X12416915Y-12151760D01*
X12416915Y-12151760D02*
X12426439Y-12104141D01*
X12426439Y-12104141D02*
X12426439Y-12066046D01*
X12426439Y-12066046D02*
X12416915Y-12018427D01*
X12416915Y-12018427D02*
X12407391Y-11989855D01*
X12407391Y-11989855D02*
X12397867Y-11970808D01*
X12397867Y-11970808D02*
X12378820Y-11942236D01*
X12378820Y-11942236D02*
X12369296Y-11932712D01*
X12731201Y-12237474D02*
X12721677Y-12227950D01*
X12721677Y-12227950D02*
X12702629Y-12199379D01*
X12702629Y-12199379D02*
X12693105Y-12180331D01*
X12693105Y-12180331D02*
X12683582Y-12151760D01*
X12683582Y-12151760D02*
X12674058Y-12104141D01*
X12674058Y-12104141D02*
X12674058Y-12066046D01*
X12674058Y-12066046D02*
X12683582Y-12018427D01*
X12683582Y-12018427D02*
X12693105Y-11989855D01*
X12693105Y-11989855D02*
X12702629Y-11970808D01*
X12702629Y-11970808D02*
X12721677Y-11942236D01*
X12721677Y-11942236D02*
X12731201Y-11932712D01*
X12807391Y-12027950D02*
X12807391Y-12161284D01*
X12807391Y-12046998D02*
X12816915Y-12037474D01*
X12816915Y-12037474D02*
X12835963Y-12027950D01*
X12835963Y-12027950D02*
X12864534Y-12027950D01*
X12864534Y-12027950D02*
X12883582Y-12037474D01*
X12883582Y-12037474D02*
X12893105Y-12056522D01*
X12893105Y-12056522D02*
X12893105Y-12161284D01*
X13016915Y-12161284D02*
X12997867Y-12151760D01*
X12997867Y-12151760D02*
X12988344Y-12142236D01*
X12988344Y-12142236D02*
X12978820Y-12123188D01*
X12978820Y-12123188D02*
X12978820Y-12066046D01*
X12978820Y-12066046D02*
X12988344Y-12046998D01*
X12988344Y-12046998D02*
X12997867Y-12037474D01*
X12997867Y-12037474D02*
X13016915Y-12027950D01*
X13016915Y-12027950D02*
X13045486Y-12027950D01*
X13045486Y-12027950D02*
X13064534Y-12037474D01*
X13064534Y-12037474D02*
X13074058Y-12046998D01*
X13074058Y-12046998D02*
X13083582Y-12066046D01*
X13083582Y-12066046D02*
X13083582Y-12123188D01*
X13083582Y-12123188D02*
X13074058Y-12142236D01*
X13074058Y-12142236D02*
X13064534Y-12151760D01*
X13064534Y-12151760D02*
X13045486Y-12161284D01*
X13045486Y-12161284D02*
X13016915Y-12161284D01*
X13140725Y-12027950D02*
X13216915Y-12027950D01*
X13169296Y-11961284D02*
X13169296Y-12132712D01*
X13169296Y-12132712D02*
X13178820Y-12151760D01*
X13178820Y-12151760D02*
X13197867Y-12161284D01*
X13197867Y-12161284D02*
X13216915Y-12161284D01*
X13435963Y-12027950D02*
X13435963Y-12227950D01*
X13435963Y-12037474D02*
X13455010Y-12027950D01*
X13455010Y-12027950D02*
X13493106Y-12027950D01*
X13493106Y-12027950D02*
X13512153Y-12037474D01*
X13512153Y-12037474D02*
X13521677Y-12046998D01*
X13521677Y-12046998D02*
X13531201Y-12066046D01*
X13531201Y-12066046D02*
X13531201Y-12123188D01*
X13531201Y-12123188D02*
X13521677Y-12142236D01*
X13521677Y-12142236D02*
X13512153Y-12151760D01*
X13512153Y-12151760D02*
X13493106Y-12161284D01*
X13493106Y-12161284D02*
X13455010Y-12161284D01*
X13455010Y-12161284D02*
X13435963Y-12151760D01*
X13645486Y-12161284D02*
X13626439Y-12151760D01*
X13626439Y-12151760D02*
X13616915Y-12132712D01*
X13616915Y-12132712D02*
X13616915Y-11961284D01*
X13807391Y-12161284D02*
X13807391Y-12056522D01*
X13807391Y-12056522D02*
X13797867Y-12037474D01*
X13797867Y-12037474D02*
X13778820Y-12027950D01*
X13778820Y-12027950D02*
X13740725Y-12027950D01*
X13740725Y-12027950D02*
X13721677Y-12037474D01*
X13807391Y-12151760D02*
X13788344Y-12161284D01*
X13788344Y-12161284D02*
X13740725Y-12161284D01*
X13740725Y-12161284D02*
X13721677Y-12151760D01*
X13721677Y-12151760D02*
X13712153Y-12132712D01*
X13712153Y-12132712D02*
X13712153Y-12113665D01*
X13712153Y-12113665D02*
X13721677Y-12094617D01*
X13721677Y-12094617D02*
X13740725Y-12085093D01*
X13740725Y-12085093D02*
X13788344Y-12085093D01*
X13788344Y-12085093D02*
X13807391Y-12075569D01*
X13874058Y-12027950D02*
X13950248Y-12027950D01*
X13902629Y-11961284D02*
X13902629Y-12132712D01*
X13902629Y-12132712D02*
X13912153Y-12151760D01*
X13912153Y-12151760D02*
X13931201Y-12161284D01*
X13931201Y-12161284D02*
X13950248Y-12161284D01*
X14093106Y-12151760D02*
X14074058Y-12161284D01*
X14074058Y-12161284D02*
X14035963Y-12161284D01*
X14035963Y-12161284D02*
X14016915Y-12151760D01*
X14016915Y-12151760D02*
X14007391Y-12132712D01*
X14007391Y-12132712D02*
X14007391Y-12056522D01*
X14007391Y-12056522D02*
X14016915Y-12037474D01*
X14016915Y-12037474D02*
X14035963Y-12027950D01*
X14035963Y-12027950D02*
X14074058Y-12027950D01*
X14074058Y-12027950D02*
X14093106Y-12037474D01*
X14093106Y-12037474D02*
X14102629Y-12056522D01*
X14102629Y-12056522D02*
X14102629Y-12075569D01*
X14102629Y-12075569D02*
X14007391Y-12094617D01*
X14274058Y-12161284D02*
X14274058Y-11961284D01*
X14274058Y-12151760D02*
X14255010Y-12161284D01*
X14255010Y-12161284D02*
X14216915Y-12161284D01*
X14216915Y-12161284D02*
X14197867Y-12151760D01*
X14197867Y-12151760D02*
X14188344Y-12142236D01*
X14188344Y-12142236D02*
X14178820Y-12123188D01*
X14178820Y-12123188D02*
X14178820Y-12066046D01*
X14178820Y-12066046D02*
X14188344Y-12046998D01*
X14188344Y-12046998D02*
X14197867Y-12037474D01*
X14197867Y-12037474D02*
X14216915Y-12027950D01*
X14216915Y-12027950D02*
X14255010Y-12027950D01*
X14255010Y-12027950D02*
X14274058Y-12037474D01*
X14350248Y-12237474D02*
X14359772Y-12227950D01*
X14359772Y-12227950D02*
X14378820Y-12199379D01*
X14378820Y-12199379D02*
X14388344Y-12180331D01*
X14388344Y-12180331D02*
X14397867Y-12151760D01*
X14397867Y-12151760D02*
X14407391Y-12104141D01*
X14407391Y-12104141D02*
X14407391Y-12066046D01*
X14407391Y-12066046D02*
X14397867Y-12018427D01*
X14397867Y-12018427D02*
X14388344Y-11989855D01*
X14388344Y-11989855D02*
X14378820Y-11970808D01*
X14378820Y-11970808D02*
X14359772Y-11942236D01*
X14359772Y-11942236D02*
X14350248Y-11932712D01*
M02*
