G04 #@! TF.GenerationSoftware,KiCad,Pcbnew,7.0.2-0*
G04 #@! TF.CreationDate,2023-07-23T18:41:44+09:00*
G04 #@! TF.ProjectId,boost_board2,626f6f73-745f-4626-9f61-7264322e6b69,rev?*
G04 #@! TF.SameCoordinates,Original*
G04 #@! TF.FileFunction,Copper,L1,Top*
G04 #@! TF.FilePolarity,Positive*
%FSLAX46Y46*%
G04 Gerber Fmt 4.6, Leading zero omitted, Abs format (unit mm)*
G04 Created by KiCad (PCBNEW 7.0.2-0) date 2023-07-23 18:41:44*
%MOMM*%
%LPD*%
G01*
G04 APERTURE LIST*
G04 #@! TA.AperFunction,ComponentPad*
%ADD10R,1.700000X1.700000*%
G04 #@! TD*
G04 #@! TA.AperFunction,ComponentPad*
%ADD11O,1.700000X1.700000*%
G04 #@! TD*
G04 #@! TA.AperFunction,ComponentPad*
%ADD12C,1.524000*%
G04 #@! TD*
G04 #@! TA.AperFunction,Conductor*
%ADD13C,1.000000*%
G04 #@! TD*
G04 APERTURE END LIST*
D10*
X166000000Y-75460000D03*
D11*
X166000000Y-78000000D03*
D12*
X158890000Y-62964000D03*
X141110000Y-62964000D03*
X158890000Y-103604000D03*
X141110000Y-103604000D03*
D10*
X134000000Y-75460000D03*
D11*
X134000000Y-78000000D03*
D13*
X164000000Y-73000000D02*
X164000000Y-75000000D01*
X158890000Y-62964000D02*
X157927000Y-63927000D01*
X157000000Y-64000000D02*
X156000000Y-64000000D01*
X156854000Y-65000000D02*
X156854000Y-67836000D01*
X162845000Y-74155000D02*
X164000000Y-73000000D01*
X163000000Y-75460000D02*
X162460000Y-75460000D01*
X164000000Y-75000000D02*
X163845000Y-75155000D01*
X156000000Y-65000000D02*
X156000000Y-63000000D01*
X157926000Y-62000000D02*
X157000000Y-62000000D01*
X161845000Y-73155000D02*
X160845000Y-72155000D01*
X156000000Y-62000000D02*
X155000000Y-63000000D01*
X156000000Y-69000000D02*
X156000000Y-68000000D01*
X156000000Y-68000000D02*
X156000000Y-65000000D01*
X163845000Y-75155000D02*
X162845000Y-74155000D01*
X166000000Y-73000000D02*
X166000000Y-74000000D01*
X156854000Y-67836000D02*
X156690000Y-68000000D01*
X162845000Y-74155000D02*
X161845000Y-73155000D01*
X166000000Y-75460000D02*
X165000000Y-75460000D01*
X162500000Y-72500000D02*
X163000000Y-73000000D01*
X157427000Y-64427000D02*
X156854000Y-65000000D01*
X156000000Y-68000000D02*
X156000000Y-68460000D01*
X157927000Y-63927000D02*
X157427000Y-64427000D01*
X165000000Y-73000000D02*
X166000000Y-73000000D01*
X156690000Y-68000000D02*
X156000000Y-68000000D01*
X161000000Y-72000000D02*
X165000000Y-72000000D01*
X161845000Y-73155000D02*
X162500000Y-72500000D01*
X157927000Y-63927000D02*
X157036000Y-63036000D01*
X165000000Y-75460000D02*
X164150000Y-75460000D01*
X163000000Y-73000000D02*
X165000000Y-73000000D01*
X164150000Y-75460000D02*
X163845000Y-75155000D01*
X163000000Y-72000000D02*
X165000000Y-72000000D01*
X155000000Y-68000000D02*
X156000000Y-69000000D01*
X156000000Y-63000000D02*
X157000000Y-62000000D01*
X164000000Y-73000000D02*
X165000000Y-73000000D01*
X155000000Y-63000000D02*
X155000000Y-68000000D01*
X157427000Y-64427000D02*
X157000000Y-64000000D01*
X166000000Y-74000000D02*
X165000000Y-73000000D01*
X157036000Y-62964000D02*
X158890000Y-62964000D01*
X165000000Y-73000000D02*
X165000000Y-75460000D01*
X158890000Y-62964000D02*
X157926000Y-62000000D01*
X166000000Y-75460000D02*
X163000000Y-75460000D01*
X160845000Y-72155000D02*
X156690000Y-68000000D01*
X157000000Y-62000000D02*
X156000000Y-62000000D01*
X162460000Y-75460000D02*
X156000000Y-69000000D01*
X162500000Y-72500000D02*
X163000000Y-72000000D01*
X160845000Y-72155000D02*
X161000000Y-72000000D01*
X165000000Y-72000000D02*
X166000000Y-73000000D01*
X156000000Y-68460000D02*
X163000000Y-75460000D01*
X156000000Y-64000000D02*
X157036000Y-62964000D01*
X166000000Y-74000000D02*
X166000000Y-75460000D01*
X157036000Y-63036000D02*
X157036000Y-62964000D01*
X156000000Y-65000000D02*
X156000000Y-64000000D01*
X156854000Y-65000000D02*
X156000000Y-65000000D01*
X162000000Y-77160000D02*
X162840000Y-78000000D01*
X143000000Y-62964000D02*
X142000000Y-62964000D01*
X162840000Y-78000000D02*
X166000000Y-78000000D01*
X142000000Y-62964000D02*
X142000000Y-64000000D01*
X166000000Y-78000000D02*
X165000000Y-79000000D01*
X143000000Y-64000000D02*
X157000000Y-78000000D01*
X143964000Y-63964000D02*
X158000000Y-78000000D01*
X156000000Y-79000000D02*
X155000000Y-78000000D01*
X141110000Y-62964000D02*
X141110000Y-64110000D01*
X158160000Y-77160000D02*
X162000000Y-77160000D01*
X141110000Y-62964000D02*
X142074000Y-62000000D01*
X142000000Y-62964000D02*
X141110000Y-62964000D01*
X156000000Y-78000000D02*
X157000000Y-78000000D01*
X143000000Y-62000000D02*
X143964000Y-62964000D01*
X158000000Y-78000000D02*
X159000000Y-78000000D01*
X143000000Y-62964000D02*
X143000000Y-64000000D01*
X158000000Y-77000000D02*
X143964000Y-62964000D01*
X166000000Y-78000000D02*
X159000000Y-78000000D01*
X158000000Y-77000000D02*
X158160000Y-77160000D01*
X143964000Y-62964000D02*
X143964000Y-63964000D01*
X159000000Y-78000000D02*
X158000000Y-77000000D01*
X142000000Y-64000000D02*
X156000000Y-78000000D01*
X143964000Y-62964000D02*
X143000000Y-62964000D01*
X142074000Y-62000000D02*
X143000000Y-62000000D01*
X141110000Y-64110000D02*
X155000000Y-78000000D01*
X157000000Y-78000000D02*
X158000000Y-78000000D01*
X155000000Y-78000000D02*
X156000000Y-78000000D01*
X165000000Y-79000000D02*
X156000000Y-79000000D01*
X158270000Y-101000000D02*
X158890000Y-101000000D01*
X138000000Y-73000000D02*
X139000000Y-74000000D01*
X137000000Y-75460000D02*
X158540000Y-97000000D01*
X138270000Y-81000000D02*
X138270000Y-79730000D01*
X140460000Y-75460000D02*
X158890000Y-93890000D01*
X138270000Y-84270000D02*
X138270000Y-83000000D01*
X138000000Y-75460000D02*
X138350000Y-75460000D01*
X134000000Y-75000000D02*
X134000000Y-74000000D01*
X139000000Y-75000000D02*
X134000000Y-75000000D01*
X136000000Y-75460000D02*
X158890000Y-98350000D01*
X136000000Y-75460000D02*
X137000000Y-75460000D01*
X134000000Y-75460000D02*
X138270000Y-79730000D01*
X134000000Y-74000000D02*
X135000000Y-73000000D01*
X138270000Y-83000000D02*
X158270000Y-103000000D01*
X158890000Y-97000000D02*
X158890000Y-99000000D01*
X157604000Y-103604000D02*
X138270000Y-84270000D01*
X138270000Y-79730000D02*
X158890000Y-100350000D01*
X158270000Y-103000000D02*
X158890000Y-103000000D01*
X158890000Y-103604000D02*
X157604000Y-103604000D01*
X134000000Y-75460000D02*
X135000000Y-75460000D01*
X135000000Y-75460000D02*
X136000000Y-75460000D01*
X158890000Y-98350000D02*
X158890000Y-99000000D01*
X138000000Y-75460000D02*
X139350000Y-75460000D01*
X158890000Y-96000000D02*
X158890000Y-97000000D01*
X158890000Y-93890000D02*
X158890000Y-95000000D01*
X158890000Y-95000000D02*
X158890000Y-96000000D01*
X139500000Y-74500000D02*
X139000000Y-75000000D01*
X138270000Y-82000000D02*
X138270000Y-81000000D01*
X138270000Y-81000000D02*
X158270000Y-101000000D01*
X135000000Y-75460000D02*
X158890000Y-99350000D01*
X158890000Y-101000000D02*
X158890000Y-102000000D01*
X158890000Y-103000000D02*
X158890000Y-103604000D01*
X158890000Y-100350000D02*
X158890000Y-101000000D01*
X158540000Y-97000000D02*
X158890000Y-97000000D01*
X134000000Y-75460000D02*
X140460000Y-75460000D01*
X158890000Y-99000000D02*
X158890000Y-103604000D01*
X134000000Y-75460000D02*
X138540000Y-75460000D01*
X158890000Y-102000000D02*
X158890000Y-103000000D01*
X137000000Y-75460000D02*
X138000000Y-75460000D01*
X138350000Y-75460000D02*
X158890000Y-96000000D01*
X138270000Y-82000000D02*
X158270000Y-102000000D01*
X158270000Y-102000000D02*
X158890000Y-102000000D01*
X135000000Y-73000000D02*
X138000000Y-73000000D01*
X139350000Y-75460000D02*
X158890000Y-95000000D01*
X134000000Y-75460000D02*
X134000000Y-75000000D01*
X138540000Y-75460000D02*
X139500000Y-74500000D01*
X134000000Y-74000000D02*
X139000000Y-74000000D01*
X139500000Y-74500000D02*
X140460000Y-75460000D01*
X139000000Y-74000000D02*
X139500000Y-74500000D01*
X158890000Y-99350000D02*
X158890000Y-101000000D01*
X138270000Y-83000000D02*
X138270000Y-82000000D01*
X134110000Y-91000000D02*
X141110000Y-98000000D01*
X134000000Y-95000000D02*
X134000000Y-96494000D01*
X141110000Y-102000000D02*
X140357000Y-101247000D01*
X141110000Y-102000000D02*
X140000000Y-102000000D01*
X134000000Y-96494000D02*
X134753000Y-97247000D01*
X134110000Y-95000000D02*
X135055000Y-95945000D01*
X134110000Y-88000000D02*
X141110000Y-95000000D01*
X134000000Y-89000000D02*
X134000000Y-90000000D01*
X139753000Y-100643000D02*
X139753000Y-102247000D01*
X140357000Y-101247000D02*
X138753000Y-101247000D01*
X136055000Y-97945000D02*
X135753000Y-98247000D01*
X134000000Y-88000000D02*
X134110000Y-88000000D01*
X134000000Y-87000000D02*
X134000000Y-88000000D01*
X134000000Y-79000000D02*
X134000000Y-86000000D01*
X133753000Y-96247000D02*
X133753000Y-79753000D01*
X134110000Y-92000000D02*
X141110000Y-99000000D01*
X137357000Y-98247000D02*
X135753000Y-98247000D01*
X134000000Y-86000000D02*
X135000000Y-87000000D01*
X139753000Y-102247000D02*
X141110000Y-103604000D01*
X141110000Y-100000000D02*
X141110000Y-101000000D01*
X134000000Y-90000000D02*
X134110000Y-90000000D01*
X141110000Y-93110000D02*
X141110000Y-94000000D01*
X136055000Y-96945000D02*
X135055000Y-96945000D01*
X134000000Y-90000000D02*
X134000000Y-91000000D01*
X133000000Y-79000000D02*
X132500000Y-79500000D01*
X136055000Y-96945000D02*
X137555000Y-98445000D01*
X135753000Y-98247000D02*
X136753000Y-99247000D01*
X134000000Y-91000000D02*
X134000000Y-92000000D01*
X136753000Y-99247000D02*
X137753000Y-100247000D01*
X132753000Y-95247000D02*
X132753000Y-79753000D01*
X136055000Y-96945000D02*
X136055000Y-97945000D01*
X132753000Y-95247000D02*
X133753000Y-96247000D01*
X134000000Y-92000000D02*
X134110000Y-92000000D01*
X138357000Y-100247000D02*
X137055000Y-98945000D01*
X134000000Y-88000000D02*
X134000000Y-89000000D01*
X135055000Y-95945000D02*
X135055000Y-96945000D01*
X141110000Y-98000000D02*
X141110000Y-99000000D01*
X135000000Y-86000000D02*
X134000000Y-85000000D01*
X134000000Y-78000000D02*
X134000000Y-79000000D01*
X134000000Y-93000000D02*
X134110000Y-93000000D01*
X134000000Y-89000000D02*
X134110000Y-89000000D01*
X134000000Y-86000000D02*
X134000000Y-87000000D01*
X134753000Y-97247000D02*
X135753000Y-98247000D01*
X139055000Y-98945000D02*
X141110000Y-101000000D01*
X135055000Y-95945000D02*
X134549000Y-95945000D01*
X134000000Y-91000000D02*
X134110000Y-91000000D01*
X141110000Y-102000000D02*
X141110000Y-103604000D01*
X134110000Y-93000000D02*
X141110000Y-100000000D01*
X135055000Y-96945000D02*
X134753000Y-97247000D01*
X141110000Y-101000000D02*
X141110000Y-102000000D01*
X139357000Y-100247000D02*
X138357000Y-100247000D01*
X132000000Y-80000000D02*
X132000000Y-94494000D01*
X140000000Y-102000000D02*
X139753000Y-102247000D01*
X132753000Y-79753000D02*
X132500000Y-79500000D01*
X132500000Y-79500000D02*
X132000000Y-80000000D01*
X134549000Y-95945000D02*
X134000000Y-96494000D01*
X136055000Y-96945000D02*
X139753000Y-100643000D01*
X134000000Y-94000000D02*
X134000000Y-95000000D01*
X134000000Y-78000000D02*
X133000000Y-79000000D01*
X137055000Y-98945000D02*
X136753000Y-99247000D01*
X134110000Y-89000000D02*
X141110000Y-96000000D01*
X139055000Y-98945000D02*
X137055000Y-98945000D01*
X141110000Y-96000000D02*
X141110000Y-97000000D01*
X137753000Y-100247000D02*
X138753000Y-101247000D01*
X134110000Y-94000000D02*
X139055000Y-98945000D01*
X141110000Y-97000000D02*
X141110000Y-98000000D01*
X141110000Y-94000000D02*
X141110000Y-95000000D01*
X141110000Y-95000000D02*
X141110000Y-96000000D01*
X134000000Y-87000000D02*
X134110000Y-87000000D01*
X134000000Y-95000000D02*
X134110000Y-95000000D01*
X135000000Y-87000000D02*
X135000000Y-86000000D01*
X133000000Y-95000000D02*
X132753000Y-95247000D01*
X134000000Y-93000000D02*
X134000000Y-94000000D01*
X135000000Y-79000000D02*
X134000000Y-78000000D01*
X141110000Y-99000000D02*
X141110000Y-100000000D01*
X139753000Y-100643000D02*
X139357000Y-100247000D01*
X134000000Y-94000000D02*
X134110000Y-94000000D01*
X135000000Y-87000000D02*
X141110000Y-93110000D01*
X132000000Y-94494000D02*
X132753000Y-95247000D01*
X135000000Y-86000000D02*
X135000000Y-79000000D01*
X134110000Y-87000000D02*
X141110000Y-94000000D01*
X139357000Y-100247000D02*
X137753000Y-100247000D01*
X138753000Y-101247000D02*
X139753000Y-102247000D01*
X137555000Y-98445000D02*
X141110000Y-102000000D01*
X135055000Y-95945000D02*
X136055000Y-96945000D01*
X133753000Y-79753000D02*
X133000000Y-79000000D01*
X134000000Y-85000000D02*
X134000000Y-79000000D01*
X133753000Y-96247000D02*
X134000000Y-96494000D01*
X134000000Y-92000000D02*
X134000000Y-93000000D01*
X133000000Y-79000000D02*
X133000000Y-95000000D01*
X134110000Y-90000000D02*
X141110000Y-97000000D01*
X137555000Y-98445000D02*
X137357000Y-98247000D01*
M02*
