G04 #@! TF.GenerationSoftware,KiCad,Pcbnew,7.0.2-0*
G04 #@! TF.CreationDate,2023-07-23T18:41:44+09:00*
G04 #@! TF.ProjectId,boost_board2,626f6f73-745f-4626-9f61-7264322e6b69,rev?*
G04 #@! TF.SameCoordinates,Original*
G04 #@! TF.FileFunction,Profile,NP*
%FSLAX46Y46*%
G04 Gerber Fmt 4.6, Leading zero omitted, Abs format (unit mm)*
G04 Created by KiCad (PCBNEW 7.0.2-0) date 2023-07-23 18:41:44*
%MOMM*%
%LPD*%
G01*
G04 APERTURE LIST*
G04 #@! TA.AperFunction,Profile*
%ADD10C,0.200000*%
G04 #@! TD*
G04 APERTURE END LIST*
D10*
X181121321Y-89121321D02*
X177878680Y-85878680D01*
X177953364Y-97488947D02*
G75*
G03*
X177891331Y-97214498I-232664J91647D01*
G01*
X182000000Y-97901443D02*
X182000000Y-91242642D01*
X141117718Y-60900673D02*
X123856912Y-78521280D01*
X177953356Y-97488944D02*
G75*
G03*
X180046646Y-97488943I1046645J-412500D01*
G01*
X118878671Y-89121313D02*
G75*
G03*
X118000000Y-91242642I2121029J-2121187D01*
G01*
X180108636Y-97214462D02*
G75*
G03*
X180046647Y-97488943I170464J-182738D01*
G01*
X180108670Y-97214498D02*
G75*
G03*
X177891331Y-97214498I-1108669J1188055D01*
G01*
X143260806Y-59999963D02*
G75*
G03*
X141117718Y-60900673I94J-3000137D01*
G01*
X123856918Y-78521286D02*
G75*
G03*
X123000000Y-80620607I2143282J-2099414D01*
G01*
X117999961Y-97901443D02*
G75*
G03*
X119791666Y-100647336I3000039J43D01*
G01*
X122108669Y-97214498D02*
G75*
G03*
X119891330Y-97214498I-1108669J1188055D01*
G01*
X122121299Y-85878659D02*
G75*
G03*
X123000000Y-83757360I-2121099J2121259D01*
G01*
X123000000Y-80620607D02*
X123000000Y-83757360D01*
X119953306Y-97488925D02*
G75*
G03*
X119891329Y-97214499I-232406J91725D01*
G01*
X141108670Y-67313056D02*
G75*
G03*
X138891330Y-67313056I-1108670J1188055D01*
G01*
X141108651Y-67313035D02*
G75*
G03*
X141046647Y-67587501I170549J-182765D01*
G01*
X176143088Y-78521280D02*
X158882282Y-60900673D01*
X180208318Y-100647300D02*
G75*
G03*
X182000000Y-97901443I-1208318J2745900D01*
G01*
X161108634Y-67313018D02*
G75*
G03*
X161046648Y-67587501I170666J-182782D01*
G01*
X181999971Y-91242642D02*
G75*
G03*
X181121321Y-89121321I-2999971J42D01*
G01*
X176999953Y-80620607D02*
G75*
G03*
X176143088Y-78521280I-2999853J107D01*
G01*
X161108670Y-67313056D02*
G75*
G03*
X158891330Y-67313056I-1108670J1188055D01*
G01*
X122121320Y-85878680D02*
X118878679Y-89121321D01*
X177000000Y-83757360D02*
X177000000Y-80620607D01*
X118000000Y-91242642D02*
X118000000Y-97901443D01*
X177000000Y-83757360D02*
G75*
G03*
X177878680Y-85878680I2999900J-40D01*
G01*
X158882264Y-60900691D02*
G75*
G03*
X156739194Y-60000000I-2143064J-2099209D01*
G01*
X122108710Y-97214542D02*
G75*
G03*
X122046647Y-97488943I170390J-182758D01*
G01*
X119791666Y-100647335D02*
G75*
G03*
X180208334Y-100647335I30208334J68647338D01*
G01*
X138953406Y-67587522D02*
G75*
G03*
X138891330Y-67313056I-232706J91622D01*
G01*
X138953355Y-67587502D02*
G75*
G03*
X141046645Y-67587501I1046645J-412500D01*
G01*
X158953326Y-67587490D02*
G75*
G03*
X158891330Y-67313057I-232526J91690D01*
G01*
X119953353Y-97488943D02*
G75*
G03*
X122046645Y-97488943I1046646J-412501D01*
G01*
X156739194Y-60000000D02*
X143260806Y-60000000D01*
X158953356Y-67587502D02*
G75*
G03*
X161046646Y-67587501I1046645J-412500D01*
G01*
M02*
