%TF.GenerationSoftware,KiCad,Pcbnew,7.0.9*%
%TF.CreationDate,2024-01-04T14:48:31+09:00*%
%TF.ProjectId,MainBoard,4d61696e-426f-4617-9264-2e6b69636164,rev?*%
%TF.SameCoordinates,Original*%
%TF.FileFunction,Profile,NP*%
%FSLAX46Y46*%
G04 Gerber Fmt 4.6, Leading zero omitted, Abs format (unit mm)*
G04 Created by KiCad (PCBNEW 7.0.9) date 2024-01-04 14:48:31*
%MOMM*%
%LPD*%
G01*
G04 APERTURE LIST*
%TA.AperFunction,Profile*%
%ADD10C,0.200000*%
%TD*%
G04 APERTURE END LIST*
D10*
X187138617Y-139079107D02*
X184252044Y-139079107D01*
X197491993Y-130507107D02*
G75*
G03*
X199079044Y-132094107I1587007J7D01*
G01*
X116578706Y-74782456D02*
X116723940Y-76795672D01*
X125293470Y-109848933D02*
X126144690Y-111679111D01*
X116834337Y-59991432D02*
X116748750Y-60324599D01*
X144484100Y-138092068D02*
X145901455Y-139529160D01*
X202633889Y-77977877D02*
X202459455Y-77675748D01*
X199079044Y-92724144D02*
G75*
G03*
X197492044Y-94311107I-44J-1586956D01*
G01*
X200288888Y-149324801D02*
X200620556Y-149268453D01*
X140739440Y-42016353D02*
X140403083Y-42010061D01*
X126213341Y-57884357D02*
X125708914Y-57903236D01*
X200666993Y-94311107D02*
G75*
G03*
X199080044Y-92724107I-1586993J7D01*
G01*
X129913541Y-118816943D02*
X130944826Y-120552045D01*
X116410271Y-70749283D02*
X116474136Y-72766720D01*
X202877780Y-147011264D02*
X202934133Y-146679597D01*
X126714947Y-57827835D02*
X126213341Y-57884357D01*
X130300072Y-56101325D02*
X129917461Y-56430586D01*
X200620556Y-149268453D02*
X200943830Y-149175324D01*
X158067190Y-149326605D02*
X158387044Y-149343705D01*
X184252044Y-85104107D02*
X186602044Y-85104107D01*
X138558418Y-42734004D02*
X138316122Y-42967389D01*
X179662830Y-92138321D02*
X181666258Y-90134893D01*
X202493168Y-147939791D02*
X202655902Y-147645348D01*
X184598617Y-128284107D02*
X176632044Y-128284107D01*
X181365425Y-69694089D02*
G75*
G03*
X181365425Y-67494111I2375J1099989D01*
G01*
X188016258Y-125694893D02*
X186012830Y-127698321D01*
X142015266Y-42409805D02*
X141714908Y-42258268D01*
X137847863Y-130494002D02*
X139113215Y-132066584D01*
X200943830Y-149175324D02*
X201254644Y-149046585D01*
X120487044Y-68594107D02*
G75*
G03*
X120487044Y-68594107I-1100000J0D01*
G01*
X129083905Y-56998892D02*
X128637622Y-57234760D01*
X128637622Y-57234760D02*
X128174959Y-57436618D01*
X202872129Y-78632425D02*
X202772070Y-78298213D01*
X138101480Y-43226434D02*
X137917190Y-43507882D01*
X190506991Y-135557771D02*
G75*
G03*
X187142109Y-134095939I-1999991J-29D01*
G01*
X119348999Y-57922997D02*
X119010094Y-57981894D01*
X139113472Y-42355594D02*
X138825320Y-42529214D01*
X139738812Y-42110178D02*
X139419251Y-42215327D01*
X128174959Y-57436618D02*
X127698506Y-57603338D01*
X145901455Y-139529160D02*
X147347527Y-140937352D01*
X139419251Y-42215327D02*
X139113472Y-42355594D01*
X201254644Y-149046585D02*
X201549089Y-148883855D01*
X118079874Y-86909951D02*
G75*
G03*
X120042654Y-88526107I1962826J383851D01*
G01*
X116387138Y-68730969D02*
X116410271Y-70749283D01*
X118680158Y-58079200D02*
X118363531Y-58213636D01*
X134965044Y-104204907D02*
G75*
G03*
X134965044Y-104204907I-1100000J0D01*
G01*
X174631993Y-126284107D02*
G75*
G03*
X176632044Y-128284107I2000007J7D01*
G01*
X124007046Y-90526107D02*
X124007046Y-102035525D01*
X158387044Y-149343705D02*
X199952996Y-149343705D01*
X141714908Y-42258268D02*
X141399503Y-42141241D01*
X157750982Y-149275501D02*
X158067190Y-149326605D01*
X188016277Y-125694912D02*
G75*
G03*
X188602044Y-124280680I-1414277J1414212D01*
G01*
X153407029Y-146269828D02*
X154987622Y-147525159D01*
X201479644Y-87491707D02*
G75*
G03*
X201479644Y-87491707I-1600000J0D01*
G01*
X182251993Y-137079107D02*
G75*
G03*
X184252044Y-139079107I2000007J7D01*
G01*
X158401341Y-145243786D02*
G75*
G03*
X158361747Y-147443414I-25341J-1099714D01*
G01*
X202011718Y-77142154D02*
X201744470Y-76917904D01*
X190507044Y-135557771D02*
X190507044Y-135710680D01*
X188601993Y-87104107D02*
G75*
G03*
X186602044Y-85104107I-1999993J7D01*
G01*
X178492644Y-87491707D02*
G75*
G03*
X178492644Y-87491707I-1600000J0D01*
G01*
X138316122Y-42967389D02*
X138101480Y-43226434D01*
X202772070Y-78298213D02*
X202633889Y-77977877D01*
X181365425Y-67494097D02*
G75*
G03*
X181365425Y-69694103I-2425J-1100003D01*
G01*
X127210927Y-57733988D02*
X126714947Y-57827835D01*
X117533929Y-58819753D02*
X117309613Y-59080536D01*
X138825320Y-42529214D02*
X138558418Y-42734004D01*
X130986272Y-55361787D02*
X130657008Y-55744394D01*
X140403083Y-42010061D02*
X140068137Y-42041468D01*
X116701864Y-60665374D02*
X116562141Y-62678979D01*
X119010094Y-57981894D02*
X118680158Y-58079200D01*
X118363531Y-58213636D02*
X118064376Y-58383434D01*
X134965044Y-87847307D02*
G75*
G03*
X134965044Y-87847307I-1100000J0D01*
G01*
X136614509Y-128896202D02*
X137847863Y-130494002D01*
X202298489Y-148214162D02*
X202493168Y-147939791D01*
X202934133Y-146679597D02*
X202952996Y-146343705D01*
X117402946Y-82811995D02*
X117710076Y-84806939D01*
X156859831Y-148925878D02*
X157143842Y-149073989D01*
X117116625Y-59365284D02*
X116957502Y-59670253D01*
X199878128Y-145246247D02*
G75*
G03*
X200030711Y-147440956I74872J-1097453D01*
G01*
X202952996Y-79324271D02*
X202932712Y-78975993D01*
X176632044Y-92724144D02*
G75*
G03*
X174632044Y-94724107I-44J-1999956D01*
G01*
X197492044Y-130507107D02*
X197492044Y-94311107D01*
X148821727Y-142316070D02*
X150323453Y-143664754D01*
X128917486Y-117061379D02*
X129913541Y-118816943D01*
X123533862Y-103128978D02*
G75*
G03*
X124007046Y-102035525I-1026862J1093478D01*
G01*
X123533836Y-103128950D02*
G75*
G03*
X123164806Y-104771548I1026864J-1093450D01*
G01*
X176632044Y-92724107D02*
X178248617Y-92724107D01*
X141072978Y-42060263D02*
X140739440Y-42016353D01*
X124479362Y-108001948D02*
X125293470Y-109848933D01*
X143096039Y-136626662D02*
X144484100Y-138092068D01*
X156593230Y-148748332D02*
X156859831Y-148925878D01*
X201823463Y-148689180D02*
X202074314Y-148465010D01*
X199079044Y-92724107D02*
X199080044Y-92724107D01*
X116404746Y-66712598D02*
X116387138Y-68730969D01*
X119692419Y-57903236D02*
X119348999Y-57922997D01*
X174632044Y-126284107D02*
X174632044Y-94724107D01*
X116909778Y-78805545D02*
X117136144Y-80811259D01*
X199080044Y-132094144D02*
G75*
G03*
X200667044Y-130507107I-44J1587044D01*
G01*
X187138617Y-139079116D02*
G75*
G03*
X188552829Y-138493320I-17J2000016D01*
G01*
X116723940Y-76795672D02*
X116909778Y-78805545D01*
X135413655Y-127273833D02*
X136614509Y-128896202D01*
X116474136Y-72766720D02*
X116578706Y-74782456D01*
X131286025Y-54955645D02*
X130986272Y-55361787D01*
X202074314Y-148465010D02*
X202298489Y-148214162D01*
X141399503Y-42141241D02*
X141072978Y-42060263D01*
X126144690Y-111679111D02*
X127032677Y-113491736D01*
X117710076Y-84806939D02*
X118057408Y-86795277D01*
X131554585Y-54528236D02*
X131286025Y-54955645D01*
X151852095Y-144982852D02*
X153407029Y-146269828D01*
X199080044Y-132094107D02*
X199079044Y-132094107D01*
X137917190Y-43507882D02*
X131554585Y-54528236D01*
X140014310Y-45987190D02*
G75*
G03*
X140995400Y-44018201I500990J979290D01*
G01*
X181666277Y-90134912D02*
G75*
G03*
X182252044Y-88720680I-1414277J1414212D01*
G01*
X199952996Y-149343705D02*
X200288888Y-149324801D01*
X124006993Y-90526107D02*
G75*
G03*
X122007046Y-88526107I-1999993J7D01*
G01*
X202251125Y-77395912D02*
X202011718Y-77142154D01*
X123164805Y-104771548D02*
X123702698Y-106138906D01*
X116957502Y-59670253D02*
X116834337Y-59991432D01*
X116748750Y-60324599D02*
X116701864Y-60665374D01*
X140410049Y-133613306D02*
X141737838Y-135133539D01*
X129917461Y-56430586D02*
X129511316Y-56730333D01*
X139113215Y-132066584D02*
X140410049Y-133613306D01*
X133111392Y-123958047D02*
X134245791Y-125627558D01*
X117309613Y-59080536D02*
X117116625Y-59365284D01*
X185777174Y-134634087D02*
G75*
G03*
X187142109Y-134095939I26J1999987D01*
G01*
X182252044Y-137079107D02*
X182252044Y-136634107D01*
X116562141Y-62678979D02*
X116463088Y-64694995D01*
X154987622Y-147525159D02*
X156593230Y-148748332D01*
X140068137Y-42041468D02*
X139738812Y-42110178D01*
X123702698Y-106138906D02*
X124479362Y-108001948D01*
X201744470Y-76917904D02*
X201452996Y-76726195D01*
X132010921Y-122265979D02*
X133111392Y-123958047D01*
X117136144Y-80811259D02*
X117402946Y-82811995D01*
X189921258Y-137124893D02*
X188552830Y-138493321D01*
X184252044Y-85104144D02*
G75*
G03*
X182252044Y-87104107I-44J-1999956D01*
G01*
X134245791Y-125627558D02*
X135413655Y-127273833D01*
X127032677Y-113491736D02*
X127957068Y-115286069D01*
X120042654Y-88526107D02*
X122007046Y-88526107D01*
X201530444Y-137097907D02*
G75*
G03*
X201530444Y-137097907I-1600000J0D01*
G01*
X130657008Y-55744394D02*
X130300072Y-56101325D01*
X184598617Y-128284116D02*
G75*
G03*
X186012829Y-127698320I-17J2000016D01*
G01*
X141737838Y-135133539D02*
X143096039Y-136626662D01*
X202459455Y-77675748D02*
X202251125Y-77395912D01*
X117786624Y-58586363D02*
X117533929Y-58819753D01*
X200667044Y-94311107D02*
X200667044Y-130507107D01*
X178248617Y-92724116D02*
G75*
G03*
X179662829Y-92138320I-17J2000016D01*
G01*
X189921277Y-137124912D02*
G75*
G03*
X190507044Y-135710680I-1414277J1414212D01*
G01*
X184252044Y-134634107D02*
X185777174Y-134634107D01*
X157442026Y-149190974D02*
X157750982Y-149275501D01*
X202932712Y-78975993D02*
X202872129Y-78632425D01*
X202655902Y-147645348D02*
X202784646Y-147334537D01*
X140995388Y-44018224D02*
G75*
G03*
X140014310Y-45987188I-500988J-979276D01*
G01*
X130944826Y-120552045D02*
X132010921Y-122265979D01*
X184252044Y-134634144D02*
G75*
G03*
X182252044Y-136634107I-44J-1999956D01*
G01*
X200030710Y-147440935D02*
G75*
G03*
X199878129Y-145246257I-74910J1097435D01*
G01*
X127957068Y-115286069D02*
X128917486Y-117061379D01*
X202784646Y-147334537D02*
X202877780Y-147011264D01*
X158361747Y-147443405D02*
G75*
G03*
X158401341Y-145243798I25253J1099705D01*
G01*
X127698506Y-57603338D02*
X127210927Y-57733988D01*
X147347527Y-140937352D02*
X148821727Y-142316070D01*
X201549089Y-148883855D02*
X201823463Y-148689180D01*
X129511316Y-56730333D02*
X129083905Y-56998892D01*
X125708914Y-57903236D02*
X119692419Y-57903236D01*
X202952996Y-146343705D02*
X202952996Y-79324271D01*
X157143842Y-149073989D02*
X157442026Y-149190974D01*
X201452996Y-76726195D02*
X142015266Y-42409805D01*
X188602044Y-87104107D02*
X188602044Y-124280680D01*
X118057408Y-86795277D02*
X118079835Y-86909959D01*
X150323453Y-143664754D02*
X151852095Y-144982852D01*
X118064376Y-58383434D02*
X117786624Y-58586363D01*
X182252044Y-88720680D02*
X182252044Y-87104107D01*
X116463088Y-64694995D02*
X116404746Y-66712598D01*
X178492644Y-137097907D02*
G75*
G03*
X178492644Y-137097907I-1600000J0D01*
G01*
M02*
