0
SECTION
2
HEADER
9
$INSUNITS
70
4
9
$ACADVER
1
AC1014
9
$HANDSEED
5
FFFF
0
ENDSEC
0
SECTION
2
TABLES
0
TABLE
2
VPORT
5
8
100
AcDbSymbolTable
0
ENDTAB
0
TABLE
2
LTYPE
5
5
100
AcDbSymbolTable
0
LTYPE
5
14
100
AcDbSymbolTableRecord
100
AcDbLinetypeTableRecord
2
BYBLOCK
70
0
0
LTYPE
5
15
100
AcDbSymbolTableRecord
100
AcDbLinetypeTableRecord
2
BYLAYER
70
0
0
ENDTAB
0
TABLE
2
LAYER
5
2
100
AcDbSymbolTable
70
2
0
LAYER
5
50
100
AcDbSymbolTableRecord
100
AcDbLayerTableRecord
2
0
70
0
6
CONTINUOUS
0
ENDTAB
0
TABLE
2
STYLE
5
3
100
AcDbSymbolTable
70
1
0
STYLE
5
11
100
AcDbSymbolTableRecord
100
AcDbTextStyleTableRecord
2
STANDARD
70
0
0
ENDTAB
0
TABLE
2
VIEW
5
6
100
AcDbSymbolTable
70
0
0
ENDTAB
0
TABLE
2
UCS
5
7
100
AcDbSymbolTable
70
0
0
ENDTAB
0
TABLE
2
APPID
5
9
100
AcDbSymbolTable
70
2
0
APPID
5
12
100
AcDbSymbolTableRecord
100
AcDbRegAppTableRecord
2
ACAD
70
0
0
ENDTAB
0
TABLE
2
DIMSTYLE
5
A
100
AcDbSymbolTable
70
1
0
ENDTAB
0
TABLE
2
BLOCK_RECORD
5
1
100
AcDbSymbolTable
70
1
0
BLOCK_RECORD
5
1F
100
AcDbSymbolTableRecord
100
AcDbBlockTableRecord
2
*MODEL_SPACE
0
BLOCK_RECORD
5
1B
100
AcDbSymbolTableRecord
100
AcDbBlockTableRecord
2
*PAPER_SPACE
0
ENDTAB
0
ENDSEC
0
SECTION
2
BLOCKS
0
BLOCK
5
20
100
AcDbEntity
100
AcDbBlockBegin
2
*MODEL_SPACE
0
ENDBLK
5
21
100
AcDbEntity
100
AcDbBlockEnd
0
BLOCK
5
1C
100
AcDbEntity
100
AcDbBlockBegin
2
*PAPER_SPACE
0
ENDBLK
5
1D
100
AcDbEntity
100
AcDbBlockEnd
0
ENDSEC
0
SECTION
2
ENTITIES
0
LWPOLYLINE
5
100
100
AcDbEntity
8
0
100
AcDbPolyline
90
24
70
1
43
0.0
10
31.062856401073084
20
9.9351650006733276
42
0.47041751328081488
10
30.903895350003783
20
9.5843159927216952
42
0.016755720518049563
10
30.998054171493838
20
9.4067208762709846
42
-0.015452527449750108
10
30.987488822102911
20
9.4003083865355048
42
0.055918753066891314
10
31.384457284547437
20
8.8618960362318226
10
49.81382769710487
20
-11.038412382887
42
0.20890041884730565
10
52.014935528694686
20
-12.000000178813938
10
71.435285376215504
20
-12.000000178813934
42
0.37796447229403696
10
74.411755600224495
20
-9.3750001862645025
42
0.12626377781365575
10
69.73109402940085
20
27.61475195367241
42
0.30761893652350175
10
66.94185026822484
20
29.510161875525508
10
56.175757371865522
20
29.510161875525501
42
0.18896234749311522
10
54.137345167792446
20
28.711269707115314
10
50.992516964642746
20
25.798892540939221
42
-0.18896234749311402
10
48.954104760569678
20
25.00000037252903
10
45.307078072050295
20
25.00000037252903
42
0.19184219228327329
10
43.244323987508452
20
24.178312927399407
10
31.522811031595396
20
13.078620795175269
42
0.056349988796954728
10
31.088540068297249
20
12.563096834943314
42
0.091707695538101236
10
31.059902055288081
20
12.496215984384929
42
0.026768590604896104
10
30.903895350003783
20
12.215683520010337
42
0.47041751328081888
10
31.062856401073084
20
11.864834512058701
42
-0.11085127167377549
10
31.449999279844075
20
11.659933961765054
42
-2.1712406033869627
10
31.449999279844075
20
10.14006555096697
42
-0.11085127167377651
0
LWPOLYLINE
5
101
100
AcDbEntity
8
0
100
AcDbPolyline
90
6
70
1
43
0.0
10
68.624999942090994
20
-9.7806257415457925
42
2.0816616249682669
10
68.624999523329834
20
-8.2193741913989662
42
0.1704036118497867
10
68.000001013278961
20
-8.0000001341104543
10
62.1720674987113
20
-7.999999798834323
42
3.1861406616343624
10
62.172068027878993
20
-9.9999997988343274
10
68.000473789539541
20
-10.000000022351745
42
0.17028212618126271
0
LWPOLYLINE
5
102
100
AcDbEntity
8
0
100
AcDbPolyline
90
8
70
1
43
0.0
10
63.624998537637289
20
25.507842683137156
42
0.13832313081654557
10
64.124998548813153
20
25.719374661010782
42
2.0816660128282742
10
64.124998548813153
20
27.280624154346896
42
0.13832313081654748
10
63.624998537637303
20
27.49215613222054
42
-0.0017483576864905943
10
63.631964563974826
20
27.49999940767885
10
57.638199106178185
20
27.49999940767885
42
3.1860434545627356
10
57.624046111359554
20
25.499999407678846
10
63.631964563974826
20
25.499999407678828
42
-0.00174835768649448
0
ENDSEC
0
SECTION
2
OBJECTS
0
DICTIONARY
5
C
100
AcDbDictionary
3
ACAD_GROUP
350
D
3
ACAD_MLINESTYLE
350
17
0
DICTIONARY
5
D
100
AcDbDictionary
0
DICTIONARY
5
1A
330
C
100
AcDbDictionary
0
DICTIONARY
5
17
100
AcDbDictionary
0
ENDSEC
0
EOF
