M48
; DRILL file {KiCad 7.0.9} date 
; FORMAT={-:-/ absolute / metric / decimal}
; #@! TF.CreationDate,2024-06-22T14:55:13+09:00
; #@! TF.GenerationSoftware,Kicad,Pcbnew,7.0.9
; #@! TF.FileFunction,Plated,1,2,PTH
FMAT,2
METRIC
; #@! TA.AperFunction,Plated,PTH,ViaDrill
T1C0.400
; #@! TA.AperFunction,Plated,PTH,ComponentDrill
T2C0.700
; #@! TA.AperFunction,Plated,PTH,ComponentDrill
T3C0.800
; #@! TA.AperFunction,Plated,PTH,ComponentDrill
T4C0.950
; #@! TA.AperFunction,Plated,PTH,ComponentDrill
T5C1.000
; #@! TA.AperFunction,Plated,PTH,ComponentDrill
T6C1.100
%
G90
G05
T1
X115.062Y-87.757
X115.57Y-99.949
X115.697Y-76.454
X116.84Y-69.215
X118.11Y-78.486
X118.11Y-85.344
X120.015Y-70.993
X120.777Y-54.229
X121.031Y-122.047
X121.412Y-111.252
X121.793Y-88.011
X122.301Y-95.631
X123.825Y-101.6
X124.333Y-67.056
X124.587Y-79.248
X125.73Y-104.648
X126.111Y-58.801
X127.381Y-122.072
X127.406Y-111.836
X127.762Y-70.993
X127.889Y-63.881
X128.651Y-54.483
X128.905Y-99.822
X130.429Y-67.818
X131.318Y-57.404
X133.325Y-100.559
X134.239Y-105.029
X134.747Y-57.531
X136.398Y-108.966
X137.795Y-54.229
X138.049Y-84.963
X140.335Y-57.785
X141.224Y-82.169
X141.986Y-54.356
X142.748Y-97.536
X143.51Y-67.056
X145.415Y-51.308
X145.923Y-104.775
X146.558Y-54.991
X146.558Y-63.627
X146.939Y-78.517
X147.066Y-66.929
X147.193Y-100.711
X147.193Y-121.92
X147.32Y-84.582
X147.574Y-72.263
X147.701Y-97.536
X148.923Y-78.517
X149.098Y-113.411
X149.606Y-64.897
X149.86Y-56.388
X150.622Y-53.848
X150.622Y-100.711
X151.003Y-59.69
X151.13Y-86.36
X151.257Y-104.648
X152.146Y-97.536
X152.146Y-100.584
X152.4Y-72.009
X152.781Y-56.896
X152.956Y-101.308
X154.178Y-104.394
X154.559Y-59.563
X154.559Y-73.66
X155.702Y-53.467
X156.312Y-114.249
X156.718Y-49.403
X157.48Y-102.235
X157.48Y-107.696
X158.623Y-66.294
X160.147Y-53.975
X160.274Y-82.042
X160.655Y-73.66
X162.306Y-80.264
X162.56Y-56.769
X162.56Y-59.563
X162.687Y-69.977
X164.719Y-83.788
X164.846Y-122.047
X165.227Y-53.213
X165.477Y-83.054
X165.608Y-64.643
X165.735Y-59.563
X166.116Y-81.915
X166.497Y-80.518
X166.624Y-69.977
X166.878Y-65.913
X166.878Y-113.538
X167.411Y-108.356
X169.291Y-70.231
X170.688Y-64.516
X171.069Y-61.468
X172.72Y-83.185
X172.72Y-104.013
X173.355Y-108.077
X173.99Y-68.199
X175.26Y-65.532
X176.657Y-107.95
T2
X131.064Y-82.804
X131.064Y-84.836
X136.144Y-82.804
X136.144Y-84.836
X144.018Y-105.166
X144.018Y-110.246
T3
X125.857Y-56.299
X125.857Y-61.379
X125.857Y-63.627
X125.857Y-68.707
X126.619Y-97.474
X126.619Y-99.974
X128.397Y-58.839
X128.397Y-66.167
X136.134Y-79.995
X136.134Y-87.615
X138.674Y-79.995
X138.674Y-87.615
X141.214Y-79.995
X141.214Y-87.615
X143.754Y-79.995
X143.754Y-87.615
T4
X148.082Y-51.181
X150.582Y-51.181
X153.082Y-51.181
X155.582Y-51.181
X164.104Y-54.884
X164.719Y-67.437
X164.719Y-69.937
X164.719Y-72.437
X164.719Y-74.937
X164.719Y-77.437
X165.872Y-56.652
X167.64Y-58.42
X169.408Y-60.188
X174.879Y-88.646
X174.879Y-91.146
X174.879Y-93.646
X174.879Y-96.146
X174.879Y-101.473
X174.879Y-103.973
X174.879Y-106.473
T5
X118.443Y-73.533
X118.443Y-76.073
X118.443Y-91.313
X118.443Y-93.853
X120.983Y-73.533
X120.983Y-76.073
X120.983Y-91.313
X120.983Y-93.853
X123.523Y-73.533
X123.523Y-76.073
X123.523Y-91.313
X123.523Y-93.853
X126.063Y-73.533
X126.063Y-76.073
X126.063Y-91.313
X126.063Y-93.853
X128.603Y-73.533
X128.603Y-76.073
X128.603Y-91.313
X128.603Y-93.853
X130.378Y-97.587
X130.378Y-120.447
X131.143Y-73.533
X131.143Y-76.073
X131.143Y-91.313
X131.143Y-93.853
X132.918Y-97.587
X132.918Y-120.447
X133.683Y-73.533
X133.683Y-76.073
X133.683Y-91.313
X133.683Y-93.853
X134.742Y-68.764
X135.458Y-97.587
X135.458Y-120.447
X136.223Y-73.533
X136.223Y-76.073
X136.223Y-91.313
X136.223Y-93.853
X136.398Y-105.166
X136.398Y-112.766
X137.282Y-68.764
X137.998Y-97.587
X137.998Y-120.447
X138.763Y-73.533
X138.763Y-76.073
X138.763Y-91.313
X138.763Y-93.853
X139.822Y-68.764
X140.255Y-51.181
X140.538Y-120.447
X141.303Y-73.533
X141.303Y-76.073
X141.303Y-91.313
X141.303Y-93.853
X142.362Y-68.764
X142.755Y-51.181
X143.078Y-120.447
X143.843Y-73.533
X143.843Y-76.073
X143.843Y-91.313
X143.843Y-93.853
X144.902Y-68.764
X146.383Y-73.533
X146.383Y-76.073
X146.383Y-91.313
X146.383Y-93.853
X147.442Y-68.764
X148.923Y-73.533
X148.923Y-76.073
X148.923Y-91.313
X148.923Y-93.853
X149.982Y-68.764
X151.463Y-73.533
X151.463Y-76.073
X151.463Y-91.313
X151.463Y-93.853
X171.45Y-70.104
X171.45Y-72.644
X171.45Y-75.184
X171.45Y-77.724
X171.45Y-80.264
X173.99Y-70.104
X173.99Y-72.644
X173.99Y-75.184
X173.99Y-77.724
X173.99Y-80.264
T6
X155.357Y-88.444
X155.357Y-94.944
X159.857Y-88.444
X159.857Y-94.944
X162.85Y-88.444
X162.85Y-94.944
X167.35Y-88.444
X167.35Y-94.944
T5
G00X163.008Y-102.814
M15
G01X165.008Y-102.814
M16
G05
G00X163.008Y-108.814
M15
G01X165.008Y-108.814
M16
G05
T0
M30
