0
SECTION
2
HEADER
9
$INSUNITS
70
4
9
$ACADVER
1
AC1014
9
$HANDSEED
5
FFFF
0
ENDSEC
0
SECTION
2
TABLES
0
TABLE
2
VPORT
5
8
100
AcDbSymbolTable
0
ENDTAB
0
TABLE
2
LTYPE
5
5
100
AcDbSymbolTable
0
LTYPE
5
14
100
AcDbSymbolTableRecord
100
AcDbLinetypeTableRecord
2
BYBLOCK
70
0
0
LTYPE
5
15
100
AcDbSymbolTableRecord
100
AcDbLinetypeTableRecord
2
BYLAYER
70
0
0
ENDTAB
0
TABLE
2
LAYER
5
2
100
AcDbSymbolTable
70
2
0
LAYER
5
50
100
AcDbSymbolTableRecord
100
AcDbLayerTableRecord
2
0
70
0
6
CONTINUOUS
0
ENDTAB
0
TABLE
2
STYLE
5
3
100
AcDbSymbolTable
70
1
0
STYLE
5
11
100
AcDbSymbolTableRecord
100
AcDbTextStyleTableRecord
2
STANDARD
70
0
0
ENDTAB
0
TABLE
2
VIEW
5
6
100
AcDbSymbolTable
70
0
0
ENDTAB
0
TABLE
2
UCS
5
7
100
AcDbSymbolTable
70
0
0
ENDTAB
0
TABLE
2
APPID
5
9
100
AcDbSymbolTable
70
2
0
APPID
5
12
100
AcDbSymbolTableRecord
100
AcDbRegAppTableRecord
2
ACAD
70
0
0
ENDTAB
0
TABLE
2
DIMSTYLE
5
A
100
AcDbSymbolTable
70
1
0
ENDTAB
0
TABLE
2
BLOCK_RECORD
5
1
100
AcDbSymbolTable
70
1
0
BLOCK_RECORD
5
1F
100
AcDbSymbolTableRecord
100
AcDbBlockTableRecord
2
*MODEL_SPACE
0
BLOCK_RECORD
5
1B
100
AcDbSymbolTableRecord
100
AcDbBlockTableRecord
2
*PAPER_SPACE
0
ENDTAB
0
ENDSEC
0
SECTION
2
BLOCKS
0
BLOCK
5
20
100
AcDbEntity
100
AcDbBlockBegin
2
*MODEL_SPACE
0
ENDBLK
5
21
100
AcDbEntity
100
AcDbBlockEnd
0
BLOCK
5
1C
100
AcDbEntity
100
AcDbBlockBegin
2
*PAPER_SPACE
0
ENDBLK
5
1D
100
AcDbEntity
100
AcDbBlockEnd
0
ENDSEC
0
SECTION
2
ENTITIES
0
LWPOLYLINE
5
100
100
AcDbEntity
8
0
100
AcDbPolyline
90
16
70
1
43
0.0
10
12.680276860549998
20
19.147891795783998
42
0.41421356237309509
10
11.692976885949999
20
20.135191770384001
10
-11.707023114046002
20
20.135191770384001
42
0.41421356237309437
10
-12.694323088646
20
19.147891795783998
10
-12.694323088646
20
-10.052108204210004
42
0.41421356237309437
10
-11.707023114046001
20
-11.039408178810001
10
-8.7070231140460006
20
-11.03940817881
42
0.41421356237309509
10
-7.7197231394460006
20
-10.052108204210002
10
-7.7197231394459997
20
-6.2521082042160003
42
-0.41421356237309509
10
-6.7070231140460006
20
-5.2394081788160012
10
6.6929768859540006
20
-5.2394081788160012
42
-0.41421356237309509
10
7.7056769113540007
20
-6.2521082042160003
10
7.7056769113540007
20
-10.052108204210002
42
0.41421356237309509
10
8.6929768859539998
20
-11.039408178810001
10
11.692976885949999
20
-11.03940817881
42
0.41421356237309509
10
12.680276860549998
20
-10.052108204210002
0
CIRCLE
5
101
100
AcDbEntity
8
0
100
AcDbCircle
10
-3.8100076200149999
20
-4.0000076200150003
30
0
40
0.55001270002500002
210
0
220
-0
230
1
0
CIRCLE
5
102
100
AcDbEntity
8
0
100
AcDbCircle
10
-1.2700025400049999
20
-4.0000076200150003
30
0
40
0.55001270002500002
210
0
220
-0
230
1
0
CIRCLE
5
103
100
AcDbEntity
8
0
100
AcDbCircle
10
-11.430022860046002
20
0.31
30
0
40
0.55001270002500002
210
0
220
-0
230
1
0
CIRCLE
5
104
100
AcDbEntity
8
0
100
AcDbCircle
10
-11.430022860046002
20
2.8500050800100003
30
0
40
0.55001270002500002
210
0
220
-0
230
1
0
CIRCLE
5
105
100
AcDbEntity
8
0
100
AcDbCircle
10
1.2700025400049999
20
-4.0000076200150003
30
0
40
0.55001270002500002
210
0
220
-0
230
1
0
CIRCLE
5
106
100
AcDbEntity
8
0
100
AcDbCircle
10
3.8100076200149999
20
-4.0000076200150003
30
0
40
0.55001270002500002
210
0
220
-0
230
1
0
CIRCLE
5
107
100
AcDbEntity
8
0
100
AcDbCircle
10
11.430022860039999
20
0.31
30
0
40
0.55001270002500002
210
0
220
-0
230
1
0
CIRCLE
5
108
100
AcDbEntity
8
0
100
AcDbCircle
10
11.430022860039999
20
2.8500050800100003
30
0
40
0.55001270002500002
210
0
220
-0
230
1
0
CIRCLE
5
109
100
AcDbEntity
8
0
100
AcDbCircle
10
-11.430022860046002
20
5.3900101600200001
30
0
40
0.55001270002500002
210
0
220
-0
230
1
0
CIRCLE
5
110
100
AcDbEntity
8
0
100
AcDbCircle
10
-11.430022860046002
20
7.9300152400300004
30
0
40
0.55001270002500002
210
0
220
-0
230
1
0
CIRCLE
5
111
100
AcDbEntity
8
0
100
AcDbCircle
10
-11.430022860046002
20
10.470020320041
30
0
40
0.55001270002500002
210
0
220
-0
230
1
0
CIRCLE
5
112
100
AcDbEntity
8
0
100
AcDbCircle
10
-11.430022860046002
20
13.010025400050999
30
0
40
0.55001270002500002
210
0
220
-0
230
1
0
CIRCLE
5
113
100
AcDbEntity
8
0
100
AcDbCircle
10
11.430022860039999
20
5.3900101600200001
30
0
40
0.55001270002500002
210
0
220
-0
230
1
0
CIRCLE
5
114
100
AcDbEntity
8
0
100
AcDbCircle
10
11.430022860039999
20
7.9300152400300004
30
0
40
0.55001270002500002
210
0
220
-0
230
1
0
ENDSEC
0
SECTION
2
OBJECTS
0
DICTIONARY
5
C
100
AcDbDictionary
3
ACAD_GROUP
350
D
3
ACAD_MLINESTYLE
350
17
0
DICTIONARY
5
D
100
AcDbDictionary
0
DICTIONARY
5
1A
330
C
100
AcDbDictionary
0
DICTIONARY
5
17
100
AcDbDictionary
0
ENDSEC
0
EOF
