%TF.GenerationSoftware,KiCad,Pcbnew,7.0.9*%
%TF.CreationDate,2024-03-02T10:42:17+09:00*%
%TF.ProjectId,topframe,746f7066-7261-46d6-952e-6b696361645f,rev?*%
%TF.SameCoordinates,Original*%
%TF.FileFunction,Profile,NP*%
%FSLAX46Y46*%
G04 Gerber Fmt 4.6, Leading zero omitted, Abs format (unit mm)*
G04 Created by KiCad (PCBNEW 7.0.9) date 2024-03-02 10:42:17*
%MOMM*%
%LPD*%
G01*
G04 APERTURE LIST*
%TA.AperFunction,Profile*%
%ADD10C,0.200000*%
%TD*%
G04 APERTURE END LIST*
D10*
X103441896Y-79220193D02*
G75*
G03*
X103441896Y-79220193I-1100000J0D01*
G01*
X103441896Y-57670193D02*
G75*
G03*
X103441896Y-57670193I-1100000J0D01*
G01*
X65979999Y-85408000D02*
G75*
G03*
X65979999Y-85408000I-1600000J0D01*
G01*
X113480000Y-174418000D02*
G75*
G03*
X113480000Y-174418000I-1600000J0D01*
G01*
X50537384Y-65398190D02*
G75*
G03*
X50537384Y-65398190I-1600000J0D01*
G01*
X58037384Y-52407809D02*
G75*
G03*
X58037384Y-52407809I-1600000J0D01*
G01*
X74280000Y-160163000D02*
G75*
G03*
X74280000Y-160163000I-1150000J0D01*
G01*
X74730000Y-150158001D02*
G75*
G03*
X74730000Y-150158001I-1600000J0D01*
G01*
X21342501Y-80874132D02*
G75*
G03*
X21342501Y-80874132I-1600000J0D01*
G01*
X85480000Y-191963539D02*
G75*
G03*
X85480000Y-191963539I-1600000J0D01*
G01*
X72480000Y-28386329D02*
G75*
G03*
X72480000Y-28386329I-1100000J0D01*
G01*
X72480000Y-18386329D02*
G75*
G03*
X72480000Y-18386329I-1100000J0D01*
G01*
X56842501Y-19386329D02*
G75*
G03*
X56842501Y-19386329I-1600000J0D01*
G01*
X116595390Y-87408000D02*
X119380000Y-87408000D01*
X115595390Y-87140051D02*
G75*
G03*
X116595390Y-87408000I999998J1732045D01*
G01*
X106341896Y-81797543D02*
X115595390Y-87140051D01*
X105341896Y-80065493D02*
G75*
G03*
X106341896Y-81797543I1999996J-1D01*
G01*
X105341896Y-47139498D02*
X105341896Y-80065493D01*
X106380000Y-45386000D02*
G75*
G03*
X105341896Y-47139498I961895J-1753498D01*
G01*
X119380000Y-45386000D02*
X106380000Y-45386000D01*
X90418846Y-40386000D02*
X119380000Y-40386000D01*
X88918846Y-39984076D02*
G75*
G03*
X90418846Y-40386000I1500003J2598087D01*
G01*
X75880000Y-32456095D02*
X88918846Y-39984076D01*
X74380000Y-29858019D02*
G75*
G03*
X75880000Y-32456095I3000001J1D01*
G01*
X74380000Y-18386329D02*
X74380000Y-29858019D01*
X74380000Y-18386329D02*
G75*
G03*
X71380000Y-15386329I-2999999J1D01*
G01*
X55242501Y-15386329D02*
X71380000Y-15386329D01*
X55242501Y-15386330D02*
G75*
G03*
X53242501Y-22850430I0J-3999999D01*
G01*
X59136271Y-26253200D02*
X53242501Y-22850430D01*
X61606941Y-35473871D02*
G75*
G03*
X59136271Y-26253201I-5845670J3375000D01*
G01*
X36856942Y-78342129D02*
X61606942Y-35473871D01*
X27636271Y-80812799D02*
G75*
G03*
X36856941Y-78342129I3375000J5845670D01*
G01*
X21742501Y-77410031D02*
X27636271Y-80812800D01*
X21742501Y-77410031D02*
G75*
G03*
X15796461Y-80219326I-2000000J-3464102D01*
G01*
X15796461Y-80219326D02*
G75*
G03*
X82474059Y-195708313I103583539J-17188674D01*
G01*
X82474059Y-195708313D02*
G75*
G03*
X87880000Y-191963539I1405941J3744774D01*
G01*
X87880000Y-185158000D02*
X87880000Y-191963539D01*
X94630000Y-178408000D02*
G75*
G03*
X87880000Y-185158000I-1J-6749999D01*
G01*
X119380000Y-178408000D02*
X94630000Y-178408000D01*
X117380000Y-171408000D02*
X119380000Y-171408000D01*
X115380000Y-169408000D02*
G75*
G03*
X117380000Y-171408000I1999999J-1D01*
G01*
X115380000Y-155908001D02*
X115380000Y-169408000D01*
X117380000Y-153908001D02*
G75*
G03*
X115380000Y-155908001I-1J-1999999D01*
G01*
X119380000Y-153908001D02*
X117380000Y-153908001D01*
X119380000Y-151258001D02*
G75*
G03*
X119380000Y-153558001I0J-1150000D01*
G01*
X117380000Y-150908001D02*
X119380000Y-150908001D01*
X115380000Y-148908001D02*
G75*
G03*
X117380000Y-150908001I2000000J0D01*
G01*
X115380000Y-108408000D02*
X115380000Y-148908001D01*
X117380000Y-106408000D02*
G75*
G03*
X115380000Y-108408000I-1J-1999999D01*
G01*
X119380000Y-106408000D02*
X117380000Y-106408000D01*
X116493249Y-104408000D02*
X119380000Y-104408000D01*
X114761198Y-103408000D02*
G75*
G03*
X116493249Y-104408000I1732051J1000000D01*
G01*
X111874446Y-98408000D02*
X114761198Y-103408000D01*
X111874446Y-96408000D02*
G75*
G03*
X111874446Y-98408000I1732052J-1000000D01*
G01*
X114761198Y-91408000D02*
X111874446Y-96408000D01*
X116493249Y-90408000D02*
G75*
G03*
X114761198Y-91408000I0J-2000000D01*
G01*
X119380000Y-90408000D02*
X116493249Y-90408000D01*
X80123189Y-178940323D02*
G75*
G03*
X83832758Y-175873757I-7087652J12350785D01*
G01*
X75630000Y-176338327D02*
G75*
G03*
X80123189Y-178940323I3000000J1D01*
G01*
X75630000Y-85427982D02*
X75630000Y-176338327D01*
X80130000Y-82829906D02*
G75*
G03*
X75630000Y-85427982I-1500000J-2598076D01*
G01*
X108595390Y-99264406D02*
X80130000Y-82829906D01*
X109327440Y-99996457D02*
G75*
G03*
X108595390Y-99264407I-1732055J-1000005D01*
G01*
X112112051Y-104819543D02*
X109327441Y-99996457D01*
X112379999Y-105819543D02*
G75*
G03*
X112112050Y-104819543I-1999993J2D01*
G01*
X112380000Y-167918000D02*
X112380000Y-105819543D01*
X109380000Y-170918000D02*
G75*
G03*
X112380000Y-167918000I-1J3000001D01*
G01*
X94630000Y-170918000D02*
X109380000Y-170918000D01*
X94630000Y-170918001D02*
G75*
G03*
X83832758Y-175873757I-2J-14239996D01*
G01*
X70630000Y-89908000D02*
G75*
G03*
X68630000Y-87908000I-1999999J1D01*
G01*
X70630000Y-176444359D02*
X70630000Y-89908000D01*
X66187246Y-179074656D02*
G75*
G03*
X70630000Y-176444359I1442754J2630297D01*
G01*
X65110148Y-178420242D02*
G75*
G03*
X66187246Y-179074656I7925469J11830901D01*
G01*
X22086415Y-103900949D02*
G75*
G03*
X65110148Y-178420242I97293585J6492949D01*
G01*
X33653041Y-88959937D02*
G75*
G03*
X22086415Y-103900949I2641768J-13992805D01*
G01*
X33860592Y-88919152D02*
X33653041Y-88959936D01*
X43865233Y-87908000D02*
G75*
G03*
X33860592Y-88919152I-4J-49999991D01*
G01*
X68630000Y-87908000D02*
X43865233Y-87908000D01*
X72754347Y-45386001D02*
G75*
G03*
X60422146Y-52506000I-1J-14239998D01*
G01*
X97380000Y-45386000D02*
X72754347Y-45386000D01*
X99341896Y-47385637D02*
G75*
G03*
X97380000Y-45386000I-2000000J0D01*
G01*
X99341896Y-74291990D02*
X99341896Y-47385637D01*
X96341896Y-76024041D02*
G75*
G03*
X99341896Y-74291990I1000000J1732051D01*
G01*
X60950523Y-55590822D02*
X96341896Y-76024041D01*
X60218473Y-52858771D02*
G75*
G03*
X60950523Y-55590821I1732051J-1000000D01*
G01*
X60422145Y-52506000D02*
X60218473Y-52858771D01*
X70630000Y-79077129D02*
G75*
G03*
X69130000Y-76479053I-3000001J-1D01*
G01*
X70630000Y-80907692D02*
X70630000Y-79077129D01*
X68630000Y-82907692D02*
G75*
G03*
X70630000Y-80907692I1J1999999D01*
G01*
X46333821Y-82907692D02*
X68630000Y-82907692D01*
X44601771Y-79907692D02*
G75*
G03*
X46333821Y-82907692I1732051J-1000000D01*
G01*
X51218473Y-68447229D02*
X44601771Y-79907692D01*
X53950523Y-67715178D02*
G75*
G03*
X51218473Y-68447229I-1000000J-1732049D01*
G01*
X69130000Y-76479053D02*
X53950523Y-67715178D01*
X107853721Y-95372102D02*
G75*
G03*
X110585770Y-94640051I999999J1732052D01*
G01*
X55026171Y-64872102D02*
X107853721Y-95372102D01*
X54294120Y-62140051D02*
G75*
G03*
X55026171Y-64872102I1732051J-1000000D01*
G01*
X56294120Y-58675949D02*
X54294120Y-62140051D01*
X59026171Y-57943898D02*
G75*
G03*
X56294120Y-58675949I-999999J-1732054D01*
G01*
X111853721Y-88443898D02*
X59026171Y-57943898D01*
X112585771Y-91175949D02*
G75*
G03*
X111853721Y-88443899I-1732051J1000000D01*
G01*
X110585771Y-94640051D02*
X112585771Y-91175949D01*
X137518104Y-79220193D02*
G75*
G03*
X137518104Y-79220193I-1100000J0D01*
G01*
X137518104Y-57670193D02*
G75*
G03*
X137518104Y-57670193I-1100000J0D01*
G01*
X175980001Y-85408000D02*
G75*
G03*
X175980001Y-85408000I-1600000J0D01*
G01*
X128480000Y-174418000D02*
G75*
G03*
X128480000Y-174418000I-1600000J0D01*
G01*
X191422616Y-65398190D02*
G75*
G03*
X191422616Y-65398190I-1600000J0D01*
G01*
X183922616Y-52407809D02*
G75*
G03*
X183922616Y-52407809I-1600000J0D01*
G01*
X138980000Y-173408001D02*
G75*
G03*
X138980000Y-173408001I-1600000J0D01*
G01*
X167230000Y-92908000D02*
G75*
G03*
X167230000Y-92908000I-1600000J0D01*
G01*
X167230000Y-170168000D02*
G75*
G03*
X167230000Y-170168000I-1600000J0D01*
G01*
X166780000Y-160163000D02*
G75*
G03*
X166780000Y-160163000I-1150000J0D01*
G01*
X167230000Y-150158001D02*
G75*
G03*
X167230000Y-150158001I-1600000J0D01*
G01*
X220617499Y-80874132D02*
G75*
G03*
X220617499Y-80874132I-1600000J0D01*
G01*
X156480000Y-191963539D02*
G75*
G03*
X156480000Y-191963539I-1600000J0D01*
G01*
X168480000Y-28386329D02*
G75*
G03*
X168480000Y-28386329I-1100000J0D01*
G01*
X168480000Y-18386329D02*
G75*
G03*
X168480000Y-18386329I-1100000J0D01*
G01*
X185117499Y-19386329D02*
G75*
G03*
X185117499Y-19386329I-1600000J0D01*
G01*
X122164610Y-87408000D02*
X119380000Y-87408000D01*
X122164610Y-87407999D02*
G75*
G03*
X123164610Y-87140050I2J1999993D01*
G01*
X132418104Y-81797543D02*
X123164610Y-87140051D01*
X132418104Y-81797543D02*
G75*
G03*
X133418104Y-80065493I-999996J1732049D01*
G01*
X133418104Y-47139498D02*
X133418104Y-80065493D01*
X133418104Y-47139498D02*
G75*
G03*
X132380000Y-45386000I-1999999J0D01*
G01*
X119380000Y-45386000D02*
X132380000Y-45386000D01*
X148341154Y-40386000D02*
X119380000Y-40386000D01*
X148341154Y-40385999D02*
G75*
G03*
X149841154Y-39984075I-3J3000010D01*
G01*
X162880000Y-32456095D02*
X149841154Y-39984076D01*
X162880000Y-32456095D02*
G75*
G03*
X164380000Y-29858019I-1500001J2598077D01*
G01*
X164380000Y-18386329D02*
X164380000Y-29858019D01*
X167380000Y-15386329D02*
G75*
G03*
X164380000Y-18386329I-1J-2999999D01*
G01*
X183517499Y-15386329D02*
X167380000Y-15386329D01*
X185517499Y-22850430D02*
G75*
G03*
X183517499Y-15386329I-2000000J3464101D01*
G01*
X179623729Y-26253200D02*
X185517499Y-22850430D01*
X179623729Y-26253201D02*
G75*
G03*
X177153059Y-35473871I3375000J-5845670D01*
G01*
X201903058Y-78342129D02*
X177153058Y-35473871D01*
X201903059Y-78342129D02*
G75*
G03*
X211123729Y-80812799I5845670J3375000D01*
G01*
X217017499Y-77410031D02*
X211123729Y-80812800D01*
X222963539Y-80219326D02*
G75*
G03*
X217017499Y-77410031I-3946040J-654807D01*
G01*
X156285941Y-195708313D02*
G75*
G03*
X222963539Y-80219326I-36905941J98300313D01*
G01*
X150880000Y-191963539D02*
G75*
G03*
X156285941Y-195708313I4000000J0D01*
G01*
X150880000Y-185158000D02*
X150880000Y-191963539D01*
X150880000Y-185158000D02*
G75*
G03*
X144130000Y-178408000I-6749999J1D01*
G01*
X119380000Y-178408000D02*
X144130000Y-178408000D01*
X121380000Y-171408000D02*
X119380000Y-171408000D01*
X121380000Y-171408000D02*
G75*
G03*
X123380000Y-169408000I1J1999999D01*
G01*
X123380000Y-155908001D02*
X123380000Y-169408000D01*
X123380000Y-155908001D02*
G75*
G03*
X121380000Y-153908001I-1999999J1D01*
G01*
X119380000Y-153908001D02*
X121380000Y-153908001D01*
X119380000Y-153558001D02*
G75*
G03*
X119380000Y-151258001I0J1150000D01*
G01*
X121380000Y-150908001D02*
X119380000Y-150908001D01*
X121380000Y-150908001D02*
G75*
G03*
X123380000Y-148908001I0J2000000D01*
G01*
X123380000Y-108408000D02*
X123380000Y-148908001D01*
X123380000Y-108408000D02*
G75*
G03*
X121380000Y-106408000I-1999999J1D01*
G01*
X119380000Y-106408000D02*
X121380000Y-106408000D01*
X122266751Y-104408000D02*
X119380000Y-104408000D01*
X122266751Y-104408000D02*
G75*
G03*
X123998802Y-103408000I0J2000000D01*
G01*
X126885554Y-98408000D02*
X123998802Y-103408000D01*
X126885554Y-98408000D02*
G75*
G03*
X126885554Y-96408000I-1732052J1000000D01*
G01*
X123998802Y-91408000D02*
X126885554Y-96408000D01*
X123998802Y-91408000D02*
G75*
G03*
X122266751Y-90408000I-1732051J-1000000D01*
G01*
X119380000Y-90408000D02*
X122266751Y-90408000D01*
X154927242Y-175873757D02*
G75*
G03*
X158636811Y-178940323I10797221J9284219D01*
G01*
X158636811Y-178940323D02*
G75*
G03*
X163130000Y-176338327I1493189J2601997D01*
G01*
X163130000Y-85427982D02*
X163130000Y-176338327D01*
X163129999Y-85427982D02*
G75*
G03*
X158630000Y-82829907I-2999999J0D01*
G01*
X130164610Y-99264406D02*
X158630000Y-82829906D01*
X130164610Y-99264407D02*
G75*
G03*
X129432560Y-99996457I1000005J-1732055D01*
G01*
X126647949Y-104819543D02*
X129432559Y-99996457D01*
X126647949Y-104819543D02*
G75*
G03*
X126380000Y-105819543I1732045J-999998D01*
G01*
X126380000Y-167918000D02*
X126380000Y-105819543D01*
X126380000Y-167918000D02*
G75*
G03*
X129380000Y-170918000I3000001J1D01*
G01*
X144130000Y-170918000D02*
X129380000Y-170918000D01*
X154927242Y-175873757D02*
G75*
G03*
X144130000Y-170918000I-10797240J-9284240D01*
G01*
X170130000Y-87908000D02*
G75*
G03*
X168130000Y-89908000I-1J-1999999D01*
G01*
X168130000Y-176444359D02*
X168130000Y-89908000D01*
X168130000Y-176444359D02*
G75*
G03*
X172572754Y-179074656I3000000J0D01*
G01*
X172572754Y-179074656D02*
G75*
G03*
X173649852Y-178420242I-6848371J12485315D01*
G01*
X173649851Y-178420241D02*
G75*
G03*
X216673584Y-103900949I-54269851J81012241D01*
G01*
X216673585Y-103900949D02*
G75*
G03*
X205106959Y-88959937I-14208394J948207D01*
G01*
X204899408Y-88919152D02*
X205106959Y-88959936D01*
X204899408Y-88919152D02*
G75*
G03*
X194894767Y-87908000I-10004637J-48988839D01*
G01*
X170130000Y-87908000D02*
X194894767Y-87908000D01*
X178337855Y-52506000D02*
G75*
G03*
X166005653Y-45386000I-12332201J-7119999D01*
G01*
X141380000Y-45386000D02*
X166005653Y-45386000D01*
X141380000Y-45386000D02*
G75*
G03*
X139418104Y-47385637I38104J-1999637D01*
G01*
X139418104Y-74291990D02*
X139418104Y-47385637D01*
X139418104Y-74291990D02*
G75*
G03*
X142418104Y-76024041I2000000J0D01*
G01*
X177809477Y-55590822D02*
X142418104Y-76024041D01*
X177809477Y-55590821D02*
G75*
G03*
X178541527Y-52858771I-1000001J1732050D01*
G01*
X178337855Y-52506000D02*
X178541527Y-52858771D01*
X169630000Y-76479053D02*
G75*
G03*
X168130000Y-79077129I1500001J-2598077D01*
G01*
X168130000Y-80907692D02*
X168130000Y-79077129D01*
X168130000Y-80907692D02*
G75*
G03*
X170130000Y-82907692I1999999J-1D01*
G01*
X192426179Y-82907692D02*
X170130000Y-82907692D01*
X192426179Y-82907692D02*
G75*
G03*
X194158229Y-79907692I-1J2000000D01*
G01*
X187541527Y-68447229D02*
X194158229Y-79907692D01*
X187541527Y-68447229D02*
G75*
G03*
X184809477Y-67715178I-1732050J-999998D01*
G01*
X169630000Y-76479053D02*
X184809477Y-67715178D01*
X128174230Y-94640051D02*
G75*
G03*
X130906279Y-95372102I1732050J1000001D01*
G01*
X183733829Y-64872102D02*
X130906279Y-95372102D01*
X183733829Y-64872102D02*
G75*
G03*
X184465880Y-62140051I-1000000J1732051D01*
G01*
X182465880Y-58675949D02*
X184465880Y-62140051D01*
X182465880Y-58675949D02*
G75*
G03*
X179733829Y-57943898I-1732052J-1000003D01*
G01*
X126906279Y-88443898D02*
X179733829Y-57943898D01*
X126906279Y-88443899D02*
G75*
G03*
X126174229Y-91175949I1000001J-1732050D01*
G01*
X128174229Y-94640051D02*
X126174229Y-91175949D01*
M02*
