%TF.GenerationSoftware,KiCad,Pcbnew,7.0.9*%
%TF.CreationDate,2024-03-02T10:42:17+09:00*%
%TF.ProjectId,topframe,746f7066-7261-46d6-952e-6b696361645f,rev?*%
%TF.SameCoordinates,Original*%
%TF.FileFunction,Legend,Bot*%
%TF.FilePolarity,Positive*%
%FSLAX46Y46*%
G04 Gerber Fmt 4.6, Leading zero omitted, Abs format (unit mm)*
G04 Created by KiCad (PCBNEW 7.0.9) date 2024-03-02 10:42:17*
%MOMM*%
%LPD*%
G01*
G04 APERTURE LIST*
%ADD10C,0.150000*%
G04 APERTURE END LIST*
D10*
X120840333Y-88304819D02*
X121173666Y-87828628D01*
X121411761Y-88304819D02*
X121411761Y-87304819D01*
X121411761Y-87304819D02*
X121030809Y-87304819D01*
X121030809Y-87304819D02*
X120935571Y-87352438D01*
X120935571Y-87352438D02*
X120887952Y-87400057D01*
X120887952Y-87400057D02*
X120840333Y-87495295D01*
X120840333Y-87495295D02*
X120840333Y-87638152D01*
X120840333Y-87638152D02*
X120887952Y-87733390D01*
X120887952Y-87733390D02*
X120935571Y-87781009D01*
X120935571Y-87781009D02*
X121030809Y-87828628D01*
X121030809Y-87828628D02*
X121411761Y-87828628D01*
X120411761Y-87781009D02*
X120078428Y-87781009D01*
X119935571Y-88304819D02*
X120411761Y-88304819D01*
X120411761Y-88304819D02*
X120411761Y-87304819D01*
X120411761Y-87304819D02*
X119935571Y-87304819D01*
X119173666Y-87781009D02*
X119506999Y-87781009D01*
X119506999Y-88304819D02*
X119506999Y-87304819D01*
X119506999Y-87304819D02*
X119030809Y-87304819D01*
X118506999Y-87304819D02*
X118506999Y-87542914D01*
X118745094Y-87447676D02*
X118506999Y-87542914D01*
X118506999Y-87542914D02*
X118268904Y-87447676D01*
X118649856Y-87733390D02*
X118506999Y-87542914D01*
X118506999Y-87542914D02*
X118364142Y-87733390D01*
X117745094Y-87304819D02*
X117745094Y-87542914D01*
X117983189Y-87447676D02*
X117745094Y-87542914D01*
X117745094Y-87542914D02*
X117506999Y-87447676D01*
X117887951Y-87733390D02*
X117745094Y-87542914D01*
X117745094Y-87542914D02*
X117602237Y-87733390D01*
M02*
