%TF.GenerationSoftware,KiCad,Pcbnew,7.0.9*%
%TF.CreationDate,2023-12-16T17:23:44+09:00*%
%TF.ProjectId,LineIntegratedBoard,4c696e65-496e-4746-9567-726174656442,rev?*%
%TF.SameCoordinates,Original*%
%TF.FileFunction,Legend,Bot*%
%TF.FilePolarity,Positive*%
%FSLAX46Y46*%
G04 Gerber Fmt 4.6, Leading zero omitted, Abs format (unit mm)*
G04 Created by KiCad (PCBNEW 7.0.9) date 2023-12-16 17:23:44*
%MOMM*%
%LPD*%
G01*
G04 APERTURE LIST*
%ADD10C,0.150000*%
G04 APERTURE END LIST*
D10*
X145709819Y-102181066D02*
X146424104Y-102181066D01*
X146424104Y-102181066D02*
X146566961Y-102133447D01*
X146566961Y-102133447D02*
X146662200Y-102038209D01*
X146662200Y-102038209D02*
X146709819Y-101895352D01*
X146709819Y-101895352D02*
X146709819Y-101800114D01*
X145709819Y-102562019D02*
X145709819Y-103181066D01*
X145709819Y-103181066D02*
X146090771Y-102847733D01*
X146090771Y-102847733D02*
X146090771Y-102990590D01*
X146090771Y-102990590D02*
X146138390Y-103085828D01*
X146138390Y-103085828D02*
X146186009Y-103133447D01*
X146186009Y-103133447D02*
X146281247Y-103181066D01*
X146281247Y-103181066D02*
X146519342Y-103181066D01*
X146519342Y-103181066D02*
X146614580Y-103133447D01*
X146614580Y-103133447D02*
X146662200Y-103085828D01*
X146662200Y-103085828D02*
X146709819Y-102990590D01*
X146709819Y-102990590D02*
X146709819Y-102704876D01*
X146709819Y-102704876D02*
X146662200Y-102609638D01*
X146662200Y-102609638D02*
X146614580Y-102562019D01*
X152653904Y-84374819D02*
X152653904Y-85184342D01*
X152653904Y-85184342D02*
X152606285Y-85279580D01*
X152606285Y-85279580D02*
X152558666Y-85327200D01*
X152558666Y-85327200D02*
X152463428Y-85374819D01*
X152463428Y-85374819D02*
X152272952Y-85374819D01*
X152272952Y-85374819D02*
X152177714Y-85327200D01*
X152177714Y-85327200D02*
X152130095Y-85279580D01*
X152130095Y-85279580D02*
X152082476Y-85184342D01*
X152082476Y-85184342D02*
X152082476Y-84374819D01*
X151082476Y-85374819D02*
X151653904Y-85374819D01*
X151368190Y-85374819D02*
X151368190Y-84374819D01*
X151368190Y-84374819D02*
X151463428Y-84517676D01*
X151463428Y-84517676D02*
X151558666Y-84612914D01*
X151558666Y-84612914D02*
X151653904Y-84660533D01*
%TO.C,U1*%
X149017000Y-94495000D02*
X149017000Y-94195000D01*
X154767000Y-94495000D02*
X149017000Y-94495000D01*
X154767000Y-86070000D02*
X156367000Y-86070000D01*
X154767000Y-85845000D02*
X149017000Y-85845000D01*
X149017000Y-85845000D02*
X149017000Y-86145000D01*
X154767000Y-94495000D02*
X154767000Y-94195000D01*
X154767000Y-85845000D02*
X154767000Y-86070000D01*
%TD*%
M02*
