%TF.GenerationSoftware,KiCad,Pcbnew,7.0.9*%
%TF.CreationDate,2023-12-16T17:23:44+09:00*%
%TF.ProjectId,LineIntegratedBoard,4c696e65-496e-4746-9567-726174656442,rev?*%
%TF.SameCoordinates,Original*%
%TF.FileFunction,Soldermask,Bot*%
%TF.FilePolarity,Negative*%
%FSLAX46Y46*%
G04 Gerber Fmt 4.6, Leading zero omitted, Abs format (unit mm)*
G04 Created by KiCad (PCBNEW 7.0.9) date 2023-12-16 17:23:44*
%MOMM*%
%LPD*%
G01*
G04 APERTURE LIST*
G04 Aperture macros list*
%AMHorizOval*
0 Thick line with rounded ends*
0 $1 width*
0 $2 $3 position (X,Y) of the first rounded end (center of the circle)*
0 $4 $5 position (X,Y) of the second rounded end (center of the circle)*
0 Add line between two ends*
20,1,$1,$2,$3,$4,$5,0*
0 Add two circle primitives to create the rounded ends*
1,1,$1,$2,$3*
1,1,$1,$4,$5*%
G04 Aperture macros list end*
%ADD10C,2.200000*%
%ADD11HorizOval,1.000000X0.433013X-0.250000X-0.433013X0.250000X0*%
%ADD12HorizOval,1.000000X0.433013X0.250000X-0.433013X-0.250000X0*%
%ADD13O,1.000000X2.000000*%
%ADD14R,1.750000X0.450000*%
G04 APERTURE END LIST*
D10*
%TO.C,REF\u002A\u002A*%
X138531600Y-90170000D03*
%TD*%
%TO.C,REF\u002A\u002A*%
X166268400Y-90170000D03*
%TD*%
D11*
%TO.C,J2*%
X144761683Y-78765317D03*
X144126683Y-79865169D03*
X143491683Y-80965021D03*
X142856683Y-82064873D03*
X142221683Y-83164726D03*
X141586683Y-84264578D03*
X140951683Y-85364430D03*
X140316683Y-86464282D03*
%TD*%
D12*
%TO.C,J1*%
X159993283Y-78666760D03*
X160628283Y-79766612D03*
X161263283Y-80866464D03*
X161898283Y-81966316D03*
X162533283Y-83066169D03*
X163168283Y-84166021D03*
X163803283Y-85265873D03*
X164438283Y-86365725D03*
%TD*%
D13*
%TO.C,J3*%
X147950000Y-102514400D03*
X149220000Y-102514400D03*
X150490000Y-102514400D03*
X151760000Y-102514400D03*
X153030000Y-102514400D03*
X154300000Y-102514400D03*
X155570000Y-102514400D03*
X156840000Y-102514400D03*
%TD*%
D14*
%TO.C,U1*%
X155492000Y-86595000D03*
X155492000Y-87245000D03*
X155492000Y-87895000D03*
X155492000Y-88545000D03*
X155492000Y-89195000D03*
X155492000Y-89845000D03*
X155492000Y-90495000D03*
X155492000Y-91145000D03*
X155492000Y-91795000D03*
X155492000Y-92445000D03*
X155492000Y-93095000D03*
X155492000Y-93745000D03*
X148292000Y-93745000D03*
X148292000Y-93095000D03*
X148292000Y-92445000D03*
X148292000Y-91795000D03*
X148292000Y-91145000D03*
X148292000Y-90495000D03*
X148292000Y-89845000D03*
X148292000Y-89195000D03*
X148292000Y-88545000D03*
X148292000Y-87895000D03*
X148292000Y-87245000D03*
X148292000Y-86595000D03*
%TD*%
M02*
