0
SECTION
2
HEADER
9
$INSUNITS
70
4
9
$ACADVER
1
AC1014
9
$HANDSEED
5
FFFF
0
ENDSEC
0
SECTION
2
TABLES
0
TABLE
2
VPORT
5
8
100
AcDbSymbolTable
0
ENDTAB
0
TABLE
2
LTYPE
5
5
100
AcDbSymbolTable
0
LTYPE
5
14
100
AcDbSymbolTableRecord
100
AcDbLinetypeTableRecord
2
BYBLOCK
70
0
0
LTYPE
5
15
100
AcDbSymbolTableRecord
100
AcDbLinetypeTableRecord
2
BYLAYER
70
0
0
ENDTAB
0
TABLE
2
LAYER
5
2
100
AcDbSymbolTable
70
2
0
LAYER
5
50
100
AcDbSymbolTableRecord
100
AcDbLayerTableRecord
2
0
70
0
6
CONTINUOUS
0
ENDTAB
0
TABLE
2
STYLE
5
3
100
AcDbSymbolTable
70
1
0
STYLE
5
11
100
AcDbSymbolTableRecord
100
AcDbTextStyleTableRecord
2
STANDARD
70
0
0
ENDTAB
0
TABLE
2
VIEW
5
6
100
AcDbSymbolTable
70
0
0
ENDTAB
0
TABLE
2
UCS
5
7
100
AcDbSymbolTable
70
0
0
ENDTAB
0
TABLE
2
APPID
5
9
100
AcDbSymbolTable
70
2
0
APPID
5
12
100
AcDbSymbolTableRecord
100
AcDbRegAppTableRecord
2
ACAD
70
0
0
ENDTAB
0
TABLE
2
DIMSTYLE
5
A
100
AcDbSymbolTable
70
1
0
ENDTAB
0
TABLE
2
BLOCK_RECORD
5
1
100
AcDbSymbolTable
70
1
0
BLOCK_RECORD
5
1F
100
AcDbSymbolTableRecord
100
AcDbBlockTableRecord
2
*MODEL_SPACE
0
BLOCK_RECORD
5
1B
100
AcDbSymbolTableRecord
100
AcDbBlockTableRecord
2
*PAPER_SPACE
0
ENDTAB
0
ENDSEC
0
SECTION
2
BLOCKS
0
BLOCK
5
20
100
AcDbEntity
100
AcDbBlockBegin
2
*MODEL_SPACE
0
ENDBLK
5
21
100
AcDbEntity
100
AcDbBlockEnd
0
BLOCK
5
1C
100
AcDbEntity
100
AcDbBlockBegin
2
*PAPER_SPACE
0
ENDBLK
5
1D
100
AcDbEntity
100
AcDbBlockEnd
0
ENDSEC
0
SECTION
2
ENTITIES
0
CIRCLE
5
100
100
AcDbEntity
8
0
100
AcDbCircle
10
-37
20
-7.9999999998054871
30
0
40
1.4999999999999991
210
0
220
-0
230
1
0
CIRCLE
5
101
100
AcDbEntity
8
0
100
AcDbCircle
10
-37
20
8.0000000001945111
30
0
40
1.4999999999999991
210
0
220
-0
230
1
0
CIRCLE
5
102
100
AcDbEntity
8
0
100
AcDbCircle
10
0
20
0
30
0
40
50
210
0
220
0
230
1
0
LWPOLYLINE
5
103
100
AcDbEntity
8
0
100
AcDbPolyline
90
8
70
1
43
0.0
10
7.0000001043080209
20
28.450000000000067
10
7.0000001043081088
20
15.000000178813979
42
-0.4142135623730952
10
4.0000001043081266
20
12.000000178813959
10
-4.0000001043081284
20
12.000000178813909
42
-0.41421356237309492
10
-7.0000001043081479
20
15.00000017881389
10
-7.0000001043082367
20
28.449999999999985
42
-0.41421356237309492
10
-4.0000001043082545
20
31.450000000000003
10
4.0000001043080022
20
31.450000000000049
42
-0.41421356237309515
0
CIRCLE
5
104
100
AcDbEntity
8
0
100
AcDbCircle
10
0
20
0
30
0
40
10
210
0
220
0
230
1
0
CIRCLE
5
105
100
AcDbEntity
8
0
100
AcDbCircle
10
14.730000000000008
20
5.2000000000000881
30
0
40
1.0999999999999985
210
0
220
0
230
1
0
CIRCLE
5
106
100
AcDbEntity
8
0
100
AcDbCircle
10
-14.72999999999999
20
5.2000000000001325
30
0
40
1.100000000000001
210
0
220
0
230
1
0
CIRCLE
5
107
100
AcDbEntity
8
0
100
AcDbCircle
10
37
20
-7.9999999998054889
30
0
40
1.4999999999999991
210
0
220
-0
230
1
0
CIRCLE
5
108
100
AcDbEntity
8
0
100
AcDbCircle
10
37
20
8.0000000001945111
30
0
40
1.4999999999999991
210
0
220
-0
230
1
0
LWPOLYLINE
5
109
100
AcDbEntity
8
0
100
AcDbPolyline
90
17
70
1
43
0.0
10
-39.741141959890612
20
15.062922549220715
42
0.52137555652018996
10
-36.96794244559868
20
10.999828207503921
42
-0.41108714103469929
10
-34.000000506639481
20
8.0000000001945111
10
-33.999999999675794
20
-7.9999999998054871
42
-0.41108714103721816
10
-36.967942440207196
20
-10.999828714049913
42
0.52137555652181722
10
-39.741141959943263
20
-15.062922549081808
42
0.1109194657283343
10
-29.482730593020513
20
-30.610759493671051
42
0.19403896856661365
10
-27.401596668807287
20
-31.450000000000156
10
-15.000000178813881
20
-31.450000000000095
42
0.41421356237309548
10
-12.000000178813895
20
-28.450000000000074
10
-12.000000178814002
20
-12.903354012412427
42
-0.41629657806996567
10
-12.817749463738776
20
12.091395607869265
42
0.19134687747738791
10
-12.000000178814087
20
14.149982943046799
10
-12.000000178814149
20
28.449999999999946
42
0.4142135623730957
10
-15.000000178814171
20
31.449999999999932
10
-27.401596668807635
20
31.449999999999854
42
0.19403896856661476
10
-29.482730593020868
20
30.610759493670727
42
0.11091946572744671
0
LWPOLYLINE
5
110
100
AcDbEntity
8
0
100
AcDbPolyline
90
17
70
1
43
0.0
10
39.741141959943263
20
-15.062922549081783
42
0.52137555652181811
10
36.967942441685125
20
-10.999828575750845
42
-0.41108714103721838
10
34.000000137982759
20
-7.9999999998054871
10
33.999999999935177
20
8.0000000001945111
42
-0.41108714103469929
10
36.967942440184117
20
10.999828714179294
42
0.52137555652019263
10
39.741141959890598
20
15.062922549220746
42
0.11091946572744986
10
29.482730593020456
20
30.610759493671111
42
0.19403896856661348
10
27.40159666880723
20
31.450000000000195
10
15.000000178813522
20
31.45000000000012
42
0.41421356237309481
10
12.00000017881354
20
28.450000000000102
10
12.000000178813615
20
14.149982943047277
42
0.1913468774773941
10
12.817749463738364
20
12.091395607869693
42
-0.41629657806998088
10
12.000000178813764
20
-12.903354012412638
10
12.000000178813847
20
-28.449999999999985
42
0.41421356237309453
10
15.000000178813861
20
-31.449999999999964
10
27.401596668807567
20
-31.44999999999991
42
0.19403896856661459
10
29.482730593020801
20
-30.610759493670791
42
0.11091946572833207
0
ENDSEC
0
SECTION
2
OBJECTS
0
DICTIONARY
5
C
100
AcDbDictionary
3
ACAD_GROUP
350
D
3
ACAD_MLINESTYLE
350
17
0
DICTIONARY
5
D
100
AcDbDictionary
0
DICTIONARY
5
1A
330
C
100
AcDbDictionary
0
DICTIONARY
5
17
100
AcDbDictionary
0
ENDSEC
0
EOF
