%TF.GenerationSoftware,KiCad,Pcbnew,(6.0.11)*%
%TF.CreationDate,2023-09-02T14:35:36+09:00*%
%TF.ProjectId,psu_board,7073755f-626f-4617-9264-2e6b69636164,rev?*%
%TF.SameCoordinates,Original*%
%TF.FileFunction,Soldermask,Top*%
%TF.FilePolarity,Negative*%
%FSLAX46Y46*%
G04 Gerber Fmt 4.6, Leading zero omitted, Abs format (unit mm)*
G04 Created by KiCad (PCBNEW (6.0.11)) date 2023-09-02 14:35:36*
%MOMM*%
%LPD*%
G01*
G04 APERTURE LIST*
G04 Aperture macros list*
%AMRoundRect*
0 Rectangle with rounded corners*
0 $1 Rounding radius*
0 $2 $3 $4 $5 $6 $7 $8 $9 X,Y pos of 4 corners*
0 Add a 4 corners polygon primitive as box body*
4,1,4,$2,$3,$4,$5,$6,$7,$8,$9,$2,$3,0*
0 Add four circle primitives for the rounded corners*
1,1,$1+$1,$2,$3*
1,1,$1+$1,$4,$5*
1,1,$1+$1,$6,$7*
1,1,$1+$1,$8,$9*
0 Add four rect primitives between the rounded corners*
20,1,$1+$1,$2,$3,$4,$5,0*
20,1,$1+$1,$4,$5,$6,$7,0*
20,1,$1+$1,$6,$7,$8,$9,0*
20,1,$1+$1,$8,$9,$2,$3,0*%
%AMHorizOval*
0 Thick line with rounded ends*
0 $1 width*
0 $2 $3 position (X,Y) of the first rounded end (center of the circle)*
0 $4 $5 position (X,Y) of the second rounded end (center of the circle)*
0 Add line between two ends*
20,1,$1,$2,$3,$4,$5,0*
0 Add two circle primitives to create the rounded ends*
1,1,$1,$2,$3*
1,1,$1,$4,$5*%
%AMRotRect*
0 Rectangle, with rotation*
0 The origin of the aperture is its center*
0 $1 length*
0 $2 width*
0 $3 Rotation angle, in degrees counterclockwise*
0 Add horizontal line*
21,1,$1,$2,0,0,$3*%
%AMOutline4P*
0 Free polygon, 4 corners , with rotation*
0 The origin of the aperture is its center*
0 number of corners: always 4*
0 $1 to $8 corner X, Y*
0 $9 Rotation angle, in degrees counterclockwise*
0 create outline with 4 corners*
4,1,4,$1,$2,$3,$4,$5,$6,$7,$8,$1,$2,$9*%
G04 Aperture macros list end*
%ADD10C,1.600000*%
%ADD11C,1.700000*%
%ADD12Outline4P,-1.500000X-0.600000X1.500000X-0.600000X1.500000X0.600000X-1.500000X0.600000X0.000000*%
%ADD13Outline4P,-2.035000X-0.885000X2.035000X-0.885000X2.035000X0.885000X-2.035000X0.885000X0.000000*%
%ADD14Outline4P,-0.600000X-1.500000X0.600000X-1.500000X0.600000X1.500000X-0.600000X1.500000X0.000000*%
%ADD15Outline4P,-0.885000X-2.035000X0.885000X-2.035000X0.885000X2.035000X-0.885000X2.035000X0.000000*%
%ADD16Outline4P,-0.750000X-0.600000X0.750000X-0.600000X0.750000X0.600000X-0.750000X0.600000X0.000000*%
%ADD17Outline4P,-0.500000X-0.600000X0.500000X-0.600000X0.500000X0.600000X-0.500000X0.600000X0.000000*%
%ADD18RoundRect,0.250000X-0.157115X-0.927868X0.882115X-0.327868X0.157115X0.927868X-0.882115X0.327868X0*%
%ADD19HorizOval,1.700000X-0.062500X0.108253X0.062500X-0.108253X0*%
%ADD20RoundRect,0.250000X-0.144615X-0.949519X0.894615X-0.349519X0.144615X0.949519X-0.894615X0.349519X0*%
%ADD21HorizOval,1.700000X-0.075000X0.129904X0.075000X-0.129904X0*%
%ADD22HorizOval,2.000000X0.707107X0.707107X-0.707107X-0.707107X0*%
%ADD23RotRect,2.800000X2.800000X45.000000*%
%ADD24HorizOval,2.800000X0.000000X0.000000X0.000000X0.000000X0*%
%ADD25C,1.440000*%
%ADD26C,1.400000*%
%ADD27O,1.400000X1.400000*%
%ADD28HorizOval,1.500000X-0.424264X0.424264X0.424264X-0.424264X0*%
%ADD29RoundRect,0.250001X0.000000X-1.555634X1.555634X0.000000X0.000000X1.555634X-1.555634X0.000000X0*%
%ADD30C,2.700000*%
G04 APERTURE END LIST*
D10*
%TO.C,C4*%
X67700000Y-92890000D03*
X62700000Y-92890000D03*
%TD*%
D11*
%TO.C,SW1*%
X49300000Y-113290000D03*
X54380000Y-113290000D03*
X51840000Y-113290000D03*
%TD*%
D12*
%TO.C,U1*%
X58795000Y-104275000D03*
D13*
X60960000Y-99695000D03*
D12*
X58795000Y-99695000D03*
D14*
X62105000Y-98675000D03*
X64395000Y-98675000D03*
D13*
X65540000Y-99695000D03*
D14*
X66685000Y-98675000D03*
D15*
X68995000Y-100840000D03*
D12*
X69995000Y-99695000D03*
X69995000Y-104275000D03*
X69995000Y-108855000D03*
D14*
X64395000Y-109875000D03*
X62105000Y-109875000D03*
D12*
X58795000Y-108855000D03*
X58795000Y-106565000D03*
D16*
X70745000Y-106565000D03*
D14*
X66685000Y-109875000D03*
D17*
X68995000Y-106565000D03*
%TD*%
D10*
%TO.C,C3*%
X70770000Y-84720000D03*
X68270000Y-84720000D03*
%TD*%
D18*
%TO.C,J3*%
X88250437Y-104427337D03*
D19*
X90415501Y-103177337D03*
X92580564Y-101927337D03*
%TD*%
D20*
%TO.C,J2*%
X86284969Y-95420337D03*
D21*
X88450033Y-94170337D03*
%TD*%
D22*
%TO.C,SW2*%
X40894000Y-97790000D03*
X36651359Y-93547359D03*
%TD*%
D23*
%TO.C,D1*%
X53749872Y-95400129D03*
D24*
X62730128Y-86419873D03*
%TD*%
D25*
%TO.C,RV1*%
X75900000Y-103440000D03*
X75900000Y-105980000D03*
X75900000Y-108520000D03*
%TD*%
D26*
%TO.C,R1*%
X49250000Y-110150000D03*
D27*
X54330000Y-110150000D03*
%TD*%
D11*
%TO.C,U2*%
X72100000Y-92890000D03*
X77180000Y-92890000D03*
X74640000Y-92890000D03*
%TD*%
D10*
%TO.C,C2*%
X74560000Y-98980000D03*
X77060000Y-98980000D03*
%TD*%
D28*
%TO.C,F1*%
X55600279Y-85469720D03*
X58216574Y-82853425D03*
X52559720Y-88510279D03*
X49943425Y-91126574D03*
%TD*%
D29*
%TO.C,BT1*%
X45901020Y-83451163D03*
D30*
X48701163Y-80651020D03*
%TD*%
D10*
%TO.C,C1*%
X53935000Y-106045000D03*
X48935000Y-106045000D03*
%TD*%
D26*
%TO.C,R2*%
X80740000Y-107850000D03*
D27*
X80740000Y-102770000D03*
%TD*%
D20*
%TO.C,J1*%
X81966969Y-87800337D03*
D21*
X84132033Y-86550337D03*
%TD*%
M02*
