M48
; DRILL file {KiCad (6.0.11)} date Sat Sep  2 14:35:38 2023
; FORMAT={-:-/ absolute / metric / decimal}
; #@! TF.CreationDate,2023-09-02T14:35:38+09:00
; #@! TF.GenerationSoftware,Kicad,Pcbnew,(6.0.11)
; #@! TF.FileFunction,Plated,1,2,PTH
FMAT,2
METRIC
; #@! TA.AperFunction,Plated,PTH,ViaDrill
T1C0.400
; #@! TA.AperFunction,Plated,PTH,ComponentDrill
T2C0.500
; #@! TA.AperFunction,Plated,PTH,ComponentDrill
T3C0.700
; #@! TA.AperFunction,Plated,PTH,ComponentDrill
T4C0.800
; #@! TA.AperFunction,Plated,PTH,ComponentDrill
T5C0.950
; #@! TA.AperFunction,Plated,PTH,ComponentDrill
T6C1.000
; #@! TA.AperFunction,Plated,PTH,ComponentDrill
T7C1.400
; #@! TA.AperFunction,Plated,PTH,ComponentDrill
T8C1.700
%
G90
G05
T1
X57.912Y-89.662
X57.912Y-90.678
X57.912Y-91.694
X57.912Y-92.71
X57.912Y-93.726
X57.912Y-94.742
X57.912Y-95.758
X62.103Y-102.616
X62.103Y-103.632
X63.119Y-102.616
X63.119Y-103.632
X64.135Y-102.616
X64.135Y-103.632
X65.151Y-102.616
X65.151Y-103.632
X66.167Y-102.616
X66.167Y-103.632
T3
X49.25Y-110.15
X54.33Y-110.15
X80.74Y-102.77
X80.74Y-107.85
T4
X48.935Y-106.045
X53.935Y-106.045
X62.7Y-92.89
X67.7Y-92.89
X68.27Y-84.72
X70.77Y-84.72
X74.56Y-98.98
X75.9Y-103.44
X75.9Y-105.98
X75.9Y-108.52
X77.06Y-98.98
T5
X88.25Y-104.427
X90.416Y-103.177
X92.581Y-101.927
T6
X49.3Y-113.29
X51.84Y-113.29
X54.38Y-113.29
X72.1Y-92.89
X74.64Y-92.89
X77.18Y-92.89
X81.967Y-87.8
X84.132Y-86.55
X86.285Y-95.42
X88.45Y-94.17
T7
X53.75Y-95.4
X62.73Y-86.42
T8
X45.901Y-83.451
X48.701Y-80.651
T2
G00X50.509Y-91.692
M15
G01X49.378Y-90.561
M16
G05
G00X53.125Y-89.076
M15
G01X51.994Y-87.945
M16
G05
G00X56.166Y-86.035
M15
G01X55.035Y-84.904
M16
G05
G00X58.782Y-83.419
M15
G01X57.651Y-82.288
M16
G05
T6
G00X35.944Y-94.254
M15
G01X37.358Y-92.84
M16
G05
G00X40.187Y-98.497
M15
G01X41.601Y-97.083
M16
G05
T0
M30
