%TF.GenerationSoftware,KiCad,Pcbnew,7.0.9*%
%TF.CreationDate,2024-03-01T11:20:35+09:00*%
%TF.ProjectId,LineIntegratedBoard2,4c696e65-496e-4746-9567-726174656442,rev?*%
%TF.SameCoordinates,Original*%
%TF.FileFunction,Legend,Bot*%
%TF.FilePolarity,Positive*%
%FSLAX46Y46*%
G04 Gerber Fmt 4.6, Leading zero omitted, Abs format (unit mm)*
G04 Created by KiCad (PCBNEW 7.0.9) date 2024-03-01 11:20:35*
%MOMM*%
%LPD*%
G01*
G04 APERTURE LIST*
%ADD10C,0.120000*%
G04 APERTURE END LIST*
D10*
%TO.C,J3*%
X156564290Y-117024000D02*
X156564290Y-108394000D01*
X157509050Y-117024000D02*
X157509050Y-108394000D01*
X156328100Y-117024000D02*
X156328100Y-108394000D01*
X158810000Y-108394000D02*
X145990000Y-108394000D01*
X156210000Y-117024000D02*
X156210000Y-108394000D01*
X156918575Y-117024000D02*
X156918575Y-108394000D01*
X153670000Y-117024000D02*
X153670000Y-108394000D01*
X158810000Y-117024000D02*
X158810000Y-108394000D01*
X150220000Y-108394000D02*
X150220000Y-107984000D01*
X158810000Y-105824000D02*
X157480000Y-105824000D01*
X158453810Y-117024000D02*
X158453810Y-108394000D01*
X152040000Y-108394000D02*
X152040000Y-107984000D01*
X157154765Y-117024000D02*
X157154765Y-108394000D01*
X157863335Y-117024000D02*
X157863335Y-108394000D01*
X158571905Y-117024000D02*
X158571905Y-108394000D01*
X157272860Y-117024000D02*
X157272860Y-108394000D01*
X156446195Y-117024000D02*
X156446195Y-108394000D01*
X157745240Y-117024000D02*
X157745240Y-108394000D01*
X149500000Y-108394000D02*
X149500000Y-107984000D01*
X147680000Y-108394000D02*
X147680000Y-107984000D01*
X152760000Y-108394000D02*
X152760000Y-107984000D01*
X155300000Y-108394000D02*
X155300000Y-107984000D01*
X151130000Y-117024000D02*
X151130000Y-108394000D01*
X156800480Y-117024000D02*
X156800480Y-108394000D01*
X157627145Y-117024000D02*
X157627145Y-108394000D01*
X154580000Y-108394000D02*
X154580000Y-107984000D01*
X157390955Y-117024000D02*
X157390955Y-108394000D01*
X158810000Y-117024000D02*
X145990000Y-117024000D01*
X148590000Y-117024000D02*
X148590000Y-108394000D01*
X158335715Y-117024000D02*
X158335715Y-108394000D01*
X156682385Y-117024000D02*
X156682385Y-108394000D01*
X158810000Y-106934000D02*
X158810000Y-105824000D01*
X145990000Y-117024000D02*
X145990000Y-108394000D01*
X157981430Y-117024000D02*
X157981430Y-108394000D01*
X157840000Y-108394000D02*
X157840000Y-108044000D01*
X146960000Y-108394000D02*
X146960000Y-107984000D01*
X158099525Y-117024000D02*
X158099525Y-108394000D01*
X158690000Y-117024000D02*
X158690000Y-108394000D01*
X158217620Y-117024000D02*
X158217620Y-108394000D01*
X157036670Y-117024000D02*
X157036670Y-108394000D01*
X157120000Y-108394000D02*
X157120000Y-108044000D01*
%TO.C,J1*%
X152013463Y-92116794D02*
X152678463Y-93268608D01*
X152974751Y-91561794D02*
X152013463Y-92116794D01*
X160164148Y-101094195D02*
X159809078Y-101299195D01*
X159804148Y-100470657D02*
X159449078Y-100675657D01*
X158894148Y-98894490D02*
X158539078Y-99099490D01*
X158534148Y-98270952D02*
X158179078Y-98475952D01*
X157624148Y-96694786D02*
X157269078Y-96899786D01*
X157264148Y-96071248D02*
X156909078Y-96276248D01*
X156354148Y-94495081D02*
X155999078Y-94700081D01*
X155994148Y-93871543D02*
X155639078Y-94076543D01*
X155084148Y-92295377D02*
X154781039Y-92470377D01*
X154724148Y-91671839D02*
X154421039Y-91846839D01*
X154239148Y-90831794D02*
X160649148Y-101934240D01*
X168122948Y-97619240D02*
X160649148Y-101934240D01*
X166822948Y-95367574D02*
X159349148Y-99682574D01*
X165552948Y-93167869D02*
X158079148Y-97482869D01*
X164282948Y-90968164D02*
X156809148Y-95283164D01*
X163012948Y-88768460D02*
X155539148Y-93083460D01*
X162953898Y-88666182D02*
X155480098Y-92981182D01*
X162894850Y-88563909D02*
X155421051Y-92878909D01*
X162835803Y-88461636D02*
X155362003Y-92776636D01*
X162776755Y-88359363D02*
X155302956Y-92674363D01*
X162717708Y-88257089D02*
X155243908Y-92572089D01*
X162658660Y-88154816D02*
X155184861Y-92469816D01*
X162599613Y-88052543D02*
X155125813Y-92367543D01*
X162540565Y-87950269D02*
X155066766Y-92265269D01*
X162481518Y-87847996D02*
X155007718Y-92162996D01*
X162422470Y-87745723D02*
X154948671Y-92060723D01*
X162363423Y-87643450D02*
X154889623Y-91958450D01*
X162304375Y-87541176D02*
X154830576Y-91856176D01*
X162245328Y-87438903D02*
X154771528Y-91753903D01*
X162186280Y-87336630D02*
X154712481Y-91651630D01*
X162127233Y-87234357D02*
X154653433Y-91549357D01*
X162068185Y-87132083D02*
X154594386Y-91447083D01*
X162009138Y-87029810D02*
X154535338Y-91344810D01*
X161950090Y-86927537D02*
X154476291Y-91242537D01*
X161891043Y-86825263D02*
X154417243Y-91140263D01*
X161831995Y-86722990D02*
X154358196Y-91037990D01*
X161772948Y-86620717D02*
X154299148Y-90935717D01*
X161712948Y-86516794D02*
X154239148Y-90831794D01*
X161712948Y-86516794D02*
X168122948Y-97619240D01*
%TO.C,J2*%
X136499659Y-95670790D02*
X143973458Y-99985790D01*
X136027279Y-96488976D02*
X143501078Y-100803976D01*
X136617754Y-95466243D02*
X144091553Y-99781243D01*
X142850603Y-101930632D02*
X149260603Y-90828186D01*
X136676804Y-95363966D02*
X144150603Y-99678966D01*
X136322516Y-95977610D02*
X143796315Y-100292610D01*
X137946804Y-93164261D02*
X145420603Y-97479261D01*
X135376804Y-97615632D02*
X142850603Y-101930632D01*
X147145603Y-94491474D02*
X147500673Y-94696474D01*
X145076288Y-103215632D02*
X145741288Y-102063818D01*
X135554899Y-97307162D02*
X143028698Y-101622162D01*
X146235603Y-96067640D02*
X146590673Y-96272640D01*
X136204421Y-96182156D02*
X143678220Y-100497156D01*
X135850136Y-96795796D02*
X143323935Y-101110796D01*
X135495851Y-97409435D02*
X142969650Y-101724435D01*
X136145374Y-96284429D02*
X143619173Y-100599429D01*
X136558706Y-95568517D02*
X144032505Y-99883517D01*
X135909184Y-96693523D02*
X143382983Y-101008523D01*
X147505603Y-93867935D02*
X147860673Y-94072935D01*
X148415603Y-92291769D02*
X148770673Y-92496769D01*
X145875603Y-96691178D02*
X146230673Y-96896178D01*
X144605603Y-98890883D02*
X144960673Y-99095883D01*
X139216804Y-90964557D02*
X146690603Y-95279557D01*
X136381564Y-95875336D02*
X143855363Y-100190336D01*
X135968231Y-96591249D02*
X143442030Y-100906249D01*
X144965603Y-98267344D02*
X145320673Y-98472344D01*
X136086326Y-96386703D02*
X143560125Y-100701703D01*
X135376804Y-97615632D02*
X141786804Y-86513186D01*
X140486804Y-88764852D02*
X147960603Y-93079852D01*
X135613946Y-97204889D02*
X143087745Y-101519889D01*
X136440611Y-95773063D02*
X143914410Y-100088063D01*
X144115000Y-102660632D02*
X145076288Y-103215632D01*
X141786804Y-86513186D02*
X149260603Y-90828186D01*
X135791089Y-96898069D02*
X143264888Y-101213069D01*
X143335603Y-101090587D02*
X143638712Y-101265587D01*
X148775603Y-91668231D02*
X149130673Y-91873231D01*
X135732041Y-97000342D02*
X143205840Y-101315342D01*
X135436804Y-97511709D02*
X142910603Y-101826709D01*
X135672994Y-97102616D02*
X143146793Y-101417616D01*
X136263469Y-96079883D02*
X143737268Y-100394883D01*
X143695603Y-100467049D02*
X143998712Y-100642049D01*
%TD*%
M02*
