0
SECTION
2
HEADER
9
$INSUNITS
70
4
9
$ACADVER
1
AC1014
9
$HANDSEED
5
FFFF
0
ENDSEC
0
SECTION
2
TABLES
0
TABLE
2
VPORT
5
8
100
AcDbSymbolTable
0
ENDTAB
0
TABLE
2
LTYPE
5
5
100
AcDbSymbolTable
0
LTYPE
5
14
100
AcDbSymbolTableRecord
100
AcDbLinetypeTableRecord
2
BYBLOCK
70
0
0
LTYPE
5
15
100
AcDbSymbolTableRecord
100
AcDbLinetypeTableRecord
2
BYLAYER
70
0
0
ENDTAB
0
TABLE
2
LAYER
5
2
100
AcDbSymbolTable
70
2
0
LAYER
5
50
100
AcDbSymbolTableRecord
100
AcDbLayerTableRecord
2
0
70
0
6
CONTINUOUS
0
ENDTAB
0
TABLE
2
STYLE
5
3
100
AcDbSymbolTable
70
1
0
STYLE
5
11
100
AcDbSymbolTableRecord
100
AcDbTextStyleTableRecord
2
STANDARD
70
0
0
ENDTAB
0
TABLE
2
VIEW
5
6
100
AcDbSymbolTable
70
0
0
ENDTAB
0
TABLE
2
UCS
5
7
100
AcDbSymbolTable
70
0
0
ENDTAB
0
TABLE
2
APPID
5
9
100
AcDbSymbolTable
70
2
0
APPID
5
12
100
AcDbSymbolTableRecord
100
AcDbRegAppTableRecord
2
ACAD
70
0
0
ENDTAB
0
TABLE
2
DIMSTYLE
5
A
100
AcDbSymbolTable
70
1
0
ENDTAB
0
TABLE
2
BLOCK_RECORD
5
1
100
AcDbSymbolTable
70
1
0
BLOCK_RECORD
5
1F
100
AcDbSymbolTableRecord
100
AcDbBlockTableRecord
2
*MODEL_SPACE
0
BLOCK_RECORD
5
1B
100
AcDbSymbolTableRecord
100
AcDbBlockTableRecord
2
*PAPER_SPACE
0
ENDTAB
0
ENDSEC
0
SECTION
2
BLOCKS
0
BLOCK
5
20
100
AcDbEntity
100
AcDbBlockBegin
2
*MODEL_SPACE
0
ENDBLK
5
21
100
AcDbEntity
100
AcDbBlockEnd
0
BLOCK
5
1C
100
AcDbEntity
100
AcDbBlockBegin
2
*PAPER_SPACE
0
ENDBLK
5
1D
100
AcDbEntity
100
AcDbBlockEnd
0
ENDSEC
0
SECTION
2
ENTITIES
0
CIRCLE
5
100
100
AcDbEntity
8
0
100
AcDbCircle
10
30.537319332322504
20
72.85926247221947
30
0
40
1.1500000000000021
210
0
220
0
230
1
0
CIRCLE
5
101
100
AcDbEntity
8
0
100
AcDbCircle
10
-30.537319521983278
20
72.859262392727402
30
0
40
1.1499999999999977
210
0
220
0
230
1
0
CIRCLE
5
102
100
AcDbEntity
8
0
100
AcDbCircle
10
10.585696862899834
20
33.000000461935997
30
0
40
1.1499999999999999
210
0
220
0
230
1
0
CIRCLE
5
103
100
AcDbEntity
8
0
100
AcDbCircle
10
-10.585697132052656
20
33.000000491738319
30
0
40
1.1499999999999999
210
0
220
0
230
1
0
LWPOLYLINE
5
104
100
AcDbEntity
8
0
100
AcDbPolyline
90
28
70
1
43
0.0
10
8.0856968628998374
20
31.999999862164259
42
0.21342169517251441
10
10.321764303947333
20
31.000000461935997
10
10.849629421852335
20
31.000000461935997
42
0.28191727552555967
10
13.522084082831681
20
32.636920829262344
42
-0.07859741410599716
10
14.073218400251385
20
33.395161540148322
10
25.371320883726646
20
44.693264023623598
42
0.19891236737966048
10
26.250000540167001
20
46.814584367183244
10
26.250000540166994
20
53.035534650990712
42
-0.41421356237309287
10
29.250000540166997
20
56.035534650990719
10
30.537319332322497
20
56.035534650990719
42
0.41421356237309892
10
33.53731933232249
20
59.035534650990726
10
33.537319332322497
20
72.859262472219456
42
0.30220397619143513
10
31.69696437025884
20
75.626069907873358
42
0.20108960716658164
10
-31.696964567121888
20
75.626069825362592
42
0.30220397548122396
10
-33.537319521983292
20
72.859262392727416
10
-33.537319521983292
20
59.035534650990712
42
0.41421356237309681
10
-30.537319521983292
20
56.035534650990712
10
-29.249999396503071
20
56.035534650990712
42
-0.41421356237309503
10
-26.249999396503071
20
53.035534650990712
10
-26.249999396503068
20
46.814582954366486
42
0.19891236737965667
10
-25.371319740062713
20
44.693262610806848
10
-14.073218669404229
20
33.395161540148337
42
-0.078597414105998395
10
-13.522084351984516
20
32.636920829262344
42
0.28191727552556095
10
-10.849629691005163
20
31.000000461935997
10
-10.32176457310015
20
31.000000461935997
42
0.21342169517251727
10
-8.0856971320526547
20
31.999999862164255
42
-0.21342169517251408
10
-5.8496296910051582
20
32.999999262392521
10
5.849629421852339
20
32.999999262392528
42
-0.21342169517251525
0
LWPOLYLINE
5
105
100
AcDbEntity
8
0
100
AcDbPolyline
90
4
70
1
43
0.0
10
10.585682797808765
20
62.499709422548015
10
10.690478587263083
20
62.731542166358935
42
-0.55863367071964332
10
13.242764159419664
20
62.839961425554506
10
13.366842941355761
20
62.617851334691004
42
-1.4795478340388408
0
LWPOLYLINE
5
106
100
AcDbEntity
8
0
100
AcDbPolyline
90
4
70
1
43
0.0
10
13.366842227590453
20
37.382147530474214
10
13.242765388589428
20
37.160039538853241
42
-0.55863262957936621
10
10.690479652811966
20
37.268455107799092
10
10.585682504185561
20
37.500292403428205
42
-1.4795476042781497
0
LWPOLYLINE
5
107
100
AcDbEntity
8
0
100
AcDbPolyline
90
4
70
1
43
0.0
10
-13.414316254222474
20
62.499709327818501
10
-13.309522276143998
20
62.731542105649353
42
-0.5586333670230722
10
-10.757236331000236
20
62.839961416378181
10
-10.63315921836824
20
62.617850408796514
42
-1.4795479242129232
0
LWPOLYLINE
5
108
100
AcDbEntity
8
0
100
AcDbPolyline
90
4
70
1
43
0.0
10
-13.309521247101783
20
37.268455233858589
10
-13.414318863081578
20
37.500291987576247
42
-1.4795475446019744
10
-10.633157791214586
20
37.382147479890676
10
-10.757235108467725
20
37.160039538211258
42
-0.55863233966164771
0
ENDSEC
0
SECTION
2
OBJECTS
0
DICTIONARY
5
C
100
AcDbDictionary
3
ACAD_GROUP
350
D
3
ACAD_MLINESTYLE
350
17
0
DICTIONARY
5
D
100
AcDbDictionary
0
DICTIONARY
5
1A
330
C
100
AcDbDictionary
0
DICTIONARY
5
17
100
AcDbDictionary
0
ENDSEC
0
EOF
