%TF.GenerationSoftware,KiCad,Pcbnew,7.0.2-0*%
%TF.CreationDate,2023-08-02T22:29:10+09:00*%
%TF.ProjectId,main_board2,6d61696e-5f62-46f6-9172-64322e6b6963,rev?*%
%TF.SameCoordinates,Original*%
%TF.FileFunction,Soldermask,Bot*%
%TF.FilePolarity,Negative*%
%FSLAX46Y46*%
G04 Gerber Fmt 4.6, Leading zero omitted, Abs format (unit mm)*
G04 Created by KiCad (PCBNEW 7.0.2-0) date 2023-08-02 22:29:10*
%MOMM*%
%LPD*%
G01*
G04 APERTURE LIST*
G04 Aperture macros list*
%AMRoundRect*
0 Rectangle with rounded corners*
0 $1 Rounding radius*
0 $2 $3 $4 $5 $6 $7 $8 $9 X,Y pos of 4 corners*
0 Add a 4 corners polygon primitive as box body*
4,1,4,$2,$3,$4,$5,$6,$7,$8,$9,$2,$3,0*
0 Add four circle primitives for the rounded corners*
1,1,$1+$1,$2,$3*
1,1,$1+$1,$4,$5*
1,1,$1+$1,$6,$7*
1,1,$1+$1,$8,$9*
0 Add four rect primitives between the rounded corners*
20,1,$1+$1,$2,$3,$4,$5,0*
20,1,$1+$1,$4,$5,$6,$7,0*
20,1,$1+$1,$6,$7,$8,$9,0*
20,1,$1+$1,$8,$9,$2,$3,0*%
G04 Aperture macros list end*
%ADD10C,1.400000*%
%ADD11O,1.400000X1.400000*%
%ADD12C,1.524000*%
%ADD13C,2.000000*%
%ADD14RoundRect,0.250000X-0.725000X0.600000X-0.725000X-0.600000X0.725000X-0.600000X0.725000X0.600000X0*%
%ADD15O,1.950000X1.700000*%
%ADD16C,1.700000*%
%ADD17RoundRect,0.250000X-0.600000X-0.725000X0.600000X-0.725000X0.600000X0.725000X-0.600000X0.725000X0*%
%ADD18O,1.700000X1.950000*%
%ADD19RoundRect,0.250000X-0.750000X0.600000X-0.750000X-0.600000X0.750000X-0.600000X0.750000X0.600000X0*%
%ADD20O,2.000000X1.700000*%
G04 APERTURE END LIST*
D10*
%TO.C,R4*%
X170180000Y-69850000D03*
D11*
X170180000Y-74930000D03*
%TD*%
D12*
%TO.C,RV2*%
X175260000Y-104140000D03*
X172720000Y-106680000D03*
X170180000Y-104140000D03*
%TD*%
%TO.C,RV3*%
X175260000Y-114300000D03*
X172720000Y-116840000D03*
X170180000Y-114300000D03*
%TD*%
D13*
%TO.C,SW3*%
X161980000Y-145415000D03*
X161980000Y-138915000D03*
X166480000Y-145415000D03*
X166480000Y-138915000D03*
%TD*%
D10*
%TO.C,R3*%
X165100000Y-69850000D03*
D11*
X165100000Y-74930000D03*
%TD*%
D14*
%TO.C,J27*%
X110490000Y-119540000D03*
D15*
X110490000Y-122040000D03*
X110490000Y-124540000D03*
X110490000Y-127040000D03*
X110490000Y-129540000D03*
%TD*%
D16*
%TO.C,U5*%
X122785600Y-130810000D03*
X122785600Y-128270000D03*
X122785600Y-125730000D03*
X122785600Y-123190000D03*
X122785600Y-120650000D03*
X122785600Y-118110000D03*
X122785600Y-115570000D03*
X122785600Y-113030000D03*
X154785600Y-113030000D03*
X154785600Y-115570000D03*
X154785600Y-118110000D03*
X154785600Y-120650000D03*
X154785600Y-123190000D03*
X154785600Y-125730000D03*
X154785600Y-128270000D03*
X154785600Y-130810000D03*
%TD*%
D12*
%TO.C,U4*%
X154305000Y-81915000D03*
X154305000Y-79375000D03*
X154305000Y-76835000D03*
X154305000Y-74295000D03*
X146685000Y-81915000D03*
X146685000Y-79375000D03*
X146685000Y-76835000D03*
X146685000Y-74295000D03*
%TD*%
D16*
%TO.C,U2*%
X175260000Y-64770000D03*
X172720000Y-64770000D03*
X170180000Y-64770000D03*
X167640000Y-64770000D03*
X165100000Y-64770000D03*
X162560000Y-64770000D03*
X160020000Y-64770000D03*
X160020000Y-80010000D03*
X162560000Y-80010000D03*
X165100000Y-80010000D03*
X167640000Y-80010000D03*
X170180000Y-80010000D03*
X172720000Y-80010000D03*
X175260000Y-80010000D03*
%TD*%
D14*
%TO.C,J11*%
X163830000Y-114300000D03*
D15*
X163830000Y-116800000D03*
X163830000Y-119300000D03*
X163830000Y-121800000D03*
X163830000Y-124300000D03*
X163830000Y-126800000D03*
X163830000Y-129300000D03*
%TD*%
D12*
%TO.C,RV4*%
X175260000Y-124460000D03*
X172720000Y-127000000D03*
X170180000Y-124460000D03*
%TD*%
D13*
%TO.C,SW8*%
X151765000Y-145415000D03*
X151765000Y-138915000D03*
X156265000Y-145415000D03*
X156265000Y-138915000D03*
%TD*%
D16*
%TO.C,U3*%
X146405600Y-132080000D03*
X146405600Y-129540000D03*
X146405600Y-127000000D03*
X146405600Y-124460000D03*
X146405600Y-121920000D03*
X146405600Y-119380000D03*
X146405600Y-116840000D03*
X131165600Y-116840000D03*
X131165600Y-119380000D03*
X131165600Y-121920000D03*
X131165600Y-124460000D03*
X131165600Y-127000000D03*
X131165600Y-129540000D03*
X131165600Y-132080000D03*
%TD*%
D17*
%TO.C,J13*%
X146745000Y-65405000D03*
D18*
X149245000Y-65405000D03*
X151745000Y-65405000D03*
X154245000Y-65405000D03*
%TD*%
D13*
%TO.C,SW7*%
X126075000Y-138990000D03*
X126075000Y-145490000D03*
X121575000Y-138990000D03*
X121575000Y-145490000D03*
%TD*%
%TO.C,SW6*%
X116840000Y-138990000D03*
X116840000Y-145490000D03*
X112340000Y-138990000D03*
X112340000Y-145490000D03*
%TD*%
D12*
%TO.C,U1*%
X102235000Y-80010000D03*
X104775000Y-64770000D03*
X104775000Y-80010000D03*
X107315000Y-80010000D03*
X109855000Y-80010000D03*
X112395000Y-80010000D03*
X114935000Y-80010000D03*
X117475000Y-80010000D03*
X120015000Y-80010000D03*
X122555000Y-80010000D03*
X125095000Y-80010000D03*
X127635000Y-80010000D03*
X130175000Y-80010000D03*
X132715000Y-80010000D03*
X135255000Y-80010000D03*
X135255000Y-64770000D03*
X132715000Y-64770000D03*
X130175000Y-64770000D03*
X127635000Y-64770000D03*
X125095000Y-64770000D03*
X122555000Y-64770000D03*
X120015000Y-64770000D03*
X117475000Y-64770000D03*
X114935000Y-64770000D03*
X112395000Y-64770000D03*
X109855000Y-64770000D03*
X107315000Y-64770000D03*
X102235000Y-64770000D03*
%TD*%
D19*
%TO.C,J23*%
X110490000Y-100370000D03*
D20*
X110490000Y-102870000D03*
%TD*%
D19*
%TO.C,J25*%
X163830000Y-100370000D03*
D20*
X163830000Y-102870000D03*
%TD*%
M02*
