%TF.GenerationSoftware,KiCad,Pcbnew,7.0.2-0*%
%TF.CreationDate,2023-08-02T22:29:10+09:00*%
%TF.ProjectId,main_board2,6d61696e-5f62-46f6-9172-64322e6b6963,rev?*%
%TF.SameCoordinates,Original*%
%TF.FileFunction,Copper,L2,Bot*%
%TF.FilePolarity,Positive*%
%FSLAX46Y46*%
G04 Gerber Fmt 4.6, Leading zero omitted, Abs format (unit mm)*
G04 Created by KiCad (PCBNEW 7.0.2-0) date 2023-08-02 22:29:10*
%MOMM*%
%LPD*%
G01*
G04 APERTURE LIST*
G04 Aperture macros list*
%AMRoundRect*
0 Rectangle with rounded corners*
0 $1 Rounding radius*
0 $2 $3 $4 $5 $6 $7 $8 $9 X,Y pos of 4 corners*
0 Add a 4 corners polygon primitive as box body*
4,1,4,$2,$3,$4,$5,$6,$7,$8,$9,$2,$3,0*
0 Add four circle primitives for the rounded corners*
1,1,$1+$1,$2,$3*
1,1,$1+$1,$4,$5*
1,1,$1+$1,$6,$7*
1,1,$1+$1,$8,$9*
0 Add four rect primitives between the rounded corners*
20,1,$1+$1,$2,$3,$4,$5,0*
20,1,$1+$1,$4,$5,$6,$7,0*
20,1,$1+$1,$6,$7,$8,$9,0*
20,1,$1+$1,$8,$9,$2,$3,0*%
G04 Aperture macros list end*
%TA.AperFunction,ComponentPad*%
%ADD10C,1.400000*%
%TD*%
%TA.AperFunction,ComponentPad*%
%ADD11O,1.400000X1.400000*%
%TD*%
%TA.AperFunction,ComponentPad*%
%ADD12C,1.524000*%
%TD*%
%TA.AperFunction,ComponentPad*%
%ADD13C,2.000000*%
%TD*%
%TA.AperFunction,ComponentPad*%
%ADD14RoundRect,0.250000X-0.725000X0.600000X-0.725000X-0.600000X0.725000X-0.600000X0.725000X0.600000X0*%
%TD*%
%TA.AperFunction,ComponentPad*%
%ADD15O,1.950000X1.700000*%
%TD*%
%TA.AperFunction,ComponentPad*%
%ADD16C,1.700000*%
%TD*%
%TA.AperFunction,ComponentPad*%
%ADD17RoundRect,0.250000X-0.600000X-0.725000X0.600000X-0.725000X0.600000X0.725000X-0.600000X0.725000X0*%
%TD*%
%TA.AperFunction,ComponentPad*%
%ADD18O,1.700000X1.950000*%
%TD*%
%TA.AperFunction,ComponentPad*%
%ADD19RoundRect,0.250000X-0.750000X0.600000X-0.750000X-0.600000X0.750000X-0.600000X0.750000X0.600000X0*%
%TD*%
%TA.AperFunction,ComponentPad*%
%ADD20O,2.000000X1.700000*%
%TD*%
%TA.AperFunction,ViaPad*%
%ADD21C,0.800000*%
%TD*%
%TA.AperFunction,Conductor*%
%ADD22C,0.600000*%
%TD*%
G04 APERTURE END LIST*
D10*
%TO.P,R4,1*%
%TO.N,SCL1*%
X170180000Y-69850000D03*
D11*
%TO.P,R4,2*%
%TO.N,+3V3*%
X170180000Y-74930000D03*
%TD*%
D12*
%TO.P,RV2,1,1*%
%TO.N,GND*%
X175260000Y-104140000D03*
%TO.P,RV2,2,2*%
%TO.N,+3V3*%
X172720000Y-106680000D03*
%TO.P,RV2,3,3*%
%TO.N,D1(\u30B8\u30E3\u30A4\u30ED)*%
X170180000Y-104140000D03*
%TD*%
%TO.P,RV3,1,1*%
%TO.N,unconnected-(RV3-Pad1)*%
X175260000Y-114300000D03*
%TO.P,RV3,2,2*%
%TO.N,+5V*%
X172720000Y-116840000D03*
%TO.P,RV3,3,3*%
%TO.N,LED1*%
X170180000Y-114300000D03*
%TD*%
D13*
%TO.P,SW3,1*%
%TO.N,+3V3*%
X161980000Y-145415000D03*
X161980000Y-138915000D03*
%TO.P,SW3,2*%
%TO.N,D2(\u30B8\u30E3\u30A4\u30ED)*%
X166480000Y-145415000D03*
X166480000Y-138915000D03*
%TD*%
D10*
%TO.P,R3,1*%
%TO.N,SDA1*%
X165100000Y-69850000D03*
D11*
%TO.P,R3,2*%
%TO.N,+3V3*%
X165100000Y-74930000D03*
%TD*%
D14*
%TO.P,J27,1,Pin_1*%
%TO.N,+3V3*%
X110490000Y-119540000D03*
D15*
%TO.P,J27,2,Pin_2*%
%TO.N,SCL0*%
X110490000Y-122040000D03*
%TO.P,J27,3,Pin_3*%
%TO.N,GND*%
X110490000Y-124540000D03*
%TO.P,J27,4,Pin_4*%
%TO.N,SDA0*%
X110490000Y-127040000D03*
%TO.P,J27,5,Pin_5*%
%TO.N,D9*%
X110490000Y-129540000D03*
%TD*%
D16*
%TO.P,U5,1,0_RX1_MOSI*%
%TO.N,RX2*%
X122785600Y-130810000D03*
%TO.P,U5,2,1_TX1_MISO*%
%TO.N,TX2*%
X122785600Y-128270000D03*
%TO.P,U5,3,2_TX2_SCLK*%
%TO.N,unconnected-(U5-2_TX2_SCLK-Pad3)*%
X122785600Y-125730000D03*
%TO.P,U5,4,3_RX_SS*%
%TO.N,unconnected-(U5-3_RX_SS-Pad4)*%
X122785600Y-123190000D03*
%TO.P,U5,5,4_SCL_TX*%
%TO.N,unconnected-(U5-4_SCL_TX-Pad5)*%
X122785600Y-120650000D03*
%TO.P,U5,6,5_SDA_RX*%
%TO.N,unconnected-(U5-5_SDA_RX-Pad6)*%
X122785600Y-118110000D03*
%TO.P,U5,7,6_DAC_ADC*%
%TO.N,unconnected-(U5-6_DAC_ADC-Pad7)*%
X122785600Y-115570000D03*
%TO.P,U5,8,3V3*%
%TO.N,+3V3*%
X122785600Y-113030000D03*
%TO.P,U5,9,RESET*%
%TO.N,unconnected-(U5-RESET-Pad9)*%
X154785600Y-113030000D03*
%TO.P,U5,10,BOOT_0*%
%TO.N,unconnected-(U5-BOOT_0-Pad10)*%
X154785600Y-115570000D03*
%TO.P,U5,11,Frame_Sync*%
%TO.N,unconnected-(U5-Frame_Sync-Pad11)*%
X154785600Y-118110000D03*
%TO.P,U5,12,9_CH3_Servo3*%
%TO.N,unconnected-(U5-9_CH3_Servo3-Pad12)*%
X154785600Y-120650000D03*
%TO.P,U5,13,8_SDA_CH2_Servo2*%
%TO.N,unconnected-(U5-8_SDA_CH2_Servo2-Pad13)*%
X154785600Y-123190000D03*
%TO.P,U5,14,7_SCL_CH1_Servo1*%
%TO.N,unconnected-(U5-7_SCL_CH1_Servo1-Pad14)*%
X154785600Y-125730000D03*
%TO.P,U5,15,VIN(3.6V-5V)*%
%TO.N,unconnected-(U5-VIN(3.6V-5V)-Pad15)*%
X154785600Y-128270000D03*
%TO.P,U5,16,GND*%
%TO.N,GND*%
X154785600Y-130810000D03*
%TD*%
D12*
%TO.P,U4,1,VCC*%
%TO.N,+3V3*%
X154305000Y-81915000D03*
%TO.P,U4,2,SCL*%
%TO.N,SCL1*%
X154305000Y-79375000D03*
%TO.P,U4,3,SDA*%
%TO.N,SDA1*%
X154305000Y-76835000D03*
%TO.P,U4,4,SA0*%
%TO.N,GND*%
X154305000Y-74295000D03*
%TO.P,U4,5,GND*%
X146685000Y-81915000D03*
%TO.P,U4,6,INT1*%
X146685000Y-79375000D03*
%TO.P,U4,7,INT2*%
X146685000Y-76835000D03*
%TO.P,U4,8,CS*%
%TO.N,+3V3*%
X146685000Y-74295000D03*
%TD*%
D16*
%TO.P,U2,1,PA02_A0_D0*%
%TO.N,unconnected-(U2-PA02_A0_D0-Pad1)*%
X175260000Y-64770000D03*
%TO.P,U2,2,PA4_A1_D1*%
%TO.N,D1(\u30B8\u30E3\u30A4\u30ED)*%
X172720000Y-64770000D03*
%TO.P,U2,3,PA10_A2_D2*%
%TO.N,D2(\u30B8\u30E3\u30A4\u30ED)*%
X170180000Y-64770000D03*
%TO.P,U2,4,PA11_A3_D3*%
%TO.N,unconnected-(U2-PA11_A3_D3-Pad4)*%
X167640000Y-64770000D03*
%TO.P,U2,5,PA8_A4_D4_SDA*%
%TO.N,SDA1*%
X165100000Y-64770000D03*
%TO.P,U2,6,PA9_A5_D5_SCL*%
%TO.N,SCL1*%
X162560000Y-64770000D03*
%TO.P,U2,7,PB08_A6_D6_TX*%
%TO.N,TX1*%
X160020000Y-64770000D03*
%TO.P,U2,8,PB09_A7_D7_RX*%
%TO.N,RX1*%
X160020000Y-80010000D03*
%TO.P,U2,9,PA7_A8_D8_SCK*%
%TO.N,unconnected-(U2-PA7_A8_D8_SCK-Pad9)*%
X162560000Y-80010000D03*
%TO.P,U2,10,PA5_A9_D9_MISO*%
%TO.N,unconnected-(U2-PA5_A9_D9_MISO-Pad10)*%
X165100000Y-80010000D03*
%TO.P,U2,11,PA6_A10_D10_MOSI*%
%TO.N,unconnected-(U2-PA6_A10_D10_MOSI-Pad11)*%
X167640000Y-80010000D03*
%TO.P,U2,12,3V3*%
%TO.N,+3V3*%
X170180000Y-80010000D03*
%TO.P,U2,13,GND*%
%TO.N,GND*%
X172720000Y-80010000D03*
%TO.P,U2,14,5V*%
%TO.N,+5V*%
X175260000Y-80010000D03*
%TD*%
D14*
%TO.P,J11,1,Pin_1*%
%TO.N,D5*%
X163830000Y-114300000D03*
D15*
%TO.P,J11,2,Pin_2*%
%TO.N,+5V*%
X163830000Y-116800000D03*
%TO.P,J11,3,Pin_3*%
%TO.N,D6*%
X163830000Y-119300000D03*
%TO.P,J11,4,Pin_4*%
%TO.N,GND*%
X163830000Y-121800000D03*
%TO.P,J11,5,Pin_5*%
%TO.N,D7*%
X163830000Y-124300000D03*
%TO.P,J11,6,Pin_6*%
%TO.N,LED2*%
X163830000Y-126800000D03*
%TO.P,J11,7,Pin_7*%
%TO.N,D8*%
X163830000Y-129300000D03*
%TD*%
D12*
%TO.P,RV4,1,1*%
%TO.N,unconnected-(RV4-Pad1)*%
X175260000Y-124460000D03*
%TO.P,RV4,2,2*%
%TO.N,+5V*%
X172720000Y-127000000D03*
%TO.P,RV4,3,3*%
%TO.N,LED2*%
X170180000Y-124460000D03*
%TD*%
D13*
%TO.P,SW8,1*%
%TO.N,+3V3*%
X151765000Y-145415000D03*
X151765000Y-138915000D03*
%TO.P,SW8,2*%
%TO.N,D12*%
X156265000Y-145415000D03*
X156265000Y-138915000D03*
%TD*%
D16*
%TO.P,U3,1,PA02_A0_D0*%
%TO.N,unconnected-(U3-PA02_A0_D0-Pad1)*%
X146405600Y-132080000D03*
%TO.P,U3,2,PA4_A1_D1*%
%TO.N,unconnected-(U3-PA4_A1_D1-Pad2)*%
X146405600Y-129540000D03*
%TO.P,U3,3,PA10_A2_D2*%
%TO.N,unconnected-(U3-PA10_A2_D2-Pad3)*%
X146405600Y-127000000D03*
%TO.P,U3,4,PA11_A3_D3*%
%TO.N,unconnected-(U3-PA11_A3_D3-Pad4)*%
X146405600Y-124460000D03*
%TO.P,U3,5,PA8_A4_D4_SDA*%
%TO.N,unconnected-(U3-PA8_A4_D4_SDA-Pad5)*%
X146405600Y-121920000D03*
%TO.P,U3,6,PA9_A5_D5_SCL*%
%TO.N,unconnected-(U3-PA9_A5_D5_SCL-Pad6)*%
X146405600Y-119380000D03*
%TO.P,U3,7,PB08_A6_D6_TX*%
%TO.N,TX3*%
X146405600Y-116840000D03*
%TO.P,U3,8,PB09_A7_D7_RX*%
%TO.N,RX3*%
X131165600Y-116840000D03*
%TO.P,U3,9,PA7_A8_D8_SCK*%
%TO.N,unconnected-(U3-PA7_A8_D8_SCK-Pad9)*%
X131165600Y-119380000D03*
%TO.P,U3,10,PA5_A9_D9_MISO*%
%TO.N,unconnected-(U3-PA5_A9_D9_MISO-Pad10)*%
X131165600Y-121920000D03*
%TO.P,U3,11,PA6_A10_D10_MOSI*%
%TO.N,unconnected-(U3-PA6_A10_D10_MOSI-Pad11)*%
X131165600Y-124460000D03*
%TO.P,U3,12,3V3*%
%TO.N,+3V3*%
X131165600Y-127000000D03*
%TO.P,U3,13,GND*%
%TO.N,GND*%
X131165600Y-129540000D03*
%TO.P,U3,14,5V*%
%TO.N,+5V*%
X131165600Y-132080000D03*
%TD*%
D17*
%TO.P,J13,1,Pin_1*%
%TO.N,+5V*%
X146745000Y-65405000D03*
D18*
%TO.P,J13,2,Pin_2*%
%TO.N,GND*%
X149245000Y-65405000D03*
%TO.P,J13,3,Pin_3*%
%TO.N,D4*%
X151745000Y-65405000D03*
%TO.P,J13,4,Pin_4*%
%TO.N,LED1*%
X154245000Y-65405000D03*
%TD*%
D13*
%TO.P,SW7,1*%
%TO.N,+3V3*%
X126075000Y-138990000D03*
X126075000Y-145490000D03*
%TO.P,SW7,2*%
%TO.N,D11*%
X121575000Y-138990000D03*
X121575000Y-145490000D03*
%TD*%
%TO.P,SW6,1*%
%TO.N,+3V3*%
X116840000Y-138990000D03*
X116840000Y-145490000D03*
%TO.P,SW6,2*%
%TO.N,D10*%
X112340000Y-138990000D03*
X112340000Y-145490000D03*
%TD*%
D12*
%TO.P,U1,1,GND*%
%TO.N,GND*%
X102235000Y-80010000D03*
X104775000Y-64770000D03*
%TO.P,U1,2,0_RX1_CRX2_CS1*%
%TO.N,RX1*%
X104775000Y-80010000D03*
%TO.P,U1,3,1_TX1_CTX2_MISO1*%
%TO.N,TX1*%
X107315000Y-80010000D03*
%TO.P,U1,4,2_OUT2*%
%TO.N,D2*%
X109855000Y-80010000D03*
%TO.P,U1,5,3_LRCLK2*%
%TO.N,D3*%
X112395000Y-80010000D03*
%TO.P,U1,6,4_BCLK2*%
%TO.N,D4*%
X114935000Y-80010000D03*
%TO.P,U1,7,5_IN2*%
%TO.N,D5*%
X117475000Y-80010000D03*
%TO.P,U1,8,6_OUT1D*%
%TO.N,D6*%
X120015000Y-80010000D03*
%TO.P,U1,9,7_RX2_OUT1A*%
%TO.N,D7*%
X122555000Y-80010000D03*
%TO.P,U1,10,8_TX2_IN1*%
%TO.N,D8*%
X125095000Y-80010000D03*
%TO.P,U1,11,9_OUT1C*%
%TO.N,D9*%
X127635000Y-80010000D03*
%TO.P,U1,12,10_CS_MQSR*%
%TO.N,D10*%
X130175000Y-80010000D03*
%TO.P,U1,13,11_MOSI_CTX1*%
%TO.N,D11*%
X132715000Y-80010000D03*
%TO.P,U1,14,12_MISO_MQSL*%
%TO.N,D12*%
X135255000Y-80010000D03*
%TO.P,U1,20,13_SCK_CRX1_LED*%
%TO.N,unconnected-(U1-13_SCK_CRX1_LED-Pad20)*%
X135255000Y-64770000D03*
%TO.P,U1,21,14_A0_TX3_SPDIF_OUT*%
%TO.N,TX2*%
X132715000Y-64770000D03*
%TO.P,U1,22,15_A1_RX3_SPDIF_IN*%
%TO.N,RX2*%
X130175000Y-64770000D03*
%TO.P,U1,23,16_A2_RX4_SCL1*%
%TO.N,RX3*%
X127635000Y-64770000D03*
%TO.P,U1,24,17_A3_TX4_SDA1*%
%TO.N,TX3*%
X125095000Y-64770000D03*
%TO.P,U1,25,18_A4_SDA0*%
%TO.N,SDA0*%
X122555000Y-64770000D03*
%TO.P,U1,26,19_A5_SCL0*%
%TO.N,SCL0*%
X120015000Y-64770000D03*
%TO.P,U1,27,20_A6_TX5_LRCLK1*%
%TO.N,unconnected-(U1-20_A6_TX5_LRCLK1-Pad27)*%
X117475000Y-64770000D03*
%TO.P,U1,28,21_A7_RX5_BCLK1*%
%TO.N,unconnected-(U1-21_A7_RX5_BCLK1-Pad28)*%
X114935000Y-64770000D03*
%TO.P,U1,29,22_A8_CTX1*%
%TO.N,unconnected-(U1-22_A8_CTX1-Pad29)*%
X112395000Y-64770000D03*
%TO.P,U1,30,23_A9_CRX1_MCLK1*%
%TO.N,unconnected-(U1-23_A9_CRX1_MCLK1-Pad30)*%
X109855000Y-64770000D03*
%TO.P,U1,31,3V3*%
%TO.N,+3V3*%
X107315000Y-64770000D03*
%TO.P,U1,33,VIN*%
%TO.N,+5V*%
X102235000Y-64770000D03*
%TD*%
D19*
%TO.P,J23,1,Pin_1*%
%TO.N,D2*%
X110490000Y-100370000D03*
D20*
%TO.P,J23,2,Pin_2*%
%TO.N,D3*%
X110490000Y-102870000D03*
%TD*%
D19*
%TO.P,J25,1,Pin_1*%
%TO.N,+5V*%
X163830000Y-100370000D03*
D20*
%TO.P,J25,2,Pin_2*%
%TO.N,GND*%
X163830000Y-102870000D03*
%TD*%
D21*
%TO.N,+5V*%
X155575000Y-136525000D03*
X157480000Y-85090000D03*
%TO.N,GND*%
X170815000Y-118745000D03*
%TO.N,D4*%
X115570000Y-69085500D03*
%TO.N,LED1*%
X161290000Y-94615000D03*
X151130000Y-74295000D03*
%TO.N,SCL0*%
X136525000Y-93604000D03*
X123190000Y-78105000D03*
%TO.N,D9*%
X127635000Y-111760000D03*
%TO.N,D12*%
X135255000Y-92204500D03*
%TO.N,TX1*%
X109321788Y-70385500D03*
%TO.N,TX2*%
X135890000Y-73660000D03*
X135890000Y-97790000D03*
%TO.N,RX2*%
X130175000Y-75306000D03*
X134114500Y-95250000D03*
%TO.N,RX3*%
X138430000Y-93980000D03*
X128270000Y-76705500D03*
%TO.N,TX3*%
X144780000Y-86360000D03*
%TD*%
D22*
%TO.N,D5*%
X119380000Y-90805000D02*
X117475000Y-88900000D01*
X117475000Y-88900000D02*
X117475000Y-80010000D01*
X163830000Y-114300000D02*
X140335000Y-90805000D01*
X140335000Y-90805000D02*
X119380000Y-90805000D01*
%TO.N,+5V*%
X138496522Y-132080000D02*
X139415761Y-132999239D01*
X154910000Y-85120000D02*
X154940000Y-85090000D01*
X131165600Y-132080000D02*
X138496522Y-132080000D01*
X146685000Y-70485000D02*
X143623000Y-73547000D01*
X143623000Y-83183323D02*
X145559677Y-85120000D01*
X146745000Y-65405000D02*
X146685000Y-65465000D01*
X145559677Y-85120000D02*
X154910000Y-85120000D01*
X142971522Y-136555000D02*
X155545000Y-136555000D01*
X143623000Y-73547000D02*
X143623000Y-83183323D01*
X155575000Y-136525000D02*
X155545000Y-136555000D01*
X154940000Y-85090000D02*
X157480000Y-85090000D01*
X139415761Y-132999239D02*
X142971522Y-136555000D01*
X146685000Y-65465000D02*
X146685000Y-70485000D01*
%TO.N,D6*%
X165017767Y-112395000D02*
X165805000Y-113182233D01*
X120015000Y-88870000D02*
X120650000Y-89505000D01*
X120015000Y-80010000D02*
X120015000Y-88870000D01*
X163830000Y-112395000D02*
X165017767Y-112395000D01*
X165805000Y-113182233D02*
X165805000Y-118650000D01*
X165805000Y-118650000D02*
X165155000Y-119300000D01*
X165155000Y-119300000D02*
X163830000Y-119300000D01*
X140940000Y-89505000D02*
X163830000Y-112395000D01*
X120650000Y-89505000D02*
X140940000Y-89505000D01*
%TO.N,GND*%
X175260000Y-83896296D02*
X175260000Y-104140000D01*
X170815000Y-116156845D02*
X173449845Y-113522000D01*
X151765000Y-76835000D02*
X154305000Y-74295000D01*
X102235000Y-67310000D02*
X102235000Y-80010000D01*
X137795000Y-129540000D02*
X131165600Y-129540000D01*
X175260000Y-104140000D02*
X175260000Y-106631845D01*
X169402000Y-108442000D02*
X163830000Y-102870000D01*
X146685000Y-81915000D02*
X146685000Y-76835000D01*
X173449845Y-108442000D02*
X169402000Y-108442000D01*
X170815000Y-118745000D02*
X170815000Y-116156845D01*
X109165000Y-124540000D02*
X110490000Y-124540000D01*
X154785600Y-130810000D02*
X150340600Y-135255000D01*
X173449845Y-113522000D02*
X173449845Y-108442000D01*
X172720000Y-81356296D02*
X172720000Y-80010000D01*
X149245000Y-65405000D02*
X149245000Y-74275000D01*
X175260000Y-106631845D02*
X173449845Y-108442000D01*
X149245000Y-74275000D02*
X146685000Y-76835000D01*
X143510000Y-135255000D02*
X137795000Y-129540000D01*
X150340600Y-135255000D02*
X143510000Y-135255000D01*
X175260000Y-83896296D02*
X172720000Y-81356296D01*
X104775000Y-64770000D02*
X102235000Y-67310000D01*
X111205000Y-124540000D02*
X110490000Y-124540000D01*
X102235000Y-80010000D02*
X102235000Y-117610000D01*
X146685000Y-76835000D02*
X151765000Y-76835000D01*
X102235000Y-117610000D02*
X109165000Y-124540000D01*
%TO.N,D7*%
X167105000Y-112643755D02*
X167105000Y-121266295D01*
X141545000Y-88205000D02*
X163195000Y-109855000D01*
X163195000Y-109855000D02*
X164316245Y-109855000D01*
X122555000Y-87570000D02*
X123190000Y-88205000D01*
X123190000Y-88205000D02*
X141545000Y-88205000D01*
X122555000Y-80010000D02*
X122555000Y-87570000D01*
X164071295Y-124300000D02*
X163830000Y-124300000D01*
X164316245Y-109855000D02*
X167105000Y-112643755D01*
X167105000Y-121266295D02*
X164071295Y-124300000D01*
%TO.N,D8*%
X125095000Y-80010000D02*
X125095000Y-86270000D01*
X164600484Y-108300761D02*
X168405000Y-112105277D01*
X168405000Y-127505000D02*
X166610000Y-129300000D01*
X125095000Y-86270000D02*
X125730000Y-86905000D01*
X168405000Y-112105277D02*
X168405000Y-127505000D01*
X163479239Y-108300761D02*
X164600484Y-108300761D01*
X166610000Y-129300000D02*
X163830000Y-129300000D01*
X142083478Y-86905000D02*
X163479239Y-108300761D01*
X125730000Y-86905000D02*
X142083478Y-86905000D01*
%TO.N,D4*%
X115570000Y-69085500D02*
X114935000Y-69720500D01*
X114935000Y-69720500D02*
X114935000Y-80010000D01*
%TO.N,LED1*%
X154245000Y-65405000D02*
X154245000Y-71180000D01*
X164238705Y-106045000D02*
X165100000Y-106045000D01*
X161290000Y-94615000D02*
X161830000Y-95155000D01*
X170180000Y-111125000D02*
X170180000Y-114300000D01*
X161830000Y-95155000D02*
X161830000Y-103636295D01*
X161830000Y-103636295D02*
X164238705Y-106045000D01*
X154245000Y-71180000D02*
X151130000Y-74295000D01*
X165100000Y-106045000D02*
X170180000Y-111125000D01*
%TO.N,D2*%
X109855000Y-99735000D02*
X109855000Y-80010000D01*
X110490000Y-100370000D02*
X109855000Y-99735000D01*
%TO.N,D3*%
X110490000Y-102870000D02*
X111790000Y-102870000D01*
X112490000Y-80105000D02*
X112395000Y-80010000D01*
X112490000Y-102170000D02*
X112490000Y-80105000D01*
X111790000Y-102870000D02*
X112490000Y-102170000D01*
%TO.N,+3V3*%
X170180000Y-81356296D02*
X169621296Y-81915000D01*
X169621296Y-81915000D02*
X154305000Y-81915000D01*
X170180000Y-74930000D02*
X170180000Y-80010000D01*
X172720000Y-106680000D02*
X172720000Y-83896296D01*
X144923000Y-82644845D02*
X146098155Y-83820000D01*
X146685000Y-74295000D02*
X144923000Y-76057000D01*
X170180000Y-81356296D02*
X172720000Y-83896296D01*
X146098155Y-83820000D02*
X152400000Y-83820000D01*
X152400000Y-83820000D02*
X154305000Y-81915000D01*
X170180000Y-80010000D02*
X170180000Y-81356296D01*
X170180000Y-74930000D02*
X165100000Y-74930000D01*
X126075000Y-138990000D02*
X126075000Y-145490000D01*
X151765000Y-138915000D02*
X151765000Y-145415000D01*
X116840000Y-138990000D02*
X116840000Y-145490000D01*
X144923000Y-76057000D02*
X144923000Y-82644845D01*
X161980000Y-138915000D02*
X161980000Y-145415000D01*
%TO.N,SCL0*%
X118110000Y-115012767D02*
X118110000Y-109220000D01*
X120015000Y-74930000D02*
X120015000Y-64770000D01*
X121285000Y-97790000D02*
X125471000Y-93604000D01*
X118110000Y-109220000D02*
X118110000Y-100965000D01*
X110490000Y-122040000D02*
X111082767Y-122040000D01*
X118110000Y-100965000D02*
X121285000Y-97790000D01*
X125471000Y-93604000D02*
X136525000Y-93604000D01*
X123190000Y-78105000D02*
X120015000Y-74930000D01*
X111082767Y-122040000D02*
X118110000Y-115012767D01*
%TO.N,SDA0*%
X101505155Y-63008000D02*
X120793000Y-63008000D01*
X120793000Y-63008000D02*
X122555000Y-64770000D01*
X100473000Y-64040155D02*
X101505155Y-63008000D01*
X109165000Y-127040000D02*
X100473000Y-118348000D01*
X110490000Y-127040000D02*
X109165000Y-127040000D01*
X100473000Y-118348000D02*
X100473000Y-64040155D01*
%TO.N,D9*%
X110490000Y-129540000D02*
X113610000Y-132660000D01*
X113610000Y-132660000D02*
X123880000Y-132660000D01*
X127635000Y-128905000D02*
X127635000Y-111760000D01*
X123880000Y-132660000D02*
X127635000Y-128905000D01*
%TO.N,SDA1*%
X165100000Y-63567919D02*
X165100000Y-64770000D01*
X164452081Y-62920000D02*
X159253704Y-62920000D01*
X165100000Y-69850000D02*
X158115000Y-76835000D01*
X154305000Y-76835000D02*
X158115000Y-76835000D01*
X158115000Y-64058704D02*
X158115000Y-76835000D01*
X159253704Y-62920000D02*
X158115000Y-64058704D01*
X164452081Y-62920000D02*
X165100000Y-63567919D01*
%TO.N,SCL1*%
X170180000Y-69850000D02*
X167640000Y-67310000D01*
X163897919Y-67310000D02*
X162560000Y-65972081D01*
X167640000Y-67310000D02*
X163897919Y-67310000D01*
X167504164Y-69850000D02*
X170180000Y-69850000D01*
X162560000Y-65972081D02*
X162560000Y-64770000D01*
X157979164Y-79375000D02*
X154305000Y-79375000D01*
X157979164Y-79375000D02*
X167504164Y-69850000D01*
%TO.N,D2(\u30B8\u30E3\u30A4\u30ED)*%
X166480000Y-138915000D02*
X166480000Y-145415000D01*
X177110000Y-71776296D02*
X170180000Y-64846296D01*
X170180000Y-64846296D02*
X170180000Y-64770000D01*
X177110000Y-128285000D02*
X177110000Y-71776296D01*
X166480000Y-138915000D02*
X177110000Y-128285000D01*
%TO.N,D10*%
X112340000Y-138990000D02*
X112340000Y-145490000D01*
%TO.N,D11*%
X121575000Y-138990000D02*
X121575000Y-145490000D01*
%TO.N,D12*%
X139896022Y-92204500D02*
X157265000Y-109573478D01*
X157265000Y-137915000D02*
X156265000Y-138915000D01*
X156265000Y-138915000D02*
X156265000Y-145415000D01*
X157265000Y-109573478D02*
X157265000Y-137915000D01*
X135255000Y-92204500D02*
X139896022Y-92204500D01*
%TO.N,TX1*%
X107315000Y-72392288D02*
X109321788Y-70385500D01*
X107315000Y-80010000D02*
X107315000Y-72392288D01*
%TO.N,TX2*%
X135890000Y-97790000D02*
X124635600Y-109044400D01*
X124635600Y-109044400D02*
X124635600Y-127622081D01*
X132715000Y-70485000D02*
X135890000Y-73660000D01*
X124635600Y-127622081D02*
X123987681Y-128270000D01*
X123987681Y-128270000D02*
X122785600Y-128270000D01*
X132715000Y-64770000D02*
X132715000Y-70485000D01*
%TO.N,RX2*%
X125730000Y-95885000D02*
X126365000Y-95250000D01*
X121583519Y-130810000D02*
X120015000Y-129241481D01*
X120015000Y-106045000D02*
X120015000Y-101600000D01*
X120015000Y-129241481D02*
X120015000Y-106045000D01*
X122785600Y-130810000D02*
X121583519Y-130810000D01*
X120015000Y-101600000D02*
X125730000Y-95885000D01*
X130175000Y-75306000D02*
X130175000Y-64770000D01*
X126365000Y-95250000D02*
X134114500Y-95250000D01*
%TO.N,RX3*%
X128270000Y-76705500D02*
X127635000Y-76070500D01*
X127635000Y-76070500D02*
X127635000Y-64770000D01*
X138430000Y-109575600D02*
X138430000Y-93980000D01*
X131165600Y-116840000D02*
X138430000Y-109575600D01*
%TO.N,TX3*%
X136033000Y-63008000D02*
X142323000Y-69298000D01*
X142323000Y-69298000D02*
X142323000Y-83903000D01*
X126857000Y-63008000D02*
X136033000Y-63008000D01*
X142323000Y-83903000D02*
X144780000Y-86360000D01*
X125095000Y-64770000D02*
X126857000Y-63008000D01*
%TD*%
M02*
