%TF.GenerationSoftware,KiCad,Pcbnew,(6.0.11)*%
%TF.CreationDate,2023-10-13T17:07:53+09:00*%
%TF.ProjectId,sensors_board,73656e73-6f72-4735-9f62-6f6172642e6b,rev?*%
%TF.SameCoordinates,Original*%
%TF.FileFunction,Legend,Bot*%
%TF.FilePolarity,Positive*%
%FSLAX46Y46*%
G04 Gerber Fmt 4.6, Leading zero omitted, Abs format (unit mm)*
G04 Created by KiCad (PCBNEW (6.0.11)) date 2023-10-13 17:07:53*
%MOMM*%
%LPD*%
G01*
G04 APERTURE LIST*
%ADD10C,0.120000*%
G04 APERTURE END LIST*
D10*
%TO.C,U1*%
X148590000Y-48127455D02*
X156210000Y-48127455D01*
X156210000Y-48127455D02*
X156210000Y-45587455D01*
X156210000Y-45587455D02*
X148590000Y-45587455D01*
X148590000Y-45587455D02*
X148590000Y-48127455D01*
X154686000Y-45587455D02*
G75*
G03*
X150114000Y-45587455I-2286000J-1270000D01*
G01*
%TO.C,U8*%
X111225172Y-66703326D02*
X116613326Y-61315172D01*
X116613326Y-61315172D02*
X114817275Y-59519121D01*
X114817275Y-59519121D02*
X109429121Y-64907275D01*
X109429121Y-64907275D02*
X111225172Y-66703326D01*
X113739644Y-60596752D02*
G75*
G03*
X110506752Y-63829644I-718420J-2514472D01*
G01*
%TO.C,U3*%
X206820000Y-98680000D02*
X209360000Y-98680000D01*
X209360000Y-98680000D02*
X209360000Y-106300000D01*
X209360000Y-106300000D02*
X206820000Y-106300000D01*
X206820000Y-106300000D02*
X206820000Y-98680000D01*
X209360000Y-104776000D02*
G75*
G03*
X209360000Y-100204000I-1270000J2286000D01*
G01*
%TO.C,J1*%
X127810000Y-98570000D02*
X118690000Y-98570000D01*
X118690000Y-109350000D02*
X127810000Y-109350000D01*
X118690000Y-83690000D02*
X118690000Y-109350000D01*
X133430000Y-88900000D02*
X134430000Y-88400000D01*
X127810000Y-109350000D02*
X127810000Y-83690000D01*
X127810000Y-83690000D02*
X118690000Y-83690000D01*
X127810000Y-94470000D02*
X118690000Y-94470000D01*
X134430000Y-89400000D02*
X133430000Y-88900000D01*
X134430000Y-88400000D02*
X134430000Y-89400000D01*
%TO.C,U4*%
X193574828Y-138276674D02*
X188186674Y-143664828D01*
X188186674Y-143664828D02*
X189982725Y-145460879D01*
X189982725Y-145460879D02*
X195370879Y-140072725D01*
X195370879Y-140072725D02*
X193574828Y-138276674D01*
X191060356Y-144383248D02*
G75*
G03*
X194293248Y-141150356I718420J2514472D01*
G01*
%TO.C,U7*%
X97980000Y-106300000D02*
X95440000Y-106300000D01*
X95440000Y-106300000D02*
X95440000Y-98680000D01*
X95440000Y-98680000D02*
X97980000Y-98680000D01*
X97980000Y-98680000D02*
X97980000Y-106300000D01*
X95440000Y-100204000D02*
G75*
G03*
X95440000Y-104776000I1270000J-2286000D01*
G01*
%TO.C,U6*%
X116613326Y-143664828D02*
X111225172Y-138276674D01*
X111225172Y-138276674D02*
X109429121Y-140072725D01*
X109429121Y-140072725D02*
X114817275Y-145460879D01*
X114817275Y-145460879D02*
X116613326Y-143664828D01*
X110506752Y-141150356D02*
G75*
G03*
X113739644Y-144383248I2514472J-718420D01*
G01*
%TO.C,U2*%
X188146047Y-61355799D02*
X193534201Y-66743953D01*
X193534201Y-66743953D02*
X195330252Y-64947902D01*
X195330252Y-64947902D02*
X189942098Y-59559748D01*
X189942098Y-59559748D02*
X188146047Y-61355799D01*
X194252621Y-63870271D02*
G75*
G03*
X191019729Y-60637379I-2514472J718420D01*
G01*
%TO.C,U5*%
X156210000Y-156852545D02*
X148590000Y-156852545D01*
X148590000Y-156852545D02*
X148590000Y-159392545D01*
X148590000Y-159392545D02*
X156210000Y-159392545D01*
X156210000Y-159392545D02*
X156210000Y-156852545D01*
X150114000Y-159392545D02*
G75*
G03*
X154686000Y-159392545I2286000J1270000D01*
G01*
%TD*%
M02*
