M48
; DRILL file {KiCad (6.0.11)} date Fri Oct 13 17:07:54 2023
; FORMAT={-:-/ absolute / metric / decimal}
; #@! TF.CreationDate,2023-10-13T17:07:54+09:00
; #@! TF.GenerationSoftware,Kicad,Pcbnew,(6.0.11)
; #@! TF.FileFunction,Plated,1,2,PTH
FMAT,2
METRIC
; #@! TA.AperFunction,Plated,PTH,ViaDrill
T1C0.400
; #@! TA.AperFunction,Plated,PTH,ComponentDrill
T2C0.700
; #@! TA.AperFunction,Plated,PTH,ComponentDrill
T3C0.762
; #@! TA.AperFunction,Plated,PTH,ComponentDrill
T4C0.800
; #@! TA.AperFunction,Plated,PTH,ComponentDrill
T5C1.000
; #@! TA.AperFunction,Plated,PTH,ComponentDrill
T6C1.100
%
G90
G05
T1
X98.552Y-109.474
X98.806Y-88.646
X99.06Y-100.076
X99.314Y-124.714
X107.696Y-132.08
X109.728Y-68.58
X112.268Y-137.414
X118.618Y-144.78
X124.714Y-145.796
X126.238Y-102.362
X126.746Y-54.356
X128.016Y-90.17
X128.27Y-56.515
X128.27Y-59.055
X128.778Y-71.628
X128.778Y-149.606
X129.032Y-143.51
X129.54Y-85.344
X129.794Y-60.706
X130.302Y-110.998
X130.556Y-123.444
X130.556Y-133.604
X132.842Y-71.374
X133.096Y-85.09
X133.604Y-112.776
X134.366Y-123.19
X134.62Y-65.532
X134.62Y-133.858
X135.636Y-105.156
X135.636Y-107.188
X135.89Y-60.198
X136.652Y-105.156
X136.652Y-107.188
X138.684Y-104.14
X138.684Y-112.268
X138.938Y-53.086
X138.938Y-64.262
X139.446Y-122.174
X140.208Y-100.33
X140.208Y-133.35
X140.462Y-104.394
X141.732Y-93.98
X141.986Y-67.31
X141.986Y-88.138
X142.494Y-82.296
X144.018Y-100.33
X145.288Y-95.504
X145.796Y-142.748
X145.796Y-149.86
X146.558Y-93.472
X146.558Y-97.79
X146.812Y-80.264
X147.066Y-88.392
X147.828Y-45.974
X148.082Y-56.388
X148.336Y-61.722
X148.59Y-100.33
X148.59Y-149.606
X148.844Y-143.764
X149.098Y-112.014
X150.114Y-94.234
X150.368Y-133.35
X150.876Y-104.648
X151.384Y-54.356
X151.384Y-97.79
X151.638Y-83.566
X151.892Y-59.436
X152.146Y-88.138
X154.686Y-49.276
X154.94Y-94.234
X156.718Y-104.394
X157.734Y-77.47
X158.242Y-68.58
X159.004Y-48.514
X160.02Y-84.836
X160.274Y-87.63
X160.274Y-112.522
X160.782Y-50.546
X160.782Y-58.928
X161.036Y-97.79
X161.798Y-139.7
X162.052Y-72.136
X162.052Y-76.962
X162.306Y-149.606
X163.83Y-48.514
X163.83Y-58.928
X163.83Y-66.04
X164.084Y-104.902
X164.084Y-122.174
X165.1Y-97.79
X166.37Y-72.39
X166.624Y-66.04
X167.894Y-122.174
X168.91Y-52.07
X168.91Y-124.968
X170.942Y-104.394
X173.482Y-59.182
X173.482Y-149.352
X173.99Y-119.888
X173.99Y-124.968
X178.308Y-149.606
X178.562Y-56.134
X181.102Y-98.552
X181.864Y-52.578
X182.118Y-145.034
X184.912Y-149.098
X186.182Y-61.468
X188.214Y-141.732
X188.722Y-59.182
X193.548Y-135.382
X194.056Y-71.882
X195.58Y-138.43
X197.612Y-68.326
X199.136Y-80.01
X199.39Y-135.382
X199.644Y-69.596
X199.644Y-128.778
X201.168Y-98.552
X203.708Y-97.536
X204.724Y-117.094
X207.01Y-106.68
X208.788Y-97.536
X209.042Y-89.662
T2
X101.98Y-99.95
X101.98Y-105.03
X107.932Y-137.432
X111.524Y-133.84
X116.568Y-58.656
X120.16Y-62.248
X149.86Y-52.07
X149.86Y-152.91
X154.94Y-52.07
X154.94Y-152.91
X160.02Y-107.95
X160.02Y-110.49
X165.1Y-107.95
X165.1Y-110.49
X183.624Y-143.492
X187.216Y-147.084
X192.768Y-70.376
X196.36Y-66.784
X202.953Y-99.95
X202.953Y-105.03
T3
X96.71Y-99.95
X96.71Y-102.49
X96.71Y-105.03
X111.225Y-64.907
X111.225Y-140.073
X113.021Y-63.111
X113.021Y-141.869
X114.817Y-61.315
X114.817Y-143.665
X149.86Y-46.857
X149.86Y-158.123
X152.4Y-46.857
X152.4Y-158.123
X154.94Y-46.857
X154.94Y-158.123
X189.942Y-61.356
X189.983Y-143.665
X191.738Y-63.152
X191.779Y-141.869
X193.534Y-64.948
X193.575Y-140.073
X208.09Y-99.95
X208.09Y-102.49
X208.09Y-105.03
T4
X99.44Y-102.49
X99.44Y-104.99
X113.184Y-66.809
X114.952Y-65.042
X114.952Y-139.938
X116.719Y-141.706
X149.9Y-49.53
X152.4Y-49.53
X152.4Y-155.45
X154.9Y-155.45
X165.862Y-122.174
X169.672Y-122.174
X188.081Y-63.274
X189.848Y-65.042
X189.848Y-139.938
X191.616Y-138.171
X205.36Y-99.99
X205.36Y-102.49
T5
X129.54Y-88.9
X129.54Y-91.44
X129.54Y-93.98
X129.54Y-96.52
X129.54Y-99.06
X129.54Y-101.6
X129.54Y-104.14
X132.08Y-88.9
X132.08Y-91.44
X132.08Y-93.98
X132.08Y-96.52
X132.08Y-99.06
X132.08Y-101.6
X132.08Y-104.14
X136.4Y-67.621
X136.4Y-70.161
X136.4Y-72.701
X136.4Y-75.241
X136.4Y-77.781
X136.4Y-80.321
X136.4Y-82.861
X136.4Y-85.401
X140.86Y-108.065
X143.4Y-108.065
X144.78Y-67.31
X144.78Y-69.85
X144.78Y-72.39
X144.78Y-74.93
X144.78Y-77.47
X144.78Y-80.01
X144.78Y-82.55
X145.94Y-108.065
X148.48Y-108.065
X160.02Y-67.31
X160.02Y-69.85
X160.02Y-72.39
X160.02Y-74.93
X160.02Y-77.47
X160.02Y-80.01
X160.02Y-82.55
X168.4Y-67.621
X168.4Y-70.161
X168.4Y-72.701
X168.4Y-75.241
X168.4Y-77.781
X168.4Y-80.321
X168.4Y-82.861
X168.4Y-85.401
T6
X130.1Y-136.815
X130.1Y-141.315
X136.6Y-136.815
X136.6Y-141.315
X140.895Y-136.815
X140.895Y-141.315
X147.395Y-136.815
X147.395Y-141.315
X151.69Y-136.815
X151.69Y-141.315
X158.19Y-136.815
X158.19Y-141.315
X163.12Y-114.844
X163.12Y-119.344
X169.62Y-114.844
X169.62Y-119.344
T0
M30
