%TF.GenerationSoftware,KiCad,Pcbnew,7.0.2-0*%
%TF.CreationDate,2023-08-02T22:46:30+09:00*%
%TF.ProjectId,line_others,6c696e65-5f6f-4746-9865-72732e6b6963,rev?*%
%TF.SameCoordinates,Original*%
%TF.FileFunction,Copper,L2,Bot*%
%TF.FilePolarity,Positive*%
%FSLAX46Y46*%
G04 Gerber Fmt 4.6, Leading zero omitted, Abs format (unit mm)*
G04 Created by KiCad (PCBNEW 7.0.2-0) date 2023-08-02 22:46:30*
%MOMM*%
%LPD*%
G01*
G04 APERTURE LIST*
%TA.AperFunction,ComponentPad*%
%ADD10R,1.800000X1.800000*%
%TD*%
%TA.AperFunction,ComponentPad*%
%ADD11C,1.800000*%
%TD*%
%TA.AperFunction,ComponentPad*%
%ADD12C,1.524000*%
%TD*%
%TA.AperFunction,ComponentPad*%
%ADD13R,1.700000X1.700000*%
%TD*%
%TA.AperFunction,ComponentPad*%
%ADD14O,1.700000X1.700000*%
%TD*%
%TA.AperFunction,Conductor*%
%ADD15C,0.200000*%
%TD*%
G04 APERTURE END LIST*
D10*
%TO.P,D8,1,K*%
%TO.N,K2(-)*%
X153675000Y-88265000D03*
D11*
%TO.P,D8,2,A*%
%TO.N,LED2*%
X151135000Y-88265000D03*
%TD*%
D10*
%TO.P,D6,1,K*%
%TO.N,K2(-)*%
X153670000Y-116205000D03*
D11*
%TO.P,D6,2,A*%
%TO.N,LED2*%
X151130000Y-116205000D03*
%TD*%
D10*
%TO.P,D7,1,K*%
%TO.N,K2(-)*%
X153675000Y-102235000D03*
D11*
%TO.P,D7,2,A*%
%TO.N,LED2*%
X151135000Y-102235000D03*
%TD*%
D12*
%TO.P,U12,1,K(-)*%
%TO.N,K2(-)*%
X153670000Y-106345000D03*
%TO.P,U12,2,VCC*%
%TO.N,+5V*%
X151130000Y-106345000D03*
%TO.P,U12,3,VOUT*%
%TO.N,D6*%
X151130000Y-112095000D03*
%TO.P,U12,4,GND*%
%TO.N,GND*%
X153670000Y-112095000D03*
%TD*%
%TO.P,U11,1,K(-)*%
%TO.N,K2(-)*%
X153670000Y-92375000D03*
%TO.P,U11,2,VCC*%
%TO.N,+5V*%
X151130000Y-92375000D03*
%TO.P,U11,3,VOUT*%
%TO.N,D6*%
X151130000Y-98125000D03*
%TO.P,U11,4,GND*%
%TO.N,GND*%
X153670000Y-98125000D03*
%TD*%
%TO.P,U10,1,K(-)*%
%TO.N,K2(-)*%
X153670000Y-78405000D03*
%TO.P,U10,2,VCC*%
%TO.N,+5V*%
X151130000Y-78405000D03*
%TO.P,U10,3,VOUT*%
%TO.N,D6*%
X151130000Y-84155000D03*
%TO.P,U10,4,GND*%
%TO.N,GND*%
X153670000Y-84155000D03*
%TD*%
D13*
%TO.P,J30,1,Pin_1*%
%TO.N,+5V*%
X156200000Y-121990000D03*
D14*
%TO.P,J30,2,Pin_2*%
%TO.N,GND*%
X153660000Y-121990000D03*
%TO.P,J30,3,Pin_3*%
%TO.N,D6*%
X151120000Y-121990000D03*
%TO.P,J30,4,Pin_4*%
%TO.N,LED2*%
X148580000Y-121990000D03*
%TD*%
D15*
%TO.N,GND*%
X155075000Y-85560000D02*
X153670000Y-84155000D01*
X153660000Y-121990000D02*
X155075000Y-120575000D01*
X155075000Y-99530000D02*
X153670000Y-98125000D01*
X155075000Y-120575000D02*
X155075000Y-113500000D01*
X155075000Y-110690000D02*
X155075000Y-99530000D01*
X153670000Y-112095000D02*
X155075000Y-110690000D01*
X155075000Y-96720000D02*
X155075000Y-85560000D01*
X155075000Y-113500000D02*
X153670000Y-112095000D01*
X153670000Y-98125000D02*
X155075000Y-96720000D01*
%TO.N,D6*%
X149730000Y-113495000D02*
X151130000Y-112095000D01*
X149735000Y-110700000D02*
X149735000Y-99520000D01*
X151120000Y-121990000D02*
X149730000Y-120600000D01*
X149735000Y-85550000D02*
X151130000Y-84155000D01*
X151130000Y-112095000D02*
X149735000Y-110700000D01*
X149730000Y-120600000D02*
X149730000Y-113495000D01*
X149735000Y-99520000D02*
X151130000Y-98125000D01*
X151130000Y-98125000D02*
X149735000Y-96730000D01*
X149735000Y-96730000D02*
X149735000Y-85550000D01*
%TD*%
M02*
