%TF.GenerationSoftware,KiCad,Pcbnew,7.0.9*%
%TF.CreationDate,2023-12-24T01:03:01+09:00*%
%TF.ProjectId,PowerSuplyUnit,506f7765-7253-4757-906c-79556e69742e,rev?*%
%TF.SameCoordinates,Original*%
%TF.FileFunction,Copper,L2,Bot*%
%TF.FilePolarity,Positive*%
%FSLAX46Y46*%
G04 Gerber Fmt 4.6, Leading zero omitted, Abs format (unit mm)*
G04 Created by KiCad (PCBNEW 7.0.9) date 2023-12-24 01:03:01*
%MOMM*%
%LPD*%
G01*
G04 APERTURE LIST*
G04 Aperture macros list*
%AMRoundRect*
0 Rectangle with rounded corners*
0 $1 Rounding radius*
0 $2 $3 $4 $5 $6 $7 $8 $9 X,Y pos of 4 corners*
0 Add a 4 corners polygon primitive as box body*
4,1,4,$2,$3,$4,$5,$6,$7,$8,$9,$2,$3,0*
0 Add four circle primitives for the rounded corners*
1,1,$1+$1,$2,$3*
1,1,$1+$1,$4,$5*
1,1,$1+$1,$6,$7*
1,1,$1+$1,$8,$9*
0 Add four rect primitives between the rounded corners*
20,1,$1+$1,$2,$3,$4,$5,0*
20,1,$1+$1,$4,$5,$6,$7,0*
20,1,$1+$1,$6,$7,$8,$9,0*
20,1,$1+$1,$8,$9,$2,$3,0*%
%AMHorizOval*
0 Thick line with rounded ends*
0 $1 width*
0 $2 $3 position (X,Y) of the first rounded end (center of the circle)*
0 $4 $5 position (X,Y) of the second rounded end (center of the circle)*
0 Add line between two ends*
20,1,$1,$2,$3,$4,$5,0*
0 Add two circle primitives to create the rounded ends*
1,1,$1,$2,$3*
1,1,$1,$4,$5*%
%AMRotRect*
0 Rectangle, with rotation*
0 The origin of the aperture is its center*
0 $1 length*
0 $2 width*
0 $3 Rotation angle, in degrees counterclockwise*
0 Add horizontal line*
21,1,$1,$2,0,0,$3*%
G04 Aperture macros list end*
%TA.AperFunction,ComponentPad*%
%ADD10RoundRect,0.250001X1.099999X1.099999X-1.099999X1.099999X-1.099999X-1.099999X1.099999X-1.099999X0*%
%TD*%
%TA.AperFunction,ComponentPad*%
%ADD11C,2.700000*%
%TD*%
%TA.AperFunction,ComponentPad*%
%ADD12RotRect,2.800000X2.800000X210.000000*%
%TD*%
%TA.AperFunction,ComponentPad*%
%ADD13HorizOval,2.800000X0.000000X0.000000X0.000000X0.000000X0*%
%TD*%
%TA.AperFunction,ComponentPad*%
%ADD14RoundRect,0.250000X0.600000X0.750000X-0.600000X0.750000X-0.600000X-0.750000X0.600000X-0.750000X0*%
%TD*%
%TA.AperFunction,ComponentPad*%
%ADD15O,1.700000X2.000000*%
%TD*%
%TA.AperFunction,ComponentPad*%
%ADD16O,4.000000X2.000000*%
%TD*%
%TA.AperFunction,ComponentPad*%
%ADD17RoundRect,0.250001X-1.099999X1.099999X-1.099999X-1.099999X1.099999X-1.099999X1.099999X1.099999X0*%
%TD*%
%TA.AperFunction,ComponentPad*%
%ADD18C,1.600000*%
%TD*%
%TA.AperFunction,ComponentPad*%
%ADD19C,1.400000*%
%TD*%
%TA.AperFunction,ComponentPad*%
%ADD20O,1.400000X1.400000*%
%TD*%
%TA.AperFunction,SMDPad,CuDef*%
%ADD21R,4.000000X2.000000*%
%TD*%
%TA.AperFunction,ComponentPad*%
%ADD22C,1.440000*%
%TD*%
%TA.AperFunction,ComponentPad*%
%ADD23HorizOval,1.500000X-0.300000X0.519615X0.300000X-0.519615X0*%
%TD*%
%TA.AperFunction,ComponentPad*%
%ADD24R,1.700000X1.700000*%
%TD*%
%TA.AperFunction,ComponentPad*%
%ADD25O,1.700000X1.700000*%
%TD*%
%TA.AperFunction,ComponentPad*%
%ADD26C,1.050000*%
%TD*%
%TA.AperFunction,ViaPad*%
%ADD27C,0.800000*%
%TD*%
%TA.AperFunction,Conductor*%
%ADD28C,4.000000*%
%TD*%
%TA.AperFunction,Conductor*%
%ADD29C,0.800000*%
%TD*%
%TA.AperFunction,Conductor*%
%ADD30C,2.000000*%
%TD*%
%TA.AperFunction,Conductor*%
%ADD31C,1.000000*%
%TD*%
G04 APERTURE END LIST*
D10*
%TO.P,J2,1,Pin_1*%
%TO.N,+12V*%
X138053900Y-143653600D03*
D11*
%TO.P,J2,2,Pin_2*%
%TO.N,GND*%
X134093900Y-143653600D03*
%TD*%
D12*
%TO.P,D1,1,K*%
%TO.N,Net-(D1-K)*%
X155105262Y-54991000D03*
D13*
%TO.P,D1,2,A*%
%TO.N,GND*%
X144106739Y-61341000D03*
%TD*%
D14*
%TO.P,J1,1,Pin_1*%
%TO.N,+48V*%
X137009000Y-90932000D03*
D15*
%TO.P,J1,2,Pin_2*%
%TO.N,GND*%
X134509000Y-90932000D03*
%TD*%
D16*
%TO.P,SW2,1*%
%TO.N,+12V*%
X161798000Y-100838000D03*
%TO.P,SW2,2*%
%TO.N,Net-(D1-K)*%
X161798000Y-94838000D03*
%TD*%
D17*
%TO.P,J2,1,Pin_1*%
%TO.N,+12V*%
X136906000Y-73764000D03*
D11*
%TO.P,J2,2,Pin_2*%
%TO.N,GND*%
X136906000Y-77724000D03*
%TD*%
D18*
%TO.P,C2,1*%
%TO.N,+5V*%
X147534000Y-87249000D03*
%TO.P,C2,2*%
%TO.N,GND*%
X142534000Y-87249000D03*
%TD*%
D19*
%TO.P,R1,1*%
%TO.N,+12V*%
X152113000Y-67270000D03*
D20*
%TO.P,R1,2*%
%TO.N,Net-(U1-ON{slash}OFF_CTRL)*%
X152113000Y-62190000D03*
%TD*%
D19*
%TO.P,R2,1*%
%TO.N,+5V*%
X149860000Y-87249000D03*
D20*
%TO.P,R2,2*%
%TO.N,GND*%
X154940000Y-87249000D03*
%TD*%
D21*
%TO.P,MES1,1,-*%
%TO.N,GND*%
X172353000Y-66929000D03*
%TO.P,MES1,2,+*%
%TO.N,Net-(D1-K)*%
X172353000Y-70104000D03*
%TD*%
D22*
%TO.P,RV1,1,1*%
%TO.N,GND*%
X150368000Y-91694000D03*
%TO.P,RV1,2,2*%
X147828000Y-91694000D03*
%TO.P,RV1,3,3*%
%TO.N,Net-(U1-TRIM)*%
X145288000Y-91694000D03*
%TD*%
D18*
%TO.P,C1,1*%
%TO.N,+12V*%
X154813000Y-67230000D03*
%TO.P,C1,2*%
%TO.N,GND*%
X154813000Y-62230000D03*
%TD*%
D23*
%TO.P,F1,1*%
%TO.N,Net-(BT1-+)*%
X138203502Y-58936000D03*
X141407796Y-57086000D03*
%TO.P,F1,2*%
%TO.N,Net-(D1-K)*%
X145131706Y-54936000D03*
X148336000Y-53086000D03*
%TD*%
D24*
%TO.P,J4,1,Pin_1*%
%TO.N,+48V*%
X145846800Y-140203000D03*
D25*
%TO.P,J4,2,Pin_2*%
%TO.N,GND*%
X145846800Y-142743000D03*
%TD*%
D26*
%TO.P,SW1,1*%
%TO.N,Net-(U1-ON{slash}OFF_CTRL)*%
X148844000Y-65913000D03*
%TO.P,SW1,2*%
%TO.N,GND*%
X146344000Y-65913000D03*
%TO.P,SW1,3*%
%TO.N,N/C*%
X143844000Y-65913000D03*
%TD*%
D14*
%TO.P,J3,1,Pin_1*%
%TO.N,+5V*%
X137009000Y-84074000D03*
D15*
%TO.P,J3,2,Pin_2*%
%TO.N,GND*%
X134509000Y-84074000D03*
%TD*%
D18*
%TO.P,U2,1,IN+*%
%TO.N,+12V*%
X150752000Y-96837500D03*
%TO.P,U2,2,IN-*%
%TO.N,GND*%
X133604000Y-96837500D03*
%TO.P,U2,3,OUT+*%
%TO.N,+48V*%
X150752000Y-136334500D03*
%TO.P,U2,4,OUT-*%
%TO.N,GND*%
X133604000Y-136334500D03*
%TD*%
D17*
%TO.P,BT1,1,+*%
%TO.N,Net-(BT1-+)*%
X136906000Y-65024000D03*
D11*
%TO.P,BT1,2,-*%
%TO.N,GND*%
X136906000Y-68984000D03*
%TD*%
D27*
%TO.N,GND*%
X145084800Y-145745200D03*
X148336000Y-142646400D03*
X154990800Y-103022400D03*
X165455600Y-104444800D03*
X134112000Y-114452400D03*
X141071600Y-110896400D03*
X147421600Y-129743200D03*
X153619200Y-136245600D03*
X158445200Y-130556000D03*
X161899600Y-125018800D03*
X161696400Y-110337600D03*
X152095200Y-117398800D03*
X152247600Y-106730800D03*
X152146000Y-127965200D03*
X138887200Y-131826000D03*
X143002000Y-72644000D03*
X153670000Y-60706000D03*
X173736000Y-78486000D03*
X174742520Y-68458551D03*
X140716000Y-123190000D03*
X145288000Y-101600000D03*
X164084000Y-96774000D03*
X133604000Y-99060000D03*
X160782000Y-89916000D03*
X149479000Y-76835000D03*
X140716000Y-96012000D03*
X146812000Y-68580000D03*
X142748000Y-89408000D03*
X141732000Y-66294000D03*
X146558000Y-63246000D03*
X133604000Y-128270000D03*
X150622000Y-60706000D03*
X143129000Y-81280000D03*
X171704000Y-96266000D03*
X154940000Y-90932000D03*
X167132000Y-113030000D03*
X147320000Y-89408000D03*
%TD*%
D28*
%TO.N,+12V*%
X149199600Y-133096000D02*
X142290800Y-133096000D01*
X142290800Y-133096000D02*
X138053900Y-137332900D01*
X138053900Y-137332900D02*
X138053900Y-143653600D01*
X146853800Y-133096000D02*
X149199600Y-133096000D01*
X149199600Y-133096000D02*
X151587200Y-133096000D01*
X158161200Y-109393200D02*
X158648400Y-109880400D01*
X158648400Y-126034800D02*
X155642000Y-129041200D01*
X158648400Y-109880400D02*
X158648400Y-126034800D01*
X138053900Y-143653600D02*
X138053900Y-141895900D01*
X138053900Y-141895900D02*
X146853800Y-133096000D01*
X155642000Y-129041200D02*
X155642000Y-128838000D01*
X151587200Y-133096000D02*
X155642000Y-129041200D01*
X155642000Y-111912400D02*
X158161200Y-109393200D01*
X158161200Y-109393200D02*
X161798000Y-105756400D01*
X161798000Y-105756400D02*
X161798000Y-100838000D01*
X155642000Y-128838000D02*
X155642000Y-111912400D01*
X155642000Y-111912400D02*
X155642000Y-106994000D01*
X155642000Y-106994000D02*
X161798000Y-100838000D01*
%TO.N,Net-(BT1-+)*%
X139898051Y-63403549D02*
X139898051Y-60858400D01*
X141407796Y-57086000D02*
X139898051Y-58595745D01*
X138203502Y-58936000D02*
X139898051Y-57957651D01*
X136906000Y-65024000D02*
X135940800Y-65024000D01*
X138277600Y-65024000D02*
X139898051Y-63403549D01*
X136906000Y-60233502D02*
X138203502Y-58936000D01*
X136906000Y-65024000D02*
X138277600Y-65024000D01*
X139898051Y-57957651D02*
X141407796Y-57086000D01*
X136906000Y-65024000D02*
X136906000Y-60233502D01*
X135940800Y-65024000D02*
X134467600Y-63550800D01*
X139898051Y-58595745D02*
X139898051Y-60858400D01*
X139898051Y-60858400D02*
X139898051Y-57957651D01*
X134467600Y-61417200D02*
X138203502Y-58936000D01*
X134467600Y-63550800D02*
X134467600Y-61417200D01*
D29*
%TO.N,GND*%
X172353000Y-66929000D02*
X172734000Y-67310000D01*
X174742520Y-68458551D02*
X173882551Y-68458551D01*
X173212969Y-66929000D02*
X174742520Y-68458551D01*
X172734000Y-67310000D02*
X173990000Y-67310000D01*
X173882551Y-68458551D02*
X172353000Y-66929000D01*
X172353000Y-66929000D02*
X173212969Y-66929000D01*
D30*
%TO.N,+5V*%
X146685000Y-84074000D02*
X149860000Y-87249000D01*
X138184000Y-85249000D02*
X137009000Y-84074000D01*
X138633200Y-84074000D02*
X137009000Y-84074000D01*
X147534000Y-87249000D02*
X145306100Y-85021100D01*
X145306100Y-85021100D02*
X144359000Y-84074000D01*
X142348200Y-85249000D02*
X141173200Y-84074000D01*
X144359000Y-84074000D02*
X141173200Y-84074000D01*
X141173200Y-84074000D02*
X138633200Y-84074000D01*
X137009000Y-84074000D02*
X146685000Y-84074000D01*
X147534000Y-87249000D02*
X145534000Y-85249000D01*
X145534000Y-85249000D02*
X142348200Y-85249000D01*
X149860000Y-87249000D02*
X147534000Y-87249000D01*
X142348200Y-85249000D02*
X138184000Y-85249000D01*
%TO.N,Net-(D1-K)*%
X155105262Y-57505600D02*
X157619862Y-57505600D01*
X155105262Y-54991000D02*
X155105262Y-57505600D01*
D28*
X145131706Y-54936000D02*
X148336000Y-53086000D01*
D31*
X174714164Y-64719200D02*
X162610800Y-64719200D01*
X175787035Y-67498055D02*
X175710233Y-66500683D01*
D30*
X158648400Y-58534138D02*
X157898938Y-59283600D01*
X155105262Y-58890062D02*
X157175200Y-60960000D01*
X158642800Y-91694000D02*
X158642800Y-94838000D01*
X157175200Y-93370400D02*
X158642800Y-94838000D01*
D31*
X160045400Y-62153800D02*
X158648400Y-60756800D01*
X159918400Y-62280800D02*
X160045400Y-62153800D01*
X159918400Y-63449200D02*
X159918400Y-62280800D01*
X158648400Y-60756800D02*
X158648400Y-60553600D01*
D30*
X161798000Y-94838000D02*
X162808400Y-94838000D01*
D31*
X175710233Y-66500683D02*
X175696928Y-66358501D01*
D30*
X156972000Y-59283600D02*
X156260800Y-59283600D01*
D31*
X175554015Y-65801404D02*
X175436354Y-65540424D01*
D28*
X147653704Y-57658000D02*
X155346400Y-57658000D01*
D31*
X160934400Y-63449200D02*
X159918400Y-63449200D01*
D30*
X156260800Y-59283600D02*
X157175200Y-60198000D01*
D31*
X175696928Y-66358501D02*
X175641029Y-66074144D01*
D28*
X145131706Y-54936000D02*
X145131706Y-55136002D01*
D31*
X162077400Y-64185800D02*
X160934400Y-64185800D01*
X162610800Y-64719200D02*
X160629600Y-64719200D01*
X160934400Y-64185800D02*
X160934400Y-63449200D01*
X175006000Y-70104000D02*
X175889121Y-69220879D01*
X160629600Y-64719200D02*
X158699200Y-64719200D01*
X162610800Y-64719200D02*
X162077400Y-64185800D01*
D30*
X155105262Y-57505600D02*
X155105262Y-58102338D01*
X158648400Y-64668400D02*
X158648400Y-90017600D01*
D31*
X175889121Y-69220879D02*
X175787035Y-67498055D01*
D30*
X158642800Y-94838000D02*
X161798000Y-94838000D01*
X158261131Y-58146869D02*
X158648400Y-58534138D01*
D31*
X160629600Y-64719200D02*
X160096200Y-64185800D01*
X172353000Y-70104000D02*
X175006000Y-70104000D01*
X175641029Y-66074144D02*
X175554015Y-65801404D01*
D30*
X158648400Y-90017600D02*
X158648400Y-91688400D01*
D31*
X159639000Y-63728600D02*
X158648400Y-62738000D01*
X160096200Y-64185800D02*
X159639000Y-63728600D01*
D28*
X150241000Y-54991000D02*
X155105262Y-54991000D01*
D30*
X158648400Y-91688400D02*
X161798000Y-94838000D01*
D31*
X158699200Y-64719200D02*
X158648400Y-64668400D01*
D30*
X157175200Y-60198000D02*
X157175200Y-60960000D01*
D31*
X160934400Y-63449200D02*
X160934400Y-63042800D01*
X175436354Y-65540424D02*
X175289592Y-65294628D01*
D30*
X158648400Y-90678000D02*
X158648400Y-90017600D01*
D31*
X160934400Y-64185800D02*
X160096200Y-64185800D01*
X162610800Y-64719200D02*
X160553400Y-62661800D01*
D30*
X155105262Y-54991000D02*
X155105262Y-58890062D01*
X162808400Y-94838000D02*
X158648400Y-90678000D01*
X157619862Y-57505600D02*
X158261131Y-58146869D01*
D28*
X155346400Y-57658000D02*
X156972000Y-59283600D01*
D31*
X159918400Y-63449200D02*
X159639000Y-63728600D01*
D30*
X155092400Y-58115200D02*
X156260800Y-59283600D01*
D31*
X160934400Y-63042800D02*
X160553400Y-62661800D01*
D28*
X148336000Y-53086000D02*
X150241000Y-54991000D01*
D30*
X158648400Y-91688400D02*
X158642800Y-91694000D01*
D28*
X145131706Y-55136002D02*
X147653704Y-57658000D01*
D30*
X158648400Y-62738000D02*
X158648400Y-64668400D01*
X157175200Y-60960000D02*
X157175200Y-93370400D01*
D31*
X160553400Y-62661800D02*
X160045400Y-62153800D01*
D30*
X157898938Y-59283600D02*
X156972000Y-59283600D01*
X158648400Y-60553600D02*
X158648400Y-62738000D01*
X155105262Y-58102338D02*
X155092400Y-58115200D01*
D31*
X175289592Y-65294628D02*
X174714164Y-64719200D01*
D30*
X155105262Y-54991000D02*
X158261131Y-58146869D01*
X158648400Y-58534138D02*
X158648400Y-60553600D01*
%TD*%
%TA.AperFunction,Conductor*%
%TO.N,GND*%
G36*
X152454141Y-47803337D02*
G01*
X152615687Y-47811804D01*
X152774238Y-47826672D01*
X152778109Y-47827159D01*
X152936856Y-47852302D01*
X152939722Y-47852828D01*
X153094301Y-47885081D01*
X153097628Y-47885873D01*
X153252899Y-47927478D01*
X153256176Y-47928455D01*
X153406166Y-47977810D01*
X153408939Y-47978799D01*
X153558942Y-48036379D01*
X153562555Y-48037900D01*
X153707336Y-48104316D01*
X153851438Y-48177740D01*
X153855243Y-48179853D01*
X153991818Y-48262146D01*
X154126911Y-48349877D01*
X154130860Y-48352668D01*
X154257817Y-48450085D01*
X154382179Y-48550791D01*
X154386176Y-48554323D01*
X154502384Y-48666264D01*
X154614276Y-48778156D01*
X154618169Y-48782432D01*
X154677845Y-48854456D01*
X154723394Y-48909432D01*
X154755020Y-48948487D01*
X154820459Y-49029299D01*
X154824149Y-49034358D01*
X154924875Y-49188198D01*
X154996753Y-49298881D01*
X154998443Y-49301637D01*
X157099248Y-52940339D01*
X159254659Y-56673620D01*
X159271132Y-56741520D01*
X159248279Y-56807547D01*
X159193358Y-56850738D01*
X159123805Y-56857379D01*
X159061702Y-56825363D01*
X159059591Y-56823301D01*
X158749477Y-56513187D01*
X158744386Y-56507422D01*
X158727601Y-56485857D01*
X158658940Y-56422649D01*
X157623911Y-55387621D01*
X157590426Y-55326298D01*
X157588570Y-55284402D01*
X157605762Y-55148318D01*
X157605762Y-54833682D01*
X157605761Y-54833680D01*
X157605761Y-54833670D01*
X157573941Y-54581793D01*
X157566328Y-54521527D01*
X157512767Y-54312921D01*
X157488081Y-54216774D01*
X157488080Y-54216771D01*
X157372260Y-53924242D01*
X157372259Y-53924241D01*
X157372258Y-53924239D01*
X157372256Y-53924234D01*
X157220678Y-53648516D01*
X157220672Y-53648509D01*
X157220670Y-53648504D01*
X157035746Y-53393978D01*
X157035738Y-53393968D01*
X157022386Y-53379749D01*
X156820356Y-53164610D01*
X156820354Y-53164608D01*
X156820352Y-53164606D01*
X156577927Y-52964054D01*
X156577923Y-52964051D01*
X156312271Y-52795464D01*
X156312265Y-52795461D01*
X156027583Y-52661499D01*
X156027578Y-52661497D01*
X155728345Y-52564270D01*
X155728342Y-52564269D01*
X155728341Y-52564269D01*
X155573809Y-52534790D01*
X155419273Y-52505311D01*
X155419266Y-52505310D01*
X155183851Y-52490500D01*
X155183845Y-52490500D01*
X152831534Y-52490500D01*
X152764495Y-52470815D01*
X152718740Y-52418011D01*
X152708796Y-52348853D01*
X152737821Y-52285297D01*
X152796599Y-52247523D01*
X152801094Y-52246294D01*
X152888881Y-52224063D01*
X153116607Y-52124173D01*
X153324785Y-51988164D01*
X153507738Y-51819744D01*
X153660474Y-51623509D01*
X153778828Y-51404810D01*
X153859571Y-51169614D01*
X153900500Y-50924335D01*
X153900500Y-50675665D01*
X153859571Y-50430386D01*
X153778828Y-50195190D01*
X153660474Y-49976491D01*
X153507738Y-49780256D01*
X153324785Y-49611836D01*
X153324782Y-49611833D01*
X153116606Y-49475826D01*
X152888881Y-49375936D01*
X152647824Y-49314892D01*
X152647813Y-49314890D01*
X152482548Y-49301197D01*
X152462067Y-49299500D01*
X152337933Y-49299500D01*
X152318521Y-49301108D01*
X152152186Y-49314890D01*
X152152175Y-49314892D01*
X151911118Y-49375936D01*
X151683393Y-49475826D01*
X151475217Y-49611833D01*
X151292261Y-49780257D01*
X151139524Y-49976493D01*
X151021172Y-50195188D01*
X151021169Y-50195197D01*
X150940429Y-50430383D01*
X150910885Y-50607435D01*
X150899500Y-50675665D01*
X150899500Y-50924335D01*
X150900355Y-50929459D01*
X150940429Y-51169616D01*
X151021169Y-51404802D01*
X151021172Y-51404811D01*
X151139524Y-51623506D01*
X151139526Y-51623509D01*
X151292262Y-51819744D01*
X151451744Y-51966557D01*
X151475217Y-51988166D01*
X151683393Y-52124173D01*
X151911118Y-52224063D01*
X151998906Y-52246294D01*
X152059062Y-52281834D01*
X152090454Y-52344254D01*
X152083116Y-52413738D01*
X152039377Y-52468223D01*
X151973124Y-52490412D01*
X151968466Y-52490500D01*
X151328103Y-52490500D01*
X151261064Y-52470815D01*
X151240422Y-52454181D01*
X150113396Y-51327155D01*
X150012474Y-51224097D01*
X150012473Y-51224096D01*
X150012469Y-51224092D01*
X150012459Y-51224084D01*
X149941760Y-51168047D01*
X149939270Y-51165965D01*
X149871607Y-51106312D01*
X149871606Y-51106311D01*
X149819193Y-51070691D01*
X149815531Y-51068000D01*
X149765890Y-51028656D01*
X149765888Y-51028654D01*
X149714109Y-50997296D01*
X149688717Y-50981918D01*
X149686010Y-50980180D01*
X149611375Y-50929459D01*
X149601317Y-50924334D01*
X149554910Y-50900688D01*
X149550938Y-50898477D01*
X149496772Y-50865672D01*
X149496756Y-50865664D01*
X149414361Y-50828979D01*
X149411432Y-50827582D01*
X149331035Y-50786618D01*
X149271417Y-50765153D01*
X149267201Y-50763458D01*
X149209334Y-50737694D01*
X149209330Y-50737693D01*
X149209328Y-50737692D01*
X149171880Y-50726385D01*
X149122957Y-50711614D01*
X149119877Y-50710595D01*
X149034995Y-50680037D01*
X148997858Y-50671736D01*
X148973152Y-50666213D01*
X148968779Y-50665066D01*
X148908120Y-50646753D01*
X148819178Y-50631709D01*
X148816005Y-50631087D01*
X148727941Y-50611402D01*
X148727924Y-50611400D01*
X148664858Y-50605438D01*
X148660354Y-50604845D01*
X148597895Y-50594281D01*
X148597884Y-50594280D01*
X148507755Y-50590503D01*
X148504517Y-50590283D01*
X148468260Y-50586856D01*
X148414698Y-50581793D01*
X148414695Y-50581793D01*
X148351369Y-50583782D01*
X148346826Y-50583758D01*
X148283535Y-50581106D01*
X148283521Y-50581106D01*
X148193643Y-50588653D01*
X148190403Y-50588840D01*
X148100209Y-50591675D01*
X148037635Y-50601587D01*
X148033123Y-50602133D01*
X147970002Y-50607433D01*
X147969987Y-50607435D01*
X147881746Y-50626190D01*
X147878556Y-50626781D01*
X147789463Y-50640892D01*
X147789454Y-50640895D01*
X147728608Y-50658572D01*
X147724200Y-50659679D01*
X147662239Y-50672849D01*
X147662237Y-50672850D01*
X147577033Y-50702519D01*
X147573948Y-50703504D01*
X147487312Y-50728675D01*
X147487311Y-50728675D01*
X147429161Y-50753838D01*
X147424929Y-50755488D01*
X147365094Y-50776326D01*
X147284301Y-50816432D01*
X147281358Y-50817797D01*
X147198548Y-50853634D01*
X147198546Y-50853635D01*
X147074382Y-50927066D01*
X143904133Y-52757410D01*
X143789224Y-52820582D01*
X143789214Y-52820588D01*
X143704325Y-52882265D01*
X143616924Y-52940334D01*
X143616914Y-52940341D01*
X143602564Y-52952727D01*
X143579116Y-52972966D01*
X143575068Y-52976174D01*
X143562196Y-52985527D01*
X143534677Y-53005520D01*
X143458180Y-53077356D01*
X143378744Y-53145922D01*
X143378743Y-53145923D01*
X143345333Y-53183028D01*
X143341700Y-53186737D01*
X143305317Y-53220904D01*
X143238428Y-53301758D01*
X143168210Y-53379743D01*
X143168206Y-53379749D01*
X143139720Y-53420733D01*
X143136581Y-53424868D01*
X143104758Y-53463336D01*
X143048523Y-53551950D01*
X142988639Y-53638112D01*
X142965510Y-53682350D01*
X142962915Y-53686846D01*
X142936172Y-53728986D01*
X142936170Y-53728990D01*
X142891488Y-53823944D01*
X142842867Y-53916947D01*
X142825469Y-53963727D01*
X142823458Y-53968513D01*
X142802202Y-54013687D01*
X142802201Y-54013689D01*
X142769772Y-54113495D01*
X142733196Y-54211844D01*
X142721796Y-54260444D01*
X142720400Y-54265445D01*
X142704974Y-54312924D01*
X142685310Y-54416006D01*
X142661348Y-54518167D01*
X142656128Y-54567818D01*
X142655370Y-54572952D01*
X142646019Y-54621973D01*
X142646016Y-54622000D01*
X142640237Y-54713859D01*
X142616382Y-54779530D01*
X142560809Y-54821879D01*
X142491163Y-54827461D01*
X142467237Y-54819875D01*
X142412872Y-54796350D01*
X142281124Y-54737692D01*
X142271970Y-54734929D01*
X142265259Y-54732473D01*
X142256482Y-54728674D01*
X142146321Y-54696670D01*
X142117959Y-54688430D01*
X142066349Y-54672848D01*
X141979922Y-54646754D01*
X141979910Y-54646751D01*
X141970487Y-54645157D01*
X141963528Y-54643563D01*
X141954347Y-54640895D01*
X141954339Y-54640893D01*
X141811867Y-54618329D01*
X141765573Y-54610499D01*
X141669687Y-54594281D01*
X141669685Y-54594280D01*
X141669680Y-54594280D01*
X141660126Y-54593879D01*
X141653025Y-54593170D01*
X141643588Y-54591675D01*
X141499424Y-54587145D01*
X141355333Y-54581106D01*
X141355318Y-54581106D01*
X141345787Y-54581906D01*
X141338658Y-54582092D01*
X141334740Y-54581970D01*
X141329105Y-54581793D01*
X141329096Y-54581793D01*
X141185488Y-54595367D01*
X141041796Y-54607433D01*
X141041785Y-54607435D01*
X141032437Y-54609421D01*
X141025393Y-54610499D01*
X141015863Y-54611401D01*
X141015858Y-54611401D01*
X141015858Y-54611402D01*
X140883921Y-54640893D01*
X140875067Y-54642872D01*
X140734042Y-54672848D01*
X140734025Y-54672852D01*
X140725002Y-54675994D01*
X140718145Y-54677947D01*
X140708798Y-54680037D01*
X140708798Y-54680038D01*
X140618333Y-54712607D01*
X140573100Y-54728892D01*
X140500327Y-54754234D01*
X140436900Y-54776322D01*
X140436888Y-54776327D01*
X140428322Y-54780579D01*
X140421762Y-54783377D01*
X140412765Y-54786616D01*
X140284232Y-54852107D01*
X140225599Y-54881213D01*
X140215672Y-54886945D01*
X140212820Y-54888493D01*
X140132433Y-54929452D01*
X140132419Y-54929460D01*
X140080010Y-54965075D01*
X140076161Y-54967489D01*
X138717701Y-55751797D01*
X138717688Y-55751805D01*
X138670462Y-55779069D01*
X138555573Y-55842231D01*
X138555559Y-55842239D01*
X138536941Y-55855765D01*
X138531498Y-55859300D01*
X137011365Y-56736951D01*
X137008512Y-56738499D01*
X136928133Y-56779455D01*
X136928120Y-56779462D01*
X136809015Y-56860406D01*
X133173480Y-59274947D01*
X133169047Y-59277631D01*
X133125114Y-59301784D01*
X133125106Y-59301789D01*
X133040396Y-59363335D01*
X133018748Y-59377714D01*
X133018742Y-59377718D01*
X132976822Y-59409525D01*
X132870570Y-59486722D01*
X132870565Y-59486726D01*
X132870557Y-59486733D01*
X132853946Y-59502331D01*
X132848982Y-59506525D01*
X132830821Y-59520305D01*
X132736946Y-59612203D01*
X132641209Y-59702106D01*
X132641207Y-59702108D01*
X132626677Y-59719671D01*
X132622279Y-59724453D01*
X132605990Y-59740399D01*
X132605971Y-59740421D01*
X132524368Y-59843342D01*
X132440651Y-59944538D01*
X132428432Y-59963790D01*
X132424671Y-59969082D01*
X132410503Y-59986953D01*
X132342443Y-60099290D01*
X132272063Y-60210192D01*
X132272059Y-60210198D01*
X132262347Y-60230834D01*
X132259279Y-60236556D01*
X132247465Y-60256058D01*
X132194039Y-60376002D01*
X132139675Y-60491533D01*
X132138093Y-60494894D01*
X132131048Y-60516576D01*
X132128718Y-60522643D01*
X132119440Y-60543475D01*
X132081464Y-60669181D01*
X132040868Y-60794123D01*
X132036591Y-60816533D01*
X132035042Y-60822839D01*
X132028454Y-60844652D01*
X132028452Y-60844658D01*
X132006528Y-60974140D01*
X131981912Y-61103182D01*
X131980478Y-61125940D01*
X131979732Y-61132391D01*
X131975927Y-61154872D01*
X131975925Y-61154886D01*
X131970403Y-61286106D01*
X131967100Y-61338612D01*
X131967100Y-61364610D01*
X131962696Y-61469234D01*
X131966883Y-61519197D01*
X131967100Y-61524376D01*
X131967100Y-63511527D01*
X131963404Y-63629162D01*
X131963393Y-63629498D01*
X131971717Y-63717564D01*
X131974499Y-63746996D01*
X131981910Y-63864804D01*
X131981912Y-63864815D01*
X131988745Y-63900639D01*
X131989568Y-63906421D01*
X131993002Y-63942738D01*
X132018750Y-64057929D01*
X132040869Y-64173879D01*
X132050551Y-64203680D01*
X132052140Y-64208569D01*
X132053682Y-64214204D01*
X132061638Y-64249798D01*
X132101620Y-64360851D01*
X132138094Y-64473108D01*
X132138100Y-64473122D01*
X132153625Y-64506115D01*
X132155861Y-64511513D01*
X132168218Y-64545834D01*
X132221810Y-64651015D01*
X132272060Y-64757803D01*
X132291601Y-64788595D01*
X132294497Y-64793671D01*
X132311055Y-64826167D01*
X132311060Y-64826177D01*
X132377408Y-64923805D01*
X132440651Y-65023461D01*
X132440653Y-65023464D01*
X132463900Y-65051565D01*
X132467409Y-65056238D01*
X132487912Y-65086406D01*
X132565977Y-65174953D01*
X132641206Y-65265890D01*
X132641208Y-65265892D01*
X132727252Y-65346694D01*
X134144905Y-66764347D01*
X134189368Y-66811694D01*
X134225706Y-66850390D01*
X134313682Y-66923170D01*
X134316646Y-66925622D01*
X134405193Y-67003688D01*
X134411381Y-67007893D01*
X134435363Y-67024191D01*
X134440030Y-67027694D01*
X134465136Y-67048464D01*
X134468141Y-67050950D01*
X134529341Y-67089788D01*
X134567794Y-67114191D01*
X134665425Y-67180541D01*
X134665433Y-67180545D01*
X134665438Y-67180548D01*
X134697925Y-67197101D01*
X134703002Y-67199997D01*
X134733781Y-67219530D01*
X134733787Y-67219533D01*
X134733793Y-67219537D01*
X134840601Y-67269797D01*
X134945768Y-67323382D01*
X134980085Y-67335736D01*
X134985473Y-67337968D01*
X135005410Y-67347350D01*
X135018480Y-67353501D01*
X135018483Y-67353502D01*
X135018485Y-67353503D01*
X135130752Y-67389981D01*
X135241803Y-67429962D01*
X135252589Y-67432373D01*
X135277398Y-67437919D01*
X135283031Y-67439459D01*
X135317721Y-67450731D01*
X135433668Y-67472849D01*
X135548862Y-67498598D01*
X135585182Y-67502030D01*
X135590952Y-67502852D01*
X135626785Y-67509688D01*
X135626788Y-67509688D01*
X135626791Y-67509689D01*
X135744596Y-67517100D01*
X135748508Y-67517469D01*
X135753214Y-67517914D01*
X135818104Y-67543812D01*
X135829237Y-67553683D01*
X136507391Y-68231837D01*
X136388569Y-68303331D01*
X136254342Y-68430477D01*
X136151138Y-68582692D01*
X135433039Y-67864593D01*
X135345701Y-67981264D01*
X135218884Y-68213512D01*
X135126400Y-68461471D01*
X135070152Y-68720039D01*
X135051274Y-68983998D01*
X135051274Y-68984001D01*
X135070152Y-69247960D01*
X135126400Y-69506528D01*
X135218884Y-69754487D01*
X135345701Y-69986735D01*
X135345706Y-69986743D01*
X135433038Y-70103406D01*
X135433039Y-70103406D01*
X136154766Y-69381679D01*
X136198316Y-69463822D01*
X136318009Y-69604735D01*
X136465195Y-69716623D01*
X136507402Y-69736150D01*
X135786592Y-70456959D01*
X135786593Y-70456960D01*
X135903256Y-70544293D01*
X135903264Y-70544298D01*
X136135513Y-70671115D01*
X136135512Y-70671115D01*
X136383471Y-70763599D01*
X136642039Y-70819847D01*
X136905999Y-70838726D01*
X136906001Y-70838726D01*
X137169960Y-70819847D01*
X137428528Y-70763599D01*
X137676487Y-70671115D01*
X137908735Y-70544298D01*
X137908736Y-70544297D01*
X138025406Y-70456959D01*
X137304609Y-69736161D01*
X137423431Y-69664669D01*
X137557658Y-69537523D01*
X137660861Y-69385308D01*
X138378959Y-70103406D01*
X138466297Y-69986736D01*
X138466298Y-69986735D01*
X138593115Y-69754487D01*
X138685599Y-69506528D01*
X138741847Y-69247960D01*
X138760726Y-68984001D01*
X138760726Y-68983998D01*
X138741847Y-68720039D01*
X138685599Y-68461471D01*
X138593115Y-68213512D01*
X138466298Y-67981264D01*
X138466293Y-67981256D01*
X138378960Y-67864593D01*
X138378959Y-67864592D01*
X137657232Y-68586319D01*
X137613684Y-68504178D01*
X137493991Y-68363265D01*
X137346805Y-68251377D01*
X137304596Y-68231849D01*
X137975627Y-67560819D01*
X138036950Y-67527334D01*
X138063308Y-67524500D01*
X138238328Y-67524500D01*
X138356298Y-67528207D01*
X138473796Y-67517100D01*
X138591615Y-67509688D01*
X138627467Y-67502848D01*
X138633207Y-67502031D01*
X138669538Y-67498598D01*
X138784729Y-67472849D01*
X138900679Y-67450731D01*
X138935386Y-67439453D01*
X138940983Y-67437921D01*
X138976596Y-67429962D01*
X139087651Y-67389979D01*
X139199915Y-67353503D01*
X139232930Y-67337966D01*
X139238301Y-67335741D01*
X139272632Y-67323383D01*
X139377815Y-67269789D01*
X139484607Y-67219537D01*
X139515413Y-67199985D01*
X139520469Y-67197102D01*
X139552975Y-67180541D01*
X139650605Y-67114191D01*
X139689059Y-67089788D01*
X139750252Y-67050955D01*
X139750263Y-67050947D01*
X139757085Y-67045303D01*
X139778379Y-67027686D01*
X139783013Y-67024206D01*
X139813205Y-67003689D01*
X139901753Y-66925622D01*
X139992694Y-66850390D01*
X140073493Y-66764347D01*
X140924840Y-65913000D01*
X142813538Y-65913000D01*
X142833337Y-66114031D01*
X142891978Y-66307345D01*
X142987198Y-66485488D01*
X142987203Y-66485495D01*
X143115352Y-66641647D01*
X143224016Y-66730824D01*
X143271506Y-66769798D01*
X143271509Y-66769799D01*
X143271511Y-66769801D01*
X143449654Y-66865021D01*
X143449656Y-66865021D01*
X143449659Y-66865023D01*
X143642967Y-66923662D01*
X143844000Y-66943462D01*
X144045033Y-66923662D01*
X144238341Y-66865023D01*
X144265716Y-66850391D01*
X144390852Y-66783504D01*
X144416494Y-66769798D01*
X144572647Y-66641647D01*
X144700798Y-66485494D01*
X144796023Y-66307341D01*
X144854662Y-66114033D01*
X144874462Y-65913000D01*
X145314040Y-65913000D01*
X145333829Y-66113932D01*
X145392442Y-66307152D01*
X145463450Y-66439996D01*
X145946046Y-65957400D01*
X145958835Y-66038148D01*
X146016359Y-66151045D01*
X146105955Y-66240641D01*
X146218852Y-66298165D01*
X146299599Y-66310953D01*
X145817002Y-66793548D01*
X145817003Y-66793549D01*
X145949847Y-66864557D01*
X146143067Y-66923170D01*
X146344000Y-66942959D01*
X146544932Y-66923170D01*
X146738150Y-66864557D01*
X146870996Y-66793548D01*
X146388401Y-66310953D01*
X146469148Y-66298165D01*
X146582045Y-66240641D01*
X146671641Y-66151045D01*
X146729165Y-66038148D01*
X146741953Y-65957400D01*
X147224548Y-66439996D01*
X147295557Y-66307150D01*
X147354170Y-66113932D01*
X147373959Y-65913000D01*
X147813538Y-65913000D01*
X147833337Y-66114031D01*
X147891978Y-66307345D01*
X147987198Y-66485488D01*
X147987203Y-66485495D01*
X148115352Y-66641647D01*
X148224016Y-66730824D01*
X148271506Y-66769798D01*
X148271509Y-66769799D01*
X148271511Y-66769801D01*
X148449654Y-66865021D01*
X148449656Y-66865021D01*
X148449659Y-66865023D01*
X148642967Y-66923662D01*
X148844000Y-66943462D01*
X149045033Y-66923662D01*
X149238341Y-66865023D01*
X149265716Y-66850391D01*
X149390852Y-66783504D01*
X149416494Y-66769798D01*
X149572647Y-66641647D01*
X149700798Y-66485494D01*
X149796023Y-66307341D01*
X149854662Y-66114033D01*
X149874462Y-65913000D01*
X149854662Y-65711967D01*
X149796023Y-65518659D01*
X149796021Y-65518656D01*
X149796021Y-65518654D01*
X149700801Y-65340511D01*
X149700799Y-65340509D01*
X149700798Y-65340506D01*
X149639564Y-65265892D01*
X149572647Y-65184352D01*
X149416495Y-65056203D01*
X149416488Y-65056198D01*
X149238345Y-64960978D01*
X149045031Y-64902337D01*
X148844000Y-64882538D01*
X148642968Y-64902337D01*
X148449654Y-64960978D01*
X148271511Y-65056198D01*
X148271504Y-65056203D01*
X148115352Y-65184352D01*
X147987203Y-65340504D01*
X147987198Y-65340511D01*
X147891978Y-65518654D01*
X147833337Y-65711968D01*
X147813538Y-65913000D01*
X147373959Y-65913000D01*
X147354170Y-65712067D01*
X147295557Y-65518847D01*
X147224549Y-65386003D01*
X147224548Y-65386002D01*
X146741953Y-65868598D01*
X146729165Y-65787852D01*
X146671641Y-65674955D01*
X146582045Y-65585359D01*
X146469148Y-65527835D01*
X146388401Y-65515046D01*
X146870996Y-65032450D01*
X146738152Y-64961442D01*
X146544932Y-64902829D01*
X146344000Y-64883040D01*
X146143067Y-64902829D01*
X145949845Y-64961443D01*
X145817002Y-65032449D01*
X146299599Y-65515046D01*
X146218852Y-65527835D01*
X146105955Y-65585359D01*
X146016359Y-65674955D01*
X145958835Y-65787852D01*
X145946046Y-65868598D01*
X145463449Y-65386002D01*
X145392443Y-65518845D01*
X145333829Y-65712067D01*
X145314040Y-65913000D01*
X144874462Y-65913000D01*
X144854662Y-65711967D01*
X144796023Y-65518659D01*
X144796021Y-65518656D01*
X144796021Y-65518654D01*
X144700801Y-65340511D01*
X144700799Y-65340509D01*
X144700798Y-65340506D01*
X144639564Y-65265892D01*
X144572647Y-65184352D01*
X144416495Y-65056203D01*
X144416488Y-65056198D01*
X144238345Y-64960978D01*
X144045031Y-64902337D01*
X143844000Y-64882538D01*
X143642968Y-64902337D01*
X143449654Y-64960978D01*
X143271511Y-65056198D01*
X143271504Y-65056203D01*
X143115352Y-65184352D01*
X142987203Y-65340504D01*
X142987198Y-65340511D01*
X142891978Y-65518654D01*
X142833337Y-65711968D01*
X142813538Y-65913000D01*
X140924840Y-65913000D01*
X141638398Y-65199442D01*
X141724441Y-65118643D01*
X141799673Y-65027702D01*
X141877740Y-64939154D01*
X141898244Y-64908980D01*
X141901751Y-64904311D01*
X141902977Y-64902829D01*
X141924998Y-64876212D01*
X141988248Y-64776545D01*
X142054592Y-64678923D01*
X142071159Y-64646407D01*
X142074037Y-64641361D01*
X142093588Y-64610556D01*
X142143842Y-64503759D01*
X142197434Y-64398581D01*
X142209792Y-64364250D01*
X142212017Y-64358879D01*
X142227554Y-64325864D01*
X142252270Y-64249796D01*
X142264030Y-64213600D01*
X142265841Y-64208569D01*
X142304013Y-64102545D01*
X142311972Y-64066932D01*
X142313504Y-64061335D01*
X142324782Y-64026628D01*
X142346900Y-63910678D01*
X142372649Y-63795487D01*
X142376082Y-63759161D01*
X142376900Y-63753406D01*
X142383739Y-63717564D01*
X142383739Y-63717562D01*
X142383740Y-63717558D01*
X142391150Y-63599765D01*
X142391379Y-63597343D01*
X142402259Y-63482247D01*
X142398551Y-63364256D01*
X142398551Y-62602170D01*
X142418236Y-62535131D01*
X142471040Y-62489376D01*
X142540198Y-62479432D01*
X142603754Y-62508457D01*
X142621819Y-62527860D01*
X142667148Y-62588414D01*
X142667156Y-62588423D01*
X142859315Y-62780582D01*
X142859333Y-62780598D01*
X143076895Y-62943462D01*
X143076903Y-62943467D01*
X143315428Y-63073712D01*
X143315432Y-63073714D01*
X143570084Y-63168694D01*
X143835641Y-63226462D01*
X143835648Y-63226463D01*
X144106738Y-63245853D01*
X144106740Y-63245853D01*
X144377829Y-63226463D01*
X144377836Y-63226462D01*
X144643389Y-63168695D01*
X144832551Y-63098141D01*
X144217418Y-62032702D01*
X144275490Y-62025651D01*
X144434434Y-61965371D01*
X144574334Y-61868806D01*
X144650503Y-61782828D01*
X145265065Y-62847281D01*
X145354147Y-62780595D01*
X145354165Y-62780579D01*
X145546321Y-62588423D01*
X145546337Y-62588405D01*
X145709201Y-62370843D01*
X145709206Y-62370835D01*
X145839451Y-62132310D01*
X145839453Y-62132306D01*
X145934433Y-61877654D01*
X145992201Y-61612097D01*
X145992202Y-61612090D01*
X146011592Y-61341001D01*
X146011592Y-61340998D01*
X145992202Y-61069909D01*
X145992201Y-61069902D01*
X145934434Y-60804349D01*
X145863879Y-60615186D01*
X144800162Y-61229324D01*
X144766057Y-61090954D01*
X144687059Y-60940434D01*
X144574334Y-60813194D01*
X144550007Y-60796402D01*
X145613020Y-60182672D01*
X145546331Y-60093588D01*
X145546321Y-60093576D01*
X145354162Y-59901417D01*
X145354144Y-59901401D01*
X145136582Y-59738537D01*
X145136574Y-59738532D01*
X144898049Y-59608287D01*
X144898045Y-59608285D01*
X144643393Y-59513305D01*
X144377836Y-59455537D01*
X144377829Y-59455536D01*
X144106740Y-59436147D01*
X144106738Y-59436147D01*
X143835648Y-59455536D01*
X143835641Y-59455537D01*
X143570078Y-59513307D01*
X143380925Y-59583856D01*
X143380925Y-59583857D01*
X143996058Y-60649297D01*
X143937988Y-60656349D01*
X143779044Y-60716629D01*
X143639144Y-60813194D01*
X143562974Y-60899171D01*
X142948411Y-59834718D01*
X142859327Y-59901406D01*
X142859315Y-59901417D01*
X142667156Y-60093576D01*
X142667140Y-60093594D01*
X142621818Y-60154139D01*
X142565885Y-60196011D01*
X142496193Y-60200995D01*
X142434870Y-60167510D01*
X142401385Y-60106187D01*
X142398551Y-60079829D01*
X142398551Y-59682847D01*
X142418236Y-59615808D01*
X142434866Y-59595170D01*
X143109497Y-58920538D01*
X143112777Y-58917491D01*
X143160763Y-58876072D01*
X143221158Y-58808994D01*
X143223344Y-58806692D01*
X143231483Y-58798554D01*
X143231483Y-58798553D01*
X143231492Y-58798545D01*
X143231491Y-58798545D01*
X143274793Y-58749428D01*
X143274794Y-58749427D01*
X143371295Y-58642252D01*
X143376758Y-58634391D01*
X143381151Y-58628788D01*
X143387485Y-58621605D01*
X143468558Y-58502308D01*
X143550863Y-58383888D01*
X143555299Y-58375400D01*
X143558964Y-58369279D01*
X143564337Y-58361374D01*
X143629800Y-58232894D01*
X143696633Y-58105057D01*
X143699968Y-58096088D01*
X143702836Y-58089553D01*
X143707179Y-58081032D01*
X143756028Y-57945347D01*
X143806306Y-57810154D01*
X143808491Y-57800834D01*
X143810520Y-57793989D01*
X143813758Y-57784996D01*
X143843240Y-57653100D01*
X143877073Y-57591972D01*
X143938587Y-57558837D01*
X144008249Y-57564219D01*
X144051934Y-57592471D01*
X145857809Y-59398347D01*
X145902272Y-59445694D01*
X145938610Y-59484390D01*
X146029550Y-59559622D01*
X146118099Y-59637689D01*
X146139674Y-59652351D01*
X146148267Y-59658191D01*
X146152942Y-59661701D01*
X146181045Y-59684950D01*
X146208079Y-59702106D01*
X146280707Y-59748197D01*
X146378330Y-59814541D01*
X146378335Y-59814544D01*
X146378343Y-59814548D01*
X146410826Y-59831099D01*
X146415903Y-59833995D01*
X146419129Y-59836042D01*
X146446697Y-59853537D01*
X146446699Y-59853538D01*
X146446701Y-59853539D01*
X146553493Y-59903791D01*
X146633462Y-59944538D01*
X146658672Y-59957383D01*
X146693000Y-59969741D01*
X146698381Y-59971970D01*
X146715598Y-59980072D01*
X146731383Y-59987501D01*
X146731386Y-59987502D01*
X146731388Y-59987502D01*
X146731389Y-59987503D01*
X146843652Y-60023979D01*
X146954708Y-60063962D01*
X146972017Y-60067831D01*
X146990295Y-60071917D01*
X146995932Y-60073459D01*
X147027242Y-60083631D01*
X147030625Y-60084731D01*
X147146574Y-60106849D01*
X147261766Y-60132598D01*
X147298093Y-60136031D01*
X147303842Y-60136849D01*
X147334917Y-60142777D01*
X147339688Y-60143688D01*
X147457487Y-60151099D01*
X147575006Y-60162208D01*
X147692996Y-60158500D01*
X154200310Y-60158500D01*
X154267349Y-60178185D01*
X154287991Y-60194819D01*
X154813664Y-60720492D01*
X154847149Y-60781815D01*
X154842165Y-60851507D01*
X154800293Y-60907440D01*
X154736790Y-60931701D01*
X154586400Y-60944858D01*
X154586389Y-60944860D01*
X154366682Y-61003730D01*
X154366673Y-61003734D01*
X154160513Y-61099868D01*
X154087526Y-61150973D01*
X154768599Y-61832046D01*
X154687852Y-61844835D01*
X154574955Y-61902359D01*
X154485359Y-61991955D01*
X154427835Y-62104852D01*
X154415046Y-62185599D01*
X153733973Y-61504526D01*
X153733972Y-61504527D01*
X153682868Y-61577513D01*
X153586734Y-61783673D01*
X153586731Y-61783680D01*
X153537442Y-61967630D01*
X153501077Y-62027290D01*
X153438230Y-62057819D01*
X153368854Y-62049524D01*
X153314976Y-62005039D01*
X153298401Y-61969470D01*
X153297877Y-61967630D01*
X153237229Y-61754472D01*
X153178972Y-61637476D01*
X153138061Y-61555316D01*
X153138056Y-61555308D01*
X153003979Y-61377761D01*
X152839562Y-61227876D01*
X152839560Y-61227874D01*
X152650404Y-61110754D01*
X152650398Y-61110752D01*
X152442940Y-61030382D01*
X152224243Y-60989500D01*
X152001757Y-60989500D01*
X151783060Y-61030382D01*
X151651864Y-61081207D01*
X151575601Y-61110752D01*
X151575595Y-61110754D01*
X151386439Y-61227874D01*
X151386437Y-61227876D01*
X151222020Y-61377761D01*
X151087943Y-61555308D01*
X151087938Y-61555316D01*
X150988775Y-61754461D01*
X150988769Y-61754476D01*
X150927885Y-61968462D01*
X150927884Y-61968464D01*
X150907357Y-62189999D01*
X150907357Y-62190000D01*
X150927884Y-62411535D01*
X150927885Y-62411537D01*
X150988769Y-62625523D01*
X150988775Y-62625538D01*
X151087938Y-62824683D01*
X151087943Y-62824691D01*
X151222020Y-63002238D01*
X151386437Y-63152123D01*
X151386439Y-63152125D01*
X151575595Y-63269245D01*
X151575596Y-63269245D01*
X151575599Y-63269247D01*
X151783060Y-63349618D01*
X152001757Y-63390500D01*
X152001759Y-63390500D01*
X152224241Y-63390500D01*
X152224243Y-63390500D01*
X152442940Y-63349618D01*
X152650401Y-63269247D01*
X152839562Y-63152124D01*
X152988503Y-63016346D01*
X153003979Y-63002238D01*
X153048365Y-62943462D01*
X153138058Y-62824689D01*
X153237229Y-62625528D01*
X153287374Y-62449286D01*
X153324652Y-62390195D01*
X153387961Y-62360637D01*
X153457201Y-62369999D01*
X153510387Y-62415308D01*
X153524875Y-62451799D01*
X153526458Y-62451376D01*
X153586730Y-62676317D01*
X153586734Y-62676326D01*
X153682865Y-62882481D01*
X153682866Y-62882483D01*
X153733973Y-62955471D01*
X153733974Y-62955472D01*
X154415046Y-62274399D01*
X154427835Y-62355148D01*
X154485359Y-62468045D01*
X154574955Y-62557641D01*
X154687852Y-62615165D01*
X154768597Y-62627953D01*
X154087526Y-63309025D01*
X154087526Y-63309026D01*
X154160512Y-63360131D01*
X154160516Y-63360133D01*
X154366673Y-63456265D01*
X154366682Y-63456269D01*
X154586389Y-63515139D01*
X154586400Y-63515141D01*
X154812998Y-63534966D01*
X154813002Y-63534966D01*
X155039599Y-63515141D01*
X155039610Y-63515139D01*
X155259317Y-63456269D01*
X155259326Y-63456265D01*
X155465483Y-63360133D01*
X155465485Y-63360132D01*
X155479574Y-63350267D01*
X155545780Y-63327938D01*
X155613548Y-63344947D01*
X155661362Y-63395894D01*
X155674700Y-63451840D01*
X155674700Y-66007550D01*
X155655015Y-66074589D01*
X155602211Y-66120344D01*
X155533053Y-66130288D01*
X155479579Y-66109126D01*
X155465734Y-66099432D01*
X155465732Y-66099431D01*
X155259497Y-66003261D01*
X155259488Y-66003258D01*
X155039697Y-65944366D01*
X155039693Y-65944365D01*
X155039692Y-65944365D01*
X155039691Y-65944364D01*
X155039686Y-65944364D01*
X154813002Y-65924532D01*
X154812998Y-65924532D01*
X154586313Y-65944364D01*
X154586302Y-65944366D01*
X154366511Y-66003258D01*
X154366502Y-66003261D01*
X154160267Y-66099431D01*
X154160265Y-66099432D01*
X153973858Y-66229954D01*
X153812954Y-66390858D01*
X153682432Y-66577265D01*
X153682431Y-66577267D01*
X153586261Y-66783502D01*
X153586258Y-66783511D01*
X153526136Y-67007893D01*
X153489771Y-67067554D01*
X153426924Y-67098083D01*
X153357548Y-67089788D01*
X153303671Y-67045303D01*
X153287095Y-67009734D01*
X153286571Y-67007893D01*
X153237229Y-66834472D01*
X153216852Y-66793549D01*
X153138061Y-66635316D01*
X153138056Y-66635308D01*
X153003979Y-66457761D01*
X152839562Y-66307876D01*
X152839560Y-66307874D01*
X152650404Y-66190754D01*
X152650398Y-66190752D01*
X152442940Y-66110382D01*
X152224243Y-66069500D01*
X152001757Y-66069500D01*
X151783060Y-66110382D01*
X151731677Y-66130288D01*
X151575601Y-66190752D01*
X151575595Y-66190754D01*
X151386439Y-66307874D01*
X151386437Y-66307876D01*
X151222020Y-66457761D01*
X151087943Y-66635308D01*
X151087938Y-66635316D01*
X150988775Y-66834461D01*
X150988769Y-66834476D01*
X150927885Y-67048462D01*
X150927884Y-67048464D01*
X150907357Y-67269999D01*
X150907357Y-67270000D01*
X150927884Y-67491535D01*
X150927885Y-67491537D01*
X150988769Y-67705523D01*
X150988775Y-67705538D01*
X151087938Y-67904683D01*
X151087943Y-67904691D01*
X151222020Y-68082238D01*
X151278801Y-68134000D01*
X151384157Y-68230045D01*
X151386437Y-68232123D01*
X151386439Y-68232125D01*
X151575595Y-68349245D01*
X151575596Y-68349245D01*
X151575599Y-68349247D01*
X151783060Y-68429618D01*
X152001757Y-68470500D01*
X152001759Y-68470500D01*
X152224241Y-68470500D01*
X152224243Y-68470500D01*
X152442940Y-68429618D01*
X152650401Y-68349247D01*
X152839562Y-68232124D01*
X153003981Y-68082236D01*
X153138058Y-67904689D01*
X153237229Y-67705528D01*
X153298115Y-67491536D01*
X153298115Y-67491531D01*
X153298134Y-67491466D01*
X153335413Y-67432373D01*
X153398722Y-67402815D01*
X153467962Y-67412177D01*
X153521148Y-67457486D01*
X153537175Y-67493306D01*
X153586259Y-67676491D01*
X153586261Y-67676497D01*
X153682431Y-67882732D01*
X153682432Y-67882734D01*
X153812954Y-68069141D01*
X153973858Y-68230045D01*
X153973861Y-68230047D01*
X154160266Y-68360568D01*
X154366504Y-68456739D01*
X154366509Y-68456740D01*
X154366511Y-68456741D01*
X154384164Y-68461471D01*
X154586308Y-68515635D01*
X154748230Y-68529801D01*
X154812998Y-68535468D01*
X154813000Y-68535468D01*
X154813002Y-68535468D01*
X154869673Y-68530509D01*
X155039692Y-68515635D01*
X155259496Y-68456739D01*
X155465734Y-68360568D01*
X155479577Y-68350874D01*
X155545780Y-68328547D01*
X155613548Y-68345556D01*
X155661362Y-68396503D01*
X155674700Y-68452449D01*
X155674700Y-86069879D01*
X155655015Y-86136918D01*
X155602211Y-86182673D01*
X155533053Y-86192617D01*
X155485424Y-86175307D01*
X155477182Y-86170204D01*
X155477177Y-86170201D01*
X155269799Y-86089864D01*
X155190000Y-86074946D01*
X155190000Y-87000061D01*
X155108885Y-86936928D01*
X154998405Y-86899000D01*
X154910995Y-86899000D01*
X154824784Y-86913386D01*
X154722053Y-86968981D01*
X154642940Y-87054921D01*
X154596018Y-87161892D01*
X154586372Y-87278302D01*
X154615047Y-87391538D01*
X154678936Y-87489327D01*
X154771115Y-87561072D01*
X154881595Y-87599000D01*
X154969005Y-87599000D01*
X155055216Y-87584614D01*
X155157947Y-87529019D01*
X155190000Y-87494200D01*
X155190000Y-88423052D01*
X155269804Y-88408135D01*
X155477177Y-88327798D01*
X155477181Y-88327796D01*
X155485418Y-88322696D01*
X155552778Y-88304137D01*
X155619479Y-88324943D01*
X155664342Y-88378506D01*
X155674700Y-88428120D01*
X155674700Y-93273381D01*
X155674224Y-93281056D01*
X155670843Y-93308179D01*
X155674700Y-93401435D01*
X155674700Y-93432464D01*
X155677262Y-93463390D01*
X155681118Y-93556633D01*
X155686726Y-93583383D01*
X155687835Y-93590990D01*
X155690091Y-93618218D01*
X155690091Y-93618219D01*
X155690092Y-93618221D01*
X155713001Y-93708688D01*
X155732151Y-93800014D01*
X155732152Y-93800016D01*
X155742082Y-93825467D01*
X155744427Y-93832787D01*
X155751137Y-93859281D01*
X155765446Y-93891903D01*
X155788620Y-93944735D01*
X155822544Y-94031675D01*
X155836532Y-94055150D01*
X155840052Y-94061988D01*
X155851025Y-94087004D01*
X155851027Y-94087007D01*
X155902060Y-94165120D01*
X155949834Y-94245294D01*
X155967496Y-94266147D01*
X155972087Y-94272304D01*
X155987036Y-94295185D01*
X155987037Y-94295186D01*
X156050233Y-94363835D01*
X156070300Y-94387529D01*
X156092249Y-94409478D01*
X156155457Y-94478139D01*
X156177022Y-94494924D01*
X156182787Y-94500015D01*
X157513184Y-95830412D01*
X157518273Y-95836174D01*
X157535062Y-95857744D01*
X157535064Y-95857746D01*
X157535065Y-95857747D01*
X157578990Y-95898183D01*
X157582615Y-95901808D01*
X157623053Y-95945735D01*
X157623056Y-95945738D01*
X157670181Y-95982417D01*
X157674086Y-95985724D01*
X157718015Y-96026164D01*
X157718017Y-96026165D01*
X157718018Y-96026166D01*
X157740886Y-96041106D01*
X157747050Y-96045702D01*
X157767906Y-96063366D01*
X157791378Y-96077352D01*
X157797721Y-96081686D01*
X157819291Y-96098474D01*
X157871808Y-96126894D01*
X157876199Y-96129510D01*
X157926193Y-96162173D01*
X157934152Y-96165664D01*
X157951216Y-96173150D01*
X157958048Y-96176665D01*
X157981527Y-96190656D01*
X158006988Y-96200590D01*
X158013948Y-96203817D01*
X158037990Y-96216828D01*
X158094474Y-96236218D01*
X158099242Y-96238078D01*
X158153919Y-96262063D01*
X158180423Y-96268774D01*
X158187720Y-96271112D01*
X158213186Y-96281050D01*
X158239936Y-96286658D01*
X158247325Y-96288692D01*
X158273186Y-96297571D01*
X158273190Y-96297571D01*
X158273191Y-96297572D01*
X158303342Y-96302603D01*
X158332081Y-96307398D01*
X158337095Y-96308449D01*
X158394979Y-96323108D01*
X158419784Y-96325163D01*
X158422207Y-96325364D01*
X158429817Y-96326473D01*
X158437001Y-96327979D01*
X158456563Y-96332081D01*
X158483870Y-96333209D01*
X158491505Y-96334000D01*
X158509354Y-96336979D01*
X158518457Y-96338499D01*
X158518460Y-96338499D01*
X158518465Y-96338500D01*
X158518470Y-96338500D01*
X158611765Y-96338500D01*
X158705021Y-96342357D01*
X158732147Y-96338975D01*
X158739819Y-96338500D01*
X160735933Y-96338500D01*
X161735933Y-96338500D01*
X161766965Y-96338500D01*
X161860219Y-96342357D01*
X161860220Y-96342357D01*
X161860220Y-96342356D01*
X161860221Y-96342357D01*
X161864307Y-96341847D01*
X161887342Y-96338977D01*
X161895018Y-96338500D01*
X162777374Y-96338500D01*
X162870621Y-96342357D01*
X162963222Y-96330814D01*
X163056212Y-96323109D01*
X163056213Y-96323108D01*
X163056221Y-96323108D01*
X163082705Y-96316401D01*
X163090266Y-96314978D01*
X163117373Y-96311599D01*
X163117375Y-96311599D01*
X163117376Y-96311598D01*
X163117381Y-96311598D01*
X163206822Y-96284970D01*
X163297281Y-96262063D01*
X163322311Y-96251083D01*
X163329510Y-96248444D01*
X163355713Y-96240644D01*
X163439563Y-96199652D01*
X163525007Y-96162173D01*
X163547880Y-96147227D01*
X163554551Y-96143436D01*
X163579116Y-96131429D01*
X163655062Y-96077203D01*
X163733185Y-96026164D01*
X163753302Y-96007644D01*
X163759252Y-96002812D01*
X163781495Y-95986932D01*
X163847466Y-95920960D01*
X163916138Y-95857744D01*
X163932925Y-95836173D01*
X163938008Y-95830417D01*
X163957332Y-95811095D01*
X164011548Y-95735161D01*
X164068874Y-95661509D01*
X164081887Y-95637461D01*
X164085940Y-95630968D01*
X164101829Y-95608716D01*
X164142813Y-95524880D01*
X164187228Y-95442810D01*
X164196103Y-95416955D01*
X164199039Y-95409867D01*
X164211044Y-95385313D01*
X164237668Y-95295880D01*
X164267971Y-95207614D01*
X164272468Y-95180659D01*
X164274203Y-95173161D01*
X164281996Y-95146987D01*
X164281998Y-95146981D01*
X164293541Y-95054376D01*
X164308900Y-94962335D01*
X164308900Y-94935018D01*
X164309377Y-94927342D01*
X164310676Y-94916914D01*
X164312757Y-94900221D01*
X164308900Y-94806973D01*
X164308900Y-94713665D01*
X164304399Y-94686698D01*
X164303608Y-94679063D01*
X164302480Y-94651763D01*
X164283332Y-94560446D01*
X164267971Y-94468386D01*
X164259096Y-94442536D01*
X164257055Y-94435121D01*
X164256120Y-94430664D01*
X164251449Y-94408386D01*
X164251445Y-94408378D01*
X164251445Y-94408374D01*
X164217537Y-94321476D01*
X164187228Y-94233190D01*
X164174213Y-94209141D01*
X164170986Y-94202178D01*
X164161055Y-94176726D01*
X164131127Y-94126499D01*
X164113295Y-94096572D01*
X164068878Y-94014498D01*
X164068877Y-94014496D01*
X164068874Y-94014491D01*
X164052087Y-93992924D01*
X164047755Y-93986583D01*
X164033766Y-93963106D01*
X164033760Y-93963098D01*
X163973459Y-93891903D01*
X163916143Y-93818261D01*
X163916140Y-93818259D01*
X163916138Y-93818256D01*
X163880490Y-93785440D01*
X163847466Y-93755038D01*
X160185219Y-90092791D01*
X160151734Y-90031468D01*
X160148900Y-90005110D01*
X160148900Y-88643500D01*
X160168585Y-88576461D01*
X160221389Y-88530706D01*
X160272900Y-88519500D01*
X170296240Y-88519500D01*
X170296383Y-88519528D01*
X170296384Y-88519524D01*
X170320997Y-88519539D01*
X170321000Y-88519541D01*
X170321383Y-88519383D01*
X170321500Y-88519099D01*
X170321541Y-88519000D01*
X170321540Y-88518997D01*
X170321583Y-88494889D01*
X170321500Y-88494467D01*
X170321500Y-74495534D01*
X172032300Y-74495534D01*
X172073229Y-74740816D01*
X172153969Y-74976002D01*
X172153972Y-74976011D01*
X172272324Y-75194706D01*
X172272326Y-75194709D01*
X172425062Y-75390944D01*
X172584544Y-75537757D01*
X172608017Y-75559366D01*
X172816193Y-75695373D01*
X173043918Y-75795263D01*
X173284975Y-75856307D01*
X173284979Y-75856308D01*
X173284981Y-75856308D01*
X173284986Y-75856309D01*
X173418176Y-75867345D01*
X173470733Y-75871700D01*
X173470735Y-75871700D01*
X173594865Y-75871700D01*
X173594867Y-75871700D01*
X173656084Y-75866627D01*
X173780613Y-75856309D01*
X173780616Y-75856308D01*
X173780621Y-75856308D01*
X174021681Y-75795263D01*
X174249407Y-75695373D01*
X174457585Y-75559364D01*
X174640538Y-75390944D01*
X174793274Y-75194709D01*
X174911628Y-74976010D01*
X174992371Y-74740814D01*
X175033300Y-74495535D01*
X175033300Y-74246865D01*
X174992371Y-74001586D01*
X174911628Y-73766390D01*
X174793274Y-73547691D01*
X174640538Y-73351456D01*
X174457585Y-73183036D01*
X174457582Y-73183033D01*
X174249406Y-73047026D01*
X174021681Y-72947136D01*
X173780624Y-72886092D01*
X173780613Y-72886090D01*
X173615348Y-72872397D01*
X173594867Y-72870700D01*
X173470733Y-72870700D01*
X173451321Y-72872308D01*
X173284986Y-72886090D01*
X173284975Y-72886092D01*
X173043918Y-72947136D01*
X172816193Y-73047026D01*
X172608017Y-73183033D01*
X172425061Y-73351457D01*
X172272324Y-73547693D01*
X172153972Y-73766388D01*
X172153969Y-73766397D01*
X172073229Y-74001583D01*
X172032300Y-74246865D01*
X172032300Y-74495534D01*
X170321500Y-74495534D01*
X170321500Y-71728499D01*
X170341185Y-71661460D01*
X170393989Y-71615705D01*
X170445500Y-71604499D01*
X174400871Y-71604499D01*
X174400872Y-71604499D01*
X174460483Y-71598091D01*
X174595331Y-71547796D01*
X174710546Y-71461546D01*
X174796796Y-71346331D01*
X174847091Y-71211483D01*
X174847091Y-71211481D01*
X174848874Y-71203938D01*
X174851146Y-71204474D01*
X174873429Y-71150688D01*
X174930823Y-71110843D01*
X174969976Y-71104500D01*
X174993284Y-71104500D01*
X175082358Y-71106757D01*
X175082358Y-71106756D01*
X175082363Y-71106757D01*
X175142753Y-71095932D01*
X175147412Y-71095280D01*
X175189607Y-71090988D01*
X175208438Y-71089074D01*
X175241227Y-71078786D01*
X175248840Y-71076918D01*
X175282653Y-71070858D01*
X175339621Y-71048101D01*
X175344053Y-71046524D01*
X175402588Y-71028159D01*
X175432627Y-71011484D01*
X175439708Y-71008122D01*
X175471617Y-70995377D01*
X175522854Y-70961608D01*
X175526851Y-70959187D01*
X175580502Y-70929409D01*
X175606568Y-70907030D01*
X175612843Y-70902300D01*
X175641519Y-70883402D01*
X175684917Y-70840002D01*
X175688336Y-70836834D01*
X175734895Y-70796866D01*
X175755931Y-70769688D01*
X175761101Y-70763818D01*
X176234969Y-70289950D01*
X176296290Y-70256467D01*
X176365982Y-70261451D01*
X176421915Y-70303323D01*
X176446332Y-70368787D01*
X176446499Y-70371547D01*
X176448977Y-70421986D01*
X176488717Y-71750776D01*
X176508054Y-72419481D01*
X176520612Y-73661709D01*
X176527207Y-74417702D01*
X176515644Y-75612214D01*
X176506434Y-76415828D01*
X176472123Y-77579783D01*
X176445741Y-78413156D01*
X176389446Y-79555109D01*
X176345153Y-80408910D01*
X176267326Y-81534277D01*
X176204718Y-82402145D01*
X176105635Y-83514551D01*
X176024489Y-84392158D01*
X175904393Y-85493406D01*
X175804533Y-86378217D01*
X175663598Y-87469686D01*
X175544951Y-88359413D01*
X175383310Y-89442086D01*
X175245836Y-90335042D01*
X175063621Y-91409478D01*
X174907318Y-92304255D01*
X174704620Y-93370973D01*
X174529542Y-94266232D01*
X174306437Y-95325590D01*
X174112646Y-96220266D01*
X173869261Y-97272242D01*
X173656803Y-98165557D01*
X173393215Y-99210269D01*
X173162208Y-100101278D01*
X172878505Y-101138721D01*
X172629048Y-102026716D01*
X172325346Y-103056734D01*
X172057537Y-103941096D01*
X171733927Y-104963592D01*
X171447918Y-105843616D01*
X171104511Y-106858409D01*
X170800440Y-107733513D01*
X170437301Y-108740533D01*
X170115350Y-109610073D01*
X169732621Y-110609017D01*
X169392960Y-111472458D01*
X168990679Y-112463286D01*
X168633529Y-113320010D01*
X168211852Y-114302379D01*
X167837379Y-115151954D01*
X167396378Y-116125715D01*
X167004848Y-116967528D01*
X166544642Y-117932421D01*
X166136244Y-118766074D01*
X165656945Y-119721851D01*
X165231971Y-120546766D01*
X164733629Y-121493297D01*
X164292383Y-122308929D01*
X163775116Y-123245946D01*
X163317868Y-124051854D01*
X162781696Y-124979253D01*
X162308902Y-125774712D01*
X161753835Y-126692394D01*
X161265784Y-127477021D01*
X160691981Y-128384625D01*
X160188996Y-129158006D01*
X159596486Y-130055380D01*
X159079087Y-130816845D01*
X158467779Y-131703996D01*
X157936485Y-132452933D01*
X157306375Y-133329717D01*
X156761697Y-134065584D01*
X156112679Y-134931973D01*
X155555295Y-135654060D01*
X154887195Y-136510083D01*
X154317864Y-137217648D01*
X153630407Y-138063420D01*
X153049939Y-138755738D01*
X152342844Y-139591329D01*
X151752324Y-140267437D01*
X151024953Y-141093278D01*
X150425690Y-141752071D01*
X149677359Y-142568553D01*
X149071035Y-143208662D01*
X148300464Y-144016708D01*
X147689514Y-144636166D01*
X146894959Y-145437016D01*
X146282477Y-146033454D01*
X145461281Y-146829032D01*
X144852309Y-147398562D01*
X144000111Y-148192095D01*
X143402348Y-148728939D01*
X142511953Y-149525732D01*
X141939876Y-150019015D01*
X140997468Y-150829350D01*
X140482212Y-151255814D01*
X139457189Y-152102489D01*
X139092412Y-152392201D01*
X137896093Y-153341178D01*
X136323352Y-154538819D01*
X136320058Y-154541162D01*
X136185842Y-154630180D01*
X136043961Y-154723657D01*
X136038205Y-154727021D01*
X135891389Y-154802535D01*
X135740748Y-154878359D01*
X135734969Y-154880907D01*
X135578553Y-154940581D01*
X135422005Y-154997710D01*
X135416319Y-154999480D01*
X135253226Y-155041799D01*
X135215079Y-155050873D01*
X135091866Y-155080178D01*
X135086371Y-155081226D01*
X134918908Y-155105387D01*
X134754537Y-155124723D01*
X134749319Y-155125114D01*
X134579760Y-155130662D01*
X134414362Y-155130777D01*
X134409493Y-155130589D01*
X134240000Y-155117362D01*
X134075727Y-155098268D01*
X134071268Y-155097585D01*
X133903969Y-155065676D01*
X133742986Y-155027622D01*
X133738982Y-155026533D01*
X133577448Y-154976733D01*
X133574540Y-154975757D01*
X133420402Y-154919750D01*
X133416882Y-154918348D01*
X133261791Y-154851007D01*
X133258685Y-154849555D01*
X133112126Y-154776040D01*
X133109106Y-154774419D01*
X132962387Y-154690371D01*
X132959158Y-154688388D01*
X132822106Y-154598333D01*
X132819586Y-154596586D01*
X132683079Y-154496888D01*
X132679825Y-154494341D01*
X132608831Y-154434816D01*
X132553052Y-154388049D01*
X132427427Y-154273021D01*
X132424230Y-154269872D01*
X132310712Y-154149632D01*
X132198730Y-154021648D01*
X132195668Y-154017858D01*
X132096891Y-153885256D01*
X131999933Y-153746006D01*
X131997133Y-153741601D01*
X131914342Y-153598281D01*
X131833577Y-153449611D01*
X131831132Y-153444581D01*
X131765416Y-153292312D01*
X131713824Y-153165744D01*
X131701797Y-153136237D01*
X131699823Y-153130642D01*
X131652027Y-152971070D01*
X131606310Y-152809949D01*
X131604901Y-152803813D01*
X131575609Y-152637771D01*
X131548341Y-152474903D01*
X131547596Y-152468283D01*
X131537151Y-152289063D01*
X131536114Y-152270334D01*
X133017900Y-152270334D01*
X133058829Y-152515616D01*
X133139569Y-152750802D01*
X133139572Y-152750811D01*
X133171576Y-152809949D01*
X133257926Y-152969509D01*
X133410662Y-153165744D01*
X133524045Y-153270120D01*
X133593617Y-153334166D01*
X133801793Y-153470173D01*
X134029518Y-153570063D01*
X134140846Y-153598255D01*
X134270579Y-153631108D01*
X134270581Y-153631108D01*
X134270586Y-153631109D01*
X134403776Y-153642145D01*
X134456333Y-153646500D01*
X134456335Y-153646500D01*
X134580465Y-153646500D01*
X134580467Y-153646500D01*
X134641684Y-153641427D01*
X134766213Y-153631109D01*
X134766216Y-153631108D01*
X134766221Y-153631108D01*
X135007281Y-153570063D01*
X135235007Y-153470173D01*
X135443185Y-153334164D01*
X135626138Y-153165744D01*
X135778874Y-152969509D01*
X135897228Y-152750810D01*
X135977971Y-152515614D01*
X136018900Y-152270335D01*
X136018900Y-152021665D01*
X135977971Y-151776386D01*
X135897228Y-151541190D01*
X135778874Y-151322491D01*
X135626138Y-151126256D01*
X135443185Y-150957836D01*
X135443182Y-150957833D01*
X135235006Y-150821826D01*
X135007281Y-150721936D01*
X134766224Y-150660892D01*
X134766213Y-150660890D01*
X134600948Y-150647197D01*
X134580467Y-150645500D01*
X134456333Y-150645500D01*
X134436921Y-150647108D01*
X134270586Y-150660890D01*
X134270575Y-150660892D01*
X134029518Y-150721936D01*
X133801793Y-150821826D01*
X133593617Y-150957833D01*
X133410661Y-151126257D01*
X133257924Y-151322493D01*
X133139572Y-151541188D01*
X133139569Y-151541197D01*
X133058829Y-151776383D01*
X133017900Y-152021665D01*
X133017900Y-152270334D01*
X131536114Y-152270334D01*
X131528816Y-152138493D01*
X131528722Y-152135074D01*
X131528722Y-143653601D01*
X132239174Y-143653601D01*
X132258052Y-143917560D01*
X132314300Y-144176128D01*
X132406784Y-144424087D01*
X132533601Y-144656335D01*
X132533606Y-144656343D01*
X132620938Y-144773006D01*
X132620939Y-144773006D01*
X133342666Y-144051279D01*
X133386216Y-144133422D01*
X133505909Y-144274335D01*
X133653095Y-144386223D01*
X133695302Y-144405750D01*
X132974492Y-145126559D01*
X132974493Y-145126560D01*
X133091156Y-145213893D01*
X133091164Y-145213898D01*
X133323413Y-145340715D01*
X133323412Y-145340715D01*
X133571371Y-145433199D01*
X133829939Y-145489447D01*
X134093899Y-145508326D01*
X134093901Y-145508326D01*
X134357860Y-145489447D01*
X134616428Y-145433199D01*
X134864387Y-145340715D01*
X135096635Y-145213898D01*
X135096636Y-145213897D01*
X135213306Y-145126559D01*
X134492509Y-144405761D01*
X134611331Y-144334269D01*
X134745558Y-144207123D01*
X134848761Y-144054908D01*
X135566859Y-144773006D01*
X135596909Y-144732864D01*
X135652842Y-144690992D01*
X135722534Y-144686008D01*
X135783857Y-144719492D01*
X135808374Y-144754377D01*
X135858360Y-144860603D01*
X135858364Y-144860609D01*
X136026951Y-145126261D01*
X136026954Y-145126265D01*
X136227506Y-145368690D01*
X136227508Y-145368692D01*
X136456868Y-145584076D01*
X136456878Y-145584084D01*
X136711404Y-145769008D01*
X136711409Y-145769010D01*
X136711416Y-145769016D01*
X136987134Y-145920594D01*
X136987139Y-145920596D01*
X136987141Y-145920597D01*
X136987142Y-145920598D01*
X137279671Y-146036418D01*
X137279674Y-146036419D01*
X137584423Y-146114665D01*
X137584427Y-146114666D01*
X137649910Y-146122938D01*
X137896570Y-146154099D01*
X137896579Y-146154099D01*
X137896582Y-146154100D01*
X137896584Y-146154100D01*
X138211216Y-146154100D01*
X138211218Y-146154100D01*
X138211221Y-146154099D01*
X138211229Y-146154099D01*
X138397493Y-146130568D01*
X138523373Y-146114666D01*
X138828125Y-146036419D01*
X138835614Y-146033454D01*
X139120657Y-145920598D01*
X139120658Y-145920597D01*
X139120656Y-145920597D01*
X139120666Y-145920594D01*
X139396384Y-145769016D01*
X139650930Y-145584078D01*
X139880290Y-145368694D01*
X140080847Y-145126263D01*
X140249437Y-144860607D01*
X140383403Y-144575915D01*
X140480631Y-144276679D01*
X140539588Y-143967615D01*
X140544953Y-143882340D01*
X140554400Y-143732189D01*
X140554400Y-142983003D01*
X140574085Y-142915964D01*
X140590719Y-142895322D01*
X142392763Y-141093278D01*
X144285751Y-139200289D01*
X144347072Y-139166806D01*
X144416764Y-139171790D01*
X144472697Y-139213662D01*
X144497114Y-139279126D01*
X144496720Y-139301224D01*
X144496300Y-139305127D01*
X144496300Y-141100870D01*
X144496301Y-141100876D01*
X144502708Y-141160483D01*
X144553002Y-141295328D01*
X144553006Y-141295335D01*
X144639252Y-141410544D01*
X144639255Y-141410547D01*
X144754464Y-141496793D01*
X144754471Y-141496797D01*
X144754474Y-141496798D01*
X144886398Y-141546002D01*
X144942331Y-141587873D01*
X144966749Y-141653337D01*
X144951898Y-141721610D01*
X144930747Y-141749865D01*
X144808686Y-141871926D01*
X144673200Y-142065420D01*
X144673199Y-142065422D01*
X144573370Y-142279507D01*
X144573367Y-142279513D01*
X144516164Y-142492999D01*
X144516164Y-142493000D01*
X145413114Y-142493000D01*
X145387307Y-142533156D01*
X145346800Y-142671111D01*
X145346800Y-142814889D01*
X145387307Y-142952844D01*
X145413114Y-142993000D01*
X144516164Y-142993000D01*
X144573367Y-143206486D01*
X144573370Y-143206492D01*
X144673199Y-143420578D01*
X144808694Y-143614082D01*
X144975717Y-143781105D01*
X145169221Y-143916600D01*
X145383307Y-144016429D01*
X145383316Y-144016433D01*
X145596800Y-144073634D01*
X145596800Y-143178501D01*
X145704485Y-143227680D01*
X145811037Y-143243000D01*
X145882563Y-143243000D01*
X145989115Y-143227680D01*
X146096800Y-143178501D01*
X146096800Y-144073633D01*
X146310283Y-144016433D01*
X146310292Y-144016429D01*
X146524378Y-143916600D01*
X146717882Y-143781105D01*
X146884905Y-143614082D01*
X147020400Y-143420578D01*
X147120229Y-143206492D01*
X147120232Y-143206486D01*
X147177436Y-142993000D01*
X146280486Y-142993000D01*
X146306293Y-142952844D01*
X146346800Y-142814889D01*
X146346800Y-142671111D01*
X146306293Y-142533156D01*
X146280486Y-142493000D01*
X147177436Y-142493000D01*
X147177435Y-142492999D01*
X147120232Y-142279513D01*
X147120229Y-142279507D01*
X147020400Y-142065422D01*
X147020399Y-142065420D01*
X146884913Y-141871926D01*
X146884908Y-141871920D01*
X146762853Y-141749865D01*
X146729368Y-141688542D01*
X146734352Y-141618850D01*
X146776224Y-141562917D01*
X146807200Y-141546002D01*
X146939131Y-141496796D01*
X147054346Y-141410546D01*
X147140596Y-141295331D01*
X147190891Y-141160483D01*
X147197300Y-141100873D01*
X147197299Y-139305128D01*
X147190891Y-139245517D01*
X147140596Y-139110669D01*
X147140595Y-139110668D01*
X147140593Y-139110664D01*
X147054347Y-138995455D01*
X147054344Y-138995452D01*
X146939135Y-138909206D01*
X146939128Y-138909202D01*
X146804282Y-138858908D01*
X146804283Y-138858908D01*
X146744683Y-138852501D01*
X146744681Y-138852500D01*
X146744673Y-138852500D01*
X146744664Y-138852500D01*
X144948929Y-138852500D01*
X144948905Y-138852502D01*
X144945018Y-138852920D01*
X144876260Y-138840510D01*
X144825126Y-138792896D01*
X144807851Y-138725195D01*
X144829921Y-138658903D01*
X144844085Y-138641955D01*
X147853222Y-135632819D01*
X147914545Y-135599334D01*
X147940903Y-135596500D01*
X149121017Y-135596500D01*
X149466551Y-135596500D01*
X149533590Y-135616185D01*
X149579345Y-135668989D01*
X149589289Y-135738147D01*
X149578933Y-135772905D01*
X149525262Y-135888002D01*
X149525258Y-135888011D01*
X149466366Y-136107802D01*
X149466364Y-136107813D01*
X149446532Y-136334498D01*
X149446532Y-136334501D01*
X149466364Y-136561186D01*
X149466366Y-136561197D01*
X149525258Y-136780988D01*
X149525261Y-136780997D01*
X149621431Y-136987232D01*
X149621432Y-136987234D01*
X149751954Y-137173641D01*
X149912858Y-137334545D01*
X149912861Y-137334547D01*
X150099266Y-137465068D01*
X150305504Y-137561239D01*
X150525308Y-137620135D01*
X150687230Y-137634301D01*
X150751998Y-137639968D01*
X150752000Y-137639968D01*
X150752002Y-137639968D01*
X150808673Y-137635009D01*
X150978692Y-137620135D01*
X151198496Y-137561239D01*
X151404734Y-137465068D01*
X151591139Y-137334547D01*
X151752047Y-137173639D01*
X151882568Y-136987234D01*
X151978739Y-136780996D01*
X152037635Y-136561192D01*
X152057468Y-136334500D01*
X152037635Y-136107808D01*
X151978739Y-135888004D01*
X151909917Y-135740415D01*
X151899425Y-135671337D01*
X151927945Y-135607553D01*
X151986421Y-135569314D01*
X151995232Y-135567000D01*
X152094329Y-135544849D01*
X152210279Y-135522731D01*
X152244986Y-135511453D01*
X152250583Y-135509921D01*
X152286196Y-135501962D01*
X152397251Y-135461979D01*
X152509515Y-135425503D01*
X152542530Y-135409966D01*
X152547901Y-135407741D01*
X152582232Y-135395383D01*
X152687415Y-135341789D01*
X152794207Y-135291537D01*
X152825013Y-135271985D01*
X152830074Y-135269100D01*
X152862575Y-135252541D01*
X152960205Y-135186191D01*
X153059852Y-135122955D01*
X153059863Y-135122947D01*
X153087979Y-135099686D01*
X153092613Y-135096206D01*
X153122805Y-135075689D01*
X153211353Y-134997622D01*
X153302294Y-134922390D01*
X153383093Y-134836347D01*
X157382347Y-130837093D01*
X157468390Y-130756294D01*
X157491639Y-130728189D01*
X157495561Y-130723878D01*
X160388747Y-127830693D01*
X160474790Y-127749894D01*
X160550029Y-127658945D01*
X160628088Y-127570406D01*
X160634682Y-127560701D01*
X160648595Y-127540228D01*
X160652088Y-127535576D01*
X160675347Y-127507463D01*
X160738591Y-127407804D01*
X160804942Y-127310174D01*
X160821511Y-127277652D01*
X160824389Y-127272608D01*
X160843937Y-127241807D01*
X160894187Y-127135019D01*
X160947783Y-127029832D01*
X160960141Y-126995501D01*
X160962366Y-126990130D01*
X160977903Y-126957115D01*
X161014379Y-126844851D01*
X161054362Y-126733796D01*
X161062321Y-126698183D01*
X161063853Y-126692586D01*
X161075131Y-126657879D01*
X161097249Y-126541929D01*
X161122998Y-126426738D01*
X161126431Y-126390412D01*
X161127249Y-126384657D01*
X161134088Y-126348815D01*
X161134088Y-126348813D01*
X161134089Y-126348809D01*
X161141499Y-126231016D01*
X161152608Y-126113498D01*
X161148900Y-125995507D01*
X161148900Y-109993103D01*
X161168585Y-109926064D01*
X161185219Y-109905422D01*
X163538347Y-107552293D01*
X163624390Y-107471494D01*
X163699622Y-107380553D01*
X163777689Y-107292005D01*
X163798193Y-107261831D01*
X163801700Y-107257162D01*
X163824947Y-107229063D01*
X163888197Y-107129396D01*
X163954541Y-107031774D01*
X163971108Y-106999258D01*
X163973986Y-106994212D01*
X163993537Y-106963407D01*
X164043791Y-106856610D01*
X164097383Y-106751432D01*
X164109741Y-106717101D01*
X164111966Y-106711730D01*
X164127503Y-106678715D01*
X164163979Y-106566451D01*
X164203962Y-106455396D01*
X164211921Y-106419783D01*
X164213453Y-106414186D01*
X164224731Y-106379479D01*
X164246849Y-106263529D01*
X164272598Y-106148338D01*
X164276031Y-106112007D01*
X164276848Y-106106267D01*
X164283688Y-106070415D01*
X164291100Y-105952596D01*
X164302207Y-105835098D01*
X164298500Y-105717127D01*
X164298500Y-100958852D01*
X164298775Y-100953015D01*
X164298824Y-100952487D01*
X164302208Y-100916698D01*
X164298500Y-100798707D01*
X164298500Y-100759417D01*
X164298500Y-100713665D01*
X164295891Y-100698033D01*
X164295076Y-100689770D01*
X164292325Y-100602216D01*
X164286616Y-100566179D01*
X164285978Y-100560395D01*
X164283688Y-100523985D01*
X164261570Y-100408043D01*
X164243105Y-100291454D01*
X164232925Y-100256416D01*
X164231565Y-100250746D01*
X164224731Y-100214923D01*
X164224731Y-100214921D01*
X164188262Y-100102683D01*
X164155325Y-99989310D01*
X164140833Y-99955822D01*
X164138767Y-99950354D01*
X164127503Y-99915685D01*
X164077254Y-99808902D01*
X164030367Y-99700552D01*
X164011797Y-99669152D01*
X164009065Y-99663992D01*
X163993537Y-99630993D01*
X163930294Y-99531338D01*
X163870204Y-99429731D01*
X163847842Y-99400902D01*
X163844498Y-99396146D01*
X163824947Y-99365337D01*
X163824944Y-99365334D01*
X163824942Y-99365330D01*
X163749708Y-99274389D01*
X163677365Y-99181124D01*
X163651576Y-99155335D01*
X163647642Y-99151012D01*
X163624393Y-99122909D01*
X163624391Y-99122907D01*
X163538347Y-99042105D01*
X163454881Y-98958639D01*
X163426060Y-98936283D01*
X163421617Y-98932488D01*
X163395031Y-98907523D01*
X163395024Y-98907517D01*
X163299540Y-98838145D01*
X163240000Y-98791961D01*
X163206269Y-98765796D01*
X163197764Y-98760766D01*
X163174868Y-98747225D01*
X163169985Y-98744017D01*
X163140491Y-98722588D01*
X163140487Y-98722585D01*
X163037054Y-98665721D01*
X162935460Y-98605639D01*
X162935442Y-98605630D01*
X162901973Y-98591147D01*
X162896725Y-98588576D01*
X162864772Y-98571009D01*
X162864770Y-98571008D01*
X162864766Y-98571006D01*
X162755033Y-98527559D01*
X162646690Y-98480675D01*
X162646684Y-98480673D01*
X162646675Y-98480670D01*
X162611653Y-98470495D01*
X162606128Y-98468603D01*
X162572225Y-98455181D01*
X162572222Y-98455180D01*
X162457909Y-98425829D01*
X162344544Y-98392894D01*
X162308523Y-98387188D01*
X162302803Y-98386004D01*
X162267476Y-98376934D01*
X162150373Y-98362141D01*
X162033788Y-98343675D01*
X162033793Y-98343675D01*
X161997317Y-98342528D01*
X161991494Y-98342069D01*
X161955331Y-98337501D01*
X161955320Y-98337500D01*
X161955318Y-98337500D01*
X161955315Y-98337500D01*
X161837292Y-98337500D01*
X161719305Y-98333792D01*
X161719299Y-98333792D01*
X161682984Y-98337225D01*
X161677147Y-98337500D01*
X161640672Y-98337500D01*
X161523581Y-98352293D01*
X161406065Y-98363401D01*
X161406051Y-98363404D01*
X161370463Y-98371358D01*
X161364707Y-98372363D01*
X161328535Y-98376932D01*
X161328527Y-98376933D01*
X161328527Y-98376934D01*
X161214190Y-98406290D01*
X161099010Y-98432036D01*
X161098996Y-98432040D01*
X161064692Y-98444390D01*
X161059108Y-98446108D01*
X161023771Y-98455182D01*
X160914019Y-98498636D01*
X160802973Y-98538614D01*
X160802963Y-98538619D01*
X160770465Y-98555176D01*
X160765142Y-98557580D01*
X160731231Y-98571007D01*
X160696709Y-98589986D01*
X160627807Y-98627865D01*
X160573092Y-98655743D01*
X160522631Y-98681455D01*
X160522623Y-98681459D01*
X160492454Y-98701961D01*
X160487476Y-98705012D01*
X160455525Y-98722578D01*
X160455506Y-98722589D01*
X160383212Y-98775114D01*
X160360025Y-98791961D01*
X160311210Y-98825136D01*
X160262395Y-98858311D01*
X160262392Y-98858314D01*
X160235036Y-98882429D01*
X160230480Y-98886080D01*
X160200968Y-98907523D01*
X160170342Y-98936283D01*
X160114925Y-98988323D01*
X160085446Y-99014313D01*
X160057652Y-99042106D01*
X159971608Y-99122907D01*
X159971604Y-99122912D01*
X159948361Y-99151007D01*
X159944429Y-99155329D01*
X153901652Y-105198106D01*
X153815616Y-105278899D01*
X153815613Y-105278902D01*
X153740376Y-105369846D01*
X153662312Y-105458392D01*
X153662306Y-105458400D01*
X153641805Y-105488565D01*
X153638299Y-105493234D01*
X153615051Y-105521339D01*
X153551808Y-105620994D01*
X153485460Y-105718623D01*
X153485456Y-105718629D01*
X153468901Y-105751121D01*
X153466007Y-105756195D01*
X153446461Y-105786996D01*
X153446460Y-105786998D01*
X153396210Y-105893784D01*
X153342617Y-105998966D01*
X153330258Y-106033293D01*
X153328023Y-106038690D01*
X153312498Y-106071681D01*
X153312495Y-106071689D01*
X153276020Y-106183948D01*
X153236037Y-106295006D01*
X153228083Y-106330590D01*
X153226541Y-106336224D01*
X153215270Y-106370913D01*
X153215269Y-106370917D01*
X153193150Y-106486870D01*
X153167403Y-106602055D01*
X153167400Y-106602074D01*
X153163967Y-106638379D01*
X153163144Y-106644161D01*
X153156313Y-106679972D01*
X153156310Y-106680000D01*
X153148899Y-106797802D01*
X153137793Y-106915302D01*
X153137793Y-106915306D01*
X153141500Y-107033272D01*
X153141500Y-111791556D01*
X153141225Y-111797392D01*
X153137793Y-111833699D01*
X153137793Y-111833705D01*
X153141500Y-111951672D01*
X153141500Y-127954097D01*
X153121815Y-128021136D01*
X153105181Y-128041778D01*
X151452181Y-129694778D01*
X151390858Y-129728263D01*
X151321166Y-129723279D01*
X151265233Y-129681407D01*
X151240816Y-129615943D01*
X151240500Y-129607097D01*
X151240500Y-105322472D01*
X151240500Y-105322468D01*
X151210101Y-105150062D01*
X151150225Y-104985555D01*
X151062692Y-104833945D01*
X151062691Y-104833943D01*
X151062690Y-104833942D01*
X150950163Y-104699836D01*
X150816057Y-104587309D01*
X150664446Y-104499775D01*
X150499937Y-104439898D01*
X150327534Y-104409500D01*
X150327532Y-104409500D01*
X150240099Y-104409500D01*
X143240500Y-104409500D01*
X143240000Y-104409500D01*
X143152468Y-104409500D01*
X143152465Y-104409500D01*
X142980062Y-104439898D01*
X142815553Y-104499775D01*
X142663942Y-104587309D01*
X142529836Y-104699836D01*
X142417309Y-104833942D01*
X142329775Y-104985553D01*
X142269898Y-105150062D01*
X142239500Y-105322465D01*
X142239500Y-123006987D01*
X142239509Y-123007086D01*
X142239509Y-123074526D01*
X142264142Y-123230071D01*
X142312802Y-123379838D01*
X142384298Y-123520163D01*
X142426729Y-123578564D01*
X142476862Y-123647568D01*
X142476864Y-123647570D01*
X142525395Y-123696101D01*
X142525408Y-123696116D01*
X149213111Y-130383819D01*
X149246596Y-130445142D01*
X149241612Y-130514834D01*
X149199740Y-130570767D01*
X149134276Y-130595184D01*
X149125430Y-130595500D01*
X146893072Y-130595500D01*
X146775105Y-130591793D01*
X146775099Y-130591793D01*
X146738793Y-130595225D01*
X146732957Y-130595500D01*
X142330072Y-130595500D01*
X142212106Y-130591793D01*
X142212102Y-130591793D01*
X142094602Y-130602899D01*
X141976800Y-130610310D01*
X141976772Y-130610313D01*
X141940961Y-130617144D01*
X141935179Y-130617967D01*
X141898866Y-130621401D01*
X141783668Y-130647150D01*
X141667717Y-130669269D01*
X141633031Y-130680539D01*
X141627400Y-130682079D01*
X141620135Y-130683704D01*
X141591804Y-130690037D01*
X141480752Y-130730018D01*
X141368481Y-130766498D01*
X141368477Y-130766499D01*
X141335471Y-130782031D01*
X141330075Y-130784266D01*
X141295767Y-130796618D01*
X141190601Y-130850202D01*
X141083792Y-130900463D01*
X141083783Y-130900468D01*
X141052991Y-130920009D01*
X141047918Y-130922902D01*
X141015429Y-130939456D01*
X140917794Y-131005808D01*
X140818139Y-131069051D01*
X140790034Y-131092299D01*
X140785365Y-131095805D01*
X140755200Y-131116306D01*
X140755192Y-131116312D01*
X140666646Y-131194376D01*
X140575702Y-131269613D01*
X140575699Y-131269616D01*
X140494906Y-131355652D01*
X136313552Y-135537006D01*
X136227516Y-135617799D01*
X136227513Y-135617802D01*
X136152276Y-135708746D01*
X136074212Y-135797292D01*
X136074206Y-135797300D01*
X136053705Y-135827465D01*
X136050199Y-135832134D01*
X136026951Y-135860239D01*
X135963708Y-135959894D01*
X135897360Y-136057523D01*
X135897356Y-136057529D01*
X135880801Y-136090021D01*
X135877907Y-136095095D01*
X135858361Y-136125896D01*
X135858360Y-136125898D01*
X135808110Y-136232684D01*
X135754517Y-136337866D01*
X135742158Y-136372193D01*
X135739923Y-136377590D01*
X135724398Y-136410581D01*
X135724395Y-136410589D01*
X135687920Y-136522848D01*
X135647937Y-136633906D01*
X135639983Y-136669490D01*
X135638441Y-136675124D01*
X135627170Y-136709813D01*
X135627169Y-136709817D01*
X135605050Y-136825770D01*
X135579303Y-136940955D01*
X135579300Y-136940974D01*
X135575867Y-136977279D01*
X135575044Y-136983061D01*
X135568213Y-137018872D01*
X135568210Y-137018900D01*
X135560799Y-137136702D01*
X135549693Y-137254202D01*
X135549693Y-137254206D01*
X135553400Y-137372172D01*
X135553400Y-141775056D01*
X135553125Y-141780892D01*
X135549693Y-141817199D01*
X135549693Y-141817205D01*
X135553400Y-141935172D01*
X135553400Y-142496291D01*
X135533715Y-142563330D01*
X135517081Y-142583972D01*
X134845132Y-143255920D01*
X134801584Y-143173778D01*
X134681891Y-143032865D01*
X134534705Y-142920977D01*
X134492496Y-142901449D01*
X135213306Y-142180639D01*
X135213306Y-142180638D01*
X135096643Y-142093306D01*
X135096635Y-142093301D01*
X134864386Y-141966484D01*
X134864387Y-141966484D01*
X134616428Y-141874000D01*
X134357860Y-141817752D01*
X134093901Y-141798874D01*
X134093899Y-141798874D01*
X133829939Y-141817752D01*
X133571371Y-141874000D01*
X133323412Y-141966484D01*
X133091164Y-142093301D01*
X132974493Y-142180639D01*
X133695291Y-142901437D01*
X133576469Y-142972931D01*
X133442242Y-143100077D01*
X133339038Y-143252292D01*
X132620939Y-142534193D01*
X132533601Y-142650864D01*
X132406784Y-142883112D01*
X132314300Y-143131071D01*
X132258052Y-143389639D01*
X132239174Y-143653598D01*
X132239174Y-143653601D01*
X131528722Y-143653601D01*
X131528722Y-136334502D01*
X132299034Y-136334502D01*
X132318858Y-136561099D01*
X132318860Y-136561110D01*
X132377730Y-136780817D01*
X132377734Y-136780826D01*
X132473865Y-136986981D01*
X132473866Y-136986983D01*
X132524973Y-137059971D01*
X132524974Y-137059972D01*
X133206046Y-136378899D01*
X133218835Y-136459648D01*
X133276359Y-136572545D01*
X133365955Y-136662141D01*
X133478852Y-136719665D01*
X133559599Y-136732453D01*
X132878526Y-137413525D01*
X132878526Y-137413526D01*
X132951512Y-137464631D01*
X132951516Y-137464633D01*
X133157673Y-137560765D01*
X133157682Y-137560769D01*
X133377389Y-137619639D01*
X133377400Y-137619641D01*
X133603998Y-137639466D01*
X133604002Y-137639466D01*
X133830599Y-137619641D01*
X133830610Y-137619639D01*
X134050317Y-137560769D01*
X134050331Y-137560764D01*
X134256478Y-137464636D01*
X134329472Y-137413525D01*
X133648401Y-136732453D01*
X133729148Y-136719665D01*
X133842045Y-136662141D01*
X133931641Y-136572545D01*
X133989165Y-136459648D01*
X134001953Y-136378900D01*
X134683025Y-137059972D01*
X134734136Y-136986978D01*
X134830264Y-136780831D01*
X134830269Y-136780817D01*
X134889139Y-136561110D01*
X134889141Y-136561099D01*
X134908966Y-136334502D01*
X134908966Y-136334497D01*
X134889141Y-136107900D01*
X134889139Y-136107889D01*
X134830269Y-135888182D01*
X134830265Y-135888173D01*
X134734133Y-135682016D01*
X134734131Y-135682012D01*
X134683026Y-135609026D01*
X134683025Y-135609026D01*
X134001953Y-136290098D01*
X133989165Y-136209352D01*
X133931641Y-136096455D01*
X133842045Y-136006859D01*
X133729148Y-135949335D01*
X133648400Y-135936546D01*
X134329472Y-135255474D01*
X134329471Y-135255473D01*
X134256483Y-135204366D01*
X134256481Y-135204365D01*
X134050326Y-135108234D01*
X134050317Y-135108230D01*
X133830610Y-135049360D01*
X133830599Y-135049358D01*
X133604002Y-135029534D01*
X133603998Y-135029534D01*
X133377400Y-135049358D01*
X133377389Y-135049360D01*
X133157682Y-135108230D01*
X133157673Y-135108234D01*
X132951513Y-135204368D01*
X132878527Y-135255472D01*
X132878526Y-135255473D01*
X133559600Y-135936546D01*
X133478852Y-135949335D01*
X133365955Y-136006859D01*
X133276359Y-136096455D01*
X133218835Y-136209352D01*
X133206046Y-136290099D01*
X132524973Y-135609026D01*
X132524972Y-135609027D01*
X132473868Y-135682013D01*
X132377734Y-135888173D01*
X132377730Y-135888182D01*
X132318860Y-136107889D01*
X132318858Y-136107900D01*
X132299034Y-136334497D01*
X132299034Y-136334502D01*
X131528722Y-136334502D01*
X131528722Y-131696335D01*
X132675000Y-131696335D01*
X132688643Y-131778094D01*
X132715929Y-131941616D01*
X132796669Y-132176802D01*
X132796672Y-132176811D01*
X132915024Y-132395506D01*
X132915026Y-132395509D01*
X133067762Y-132591744D01*
X133227244Y-132738557D01*
X133250717Y-132760166D01*
X133458893Y-132896173D01*
X133686618Y-132996063D01*
X133927675Y-133057107D01*
X133927679Y-133057108D01*
X133927681Y-133057108D01*
X133927686Y-133057109D01*
X134060876Y-133068145D01*
X134113433Y-133072500D01*
X134113435Y-133072500D01*
X134237565Y-133072500D01*
X134237567Y-133072500D01*
X134298784Y-133067427D01*
X134423313Y-133057109D01*
X134423316Y-133057108D01*
X134423321Y-133057108D01*
X134664381Y-132996063D01*
X134892107Y-132896173D01*
X135100285Y-132760164D01*
X135283238Y-132591744D01*
X135435974Y-132395509D01*
X135554328Y-132176810D01*
X135635071Y-131941614D01*
X135676000Y-131696335D01*
X135676000Y-131447665D01*
X135635071Y-131202386D01*
X135554328Y-130967190D01*
X135435974Y-130748491D01*
X135283238Y-130552256D01*
X135100285Y-130383836D01*
X135100282Y-130383833D01*
X134892106Y-130247826D01*
X134664381Y-130147936D01*
X134423324Y-130086892D01*
X134423313Y-130086890D01*
X134258048Y-130073197D01*
X134237567Y-130071500D01*
X134113433Y-130071500D01*
X134094021Y-130073108D01*
X133927686Y-130086890D01*
X133927675Y-130086892D01*
X133686618Y-130147936D01*
X133458893Y-130247826D01*
X133250717Y-130383833D01*
X133067761Y-130552257D01*
X132915024Y-130748493D01*
X132796672Y-130967188D01*
X132796669Y-130967197D01*
X132715929Y-131202383D01*
X132690354Y-131355652D01*
X132675000Y-131447665D01*
X132675000Y-131696335D01*
X131528722Y-131696335D01*
X131528722Y-101724334D01*
X148677000Y-101724334D01*
X148717929Y-101969616D01*
X148798669Y-102204802D01*
X148798672Y-102204811D01*
X148917024Y-102423506D01*
X148917026Y-102423509D01*
X149069762Y-102619744D01*
X149229244Y-102766557D01*
X149252717Y-102788166D01*
X149460893Y-102924173D01*
X149688618Y-103024063D01*
X149817633Y-103056734D01*
X149929679Y-103085108D01*
X149929681Y-103085108D01*
X149929686Y-103085109D01*
X150062876Y-103096145D01*
X150115433Y-103100500D01*
X150115435Y-103100500D01*
X150239565Y-103100500D01*
X150239567Y-103100500D01*
X150300784Y-103095427D01*
X150425313Y-103085109D01*
X150425316Y-103085108D01*
X150425321Y-103085108D01*
X150666381Y-103024063D01*
X150894107Y-102924173D01*
X151102285Y-102788164D01*
X151285238Y-102619744D01*
X151437974Y-102423509D01*
X151556328Y-102204810D01*
X151637071Y-101969614D01*
X151678000Y-101724335D01*
X151678000Y-101475665D01*
X151637071Y-101230386D01*
X151556328Y-100995190D01*
X151437974Y-100776491D01*
X151285238Y-100580256D01*
X151102285Y-100411836D01*
X151102282Y-100411833D01*
X150894106Y-100275826D01*
X150666381Y-100175936D01*
X150425324Y-100114892D01*
X150425313Y-100114890D01*
X150260048Y-100101197D01*
X150239567Y-100099500D01*
X150115433Y-100099500D01*
X150096021Y-100101108D01*
X149929686Y-100114890D01*
X149929675Y-100114892D01*
X149688618Y-100175936D01*
X149460893Y-100275826D01*
X149252717Y-100411833D01*
X149069761Y-100580257D01*
X148917024Y-100776493D01*
X148798672Y-100995188D01*
X148798669Y-100995197D01*
X148717929Y-101230383D01*
X148677000Y-101475665D01*
X148677000Y-101724334D01*
X131528722Y-101724334D01*
X131528722Y-96837502D01*
X132299034Y-96837502D01*
X132318858Y-97064099D01*
X132318860Y-97064110D01*
X132377730Y-97283817D01*
X132377734Y-97283826D01*
X132473865Y-97489981D01*
X132473866Y-97489983D01*
X132524973Y-97562971D01*
X132524974Y-97562972D01*
X133206046Y-96881899D01*
X133218835Y-96962648D01*
X133276359Y-97075545D01*
X133365955Y-97165141D01*
X133478852Y-97222665D01*
X133559599Y-97235453D01*
X132878526Y-97916525D01*
X132878526Y-97916526D01*
X132951512Y-97967631D01*
X132951516Y-97967633D01*
X133157673Y-98063765D01*
X133157682Y-98063769D01*
X133377389Y-98122639D01*
X133377400Y-98122641D01*
X133603998Y-98142466D01*
X133604002Y-98142466D01*
X133830599Y-98122641D01*
X133830610Y-98122639D01*
X134050317Y-98063769D01*
X134050331Y-98063764D01*
X134256478Y-97967636D01*
X134329472Y-97916525D01*
X133648401Y-97235453D01*
X133729148Y-97222665D01*
X133842045Y-97165141D01*
X133931641Y-97075545D01*
X133989165Y-96962648D01*
X134001953Y-96881900D01*
X134683025Y-97562972D01*
X134734136Y-97489978D01*
X134830264Y-97283831D01*
X134830269Y-97283817D01*
X134889139Y-97064110D01*
X134889141Y-97064099D01*
X134908966Y-96837502D01*
X134908966Y-96837501D01*
X149446532Y-96837501D01*
X149466364Y-97064186D01*
X149466366Y-97064197D01*
X149525258Y-97283988D01*
X149525261Y-97283997D01*
X149621431Y-97490232D01*
X149621432Y-97490234D01*
X149751954Y-97676641D01*
X149912858Y-97837545D01*
X149912861Y-97837547D01*
X150099266Y-97968068D01*
X150305504Y-98064239D01*
X150525308Y-98123135D01*
X150687230Y-98137301D01*
X150751998Y-98142968D01*
X150752000Y-98142968D01*
X150752002Y-98142968D01*
X150808673Y-98138009D01*
X150978692Y-98123135D01*
X151198496Y-98064239D01*
X151404734Y-97968068D01*
X151591139Y-97837547D01*
X151752047Y-97676639D01*
X151882568Y-97490234D01*
X151978739Y-97283996D01*
X152037635Y-97064192D01*
X152057468Y-96837500D01*
X152037635Y-96610808D01*
X151978739Y-96391004D01*
X151882568Y-96184766D01*
X151752047Y-95998361D01*
X151752045Y-95998358D01*
X151591141Y-95837454D01*
X151404734Y-95706932D01*
X151404732Y-95706931D01*
X151198497Y-95610761D01*
X151198488Y-95610758D01*
X150978697Y-95551866D01*
X150978693Y-95551865D01*
X150978692Y-95551865D01*
X150978691Y-95551864D01*
X150978686Y-95551864D01*
X150752002Y-95532032D01*
X150751998Y-95532032D01*
X150525313Y-95551864D01*
X150525302Y-95551866D01*
X150305511Y-95610758D01*
X150305502Y-95610761D01*
X150099267Y-95706931D01*
X150099265Y-95706932D01*
X149912858Y-95837454D01*
X149751954Y-95998358D01*
X149621432Y-96184765D01*
X149621431Y-96184767D01*
X149525261Y-96391002D01*
X149525258Y-96391011D01*
X149466366Y-96610802D01*
X149466364Y-96610813D01*
X149446532Y-96837498D01*
X149446532Y-96837501D01*
X134908966Y-96837501D01*
X134908966Y-96837497D01*
X134889141Y-96610900D01*
X134889139Y-96610889D01*
X134830269Y-96391182D01*
X134830265Y-96391173D01*
X134734133Y-96185016D01*
X134734131Y-96185012D01*
X134683026Y-96112026D01*
X134683025Y-96112026D01*
X134001953Y-96793098D01*
X133989165Y-96712352D01*
X133931641Y-96599455D01*
X133842045Y-96509859D01*
X133729148Y-96452335D01*
X133648400Y-96439546D01*
X134329472Y-95758474D01*
X134329471Y-95758473D01*
X134256483Y-95707366D01*
X134256481Y-95707365D01*
X134050326Y-95611234D01*
X134050317Y-95611230D01*
X133830610Y-95552360D01*
X133830599Y-95552358D01*
X133604002Y-95532534D01*
X133603998Y-95532534D01*
X133377400Y-95552358D01*
X133377389Y-95552360D01*
X133157682Y-95611230D01*
X133157673Y-95611234D01*
X132951513Y-95707368D01*
X132878527Y-95758472D01*
X132878526Y-95758473D01*
X133559600Y-96439546D01*
X133478852Y-96452335D01*
X133365955Y-96509859D01*
X133276359Y-96599455D01*
X133218835Y-96712352D01*
X133206046Y-96793099D01*
X132524973Y-96112026D01*
X132524972Y-96112027D01*
X132473868Y-96185013D01*
X132377734Y-96391173D01*
X132377730Y-96391182D01*
X132318860Y-96610889D01*
X132318858Y-96610900D01*
X132299034Y-96837497D01*
X132299034Y-96837502D01*
X131528722Y-96837502D01*
X131528722Y-91182000D01*
X133162592Y-91182000D01*
X133174430Y-91317315D01*
X133174432Y-91317326D01*
X133235566Y-91545483D01*
X133235570Y-91545492D01*
X133335399Y-91759577D01*
X133335400Y-91759579D01*
X133470886Y-91953073D01*
X133470891Y-91953079D01*
X133637917Y-92120105D01*
X133831421Y-92255600D01*
X134045507Y-92355429D01*
X134045516Y-92355433D01*
X134259000Y-92412634D01*
X134259000Y-91367501D01*
X134366685Y-91416680D01*
X134473237Y-91432000D01*
X134544763Y-91432000D01*
X134651315Y-91416680D01*
X134759000Y-91367501D01*
X134759000Y-92412633D01*
X134972483Y-92355433D01*
X134972492Y-92355429D01*
X135186577Y-92255600D01*
X135186579Y-92255599D01*
X135380073Y-92120113D01*
X135380079Y-92120108D01*
X135527331Y-91972857D01*
X135588654Y-91939372D01*
X135658346Y-91944356D01*
X135714279Y-91986228D01*
X135720551Y-91995441D01*
X135724186Y-92001334D01*
X135816288Y-92150656D01*
X135940344Y-92274712D01*
X136089666Y-92366814D01*
X136256203Y-92421999D01*
X136358991Y-92432500D01*
X137659008Y-92432499D01*
X137761797Y-92421999D01*
X137928334Y-92366814D01*
X138077656Y-92274712D01*
X138201712Y-92150656D01*
X138293814Y-92001334D01*
X138348999Y-91834797D01*
X138359500Y-91732009D01*
X138359500Y-91694001D01*
X144062838Y-91694001D01*
X144081450Y-91906741D01*
X144081452Y-91906752D01*
X144136721Y-92113022D01*
X144136723Y-92113026D01*
X144136724Y-92113030D01*
X144154270Y-92150657D01*
X144226977Y-92306578D01*
X144349472Y-92481521D01*
X144500478Y-92632527D01*
X144500481Y-92632529D01*
X144675419Y-92755021D01*
X144675421Y-92755022D01*
X144675420Y-92755022D01*
X144739936Y-92785106D01*
X144868970Y-92845276D01*
X145075253Y-92900549D01*
X145227215Y-92913844D01*
X145287998Y-92919162D01*
X145288000Y-92919162D01*
X145288002Y-92919162D01*
X145341186Y-92914508D01*
X145500747Y-92900549D01*
X145707030Y-92845276D01*
X145900581Y-92755021D01*
X146075519Y-92632529D01*
X146226529Y-92481519D01*
X146349021Y-92306581D01*
X146439276Y-92113030D01*
X146439280Y-92113013D01*
X146441130Y-92107936D01*
X146442981Y-92108609D01*
X146474847Y-92056328D01*
X146537694Y-92025797D01*
X146607069Y-92034091D01*
X146660948Y-92078575D01*
X146674430Y-92108095D01*
X146675342Y-92107764D01*
X146677197Y-92112859D01*
X146767412Y-92306328D01*
X146767413Y-92306330D01*
X146806415Y-92362030D01*
X146806416Y-92362031D01*
X147430046Y-91738400D01*
X147442835Y-91819148D01*
X147500359Y-91932045D01*
X147589955Y-92021641D01*
X147702852Y-92079165D01*
X147783599Y-92091953D01*
X147159967Y-92715583D01*
X147215670Y-92754586D01*
X147409140Y-92844802D01*
X147409146Y-92844805D01*
X147615337Y-92900054D01*
X147615345Y-92900055D01*
X147827998Y-92918660D01*
X147828002Y-92918660D01*
X148040654Y-92900055D01*
X148040662Y-92900054D01*
X148246853Y-92844805D01*
X148246859Y-92844802D01*
X148440330Y-92754586D01*
X148440336Y-92754582D01*
X148496031Y-92715584D01*
X147872401Y-92091953D01*
X147953148Y-92079165D01*
X148066045Y-92021641D01*
X148155641Y-91932045D01*
X148213165Y-91819148D01*
X148225953Y-91738400D01*
X148849584Y-92362031D01*
X148888582Y-92306336D01*
X148888586Y-92306330D01*
X148978802Y-92112859D01*
X148980658Y-92107764D01*
X148982287Y-92108357D01*
X149014588Y-92055361D01*
X149077435Y-92024830D01*
X149146810Y-92033124D01*
X149200689Y-92077608D01*
X149214586Y-92108039D01*
X149215342Y-92107764D01*
X149217197Y-92112859D01*
X149307412Y-92306328D01*
X149307413Y-92306330D01*
X149346415Y-92362030D01*
X149346416Y-92362031D01*
X149970046Y-91738400D01*
X149982835Y-91819148D01*
X150040359Y-91932045D01*
X150129955Y-92021641D01*
X150242852Y-92079165D01*
X150323599Y-92091953D01*
X149699967Y-92715583D01*
X149755670Y-92754586D01*
X149949140Y-92844802D01*
X149949146Y-92844805D01*
X150155337Y-92900054D01*
X150155345Y-92900055D01*
X150367998Y-92918660D01*
X150368002Y-92918660D01*
X150580654Y-92900055D01*
X150580662Y-92900054D01*
X150786853Y-92844805D01*
X150786859Y-92844802D01*
X150980330Y-92754586D01*
X150980336Y-92754582D01*
X151036031Y-92715584D01*
X150412401Y-92091953D01*
X150493148Y-92079165D01*
X150606045Y-92021641D01*
X150695641Y-91932045D01*
X150753165Y-91819148D01*
X150765953Y-91738400D01*
X151389584Y-92362031D01*
X151428582Y-92306336D01*
X151428586Y-92306330D01*
X151518802Y-92112859D01*
X151518805Y-92112853D01*
X151574054Y-91906662D01*
X151574055Y-91906654D01*
X151592660Y-91694002D01*
X151592660Y-91693997D01*
X151574055Y-91481345D01*
X151574054Y-91481337D01*
X151518805Y-91275146D01*
X151518802Y-91275140D01*
X151428586Y-91081670D01*
X151389583Y-91025967D01*
X150765953Y-91649598D01*
X150753165Y-91568852D01*
X150695641Y-91455955D01*
X150606045Y-91366359D01*
X150493148Y-91308835D01*
X150412401Y-91296046D01*
X151036031Y-90672416D01*
X151036030Y-90672415D01*
X150980330Y-90633413D01*
X150980328Y-90633412D01*
X150786859Y-90543197D01*
X150786853Y-90543194D01*
X150580662Y-90487945D01*
X150580654Y-90487944D01*
X150368002Y-90469340D01*
X150367998Y-90469340D01*
X150155345Y-90487944D01*
X150155337Y-90487945D01*
X149949146Y-90543194D01*
X149949140Y-90543197D01*
X149755667Y-90633414D01*
X149699967Y-90672414D01*
X150323599Y-91296046D01*
X150242852Y-91308835D01*
X150129955Y-91366359D01*
X150040359Y-91455955D01*
X149982835Y-91568852D01*
X149970046Y-91649598D01*
X149346415Y-91025967D01*
X149346414Y-91025967D01*
X149307414Y-91081667D01*
X149217197Y-91275140D01*
X149215342Y-91280236D01*
X149213714Y-91279643D01*
X149181404Y-91332645D01*
X149118555Y-91363170D01*
X149049180Y-91354871D01*
X148995305Y-91310383D01*
X148981412Y-91279961D01*
X148980658Y-91280236D01*
X148978802Y-91275140D01*
X148888586Y-91081670D01*
X148849583Y-91025967D01*
X148225953Y-91649598D01*
X148213165Y-91568852D01*
X148155641Y-91455955D01*
X148066045Y-91366359D01*
X147953148Y-91308835D01*
X147872401Y-91296046D01*
X148496031Y-90672416D01*
X148496030Y-90672415D01*
X148440330Y-90633413D01*
X148440328Y-90633412D01*
X148246859Y-90543197D01*
X148246853Y-90543194D01*
X148040662Y-90487945D01*
X148040654Y-90487944D01*
X147828002Y-90469340D01*
X147827998Y-90469340D01*
X147615345Y-90487944D01*
X147615337Y-90487945D01*
X147409146Y-90543194D01*
X147409140Y-90543197D01*
X147215667Y-90633414D01*
X147159967Y-90672414D01*
X147783599Y-91296046D01*
X147702852Y-91308835D01*
X147589955Y-91366359D01*
X147500359Y-91455955D01*
X147442835Y-91568852D01*
X147430046Y-91649599D01*
X146806414Y-91025967D01*
X146767414Y-91081667D01*
X146677197Y-91275140D01*
X146675342Y-91280236D01*
X146673445Y-91279545D01*
X146641656Y-91331684D01*
X146578805Y-91362205D01*
X146509431Y-91353901D01*
X146455559Y-91309408D01*
X146442012Y-91279742D01*
X146441130Y-91280064D01*
X146439279Y-91274983D01*
X146439276Y-91274970D01*
X146349021Y-91081419D01*
X146226529Y-90906481D01*
X146226527Y-90906478D01*
X146075521Y-90755472D01*
X145900578Y-90632977D01*
X145900579Y-90632977D01*
X145771547Y-90572809D01*
X145707030Y-90542724D01*
X145707026Y-90542723D01*
X145707022Y-90542721D01*
X145500752Y-90487452D01*
X145500748Y-90487451D01*
X145500747Y-90487451D01*
X145500746Y-90487450D01*
X145500741Y-90487450D01*
X145288002Y-90468838D01*
X145287998Y-90468838D01*
X145075258Y-90487450D01*
X145075247Y-90487452D01*
X144868977Y-90542721D01*
X144868968Y-90542725D01*
X144675421Y-90632977D01*
X144500478Y-90755472D01*
X144349472Y-90906478D01*
X144226977Y-91081421D01*
X144136725Y-91274968D01*
X144136721Y-91274977D01*
X144081452Y-91481247D01*
X144081450Y-91481258D01*
X144062838Y-91693998D01*
X144062838Y-91694001D01*
X138359500Y-91694001D01*
X138359499Y-90131992D01*
X138356682Y-90104420D01*
X138348999Y-90029203D01*
X138348998Y-90029200D01*
X138324587Y-89955533D01*
X138293814Y-89862666D01*
X138201712Y-89713344D01*
X138077656Y-89589288D01*
X137928334Y-89497186D01*
X137761797Y-89442001D01*
X137761795Y-89442000D01*
X137659010Y-89431500D01*
X136358998Y-89431500D01*
X136358981Y-89431501D01*
X136256203Y-89442000D01*
X136256200Y-89442001D01*
X136089668Y-89497185D01*
X136089663Y-89497187D01*
X135940342Y-89589289D01*
X135816288Y-89713343D01*
X135816285Y-89713347D01*
X135720550Y-89868558D01*
X135668602Y-89915283D01*
X135599640Y-89926504D01*
X135535558Y-89898661D01*
X135527331Y-89891143D01*
X135380078Y-89743891D01*
X135186578Y-89608399D01*
X134972492Y-89508570D01*
X134972486Y-89508567D01*
X134759000Y-89451364D01*
X134759000Y-90496498D01*
X134651315Y-90447320D01*
X134544763Y-90432000D01*
X134473237Y-90432000D01*
X134366685Y-90447320D01*
X134259000Y-90496498D01*
X134259000Y-89451364D01*
X134258999Y-89451364D01*
X134045513Y-89508567D01*
X134045507Y-89508570D01*
X133831422Y-89608399D01*
X133831420Y-89608400D01*
X133637926Y-89743886D01*
X133637920Y-89743891D01*
X133470891Y-89910920D01*
X133470886Y-89910926D01*
X133335400Y-90104420D01*
X133335399Y-90104422D01*
X133235570Y-90318507D01*
X133235566Y-90318516D01*
X133174432Y-90546673D01*
X133174430Y-90546684D01*
X133162592Y-90681999D01*
X133162593Y-90682000D01*
X134075314Y-90682000D01*
X134049507Y-90722156D01*
X134009000Y-90860111D01*
X134009000Y-91003889D01*
X134049507Y-91141844D01*
X134075314Y-91182000D01*
X133162592Y-91182000D01*
X131528722Y-91182000D01*
X131528722Y-84324000D01*
X133162592Y-84324000D01*
X133174430Y-84459315D01*
X133174432Y-84459326D01*
X133235566Y-84687483D01*
X133235570Y-84687492D01*
X133335399Y-84901577D01*
X133335400Y-84901579D01*
X133470886Y-85095073D01*
X133470891Y-85095079D01*
X133637917Y-85262105D01*
X133831421Y-85397600D01*
X134045507Y-85497429D01*
X134045516Y-85497433D01*
X134259000Y-85554634D01*
X134259000Y-84509501D01*
X134366685Y-84558680D01*
X134473237Y-84574000D01*
X134544763Y-84574000D01*
X134651315Y-84558680D01*
X134759000Y-84509501D01*
X134759000Y-85554633D01*
X134972483Y-85497433D01*
X134972492Y-85497429D01*
X135186577Y-85397600D01*
X135186579Y-85397599D01*
X135380073Y-85262113D01*
X135380079Y-85262108D01*
X135527331Y-85114857D01*
X135588654Y-85081372D01*
X135658346Y-85086356D01*
X135714279Y-85128228D01*
X135720551Y-85137441D01*
X135724186Y-85143334D01*
X135816288Y-85292656D01*
X135940344Y-85416712D01*
X136089666Y-85508814D01*
X136256203Y-85563999D01*
X136346827Y-85573257D01*
X136411519Y-85599653D01*
X136421906Y-85608934D01*
X137054384Y-86241412D01*
X137059473Y-86247174D01*
X137076262Y-86268744D01*
X137076264Y-86268746D01*
X137076265Y-86268747D01*
X137144921Y-86331950D01*
X137166866Y-86353894D01*
X137166874Y-86353902D01*
X137190564Y-86373966D01*
X137259215Y-86437164D01*
X137259217Y-86437165D01*
X137259218Y-86437166D01*
X137282086Y-86452106D01*
X137288250Y-86456702D01*
X137309106Y-86474366D01*
X137353037Y-86500543D01*
X137389275Y-86522137D01*
X137461600Y-86569388D01*
X137467393Y-86573173D01*
X137475352Y-86576664D01*
X137492416Y-86584150D01*
X137499248Y-86587665D01*
X137522727Y-86601656D01*
X137538379Y-86607763D01*
X137609659Y-86635577D01*
X137664393Y-86659585D01*
X137695119Y-86673063D01*
X137695123Y-86673064D01*
X137721609Y-86679771D01*
X137728932Y-86682116D01*
X137754386Y-86692049D01*
X137845711Y-86711198D01*
X137936179Y-86734108D01*
X137936184Y-86734108D01*
X137936187Y-86734109D01*
X137963406Y-86736364D01*
X137971016Y-86737473D01*
X137985880Y-86740589D01*
X137997763Y-86743081D01*
X138091009Y-86746937D01*
X138121933Y-86749500D01*
X138121934Y-86749500D01*
X138152965Y-86749500D01*
X138246221Y-86753357D01*
X138273347Y-86749975D01*
X138281019Y-86749500D01*
X141160381Y-86749500D01*
X141227420Y-86769185D01*
X141273175Y-86821989D01*
X141283119Y-86891147D01*
X141280156Y-86905593D01*
X141248860Y-87022390D01*
X141248858Y-87022400D01*
X141229034Y-87248997D01*
X141229034Y-87249002D01*
X141248858Y-87475599D01*
X141248860Y-87475610D01*
X141307730Y-87695317D01*
X141307734Y-87695326D01*
X141403865Y-87901481D01*
X141403866Y-87901483D01*
X141454973Y-87974471D01*
X141454973Y-87974472D01*
X142136045Y-87293399D01*
X142148835Y-87374148D01*
X142206359Y-87487045D01*
X142295955Y-87576641D01*
X142408852Y-87634165D01*
X142489599Y-87646953D01*
X141808526Y-88328025D01*
X141808526Y-88328026D01*
X141881512Y-88379131D01*
X141881516Y-88379133D01*
X142087673Y-88475265D01*
X142087682Y-88475269D01*
X142307389Y-88534139D01*
X142307400Y-88534141D01*
X142533998Y-88553966D01*
X142534002Y-88553966D01*
X142760599Y-88534141D01*
X142760610Y-88534139D01*
X142980317Y-88475269D01*
X142980331Y-88475264D01*
X143186478Y-88379136D01*
X143259472Y-88328025D01*
X142578401Y-87646953D01*
X142659148Y-87634165D01*
X142772045Y-87576641D01*
X142861641Y-87487045D01*
X142919165Y-87374148D01*
X142931953Y-87293400D01*
X143613025Y-87974472D01*
X143664136Y-87901478D01*
X143760264Y-87695331D01*
X143760269Y-87695317D01*
X143819139Y-87475610D01*
X143819141Y-87475599D01*
X143838966Y-87249002D01*
X143838966Y-87248997D01*
X143819141Y-87022400D01*
X143819139Y-87022390D01*
X143787844Y-86905593D01*
X143789507Y-86835744D01*
X143828669Y-86777881D01*
X143892898Y-86750377D01*
X143907619Y-86749500D01*
X144861110Y-86749500D01*
X144928149Y-86769185D01*
X144948791Y-86785819D01*
X146404384Y-88241412D01*
X146409473Y-88247174D01*
X146426262Y-88268744D01*
X146426263Y-88268745D01*
X146426265Y-88268747D01*
X146494921Y-88331950D01*
X146516866Y-88353894D01*
X146516874Y-88353902D01*
X146540564Y-88373966D01*
X146609215Y-88437164D01*
X146609217Y-88437165D01*
X146609218Y-88437166D01*
X146632086Y-88452106D01*
X146638250Y-88456702D01*
X146659106Y-88474366D01*
X146691505Y-88493671D01*
X146739278Y-88522139D01*
X146770329Y-88542425D01*
X146817393Y-88573173D01*
X146842412Y-88584147D01*
X146849243Y-88587663D01*
X146862657Y-88595656D01*
X146872720Y-88601653D01*
X146872730Y-88601658D01*
X146959663Y-88635579D01*
X146977722Y-88643500D01*
X147045119Y-88673063D01*
X147069908Y-88679340D01*
X147071609Y-88679771D01*
X147078932Y-88682116D01*
X147104386Y-88692049D01*
X147195702Y-88711196D01*
X147286179Y-88734108D01*
X147313415Y-88736364D01*
X147321018Y-88737471D01*
X147347763Y-88743080D01*
X147440994Y-88746936D01*
X147471933Y-88749500D01*
X147471935Y-88749500D01*
X147502974Y-88749500D01*
X147596221Y-88753357D01*
X147612914Y-88751276D01*
X147623342Y-88749977D01*
X147631018Y-88749500D01*
X149828965Y-88749500D01*
X149922221Y-88753357D01*
X150014822Y-88741814D01*
X150107812Y-88734109D01*
X150107813Y-88734108D01*
X150107821Y-88734108D01*
X150134305Y-88727401D01*
X150141866Y-88725978D01*
X150168973Y-88722599D01*
X150168975Y-88722599D01*
X150168976Y-88722598D01*
X150168981Y-88722598D01*
X150258422Y-88695970D01*
X150348881Y-88673063D01*
X150373911Y-88662083D01*
X150381110Y-88659444D01*
X150407313Y-88651644D01*
X150491163Y-88610652D01*
X150576607Y-88573173D01*
X150599493Y-88558219D01*
X150606146Y-88554439D01*
X150630716Y-88542429D01*
X150706666Y-88488200D01*
X150784785Y-88437164D01*
X150804893Y-88418652D01*
X150810854Y-88413811D01*
X150833096Y-88397932D01*
X150866087Y-88364939D01*
X150899078Y-88331950D01*
X150936369Y-88297620D01*
X150967738Y-88268744D01*
X150984522Y-88247178D01*
X150989614Y-88241413D01*
X150989615Y-88241412D01*
X151008932Y-88222096D01*
X151063153Y-88146154D01*
X151120474Y-88072509D01*
X151133482Y-88048469D01*
X151137548Y-88041956D01*
X151153429Y-88019716D01*
X151194413Y-87935880D01*
X151238828Y-87853810D01*
X151247703Y-87827955D01*
X151250639Y-87820867D01*
X151262644Y-87796313D01*
X151289268Y-87706880D01*
X151319571Y-87618614D01*
X151324068Y-87591659D01*
X151325803Y-87584161D01*
X151329601Y-87571403D01*
X151333598Y-87557981D01*
X151340950Y-87499000D01*
X153763505Y-87499000D01*
X153816239Y-87684349D01*
X153915368Y-87883425D01*
X154049391Y-88060900D01*
X154213738Y-88210721D01*
X154402820Y-88327797D01*
X154402822Y-88327798D01*
X154610195Y-88408135D01*
X154690000Y-88423052D01*
X154690000Y-87499000D01*
X153763505Y-87499000D01*
X151340950Y-87499000D01*
X151345141Y-87465376D01*
X151360500Y-87373335D01*
X151360500Y-87346018D01*
X151360977Y-87338342D01*
X151364357Y-87311220D01*
X151364357Y-87311219D01*
X151360500Y-87217964D01*
X151360500Y-87124669D01*
X151360499Y-87124657D01*
X151357462Y-87106462D01*
X151356000Y-87097705D01*
X151355209Y-87090070D01*
X151354081Y-87062763D01*
X151340711Y-86999000D01*
X153763505Y-86999000D01*
X154690000Y-86999000D01*
X154690000Y-86074946D01*
X154610200Y-86089864D01*
X154402822Y-86170201D01*
X154402820Y-86170202D01*
X154213738Y-86287278D01*
X154049391Y-86437099D01*
X153915368Y-86614574D01*
X153816239Y-86813650D01*
X153763505Y-86999000D01*
X151340711Y-86999000D01*
X151334930Y-86971432D01*
X151319571Y-86879386D01*
X151310696Y-86853534D01*
X151308654Y-86846118D01*
X151303049Y-86819385D01*
X151269134Y-86732468D01*
X151238830Y-86644197D01*
X151238828Y-86644190D01*
X151225822Y-86620157D01*
X151222588Y-86613180D01*
X151218091Y-86601655D01*
X151212656Y-86587726D01*
X151164888Y-86507562D01*
X151120475Y-86425492D01*
X151120471Y-86425487D01*
X151103691Y-86403928D01*
X151099356Y-86397584D01*
X151085366Y-86374106D01*
X151025054Y-86302895D01*
X150998473Y-86268744D01*
X150967739Y-86229257D01*
X150899078Y-86166049D01*
X147814615Y-83081587D01*
X147809524Y-83075822D01*
X147792739Y-83054257D01*
X147724078Y-82991049D01*
X147702129Y-82969100D01*
X147678435Y-82949033D01*
X147609786Y-82885837D01*
X147609785Y-82885836D01*
X147586904Y-82870887D01*
X147580747Y-82866296D01*
X147559894Y-82848634D01*
X147479720Y-82800860D01*
X147401607Y-82749827D01*
X147401604Y-82749825D01*
X147376588Y-82738852D01*
X147369750Y-82735332D01*
X147346275Y-82721344D01*
X147259335Y-82687420D01*
X147173881Y-82649937D01*
X147173877Y-82649936D01*
X147173875Y-82649935D01*
X147147387Y-82643227D01*
X147140067Y-82640882D01*
X147123593Y-82634454D01*
X147114614Y-82630951D01*
X147023288Y-82611801D01*
X146932819Y-82588891D01*
X146905590Y-82586635D01*
X146897983Y-82585526D01*
X146877986Y-82581334D01*
X146871237Y-82579919D01*
X146871235Y-82579918D01*
X146777990Y-82576062D01*
X146747067Y-82573500D01*
X146747064Y-82573500D01*
X146716035Y-82573500D01*
X146622780Y-82569643D01*
X146622779Y-82569643D01*
X146595652Y-82573024D01*
X146587981Y-82573500D01*
X144390035Y-82573500D01*
X144296780Y-82569643D01*
X144296779Y-82569643D01*
X144269652Y-82573024D01*
X144261981Y-82573500D01*
X141204235Y-82573500D01*
X141110980Y-82569643D01*
X141110979Y-82569643D01*
X141083852Y-82573024D01*
X141076181Y-82573500D01*
X137040035Y-82573500D01*
X136946781Y-82569643D01*
X136946777Y-82569643D01*
X136935100Y-82571098D01*
X136919647Y-82573024D01*
X136911979Y-82573500D01*
X136358998Y-82573500D01*
X136358980Y-82573501D01*
X136256203Y-82584000D01*
X136256200Y-82584001D01*
X136089668Y-82639185D01*
X136089663Y-82639187D01*
X135940342Y-82731289D01*
X135816288Y-82855343D01*
X135816285Y-82855347D01*
X135720550Y-83010558D01*
X135668602Y-83057283D01*
X135599640Y-83068504D01*
X135535558Y-83040661D01*
X135527331Y-83033143D01*
X135380078Y-82885891D01*
X135186578Y-82750399D01*
X134972492Y-82650570D01*
X134972486Y-82650567D01*
X134759000Y-82593364D01*
X134759000Y-83638498D01*
X134651315Y-83589320D01*
X134544763Y-83574000D01*
X134473237Y-83574000D01*
X134366685Y-83589320D01*
X134259000Y-83638498D01*
X134259000Y-82593364D01*
X134258999Y-82593364D01*
X134045513Y-82650567D01*
X134045507Y-82650570D01*
X133831422Y-82750399D01*
X133831420Y-82750400D01*
X133637926Y-82885886D01*
X133637920Y-82885891D01*
X133470891Y-83052920D01*
X133470886Y-83052926D01*
X133335400Y-83246420D01*
X133335399Y-83246422D01*
X133235570Y-83460507D01*
X133235566Y-83460516D01*
X133174432Y-83688673D01*
X133174430Y-83688684D01*
X133162592Y-83823999D01*
X133162593Y-83824000D01*
X134075314Y-83824000D01*
X134049507Y-83864156D01*
X134009000Y-84002111D01*
X134009000Y-84145889D01*
X134049507Y-84283844D01*
X134075314Y-84324000D01*
X133162592Y-84324000D01*
X131528722Y-84324000D01*
X131528722Y-77724001D01*
X135051274Y-77724001D01*
X135070152Y-77987960D01*
X135126400Y-78246528D01*
X135218884Y-78494487D01*
X135345701Y-78726735D01*
X135345706Y-78726743D01*
X135433038Y-78843406D01*
X135433039Y-78843406D01*
X136154766Y-78121679D01*
X136198316Y-78203822D01*
X136318009Y-78344735D01*
X136465195Y-78456623D01*
X136507402Y-78476150D01*
X135786592Y-79196959D01*
X135786593Y-79196960D01*
X135903256Y-79284293D01*
X135903264Y-79284298D01*
X136135513Y-79411115D01*
X136135512Y-79411115D01*
X136383471Y-79503599D01*
X136642039Y-79559847D01*
X136905999Y-79578726D01*
X136906001Y-79578726D01*
X137169960Y-79559847D01*
X137428528Y-79503599D01*
X137676487Y-79411115D01*
X137908735Y-79284298D01*
X137908736Y-79284297D01*
X138025406Y-79196959D01*
X137304609Y-78476161D01*
X137423431Y-78404669D01*
X137557658Y-78277523D01*
X137660861Y-78125308D01*
X138378959Y-78843406D01*
X138466297Y-78726736D01*
X138466298Y-78726735D01*
X138593115Y-78494487D01*
X138685599Y-78246528D01*
X138741847Y-77987960D01*
X138760726Y-77724001D01*
X138760726Y-77723998D01*
X138741847Y-77460039D01*
X138685599Y-77201471D01*
X138593115Y-76953512D01*
X138466298Y-76721264D01*
X138466293Y-76721256D01*
X138378960Y-76604593D01*
X138378959Y-76604592D01*
X137657232Y-77326319D01*
X137613684Y-77244178D01*
X137493991Y-77103265D01*
X137346805Y-76991377D01*
X137304596Y-76971849D01*
X138025406Y-76251039D01*
X138025406Y-76251038D01*
X137908743Y-76163706D01*
X137908735Y-76163701D01*
X137676486Y-76036884D01*
X137676487Y-76036884D01*
X137428528Y-75944400D01*
X137169960Y-75888152D01*
X136906001Y-75869274D01*
X136905999Y-75869274D01*
X136642039Y-75888152D01*
X136383471Y-75944400D01*
X136135512Y-76036884D01*
X135903264Y-76163701D01*
X135786593Y-76251039D01*
X136507391Y-76971837D01*
X136388569Y-77043331D01*
X136254342Y-77170477D01*
X136151138Y-77322692D01*
X135433039Y-76604593D01*
X135345701Y-76721264D01*
X135218884Y-76953512D01*
X135126400Y-77201471D01*
X135070152Y-77460039D01*
X135051274Y-77723998D01*
X135051274Y-77724001D01*
X131528722Y-77724001D01*
X131528722Y-74914015D01*
X135055500Y-74914015D01*
X135066000Y-75016795D01*
X135066001Y-75016796D01*
X135121186Y-75183335D01*
X135121187Y-75183337D01*
X135213286Y-75332651D01*
X135213289Y-75332655D01*
X135337344Y-75456710D01*
X135337348Y-75456713D01*
X135486662Y-75548812D01*
X135486664Y-75548813D01*
X135486666Y-75548814D01*
X135653203Y-75603999D01*
X135755992Y-75614500D01*
X135755997Y-75614500D01*
X138056003Y-75614500D01*
X138056008Y-75614500D01*
X138158797Y-75603999D01*
X138325334Y-75548814D01*
X138474655Y-75456711D01*
X138598711Y-75332655D01*
X138690814Y-75183334D01*
X138745999Y-75016797D01*
X138756500Y-74914008D01*
X138756500Y-72613992D01*
X138745999Y-72511203D01*
X138690814Y-72344666D01*
X138598711Y-72195345D01*
X138474655Y-72071289D01*
X138474651Y-72071286D01*
X138325337Y-71979187D01*
X138325335Y-71979186D01*
X138242065Y-71951593D01*
X138158797Y-71924001D01*
X138158795Y-71924000D01*
X138056015Y-71913500D01*
X138056008Y-71913500D01*
X135755992Y-71913500D01*
X135755984Y-71913500D01*
X135653204Y-71924000D01*
X135653203Y-71924001D01*
X135486664Y-71979186D01*
X135486662Y-71979187D01*
X135337348Y-72071286D01*
X135337344Y-72071289D01*
X135213289Y-72195344D01*
X135213286Y-72195348D01*
X135121187Y-72344662D01*
X135121186Y-72344664D01*
X135066001Y-72511203D01*
X135066000Y-72511204D01*
X135055500Y-72613984D01*
X135055500Y-74914015D01*
X131528722Y-74914015D01*
X131528722Y-61119897D01*
X131528807Y-61116652D01*
X131529513Y-61103182D01*
X131533290Y-61031125D01*
X131547033Y-60794816D01*
X131547689Y-60788752D01*
X131569934Y-60648309D01*
X131601873Y-60467183D01*
X131603026Y-60461980D01*
X131642338Y-60315271D01*
X131660067Y-60256058D01*
X131692559Y-60147529D01*
X131694069Y-60143104D01*
X131749848Y-59997797D01*
X131754289Y-59987502D01*
X131818097Y-59839582D01*
X131819740Y-59836084D01*
X131890453Y-59697306D01*
X131891989Y-59694480D01*
X131941753Y-59608287D01*
X131977063Y-59547129D01*
X131978723Y-59544419D01*
X132063563Y-59413779D01*
X132065801Y-59410564D01*
X132168657Y-59272405D01*
X132266640Y-59151408D01*
X132269685Y-59147926D01*
X132389864Y-59020546D01*
X132497242Y-58913169D01*
X132501201Y-58909542D01*
X132642111Y-58791306D01*
X132752612Y-58701826D01*
X132757519Y-58698239D01*
X132951812Y-58570452D01*
X133027663Y-58521195D01*
X133030396Y-58519520D01*
X150898834Y-48203171D01*
X150901620Y-48201658D01*
X151019363Y-48141665D01*
X151183478Y-48058816D01*
X151189135Y-48056310D01*
X151333203Y-48001008D01*
X151487801Y-47943646D01*
X151493283Y-47941898D01*
X151646172Y-47900932D01*
X151802791Y-47862090D01*
X151807963Y-47861042D01*
X151966058Y-47836002D01*
X152124705Y-47815116D01*
X152129483Y-47814677D01*
X152290355Y-47806246D01*
X152449827Y-47803264D01*
X152454141Y-47803337D01*
G37*
%TD.AperFunction*%
%TA.AperFunction,Conductor*%
G36*
X174775600Y-68327770D02*
G01*
X174825006Y-68377174D01*
X174839958Y-68429268D01*
X174849827Y-68595825D01*
X174834142Y-68663912D01*
X174784137Y-68712710D01*
X174715688Y-68726727D01*
X174651733Y-68702426D01*
X174595335Y-68660206D01*
X174595328Y-68660202D01*
X174520826Y-68632415D01*
X174464892Y-68590544D01*
X174440475Y-68525080D01*
X174455327Y-68456807D01*
X174504732Y-68407401D01*
X174520827Y-68400051D01*
X174595084Y-68372355D01*
X174595089Y-68372352D01*
X174641863Y-68337337D01*
X174707326Y-68312919D01*
X174775600Y-68327770D01*
G37*
%TD.AperFunction*%
%TD*%
M02*
