%TF.GenerationSoftware,KiCad,Pcbnew,7.0.9*%
%TF.CreationDate,2023-12-24T01:03:01+09:00*%
%TF.ProjectId,PowerSuplyUnit,506f7765-7253-4757-906c-79556e69742e,rev?*%
%TF.SameCoordinates,Original*%
%TF.FileFunction,Soldermask,Top*%
%TF.FilePolarity,Negative*%
%FSLAX46Y46*%
G04 Gerber Fmt 4.6, Leading zero omitted, Abs format (unit mm)*
G04 Created by KiCad (PCBNEW 7.0.9) date 2023-12-24 01:03:01*
%MOMM*%
%LPD*%
G01*
G04 APERTURE LIST*
G04 Aperture macros list*
%AMRoundRect*
0 Rectangle with rounded corners*
0 $1 Rounding radius*
0 $2 $3 $4 $5 $6 $7 $8 $9 X,Y pos of 4 corners*
0 Add a 4 corners polygon primitive as box body*
4,1,4,$2,$3,$4,$5,$6,$7,$8,$9,$2,$3,0*
0 Add four circle primitives for the rounded corners*
1,1,$1+$1,$2,$3*
1,1,$1+$1,$4,$5*
1,1,$1+$1,$6,$7*
1,1,$1+$1,$8,$9*
0 Add four rect primitives between the rounded corners*
20,1,$1+$1,$2,$3,$4,$5,0*
20,1,$1+$1,$4,$5,$6,$7,0*
20,1,$1+$1,$6,$7,$8,$9,0*
20,1,$1+$1,$8,$9,$2,$3,0*%
%AMHorizOval*
0 Thick line with rounded ends*
0 $1 width*
0 $2 $3 position (X,Y) of the first rounded end (center of the circle)*
0 $4 $5 position (X,Y) of the second rounded end (center of the circle)*
0 Add line between two ends*
20,1,$1,$2,$3,$4,$5,0*
0 Add two circle primitives to create the rounded ends*
1,1,$1,$2,$3*
1,1,$1,$4,$5*%
%AMRotRect*
0 Rectangle, with rotation*
0 The origin of the aperture is its center*
0 $1 length*
0 $2 width*
0 $3 Rotation angle, in degrees counterclockwise*
0 Add horizontal line*
21,1,$1,$2,0,0,$3*%
%AMOutline4P*
0 Free polygon, 4 corners , with rotation*
0 The origin of the aperture is its center*
0 number of corners: always 4*
0 $1 to $8 corner X, Y*
0 $9 Rotation angle, in degrees counterclockwise*
0 create outline with 4 corners*
4,1,4,$1,$2,$3,$4,$5,$6,$7,$8,$1,$2,$9*%
G04 Aperture macros list end*
%ADD10RoundRect,0.250001X1.099999X1.099999X-1.099999X1.099999X-1.099999X-1.099999X1.099999X-1.099999X0*%
%ADD11C,2.700000*%
%ADD12RotRect,2.800000X2.800000X210.000000*%
%ADD13HorizOval,2.800000X0.000000X0.000000X0.000000X0.000000X0*%
%ADD14Outline4P,-1.500000X-0.600000X1.500000X-0.600000X1.500000X0.600000X-1.500000X0.600000X270.000000*%
%ADD15Outline4P,-2.035000X-0.885000X2.035000X-0.885000X2.035000X0.885000X-2.035000X0.885000X270.000000*%
%ADD16Outline4P,-0.600000X-1.500000X0.600000X-1.500000X0.600000X1.500000X-0.600000X1.500000X270.000000*%
%ADD17Outline4P,-0.885000X-2.035000X0.885000X-2.035000X0.885000X2.035000X-0.885000X2.035000X270.000000*%
%ADD18Outline4P,-0.750000X-0.600000X0.750000X-0.600000X0.750000X0.600000X-0.750000X0.600000X270.000000*%
%ADD19Outline4P,-0.500000X-0.600000X0.500000X-0.600000X0.500000X0.600000X-0.500000X0.600000X270.000000*%
%ADD20RoundRect,0.250000X0.600000X0.750000X-0.600000X0.750000X-0.600000X-0.750000X0.600000X-0.750000X0*%
%ADD21O,1.700000X2.000000*%
%ADD22O,4.000000X2.000000*%
%ADD23RoundRect,0.250001X-1.099999X1.099999X-1.099999X-1.099999X1.099999X-1.099999X1.099999X1.099999X0*%
%ADD24C,2.500000*%
%ADD25C,1.600000*%
%ADD26C,1.400000*%
%ADD27O,1.400000X1.400000*%
%ADD28C,1.440000*%
%ADD29HorizOval,1.500000X-0.300000X0.519615X0.300000X-0.519615X0*%
%ADD30R,1.700000X1.700000*%
%ADD31O,1.700000X1.700000*%
%ADD32C,1.050000*%
G04 APERTURE END LIST*
D10*
%TO.C,J2*%
X138053900Y-143653600D03*
D11*
X134093900Y-143653600D03*
%TD*%
D12*
%TO.C,D1*%
X155105262Y-54991000D03*
D13*
X144106739Y-61341000D03*
%TD*%
D14*
%TO.C,U1*%
X149733000Y-71362000D03*
X154313000Y-71362000D03*
D15*
X154313000Y-73527000D03*
D16*
X155333000Y-74672000D03*
X155333000Y-76962000D03*
D15*
X154313000Y-78107000D03*
D16*
X155333000Y-79252000D03*
D17*
X153168000Y-81562000D03*
D14*
X154313000Y-82562000D03*
X149733000Y-82562000D03*
X145153000Y-82562000D03*
D16*
X144133000Y-76962000D03*
X144133000Y-74672000D03*
D14*
X145153000Y-71362000D03*
X147443000Y-71362000D03*
D18*
X147443000Y-83312000D03*
D16*
X144133000Y-79252000D03*
D19*
X147443000Y-81562000D03*
%TD*%
D20*
%TO.C,J1*%
X137009000Y-90932000D03*
D21*
X134509000Y-90932000D03*
%TD*%
D22*
%TO.C,SW2*%
X161798000Y-100838000D03*
X161798000Y-94838000D03*
%TD*%
D23*
%TO.C,J2*%
X136906000Y-73764000D03*
D11*
X136906000Y-77724000D03*
%TD*%
D24*
%TO.C,REF\u002A\u002A*%
X152400000Y-50800000D03*
%TD*%
D25*
%TO.C,C2*%
X147534000Y-87249000D03*
X142534000Y-87249000D03*
%TD*%
D26*
%TO.C,R1*%
X152113000Y-67270000D03*
D27*
X152113000Y-62190000D03*
%TD*%
D24*
%TO.C,REF\u002A\u002A*%
X173532800Y-74371200D03*
%TD*%
D26*
%TO.C,R2*%
X149860000Y-87249000D03*
D27*
X154940000Y-87249000D03*
%TD*%
D28*
%TO.C,RV1*%
X150368000Y-91694000D03*
X147828000Y-91694000D03*
X145288000Y-91694000D03*
%TD*%
D25*
%TO.C,C1*%
X154813000Y-67230000D03*
X154813000Y-62230000D03*
%TD*%
D29*
%TO.C,F1*%
X138203502Y-58936000D03*
X141407796Y-57086000D03*
X145131706Y-54936000D03*
X148336000Y-53086000D03*
%TD*%
D30*
%TO.C,J4*%
X145846800Y-140203000D03*
D31*
X145846800Y-142743000D03*
%TD*%
D32*
%TO.C,SW1*%
X148844000Y-65913000D03*
X146344000Y-65913000D03*
X143844000Y-65913000D03*
%TD*%
D24*
%TO.C,REF\u002A\u002A*%
X134518400Y-152146000D03*
%TD*%
D20*
%TO.C,J3*%
X137009000Y-84074000D03*
D21*
X134509000Y-84074000D03*
%TD*%
D24*
%TO.C,U2*%
X150177500Y-101600000D03*
X134175500Y-131572000D03*
D25*
X150752000Y-96837500D03*
X133604000Y-96837500D03*
X150752000Y-136334500D03*
X133604000Y-136334500D03*
%TD*%
D23*
%TO.C,BT1*%
X136906000Y-65024000D03*
D11*
X136906000Y-68984000D03*
%TD*%
M02*
