G04 #@! TF.GenerationSoftware,KiCad,Pcbnew,7.0.2-0*
G04 #@! TF.CreationDate,2023-07-24T15:35:54+09:00*
G04 #@! TF.ProjectId,line_in,6c696e65-5f69-46e2-9e6b-696361645f70,rev?*
G04 #@! TF.SameCoordinates,Original*
G04 #@! TF.FileFunction,Copper,L1,Top*
G04 #@! TF.FilePolarity,Positive*
%FSLAX46Y46*%
G04 Gerber Fmt 4.6, Leading zero omitted, Abs format (unit mm)*
G04 Created by KiCad (PCBNEW 7.0.2-0) date 2023-07-24 15:35:54*
%MOMM*%
%LPD*%
G01*
G04 APERTURE LIST*
G04 #@! TA.AperFunction,ComponentPad*
%ADD10R,1.700000X1.700000*%
G04 #@! TD*
G04 #@! TA.AperFunction,ComponentPad*
%ADD11O,1.700000X1.700000*%
G04 #@! TD*
G04 #@! TA.AperFunction,Conductor*
%ADD12C,0.700000*%
G04 #@! TD*
G04 APERTURE END LIST*
D10*
X158600000Y-103850000D03*
D11*
X158600000Y-101310000D03*
X158600000Y-98770000D03*
X158600000Y-96230000D03*
D10*
X121400000Y-96150000D03*
D11*
X121400000Y-98690000D03*
X121400000Y-101230000D03*
X121400000Y-103770000D03*
D10*
X135920000Y-118600000D03*
D11*
X138460000Y-118600000D03*
X141000000Y-118600000D03*
X143540000Y-118600000D03*
D10*
X136000000Y-90000000D03*
X132375000Y-101000000D03*
D11*
X134915000Y-101000000D03*
X137455000Y-101000000D03*
X139995000Y-101000000D03*
X142535000Y-101000000D03*
X145075000Y-101000000D03*
X147615000Y-101000000D03*
D10*
X147000000Y-90000000D03*
X133000000Y-109000000D03*
X143850000Y-81400000D03*
D11*
X141310000Y-81400000D03*
X138770000Y-81400000D03*
X136230000Y-81400000D03*
D10*
X145000000Y-109000000D03*
D12*
X132375000Y-101000000D02*
X132375000Y-99450000D01*
X138770000Y-93055000D02*
X138770000Y-81400000D01*
X132375000Y-99450000D02*
X138770000Y-93055000D01*
X134915000Y-101000000D02*
X134915000Y-99797919D01*
X158600000Y-103850000D02*
X160022994Y-103850000D01*
X118100000Y-99000000D02*
X118100000Y-94900000D01*
X134275000Y-102900000D02*
X129900000Y-102900000D01*
X143850000Y-81400000D02*
X143850000Y-80207006D01*
X129900000Y-102900000D02*
X123150000Y-96150000D01*
X135920000Y-118600000D02*
X135920000Y-120022994D01*
X144557006Y-79500000D02*
X160500000Y-95442994D01*
X134915000Y-101000000D02*
X134915000Y-102260000D01*
X123150000Y-96150000D02*
X121400000Y-96150000D01*
X143850000Y-90862919D02*
X143850000Y-81400000D01*
X133963096Y-121000000D02*
X118100000Y-105136904D01*
X134915000Y-99797919D02*
X143850000Y-90862919D01*
X118100000Y-105136904D02*
X118100000Y-99000000D01*
X134942994Y-121000000D02*
X133963096Y-121000000D01*
X143850000Y-80207006D02*
X144557006Y-79500000D01*
X160500000Y-95442994D02*
X160500000Y-104327006D01*
X119350000Y-96150000D02*
X118100000Y-94900000D01*
X121400000Y-96150000D02*
X119350000Y-96150000D01*
X135920000Y-120022994D02*
X135442994Y-120500000D01*
X160022994Y-103850000D02*
X160500000Y-104327006D01*
X135442994Y-120500000D02*
X134942994Y-121000000D01*
X134915000Y-102260000D02*
X134275000Y-102900000D01*
X129320101Y-104300000D02*
X135700000Y-104300000D01*
X137455000Y-102545000D02*
X137455000Y-101000000D01*
X135700000Y-104300000D02*
X137455000Y-102545000D01*
X126250102Y-101230000D02*
X129320101Y-104300000D01*
X121400000Y-101230000D02*
X126250102Y-101230000D01*
X138460000Y-118600000D02*
X138460000Y-117340000D01*
X156000000Y-102650000D02*
X157340000Y-101310000D01*
X138460000Y-117340000D02*
X137820000Y-116700000D01*
X156000000Y-105050000D02*
X156000000Y-102650000D01*
X134300000Y-116700000D02*
X134000000Y-117000000D01*
X141310000Y-81400000D02*
X141310000Y-78790000D01*
X139995000Y-102202081D02*
X138460000Y-103737081D01*
X138460000Y-103737081D02*
X138460000Y-118600000D01*
X144906905Y-121900000D02*
X161056905Y-105750000D01*
X137820000Y-116700000D02*
X134300000Y-116700000D01*
X138460000Y-118600000D02*
X138460000Y-120440000D01*
X141310000Y-78790000D02*
X142000000Y-78100000D01*
X145136904Y-78100000D02*
X161900000Y-94863096D01*
X138460000Y-120440000D02*
X137000000Y-121900000D01*
X161056905Y-105750000D02*
X156700000Y-105750000D01*
X119500000Y-104557006D02*
X119500000Y-99500000D01*
X137000000Y-121900000D02*
X144906905Y-121900000D01*
X139995000Y-101000000D02*
X139995000Y-102202081D01*
X161900000Y-94863096D02*
X161900000Y-104906905D01*
X157340000Y-101310000D02*
X158600000Y-101310000D01*
X120310000Y-98690000D02*
X121400000Y-98690000D01*
X134000000Y-117000000D02*
X134000000Y-119000000D01*
X142000000Y-78100000D02*
X145136904Y-78100000D01*
X119500000Y-99500000D02*
X120310000Y-98690000D01*
X156700000Y-105750000D02*
X156000000Y-105050000D01*
X161900000Y-104906905D02*
X161056905Y-105750000D01*
X133942994Y-119000000D02*
X119500000Y-104557006D01*
X134000000Y-119000000D02*
X133942994Y-119000000D01*
X142535000Y-116917994D02*
X141000000Y-118452994D01*
X142535000Y-101000000D02*
X142535000Y-116917994D01*
X141000000Y-118452994D02*
X141000000Y-118600000D01*
X145075000Y-101000000D02*
X145075000Y-99797919D01*
X145000000Y-109000000D02*
X145000000Y-116990000D01*
X145000000Y-116990000D02*
X145075000Y-117065000D01*
X121400000Y-103770000D02*
X126630000Y-109000000D01*
X147000000Y-94587081D02*
X148642919Y-96230000D01*
X143540000Y-118600000D02*
X143540000Y-118747006D01*
X145075000Y-99797919D02*
X148642919Y-96230000D01*
X136230000Y-81400000D02*
X136230000Y-89770000D01*
X145075000Y-101000000D02*
X145075000Y-108925000D01*
X143540000Y-118600000D02*
X145075000Y-117065000D01*
X148642919Y-96230000D02*
X158600000Y-96230000D01*
X136230000Y-89770000D02*
X136000000Y-90000000D01*
X145075000Y-108925000D02*
X145000000Y-109000000D01*
X147000000Y-90000000D02*
X147000000Y-94587081D01*
X126630000Y-109000000D02*
X133000000Y-109000000D01*
X149845000Y-98770000D02*
X158600000Y-98770000D01*
X147615000Y-101000000D02*
X149845000Y-98770000D01*
M02*
