M48
; DRILL file {KiCad 7.0.2-0} date 2023 July 24, Monday 15:36:00
; FORMAT={3:3/ absolute / metric / keep zeros}
; #@! TF.CreationDate,2023-07-24T15:36:00+09:00
; #@! TF.GenerationSoftware,Kicad,Pcbnew,7.0.2-0
; #@! TF.FileFunction,MixedPlating,1,2
FMAT,2
METRIC
; #@! TA.AperFunction,Plated,PTH,ComponentDrill
T1C1.000
; #@! TA.AperFunction,NonPlated,NPTH,ComponentDrill
T2C2.100
%
G90
G05
T1
X121400Y-096150
X121400Y-098690
X121400Y-101230
X121400Y-103770
X132375Y-101000
X133000Y-109000
X134915Y-101000
X135920Y-118600
X136000Y-090000
X136230Y-081400
X137455Y-101000
X138460Y-118600
X138770Y-081400
X139995Y-101000
X141000Y-118600
X141310Y-081400
X142535Y-101000
X143540Y-118600
X143850Y-081400
X145000Y-109000
X145075Y-101000
X147000Y-090000
X147615Y-101000
X158600Y-096230
X158600Y-098770
X158600Y-101310
X158600Y-103850
T2
X123500Y-083500
X123500Y-116500
X156500Y-083500
X156500Y-116500
T0
M30
