G04 #@! TF.GenerationSoftware,KiCad,Pcbnew,7.0.2-0*
G04 #@! TF.CreationDate,2023-07-24T15:35:54+09:00*
G04 #@! TF.ProjectId,line_in,6c696e65-5f69-46e2-9e6b-696361645f70,rev?*
G04 #@! TF.SameCoordinates,Original*
G04 #@! TF.FileFunction,Profile,NP*
%FSLAX46Y46*%
G04 Gerber Fmt 4.6, Leading zero omitted, Abs format (unit mm)*
G04 Created by KiCad (PCBNEW 7.0.2-0) date 2023-07-24 15:35:54*
%MOMM*%
%LPD*%
G01*
G04 APERTURE LIST*
G04 #@! TA.AperFunction,Profile*
%ADD10C,0.200000*%
G04 #@! TD*
G04 APERTURE END LIST*
D10*
X125000000Y-120000000D02*
X128535534Y-123535534D01*
X160000000Y-85000000D02*
X155000000Y-80000000D01*
X155000000Y-80000000D02*
X151464466Y-76464466D01*
X163535559Y-111464491D02*
G75*
G03*
X165000000Y-107928932I-3535759J3535591D01*
G01*
X155000000Y-120000000D02*
X160000000Y-115000000D01*
X132071068Y-74999978D02*
G75*
G03*
X128535535Y-76464467I32J-5000022D01*
G01*
X147928932Y-75000000D02*
X132071068Y-75000000D01*
X124500000Y-116500000D02*
G75*
G03*
X124500000Y-116500000I-1000000J0D01*
G01*
X132071068Y-125000000D02*
X147928932Y-125000000D01*
X165000022Y-92071068D02*
G75*
G03*
X163535533Y-88535535I-5000022J-32D01*
G01*
X115000000Y-92071068D02*
X115000000Y-107928932D01*
X120000000Y-115000000D02*
X125000000Y-120000000D01*
X163535534Y-88535534D02*
X160000000Y-85000000D01*
X120000000Y-85000000D02*
X116464466Y-88535534D01*
X157500000Y-83500000D02*
G75*
G03*
X157500000Y-83500000I-1000000J0D01*
G01*
X128535550Y-123535518D02*
G75*
G03*
X132071068Y-125000000I3535550J3535518D01*
G01*
X151464466Y-123535534D02*
X155000000Y-120000000D01*
X116464482Y-88535550D02*
G75*
G03*
X115000000Y-92071068I3535518J-3535550D01*
G01*
X114999978Y-107928932D02*
G75*
G03*
X116464467Y-111464465I5000022J32D01*
G01*
X125000000Y-80000000D02*
X120000000Y-85000000D01*
X128535534Y-76464466D02*
X125000000Y-80000000D01*
X147928932Y-125000022D02*
G75*
G03*
X151464465Y-123535533I-32J5000022D01*
G01*
X165000000Y-107928932D02*
X165000000Y-92071068D01*
X160000000Y-115000000D02*
X163535534Y-111464466D01*
X151464450Y-76464482D02*
G75*
G03*
X147928932Y-75000000I-3535550J-3535518D01*
G01*
X124500000Y-83500000D02*
G75*
G03*
X124500000Y-83500000I-1000000J0D01*
G01*
X116464466Y-111464466D02*
X120000000Y-115000000D01*
X157500000Y-116500000D02*
G75*
G03*
X157500000Y-116500000I-1000000J0D01*
G01*
M02*
