G04 #@! TF.GenerationSoftware,KiCad,Pcbnew,7.0.2-0*
G04 #@! TF.CreationDate,2023-08-02T17:26:49+09:00*
G04 #@! TF.ProjectId,kicker_board2,6b69636b-6572-45f6-926f-617264322e6b,rev?*
G04 #@! TF.SameCoordinates,Original*
G04 #@! TF.FileFunction,Copper,L1,Top*
G04 #@! TF.FilePolarity,Positive*
%FSLAX46Y46*%
G04 Gerber Fmt 4.6, Leading zero omitted, Abs format (unit mm)*
G04 Created by KiCad (PCBNEW 7.0.2-0) date 2023-08-02 17:26:49*
%MOMM*%
%LPD*%
G01*
G04 APERTURE LIST*
G04 #@! TA.AperFunction,ComponentPad*
%ADD10R,1.700000X1.700000*%
G04 #@! TD*
G04 #@! TA.AperFunction,ComponentPad*
%ADD11O,1.700000X1.700000*%
G04 #@! TD*
G04 #@! TA.AperFunction,ComponentPad*
%ADD12C,1.800000*%
G04 #@! TD*
G04 #@! TA.AperFunction,ComponentPad*
%ADD13C,2.200000*%
G04 #@! TD*
G04 #@! TA.AperFunction,ComponentPad*
%ADD14C,1.600000*%
G04 #@! TD*
G04 #@! TA.AperFunction,ComponentPad*
%ADD15O,1.600000X1.600000*%
G04 #@! TD*
G04 #@! TA.AperFunction,ComponentPad*
%ADD16R,2.800000X2.800000*%
G04 #@! TD*
G04 #@! TA.AperFunction,ComponentPad*
%ADD17O,2.800000X2.800000*%
G04 #@! TD*
G04 #@! TA.AperFunction,Conductor*
%ADD18C,1.000000*%
G04 #@! TD*
G04 #@! TA.AperFunction,Conductor*
%ADD19C,0.500000*%
G04 #@! TD*
G04 APERTURE END LIST*
D10*
X154432000Y-107061000D03*
D11*
X154432000Y-104521000D03*
D12*
X141351000Y-115316000D03*
X121031000Y-115316000D03*
D13*
X121158000Y-90170000D03*
X126238000Y-90170000D03*
X131318000Y-90170000D03*
D10*
X149733000Y-111760000D03*
D11*
X149733000Y-114300000D03*
D14*
X130937000Y-93726000D03*
D15*
X138557000Y-93726000D03*
D10*
X143510000Y-91562000D03*
D11*
X143510000Y-94102000D03*
D14*
X126492000Y-97790000D03*
D15*
X118872000Y-97790000D03*
D14*
X138557000Y-97776000D03*
D15*
X130937000Y-97776000D03*
D12*
X119507000Y-104267000D03*
X139827000Y-104267000D03*
D10*
X149733000Y-100965000D03*
D11*
X149733000Y-98425000D03*
D14*
X118872000Y-93740000D03*
D15*
X126492000Y-93740000D03*
D16*
X144145000Y-98552000D03*
D17*
X144145000Y-111252000D03*
D10*
X136271000Y-90170000D03*
D11*
X136271000Y-87630000D03*
X136271000Y-85090000D03*
D18*
X147500000Y-102500000D02*
X143000000Y-107000000D01*
X149733000Y-111267000D02*
X150000000Y-111000000D01*
X157099000Y-108966000D02*
X156532500Y-109532500D01*
X150965000Y-101000000D02*
X149482500Y-102482500D01*
X151000000Y-100965000D02*
X153000000Y-100965000D01*
X155000000Y-111000000D02*
X150000000Y-111000000D01*
X144000000Y-109000000D02*
X143000000Y-110000000D01*
X144145000Y-109000000D02*
X144145000Y-106553000D01*
X143145000Y-108000000D02*
X144145000Y-109000000D01*
X153000000Y-100965000D02*
X154940000Y-100965000D01*
X144145000Y-109000000D02*
X144000000Y-109000000D01*
X150750500Y-101982500D02*
X149733000Y-100965000D01*
X143252000Y-111252000D02*
X143000000Y-111000000D01*
X143000000Y-106000000D02*
X143000000Y-105965000D01*
X153952500Y-100965000D02*
X155000000Y-102012500D01*
X153952500Y-101060000D02*
X153000000Y-102012500D01*
X149035000Y-100965000D02*
X148500000Y-101500000D01*
X144145000Y-111252000D02*
X144145000Y-109000000D01*
X143000000Y-107000000D02*
X143000000Y-106000000D01*
X143000000Y-111000000D02*
X143000000Y-110000000D01*
X143000000Y-105965000D02*
X148000000Y-100965000D01*
X148500000Y-101500000D02*
X147500000Y-102500000D01*
X144145000Y-111252000D02*
X143252000Y-111252000D01*
X147500000Y-102500000D02*
X148000000Y-103000000D01*
X149733000Y-111760000D02*
X149733000Y-111267000D01*
X154940000Y-100965000D02*
X155987500Y-102012500D01*
X151000000Y-101000000D02*
X150965000Y-101000000D01*
X151000000Y-101000000D02*
X151982500Y-101982500D01*
X155987500Y-102012500D02*
X157099000Y-103124000D01*
X144145000Y-106553000D02*
X149733000Y-100965000D01*
X151982500Y-101982500D02*
X153000000Y-100965000D01*
X156532500Y-109532500D02*
X155032500Y-111032500D01*
X144145000Y-106855000D02*
X143000000Y-108000000D01*
X149733000Y-100965000D02*
X151000000Y-100965000D01*
X143000000Y-108000000D02*
X143145000Y-108000000D01*
X143000000Y-110000000D02*
X143000000Y-108000000D01*
X148500000Y-101500000D02*
X149482500Y-102482500D01*
X151000000Y-100965000D02*
X151000000Y-101000000D01*
X155000000Y-102012500D02*
X155987500Y-102012500D01*
X150965000Y-103000000D02*
X151482500Y-102482500D01*
X149733000Y-100965000D02*
X149035000Y-100965000D01*
X148000000Y-100965000D02*
X149733000Y-100965000D01*
X157099000Y-103124000D02*
X157099000Y-108966000D01*
X144145000Y-106553000D02*
X144145000Y-106855000D01*
X151982500Y-101982500D02*
X150750500Y-101982500D01*
X155032500Y-111032500D02*
X155000000Y-111000000D01*
X155032500Y-111032500D02*
X154305000Y-111760000D01*
X154305000Y-111760000D02*
X149733000Y-111760000D01*
X143000000Y-106000000D02*
X143000000Y-105000000D01*
X156065000Y-110000000D02*
X156532500Y-109532500D01*
X147035000Y-100965000D02*
X148000000Y-100965000D01*
X152012500Y-102012500D02*
X153000000Y-102012500D01*
X153000000Y-100965000D02*
X153952500Y-100965000D01*
X143000000Y-105000000D02*
X147035000Y-100965000D01*
X151982500Y-101982500D02*
X152012500Y-102012500D01*
X149482500Y-102482500D02*
X151482500Y-102482500D01*
X151000000Y-110000000D02*
X156065000Y-110000000D01*
X148000000Y-103000000D02*
X150965000Y-103000000D01*
X143000000Y-108000000D02*
X143000000Y-107000000D01*
X150000000Y-111000000D02*
X151000000Y-110000000D01*
X151482500Y-102482500D02*
X151982500Y-101982500D01*
X153952500Y-100965000D02*
X153952500Y-101060000D01*
X153000000Y-102012500D02*
X155000000Y-102012500D01*
D19*
X145533141Y-119142500D02*
X146087821Y-118587821D01*
X124000000Y-96000000D02*
X123750000Y-96250000D01*
X145946446Y-118729195D02*
X126500000Y-118729195D01*
X122500000Y-97500000D02*
X122500000Y-97000000D01*
X127500000Y-93740000D02*
X126492000Y-93740000D01*
X123500000Y-96500000D02*
X123000000Y-97000000D01*
X123857500Y-118142500D02*
X124857500Y-119142500D01*
X127019000Y-93740000D02*
X127645000Y-94366000D01*
X130000000Y-91000000D02*
X130250000Y-91250000D01*
X128271000Y-93740000D02*
X127500000Y-93740000D01*
X126492000Y-93740000D02*
X127019000Y-93740000D01*
X126492000Y-93740000D02*
X125866000Y-94366000D01*
X124000000Y-117142500D02*
X126000000Y-119142500D01*
X123750000Y-96250000D02*
X123500000Y-96500000D01*
X122857500Y-117142500D02*
X123357500Y-117642500D01*
X121031000Y-115316000D02*
X121857500Y-116142500D01*
X131318000Y-90693000D02*
X130505500Y-91505500D01*
X125500000Y-93740000D02*
X126492000Y-93740000D01*
X130505500Y-91505500D02*
X128271000Y-93740000D01*
X122500000Y-113847000D02*
X122173500Y-114173500D01*
X124357500Y-118000000D02*
X125500000Y-119142500D01*
X124000000Y-96000000D02*
X124000000Y-117000000D01*
X125500000Y-94000000D02*
X125866000Y-94366000D01*
X122607500Y-116892500D02*
X122857500Y-117142500D01*
X125634000Y-94366000D02*
X124250000Y-95750000D01*
X123000000Y-97000000D02*
X122857500Y-97142500D01*
X126500000Y-118729195D02*
X124742000Y-116971195D01*
X123750000Y-118035000D02*
X123750000Y-96250000D01*
X122500000Y-113500000D02*
X122500000Y-116785000D01*
X121857500Y-114857500D02*
X121857500Y-116142500D01*
X124250000Y-95750000D02*
X124371000Y-95871000D01*
X123857500Y-118142500D02*
X123750000Y-118035000D01*
X146505886Y-118729195D02*
X145946446Y-118729195D01*
X127760000Y-93740000D02*
X130250000Y-91250000D01*
X124857500Y-119142500D02*
X125500000Y-119142500D01*
X122500000Y-97000000D02*
X122500000Y-96481610D01*
X127500000Y-93740000D02*
X127240000Y-93740000D01*
X124371000Y-110871000D02*
X124742000Y-110500000D01*
X123371000Y-96629000D02*
X123371000Y-117629000D01*
X149733000Y-114300000D02*
X149733000Y-114942641D01*
X122173500Y-114173500D02*
X121673500Y-114673500D01*
X121857500Y-116142500D02*
X122107500Y-116392500D01*
X130250000Y-91250000D02*
X130505500Y-91505500D01*
X121673500Y-114673500D02*
X121857500Y-114857500D01*
X130000000Y-90980000D02*
X130508000Y-90980000D01*
X130000000Y-91240000D02*
X127500000Y-93740000D01*
X124000000Y-117000000D02*
X124000000Y-117142500D01*
D18*
X126726534Y-93740000D02*
X126492000Y-93740000D01*
D19*
X125500000Y-94000000D02*
X122500000Y-97000000D01*
X122500000Y-116785000D02*
X122607500Y-116892500D01*
X122500000Y-96481610D02*
X125241610Y-93740000D01*
X149733000Y-114942641D02*
X146087821Y-118587821D01*
X125866000Y-94366000D02*
X124742000Y-95490000D01*
X127645000Y-94366000D02*
X128271000Y-93740000D01*
X149733000Y-114300000D02*
X149733000Y-115502081D01*
X126500000Y-119000000D02*
X126642500Y-119142500D01*
X125241610Y-93740000D02*
X125500000Y-93740000D01*
X130508000Y-90980000D02*
X131318000Y-90170000D01*
X125634000Y-94366000D02*
X127645000Y-94366000D01*
X123000000Y-97000000D02*
X122500000Y-97500000D01*
X123357500Y-117642500D02*
X123857500Y-118142500D01*
X122107500Y-114239500D02*
X122107500Y-116392500D01*
X124000000Y-117000000D02*
X124000000Y-118000000D01*
X124742000Y-116971195D02*
X124742000Y-110500000D01*
X130000000Y-90980000D02*
X127240000Y-93740000D01*
X122500000Y-97500000D02*
X122500000Y-113500000D01*
X122107500Y-116392500D02*
X122607500Y-116892500D01*
X127000000Y-93500000D02*
X126866000Y-93366000D01*
X123371000Y-117629000D02*
X123357500Y-117642500D01*
X125866000Y-94366000D02*
X125634000Y-94366000D01*
X127500000Y-93740000D02*
X127760000Y-93740000D01*
X127240000Y-93740000D02*
X127000000Y-93500000D01*
X129988000Y-91500000D02*
X131318000Y-90170000D01*
X124371000Y-95871000D02*
X124371000Y-110871000D01*
X124371000Y-116871000D02*
X126500000Y-119000000D01*
X122500000Y-113500000D02*
X122500000Y-113847000D01*
X130000000Y-91000000D02*
X130000000Y-91240000D01*
X126492000Y-93740000D02*
X126866000Y-93366000D01*
X123357500Y-117642500D02*
X123000000Y-117285000D01*
X124250000Y-95750000D02*
X124000000Y-96000000D01*
X124742000Y-95490000D02*
X124742000Y-110500000D01*
X124000000Y-118000000D02*
X124357500Y-118000000D01*
X126000000Y-119142500D02*
X126642500Y-119142500D01*
X125500000Y-93740000D02*
X125500000Y-94000000D01*
X146087821Y-118587821D02*
X145946446Y-118729195D01*
X126642500Y-119142500D02*
X145533141Y-119142500D01*
X122173500Y-114173500D02*
X122107500Y-114239500D01*
X121673500Y-114673500D02*
X121031000Y-115316000D01*
X123000000Y-117285000D02*
X123000000Y-97000000D01*
X123500000Y-96500000D02*
X123371000Y-96629000D01*
X124371000Y-110871000D02*
X124371000Y-116871000D01*
X125500000Y-119142500D02*
X126000000Y-119142500D01*
X149733000Y-115502081D02*
X146505886Y-118729195D01*
X122857500Y-97142500D02*
X122857500Y-117142500D01*
D18*
X145669000Y-97028000D02*
X145669000Y-93361862D01*
X146000000Y-99000000D02*
X144593000Y-99000000D01*
X146000000Y-99000000D02*
X146000000Y-97359000D01*
X146000000Y-97359000D02*
X145669000Y-97028000D01*
X145205836Y-91562000D02*
X146300000Y-92656164D01*
X146300000Y-96397000D02*
X145669000Y-97028000D01*
X143869138Y-91562000D02*
X145669000Y-93361862D01*
X144593000Y-99000000D02*
X144145000Y-98552000D01*
X144145000Y-98552000D02*
X145669000Y-97028000D01*
X143510000Y-91562000D02*
X143869138Y-91562000D01*
X146300000Y-96397000D02*
X146300000Y-98700000D01*
X143510000Y-91562000D02*
X145205836Y-91562000D01*
X146300000Y-92656164D02*
X146300000Y-96397000D01*
X146300000Y-98700000D02*
X146000000Y-99000000D01*
X141351000Y-102743000D02*
X141351000Y-96261000D01*
X139827000Y-102730000D02*
X140557000Y-102000000D01*
X140557000Y-94647000D02*
X140557000Y-96000000D01*
X140557000Y-96000000D02*
X140602000Y-96000000D01*
X140557000Y-96000000D02*
X140557000Y-97055000D01*
X140602000Y-94602000D02*
X142000000Y-94602000D01*
X141102000Y-94102000D02*
X140602000Y-94602000D01*
X143510000Y-94102000D02*
X141102000Y-94102000D01*
X139827000Y-104267000D02*
X139827000Y-100730000D01*
X139827000Y-104267000D02*
X140547000Y-103547000D01*
X142000000Y-94602000D02*
X142602000Y-94602000D01*
X140547000Y-103547000D02*
X140557000Y-103537000D01*
X142806000Y-94806000D02*
X143510000Y-94102000D01*
X140547000Y-103547000D02*
X141351000Y-102743000D01*
X140602000Y-96000000D02*
X142000000Y-94602000D01*
X140557000Y-97055000D02*
X141351000Y-96261000D01*
X141351000Y-96261000D02*
X142806000Y-94806000D01*
X140557000Y-102000000D02*
X140557000Y-100000000D01*
X140557000Y-103537000D02*
X140557000Y-102000000D01*
X139827000Y-100730000D02*
X140557000Y-100000000D01*
X139827000Y-104267000D02*
X139827000Y-102730000D01*
X140602000Y-94602000D02*
X140557000Y-94647000D01*
X140557000Y-100000000D02*
X140557000Y-97055000D01*
X142602000Y-94602000D02*
X142806000Y-94806000D01*
D19*
X139668559Y-87331441D02*
X139738500Y-87401381D01*
X140658892Y-86000000D02*
X140784446Y-85874446D01*
X140784446Y-88000000D02*
X137892223Y-85107777D01*
X141131669Y-85652777D02*
X141347223Y-85652777D01*
X137427119Y-85090000D02*
X138668559Y-86331441D01*
X140784446Y-87000000D02*
X142000000Y-87000000D01*
X140076695Y-86000000D02*
X140000000Y-85923305D01*
X140000000Y-85090000D02*
X139000000Y-85090000D01*
X140076695Y-92000000D02*
X140076695Y-86000000D01*
X140076695Y-86000000D02*
X140076695Y-85166695D01*
X148347223Y-92652777D02*
X143347223Y-87652777D01*
X140445639Y-88108521D02*
X140445639Y-87000000D01*
X140445639Y-86213253D02*
X141786747Y-86213253D01*
X140445639Y-87000000D02*
X138553416Y-85107777D01*
X149347223Y-93652777D02*
X149347223Y-97652777D01*
X139141500Y-93141500D02*
X139576695Y-93576695D01*
X142000000Y-87000000D02*
X142694446Y-87000000D01*
X141786747Y-86213253D02*
X141907699Y-86213253D01*
X142847223Y-87152777D02*
X142347223Y-86652777D01*
X140445639Y-88108521D02*
X139668559Y-87331441D01*
X139141500Y-93141500D02*
X138557000Y-93726000D01*
X140784446Y-86000000D02*
X140784446Y-85090000D01*
X143347223Y-87652777D02*
X142847223Y-87152777D01*
X140784446Y-86000000D02*
X141131669Y-85652777D01*
X142000000Y-86426506D02*
X141904935Y-86331441D01*
X137892223Y-85107777D02*
X137874446Y-85090000D01*
X140445639Y-92368944D02*
X140445639Y-88108521D01*
X149733000Y-98425000D02*
X149733000Y-94038554D01*
X149154000Y-97846000D02*
X149733000Y-98425000D01*
X140076695Y-92882695D02*
X139738500Y-92544500D01*
X140445639Y-87000000D02*
X140445639Y-86213253D01*
X149733000Y-98425000D02*
X148347223Y-97039223D01*
X139153390Y-94000000D02*
X139576695Y-93576695D01*
X138831000Y-94000000D02*
X139153390Y-94000000D01*
X140784446Y-92368944D02*
X140445639Y-92368944D01*
X142694446Y-87000000D02*
X142847223Y-87152777D01*
X139576695Y-93576695D02*
X140784446Y-92368944D01*
X141904935Y-86331441D02*
X141904935Y-86649225D01*
X149154000Y-93846000D02*
X149154000Y-97846000D01*
X140784446Y-92368944D02*
X140784446Y-88000000D01*
X140784446Y-87000000D02*
X140784446Y-86000000D01*
X142000000Y-86426506D02*
X141786747Y-86213253D01*
X137874446Y-85090000D02*
X136271000Y-85090000D01*
X140445639Y-86213253D02*
X140658892Y-86000000D01*
X149347223Y-93652777D02*
X148847223Y-93152777D01*
X141347223Y-85652777D02*
X140784446Y-85090000D01*
X148847223Y-93152777D02*
X148847223Y-97539223D01*
X149733000Y-94038554D02*
X149347223Y-93652777D01*
X139738500Y-87401381D02*
X139738500Y-92544500D01*
X141000000Y-86000000D02*
X141347223Y-85652777D01*
X148847223Y-97539223D02*
X149154000Y-97846000D01*
X148347223Y-97039223D02*
X148347223Y-92652777D01*
X142168559Y-86831441D02*
X139168559Y-86831441D01*
X139168559Y-86831441D02*
X139668559Y-87331441D01*
X140076695Y-85166695D02*
X140784446Y-85874446D01*
X141904935Y-86649225D02*
X140445639Y-88108521D01*
X142347223Y-86652777D02*
X142168559Y-86831441D01*
X142000000Y-87000000D02*
X142000000Y-86426506D01*
X140076695Y-92882695D02*
X140076695Y-92000000D01*
X138553416Y-85107777D02*
X137892223Y-85107777D01*
X140076695Y-93076695D02*
X140011890Y-93141500D01*
X139000000Y-85090000D02*
X136271000Y-85090000D01*
X140076695Y-93076695D02*
X140076695Y-92882695D01*
X140445639Y-92368944D02*
X140076695Y-92000000D01*
X140784446Y-92368944D02*
X140076695Y-93076695D01*
X139166695Y-85090000D02*
X140076695Y-86000000D01*
X136271000Y-85090000D02*
X137427119Y-85090000D01*
X142347223Y-86652777D02*
X141347223Y-85652777D01*
X140784446Y-86000000D02*
X141000000Y-86000000D01*
X149347223Y-93652777D02*
X149154000Y-93846000D01*
X140784446Y-85090000D02*
X140000000Y-85090000D01*
X142000000Y-87000000D02*
X142347223Y-86652777D01*
X139000000Y-85090000D02*
X139166695Y-85090000D01*
X149347223Y-97652777D02*
X149154000Y-97846000D01*
X141904935Y-86331441D02*
X138668559Y-86331441D01*
X140076695Y-85166695D02*
X140000000Y-85090000D01*
X141907699Y-86213253D02*
X142347223Y-86652777D01*
X139738500Y-92544500D02*
X139141500Y-93141500D01*
X140011890Y-93141500D02*
X139141500Y-93141500D01*
X140000000Y-85923305D02*
X140000000Y-85090000D01*
X138557000Y-93726000D02*
X138831000Y-94000000D01*
X138668559Y-86331441D02*
X139168559Y-86831441D01*
X140784446Y-88000000D02*
X140784446Y-87000000D01*
X140076695Y-86000000D02*
X140658892Y-86000000D01*
X138557000Y-93726000D02*
X138557000Y-93205000D01*
X148847223Y-93152777D02*
X148347223Y-92652777D01*
X140784446Y-85874446D02*
X140784446Y-86000000D01*
X147000000Y-115045585D02*
X147000000Y-115529195D01*
X127000000Y-98500000D02*
X126959352Y-98540648D01*
X154350000Y-108411000D02*
X153969500Y-108030500D01*
X153672500Y-108222500D02*
X150222500Y-108222500D01*
X140029195Y-117529195D02*
X140000000Y-117529195D01*
X151384000Y-107061000D02*
X153000000Y-107061000D01*
X149722500Y-108722500D02*
X150222500Y-108222500D01*
X147933000Y-111000000D02*
X147933000Y-110512000D01*
X126500000Y-99000000D02*
X127000000Y-98500000D01*
X147933000Y-110512000D02*
X149722500Y-108722500D01*
X153000000Y-107061000D02*
X153000000Y-107550000D01*
X126492000Y-97790000D02*
X126492000Y-99000000D01*
X144000000Y-117529195D02*
X145000000Y-117529195D01*
X153000000Y-107550000D02*
X153725000Y-108275000D01*
X145000000Y-117529195D02*
X145449390Y-117529195D01*
X126959352Y-103540648D02*
X127459352Y-104040648D01*
X127459352Y-104040648D02*
X127709352Y-104290648D01*
X151030500Y-108030500D02*
X153969500Y-108030500D01*
X140000000Y-117529195D02*
X139500000Y-117529195D01*
X139500000Y-117529195D02*
X126492000Y-104521195D01*
X140947899Y-117529195D02*
X140500000Y-117529195D01*
X147529195Y-115000000D02*
X147000000Y-115529195D01*
X126492000Y-97790000D02*
X127290000Y-97790000D01*
X142888263Y-117529195D02*
X147933000Y-112484458D01*
X144000000Y-117529195D02*
X144516390Y-117529195D01*
X153725000Y-108275000D02*
X153672500Y-108222500D01*
X147933000Y-113000000D02*
X147933000Y-111000000D01*
X153000000Y-107061000D02*
X154432000Y-107061000D01*
X132209352Y-108790648D02*
X140947899Y-117529195D01*
X126492000Y-103500000D02*
X126492000Y-103073296D01*
X128000000Y-104581296D02*
X128459352Y-105040648D01*
X126492000Y-103073296D02*
X126959352Y-103540648D01*
X147933000Y-113596195D02*
X147529195Y-114000000D01*
X127459352Y-98040648D02*
X127459352Y-104040648D01*
X154293000Y-108550000D02*
X154000000Y-108550000D01*
X127250000Y-98250000D02*
X127459352Y-98040648D01*
X147000000Y-115529195D02*
X145000000Y-117529195D01*
X150722500Y-107722500D02*
X151384000Y-107061000D01*
X150722500Y-107722500D02*
X151000000Y-108000000D01*
X147529195Y-114000000D02*
X146764597Y-114764597D01*
X126492000Y-103500000D02*
X126492000Y-103992000D01*
X147933000Y-113000000D02*
X147933000Y-113596195D01*
X144000000Y-117529195D02*
X146483610Y-115045585D01*
X126492000Y-103992000D02*
X127250000Y-104750000D01*
X127250000Y-104750000D02*
X140029195Y-117529195D01*
X146483610Y-115045585D02*
X147000000Y-115045585D01*
X147529195Y-114000000D02*
X147529195Y-114596195D01*
X147933000Y-115000000D02*
X147933000Y-114000000D01*
X154432000Y-108411000D02*
X154293000Y-108550000D01*
X140500000Y-117529195D02*
X140000000Y-117529195D01*
X127709352Y-98790648D02*
X128000000Y-98500000D01*
X151000000Y-108000000D02*
X151450000Y-107550000D01*
X146764597Y-114764597D02*
X146483610Y-115045585D01*
X145449390Y-117529195D02*
X147933000Y-115045585D01*
X126959352Y-98540648D02*
X126959352Y-103540648D01*
X128459352Y-105040648D02*
X132209352Y-108790648D01*
X147000000Y-115045585D02*
X147933000Y-115045585D01*
X149895000Y-108550000D02*
X149722500Y-108722500D01*
X127500000Y-98000000D02*
X128000000Y-98500000D01*
X147933000Y-114000000D02*
X147933000Y-113000000D01*
X143403805Y-117529195D02*
X147933000Y-113000000D01*
X126492000Y-104521195D02*
X126492000Y-103500000D01*
X127709352Y-104290648D02*
X128459352Y-105040648D01*
X147529195Y-114596195D02*
X147933000Y-115000000D01*
X151450000Y-107550000D02*
X153000000Y-107550000D01*
X126492000Y-99000000D02*
X126500000Y-99000000D01*
X151000000Y-108000000D02*
X151030500Y-108030500D01*
X154432000Y-107061000D02*
X154432000Y-108411000D01*
X144516390Y-117529195D02*
X147000000Y-115045585D01*
X154432000Y-108411000D02*
X154350000Y-108411000D01*
X147933000Y-114000000D02*
X147529195Y-114000000D01*
X140500000Y-117529195D02*
X126500000Y-103529195D01*
X142000000Y-117529195D02*
X142888263Y-117529195D01*
X127709352Y-104290648D02*
X127709352Y-98790648D01*
X126492000Y-99000000D02*
X126492000Y-103073296D01*
X154000000Y-108550000D02*
X149895000Y-108550000D01*
X127250000Y-104750000D02*
X127250000Y-98250000D01*
X140947899Y-117529195D02*
X142000000Y-117529195D01*
X147933000Y-115000000D02*
X147529195Y-115000000D01*
X142888263Y-117529195D02*
X143403805Y-117529195D01*
X146932999Y-114596195D02*
X146764597Y-114764597D01*
X150222500Y-108222500D02*
X150722500Y-107722500D01*
X127500000Y-98000000D02*
X127459352Y-98040648D01*
X153969500Y-108030500D02*
X153000000Y-107061000D01*
X127000000Y-98500000D02*
X127500000Y-98000000D01*
X147933000Y-112484458D02*
X147933000Y-111000000D01*
X142000000Y-117529195D02*
X144000000Y-117529195D01*
X153725000Y-108275000D02*
X154000000Y-108550000D01*
X147529195Y-114596195D02*
X146932999Y-114596195D01*
X147933000Y-115045585D02*
X147933000Y-115000000D01*
X128000000Y-98500000D02*
X128000000Y-104581296D01*
X127290000Y-97790000D02*
X127500000Y-98000000D01*
X146495000Y-110000000D02*
X146521000Y-110000000D01*
X143171598Y-113602000D02*
X145118402Y-113602000D01*
X151760500Y-104760500D02*
X152000000Y-104521000D01*
X147000000Y-109000000D02*
X147000000Y-108521000D01*
X137757001Y-108187403D02*
X143171598Y-113602000D01*
X146495000Y-112225402D02*
X146495000Y-110000000D01*
X146760500Y-109760500D02*
X147000000Y-109521000D01*
X147000000Y-109521000D02*
X147000000Y-109000000D01*
X151000000Y-104521000D02*
X150974000Y-104521000D01*
X137757001Y-98575999D02*
X137757001Y-108187403D01*
X151521000Y-105000000D02*
X151760500Y-104760500D01*
X138557000Y-97776000D02*
X137757001Y-98575999D01*
X146495000Y-108776000D02*
X150750000Y-104521000D01*
X150974000Y-104521000D02*
X146495000Y-109000000D01*
X146521000Y-110000000D02*
X146760500Y-109760500D01*
X150750000Y-104521000D02*
X151000000Y-104521000D01*
X146760500Y-109760500D02*
X151260500Y-105260500D01*
X151000000Y-105000000D02*
X147000000Y-109000000D01*
X151000000Y-105000000D02*
X151521000Y-105000000D01*
X151260500Y-105260500D02*
X151760500Y-104760500D01*
X147000000Y-108521000D02*
X151000000Y-104521000D01*
X145118402Y-113602000D02*
X146495000Y-112225402D01*
X147000000Y-109000000D02*
X147521000Y-109000000D01*
X151000000Y-105000000D02*
X151260500Y-105260500D01*
X146495000Y-109000000D02*
X146495000Y-108776000D01*
X151000000Y-104521000D02*
X151000000Y-105000000D01*
X147521000Y-109000000D02*
X152000000Y-104521000D01*
X152000000Y-104521000D02*
X154432000Y-104521000D01*
X146495000Y-109000000D02*
X146495000Y-109016000D01*
X146495000Y-109016000D02*
X147000000Y-109521000D01*
X151000000Y-104521000D02*
X152000000Y-104521000D01*
X146495000Y-109000000D02*
X147000000Y-109000000D01*
X146495000Y-110000000D02*
X146495000Y-109000000D01*
D18*
X121158000Y-92842000D02*
X121158000Y-90693000D01*
X118872000Y-92979000D02*
X118925500Y-92925500D01*
X119000000Y-93000000D02*
X118925500Y-92925500D01*
X120260000Y-93740000D02*
X121158000Y-92842000D01*
X120260000Y-92260000D02*
X119925500Y-91925500D01*
X120842000Y-91009000D02*
X121158000Y-90693000D01*
X120260000Y-93000000D02*
X119000000Y-93000000D01*
X120260000Y-93000000D02*
X120260000Y-92260000D01*
X118872000Y-93740000D02*
X118872000Y-92979000D01*
X118872000Y-93740000D02*
X120260000Y-93740000D01*
X118872000Y-96000000D02*
X118872000Y-93740000D01*
X120842000Y-92842000D02*
X120842000Y-91009000D01*
X118872000Y-95128000D02*
X118872000Y-96000000D01*
X118925500Y-92925500D02*
X119925500Y-91925500D01*
X120260000Y-93740000D02*
X118872000Y-95128000D01*
X120842000Y-92842000D02*
X119925500Y-91925500D01*
X121158000Y-92842000D02*
X120842000Y-92842000D01*
X120260000Y-93740000D02*
X120260000Y-93000000D01*
X118872000Y-97790000D02*
X118872000Y-96000000D01*
X119925500Y-91925500D02*
X121158000Y-90693000D01*
X121031000Y-102000000D02*
X121000000Y-102000000D01*
X121031000Y-102743000D02*
X121031000Y-102000000D01*
X120000000Y-100000000D02*
X121000000Y-99000000D01*
X119507000Y-100493000D02*
X120000000Y-100000000D01*
X121000000Y-99000000D02*
X121031000Y-99000000D01*
X119887000Y-103887000D02*
X121031000Y-102743000D01*
X120000000Y-100000000D02*
X120031000Y-100000000D01*
X121031000Y-99000000D02*
X121031000Y-95900000D01*
X119507000Y-104267000D02*
X119507000Y-100493000D01*
X121031000Y-102000000D02*
X121031000Y-101000000D01*
X120000000Y-100000000D02*
X120000000Y-101000000D01*
X120000000Y-103774000D02*
X119887000Y-103887000D01*
X119507000Y-104267000D02*
X119887000Y-103887000D01*
X120031000Y-100000000D02*
X121031000Y-101000000D01*
X121000000Y-102000000D02*
X120000000Y-101000000D01*
X120000000Y-101712000D02*
X121031000Y-102743000D01*
X120000000Y-100000000D02*
X120000000Y-103774000D01*
X121031000Y-95900000D02*
X126238000Y-90693000D01*
X121031000Y-101000000D02*
X121031000Y-99000000D01*
X120000000Y-101000000D02*
X120000000Y-101712000D01*
X132000000Y-94441000D02*
X132000000Y-95000000D01*
X132000000Y-96000000D02*
X131000000Y-96000000D01*
X132220500Y-94220500D02*
X132715000Y-93726000D01*
X134720500Y-91720500D02*
X136271000Y-90170000D01*
X132220500Y-97772500D02*
X132220500Y-94220500D01*
X130937000Y-97776000D02*
X130937000Y-95504000D01*
X131000000Y-96000000D02*
X131287000Y-96000000D01*
X132224000Y-97776000D02*
X132220500Y-97772500D01*
X132224000Y-97776000D02*
X133000000Y-97000000D01*
X131000000Y-96000000D02*
X130937000Y-96063000D01*
X132220500Y-94220500D02*
X132000000Y-94441000D01*
X130937000Y-96063000D02*
X130937000Y-97776000D01*
X130937000Y-95504000D02*
X132220500Y-94220500D01*
X132000000Y-96000000D02*
X132000000Y-97552000D01*
X130937000Y-97776000D02*
X130937000Y-93726000D01*
X133000000Y-97000000D02*
X133000000Y-93441000D01*
X133000000Y-93441000D02*
X134720500Y-91720500D01*
X130937000Y-97776000D02*
X132224000Y-97776000D01*
X130937000Y-93726000D02*
X132715000Y-93726000D01*
X132000000Y-95000000D02*
X132000000Y-96000000D01*
X132000000Y-96000000D02*
X132000000Y-96713000D01*
X132000000Y-95000000D02*
X130937000Y-96063000D01*
X132000000Y-96713000D02*
X130937000Y-97776000D01*
X131287000Y-96000000D02*
X132000000Y-96713000D01*
X132715000Y-93726000D02*
X134720500Y-91720500D01*
X132000000Y-97552000D02*
X132224000Y-97776000D01*
X139259494Y-111740506D02*
X140259494Y-112740506D01*
X135128000Y-109093000D02*
X135128000Y-94326572D01*
X137427119Y-87630000D02*
X136271000Y-87630000D01*
X136518988Y-109000000D02*
X137259494Y-109740506D01*
X139017500Y-112982500D02*
X137017500Y-110982500D01*
X136227286Y-109000000D02*
X136227286Y-110192286D01*
X135727286Y-93727286D02*
X136227286Y-93227286D01*
X140259494Y-112740506D02*
X139259494Y-112740506D01*
X138288500Y-91166072D02*
X138288500Y-88491381D01*
X137017500Y-110078940D02*
X136679066Y-109740506D01*
X137259494Y-109740506D02*
X141351000Y-113832012D01*
X136679066Y-109740506D02*
X136227286Y-110192286D01*
X135727286Y-93727286D02*
X135727286Y-109692286D01*
X139259494Y-111740506D02*
X138501488Y-110982500D01*
X137775506Y-111740506D02*
X139259494Y-111740506D01*
X137017500Y-110982500D02*
X137017500Y-110078940D01*
X140517500Y-114482500D02*
X139517500Y-113482500D01*
X135727286Y-109692286D02*
X136227286Y-110192286D01*
X139517500Y-113482500D02*
X139017500Y-112982500D01*
X136227286Y-110192286D02*
X137017500Y-110982500D01*
X139259494Y-112740506D02*
X139017500Y-112982500D01*
X137017500Y-110982500D02*
X135128000Y-109093000D01*
X139259494Y-111740506D02*
X139259494Y-112740506D01*
X136518988Y-109000000D02*
X139259494Y-111740506D01*
X138288500Y-88491381D02*
X137427119Y-87630000D01*
X136227286Y-93227286D02*
X138288500Y-91166072D01*
X137259494Y-109740506D02*
X136679066Y-109740506D01*
X136227286Y-109000000D02*
X136518988Y-109000000D01*
X135128000Y-94326572D02*
X135727286Y-93727286D01*
X141351000Y-113832012D02*
X141351000Y-115316000D01*
X136227286Y-110192286D02*
X137775506Y-111740506D01*
X136227286Y-93227286D02*
X136227286Y-109000000D01*
X138501488Y-110982500D02*
X137017500Y-110982500D01*
X140517500Y-112998512D02*
X140517500Y-114482500D01*
X141351000Y-115316000D02*
X140517500Y-114482500D01*
X140259494Y-112740506D02*
X140517500Y-112998512D01*
X139517500Y-113482500D02*
X140259494Y-112740506D01*
M02*
