%TF.GenerationSoftware,KiCad,Pcbnew,7.0.2-0*%
%TF.CreationDate,2023-08-02T17:26:51+09:00*%
%TF.ProjectId,kicker_board2,6b69636b-6572-45f6-926f-617264322e6b,rev?*%
%TF.SameCoordinates,Original*%
%TF.FileFunction,Drillmap*%
%TF.FilePolarity,Positive*%
%FSLAX45Y45*%
G04 Gerber Fmt 4.5, Leading zero omitted, Abs format (unit mm)*
G04 Created by KiCad (PCBNEW 7.0.2-0) date 2023-08-02 17:26:51*
%MOMM*%
%LPD*%
G01*
G04 APERTURE LIST*
%ADD10C,0.200000*%
%ADD11C,0.080000*%
%ADD12C,0.100000*%
%ADD13C,0.130000*%
%ADD14C,0.140000*%
G04 APERTURE END LIST*
D10*
X15985085Y-10818425D02*
G75*
G03*
X16028512Y-10766872I-206366J217905D01*
G01*
X13373545Y-12260563D02*
G75*
G03*
X13374962Y-12060562I144315J98983D01*
G01*
X16046975Y-10732130D02*
G75*
G03*
X16031081Y-10697046I-22475J10960D01*
G01*
X16031080Y-10504077D02*
G75*
G03*
X15992366Y-10524569I26290J-96483D01*
G01*
X12774866Y-12061345D02*
G75*
G03*
X12724866Y-12082500I12504J-99215D01*
G01*
X13935873Y-8310562D02*
X11993838Y-8310562D01*
X14606659Y-12010564D02*
G75*
G03*
X14812934Y-11928394I1J299994D01*
G01*
X14812934Y-11928394D02*
X15985085Y-10818425D01*
X12274867Y-8688624D02*
G75*
G03*
X12337366Y-8710563I62503J78064D01*
G01*
X16031080Y-10504075D02*
G75*
G03*
X16046977Y-10468994I-6560J24115D01*
G01*
X12164253Y-12272039D02*
G75*
G03*
X12443181Y-12461579I278937J110479D01*
G01*
X15992367Y-10676555D02*
G75*
G03*
X16031081Y-10697046I65003J75995D01*
G01*
X15998921Y-10396752D02*
X14155984Y-8406721D01*
X12774170Y-12260562D02*
X13373546Y-12260562D01*
X16031376Y-10760184D02*
G75*
G03*
X16046977Y-10732131I-254156J159704D01*
G01*
X12774866Y-12259778D02*
X12774170Y-12260562D01*
X16046977Y-10468994D02*
X16037561Y-10451235D01*
X12920162Y-8710561D02*
G75*
G03*
X12920160Y-8510563I143618J100001D01*
G01*
X11993838Y-8310558D02*
G75*
G03*
X11696191Y-8573063I2J-300002D01*
G01*
X12724867Y-12238624D02*
G75*
G03*
X12774866Y-12259778I62503J78064D01*
G01*
X13723632Y-12381689D02*
X14038115Y-12090452D01*
X16037561Y-10451235D02*
X16038617Y-10450593D01*
X12443181Y-12461579D02*
X13519791Y-12461579D01*
X16028512Y-10766872D02*
G75*
G03*
X16031376Y-10760184I-16592J11062D01*
G01*
X13374962Y-12060562D02*
X12774170Y-12060562D01*
X15992369Y-10524566D02*
G75*
G03*
X15992366Y-10676556I-64999J-75994D01*
G01*
X14155984Y-8406720D02*
G75*
G03*
X13935873Y-8310562I-220105J-203830D01*
G01*
X12724869Y-12082497D02*
G75*
G03*
X12724866Y-12238625I-62499J-78063D01*
G01*
X12337366Y-8710563D02*
X12920160Y-8710563D01*
X12774170Y-12060562D02*
X12774866Y-12061347D01*
X11696190Y-8573062D02*
G75*
G03*
X12164257Y-12272038I7441180J-937498D01*
G01*
X16038618Y-10450593D02*
G75*
G03*
X15998921Y-10396752I-259758J-149967D01*
G01*
X14241956Y-12010559D02*
G75*
G03*
X14038115Y-12090452I4J-300001D01*
G01*
X13519791Y-12461581D02*
G75*
G03*
X13723632Y-12381689I9J299971D01*
G01*
X14241956Y-12010562D02*
X14606659Y-12010562D01*
X12274869Y-8532497D02*
G75*
G03*
X12274866Y-8688625I-62499J-78063D01*
G01*
X12920160Y-8510563D02*
X12337319Y-8510563D01*
X12337319Y-8510560D02*
G75*
G03*
X12274866Y-8532500I51J-100000D01*
G01*
D11*
X11847200Y-9334000D02*
X11927200Y-9414000D01*
X11927200Y-9334000D02*
X11847200Y-9414000D01*
X11847200Y-9739000D02*
X11927200Y-9819000D01*
X11927200Y-9739000D02*
X11847200Y-9819000D01*
X12609200Y-9334000D02*
X12689200Y-9414000D01*
X12689200Y-9334000D02*
X12609200Y-9414000D01*
X12609200Y-9739000D02*
X12689200Y-9819000D01*
X12689200Y-9739000D02*
X12609200Y-9819000D01*
X13053700Y-9332600D02*
X13133700Y-9412600D01*
X13133700Y-9332600D02*
X13053700Y-9412600D01*
X13053700Y-9737600D02*
X13133700Y-9817600D01*
X13133700Y-9737600D02*
X13053700Y-9817600D01*
X13815700Y-9332600D02*
X13895700Y-9412600D01*
X13895700Y-9332600D02*
X13815700Y-9412600D01*
X13815700Y-9737600D02*
X13895700Y-9817600D01*
X13895700Y-9737600D02*
X13815700Y-9817600D01*
D12*
X12000700Y-10426700D02*
G75*
G03*
X12000700Y-10426700I-50000J0D01*
G01*
X12153100Y-11531600D02*
G75*
G03*
X12153100Y-11531600I-50000J0D01*
G01*
X13677100Y-8509000D02*
G75*
G03*
X13677100Y-8509000I-50000J0D01*
G01*
X13677100Y-8763000D02*
G75*
G03*
X13677100Y-8763000I-50000J0D01*
G01*
X13677100Y-9017000D02*
G75*
G03*
X13677100Y-9017000I-50000J0D01*
G01*
X14032700Y-10426700D02*
G75*
G03*
X14032700Y-10426700I-50000J0D01*
G01*
X14185100Y-11531600D02*
G75*
G03*
X14185100Y-11531600I-50000J0D01*
G01*
X14401000Y-9156200D02*
G75*
G03*
X14401000Y-9156200I-50000J0D01*
G01*
X14401000Y-9410200D02*
G75*
G03*
X14401000Y-9410200I-50000J0D01*
G01*
X15023300Y-9842500D02*
G75*
G03*
X15023300Y-9842500I-50000J0D01*
G01*
X15023300Y-10096500D02*
G75*
G03*
X15023300Y-10096500I-50000J0D01*
G01*
X15023300Y-11176000D02*
G75*
G03*
X15023300Y-11176000I-50000J0D01*
G01*
X15023300Y-11430000D02*
G75*
G03*
X15023300Y-11430000I-50000J0D01*
G01*
X15493200Y-10452100D02*
G75*
G03*
X15493200Y-10452100I-50000J0D01*
G01*
X15493200Y-10706100D02*
G75*
G03*
X15493200Y-10706100I-50000J0D01*
G01*
D13*
X12115800Y-8952000D02*
X12115800Y-9082000D01*
X12050800Y-9017000D02*
X12180800Y-9017000D01*
X12623800Y-8952000D02*
X12623800Y-9082000D01*
X12558800Y-9017000D02*
X12688800Y-9017000D01*
X13131800Y-8952000D02*
X13131800Y-9082000D01*
X13066800Y-9017000D02*
X13196800Y-9017000D01*
D14*
X14463998Y-9904698D02*
X14463998Y-9805702D01*
X14365002Y-9805702D01*
X14365002Y-9904698D01*
X14463998Y-9904698D01*
X14463998Y-11174698D02*
X14463998Y-11075702D01*
X14365002Y-11075702D01*
X14365002Y-11174698D01*
X14463998Y-11174698D01*
D10*
X11874985Y-12784104D02*
X11874985Y-12584104D01*
X11874985Y-12584104D02*
X11922604Y-12584104D01*
X11922604Y-12584104D02*
X11951175Y-12593628D01*
X11951175Y-12593628D02*
X11970223Y-12612676D01*
X11970223Y-12612676D02*
X11979747Y-12631723D01*
X11979747Y-12631723D02*
X11989270Y-12669819D01*
X11989270Y-12669819D02*
X11989270Y-12698390D01*
X11989270Y-12698390D02*
X11979747Y-12736485D01*
X11979747Y-12736485D02*
X11970223Y-12755533D01*
X11970223Y-12755533D02*
X11951175Y-12774581D01*
X11951175Y-12774581D02*
X11922604Y-12784104D01*
X11922604Y-12784104D02*
X11874985Y-12784104D01*
X12074985Y-12784104D02*
X12074985Y-12650771D01*
X12074985Y-12688866D02*
X12084508Y-12669819D01*
X12084508Y-12669819D02*
X12094032Y-12660295D01*
X12094032Y-12660295D02*
X12113080Y-12650771D01*
X12113080Y-12650771D02*
X12132128Y-12650771D01*
X12198794Y-12784104D02*
X12198794Y-12650771D01*
X12198794Y-12584104D02*
X12189270Y-12593628D01*
X12189270Y-12593628D02*
X12198794Y-12603152D01*
X12198794Y-12603152D02*
X12208318Y-12593628D01*
X12208318Y-12593628D02*
X12198794Y-12584104D01*
X12198794Y-12584104D02*
X12198794Y-12603152D01*
X12322604Y-12784104D02*
X12303556Y-12774581D01*
X12303556Y-12774581D02*
X12294032Y-12755533D01*
X12294032Y-12755533D02*
X12294032Y-12584104D01*
X12427366Y-12784104D02*
X12408318Y-12774581D01*
X12408318Y-12774581D02*
X12398794Y-12755533D01*
X12398794Y-12755533D02*
X12398794Y-12584104D01*
X12655937Y-12784104D02*
X12655937Y-12584104D01*
X12655937Y-12584104D02*
X12722604Y-12726962D01*
X12722604Y-12726962D02*
X12789270Y-12584104D01*
X12789270Y-12584104D02*
X12789270Y-12784104D01*
X12970223Y-12784104D02*
X12970223Y-12679343D01*
X12970223Y-12679343D02*
X12960699Y-12660295D01*
X12960699Y-12660295D02*
X12941651Y-12650771D01*
X12941651Y-12650771D02*
X12903556Y-12650771D01*
X12903556Y-12650771D02*
X12884508Y-12660295D01*
X12970223Y-12774581D02*
X12951175Y-12784104D01*
X12951175Y-12784104D02*
X12903556Y-12784104D01*
X12903556Y-12784104D02*
X12884508Y-12774581D01*
X12884508Y-12774581D02*
X12874985Y-12755533D01*
X12874985Y-12755533D02*
X12874985Y-12736485D01*
X12874985Y-12736485D02*
X12884508Y-12717438D01*
X12884508Y-12717438D02*
X12903556Y-12707914D01*
X12903556Y-12707914D02*
X12951175Y-12707914D01*
X12951175Y-12707914D02*
X12970223Y-12698390D01*
X13065461Y-12650771D02*
X13065461Y-12850771D01*
X13065461Y-12660295D02*
X13084508Y-12650771D01*
X13084508Y-12650771D02*
X13122604Y-12650771D01*
X13122604Y-12650771D02*
X13141651Y-12660295D01*
X13141651Y-12660295D02*
X13151175Y-12669819D01*
X13151175Y-12669819D02*
X13160699Y-12688866D01*
X13160699Y-12688866D02*
X13160699Y-12746009D01*
X13160699Y-12746009D02*
X13151175Y-12765057D01*
X13151175Y-12765057D02*
X13141651Y-12774581D01*
X13141651Y-12774581D02*
X13122604Y-12784104D01*
X13122604Y-12784104D02*
X13084508Y-12784104D01*
X13084508Y-12784104D02*
X13065461Y-12774581D01*
X13246413Y-12765057D02*
X13255937Y-12774581D01*
X13255937Y-12774581D02*
X13246413Y-12784104D01*
X13246413Y-12784104D02*
X13236889Y-12774581D01*
X13236889Y-12774581D02*
X13246413Y-12765057D01*
X13246413Y-12765057D02*
X13246413Y-12784104D01*
X13246413Y-12660295D02*
X13255937Y-12669819D01*
X13255937Y-12669819D02*
X13246413Y-12679343D01*
X13246413Y-12679343D02*
X13236889Y-12669819D01*
X13236889Y-12669819D02*
X13246413Y-12660295D01*
X13246413Y-12660295D02*
X13246413Y-12679343D01*
D11*
X11547366Y-13071581D02*
X11627366Y-13151581D01*
X11627366Y-13071581D02*
X11547366Y-13151581D01*
D10*
X11913080Y-13004104D02*
X11932128Y-13004104D01*
X11932128Y-13004104D02*
X11951175Y-13013628D01*
X11951175Y-13013628D02*
X11960699Y-13023152D01*
X11960699Y-13023152D02*
X11970223Y-13042200D01*
X11970223Y-13042200D02*
X11979747Y-13080295D01*
X11979747Y-13080295D02*
X11979747Y-13127914D01*
X11979747Y-13127914D02*
X11970223Y-13166009D01*
X11970223Y-13166009D02*
X11960699Y-13185057D01*
X11960699Y-13185057D02*
X11951175Y-13194581D01*
X11951175Y-13194581D02*
X11932128Y-13204104D01*
X11932128Y-13204104D02*
X11913080Y-13204104D01*
X11913080Y-13204104D02*
X11894032Y-13194581D01*
X11894032Y-13194581D02*
X11884508Y-13185057D01*
X11884508Y-13185057D02*
X11874985Y-13166009D01*
X11874985Y-13166009D02*
X11865461Y-13127914D01*
X11865461Y-13127914D02*
X11865461Y-13080295D01*
X11865461Y-13080295D02*
X11874985Y-13042200D01*
X11874985Y-13042200D02*
X11884508Y-13023152D01*
X11884508Y-13023152D02*
X11894032Y-13013628D01*
X11894032Y-13013628D02*
X11913080Y-13004104D01*
X12065461Y-13185057D02*
X12074985Y-13194581D01*
X12074985Y-13194581D02*
X12065461Y-13204104D01*
X12065461Y-13204104D02*
X12055937Y-13194581D01*
X12055937Y-13194581D02*
X12065461Y-13185057D01*
X12065461Y-13185057D02*
X12065461Y-13204104D01*
X12189270Y-13089819D02*
X12170223Y-13080295D01*
X12170223Y-13080295D02*
X12160699Y-13070771D01*
X12160699Y-13070771D02*
X12151175Y-13051723D01*
X12151175Y-13051723D02*
X12151175Y-13042200D01*
X12151175Y-13042200D02*
X12160699Y-13023152D01*
X12160699Y-13023152D02*
X12170223Y-13013628D01*
X12170223Y-13013628D02*
X12189270Y-13004104D01*
X12189270Y-13004104D02*
X12227366Y-13004104D01*
X12227366Y-13004104D02*
X12246413Y-13013628D01*
X12246413Y-13013628D02*
X12255937Y-13023152D01*
X12255937Y-13023152D02*
X12265461Y-13042200D01*
X12265461Y-13042200D02*
X12265461Y-13051723D01*
X12265461Y-13051723D02*
X12255937Y-13070771D01*
X12255937Y-13070771D02*
X12246413Y-13080295D01*
X12246413Y-13080295D02*
X12227366Y-13089819D01*
X12227366Y-13089819D02*
X12189270Y-13089819D01*
X12189270Y-13089819D02*
X12170223Y-13099343D01*
X12170223Y-13099343D02*
X12160699Y-13108866D01*
X12160699Y-13108866D02*
X12151175Y-13127914D01*
X12151175Y-13127914D02*
X12151175Y-13166009D01*
X12151175Y-13166009D02*
X12160699Y-13185057D01*
X12160699Y-13185057D02*
X12170223Y-13194581D01*
X12170223Y-13194581D02*
X12189270Y-13204104D01*
X12189270Y-13204104D02*
X12227366Y-13204104D01*
X12227366Y-13204104D02*
X12246413Y-13194581D01*
X12246413Y-13194581D02*
X12255937Y-13185057D01*
X12255937Y-13185057D02*
X12265461Y-13166009D01*
X12265461Y-13166009D02*
X12265461Y-13127914D01*
X12265461Y-13127914D02*
X12255937Y-13108866D01*
X12255937Y-13108866D02*
X12246413Y-13099343D01*
X12246413Y-13099343D02*
X12227366Y-13089819D01*
X12389270Y-13004104D02*
X12408318Y-13004104D01*
X12408318Y-13004104D02*
X12427366Y-13013628D01*
X12427366Y-13013628D02*
X12436889Y-13023152D01*
X12436889Y-13023152D02*
X12446413Y-13042200D01*
X12446413Y-13042200D02*
X12455937Y-13080295D01*
X12455937Y-13080295D02*
X12455937Y-13127914D01*
X12455937Y-13127914D02*
X12446413Y-13166009D01*
X12446413Y-13166009D02*
X12436889Y-13185057D01*
X12436889Y-13185057D02*
X12427366Y-13194581D01*
X12427366Y-13194581D02*
X12408318Y-13204104D01*
X12408318Y-13204104D02*
X12389270Y-13204104D01*
X12389270Y-13204104D02*
X12370223Y-13194581D01*
X12370223Y-13194581D02*
X12360699Y-13185057D01*
X12360699Y-13185057D02*
X12351175Y-13166009D01*
X12351175Y-13166009D02*
X12341651Y-13127914D01*
X12341651Y-13127914D02*
X12341651Y-13080295D01*
X12341651Y-13080295D02*
X12351175Y-13042200D01*
X12351175Y-13042200D02*
X12360699Y-13023152D01*
X12360699Y-13023152D02*
X12370223Y-13013628D01*
X12370223Y-13013628D02*
X12389270Y-13004104D01*
X12579747Y-13004104D02*
X12598794Y-13004104D01*
X12598794Y-13004104D02*
X12617842Y-13013628D01*
X12617842Y-13013628D02*
X12627366Y-13023152D01*
X12627366Y-13023152D02*
X12636889Y-13042200D01*
X12636889Y-13042200D02*
X12646413Y-13080295D01*
X12646413Y-13080295D02*
X12646413Y-13127914D01*
X12646413Y-13127914D02*
X12636889Y-13166009D01*
X12636889Y-13166009D02*
X12627366Y-13185057D01*
X12627366Y-13185057D02*
X12617842Y-13194581D01*
X12617842Y-13194581D02*
X12598794Y-13204104D01*
X12598794Y-13204104D02*
X12579747Y-13204104D01*
X12579747Y-13204104D02*
X12560699Y-13194581D01*
X12560699Y-13194581D02*
X12551175Y-13185057D01*
X12551175Y-13185057D02*
X12541651Y-13166009D01*
X12541651Y-13166009D02*
X12532128Y-13127914D01*
X12532128Y-13127914D02*
X12532128Y-13080295D01*
X12532128Y-13080295D02*
X12541651Y-13042200D01*
X12541651Y-13042200D02*
X12551175Y-13023152D01*
X12551175Y-13023152D02*
X12560699Y-13013628D01*
X12560699Y-13013628D02*
X12579747Y-13004104D01*
X12732128Y-13204104D02*
X12732128Y-13070771D01*
X12732128Y-13089819D02*
X12741651Y-13080295D01*
X12741651Y-13080295D02*
X12760699Y-13070771D01*
X12760699Y-13070771D02*
X12789270Y-13070771D01*
X12789270Y-13070771D02*
X12808318Y-13080295D01*
X12808318Y-13080295D02*
X12817842Y-13099343D01*
X12817842Y-13099343D02*
X12817842Y-13204104D01*
X12817842Y-13099343D02*
X12827366Y-13080295D01*
X12827366Y-13080295D02*
X12846413Y-13070771D01*
X12846413Y-13070771D02*
X12874985Y-13070771D01*
X12874985Y-13070771D02*
X12894032Y-13080295D01*
X12894032Y-13080295D02*
X12903556Y-13099343D01*
X12903556Y-13099343D02*
X12903556Y-13204104D01*
X12998794Y-13204104D02*
X12998794Y-13070771D01*
X12998794Y-13089819D02*
X13008318Y-13080295D01*
X13008318Y-13080295D02*
X13027366Y-13070771D01*
X13027366Y-13070771D02*
X13055937Y-13070771D01*
X13055937Y-13070771D02*
X13074985Y-13080295D01*
X13074985Y-13080295D02*
X13084509Y-13099343D01*
X13084509Y-13099343D02*
X13084509Y-13204104D01*
X13084509Y-13099343D02*
X13094032Y-13080295D01*
X13094032Y-13080295D02*
X13113080Y-13070771D01*
X13113080Y-13070771D02*
X13141651Y-13070771D01*
X13141651Y-13070771D02*
X13160699Y-13080295D01*
X13160699Y-13080295D02*
X13170223Y-13099343D01*
X13170223Y-13099343D02*
X13170223Y-13204104D01*
X13560699Y-12994581D02*
X13389271Y-13251723D01*
X13817842Y-13004104D02*
X13836890Y-13004104D01*
X13836890Y-13004104D02*
X13855937Y-13013628D01*
X13855937Y-13013628D02*
X13865461Y-13023152D01*
X13865461Y-13023152D02*
X13874985Y-13042200D01*
X13874985Y-13042200D02*
X13884509Y-13080295D01*
X13884509Y-13080295D02*
X13884509Y-13127914D01*
X13884509Y-13127914D02*
X13874985Y-13166009D01*
X13874985Y-13166009D02*
X13865461Y-13185057D01*
X13865461Y-13185057D02*
X13855937Y-13194581D01*
X13855937Y-13194581D02*
X13836890Y-13204104D01*
X13836890Y-13204104D02*
X13817842Y-13204104D01*
X13817842Y-13204104D02*
X13798794Y-13194581D01*
X13798794Y-13194581D02*
X13789271Y-13185057D01*
X13789271Y-13185057D02*
X13779747Y-13166009D01*
X13779747Y-13166009D02*
X13770223Y-13127914D01*
X13770223Y-13127914D02*
X13770223Y-13080295D01*
X13770223Y-13080295D02*
X13779747Y-13042200D01*
X13779747Y-13042200D02*
X13789271Y-13023152D01*
X13789271Y-13023152D02*
X13798794Y-13013628D01*
X13798794Y-13013628D02*
X13817842Y-13004104D01*
X13970223Y-13185057D02*
X13979747Y-13194581D01*
X13979747Y-13194581D02*
X13970223Y-13204104D01*
X13970223Y-13204104D02*
X13960699Y-13194581D01*
X13960699Y-13194581D02*
X13970223Y-13185057D01*
X13970223Y-13185057D02*
X13970223Y-13204104D01*
X14103556Y-13004104D02*
X14122604Y-13004104D01*
X14122604Y-13004104D02*
X14141652Y-13013628D01*
X14141652Y-13013628D02*
X14151175Y-13023152D01*
X14151175Y-13023152D02*
X14160699Y-13042200D01*
X14160699Y-13042200D02*
X14170223Y-13080295D01*
X14170223Y-13080295D02*
X14170223Y-13127914D01*
X14170223Y-13127914D02*
X14160699Y-13166009D01*
X14160699Y-13166009D02*
X14151175Y-13185057D01*
X14151175Y-13185057D02*
X14141652Y-13194581D01*
X14141652Y-13194581D02*
X14122604Y-13204104D01*
X14122604Y-13204104D02*
X14103556Y-13204104D01*
X14103556Y-13204104D02*
X14084509Y-13194581D01*
X14084509Y-13194581D02*
X14074985Y-13185057D01*
X14074985Y-13185057D02*
X14065461Y-13166009D01*
X14065461Y-13166009D02*
X14055937Y-13127914D01*
X14055937Y-13127914D02*
X14055937Y-13080295D01*
X14055937Y-13080295D02*
X14065461Y-13042200D01*
X14065461Y-13042200D02*
X14074985Y-13023152D01*
X14074985Y-13023152D02*
X14084509Y-13013628D01*
X14084509Y-13013628D02*
X14103556Y-13004104D01*
X14236890Y-13004104D02*
X14360699Y-13004104D01*
X14360699Y-13004104D02*
X14294032Y-13080295D01*
X14294032Y-13080295D02*
X14322604Y-13080295D01*
X14322604Y-13080295D02*
X14341652Y-13089819D01*
X14341652Y-13089819D02*
X14351175Y-13099343D01*
X14351175Y-13099343D02*
X14360699Y-13118390D01*
X14360699Y-13118390D02*
X14360699Y-13166009D01*
X14360699Y-13166009D02*
X14351175Y-13185057D01*
X14351175Y-13185057D02*
X14341652Y-13194581D01*
X14341652Y-13194581D02*
X14322604Y-13204104D01*
X14322604Y-13204104D02*
X14265461Y-13204104D01*
X14265461Y-13204104D02*
X14246413Y-13194581D01*
X14246413Y-13194581D02*
X14236890Y-13185057D01*
X14551175Y-13204104D02*
X14436890Y-13204104D01*
X14494032Y-13204104D02*
X14494032Y-13004104D01*
X14494032Y-13004104D02*
X14474985Y-13032676D01*
X14474985Y-13032676D02*
X14455937Y-13051723D01*
X14455937Y-13051723D02*
X14436890Y-13061247D01*
X14732128Y-13004104D02*
X14636890Y-13004104D01*
X14636890Y-13004104D02*
X14627366Y-13099343D01*
X14627366Y-13099343D02*
X14636890Y-13089819D01*
X14636890Y-13089819D02*
X14655937Y-13080295D01*
X14655937Y-13080295D02*
X14703556Y-13080295D01*
X14703556Y-13080295D02*
X14722604Y-13089819D01*
X14722604Y-13089819D02*
X14732128Y-13099343D01*
X14732128Y-13099343D02*
X14741652Y-13118390D01*
X14741652Y-13118390D02*
X14741652Y-13166009D01*
X14741652Y-13166009D02*
X14732128Y-13185057D01*
X14732128Y-13185057D02*
X14722604Y-13194581D01*
X14722604Y-13194581D02*
X14703556Y-13204104D01*
X14703556Y-13204104D02*
X14655937Y-13204104D01*
X14655937Y-13204104D02*
X14636890Y-13194581D01*
X14636890Y-13194581D02*
X14627366Y-13185057D01*
X14817842Y-13004104D02*
X14817842Y-13042200D01*
X14894033Y-13004104D02*
X14894033Y-13042200D01*
X15189271Y-13280295D02*
X15179747Y-13270771D01*
X15179747Y-13270771D02*
X15160699Y-13242200D01*
X15160699Y-13242200D02*
X15151175Y-13223152D01*
X15151175Y-13223152D02*
X15141652Y-13194581D01*
X15141652Y-13194581D02*
X15132128Y-13146962D01*
X15132128Y-13146962D02*
X15132128Y-13108866D01*
X15132128Y-13108866D02*
X15141652Y-13061247D01*
X15141652Y-13061247D02*
X15151175Y-13032676D01*
X15151175Y-13032676D02*
X15160699Y-13013628D01*
X15160699Y-13013628D02*
X15179747Y-12985057D01*
X15179747Y-12985057D02*
X15189271Y-12975533D01*
X15294033Y-13089819D02*
X15274985Y-13080295D01*
X15274985Y-13080295D02*
X15265461Y-13070771D01*
X15265461Y-13070771D02*
X15255937Y-13051723D01*
X15255937Y-13051723D02*
X15255937Y-13042200D01*
X15255937Y-13042200D02*
X15265461Y-13023152D01*
X15265461Y-13023152D02*
X15274985Y-13013628D01*
X15274985Y-13013628D02*
X15294033Y-13004104D01*
X15294033Y-13004104D02*
X15332128Y-13004104D01*
X15332128Y-13004104D02*
X15351175Y-13013628D01*
X15351175Y-13013628D02*
X15360699Y-13023152D01*
X15360699Y-13023152D02*
X15370223Y-13042200D01*
X15370223Y-13042200D02*
X15370223Y-13051723D01*
X15370223Y-13051723D02*
X15360699Y-13070771D01*
X15360699Y-13070771D02*
X15351175Y-13080295D01*
X15351175Y-13080295D02*
X15332128Y-13089819D01*
X15332128Y-13089819D02*
X15294033Y-13089819D01*
X15294033Y-13089819D02*
X15274985Y-13099343D01*
X15274985Y-13099343D02*
X15265461Y-13108866D01*
X15265461Y-13108866D02*
X15255937Y-13127914D01*
X15255937Y-13127914D02*
X15255937Y-13166009D01*
X15255937Y-13166009D02*
X15265461Y-13185057D01*
X15265461Y-13185057D02*
X15274985Y-13194581D01*
X15274985Y-13194581D02*
X15294033Y-13204104D01*
X15294033Y-13204104D02*
X15332128Y-13204104D01*
X15332128Y-13204104D02*
X15351175Y-13194581D01*
X15351175Y-13194581D02*
X15360699Y-13185057D01*
X15360699Y-13185057D02*
X15370223Y-13166009D01*
X15370223Y-13166009D02*
X15370223Y-13127914D01*
X15370223Y-13127914D02*
X15360699Y-13108866D01*
X15360699Y-13108866D02*
X15351175Y-13099343D01*
X15351175Y-13099343D02*
X15332128Y-13089819D01*
X15608318Y-13204104D02*
X15608318Y-13004104D01*
X15694033Y-13204104D02*
X15694033Y-13099343D01*
X15694033Y-13099343D02*
X15684509Y-13080295D01*
X15684509Y-13080295D02*
X15665461Y-13070771D01*
X15665461Y-13070771D02*
X15636890Y-13070771D01*
X15636890Y-13070771D02*
X15617842Y-13080295D01*
X15617842Y-13080295D02*
X15608318Y-13089819D01*
X15817842Y-13204104D02*
X15798795Y-13194581D01*
X15798795Y-13194581D02*
X15789271Y-13185057D01*
X15789271Y-13185057D02*
X15779747Y-13166009D01*
X15779747Y-13166009D02*
X15779747Y-13108866D01*
X15779747Y-13108866D02*
X15789271Y-13089819D01*
X15789271Y-13089819D02*
X15798795Y-13080295D01*
X15798795Y-13080295D02*
X15817842Y-13070771D01*
X15817842Y-13070771D02*
X15846414Y-13070771D01*
X15846414Y-13070771D02*
X15865461Y-13080295D01*
X15865461Y-13080295D02*
X15874985Y-13089819D01*
X15874985Y-13089819D02*
X15884509Y-13108866D01*
X15884509Y-13108866D02*
X15884509Y-13166009D01*
X15884509Y-13166009D02*
X15874985Y-13185057D01*
X15874985Y-13185057D02*
X15865461Y-13194581D01*
X15865461Y-13194581D02*
X15846414Y-13204104D01*
X15846414Y-13204104D02*
X15817842Y-13204104D01*
X15998795Y-13204104D02*
X15979747Y-13194581D01*
X15979747Y-13194581D02*
X15970223Y-13175533D01*
X15970223Y-13175533D02*
X15970223Y-13004104D01*
X16151176Y-13194581D02*
X16132128Y-13204104D01*
X16132128Y-13204104D02*
X16094033Y-13204104D01*
X16094033Y-13204104D02*
X16074985Y-13194581D01*
X16074985Y-13194581D02*
X16065461Y-13175533D01*
X16065461Y-13175533D02*
X16065461Y-13099343D01*
X16065461Y-13099343D02*
X16074985Y-13080295D01*
X16074985Y-13080295D02*
X16094033Y-13070771D01*
X16094033Y-13070771D02*
X16132128Y-13070771D01*
X16132128Y-13070771D02*
X16151176Y-13080295D01*
X16151176Y-13080295D02*
X16160699Y-13099343D01*
X16160699Y-13099343D02*
X16160699Y-13118390D01*
X16160699Y-13118390D02*
X16065461Y-13137438D01*
X16236890Y-13194581D02*
X16255937Y-13204104D01*
X16255937Y-13204104D02*
X16294033Y-13204104D01*
X16294033Y-13204104D02*
X16313080Y-13194581D01*
X16313080Y-13194581D02*
X16322604Y-13175533D01*
X16322604Y-13175533D02*
X16322604Y-13166009D01*
X16322604Y-13166009D02*
X16313080Y-13146962D01*
X16313080Y-13146962D02*
X16294033Y-13137438D01*
X16294033Y-13137438D02*
X16265461Y-13137438D01*
X16265461Y-13137438D02*
X16246414Y-13127914D01*
X16246414Y-13127914D02*
X16236890Y-13108866D01*
X16236890Y-13108866D02*
X16236890Y-13099343D01*
X16236890Y-13099343D02*
X16246414Y-13080295D01*
X16246414Y-13080295D02*
X16265461Y-13070771D01*
X16265461Y-13070771D02*
X16294033Y-13070771D01*
X16294033Y-13070771D02*
X16313080Y-13080295D01*
X16389271Y-13280295D02*
X16398795Y-13270771D01*
X16398795Y-13270771D02*
X16417842Y-13242200D01*
X16417842Y-13242200D02*
X16427366Y-13223152D01*
X16427366Y-13223152D02*
X16436890Y-13194581D01*
X16436890Y-13194581D02*
X16446414Y-13146962D01*
X16446414Y-13146962D02*
X16446414Y-13108866D01*
X16446414Y-13108866D02*
X16436890Y-13061247D01*
X16436890Y-13061247D02*
X16427366Y-13032676D01*
X16427366Y-13032676D02*
X16417842Y-13013628D01*
X16417842Y-13013628D02*
X16398795Y-12985057D01*
X16398795Y-12985057D02*
X16389271Y-12975533D01*
D12*
X11627366Y-13375581D02*
G75*
G03*
X11627366Y-13375581I-50000J0D01*
G01*
D10*
X11979747Y-13468104D02*
X11865461Y-13468104D01*
X11922604Y-13468104D02*
X11922604Y-13268104D01*
X11922604Y-13268104D02*
X11903556Y-13296676D01*
X11903556Y-13296676D02*
X11884508Y-13315723D01*
X11884508Y-13315723D02*
X11865461Y-13325247D01*
X12065461Y-13449057D02*
X12074985Y-13458581D01*
X12074985Y-13458581D02*
X12065461Y-13468104D01*
X12065461Y-13468104D02*
X12055937Y-13458581D01*
X12055937Y-13458581D02*
X12065461Y-13449057D01*
X12065461Y-13449057D02*
X12065461Y-13468104D01*
X12198794Y-13268104D02*
X12217842Y-13268104D01*
X12217842Y-13268104D02*
X12236889Y-13277628D01*
X12236889Y-13277628D02*
X12246413Y-13287152D01*
X12246413Y-13287152D02*
X12255937Y-13306200D01*
X12255937Y-13306200D02*
X12265461Y-13344295D01*
X12265461Y-13344295D02*
X12265461Y-13391914D01*
X12265461Y-13391914D02*
X12255937Y-13430009D01*
X12255937Y-13430009D02*
X12246413Y-13449057D01*
X12246413Y-13449057D02*
X12236889Y-13458581D01*
X12236889Y-13458581D02*
X12217842Y-13468104D01*
X12217842Y-13468104D02*
X12198794Y-13468104D01*
X12198794Y-13468104D02*
X12179747Y-13458581D01*
X12179747Y-13458581D02*
X12170223Y-13449057D01*
X12170223Y-13449057D02*
X12160699Y-13430009D01*
X12160699Y-13430009D02*
X12151175Y-13391914D01*
X12151175Y-13391914D02*
X12151175Y-13344295D01*
X12151175Y-13344295D02*
X12160699Y-13306200D01*
X12160699Y-13306200D02*
X12170223Y-13287152D01*
X12170223Y-13287152D02*
X12179747Y-13277628D01*
X12179747Y-13277628D02*
X12198794Y-13268104D01*
X12389270Y-13268104D02*
X12408318Y-13268104D01*
X12408318Y-13268104D02*
X12427366Y-13277628D01*
X12427366Y-13277628D02*
X12436889Y-13287152D01*
X12436889Y-13287152D02*
X12446413Y-13306200D01*
X12446413Y-13306200D02*
X12455937Y-13344295D01*
X12455937Y-13344295D02*
X12455937Y-13391914D01*
X12455937Y-13391914D02*
X12446413Y-13430009D01*
X12446413Y-13430009D02*
X12436889Y-13449057D01*
X12436889Y-13449057D02*
X12427366Y-13458581D01*
X12427366Y-13458581D02*
X12408318Y-13468104D01*
X12408318Y-13468104D02*
X12389270Y-13468104D01*
X12389270Y-13468104D02*
X12370223Y-13458581D01*
X12370223Y-13458581D02*
X12360699Y-13449057D01*
X12360699Y-13449057D02*
X12351175Y-13430009D01*
X12351175Y-13430009D02*
X12341651Y-13391914D01*
X12341651Y-13391914D02*
X12341651Y-13344295D01*
X12341651Y-13344295D02*
X12351175Y-13306200D01*
X12351175Y-13306200D02*
X12360699Y-13287152D01*
X12360699Y-13287152D02*
X12370223Y-13277628D01*
X12370223Y-13277628D02*
X12389270Y-13268104D01*
X12579747Y-13268104D02*
X12598794Y-13268104D01*
X12598794Y-13268104D02*
X12617842Y-13277628D01*
X12617842Y-13277628D02*
X12627366Y-13287152D01*
X12627366Y-13287152D02*
X12636889Y-13306200D01*
X12636889Y-13306200D02*
X12646413Y-13344295D01*
X12646413Y-13344295D02*
X12646413Y-13391914D01*
X12646413Y-13391914D02*
X12636889Y-13430009D01*
X12636889Y-13430009D02*
X12627366Y-13449057D01*
X12627366Y-13449057D02*
X12617842Y-13458581D01*
X12617842Y-13458581D02*
X12598794Y-13468104D01*
X12598794Y-13468104D02*
X12579747Y-13468104D01*
X12579747Y-13468104D02*
X12560699Y-13458581D01*
X12560699Y-13458581D02*
X12551175Y-13449057D01*
X12551175Y-13449057D02*
X12541651Y-13430009D01*
X12541651Y-13430009D02*
X12532128Y-13391914D01*
X12532128Y-13391914D02*
X12532128Y-13344295D01*
X12532128Y-13344295D02*
X12541651Y-13306200D01*
X12541651Y-13306200D02*
X12551175Y-13287152D01*
X12551175Y-13287152D02*
X12560699Y-13277628D01*
X12560699Y-13277628D02*
X12579747Y-13268104D01*
X12732128Y-13468104D02*
X12732128Y-13334771D01*
X12732128Y-13353819D02*
X12741651Y-13344295D01*
X12741651Y-13344295D02*
X12760699Y-13334771D01*
X12760699Y-13334771D02*
X12789270Y-13334771D01*
X12789270Y-13334771D02*
X12808318Y-13344295D01*
X12808318Y-13344295D02*
X12817842Y-13363343D01*
X12817842Y-13363343D02*
X12817842Y-13468104D01*
X12817842Y-13363343D02*
X12827366Y-13344295D01*
X12827366Y-13344295D02*
X12846413Y-13334771D01*
X12846413Y-13334771D02*
X12874985Y-13334771D01*
X12874985Y-13334771D02*
X12894032Y-13344295D01*
X12894032Y-13344295D02*
X12903556Y-13363343D01*
X12903556Y-13363343D02*
X12903556Y-13468104D01*
X12998794Y-13468104D02*
X12998794Y-13334771D01*
X12998794Y-13353819D02*
X13008318Y-13344295D01*
X13008318Y-13344295D02*
X13027366Y-13334771D01*
X13027366Y-13334771D02*
X13055937Y-13334771D01*
X13055937Y-13334771D02*
X13074985Y-13344295D01*
X13074985Y-13344295D02*
X13084509Y-13363343D01*
X13084509Y-13363343D02*
X13084509Y-13468104D01*
X13084509Y-13363343D02*
X13094032Y-13344295D01*
X13094032Y-13344295D02*
X13113080Y-13334771D01*
X13113080Y-13334771D02*
X13141651Y-13334771D01*
X13141651Y-13334771D02*
X13160699Y-13344295D01*
X13160699Y-13344295D02*
X13170223Y-13363343D01*
X13170223Y-13363343D02*
X13170223Y-13468104D01*
X13560699Y-13258581D02*
X13389271Y-13515723D01*
X13817842Y-13268104D02*
X13836890Y-13268104D01*
X13836890Y-13268104D02*
X13855937Y-13277628D01*
X13855937Y-13277628D02*
X13865461Y-13287152D01*
X13865461Y-13287152D02*
X13874985Y-13306200D01*
X13874985Y-13306200D02*
X13884509Y-13344295D01*
X13884509Y-13344295D02*
X13884509Y-13391914D01*
X13884509Y-13391914D02*
X13874985Y-13430009D01*
X13874985Y-13430009D02*
X13865461Y-13449057D01*
X13865461Y-13449057D02*
X13855937Y-13458581D01*
X13855937Y-13458581D02*
X13836890Y-13468104D01*
X13836890Y-13468104D02*
X13817842Y-13468104D01*
X13817842Y-13468104D02*
X13798794Y-13458581D01*
X13798794Y-13458581D02*
X13789271Y-13449057D01*
X13789271Y-13449057D02*
X13779747Y-13430009D01*
X13779747Y-13430009D02*
X13770223Y-13391914D01*
X13770223Y-13391914D02*
X13770223Y-13344295D01*
X13770223Y-13344295D02*
X13779747Y-13306200D01*
X13779747Y-13306200D02*
X13789271Y-13287152D01*
X13789271Y-13287152D02*
X13798794Y-13277628D01*
X13798794Y-13277628D02*
X13817842Y-13268104D01*
X13970223Y-13449057D02*
X13979747Y-13458581D01*
X13979747Y-13458581D02*
X13970223Y-13468104D01*
X13970223Y-13468104D02*
X13960699Y-13458581D01*
X13960699Y-13458581D02*
X13970223Y-13449057D01*
X13970223Y-13449057D02*
X13970223Y-13468104D01*
X14103556Y-13268104D02*
X14122604Y-13268104D01*
X14122604Y-13268104D02*
X14141652Y-13277628D01*
X14141652Y-13277628D02*
X14151175Y-13287152D01*
X14151175Y-13287152D02*
X14160699Y-13306200D01*
X14160699Y-13306200D02*
X14170223Y-13344295D01*
X14170223Y-13344295D02*
X14170223Y-13391914D01*
X14170223Y-13391914D02*
X14160699Y-13430009D01*
X14160699Y-13430009D02*
X14151175Y-13449057D01*
X14151175Y-13449057D02*
X14141652Y-13458581D01*
X14141652Y-13458581D02*
X14122604Y-13468104D01*
X14122604Y-13468104D02*
X14103556Y-13468104D01*
X14103556Y-13468104D02*
X14084509Y-13458581D01*
X14084509Y-13458581D02*
X14074985Y-13449057D01*
X14074985Y-13449057D02*
X14065461Y-13430009D01*
X14065461Y-13430009D02*
X14055937Y-13391914D01*
X14055937Y-13391914D02*
X14055937Y-13344295D01*
X14055937Y-13344295D02*
X14065461Y-13306200D01*
X14065461Y-13306200D02*
X14074985Y-13287152D01*
X14074985Y-13287152D02*
X14084509Y-13277628D01*
X14084509Y-13277628D02*
X14103556Y-13268104D01*
X14236890Y-13268104D02*
X14360699Y-13268104D01*
X14360699Y-13268104D02*
X14294032Y-13344295D01*
X14294032Y-13344295D02*
X14322604Y-13344295D01*
X14322604Y-13344295D02*
X14341652Y-13353819D01*
X14341652Y-13353819D02*
X14351175Y-13363343D01*
X14351175Y-13363343D02*
X14360699Y-13382390D01*
X14360699Y-13382390D02*
X14360699Y-13430009D01*
X14360699Y-13430009D02*
X14351175Y-13449057D01*
X14351175Y-13449057D02*
X14341652Y-13458581D01*
X14341652Y-13458581D02*
X14322604Y-13468104D01*
X14322604Y-13468104D02*
X14265461Y-13468104D01*
X14265461Y-13468104D02*
X14246413Y-13458581D01*
X14246413Y-13458581D02*
X14236890Y-13449057D01*
X14455937Y-13468104D02*
X14494032Y-13468104D01*
X14494032Y-13468104D02*
X14513080Y-13458581D01*
X14513080Y-13458581D02*
X14522604Y-13449057D01*
X14522604Y-13449057D02*
X14541652Y-13420485D01*
X14541652Y-13420485D02*
X14551175Y-13382390D01*
X14551175Y-13382390D02*
X14551175Y-13306200D01*
X14551175Y-13306200D02*
X14541652Y-13287152D01*
X14541652Y-13287152D02*
X14532128Y-13277628D01*
X14532128Y-13277628D02*
X14513080Y-13268104D01*
X14513080Y-13268104D02*
X14474985Y-13268104D01*
X14474985Y-13268104D02*
X14455937Y-13277628D01*
X14455937Y-13277628D02*
X14446413Y-13287152D01*
X14446413Y-13287152D02*
X14436890Y-13306200D01*
X14436890Y-13306200D02*
X14436890Y-13353819D01*
X14436890Y-13353819D02*
X14446413Y-13372866D01*
X14446413Y-13372866D02*
X14455937Y-13382390D01*
X14455937Y-13382390D02*
X14474985Y-13391914D01*
X14474985Y-13391914D02*
X14513080Y-13391914D01*
X14513080Y-13391914D02*
X14532128Y-13382390D01*
X14532128Y-13382390D02*
X14541652Y-13372866D01*
X14541652Y-13372866D02*
X14551175Y-13353819D01*
X14722604Y-13334771D02*
X14722604Y-13468104D01*
X14674985Y-13258581D02*
X14627366Y-13401438D01*
X14627366Y-13401438D02*
X14751175Y-13401438D01*
X14817842Y-13268104D02*
X14817842Y-13306200D01*
X14894033Y-13268104D02*
X14894033Y-13306200D01*
X15189271Y-13544295D02*
X15179747Y-13534771D01*
X15179747Y-13534771D02*
X15160699Y-13506200D01*
X15160699Y-13506200D02*
X15151175Y-13487152D01*
X15151175Y-13487152D02*
X15141652Y-13458581D01*
X15141652Y-13458581D02*
X15132128Y-13410962D01*
X15132128Y-13410962D02*
X15132128Y-13372866D01*
X15132128Y-13372866D02*
X15141652Y-13325247D01*
X15141652Y-13325247D02*
X15151175Y-13296676D01*
X15151175Y-13296676D02*
X15160699Y-13277628D01*
X15160699Y-13277628D02*
X15179747Y-13249057D01*
X15179747Y-13249057D02*
X15189271Y-13239533D01*
X15370223Y-13468104D02*
X15255937Y-13468104D01*
X15313080Y-13468104D02*
X15313080Y-13268104D01*
X15313080Y-13268104D02*
X15294033Y-13296676D01*
X15294033Y-13296676D02*
X15274985Y-13315723D01*
X15274985Y-13315723D02*
X15255937Y-13325247D01*
X15551175Y-13268104D02*
X15455937Y-13268104D01*
X15455937Y-13268104D02*
X15446414Y-13363343D01*
X15446414Y-13363343D02*
X15455937Y-13353819D01*
X15455937Y-13353819D02*
X15474985Y-13344295D01*
X15474985Y-13344295D02*
X15522604Y-13344295D01*
X15522604Y-13344295D02*
X15541652Y-13353819D01*
X15541652Y-13353819D02*
X15551175Y-13363343D01*
X15551175Y-13363343D02*
X15560699Y-13382390D01*
X15560699Y-13382390D02*
X15560699Y-13430009D01*
X15560699Y-13430009D02*
X15551175Y-13449057D01*
X15551175Y-13449057D02*
X15541652Y-13458581D01*
X15541652Y-13458581D02*
X15522604Y-13468104D01*
X15522604Y-13468104D02*
X15474985Y-13468104D01*
X15474985Y-13468104D02*
X15455937Y-13458581D01*
X15455937Y-13458581D02*
X15446414Y-13449057D01*
X15798795Y-13468104D02*
X15798795Y-13268104D01*
X15884509Y-13468104D02*
X15884509Y-13363343D01*
X15884509Y-13363343D02*
X15874985Y-13344295D01*
X15874985Y-13344295D02*
X15855937Y-13334771D01*
X15855937Y-13334771D02*
X15827366Y-13334771D01*
X15827366Y-13334771D02*
X15808318Y-13344295D01*
X15808318Y-13344295D02*
X15798795Y-13353819D01*
X16008318Y-13468104D02*
X15989271Y-13458581D01*
X15989271Y-13458581D02*
X15979747Y-13449057D01*
X15979747Y-13449057D02*
X15970223Y-13430009D01*
X15970223Y-13430009D02*
X15970223Y-13372866D01*
X15970223Y-13372866D02*
X15979747Y-13353819D01*
X15979747Y-13353819D02*
X15989271Y-13344295D01*
X15989271Y-13344295D02*
X16008318Y-13334771D01*
X16008318Y-13334771D02*
X16036890Y-13334771D01*
X16036890Y-13334771D02*
X16055937Y-13344295D01*
X16055937Y-13344295D02*
X16065461Y-13353819D01*
X16065461Y-13353819D02*
X16074985Y-13372866D01*
X16074985Y-13372866D02*
X16074985Y-13430009D01*
X16074985Y-13430009D02*
X16065461Y-13449057D01*
X16065461Y-13449057D02*
X16055937Y-13458581D01*
X16055937Y-13458581D02*
X16036890Y-13468104D01*
X16036890Y-13468104D02*
X16008318Y-13468104D01*
X16189271Y-13468104D02*
X16170223Y-13458581D01*
X16170223Y-13458581D02*
X16160699Y-13439533D01*
X16160699Y-13439533D02*
X16160699Y-13268104D01*
X16341652Y-13458581D02*
X16322604Y-13468104D01*
X16322604Y-13468104D02*
X16284509Y-13468104D01*
X16284509Y-13468104D02*
X16265461Y-13458581D01*
X16265461Y-13458581D02*
X16255937Y-13439533D01*
X16255937Y-13439533D02*
X16255937Y-13363343D01*
X16255937Y-13363343D02*
X16265461Y-13344295D01*
X16265461Y-13344295D02*
X16284509Y-13334771D01*
X16284509Y-13334771D02*
X16322604Y-13334771D01*
X16322604Y-13334771D02*
X16341652Y-13344295D01*
X16341652Y-13344295D02*
X16351176Y-13363343D01*
X16351176Y-13363343D02*
X16351176Y-13382390D01*
X16351176Y-13382390D02*
X16255937Y-13401438D01*
X16427366Y-13458581D02*
X16446414Y-13468104D01*
X16446414Y-13468104D02*
X16484509Y-13468104D01*
X16484509Y-13468104D02*
X16503557Y-13458581D01*
X16503557Y-13458581D02*
X16513080Y-13439533D01*
X16513080Y-13439533D02*
X16513080Y-13430009D01*
X16513080Y-13430009D02*
X16503557Y-13410962D01*
X16503557Y-13410962D02*
X16484509Y-13401438D01*
X16484509Y-13401438D02*
X16455937Y-13401438D01*
X16455937Y-13401438D02*
X16436890Y-13391914D01*
X16436890Y-13391914D02*
X16427366Y-13372866D01*
X16427366Y-13372866D02*
X16427366Y-13363343D01*
X16427366Y-13363343D02*
X16436890Y-13344295D01*
X16436890Y-13344295D02*
X16455937Y-13334771D01*
X16455937Y-13334771D02*
X16484509Y-13334771D01*
X16484509Y-13334771D02*
X16503557Y-13344295D01*
X16579747Y-13544295D02*
X16589271Y-13534771D01*
X16589271Y-13534771D02*
X16608318Y-13506200D01*
X16608318Y-13506200D02*
X16617842Y-13487152D01*
X16617842Y-13487152D02*
X16627366Y-13458581D01*
X16627366Y-13458581D02*
X16636890Y-13410962D01*
X16636890Y-13410962D02*
X16636890Y-13372866D01*
X16636890Y-13372866D02*
X16627366Y-13325247D01*
X16627366Y-13325247D02*
X16617842Y-13296676D01*
X16617842Y-13296676D02*
X16608318Y-13277628D01*
X16608318Y-13277628D02*
X16589271Y-13249057D01*
X16589271Y-13249057D02*
X16579747Y-13239533D01*
D13*
X11562366Y-13574581D02*
X11562366Y-13704581D01*
X11497366Y-13639581D02*
X11627366Y-13639581D01*
D10*
X11979747Y-13732104D02*
X11865461Y-13732104D01*
X11922604Y-13732104D02*
X11922604Y-13532104D01*
X11922604Y-13532104D02*
X11903556Y-13560676D01*
X11903556Y-13560676D02*
X11884508Y-13579723D01*
X11884508Y-13579723D02*
X11865461Y-13589247D01*
X12065461Y-13713057D02*
X12074985Y-13722581D01*
X12074985Y-13722581D02*
X12065461Y-13732104D01*
X12065461Y-13732104D02*
X12055937Y-13722581D01*
X12055937Y-13722581D02*
X12065461Y-13713057D01*
X12065461Y-13713057D02*
X12065461Y-13732104D01*
X12141651Y-13532104D02*
X12265461Y-13532104D01*
X12265461Y-13532104D02*
X12198794Y-13608295D01*
X12198794Y-13608295D02*
X12227366Y-13608295D01*
X12227366Y-13608295D02*
X12246413Y-13617819D01*
X12246413Y-13617819D02*
X12255937Y-13627343D01*
X12255937Y-13627343D02*
X12265461Y-13646390D01*
X12265461Y-13646390D02*
X12265461Y-13694009D01*
X12265461Y-13694009D02*
X12255937Y-13713057D01*
X12255937Y-13713057D02*
X12246413Y-13722581D01*
X12246413Y-13722581D02*
X12227366Y-13732104D01*
X12227366Y-13732104D02*
X12170223Y-13732104D01*
X12170223Y-13732104D02*
X12151175Y-13722581D01*
X12151175Y-13722581D02*
X12141651Y-13713057D01*
X12389270Y-13532104D02*
X12408318Y-13532104D01*
X12408318Y-13532104D02*
X12427366Y-13541628D01*
X12427366Y-13541628D02*
X12436889Y-13551152D01*
X12436889Y-13551152D02*
X12446413Y-13570200D01*
X12446413Y-13570200D02*
X12455937Y-13608295D01*
X12455937Y-13608295D02*
X12455937Y-13655914D01*
X12455937Y-13655914D02*
X12446413Y-13694009D01*
X12446413Y-13694009D02*
X12436889Y-13713057D01*
X12436889Y-13713057D02*
X12427366Y-13722581D01*
X12427366Y-13722581D02*
X12408318Y-13732104D01*
X12408318Y-13732104D02*
X12389270Y-13732104D01*
X12389270Y-13732104D02*
X12370223Y-13722581D01*
X12370223Y-13722581D02*
X12360699Y-13713057D01*
X12360699Y-13713057D02*
X12351175Y-13694009D01*
X12351175Y-13694009D02*
X12341651Y-13655914D01*
X12341651Y-13655914D02*
X12341651Y-13608295D01*
X12341651Y-13608295D02*
X12351175Y-13570200D01*
X12351175Y-13570200D02*
X12360699Y-13551152D01*
X12360699Y-13551152D02*
X12370223Y-13541628D01*
X12370223Y-13541628D02*
X12389270Y-13532104D01*
X12579747Y-13532104D02*
X12598794Y-13532104D01*
X12598794Y-13532104D02*
X12617842Y-13541628D01*
X12617842Y-13541628D02*
X12627366Y-13551152D01*
X12627366Y-13551152D02*
X12636889Y-13570200D01*
X12636889Y-13570200D02*
X12646413Y-13608295D01*
X12646413Y-13608295D02*
X12646413Y-13655914D01*
X12646413Y-13655914D02*
X12636889Y-13694009D01*
X12636889Y-13694009D02*
X12627366Y-13713057D01*
X12627366Y-13713057D02*
X12617842Y-13722581D01*
X12617842Y-13722581D02*
X12598794Y-13732104D01*
X12598794Y-13732104D02*
X12579747Y-13732104D01*
X12579747Y-13732104D02*
X12560699Y-13722581D01*
X12560699Y-13722581D02*
X12551175Y-13713057D01*
X12551175Y-13713057D02*
X12541651Y-13694009D01*
X12541651Y-13694009D02*
X12532128Y-13655914D01*
X12532128Y-13655914D02*
X12532128Y-13608295D01*
X12532128Y-13608295D02*
X12541651Y-13570200D01*
X12541651Y-13570200D02*
X12551175Y-13551152D01*
X12551175Y-13551152D02*
X12560699Y-13541628D01*
X12560699Y-13541628D02*
X12579747Y-13532104D01*
X12732128Y-13732104D02*
X12732128Y-13598771D01*
X12732128Y-13617819D02*
X12741651Y-13608295D01*
X12741651Y-13608295D02*
X12760699Y-13598771D01*
X12760699Y-13598771D02*
X12789270Y-13598771D01*
X12789270Y-13598771D02*
X12808318Y-13608295D01*
X12808318Y-13608295D02*
X12817842Y-13627343D01*
X12817842Y-13627343D02*
X12817842Y-13732104D01*
X12817842Y-13627343D02*
X12827366Y-13608295D01*
X12827366Y-13608295D02*
X12846413Y-13598771D01*
X12846413Y-13598771D02*
X12874985Y-13598771D01*
X12874985Y-13598771D02*
X12894032Y-13608295D01*
X12894032Y-13608295D02*
X12903556Y-13627343D01*
X12903556Y-13627343D02*
X12903556Y-13732104D01*
X12998794Y-13732104D02*
X12998794Y-13598771D01*
X12998794Y-13617819D02*
X13008318Y-13608295D01*
X13008318Y-13608295D02*
X13027366Y-13598771D01*
X13027366Y-13598771D02*
X13055937Y-13598771D01*
X13055937Y-13598771D02*
X13074985Y-13608295D01*
X13074985Y-13608295D02*
X13084509Y-13627343D01*
X13084509Y-13627343D02*
X13084509Y-13732104D01*
X13084509Y-13627343D02*
X13094032Y-13608295D01*
X13094032Y-13608295D02*
X13113080Y-13598771D01*
X13113080Y-13598771D02*
X13141651Y-13598771D01*
X13141651Y-13598771D02*
X13160699Y-13608295D01*
X13160699Y-13608295D02*
X13170223Y-13627343D01*
X13170223Y-13627343D02*
X13170223Y-13732104D01*
X13560699Y-13522581D02*
X13389271Y-13779723D01*
X13817842Y-13532104D02*
X13836890Y-13532104D01*
X13836890Y-13532104D02*
X13855937Y-13541628D01*
X13855937Y-13541628D02*
X13865461Y-13551152D01*
X13865461Y-13551152D02*
X13874985Y-13570200D01*
X13874985Y-13570200D02*
X13884509Y-13608295D01*
X13884509Y-13608295D02*
X13884509Y-13655914D01*
X13884509Y-13655914D02*
X13874985Y-13694009D01*
X13874985Y-13694009D02*
X13865461Y-13713057D01*
X13865461Y-13713057D02*
X13855937Y-13722581D01*
X13855937Y-13722581D02*
X13836890Y-13732104D01*
X13836890Y-13732104D02*
X13817842Y-13732104D01*
X13817842Y-13732104D02*
X13798794Y-13722581D01*
X13798794Y-13722581D02*
X13789271Y-13713057D01*
X13789271Y-13713057D02*
X13779747Y-13694009D01*
X13779747Y-13694009D02*
X13770223Y-13655914D01*
X13770223Y-13655914D02*
X13770223Y-13608295D01*
X13770223Y-13608295D02*
X13779747Y-13570200D01*
X13779747Y-13570200D02*
X13789271Y-13551152D01*
X13789271Y-13551152D02*
X13798794Y-13541628D01*
X13798794Y-13541628D02*
X13817842Y-13532104D01*
X13970223Y-13713057D02*
X13979747Y-13722581D01*
X13979747Y-13722581D02*
X13970223Y-13732104D01*
X13970223Y-13732104D02*
X13960699Y-13722581D01*
X13960699Y-13722581D02*
X13970223Y-13713057D01*
X13970223Y-13713057D02*
X13970223Y-13732104D01*
X14103556Y-13532104D02*
X14122604Y-13532104D01*
X14122604Y-13532104D02*
X14141652Y-13541628D01*
X14141652Y-13541628D02*
X14151175Y-13551152D01*
X14151175Y-13551152D02*
X14160699Y-13570200D01*
X14160699Y-13570200D02*
X14170223Y-13608295D01*
X14170223Y-13608295D02*
X14170223Y-13655914D01*
X14170223Y-13655914D02*
X14160699Y-13694009D01*
X14160699Y-13694009D02*
X14151175Y-13713057D01*
X14151175Y-13713057D02*
X14141652Y-13722581D01*
X14141652Y-13722581D02*
X14122604Y-13732104D01*
X14122604Y-13732104D02*
X14103556Y-13732104D01*
X14103556Y-13732104D02*
X14084509Y-13722581D01*
X14084509Y-13722581D02*
X14074985Y-13713057D01*
X14074985Y-13713057D02*
X14065461Y-13694009D01*
X14065461Y-13694009D02*
X14055937Y-13655914D01*
X14055937Y-13655914D02*
X14055937Y-13608295D01*
X14055937Y-13608295D02*
X14065461Y-13570200D01*
X14065461Y-13570200D02*
X14074985Y-13551152D01*
X14074985Y-13551152D02*
X14084509Y-13541628D01*
X14084509Y-13541628D02*
X14103556Y-13532104D01*
X14351175Y-13532104D02*
X14255937Y-13532104D01*
X14255937Y-13532104D02*
X14246413Y-13627343D01*
X14246413Y-13627343D02*
X14255937Y-13617819D01*
X14255937Y-13617819D02*
X14274985Y-13608295D01*
X14274985Y-13608295D02*
X14322604Y-13608295D01*
X14322604Y-13608295D02*
X14341652Y-13617819D01*
X14341652Y-13617819D02*
X14351175Y-13627343D01*
X14351175Y-13627343D02*
X14360699Y-13646390D01*
X14360699Y-13646390D02*
X14360699Y-13694009D01*
X14360699Y-13694009D02*
X14351175Y-13713057D01*
X14351175Y-13713057D02*
X14341652Y-13722581D01*
X14341652Y-13722581D02*
X14322604Y-13732104D01*
X14322604Y-13732104D02*
X14274985Y-13732104D01*
X14274985Y-13732104D02*
X14255937Y-13722581D01*
X14255937Y-13722581D02*
X14246413Y-13713057D01*
X14551175Y-13732104D02*
X14436890Y-13732104D01*
X14494032Y-13732104D02*
X14494032Y-13532104D01*
X14494032Y-13532104D02*
X14474985Y-13560676D01*
X14474985Y-13560676D02*
X14455937Y-13579723D01*
X14455937Y-13579723D02*
X14436890Y-13589247D01*
X14627366Y-13551152D02*
X14636890Y-13541628D01*
X14636890Y-13541628D02*
X14655937Y-13532104D01*
X14655937Y-13532104D02*
X14703556Y-13532104D01*
X14703556Y-13532104D02*
X14722604Y-13541628D01*
X14722604Y-13541628D02*
X14732128Y-13551152D01*
X14732128Y-13551152D02*
X14741652Y-13570200D01*
X14741652Y-13570200D02*
X14741652Y-13589247D01*
X14741652Y-13589247D02*
X14732128Y-13617819D01*
X14732128Y-13617819D02*
X14617842Y-13732104D01*
X14617842Y-13732104D02*
X14741652Y-13732104D01*
X14817842Y-13532104D02*
X14817842Y-13570200D01*
X14894033Y-13532104D02*
X14894033Y-13570200D01*
X15189271Y-13808295D02*
X15179747Y-13798771D01*
X15179747Y-13798771D02*
X15160699Y-13770200D01*
X15160699Y-13770200D02*
X15151175Y-13751152D01*
X15151175Y-13751152D02*
X15141652Y-13722581D01*
X15141652Y-13722581D02*
X15132128Y-13674962D01*
X15132128Y-13674962D02*
X15132128Y-13636866D01*
X15132128Y-13636866D02*
X15141652Y-13589247D01*
X15141652Y-13589247D02*
X15151175Y-13560676D01*
X15151175Y-13560676D02*
X15160699Y-13541628D01*
X15160699Y-13541628D02*
X15179747Y-13513057D01*
X15179747Y-13513057D02*
X15189271Y-13503533D01*
X15246414Y-13532104D02*
X15370223Y-13532104D01*
X15370223Y-13532104D02*
X15303556Y-13608295D01*
X15303556Y-13608295D02*
X15332128Y-13608295D01*
X15332128Y-13608295D02*
X15351175Y-13617819D01*
X15351175Y-13617819D02*
X15360699Y-13627343D01*
X15360699Y-13627343D02*
X15370223Y-13646390D01*
X15370223Y-13646390D02*
X15370223Y-13694009D01*
X15370223Y-13694009D02*
X15360699Y-13713057D01*
X15360699Y-13713057D02*
X15351175Y-13722581D01*
X15351175Y-13722581D02*
X15332128Y-13732104D01*
X15332128Y-13732104D02*
X15274985Y-13732104D01*
X15274985Y-13732104D02*
X15255937Y-13722581D01*
X15255937Y-13722581D02*
X15246414Y-13713057D01*
X15608318Y-13732104D02*
X15608318Y-13532104D01*
X15694033Y-13732104D02*
X15694033Y-13627343D01*
X15694033Y-13627343D02*
X15684509Y-13608295D01*
X15684509Y-13608295D02*
X15665461Y-13598771D01*
X15665461Y-13598771D02*
X15636890Y-13598771D01*
X15636890Y-13598771D02*
X15617842Y-13608295D01*
X15617842Y-13608295D02*
X15608318Y-13617819D01*
X15817842Y-13732104D02*
X15798795Y-13722581D01*
X15798795Y-13722581D02*
X15789271Y-13713057D01*
X15789271Y-13713057D02*
X15779747Y-13694009D01*
X15779747Y-13694009D02*
X15779747Y-13636866D01*
X15779747Y-13636866D02*
X15789271Y-13617819D01*
X15789271Y-13617819D02*
X15798795Y-13608295D01*
X15798795Y-13608295D02*
X15817842Y-13598771D01*
X15817842Y-13598771D02*
X15846414Y-13598771D01*
X15846414Y-13598771D02*
X15865461Y-13608295D01*
X15865461Y-13608295D02*
X15874985Y-13617819D01*
X15874985Y-13617819D02*
X15884509Y-13636866D01*
X15884509Y-13636866D02*
X15884509Y-13694009D01*
X15884509Y-13694009D02*
X15874985Y-13713057D01*
X15874985Y-13713057D02*
X15865461Y-13722581D01*
X15865461Y-13722581D02*
X15846414Y-13732104D01*
X15846414Y-13732104D02*
X15817842Y-13732104D01*
X15998795Y-13732104D02*
X15979747Y-13722581D01*
X15979747Y-13722581D02*
X15970223Y-13703533D01*
X15970223Y-13703533D02*
X15970223Y-13532104D01*
X16151176Y-13722581D02*
X16132128Y-13732104D01*
X16132128Y-13732104D02*
X16094033Y-13732104D01*
X16094033Y-13732104D02*
X16074985Y-13722581D01*
X16074985Y-13722581D02*
X16065461Y-13703533D01*
X16065461Y-13703533D02*
X16065461Y-13627343D01*
X16065461Y-13627343D02*
X16074985Y-13608295D01*
X16074985Y-13608295D02*
X16094033Y-13598771D01*
X16094033Y-13598771D02*
X16132128Y-13598771D01*
X16132128Y-13598771D02*
X16151176Y-13608295D01*
X16151176Y-13608295D02*
X16160699Y-13627343D01*
X16160699Y-13627343D02*
X16160699Y-13646390D01*
X16160699Y-13646390D02*
X16065461Y-13665438D01*
X16236890Y-13722581D02*
X16255937Y-13732104D01*
X16255937Y-13732104D02*
X16294033Y-13732104D01*
X16294033Y-13732104D02*
X16313080Y-13722581D01*
X16313080Y-13722581D02*
X16322604Y-13703533D01*
X16322604Y-13703533D02*
X16322604Y-13694009D01*
X16322604Y-13694009D02*
X16313080Y-13674962D01*
X16313080Y-13674962D02*
X16294033Y-13665438D01*
X16294033Y-13665438D02*
X16265461Y-13665438D01*
X16265461Y-13665438D02*
X16246414Y-13655914D01*
X16246414Y-13655914D02*
X16236890Y-13636866D01*
X16236890Y-13636866D02*
X16236890Y-13627343D01*
X16236890Y-13627343D02*
X16246414Y-13608295D01*
X16246414Y-13608295D02*
X16265461Y-13598771D01*
X16265461Y-13598771D02*
X16294033Y-13598771D01*
X16294033Y-13598771D02*
X16313080Y-13608295D01*
X16389271Y-13808295D02*
X16398795Y-13798771D01*
X16398795Y-13798771D02*
X16417842Y-13770200D01*
X16417842Y-13770200D02*
X16427366Y-13751152D01*
X16427366Y-13751152D02*
X16436890Y-13722581D01*
X16436890Y-13722581D02*
X16446414Y-13674962D01*
X16446414Y-13674962D02*
X16446414Y-13636866D01*
X16446414Y-13636866D02*
X16436890Y-13589247D01*
X16436890Y-13589247D02*
X16427366Y-13560676D01*
X16427366Y-13560676D02*
X16417842Y-13541628D01*
X16417842Y-13541628D02*
X16398795Y-13513057D01*
X16398795Y-13513057D02*
X16389271Y-13503533D01*
D14*
X11606864Y-13953079D02*
X11606864Y-13854083D01*
X11507868Y-13854083D01*
X11507868Y-13953079D01*
X11606864Y-13953079D01*
D10*
X11979747Y-13996104D02*
X11865461Y-13996104D01*
X11922604Y-13996104D02*
X11922604Y-13796104D01*
X11922604Y-13796104D02*
X11903556Y-13824676D01*
X11903556Y-13824676D02*
X11884508Y-13843723D01*
X11884508Y-13843723D02*
X11865461Y-13853247D01*
X12065461Y-13977057D02*
X12074985Y-13986581D01*
X12074985Y-13986581D02*
X12065461Y-13996104D01*
X12065461Y-13996104D02*
X12055937Y-13986581D01*
X12055937Y-13986581D02*
X12065461Y-13977057D01*
X12065461Y-13977057D02*
X12065461Y-13996104D01*
X12246413Y-13862771D02*
X12246413Y-13996104D01*
X12198794Y-13786581D02*
X12151175Y-13929438D01*
X12151175Y-13929438D02*
X12274985Y-13929438D01*
X12389270Y-13796104D02*
X12408318Y-13796104D01*
X12408318Y-13796104D02*
X12427366Y-13805628D01*
X12427366Y-13805628D02*
X12436889Y-13815152D01*
X12436889Y-13815152D02*
X12446413Y-13834200D01*
X12446413Y-13834200D02*
X12455937Y-13872295D01*
X12455937Y-13872295D02*
X12455937Y-13919914D01*
X12455937Y-13919914D02*
X12446413Y-13958009D01*
X12446413Y-13958009D02*
X12436889Y-13977057D01*
X12436889Y-13977057D02*
X12427366Y-13986581D01*
X12427366Y-13986581D02*
X12408318Y-13996104D01*
X12408318Y-13996104D02*
X12389270Y-13996104D01*
X12389270Y-13996104D02*
X12370223Y-13986581D01*
X12370223Y-13986581D02*
X12360699Y-13977057D01*
X12360699Y-13977057D02*
X12351175Y-13958009D01*
X12351175Y-13958009D02*
X12341651Y-13919914D01*
X12341651Y-13919914D02*
X12341651Y-13872295D01*
X12341651Y-13872295D02*
X12351175Y-13834200D01*
X12351175Y-13834200D02*
X12360699Y-13815152D01*
X12360699Y-13815152D02*
X12370223Y-13805628D01*
X12370223Y-13805628D02*
X12389270Y-13796104D01*
X12579747Y-13796104D02*
X12598794Y-13796104D01*
X12598794Y-13796104D02*
X12617842Y-13805628D01*
X12617842Y-13805628D02*
X12627366Y-13815152D01*
X12627366Y-13815152D02*
X12636889Y-13834200D01*
X12636889Y-13834200D02*
X12646413Y-13872295D01*
X12646413Y-13872295D02*
X12646413Y-13919914D01*
X12646413Y-13919914D02*
X12636889Y-13958009D01*
X12636889Y-13958009D02*
X12627366Y-13977057D01*
X12627366Y-13977057D02*
X12617842Y-13986581D01*
X12617842Y-13986581D02*
X12598794Y-13996104D01*
X12598794Y-13996104D02*
X12579747Y-13996104D01*
X12579747Y-13996104D02*
X12560699Y-13986581D01*
X12560699Y-13986581D02*
X12551175Y-13977057D01*
X12551175Y-13977057D02*
X12541651Y-13958009D01*
X12541651Y-13958009D02*
X12532128Y-13919914D01*
X12532128Y-13919914D02*
X12532128Y-13872295D01*
X12532128Y-13872295D02*
X12541651Y-13834200D01*
X12541651Y-13834200D02*
X12551175Y-13815152D01*
X12551175Y-13815152D02*
X12560699Y-13805628D01*
X12560699Y-13805628D02*
X12579747Y-13796104D01*
X12732128Y-13996104D02*
X12732128Y-13862771D01*
X12732128Y-13881819D02*
X12741651Y-13872295D01*
X12741651Y-13872295D02*
X12760699Y-13862771D01*
X12760699Y-13862771D02*
X12789270Y-13862771D01*
X12789270Y-13862771D02*
X12808318Y-13872295D01*
X12808318Y-13872295D02*
X12817842Y-13891343D01*
X12817842Y-13891343D02*
X12817842Y-13996104D01*
X12817842Y-13891343D02*
X12827366Y-13872295D01*
X12827366Y-13872295D02*
X12846413Y-13862771D01*
X12846413Y-13862771D02*
X12874985Y-13862771D01*
X12874985Y-13862771D02*
X12894032Y-13872295D01*
X12894032Y-13872295D02*
X12903556Y-13891343D01*
X12903556Y-13891343D02*
X12903556Y-13996104D01*
X12998794Y-13996104D02*
X12998794Y-13862771D01*
X12998794Y-13881819D02*
X13008318Y-13872295D01*
X13008318Y-13872295D02*
X13027366Y-13862771D01*
X13027366Y-13862771D02*
X13055937Y-13862771D01*
X13055937Y-13862771D02*
X13074985Y-13872295D01*
X13074985Y-13872295D02*
X13084509Y-13891343D01*
X13084509Y-13891343D02*
X13084509Y-13996104D01*
X13084509Y-13891343D02*
X13094032Y-13872295D01*
X13094032Y-13872295D02*
X13113080Y-13862771D01*
X13113080Y-13862771D02*
X13141651Y-13862771D01*
X13141651Y-13862771D02*
X13160699Y-13872295D01*
X13160699Y-13872295D02*
X13170223Y-13891343D01*
X13170223Y-13891343D02*
X13170223Y-13996104D01*
X13560699Y-13786581D02*
X13389271Y-14043723D01*
X13817842Y-13796104D02*
X13836890Y-13796104D01*
X13836890Y-13796104D02*
X13855937Y-13805628D01*
X13855937Y-13805628D02*
X13865461Y-13815152D01*
X13865461Y-13815152D02*
X13874985Y-13834200D01*
X13874985Y-13834200D02*
X13884509Y-13872295D01*
X13884509Y-13872295D02*
X13884509Y-13919914D01*
X13884509Y-13919914D02*
X13874985Y-13958009D01*
X13874985Y-13958009D02*
X13865461Y-13977057D01*
X13865461Y-13977057D02*
X13855937Y-13986581D01*
X13855937Y-13986581D02*
X13836890Y-13996104D01*
X13836890Y-13996104D02*
X13817842Y-13996104D01*
X13817842Y-13996104D02*
X13798794Y-13986581D01*
X13798794Y-13986581D02*
X13789271Y-13977057D01*
X13789271Y-13977057D02*
X13779747Y-13958009D01*
X13779747Y-13958009D02*
X13770223Y-13919914D01*
X13770223Y-13919914D02*
X13770223Y-13872295D01*
X13770223Y-13872295D02*
X13779747Y-13834200D01*
X13779747Y-13834200D02*
X13789271Y-13815152D01*
X13789271Y-13815152D02*
X13798794Y-13805628D01*
X13798794Y-13805628D02*
X13817842Y-13796104D01*
X13970223Y-13977057D02*
X13979747Y-13986581D01*
X13979747Y-13986581D02*
X13970223Y-13996104D01*
X13970223Y-13996104D02*
X13960699Y-13986581D01*
X13960699Y-13986581D02*
X13970223Y-13977057D01*
X13970223Y-13977057D02*
X13970223Y-13996104D01*
X14103556Y-13796104D02*
X14122604Y-13796104D01*
X14122604Y-13796104D02*
X14141652Y-13805628D01*
X14141652Y-13805628D02*
X14151175Y-13815152D01*
X14151175Y-13815152D02*
X14160699Y-13834200D01*
X14160699Y-13834200D02*
X14170223Y-13872295D01*
X14170223Y-13872295D02*
X14170223Y-13919914D01*
X14170223Y-13919914D02*
X14160699Y-13958009D01*
X14160699Y-13958009D02*
X14151175Y-13977057D01*
X14151175Y-13977057D02*
X14141652Y-13986581D01*
X14141652Y-13986581D02*
X14122604Y-13996104D01*
X14122604Y-13996104D02*
X14103556Y-13996104D01*
X14103556Y-13996104D02*
X14084509Y-13986581D01*
X14084509Y-13986581D02*
X14074985Y-13977057D01*
X14074985Y-13977057D02*
X14065461Y-13958009D01*
X14065461Y-13958009D02*
X14055937Y-13919914D01*
X14055937Y-13919914D02*
X14055937Y-13872295D01*
X14055937Y-13872295D02*
X14065461Y-13834200D01*
X14065461Y-13834200D02*
X14074985Y-13815152D01*
X14074985Y-13815152D02*
X14084509Y-13805628D01*
X14084509Y-13805628D02*
X14103556Y-13796104D01*
X14351175Y-13796104D02*
X14255937Y-13796104D01*
X14255937Y-13796104D02*
X14246413Y-13891343D01*
X14246413Y-13891343D02*
X14255937Y-13881819D01*
X14255937Y-13881819D02*
X14274985Y-13872295D01*
X14274985Y-13872295D02*
X14322604Y-13872295D01*
X14322604Y-13872295D02*
X14341652Y-13881819D01*
X14341652Y-13881819D02*
X14351175Y-13891343D01*
X14351175Y-13891343D02*
X14360699Y-13910390D01*
X14360699Y-13910390D02*
X14360699Y-13958009D01*
X14360699Y-13958009D02*
X14351175Y-13977057D01*
X14351175Y-13977057D02*
X14341652Y-13986581D01*
X14341652Y-13986581D02*
X14322604Y-13996104D01*
X14322604Y-13996104D02*
X14274985Y-13996104D01*
X14274985Y-13996104D02*
X14255937Y-13986581D01*
X14255937Y-13986581D02*
X14246413Y-13977057D01*
X14541652Y-13796104D02*
X14446413Y-13796104D01*
X14446413Y-13796104D02*
X14436890Y-13891343D01*
X14436890Y-13891343D02*
X14446413Y-13881819D01*
X14446413Y-13881819D02*
X14465461Y-13872295D01*
X14465461Y-13872295D02*
X14513080Y-13872295D01*
X14513080Y-13872295D02*
X14532128Y-13881819D01*
X14532128Y-13881819D02*
X14541652Y-13891343D01*
X14541652Y-13891343D02*
X14551175Y-13910390D01*
X14551175Y-13910390D02*
X14551175Y-13958009D01*
X14551175Y-13958009D02*
X14541652Y-13977057D01*
X14541652Y-13977057D02*
X14532128Y-13986581D01*
X14532128Y-13986581D02*
X14513080Y-13996104D01*
X14513080Y-13996104D02*
X14465461Y-13996104D01*
X14465461Y-13996104D02*
X14446413Y-13986581D01*
X14446413Y-13986581D02*
X14436890Y-13977057D01*
X14741652Y-13996104D02*
X14627366Y-13996104D01*
X14684509Y-13996104D02*
X14684509Y-13796104D01*
X14684509Y-13796104D02*
X14665461Y-13824676D01*
X14665461Y-13824676D02*
X14646413Y-13843723D01*
X14646413Y-13843723D02*
X14627366Y-13853247D01*
X14817842Y-13796104D02*
X14817842Y-13834200D01*
X14894033Y-13796104D02*
X14894033Y-13834200D01*
X15189271Y-14072295D02*
X15179747Y-14062771D01*
X15179747Y-14062771D02*
X15160699Y-14034200D01*
X15160699Y-14034200D02*
X15151175Y-14015152D01*
X15151175Y-14015152D02*
X15141652Y-13986581D01*
X15141652Y-13986581D02*
X15132128Y-13938962D01*
X15132128Y-13938962D02*
X15132128Y-13900866D01*
X15132128Y-13900866D02*
X15141652Y-13853247D01*
X15141652Y-13853247D02*
X15151175Y-13824676D01*
X15151175Y-13824676D02*
X15160699Y-13805628D01*
X15160699Y-13805628D02*
X15179747Y-13777057D01*
X15179747Y-13777057D02*
X15189271Y-13767533D01*
X15255937Y-13815152D02*
X15265461Y-13805628D01*
X15265461Y-13805628D02*
X15284509Y-13796104D01*
X15284509Y-13796104D02*
X15332128Y-13796104D01*
X15332128Y-13796104D02*
X15351175Y-13805628D01*
X15351175Y-13805628D02*
X15360699Y-13815152D01*
X15360699Y-13815152D02*
X15370223Y-13834200D01*
X15370223Y-13834200D02*
X15370223Y-13853247D01*
X15370223Y-13853247D02*
X15360699Y-13881819D01*
X15360699Y-13881819D02*
X15246414Y-13996104D01*
X15246414Y-13996104D02*
X15370223Y-13996104D01*
X15608318Y-13996104D02*
X15608318Y-13796104D01*
X15694033Y-13996104D02*
X15694033Y-13891343D01*
X15694033Y-13891343D02*
X15684509Y-13872295D01*
X15684509Y-13872295D02*
X15665461Y-13862771D01*
X15665461Y-13862771D02*
X15636890Y-13862771D01*
X15636890Y-13862771D02*
X15617842Y-13872295D01*
X15617842Y-13872295D02*
X15608318Y-13881819D01*
X15817842Y-13996104D02*
X15798795Y-13986581D01*
X15798795Y-13986581D02*
X15789271Y-13977057D01*
X15789271Y-13977057D02*
X15779747Y-13958009D01*
X15779747Y-13958009D02*
X15779747Y-13900866D01*
X15779747Y-13900866D02*
X15789271Y-13881819D01*
X15789271Y-13881819D02*
X15798795Y-13872295D01*
X15798795Y-13872295D02*
X15817842Y-13862771D01*
X15817842Y-13862771D02*
X15846414Y-13862771D01*
X15846414Y-13862771D02*
X15865461Y-13872295D01*
X15865461Y-13872295D02*
X15874985Y-13881819D01*
X15874985Y-13881819D02*
X15884509Y-13900866D01*
X15884509Y-13900866D02*
X15884509Y-13958009D01*
X15884509Y-13958009D02*
X15874985Y-13977057D01*
X15874985Y-13977057D02*
X15865461Y-13986581D01*
X15865461Y-13986581D02*
X15846414Y-13996104D01*
X15846414Y-13996104D02*
X15817842Y-13996104D01*
X15998795Y-13996104D02*
X15979747Y-13986581D01*
X15979747Y-13986581D02*
X15970223Y-13967533D01*
X15970223Y-13967533D02*
X15970223Y-13796104D01*
X16151176Y-13986581D02*
X16132128Y-13996104D01*
X16132128Y-13996104D02*
X16094033Y-13996104D01*
X16094033Y-13996104D02*
X16074985Y-13986581D01*
X16074985Y-13986581D02*
X16065461Y-13967533D01*
X16065461Y-13967533D02*
X16065461Y-13891343D01*
X16065461Y-13891343D02*
X16074985Y-13872295D01*
X16074985Y-13872295D02*
X16094033Y-13862771D01*
X16094033Y-13862771D02*
X16132128Y-13862771D01*
X16132128Y-13862771D02*
X16151176Y-13872295D01*
X16151176Y-13872295D02*
X16160699Y-13891343D01*
X16160699Y-13891343D02*
X16160699Y-13910390D01*
X16160699Y-13910390D02*
X16065461Y-13929438D01*
X16236890Y-13986581D02*
X16255937Y-13996104D01*
X16255937Y-13996104D02*
X16294033Y-13996104D01*
X16294033Y-13996104D02*
X16313080Y-13986581D01*
X16313080Y-13986581D02*
X16322604Y-13967533D01*
X16322604Y-13967533D02*
X16322604Y-13958009D01*
X16322604Y-13958009D02*
X16313080Y-13938962D01*
X16313080Y-13938962D02*
X16294033Y-13929438D01*
X16294033Y-13929438D02*
X16265461Y-13929438D01*
X16265461Y-13929438D02*
X16246414Y-13919914D01*
X16246414Y-13919914D02*
X16236890Y-13900866D01*
X16236890Y-13900866D02*
X16236890Y-13891343D01*
X16236890Y-13891343D02*
X16246414Y-13872295D01*
X16246414Y-13872295D02*
X16265461Y-13862771D01*
X16265461Y-13862771D02*
X16294033Y-13862771D01*
X16294033Y-13862771D02*
X16313080Y-13872295D01*
X16389271Y-14072295D02*
X16398795Y-14062771D01*
X16398795Y-14062771D02*
X16417842Y-14034200D01*
X16417842Y-14034200D02*
X16427366Y-14015152D01*
X16427366Y-14015152D02*
X16436890Y-13986581D01*
X16436890Y-13986581D02*
X16446414Y-13938962D01*
X16446414Y-13938962D02*
X16446414Y-13900866D01*
X16446414Y-13900866D02*
X16436890Y-13853247D01*
X16436890Y-13853247D02*
X16427366Y-13824676D01*
X16427366Y-13824676D02*
X16417842Y-13805628D01*
X16417842Y-13805628D02*
X16398795Y-13777057D01*
X16398795Y-13777057D02*
X16389271Y-13767533D01*
M02*
