0
SECTION
2
HEADER
9
$INSUNITS
70
4
9
$ACADVER
1
AC1014
9
$HANDSEED
5
FFFF
0
ENDSEC
0
SECTION
2
TABLES
0
TABLE
2
VPORT
5
8
100
AcDbSymbolTable
0
ENDTAB
0
TABLE
2
LTYPE
5
5
100
AcDbSymbolTable
0
LTYPE
5
14
100
AcDbSymbolTableRecord
100
AcDbLinetypeTableRecord
2
BYBLOCK
70
0
0
LTYPE
5
15
100
AcDbSymbolTableRecord
100
AcDbLinetypeTableRecord
2
BYLAYER
70
0
0
ENDTAB
0
TABLE
2
LAYER
5
2
100
AcDbSymbolTable
70
2
0
LAYER
5
50
100
AcDbSymbolTableRecord
100
AcDbLayerTableRecord
2
0
70
0
6
CONTINUOUS
0
ENDTAB
0
TABLE
2
STYLE
5
3
100
AcDbSymbolTable
70
1
0
STYLE
5
11
100
AcDbSymbolTableRecord
100
AcDbTextStyleTableRecord
2
STANDARD
70
0
0
ENDTAB
0
TABLE
2
VIEW
5
6
100
AcDbSymbolTable
70
0
0
ENDTAB
0
TABLE
2
UCS
5
7
100
AcDbSymbolTable
70
0
0
ENDTAB
0
TABLE
2
APPID
5
9
100
AcDbSymbolTable
70
2
0
APPID
5
12
100
AcDbSymbolTableRecord
100
AcDbRegAppTableRecord
2
ACAD
70
0
0
ENDTAB
0
TABLE
2
DIMSTYLE
5
A
100
AcDbSymbolTable
70
1
0
ENDTAB
0
TABLE
2
BLOCK_RECORD
5
1
100
AcDbSymbolTable
70
1
0
BLOCK_RECORD
5
1F
100
AcDbSymbolTableRecord
100
AcDbBlockTableRecord
2
*MODEL_SPACE
0
BLOCK_RECORD
5
1B
100
AcDbSymbolTableRecord
100
AcDbBlockTableRecord
2
*PAPER_SPACE
0
ENDTAB
0
ENDSEC
0
SECTION
2
BLOCKS
0
BLOCK
5
20
100
AcDbEntity
100
AcDbBlockBegin
2
*MODEL_SPACE
0
ENDBLK
5
21
100
AcDbEntity
100
AcDbBlockEnd
0
BLOCK
5
1C
100
AcDbEntity
100
AcDbBlockBegin
2
*PAPER_SPACE
0
ENDBLK
5
1D
100
AcDbEntity
100
AcDbBlockEnd
0
ENDSEC
0
SECTION
2
ENTITIES
0
LWPOLYLINE
5
100
100
AcDbEntity
8
0
100
AcDbPolyline
90
116
70
1
43
0.0
10
-35.592776474312814
20
-33.703689177786707
42
0.19891236737966475
10
-36.299883255499367
20
-33.410795958973253
10
-39.376900656422961
20
-33.410795958973246
42
-0.22417937219049311
10
-40.148996747725391
20
-33.046301762090337
42
-0.049848640387991125
10
-45.895157704621369
20
-24.446564160796441
42
-0.2241793721904824
10
-45.936438050505302
20
-23.593754494569922
10
-44.758914470072746
20
-20.750961096675521
42
0.19891236737966694
10
-44.758914470072746
20
-19.985594231945338
10
-45.781281147788341
20
-17.517382732886016
42
0.19891236737966397
10
-46.322477247934529
20
-16.976186632739825
10
-49.165270645828926
20
-15.798663052307258
42
-0.22417937219049242
10
-49.739108531374882
20
-15.166445941752748
42
-0.049848640387990903
10
-51.756891927264263
20
-5.0223637890424522
42
-0.22417937219048997
10
-51.46867386369572
20
-4.2186730888358799
10
-49.29289399367363
20
-2.0428932188137834
42
0.1989123673796635
10
-49.000000774860169
20
-1.3357864376272375
10
-49.000000774860183
20
1.3357864376265765
42
0.19891236737966278
10
-49.29289399367363
20
2.0428932188131181
10
-51.468673863695713
20
4.218673088835212
42
-0.22417937219049128
10
-51.756891927264313
20
5.022363789041778
42
-0.049848640387991347
10
-49.739108531374939
20
15.166445941752142
42
-0.22417937219048531
10
-49.165270645828983
20
15.798663052306615
10
-46.322477247934579
20
16.976186632739175
42
0.19891236737966456
10
-45.781281147788377
20
17.51738273288537
10
-44.758914470072781
20
19.985594231944695
42
0.19891236737966406
10
-44.758914470072781
20
20.750961096674875
10
-45.936438050505323
20
23.593754494569271
42
-0.22417937219049347
10
-45.895157704621511
20
24.446564160795937
42
-0.049848640387991458
10
-40.148996747725462
20
33.046301762089747
42
-0.22417937219049053
10
-39.376900656423061
20
33.410795958972614
10
-36.299883255499445
20
33.410795958972614
42
0.19891236737966514
10
-35.592776474312892
20
33.70368917778606
10
-33.703689177786885
20
35.592776474312075
42
0.19891236737966475
10
-33.410795958973438
20
36.299883255498621
10
-33.410795958973431
20
39.376900656422222
42
-0.22417937219049391
10
-33.04630176209082
20
40.148996747724908
42
-0.04984864038799202
10
-24.446564160796665
20
45.895157704620573
42
-0.22417937219049078
10
-23.593754494570121
20
45.93643805050452
10
-20.750961096675724
20
44.758914470071971
42
0.19891236737966639
10
-19.985594231945541
20
44.758914470071971
10
-17.517382732886219
20
45.781281147787567
42
0.19891236737966475
10
-16.976186632740028
20
46.322477247933762
10
-15.798663052307463
20
49.165270645828151
42
-0.22417937219049358
10
-15.166445941753139
20
49.739108531374725
42
-0.049848640387992242
10
-5.0223637890426183
20
51.756891927263517
42
-0.2241793721904804
10
-4.2186730888360842
20
51.468673863694974
10
-2.0428932188139877
20
49.292893993672877
42
0.1989123673796642
10
-1.3357864376274378
20
49.000000774859416
10
1.3357864376263722
20
49.000000774859423
42
0.19891236737966406
10
2.0428932188129192
20
49.292893993672877
10
4.2186730888350077
20
51.468673863694967
42
-0.22417937219049128
10
5.0223637890416759
20
51.756891927264306
42
-0.049848640387992575
10
15.166445941751956
20
49.739108531374171
42
-0.22417937219048342
10
15.798663052306431
20
49.165270645828222
10
16.976186632738987
20
46.322477247933811
42
0.19891236737966533
10
17.517382732885185
20
45.78128114778761
10
19.985594231944511
20
44.758914470072014
42
0.19891236737966406
10
20.750961096674693
20
44.758914470072014
10
23.593754494569076
20
45.936438050504556
42
-0.22417937219049558
10
24.446564160796157
20
45.89515770462144
42
-0.049848640387992575
10
33.046301762089584
20
40.148996747724688
42
-0.22417937219047784
10
33.410795958972415
20
39.376900656422315
10
33.410795958972415
20
36.299883255498699
42
0.19891236737966514
10
33.703689177785861
20
35.592776474312146
10
35.592776474311883
20
33.703689177786138
42
0.19891236737966475
10
36.299883255498429
20
33.410795958972692
10
39.376900656422023
20
33.410795958972678
42
-0.22417937219049242
10
40.148996747725235
20
33.046301762090529
42
-0.049848640387992908
10
45.895157704620395
20
24.446564160795951
42
-0.22417937219049275
10
45.936438050504343
20
23.593754494569392
10
44.758914470071787
20
20.750961096674985
42
0.19891236737966506
10
44.75891447007178
20
19.985594231944805
10
45.781281147787389
20
17.517382732885483
42
0.19891236737966542
10
46.322477247933591
20
16.976186632739289
10
49.165270645827974
20
15.798663052306729
42
-0.22417937219049336
10
49.739108531374995
20
15.166445941752533
42
-0.049848640387992575
10
51.756891927263325
20
5.0223637890419068
42
-0.22417937219049264
10
51.468673863694789
20
4.2186730888353248
10
49.292893993672699
20
2.0428932188132283
42
0.19891236737966506
10
49.000000774859238
20
1.3357864376266826
10
49.000000774859245
20
-1.3357864376271316
42
0.19891236737966472
10
49.292893993672699
20
-2.0428932188136733
10
51.468673863694775
20
-4.218673088835768
42
-0.22417937219049078
10
51.756891927264363
20
-5.0223637890424921
42
-0.049848640387992353
10
49.739108531374001
20
-15.1664459417527
42
-0.22417937219048656
10
49.165270645828045
20
-15.798663052307177
10
46.322477247933634
20
-16.976186632739733
42
0.19891236737966456
10
45.781281147787432
20
-17.517382732885928
10
44.758914470071844
20
-19.985594231945253
42
0.19891236737966406
10
44.758914470071844
20
-20.750961096675432
10
45.936438050504378
20
-23.593754494569833
42
-0.22417937219049347
10
45.895157704621205
20
-24.446564160796839
42
-0.049848640387992242
10
40.148996747724503
20
-33.046301762090323
42
-0.22417937219048367
10
39.376900656422123
20
-33.410795958973168
10
36.2998832554985
20
-33.410795958973168
42
0.19891236737966514
10
35.592776474311954
20
-33.703689177786622
10
33.703689177785947
20
-35.592776474312636
42
0.19891236737966475
10
33.410795958972493
20
-36.299883255499182
10
33.410795958972479
20
-39.376900656422784
42
-0.22417937219049242
10
33.046301762090039
20
-40.14899674772569
42
-0.03347020453726033
10
27.393652536404023
20
-44.19940950640364
42
-0.13939515262568555
10
25.815715208534769
20
-44.649442560059796
10
13.036710458419272
20
-44.659945640719137
42
-0.41421356237309509
10
10.034245768624224
20
-41.662412357078423
10
10.027119356609163
20
-32.991770290674211
42
0.41421356237309437
10
7.0246546668141132
20
-29.994237007033494
10
-6.9753406045360142
20
-30.005743621393577
42
0.41421356237309515
10
-9.9728738881767391
20
-33.008208311188632
10
-9.9657474761616847
20
-41.678850377592852
42
-0.41421356237309453
10
-12.963280759802398
20
-44.681315067387892
10
-25.742285509917885
20
-44.69181814804724
42
-0.13939515262568258
10
-27.320960470933528
20
-44.244379518145465
42
-0.033881621147673062
10
-33.046301762090494
20
-40.148996747725278
42
-0.22417937219048739
10
-33.410795958973353
20
-39.376900656422876
10
-33.410795958973353
20
-36.29988325549926
42
0.19891236737966514
10
-33.703689177786806
20
-35.592776474312714
0
CIRCLE
5
101
100
AcDbEntity
8
0
100
AcDbCircle
10
44.54772787856534
20
-44.547727878565375
30
0
40
1.6000000000000014
210
0
220
0
230
1
0
CIRCLE
5
102
100
AcDbEntity
8
0
100
AcDbCircle
10
44.547727878565375
20
44.54772787856534
30
0
40
1.6000000000000014
210
0
220
0
230
1
0
CIRCLE
5
103
100
AcDbEntity
8
0
100
AcDbCircle
10
-44.547727878565368
20
-44.547727878565347
30
0
40
1.6000000000000014
210
0
220
0
230
1
0
CIRCLE
5
104
100
AcDbEntity
8
0
100
AcDbCircle
10
-44.54772787856534
20
44.547727878565375
30
0
40
1.6000000000000014
210
0
220
0
230
1
0
LWPOLYLINE
5
105
100
AcDbEntity
8
0
100
AcDbPolyline
90
24
70
1
43
0.0
10
-45.008273321443191
20
-41.118065755768939
10
-46.479925154215294
20
-42.521249729664909
42
0.99999999999999989
10
-42.615530602915427
20
-46.574206027465792
10
-41.001152676730101
20
-45.034936219628392
42
-0.38800978813962045
10
-39.382778265170082
20
-45.000408621660867
42
0.37626434085530874
10
39.457780200122123
20
-44.934659024842404
42
-0.4022567170835048
10
41.118065755768939
20
-45.008273321443184
10
42.521249729664916
20
-46.479925154215287
42
1.0000000105367119
10
46.574206027465799
20
-42.615530602915413
10
45.034936219628385
20
-41.001152676730079
42
-0.38800978813962117
10
45.000408621660867
20
-39.382778265170067
42
0.37626434085531185
10
44.934659024842446
20
39.45778020012208
42
-0.40225671708351574
10
45.008273321443191
20
41.118065755768953
10
46.479925154215294
20
42.521249729664909
42
0.99999999999999989
10
42.615530602915427
20
46.574206027465799
10
41.001152676730086
20
45.034936219628399
42
-0.388009788139622
10
39.382778265170074
20
45.000408621660867
42
0.37626434085531146
10
-39.457780200122123
20
44.934659024842418
42
-0.40225671708350663
10
-41.118065755768953
20
45.008273321443184
10
-42.521249729664909
20
46.479925154215294
42
0.99999999999999989
10
-46.574206027465799
20
42.615530602915435
10
-45.034936219628399
20
41.001152676730086
42
-0.388009788139622
10
-45.000408621660853
20
39.382778265170074
42
0.37626434085530791
10
-44.934659024842453
20
-39.45778020012208
42
-0.40225671708351735
0
ENDSEC
0
SECTION
2
OBJECTS
0
DICTIONARY
5
C
100
AcDbDictionary
3
ACAD_GROUP
350
D
3
ACAD_MLINESTYLE
350
17
0
DICTIONARY
5
D
100
AcDbDictionary
0
DICTIONARY
5
1A
330
C
100
AcDbDictionary
0
DICTIONARY
5
17
100
AcDbDictionary
0
ENDSEC
0
EOF
