0
SECTION
2
HEADER
9
$INSUNITS
70
4
9
$ACADVER
1
AC1014
9
$HANDSEED
5
FFFF
0
ENDSEC
0
SECTION
2
TABLES
0
TABLE
2
VPORT
5
8
100
AcDbSymbolTable
0
ENDTAB
0
TABLE
2
LTYPE
5
5
100
AcDbSymbolTable
0
LTYPE
5
14
100
AcDbSymbolTableRecord
100
AcDbLinetypeTableRecord
2
BYBLOCK
70
0
0
LTYPE
5
15
100
AcDbSymbolTableRecord
100
AcDbLinetypeTableRecord
2
BYLAYER
70
0
0
ENDTAB
0
TABLE
2
LAYER
5
2
100
AcDbSymbolTable
70
2
0
LAYER
5
50
100
AcDbSymbolTableRecord
100
AcDbLayerTableRecord
2
0
70
0
6
CONTINUOUS
0
ENDTAB
0
TABLE
2
STYLE
5
3
100
AcDbSymbolTable
70
1
0
STYLE
5
11
100
AcDbSymbolTableRecord
100
AcDbTextStyleTableRecord
2
STANDARD
70
0
0
ENDTAB
0
TABLE
2
VIEW
5
6
100
AcDbSymbolTable
70
0
0
ENDTAB
0
TABLE
2
UCS
5
7
100
AcDbSymbolTable
70
0
0
ENDTAB
0
TABLE
2
APPID
5
9
100
AcDbSymbolTable
70
2
0
APPID
5
12
100
AcDbSymbolTableRecord
100
AcDbRegAppTableRecord
2
ACAD
70
0
0
ENDTAB
0
TABLE
2
DIMSTYLE
5
A
100
AcDbSymbolTable
70
1
0
ENDTAB
0
TABLE
2
BLOCK_RECORD
5
1
100
AcDbSymbolTable
70
1
0
BLOCK_RECORD
5
1F
100
AcDbSymbolTableRecord
100
AcDbBlockTableRecord
2
*MODEL_SPACE
0
BLOCK_RECORD
5
1B
100
AcDbSymbolTableRecord
100
AcDbBlockTableRecord
2
*PAPER_SPACE
0
ENDTAB
0
ENDSEC
0
SECTION
2
BLOCKS
0
BLOCK
5
20
100
AcDbEntity
100
AcDbBlockBegin
2
*MODEL_SPACE
0
ENDBLK
5
21
100
AcDbEntity
100
AcDbBlockEnd
0
BLOCK
5
1C
100
AcDbEntity
100
AcDbBlockBegin
2
*PAPER_SPACE
0
ENDBLK
5
1D
100
AcDbEntity
100
AcDbBlockEnd
0
ENDSEC
0
SECTION
2
ENTITIES
0
LWPOLYLINE
5
100
100
AcDbEntity
8
0
100
AcDbPolyline
90
24
70
1
43
0.0
10
-46.622188365542449
20
-42.521249729664909
42
0.9666155787849402
10
-42.615530602915427
20
-46.710275840570084
10
-40.931624781694737
20
-45.106814147086439
42
-0.3878216751219189
10
-39.448635753907837
20
-45.075660141095064
42
0.37626434085531008
10
39.523763110155734
20
-45.009800595118094
42
-0.40200821453836738
10
41.04504174500547
20
-45.076599453034632
10
42.521249729664916
20
-46.622188365542442
42
0.9666155787849402
10
46.710275840570084
20
-42.615530602915413
10
45.106814147086453
20
-40.931624781694723
42
-0.38782167512191618
10
45.075660141095057
20
-39.44863575390783
42
0.37626434085531008
10
45.00980059511808
20
39.523763110155741
42
-0.40200821453836083
10
45.076599453034646
20
41.045041745005463
10
46.622188365542449
20
42.521249729664909
42
0.9666155787849402
10
42.615530602915427
20
46.710275840570084
10
40.931624781694737
20
45.106814147086439
42
-0.38782167512192367
10
39.448635753907823
20
45.075660141095064
42
0.37626434085531013
10
-39.523763110155762
20
45.009800595118065
42
-0.40200821453835484
10
-41.04504174500547
20
45.076599453034646
10
-42.521249729664909
20
46.622188365542449
42
0.9666155787849402
10
-46.710275840570084
20
42.615530602915427
10
-45.106814147086439
20
40.931624781694723
42
-0.38782167512192695
10
-45.075660141095071
20
39.448635753907809
42
0.37626434085530963
10
-45.009800595118136
20
-39.523763110155691
42
-0.40200821453838131
10
-45.076599453034646
20
-41.045041745005463
0
LWPOLYLINE
5
101
100
AcDbEntity
8
0
100
AcDbPolyline
90
116
70
1
43
0.0
10
-32.982751181778831
20
-40.07178713859502
42
0.03769442880816256
10
-26.592661741563539
20
-44.569500126193759
42
0.071964805576385002
10
-25.742285509917888
20
-44.691818148047219
10
-12.963280759802398
20
-44.681315067387892
42
0.41421356237309453
10
-9.9657474761616793
20
-41.678850377592845
10
-9.9728738881767427
20
-33.008208311188632
42
-0.41421356237309515
10
-6.9753406045360142
20
-30.005743621393577
10
7.0246546668141132
20
-29.994237007033494
42
-0.41421356237309437
10
10.027119356609163
20
-32.991770290674211
10
10.034245768624224
20
-41.662412357078423
42
0.41421356237309509
10
13.036710458419272
20
-44.659945640719137
10
25.815715208534769
20
-44.649442560059796
42
0.071964805576385196
10
26.665889224738581
20
-44.525726853741226
42
0.037282900693355422
10
32.98275118177844
20
-40.071787138595312
42
0.22417937219049808
10
33.310795958973408
20
-39.376900656422372
10
33.310795958972399
20
-36.299883255498756
42
-0.19891236737965984
10
33.632978499667203
20
-35.522065796193552
10
35.522065796193196
20
-33.632978499667544
42
-0.17633934287690417
10
36.204064491107758
20
-33.314977194582077
10
39.37808647425279
20
-33.310795177771247
42
0.22383344963440346
10
40.071787138595013
20
-32.982751181778838
42
0.049848640387991215
10
45.806897785958469
20
-24.399551537410552
42
0.22417937219049819
10
45.844050097254076
20
-23.632022837805792
10
44.666526516820738
20
-20.789229439912145
42
-0.19891236737975448
10
44.666526516820596
20
-19.947325888708576
10
45.688893194536185
20
-17.479114389649258
42
-0.17633934287690248
10
46.197283999040465
20
-16.924329891130508
10
49.128097556461668
20
-15.705820584482179
42
0.22383344963440663
10
49.643456399583798
20
-15.137279699557144
42
0.049848640387991784
10
51.657359442788781
20
-5.0127053971404578
42
0.22417937219049772
10
51.397963185576813
20
-4.2893837669537191
10
49.222183315554283
20
-2.1136038969326192
42
-0.19891236737975335
10
48.900000774859215
20
-1.3357864376271316
10
48.900000774859208
20
1.335786437626691
42
-0.17633934287689823
10
49.157385797541558
20
2.0428932188132283
10
51.398801133012611
20
4.2902228191762326
42
0.22383344963440502
10
51.657359442788831
20
5.0127053971400004
42
0.049848640387991354
10
49.643456399583918
20
15.137279699556665
42
0.22417937219049641
10
49.127002302591976
20
15.706275099056352
10
46.284208904697557
20
16.883798679487832
42
-0.19891236737975207
10
45.688893194536384
20
17.479114389648799
10
44.666526516820767
20
19.947325888708122
42
-0.17633934287690212
10
44.633721221178853
20
20.699104355065757
10
45.844503168354898
20
23.633118689581714
42
0.22383344963440641
10
45.806897785958718
20
24.399551537410119
42
0.0498486403879915
10
40.071787138595298
20
32.982751181778468
42
0.22417937219049572
10
39.376900656422357
20
33.310795958973415
10
36.29988325549914
20
33.31079595897242
42
-0.19891236737975371
10
35.522065796193544
20
33.632978499667217
10
33.63297849966753
20
35.52206579619321
42
-0.17633934287690489
10
33.31497719458207
20
36.204064491107772
10
33.31079517777124
20
39.378086474252804
42
0.22383344963440466
10
32.982751181778823
20
40.071787138595027
42
0.049848640387991354
10
24.399551537410517
20
45.806897785958469
42
0.22417937219049611
10
23.632022837805764
20
45.844050097254083
10
20.78922943991212
20
44.666526516820738
42
-0.19891236737975262
10
19.947325888708548
20
44.666526516820596
10
17.479114389649229
20
45.688893194536192
42
-0.17633934287690259
10
16.92432989113048
20
46.197283999040472
10
15.705820584482142
20
49.128097556461682
42
0.22383344963440213
10
15.137279699557116
20
49.643456399583805
42
0.049848640387991354
10
5.0127053971404596
20
51.657359442788781
42
0.22417937219049505
10
4.2893837669537307
20
51.397963185576813
10
2.1136038969326307
20
49.222183315554283
42
-0.19891236737975371
10
1.3357864376271422
20
48.900000774859215
10
-1.3357864376266564
20
48.900000774859208
42
-0.17633934287690373
10
-2.0428932188132172
20
49.157385797541558
10
-4.2902228191762219
20
51.398801133012611
42
0.22383344963440446
10
-5.0127053971399871
20
51.657359442788831
42
0.049848640387991784
10
-15.13727969955667
20
49.643456399583926
42
0.22417937219049619
10
-15.706275099056356
20
49.127002302591983
10
-16.883798679487828
20
46.284208904697557
42
-0.1989123673797531
10
-17.479114389648803
20
45.688893194536384
10
-19.947325888708114
20
44.666526516820781
42
-0.17633934287690417
10
-20.699104355065767
20
44.633721221178853
10
-23.633118689581721
20
45.844503168354898
42
0.22383344963440874
10
-24.399551537410126
20
45.806897785958711
42
0.049848640387991215
10
-32.982751181778461
20
40.071787138595305
42
0.22417937219049389
10
-33.310795958973415
20
39.376900656422372
10
-33.310795958972406
20
36.299883255498756
42
-0.1989123673796617
10
-33.63297849966721
20
35.522065796193552
10
-35.522065796193203
20
33.632978499667544
42
-0.17633934287690453
10
-36.204064491107765
20
33.314977194582077
10
-39.378086474252797
20
33.310795177771254
42
0.22383344963440172
10
-40.071787138595013
20
32.982751181778831
42
0.049848640387991354
10
-45.806897785958476
20
24.399551537410527
42
0.22417937219049711
10
-45.844050097254083
20
23.632022837805771
10
-44.666526516820745
20
20.789229439912113
42
-0.19891236737975218
10
-44.666526516820603
20
19.947325888708551
10
-45.688893194536192
20
17.479114389649233
42
-0.17633934287690431
10
-46.197283999040479
20
16.924329891130483
10
-49.12809755646169
20
15.705820584482144
42
0.22383344963440063
10
-49.643456399583798
20
15.137279699557117
42
0.0498486403879915
10
-51.657359442788781
20
5.0127053971404649
42
0.22417937219049788
10
-51.397963185576813
20
4.2893837669537245
10
-49.222183315554283
20
2.113603896932625
42
-0.1989123673797531
10
-48.900000774859215
20
1.3357864376271378
10
-48.900000774859208
20
-1.3357864376266853
42
-0.17633934287689812
10
-49.157385797541558
20
-2.0428932188132221
10
-51.398801133012611
20
-4.2902228191762264
42
0.22383344963439941
10
-51.657359442788831
20
-5.0127053971399747
42
0.0498486403879915
10
-49.643456399583918
20
-15.137279699556654
42
0.22417937219049763
10
-49.127002302591976
20
-15.706275099056345
10
-46.284208904697557
20
-16.883798679487828
42
-0.19891236737975207
10
-45.688893194536384
20
-17.479114389648792
10
-44.666526516820781
20
-19.947325888708104
42
-0.17633934287690478
10
-44.633721221178853
20
-20.699104355065753
10
-45.844503168354898
20
-23.633118689581714
42
0.22383344963440527
10
-45.806897785958711
20
-24.399551537410108
42
0.049848640387991215
10
-40.071787138595305
20
-32.982751181778447
42
0.22417937219049941
10
-39.376900656422357
20
-33.310795958973415
10
-36.29988325549914
20
-33.310795958972406
42
-0.19891236737975437
10
-35.522065796193544
20
-33.63297849966721
10
-33.63297849966753
20
-35.522065796193203
42
-0.17633934287690453
10
-33.31497719458207
20
-36.204064491107765
10
-33.31079517777124
20
-39.378086474252797
42
0.22383344963440324
0
CIRCLE
5
102
100
AcDbEntity
8
0
100
AcDbCircle
10
44.54772787856534
20
-44.547727878565375
30
0
40
1.6000000000000014
210
0
220
0
230
1
0
CIRCLE
5
103
100
AcDbEntity
8
0
100
AcDbCircle
10
44.547727878565382
20
44.547727878565333
30
0
40
1.6000000000000014
210
0
220
0
230
1
0
CIRCLE
5
104
100
AcDbEntity
8
0
100
AcDbCircle
10
-44.547727878565382
20
-44.547727878565333
30
0
40
1.6000000000000014
210
0
220
0
230
1
0
CIRCLE
5
105
100
AcDbEntity
8
0
100
AcDbCircle
10
-44.547727878565333
20
44.547727878565382
30
0
40
1.6000000000000014
210
0
220
0
230
1
0
ENDSEC
0
SECTION
2
OBJECTS
0
DICTIONARY
5
C
100
AcDbDictionary
3
ACAD_GROUP
350
D
3
ACAD_MLINESTYLE
350
17
0
DICTIONARY
5
D
100
AcDbDictionary
0
DICTIONARY
5
1A
330
C
100
AcDbDictionary
0
DICTIONARY
5
17
100
AcDbDictionary
0
ENDSEC
0
EOF
