M48
; DRILL file {KiCad 7.0.2-0} date 2023 August 02, Wednesday 22:29:17
; FORMAT={-:-/ absolute / metric / decimal}
; #@! TF.CreationDate,2023-08-02T22:29:17+09:00
; #@! TF.GenerationSoftware,Kicad,Pcbnew,7.0.2-0
; #@! TF.FileFunction,Plated,1,2,PTH
FMAT,2
METRIC
; #@! TA.AperFunction,Plated,PTH,ViaDrill
T1C0.400
; #@! TA.AperFunction,Plated,PTH,ComponentDrill
T2C0.700
; #@! TA.AperFunction,Plated,PTH,ComponentDrill
T3C0.762
; #@! TA.AperFunction,Plated,PTH,ComponentDrill
T4C0.950
; #@! TA.AperFunction,Plated,PTH,ComponentDrill
T5C1.000
; #@! TA.AperFunction,Plated,PTH,ComponentDrill
T6C1.100
%
G90
G05
T1
X109.322Y-70.385
X115.57Y-69.085
X123.19Y-78.105
X127.635Y-111.76
X128.27Y-76.706
X130.175Y-75.306
X134.114Y-95.25
X135.255Y-92.204
X135.89Y-73.66
X135.89Y-97.79
X136.525Y-93.604
X138.43Y-93.98
X144.78Y-86.36
X151.13Y-74.295
X155.575Y-136.525
X157.48Y-85.09
X161.29Y-94.615
X170.815Y-118.745
T2
X165.1Y-69.85
X165.1Y-74.93
X170.18Y-69.85
X170.18Y-74.93
T3
X102.235Y-64.77
X102.235Y-80.01
X104.775Y-64.77
X104.775Y-80.01
X107.315Y-64.77
X107.315Y-80.01
X109.855Y-64.77
X109.855Y-80.01
X112.395Y-64.77
X112.395Y-80.01
X114.935Y-64.77
X114.935Y-80.01
X117.475Y-64.77
X117.475Y-80.01
X120.015Y-64.77
X120.015Y-80.01
X122.555Y-64.77
X122.555Y-80.01
X125.095Y-64.77
X125.095Y-80.01
X127.635Y-64.77
X127.635Y-80.01
X130.175Y-64.77
X130.175Y-80.01
X132.715Y-64.77
X132.715Y-80.01
X135.255Y-64.77
X135.255Y-80.01
X146.685Y-74.295
X146.685Y-76.835
X146.685Y-79.375
X146.685Y-81.915
X154.305Y-74.295
X154.305Y-76.835
X154.305Y-79.375
X154.305Y-81.915
X170.18Y-104.14
X170.18Y-114.3
X170.18Y-124.46
X172.72Y-106.68
X172.72Y-116.84
X172.72Y-127.0
X175.26Y-104.14
X175.26Y-114.3
X175.26Y-124.46
T4
X110.49Y-119.54
X110.49Y-122.04
X110.49Y-124.54
X110.49Y-127.04
X110.49Y-129.54
X146.745Y-65.405
X149.245Y-65.405
X151.745Y-65.405
X154.245Y-65.405
X163.83Y-114.3
X163.83Y-116.8
X163.83Y-119.3
X163.83Y-121.8
X163.83Y-124.3
X163.83Y-126.8
X163.83Y-129.3
T5
X110.49Y-100.37
X110.49Y-102.87
X122.786Y-113.03
X122.786Y-115.57
X122.786Y-118.11
X122.786Y-120.65
X122.786Y-123.19
X122.786Y-125.73
X122.786Y-128.27
X122.786Y-130.81
X131.166Y-116.84
X131.166Y-119.38
X131.166Y-121.92
X131.166Y-124.46
X131.166Y-127.0
X131.166Y-129.54
X131.166Y-132.08
X146.406Y-116.84
X146.406Y-119.38
X146.406Y-121.92
X146.406Y-124.46
X146.406Y-127.0
X146.406Y-129.54
X146.406Y-132.08
X154.786Y-113.03
X154.786Y-115.57
X154.786Y-118.11
X154.786Y-120.65
X154.786Y-123.19
X154.786Y-125.73
X154.786Y-128.27
X154.786Y-130.81
X160.02Y-64.77
X160.02Y-80.01
X162.56Y-64.77
X162.56Y-80.01
X163.83Y-100.37
X163.83Y-102.87
X165.1Y-64.77
X165.1Y-80.01
X167.64Y-64.77
X167.64Y-80.01
X170.18Y-64.77
X170.18Y-80.01
X172.72Y-64.77
X172.72Y-80.01
X175.26Y-64.77
X175.26Y-80.01
T6
X112.34Y-138.99
X112.34Y-145.49
X116.84Y-138.99
X116.84Y-145.49
X121.575Y-138.99
X121.575Y-145.49
X126.075Y-138.99
X126.075Y-145.49
X151.765Y-138.915
X151.765Y-145.415
X156.265Y-138.915
X156.265Y-145.415
X161.98Y-138.915
X161.98Y-145.415
X166.48Y-138.915
X166.48Y-145.415
T0
M30
