0
SECTION
2
HEADER
9
$INSUNITS
70
4
9
$ACADVER
1
AC1014
9
$HANDSEED
5
FFFF
0
ENDSEC
0
SECTION
2
TABLES
0
TABLE
2
VPORT
5
8
100
AcDbSymbolTable
0
ENDTAB
0
TABLE
2
LTYPE
5
5
100
AcDbSymbolTable
0
LTYPE
5
14
100
AcDbSymbolTableRecord
100
AcDbLinetypeTableRecord
2
BYBLOCK
70
0
0
LTYPE
5
15
100
AcDbSymbolTableRecord
100
AcDbLinetypeTableRecord
2
BYLAYER
70
0
0
ENDTAB
0
TABLE
2
LAYER
5
2
100
AcDbSymbolTable
70
2
0
LAYER
5
50
100
AcDbSymbolTableRecord
100
AcDbLayerTableRecord
2
0
70
0
6
CONTINUOUS
0
ENDTAB
0
TABLE
2
STYLE
5
3
100
AcDbSymbolTable
70
1
0
STYLE
5
11
100
AcDbSymbolTableRecord
100
AcDbTextStyleTableRecord
2
STANDARD
70
0
0
ENDTAB
0
TABLE
2
VIEW
5
6
100
AcDbSymbolTable
70
0
0
ENDTAB
0
TABLE
2
UCS
5
7
100
AcDbSymbolTable
70
0
0
ENDTAB
0
TABLE
2
APPID
5
9
100
AcDbSymbolTable
70
2
0
APPID
5
12
100
AcDbSymbolTableRecord
100
AcDbRegAppTableRecord
2
ACAD
70
0
0
ENDTAB
0
TABLE
2
DIMSTYLE
5
A
100
AcDbSymbolTable
70
1
0
ENDTAB
0
TABLE
2
BLOCK_RECORD
5
1
100
AcDbSymbolTable
70
1
0
BLOCK_RECORD
5
1F
100
AcDbSymbolTableRecord
100
AcDbBlockTableRecord
2
*MODEL_SPACE
0
BLOCK_RECORD
5
1B
100
AcDbSymbolTableRecord
100
AcDbBlockTableRecord
2
*PAPER_SPACE
0
ENDTAB
0
ENDSEC
0
SECTION
2
BLOCKS
0
BLOCK
5
20
100
AcDbEntity
100
AcDbBlockBegin
2
*MODEL_SPACE
0
ENDBLK
5
21
100
AcDbEntity
100
AcDbBlockEnd
0
BLOCK
5
1C
100
AcDbEntity
100
AcDbBlockBegin
2
*PAPER_SPACE
0
ENDBLK
5
1D
100
AcDbEntity
100
AcDbBlockEnd
0
ENDSEC
0
SECTION
2
ENTITIES
0
LWPOLYLINE
5
100
100
AcDbEntity
8
0
100
AcDbPolyline
90
8
70
1
43
0.0
10
21.600000000000005
20
-12.200000000000003
42
0.41421356237309465
10
24.100000000000005
20
-9.7000000000000046
10
24.100000000000005
20
9.6999999999999993
42
0.41421356237309515
10
21.600000000000005
20
12.200000000000003
10
-21.599999999999998
20
12.200000000000003
42
0.41421356237309603
10
-24.100000000000005
20
9.7000000000000011
10
-24.100000000000005
20
-9.6999999999999993
42
0.41421356237309581
10
-21.600000000000001
20
-12.200000000000003
0
LWPOLYLINE
5
101
100
AcDbEntity
8
0
100
AcDbPolyline
90
12
70
1
43
0.0
10
13.001453170561232
20
-2.615466755079189
10
10.36429526069025
20
-0.44048741861694385
10
10.36429526069025
20
0.39999999105930328
10
17.600000000000009
20
0.39999999105930328
10
17.600000000000009
20
-0.44048741861694385
10
12.500000186264515
20
-0.44048741861694385
10
14.763769110430189
20
-2.615466755079189
10
12.500000186264515
20
-4.7904460915414333
10
17.600000000000009
20
-4.7904460915414333
10
17.600000000000009
20
-5.6309335012176813
10
10.36429526069025
20
-5.6309335012176813
10
10.36429526069025
20
-4.7904460915414333
0
LWPOLYLINE
5
102
100
AcDbEntity
8
0
100
AcDbPolyline
90
4
70
1
43
0.0
10
3.2000000372529058
20
6.200000000000002
10
3.2000000372529036
20
-6.1999999999999975
10
-20.200000000000003
20
-6.2000000000000002
10
-20.200000000000003
20
6.2000000000000002
0
LWPOLYLINE
5
103
100
AcDbEntity
8
0
100
AcDbPolyline
90
12
70
1
43
0.0
10
17.600000000000009
20
3.5999999195337287
10
17.600000000000009
20
1.2999999709427357
10
16.699999626725912
20
1.2999999709427357
10
16.699999626725912
20
3.5999999195337287
42
0.99999999999999989
10
13.899999689310789
20
3.5999999195337296
10
13.899999689310789
20
1.2999999709427357
10
10.29999976977706
20
1.2999999709427357
10
10.29999976977706
20
5.8999998681247225
10
11.199999749660492
20
5.8999998681247225
10
11.199999749660492
20
2.1999999508261681
10
12.999999709427357
20
2.1999999508261681
10
12.999999316036694
20
3.5999999195337304
42
-0.99999999999999989
0
LWPOLYLINE
5
104
100
AcDbEntity
8
0
100
AcDbPolyline
90
20
70
1
43
0.0
10
13.226907675604561
20
6.9999998956918716
42
0.47519098501101581
10
16.17309166725423
20
6.9999998956918734
10
17.600000000000009
20
6.9999998956918743
10
17.600000000000009
20
7.4999998323619357
10
16.466351809007477
20
7.4999998419344527
42
1.4719601224376504
10
12.933647522029727
20
7.4999998717645777
10
10.100000000000007
20
7.4999998956918734
42
0.41421356237309509
10
8.1000000000000068
20
5.4999998956918725
10
8.1000000000000068
20
-5.5000001043081284
42
0.41421356237309509
10
10.100000000000007
20
-7.5000001043081275
10
12.93364742491001
20
-7.5000000015615109
42
1.4719600361056677
10
16.466351867185498
20
-7.4999998734674422
10
17.600000000000009
20
-7.4999998323619366
10
17.600000000000009
20
-7.0000001043081284
10
16.173091891971513
20
-7.0000001043081284
42
0.47519108296885976
10
13.22690745088728
20
-7.0000001043081284
10
10.100000000000007
20
-7.0000001043081284
42
-0.41421356237309509
10
8.6000000000000068
20
-5.5000001043081284
10
8.600000000000005
20
5.4999998956918725
42
-0.41421356237309509
10
10.100000000000007
20
6.9999998956918743
0
ENDSEC
0
SECTION
2
OBJECTS
0
DICTIONARY
5
C
100
AcDbDictionary
3
ACAD_GROUP
350
D
3
ACAD_MLINESTYLE
350
17
0
DICTIONARY
5
D
100
AcDbDictionary
0
DICTIONARY
5
1A
330
C
100
AcDbDictionary
0
DICTIONARY
5
17
100
AcDbDictionary
0
ENDSEC
0
EOF
