0
SECTION
2
HEADER
9
$INSUNITS
70
4
9
$ACADVER
1
AC1014
9
$HANDSEED
5
FFFF
0
ENDSEC
0
SECTION
2
TABLES
0
TABLE
2
VPORT
5
8
100
AcDbSymbolTable
0
ENDTAB
0
TABLE
2
LTYPE
5
5
100
AcDbSymbolTable
0
LTYPE
5
14
100
AcDbSymbolTableRecord
100
AcDbLinetypeTableRecord
2
BYBLOCK
70
0
0
LTYPE
5
15
100
AcDbSymbolTableRecord
100
AcDbLinetypeTableRecord
2
BYLAYER
70
0
0
ENDTAB
0
TABLE
2
LAYER
5
2
100
AcDbSymbolTable
70
2
0
LAYER
5
50
100
AcDbSymbolTableRecord
100
AcDbLayerTableRecord
2
0
70
0
6
CONTINUOUS
0
ENDTAB
0
TABLE
2
STYLE
5
3
100
AcDbSymbolTable
70
1
0
STYLE
5
11
100
AcDbSymbolTableRecord
100
AcDbTextStyleTableRecord
2
STANDARD
70
0
0
ENDTAB
0
TABLE
2
VIEW
5
6
100
AcDbSymbolTable
70
0
0
ENDTAB
0
TABLE
2
UCS
5
7
100
AcDbSymbolTable
70
0
0
ENDTAB
0
TABLE
2
APPID
5
9
100
AcDbSymbolTable
70
2
0
APPID
5
12
100
AcDbSymbolTableRecord
100
AcDbRegAppTableRecord
2
ACAD
70
0
0
ENDTAB
0
TABLE
2
DIMSTYLE
5
A
100
AcDbSymbolTable
70
1
0
ENDTAB
0
TABLE
2
BLOCK_RECORD
5
1
100
AcDbSymbolTable
70
1
0
BLOCK_RECORD
5
1F
100
AcDbSymbolTableRecord
100
AcDbBlockTableRecord
2
*MODEL_SPACE
0
BLOCK_RECORD
5
1B
100
AcDbSymbolTableRecord
100
AcDbBlockTableRecord
2
*PAPER_SPACE
0
ENDTAB
0
ENDSEC
0
SECTION
2
BLOCKS
0
BLOCK
5
20
100
AcDbEntity
100
AcDbBlockBegin
2
*MODEL_SPACE
0
ENDBLK
5
21
100
AcDbEntity
100
AcDbBlockEnd
0
BLOCK
5
1C
100
AcDbEntity
100
AcDbBlockBegin
2
*PAPER_SPACE
0
ENDBLK
5
1D
100
AcDbEntity
100
AcDbBlockEnd
0
ENDSEC
0
SECTION
2
ENTITIES
0
LWPOLYLINE
5
100
100
AcDbEntity
8
0
100
AcDbPolyline
90
11
70
1
43
0.0
10
-187.13157287525382
20
139.065
10
-184.245
20
139.065
42
-0.41421356237309509
10
-182.24500000000003
20
137.06500000000003
10
-182.24500000000003
20
136.62
42
-0.41421356237309509
10
-184.245
20
134.62
10
-185.77013015505773
20
134.62
42
0.19002212061815402
10
-187.13506507752885
20
134.08183195252357
42
-0.65585810347164686
10
-190.5
20
135.54366390504708
10
-190.50000000000006
20
135.69657287525385
42
-0.19891236737965798
10
-189.91421356237311
20
137.11078643762693
10
-188.54578643762693
20
138.4792135623731
42
-0.19891236737965798
0
LWPOLYLINE
5
101
100
AcDbEntity
8
0
100
AcDbPolyline
90
2
70
1
43
0.0
10
-200.02366650581223
20
147.42684931833205
42
1.0012985140522195
10
-199.87108549245625
20
145.23214868178832
42
1.0012985124721685
0
LWPOLYLINE
5
102
100
AcDbEntity
8
0
100
AcDbPolyline
90
8
70
1
43
0.0
10
-199.07300000000004
20
132.08000000000001
10
-199.07200000000003
20
132.08000000000001
42
-0.41421356237309509
10
-197.48500000000004
20
130.49300000000002
10
-197.48500000000004
20
94.296999999999983
42
-0.41421356237309509
10
-199.07200000000003
20
92.709999999999994
10
-199.07300000000004
20
92.710000000000008
42
-0.41421356237309509
10
-200.66000000000003
20
94.296999999999997
10
-200.66000000000003
20
130.49300000000002
42
-0.41421356237309509
0
LWPOLYLINE
5
103
100
AcDbEntity
8
0
100
AcDbPolyline
90
16
70
1
43
0.0
10
-178.24157287525384
20
92.709999999999994
42
0.19891236737965798
10
-179.65578643762694
20
92.124213562373086
10
-181.65921356237311
20
90.12078643762689
42
0.19891236737965962
10
-182.24500000000003
20
88.706572875253769
10
-182.24500000000003
20
87.090000000000003
42
-0.41421356237309509
10
-184.245
20
85.090000000000003
10
-186.59500000000003
20
85.090000000000003
42
-0.41421356237309509
10
-188.595
20
87.090000000000003
10
-188.59500000000003
20
124.2665728752538
42
-0.19891236737965798
10
-188.00921356237311
20
125.68078643762689
10
-186.00578643762688
20
127.68421356237312
42
-0.19891236737965798
10
-184.5915728752538
20
128.27000000000001
10
-176.625
20
128.27000000000001
42
-0.41421356237309509
10
-174.62500000000003
20
126.27000000000002
10
-174.62500000000003
20
94.70999999999998
42
-0.41421356237309509
10
-176.625
20
92.709999999999994
0
LWPOLYLINE
5
104
100
AcDbEntity
8
0
100
AcDbPolyline
90
2
70
1
43
0.0
10
-158.35470345382851
20
147.42930709096535
42
1.0050133772355889
10
-158.39429654510982
20
145.22969090901555
42
1.0050133762654152
0
LWPOLYLINE
5
105
100
AcDbEntity
8
0
100
AcDbPolyline
90
2
70
1
43
0.0
10
-181.35838149908
20
69.679997422021245
42
1.0021673495328585
10
-181.35838149908
20
67.480002577978766
42
1.0021673478564934
0
LWPOLYLINE
5
106
100
AcDbEntity
8
0
100
AcDbPolyline
90
2
70
1
43
0.0
10
-140.0072657266395
20
45.973082312430975
42
1.0106308803617028
10
-140.98835627312835
20
44.004092687453436
42
1.0106308801234185
0
LWPOLYLINE
5
107
100
AcDbEntity
8
0
100
AcDbPolyline
90
123
70
1
43
0.0
10
-118.07279127733706
20
86.895851535766042
42
0.35871560142277847
10
-120.03561016824116
20
88.512000000000029
10
-122.00000187754632
20
88.512000000000029
42
-0.41421356237309509
10
-124.00000187754631
20
90.512000000000015
10
-124.0000018775463
20
102.02141801791296
42
-0.20709059298267973
10
-123.52682023582679
20
103.11487311945952
42
0.30703787830729823
10
-123.15776059296489
20
104.75744078317051
10
-123.695654
20
106.124799
10
-124.472318
20
107.987841
10
-125.28642600000001
20
109.83482600000002
10
-126.13764600000002
20
111.66500400000001
10
-127.02563300000001
20
113.47762899999999
10
-127.95002400000001
20
115.271962
10
-128.91044199999999
20
117.04727200000001
10
-129.906497
20
118.802836
10
-130.937782
20
120.53793800000001
10
-132.00387699999999
20
122.25187200000001
10
-133.10434799999999
20
123.94394
10
-134.23874699999999
20
125.613451
10
-135.406611
20
127.259726
10
-136.60746499999999
20
128.88209499999999
10
-137.84081900000001
20
130.479895
10
-139.10617099999999
20
132.05247700000001
10
-140.40300500000001
20
133.599199
10
-141.730794
20
135.11943199999999
10
-143.08899500000001
20
136.61255499999999
10
-144.477056
20
138.07796099999999
10
-145.89441099999999
20
139.51505300000002
10
-147.34048300000001
20
140.92324500000001
10
-148.814683
20
142.301963
10
-150.31640899999999
20
143.65064699999999
10
-151.84505100000001
20
144.96874500000001
10
-153.39998500000002
20
146.25572099999999
10
-154.98057800000001
20
147.51105200000001
10
-156.586186
20
148.73422500000001
10
-156.85278700000001
20
148.91177099999999
10
-157.136798
20
149.05988199999999
10
-157.43498199999999
20
149.17686699999999
10
-157.74393800000001
20
149.261394
10
-158.060146
20
149.31249800000001
10
-158.38
20
149.329598
10
-199.94595200000003
20
149.329598
10
-200.28184400000001
20
149.31069400000001
10
-200.61351200000001
20
149.254346
10
-200.93678600000004
20
149.16121699999999
10
-201.24760000000003
20
149.032478
10
-201.54204500000003
20
148.86974799999999
10
-201.81641900000002
20
148.675073
10
-202.06727000000001
20
148.45090300000004
10
-202.29144500000004
20
148.20005500000002
10
-202.48612399999999
20
147.92568399999999
10
-202.64885800000002
20
147.63124099999999
10
-202.77760200000003
20
147.32042999999999
10
-202.87073599999999
20
146.99715699999999
10
-202.92708900000002
20
146.66549000000001
10
-202.94595200000003
20
146.32959800000003
10
-202.94595200000003
20
79.310164000000015
10
-202.92566800000003
20
78.961886000000007
10
-202.86508499999999
20
78.618318000000016
10
-202.76502600000001
20
78.284105999999994
10
-202.62684500000003
20
77.963769999999997
10
-202.45241100000001
20
77.661641000000003
10
-202.24408100000002
20
77.381805
10
-202.00467400000002
20
77.128046999999995
10
-201.737426
20
76.903796999999997
10
-201.44595200000001
20
76.712087999999994
10
-142.00822199999999
20
42.39569800000001
10
-141.707864
20
42.244160999999998
10
-141.392459
20
42.127133999999998
10
-141.06593400000003
20
42.046156000000003
10
-140.73239599999999
20
42.002246
10
-140.396039
20
41.995953999999998
10
-140.061093
20
42.027360999999999
10
-139.73176799999999
20
42.096071000000002
10
-139.412207
20
42.201219999999999
10
-139.10642799999999
20
42.341487000000001
10
-138.81827600000003
20
42.515107
10
-138.55137400000001
20
42.719897000000003
10
-138.309078
20
42.953282000000002
10
-138.09443600000003
20
43.212327000000002
10
-137.910146
20
43.493774999999999
10
-131.547541
20
54.514129000000004
10
-131.27898099999999
20
54.941538000000001
10
-130.97922800000001
20
55.347679999999997
10
-130.64996400000001
20
55.730287000000004
10
-130.29302799999999
20
56.087218000000007
10
-129.910417
20
56.41647900000001
10
-129.50427200000001
20
56.716225999999999
10
-129.07686100000001
20
56.984785000000002
10
-128.63057800000001
20
57.220653000000006
10
-128.16791499999999
20
57.422511000000007
10
-127.69146200000002
20
57.589231000000005
10
-127.20388300000002
20
57.719881000000008
10
-126.707903
20
57.813727999999998
10
-126.20629700000002
20
57.870249999999999
10
-125.70187000000001
20
57.889128999999997
10
-119.68537499999999
20
57.889128999999997
10
-119.34195500000001
20
57.90889
10
-119.00305000000002
20
57.967787000000008
10
-118.673114
20
58.065093000000005
10
-118.356487
20
58.199529000000005
10
-118.057332
20
58.369326999999998
10
-117.77958
20
58.572256000000003
10
-117.52688499999999
20
58.805646000000003
10
-117.30256900000001
20
59.066429000000007
10
-117.10958100000001
20
59.351177
10
-116.95045800000001
20
59.656146000000007
10
-116.827293
20
59.977325000000008
10
-116.74170599999999
20
60.310492000000011
10
-116.69482000000002
20
60.651267000000004
10
-116.55509700000002
20
62.664872000000003
10
-116.45604400000002
20
64.68088800000001
10
-116.39770200000001
20
66.698491000000004
10
-116.38009400000001
20
68.716862000000006
10
-116.403227
20
70.735175999999996
10
-116.46709200000001
20
72.752612999999997
10
-116.571662
20
74.768349000000001
10
-116.71689600000001
20
76.781565000000001
10
-116.90273400000001
20
78.791437999999999
10
-117.12910000000001
20
80.797152000000011
10
-117.39590200000002
20
82.797888
10
-117.70303200000001
20
84.792832000000004
10
-118.050364
20
86.781170000000003
0
CIRCLE
5
108
100
AcDbEntity
8
0
100
AcDbCircle
10
-199.92339999999999
20
137.0838
30
0
40
1.6000000000000003
210
0
220
0
230
1
0
CIRCLE
5
109
100
AcDbEntity
8
0
100
AcDbCircle
10
-176.88560000000001
20
137.0838
30
0
40
1.6000000000000003
210
0
220
0
230
1
0
CIRCLE
5
110
100
AcDbEntity
8
0
100
AcDbCircle
10
-133.858
20
104.19080000000001
30
0
40
1.1000000000000001
210
0
220
0
230
1
0
CIRCLE
5
111
100
AcDbEntity
8
0
100
AcDbCircle
10
-199.87260000000003
20
87.477599999999995
30
0
40
1.6000000000000003
210
0
220
0
230
1
0
CIRCLE
5
112
100
AcDbEntity
8
0
100
AcDbCircle
10
-176.88560000000001
20
87.477599999999995
30
0
40
1.6000000000000003
210
0
220
0
230
1
0
CIRCLE
5
113
100
AcDbEntity
8
0
100
AcDbCircle
10
-133.858
20
87.833200000000019
30
0
40
1.1000000000000001
210
0
220
0
230
1
0
CIRCLE
5
114
100
AcDbEntity
8
0
100
AcDbCircle
10
-119.38000000000001
20
68.580000000000013
30
0
40
1.1000000000000001
210
0
220
0
230
1
0
ENDSEC
0
SECTION
2
OBJECTS
0
DICTIONARY
5
C
100
AcDbDictionary
3
ACAD_GROUP
350
D
3
ACAD_MLINESTYLE
350
17
0
DICTIONARY
5
D
100
AcDbDictionary
0
DICTIONARY
5
1A
330
C
100
AcDbDictionary
0
DICTIONARY
5
17
100
AcDbDictionary
0
ENDSEC
0
EOF
