%TF.GenerationSoftware,KiCad,Pcbnew,7.0.9*%
%TF.CreationDate,2024-03-01T15:43:30+09:00*%
%TF.ProjectId,MainBoard,4d61696e-426f-4617-9264-2e6b69636164,rev?*%
%TF.SameCoordinates,Original*%
%TF.FileFunction,Legend,Top*%
%TF.FilePolarity,Positive*%
%FSLAX46Y46*%
G04 Gerber Fmt 4.6, Leading zero omitted, Abs format (unit mm)*
G04 Created by KiCad (PCBNEW 7.0.9) date 2024-03-01 15:43:30*
%MOMM*%
%LPD*%
G01*
G04 APERTURE LIST*
%ADD10C,0.200000*%
%ADD11C,0.150000*%
%ADD12C,0.100000*%
%ADD13C,0.180000*%
%ADD14C,0.120000*%
%ADD15C,0.400000*%
G04 APERTURE END LIST*
D10*
X130959999Y-99609200D02*
G75*
G03*
X135560001Y-99609200I2300001J0D01*
G01*
X138460000Y-103009200D02*
G75*
G03*
X139960000Y-101509200I0J1500000D01*
G01*
X135333093Y-89009200D02*
X138460000Y-89009200D01*
D11*
X138195705Y-91218754D02*
X135558547Y-93393733D01*
X138195705Y-95568713D01*
X138195705Y-96409200D01*
X130960000Y-96409200D01*
X130960000Y-95568713D01*
X136060000Y-95568713D01*
X133796231Y-93393733D01*
X136060000Y-91218754D01*
X130960000Y-91218754D01*
X130960000Y-90378266D01*
X138195705Y-90378266D01*
X138195705Y-91218754D01*
G36*
X138195705Y-91218754D02*
G01*
X135558547Y-93393733D01*
X138195705Y-95568713D01*
X138195705Y-96409200D01*
X130960000Y-96409200D01*
X130960000Y-95568713D01*
X136060000Y-95568713D01*
X133796231Y-93393733D01*
X136060000Y-91218754D01*
X130960000Y-91218754D01*
X130960000Y-90378266D01*
X138195705Y-90378266D01*
X138195705Y-91218754D01*
G37*
D10*
X168760000Y-89809200D02*
X168760000Y-102209200D01*
X132386908Y-103009200D02*
X130960000Y-103009200D01*
X130960000Y-89009200D02*
X132386908Y-89009200D01*
X170160000Y-108209200D02*
G75*
G03*
X172660000Y-105709200I0J2500000D01*
G01*
X140460000Y-101509200D02*
X140460000Y-90509200D01*
X130960000Y-90378266D02*
X138195705Y-90378266D01*
X130960000Y-97309200D02*
X131860000Y-97309200D01*
X138460000Y-103509200D02*
G75*
G03*
X140460000Y-101509200I0J2000000D01*
G01*
X130960000Y-95568713D02*
X136060000Y-95568713D01*
X138260000Y-97309200D02*
X138260000Y-101909200D01*
X130960000Y-91218754D02*
X130960000Y-90378266D01*
X135558547Y-93393733D02*
X138195705Y-95568713D01*
X138195705Y-91218754D02*
X135558547Y-93393733D01*
X124460000Y-86309200D02*
X124460000Y-105709200D01*
X132093648Y-88509200D02*
X130960000Y-88509200D01*
X135626353Y-88509200D02*
G75*
G03*
X132093649Y-88509200I-1766352J700000D01*
G01*
X135626352Y-103509200D02*
X138460000Y-103509200D01*
X139960000Y-90509200D02*
X139960000Y-101509200D01*
X130960000Y-103509200D02*
X132093648Y-103509200D01*
X126960000Y-83809200D02*
G75*
G03*
X124460000Y-86309200I0J-2500000D01*
G01*
X168760000Y-102209200D02*
X145360000Y-102209200D01*
D12*
X162725800Y-62887400D02*
X162763200Y-71094600D01*
X161492000Y-71102000D01*
X161492000Y-64162000D01*
X154992000Y-64162000D01*
X154992000Y-82142000D01*
X161492000Y-82142000D01*
X161492000Y-75202000D01*
X162802000Y-75202000D01*
X162802000Y-83442000D01*
X153682000Y-83442000D01*
X153682000Y-62862000D01*
X162725800Y-62887400D01*
G36*
X162725800Y-62887400D02*
G01*
X162763200Y-71094600D01*
X161492000Y-71102000D01*
X161492000Y-64162000D01*
X154992000Y-64162000D01*
X154992000Y-82142000D01*
X161492000Y-82142000D01*
X161492000Y-75202000D01*
X162802000Y-75202000D01*
X162802000Y-83442000D01*
X153682000Y-83442000D01*
X153682000Y-62862000D01*
X162725800Y-62887400D01*
G37*
D10*
X136060000Y-95568713D02*
X133796231Y-93393733D01*
X135333092Y-103009200D02*
G75*
G03*
X132386908Y-103009200I-1473092J-1200000D01*
G01*
X132093649Y-103509200D02*
G75*
G03*
X135626351Y-103509200I1766351J-700000D01*
G01*
X134660000Y-99609200D02*
X134660000Y-97309200D01*
X140460000Y-90509200D02*
G75*
G03*
X138460000Y-88509200I-2000000J0D01*
G01*
X130960000Y-88509200D02*
X130960000Y-89009200D01*
X130960000Y-96409200D02*
X130960000Y-95568713D01*
X133796231Y-93393733D02*
X136060000Y-91218754D01*
X124460000Y-105709200D02*
G75*
G03*
X126960000Y-108209200I2500000J0D01*
G01*
X131860000Y-97309200D02*
X131860000Y-99609200D01*
X138460000Y-88509200D02*
X135626353Y-88509200D01*
X137360000Y-101909200D02*
X137360000Y-98209200D01*
X138460000Y-103009200D02*
X135333092Y-103009200D01*
X136060000Y-91218754D02*
X130960000Y-91218754D01*
D11*
X131860000Y-99609200D02*
X132003800Y-100380800D01*
X132410200Y-100838000D01*
X133260000Y-101009200D01*
X134061200Y-100812600D01*
X134518400Y-100330000D01*
X134660000Y-99609200D01*
X134660000Y-97309200D01*
X138260000Y-97309200D01*
X138260000Y-101909200D01*
X137360000Y-101909200D01*
X137360000Y-98209200D01*
X135560000Y-98209200D01*
X135560001Y-99609200D01*
X135331200Y-100609400D01*
X134823200Y-101244400D01*
X134137400Y-101701600D01*
X133260000Y-101909201D01*
X132384800Y-101701600D01*
X131699000Y-101269800D01*
X131191000Y-100533200D01*
X130960000Y-99609200D01*
X130960000Y-97309200D01*
X131860000Y-97309200D01*
X131860000Y-99609200D01*
G36*
X131860000Y-99609200D02*
G01*
X132003800Y-100380800D01*
X132410200Y-100838000D01*
X133260000Y-101009200D01*
X134061200Y-100812600D01*
X134518400Y-100330000D01*
X134660000Y-99609200D01*
X134660000Y-97309200D01*
X138260000Y-97309200D01*
X138260000Y-101909200D01*
X137360000Y-101909200D01*
X137360000Y-98209200D01*
X135560000Y-98209200D01*
X135560001Y-99609200D01*
X135331200Y-100609400D01*
X134823200Y-101244400D01*
X134137400Y-101701600D01*
X133260000Y-101909201D01*
X132384800Y-101701600D01*
X131699000Y-101269800D01*
X131191000Y-100533200D01*
X130960000Y-99609200D01*
X130960000Y-97309200D01*
X131860000Y-97309200D01*
X131860000Y-99609200D01*
G37*
D10*
X138260000Y-101909200D02*
X137360000Y-101909200D01*
X139960000Y-90509200D02*
G75*
G03*
X138460000Y-89009200I-1500000J0D01*
G01*
X130960000Y-103009200D02*
X130960000Y-103509200D01*
X138195705Y-90378266D02*
X138195705Y-91218754D01*
X131860000Y-99609200D02*
G75*
G03*
X134660000Y-99609200I1400000J0D01*
G01*
X137360000Y-98209200D02*
X135560000Y-98209200D01*
X172660000Y-105709200D02*
X172660000Y-86309200D01*
X126960000Y-108209200D02*
X170160000Y-108209200D01*
X130960000Y-99609200D02*
X130960000Y-97309200D01*
X132386909Y-89009199D02*
G75*
G03*
X135333093Y-89009200I1473092J1200000D01*
G01*
X134660000Y-97309200D02*
X138260000Y-97309200D01*
X170160000Y-83809200D02*
X126960000Y-83809200D01*
X138195705Y-95568713D02*
X138195705Y-96409200D01*
X138195705Y-96409200D02*
X130960000Y-96409200D01*
X145360000Y-89809200D02*
X168760000Y-89809200D01*
X145360000Y-102209200D02*
X145360000Y-89809200D01*
X135560000Y-98209200D02*
X135560001Y-99609200D01*
X172660000Y-86309200D02*
G75*
G03*
X170160000Y-83809200I-2500000J0D01*
G01*
X198691714Y-78902266D02*
X199453619Y-78902266D01*
X199072666Y-79283219D02*
X199072666Y-78521314D01*
X200453618Y-79283219D02*
X199882190Y-79283219D01*
X200167904Y-79283219D02*
X200167904Y-78283219D01*
X200167904Y-78283219D02*
X200072666Y-78426076D01*
X200072666Y-78426076D02*
X199977428Y-78521314D01*
X199977428Y-78521314D02*
X199882190Y-78568933D01*
X200834571Y-78378457D02*
X200882190Y-78330838D01*
X200882190Y-78330838D02*
X200977428Y-78283219D01*
X200977428Y-78283219D02*
X201215523Y-78283219D01*
X201215523Y-78283219D02*
X201310761Y-78330838D01*
X201310761Y-78330838D02*
X201358380Y-78378457D01*
X201358380Y-78378457D02*
X201405999Y-78473695D01*
X201405999Y-78473695D02*
X201405999Y-78568933D01*
X201405999Y-78568933D02*
X201358380Y-78711790D01*
X201358380Y-78711790D02*
X200786952Y-79283219D01*
X200786952Y-79283219D02*
X201405999Y-79283219D01*
X201739333Y-78616552D02*
X201977428Y-79283219D01*
X201977428Y-79283219D02*
X202215523Y-78616552D01*
X199286952Y-80369409D02*
X199429809Y-80417028D01*
X199429809Y-80417028D02*
X199477428Y-80464647D01*
X199477428Y-80464647D02*
X199525047Y-80559885D01*
X199525047Y-80559885D02*
X199525047Y-80702742D01*
X199525047Y-80702742D02*
X199477428Y-80797980D01*
X199477428Y-80797980D02*
X199429809Y-80845600D01*
X199429809Y-80845600D02*
X199334571Y-80893219D01*
X199334571Y-80893219D02*
X198953619Y-80893219D01*
X198953619Y-80893219D02*
X198953619Y-79893219D01*
X198953619Y-79893219D02*
X199286952Y-79893219D01*
X199286952Y-79893219D02*
X199382190Y-79940838D01*
X199382190Y-79940838D02*
X199429809Y-79988457D01*
X199429809Y-79988457D02*
X199477428Y-80083695D01*
X199477428Y-80083695D02*
X199477428Y-80178933D01*
X199477428Y-80178933D02*
X199429809Y-80274171D01*
X199429809Y-80274171D02*
X199382190Y-80321790D01*
X199382190Y-80321790D02*
X199286952Y-80369409D01*
X199286952Y-80369409D02*
X198953619Y-80369409D01*
X199906000Y-80607504D02*
X200382190Y-80607504D01*
X199810762Y-80893219D02*
X200144095Y-79893219D01*
X200144095Y-79893219D02*
X200477428Y-80893219D01*
X200667905Y-79893219D02*
X201239333Y-79893219D01*
X200953619Y-80893219D02*
X200953619Y-79893219D01*
X201429810Y-79893219D02*
X202001238Y-79893219D01*
X201715524Y-80893219D02*
X201715524Y-79893219D01*
D11*
X175771398Y-143125914D02*
X175771398Y-143887819D01*
X175819017Y-143173533D02*
X175819017Y-143840200D01*
X175866636Y-143173533D02*
X175866636Y-143840200D01*
X175914255Y-143221152D02*
X175914255Y-143792580D01*
X175961874Y-143221152D02*
X175961874Y-143792580D01*
X176009493Y-143268771D02*
X176009493Y-143744961D01*
X176057112Y-143268771D02*
X176057112Y-143744961D01*
X176104731Y-143316390D02*
X176104731Y-143697342D01*
X176152350Y-143364009D02*
X176152350Y-143649723D01*
X176199969Y-143364009D02*
X176199969Y-143649723D01*
X176247588Y-143411628D02*
X176247588Y-143602104D01*
X176295207Y-143411628D02*
X176295207Y-143602104D01*
X176342826Y-143506866D02*
X176390445Y-143506866D01*
X176342826Y-143459247D02*
X176342826Y-143554485D01*
X175723779Y-143125914D02*
X176438064Y-143506866D01*
X176438064Y-143506866D02*
X175723779Y-143887819D01*
X176485684Y-143506866D02*
X175723779Y-143935438D01*
X175723779Y-143935438D02*
X175723779Y-143078295D01*
X175723779Y-143078295D02*
X176485684Y-143506866D01*
X197837201Y-80089285D02*
X197837201Y-79327380D01*
X197789582Y-80041666D02*
X197789582Y-79375000D01*
X197741963Y-80041666D02*
X197741963Y-79375000D01*
X197694344Y-79994047D02*
X197694344Y-79422619D01*
X197646725Y-79994047D02*
X197646725Y-79422619D01*
X197599106Y-79946428D02*
X197599106Y-79470238D01*
X197551487Y-79946428D02*
X197551487Y-79470238D01*
X197503868Y-79898809D02*
X197503868Y-79517857D01*
X197456249Y-79851190D02*
X197456249Y-79565476D01*
X197408630Y-79851190D02*
X197408630Y-79565476D01*
X197361011Y-79803571D02*
X197361011Y-79613095D01*
X197313392Y-79803571D02*
X197313392Y-79613095D01*
X197265773Y-79708333D02*
X197218154Y-79708333D01*
X197265773Y-79755952D02*
X197265773Y-79660714D01*
X197884820Y-80089285D02*
X197170535Y-79708333D01*
X197170535Y-79708333D02*
X197884820Y-79327380D01*
X197122916Y-79708333D02*
X197884820Y-79279761D01*
X197884820Y-79279761D02*
X197884820Y-80136904D01*
X197884820Y-80136904D02*
X197122916Y-79708333D01*
D10*
X174746266Y-144918326D02*
X174746266Y-144156422D01*
X175127219Y-144537374D02*
X174365314Y-144537374D01*
X175127219Y-143156422D02*
X175127219Y-143727850D01*
X175127219Y-143442136D02*
X174127219Y-143442136D01*
X174127219Y-143442136D02*
X174270076Y-143537374D01*
X174270076Y-143537374D02*
X174365314Y-143632612D01*
X174365314Y-143632612D02*
X174412933Y-143727850D01*
X174222457Y-142775469D02*
X174174838Y-142727850D01*
X174174838Y-142727850D02*
X174127219Y-142632612D01*
X174127219Y-142632612D02*
X174127219Y-142394517D01*
X174127219Y-142394517D02*
X174174838Y-142299279D01*
X174174838Y-142299279D02*
X174222457Y-142251660D01*
X174222457Y-142251660D02*
X174317695Y-142204041D01*
X174317695Y-142204041D02*
X174412933Y-142204041D01*
X174412933Y-142204041D02*
X174555790Y-142251660D01*
X174555790Y-142251660D02*
X175127219Y-142823088D01*
X175127219Y-142823088D02*
X175127219Y-142204041D01*
X169489695Y-65989236D02*
X169132552Y-66607825D01*
X169132552Y-66607825D02*
X169019884Y-66707734D01*
X169019884Y-66707734D02*
X168889787Y-66742593D01*
X168889787Y-66742593D02*
X168742259Y-66712404D01*
X168742259Y-66712404D02*
X168659781Y-66664785D01*
X169855721Y-67355261D02*
X169360849Y-67069547D01*
X169608285Y-67212404D02*
X170108285Y-66346379D01*
X170108285Y-66346379D02*
X169954378Y-66422477D01*
X169954378Y-66422477D02*
X169824280Y-66457337D01*
X169824280Y-66457337D02*
X169717992Y-66450957D01*
X170644396Y-66655902D02*
X171221746Y-66989236D01*
X171221746Y-66989236D02*
X170350592Y-67640975D01*
D11*
X128865333Y-74663219D02*
X128532000Y-74187028D01*
X128293905Y-74663219D02*
X128293905Y-73663219D01*
X128293905Y-73663219D02*
X128674857Y-73663219D01*
X128674857Y-73663219D02*
X128770095Y-73710838D01*
X128770095Y-73710838D02*
X128817714Y-73758457D01*
X128817714Y-73758457D02*
X128865333Y-73853695D01*
X128865333Y-73853695D02*
X128865333Y-73996552D01*
X128865333Y-73996552D02*
X128817714Y-74091790D01*
X128817714Y-74091790D02*
X128770095Y-74139409D01*
X128770095Y-74139409D02*
X128674857Y-74187028D01*
X128674857Y-74187028D02*
X128293905Y-74187028D01*
X129198667Y-73663219D02*
X129817714Y-73663219D01*
X129817714Y-73663219D02*
X129484381Y-74044171D01*
X129484381Y-74044171D02*
X129627238Y-74044171D01*
X129627238Y-74044171D02*
X129722476Y-74091790D01*
X129722476Y-74091790D02*
X129770095Y-74139409D01*
X129770095Y-74139409D02*
X129817714Y-74234647D01*
X129817714Y-74234647D02*
X129817714Y-74472742D01*
X129817714Y-74472742D02*
X129770095Y-74567980D01*
X129770095Y-74567980D02*
X129722476Y-74615600D01*
X129722476Y-74615600D02*
X129627238Y-74663219D01*
X129627238Y-74663219D02*
X129341524Y-74663219D01*
X129341524Y-74663219D02*
X129246286Y-74615600D01*
X129246286Y-74615600D02*
X129198667Y-74567980D01*
D12*
X164171333Y-140411419D02*
X163838000Y-139935228D01*
X163599905Y-140411419D02*
X163599905Y-139411419D01*
X163599905Y-139411419D02*
X163980857Y-139411419D01*
X163980857Y-139411419D02*
X164076095Y-139459038D01*
X164076095Y-139459038D02*
X164123714Y-139506657D01*
X164123714Y-139506657D02*
X164171333Y-139601895D01*
X164171333Y-139601895D02*
X164171333Y-139744752D01*
X164171333Y-139744752D02*
X164123714Y-139839990D01*
X164123714Y-139839990D02*
X164076095Y-139887609D01*
X164076095Y-139887609D02*
X163980857Y-139935228D01*
X163980857Y-139935228D02*
X163599905Y-139935228D01*
X165028476Y-139744752D02*
X165028476Y-140411419D01*
X164790381Y-139363800D02*
X164552286Y-140078085D01*
X164552286Y-140078085D02*
X165171333Y-140078085D01*
D13*
X120977568Y-76477141D02*
X120977568Y-75619999D01*
X122477568Y-76048570D02*
X120977568Y-76048570D01*
X122406140Y-74548570D02*
X122477568Y-74691427D01*
X122477568Y-74691427D02*
X122477568Y-74977142D01*
X122477568Y-74977142D02*
X122406140Y-75119999D01*
X122406140Y-75119999D02*
X122263282Y-75191427D01*
X122263282Y-75191427D02*
X121691854Y-75191427D01*
X121691854Y-75191427D02*
X121548997Y-75119999D01*
X121548997Y-75119999D02*
X121477568Y-74977142D01*
X121477568Y-74977142D02*
X121477568Y-74691427D01*
X121477568Y-74691427D02*
X121548997Y-74548570D01*
X121548997Y-74548570D02*
X121691854Y-74477142D01*
X121691854Y-74477142D02*
X121834711Y-74477142D01*
X121834711Y-74477142D02*
X121977568Y-75191427D01*
X122406140Y-73262856D02*
X122477568Y-73405713D01*
X122477568Y-73405713D02*
X122477568Y-73691428D01*
X122477568Y-73691428D02*
X122406140Y-73834285D01*
X122406140Y-73834285D02*
X122263282Y-73905713D01*
X122263282Y-73905713D02*
X121691854Y-73905713D01*
X121691854Y-73905713D02*
X121548997Y-73834285D01*
X121548997Y-73834285D02*
X121477568Y-73691428D01*
X121477568Y-73691428D02*
X121477568Y-73405713D01*
X121477568Y-73405713D02*
X121548997Y-73262856D01*
X121548997Y-73262856D02*
X121691854Y-73191428D01*
X121691854Y-73191428D02*
X121834711Y-73191428D01*
X121834711Y-73191428D02*
X121977568Y-73905713D01*
X121477568Y-72548571D02*
X122477568Y-72548571D01*
X121620425Y-72548571D02*
X121548997Y-72477142D01*
X121548997Y-72477142D02*
X121477568Y-72334285D01*
X121477568Y-72334285D02*
X121477568Y-72119999D01*
X121477568Y-72119999D02*
X121548997Y-71977142D01*
X121548997Y-71977142D02*
X121691854Y-71905714D01*
X121691854Y-71905714D02*
X122477568Y-71905714D01*
X122406140Y-71262856D02*
X122477568Y-71119999D01*
X122477568Y-71119999D02*
X122477568Y-70834285D01*
X122477568Y-70834285D02*
X122406140Y-70691428D01*
X122406140Y-70691428D02*
X122263282Y-70619999D01*
X122263282Y-70619999D02*
X122191854Y-70619999D01*
X122191854Y-70619999D02*
X122048997Y-70691428D01*
X122048997Y-70691428D02*
X121977568Y-70834285D01*
X121977568Y-70834285D02*
X121977568Y-71048571D01*
X121977568Y-71048571D02*
X121906140Y-71191428D01*
X121906140Y-71191428D02*
X121763282Y-71262856D01*
X121763282Y-71262856D02*
X121691854Y-71262856D01*
X121691854Y-71262856D02*
X121548997Y-71191428D01*
X121548997Y-71191428D02*
X121477568Y-71048571D01*
X121477568Y-71048571D02*
X121477568Y-70834285D01*
X121477568Y-70834285D02*
X121548997Y-70691428D01*
X121477568Y-70119999D02*
X122477568Y-69762856D01*
X121477568Y-69405713D02*
X122477568Y-69762856D01*
X122477568Y-69762856D02*
X122834711Y-69905713D01*
X122834711Y-69905713D02*
X122906140Y-69977142D01*
X122906140Y-69977142D02*
X122977568Y-70119999D01*
X121477568Y-68191428D02*
X122477568Y-68191428D01*
X120906140Y-68548570D02*
X121977568Y-68905713D01*
X121977568Y-68905713D02*
X121977568Y-67977142D01*
X122334711Y-67405714D02*
X122406140Y-67334285D01*
X122406140Y-67334285D02*
X122477568Y-67405714D01*
X122477568Y-67405714D02*
X122406140Y-67477142D01*
X122406140Y-67477142D02*
X122334711Y-67405714D01*
X122334711Y-67405714D02*
X122477568Y-67405714D01*
X120977568Y-66405713D02*
X120977568Y-66262856D01*
X120977568Y-66262856D02*
X121048997Y-66119999D01*
X121048997Y-66119999D02*
X121120425Y-66048571D01*
X121120425Y-66048571D02*
X121263282Y-65977142D01*
X121263282Y-65977142D02*
X121548997Y-65905713D01*
X121548997Y-65905713D02*
X121906140Y-65905713D01*
X121906140Y-65905713D02*
X122191854Y-65977142D01*
X122191854Y-65977142D02*
X122334711Y-66048571D01*
X122334711Y-66048571D02*
X122406140Y-66119999D01*
X122406140Y-66119999D02*
X122477568Y-66262856D01*
X122477568Y-66262856D02*
X122477568Y-66405713D01*
X122477568Y-66405713D02*
X122406140Y-66548571D01*
X122406140Y-66548571D02*
X122334711Y-66619999D01*
X122334711Y-66619999D02*
X122191854Y-66691428D01*
X122191854Y-66691428D02*
X121906140Y-66762856D01*
X121906140Y-66762856D02*
X121548997Y-66762856D01*
X121548997Y-66762856D02*
X121263282Y-66691428D01*
X121263282Y-66691428D02*
X121120425Y-66619999D01*
X121120425Y-66619999D02*
X121048997Y-66548571D01*
X121048997Y-66548571D02*
X120977568Y-66405713D01*
D10*
X151242216Y-55492941D02*
X150885073Y-56111530D01*
X150885073Y-56111530D02*
X150772405Y-56211439D01*
X150772405Y-56211439D02*
X150642307Y-56246298D01*
X150642307Y-56246298D02*
X150494780Y-56216109D01*
X150494780Y-56216109D02*
X150412301Y-56168490D01*
X151195848Y-56620871D02*
X151360805Y-56716109D01*
X151360805Y-56716109D02*
X151467094Y-56722489D01*
X151467094Y-56722489D02*
X151532142Y-56705059D01*
X151532142Y-56705059D02*
X151686050Y-56628960D01*
X151686050Y-56628960D02*
X151822527Y-56487812D01*
X151822527Y-56487812D02*
X152013003Y-56157898D01*
X152013003Y-56157898D02*
X152019383Y-56051610D01*
X152019383Y-56051610D02*
X152001953Y-55986561D01*
X152001953Y-55986561D02*
X151943284Y-55897703D01*
X151943284Y-55897703D02*
X151778327Y-55802464D01*
X151778327Y-55802464D02*
X151672039Y-55796085D01*
X151672039Y-55796085D02*
X151606990Y-55813515D01*
X151606990Y-55813515D02*
X151518132Y-55872184D01*
X151518132Y-55872184D02*
X151399084Y-56078380D01*
X151399084Y-56078380D02*
X151392704Y-56184668D01*
X151392704Y-56184668D02*
X151410134Y-56249717D01*
X151410134Y-56249717D02*
X151468803Y-56338575D01*
X151468803Y-56338575D02*
X151633760Y-56433814D01*
X151633760Y-56433814D02*
X151740048Y-56440193D01*
X151740048Y-56440193D02*
X151805097Y-56422763D01*
X151805097Y-56422763D02*
X151893956Y-56364094D01*
X163409219Y-67992523D02*
X164123504Y-67992523D01*
X164123504Y-67992523D02*
X164266361Y-68040142D01*
X164266361Y-68040142D02*
X164361600Y-68135380D01*
X164361600Y-68135380D02*
X164409219Y-68278237D01*
X164409219Y-68278237D02*
X164409219Y-68373475D01*
X164409219Y-66992523D02*
X164409219Y-67563951D01*
X164409219Y-67278237D02*
X163409219Y-67278237D01*
X163409219Y-67278237D02*
X163552076Y-67373475D01*
X163552076Y-67373475D02*
X163647314Y-67468713D01*
X163647314Y-67468713D02*
X163694933Y-67563951D01*
X163409219Y-66373475D02*
X163409219Y-66278237D01*
X163409219Y-66278237D02*
X163456838Y-66182999D01*
X163456838Y-66182999D02*
X163504457Y-66135380D01*
X163504457Y-66135380D02*
X163599695Y-66087761D01*
X163599695Y-66087761D02*
X163790171Y-66040142D01*
X163790171Y-66040142D02*
X164028266Y-66040142D01*
X164028266Y-66040142D02*
X164218742Y-66087761D01*
X164218742Y-66087761D02*
X164313980Y-66135380D01*
X164313980Y-66135380D02*
X164361600Y-66182999D01*
X164361600Y-66182999D02*
X164409219Y-66278237D01*
X164409219Y-66278237D02*
X164409219Y-66373475D01*
X164409219Y-66373475D02*
X164361600Y-66468713D01*
X164361600Y-66468713D02*
X164313980Y-66516332D01*
X164313980Y-66516332D02*
X164218742Y-66563951D01*
X164218742Y-66563951D02*
X164028266Y-66611570D01*
X164028266Y-66611570D02*
X163790171Y-66611570D01*
X163790171Y-66611570D02*
X163599695Y-66563951D01*
X163599695Y-66563951D02*
X163504457Y-66516332D01*
X163504457Y-66516332D02*
X163456838Y-66468713D01*
X163456838Y-66468713D02*
X163409219Y-66373475D01*
D11*
X136640667Y-58977200D02*
X136783524Y-59024819D01*
X136783524Y-59024819D02*
X137021619Y-59024819D01*
X137021619Y-59024819D02*
X137116857Y-58977200D01*
X137116857Y-58977200D02*
X137164476Y-58929580D01*
X137164476Y-58929580D02*
X137212095Y-58834342D01*
X137212095Y-58834342D02*
X137212095Y-58739104D01*
X137212095Y-58739104D02*
X137164476Y-58643866D01*
X137164476Y-58643866D02*
X137116857Y-58596247D01*
X137116857Y-58596247D02*
X137021619Y-58548628D01*
X137021619Y-58548628D02*
X136831143Y-58501009D01*
X136831143Y-58501009D02*
X136735905Y-58453390D01*
X136735905Y-58453390D02*
X136688286Y-58405771D01*
X136688286Y-58405771D02*
X136640667Y-58310533D01*
X136640667Y-58310533D02*
X136640667Y-58215295D01*
X136640667Y-58215295D02*
X136688286Y-58120057D01*
X136688286Y-58120057D02*
X136735905Y-58072438D01*
X136735905Y-58072438D02*
X136831143Y-58024819D01*
X136831143Y-58024819D02*
X137069238Y-58024819D01*
X137069238Y-58024819D02*
X137212095Y-58072438D01*
X137545429Y-58024819D02*
X137783524Y-59024819D01*
X137783524Y-59024819D02*
X137974000Y-58310533D01*
X137974000Y-58310533D02*
X138164476Y-59024819D01*
X138164476Y-59024819D02*
X138402572Y-58024819D01*
X139307333Y-59024819D02*
X138735905Y-59024819D01*
X139021619Y-59024819D02*
X139021619Y-58024819D01*
X139021619Y-58024819D02*
X138926381Y-58167676D01*
X138926381Y-58167676D02*
X138831143Y-58262914D01*
X138831143Y-58262914D02*
X138735905Y-58310533D01*
D12*
X142152761Y-130632419D02*
X141819428Y-130156228D01*
X141581333Y-130632419D02*
X141581333Y-129632419D01*
X141581333Y-129632419D02*
X141962285Y-129632419D01*
X141962285Y-129632419D02*
X142057523Y-129680038D01*
X142057523Y-129680038D02*
X142105142Y-129727657D01*
X142105142Y-129727657D02*
X142152761Y-129822895D01*
X142152761Y-129822895D02*
X142152761Y-129965752D01*
X142152761Y-129965752D02*
X142105142Y-130060990D01*
X142105142Y-130060990D02*
X142057523Y-130108609D01*
X142057523Y-130108609D02*
X141962285Y-130156228D01*
X141962285Y-130156228D02*
X141581333Y-130156228D01*
X142438476Y-129632419D02*
X142771809Y-130632419D01*
X142771809Y-130632419D02*
X143105142Y-129632419D01*
X143962285Y-130632419D02*
X143390857Y-130632419D01*
X143676571Y-130632419D02*
X143676571Y-129632419D01*
X143676571Y-129632419D02*
X143581333Y-129775276D01*
X143581333Y-129775276D02*
X143486095Y-129870514D01*
X143486095Y-129870514D02*
X143390857Y-129918133D01*
D10*
X186515476Y-82129219D02*
X186515476Y-82843504D01*
X186515476Y-82843504D02*
X186467857Y-82986361D01*
X186467857Y-82986361D02*
X186372619Y-83081600D01*
X186372619Y-83081600D02*
X186229762Y-83129219D01*
X186229762Y-83129219D02*
X186134524Y-83129219D01*
X187515476Y-83129219D02*
X186944048Y-83129219D01*
X187229762Y-83129219D02*
X187229762Y-82129219D01*
X187229762Y-82129219D02*
X187134524Y-82272076D01*
X187134524Y-82272076D02*
X187039286Y-82367314D01*
X187039286Y-82367314D02*
X186944048Y-82414933D01*
X187848810Y-82129219D02*
X188467857Y-82129219D01*
X188467857Y-82129219D02*
X188134524Y-82510171D01*
X188134524Y-82510171D02*
X188277381Y-82510171D01*
X188277381Y-82510171D02*
X188372619Y-82557790D01*
X188372619Y-82557790D02*
X188420238Y-82605409D01*
X188420238Y-82605409D02*
X188467857Y-82700647D01*
X188467857Y-82700647D02*
X188467857Y-82938742D01*
X188467857Y-82938742D02*
X188420238Y-83033980D01*
X188420238Y-83033980D02*
X188372619Y-83081600D01*
X188372619Y-83081600D02*
X188277381Y-83129219D01*
X188277381Y-83129219D02*
X187991667Y-83129219D01*
X187991667Y-83129219D02*
X187896429Y-83081600D01*
X187896429Y-83081600D02*
X187848810Y-83033980D01*
D11*
X134058819Y-73239047D02*
X134058819Y-73715237D01*
X134058819Y-73715237D02*
X133058819Y-73715237D01*
X133058819Y-73000951D02*
X133058819Y-72381904D01*
X133058819Y-72381904D02*
X133439771Y-72715237D01*
X133439771Y-72715237D02*
X133439771Y-72572380D01*
X133439771Y-72572380D02*
X133487390Y-72477142D01*
X133487390Y-72477142D02*
X133535009Y-72429523D01*
X133535009Y-72429523D02*
X133630247Y-72381904D01*
X133630247Y-72381904D02*
X133868342Y-72381904D01*
X133868342Y-72381904D02*
X133963580Y-72429523D01*
X133963580Y-72429523D02*
X134011200Y-72477142D01*
X134011200Y-72477142D02*
X134058819Y-72572380D01*
X134058819Y-72572380D02*
X134058819Y-72858094D01*
X134058819Y-72858094D02*
X134011200Y-72953332D01*
X134011200Y-72953332D02*
X133963580Y-73000951D01*
X133106438Y-71429523D02*
X133058819Y-71524761D01*
X133058819Y-71524761D02*
X133058819Y-71667618D01*
X133058819Y-71667618D02*
X133106438Y-71810475D01*
X133106438Y-71810475D02*
X133201676Y-71905713D01*
X133201676Y-71905713D02*
X133296914Y-71953332D01*
X133296914Y-71953332D02*
X133487390Y-72000951D01*
X133487390Y-72000951D02*
X133630247Y-72000951D01*
X133630247Y-72000951D02*
X133820723Y-71953332D01*
X133820723Y-71953332D02*
X133915961Y-71905713D01*
X133915961Y-71905713D02*
X134011200Y-71810475D01*
X134011200Y-71810475D02*
X134058819Y-71667618D01*
X134058819Y-71667618D02*
X134058819Y-71572380D01*
X134058819Y-71572380D02*
X134011200Y-71429523D01*
X134011200Y-71429523D02*
X133963580Y-71381904D01*
X133963580Y-71381904D02*
X133630247Y-71381904D01*
X133630247Y-71381904D02*
X133630247Y-71572380D01*
X134058819Y-70953332D02*
X133058819Y-70953332D01*
X133058819Y-70953332D02*
X133058819Y-70715237D01*
X133058819Y-70715237D02*
X133106438Y-70572380D01*
X133106438Y-70572380D02*
X133201676Y-70477142D01*
X133201676Y-70477142D02*
X133296914Y-70429523D01*
X133296914Y-70429523D02*
X133487390Y-70381904D01*
X133487390Y-70381904D02*
X133630247Y-70381904D01*
X133630247Y-70381904D02*
X133820723Y-70429523D01*
X133820723Y-70429523D02*
X133915961Y-70477142D01*
X133915961Y-70477142D02*
X134011200Y-70572380D01*
X134011200Y-70572380D02*
X134058819Y-70715237D01*
X134058819Y-70715237D02*
X134058819Y-70953332D01*
X133154057Y-70000951D02*
X133106438Y-69953332D01*
X133106438Y-69953332D02*
X133058819Y-69858094D01*
X133058819Y-69858094D02*
X133058819Y-69619999D01*
X133058819Y-69619999D02*
X133106438Y-69524761D01*
X133106438Y-69524761D02*
X133154057Y-69477142D01*
X133154057Y-69477142D02*
X133249295Y-69429523D01*
X133249295Y-69429523D02*
X133344533Y-69429523D01*
X133344533Y-69429523D02*
X133487390Y-69477142D01*
X133487390Y-69477142D02*
X134058819Y-70048570D01*
X134058819Y-70048570D02*
X134058819Y-69429523D01*
X133058819Y-68810475D02*
X133058819Y-68715237D01*
X133058819Y-68715237D02*
X133106438Y-68619999D01*
X133106438Y-68619999D02*
X133154057Y-68572380D01*
X133154057Y-68572380D02*
X133249295Y-68524761D01*
X133249295Y-68524761D02*
X133439771Y-68477142D01*
X133439771Y-68477142D02*
X133677866Y-68477142D01*
X133677866Y-68477142D02*
X133868342Y-68524761D01*
X133868342Y-68524761D02*
X133963580Y-68572380D01*
X133963580Y-68572380D02*
X134011200Y-68619999D01*
X134011200Y-68619999D02*
X134058819Y-68715237D01*
X134058819Y-68715237D02*
X134058819Y-68810475D01*
X134058819Y-68810475D02*
X134011200Y-68905713D01*
X134011200Y-68905713D02*
X133963580Y-68953332D01*
X133963580Y-68953332D02*
X133868342Y-69000951D01*
X133868342Y-69000951D02*
X133677866Y-69048570D01*
X133677866Y-69048570D02*
X133439771Y-69048570D01*
X133439771Y-69048570D02*
X133249295Y-69000951D01*
X133249295Y-69000951D02*
X133154057Y-68953332D01*
X133154057Y-68953332D02*
X133106438Y-68905713D01*
X133106438Y-68905713D02*
X133058819Y-68810475D01*
X137868819Y-71604094D02*
X136868819Y-71604094D01*
X136868819Y-71604094D02*
X136868819Y-71365999D01*
X136868819Y-71365999D02*
X136916438Y-71223142D01*
X136916438Y-71223142D02*
X137011676Y-71127904D01*
X137011676Y-71127904D02*
X137106914Y-71080285D01*
X137106914Y-71080285D02*
X137297390Y-71032666D01*
X137297390Y-71032666D02*
X137440247Y-71032666D01*
X137440247Y-71032666D02*
X137630723Y-71080285D01*
X137630723Y-71080285D02*
X137725961Y-71127904D01*
X137725961Y-71127904D02*
X137821200Y-71223142D01*
X137821200Y-71223142D02*
X137868819Y-71365999D01*
X137868819Y-71365999D02*
X137868819Y-71604094D01*
X137868819Y-70080285D02*
X137868819Y-70651713D01*
X137868819Y-70365999D02*
X136868819Y-70365999D01*
X136868819Y-70365999D02*
X137011676Y-70461237D01*
X137011676Y-70461237D02*
X137106914Y-70556475D01*
X137106914Y-70556475D02*
X137154533Y-70651713D01*
X128865333Y-72123219D02*
X128532000Y-71647028D01*
X128293905Y-72123219D02*
X128293905Y-71123219D01*
X128293905Y-71123219D02*
X128674857Y-71123219D01*
X128674857Y-71123219D02*
X128770095Y-71170838D01*
X128770095Y-71170838D02*
X128817714Y-71218457D01*
X128817714Y-71218457D02*
X128865333Y-71313695D01*
X128865333Y-71313695D02*
X128865333Y-71456552D01*
X128865333Y-71456552D02*
X128817714Y-71551790D01*
X128817714Y-71551790D02*
X128770095Y-71599409D01*
X128770095Y-71599409D02*
X128674857Y-71647028D01*
X128674857Y-71647028D02*
X128293905Y-71647028D01*
X129246286Y-71218457D02*
X129293905Y-71170838D01*
X129293905Y-71170838D02*
X129389143Y-71123219D01*
X129389143Y-71123219D02*
X129627238Y-71123219D01*
X129627238Y-71123219D02*
X129722476Y-71170838D01*
X129722476Y-71170838D02*
X129770095Y-71218457D01*
X129770095Y-71218457D02*
X129817714Y-71313695D01*
X129817714Y-71313695D02*
X129817714Y-71408933D01*
X129817714Y-71408933D02*
X129770095Y-71551790D01*
X129770095Y-71551790D02*
X129198667Y-72123219D01*
X129198667Y-72123219D02*
X129817714Y-72123219D01*
D12*
X163536333Y-127330419D02*
X163203000Y-126854228D01*
X162964905Y-127330419D02*
X162964905Y-126330419D01*
X162964905Y-126330419D02*
X163345857Y-126330419D01*
X163345857Y-126330419D02*
X163441095Y-126378038D01*
X163441095Y-126378038D02*
X163488714Y-126425657D01*
X163488714Y-126425657D02*
X163536333Y-126520895D01*
X163536333Y-126520895D02*
X163536333Y-126663752D01*
X163536333Y-126663752D02*
X163488714Y-126758990D01*
X163488714Y-126758990D02*
X163441095Y-126806609D01*
X163441095Y-126806609D02*
X163345857Y-126854228D01*
X163345857Y-126854228D02*
X162964905Y-126854228D01*
X164441095Y-126330419D02*
X163964905Y-126330419D01*
X163964905Y-126330419D02*
X163917286Y-126806609D01*
X163917286Y-126806609D02*
X163964905Y-126758990D01*
X163964905Y-126758990D02*
X164060143Y-126711371D01*
X164060143Y-126711371D02*
X164298238Y-126711371D01*
X164298238Y-126711371D02*
X164393476Y-126758990D01*
X164393476Y-126758990D02*
X164441095Y-126806609D01*
X164441095Y-126806609D02*
X164488714Y-126901847D01*
X164488714Y-126901847D02*
X164488714Y-127139942D01*
X164488714Y-127139942D02*
X164441095Y-127235180D01*
X164441095Y-127235180D02*
X164393476Y-127282800D01*
X164393476Y-127282800D02*
X164298238Y-127330419D01*
X164298238Y-127330419D02*
X164060143Y-127330419D01*
X164060143Y-127330419D02*
X163964905Y-127282800D01*
X163964905Y-127282800D02*
X163917286Y-127235180D01*
D10*
X157938758Y-59365236D02*
X157581615Y-59983825D01*
X157581615Y-59983825D02*
X157468947Y-60083734D01*
X157468947Y-60083734D02*
X157338850Y-60118593D01*
X157338850Y-60118593D02*
X157191322Y-60088404D01*
X157191322Y-60088404D02*
X157108844Y-60040785D01*
X158304784Y-60731261D02*
X157809912Y-60445547D01*
X158057348Y-60588404D02*
X158557348Y-59722379D01*
X158557348Y-59722379D02*
X158403441Y-59798477D01*
X158403441Y-59798477D02*
X158273343Y-59833337D01*
X158273343Y-59833337D02*
X158167055Y-59826957D01*
X159380425Y-60582482D02*
X159047091Y-61159833D01*
X159364704Y-60133520D02*
X158801365Y-60633062D01*
X158801365Y-60633062D02*
X159337476Y-60942586D01*
D11*
X139197657Y-123011628D02*
X142197657Y-121011628D01*
X139197657Y-121011628D02*
X142197657Y-123011628D01*
X142197657Y-119868771D02*
X139197657Y-119868771D01*
X141340514Y-118583057D02*
X141340514Y-117154486D01*
X142197657Y-118868771D02*
X139197657Y-117868771D01*
X139197657Y-117868771D02*
X142197657Y-116868771D01*
X139197657Y-115297342D02*
X139197657Y-114725914D01*
X139197657Y-114725914D02*
X139340514Y-114440199D01*
X139340514Y-114440199D02*
X139626228Y-114154485D01*
X139626228Y-114154485D02*
X140197657Y-114011628D01*
X140197657Y-114011628D02*
X141197657Y-114011628D01*
X141197657Y-114011628D02*
X141769085Y-114154485D01*
X141769085Y-114154485D02*
X142054800Y-114440199D01*
X142054800Y-114440199D02*
X142197657Y-114725914D01*
X142197657Y-114725914D02*
X142197657Y-115297342D01*
X142197657Y-115297342D02*
X142054800Y-115583057D01*
X142054800Y-115583057D02*
X141769085Y-115868771D01*
X141769085Y-115868771D02*
X141197657Y-116011628D01*
X141197657Y-116011628D02*
X140197657Y-116011628D01*
X140197657Y-116011628D02*
X139626228Y-115868771D01*
X139626228Y-115868771D02*
X139340514Y-115583057D01*
X139340514Y-115583057D02*
X139197657Y-115297342D01*
D12*
X144540428Y-122036925D02*
X143826142Y-122536925D01*
X144540428Y-122894068D02*
X143040428Y-122894068D01*
X143040428Y-122894068D02*
X143040428Y-122322639D01*
X143040428Y-122322639D02*
X143111857Y-122179782D01*
X143111857Y-122179782D02*
X143183285Y-122108353D01*
X143183285Y-122108353D02*
X143326142Y-122036925D01*
X143326142Y-122036925D02*
X143540428Y-122036925D01*
X143540428Y-122036925D02*
X143683285Y-122108353D01*
X143683285Y-122108353D02*
X143754714Y-122179782D01*
X143754714Y-122179782D02*
X143826142Y-122322639D01*
X143826142Y-122322639D02*
X143826142Y-122894068D01*
X144540428Y-121394068D02*
X143040428Y-121394068D01*
X143040428Y-121394068D02*
X143040428Y-120822639D01*
X143040428Y-120822639D02*
X143111857Y-120679782D01*
X143111857Y-120679782D02*
X143183285Y-120608353D01*
X143183285Y-120608353D02*
X143326142Y-120536925D01*
X143326142Y-120536925D02*
X143540428Y-120536925D01*
X143540428Y-120536925D02*
X143683285Y-120608353D01*
X143683285Y-120608353D02*
X143754714Y-120679782D01*
X143754714Y-120679782D02*
X143826142Y-120822639D01*
X143826142Y-120822639D02*
X143826142Y-121394068D01*
X143183285Y-119965496D02*
X143111857Y-119894068D01*
X143111857Y-119894068D02*
X143040428Y-119751211D01*
X143040428Y-119751211D02*
X143040428Y-119394068D01*
X143040428Y-119394068D02*
X143111857Y-119251211D01*
X143111857Y-119251211D02*
X143183285Y-119179782D01*
X143183285Y-119179782D02*
X143326142Y-119108353D01*
X143326142Y-119108353D02*
X143469000Y-119108353D01*
X143469000Y-119108353D02*
X143683285Y-119179782D01*
X143683285Y-119179782D02*
X144540428Y-120036925D01*
X144540428Y-120036925D02*
X144540428Y-119108353D01*
X143040428Y-118179782D02*
X143040428Y-118036925D01*
X143040428Y-118036925D02*
X143111857Y-117894068D01*
X143111857Y-117894068D02*
X143183285Y-117822640D01*
X143183285Y-117822640D02*
X143326142Y-117751211D01*
X143326142Y-117751211D02*
X143611857Y-117679782D01*
X143611857Y-117679782D02*
X143969000Y-117679782D01*
X143969000Y-117679782D02*
X144254714Y-117751211D01*
X144254714Y-117751211D02*
X144397571Y-117822640D01*
X144397571Y-117822640D02*
X144469000Y-117894068D01*
X144469000Y-117894068D02*
X144540428Y-118036925D01*
X144540428Y-118036925D02*
X144540428Y-118179782D01*
X144540428Y-118179782D02*
X144469000Y-118322640D01*
X144469000Y-118322640D02*
X144397571Y-118394068D01*
X144397571Y-118394068D02*
X144254714Y-118465497D01*
X144254714Y-118465497D02*
X143969000Y-118536925D01*
X143969000Y-118536925D02*
X143611857Y-118536925D01*
X143611857Y-118536925D02*
X143326142Y-118465497D01*
X143326142Y-118465497D02*
X143183285Y-118394068D01*
X143183285Y-118394068D02*
X143111857Y-118322640D01*
X143111857Y-118322640D02*
X143040428Y-118179782D01*
X143540428Y-116394069D02*
X144540428Y-116394069D01*
X142969000Y-116751211D02*
X144040428Y-117108354D01*
X144040428Y-117108354D02*
X144040428Y-116179783D01*
X143040428Y-115322640D02*
X143040428Y-115179783D01*
X143040428Y-115179783D02*
X143111857Y-115036926D01*
X143111857Y-115036926D02*
X143183285Y-114965498D01*
X143183285Y-114965498D02*
X143326142Y-114894069D01*
X143326142Y-114894069D02*
X143611857Y-114822640D01*
X143611857Y-114822640D02*
X143969000Y-114822640D01*
X143969000Y-114822640D02*
X144254714Y-114894069D01*
X144254714Y-114894069D02*
X144397571Y-114965498D01*
X144397571Y-114965498D02*
X144469000Y-115036926D01*
X144469000Y-115036926D02*
X144540428Y-115179783D01*
X144540428Y-115179783D02*
X144540428Y-115322640D01*
X144540428Y-115322640D02*
X144469000Y-115465498D01*
X144469000Y-115465498D02*
X144397571Y-115536926D01*
X144397571Y-115536926D02*
X144254714Y-115608355D01*
X144254714Y-115608355D02*
X143969000Y-115679783D01*
X143969000Y-115679783D02*
X143611857Y-115679783D01*
X143611857Y-115679783D02*
X143326142Y-115608355D01*
X143326142Y-115608355D02*
X143183285Y-115536926D01*
X143183285Y-115536926D02*
X143111857Y-115465498D01*
X143111857Y-115465498D02*
X143040428Y-115322640D01*
D11*
X145442414Y-72451428D02*
X145513842Y-72237142D01*
X145513842Y-72237142D02*
X145585271Y-72165713D01*
X145585271Y-72165713D02*
X145728128Y-72094285D01*
X145728128Y-72094285D02*
X145942414Y-72094285D01*
X145942414Y-72094285D02*
X146085271Y-72165713D01*
X146085271Y-72165713D02*
X146156700Y-72237142D01*
X146156700Y-72237142D02*
X146228128Y-72379999D01*
X146228128Y-72379999D02*
X146228128Y-72951428D01*
X146228128Y-72951428D02*
X144728128Y-72951428D01*
X144728128Y-72951428D02*
X144728128Y-72451428D01*
X144728128Y-72451428D02*
X144799557Y-72308571D01*
X144799557Y-72308571D02*
X144870985Y-72237142D01*
X144870985Y-72237142D02*
X145013842Y-72165713D01*
X145013842Y-72165713D02*
X145156700Y-72165713D01*
X145156700Y-72165713D02*
X145299557Y-72237142D01*
X145299557Y-72237142D02*
X145370985Y-72308571D01*
X145370985Y-72308571D02*
X145442414Y-72451428D01*
X145442414Y-72451428D02*
X145442414Y-72951428D01*
X144728128Y-71594285D02*
X144728128Y-70594285D01*
X144728128Y-70594285D02*
X146228128Y-71594285D01*
X146228128Y-71594285D02*
X146228128Y-70594285D01*
X146228128Y-69237142D02*
X146228128Y-70094285D01*
X146228128Y-69665714D02*
X144728128Y-69665714D01*
X144728128Y-69665714D02*
X144942414Y-69808571D01*
X144942414Y-69808571D02*
X145085271Y-69951428D01*
X145085271Y-69951428D02*
X145156700Y-70094285D01*
X143075866Y-75320951D02*
X143075866Y-74559047D01*
X143456819Y-74939999D02*
X142694914Y-74939999D01*
D10*
X172005666Y-69048219D02*
X172005666Y-69762504D01*
X172005666Y-69762504D02*
X171958047Y-69905361D01*
X171958047Y-69905361D02*
X171862809Y-70000600D01*
X171862809Y-70000600D02*
X171719952Y-70048219D01*
X171719952Y-70048219D02*
X171624714Y-70048219D01*
X172624714Y-69476790D02*
X172529476Y-69429171D01*
X172529476Y-69429171D02*
X172481857Y-69381552D01*
X172481857Y-69381552D02*
X172434238Y-69286314D01*
X172434238Y-69286314D02*
X172434238Y-69238695D01*
X172434238Y-69238695D02*
X172481857Y-69143457D01*
X172481857Y-69143457D02*
X172529476Y-69095838D01*
X172529476Y-69095838D02*
X172624714Y-69048219D01*
X172624714Y-69048219D02*
X172815190Y-69048219D01*
X172815190Y-69048219D02*
X172910428Y-69095838D01*
X172910428Y-69095838D02*
X172958047Y-69143457D01*
X172958047Y-69143457D02*
X173005666Y-69238695D01*
X173005666Y-69238695D02*
X173005666Y-69286314D01*
X173005666Y-69286314D02*
X172958047Y-69381552D01*
X172958047Y-69381552D02*
X172910428Y-69429171D01*
X172910428Y-69429171D02*
X172815190Y-69476790D01*
X172815190Y-69476790D02*
X172624714Y-69476790D01*
X172624714Y-69476790D02*
X172529476Y-69524409D01*
X172529476Y-69524409D02*
X172481857Y-69572028D01*
X172481857Y-69572028D02*
X172434238Y-69667266D01*
X172434238Y-69667266D02*
X172434238Y-69857742D01*
X172434238Y-69857742D02*
X172481857Y-69952980D01*
X172481857Y-69952980D02*
X172529476Y-70000600D01*
X172529476Y-70000600D02*
X172624714Y-70048219D01*
X172624714Y-70048219D02*
X172815190Y-70048219D01*
X172815190Y-70048219D02*
X172910428Y-70000600D01*
X172910428Y-70000600D02*
X172958047Y-69952980D01*
X172958047Y-69952980D02*
X173005666Y-69857742D01*
X173005666Y-69857742D02*
X173005666Y-69667266D01*
X173005666Y-69667266D02*
X172958047Y-69572028D01*
X172958047Y-69572028D02*
X172910428Y-69524409D01*
X172910428Y-69524409D02*
X172815190Y-69476790D01*
D14*
%TO.C,J6*%
X183020000Y-140700000D02*
X181770000Y-140700000D01*
X182730000Y-140990000D02*
X176760000Y-140990000D01*
X176760000Y-140990000D02*
X176760000Y-148610000D01*
X182720000Y-141000000D02*
X181970000Y-141000000D01*
X181970000Y-141000000D02*
X181970000Y-142800000D01*
X180470000Y-141000000D02*
X180470000Y-141750000D01*
X180470000Y-141750000D02*
X177520000Y-141750000D01*
X177520000Y-141750000D02*
X177520000Y-144800000D01*
X183020000Y-141950000D02*
X183020000Y-140700000D01*
X182720000Y-142800000D02*
X182720000Y-141000000D01*
X181970000Y-142800000D02*
X182720000Y-142800000D01*
X182720000Y-144300000D02*
X181970000Y-144300000D01*
X181970000Y-144300000D02*
X181970000Y-145300000D01*
X182720000Y-145300000D02*
X182720000Y-144300000D01*
X181970000Y-145300000D02*
X182720000Y-145300000D01*
X182720000Y-146800000D02*
X181970000Y-146800000D01*
X181970000Y-146800000D02*
X181970000Y-148600000D01*
X180470000Y-147850000D02*
X177520000Y-147850000D01*
X177520000Y-147850000D02*
X177520000Y-144800000D01*
X182720000Y-148600000D02*
X182720000Y-146800000D01*
X181970000Y-148600000D02*
X182720000Y-148600000D01*
X180470000Y-148600000D02*
X180470000Y-147850000D01*
X182730000Y-148610000D02*
X182730000Y-140990000D01*
X176760000Y-148610000D02*
X182730000Y-148610000D01*
%TO.C,J17*%
X177115172Y-70100570D02*
X177740172Y-69018038D01*
X177009025Y-69704422D02*
X179994025Y-64534251D01*
X179994025Y-64534251D02*
X166899721Y-56974251D01*
X177005365Y-69690762D02*
X177380365Y-69041243D01*
X177380365Y-69041243D02*
X175821519Y-68141243D01*
X178130365Y-67742205D02*
X177480846Y-67367205D01*
X177480846Y-67367205D02*
X178955846Y-64812430D01*
X178955846Y-64812430D02*
X173066873Y-61412430D01*
X176032641Y-69475570D02*
X177115172Y-70100570D01*
X175446519Y-68790762D02*
X177005365Y-69690762D01*
X175821519Y-68141243D02*
X175446519Y-68790762D01*
X174147481Y-68040762D02*
X174522481Y-67391243D01*
X174522481Y-67391243D02*
X167161265Y-63141243D01*
X166786265Y-63790762D02*
X174147481Y-68040762D01*
X167161265Y-63141243D02*
X166786265Y-63790762D01*
X165487227Y-63040762D02*
X165862227Y-62391243D01*
X165862227Y-62391243D02*
X164303381Y-61491243D01*
X165702900Y-60567205D02*
X167177900Y-58012430D01*
X167177900Y-58012430D02*
X173066873Y-61412430D01*
X163928381Y-62140762D02*
X165487227Y-63040762D01*
X164303381Y-61491243D02*
X163928381Y-62140762D01*
X165053381Y-60192205D02*
X165702900Y-60567205D01*
X163914721Y-62144422D02*
X177009025Y-69704422D01*
X166899721Y-56974251D02*
X163914721Y-62144422D01*
%TO.C,R3*%
X130952000Y-73208400D02*
X127112000Y-73208400D01*
X130952000Y-71368400D02*
X127112000Y-71368400D01*
%TO.C,J11*%
X195293012Y-81597314D02*
X194253782Y-80997314D01*
X198803012Y-75517815D02*
X195293012Y-81597314D01*
X193403782Y-82469557D02*
X188484758Y-79629557D01*
X194253782Y-80997314D02*
X193403782Y-82469557D01*
X188484758Y-79629557D02*
X189334758Y-78157314D01*
X189334758Y-78157314D02*
X188295527Y-77557314D01*
X188295527Y-77557314D02*
X191805527Y-71477815D01*
X191805527Y-71477815D02*
X198803012Y-75517815D01*
D15*
%TO.C,U1*%
X117602000Y-82560000D02*
X153162000Y-82560000D01*
X153162000Y-82560000D02*
X153162000Y-59700000D01*
X117675400Y-77480000D02*
X153108400Y-77480000D01*
X117650000Y-64830800D02*
X153083000Y-64830800D01*
X117602000Y-59700000D02*
X117602000Y-82560000D01*
X153162000Y-59700000D02*
X117602000Y-59700000D01*
D14*
%TO.C,J12*%
X181633430Y-74632236D02*
X182715962Y-75257236D01*
X182029578Y-74526089D02*
X187199749Y-77511089D01*
X187199749Y-77511089D02*
X191009749Y-70911975D01*
X182043238Y-74522429D02*
X182692757Y-74897429D01*
X182692757Y-74897429D02*
X183592757Y-73338583D01*
X183991795Y-75647429D02*
X184366795Y-74997910D01*
X184366795Y-74997910D02*
X186921570Y-76472910D01*
X186921570Y-76472910D02*
X188446570Y-73831532D01*
X182258430Y-73549705D02*
X181633430Y-74632236D01*
X182943238Y-72963583D02*
X182043238Y-74522429D01*
X183592757Y-73338583D02*
X182943238Y-72963583D01*
X183693238Y-71664545D02*
X184342757Y-72039545D01*
X184342757Y-72039545D02*
X184842757Y-71173520D01*
X184193238Y-70798520D02*
X183693238Y-71664545D01*
X184842757Y-71173520D02*
X184193238Y-70798520D01*
X184943238Y-69499481D02*
X185592757Y-69874481D01*
X185592757Y-69874481D02*
X186492757Y-68315636D01*
X187416795Y-69715155D02*
X189971570Y-71190155D01*
X189971570Y-71190155D02*
X188446570Y-73831532D01*
X185843238Y-67940636D02*
X184943238Y-69499481D01*
X186492757Y-68315636D02*
X185843238Y-67940636D01*
X187791795Y-69065636D02*
X187416795Y-69715155D01*
X185839578Y-67926975D02*
X182029578Y-74526089D01*
X191009749Y-70911975D02*
X185839578Y-67926975D01*
%TO.C,J9*%
X154255172Y-56892570D02*
X154880172Y-55810038D01*
X154149025Y-56496422D02*
X157134025Y-51326251D01*
X157134025Y-51326251D02*
X146204784Y-45016251D01*
X154145365Y-56482762D02*
X154520365Y-55833243D01*
X154520365Y-55833243D02*
X152961519Y-54933243D01*
X155270365Y-54534205D02*
X154620846Y-54159205D01*
X154620846Y-54159205D02*
X156095846Y-51604430D01*
X156095846Y-51604430D02*
X151289405Y-48829430D01*
X153172641Y-56267570D02*
X154255172Y-56892570D01*
X152586519Y-55582762D02*
X154145365Y-56482762D01*
X152961519Y-54933243D02*
X152586519Y-55582762D01*
X151287481Y-54832762D02*
X151662481Y-54183243D01*
X151662481Y-54183243D02*
X146466329Y-51183243D01*
X146091329Y-51832762D02*
X151287481Y-54832762D01*
X146466329Y-51183243D02*
X146091329Y-51832762D01*
X144792290Y-51082762D02*
X145167290Y-50433243D01*
X145167290Y-50433243D02*
X143608445Y-49533243D01*
X145007964Y-48609205D02*
X146482964Y-46054430D01*
X146482964Y-46054430D02*
X151289405Y-48829430D01*
X143233445Y-50182762D02*
X144792290Y-51082762D01*
X143608445Y-49533243D02*
X143233445Y-50182762D01*
X144358445Y-48234205D02*
X145007964Y-48609205D01*
X143219784Y-50186422D02*
X154149025Y-56496422D01*
X146204784Y-45016251D02*
X143219784Y-50186422D01*
%TO.C,J3*%
X165932300Y-109722800D02*
X164682300Y-109722800D01*
X165642300Y-110012800D02*
X159672300Y-110012800D01*
X159672300Y-110012800D02*
X159672300Y-125132800D01*
X165632300Y-110022800D02*
X164882300Y-110022800D01*
X164882300Y-110022800D02*
X164882300Y-111822800D01*
X163382300Y-110022800D02*
X163382300Y-110772800D01*
X163382300Y-110772800D02*
X160432300Y-110772800D01*
X160432300Y-110772800D02*
X160432300Y-117572800D01*
X165932300Y-110972800D02*
X165932300Y-109722800D01*
X165632300Y-111822800D02*
X165632300Y-110022800D01*
X164882300Y-111822800D02*
X165632300Y-111822800D01*
X165632300Y-113322800D02*
X164882300Y-113322800D01*
X164882300Y-113322800D02*
X164882300Y-121822800D01*
X165632300Y-121822800D02*
X165632300Y-113322800D01*
X164882300Y-121822800D02*
X165632300Y-121822800D01*
X165632300Y-123322800D02*
X164882300Y-123322800D01*
X164882300Y-123322800D02*
X164882300Y-125122800D01*
X163382300Y-124372800D02*
X160432300Y-124372800D01*
X160432300Y-124372800D02*
X160432300Y-117572800D01*
X165632300Y-125122800D02*
X165632300Y-123322800D01*
X164882300Y-125122800D02*
X165632300Y-125122800D01*
X163382300Y-125122800D02*
X163382300Y-124372800D01*
X165642300Y-125132800D02*
X165642300Y-110012800D01*
X159672300Y-125132800D02*
X165642300Y-125132800D01*
%TO.C,J10*%
X164192000Y-78732000D02*
X164192000Y-77732000D01*
X164192000Y-77732000D02*
X163192000Y-78232000D01*
X163192000Y-78232000D02*
X164192000Y-78732000D01*
X162802000Y-83442000D02*
X153682000Y-83442000D01*
X162802000Y-75202000D02*
X161492000Y-75202000D01*
X162802000Y-62862000D02*
X162802000Y-83442000D01*
X161492000Y-82142000D02*
X154992000Y-82142000D01*
X161492000Y-75202000D02*
X161492000Y-82142000D01*
X161492000Y-71102000D02*
X162802000Y-71102000D01*
X161492000Y-71102000D02*
X161492000Y-71102000D01*
X161492000Y-64162000D02*
X161492000Y-71102000D01*
X154992000Y-82142000D02*
X154992000Y-64162000D01*
X154992000Y-64162000D02*
X161492000Y-64162000D01*
X153682000Y-83442000D02*
X153682000Y-62862000D01*
X153682000Y-62862000D02*
X162802000Y-62862000D01*
%TO.C,J1*%
X172930000Y-125881000D02*
X171680000Y-125881000D01*
X172640000Y-126171000D02*
X166670000Y-126171000D01*
X166670000Y-126171000D02*
X166670000Y-141291000D01*
X172630000Y-126181000D02*
X171880000Y-126181000D01*
X171880000Y-126181000D02*
X171880000Y-127981000D01*
X170380000Y-126181000D02*
X170380000Y-126931000D01*
X170380000Y-126931000D02*
X167430000Y-126931000D01*
X167430000Y-126931000D02*
X167430000Y-133731000D01*
X172930000Y-127131000D02*
X172930000Y-125881000D01*
X172630000Y-127981000D02*
X172630000Y-126181000D01*
X171880000Y-127981000D02*
X172630000Y-127981000D01*
X172630000Y-129481000D02*
X171880000Y-129481000D01*
X171880000Y-129481000D02*
X171880000Y-137981000D01*
X172630000Y-137981000D02*
X172630000Y-129481000D01*
X171880000Y-137981000D02*
X172630000Y-137981000D01*
X172630000Y-139481000D02*
X171880000Y-139481000D01*
X171880000Y-139481000D02*
X171880000Y-141281000D01*
X170380000Y-140531000D02*
X167430000Y-140531000D01*
X167430000Y-140531000D02*
X167430000Y-133731000D01*
X172630000Y-141281000D02*
X172630000Y-139481000D01*
X171880000Y-141281000D02*
X172630000Y-141281000D01*
X170380000Y-141281000D02*
X170380000Y-140531000D01*
X172640000Y-141291000D02*
X172640000Y-126171000D01*
X166670000Y-141291000D02*
X172640000Y-141291000D01*
%TO.C,SW1*%
X141474000Y-55070000D02*
X141474000Y-53570000D01*
X140224000Y-51070000D02*
X135724000Y-51070000D01*
X135724000Y-57570000D02*
X140224000Y-57570000D01*
X134474000Y-53570000D02*
X134474000Y-55070000D01*
%TO.C,SW2*%
X171954000Y-146378800D02*
X171954000Y-144878800D01*
X170704000Y-142378800D02*
X166204000Y-142378800D01*
X166204000Y-148878800D02*
X170704000Y-148878800D01*
X164954000Y-144878800D02*
X164954000Y-146378800D01*
%TO.C,J4*%
X197060000Y-140700000D02*
X195810000Y-140700000D01*
X196770000Y-140990000D02*
X190800000Y-140990000D01*
X190800000Y-140990000D02*
X190800000Y-148610000D01*
X196760000Y-141000000D02*
X196010000Y-141000000D01*
X196010000Y-141000000D02*
X196010000Y-142800000D01*
X194510000Y-141000000D02*
X194510000Y-141750000D01*
X194510000Y-141750000D02*
X191560000Y-141750000D01*
X191560000Y-141750000D02*
X191560000Y-144800000D01*
X197060000Y-141950000D02*
X197060000Y-140700000D01*
X196760000Y-142800000D02*
X196760000Y-141000000D01*
X196010000Y-142800000D02*
X196760000Y-142800000D01*
X196760000Y-144300000D02*
X196010000Y-144300000D01*
X196010000Y-144300000D02*
X196010000Y-145300000D01*
X196760000Y-145300000D02*
X196760000Y-144300000D01*
X196010000Y-145300000D02*
X196760000Y-145300000D01*
X196760000Y-146800000D02*
X196010000Y-146800000D01*
X196010000Y-146800000D02*
X196010000Y-148600000D01*
X194510000Y-147850000D02*
X191560000Y-147850000D01*
X191560000Y-147850000D02*
X191560000Y-144800000D01*
X196760000Y-148600000D02*
X196760000Y-146800000D01*
X196010000Y-148600000D02*
X196760000Y-148600000D01*
X194510000Y-148600000D02*
X194510000Y-147850000D01*
X196770000Y-148610000D02*
X196770000Y-140990000D01*
X190800000Y-148610000D02*
X196770000Y-148610000D01*
%TO.C,J13*%
X186158000Y-83522000D02*
X186158000Y-82272000D01*
X185868000Y-83232000D02*
X185868000Y-77262000D01*
X185868000Y-77262000D02*
X163248000Y-77262000D01*
X185858000Y-83222000D02*
X185858000Y-82472000D01*
X185858000Y-82472000D02*
X184058000Y-82472000D01*
X185858000Y-80972000D02*
X185108000Y-80972000D01*
X185108000Y-80972000D02*
X185108000Y-78022000D01*
X185108000Y-78022000D02*
X174558000Y-78022000D01*
X184908000Y-83522000D02*
X186158000Y-83522000D01*
X184058000Y-83222000D02*
X185858000Y-83222000D01*
X184058000Y-82472000D02*
X184058000Y-83222000D01*
X182558000Y-83222000D02*
X182558000Y-82472000D01*
X182558000Y-82472000D02*
X166558000Y-82472000D01*
X166558000Y-83222000D02*
X182558000Y-83222000D01*
X166558000Y-82472000D02*
X166558000Y-83222000D01*
X165058000Y-83222000D02*
X165058000Y-82472000D01*
X165058000Y-82472000D02*
X163258000Y-82472000D01*
X164008000Y-80972000D02*
X164008000Y-78022000D01*
X164008000Y-78022000D02*
X174558000Y-78022000D01*
X163258000Y-83222000D02*
X165058000Y-83222000D01*
X163258000Y-82472000D02*
X163258000Y-83222000D01*
X163258000Y-80972000D02*
X164008000Y-80972000D01*
X163248000Y-83232000D02*
X185868000Y-83232000D01*
X163248000Y-77262000D02*
X163248000Y-83232000D01*
D15*
%TO.C,U3*%
X134747000Y-65415000D02*
X123317000Y-65415000D01*
X123317000Y-65415000D02*
X123317000Y-76845000D01*
X123317000Y-76845000D02*
X134747000Y-76845000D01*
X134747000Y-76845000D02*
X134747000Y-65415000D01*
D14*
%TO.C,D1*%
X135944000Y-73850000D02*
X135944000Y-68410000D01*
X136274000Y-73850000D02*
X135944000Y-73850000D01*
X138554000Y-73850000D02*
X138884000Y-73850000D01*
X138884000Y-73850000D02*
X138884000Y-68410000D01*
X135944000Y-73070000D02*
X138884000Y-73070000D01*
X135944000Y-72950000D02*
X138884000Y-72950000D01*
X135944000Y-72830000D02*
X138884000Y-72830000D01*
X135944000Y-68410000D02*
X136274000Y-68410000D01*
X138884000Y-68410000D02*
X138554000Y-68410000D01*
%TO.C,R2*%
X130952000Y-70668400D02*
X127112000Y-70668400D01*
X130952000Y-68828400D02*
X127112000Y-68828400D01*
%TO.C,J5*%
X190005000Y-140720000D02*
X188755000Y-140720000D01*
X189715000Y-141010000D02*
X183745000Y-141010000D01*
X183745000Y-141010000D02*
X183745000Y-148630000D01*
X189705000Y-141020000D02*
X188955000Y-141020000D01*
X188955000Y-141020000D02*
X188955000Y-142820000D01*
X187455000Y-141020000D02*
X187455000Y-141770000D01*
X187455000Y-141770000D02*
X184505000Y-141770000D01*
X184505000Y-141770000D02*
X184505000Y-144820000D01*
X190005000Y-141970000D02*
X190005000Y-140720000D01*
X189705000Y-142820000D02*
X189705000Y-141020000D01*
X188955000Y-142820000D02*
X189705000Y-142820000D01*
X189705000Y-144320000D02*
X188955000Y-144320000D01*
X188955000Y-144320000D02*
X188955000Y-145320000D01*
X189705000Y-145320000D02*
X189705000Y-144320000D01*
X188955000Y-145320000D02*
X189705000Y-145320000D01*
X189705000Y-146820000D02*
X188955000Y-146820000D01*
X188955000Y-146820000D02*
X188955000Y-148620000D01*
X187455000Y-147870000D02*
X184505000Y-147870000D01*
X184505000Y-147870000D02*
X184505000Y-144820000D01*
X189705000Y-148620000D02*
X189705000Y-146820000D01*
X188955000Y-148620000D02*
X189705000Y-148620000D01*
X187455000Y-148620000D02*
X187455000Y-147870000D01*
X189715000Y-148630000D02*
X189715000Y-141010000D01*
X183745000Y-148630000D02*
X189715000Y-148630000D01*
%TO.C,J14*%
X163399172Y-62226570D02*
X164024172Y-61144038D01*
X163293025Y-61830422D02*
X166278025Y-56660251D01*
X166278025Y-56660251D02*
X157513848Y-51600251D01*
X163289365Y-61816762D02*
X163664365Y-61167243D01*
X163664365Y-61167243D02*
X162105519Y-60267243D01*
X164414365Y-59868205D02*
X163764846Y-59493205D01*
X163764846Y-59493205D02*
X165239846Y-56938430D01*
X165239846Y-56938430D02*
X161515936Y-54788430D01*
X162316641Y-61601570D02*
X163399172Y-62226570D01*
X161730519Y-60916762D02*
X163289365Y-61816762D01*
X162105519Y-60267243D02*
X161730519Y-60916762D01*
X160431481Y-60166762D02*
X160806481Y-59517243D01*
X160806481Y-59517243D02*
X157775392Y-57767243D01*
X157400392Y-58416762D02*
X160431481Y-60166762D01*
X157775392Y-57767243D02*
X157400392Y-58416762D01*
X156101354Y-57666762D02*
X156476354Y-57017243D01*
X156476354Y-57017243D02*
X154917508Y-56117243D01*
X156317027Y-55193205D02*
X157792027Y-52638430D01*
X157792027Y-52638430D02*
X161515936Y-54788430D01*
X154542508Y-56766762D02*
X156101354Y-57666762D01*
X154917508Y-56117243D02*
X154542508Y-56766762D01*
X155667508Y-54818205D02*
X156317027Y-55193205D01*
X154528848Y-56770422D02*
X163293025Y-61830422D01*
X157513848Y-51600251D02*
X154528848Y-56770422D01*
%TO.C,J2*%
X172917300Y-109722800D02*
X171667300Y-109722800D01*
X172627300Y-110012800D02*
X166657300Y-110012800D01*
X166657300Y-110012800D02*
X166657300Y-125132800D01*
X172617300Y-110022800D02*
X171867300Y-110022800D01*
X171867300Y-110022800D02*
X171867300Y-111822800D01*
X170367300Y-110022800D02*
X170367300Y-110772800D01*
X170367300Y-110772800D02*
X167417300Y-110772800D01*
X167417300Y-110772800D02*
X167417300Y-117572800D01*
X172917300Y-110972800D02*
X172917300Y-109722800D01*
X172617300Y-111822800D02*
X172617300Y-110022800D01*
X171867300Y-111822800D02*
X172617300Y-111822800D01*
X172617300Y-113322800D02*
X171867300Y-113322800D01*
X171867300Y-113322800D02*
X171867300Y-121822800D01*
X172617300Y-121822800D02*
X172617300Y-113322800D01*
X171867300Y-121822800D02*
X172617300Y-121822800D01*
X172617300Y-123322800D02*
X171867300Y-123322800D01*
X171867300Y-123322800D02*
X171867300Y-125122800D01*
X170367300Y-124372800D02*
X167417300Y-124372800D01*
X167417300Y-124372800D02*
X167417300Y-117572800D01*
X172617300Y-125122800D02*
X172617300Y-123322800D01*
X171867300Y-125122800D02*
X172617300Y-125122800D01*
X170367300Y-125122800D02*
X170367300Y-124372800D01*
X172627300Y-125132800D02*
X172627300Y-110012800D01*
X166657300Y-125132800D02*
X172627300Y-125132800D01*
%TO.C,U2*%
X135864600Y-127635000D02*
X135864600Y-109855000D01*
X156870400Y-127635000D02*
X135864600Y-127635000D01*
X156870400Y-125095000D02*
X135864600Y-125095000D01*
X135890000Y-112395000D02*
X156857700Y-112395000D01*
D12*
X156857700Y-112395000D02*
X156875871Y-125106739D01*
D14*
X135864600Y-109855000D02*
X156870400Y-109855000D01*
X156870400Y-109855000D02*
X156870400Y-127635000D01*
D12*
X136169400Y-112420400D02*
X135877300Y-112420400D01*
X135877300Y-112420400D02*
X135877300Y-125095000D01*
X135877300Y-125095000D02*
X136169400Y-125095000D01*
X136169400Y-125095000D02*
X136169400Y-112420400D01*
X156857700Y-112395000D02*
X156565600Y-112395000D01*
X156565600Y-112395000D02*
X156565600Y-125069600D01*
X156565600Y-125069600D02*
X156857700Y-125069600D01*
X156857700Y-125069600D02*
X156857700Y-112395000D01*
X139726068Y-126365000D02*
G75*
G03*
X139726068Y-126365000I-965534J0D01*
G01*
X142266068Y-126365000D02*
G75*
G03*
X142266068Y-126365000I-965534J0D01*
G01*
X144806068Y-126365000D02*
G75*
G03*
X144806068Y-126365000I-965534J0D01*
G01*
X147346068Y-126365000D02*
G75*
G03*
X147346068Y-126365000I-965534J0D01*
G01*
X149886068Y-126365000D02*
G75*
G03*
X149886068Y-126365000I-965534J0D01*
G01*
X152426068Y-126365000D02*
G75*
G03*
X152426068Y-126365000I-965534J0D01*
G01*
X154966068Y-126365000D02*
G75*
G03*
X154966068Y-126365000I-965534J0D01*
G01*
X139726068Y-111125000D02*
G75*
G03*
X139726068Y-111125000I-965534J0D01*
G01*
X142266068Y-111125000D02*
G75*
G03*
X142266068Y-111125000I-965534J0D01*
G01*
X144806068Y-111125000D02*
G75*
G03*
X144806068Y-111125000I-965534J0D01*
G01*
X147346068Y-111125000D02*
G75*
G03*
X147346068Y-111125000I-965534J0D01*
G01*
X149886068Y-111125000D02*
G75*
G03*
X149886068Y-111125000I-965534J0D01*
G01*
X154965734Y-111125000D02*
G75*
G03*
X154965734Y-111125000I-965534J0D01*
G01*
X152425734Y-111124666D02*
G75*
G03*
X152425734Y-111124666I-965534J0D01*
G01*
X136169400Y-125095000D02*
X135870071Y-125106739D01*
X135877300Y-112420400D01*
X136169400Y-112420400D01*
X136169400Y-125095000D01*
G36*
X136169400Y-125095000D02*
G01*
X135870071Y-125106739D01*
X135877300Y-112420400D01*
X136169400Y-112420400D01*
X136169400Y-125095000D01*
G37*
X156857700Y-125069600D02*
X156565600Y-125069600D01*
X156565600Y-112395000D01*
X156857700Y-112395000D01*
X156857700Y-125069600D01*
G36*
X156857700Y-125069600D02*
G01*
X156565600Y-125069600D01*
X156565600Y-112395000D01*
X156857700Y-112395000D01*
X156857700Y-125069600D01*
G37*
X154970871Y-127621339D02*
X154005671Y-127646739D01*
X154006005Y-127342273D01*
X154234271Y-127341939D01*
X154437471Y-127265739D01*
X154589871Y-127189539D01*
X154818471Y-126935539D01*
X154970871Y-126732339D01*
X154970871Y-127621339D01*
G36*
X154970871Y-127621339D02*
G01*
X154005671Y-127646739D01*
X154006005Y-127342273D01*
X154234271Y-127341939D01*
X154437471Y-127265739D01*
X154589871Y-127189539D01*
X154818471Y-126935539D01*
X154970871Y-126732339D01*
X154970871Y-127621339D01*
G37*
X154965400Y-112369600D02*
X154000200Y-112395000D01*
X154000534Y-112090534D01*
X154228800Y-112090200D01*
X154432000Y-112014000D01*
X154584400Y-111937800D01*
X154813000Y-111683800D01*
X154965400Y-111480600D01*
X154965400Y-112369600D01*
G36*
X154965400Y-112369600D02*
G01*
X154000200Y-112395000D01*
X154000534Y-112090534D01*
X154228800Y-112090200D01*
X154432000Y-112014000D01*
X154584400Y-111937800D01*
X154813000Y-111683800D01*
X154965400Y-111480600D01*
X154965400Y-112369600D01*
G37*
X145953871Y-125436939D02*
X145522071Y-125792539D01*
X145395071Y-126249739D01*
X145395071Y-126579939D01*
X145572871Y-126986339D01*
X145776071Y-127189539D01*
X146030071Y-127316539D01*
X146360605Y-127342273D01*
X146360271Y-127646739D01*
X143820271Y-127621339D01*
X143820605Y-127342273D01*
X144048871Y-127341939D01*
X144328271Y-127240339D01*
X144582271Y-127037139D01*
X144810871Y-126605339D01*
X144810871Y-126122739D01*
X144607671Y-125741739D01*
X144150471Y-125411539D01*
X145953871Y-125436939D01*
G36*
X145953871Y-125436939D02*
G01*
X145522071Y-125792539D01*
X145395071Y-126249739D01*
X145395071Y-126579939D01*
X145572871Y-126986339D01*
X145776071Y-127189539D01*
X146030071Y-127316539D01*
X146360605Y-127342273D01*
X146360271Y-127646739D01*
X143820271Y-127621339D01*
X143820605Y-127342273D01*
X144048871Y-127341939D01*
X144328271Y-127240339D01*
X144582271Y-127037139D01*
X144810871Y-126605339D01*
X144810871Y-126122739D01*
X144607671Y-125741739D01*
X144150471Y-125411539D01*
X145953871Y-125436939D01*
G37*
X140899271Y-125436939D02*
X140873871Y-125436939D01*
X140442071Y-125792539D01*
X140284200Y-126249739D01*
X140315071Y-126579939D01*
X140492871Y-126986339D01*
X140721471Y-127189539D01*
X140975471Y-127316539D01*
X141306005Y-127342273D01*
X141305671Y-127646739D01*
X138765671Y-127621339D01*
X138766005Y-127342273D01*
X138994271Y-127341939D01*
X139273671Y-127240339D01*
X139527671Y-127037139D01*
X139756271Y-126605339D01*
X139756271Y-126122739D01*
X139553071Y-125741739D01*
X139095871Y-125411539D01*
X140899271Y-125436939D01*
G36*
X140899271Y-125436939D02*
G01*
X140873871Y-125436939D01*
X140442071Y-125792539D01*
X140284200Y-126249739D01*
X140315071Y-126579939D01*
X140492871Y-126986339D01*
X140721471Y-127189539D01*
X140975471Y-127316539D01*
X141306005Y-127342273D01*
X141305671Y-127646739D01*
X138765671Y-127621339D01*
X138766005Y-127342273D01*
X138994271Y-127341939D01*
X139273671Y-127240339D01*
X139527671Y-127037139D01*
X139756271Y-126605339D01*
X139756271Y-126122739D01*
X139553071Y-125741739D01*
X139095871Y-125411539D01*
X140899271Y-125436939D01*
G37*
X143439271Y-125436939D02*
X143388471Y-125436939D01*
X142956671Y-125792539D01*
X142849600Y-126238000D01*
X142855071Y-126605339D01*
X143032871Y-127011739D01*
X143261471Y-127189539D01*
X143515471Y-127316539D01*
X143846005Y-127342273D01*
X143845671Y-127646739D01*
X141305671Y-127621339D01*
X141306005Y-127342273D01*
X141534271Y-127341939D01*
X141813671Y-127240339D01*
X142067671Y-127037139D01*
X142296271Y-126605339D01*
X142296271Y-126122739D01*
X142093071Y-125741739D01*
X141635871Y-125411539D01*
X143439271Y-125436939D01*
G36*
X143439271Y-125436939D02*
G01*
X143388471Y-125436939D01*
X142956671Y-125792539D01*
X142849600Y-126238000D01*
X142855071Y-126605339D01*
X143032871Y-127011739D01*
X143261471Y-127189539D01*
X143515471Y-127316539D01*
X143846005Y-127342273D01*
X143845671Y-127646739D01*
X141305671Y-127621339D01*
X141306005Y-127342273D01*
X141534271Y-127341939D01*
X141813671Y-127240339D01*
X142067671Y-127037139D01*
X142296271Y-126605339D01*
X142296271Y-126122739D01*
X142093071Y-125741739D01*
X141635871Y-125411539D01*
X143439271Y-125436939D01*
G37*
X148493871Y-125436939D02*
X148468471Y-125462339D01*
X148036671Y-125817939D01*
X147935071Y-126249739D01*
X147935071Y-126579939D01*
X148112871Y-126986339D01*
X148316071Y-127189539D01*
X148570071Y-127316539D01*
X148900605Y-127342273D01*
X148900271Y-127646739D01*
X146360271Y-127621339D01*
X146360605Y-127342273D01*
X146588871Y-127341939D01*
X146868271Y-127240339D01*
X147122271Y-127037139D01*
X147350871Y-126605339D01*
X147350871Y-126122739D01*
X147147671Y-125741739D01*
X146690471Y-125411539D01*
X148493871Y-125436939D01*
G36*
X148493871Y-125436939D02*
G01*
X148468471Y-125462339D01*
X148036671Y-125817939D01*
X147935071Y-126249739D01*
X147935071Y-126579939D01*
X148112871Y-126986339D01*
X148316071Y-127189539D01*
X148570071Y-127316539D01*
X148900605Y-127342273D01*
X148900271Y-127646739D01*
X146360271Y-127621339D01*
X146360605Y-127342273D01*
X146588871Y-127341939D01*
X146868271Y-127240339D01*
X147122271Y-127037139D01*
X147350871Y-126605339D01*
X147350871Y-126122739D01*
X147147671Y-125741739D01*
X146690471Y-125411539D01*
X148493871Y-125436939D01*
G37*
X151059271Y-125436939D02*
X151033871Y-125436939D01*
X150602071Y-125792539D01*
X150444200Y-126249739D01*
X150475071Y-126605339D01*
X150652871Y-127011739D01*
X150881471Y-127189539D01*
X151135471Y-127316539D01*
X151466005Y-127342273D01*
X151465671Y-127646739D01*
X148925671Y-127621339D01*
X148926005Y-127342273D01*
X149154271Y-127341939D01*
X149433671Y-127240339D01*
X149687671Y-127037139D01*
X149916271Y-126605339D01*
X149916271Y-126122739D01*
X149713071Y-125741739D01*
X149255871Y-125411539D01*
X151059271Y-125436939D01*
G36*
X151059271Y-125436939D02*
G01*
X151033871Y-125436939D01*
X150602071Y-125792539D01*
X150444200Y-126249739D01*
X150475071Y-126605339D01*
X150652871Y-127011739D01*
X150881471Y-127189539D01*
X151135471Y-127316539D01*
X151466005Y-127342273D01*
X151465671Y-127646739D01*
X148925671Y-127621339D01*
X148926005Y-127342273D01*
X149154271Y-127341939D01*
X149433671Y-127240339D01*
X149687671Y-127037139D01*
X149916271Y-126605339D01*
X149916271Y-126122739D01*
X149713071Y-125741739D01*
X149255871Y-125411539D01*
X151059271Y-125436939D01*
G37*
X153599271Y-125436939D02*
X153573871Y-125436939D01*
X153142071Y-125792539D01*
X153009600Y-126249739D01*
X153015071Y-126605339D01*
X153192871Y-127011739D01*
X153421471Y-127189539D01*
X153675471Y-127316539D01*
X154006005Y-127342273D01*
X154005671Y-127646739D01*
X151465671Y-127621339D01*
X151466005Y-127342273D01*
X151694271Y-127341939D01*
X151973671Y-127240339D01*
X152227671Y-127037139D01*
X152456271Y-126605339D01*
X152456271Y-126122739D01*
X152253071Y-125741739D01*
X151795871Y-125411539D01*
X153599271Y-125436939D01*
G36*
X153599271Y-125436939D02*
G01*
X153573871Y-125436939D01*
X153142071Y-125792539D01*
X153009600Y-126249739D01*
X153015071Y-126605339D01*
X153192871Y-127011739D01*
X153421471Y-127189539D01*
X153675471Y-127316539D01*
X154006005Y-127342273D01*
X154005671Y-127646739D01*
X151465671Y-127621339D01*
X151466005Y-127342273D01*
X151694271Y-127341939D01*
X151973671Y-127240339D01*
X152227671Y-127037139D01*
X152456271Y-126605339D01*
X152456271Y-126122739D01*
X152253071Y-125741739D01*
X151795871Y-125411539D01*
X153599271Y-125436939D01*
G37*
X140893800Y-110185200D02*
X140893800Y-110210600D01*
X140462000Y-110566200D01*
X140335000Y-110998000D01*
X140335000Y-111328200D01*
X140512800Y-111734600D01*
X140716000Y-111937800D01*
X140970000Y-112064800D01*
X141300534Y-112090534D01*
X141300200Y-112395000D01*
X138760200Y-112369600D01*
X138760534Y-112090534D01*
X138988800Y-112090200D01*
X139268200Y-111988600D01*
X139522200Y-111785400D01*
X139750800Y-111353600D01*
X139750800Y-110871000D01*
X139547600Y-110490000D01*
X139090400Y-110159800D01*
X140893800Y-110185200D01*
G36*
X140893800Y-110185200D02*
G01*
X140893800Y-110210600D01*
X140462000Y-110566200D01*
X140335000Y-110998000D01*
X140335000Y-111328200D01*
X140512800Y-111734600D01*
X140716000Y-111937800D01*
X140970000Y-112064800D01*
X141300534Y-112090534D01*
X141300200Y-112395000D01*
X138760200Y-112369600D01*
X138760534Y-112090534D01*
X138988800Y-112090200D01*
X139268200Y-111988600D01*
X139522200Y-111785400D01*
X139750800Y-111353600D01*
X139750800Y-110871000D01*
X139547600Y-110490000D01*
X139090400Y-110159800D01*
X140893800Y-110185200D01*
G37*
X143433800Y-110185200D02*
X143433800Y-110210600D01*
X143002000Y-110566200D01*
X142875000Y-110998000D01*
X142875000Y-111328200D01*
X143052800Y-111734600D01*
X143256000Y-111937800D01*
X143510000Y-112064800D01*
X143840534Y-112090534D01*
X143840200Y-112395000D01*
X141300200Y-112369600D01*
X141300534Y-112090534D01*
X141528800Y-112090200D01*
X141808200Y-111988600D01*
X142062200Y-111785400D01*
X142290800Y-111353600D01*
X142290800Y-110871000D01*
X142087600Y-110490000D01*
X141630400Y-110159800D01*
X143433800Y-110185200D01*
G36*
X143433800Y-110185200D02*
G01*
X143433800Y-110210600D01*
X143002000Y-110566200D01*
X142875000Y-110998000D01*
X142875000Y-111328200D01*
X143052800Y-111734600D01*
X143256000Y-111937800D01*
X143510000Y-112064800D01*
X143840534Y-112090534D01*
X143840200Y-112395000D01*
X141300200Y-112369600D01*
X141300534Y-112090534D01*
X141528800Y-112090200D01*
X141808200Y-111988600D01*
X142062200Y-111785400D01*
X142290800Y-111353600D01*
X142290800Y-110871000D01*
X142087600Y-110490000D01*
X141630400Y-110159800D01*
X143433800Y-110185200D01*
G37*
X145948400Y-110185200D02*
X145948400Y-110210600D01*
X145516600Y-110566200D01*
X145389600Y-110998000D01*
X145389600Y-111328200D01*
X145567400Y-111734600D01*
X145770600Y-111937800D01*
X146024600Y-112064800D01*
X146355134Y-112090534D01*
X146354800Y-112395000D01*
X143814800Y-112369600D01*
X143815134Y-112090534D01*
X144043400Y-112090200D01*
X144322800Y-111988600D01*
X144576800Y-111785400D01*
X144805400Y-111353600D01*
X144805400Y-110871000D01*
X144602200Y-110490000D01*
X144145000Y-110159800D01*
X145948400Y-110185200D01*
G36*
X145948400Y-110185200D02*
G01*
X145948400Y-110210600D01*
X145516600Y-110566200D01*
X145389600Y-110998000D01*
X145389600Y-111328200D01*
X145567400Y-111734600D01*
X145770600Y-111937800D01*
X146024600Y-112064800D01*
X146355134Y-112090534D01*
X146354800Y-112395000D01*
X143814800Y-112369600D01*
X143815134Y-112090534D01*
X144043400Y-112090200D01*
X144322800Y-111988600D01*
X144576800Y-111785400D01*
X144805400Y-111353600D01*
X144805400Y-110871000D01*
X144602200Y-110490000D01*
X144145000Y-110159800D01*
X145948400Y-110185200D01*
G37*
X148488400Y-110185200D02*
X148488400Y-110210600D01*
X148056600Y-110566200D01*
X147929600Y-110998000D01*
X147929600Y-111328200D01*
X148107400Y-111734600D01*
X148310600Y-111937800D01*
X148564600Y-112064800D01*
X148895134Y-112090534D01*
X148894800Y-112395000D01*
X146354800Y-112369600D01*
X146355134Y-112090534D01*
X146583400Y-112090200D01*
X146862800Y-111988600D01*
X147116800Y-111785400D01*
X147345400Y-111353600D01*
X147345400Y-110871000D01*
X147142200Y-110490000D01*
X146685000Y-110159800D01*
X148488400Y-110185200D01*
G36*
X148488400Y-110185200D02*
G01*
X148488400Y-110210600D01*
X148056600Y-110566200D01*
X147929600Y-110998000D01*
X147929600Y-111328200D01*
X148107400Y-111734600D01*
X148310600Y-111937800D01*
X148564600Y-112064800D01*
X148895134Y-112090534D01*
X148894800Y-112395000D01*
X146354800Y-112369600D01*
X146355134Y-112090534D01*
X146583400Y-112090200D01*
X146862800Y-111988600D01*
X147116800Y-111785400D01*
X147345400Y-111353600D01*
X147345400Y-110871000D01*
X147142200Y-110490000D01*
X146685000Y-110159800D01*
X148488400Y-110185200D01*
G37*
X151053800Y-110185200D02*
X151053800Y-110210600D01*
X150622000Y-110566200D01*
X150495000Y-110998000D01*
X150495000Y-111328200D01*
X150672800Y-111734600D01*
X150876000Y-111937800D01*
X151130000Y-112064800D01*
X151460534Y-112090534D01*
X151460200Y-112395000D01*
X148920200Y-112369600D01*
X148920534Y-112090534D01*
X149148800Y-112090200D01*
X149428200Y-111988600D01*
X149682200Y-111785400D01*
X149910800Y-111353600D01*
X149910800Y-110871000D01*
X149707600Y-110490000D01*
X149250400Y-110159800D01*
X151053800Y-110185200D01*
G36*
X151053800Y-110185200D02*
G01*
X151053800Y-110210600D01*
X150622000Y-110566200D01*
X150495000Y-110998000D01*
X150495000Y-111328200D01*
X150672800Y-111734600D01*
X150876000Y-111937800D01*
X151130000Y-112064800D01*
X151460534Y-112090534D01*
X151460200Y-112395000D01*
X148920200Y-112369600D01*
X148920534Y-112090534D01*
X149148800Y-112090200D01*
X149428200Y-111988600D01*
X149682200Y-111785400D01*
X149910800Y-111353600D01*
X149910800Y-110871000D01*
X149707600Y-110490000D01*
X149250400Y-110159800D01*
X151053800Y-110185200D01*
G37*
X153593800Y-110185200D02*
X153593800Y-110210600D01*
X153162000Y-110566200D01*
X153035000Y-110998000D01*
X153035000Y-111328200D01*
X153212800Y-111734600D01*
X153416000Y-111937800D01*
X153670000Y-112064800D01*
X154000534Y-112090534D01*
X154000200Y-112395000D01*
X151460200Y-112369600D01*
X151460534Y-112090534D01*
X151688800Y-112090200D01*
X151968200Y-111988600D01*
X152222200Y-111785400D01*
X152450800Y-111353600D01*
X152450800Y-110871000D01*
X152247600Y-110490000D01*
X151790400Y-110159800D01*
X153593800Y-110185200D01*
G36*
X153593800Y-110185200D02*
G01*
X153593800Y-110210600D01*
X153162000Y-110566200D01*
X153035000Y-110998000D01*
X153035000Y-111328200D01*
X153212800Y-111734600D01*
X153416000Y-111937800D01*
X153670000Y-112064800D01*
X154000534Y-112090534D01*
X154000200Y-112395000D01*
X151460200Y-112369600D01*
X151460534Y-112090534D01*
X151688800Y-112090200D01*
X151968200Y-111988600D01*
X152222200Y-111785400D01*
X152450800Y-111353600D01*
X152450800Y-110871000D01*
X152247600Y-110490000D01*
X151790400Y-110159800D01*
X153593800Y-110185200D01*
G37*
X156863171Y-127646739D02*
X154970871Y-127621339D01*
X154971205Y-126376739D01*
X154970871Y-126122739D01*
X154767671Y-125716339D01*
X154386671Y-125436939D01*
X154005671Y-125385805D01*
X151465671Y-125410871D01*
X148926005Y-125411205D01*
X141306005Y-125411205D01*
X138918071Y-125386139D01*
X138435471Y-125386139D01*
X137952871Y-125690939D01*
X137775071Y-126122739D01*
X137775071Y-126605339D01*
X137978271Y-126960939D01*
X138257671Y-127291139D01*
X138766005Y-127393073D01*
X138765671Y-127621339D01*
X135857371Y-127646739D01*
X135870071Y-125106739D01*
X156875871Y-125106739D01*
X156863171Y-127646739D01*
G36*
X156863171Y-127646739D02*
G01*
X154970871Y-127621339D01*
X154971205Y-126376739D01*
X154970871Y-126122739D01*
X154767671Y-125716339D01*
X154386671Y-125436939D01*
X154005671Y-125385805D01*
X151465671Y-125410871D01*
X148926005Y-125411205D01*
X141306005Y-125411205D01*
X138918071Y-125386139D01*
X138435471Y-125386139D01*
X137952871Y-125690939D01*
X137775071Y-126122739D01*
X137775071Y-126605339D01*
X137978271Y-126960939D01*
X138257671Y-127291139D01*
X138766005Y-127393073D01*
X138765671Y-127621339D01*
X135857371Y-127646739D01*
X135870071Y-125106739D01*
X156875871Y-125106739D01*
X156863171Y-127646739D01*
G37*
X156857700Y-112395000D02*
X154965400Y-112369600D01*
X154965734Y-111125000D01*
X154965400Y-110871000D01*
X154762200Y-110464600D01*
X154381200Y-110210600D01*
X154000200Y-110159466D01*
X151460200Y-110159132D01*
X148920534Y-110159466D01*
X141300534Y-110159466D01*
X138912600Y-110134400D01*
X138480800Y-110159800D01*
X137998200Y-110464600D01*
X137769600Y-110871000D01*
X137769600Y-111353600D01*
X137972800Y-111709200D01*
X138252200Y-112039400D01*
X138760534Y-112141334D01*
X138760200Y-112369600D01*
X135890000Y-112395000D01*
X135864600Y-109855000D01*
X156870400Y-109855000D01*
X156857700Y-112395000D01*
G36*
X156857700Y-112395000D02*
G01*
X154965400Y-112369600D01*
X154965734Y-111125000D01*
X154965400Y-110871000D01*
X154762200Y-110464600D01*
X154381200Y-110210600D01*
X154000200Y-110159466D01*
X151460200Y-110159132D01*
X148920534Y-110159466D01*
X141300534Y-110159466D01*
X138912600Y-110134400D01*
X138480800Y-110159800D01*
X137998200Y-110464600D01*
X137769600Y-110871000D01*
X137769600Y-111353600D01*
X137972800Y-111709200D01*
X138252200Y-112039400D01*
X138760534Y-112141334D01*
X138760200Y-112369600D01*
X135890000Y-112395000D01*
X135864600Y-109855000D01*
X156870400Y-109855000D01*
X156857700Y-112395000D01*
G37*
D14*
%TO.C,C1*%
X180142175Y-74881000D02*
X179642175Y-74881000D01*
X179892175Y-75131000D02*
X179892175Y-74631000D01*
X177337400Y-75986000D02*
X177337400Y-70826000D01*
X177297400Y-75986000D02*
X177297400Y-70826000D01*
X177257400Y-75985000D02*
X177257400Y-70827000D01*
X177217400Y-75984000D02*
X177217400Y-70828000D01*
X177177400Y-75982000D02*
X177177400Y-70830000D01*
X177137400Y-75979000D02*
X177137400Y-70833000D01*
X177097400Y-75975000D02*
X177097400Y-74446000D01*
X177097400Y-72366000D02*
X177097400Y-70837000D01*
X177057400Y-75971000D02*
X177057400Y-74446000D01*
X177057400Y-72366000D02*
X177057400Y-70841000D01*
X177017400Y-75967000D02*
X177017400Y-74446000D01*
X177017400Y-72366000D02*
X177017400Y-70845000D01*
X176977400Y-75962000D02*
X176977400Y-74446000D01*
X176977400Y-72366000D02*
X176977400Y-70850000D01*
X176937400Y-75956000D02*
X176937400Y-74446000D01*
X176937400Y-72366000D02*
X176937400Y-70856000D01*
X176897400Y-75949000D02*
X176897400Y-74446000D01*
X176897400Y-72366000D02*
X176897400Y-70863000D01*
X176857400Y-75942000D02*
X176857400Y-74446000D01*
X176857400Y-72366000D02*
X176857400Y-70870000D01*
X176817400Y-75934000D02*
X176817400Y-74446000D01*
X176817400Y-72366000D02*
X176817400Y-70878000D01*
X176777400Y-75926000D02*
X176777400Y-74446000D01*
X176777400Y-72366000D02*
X176777400Y-70886000D01*
X176737400Y-75917000D02*
X176737400Y-74446000D01*
X176737400Y-72366000D02*
X176737400Y-70895000D01*
X176697400Y-75907000D02*
X176697400Y-74446000D01*
X176697400Y-72366000D02*
X176697400Y-70905000D01*
X176657400Y-75897000D02*
X176657400Y-74446000D01*
X176657400Y-72366000D02*
X176657400Y-70915000D01*
X176616400Y-75886000D02*
X176616400Y-74446000D01*
X176616400Y-72366000D02*
X176616400Y-70926000D01*
X176576400Y-75874000D02*
X176576400Y-74446000D01*
X176576400Y-72366000D02*
X176576400Y-70938000D01*
X176536400Y-75861000D02*
X176536400Y-74446000D01*
X176536400Y-72366000D02*
X176536400Y-70951000D01*
X176496400Y-75848000D02*
X176496400Y-74446000D01*
X176496400Y-72366000D02*
X176496400Y-70964000D01*
X176456400Y-75834000D02*
X176456400Y-74446000D01*
X176456400Y-72366000D02*
X176456400Y-70978000D01*
X176416400Y-75820000D02*
X176416400Y-74446000D01*
X176416400Y-72366000D02*
X176416400Y-70992000D01*
X176376400Y-75804000D02*
X176376400Y-74446000D01*
X176376400Y-72366000D02*
X176376400Y-71008000D01*
X176336400Y-75788000D02*
X176336400Y-74446000D01*
X176336400Y-72366000D02*
X176336400Y-71024000D01*
X176296400Y-75771000D02*
X176296400Y-74446000D01*
X176296400Y-72366000D02*
X176296400Y-71041000D01*
X176256400Y-75754000D02*
X176256400Y-74446000D01*
X176256400Y-72366000D02*
X176256400Y-71058000D01*
X176216400Y-75735000D02*
X176216400Y-74446000D01*
X176216400Y-72366000D02*
X176216400Y-71077000D01*
X176176400Y-75716000D02*
X176176400Y-74446000D01*
X176176400Y-72366000D02*
X176176400Y-71096000D01*
X176136400Y-75696000D02*
X176136400Y-74446000D01*
X176136400Y-72366000D02*
X176136400Y-71116000D01*
X176096400Y-75674000D02*
X176096400Y-74446000D01*
X176096400Y-72366000D02*
X176096400Y-71138000D01*
X176056400Y-75653000D02*
X176056400Y-74446000D01*
X176056400Y-72366000D02*
X176056400Y-71159000D01*
X176016400Y-75630000D02*
X176016400Y-74446000D01*
X176016400Y-72366000D02*
X176016400Y-71182000D01*
X175976400Y-75606000D02*
X175976400Y-74446000D01*
X175976400Y-72366000D02*
X175976400Y-71206000D01*
X175936400Y-75581000D02*
X175936400Y-74446000D01*
X175936400Y-72366000D02*
X175936400Y-71231000D01*
X175896400Y-75555000D02*
X175896400Y-74446000D01*
X175896400Y-72366000D02*
X175896400Y-71257000D01*
X175856400Y-75528000D02*
X175856400Y-74446000D01*
X175856400Y-72366000D02*
X175856400Y-71284000D01*
X175816400Y-75501000D02*
X175816400Y-74446000D01*
X175816400Y-72366000D02*
X175816400Y-71311000D01*
X175776400Y-75471000D02*
X175776400Y-74446000D01*
X175776400Y-72366000D02*
X175776400Y-71341000D01*
X175736400Y-75441000D02*
X175736400Y-74446000D01*
X175736400Y-72366000D02*
X175736400Y-71371000D01*
X175696400Y-75410000D02*
X175696400Y-74446000D01*
X175696400Y-72366000D02*
X175696400Y-71402000D01*
X175656400Y-75377000D02*
X175656400Y-74446000D01*
X175656400Y-72366000D02*
X175656400Y-71435000D01*
X175616400Y-75343000D02*
X175616400Y-74446000D01*
X175616400Y-72366000D02*
X175616400Y-71469000D01*
X175576400Y-75307000D02*
X175576400Y-74446000D01*
X175576400Y-72366000D02*
X175576400Y-71505000D01*
X175536400Y-75270000D02*
X175536400Y-74446000D01*
X175536400Y-72366000D02*
X175536400Y-71542000D01*
X175496400Y-75232000D02*
X175496400Y-74446000D01*
X175496400Y-72366000D02*
X175496400Y-71580000D01*
X175456400Y-75191000D02*
X175456400Y-74446000D01*
X175456400Y-72366000D02*
X175456400Y-71621000D01*
X175416400Y-75149000D02*
X175416400Y-74446000D01*
X175416400Y-72366000D02*
X175416400Y-71663000D01*
X175376400Y-75105000D02*
X175376400Y-74446000D01*
X175376400Y-72366000D02*
X175376400Y-71707000D01*
X175336400Y-75059000D02*
X175336400Y-74446000D01*
X175336400Y-72366000D02*
X175336400Y-71753000D01*
X175296400Y-75011000D02*
X175296400Y-74446000D01*
X175296400Y-72366000D02*
X175296400Y-71801000D01*
X175256400Y-74960000D02*
X175256400Y-74446000D01*
X175256400Y-72366000D02*
X175256400Y-71852000D01*
X175216400Y-74906000D02*
X175216400Y-74446000D01*
X175216400Y-72366000D02*
X175216400Y-71906000D01*
X175176400Y-74849000D02*
X175176400Y-74446000D01*
X175176400Y-72366000D02*
X175176400Y-71963000D01*
X175136400Y-74789000D02*
X175136400Y-74446000D01*
X175136400Y-72366000D02*
X175136400Y-72023000D01*
X175096400Y-74725000D02*
X175096400Y-74446000D01*
X175096400Y-72366000D02*
X175096400Y-72087000D01*
X175056400Y-74657000D02*
X175056400Y-74446000D01*
X175056400Y-72366000D02*
X175056400Y-72155000D01*
X175016400Y-74584000D02*
X175016400Y-72228000D01*
X174976400Y-74504000D02*
X174976400Y-72308000D01*
X174936400Y-74417000D02*
X174936400Y-72395000D01*
X174896400Y-74321000D02*
X174896400Y-72491000D01*
X174856400Y-74211000D02*
X174856400Y-72601000D01*
X174816400Y-74083000D02*
X174816400Y-72729000D01*
X174776400Y-73924000D02*
X174776400Y-72888000D01*
X174736400Y-73690000D02*
X174736400Y-73122000D01*
X179957400Y-73406000D02*
G75*
G03*
X179957400Y-73406000I-2620000J0D01*
G01*
%TO.C,BZ1*%
X151642000Y-71130000D02*
G75*
G03*
X151642000Y-71130000I-6100000J0D01*
G01*
%TO.C,J8*%
X173712000Y-76918000D02*
X173712000Y-75668000D01*
X173422000Y-76628000D02*
X173422000Y-70658000D01*
X173422000Y-70658000D02*
X163302000Y-70658000D01*
X173412000Y-76618000D02*
X173412000Y-75868000D01*
X173412000Y-75868000D02*
X171612000Y-75868000D01*
X173412000Y-74368000D02*
X172662000Y-74368000D01*
X172662000Y-74368000D02*
X172662000Y-71418000D01*
X172662000Y-71418000D02*
X168362000Y-71418000D01*
X172462000Y-76918000D02*
X173712000Y-76918000D01*
X171612000Y-76618000D02*
X173412000Y-76618000D01*
X171612000Y-75868000D02*
X171612000Y-76618000D01*
X170112000Y-76618000D02*
X170112000Y-75868000D01*
X170112000Y-75868000D02*
X166612000Y-75868000D01*
X166612000Y-76618000D02*
X170112000Y-76618000D01*
X166612000Y-75868000D02*
X166612000Y-76618000D01*
X165112000Y-76618000D02*
X165112000Y-75868000D01*
X165112000Y-75868000D02*
X163312000Y-75868000D01*
X164062000Y-74368000D02*
X164062000Y-71418000D01*
X164062000Y-71418000D02*
X168362000Y-71418000D01*
X163312000Y-76618000D02*
X165112000Y-76618000D01*
X163312000Y-75868000D02*
X163312000Y-76618000D01*
X163312000Y-74368000D02*
X164062000Y-74368000D01*
X163302000Y-76628000D02*
X173422000Y-76628000D01*
X163302000Y-70658000D02*
X163302000Y-76628000D01*
%TO.C,C2*%
X143047425Y-54303400D02*
X143547425Y-54303400D01*
X143297425Y-54053400D02*
X143297425Y-54553400D01*
X145852200Y-53198400D02*
X145852200Y-58358400D01*
X145892200Y-53198400D02*
X145892200Y-58358400D01*
X145932200Y-53199400D02*
X145932200Y-58357400D01*
X145972200Y-53200400D02*
X145972200Y-58356400D01*
X146012200Y-53202400D02*
X146012200Y-58354400D01*
X146052200Y-53205400D02*
X146052200Y-58351400D01*
X146092200Y-53209400D02*
X146092200Y-54738400D01*
X146092200Y-56818400D02*
X146092200Y-58347400D01*
X146132200Y-53213400D02*
X146132200Y-54738400D01*
X146132200Y-56818400D02*
X146132200Y-58343400D01*
X146172200Y-53217400D02*
X146172200Y-54738400D01*
X146172200Y-56818400D02*
X146172200Y-58339400D01*
X146212200Y-53222400D02*
X146212200Y-54738400D01*
X146212200Y-56818400D02*
X146212200Y-58334400D01*
X146252200Y-53228400D02*
X146252200Y-54738400D01*
X146252200Y-56818400D02*
X146252200Y-58328400D01*
X146292200Y-53235400D02*
X146292200Y-54738400D01*
X146292200Y-56818400D02*
X146292200Y-58321400D01*
X146332200Y-53242400D02*
X146332200Y-54738400D01*
X146332200Y-56818400D02*
X146332200Y-58314400D01*
X146372200Y-53250400D02*
X146372200Y-54738400D01*
X146372200Y-56818400D02*
X146372200Y-58306400D01*
X146412200Y-53258400D02*
X146412200Y-54738400D01*
X146412200Y-56818400D02*
X146412200Y-58298400D01*
X146452200Y-53267400D02*
X146452200Y-54738400D01*
X146452200Y-56818400D02*
X146452200Y-58289400D01*
X146492200Y-53277400D02*
X146492200Y-54738400D01*
X146492200Y-56818400D02*
X146492200Y-58279400D01*
X146532200Y-53287400D02*
X146532200Y-54738400D01*
X146532200Y-56818400D02*
X146532200Y-58269400D01*
X146573200Y-53298400D02*
X146573200Y-54738400D01*
X146573200Y-56818400D02*
X146573200Y-58258400D01*
X146613200Y-53310400D02*
X146613200Y-54738400D01*
X146613200Y-56818400D02*
X146613200Y-58246400D01*
X146653200Y-53323400D02*
X146653200Y-54738400D01*
X146653200Y-56818400D02*
X146653200Y-58233400D01*
X146693200Y-53336400D02*
X146693200Y-54738400D01*
X146693200Y-56818400D02*
X146693200Y-58220400D01*
X146733200Y-53350400D02*
X146733200Y-54738400D01*
X146733200Y-56818400D02*
X146733200Y-58206400D01*
X146773200Y-53364400D02*
X146773200Y-54738400D01*
X146773200Y-56818400D02*
X146773200Y-58192400D01*
X146813200Y-53380400D02*
X146813200Y-54738400D01*
X146813200Y-56818400D02*
X146813200Y-58176400D01*
X146853200Y-53396400D02*
X146853200Y-54738400D01*
X146853200Y-56818400D02*
X146853200Y-58160400D01*
X146893200Y-53413400D02*
X146893200Y-54738400D01*
X146893200Y-56818400D02*
X146893200Y-58143400D01*
X146933200Y-53430400D02*
X146933200Y-54738400D01*
X146933200Y-56818400D02*
X146933200Y-58126400D01*
X146973200Y-53449400D02*
X146973200Y-54738400D01*
X146973200Y-56818400D02*
X146973200Y-58107400D01*
X147013200Y-53468400D02*
X147013200Y-54738400D01*
X147013200Y-56818400D02*
X147013200Y-58088400D01*
X147053200Y-53488400D02*
X147053200Y-54738400D01*
X147053200Y-56818400D02*
X147053200Y-58068400D01*
X147093200Y-53510400D02*
X147093200Y-54738400D01*
X147093200Y-56818400D02*
X147093200Y-58046400D01*
X147133200Y-53531400D02*
X147133200Y-54738400D01*
X147133200Y-56818400D02*
X147133200Y-58025400D01*
X147173200Y-53554400D02*
X147173200Y-54738400D01*
X147173200Y-56818400D02*
X147173200Y-58002400D01*
X147213200Y-53578400D02*
X147213200Y-54738400D01*
X147213200Y-56818400D02*
X147213200Y-57978400D01*
X147253200Y-53603400D02*
X147253200Y-54738400D01*
X147253200Y-56818400D02*
X147253200Y-57953400D01*
X147293200Y-53629400D02*
X147293200Y-54738400D01*
X147293200Y-56818400D02*
X147293200Y-57927400D01*
X147333200Y-53656400D02*
X147333200Y-54738400D01*
X147333200Y-56818400D02*
X147333200Y-57900400D01*
X147373200Y-53683400D02*
X147373200Y-54738400D01*
X147373200Y-56818400D02*
X147373200Y-57873400D01*
X147413200Y-53713400D02*
X147413200Y-54738400D01*
X147413200Y-56818400D02*
X147413200Y-57843400D01*
X147453200Y-53743400D02*
X147453200Y-54738400D01*
X147453200Y-56818400D02*
X147453200Y-57813400D01*
X147493200Y-53774400D02*
X147493200Y-54738400D01*
X147493200Y-56818400D02*
X147493200Y-57782400D01*
X147533200Y-53807400D02*
X147533200Y-54738400D01*
X147533200Y-56818400D02*
X147533200Y-57749400D01*
X147573200Y-53841400D02*
X147573200Y-54738400D01*
X147573200Y-56818400D02*
X147573200Y-57715400D01*
X147613200Y-53877400D02*
X147613200Y-54738400D01*
X147613200Y-56818400D02*
X147613200Y-57679400D01*
X147653200Y-53914400D02*
X147653200Y-54738400D01*
X147653200Y-56818400D02*
X147653200Y-57642400D01*
X147693200Y-53952400D02*
X147693200Y-54738400D01*
X147693200Y-56818400D02*
X147693200Y-57604400D01*
X147733200Y-53993400D02*
X147733200Y-54738400D01*
X147733200Y-56818400D02*
X147733200Y-57563400D01*
X147773200Y-54035400D02*
X147773200Y-54738400D01*
X147773200Y-56818400D02*
X147773200Y-57521400D01*
X147813200Y-54079400D02*
X147813200Y-54738400D01*
X147813200Y-56818400D02*
X147813200Y-57477400D01*
X147853200Y-54125400D02*
X147853200Y-54738400D01*
X147853200Y-56818400D02*
X147853200Y-57431400D01*
X147893200Y-54173400D02*
X147893200Y-54738400D01*
X147893200Y-56818400D02*
X147893200Y-57383400D01*
X147933200Y-54224400D02*
X147933200Y-54738400D01*
X147933200Y-56818400D02*
X147933200Y-57332400D01*
X147973200Y-54278400D02*
X147973200Y-54738400D01*
X147973200Y-56818400D02*
X147973200Y-57278400D01*
X148013200Y-54335400D02*
X148013200Y-54738400D01*
X148013200Y-56818400D02*
X148013200Y-57221400D01*
X148053200Y-54395400D02*
X148053200Y-54738400D01*
X148053200Y-56818400D02*
X148053200Y-57161400D01*
X148093200Y-54459400D02*
X148093200Y-54738400D01*
X148093200Y-56818400D02*
X148093200Y-57097400D01*
X148133200Y-54527400D02*
X148133200Y-54738400D01*
X148133200Y-56818400D02*
X148133200Y-57029400D01*
X148173200Y-54600400D02*
X148173200Y-56956400D01*
X148213200Y-54680400D02*
X148213200Y-56876400D01*
X148253200Y-54767400D02*
X148253200Y-56789400D01*
X148293200Y-54863400D02*
X148293200Y-56693400D01*
X148333200Y-54973400D02*
X148333200Y-56583400D01*
X148373200Y-55101400D02*
X148373200Y-56455400D01*
X148413200Y-55260400D02*
X148413200Y-56296400D01*
X148453200Y-55494400D02*
X148453200Y-56062400D01*
X148472200Y-55778400D02*
G75*
G03*
X148472200Y-55778400I-2620000J0D01*
G01*
%TD*%
M02*
