M48
; DRILL file {KiCad 7.0.9} date 
; FORMAT={-:-/ absolute / inch / decimal}
; #@! TF.CreationDate,2024-03-01T15:43:32+09:00
; #@! TF.GenerationSoftware,Kicad,Pcbnew,7.0.9
; #@! TF.FileFunction,Plated,1,2,PTH
FMAT,2
INCH
; #@! TA.AperFunction,Plated,PTH,ViaDrill
T1C0.0157
; #@! TA.AperFunction,Plated,PTH,ComponentDrill
T2C0.0276
; #@! TA.AperFunction,Plated,PTH,ComponentDrill
T3C0.0300
; #@! TA.AperFunction,Plated,PTH,ComponentDrill
T4C0.0315
; #@! TA.AperFunction,Plated,PTH,ComponentDrill
T5C0.0354
; #@! TA.AperFunction,Plated,PTH,ComponentDrill
T6C0.0374
; #@! TA.AperFunction,Plated,PTH,ComponentDrill
T7C0.0394
; #@! TA.AperFunction,Plated,PTH,ComponentDrill
T8C0.0433
; #@! TA.AperFunction,Plated,PTH,ComponentDrill
T9C0.0669
%
G90
G05
T1
X4.68Y-2.58
X4.71Y-2.85
X4.71Y-2.98
X4.795Y-3.34
X4.98Y-3.0
X5.045Y-3.33
X5.05Y-3.65
X5.05Y-4.1
X5.08Y-2.8
X5.08Y-3.0
X5.106Y-2.25
X5.2Y-4.4
X5.2Y-4.65
X5.234Y-2.106
X5.256Y-2.868
X5.2765Y-2.568
X5.3083Y-2.6062
X5.354Y-2.121
X5.372Y-3.332
X5.385Y-2.235
X5.39Y-2.58
X5.39Y-3.395
X5.416Y-3.332
X5.46Y-4.01
X5.46Y-4.23
X5.46Y-4.885
X5.46Y-5.06
X5.475Y-2.235
X5.565Y-3.39
X5.57Y-2.66
X5.6Y-3.905
X5.6772Y-2.83
X5.69Y-5.395
X5.717Y-4.288
X5.725Y-4.09
X5.73Y-3.555
X5.746Y-2.256
X5.759Y-4.288
X5.79Y-3.93
X5.81Y-4.175
X5.81Y-4.845
X5.82Y-5.12
X5.854Y-2.098
X5.87Y-2.66
X5.875Y-5.295
X5.905Y-4.02
X5.935Y-5.455
X5.94Y-2.14
X5.97Y-5.665
X5.9845Y-2.684
X6.0Y-3.68
X6.016Y-2.6385
X6.02Y-1.99
X6.02Y-3.93
X6.055Y-4.205
X6.06Y-2.396
X6.1Y-5.51
X6.152Y-2.246
X6.155Y-5.325
X6.162Y-2.4
X6.1825Y-2.5825
X6.2Y-3.68
X6.215Y-3.395
X6.215Y-3.58
X6.215Y-3.895
X6.215Y-4.05
X6.218Y-3.2027
X6.234Y-2.582
X6.264Y-2.436
X6.28Y-3.782
X6.288Y-2.582
X6.3Y-5.22
X6.3Y-5.49
X6.305Y-2.345
X6.34Y-2.58
X6.34Y-4.44
X6.34Y-4.58
X6.345Y-3.395
X6.345Y-3.58
X6.345Y-4.265
X6.35Y-3.79
X6.36Y-3.682
X6.37Y-2.52
X6.395Y-5.64
X6.4Y-5.825
X6.405Y-3.1385
X6.41Y-2.78
X6.41Y-3.51
X6.425Y-5.355
X6.48Y-3.68
X6.48Y-4.775
X6.485Y-2.365
X6.51Y-5.175
X6.52Y-5.415
X6.52Y-5.56
X6.53Y-3.58
X6.56Y-4.53
X6.572Y-2.658
X6.595Y-4.925
X6.6Y-3.8
X6.6Y-4.1
X6.61Y-3.51
X6.63Y-2.835
X6.635Y-5.735
X6.685Y-2.545
X6.695Y-3.39
X6.714Y-3.332
X6.76Y-3.332
X6.765Y-2.695
X6.765Y-2.84
X6.765Y-4.88
X6.77Y-3.525
X6.795Y-5.165
X6.795Y-5.27
X6.795Y-5.56
X6.83Y-5.04
X6.835Y-2.63
X6.85Y-4.39
X6.885Y-5.75
X6.99Y-2.96
X7.03Y-3.61
X7.035Y-3.01
X7.065Y-3.08
X7.08Y-3.01
X7.098Y-2.576
X7.105Y-3.08
X7.105Y-3.255
X7.1212Y-2.9258
X7.125Y-3.01
X7.13Y-3.505
X7.14Y-5.275
X7.14Y-5.485
X7.145Y-3.08
X7.17Y-2.84
X7.2266Y-5.6516
X7.23Y-5.58
X7.23Y-5.755
X7.27Y-2.67
X7.29Y-3.17
X7.29Y-5.165
X7.31Y-5.07
X7.38Y-5.58
X7.385Y-2.875
X7.395Y-3.075
X7.415Y-5.495
X7.43Y-3.37
X7.43Y-4.96
X7.505Y-5.405
X7.51Y-2.805
X7.51Y-3.195
X7.51Y-5.09
X7.515Y-5.755
X7.525Y-5.525
X7.525Y-5.65
X7.585Y-2.935
X7.625Y-3.225
X7.625Y-3.325
X7.625Y-3.425
X7.625Y-3.525
X7.625Y-3.625
X7.625Y-3.725
X7.625Y-3.825
X7.625Y-3.925
X7.625Y-4.025
X7.625Y-4.125
X7.625Y-4.225
X7.625Y-4.325
X7.625Y-4.425
X7.625Y-4.525
X7.625Y-4.625
X7.625Y-4.725
X7.625Y-4.825
X7.625Y-4.925
X7.625Y-5.025
X7.625Y-5.125
X7.625Y-5.225
X7.625Y-5.325
X7.625Y-5.425
X7.625Y-5.525
X7.75Y-3.0
X7.85Y-3.25
X7.865Y-5.6
T2
X4.98Y-2.746
X4.98Y-2.846
X5.18Y-2.746
X5.18Y-2.846
T3
X4.93Y-2.6504
X4.93Y-2.9504
X5.03Y-2.6504
X5.03Y-2.9504
X5.13Y-2.6504
X5.13Y-2.9504
X5.23Y-2.6504
X5.23Y-2.9504
X5.8Y-5.22
X5.9Y-5.12
X6.0Y-5.22
X6.0Y-5.51
X6.1Y-5.41
X6.198Y-5.22
X6.2Y-5.51
X6.298Y-5.12
X6.398Y-5.22
T4
X5.693Y-2.196
X5.7914Y-2.196
X6.9326Y-2.89
X7.031Y-2.89
T5
X5.41Y-2.6504
X5.41Y-2.9504
T6
X5.7743Y-1.9424
X5.8595Y-1.9916
X5.9448Y-2.0408
X6.03Y-2.09
X6.2195Y-2.2016
X6.3048Y-2.2508
X6.39Y-2.3
X6.4245Y-4.432
X6.4245Y-4.5304
X6.4245Y-4.6289
X6.4245Y-4.7273
X6.4245Y-4.8257
X6.5279Y-3.18
X6.53Y-2.92
X6.589Y-2.4131
X6.6263Y-3.18
X6.6284Y-2.92
X6.6743Y-2.4624
X6.6995Y-4.432
X6.6995Y-4.5304
X6.6995Y-4.6289
X6.6995Y-4.7273
X6.6995Y-4.8257
X6.7Y-5.0681
X6.7Y-5.1666
X6.7Y-5.265
X6.7Y-5.3634
X6.7Y-5.4619
X6.7247Y-3.18
X6.7269Y-2.92
X6.7595Y-2.5116
X6.8231Y-3.18
X6.8448Y-2.5608
X6.9216Y-3.18
X6.93Y-2.61
X7.02Y-3.18
X7.1184Y-3.18
X7.2169Y-3.18
T7
X4.68Y-2.4004
X4.68Y-2.5004
X4.68Y-3.1004
X4.68Y-3.2004
X4.78Y-2.4004
X4.78Y-2.5004
X4.78Y-3.1004
X4.78Y-3.2004
X4.88Y-2.4004
X4.88Y-2.5004
X4.88Y-3.1004
X4.88Y-3.2004
X4.98Y-2.4004
X4.98Y-2.5004
X4.98Y-3.1004
X4.98Y-3.2004
X5.08Y-2.4004
X5.08Y-2.5004
X5.08Y-3.1004
X5.08Y-3.2004
X5.18Y-2.4004
X5.18Y-2.5004
X5.18Y-3.1004
X5.18Y-3.2004
X5.28Y-2.4004
X5.28Y-2.5004
X5.28Y-3.1004
X5.28Y-3.2004
X5.38Y-2.4004
X5.38Y-2.5004
X5.38Y-3.1004
X5.38Y-3.2004
X5.463Y-4.375
X5.463Y-4.975
X5.48Y-2.4004
X5.48Y-2.5004
X5.48Y-3.1004
X5.48Y-3.2004
X5.563Y-4.375
X5.563Y-4.975
X5.58Y-2.4004
X5.58Y-2.5004
X5.58Y-3.1004
X5.58Y-3.2004
X5.663Y-4.375
X5.663Y-4.975
X5.68Y-2.4004
X5.68Y-2.5004
X5.68Y-3.1004
X5.68Y-3.2004
X5.73Y-2.6508
X5.73Y-2.95
X5.763Y-4.375
X5.763Y-4.975
X5.78Y-2.4004
X5.78Y-2.5004
X5.78Y-3.1004
X5.78Y-3.2004
X5.863Y-4.375
X5.863Y-4.975
X5.88Y-2.4004
X5.88Y-2.5004
X5.88Y-3.1004
X5.88Y-3.2004
X5.963Y-4.375
X5.963Y-4.975
X5.98Y-2.4004
X5.98Y-2.5004
X5.98Y-3.1004
X5.98Y-3.2004
X6.063Y-4.375
X6.063Y-4.975
X6.18Y-2.68
X6.18Y-2.78
X6.18Y-2.88
X6.18Y-2.98
X6.18Y-3.08
X6.28Y-2.68
X6.28Y-2.78
X6.28Y-2.88
X6.28Y-2.98
X6.28Y-3.08
X7.0972Y-5.6516
X7.0972Y-5.75
X7.3008Y-2.8952
X7.35Y-2.81
X7.3722Y-5.6524
X7.3722Y-5.7508
X7.65Y-5.6516
X7.65Y-5.75
T8
X5.3041Y-2.05
X5.3041Y-2.2272
X5.56Y-2.05
X5.56Y-2.2272
X6.5041Y-5.6448
X6.5041Y-5.822
X6.76Y-5.6448
X6.76Y-5.822
T9
X7.525Y-3.022
X7.66Y-3.1
T0
M30
