%TF.GenerationSoftware,KiCad,Pcbnew,7.0.9*%
%TF.CreationDate,2024-01-11T17:38:18+09:00*%
%TF.ProjectId,LineStick,4c696e65-5374-4696-936b-2e6b69636164,rev?*%
%TF.SameCoordinates,Original*%
%TF.FileFunction,Copper,L1,Top*%
%TF.FilePolarity,Positive*%
%FSLAX46Y46*%
G04 Gerber Fmt 4.6, Leading zero omitted, Abs format (unit mm)*
G04 Created by KiCad (PCBNEW 7.0.9) date 2024-01-11 17:38:18*
%MOMM*%
%LPD*%
G01*
G04 APERTURE LIST*
%TA.AperFunction,ComponentPad*%
%ADD10C,1.600000*%
%TD*%
%TA.AperFunction,ComponentPad*%
%ADD11C,1.524000*%
%TD*%
%TA.AperFunction,ComponentPad*%
%ADD12R,1.800000X1.800000*%
%TD*%
%TA.AperFunction,ComponentPad*%
%ADD13C,1.800000*%
%TD*%
%TA.AperFunction,ComponentPad*%
%ADD14O,1.000000X1.200000*%
%TD*%
%TA.AperFunction,ViaPad*%
%ADD15C,0.800000*%
%TD*%
%TA.AperFunction,Conductor*%
%ADD16C,1.000000*%
%TD*%
%TA.AperFunction,Conductor*%
%ADD17C,0.700000*%
%TD*%
%TA.AperFunction,Conductor*%
%ADD18C,0.500000*%
%TD*%
G04 APERTURE END LIST*
D10*
%TO.P,C1,1*%
%TO.N,+3V3*%
X150114000Y-130017200D03*
%TO.P,C1,2*%
%TO.N,GND*%
X150114000Y-132517200D03*
%TD*%
%TO.P,C5,1*%
%TO.N,+3V3*%
X150114000Y-86614000D03*
%TO.P,C5,2*%
%TO.N,GND*%
X150114000Y-89114000D03*
%TD*%
D11*
%TO.P,U3,1,K(-)*%
%TO.N,Net-(D3-K)*%
X154940000Y-105389350D03*
%TO.P,U3,2,VCC*%
%TO.N,+3V3*%
X154940000Y-102849350D03*
%TO.P,U3,3,VOUT*%
%TO.N,3*%
X149860000Y-102849350D03*
%TO.P,U3,4,GND*%
%TO.N,GND*%
X149860000Y-105389350D03*
%TD*%
%TO.P,U5,1,K(-)*%
%TO.N,Net-(D5-K)*%
X154940000Y-83748550D03*
%TO.P,U5,2,VCC*%
%TO.N,+3V3*%
X154940000Y-81208550D03*
%TO.P,U5,3,VOUT*%
%TO.N,5*%
X149860000Y-81208550D03*
%TO.P,U5,4,GND*%
%TO.N,GND*%
X149860000Y-83748550D03*
%TD*%
D12*
%TO.P,D4,1,K*%
%TO.N,Net-(D4-K)*%
X153466800Y-97434400D03*
D13*
%TO.P,D4,2,A*%
%TO.N,LED*%
X153466800Y-99974400D03*
%TD*%
D10*
%TO.P,C3,1*%
%TO.N,+3V3*%
X150114000Y-108295450D03*
%TO.P,C3,2*%
%TO.N,GND*%
X150114000Y-110795450D03*
%TD*%
D14*
%TO.P,J1,1,Pin_1*%
%TO.N,+3V3*%
X150520400Y-136550400D03*
%TO.P,J1,2,Pin_2*%
%TO.N,GND*%
X151790400Y-136550400D03*
%TO.P,J1,3,Pin_3*%
%TO.N,LED*%
X153060400Y-136550400D03*
%TO.P,J1,4,Pin_4*%
%TO.N,1*%
X154330400Y-136550400D03*
%TO.P,J1,5,Pin_5*%
%TO.N,2*%
X150520400Y-135026400D03*
%TO.P,J1,6,Pin_6*%
%TO.N,3*%
X151790400Y-135026400D03*
%TO.P,J1,7,Pin_7*%
%TO.N,4*%
X153060400Y-135026400D03*
%TO.P,J1,8,Pin_8*%
%TO.N,5*%
X154330400Y-135026400D03*
%TD*%
D11*
%TO.P,U1,1,K(-)*%
%TO.N,Net-(D1-K)*%
X154940000Y-127131750D03*
%TO.P,U1,2,VCC*%
%TO.N,+3V3*%
X154940000Y-124591750D03*
%TO.P,U1,3,VOUT*%
%TO.N,1*%
X149860000Y-124591750D03*
%TO.P,U1,4,GND*%
%TO.N,GND*%
X149860000Y-127131750D03*
%TD*%
D10*
%TO.P,C2,1*%
%TO.N,+3V3*%
X150114000Y-119166650D03*
%TO.P,C2,2*%
%TO.N,GND*%
X150114000Y-121666650D03*
%TD*%
D12*
%TO.P,D3,1,K*%
%TO.N,Net-(D3-K)*%
X153466800Y-108275450D03*
D13*
%TO.P,D3,2,A*%
%TO.N,LED*%
X153466800Y-110815450D03*
%TD*%
D12*
%TO.P,D1,1,K*%
%TO.N,Net-(D1-K)*%
X153466800Y-129997200D03*
D13*
%TO.P,D1,2,A*%
%TO.N,LED*%
X153466800Y-132537200D03*
%TD*%
D12*
%TO.P,D2,1,K*%
%TO.N,Net-(D2-K)*%
X153466800Y-119146650D03*
D13*
%TO.P,D2,2,A*%
%TO.N,LED*%
X153466800Y-121686650D03*
%TD*%
D11*
%TO.P,U4,1,K(-)*%
%TO.N,Net-(D4-K)*%
X154940000Y-94568950D03*
%TO.P,U4,2,VCC*%
%TO.N,+3V3*%
X154940000Y-92028950D03*
%TO.P,U4,3,VOUT*%
%TO.N,4*%
X149860000Y-92028950D03*
%TO.P,U4,4,GND*%
%TO.N,GND*%
X149860000Y-94568950D03*
%TD*%
D12*
%TO.P,D5,1,K*%
%TO.N,Net-(D5-K)*%
X153466800Y-86614000D03*
D13*
%TO.P,D5,2,A*%
%TO.N,LED*%
X153466800Y-89154000D03*
%TD*%
D11*
%TO.P,U2,1,K(-)*%
%TO.N,Net-(D2-K)*%
X154940000Y-116260550D03*
%TO.P,U2,2,VCC*%
%TO.N,+3V3*%
X154940000Y-113720550D03*
%TO.P,U2,3,VOUT*%
%TO.N,2*%
X149860000Y-113720550D03*
%TO.P,U2,4,GND*%
%TO.N,GND*%
X149860000Y-116260550D03*
%TD*%
D10*
%TO.P,C4,1*%
%TO.N,+3V3*%
X150114000Y-97459400D03*
%TO.P,C4,2*%
%TO.N,GND*%
X150114000Y-99959400D03*
%TD*%
D15*
%TO.N,GND*%
X148894800Y-104190800D03*
X148793200Y-115011200D03*
X148894800Y-106832400D03*
X148894800Y-101295200D03*
X148894800Y-93370400D03*
X148894800Y-109575600D03*
X148894800Y-112166400D03*
X148945600Y-120497600D03*
X148894800Y-96062800D03*
X148945600Y-122986800D03*
X148844000Y-82550000D03*
X152044400Y-92506800D03*
X148894800Y-90474800D03*
X148894800Y-85191600D03*
X150876000Y-101498400D03*
X148894800Y-98755200D03*
X148894800Y-87934800D03*
X148894800Y-117703600D03*
X150723600Y-112369600D03*
%TD*%
D16*
%TO.N,+3V3*%
X153862370Y-124591750D02*
X151739600Y-122468980D01*
D17*
X148750000Y-135796000D02*
X148750000Y-134880000D01*
D16*
X150114000Y-118546550D02*
X154940000Y-113720550D01*
X150114000Y-107675350D02*
X154940000Y-102849350D01*
X151739600Y-111597780D02*
X151739600Y-109921050D01*
X154940000Y-102849350D02*
X154079008Y-102849350D01*
D17*
X150114000Y-130017200D02*
X149238000Y-130017200D01*
D16*
X154940000Y-113720550D02*
X153862370Y-113720550D01*
X151739600Y-100509942D02*
X151739600Y-99085000D01*
X150114000Y-97459400D02*
X150114000Y-96854950D01*
X151739600Y-120792250D02*
X150114000Y-119166650D01*
X151739600Y-89906180D02*
X151739600Y-88239600D01*
X151739600Y-122468980D02*
X151739600Y-120792250D01*
X154940000Y-124591750D02*
X153862370Y-124591750D01*
X153862370Y-92028950D02*
X151739600Y-89906180D01*
X151739600Y-88239600D02*
X150114000Y-86614000D01*
X150114000Y-129417750D02*
X154940000Y-124591750D01*
D17*
X150114000Y-130017200D02*
X149626000Y-130505200D01*
D16*
X150114000Y-108295450D02*
X150114000Y-107675350D01*
X153862370Y-113720550D02*
X151739600Y-111597780D01*
X150114000Y-119166650D02*
X150114000Y-118546550D01*
D17*
X150520400Y-136550400D02*
X150420400Y-136550400D01*
D16*
X151739600Y-109921050D02*
X150114000Y-108295450D01*
X154079008Y-102849350D02*
X151739600Y-100509942D01*
X151739600Y-99085000D02*
X150114000Y-97459400D01*
X150114000Y-86034550D02*
X154940000Y-81208550D01*
X150114000Y-130017200D02*
X150114000Y-129417750D01*
X154940000Y-92028950D02*
X153862370Y-92028950D01*
D17*
X148750000Y-134880000D02*
X148750000Y-131381200D01*
X150520400Y-136550400D02*
X149504400Y-136550400D01*
D16*
X150114000Y-86614000D02*
X150114000Y-86034550D01*
D17*
X148750000Y-130505200D02*
X148750000Y-131381200D01*
X149504400Y-136550400D02*
X148750000Y-135796000D01*
X149238000Y-130017200D02*
X148750000Y-130505200D01*
X148750000Y-131381200D02*
X150114000Y-130017200D01*
D16*
X150114000Y-96854950D02*
X154940000Y-92028950D01*
D17*
X150420400Y-136550400D02*
X148750000Y-134880000D01*
X149626000Y-130505200D02*
X148750000Y-130505200D01*
D16*
%TO.N,Net-(D1-K)*%
X153466800Y-128604950D02*
X154940000Y-127131750D01*
X153466800Y-129997200D02*
X153466800Y-128604950D01*
D18*
%TO.N,LED*%
X153060400Y-136855200D02*
X153829269Y-137624069D01*
X155397200Y-134467600D02*
X153466800Y-132537200D01*
X154381200Y-137624069D02*
X154780731Y-137624069D01*
X155237931Y-137624069D02*
X154381200Y-137624069D01*
X153466800Y-132537200D02*
X154025600Y-132537200D01*
X153060400Y-136550400D02*
X153060400Y-136855200D01*
X153060400Y-137312400D02*
X153670000Y-137922000D01*
X154807364Y-137922000D02*
X154995134Y-137866866D01*
X153670000Y-137922000D02*
X154807364Y-137922000D01*
X153060400Y-136550400D02*
X153060400Y-137312400D01*
X155803600Y-137058400D02*
X155237931Y-137624069D01*
X154780731Y-137624069D02*
X155397200Y-137007600D01*
X155803600Y-134315200D02*
X155803600Y-137058400D01*
X155397200Y-137007600D02*
X155397200Y-134467600D01*
X153829269Y-137624069D02*
X154381200Y-137624069D01*
X154995134Y-137866866D02*
X155237931Y-137624069D01*
X154025600Y-132537200D02*
X155803600Y-134315200D01*
D16*
%TO.N,Net-(D2-K)*%
X153466800Y-119146650D02*
X153466800Y-117733750D01*
X153466800Y-117733750D02*
X154940000Y-116260550D01*
%TO.N,Net-(D3-K)*%
X153466800Y-108275450D02*
X153466800Y-106862550D01*
X153466800Y-106862550D02*
X154940000Y-105389350D01*
%TO.N,Net-(D4-K)*%
X153466800Y-97434400D02*
X153466800Y-96042150D01*
X153466800Y-96042150D02*
X154940000Y-94568950D01*
%TO.N,Net-(D5-K)*%
X153466800Y-85221750D02*
X154940000Y-83748550D01*
X153466800Y-86614000D02*
X153466800Y-85221750D01*
%TD*%
%TA.AperFunction,Conductor*%
%TO.N,GND*%
G36*
X152040400Y-137623765D02*
G01*
X152042344Y-137623469D01*
X152042345Y-137623469D01*
X152216330Y-137559032D01*
X152286033Y-137554208D01*
X152347279Y-137587834D01*
X152370765Y-137626012D01*
X152372534Y-137625188D01*
X152378636Y-137638274D01*
X152378582Y-137638298D01*
X152381870Y-137645088D01*
X152381921Y-137645063D01*
X152385161Y-137651513D01*
X152385162Y-137651514D01*
X152385163Y-137651517D01*
X152408595Y-137687144D01*
X152427365Y-137715683D01*
X152467687Y-137781055D01*
X152472166Y-137786719D01*
X152472119Y-137786756D01*
X152476882Y-137792602D01*
X152476928Y-137792564D01*
X152481573Y-137798100D01*
X152537419Y-137850787D01*
X152700052Y-138013420D01*
X152733537Y-138074743D01*
X152728553Y-138144434D01*
X152686682Y-138200368D01*
X152621217Y-138224785D01*
X152612371Y-138225101D01*
X150402024Y-138225101D01*
X150397974Y-138224968D01*
X150374784Y-138223448D01*
X150316401Y-138219621D01*
X150134553Y-138206615D01*
X150126873Y-138205580D01*
X150010634Y-138182459D01*
X149866343Y-138151070D01*
X149859588Y-138149195D01*
X149784911Y-138123846D01*
X149740607Y-138108806D01*
X149709228Y-138097103D01*
X149608248Y-138059438D01*
X149602490Y-138056952D01*
X149487069Y-138000033D01*
X149365080Y-137933422D01*
X149360346Y-137930556D01*
X149253378Y-137859082D01*
X149250668Y-137857164D01*
X149141348Y-137775328D01*
X149137622Y-137772307D01*
X149040513Y-137687144D01*
X149037551Y-137684370D01*
X148941232Y-137588053D01*
X148938468Y-137585102D01*
X148853271Y-137487954D01*
X148850287Y-137484274D01*
X148789516Y-137403093D01*
X148768439Y-137374936D01*
X148766522Y-137372227D01*
X148751072Y-137349105D01*
X148730193Y-137282428D01*
X148748677Y-137215048D01*
X148800655Y-137168357D01*
X148869625Y-137157179D01*
X148929212Y-137181496D01*
X148956114Y-137201946D01*
X148980526Y-137220504D01*
X149043642Y-137271238D01*
X149043647Y-137271242D01*
X149043652Y-137271244D01*
X149044563Y-137271827D01*
X149062355Y-137282863D01*
X149063333Y-137283452D01*
X149063336Y-137283454D01*
X149136829Y-137317455D01*
X149209379Y-137353437D01*
X149209382Y-137353437D01*
X149209387Y-137353440D01*
X149210419Y-137353819D01*
X149230253Y-137360802D01*
X149231235Y-137361133D01*
X149310316Y-137378539D01*
X149388906Y-137398084D01*
X149388910Y-137398084D01*
X149388914Y-137398085D01*
X149390004Y-137398233D01*
X149410775Y-137400777D01*
X149411902Y-137400899D01*
X149411903Y-137400900D01*
X149411904Y-137400900D01*
X149492869Y-137400900D01*
X149573832Y-137403093D01*
X149573832Y-137403092D01*
X149573835Y-137403093D01*
X149574879Y-137403008D01*
X149597048Y-137400900D01*
X149813061Y-137400900D01*
X149880100Y-137420585D01*
X149888947Y-137426833D01*
X149988442Y-137503848D01*
X150171129Y-137593460D01*
X150368115Y-137644463D01*
X150571336Y-137654769D01*
X150772471Y-137623956D01*
X150963287Y-137553286D01*
X151089375Y-137474694D01*
X151156680Y-137455939D01*
X151223441Y-137476548D01*
X151230867Y-137481871D01*
X151258702Y-137503417D01*
X151441307Y-137592989D01*
X151540400Y-137618644D01*
X151540400Y-136721372D01*
X151546848Y-136734322D01*
X151629734Y-136809884D01*
X151734320Y-136850400D01*
X151818202Y-136850400D01*
X151900650Y-136834988D01*
X151996010Y-136775943D01*
X152040400Y-136717161D01*
X152040400Y-137623765D01*
G37*
%TD.AperFunction*%
%TA.AperFunction,Conductor*%
G36*
X151559983Y-136357705D02*
G01*
X151560085Y-136357361D01*
X151560545Y-136356962D01*
X151559983Y-136357705D01*
G37*
%TD.AperFunction*%
%TA.AperFunction,Conductor*%
G36*
X151983439Y-136320085D02*
G01*
X151984855Y-136321719D01*
X151982883Y-136319921D01*
X151983439Y-136320085D01*
G37*
%TD.AperFunction*%
%TA.AperFunction,Conductor*%
G36*
X151985634Y-129063549D02*
G01*
X152041567Y-129105421D01*
X152065984Y-129170885D01*
X152066300Y-129179731D01*
X152066300Y-130945070D01*
X152066301Y-130945076D01*
X152072708Y-131004683D01*
X152123002Y-131139528D01*
X152123006Y-131139535D01*
X152209252Y-131254744D01*
X152209255Y-131254747D01*
X152324464Y-131340993D01*
X152324473Y-131340998D01*
X152404704Y-131370922D01*
X152460638Y-131412793D01*
X152485056Y-131478257D01*
X152470205Y-131546530D01*
X152452602Y-131571086D01*
X152357819Y-131674049D01*
X152230875Y-131868351D01*
X152137642Y-132080899D01*
X152080666Y-132305891D01*
X152080664Y-132305902D01*
X152061500Y-132537193D01*
X152061500Y-132537206D01*
X152080664Y-132768497D01*
X152080666Y-132768508D01*
X152137642Y-132993500D01*
X152230875Y-133206048D01*
X152357816Y-133400347D01*
X152357819Y-133400351D01*
X152357821Y-133400353D01*
X152515016Y-133571113D01*
X152515019Y-133571115D01*
X152515022Y-133571118D01*
X152698165Y-133713664D01*
X152698176Y-133713671D01*
X152764591Y-133749613D01*
X152814182Y-133798832D01*
X152829290Y-133867049D01*
X152805120Y-133932605D01*
X152749344Y-133974686D01*
X152748641Y-133974949D01*
X152632580Y-134017933D01*
X152617513Y-134023514D01*
X152590183Y-134040549D01*
X152491876Y-134101823D01*
X152424571Y-134120578D01*
X152357810Y-134099968D01*
X152350385Y-134094646D01*
X152322362Y-134072954D01*
X152322359Y-134072953D01*
X152322358Y-134072952D01*
X152139671Y-133983340D01*
X151942685Y-133932337D01*
X151942687Y-133932337D01*
X151807204Y-133925466D01*
X151739464Y-133922031D01*
X151739463Y-133922031D01*
X151739461Y-133922031D01*
X151538336Y-133952842D01*
X151538324Y-133952845D01*
X151347518Y-134023511D01*
X151347514Y-134023513D01*
X151347513Y-134023514D01*
X151320183Y-134040549D01*
X151221876Y-134101823D01*
X151154571Y-134120578D01*
X151087810Y-134099968D01*
X151080385Y-134094646D01*
X151052362Y-134072954D01*
X151052359Y-134072953D01*
X151052358Y-134072952D01*
X150869671Y-133983340D01*
X150674203Y-133932730D01*
X150614240Y-133896871D01*
X150583181Y-133834284D01*
X150590890Y-133764841D01*
X150634918Y-133710589D01*
X150652882Y-133700307D01*
X150766478Y-133647336D01*
X150839472Y-133596225D01*
X150158400Y-132915153D01*
X150239148Y-132902365D01*
X150352045Y-132844841D01*
X150441641Y-132755245D01*
X150499165Y-132642348D01*
X150511953Y-132561600D01*
X151193025Y-133242672D01*
X151244136Y-133169678D01*
X151340264Y-132963531D01*
X151340269Y-132963517D01*
X151399139Y-132743810D01*
X151399141Y-132743799D01*
X151418966Y-132517202D01*
X151418966Y-132517197D01*
X151399141Y-132290600D01*
X151399139Y-132290589D01*
X151340269Y-132070882D01*
X151340265Y-132070873D01*
X151244133Y-131864716D01*
X151244131Y-131864712D01*
X151193026Y-131791726D01*
X151193025Y-131791726D01*
X150511953Y-132472798D01*
X150499165Y-132392052D01*
X150441641Y-132279155D01*
X150352045Y-132189559D01*
X150239148Y-132132035D01*
X150158400Y-132119246D01*
X150839472Y-131438174D01*
X150839471Y-131438173D01*
X150766483Y-131387066D01*
X150766481Y-131387065D01*
X150751023Y-131379857D01*
X150698584Y-131333684D01*
X150679432Y-131266490D01*
X150699648Y-131199609D01*
X150751023Y-131155093D01*
X150766734Y-131147768D01*
X150953139Y-131017247D01*
X151114047Y-130856339D01*
X151244568Y-130669934D01*
X151340739Y-130463696D01*
X151399635Y-130243892D01*
X151419468Y-130017200D01*
X151399635Y-129790508D01*
X151366712Y-129667637D01*
X151368375Y-129597787D01*
X151398804Y-129547865D01*
X151854621Y-129092048D01*
X151915942Y-129058565D01*
X151985634Y-129063549D01*
G37*
%TD.AperFunction*%
%TA.AperFunction,Conductor*%
G36*
X149475051Y-127163648D02*
G01*
X149506266Y-127286912D01*
X149575813Y-127393362D01*
X149676157Y-127471463D01*
X149796422Y-127512750D01*
X149832553Y-127512750D01*
X149161811Y-128183491D01*
X149226582Y-128228844D01*
X149226592Y-128228850D01*
X149426715Y-128322169D01*
X149426729Y-128322174D01*
X149509446Y-128344338D01*
X149569107Y-128380703D01*
X149599636Y-128443550D01*
X149591341Y-128512925D01*
X149565035Y-128551794D01*
X149415532Y-128701297D01*
X149350949Y-128762688D01*
X149350946Y-128762692D01*
X149315899Y-128813044D01*
X149313062Y-128816806D01*
X149274302Y-128864342D01*
X149274299Y-128864347D01*
X149258392Y-128894797D01*
X149254324Y-128901511D01*
X149234702Y-128929704D01*
X149210509Y-128986080D01*
X149208488Y-128990334D01*
X149180091Y-129044699D01*
X149170641Y-129077724D01*
X149168006Y-129085123D01*
X149158673Y-129106874D01*
X149114146Y-129160717D01*
X149058139Y-129181245D01*
X149054097Y-129181684D01*
X149053131Y-129181897D01*
X149032471Y-129186738D01*
X149031534Y-129186971D01*
X148955513Y-129214900D01*
X148878784Y-129240753D01*
X148877920Y-129241153D01*
X148858721Y-129250352D01*
X148857881Y-129250769D01*
X148789659Y-129294376D01*
X148720268Y-129336127D01*
X148719489Y-129336719D01*
X148702764Y-129349795D01*
X148702013Y-129350398D01*
X148644766Y-129407644D01*
X148609775Y-129440790D01*
X148547568Y-129472602D01*
X148478037Y-129465733D01*
X148423258Y-129422363D01*
X148400622Y-129356262D01*
X148400500Y-129350767D01*
X148400500Y-127502689D01*
X148420185Y-127435650D01*
X148472989Y-127389895D01*
X148542147Y-127379951D01*
X148605703Y-127408976D01*
X148643477Y-127467754D01*
X148644275Y-127470596D01*
X148669575Y-127565020D01*
X148669580Y-127565034D01*
X148762899Y-127765157D01*
X148762900Y-127765159D01*
X148808258Y-127829937D01*
X149475096Y-127163099D01*
X149475051Y-127163648D01*
G37*
%TD.AperFunction*%
%TA.AperFunction,Conductor*%
G36*
X148605703Y-124870910D02*
G01*
X148643477Y-124929688D01*
X148644275Y-124932530D01*
X148669103Y-125025192D01*
X148669105Y-125025196D01*
X148669106Y-125025200D01*
X148738445Y-125173898D01*
X148762466Y-125225412D01*
X148762468Y-125225416D01*
X148889170Y-125406365D01*
X148889175Y-125406371D01*
X149045378Y-125562574D01*
X149045384Y-125562579D01*
X149226333Y-125689281D01*
X149226335Y-125689282D01*
X149226338Y-125689284D01*
X149355189Y-125749368D01*
X149355781Y-125749644D01*
X149408220Y-125795816D01*
X149427372Y-125863010D01*
X149407156Y-125929891D01*
X149355781Y-125974408D01*
X149226586Y-126034653D01*
X149161812Y-126080007D01*
X149161811Y-126080008D01*
X149832554Y-126750750D01*
X149828431Y-126750750D01*
X149734579Y-126766411D01*
X149622749Y-126826930D01*
X149536629Y-126920481D01*
X149485552Y-127036927D01*
X149479894Y-127105197D01*
X148808258Y-126433561D01*
X148808257Y-126433562D01*
X148762903Y-126498336D01*
X148669579Y-126698470D01*
X148669575Y-126698479D01*
X148644275Y-126792903D01*
X148607910Y-126852564D01*
X148545063Y-126883093D01*
X148475687Y-126874798D01*
X148421810Y-126830313D01*
X148400535Y-126763761D01*
X148400500Y-126760810D01*
X148400500Y-124964623D01*
X148420185Y-124897584D01*
X148472989Y-124851829D01*
X148542147Y-124841885D01*
X148605703Y-124870910D01*
G37*
%TD.AperFunction*%
%TA.AperFunction,Conductor*%
G36*
X149475051Y-116292448D02*
G01*
X149506266Y-116415712D01*
X149575813Y-116522162D01*
X149676157Y-116600263D01*
X149796422Y-116641550D01*
X149832553Y-116641550D01*
X149161811Y-117312291D01*
X149226582Y-117357644D01*
X149226592Y-117357650D01*
X149426715Y-117450969D01*
X149426729Y-117450974D01*
X149509446Y-117473138D01*
X149569107Y-117509503D01*
X149599636Y-117572350D01*
X149591341Y-117641725D01*
X149565035Y-117680594D01*
X149415532Y-117830097D01*
X149350949Y-117891488D01*
X149350946Y-117891492D01*
X149315899Y-117941844D01*
X149313062Y-117945606D01*
X149274302Y-117993142D01*
X149274299Y-117993147D01*
X149258392Y-118023597D01*
X149254324Y-118030311D01*
X149234702Y-118058504D01*
X149210509Y-118114880D01*
X149208488Y-118119134D01*
X149180091Y-118173501D01*
X149180090Y-118173502D01*
X149170640Y-118206525D01*
X149168007Y-118213921D01*
X149154458Y-118245496D01*
X149151207Y-118261317D01*
X149118430Y-118323021D01*
X149117433Y-118324029D01*
X149113955Y-118327507D01*
X148983432Y-118513915D01*
X148983431Y-118513917D01*
X148887261Y-118720152D01*
X148887258Y-118720161D01*
X148828366Y-118939952D01*
X148828364Y-118939963D01*
X148808532Y-119166648D01*
X148808532Y-119166651D01*
X148828364Y-119393336D01*
X148828366Y-119393347D01*
X148887258Y-119613138D01*
X148887261Y-119613147D01*
X148983431Y-119819382D01*
X148983432Y-119819384D01*
X149113954Y-120005791D01*
X149274858Y-120166695D01*
X149274861Y-120166697D01*
X149461266Y-120297218D01*
X149476975Y-120304543D01*
X149529414Y-120350714D01*
X149548567Y-120417907D01*
X149528352Y-120484788D01*
X149476979Y-120529306D01*
X149461512Y-120536518D01*
X149388526Y-120587623D01*
X150069599Y-121268696D01*
X149988852Y-121281485D01*
X149875955Y-121339009D01*
X149786359Y-121428605D01*
X149728835Y-121541502D01*
X149716046Y-121622249D01*
X149034973Y-120941176D01*
X149034972Y-120941177D01*
X148983868Y-121014163D01*
X148887734Y-121220323D01*
X148887730Y-121220332D01*
X148828860Y-121440039D01*
X148828858Y-121440050D01*
X148809034Y-121666647D01*
X148809034Y-121666652D01*
X148828858Y-121893249D01*
X148828860Y-121893260D01*
X148887730Y-122112967D01*
X148887734Y-122112976D01*
X148983865Y-122319131D01*
X148983866Y-122319133D01*
X149034973Y-122392121D01*
X149034974Y-122392122D01*
X149716046Y-121711049D01*
X149728835Y-121791798D01*
X149786359Y-121904695D01*
X149875955Y-121994291D01*
X149988852Y-122051815D01*
X150069597Y-122064603D01*
X149388526Y-122745675D01*
X149388526Y-122745676D01*
X149461512Y-122796781D01*
X149461516Y-122796783D01*
X149667673Y-122892915D01*
X149667682Y-122892919D01*
X149887389Y-122951789D01*
X149887400Y-122951791D01*
X150113998Y-122971616D01*
X150114002Y-122971616D01*
X150340599Y-122951791D01*
X150340610Y-122951789D01*
X150560317Y-122892919D01*
X150560326Y-122892916D01*
X150670088Y-122841733D01*
X150739165Y-122831241D01*
X150802949Y-122859761D01*
X150837645Y-122908115D01*
X150848223Y-122934597D01*
X150848225Y-122934601D01*
X150848227Y-122934604D01*
X150881977Y-122985813D01*
X150884418Y-122989843D01*
X150914188Y-123043478D01*
X150914189Y-123043479D01*
X150914191Y-123043482D01*
X150936568Y-123069547D01*
X150941293Y-123075815D01*
X150953863Y-123094886D01*
X150960198Y-123104499D01*
X151003578Y-123147879D01*
X151006769Y-123151323D01*
X151046731Y-123197872D01*
X151046730Y-123197872D01*
X151073899Y-123218903D01*
X151079786Y-123224087D01*
X152013997Y-124158298D01*
X152898582Y-125042883D01*
X152932067Y-125104206D01*
X152927083Y-125173898D01*
X152898582Y-125218245D01*
X151280044Y-126836783D01*
X151218721Y-126870268D01*
X151149029Y-126865284D01*
X151093096Y-126823412D01*
X151072588Y-126781196D01*
X151050423Y-126698476D01*
X151050420Y-126698470D01*
X150957098Y-126498340D01*
X150911740Y-126433561D01*
X150244903Y-127100398D01*
X150244949Y-127099852D01*
X150213734Y-126976588D01*
X150144187Y-126870138D01*
X150043843Y-126792037D01*
X149923578Y-126750750D01*
X149887447Y-126750750D01*
X150558187Y-126080008D01*
X150493409Y-126034650D01*
X150493407Y-126034649D01*
X150364219Y-125974408D01*
X150311779Y-125928236D01*
X150292627Y-125861043D01*
X150312843Y-125794161D01*
X150364219Y-125749644D01*
X150364811Y-125749368D01*
X150493662Y-125689284D01*
X150674620Y-125562576D01*
X150830826Y-125406370D01*
X150957534Y-125225412D01*
X151050894Y-125025200D01*
X151108070Y-124811818D01*
X151127323Y-124591750D01*
X151108070Y-124371682D01*
X151050894Y-124158300D01*
X150957534Y-123958089D01*
X150830826Y-123777130D01*
X150674620Y-123620924D01*
X150674616Y-123620921D01*
X150674615Y-123620920D01*
X150493666Y-123494218D01*
X150493662Y-123494216D01*
X150477304Y-123486588D01*
X150293450Y-123400856D01*
X150293447Y-123400855D01*
X150293445Y-123400854D01*
X150080070Y-123343680D01*
X150080062Y-123343679D01*
X149860002Y-123324427D01*
X149859998Y-123324427D01*
X149639937Y-123343679D01*
X149639929Y-123343680D01*
X149426554Y-123400854D01*
X149426548Y-123400857D01*
X149226340Y-123494215D01*
X149226338Y-123494216D01*
X149045377Y-123620925D01*
X148889175Y-123777127D01*
X148762466Y-123958088D01*
X148762465Y-123958090D01*
X148669107Y-124158298D01*
X148669104Y-124158304D01*
X148644275Y-124250970D01*
X148607910Y-124310630D01*
X148545063Y-124341159D01*
X148475687Y-124332864D01*
X148421809Y-124288379D01*
X148400535Y-124221827D01*
X148400500Y-124218876D01*
X148400500Y-116631489D01*
X148420185Y-116564450D01*
X148472989Y-116518695D01*
X148542147Y-116508751D01*
X148605703Y-116537776D01*
X148643477Y-116596554D01*
X148644275Y-116599396D01*
X148669575Y-116693820D01*
X148669580Y-116693834D01*
X148762899Y-116893957D01*
X148762900Y-116893959D01*
X148808258Y-116958737D01*
X149475096Y-116291899D01*
X149475051Y-116292448D01*
G37*
%TD.AperFunction*%
%TA.AperFunction,Conductor*%
G36*
X148605703Y-113999710D02*
G01*
X148643477Y-114058488D01*
X148644275Y-114061330D01*
X148669103Y-114153992D01*
X148669105Y-114153996D01*
X148669106Y-114154000D01*
X148738445Y-114302698D01*
X148762466Y-114354212D01*
X148762468Y-114354216D01*
X148889170Y-114535165D01*
X148889175Y-114535171D01*
X149045378Y-114691374D01*
X149045384Y-114691379D01*
X149226333Y-114818081D01*
X149226335Y-114818082D01*
X149226338Y-114818084D01*
X149355189Y-114878168D01*
X149355781Y-114878444D01*
X149408220Y-114924616D01*
X149427372Y-114991810D01*
X149407156Y-115058691D01*
X149355781Y-115103208D01*
X149226586Y-115163453D01*
X149161812Y-115208807D01*
X149161811Y-115208808D01*
X149832554Y-115879550D01*
X149828431Y-115879550D01*
X149734579Y-115895211D01*
X149622749Y-115955730D01*
X149536629Y-116049281D01*
X149485552Y-116165727D01*
X149479894Y-116233997D01*
X148808258Y-115562361D01*
X148808257Y-115562362D01*
X148762903Y-115627136D01*
X148669579Y-115827270D01*
X148669575Y-115827279D01*
X148644275Y-115921703D01*
X148607910Y-115981364D01*
X148545063Y-116011893D01*
X148475687Y-116003598D01*
X148421810Y-115959113D01*
X148400535Y-115892561D01*
X148400500Y-115889610D01*
X148400500Y-114093423D01*
X148420185Y-114026384D01*
X148472989Y-113980629D01*
X148542147Y-113970685D01*
X148605703Y-113999710D01*
G37*
%TD.AperFunction*%
%TA.AperFunction,Conductor*%
G36*
X149475051Y-105421248D02*
G01*
X149506266Y-105544512D01*
X149575813Y-105650962D01*
X149676157Y-105729063D01*
X149796422Y-105770350D01*
X149832553Y-105770350D01*
X149161811Y-106441091D01*
X149226582Y-106486444D01*
X149226592Y-106486450D01*
X149426715Y-106579769D01*
X149426729Y-106579774D01*
X149509446Y-106601938D01*
X149569107Y-106638303D01*
X149599636Y-106701150D01*
X149591341Y-106770525D01*
X149565035Y-106809394D01*
X149415532Y-106958897D01*
X149350949Y-107020288D01*
X149350946Y-107020292D01*
X149315899Y-107070644D01*
X149313062Y-107074406D01*
X149274302Y-107121942D01*
X149274299Y-107121947D01*
X149258392Y-107152397D01*
X149254324Y-107159111D01*
X149234702Y-107187304D01*
X149210509Y-107243680D01*
X149208488Y-107247934D01*
X149180091Y-107302301D01*
X149180090Y-107302302D01*
X149170640Y-107335325D01*
X149168007Y-107342721D01*
X149154458Y-107374296D01*
X149151207Y-107390117D01*
X149118430Y-107451821D01*
X149117433Y-107452829D01*
X149113955Y-107456307D01*
X148983432Y-107642715D01*
X148983431Y-107642717D01*
X148887261Y-107848952D01*
X148887258Y-107848961D01*
X148828366Y-108068752D01*
X148828364Y-108068763D01*
X148808532Y-108295448D01*
X148808532Y-108295451D01*
X148828364Y-108522136D01*
X148828366Y-108522147D01*
X148887258Y-108741938D01*
X148887261Y-108741947D01*
X148983431Y-108948182D01*
X148983432Y-108948184D01*
X149113954Y-109134591D01*
X149274858Y-109295495D01*
X149274861Y-109295497D01*
X149461266Y-109426018D01*
X149476975Y-109433343D01*
X149529414Y-109479514D01*
X149548567Y-109546707D01*
X149528352Y-109613588D01*
X149476979Y-109658106D01*
X149461512Y-109665318D01*
X149388526Y-109716423D01*
X150069599Y-110397496D01*
X149988852Y-110410285D01*
X149875955Y-110467809D01*
X149786359Y-110557405D01*
X149728835Y-110670302D01*
X149716046Y-110751049D01*
X149034973Y-110069976D01*
X149034972Y-110069977D01*
X148983868Y-110142963D01*
X148887734Y-110349123D01*
X148887730Y-110349132D01*
X148828860Y-110568839D01*
X148828858Y-110568850D01*
X148809034Y-110795447D01*
X148809034Y-110795452D01*
X148828858Y-111022049D01*
X148828860Y-111022060D01*
X148887730Y-111241767D01*
X148887734Y-111241776D01*
X148983865Y-111447931D01*
X148983866Y-111447933D01*
X149034973Y-111520921D01*
X149034974Y-111520922D01*
X149716046Y-110839849D01*
X149728835Y-110920598D01*
X149786359Y-111033495D01*
X149875955Y-111123091D01*
X149988852Y-111180615D01*
X150069597Y-111193403D01*
X149388526Y-111874475D01*
X149388526Y-111874476D01*
X149461512Y-111925581D01*
X149461516Y-111925583D01*
X149667673Y-112021715D01*
X149667682Y-112021719D01*
X149887389Y-112080589D01*
X149887400Y-112080591D01*
X150113998Y-112100416D01*
X150114002Y-112100416D01*
X150340599Y-112080591D01*
X150340610Y-112080589D01*
X150560317Y-112021719D01*
X150560326Y-112021716D01*
X150670088Y-111970533D01*
X150739165Y-111960041D01*
X150802949Y-111988561D01*
X150837645Y-112036915D01*
X150848223Y-112063397D01*
X150848225Y-112063401D01*
X150848227Y-112063404D01*
X150881977Y-112114613D01*
X150884418Y-112118643D01*
X150914188Y-112172278D01*
X150914189Y-112172279D01*
X150914191Y-112172282D01*
X150936568Y-112198347D01*
X150941293Y-112204615D01*
X150953863Y-112223686D01*
X150960198Y-112233299D01*
X151003578Y-112276679D01*
X151006769Y-112280123D01*
X151046731Y-112326672D01*
X151046730Y-112326672D01*
X151073899Y-112347703D01*
X151079786Y-112352887D01*
X152013997Y-113287098D01*
X152898582Y-114171683D01*
X152932067Y-114233006D01*
X152927083Y-114302698D01*
X152898582Y-114347045D01*
X151280044Y-115965583D01*
X151218721Y-115999068D01*
X151149029Y-115994084D01*
X151093096Y-115952212D01*
X151072588Y-115909996D01*
X151050423Y-115827276D01*
X151050420Y-115827270D01*
X150957098Y-115627140D01*
X150911740Y-115562361D01*
X150244903Y-116229198D01*
X150244949Y-116228652D01*
X150213734Y-116105388D01*
X150144187Y-115998938D01*
X150043843Y-115920837D01*
X149923578Y-115879550D01*
X149887447Y-115879550D01*
X150558187Y-115208808D01*
X150493409Y-115163450D01*
X150493407Y-115163449D01*
X150364219Y-115103208D01*
X150311779Y-115057036D01*
X150292627Y-114989843D01*
X150312843Y-114922961D01*
X150364219Y-114878444D01*
X150364811Y-114878168D01*
X150493662Y-114818084D01*
X150674620Y-114691376D01*
X150830826Y-114535170D01*
X150957534Y-114354212D01*
X151050894Y-114154000D01*
X151108070Y-113940618D01*
X151127323Y-113720550D01*
X151108070Y-113500482D01*
X151050894Y-113287100D01*
X150957534Y-113086889D01*
X150830826Y-112905930D01*
X150674620Y-112749724D01*
X150674616Y-112749721D01*
X150674615Y-112749720D01*
X150493666Y-112623018D01*
X150493662Y-112623016D01*
X150477304Y-112615388D01*
X150293450Y-112529656D01*
X150293447Y-112529655D01*
X150293445Y-112529654D01*
X150080070Y-112472480D01*
X150080062Y-112472479D01*
X149860002Y-112453227D01*
X149859998Y-112453227D01*
X149639937Y-112472479D01*
X149639929Y-112472480D01*
X149426554Y-112529654D01*
X149426548Y-112529657D01*
X149226340Y-112623015D01*
X149226338Y-112623016D01*
X149045377Y-112749725D01*
X148889175Y-112905927D01*
X148762466Y-113086888D01*
X148762465Y-113086890D01*
X148669107Y-113287098D01*
X148669104Y-113287104D01*
X148644275Y-113379770D01*
X148607910Y-113439430D01*
X148545063Y-113469959D01*
X148475687Y-113461664D01*
X148421809Y-113417179D01*
X148400535Y-113350627D01*
X148400500Y-113347676D01*
X148400500Y-105760289D01*
X148420185Y-105693250D01*
X148472989Y-105647495D01*
X148542147Y-105637551D01*
X148605703Y-105666576D01*
X148643477Y-105725354D01*
X148644275Y-105728196D01*
X148669575Y-105822620D01*
X148669580Y-105822634D01*
X148762899Y-106022757D01*
X148762900Y-106022759D01*
X148808258Y-106087537D01*
X149475096Y-105420699D01*
X149475051Y-105421248D01*
G37*
%TD.AperFunction*%
%TA.AperFunction,Conductor*%
G36*
X148605703Y-103128510D02*
G01*
X148643477Y-103187288D01*
X148644275Y-103190130D01*
X148669103Y-103282792D01*
X148669105Y-103282796D01*
X148669106Y-103282800D01*
X148762466Y-103483012D01*
X148762468Y-103483016D01*
X148889170Y-103663965D01*
X148889175Y-103663971D01*
X149045378Y-103820174D01*
X149045384Y-103820179D01*
X149226333Y-103946881D01*
X149226335Y-103946882D01*
X149226338Y-103946884D01*
X149355189Y-104006968D01*
X149355781Y-104007244D01*
X149408220Y-104053416D01*
X149427372Y-104120610D01*
X149407156Y-104187491D01*
X149355781Y-104232008D01*
X149226586Y-104292253D01*
X149161812Y-104337607D01*
X149161811Y-104337608D01*
X149832554Y-105008350D01*
X149828431Y-105008350D01*
X149734579Y-105024011D01*
X149622749Y-105084530D01*
X149536629Y-105178081D01*
X149485552Y-105294527D01*
X149479894Y-105362797D01*
X148808258Y-104691161D01*
X148808257Y-104691162D01*
X148762903Y-104755936D01*
X148669579Y-104956070D01*
X148669575Y-104956079D01*
X148644275Y-105050503D01*
X148607910Y-105110164D01*
X148545063Y-105140693D01*
X148475687Y-105132398D01*
X148421810Y-105087913D01*
X148400535Y-105021361D01*
X148400500Y-105018410D01*
X148400500Y-103222223D01*
X148420185Y-103155184D01*
X148472989Y-103109429D01*
X148542147Y-103099485D01*
X148605703Y-103128510D01*
G37*
%TD.AperFunction*%
%TA.AperFunction,Conductor*%
G36*
X149475051Y-94600848D02*
G01*
X149506266Y-94724112D01*
X149575813Y-94830562D01*
X149676157Y-94908663D01*
X149796422Y-94949950D01*
X149832553Y-94949950D01*
X149161811Y-95620691D01*
X149226582Y-95666044D01*
X149226592Y-95666050D01*
X149426715Y-95759369D01*
X149426729Y-95759374D01*
X149509446Y-95781538D01*
X149569107Y-95817903D01*
X149599636Y-95880750D01*
X149591341Y-95950125D01*
X149565035Y-95988994D01*
X149415532Y-96138497D01*
X149350949Y-96199888D01*
X149350946Y-96199892D01*
X149315899Y-96250244D01*
X149313062Y-96254006D01*
X149274302Y-96301542D01*
X149274299Y-96301547D01*
X149258392Y-96331997D01*
X149254324Y-96338711D01*
X149234702Y-96366904D01*
X149210509Y-96423280D01*
X149208488Y-96427534D01*
X149180091Y-96481900D01*
X149170641Y-96514923D01*
X149168007Y-96522322D01*
X149154461Y-96553887D01*
X149152580Y-96559885D01*
X149150383Y-96559195D01*
X149122472Y-96611730D01*
X149121480Y-96612733D01*
X149113956Y-96620256D01*
X149113948Y-96620266D01*
X148983432Y-96806665D01*
X148983431Y-96806667D01*
X148887261Y-97012902D01*
X148887258Y-97012911D01*
X148828366Y-97232702D01*
X148828364Y-97232713D01*
X148808532Y-97459398D01*
X148808532Y-97459401D01*
X148828364Y-97686086D01*
X148828366Y-97686097D01*
X148887258Y-97905888D01*
X148887261Y-97905897D01*
X148983431Y-98112132D01*
X148983432Y-98112134D01*
X149113954Y-98298541D01*
X149274858Y-98459445D01*
X149274861Y-98459447D01*
X149461266Y-98589968D01*
X149476975Y-98597293D01*
X149529414Y-98643464D01*
X149548567Y-98710657D01*
X149528352Y-98777538D01*
X149476979Y-98822056D01*
X149461512Y-98829268D01*
X149388526Y-98880373D01*
X150069599Y-99561446D01*
X149988852Y-99574235D01*
X149875955Y-99631759D01*
X149786359Y-99721355D01*
X149728835Y-99834252D01*
X149716046Y-99914999D01*
X149034973Y-99233926D01*
X149034972Y-99233927D01*
X148983868Y-99306913D01*
X148887734Y-99513073D01*
X148887730Y-99513082D01*
X148828860Y-99732789D01*
X148828858Y-99732800D01*
X148809034Y-99959397D01*
X148809034Y-99959402D01*
X148828858Y-100185999D01*
X148828860Y-100186010D01*
X148887730Y-100405717D01*
X148887734Y-100405726D01*
X148983865Y-100611881D01*
X148983866Y-100611883D01*
X149034973Y-100684871D01*
X149034974Y-100684872D01*
X149716046Y-100003799D01*
X149728835Y-100084548D01*
X149786359Y-100197445D01*
X149875955Y-100287041D01*
X149988852Y-100344565D01*
X150069597Y-100357353D01*
X149388526Y-101038425D01*
X149388526Y-101038426D01*
X149461512Y-101089531D01*
X149461516Y-101089533D01*
X149667673Y-101185665D01*
X149667682Y-101185669D01*
X149887389Y-101244539D01*
X149887400Y-101244541D01*
X150113998Y-101264366D01*
X150114002Y-101264366D01*
X150340599Y-101244541D01*
X150340610Y-101244539D01*
X150560317Y-101185669D01*
X150560331Y-101185664D01*
X150766478Y-101089536D01*
X150766481Y-101089534D01*
X150769332Y-101087539D01*
X150770790Y-101087047D01*
X150771170Y-101086828D01*
X150771214Y-101086904D01*
X150835537Y-101065210D01*
X150903305Y-101082218D01*
X150943994Y-101120875D01*
X150960199Y-101145463D01*
X150981882Y-101167145D01*
X151003578Y-101188841D01*
X151006769Y-101192285D01*
X151046731Y-101238834D01*
X151046734Y-101238837D01*
X151073894Y-101259860D01*
X151079790Y-101265053D01*
X153006901Y-103192164D01*
X153040386Y-103253487D01*
X153035402Y-103323179D01*
X153006901Y-103367526D01*
X151280044Y-105094383D01*
X151218721Y-105127868D01*
X151149029Y-105122884D01*
X151093096Y-105081012D01*
X151072588Y-105038796D01*
X151050423Y-104956076D01*
X151050420Y-104956070D01*
X150957098Y-104755940D01*
X150911740Y-104691161D01*
X150244903Y-105357998D01*
X150244949Y-105357452D01*
X150213734Y-105234188D01*
X150144187Y-105127738D01*
X150043843Y-105049637D01*
X149923578Y-105008350D01*
X149887447Y-105008350D01*
X150558187Y-104337608D01*
X150493409Y-104292250D01*
X150493407Y-104292249D01*
X150364219Y-104232008D01*
X150311779Y-104185836D01*
X150292627Y-104118643D01*
X150312843Y-104051761D01*
X150364219Y-104007244D01*
X150364811Y-104006968D01*
X150493662Y-103946884D01*
X150674620Y-103820176D01*
X150830826Y-103663970D01*
X150957534Y-103483012D01*
X151050894Y-103282800D01*
X151108070Y-103069418D01*
X151127323Y-102849350D01*
X151108070Y-102629282D01*
X151050894Y-102415900D01*
X150957534Y-102215689D01*
X150830826Y-102034730D01*
X150674620Y-101878524D01*
X150674616Y-101878521D01*
X150674615Y-101878520D01*
X150493666Y-101751818D01*
X150493662Y-101751816D01*
X150353554Y-101686483D01*
X150293450Y-101658456D01*
X150293447Y-101658455D01*
X150293445Y-101658454D01*
X150080070Y-101601280D01*
X150080062Y-101601279D01*
X149860002Y-101582027D01*
X149859998Y-101582027D01*
X149639937Y-101601279D01*
X149639929Y-101601280D01*
X149426554Y-101658454D01*
X149426548Y-101658457D01*
X149226340Y-101751815D01*
X149226338Y-101751816D01*
X149045377Y-101878525D01*
X148889175Y-102034727D01*
X148762466Y-102215688D01*
X148762465Y-102215690D01*
X148669107Y-102415898D01*
X148669104Y-102415904D01*
X148644275Y-102508570D01*
X148607910Y-102568230D01*
X148545063Y-102598759D01*
X148475687Y-102590464D01*
X148421809Y-102545979D01*
X148400535Y-102479427D01*
X148400500Y-102476476D01*
X148400500Y-94939889D01*
X148420185Y-94872850D01*
X148472989Y-94827095D01*
X148542147Y-94817151D01*
X148605703Y-94846176D01*
X148643477Y-94904954D01*
X148644275Y-94907796D01*
X148669575Y-95002220D01*
X148669580Y-95002234D01*
X148762899Y-95202357D01*
X148762900Y-95202359D01*
X148808258Y-95267137D01*
X149475096Y-94600299D01*
X149475051Y-94600848D01*
G37*
%TD.AperFunction*%
%TA.AperFunction,Conductor*%
G36*
X148605703Y-92308110D02*
G01*
X148643477Y-92366888D01*
X148644275Y-92369730D01*
X148669103Y-92462392D01*
X148669105Y-92462396D01*
X148669106Y-92462400D01*
X148738445Y-92611098D01*
X148762466Y-92662612D01*
X148762468Y-92662616D01*
X148889170Y-92843565D01*
X148889175Y-92843571D01*
X149045378Y-92999774D01*
X149045384Y-92999779D01*
X149226333Y-93126481D01*
X149226335Y-93126482D01*
X149226338Y-93126484D01*
X149355189Y-93186568D01*
X149355781Y-93186844D01*
X149408220Y-93233016D01*
X149427372Y-93300210D01*
X149407156Y-93367091D01*
X149355781Y-93411608D01*
X149226586Y-93471853D01*
X149161812Y-93517207D01*
X149161811Y-93517208D01*
X149832554Y-94187950D01*
X149828431Y-94187950D01*
X149734579Y-94203611D01*
X149622749Y-94264130D01*
X149536629Y-94357681D01*
X149485552Y-94474127D01*
X149479894Y-94542397D01*
X148808258Y-93870761D01*
X148808257Y-93870762D01*
X148762903Y-93935536D01*
X148669579Y-94135670D01*
X148669575Y-94135679D01*
X148644275Y-94230103D01*
X148607910Y-94289764D01*
X148545063Y-94320293D01*
X148475687Y-94311998D01*
X148421810Y-94267513D01*
X148400535Y-94200961D01*
X148400500Y-94198010D01*
X148400500Y-92401823D01*
X148420185Y-92334784D01*
X148472989Y-92289029D01*
X148542147Y-92279085D01*
X148605703Y-92308110D01*
G37*
%TD.AperFunction*%
%TA.AperFunction,Conductor*%
G36*
X149475051Y-83780448D02*
G01*
X149506266Y-83903712D01*
X149575813Y-84010162D01*
X149676157Y-84088263D01*
X149796422Y-84129550D01*
X149832553Y-84129550D01*
X149161811Y-84800291D01*
X149226582Y-84845644D01*
X149226592Y-84845650D01*
X149426715Y-84938969D01*
X149426729Y-84938974D01*
X149509446Y-84961138D01*
X149569107Y-84997503D01*
X149599636Y-85060350D01*
X149591341Y-85129725D01*
X149565035Y-85168594D01*
X149415532Y-85318097D01*
X149350949Y-85379488D01*
X149350946Y-85379492D01*
X149315899Y-85429844D01*
X149313062Y-85433606D01*
X149274302Y-85481142D01*
X149274299Y-85481147D01*
X149258392Y-85511597D01*
X149254324Y-85518311D01*
X149234702Y-85546504D01*
X149210509Y-85602880D01*
X149208488Y-85607134D01*
X149180091Y-85661500D01*
X149170641Y-85694523D01*
X149168007Y-85701921D01*
X149163218Y-85713082D01*
X149136950Y-85751863D01*
X149113953Y-85774861D01*
X149113948Y-85774866D01*
X148983432Y-85961265D01*
X148983431Y-85961267D01*
X148887261Y-86167502D01*
X148887258Y-86167511D01*
X148828366Y-86387302D01*
X148828364Y-86387313D01*
X148808532Y-86613998D01*
X148808532Y-86614001D01*
X148828364Y-86840686D01*
X148828366Y-86840697D01*
X148887258Y-87060488D01*
X148887261Y-87060497D01*
X148983431Y-87266732D01*
X148983432Y-87266734D01*
X149113954Y-87453141D01*
X149274858Y-87614045D01*
X149274861Y-87614047D01*
X149461266Y-87744568D01*
X149476975Y-87751893D01*
X149529414Y-87798064D01*
X149548567Y-87865257D01*
X149528352Y-87932138D01*
X149476979Y-87976656D01*
X149461512Y-87983868D01*
X149388526Y-88034973D01*
X150069599Y-88716046D01*
X149988852Y-88728835D01*
X149875955Y-88786359D01*
X149786359Y-88875955D01*
X149728835Y-88988852D01*
X149716046Y-89069599D01*
X149034973Y-88388526D01*
X149034972Y-88388527D01*
X148983868Y-88461513D01*
X148887734Y-88667673D01*
X148887730Y-88667682D01*
X148828860Y-88887389D01*
X148828858Y-88887400D01*
X148809034Y-89113997D01*
X148809034Y-89114002D01*
X148828858Y-89340599D01*
X148828860Y-89340610D01*
X148887730Y-89560317D01*
X148887734Y-89560326D01*
X148983865Y-89766481D01*
X148983866Y-89766483D01*
X149034973Y-89839471D01*
X149034974Y-89839472D01*
X149716046Y-89158399D01*
X149728835Y-89239148D01*
X149786359Y-89352045D01*
X149875955Y-89441641D01*
X149988852Y-89499165D01*
X150069597Y-89511953D01*
X149388526Y-90193025D01*
X149388526Y-90193026D01*
X149461512Y-90244131D01*
X149461516Y-90244133D01*
X149667673Y-90340265D01*
X149667682Y-90340269D01*
X149887389Y-90399139D01*
X149887400Y-90399141D01*
X150113998Y-90418966D01*
X150114002Y-90418966D01*
X150340599Y-90399141D01*
X150340610Y-90399139D01*
X150560317Y-90340269D01*
X150560321Y-90340267D01*
X150673504Y-90287489D01*
X150742582Y-90276997D01*
X150806366Y-90305516D01*
X150841061Y-90353870D01*
X150848218Y-90371785D01*
X150848223Y-90371797D01*
X150848225Y-90371800D01*
X150848227Y-90371804D01*
X150881977Y-90423013D01*
X150884418Y-90427043D01*
X150914188Y-90480678D01*
X150914189Y-90480679D01*
X150914191Y-90480682D01*
X150936568Y-90506747D01*
X150941293Y-90513015D01*
X150943457Y-90516298D01*
X150960198Y-90541699D01*
X151003578Y-90585079D01*
X151006769Y-90588523D01*
X151046731Y-90635072D01*
X151046730Y-90635072D01*
X151073899Y-90656103D01*
X151079786Y-90661287D01*
X152013997Y-91595498D01*
X152898582Y-92480083D01*
X152932067Y-92541406D01*
X152927083Y-92611098D01*
X152898582Y-92655445D01*
X151280044Y-94273983D01*
X151218721Y-94307468D01*
X151149029Y-94302484D01*
X151093096Y-94260612D01*
X151072588Y-94218396D01*
X151050423Y-94135676D01*
X151050420Y-94135670D01*
X150957098Y-93935540D01*
X150911740Y-93870761D01*
X150244903Y-94537598D01*
X150244949Y-94537052D01*
X150213734Y-94413788D01*
X150144187Y-94307338D01*
X150043843Y-94229237D01*
X149923578Y-94187950D01*
X149887447Y-94187950D01*
X150558187Y-93517208D01*
X150493409Y-93471850D01*
X150493407Y-93471849D01*
X150364219Y-93411608D01*
X150311779Y-93365436D01*
X150292627Y-93298243D01*
X150312843Y-93231361D01*
X150364219Y-93186844D01*
X150364811Y-93186568D01*
X150493662Y-93126484D01*
X150674620Y-92999776D01*
X150830826Y-92843570D01*
X150957534Y-92662612D01*
X151050894Y-92462400D01*
X151108070Y-92249018D01*
X151127323Y-92028950D01*
X151108070Y-91808882D01*
X151050894Y-91595500D01*
X150957534Y-91395289D01*
X150830826Y-91214330D01*
X150674620Y-91058124D01*
X150674616Y-91058121D01*
X150674615Y-91058120D01*
X150493666Y-90931418D01*
X150493662Y-90931416D01*
X150477304Y-90923788D01*
X150293450Y-90838056D01*
X150293447Y-90838055D01*
X150293445Y-90838054D01*
X150080070Y-90780880D01*
X150080062Y-90780879D01*
X149860002Y-90761627D01*
X149859998Y-90761627D01*
X149639937Y-90780879D01*
X149639929Y-90780880D01*
X149426554Y-90838054D01*
X149426548Y-90838057D01*
X149226340Y-90931415D01*
X149226338Y-90931416D01*
X149045377Y-91058125D01*
X148889175Y-91214327D01*
X148762466Y-91395288D01*
X148762465Y-91395290D01*
X148669107Y-91595498D01*
X148669104Y-91595504D01*
X148644275Y-91688170D01*
X148607910Y-91747830D01*
X148545063Y-91778359D01*
X148475687Y-91770064D01*
X148421809Y-91725579D01*
X148400535Y-91659027D01*
X148400500Y-91656076D01*
X148400500Y-84119489D01*
X148420185Y-84052450D01*
X148472989Y-84006695D01*
X148542147Y-83996751D01*
X148605703Y-84025776D01*
X148643477Y-84084554D01*
X148644275Y-84087396D01*
X148669575Y-84181820D01*
X148669580Y-84181834D01*
X148762899Y-84381957D01*
X148762900Y-84381959D01*
X148808258Y-84446737D01*
X149475096Y-83779899D01*
X149475051Y-83780448D01*
G37*
%TD.AperFunction*%
%TA.AperFunction,Conductor*%
G36*
X148605703Y-81487710D02*
G01*
X148643477Y-81546488D01*
X148644275Y-81549330D01*
X148669103Y-81641992D01*
X148669105Y-81641996D01*
X148669106Y-81642000D01*
X148762466Y-81842212D01*
X148762468Y-81842216D01*
X148889170Y-82023165D01*
X148889175Y-82023171D01*
X149045378Y-82179374D01*
X149045384Y-82179379D01*
X149226333Y-82306081D01*
X149226335Y-82306082D01*
X149226338Y-82306084D01*
X149355189Y-82366168D01*
X149355781Y-82366444D01*
X149408220Y-82412616D01*
X149427372Y-82479810D01*
X149407156Y-82546691D01*
X149355781Y-82591208D01*
X149226586Y-82651453D01*
X149161812Y-82696807D01*
X149161811Y-82696808D01*
X149832554Y-83367550D01*
X149828431Y-83367550D01*
X149734579Y-83383211D01*
X149622749Y-83443730D01*
X149536629Y-83537281D01*
X149485552Y-83653727D01*
X149479894Y-83721997D01*
X148808258Y-83050361D01*
X148808257Y-83050362D01*
X148762903Y-83115136D01*
X148669579Y-83315270D01*
X148669575Y-83315279D01*
X148644275Y-83409703D01*
X148607910Y-83469364D01*
X148545063Y-83499893D01*
X148475687Y-83491598D01*
X148421810Y-83447113D01*
X148400535Y-83380561D01*
X148400500Y-83377610D01*
X148400500Y-81581423D01*
X148420185Y-81514384D01*
X148472989Y-81468629D01*
X148542147Y-81458685D01*
X148605703Y-81487710D01*
G37*
%TD.AperFunction*%
%TA.AperFunction,Conductor*%
G36*
X153924560Y-80232885D02*
G01*
X153970315Y-80285689D01*
X153980259Y-80354847D01*
X153959096Y-80408323D01*
X153842466Y-80574888D01*
X153842465Y-80574890D01*
X153749107Y-80775098D01*
X153749104Y-80775104D01*
X153691930Y-80988479D01*
X153691928Y-80988493D01*
X153690759Y-81001849D01*
X153665302Y-81066916D01*
X153654913Y-81078714D01*
X151280044Y-83453583D01*
X151218721Y-83487068D01*
X151149029Y-83482084D01*
X151093096Y-83440212D01*
X151072588Y-83397996D01*
X151050423Y-83315276D01*
X151050420Y-83315270D01*
X150957098Y-83115140D01*
X150911740Y-83050361D01*
X150244903Y-83717198D01*
X150244949Y-83716652D01*
X150213734Y-83593388D01*
X150144187Y-83486938D01*
X150043843Y-83408837D01*
X149923578Y-83367550D01*
X149887447Y-83367550D01*
X150558187Y-82696808D01*
X150493409Y-82651450D01*
X150493407Y-82651449D01*
X150364219Y-82591208D01*
X150311779Y-82545036D01*
X150292627Y-82477843D01*
X150312843Y-82410961D01*
X150364219Y-82366444D01*
X150364811Y-82366168D01*
X150493662Y-82306084D01*
X150674620Y-82179376D01*
X150830826Y-82023170D01*
X150957534Y-81842212D01*
X151050894Y-81642000D01*
X151108070Y-81428618D01*
X151127323Y-81208550D01*
X151108070Y-80988482D01*
X151050894Y-80775100D01*
X150957534Y-80574889D01*
X150840903Y-80408322D01*
X150818577Y-80342117D01*
X150835587Y-80274350D01*
X150886536Y-80226537D01*
X150942479Y-80213200D01*
X153857521Y-80213200D01*
X153924560Y-80232885D01*
G37*
%TD.AperFunction*%
%TD*%
M02*
