%TF.GenerationSoftware,KiCad,Pcbnew,7.0.9*%
%TF.CreationDate,2024-01-11T17:38:18+09:00*%
%TF.ProjectId,LineStick,4c696e65-5374-4696-936b-2e6b69636164,rev?*%
%TF.SameCoordinates,Original*%
%TF.FileFunction,Legend,Top*%
%TF.FilePolarity,Positive*%
%FSLAX46Y46*%
G04 Gerber Fmt 4.6, Leading zero omitted, Abs format (unit mm)*
G04 Created by KiCad (PCBNEW 7.0.9) date 2024-01-11 17:38:18*
%MOMM*%
%LPD*%
G01*
G04 APERTURE LIST*
%ADD10C,0.120000*%
%ADD11C,0.100000*%
G04 APERTURE END LIST*
D10*
%TO.C,C1*%
X151034000Y-130638200D02*
X151034000Y-131896200D01*
X149194000Y-130638200D02*
X149194000Y-131896200D01*
%TO.C,C5*%
X151034000Y-87235000D02*
X151034000Y-88493000D01*
X149194000Y-87235000D02*
X149194000Y-88493000D01*
D11*
%TO.C,U3*%
X150114000Y-101388850D02*
X154686000Y-101388850D01*
X154686000Y-101388850D02*
X154686000Y-106849850D01*
X154686000Y-106849850D02*
X150114000Y-106849850D01*
X150114000Y-106849850D02*
X150114000Y-101388850D01*
D10*
X151384000Y-102912850D02*
X153416000Y-102912850D01*
X153416000Y-102912850D02*
X153416000Y-105325850D01*
X153416000Y-105325850D02*
X151384000Y-105325850D01*
X151384000Y-105325850D02*
X151384000Y-102912850D01*
D11*
X152146000Y-103801850D02*
X152654000Y-103801850D01*
X152654000Y-103801850D02*
X152654000Y-104436850D01*
X152654000Y-104436850D02*
X152146000Y-104436850D01*
X152146000Y-104436850D02*
X152146000Y-103801850D01*
X151384000Y-106849850D02*
X151130000Y-106849850D01*
X151130000Y-105325850D01*
X150114000Y-105325850D01*
X150114000Y-105071850D01*
X151384000Y-105071850D01*
X151384000Y-106849850D01*
G36*
X151384000Y-106849850D02*
G01*
X151130000Y-106849850D01*
X151130000Y-105325850D01*
X150114000Y-105325850D01*
X150114000Y-105071850D01*
X151384000Y-105071850D01*
X151384000Y-106849850D01*
G37*
X153416000Y-102912850D02*
X153416000Y-105325850D01*
X151384000Y-105325850D01*
X151384000Y-104436850D01*
X152146000Y-104436850D01*
X152654000Y-104436850D01*
X152654000Y-103801850D01*
X152146000Y-103801850D01*
X152146000Y-104436850D01*
X151384000Y-104436850D01*
X151384000Y-102912850D01*
X153416000Y-102912850D01*
G36*
X153416000Y-102912850D02*
G01*
X153416000Y-105325850D01*
X151384000Y-105325850D01*
X151384000Y-104436850D01*
X152146000Y-104436850D01*
X152654000Y-104436850D01*
X152654000Y-103801850D01*
X152146000Y-103801850D01*
X152146000Y-104436850D01*
X151384000Y-104436850D01*
X151384000Y-102912850D01*
X153416000Y-102912850D01*
G37*
%TO.C,U5*%
X150114000Y-79748050D02*
X154686000Y-79748050D01*
X154686000Y-79748050D02*
X154686000Y-85209050D01*
X154686000Y-85209050D02*
X150114000Y-85209050D01*
X150114000Y-85209050D02*
X150114000Y-79748050D01*
D10*
X151384000Y-81272050D02*
X153416000Y-81272050D01*
X153416000Y-81272050D02*
X153416000Y-83685050D01*
X153416000Y-83685050D02*
X151384000Y-83685050D01*
X151384000Y-83685050D02*
X151384000Y-81272050D01*
D11*
X152146000Y-82161050D02*
X152654000Y-82161050D01*
X152654000Y-82161050D02*
X152654000Y-82796050D01*
X152654000Y-82796050D02*
X152146000Y-82796050D01*
X152146000Y-82796050D02*
X152146000Y-82161050D01*
X151384000Y-85209050D02*
X151130000Y-85209050D01*
X151130000Y-83685050D01*
X150114000Y-83685050D01*
X150114000Y-83431050D01*
X151384000Y-83431050D01*
X151384000Y-85209050D01*
G36*
X151384000Y-85209050D02*
G01*
X151130000Y-85209050D01*
X151130000Y-83685050D01*
X150114000Y-83685050D01*
X150114000Y-83431050D01*
X151384000Y-83431050D01*
X151384000Y-85209050D01*
G37*
X153416000Y-81272050D02*
X153416000Y-83685050D01*
X151384000Y-83685050D01*
X151384000Y-82796050D01*
X152146000Y-82796050D01*
X152654000Y-82796050D01*
X152654000Y-82161050D01*
X152146000Y-82161050D01*
X152146000Y-82796050D01*
X151384000Y-82796050D01*
X151384000Y-81272050D01*
X153416000Y-81272050D01*
G36*
X153416000Y-81272050D02*
G01*
X153416000Y-83685050D01*
X151384000Y-83685050D01*
X151384000Y-82796050D01*
X152146000Y-82796050D01*
X152654000Y-82796050D01*
X152654000Y-82161050D01*
X152146000Y-82161050D01*
X152146000Y-82796050D01*
X151384000Y-82796050D01*
X151384000Y-81272050D01*
X153416000Y-81272050D01*
G37*
D10*
%TO.C,D4*%
X154702800Y-97144400D02*
X154546800Y-97144400D01*
X152386800Y-97144400D02*
X152230800Y-97144400D01*
X154545408Y-100376734D02*
G75*
G03*
X154702315Y-97144401I-1078608J1672334D01*
G01*
X154546636Y-99745529D02*
G75*
G03*
X154546799Y-97663440I-1079836J1041129D01*
G01*
X152386801Y-97663440D02*
G75*
G03*
X152386964Y-99745529I1079999J-1040960D01*
G01*
X152231285Y-97144401D02*
G75*
G03*
X152388192Y-100376734I1235515J-1559999D01*
G01*
%TO.C,C3*%
X151034000Y-108916450D02*
X151034000Y-110174450D01*
X149194000Y-108916450D02*
X149194000Y-110174450D01*
D11*
%TO.C,U1*%
X150114000Y-123131250D02*
X154686000Y-123131250D01*
X154686000Y-123131250D02*
X154686000Y-128592250D01*
X154686000Y-128592250D02*
X150114000Y-128592250D01*
X150114000Y-128592250D02*
X150114000Y-123131250D01*
D10*
X151384000Y-124655250D02*
X153416000Y-124655250D01*
X153416000Y-124655250D02*
X153416000Y-127068250D01*
X153416000Y-127068250D02*
X151384000Y-127068250D01*
X151384000Y-127068250D02*
X151384000Y-124655250D01*
D11*
X152146000Y-125544250D02*
X152654000Y-125544250D01*
X152654000Y-125544250D02*
X152654000Y-126179250D01*
X152654000Y-126179250D02*
X152146000Y-126179250D01*
X152146000Y-126179250D02*
X152146000Y-125544250D01*
X151384000Y-128592250D02*
X151130000Y-128592250D01*
X151130000Y-127068250D01*
X150114000Y-127068250D01*
X150114000Y-126814250D01*
X151384000Y-126814250D01*
X151384000Y-128592250D01*
G36*
X151384000Y-128592250D02*
G01*
X151130000Y-128592250D01*
X151130000Y-127068250D01*
X150114000Y-127068250D01*
X150114000Y-126814250D01*
X151384000Y-126814250D01*
X151384000Y-128592250D01*
G37*
X153416000Y-124655250D02*
X153416000Y-127068250D01*
X151384000Y-127068250D01*
X151384000Y-126179250D01*
X152146000Y-126179250D01*
X152654000Y-126179250D01*
X152654000Y-125544250D01*
X152146000Y-125544250D01*
X152146000Y-126179250D01*
X151384000Y-126179250D01*
X151384000Y-124655250D01*
X153416000Y-124655250D01*
G36*
X153416000Y-124655250D02*
G01*
X153416000Y-127068250D01*
X151384000Y-127068250D01*
X151384000Y-126179250D01*
X152146000Y-126179250D01*
X152654000Y-126179250D01*
X152654000Y-125544250D01*
X152146000Y-125544250D01*
X152146000Y-126179250D01*
X151384000Y-126179250D01*
X151384000Y-124655250D01*
X153416000Y-124655250D01*
G37*
D10*
%TO.C,C2*%
X151034000Y-119787650D02*
X151034000Y-121045650D01*
X149194000Y-119787650D02*
X149194000Y-121045650D01*
%TO.C,D3*%
X154702800Y-107985450D02*
X154546800Y-107985450D01*
X152386800Y-107985450D02*
X152230800Y-107985450D01*
X154545408Y-111217784D02*
G75*
G03*
X154702315Y-107985451I-1078608J1672334D01*
G01*
X154546636Y-110586579D02*
G75*
G03*
X154546799Y-108504490I-1079836J1041129D01*
G01*
X152386801Y-108504490D02*
G75*
G03*
X152386964Y-110586579I1079999J-1040960D01*
G01*
X152231285Y-107985451D02*
G75*
G03*
X152388192Y-111217784I1235515J-1559999D01*
G01*
%TO.C,D1*%
X154702800Y-129707200D02*
X154546800Y-129707200D01*
X152386800Y-129707200D02*
X152230800Y-129707200D01*
X154545408Y-132939534D02*
G75*
G03*
X154702315Y-129707201I-1078608J1672334D01*
G01*
X154546636Y-132308329D02*
G75*
G03*
X154546799Y-130226240I-1079836J1041129D01*
G01*
X152386801Y-130226240D02*
G75*
G03*
X152386964Y-132308329I1079999J-1040960D01*
G01*
X152231285Y-129707201D02*
G75*
G03*
X152388192Y-132939534I1235515J-1559999D01*
G01*
%TO.C,D2*%
X154702800Y-118856650D02*
X154546800Y-118856650D01*
X152386800Y-118856650D02*
X152230800Y-118856650D01*
X154545408Y-122088984D02*
G75*
G03*
X154702315Y-118856651I-1078608J1672334D01*
G01*
X154546636Y-121457779D02*
G75*
G03*
X154546799Y-119375690I-1079836J1041129D01*
G01*
X152386801Y-119375690D02*
G75*
G03*
X152386964Y-121457779I1079999J-1040960D01*
G01*
X152231285Y-118856651D02*
G75*
G03*
X152388192Y-122088984I1235515J-1559999D01*
G01*
D11*
%TO.C,U4*%
X150114000Y-90568450D02*
X154686000Y-90568450D01*
X154686000Y-90568450D02*
X154686000Y-96029450D01*
X154686000Y-96029450D02*
X150114000Y-96029450D01*
X150114000Y-96029450D02*
X150114000Y-90568450D01*
D10*
X151384000Y-92092450D02*
X153416000Y-92092450D01*
X153416000Y-92092450D02*
X153416000Y-94505450D01*
X153416000Y-94505450D02*
X151384000Y-94505450D01*
X151384000Y-94505450D02*
X151384000Y-92092450D01*
D11*
X152146000Y-92981450D02*
X152654000Y-92981450D01*
X152654000Y-92981450D02*
X152654000Y-93616450D01*
X152654000Y-93616450D02*
X152146000Y-93616450D01*
X152146000Y-93616450D02*
X152146000Y-92981450D01*
X151384000Y-96029450D02*
X151130000Y-96029450D01*
X151130000Y-94505450D01*
X150114000Y-94505450D01*
X150114000Y-94251450D01*
X151384000Y-94251450D01*
X151384000Y-96029450D01*
G36*
X151384000Y-96029450D02*
G01*
X151130000Y-96029450D01*
X151130000Y-94505450D01*
X150114000Y-94505450D01*
X150114000Y-94251450D01*
X151384000Y-94251450D01*
X151384000Y-96029450D01*
G37*
X153416000Y-92092450D02*
X153416000Y-94505450D01*
X151384000Y-94505450D01*
X151384000Y-93616450D01*
X152146000Y-93616450D01*
X152654000Y-93616450D01*
X152654000Y-92981450D01*
X152146000Y-92981450D01*
X152146000Y-93616450D01*
X151384000Y-93616450D01*
X151384000Y-92092450D01*
X153416000Y-92092450D01*
G36*
X153416000Y-92092450D02*
G01*
X153416000Y-94505450D01*
X151384000Y-94505450D01*
X151384000Y-93616450D01*
X152146000Y-93616450D01*
X152654000Y-93616450D01*
X152654000Y-92981450D01*
X152146000Y-92981450D01*
X152146000Y-93616450D01*
X151384000Y-93616450D01*
X151384000Y-92092450D01*
X153416000Y-92092450D01*
G37*
D10*
%TO.C,D5*%
X154702800Y-86324000D02*
X154546800Y-86324000D01*
X152386800Y-86324000D02*
X152230800Y-86324000D01*
X154545408Y-89556334D02*
G75*
G03*
X154702315Y-86324001I-1078608J1672334D01*
G01*
X154546636Y-88925129D02*
G75*
G03*
X154546799Y-86843040I-1079836J1041129D01*
G01*
X152386801Y-86843040D02*
G75*
G03*
X152386964Y-88925129I1079999J-1040960D01*
G01*
X152231285Y-86324001D02*
G75*
G03*
X152388192Y-89556334I1235515J-1559999D01*
G01*
D11*
%TO.C,U2*%
X150114000Y-112260050D02*
X154686000Y-112260050D01*
X154686000Y-112260050D02*
X154686000Y-117721050D01*
X154686000Y-117721050D02*
X150114000Y-117721050D01*
X150114000Y-117721050D02*
X150114000Y-112260050D01*
D10*
X151384000Y-113784050D02*
X153416000Y-113784050D01*
X153416000Y-113784050D02*
X153416000Y-116197050D01*
X153416000Y-116197050D02*
X151384000Y-116197050D01*
X151384000Y-116197050D02*
X151384000Y-113784050D01*
D11*
X152146000Y-114673050D02*
X152654000Y-114673050D01*
X152654000Y-114673050D02*
X152654000Y-115308050D01*
X152654000Y-115308050D02*
X152146000Y-115308050D01*
X152146000Y-115308050D02*
X152146000Y-114673050D01*
X151384000Y-117721050D02*
X151130000Y-117721050D01*
X151130000Y-116197050D01*
X150114000Y-116197050D01*
X150114000Y-115943050D01*
X151384000Y-115943050D01*
X151384000Y-117721050D01*
G36*
X151384000Y-117721050D02*
G01*
X151130000Y-117721050D01*
X151130000Y-116197050D01*
X150114000Y-116197050D01*
X150114000Y-115943050D01*
X151384000Y-115943050D01*
X151384000Y-117721050D01*
G37*
X153416000Y-113784050D02*
X153416000Y-116197050D01*
X151384000Y-116197050D01*
X151384000Y-115308050D01*
X152146000Y-115308050D01*
X152654000Y-115308050D01*
X152654000Y-114673050D01*
X152146000Y-114673050D01*
X152146000Y-115308050D01*
X151384000Y-115308050D01*
X151384000Y-113784050D01*
X153416000Y-113784050D01*
G36*
X153416000Y-113784050D02*
G01*
X153416000Y-116197050D01*
X151384000Y-116197050D01*
X151384000Y-115308050D01*
X152146000Y-115308050D01*
X152654000Y-115308050D01*
X152654000Y-114673050D01*
X152146000Y-114673050D01*
X152146000Y-115308050D01*
X151384000Y-115308050D01*
X151384000Y-113784050D01*
X153416000Y-113784050D01*
G37*
D10*
%TO.C,C4*%
X151034000Y-98080400D02*
X151034000Y-99338400D01*
X149194000Y-98080400D02*
X149194000Y-99338400D01*
%TD*%
M02*
