%TF.GenerationSoftware,KiCad,Pcbnew,7.0.9*%
%TF.CreationDate,2024-01-11T17:38:21+09:00*%
%TF.ProjectId,LineStick,4c696e65-5374-4696-936b-2e6b69636164,rev?*%
%TF.SameCoordinates,Original*%
%TF.FileFunction,Drillmap*%
%TF.FilePolarity,Positive*%
%FSLAX45Y45*%
G04 Gerber Fmt 4.5, Leading zero omitted, Abs format (unit mm)*
G04 Created by KiCad (PCBNEW 7.0.9) date 2024-01-11 17:38:21*
%MOMM*%
%LPD*%
G01*
G04 APERTURE LIST*
%ADD10C,0.200000*%
%ADD11C,0.100000*%
G04 APERTURE END LIST*
D10*
X15040000Y-13822560D02*
X15440000Y-13822560D01*
X14840000Y-7522560D02*
X14840000Y-13622560D01*
X15440000Y-7322560D02*
X15040000Y-7322560D01*
X15400000Y-7622560D02*
G75*
G03*
X15400000Y-7622560I-160000J0D01*
G01*
X14840000Y-13622560D02*
G75*
G03*
X15040000Y-13822560I200000J0D01*
G01*
X15440000Y-13822560D02*
G75*
G03*
X15640000Y-13622560I0J200000D01*
G01*
X15640000Y-7522560D02*
G75*
G03*
X15440000Y-7322560I-200000J0D01*
G01*
X15040000Y-7322560D02*
G75*
G03*
X14840000Y-7522560I0J-200000D01*
G01*
X15640000Y-13622560D02*
X15640000Y-7522560D01*
D11*
X14859320Y-11481120D02*
X14899320Y-11521120D01*
X14899320Y-11481120D02*
X14859320Y-11521120D01*
X14864400Y-8235000D02*
X14904400Y-8275000D01*
X14904400Y-8235000D02*
X14864400Y-8275000D01*
X14869480Y-8499160D02*
X14909480Y-8539160D01*
X14909480Y-8499160D02*
X14869480Y-8539160D01*
X14869480Y-8773480D02*
X14909480Y-8813480D01*
X14909480Y-8773480D02*
X14869480Y-8813480D01*
X14869480Y-9027480D02*
X14909480Y-9067480D01*
X14909480Y-9027480D02*
X14869480Y-9067480D01*
X14869480Y-9317040D02*
X14909480Y-9357040D01*
X14909480Y-9317040D02*
X14869480Y-9357040D01*
X14869480Y-9586280D02*
X14909480Y-9626280D01*
X14909480Y-9586280D02*
X14869480Y-9626280D01*
X14869480Y-9855520D02*
X14909480Y-9895520D01*
X14909480Y-9855520D02*
X14869480Y-9895520D01*
X14869480Y-10109520D02*
X14909480Y-10149520D01*
X14909480Y-10109520D02*
X14869480Y-10149520D01*
X14869480Y-10399080D02*
X14909480Y-10439080D01*
X14909480Y-10399080D02*
X14869480Y-10439080D01*
X14869480Y-10663240D02*
X14909480Y-10703240D01*
X14909480Y-10663240D02*
X14869480Y-10703240D01*
X14869480Y-10937560D02*
X14909480Y-10977560D01*
X14909480Y-10937560D02*
X14869480Y-10977560D01*
X14869480Y-11196640D02*
X14909480Y-11236640D01*
X14909480Y-11196640D02*
X14869480Y-11236640D01*
X14869480Y-11750360D02*
X14909480Y-11790360D01*
X14909480Y-11750360D02*
X14869480Y-11790360D01*
X14874560Y-12029760D02*
X14914560Y-12069760D01*
X14914560Y-12029760D02*
X14874560Y-12069760D01*
X14874560Y-12278680D02*
X14914560Y-12318680D01*
X14914560Y-12278680D02*
X14874560Y-12318680D01*
X15052360Y-11216960D02*
X15092360Y-11256960D01*
X15092360Y-11216960D02*
X15052360Y-11256960D01*
X15067600Y-10129840D02*
X15107600Y-10169840D01*
X15107600Y-10129840D02*
X15067600Y-10169840D01*
X15184440Y-9230680D02*
X15224440Y-9270680D01*
X15224440Y-9230680D02*
X15184440Y-9270680D01*
X15082040Y-13502640D02*
G75*
G03*
X15082040Y-13502640I-30000J0D01*
G01*
X15082040Y-13655040D02*
G75*
G03*
X15082040Y-13655040I-30000J0D01*
G01*
X15209040Y-13502640D02*
G75*
G03*
X15209040Y-13502640I-30000J0D01*
G01*
X15209040Y-13655040D02*
G75*
G03*
X15209040Y-13655040I-30000J0D01*
G01*
X15336040Y-13502640D02*
G75*
G03*
X15336040Y-13502640I-30000J0D01*
G01*
X15336040Y-13655040D02*
G75*
G03*
X15336040Y-13655040I-30000J0D01*
G01*
X15463040Y-13502640D02*
G75*
G03*
X15463040Y-13502640I-30000J0D01*
G01*
X15463040Y-13655040D02*
G75*
G03*
X15463040Y-13655040I-30000J0D01*
G01*
X14986000Y-8082755D02*
X14986000Y-8158955D01*
X14947900Y-8120855D02*
X15024100Y-8120855D01*
X14986000Y-8336755D02*
X14986000Y-8412955D01*
X14947900Y-8374855D02*
X15024100Y-8374855D01*
X14986000Y-9164795D02*
X14986000Y-9240995D01*
X14947900Y-9202895D02*
X15024100Y-9202895D01*
X14986000Y-9418795D02*
X14986000Y-9494995D01*
X14947900Y-9456895D02*
X15024100Y-9456895D01*
X14986000Y-10246835D02*
X14986000Y-10323035D01*
X14947900Y-10284935D02*
X15024100Y-10284935D01*
X14986000Y-10500835D02*
X14986000Y-10577035D01*
X14947900Y-10538935D02*
X15024100Y-10538935D01*
X14986000Y-11333955D02*
X14986000Y-11410155D01*
X14947900Y-11372055D02*
X15024100Y-11372055D01*
X14986000Y-11587955D02*
X14986000Y-11664155D01*
X14947900Y-11626055D02*
X15024100Y-11626055D01*
X14986000Y-12421075D02*
X14986000Y-12497275D01*
X14947900Y-12459175D02*
X15024100Y-12459175D01*
X14986000Y-12675075D02*
X14986000Y-12751275D01*
X14947900Y-12713175D02*
X15024100Y-12713175D01*
X15494000Y-8082755D02*
X15494000Y-8158955D01*
X15455900Y-8120855D02*
X15532100Y-8120855D01*
X15494000Y-8336755D02*
X15494000Y-8412955D01*
X15455900Y-8374855D02*
X15532100Y-8374855D01*
X15494000Y-9164795D02*
X15494000Y-9240995D01*
X15455900Y-9202895D02*
X15532100Y-9202895D01*
X15494000Y-9418795D02*
X15494000Y-9494995D01*
X15455900Y-9456895D02*
X15532100Y-9456895D01*
X15494000Y-10246835D02*
X15494000Y-10323035D01*
X15455900Y-10284935D02*
X15532100Y-10284935D01*
X15494000Y-10500835D02*
X15494000Y-10577035D01*
X15455900Y-10538935D02*
X15532100Y-10538935D01*
X15494000Y-11333955D02*
X15494000Y-11410155D01*
X15455900Y-11372055D02*
X15532100Y-11372055D01*
X15494000Y-11587955D02*
X15494000Y-11664155D01*
X15455900Y-11626055D02*
X15532100Y-11626055D01*
X15494000Y-12421075D02*
X15494000Y-12497275D01*
X15455900Y-12459175D02*
X15532100Y-12459175D01*
X15494000Y-12675075D02*
X15494000Y-12751275D01*
X15455900Y-12713175D02*
X15532100Y-12713175D01*
X15039684Y-8689685D02*
X15039684Y-8633116D01*
X14983115Y-8633116D01*
X14983115Y-8689685D01*
X15039684Y-8689685D01*
X15039684Y-8939685D02*
X15039684Y-8883116D01*
X14983115Y-8883116D01*
X14983115Y-8939685D01*
X15039684Y-8939685D01*
X15039684Y-9774225D02*
X15039684Y-9717656D01*
X14983115Y-9717656D01*
X14983115Y-9774225D01*
X15039684Y-9774225D01*
X15039684Y-10024225D02*
X15039684Y-9967656D01*
X14983115Y-9967656D01*
X14983115Y-10024225D01*
X15039684Y-10024225D01*
X15039684Y-10857830D02*
X15039684Y-10801261D01*
X14983115Y-10801261D01*
X14983115Y-10857830D01*
X15039684Y-10857830D01*
X15039684Y-11107830D02*
X15039684Y-11051261D01*
X14983115Y-11051261D01*
X14983115Y-11107830D01*
X15039684Y-11107830D01*
X15039684Y-11944949D02*
X15039684Y-11888380D01*
X14983115Y-11888380D01*
X14983115Y-11944949D01*
X15039684Y-11944949D01*
X15039684Y-12194949D02*
X15039684Y-12138380D01*
X14983115Y-12138380D01*
X14983115Y-12194949D01*
X15039684Y-12194949D01*
X15039684Y-13030004D02*
X15039684Y-12973435D01*
X14983115Y-12973435D01*
X14983115Y-13030004D01*
X15039684Y-13030004D01*
X15039684Y-13280004D02*
X15039684Y-13223435D01*
X14983115Y-13223435D01*
X14983115Y-13280004D01*
X15039684Y-13280004D01*
X15346680Y-8706400D02*
X15391680Y-8661400D01*
X15346680Y-8616400D01*
X15301680Y-8661400D01*
X15346680Y-8706400D01*
X15346680Y-8960400D02*
X15391680Y-8915400D01*
X15346680Y-8870400D01*
X15301680Y-8915400D01*
X15346680Y-8960400D01*
X15346680Y-9788440D02*
X15391680Y-9743440D01*
X15346680Y-9698440D01*
X15301680Y-9743440D01*
X15346680Y-9788440D01*
X15346680Y-10042440D02*
X15391680Y-9997440D01*
X15346680Y-9952440D01*
X15301680Y-9997440D01*
X15346680Y-10042440D01*
X15346680Y-10872545D02*
X15391680Y-10827545D01*
X15346680Y-10782545D01*
X15301680Y-10827545D01*
X15346680Y-10872545D01*
X15346680Y-11126545D02*
X15391680Y-11081545D01*
X15346680Y-11036545D01*
X15301680Y-11081545D01*
X15346680Y-11126545D01*
X15346680Y-11959665D02*
X15391680Y-11914665D01*
X15346680Y-11869665D01*
X15301680Y-11914665D01*
X15346680Y-11959665D01*
X15346680Y-12213665D02*
X15391680Y-12168665D01*
X15346680Y-12123665D01*
X15301680Y-12168665D01*
X15346680Y-12213665D01*
X15346680Y-13044720D02*
X15391680Y-12999720D01*
X15346680Y-12954720D01*
X15301680Y-12999720D01*
X15346680Y-13044720D01*
X15346680Y-13298720D02*
X15391680Y-13253720D01*
X15346680Y-13208720D01*
X15301680Y-13253720D01*
X15346680Y-13298720D01*
D10*
X15090777Y-14144044D02*
X15090777Y-13944044D01*
X15090777Y-13944044D02*
X15138396Y-13944044D01*
X15138396Y-13944044D02*
X15166967Y-13953568D01*
X15166967Y-13953568D02*
X15186015Y-13972615D01*
X15186015Y-13972615D02*
X15195539Y-13991663D01*
X15195539Y-13991663D02*
X15205062Y-14029758D01*
X15205062Y-14029758D02*
X15205062Y-14058330D01*
X15205062Y-14058330D02*
X15195539Y-14096425D01*
X15195539Y-14096425D02*
X15186015Y-14115472D01*
X15186015Y-14115472D02*
X15166967Y-14134520D01*
X15166967Y-14134520D02*
X15138396Y-14144044D01*
X15138396Y-14144044D02*
X15090777Y-14144044D01*
X15290777Y-14144044D02*
X15290777Y-14010710D01*
X15290777Y-14048806D02*
X15300301Y-14029758D01*
X15300301Y-14029758D02*
X15309824Y-14020234D01*
X15309824Y-14020234D02*
X15328872Y-14010710D01*
X15328872Y-14010710D02*
X15347920Y-14010710D01*
X15414586Y-14144044D02*
X15414586Y-14010710D01*
X15414586Y-13944044D02*
X15405062Y-13953568D01*
X15405062Y-13953568D02*
X15414586Y-13963091D01*
X15414586Y-13963091D02*
X15424110Y-13953568D01*
X15424110Y-13953568D02*
X15414586Y-13944044D01*
X15414586Y-13944044D02*
X15414586Y-13963091D01*
X15538396Y-14144044D02*
X15519348Y-14134520D01*
X15519348Y-14134520D02*
X15509824Y-14115472D01*
X15509824Y-14115472D02*
X15509824Y-13944044D01*
X15643158Y-14144044D02*
X15624110Y-14134520D01*
X15624110Y-14134520D02*
X15614586Y-14115472D01*
X15614586Y-14115472D02*
X15614586Y-13944044D01*
X15871729Y-14144044D02*
X15871729Y-13944044D01*
X15871729Y-13944044D02*
X15938396Y-14086901D01*
X15938396Y-14086901D02*
X16005062Y-13944044D01*
X16005062Y-13944044D02*
X16005062Y-14144044D01*
X16186015Y-14144044D02*
X16186015Y-14039282D01*
X16186015Y-14039282D02*
X16176491Y-14020234D01*
X16176491Y-14020234D02*
X16157443Y-14010710D01*
X16157443Y-14010710D02*
X16119348Y-14010710D01*
X16119348Y-14010710D02*
X16100301Y-14020234D01*
X16186015Y-14134520D02*
X16166967Y-14144044D01*
X16166967Y-14144044D02*
X16119348Y-14144044D01*
X16119348Y-14144044D02*
X16100301Y-14134520D01*
X16100301Y-14134520D02*
X16090777Y-14115472D01*
X16090777Y-14115472D02*
X16090777Y-14096425D01*
X16090777Y-14096425D02*
X16100301Y-14077377D01*
X16100301Y-14077377D02*
X16119348Y-14067853D01*
X16119348Y-14067853D02*
X16166967Y-14067853D01*
X16166967Y-14067853D02*
X16186015Y-14058330D01*
X16281253Y-14010710D02*
X16281253Y-14210710D01*
X16281253Y-14020234D02*
X16300301Y-14010710D01*
X16300301Y-14010710D02*
X16338396Y-14010710D01*
X16338396Y-14010710D02*
X16357443Y-14020234D01*
X16357443Y-14020234D02*
X16366967Y-14029758D01*
X16366967Y-14029758D02*
X16376491Y-14048806D01*
X16376491Y-14048806D02*
X16376491Y-14105949D01*
X16376491Y-14105949D02*
X16366967Y-14124996D01*
X16366967Y-14124996D02*
X16357443Y-14134520D01*
X16357443Y-14134520D02*
X16338396Y-14144044D01*
X16338396Y-14144044D02*
X16300301Y-14144044D01*
X16300301Y-14144044D02*
X16281253Y-14134520D01*
X16462205Y-14124996D02*
X16471729Y-14134520D01*
X16471729Y-14134520D02*
X16462205Y-14144044D01*
X16462205Y-14144044D02*
X16452682Y-14134520D01*
X16452682Y-14134520D02*
X16462205Y-14124996D01*
X16462205Y-14124996D02*
X16462205Y-14144044D01*
X16462205Y-14020234D02*
X16471729Y-14029758D01*
X16471729Y-14029758D02*
X16462205Y-14039282D01*
X16462205Y-14039282D02*
X16452682Y-14029758D01*
X16452682Y-14029758D02*
X16462205Y-14020234D01*
X16462205Y-14020234D02*
X16462205Y-14039282D01*
D11*
X14790000Y-14452560D02*
X14830000Y-14492560D01*
X14830000Y-14452560D02*
X14790000Y-14492560D01*
D10*
X15128872Y-14364044D02*
X15147920Y-14364044D01*
X15147920Y-14364044D02*
X15166967Y-14373568D01*
X15166967Y-14373568D02*
X15176491Y-14383091D01*
X15176491Y-14383091D02*
X15186015Y-14402139D01*
X15186015Y-14402139D02*
X15195539Y-14440234D01*
X15195539Y-14440234D02*
X15195539Y-14487853D01*
X15195539Y-14487853D02*
X15186015Y-14525949D01*
X15186015Y-14525949D02*
X15176491Y-14544996D01*
X15176491Y-14544996D02*
X15166967Y-14554520D01*
X15166967Y-14554520D02*
X15147920Y-14564044D01*
X15147920Y-14564044D02*
X15128872Y-14564044D01*
X15128872Y-14564044D02*
X15109824Y-14554520D01*
X15109824Y-14554520D02*
X15100301Y-14544996D01*
X15100301Y-14544996D02*
X15090777Y-14525949D01*
X15090777Y-14525949D02*
X15081253Y-14487853D01*
X15081253Y-14487853D02*
X15081253Y-14440234D01*
X15081253Y-14440234D02*
X15090777Y-14402139D01*
X15090777Y-14402139D02*
X15100301Y-14383091D01*
X15100301Y-14383091D02*
X15109824Y-14373568D01*
X15109824Y-14373568D02*
X15128872Y-14364044D01*
X15281253Y-14544996D02*
X15290777Y-14554520D01*
X15290777Y-14554520D02*
X15281253Y-14564044D01*
X15281253Y-14564044D02*
X15271729Y-14554520D01*
X15271729Y-14554520D02*
X15281253Y-14544996D01*
X15281253Y-14544996D02*
X15281253Y-14564044D01*
X15462205Y-14430710D02*
X15462205Y-14564044D01*
X15414586Y-14354520D02*
X15366967Y-14497377D01*
X15366967Y-14497377D02*
X15490777Y-14497377D01*
X15605062Y-14364044D02*
X15624110Y-14364044D01*
X15624110Y-14364044D02*
X15643158Y-14373568D01*
X15643158Y-14373568D02*
X15652682Y-14383091D01*
X15652682Y-14383091D02*
X15662205Y-14402139D01*
X15662205Y-14402139D02*
X15671729Y-14440234D01*
X15671729Y-14440234D02*
X15671729Y-14487853D01*
X15671729Y-14487853D02*
X15662205Y-14525949D01*
X15662205Y-14525949D02*
X15652682Y-14544996D01*
X15652682Y-14544996D02*
X15643158Y-14554520D01*
X15643158Y-14554520D02*
X15624110Y-14564044D01*
X15624110Y-14564044D02*
X15605062Y-14564044D01*
X15605062Y-14564044D02*
X15586015Y-14554520D01*
X15586015Y-14554520D02*
X15576491Y-14544996D01*
X15576491Y-14544996D02*
X15566967Y-14525949D01*
X15566967Y-14525949D02*
X15557443Y-14487853D01*
X15557443Y-14487853D02*
X15557443Y-14440234D01*
X15557443Y-14440234D02*
X15566967Y-14402139D01*
X15566967Y-14402139D02*
X15576491Y-14383091D01*
X15576491Y-14383091D02*
X15586015Y-14373568D01*
X15586015Y-14373568D02*
X15605062Y-14364044D01*
X15795539Y-14364044D02*
X15814586Y-14364044D01*
X15814586Y-14364044D02*
X15833634Y-14373568D01*
X15833634Y-14373568D02*
X15843158Y-14383091D01*
X15843158Y-14383091D02*
X15852682Y-14402139D01*
X15852682Y-14402139D02*
X15862205Y-14440234D01*
X15862205Y-14440234D02*
X15862205Y-14487853D01*
X15862205Y-14487853D02*
X15852682Y-14525949D01*
X15852682Y-14525949D02*
X15843158Y-14544996D01*
X15843158Y-14544996D02*
X15833634Y-14554520D01*
X15833634Y-14554520D02*
X15814586Y-14564044D01*
X15814586Y-14564044D02*
X15795539Y-14564044D01*
X15795539Y-14564044D02*
X15776491Y-14554520D01*
X15776491Y-14554520D02*
X15766967Y-14544996D01*
X15766967Y-14544996D02*
X15757443Y-14525949D01*
X15757443Y-14525949D02*
X15747920Y-14487853D01*
X15747920Y-14487853D02*
X15747920Y-14440234D01*
X15747920Y-14440234D02*
X15757443Y-14402139D01*
X15757443Y-14402139D02*
X15766967Y-14383091D01*
X15766967Y-14383091D02*
X15776491Y-14373568D01*
X15776491Y-14373568D02*
X15795539Y-14364044D01*
X15947920Y-14564044D02*
X15947920Y-14430710D01*
X15947920Y-14449758D02*
X15957443Y-14440234D01*
X15957443Y-14440234D02*
X15976491Y-14430710D01*
X15976491Y-14430710D02*
X16005063Y-14430710D01*
X16005063Y-14430710D02*
X16024110Y-14440234D01*
X16024110Y-14440234D02*
X16033634Y-14459282D01*
X16033634Y-14459282D02*
X16033634Y-14564044D01*
X16033634Y-14459282D02*
X16043158Y-14440234D01*
X16043158Y-14440234D02*
X16062205Y-14430710D01*
X16062205Y-14430710D02*
X16090777Y-14430710D01*
X16090777Y-14430710D02*
X16109824Y-14440234D01*
X16109824Y-14440234D02*
X16119348Y-14459282D01*
X16119348Y-14459282D02*
X16119348Y-14564044D01*
X16214586Y-14564044D02*
X16214586Y-14430710D01*
X16214586Y-14449758D02*
X16224110Y-14440234D01*
X16224110Y-14440234D02*
X16243158Y-14430710D01*
X16243158Y-14430710D02*
X16271729Y-14430710D01*
X16271729Y-14430710D02*
X16290777Y-14440234D01*
X16290777Y-14440234D02*
X16300301Y-14459282D01*
X16300301Y-14459282D02*
X16300301Y-14564044D01*
X16300301Y-14459282D02*
X16309824Y-14440234D01*
X16309824Y-14440234D02*
X16328872Y-14430710D01*
X16328872Y-14430710D02*
X16357443Y-14430710D01*
X16357443Y-14430710D02*
X16376491Y-14440234D01*
X16376491Y-14440234D02*
X16386015Y-14459282D01*
X16386015Y-14459282D02*
X16386015Y-14564044D01*
X16776491Y-14354520D02*
X16605063Y-14611663D01*
X17033634Y-14364044D02*
X17052682Y-14364044D01*
X17052682Y-14364044D02*
X17071729Y-14373568D01*
X17071729Y-14373568D02*
X17081253Y-14383091D01*
X17081253Y-14383091D02*
X17090777Y-14402139D01*
X17090777Y-14402139D02*
X17100301Y-14440234D01*
X17100301Y-14440234D02*
X17100301Y-14487853D01*
X17100301Y-14487853D02*
X17090777Y-14525949D01*
X17090777Y-14525949D02*
X17081253Y-14544996D01*
X17081253Y-14544996D02*
X17071729Y-14554520D01*
X17071729Y-14554520D02*
X17052682Y-14564044D01*
X17052682Y-14564044D02*
X17033634Y-14564044D01*
X17033634Y-14564044D02*
X17014587Y-14554520D01*
X17014587Y-14554520D02*
X17005063Y-14544996D01*
X17005063Y-14544996D02*
X16995539Y-14525949D01*
X16995539Y-14525949D02*
X16986015Y-14487853D01*
X16986015Y-14487853D02*
X16986015Y-14440234D01*
X16986015Y-14440234D02*
X16995539Y-14402139D01*
X16995539Y-14402139D02*
X17005063Y-14383091D01*
X17005063Y-14383091D02*
X17014587Y-14373568D01*
X17014587Y-14373568D02*
X17033634Y-14364044D01*
X17186015Y-14544996D02*
X17195539Y-14554520D01*
X17195539Y-14554520D02*
X17186015Y-14564044D01*
X17186015Y-14564044D02*
X17176491Y-14554520D01*
X17176491Y-14554520D02*
X17186015Y-14544996D01*
X17186015Y-14544996D02*
X17186015Y-14564044D01*
X17319348Y-14364044D02*
X17338396Y-14364044D01*
X17338396Y-14364044D02*
X17357444Y-14373568D01*
X17357444Y-14373568D02*
X17366968Y-14383091D01*
X17366968Y-14383091D02*
X17376491Y-14402139D01*
X17376491Y-14402139D02*
X17386015Y-14440234D01*
X17386015Y-14440234D02*
X17386015Y-14487853D01*
X17386015Y-14487853D02*
X17376491Y-14525949D01*
X17376491Y-14525949D02*
X17366968Y-14544996D01*
X17366968Y-14544996D02*
X17357444Y-14554520D01*
X17357444Y-14554520D02*
X17338396Y-14564044D01*
X17338396Y-14564044D02*
X17319348Y-14564044D01*
X17319348Y-14564044D02*
X17300301Y-14554520D01*
X17300301Y-14554520D02*
X17290777Y-14544996D01*
X17290777Y-14544996D02*
X17281253Y-14525949D01*
X17281253Y-14525949D02*
X17271729Y-14487853D01*
X17271729Y-14487853D02*
X17271729Y-14440234D01*
X17271729Y-14440234D02*
X17281253Y-14402139D01*
X17281253Y-14402139D02*
X17290777Y-14383091D01*
X17290777Y-14383091D02*
X17300301Y-14373568D01*
X17300301Y-14373568D02*
X17319348Y-14364044D01*
X17576491Y-14564044D02*
X17462206Y-14564044D01*
X17519348Y-14564044D02*
X17519348Y-14364044D01*
X17519348Y-14364044D02*
X17500301Y-14392615D01*
X17500301Y-14392615D02*
X17481253Y-14411663D01*
X17481253Y-14411663D02*
X17462206Y-14421187D01*
X17757444Y-14364044D02*
X17662206Y-14364044D01*
X17662206Y-14364044D02*
X17652682Y-14459282D01*
X17652682Y-14459282D02*
X17662206Y-14449758D01*
X17662206Y-14449758D02*
X17681253Y-14440234D01*
X17681253Y-14440234D02*
X17728872Y-14440234D01*
X17728872Y-14440234D02*
X17747920Y-14449758D01*
X17747920Y-14449758D02*
X17757444Y-14459282D01*
X17757444Y-14459282D02*
X17766968Y-14478330D01*
X17766968Y-14478330D02*
X17766968Y-14525949D01*
X17766968Y-14525949D02*
X17757444Y-14544996D01*
X17757444Y-14544996D02*
X17747920Y-14554520D01*
X17747920Y-14554520D02*
X17728872Y-14564044D01*
X17728872Y-14564044D02*
X17681253Y-14564044D01*
X17681253Y-14564044D02*
X17662206Y-14554520D01*
X17662206Y-14554520D02*
X17652682Y-14544996D01*
X17833634Y-14364044D02*
X17966968Y-14364044D01*
X17966968Y-14364044D02*
X17881253Y-14564044D01*
X18033634Y-14364044D02*
X18033634Y-14402139D01*
X18109825Y-14364044D02*
X18109825Y-14402139D01*
X18405063Y-14640234D02*
X18395539Y-14630710D01*
X18395539Y-14630710D02*
X18376491Y-14602139D01*
X18376491Y-14602139D02*
X18366968Y-14583091D01*
X18366968Y-14583091D02*
X18357444Y-14554520D01*
X18357444Y-14554520D02*
X18347920Y-14506901D01*
X18347920Y-14506901D02*
X18347920Y-14468806D01*
X18347920Y-14468806D02*
X18357444Y-14421187D01*
X18357444Y-14421187D02*
X18366968Y-14392615D01*
X18366968Y-14392615D02*
X18376491Y-14373568D01*
X18376491Y-14373568D02*
X18395539Y-14344996D01*
X18395539Y-14344996D02*
X18405063Y-14335472D01*
X18586015Y-14564044D02*
X18471730Y-14564044D01*
X18528872Y-14564044D02*
X18528872Y-14364044D01*
X18528872Y-14364044D02*
X18509825Y-14392615D01*
X18509825Y-14392615D02*
X18490777Y-14411663D01*
X18490777Y-14411663D02*
X18471730Y-14421187D01*
X18681253Y-14564044D02*
X18719349Y-14564044D01*
X18719349Y-14564044D02*
X18738396Y-14554520D01*
X18738396Y-14554520D02*
X18747920Y-14544996D01*
X18747920Y-14544996D02*
X18766968Y-14516425D01*
X18766968Y-14516425D02*
X18776491Y-14478330D01*
X18776491Y-14478330D02*
X18776491Y-14402139D01*
X18776491Y-14402139D02*
X18766968Y-14383091D01*
X18766968Y-14383091D02*
X18757444Y-14373568D01*
X18757444Y-14373568D02*
X18738396Y-14364044D01*
X18738396Y-14364044D02*
X18700301Y-14364044D01*
X18700301Y-14364044D02*
X18681253Y-14373568D01*
X18681253Y-14373568D02*
X18671730Y-14383091D01*
X18671730Y-14383091D02*
X18662206Y-14402139D01*
X18662206Y-14402139D02*
X18662206Y-14449758D01*
X18662206Y-14449758D02*
X18671730Y-14468806D01*
X18671730Y-14468806D02*
X18681253Y-14478330D01*
X18681253Y-14478330D02*
X18700301Y-14487853D01*
X18700301Y-14487853D02*
X18738396Y-14487853D01*
X18738396Y-14487853D02*
X18757444Y-14478330D01*
X18757444Y-14478330D02*
X18766968Y-14468806D01*
X18766968Y-14468806D02*
X18776491Y-14449758D01*
X19014587Y-14564044D02*
X19014587Y-14364044D01*
X19100301Y-14564044D02*
X19100301Y-14459282D01*
X19100301Y-14459282D02*
X19090777Y-14440234D01*
X19090777Y-14440234D02*
X19071730Y-14430710D01*
X19071730Y-14430710D02*
X19043158Y-14430710D01*
X19043158Y-14430710D02*
X19024111Y-14440234D01*
X19024111Y-14440234D02*
X19014587Y-14449758D01*
X19224111Y-14564044D02*
X19205063Y-14554520D01*
X19205063Y-14554520D02*
X19195539Y-14544996D01*
X19195539Y-14544996D02*
X19186015Y-14525949D01*
X19186015Y-14525949D02*
X19186015Y-14468806D01*
X19186015Y-14468806D02*
X19195539Y-14449758D01*
X19195539Y-14449758D02*
X19205063Y-14440234D01*
X19205063Y-14440234D02*
X19224111Y-14430710D01*
X19224111Y-14430710D02*
X19252682Y-14430710D01*
X19252682Y-14430710D02*
X19271730Y-14440234D01*
X19271730Y-14440234D02*
X19281253Y-14449758D01*
X19281253Y-14449758D02*
X19290777Y-14468806D01*
X19290777Y-14468806D02*
X19290777Y-14525949D01*
X19290777Y-14525949D02*
X19281253Y-14544996D01*
X19281253Y-14544996D02*
X19271730Y-14554520D01*
X19271730Y-14554520D02*
X19252682Y-14564044D01*
X19252682Y-14564044D02*
X19224111Y-14564044D01*
X19405063Y-14564044D02*
X19386015Y-14554520D01*
X19386015Y-14554520D02*
X19376492Y-14535472D01*
X19376492Y-14535472D02*
X19376492Y-14364044D01*
X19557444Y-14554520D02*
X19538396Y-14564044D01*
X19538396Y-14564044D02*
X19500301Y-14564044D01*
X19500301Y-14564044D02*
X19481253Y-14554520D01*
X19481253Y-14554520D02*
X19471730Y-14535472D01*
X19471730Y-14535472D02*
X19471730Y-14459282D01*
X19471730Y-14459282D02*
X19481253Y-14440234D01*
X19481253Y-14440234D02*
X19500301Y-14430710D01*
X19500301Y-14430710D02*
X19538396Y-14430710D01*
X19538396Y-14430710D02*
X19557444Y-14440234D01*
X19557444Y-14440234D02*
X19566968Y-14459282D01*
X19566968Y-14459282D02*
X19566968Y-14478330D01*
X19566968Y-14478330D02*
X19471730Y-14497377D01*
X19643158Y-14554520D02*
X19662206Y-14564044D01*
X19662206Y-14564044D02*
X19700301Y-14564044D01*
X19700301Y-14564044D02*
X19719349Y-14554520D01*
X19719349Y-14554520D02*
X19728873Y-14535472D01*
X19728873Y-14535472D02*
X19728873Y-14525949D01*
X19728873Y-14525949D02*
X19719349Y-14506901D01*
X19719349Y-14506901D02*
X19700301Y-14497377D01*
X19700301Y-14497377D02*
X19671730Y-14497377D01*
X19671730Y-14497377D02*
X19652682Y-14487853D01*
X19652682Y-14487853D02*
X19643158Y-14468806D01*
X19643158Y-14468806D02*
X19643158Y-14459282D01*
X19643158Y-14459282D02*
X19652682Y-14440234D01*
X19652682Y-14440234D02*
X19671730Y-14430710D01*
X19671730Y-14430710D02*
X19700301Y-14430710D01*
X19700301Y-14430710D02*
X19719349Y-14440234D01*
X19795539Y-14640234D02*
X19805063Y-14630710D01*
X19805063Y-14630710D02*
X19824111Y-14602139D01*
X19824111Y-14602139D02*
X19833634Y-14583091D01*
X19833634Y-14583091D02*
X19843158Y-14554520D01*
X19843158Y-14554520D02*
X19852682Y-14506901D01*
X19852682Y-14506901D02*
X19852682Y-14468806D01*
X19852682Y-14468806D02*
X19843158Y-14421187D01*
X19843158Y-14421187D02*
X19833634Y-14392615D01*
X19833634Y-14392615D02*
X19824111Y-14373568D01*
X19824111Y-14373568D02*
X19805063Y-14344996D01*
X19805063Y-14344996D02*
X19795539Y-14335472D01*
D11*
X14830000Y-14736560D02*
G75*
G03*
X14830000Y-14736560I-30000J0D01*
G01*
D10*
X15128872Y-14628044D02*
X15147920Y-14628044D01*
X15147920Y-14628044D02*
X15166967Y-14637568D01*
X15166967Y-14637568D02*
X15176491Y-14647091D01*
X15176491Y-14647091D02*
X15186015Y-14666139D01*
X15186015Y-14666139D02*
X15195539Y-14704234D01*
X15195539Y-14704234D02*
X15195539Y-14751853D01*
X15195539Y-14751853D02*
X15186015Y-14789949D01*
X15186015Y-14789949D02*
X15176491Y-14808996D01*
X15176491Y-14808996D02*
X15166967Y-14818520D01*
X15166967Y-14818520D02*
X15147920Y-14828044D01*
X15147920Y-14828044D02*
X15128872Y-14828044D01*
X15128872Y-14828044D02*
X15109824Y-14818520D01*
X15109824Y-14818520D02*
X15100301Y-14808996D01*
X15100301Y-14808996D02*
X15090777Y-14789949D01*
X15090777Y-14789949D02*
X15081253Y-14751853D01*
X15081253Y-14751853D02*
X15081253Y-14704234D01*
X15081253Y-14704234D02*
X15090777Y-14666139D01*
X15090777Y-14666139D02*
X15100301Y-14647091D01*
X15100301Y-14647091D02*
X15109824Y-14637568D01*
X15109824Y-14637568D02*
X15128872Y-14628044D01*
X15281253Y-14808996D02*
X15290777Y-14818520D01*
X15290777Y-14818520D02*
X15281253Y-14828044D01*
X15281253Y-14828044D02*
X15271729Y-14818520D01*
X15271729Y-14818520D02*
X15281253Y-14808996D01*
X15281253Y-14808996D02*
X15281253Y-14828044D01*
X15462205Y-14628044D02*
X15424110Y-14628044D01*
X15424110Y-14628044D02*
X15405062Y-14637568D01*
X15405062Y-14637568D02*
X15395539Y-14647091D01*
X15395539Y-14647091D02*
X15376491Y-14675663D01*
X15376491Y-14675663D02*
X15366967Y-14713758D01*
X15366967Y-14713758D02*
X15366967Y-14789949D01*
X15366967Y-14789949D02*
X15376491Y-14808996D01*
X15376491Y-14808996D02*
X15386015Y-14818520D01*
X15386015Y-14818520D02*
X15405062Y-14828044D01*
X15405062Y-14828044D02*
X15443158Y-14828044D01*
X15443158Y-14828044D02*
X15462205Y-14818520D01*
X15462205Y-14818520D02*
X15471729Y-14808996D01*
X15471729Y-14808996D02*
X15481253Y-14789949D01*
X15481253Y-14789949D02*
X15481253Y-14742330D01*
X15481253Y-14742330D02*
X15471729Y-14723282D01*
X15471729Y-14723282D02*
X15462205Y-14713758D01*
X15462205Y-14713758D02*
X15443158Y-14704234D01*
X15443158Y-14704234D02*
X15405062Y-14704234D01*
X15405062Y-14704234D02*
X15386015Y-14713758D01*
X15386015Y-14713758D02*
X15376491Y-14723282D01*
X15376491Y-14723282D02*
X15366967Y-14742330D01*
X15605062Y-14628044D02*
X15624110Y-14628044D01*
X15624110Y-14628044D02*
X15643158Y-14637568D01*
X15643158Y-14637568D02*
X15652682Y-14647091D01*
X15652682Y-14647091D02*
X15662205Y-14666139D01*
X15662205Y-14666139D02*
X15671729Y-14704234D01*
X15671729Y-14704234D02*
X15671729Y-14751853D01*
X15671729Y-14751853D02*
X15662205Y-14789949D01*
X15662205Y-14789949D02*
X15652682Y-14808996D01*
X15652682Y-14808996D02*
X15643158Y-14818520D01*
X15643158Y-14818520D02*
X15624110Y-14828044D01*
X15624110Y-14828044D02*
X15605062Y-14828044D01*
X15605062Y-14828044D02*
X15586015Y-14818520D01*
X15586015Y-14818520D02*
X15576491Y-14808996D01*
X15576491Y-14808996D02*
X15566967Y-14789949D01*
X15566967Y-14789949D02*
X15557443Y-14751853D01*
X15557443Y-14751853D02*
X15557443Y-14704234D01*
X15557443Y-14704234D02*
X15566967Y-14666139D01*
X15566967Y-14666139D02*
X15576491Y-14647091D01*
X15576491Y-14647091D02*
X15586015Y-14637568D01*
X15586015Y-14637568D02*
X15605062Y-14628044D01*
X15795539Y-14628044D02*
X15814586Y-14628044D01*
X15814586Y-14628044D02*
X15833634Y-14637568D01*
X15833634Y-14637568D02*
X15843158Y-14647091D01*
X15843158Y-14647091D02*
X15852682Y-14666139D01*
X15852682Y-14666139D02*
X15862205Y-14704234D01*
X15862205Y-14704234D02*
X15862205Y-14751853D01*
X15862205Y-14751853D02*
X15852682Y-14789949D01*
X15852682Y-14789949D02*
X15843158Y-14808996D01*
X15843158Y-14808996D02*
X15833634Y-14818520D01*
X15833634Y-14818520D02*
X15814586Y-14828044D01*
X15814586Y-14828044D02*
X15795539Y-14828044D01*
X15795539Y-14828044D02*
X15776491Y-14818520D01*
X15776491Y-14818520D02*
X15766967Y-14808996D01*
X15766967Y-14808996D02*
X15757443Y-14789949D01*
X15757443Y-14789949D02*
X15747920Y-14751853D01*
X15747920Y-14751853D02*
X15747920Y-14704234D01*
X15747920Y-14704234D02*
X15757443Y-14666139D01*
X15757443Y-14666139D02*
X15766967Y-14647091D01*
X15766967Y-14647091D02*
X15776491Y-14637568D01*
X15776491Y-14637568D02*
X15795539Y-14628044D01*
X15947920Y-14828044D02*
X15947920Y-14694710D01*
X15947920Y-14713758D02*
X15957443Y-14704234D01*
X15957443Y-14704234D02*
X15976491Y-14694710D01*
X15976491Y-14694710D02*
X16005063Y-14694710D01*
X16005063Y-14694710D02*
X16024110Y-14704234D01*
X16024110Y-14704234D02*
X16033634Y-14723282D01*
X16033634Y-14723282D02*
X16033634Y-14828044D01*
X16033634Y-14723282D02*
X16043158Y-14704234D01*
X16043158Y-14704234D02*
X16062205Y-14694710D01*
X16062205Y-14694710D02*
X16090777Y-14694710D01*
X16090777Y-14694710D02*
X16109824Y-14704234D01*
X16109824Y-14704234D02*
X16119348Y-14723282D01*
X16119348Y-14723282D02*
X16119348Y-14828044D01*
X16214586Y-14828044D02*
X16214586Y-14694710D01*
X16214586Y-14713758D02*
X16224110Y-14704234D01*
X16224110Y-14704234D02*
X16243158Y-14694710D01*
X16243158Y-14694710D02*
X16271729Y-14694710D01*
X16271729Y-14694710D02*
X16290777Y-14704234D01*
X16290777Y-14704234D02*
X16300301Y-14723282D01*
X16300301Y-14723282D02*
X16300301Y-14828044D01*
X16300301Y-14723282D02*
X16309824Y-14704234D01*
X16309824Y-14704234D02*
X16328872Y-14694710D01*
X16328872Y-14694710D02*
X16357443Y-14694710D01*
X16357443Y-14694710D02*
X16376491Y-14704234D01*
X16376491Y-14704234D02*
X16386015Y-14723282D01*
X16386015Y-14723282D02*
X16386015Y-14828044D01*
X16776491Y-14618520D02*
X16605063Y-14875663D01*
X17033634Y-14628044D02*
X17052682Y-14628044D01*
X17052682Y-14628044D02*
X17071729Y-14637568D01*
X17071729Y-14637568D02*
X17081253Y-14647091D01*
X17081253Y-14647091D02*
X17090777Y-14666139D01*
X17090777Y-14666139D02*
X17100301Y-14704234D01*
X17100301Y-14704234D02*
X17100301Y-14751853D01*
X17100301Y-14751853D02*
X17090777Y-14789949D01*
X17090777Y-14789949D02*
X17081253Y-14808996D01*
X17081253Y-14808996D02*
X17071729Y-14818520D01*
X17071729Y-14818520D02*
X17052682Y-14828044D01*
X17052682Y-14828044D02*
X17033634Y-14828044D01*
X17033634Y-14828044D02*
X17014587Y-14818520D01*
X17014587Y-14818520D02*
X17005063Y-14808996D01*
X17005063Y-14808996D02*
X16995539Y-14789949D01*
X16995539Y-14789949D02*
X16986015Y-14751853D01*
X16986015Y-14751853D02*
X16986015Y-14704234D01*
X16986015Y-14704234D02*
X16995539Y-14666139D01*
X16995539Y-14666139D02*
X17005063Y-14647091D01*
X17005063Y-14647091D02*
X17014587Y-14637568D01*
X17014587Y-14637568D02*
X17033634Y-14628044D01*
X17186015Y-14808996D02*
X17195539Y-14818520D01*
X17195539Y-14818520D02*
X17186015Y-14828044D01*
X17186015Y-14828044D02*
X17176491Y-14818520D01*
X17176491Y-14818520D02*
X17186015Y-14808996D01*
X17186015Y-14808996D02*
X17186015Y-14828044D01*
X17319348Y-14628044D02*
X17338396Y-14628044D01*
X17338396Y-14628044D02*
X17357444Y-14637568D01*
X17357444Y-14637568D02*
X17366968Y-14647091D01*
X17366968Y-14647091D02*
X17376491Y-14666139D01*
X17376491Y-14666139D02*
X17386015Y-14704234D01*
X17386015Y-14704234D02*
X17386015Y-14751853D01*
X17386015Y-14751853D02*
X17376491Y-14789949D01*
X17376491Y-14789949D02*
X17366968Y-14808996D01*
X17366968Y-14808996D02*
X17357444Y-14818520D01*
X17357444Y-14818520D02*
X17338396Y-14828044D01*
X17338396Y-14828044D02*
X17319348Y-14828044D01*
X17319348Y-14828044D02*
X17300301Y-14818520D01*
X17300301Y-14818520D02*
X17290777Y-14808996D01*
X17290777Y-14808996D02*
X17281253Y-14789949D01*
X17281253Y-14789949D02*
X17271729Y-14751853D01*
X17271729Y-14751853D02*
X17271729Y-14704234D01*
X17271729Y-14704234D02*
X17281253Y-14666139D01*
X17281253Y-14666139D02*
X17290777Y-14647091D01*
X17290777Y-14647091D02*
X17300301Y-14637568D01*
X17300301Y-14637568D02*
X17319348Y-14628044D01*
X17462206Y-14647091D02*
X17471729Y-14637568D01*
X17471729Y-14637568D02*
X17490777Y-14628044D01*
X17490777Y-14628044D02*
X17538396Y-14628044D01*
X17538396Y-14628044D02*
X17557444Y-14637568D01*
X17557444Y-14637568D02*
X17566968Y-14647091D01*
X17566968Y-14647091D02*
X17576491Y-14666139D01*
X17576491Y-14666139D02*
X17576491Y-14685187D01*
X17576491Y-14685187D02*
X17566968Y-14713758D01*
X17566968Y-14713758D02*
X17452682Y-14828044D01*
X17452682Y-14828044D02*
X17576491Y-14828044D01*
X17643158Y-14628044D02*
X17766968Y-14628044D01*
X17766968Y-14628044D02*
X17700301Y-14704234D01*
X17700301Y-14704234D02*
X17728872Y-14704234D01*
X17728872Y-14704234D02*
X17747920Y-14713758D01*
X17747920Y-14713758D02*
X17757444Y-14723282D01*
X17757444Y-14723282D02*
X17766968Y-14742330D01*
X17766968Y-14742330D02*
X17766968Y-14789949D01*
X17766968Y-14789949D02*
X17757444Y-14808996D01*
X17757444Y-14808996D02*
X17747920Y-14818520D01*
X17747920Y-14818520D02*
X17728872Y-14828044D01*
X17728872Y-14828044D02*
X17671729Y-14828044D01*
X17671729Y-14828044D02*
X17652682Y-14818520D01*
X17652682Y-14818520D02*
X17643158Y-14808996D01*
X17938396Y-14628044D02*
X17900301Y-14628044D01*
X17900301Y-14628044D02*
X17881253Y-14637568D01*
X17881253Y-14637568D02*
X17871729Y-14647091D01*
X17871729Y-14647091D02*
X17852682Y-14675663D01*
X17852682Y-14675663D02*
X17843158Y-14713758D01*
X17843158Y-14713758D02*
X17843158Y-14789949D01*
X17843158Y-14789949D02*
X17852682Y-14808996D01*
X17852682Y-14808996D02*
X17862206Y-14818520D01*
X17862206Y-14818520D02*
X17881253Y-14828044D01*
X17881253Y-14828044D02*
X17919349Y-14828044D01*
X17919349Y-14828044D02*
X17938396Y-14818520D01*
X17938396Y-14818520D02*
X17947920Y-14808996D01*
X17947920Y-14808996D02*
X17957444Y-14789949D01*
X17957444Y-14789949D02*
X17957444Y-14742330D01*
X17957444Y-14742330D02*
X17947920Y-14723282D01*
X17947920Y-14723282D02*
X17938396Y-14713758D01*
X17938396Y-14713758D02*
X17919349Y-14704234D01*
X17919349Y-14704234D02*
X17881253Y-14704234D01*
X17881253Y-14704234D02*
X17862206Y-14713758D01*
X17862206Y-14713758D02*
X17852682Y-14723282D01*
X17852682Y-14723282D02*
X17843158Y-14742330D01*
X18033634Y-14628044D02*
X18033634Y-14666139D01*
X18109825Y-14628044D02*
X18109825Y-14666139D01*
X18405063Y-14904234D02*
X18395539Y-14894710D01*
X18395539Y-14894710D02*
X18376491Y-14866139D01*
X18376491Y-14866139D02*
X18366968Y-14847091D01*
X18366968Y-14847091D02*
X18357444Y-14818520D01*
X18357444Y-14818520D02*
X18347920Y-14770901D01*
X18347920Y-14770901D02*
X18347920Y-14732806D01*
X18347920Y-14732806D02*
X18357444Y-14685187D01*
X18357444Y-14685187D02*
X18366968Y-14656615D01*
X18366968Y-14656615D02*
X18376491Y-14637568D01*
X18376491Y-14637568D02*
X18395539Y-14608996D01*
X18395539Y-14608996D02*
X18405063Y-14599472D01*
X18509825Y-14713758D02*
X18490777Y-14704234D01*
X18490777Y-14704234D02*
X18481253Y-14694710D01*
X18481253Y-14694710D02*
X18471730Y-14675663D01*
X18471730Y-14675663D02*
X18471730Y-14666139D01*
X18471730Y-14666139D02*
X18481253Y-14647091D01*
X18481253Y-14647091D02*
X18490777Y-14637568D01*
X18490777Y-14637568D02*
X18509825Y-14628044D01*
X18509825Y-14628044D02*
X18547920Y-14628044D01*
X18547920Y-14628044D02*
X18566968Y-14637568D01*
X18566968Y-14637568D02*
X18576491Y-14647091D01*
X18576491Y-14647091D02*
X18586015Y-14666139D01*
X18586015Y-14666139D02*
X18586015Y-14675663D01*
X18586015Y-14675663D02*
X18576491Y-14694710D01*
X18576491Y-14694710D02*
X18566968Y-14704234D01*
X18566968Y-14704234D02*
X18547920Y-14713758D01*
X18547920Y-14713758D02*
X18509825Y-14713758D01*
X18509825Y-14713758D02*
X18490777Y-14723282D01*
X18490777Y-14723282D02*
X18481253Y-14732806D01*
X18481253Y-14732806D02*
X18471730Y-14751853D01*
X18471730Y-14751853D02*
X18471730Y-14789949D01*
X18471730Y-14789949D02*
X18481253Y-14808996D01*
X18481253Y-14808996D02*
X18490777Y-14818520D01*
X18490777Y-14818520D02*
X18509825Y-14828044D01*
X18509825Y-14828044D02*
X18547920Y-14828044D01*
X18547920Y-14828044D02*
X18566968Y-14818520D01*
X18566968Y-14818520D02*
X18576491Y-14808996D01*
X18576491Y-14808996D02*
X18586015Y-14789949D01*
X18586015Y-14789949D02*
X18586015Y-14751853D01*
X18586015Y-14751853D02*
X18576491Y-14732806D01*
X18576491Y-14732806D02*
X18566968Y-14723282D01*
X18566968Y-14723282D02*
X18547920Y-14713758D01*
X18824111Y-14828044D02*
X18824111Y-14628044D01*
X18909825Y-14828044D02*
X18909825Y-14723282D01*
X18909825Y-14723282D02*
X18900301Y-14704234D01*
X18900301Y-14704234D02*
X18881253Y-14694710D01*
X18881253Y-14694710D02*
X18852682Y-14694710D01*
X18852682Y-14694710D02*
X18833634Y-14704234D01*
X18833634Y-14704234D02*
X18824111Y-14713758D01*
X19033634Y-14828044D02*
X19014587Y-14818520D01*
X19014587Y-14818520D02*
X19005063Y-14808996D01*
X19005063Y-14808996D02*
X18995539Y-14789949D01*
X18995539Y-14789949D02*
X18995539Y-14732806D01*
X18995539Y-14732806D02*
X19005063Y-14713758D01*
X19005063Y-14713758D02*
X19014587Y-14704234D01*
X19014587Y-14704234D02*
X19033634Y-14694710D01*
X19033634Y-14694710D02*
X19062206Y-14694710D01*
X19062206Y-14694710D02*
X19081253Y-14704234D01*
X19081253Y-14704234D02*
X19090777Y-14713758D01*
X19090777Y-14713758D02*
X19100301Y-14732806D01*
X19100301Y-14732806D02*
X19100301Y-14789949D01*
X19100301Y-14789949D02*
X19090777Y-14808996D01*
X19090777Y-14808996D02*
X19081253Y-14818520D01*
X19081253Y-14818520D02*
X19062206Y-14828044D01*
X19062206Y-14828044D02*
X19033634Y-14828044D01*
X19214587Y-14828044D02*
X19195539Y-14818520D01*
X19195539Y-14818520D02*
X19186015Y-14799472D01*
X19186015Y-14799472D02*
X19186015Y-14628044D01*
X19366968Y-14818520D02*
X19347920Y-14828044D01*
X19347920Y-14828044D02*
X19309825Y-14828044D01*
X19309825Y-14828044D02*
X19290777Y-14818520D01*
X19290777Y-14818520D02*
X19281253Y-14799472D01*
X19281253Y-14799472D02*
X19281253Y-14723282D01*
X19281253Y-14723282D02*
X19290777Y-14704234D01*
X19290777Y-14704234D02*
X19309825Y-14694710D01*
X19309825Y-14694710D02*
X19347920Y-14694710D01*
X19347920Y-14694710D02*
X19366968Y-14704234D01*
X19366968Y-14704234D02*
X19376492Y-14723282D01*
X19376492Y-14723282D02*
X19376492Y-14742330D01*
X19376492Y-14742330D02*
X19281253Y-14761377D01*
X19452682Y-14818520D02*
X19471730Y-14828044D01*
X19471730Y-14828044D02*
X19509825Y-14828044D01*
X19509825Y-14828044D02*
X19528873Y-14818520D01*
X19528873Y-14818520D02*
X19538396Y-14799472D01*
X19538396Y-14799472D02*
X19538396Y-14789949D01*
X19538396Y-14789949D02*
X19528873Y-14770901D01*
X19528873Y-14770901D02*
X19509825Y-14761377D01*
X19509825Y-14761377D02*
X19481253Y-14761377D01*
X19481253Y-14761377D02*
X19462206Y-14751853D01*
X19462206Y-14751853D02*
X19452682Y-14732806D01*
X19452682Y-14732806D02*
X19452682Y-14723282D01*
X19452682Y-14723282D02*
X19462206Y-14704234D01*
X19462206Y-14704234D02*
X19481253Y-14694710D01*
X19481253Y-14694710D02*
X19509825Y-14694710D01*
X19509825Y-14694710D02*
X19528873Y-14704234D01*
X19605063Y-14904234D02*
X19614587Y-14894710D01*
X19614587Y-14894710D02*
X19633634Y-14866139D01*
X19633634Y-14866139D02*
X19643158Y-14847091D01*
X19643158Y-14847091D02*
X19652682Y-14818520D01*
X19652682Y-14818520D02*
X19662206Y-14770901D01*
X19662206Y-14770901D02*
X19662206Y-14732806D01*
X19662206Y-14732806D02*
X19652682Y-14685187D01*
X19652682Y-14685187D02*
X19643158Y-14656615D01*
X19643158Y-14656615D02*
X19633634Y-14637568D01*
X19633634Y-14637568D02*
X19614587Y-14608996D01*
X19614587Y-14608996D02*
X19605063Y-14599472D01*
D11*
X14791900Y-14962460D02*
X14791900Y-15038660D01*
X14753800Y-15000560D02*
X14830000Y-15000560D01*
D10*
X15128872Y-14892044D02*
X15147920Y-14892044D01*
X15147920Y-14892044D02*
X15166967Y-14901568D01*
X15166967Y-14901568D02*
X15176491Y-14911091D01*
X15176491Y-14911091D02*
X15186015Y-14930139D01*
X15186015Y-14930139D02*
X15195539Y-14968234D01*
X15195539Y-14968234D02*
X15195539Y-15015853D01*
X15195539Y-15015853D02*
X15186015Y-15053949D01*
X15186015Y-15053949D02*
X15176491Y-15072996D01*
X15176491Y-15072996D02*
X15166967Y-15082520D01*
X15166967Y-15082520D02*
X15147920Y-15092044D01*
X15147920Y-15092044D02*
X15128872Y-15092044D01*
X15128872Y-15092044D02*
X15109824Y-15082520D01*
X15109824Y-15082520D02*
X15100301Y-15072996D01*
X15100301Y-15072996D02*
X15090777Y-15053949D01*
X15090777Y-15053949D02*
X15081253Y-15015853D01*
X15081253Y-15015853D02*
X15081253Y-14968234D01*
X15081253Y-14968234D02*
X15090777Y-14930139D01*
X15090777Y-14930139D02*
X15100301Y-14911091D01*
X15100301Y-14911091D02*
X15109824Y-14901568D01*
X15109824Y-14901568D02*
X15128872Y-14892044D01*
X15281253Y-15072996D02*
X15290777Y-15082520D01*
X15290777Y-15082520D02*
X15281253Y-15092044D01*
X15281253Y-15092044D02*
X15271729Y-15082520D01*
X15271729Y-15082520D02*
X15281253Y-15072996D01*
X15281253Y-15072996D02*
X15281253Y-15092044D01*
X15357443Y-14892044D02*
X15490777Y-14892044D01*
X15490777Y-14892044D02*
X15405062Y-15092044D01*
X15652682Y-14892044D02*
X15614586Y-14892044D01*
X15614586Y-14892044D02*
X15595539Y-14901568D01*
X15595539Y-14901568D02*
X15586015Y-14911091D01*
X15586015Y-14911091D02*
X15566967Y-14939663D01*
X15566967Y-14939663D02*
X15557443Y-14977758D01*
X15557443Y-14977758D02*
X15557443Y-15053949D01*
X15557443Y-15053949D02*
X15566967Y-15072996D01*
X15566967Y-15072996D02*
X15576491Y-15082520D01*
X15576491Y-15082520D02*
X15595539Y-15092044D01*
X15595539Y-15092044D02*
X15633634Y-15092044D01*
X15633634Y-15092044D02*
X15652682Y-15082520D01*
X15652682Y-15082520D02*
X15662205Y-15072996D01*
X15662205Y-15072996D02*
X15671729Y-15053949D01*
X15671729Y-15053949D02*
X15671729Y-15006330D01*
X15671729Y-15006330D02*
X15662205Y-14987282D01*
X15662205Y-14987282D02*
X15652682Y-14977758D01*
X15652682Y-14977758D02*
X15633634Y-14968234D01*
X15633634Y-14968234D02*
X15595539Y-14968234D01*
X15595539Y-14968234D02*
X15576491Y-14977758D01*
X15576491Y-14977758D02*
X15566967Y-14987282D01*
X15566967Y-14987282D02*
X15557443Y-15006330D01*
X15747920Y-14911091D02*
X15757443Y-14901568D01*
X15757443Y-14901568D02*
X15776491Y-14892044D01*
X15776491Y-14892044D02*
X15824110Y-14892044D01*
X15824110Y-14892044D02*
X15843158Y-14901568D01*
X15843158Y-14901568D02*
X15852682Y-14911091D01*
X15852682Y-14911091D02*
X15862205Y-14930139D01*
X15862205Y-14930139D02*
X15862205Y-14949187D01*
X15862205Y-14949187D02*
X15852682Y-14977758D01*
X15852682Y-14977758D02*
X15738396Y-15092044D01*
X15738396Y-15092044D02*
X15862205Y-15092044D01*
X15947920Y-15092044D02*
X15947920Y-14958710D01*
X15947920Y-14977758D02*
X15957443Y-14968234D01*
X15957443Y-14968234D02*
X15976491Y-14958710D01*
X15976491Y-14958710D02*
X16005063Y-14958710D01*
X16005063Y-14958710D02*
X16024110Y-14968234D01*
X16024110Y-14968234D02*
X16033634Y-14987282D01*
X16033634Y-14987282D02*
X16033634Y-15092044D01*
X16033634Y-14987282D02*
X16043158Y-14968234D01*
X16043158Y-14968234D02*
X16062205Y-14958710D01*
X16062205Y-14958710D02*
X16090777Y-14958710D01*
X16090777Y-14958710D02*
X16109824Y-14968234D01*
X16109824Y-14968234D02*
X16119348Y-14987282D01*
X16119348Y-14987282D02*
X16119348Y-15092044D01*
X16214586Y-15092044D02*
X16214586Y-14958710D01*
X16214586Y-14977758D02*
X16224110Y-14968234D01*
X16224110Y-14968234D02*
X16243158Y-14958710D01*
X16243158Y-14958710D02*
X16271729Y-14958710D01*
X16271729Y-14958710D02*
X16290777Y-14968234D01*
X16290777Y-14968234D02*
X16300301Y-14987282D01*
X16300301Y-14987282D02*
X16300301Y-15092044D01*
X16300301Y-14987282D02*
X16309824Y-14968234D01*
X16309824Y-14968234D02*
X16328872Y-14958710D01*
X16328872Y-14958710D02*
X16357443Y-14958710D01*
X16357443Y-14958710D02*
X16376491Y-14968234D01*
X16376491Y-14968234D02*
X16386015Y-14987282D01*
X16386015Y-14987282D02*
X16386015Y-15092044D01*
X16776491Y-14882520D02*
X16605063Y-15139663D01*
X17033634Y-14892044D02*
X17052682Y-14892044D01*
X17052682Y-14892044D02*
X17071729Y-14901568D01*
X17071729Y-14901568D02*
X17081253Y-14911091D01*
X17081253Y-14911091D02*
X17090777Y-14930139D01*
X17090777Y-14930139D02*
X17100301Y-14968234D01*
X17100301Y-14968234D02*
X17100301Y-15015853D01*
X17100301Y-15015853D02*
X17090777Y-15053949D01*
X17090777Y-15053949D02*
X17081253Y-15072996D01*
X17081253Y-15072996D02*
X17071729Y-15082520D01*
X17071729Y-15082520D02*
X17052682Y-15092044D01*
X17052682Y-15092044D02*
X17033634Y-15092044D01*
X17033634Y-15092044D02*
X17014587Y-15082520D01*
X17014587Y-15082520D02*
X17005063Y-15072996D01*
X17005063Y-15072996D02*
X16995539Y-15053949D01*
X16995539Y-15053949D02*
X16986015Y-15015853D01*
X16986015Y-15015853D02*
X16986015Y-14968234D01*
X16986015Y-14968234D02*
X16995539Y-14930139D01*
X16995539Y-14930139D02*
X17005063Y-14911091D01*
X17005063Y-14911091D02*
X17014587Y-14901568D01*
X17014587Y-14901568D02*
X17033634Y-14892044D01*
X17186015Y-15072996D02*
X17195539Y-15082520D01*
X17195539Y-15082520D02*
X17186015Y-15092044D01*
X17186015Y-15092044D02*
X17176491Y-15082520D01*
X17176491Y-15082520D02*
X17186015Y-15072996D01*
X17186015Y-15072996D02*
X17186015Y-15092044D01*
X17319348Y-14892044D02*
X17338396Y-14892044D01*
X17338396Y-14892044D02*
X17357444Y-14901568D01*
X17357444Y-14901568D02*
X17366968Y-14911091D01*
X17366968Y-14911091D02*
X17376491Y-14930139D01*
X17376491Y-14930139D02*
X17386015Y-14968234D01*
X17386015Y-14968234D02*
X17386015Y-15015853D01*
X17386015Y-15015853D02*
X17376491Y-15053949D01*
X17376491Y-15053949D02*
X17366968Y-15072996D01*
X17366968Y-15072996D02*
X17357444Y-15082520D01*
X17357444Y-15082520D02*
X17338396Y-15092044D01*
X17338396Y-15092044D02*
X17319348Y-15092044D01*
X17319348Y-15092044D02*
X17300301Y-15082520D01*
X17300301Y-15082520D02*
X17290777Y-15072996D01*
X17290777Y-15072996D02*
X17281253Y-15053949D01*
X17281253Y-15053949D02*
X17271729Y-15015853D01*
X17271729Y-15015853D02*
X17271729Y-14968234D01*
X17271729Y-14968234D02*
X17281253Y-14930139D01*
X17281253Y-14930139D02*
X17290777Y-14911091D01*
X17290777Y-14911091D02*
X17300301Y-14901568D01*
X17300301Y-14901568D02*
X17319348Y-14892044D01*
X17452682Y-14892044D02*
X17576491Y-14892044D01*
X17576491Y-14892044D02*
X17509825Y-14968234D01*
X17509825Y-14968234D02*
X17538396Y-14968234D01*
X17538396Y-14968234D02*
X17557444Y-14977758D01*
X17557444Y-14977758D02*
X17566968Y-14987282D01*
X17566968Y-14987282D02*
X17576491Y-15006330D01*
X17576491Y-15006330D02*
X17576491Y-15053949D01*
X17576491Y-15053949D02*
X17566968Y-15072996D01*
X17566968Y-15072996D02*
X17557444Y-15082520D01*
X17557444Y-15082520D02*
X17538396Y-15092044D01*
X17538396Y-15092044D02*
X17481253Y-15092044D01*
X17481253Y-15092044D02*
X17462206Y-15082520D01*
X17462206Y-15082520D02*
X17452682Y-15072996D01*
X17700301Y-14892044D02*
X17719349Y-14892044D01*
X17719349Y-14892044D02*
X17738396Y-14901568D01*
X17738396Y-14901568D02*
X17747920Y-14911091D01*
X17747920Y-14911091D02*
X17757444Y-14930139D01*
X17757444Y-14930139D02*
X17766968Y-14968234D01*
X17766968Y-14968234D02*
X17766968Y-15015853D01*
X17766968Y-15015853D02*
X17757444Y-15053949D01*
X17757444Y-15053949D02*
X17747920Y-15072996D01*
X17747920Y-15072996D02*
X17738396Y-15082520D01*
X17738396Y-15082520D02*
X17719349Y-15092044D01*
X17719349Y-15092044D02*
X17700301Y-15092044D01*
X17700301Y-15092044D02*
X17681253Y-15082520D01*
X17681253Y-15082520D02*
X17671729Y-15072996D01*
X17671729Y-15072996D02*
X17662206Y-15053949D01*
X17662206Y-15053949D02*
X17652682Y-15015853D01*
X17652682Y-15015853D02*
X17652682Y-14968234D01*
X17652682Y-14968234D02*
X17662206Y-14930139D01*
X17662206Y-14930139D02*
X17671729Y-14911091D01*
X17671729Y-14911091D02*
X17681253Y-14901568D01*
X17681253Y-14901568D02*
X17700301Y-14892044D01*
X17890777Y-14892044D02*
X17909825Y-14892044D01*
X17909825Y-14892044D02*
X17928872Y-14901568D01*
X17928872Y-14901568D02*
X17938396Y-14911091D01*
X17938396Y-14911091D02*
X17947920Y-14930139D01*
X17947920Y-14930139D02*
X17957444Y-14968234D01*
X17957444Y-14968234D02*
X17957444Y-15015853D01*
X17957444Y-15015853D02*
X17947920Y-15053949D01*
X17947920Y-15053949D02*
X17938396Y-15072996D01*
X17938396Y-15072996D02*
X17928872Y-15082520D01*
X17928872Y-15082520D02*
X17909825Y-15092044D01*
X17909825Y-15092044D02*
X17890777Y-15092044D01*
X17890777Y-15092044D02*
X17871729Y-15082520D01*
X17871729Y-15082520D02*
X17862206Y-15072996D01*
X17862206Y-15072996D02*
X17852682Y-15053949D01*
X17852682Y-15053949D02*
X17843158Y-15015853D01*
X17843158Y-15015853D02*
X17843158Y-14968234D01*
X17843158Y-14968234D02*
X17852682Y-14930139D01*
X17852682Y-14930139D02*
X17862206Y-14911091D01*
X17862206Y-14911091D02*
X17871729Y-14901568D01*
X17871729Y-14901568D02*
X17890777Y-14892044D01*
X18033634Y-14892044D02*
X18033634Y-14930139D01*
X18109825Y-14892044D02*
X18109825Y-14930139D01*
X18405063Y-15168234D02*
X18395539Y-15158710D01*
X18395539Y-15158710D02*
X18376491Y-15130139D01*
X18376491Y-15130139D02*
X18366968Y-15111091D01*
X18366968Y-15111091D02*
X18357444Y-15082520D01*
X18357444Y-15082520D02*
X18347920Y-15034901D01*
X18347920Y-15034901D02*
X18347920Y-14996806D01*
X18347920Y-14996806D02*
X18357444Y-14949187D01*
X18357444Y-14949187D02*
X18366968Y-14920615D01*
X18366968Y-14920615D02*
X18376491Y-14901568D01*
X18376491Y-14901568D02*
X18395539Y-14872996D01*
X18395539Y-14872996D02*
X18405063Y-14863472D01*
X18471730Y-14911091D02*
X18481253Y-14901568D01*
X18481253Y-14901568D02*
X18500301Y-14892044D01*
X18500301Y-14892044D02*
X18547920Y-14892044D01*
X18547920Y-14892044D02*
X18566968Y-14901568D01*
X18566968Y-14901568D02*
X18576491Y-14911091D01*
X18576491Y-14911091D02*
X18586015Y-14930139D01*
X18586015Y-14930139D02*
X18586015Y-14949187D01*
X18586015Y-14949187D02*
X18576491Y-14977758D01*
X18576491Y-14977758D02*
X18462206Y-15092044D01*
X18462206Y-15092044D02*
X18586015Y-15092044D01*
X18709825Y-14892044D02*
X18728872Y-14892044D01*
X18728872Y-14892044D02*
X18747920Y-14901568D01*
X18747920Y-14901568D02*
X18757444Y-14911091D01*
X18757444Y-14911091D02*
X18766968Y-14930139D01*
X18766968Y-14930139D02*
X18776491Y-14968234D01*
X18776491Y-14968234D02*
X18776491Y-15015853D01*
X18776491Y-15015853D02*
X18766968Y-15053949D01*
X18766968Y-15053949D02*
X18757444Y-15072996D01*
X18757444Y-15072996D02*
X18747920Y-15082520D01*
X18747920Y-15082520D02*
X18728872Y-15092044D01*
X18728872Y-15092044D02*
X18709825Y-15092044D01*
X18709825Y-15092044D02*
X18690777Y-15082520D01*
X18690777Y-15082520D02*
X18681253Y-15072996D01*
X18681253Y-15072996D02*
X18671730Y-15053949D01*
X18671730Y-15053949D02*
X18662206Y-15015853D01*
X18662206Y-15015853D02*
X18662206Y-14968234D01*
X18662206Y-14968234D02*
X18671730Y-14930139D01*
X18671730Y-14930139D02*
X18681253Y-14911091D01*
X18681253Y-14911091D02*
X18690777Y-14901568D01*
X18690777Y-14901568D02*
X18709825Y-14892044D01*
X19014587Y-15092044D02*
X19014587Y-14892044D01*
X19100301Y-15092044D02*
X19100301Y-14987282D01*
X19100301Y-14987282D02*
X19090777Y-14968234D01*
X19090777Y-14968234D02*
X19071730Y-14958710D01*
X19071730Y-14958710D02*
X19043158Y-14958710D01*
X19043158Y-14958710D02*
X19024111Y-14968234D01*
X19024111Y-14968234D02*
X19014587Y-14977758D01*
X19224111Y-15092044D02*
X19205063Y-15082520D01*
X19205063Y-15082520D02*
X19195539Y-15072996D01*
X19195539Y-15072996D02*
X19186015Y-15053949D01*
X19186015Y-15053949D02*
X19186015Y-14996806D01*
X19186015Y-14996806D02*
X19195539Y-14977758D01*
X19195539Y-14977758D02*
X19205063Y-14968234D01*
X19205063Y-14968234D02*
X19224111Y-14958710D01*
X19224111Y-14958710D02*
X19252682Y-14958710D01*
X19252682Y-14958710D02*
X19271730Y-14968234D01*
X19271730Y-14968234D02*
X19281253Y-14977758D01*
X19281253Y-14977758D02*
X19290777Y-14996806D01*
X19290777Y-14996806D02*
X19290777Y-15053949D01*
X19290777Y-15053949D02*
X19281253Y-15072996D01*
X19281253Y-15072996D02*
X19271730Y-15082520D01*
X19271730Y-15082520D02*
X19252682Y-15092044D01*
X19252682Y-15092044D02*
X19224111Y-15092044D01*
X19405063Y-15092044D02*
X19386015Y-15082520D01*
X19386015Y-15082520D02*
X19376492Y-15063472D01*
X19376492Y-15063472D02*
X19376492Y-14892044D01*
X19557444Y-15082520D02*
X19538396Y-15092044D01*
X19538396Y-15092044D02*
X19500301Y-15092044D01*
X19500301Y-15092044D02*
X19481253Y-15082520D01*
X19481253Y-15082520D02*
X19471730Y-15063472D01*
X19471730Y-15063472D02*
X19471730Y-14987282D01*
X19471730Y-14987282D02*
X19481253Y-14968234D01*
X19481253Y-14968234D02*
X19500301Y-14958710D01*
X19500301Y-14958710D02*
X19538396Y-14958710D01*
X19538396Y-14958710D02*
X19557444Y-14968234D01*
X19557444Y-14968234D02*
X19566968Y-14987282D01*
X19566968Y-14987282D02*
X19566968Y-15006330D01*
X19566968Y-15006330D02*
X19471730Y-15025377D01*
X19643158Y-15082520D02*
X19662206Y-15092044D01*
X19662206Y-15092044D02*
X19700301Y-15092044D01*
X19700301Y-15092044D02*
X19719349Y-15082520D01*
X19719349Y-15082520D02*
X19728873Y-15063472D01*
X19728873Y-15063472D02*
X19728873Y-15053949D01*
X19728873Y-15053949D02*
X19719349Y-15034901D01*
X19719349Y-15034901D02*
X19700301Y-15025377D01*
X19700301Y-15025377D02*
X19671730Y-15025377D01*
X19671730Y-15025377D02*
X19652682Y-15015853D01*
X19652682Y-15015853D02*
X19643158Y-14996806D01*
X19643158Y-14996806D02*
X19643158Y-14987282D01*
X19643158Y-14987282D02*
X19652682Y-14968234D01*
X19652682Y-14968234D02*
X19671730Y-14958710D01*
X19671730Y-14958710D02*
X19700301Y-14958710D01*
X19700301Y-14958710D02*
X19719349Y-14968234D01*
X19795539Y-15168234D02*
X19805063Y-15158710D01*
X19805063Y-15158710D02*
X19824111Y-15130139D01*
X19824111Y-15130139D02*
X19833634Y-15111091D01*
X19833634Y-15111091D02*
X19843158Y-15082520D01*
X19843158Y-15082520D02*
X19852682Y-15034901D01*
X19852682Y-15034901D02*
X19852682Y-14996806D01*
X19852682Y-14996806D02*
X19843158Y-14949187D01*
X19843158Y-14949187D02*
X19833634Y-14920615D01*
X19833634Y-14920615D02*
X19824111Y-14901568D01*
X19824111Y-14901568D02*
X19805063Y-14872996D01*
X19805063Y-14872996D02*
X19795539Y-14863472D01*
D11*
X14818284Y-15292845D02*
X14818284Y-15236276D01*
X14761715Y-15236276D01*
X14761715Y-15292845D01*
X14818284Y-15292845D01*
D10*
X15128872Y-15156044D02*
X15147920Y-15156044D01*
X15147920Y-15156044D02*
X15166967Y-15165568D01*
X15166967Y-15165568D02*
X15176491Y-15175091D01*
X15176491Y-15175091D02*
X15186015Y-15194139D01*
X15186015Y-15194139D02*
X15195539Y-15232234D01*
X15195539Y-15232234D02*
X15195539Y-15279853D01*
X15195539Y-15279853D02*
X15186015Y-15317949D01*
X15186015Y-15317949D02*
X15176491Y-15336996D01*
X15176491Y-15336996D02*
X15166967Y-15346520D01*
X15166967Y-15346520D02*
X15147920Y-15356044D01*
X15147920Y-15356044D02*
X15128872Y-15356044D01*
X15128872Y-15356044D02*
X15109824Y-15346520D01*
X15109824Y-15346520D02*
X15100301Y-15336996D01*
X15100301Y-15336996D02*
X15090777Y-15317949D01*
X15090777Y-15317949D02*
X15081253Y-15279853D01*
X15081253Y-15279853D02*
X15081253Y-15232234D01*
X15081253Y-15232234D02*
X15090777Y-15194139D01*
X15090777Y-15194139D02*
X15100301Y-15175091D01*
X15100301Y-15175091D02*
X15109824Y-15165568D01*
X15109824Y-15165568D02*
X15128872Y-15156044D01*
X15281253Y-15336996D02*
X15290777Y-15346520D01*
X15290777Y-15346520D02*
X15281253Y-15356044D01*
X15281253Y-15356044D02*
X15271729Y-15346520D01*
X15271729Y-15346520D02*
X15281253Y-15336996D01*
X15281253Y-15336996D02*
X15281253Y-15356044D01*
X15405062Y-15241758D02*
X15386015Y-15232234D01*
X15386015Y-15232234D02*
X15376491Y-15222710D01*
X15376491Y-15222710D02*
X15366967Y-15203663D01*
X15366967Y-15203663D02*
X15366967Y-15194139D01*
X15366967Y-15194139D02*
X15376491Y-15175091D01*
X15376491Y-15175091D02*
X15386015Y-15165568D01*
X15386015Y-15165568D02*
X15405062Y-15156044D01*
X15405062Y-15156044D02*
X15443158Y-15156044D01*
X15443158Y-15156044D02*
X15462205Y-15165568D01*
X15462205Y-15165568D02*
X15471729Y-15175091D01*
X15471729Y-15175091D02*
X15481253Y-15194139D01*
X15481253Y-15194139D02*
X15481253Y-15203663D01*
X15481253Y-15203663D02*
X15471729Y-15222710D01*
X15471729Y-15222710D02*
X15462205Y-15232234D01*
X15462205Y-15232234D02*
X15443158Y-15241758D01*
X15443158Y-15241758D02*
X15405062Y-15241758D01*
X15405062Y-15241758D02*
X15386015Y-15251282D01*
X15386015Y-15251282D02*
X15376491Y-15260806D01*
X15376491Y-15260806D02*
X15366967Y-15279853D01*
X15366967Y-15279853D02*
X15366967Y-15317949D01*
X15366967Y-15317949D02*
X15376491Y-15336996D01*
X15376491Y-15336996D02*
X15386015Y-15346520D01*
X15386015Y-15346520D02*
X15405062Y-15356044D01*
X15405062Y-15356044D02*
X15443158Y-15356044D01*
X15443158Y-15356044D02*
X15462205Y-15346520D01*
X15462205Y-15346520D02*
X15471729Y-15336996D01*
X15471729Y-15336996D02*
X15481253Y-15317949D01*
X15481253Y-15317949D02*
X15481253Y-15279853D01*
X15481253Y-15279853D02*
X15471729Y-15260806D01*
X15471729Y-15260806D02*
X15462205Y-15251282D01*
X15462205Y-15251282D02*
X15443158Y-15241758D01*
X15605062Y-15156044D02*
X15624110Y-15156044D01*
X15624110Y-15156044D02*
X15643158Y-15165568D01*
X15643158Y-15165568D02*
X15652682Y-15175091D01*
X15652682Y-15175091D02*
X15662205Y-15194139D01*
X15662205Y-15194139D02*
X15671729Y-15232234D01*
X15671729Y-15232234D02*
X15671729Y-15279853D01*
X15671729Y-15279853D02*
X15662205Y-15317949D01*
X15662205Y-15317949D02*
X15652682Y-15336996D01*
X15652682Y-15336996D02*
X15643158Y-15346520D01*
X15643158Y-15346520D02*
X15624110Y-15356044D01*
X15624110Y-15356044D02*
X15605062Y-15356044D01*
X15605062Y-15356044D02*
X15586015Y-15346520D01*
X15586015Y-15346520D02*
X15576491Y-15336996D01*
X15576491Y-15336996D02*
X15566967Y-15317949D01*
X15566967Y-15317949D02*
X15557443Y-15279853D01*
X15557443Y-15279853D02*
X15557443Y-15232234D01*
X15557443Y-15232234D02*
X15566967Y-15194139D01*
X15566967Y-15194139D02*
X15576491Y-15175091D01*
X15576491Y-15175091D02*
X15586015Y-15165568D01*
X15586015Y-15165568D02*
X15605062Y-15156044D01*
X15795539Y-15156044D02*
X15814586Y-15156044D01*
X15814586Y-15156044D02*
X15833634Y-15165568D01*
X15833634Y-15165568D02*
X15843158Y-15175091D01*
X15843158Y-15175091D02*
X15852682Y-15194139D01*
X15852682Y-15194139D02*
X15862205Y-15232234D01*
X15862205Y-15232234D02*
X15862205Y-15279853D01*
X15862205Y-15279853D02*
X15852682Y-15317949D01*
X15852682Y-15317949D02*
X15843158Y-15336996D01*
X15843158Y-15336996D02*
X15833634Y-15346520D01*
X15833634Y-15346520D02*
X15814586Y-15356044D01*
X15814586Y-15356044D02*
X15795539Y-15356044D01*
X15795539Y-15356044D02*
X15776491Y-15346520D01*
X15776491Y-15346520D02*
X15766967Y-15336996D01*
X15766967Y-15336996D02*
X15757443Y-15317949D01*
X15757443Y-15317949D02*
X15747920Y-15279853D01*
X15747920Y-15279853D02*
X15747920Y-15232234D01*
X15747920Y-15232234D02*
X15757443Y-15194139D01*
X15757443Y-15194139D02*
X15766967Y-15175091D01*
X15766967Y-15175091D02*
X15776491Y-15165568D01*
X15776491Y-15165568D02*
X15795539Y-15156044D01*
X15947920Y-15356044D02*
X15947920Y-15222710D01*
X15947920Y-15241758D02*
X15957443Y-15232234D01*
X15957443Y-15232234D02*
X15976491Y-15222710D01*
X15976491Y-15222710D02*
X16005063Y-15222710D01*
X16005063Y-15222710D02*
X16024110Y-15232234D01*
X16024110Y-15232234D02*
X16033634Y-15251282D01*
X16033634Y-15251282D02*
X16033634Y-15356044D01*
X16033634Y-15251282D02*
X16043158Y-15232234D01*
X16043158Y-15232234D02*
X16062205Y-15222710D01*
X16062205Y-15222710D02*
X16090777Y-15222710D01*
X16090777Y-15222710D02*
X16109824Y-15232234D01*
X16109824Y-15232234D02*
X16119348Y-15251282D01*
X16119348Y-15251282D02*
X16119348Y-15356044D01*
X16214586Y-15356044D02*
X16214586Y-15222710D01*
X16214586Y-15241758D02*
X16224110Y-15232234D01*
X16224110Y-15232234D02*
X16243158Y-15222710D01*
X16243158Y-15222710D02*
X16271729Y-15222710D01*
X16271729Y-15222710D02*
X16290777Y-15232234D01*
X16290777Y-15232234D02*
X16300301Y-15251282D01*
X16300301Y-15251282D02*
X16300301Y-15356044D01*
X16300301Y-15251282D02*
X16309824Y-15232234D01*
X16309824Y-15232234D02*
X16328872Y-15222710D01*
X16328872Y-15222710D02*
X16357443Y-15222710D01*
X16357443Y-15222710D02*
X16376491Y-15232234D01*
X16376491Y-15232234D02*
X16386015Y-15251282D01*
X16386015Y-15251282D02*
X16386015Y-15356044D01*
X16776491Y-15146520D02*
X16605063Y-15403663D01*
X17033634Y-15156044D02*
X17052682Y-15156044D01*
X17052682Y-15156044D02*
X17071729Y-15165568D01*
X17071729Y-15165568D02*
X17081253Y-15175091D01*
X17081253Y-15175091D02*
X17090777Y-15194139D01*
X17090777Y-15194139D02*
X17100301Y-15232234D01*
X17100301Y-15232234D02*
X17100301Y-15279853D01*
X17100301Y-15279853D02*
X17090777Y-15317949D01*
X17090777Y-15317949D02*
X17081253Y-15336996D01*
X17081253Y-15336996D02*
X17071729Y-15346520D01*
X17071729Y-15346520D02*
X17052682Y-15356044D01*
X17052682Y-15356044D02*
X17033634Y-15356044D01*
X17033634Y-15356044D02*
X17014587Y-15346520D01*
X17014587Y-15346520D02*
X17005063Y-15336996D01*
X17005063Y-15336996D02*
X16995539Y-15317949D01*
X16995539Y-15317949D02*
X16986015Y-15279853D01*
X16986015Y-15279853D02*
X16986015Y-15232234D01*
X16986015Y-15232234D02*
X16995539Y-15194139D01*
X16995539Y-15194139D02*
X17005063Y-15175091D01*
X17005063Y-15175091D02*
X17014587Y-15165568D01*
X17014587Y-15165568D02*
X17033634Y-15156044D01*
X17186015Y-15336996D02*
X17195539Y-15346520D01*
X17195539Y-15346520D02*
X17186015Y-15356044D01*
X17186015Y-15356044D02*
X17176491Y-15346520D01*
X17176491Y-15346520D02*
X17186015Y-15336996D01*
X17186015Y-15336996D02*
X17186015Y-15356044D01*
X17319348Y-15156044D02*
X17338396Y-15156044D01*
X17338396Y-15156044D02*
X17357444Y-15165568D01*
X17357444Y-15165568D02*
X17366968Y-15175091D01*
X17366968Y-15175091D02*
X17376491Y-15194139D01*
X17376491Y-15194139D02*
X17386015Y-15232234D01*
X17386015Y-15232234D02*
X17386015Y-15279853D01*
X17386015Y-15279853D02*
X17376491Y-15317949D01*
X17376491Y-15317949D02*
X17366968Y-15336996D01*
X17366968Y-15336996D02*
X17357444Y-15346520D01*
X17357444Y-15346520D02*
X17338396Y-15356044D01*
X17338396Y-15356044D02*
X17319348Y-15356044D01*
X17319348Y-15356044D02*
X17300301Y-15346520D01*
X17300301Y-15346520D02*
X17290777Y-15336996D01*
X17290777Y-15336996D02*
X17281253Y-15317949D01*
X17281253Y-15317949D02*
X17271729Y-15279853D01*
X17271729Y-15279853D02*
X17271729Y-15232234D01*
X17271729Y-15232234D02*
X17281253Y-15194139D01*
X17281253Y-15194139D02*
X17290777Y-15175091D01*
X17290777Y-15175091D02*
X17300301Y-15165568D01*
X17300301Y-15165568D02*
X17319348Y-15156044D01*
X17452682Y-15156044D02*
X17576491Y-15156044D01*
X17576491Y-15156044D02*
X17509825Y-15232234D01*
X17509825Y-15232234D02*
X17538396Y-15232234D01*
X17538396Y-15232234D02*
X17557444Y-15241758D01*
X17557444Y-15241758D02*
X17566968Y-15251282D01*
X17566968Y-15251282D02*
X17576491Y-15270330D01*
X17576491Y-15270330D02*
X17576491Y-15317949D01*
X17576491Y-15317949D02*
X17566968Y-15336996D01*
X17566968Y-15336996D02*
X17557444Y-15346520D01*
X17557444Y-15346520D02*
X17538396Y-15356044D01*
X17538396Y-15356044D02*
X17481253Y-15356044D01*
X17481253Y-15356044D02*
X17462206Y-15346520D01*
X17462206Y-15346520D02*
X17452682Y-15336996D01*
X17766968Y-15356044D02*
X17652682Y-15356044D01*
X17709825Y-15356044D02*
X17709825Y-15156044D01*
X17709825Y-15156044D02*
X17690777Y-15184615D01*
X17690777Y-15184615D02*
X17671729Y-15203663D01*
X17671729Y-15203663D02*
X17652682Y-15213187D01*
X17947920Y-15156044D02*
X17852682Y-15156044D01*
X17852682Y-15156044D02*
X17843158Y-15251282D01*
X17843158Y-15251282D02*
X17852682Y-15241758D01*
X17852682Y-15241758D02*
X17871729Y-15232234D01*
X17871729Y-15232234D02*
X17919349Y-15232234D01*
X17919349Y-15232234D02*
X17938396Y-15241758D01*
X17938396Y-15241758D02*
X17947920Y-15251282D01*
X17947920Y-15251282D02*
X17957444Y-15270330D01*
X17957444Y-15270330D02*
X17957444Y-15317949D01*
X17957444Y-15317949D02*
X17947920Y-15336996D01*
X17947920Y-15336996D02*
X17938396Y-15346520D01*
X17938396Y-15346520D02*
X17919349Y-15356044D01*
X17919349Y-15356044D02*
X17871729Y-15356044D01*
X17871729Y-15356044D02*
X17852682Y-15346520D01*
X17852682Y-15346520D02*
X17843158Y-15336996D01*
X18033634Y-15156044D02*
X18033634Y-15194139D01*
X18109825Y-15156044D02*
X18109825Y-15194139D01*
X18405063Y-15432234D02*
X18395539Y-15422710D01*
X18395539Y-15422710D02*
X18376491Y-15394139D01*
X18376491Y-15394139D02*
X18366968Y-15375091D01*
X18366968Y-15375091D02*
X18357444Y-15346520D01*
X18357444Y-15346520D02*
X18347920Y-15298901D01*
X18347920Y-15298901D02*
X18347920Y-15260806D01*
X18347920Y-15260806D02*
X18357444Y-15213187D01*
X18357444Y-15213187D02*
X18366968Y-15184615D01*
X18366968Y-15184615D02*
X18376491Y-15165568D01*
X18376491Y-15165568D02*
X18395539Y-15136996D01*
X18395539Y-15136996D02*
X18405063Y-15127472D01*
X18586015Y-15356044D02*
X18471730Y-15356044D01*
X18528872Y-15356044D02*
X18528872Y-15156044D01*
X18528872Y-15156044D02*
X18509825Y-15184615D01*
X18509825Y-15184615D02*
X18490777Y-15203663D01*
X18490777Y-15203663D02*
X18471730Y-15213187D01*
X18709825Y-15156044D02*
X18728872Y-15156044D01*
X18728872Y-15156044D02*
X18747920Y-15165568D01*
X18747920Y-15165568D02*
X18757444Y-15175091D01*
X18757444Y-15175091D02*
X18766968Y-15194139D01*
X18766968Y-15194139D02*
X18776491Y-15232234D01*
X18776491Y-15232234D02*
X18776491Y-15279853D01*
X18776491Y-15279853D02*
X18766968Y-15317949D01*
X18766968Y-15317949D02*
X18757444Y-15336996D01*
X18757444Y-15336996D02*
X18747920Y-15346520D01*
X18747920Y-15346520D02*
X18728872Y-15356044D01*
X18728872Y-15356044D02*
X18709825Y-15356044D01*
X18709825Y-15356044D02*
X18690777Y-15346520D01*
X18690777Y-15346520D02*
X18681253Y-15336996D01*
X18681253Y-15336996D02*
X18671730Y-15317949D01*
X18671730Y-15317949D02*
X18662206Y-15279853D01*
X18662206Y-15279853D02*
X18662206Y-15232234D01*
X18662206Y-15232234D02*
X18671730Y-15194139D01*
X18671730Y-15194139D02*
X18681253Y-15175091D01*
X18681253Y-15175091D02*
X18690777Y-15165568D01*
X18690777Y-15165568D02*
X18709825Y-15156044D01*
X19014587Y-15356044D02*
X19014587Y-15156044D01*
X19100301Y-15356044D02*
X19100301Y-15251282D01*
X19100301Y-15251282D02*
X19090777Y-15232234D01*
X19090777Y-15232234D02*
X19071730Y-15222710D01*
X19071730Y-15222710D02*
X19043158Y-15222710D01*
X19043158Y-15222710D02*
X19024111Y-15232234D01*
X19024111Y-15232234D02*
X19014587Y-15241758D01*
X19224111Y-15356044D02*
X19205063Y-15346520D01*
X19205063Y-15346520D02*
X19195539Y-15336996D01*
X19195539Y-15336996D02*
X19186015Y-15317949D01*
X19186015Y-15317949D02*
X19186015Y-15260806D01*
X19186015Y-15260806D02*
X19195539Y-15241758D01*
X19195539Y-15241758D02*
X19205063Y-15232234D01*
X19205063Y-15232234D02*
X19224111Y-15222710D01*
X19224111Y-15222710D02*
X19252682Y-15222710D01*
X19252682Y-15222710D02*
X19271730Y-15232234D01*
X19271730Y-15232234D02*
X19281253Y-15241758D01*
X19281253Y-15241758D02*
X19290777Y-15260806D01*
X19290777Y-15260806D02*
X19290777Y-15317949D01*
X19290777Y-15317949D02*
X19281253Y-15336996D01*
X19281253Y-15336996D02*
X19271730Y-15346520D01*
X19271730Y-15346520D02*
X19252682Y-15356044D01*
X19252682Y-15356044D02*
X19224111Y-15356044D01*
X19405063Y-15356044D02*
X19386015Y-15346520D01*
X19386015Y-15346520D02*
X19376492Y-15327472D01*
X19376492Y-15327472D02*
X19376492Y-15156044D01*
X19557444Y-15346520D02*
X19538396Y-15356044D01*
X19538396Y-15356044D02*
X19500301Y-15356044D01*
X19500301Y-15356044D02*
X19481253Y-15346520D01*
X19481253Y-15346520D02*
X19471730Y-15327472D01*
X19471730Y-15327472D02*
X19471730Y-15251282D01*
X19471730Y-15251282D02*
X19481253Y-15232234D01*
X19481253Y-15232234D02*
X19500301Y-15222710D01*
X19500301Y-15222710D02*
X19538396Y-15222710D01*
X19538396Y-15222710D02*
X19557444Y-15232234D01*
X19557444Y-15232234D02*
X19566968Y-15251282D01*
X19566968Y-15251282D02*
X19566968Y-15270330D01*
X19566968Y-15270330D02*
X19471730Y-15289377D01*
X19643158Y-15346520D02*
X19662206Y-15356044D01*
X19662206Y-15356044D02*
X19700301Y-15356044D01*
X19700301Y-15356044D02*
X19719349Y-15346520D01*
X19719349Y-15346520D02*
X19728873Y-15327472D01*
X19728873Y-15327472D02*
X19728873Y-15317949D01*
X19728873Y-15317949D02*
X19719349Y-15298901D01*
X19719349Y-15298901D02*
X19700301Y-15289377D01*
X19700301Y-15289377D02*
X19671730Y-15289377D01*
X19671730Y-15289377D02*
X19652682Y-15279853D01*
X19652682Y-15279853D02*
X19643158Y-15260806D01*
X19643158Y-15260806D02*
X19643158Y-15251282D01*
X19643158Y-15251282D02*
X19652682Y-15232234D01*
X19652682Y-15232234D02*
X19671730Y-15222710D01*
X19671730Y-15222710D02*
X19700301Y-15222710D01*
X19700301Y-15222710D02*
X19719349Y-15232234D01*
X19795539Y-15432234D02*
X19805063Y-15422710D01*
X19805063Y-15422710D02*
X19824111Y-15394139D01*
X19824111Y-15394139D02*
X19833634Y-15375091D01*
X19833634Y-15375091D02*
X19843158Y-15346520D01*
X19843158Y-15346520D02*
X19852682Y-15298901D01*
X19852682Y-15298901D02*
X19852682Y-15260806D01*
X19852682Y-15260806D02*
X19843158Y-15213187D01*
X19843158Y-15213187D02*
X19833634Y-15184615D01*
X19833634Y-15184615D02*
X19824111Y-15165568D01*
X19824111Y-15165568D02*
X19805063Y-15136996D01*
X19805063Y-15136996D02*
X19795539Y-15127472D01*
D11*
X14785000Y-15573560D02*
X14830000Y-15528560D01*
X14785000Y-15483560D01*
X14740000Y-15528560D01*
X14785000Y-15573560D01*
D10*
X15128872Y-15420044D02*
X15147920Y-15420044D01*
X15147920Y-15420044D02*
X15166967Y-15429568D01*
X15166967Y-15429568D02*
X15176491Y-15439091D01*
X15176491Y-15439091D02*
X15186015Y-15458139D01*
X15186015Y-15458139D02*
X15195539Y-15496234D01*
X15195539Y-15496234D02*
X15195539Y-15543853D01*
X15195539Y-15543853D02*
X15186015Y-15581949D01*
X15186015Y-15581949D02*
X15176491Y-15600996D01*
X15176491Y-15600996D02*
X15166967Y-15610520D01*
X15166967Y-15610520D02*
X15147920Y-15620044D01*
X15147920Y-15620044D02*
X15128872Y-15620044D01*
X15128872Y-15620044D02*
X15109824Y-15610520D01*
X15109824Y-15610520D02*
X15100301Y-15600996D01*
X15100301Y-15600996D02*
X15090777Y-15581949D01*
X15090777Y-15581949D02*
X15081253Y-15543853D01*
X15081253Y-15543853D02*
X15081253Y-15496234D01*
X15081253Y-15496234D02*
X15090777Y-15458139D01*
X15090777Y-15458139D02*
X15100301Y-15439091D01*
X15100301Y-15439091D02*
X15109824Y-15429568D01*
X15109824Y-15429568D02*
X15128872Y-15420044D01*
X15281253Y-15600996D02*
X15290777Y-15610520D01*
X15290777Y-15610520D02*
X15281253Y-15620044D01*
X15281253Y-15620044D02*
X15271729Y-15610520D01*
X15271729Y-15610520D02*
X15281253Y-15600996D01*
X15281253Y-15600996D02*
X15281253Y-15620044D01*
X15386015Y-15620044D02*
X15424110Y-15620044D01*
X15424110Y-15620044D02*
X15443158Y-15610520D01*
X15443158Y-15610520D02*
X15452682Y-15600996D01*
X15452682Y-15600996D02*
X15471729Y-15572425D01*
X15471729Y-15572425D02*
X15481253Y-15534330D01*
X15481253Y-15534330D02*
X15481253Y-15458139D01*
X15481253Y-15458139D02*
X15471729Y-15439091D01*
X15471729Y-15439091D02*
X15462205Y-15429568D01*
X15462205Y-15429568D02*
X15443158Y-15420044D01*
X15443158Y-15420044D02*
X15405062Y-15420044D01*
X15405062Y-15420044D02*
X15386015Y-15429568D01*
X15386015Y-15429568D02*
X15376491Y-15439091D01*
X15376491Y-15439091D02*
X15366967Y-15458139D01*
X15366967Y-15458139D02*
X15366967Y-15505758D01*
X15366967Y-15505758D02*
X15376491Y-15524806D01*
X15376491Y-15524806D02*
X15386015Y-15534330D01*
X15386015Y-15534330D02*
X15405062Y-15543853D01*
X15405062Y-15543853D02*
X15443158Y-15543853D01*
X15443158Y-15543853D02*
X15462205Y-15534330D01*
X15462205Y-15534330D02*
X15471729Y-15524806D01*
X15471729Y-15524806D02*
X15481253Y-15505758D01*
X15605062Y-15420044D02*
X15624110Y-15420044D01*
X15624110Y-15420044D02*
X15643158Y-15429568D01*
X15643158Y-15429568D02*
X15652682Y-15439091D01*
X15652682Y-15439091D02*
X15662205Y-15458139D01*
X15662205Y-15458139D02*
X15671729Y-15496234D01*
X15671729Y-15496234D02*
X15671729Y-15543853D01*
X15671729Y-15543853D02*
X15662205Y-15581949D01*
X15662205Y-15581949D02*
X15652682Y-15600996D01*
X15652682Y-15600996D02*
X15643158Y-15610520D01*
X15643158Y-15610520D02*
X15624110Y-15620044D01*
X15624110Y-15620044D02*
X15605062Y-15620044D01*
X15605062Y-15620044D02*
X15586015Y-15610520D01*
X15586015Y-15610520D02*
X15576491Y-15600996D01*
X15576491Y-15600996D02*
X15566967Y-15581949D01*
X15566967Y-15581949D02*
X15557443Y-15543853D01*
X15557443Y-15543853D02*
X15557443Y-15496234D01*
X15557443Y-15496234D02*
X15566967Y-15458139D01*
X15566967Y-15458139D02*
X15576491Y-15439091D01*
X15576491Y-15439091D02*
X15586015Y-15429568D01*
X15586015Y-15429568D02*
X15605062Y-15420044D01*
X15795539Y-15420044D02*
X15814586Y-15420044D01*
X15814586Y-15420044D02*
X15833634Y-15429568D01*
X15833634Y-15429568D02*
X15843158Y-15439091D01*
X15843158Y-15439091D02*
X15852682Y-15458139D01*
X15852682Y-15458139D02*
X15862205Y-15496234D01*
X15862205Y-15496234D02*
X15862205Y-15543853D01*
X15862205Y-15543853D02*
X15852682Y-15581949D01*
X15852682Y-15581949D02*
X15843158Y-15600996D01*
X15843158Y-15600996D02*
X15833634Y-15610520D01*
X15833634Y-15610520D02*
X15814586Y-15620044D01*
X15814586Y-15620044D02*
X15795539Y-15620044D01*
X15795539Y-15620044D02*
X15776491Y-15610520D01*
X15776491Y-15610520D02*
X15766967Y-15600996D01*
X15766967Y-15600996D02*
X15757443Y-15581949D01*
X15757443Y-15581949D02*
X15747920Y-15543853D01*
X15747920Y-15543853D02*
X15747920Y-15496234D01*
X15747920Y-15496234D02*
X15757443Y-15458139D01*
X15757443Y-15458139D02*
X15766967Y-15439091D01*
X15766967Y-15439091D02*
X15776491Y-15429568D01*
X15776491Y-15429568D02*
X15795539Y-15420044D01*
X15947920Y-15620044D02*
X15947920Y-15486710D01*
X15947920Y-15505758D02*
X15957443Y-15496234D01*
X15957443Y-15496234D02*
X15976491Y-15486710D01*
X15976491Y-15486710D02*
X16005063Y-15486710D01*
X16005063Y-15486710D02*
X16024110Y-15496234D01*
X16024110Y-15496234D02*
X16033634Y-15515282D01*
X16033634Y-15515282D02*
X16033634Y-15620044D01*
X16033634Y-15515282D02*
X16043158Y-15496234D01*
X16043158Y-15496234D02*
X16062205Y-15486710D01*
X16062205Y-15486710D02*
X16090777Y-15486710D01*
X16090777Y-15486710D02*
X16109824Y-15496234D01*
X16109824Y-15496234D02*
X16119348Y-15515282D01*
X16119348Y-15515282D02*
X16119348Y-15620044D01*
X16214586Y-15620044D02*
X16214586Y-15486710D01*
X16214586Y-15505758D02*
X16224110Y-15496234D01*
X16224110Y-15496234D02*
X16243158Y-15486710D01*
X16243158Y-15486710D02*
X16271729Y-15486710D01*
X16271729Y-15486710D02*
X16290777Y-15496234D01*
X16290777Y-15496234D02*
X16300301Y-15515282D01*
X16300301Y-15515282D02*
X16300301Y-15620044D01*
X16300301Y-15515282D02*
X16309824Y-15496234D01*
X16309824Y-15496234D02*
X16328872Y-15486710D01*
X16328872Y-15486710D02*
X16357443Y-15486710D01*
X16357443Y-15486710D02*
X16376491Y-15496234D01*
X16376491Y-15496234D02*
X16386015Y-15515282D01*
X16386015Y-15515282D02*
X16386015Y-15620044D01*
X16776491Y-15410520D02*
X16605063Y-15667663D01*
X17033634Y-15420044D02*
X17052682Y-15420044D01*
X17052682Y-15420044D02*
X17071729Y-15429568D01*
X17071729Y-15429568D02*
X17081253Y-15439091D01*
X17081253Y-15439091D02*
X17090777Y-15458139D01*
X17090777Y-15458139D02*
X17100301Y-15496234D01*
X17100301Y-15496234D02*
X17100301Y-15543853D01*
X17100301Y-15543853D02*
X17090777Y-15581949D01*
X17090777Y-15581949D02*
X17081253Y-15600996D01*
X17081253Y-15600996D02*
X17071729Y-15610520D01*
X17071729Y-15610520D02*
X17052682Y-15620044D01*
X17052682Y-15620044D02*
X17033634Y-15620044D01*
X17033634Y-15620044D02*
X17014587Y-15610520D01*
X17014587Y-15610520D02*
X17005063Y-15600996D01*
X17005063Y-15600996D02*
X16995539Y-15581949D01*
X16995539Y-15581949D02*
X16986015Y-15543853D01*
X16986015Y-15543853D02*
X16986015Y-15496234D01*
X16986015Y-15496234D02*
X16995539Y-15458139D01*
X16995539Y-15458139D02*
X17005063Y-15439091D01*
X17005063Y-15439091D02*
X17014587Y-15429568D01*
X17014587Y-15429568D02*
X17033634Y-15420044D01*
X17186015Y-15600996D02*
X17195539Y-15610520D01*
X17195539Y-15610520D02*
X17186015Y-15620044D01*
X17186015Y-15620044D02*
X17176491Y-15610520D01*
X17176491Y-15610520D02*
X17186015Y-15600996D01*
X17186015Y-15600996D02*
X17186015Y-15620044D01*
X17319348Y-15420044D02*
X17338396Y-15420044D01*
X17338396Y-15420044D02*
X17357444Y-15429568D01*
X17357444Y-15429568D02*
X17366968Y-15439091D01*
X17366968Y-15439091D02*
X17376491Y-15458139D01*
X17376491Y-15458139D02*
X17386015Y-15496234D01*
X17386015Y-15496234D02*
X17386015Y-15543853D01*
X17386015Y-15543853D02*
X17376491Y-15581949D01*
X17376491Y-15581949D02*
X17366968Y-15600996D01*
X17366968Y-15600996D02*
X17357444Y-15610520D01*
X17357444Y-15610520D02*
X17338396Y-15620044D01*
X17338396Y-15620044D02*
X17319348Y-15620044D01*
X17319348Y-15620044D02*
X17300301Y-15610520D01*
X17300301Y-15610520D02*
X17290777Y-15600996D01*
X17290777Y-15600996D02*
X17281253Y-15581949D01*
X17281253Y-15581949D02*
X17271729Y-15543853D01*
X17271729Y-15543853D02*
X17271729Y-15496234D01*
X17271729Y-15496234D02*
X17281253Y-15458139D01*
X17281253Y-15458139D02*
X17290777Y-15439091D01*
X17290777Y-15439091D02*
X17300301Y-15429568D01*
X17300301Y-15429568D02*
X17319348Y-15420044D01*
X17452682Y-15420044D02*
X17576491Y-15420044D01*
X17576491Y-15420044D02*
X17509825Y-15496234D01*
X17509825Y-15496234D02*
X17538396Y-15496234D01*
X17538396Y-15496234D02*
X17557444Y-15505758D01*
X17557444Y-15505758D02*
X17566968Y-15515282D01*
X17566968Y-15515282D02*
X17576491Y-15534330D01*
X17576491Y-15534330D02*
X17576491Y-15581949D01*
X17576491Y-15581949D02*
X17566968Y-15600996D01*
X17566968Y-15600996D02*
X17557444Y-15610520D01*
X17557444Y-15610520D02*
X17538396Y-15620044D01*
X17538396Y-15620044D02*
X17481253Y-15620044D01*
X17481253Y-15620044D02*
X17462206Y-15610520D01*
X17462206Y-15610520D02*
X17452682Y-15600996D01*
X17757444Y-15420044D02*
X17662206Y-15420044D01*
X17662206Y-15420044D02*
X17652682Y-15515282D01*
X17652682Y-15515282D02*
X17662206Y-15505758D01*
X17662206Y-15505758D02*
X17681253Y-15496234D01*
X17681253Y-15496234D02*
X17728872Y-15496234D01*
X17728872Y-15496234D02*
X17747920Y-15505758D01*
X17747920Y-15505758D02*
X17757444Y-15515282D01*
X17757444Y-15515282D02*
X17766968Y-15534330D01*
X17766968Y-15534330D02*
X17766968Y-15581949D01*
X17766968Y-15581949D02*
X17757444Y-15600996D01*
X17757444Y-15600996D02*
X17747920Y-15610520D01*
X17747920Y-15610520D02*
X17728872Y-15620044D01*
X17728872Y-15620044D02*
X17681253Y-15620044D01*
X17681253Y-15620044D02*
X17662206Y-15610520D01*
X17662206Y-15610520D02*
X17652682Y-15600996D01*
X17938396Y-15486710D02*
X17938396Y-15620044D01*
X17890777Y-15410520D02*
X17843158Y-15553377D01*
X17843158Y-15553377D02*
X17966968Y-15553377D01*
X18033634Y-15420044D02*
X18033634Y-15458139D01*
X18109825Y-15420044D02*
X18109825Y-15458139D01*
X18405063Y-15696234D02*
X18395539Y-15686710D01*
X18395539Y-15686710D02*
X18376491Y-15658139D01*
X18376491Y-15658139D02*
X18366968Y-15639091D01*
X18366968Y-15639091D02*
X18357444Y-15610520D01*
X18357444Y-15610520D02*
X18347920Y-15562901D01*
X18347920Y-15562901D02*
X18347920Y-15524806D01*
X18347920Y-15524806D02*
X18357444Y-15477187D01*
X18357444Y-15477187D02*
X18366968Y-15448615D01*
X18366968Y-15448615D02*
X18376491Y-15429568D01*
X18376491Y-15429568D02*
X18395539Y-15400996D01*
X18395539Y-15400996D02*
X18405063Y-15391472D01*
X18586015Y-15620044D02*
X18471730Y-15620044D01*
X18528872Y-15620044D02*
X18528872Y-15420044D01*
X18528872Y-15420044D02*
X18509825Y-15448615D01*
X18509825Y-15448615D02*
X18490777Y-15467663D01*
X18490777Y-15467663D02*
X18471730Y-15477187D01*
X18709825Y-15420044D02*
X18728872Y-15420044D01*
X18728872Y-15420044D02*
X18747920Y-15429568D01*
X18747920Y-15429568D02*
X18757444Y-15439091D01*
X18757444Y-15439091D02*
X18766968Y-15458139D01*
X18766968Y-15458139D02*
X18776491Y-15496234D01*
X18776491Y-15496234D02*
X18776491Y-15543853D01*
X18776491Y-15543853D02*
X18766968Y-15581949D01*
X18766968Y-15581949D02*
X18757444Y-15600996D01*
X18757444Y-15600996D02*
X18747920Y-15610520D01*
X18747920Y-15610520D02*
X18728872Y-15620044D01*
X18728872Y-15620044D02*
X18709825Y-15620044D01*
X18709825Y-15620044D02*
X18690777Y-15610520D01*
X18690777Y-15610520D02*
X18681253Y-15600996D01*
X18681253Y-15600996D02*
X18671730Y-15581949D01*
X18671730Y-15581949D02*
X18662206Y-15543853D01*
X18662206Y-15543853D02*
X18662206Y-15496234D01*
X18662206Y-15496234D02*
X18671730Y-15458139D01*
X18671730Y-15458139D02*
X18681253Y-15439091D01*
X18681253Y-15439091D02*
X18690777Y-15429568D01*
X18690777Y-15429568D02*
X18709825Y-15420044D01*
X19014587Y-15620044D02*
X19014587Y-15420044D01*
X19100301Y-15620044D02*
X19100301Y-15515282D01*
X19100301Y-15515282D02*
X19090777Y-15496234D01*
X19090777Y-15496234D02*
X19071730Y-15486710D01*
X19071730Y-15486710D02*
X19043158Y-15486710D01*
X19043158Y-15486710D02*
X19024111Y-15496234D01*
X19024111Y-15496234D02*
X19014587Y-15505758D01*
X19224111Y-15620044D02*
X19205063Y-15610520D01*
X19205063Y-15610520D02*
X19195539Y-15600996D01*
X19195539Y-15600996D02*
X19186015Y-15581949D01*
X19186015Y-15581949D02*
X19186015Y-15524806D01*
X19186015Y-15524806D02*
X19195539Y-15505758D01*
X19195539Y-15505758D02*
X19205063Y-15496234D01*
X19205063Y-15496234D02*
X19224111Y-15486710D01*
X19224111Y-15486710D02*
X19252682Y-15486710D01*
X19252682Y-15486710D02*
X19271730Y-15496234D01*
X19271730Y-15496234D02*
X19281253Y-15505758D01*
X19281253Y-15505758D02*
X19290777Y-15524806D01*
X19290777Y-15524806D02*
X19290777Y-15581949D01*
X19290777Y-15581949D02*
X19281253Y-15600996D01*
X19281253Y-15600996D02*
X19271730Y-15610520D01*
X19271730Y-15610520D02*
X19252682Y-15620044D01*
X19252682Y-15620044D02*
X19224111Y-15620044D01*
X19405063Y-15620044D02*
X19386015Y-15610520D01*
X19386015Y-15610520D02*
X19376492Y-15591472D01*
X19376492Y-15591472D02*
X19376492Y-15420044D01*
X19557444Y-15610520D02*
X19538396Y-15620044D01*
X19538396Y-15620044D02*
X19500301Y-15620044D01*
X19500301Y-15620044D02*
X19481253Y-15610520D01*
X19481253Y-15610520D02*
X19471730Y-15591472D01*
X19471730Y-15591472D02*
X19471730Y-15515282D01*
X19471730Y-15515282D02*
X19481253Y-15496234D01*
X19481253Y-15496234D02*
X19500301Y-15486710D01*
X19500301Y-15486710D02*
X19538396Y-15486710D01*
X19538396Y-15486710D02*
X19557444Y-15496234D01*
X19557444Y-15496234D02*
X19566968Y-15515282D01*
X19566968Y-15515282D02*
X19566968Y-15534330D01*
X19566968Y-15534330D02*
X19471730Y-15553377D01*
X19643158Y-15610520D02*
X19662206Y-15620044D01*
X19662206Y-15620044D02*
X19700301Y-15620044D01*
X19700301Y-15620044D02*
X19719349Y-15610520D01*
X19719349Y-15610520D02*
X19728873Y-15591472D01*
X19728873Y-15591472D02*
X19728873Y-15581949D01*
X19728873Y-15581949D02*
X19719349Y-15562901D01*
X19719349Y-15562901D02*
X19700301Y-15553377D01*
X19700301Y-15553377D02*
X19671730Y-15553377D01*
X19671730Y-15553377D02*
X19652682Y-15543853D01*
X19652682Y-15543853D02*
X19643158Y-15524806D01*
X19643158Y-15524806D02*
X19643158Y-15515282D01*
X19643158Y-15515282D02*
X19652682Y-15496234D01*
X19652682Y-15496234D02*
X19671730Y-15486710D01*
X19671730Y-15486710D02*
X19700301Y-15486710D01*
X19700301Y-15486710D02*
X19719349Y-15496234D01*
X19795539Y-15696234D02*
X19805063Y-15686710D01*
X19805063Y-15686710D02*
X19824111Y-15658139D01*
X19824111Y-15658139D02*
X19833634Y-15639091D01*
X19833634Y-15639091D02*
X19843158Y-15610520D01*
X19843158Y-15610520D02*
X19852682Y-15562901D01*
X19852682Y-15562901D02*
X19852682Y-15524806D01*
X19852682Y-15524806D02*
X19843158Y-15477187D01*
X19843158Y-15477187D02*
X19833634Y-15448615D01*
X19833634Y-15448615D02*
X19824111Y-15429568D01*
X19824111Y-15429568D02*
X19805063Y-15400996D01*
X19805063Y-15400996D02*
X19795539Y-15391472D01*
M02*
