%TF.GenerationSoftware,KiCad,Pcbnew,7.0.9*%
%TF.CreationDate,2024-01-11T17:38:21+09:00*%
%TF.ProjectId,LineStick,4c696e65-5374-4696-936b-2e6b69636164,rev?*%
%TF.SameCoordinates,Original*%
%TF.FileFunction,Drillmap*%
%TF.FilePolarity,Positive*%
%FSLAX45Y45*%
G04 Gerber Fmt 4.5, Leading zero omitted, Abs format (unit mm)*
G04 Created by KiCad (PCBNEW 7.0.9) date 2024-01-11 17:38:21*
%MOMM*%
%LPD*%
G01*
G04 APERTURE LIST*
%ADD10C,0.200000*%
%ADD11C,0.320000*%
G04 APERTURE END LIST*
D10*
X15040000Y-13822560D02*
X15440000Y-13822560D01*
X14840000Y-7522560D02*
X14840000Y-13622560D01*
X15440000Y-7322560D02*
X15040000Y-7322560D01*
X15400000Y-7622560D02*
G75*
G03*
X15400000Y-7622560I-160000J0D01*
G01*
X14840000Y-13622560D02*
G75*
G03*
X15040000Y-13822560I200000J0D01*
G01*
X15440000Y-13822560D02*
G75*
G03*
X15640000Y-13622560I0J200000D01*
G01*
X15640000Y-7522560D02*
G75*
G03*
X15440000Y-7322560I-200000J0D01*
G01*
X15040000Y-7322560D02*
G75*
G03*
X14840000Y-7522560I0J-200000D01*
G01*
X15640000Y-13622560D02*
X15640000Y-7522560D01*
D11*
X15080000Y-7460000D02*
X15400000Y-7780000D01*
X15400000Y-7460000D02*
X15080000Y-7780000D01*
D10*
X15090777Y-14144044D02*
X15090777Y-13944044D01*
X15090777Y-13944044D02*
X15138396Y-13944044D01*
X15138396Y-13944044D02*
X15166967Y-13953568D01*
X15166967Y-13953568D02*
X15186015Y-13972615D01*
X15186015Y-13972615D02*
X15195539Y-13991663D01*
X15195539Y-13991663D02*
X15205062Y-14029758D01*
X15205062Y-14029758D02*
X15205062Y-14058330D01*
X15205062Y-14058330D02*
X15195539Y-14096425D01*
X15195539Y-14096425D02*
X15186015Y-14115472D01*
X15186015Y-14115472D02*
X15166967Y-14134520D01*
X15166967Y-14134520D02*
X15138396Y-14144044D01*
X15138396Y-14144044D02*
X15090777Y-14144044D01*
X15290777Y-14144044D02*
X15290777Y-14010710D01*
X15290777Y-14048806D02*
X15300301Y-14029758D01*
X15300301Y-14029758D02*
X15309824Y-14020234D01*
X15309824Y-14020234D02*
X15328872Y-14010710D01*
X15328872Y-14010710D02*
X15347920Y-14010710D01*
X15414586Y-14144044D02*
X15414586Y-14010710D01*
X15414586Y-13944044D02*
X15405062Y-13953568D01*
X15405062Y-13953568D02*
X15414586Y-13963091D01*
X15414586Y-13963091D02*
X15424110Y-13953568D01*
X15424110Y-13953568D02*
X15414586Y-13944044D01*
X15414586Y-13944044D02*
X15414586Y-13963091D01*
X15538396Y-14144044D02*
X15519348Y-14134520D01*
X15519348Y-14134520D02*
X15509824Y-14115472D01*
X15509824Y-14115472D02*
X15509824Y-13944044D01*
X15643158Y-14144044D02*
X15624110Y-14134520D01*
X15624110Y-14134520D02*
X15614586Y-14115472D01*
X15614586Y-14115472D02*
X15614586Y-13944044D01*
X15871729Y-14144044D02*
X15871729Y-13944044D01*
X15871729Y-13944044D02*
X15938396Y-14086901D01*
X15938396Y-14086901D02*
X16005062Y-13944044D01*
X16005062Y-13944044D02*
X16005062Y-14144044D01*
X16186015Y-14144044D02*
X16186015Y-14039282D01*
X16186015Y-14039282D02*
X16176491Y-14020234D01*
X16176491Y-14020234D02*
X16157443Y-14010710D01*
X16157443Y-14010710D02*
X16119348Y-14010710D01*
X16119348Y-14010710D02*
X16100301Y-14020234D01*
X16186015Y-14134520D02*
X16166967Y-14144044D01*
X16166967Y-14144044D02*
X16119348Y-14144044D01*
X16119348Y-14144044D02*
X16100301Y-14134520D01*
X16100301Y-14134520D02*
X16090777Y-14115472D01*
X16090777Y-14115472D02*
X16090777Y-14096425D01*
X16090777Y-14096425D02*
X16100301Y-14077377D01*
X16100301Y-14077377D02*
X16119348Y-14067853D01*
X16119348Y-14067853D02*
X16166967Y-14067853D01*
X16166967Y-14067853D02*
X16186015Y-14058330D01*
X16281253Y-14010710D02*
X16281253Y-14210710D01*
X16281253Y-14020234D02*
X16300301Y-14010710D01*
X16300301Y-14010710D02*
X16338396Y-14010710D01*
X16338396Y-14010710D02*
X16357443Y-14020234D01*
X16357443Y-14020234D02*
X16366967Y-14029758D01*
X16366967Y-14029758D02*
X16376491Y-14048806D01*
X16376491Y-14048806D02*
X16376491Y-14105949D01*
X16376491Y-14105949D02*
X16366967Y-14124996D01*
X16366967Y-14124996D02*
X16357443Y-14134520D01*
X16357443Y-14134520D02*
X16338396Y-14144044D01*
X16338396Y-14144044D02*
X16300301Y-14144044D01*
X16300301Y-14144044D02*
X16281253Y-14134520D01*
X16462205Y-14124996D02*
X16471729Y-14134520D01*
X16471729Y-14134520D02*
X16462205Y-14144044D01*
X16462205Y-14144044D02*
X16452682Y-14134520D01*
X16452682Y-14134520D02*
X16462205Y-14124996D01*
X16462205Y-14124996D02*
X16462205Y-14144044D01*
X16462205Y-14020234D02*
X16471729Y-14029758D01*
X16471729Y-14029758D02*
X16462205Y-14039282D01*
X16462205Y-14039282D02*
X16452682Y-14029758D01*
X16452682Y-14029758D02*
X16462205Y-14020234D01*
X16462205Y-14020234D02*
X16462205Y-14039282D01*
X14630000Y-14372560D02*
X14830000Y-14572560D01*
X14830000Y-14372560D02*
X14630000Y-14572560D01*
X15071729Y-14364044D02*
X15195539Y-14364044D01*
X15195539Y-14364044D02*
X15128872Y-14440234D01*
X15128872Y-14440234D02*
X15157443Y-14440234D01*
X15157443Y-14440234D02*
X15176491Y-14449758D01*
X15176491Y-14449758D02*
X15186015Y-14459282D01*
X15186015Y-14459282D02*
X15195539Y-14478330D01*
X15195539Y-14478330D02*
X15195539Y-14525949D01*
X15195539Y-14525949D02*
X15186015Y-14544996D01*
X15186015Y-14544996D02*
X15176491Y-14554520D01*
X15176491Y-14554520D02*
X15157443Y-14564044D01*
X15157443Y-14564044D02*
X15100301Y-14564044D01*
X15100301Y-14564044D02*
X15081253Y-14554520D01*
X15081253Y-14554520D02*
X15071729Y-14544996D01*
X15281253Y-14544996D02*
X15290777Y-14554520D01*
X15290777Y-14554520D02*
X15281253Y-14564044D01*
X15281253Y-14564044D02*
X15271729Y-14554520D01*
X15271729Y-14554520D02*
X15281253Y-14544996D01*
X15281253Y-14544996D02*
X15281253Y-14564044D01*
X15366967Y-14383091D02*
X15376491Y-14373568D01*
X15376491Y-14373568D02*
X15395539Y-14364044D01*
X15395539Y-14364044D02*
X15443158Y-14364044D01*
X15443158Y-14364044D02*
X15462205Y-14373568D01*
X15462205Y-14373568D02*
X15471729Y-14383091D01*
X15471729Y-14383091D02*
X15481253Y-14402139D01*
X15481253Y-14402139D02*
X15481253Y-14421187D01*
X15481253Y-14421187D02*
X15471729Y-14449758D01*
X15471729Y-14449758D02*
X15357443Y-14564044D01*
X15357443Y-14564044D02*
X15481253Y-14564044D01*
X15605062Y-14364044D02*
X15624110Y-14364044D01*
X15624110Y-14364044D02*
X15643158Y-14373568D01*
X15643158Y-14373568D02*
X15652682Y-14383091D01*
X15652682Y-14383091D02*
X15662205Y-14402139D01*
X15662205Y-14402139D02*
X15671729Y-14440234D01*
X15671729Y-14440234D02*
X15671729Y-14487853D01*
X15671729Y-14487853D02*
X15662205Y-14525949D01*
X15662205Y-14525949D02*
X15652682Y-14544996D01*
X15652682Y-14544996D02*
X15643158Y-14554520D01*
X15643158Y-14554520D02*
X15624110Y-14564044D01*
X15624110Y-14564044D02*
X15605062Y-14564044D01*
X15605062Y-14564044D02*
X15586015Y-14554520D01*
X15586015Y-14554520D02*
X15576491Y-14544996D01*
X15576491Y-14544996D02*
X15566967Y-14525949D01*
X15566967Y-14525949D02*
X15557443Y-14487853D01*
X15557443Y-14487853D02*
X15557443Y-14440234D01*
X15557443Y-14440234D02*
X15566967Y-14402139D01*
X15566967Y-14402139D02*
X15576491Y-14383091D01*
X15576491Y-14383091D02*
X15586015Y-14373568D01*
X15586015Y-14373568D02*
X15605062Y-14364044D01*
X15795539Y-14364044D02*
X15814586Y-14364044D01*
X15814586Y-14364044D02*
X15833634Y-14373568D01*
X15833634Y-14373568D02*
X15843158Y-14383091D01*
X15843158Y-14383091D02*
X15852682Y-14402139D01*
X15852682Y-14402139D02*
X15862205Y-14440234D01*
X15862205Y-14440234D02*
X15862205Y-14487853D01*
X15862205Y-14487853D02*
X15852682Y-14525949D01*
X15852682Y-14525949D02*
X15843158Y-14544996D01*
X15843158Y-14544996D02*
X15833634Y-14554520D01*
X15833634Y-14554520D02*
X15814586Y-14564044D01*
X15814586Y-14564044D02*
X15795539Y-14564044D01*
X15795539Y-14564044D02*
X15776491Y-14554520D01*
X15776491Y-14554520D02*
X15766967Y-14544996D01*
X15766967Y-14544996D02*
X15757443Y-14525949D01*
X15757443Y-14525949D02*
X15747920Y-14487853D01*
X15747920Y-14487853D02*
X15747920Y-14440234D01*
X15747920Y-14440234D02*
X15757443Y-14402139D01*
X15757443Y-14402139D02*
X15766967Y-14383091D01*
X15766967Y-14383091D02*
X15776491Y-14373568D01*
X15776491Y-14373568D02*
X15795539Y-14364044D01*
X15947920Y-14564044D02*
X15947920Y-14430710D01*
X15947920Y-14449758D02*
X15957443Y-14440234D01*
X15957443Y-14440234D02*
X15976491Y-14430710D01*
X15976491Y-14430710D02*
X16005063Y-14430710D01*
X16005063Y-14430710D02*
X16024110Y-14440234D01*
X16024110Y-14440234D02*
X16033634Y-14459282D01*
X16033634Y-14459282D02*
X16033634Y-14564044D01*
X16033634Y-14459282D02*
X16043158Y-14440234D01*
X16043158Y-14440234D02*
X16062205Y-14430710D01*
X16062205Y-14430710D02*
X16090777Y-14430710D01*
X16090777Y-14430710D02*
X16109824Y-14440234D01*
X16109824Y-14440234D02*
X16119348Y-14459282D01*
X16119348Y-14459282D02*
X16119348Y-14564044D01*
X16214586Y-14564044D02*
X16214586Y-14430710D01*
X16214586Y-14449758D02*
X16224110Y-14440234D01*
X16224110Y-14440234D02*
X16243158Y-14430710D01*
X16243158Y-14430710D02*
X16271729Y-14430710D01*
X16271729Y-14430710D02*
X16290777Y-14440234D01*
X16290777Y-14440234D02*
X16300301Y-14459282D01*
X16300301Y-14459282D02*
X16300301Y-14564044D01*
X16300301Y-14459282D02*
X16309824Y-14440234D01*
X16309824Y-14440234D02*
X16328872Y-14430710D01*
X16328872Y-14430710D02*
X16357443Y-14430710D01*
X16357443Y-14430710D02*
X16376491Y-14440234D01*
X16376491Y-14440234D02*
X16386015Y-14459282D01*
X16386015Y-14459282D02*
X16386015Y-14564044D01*
X16776491Y-14354520D02*
X16605063Y-14611663D01*
X17033634Y-14364044D02*
X17052682Y-14364044D01*
X17052682Y-14364044D02*
X17071729Y-14373568D01*
X17071729Y-14373568D02*
X17081253Y-14383091D01*
X17081253Y-14383091D02*
X17090777Y-14402139D01*
X17090777Y-14402139D02*
X17100301Y-14440234D01*
X17100301Y-14440234D02*
X17100301Y-14487853D01*
X17100301Y-14487853D02*
X17090777Y-14525949D01*
X17090777Y-14525949D02*
X17081253Y-14544996D01*
X17081253Y-14544996D02*
X17071729Y-14554520D01*
X17071729Y-14554520D02*
X17052682Y-14564044D01*
X17052682Y-14564044D02*
X17033634Y-14564044D01*
X17033634Y-14564044D02*
X17014587Y-14554520D01*
X17014587Y-14554520D02*
X17005063Y-14544996D01*
X17005063Y-14544996D02*
X16995539Y-14525949D01*
X16995539Y-14525949D02*
X16986015Y-14487853D01*
X16986015Y-14487853D02*
X16986015Y-14440234D01*
X16986015Y-14440234D02*
X16995539Y-14402139D01*
X16995539Y-14402139D02*
X17005063Y-14383091D01*
X17005063Y-14383091D02*
X17014587Y-14373568D01*
X17014587Y-14373568D02*
X17033634Y-14364044D01*
X17186015Y-14544996D02*
X17195539Y-14554520D01*
X17195539Y-14554520D02*
X17186015Y-14564044D01*
X17186015Y-14564044D02*
X17176491Y-14554520D01*
X17176491Y-14554520D02*
X17186015Y-14544996D01*
X17186015Y-14544996D02*
X17186015Y-14564044D01*
X17386015Y-14564044D02*
X17271729Y-14564044D01*
X17328872Y-14564044D02*
X17328872Y-14364044D01*
X17328872Y-14364044D02*
X17309825Y-14392615D01*
X17309825Y-14392615D02*
X17290777Y-14411663D01*
X17290777Y-14411663D02*
X17271729Y-14421187D01*
X17462206Y-14383091D02*
X17471729Y-14373568D01*
X17471729Y-14373568D02*
X17490777Y-14364044D01*
X17490777Y-14364044D02*
X17538396Y-14364044D01*
X17538396Y-14364044D02*
X17557444Y-14373568D01*
X17557444Y-14373568D02*
X17566968Y-14383091D01*
X17566968Y-14383091D02*
X17576491Y-14402139D01*
X17576491Y-14402139D02*
X17576491Y-14421187D01*
X17576491Y-14421187D02*
X17566968Y-14449758D01*
X17566968Y-14449758D02*
X17452682Y-14564044D01*
X17452682Y-14564044D02*
X17576491Y-14564044D01*
X17747920Y-14364044D02*
X17709825Y-14364044D01*
X17709825Y-14364044D02*
X17690777Y-14373568D01*
X17690777Y-14373568D02*
X17681253Y-14383091D01*
X17681253Y-14383091D02*
X17662206Y-14411663D01*
X17662206Y-14411663D02*
X17652682Y-14449758D01*
X17652682Y-14449758D02*
X17652682Y-14525949D01*
X17652682Y-14525949D02*
X17662206Y-14544996D01*
X17662206Y-14544996D02*
X17671729Y-14554520D01*
X17671729Y-14554520D02*
X17690777Y-14564044D01*
X17690777Y-14564044D02*
X17728872Y-14564044D01*
X17728872Y-14564044D02*
X17747920Y-14554520D01*
X17747920Y-14554520D02*
X17757444Y-14544996D01*
X17757444Y-14544996D02*
X17766968Y-14525949D01*
X17766968Y-14525949D02*
X17766968Y-14478330D01*
X17766968Y-14478330D02*
X17757444Y-14459282D01*
X17757444Y-14459282D02*
X17747920Y-14449758D01*
X17747920Y-14449758D02*
X17728872Y-14440234D01*
X17728872Y-14440234D02*
X17690777Y-14440234D01*
X17690777Y-14440234D02*
X17671729Y-14449758D01*
X17671729Y-14449758D02*
X17662206Y-14459282D01*
X17662206Y-14459282D02*
X17652682Y-14478330D01*
X17890777Y-14364044D02*
X17909825Y-14364044D01*
X17909825Y-14364044D02*
X17928872Y-14373568D01*
X17928872Y-14373568D02*
X17938396Y-14383091D01*
X17938396Y-14383091D02*
X17947920Y-14402139D01*
X17947920Y-14402139D02*
X17957444Y-14440234D01*
X17957444Y-14440234D02*
X17957444Y-14487853D01*
X17957444Y-14487853D02*
X17947920Y-14525949D01*
X17947920Y-14525949D02*
X17938396Y-14544996D01*
X17938396Y-14544996D02*
X17928872Y-14554520D01*
X17928872Y-14554520D02*
X17909825Y-14564044D01*
X17909825Y-14564044D02*
X17890777Y-14564044D01*
X17890777Y-14564044D02*
X17871729Y-14554520D01*
X17871729Y-14554520D02*
X17862206Y-14544996D01*
X17862206Y-14544996D02*
X17852682Y-14525949D01*
X17852682Y-14525949D02*
X17843158Y-14487853D01*
X17843158Y-14487853D02*
X17843158Y-14440234D01*
X17843158Y-14440234D02*
X17852682Y-14402139D01*
X17852682Y-14402139D02*
X17862206Y-14383091D01*
X17862206Y-14383091D02*
X17871729Y-14373568D01*
X17871729Y-14373568D02*
X17890777Y-14364044D01*
X18033634Y-14364044D02*
X18033634Y-14402139D01*
X18109825Y-14364044D02*
X18109825Y-14402139D01*
X18405063Y-14640234D02*
X18395539Y-14630710D01*
X18395539Y-14630710D02*
X18376491Y-14602139D01*
X18376491Y-14602139D02*
X18366968Y-14583091D01*
X18366968Y-14583091D02*
X18357444Y-14554520D01*
X18357444Y-14554520D02*
X18347920Y-14506901D01*
X18347920Y-14506901D02*
X18347920Y-14468806D01*
X18347920Y-14468806D02*
X18357444Y-14421187D01*
X18357444Y-14421187D02*
X18366968Y-14392615D01*
X18366968Y-14392615D02*
X18376491Y-14373568D01*
X18376491Y-14373568D02*
X18395539Y-14344996D01*
X18395539Y-14344996D02*
X18405063Y-14335472D01*
X18586015Y-14564044D02*
X18471730Y-14564044D01*
X18528872Y-14564044D02*
X18528872Y-14364044D01*
X18528872Y-14364044D02*
X18509825Y-14392615D01*
X18509825Y-14392615D02*
X18490777Y-14411663D01*
X18490777Y-14411663D02*
X18471730Y-14421187D01*
X18824111Y-14564044D02*
X18824111Y-14364044D01*
X18909825Y-14564044D02*
X18909825Y-14459282D01*
X18909825Y-14459282D02*
X18900301Y-14440234D01*
X18900301Y-14440234D02*
X18881253Y-14430710D01*
X18881253Y-14430710D02*
X18852682Y-14430710D01*
X18852682Y-14430710D02*
X18833634Y-14440234D01*
X18833634Y-14440234D02*
X18824111Y-14449758D01*
X19033634Y-14564044D02*
X19014587Y-14554520D01*
X19014587Y-14554520D02*
X19005063Y-14544996D01*
X19005063Y-14544996D02*
X18995539Y-14525949D01*
X18995539Y-14525949D02*
X18995539Y-14468806D01*
X18995539Y-14468806D02*
X19005063Y-14449758D01*
X19005063Y-14449758D02*
X19014587Y-14440234D01*
X19014587Y-14440234D02*
X19033634Y-14430710D01*
X19033634Y-14430710D02*
X19062206Y-14430710D01*
X19062206Y-14430710D02*
X19081253Y-14440234D01*
X19081253Y-14440234D02*
X19090777Y-14449758D01*
X19090777Y-14449758D02*
X19100301Y-14468806D01*
X19100301Y-14468806D02*
X19100301Y-14525949D01*
X19100301Y-14525949D02*
X19090777Y-14544996D01*
X19090777Y-14544996D02*
X19081253Y-14554520D01*
X19081253Y-14554520D02*
X19062206Y-14564044D01*
X19062206Y-14564044D02*
X19033634Y-14564044D01*
X19214587Y-14564044D02*
X19195539Y-14554520D01*
X19195539Y-14554520D02*
X19186015Y-14535472D01*
X19186015Y-14535472D02*
X19186015Y-14364044D01*
X19366968Y-14554520D02*
X19347920Y-14564044D01*
X19347920Y-14564044D02*
X19309825Y-14564044D01*
X19309825Y-14564044D02*
X19290777Y-14554520D01*
X19290777Y-14554520D02*
X19281253Y-14535472D01*
X19281253Y-14535472D02*
X19281253Y-14459282D01*
X19281253Y-14459282D02*
X19290777Y-14440234D01*
X19290777Y-14440234D02*
X19309825Y-14430710D01*
X19309825Y-14430710D02*
X19347920Y-14430710D01*
X19347920Y-14430710D02*
X19366968Y-14440234D01*
X19366968Y-14440234D02*
X19376492Y-14459282D01*
X19376492Y-14459282D02*
X19376492Y-14478330D01*
X19376492Y-14478330D02*
X19281253Y-14497377D01*
X19443158Y-14640234D02*
X19452682Y-14630710D01*
X19452682Y-14630710D02*
X19471730Y-14602139D01*
X19471730Y-14602139D02*
X19481253Y-14583091D01*
X19481253Y-14583091D02*
X19490777Y-14554520D01*
X19490777Y-14554520D02*
X19500301Y-14506901D01*
X19500301Y-14506901D02*
X19500301Y-14468806D01*
X19500301Y-14468806D02*
X19490777Y-14421187D01*
X19490777Y-14421187D02*
X19481253Y-14392615D01*
X19481253Y-14392615D02*
X19471730Y-14373568D01*
X19471730Y-14373568D02*
X19452682Y-14344996D01*
X19452682Y-14344996D02*
X19443158Y-14335472D01*
X19805063Y-14640234D02*
X19795539Y-14630710D01*
X19795539Y-14630710D02*
X19776492Y-14602139D01*
X19776492Y-14602139D02*
X19766968Y-14583091D01*
X19766968Y-14583091D02*
X19757444Y-14554520D01*
X19757444Y-14554520D02*
X19747920Y-14506901D01*
X19747920Y-14506901D02*
X19747920Y-14468806D01*
X19747920Y-14468806D02*
X19757444Y-14421187D01*
X19757444Y-14421187D02*
X19766968Y-14392615D01*
X19766968Y-14392615D02*
X19776492Y-14373568D01*
X19776492Y-14373568D02*
X19795539Y-14344996D01*
X19795539Y-14344996D02*
X19805063Y-14335472D01*
X19881253Y-14430710D02*
X19881253Y-14564044D01*
X19881253Y-14449758D02*
X19890777Y-14440234D01*
X19890777Y-14440234D02*
X19909825Y-14430710D01*
X19909825Y-14430710D02*
X19938396Y-14430710D01*
X19938396Y-14430710D02*
X19957444Y-14440234D01*
X19957444Y-14440234D02*
X19966968Y-14459282D01*
X19966968Y-14459282D02*
X19966968Y-14564044D01*
X20090777Y-14564044D02*
X20071730Y-14554520D01*
X20071730Y-14554520D02*
X20062206Y-14544996D01*
X20062206Y-14544996D02*
X20052682Y-14525949D01*
X20052682Y-14525949D02*
X20052682Y-14468806D01*
X20052682Y-14468806D02*
X20062206Y-14449758D01*
X20062206Y-14449758D02*
X20071730Y-14440234D01*
X20071730Y-14440234D02*
X20090777Y-14430710D01*
X20090777Y-14430710D02*
X20119349Y-14430710D01*
X20119349Y-14430710D02*
X20138396Y-14440234D01*
X20138396Y-14440234D02*
X20147920Y-14449758D01*
X20147920Y-14449758D02*
X20157444Y-14468806D01*
X20157444Y-14468806D02*
X20157444Y-14525949D01*
X20157444Y-14525949D02*
X20147920Y-14544996D01*
X20147920Y-14544996D02*
X20138396Y-14554520D01*
X20138396Y-14554520D02*
X20119349Y-14564044D01*
X20119349Y-14564044D02*
X20090777Y-14564044D01*
X20214587Y-14430710D02*
X20290777Y-14430710D01*
X20243158Y-14364044D02*
X20243158Y-14535472D01*
X20243158Y-14535472D02*
X20252682Y-14554520D01*
X20252682Y-14554520D02*
X20271730Y-14564044D01*
X20271730Y-14564044D02*
X20290777Y-14564044D01*
X20509825Y-14430710D02*
X20509825Y-14630710D01*
X20509825Y-14440234D02*
X20528873Y-14430710D01*
X20528873Y-14430710D02*
X20566968Y-14430710D01*
X20566968Y-14430710D02*
X20586015Y-14440234D01*
X20586015Y-14440234D02*
X20595539Y-14449758D01*
X20595539Y-14449758D02*
X20605063Y-14468806D01*
X20605063Y-14468806D02*
X20605063Y-14525949D01*
X20605063Y-14525949D02*
X20595539Y-14544996D01*
X20595539Y-14544996D02*
X20586015Y-14554520D01*
X20586015Y-14554520D02*
X20566968Y-14564044D01*
X20566968Y-14564044D02*
X20528873Y-14564044D01*
X20528873Y-14564044D02*
X20509825Y-14554520D01*
X20719349Y-14564044D02*
X20700301Y-14554520D01*
X20700301Y-14554520D02*
X20690777Y-14535472D01*
X20690777Y-14535472D02*
X20690777Y-14364044D01*
X20881254Y-14564044D02*
X20881254Y-14459282D01*
X20881254Y-14459282D02*
X20871730Y-14440234D01*
X20871730Y-14440234D02*
X20852682Y-14430710D01*
X20852682Y-14430710D02*
X20814587Y-14430710D01*
X20814587Y-14430710D02*
X20795539Y-14440234D01*
X20881254Y-14554520D02*
X20862206Y-14564044D01*
X20862206Y-14564044D02*
X20814587Y-14564044D01*
X20814587Y-14564044D02*
X20795539Y-14554520D01*
X20795539Y-14554520D02*
X20786015Y-14535472D01*
X20786015Y-14535472D02*
X20786015Y-14516425D01*
X20786015Y-14516425D02*
X20795539Y-14497377D01*
X20795539Y-14497377D02*
X20814587Y-14487853D01*
X20814587Y-14487853D02*
X20862206Y-14487853D01*
X20862206Y-14487853D02*
X20881254Y-14478330D01*
X20947920Y-14430710D02*
X21024111Y-14430710D01*
X20976492Y-14364044D02*
X20976492Y-14535472D01*
X20976492Y-14535472D02*
X20986015Y-14554520D01*
X20986015Y-14554520D02*
X21005063Y-14564044D01*
X21005063Y-14564044D02*
X21024111Y-14564044D01*
X21166968Y-14554520D02*
X21147920Y-14564044D01*
X21147920Y-14564044D02*
X21109825Y-14564044D01*
X21109825Y-14564044D02*
X21090777Y-14554520D01*
X21090777Y-14554520D02*
X21081254Y-14535472D01*
X21081254Y-14535472D02*
X21081254Y-14459282D01*
X21081254Y-14459282D02*
X21090777Y-14440234D01*
X21090777Y-14440234D02*
X21109825Y-14430710D01*
X21109825Y-14430710D02*
X21147920Y-14430710D01*
X21147920Y-14430710D02*
X21166968Y-14440234D01*
X21166968Y-14440234D02*
X21176492Y-14459282D01*
X21176492Y-14459282D02*
X21176492Y-14478330D01*
X21176492Y-14478330D02*
X21081254Y-14497377D01*
X21347920Y-14564044D02*
X21347920Y-14364044D01*
X21347920Y-14554520D02*
X21328873Y-14564044D01*
X21328873Y-14564044D02*
X21290777Y-14564044D01*
X21290777Y-14564044D02*
X21271730Y-14554520D01*
X21271730Y-14554520D02*
X21262206Y-14544996D01*
X21262206Y-14544996D02*
X21252682Y-14525949D01*
X21252682Y-14525949D02*
X21252682Y-14468806D01*
X21252682Y-14468806D02*
X21262206Y-14449758D01*
X21262206Y-14449758D02*
X21271730Y-14440234D01*
X21271730Y-14440234D02*
X21290777Y-14430710D01*
X21290777Y-14430710D02*
X21328873Y-14430710D01*
X21328873Y-14430710D02*
X21347920Y-14440234D01*
X21424111Y-14640234D02*
X21433635Y-14630710D01*
X21433635Y-14630710D02*
X21452682Y-14602139D01*
X21452682Y-14602139D02*
X21462206Y-14583091D01*
X21462206Y-14583091D02*
X21471730Y-14554520D01*
X21471730Y-14554520D02*
X21481254Y-14506901D01*
X21481254Y-14506901D02*
X21481254Y-14468806D01*
X21481254Y-14468806D02*
X21471730Y-14421187D01*
X21471730Y-14421187D02*
X21462206Y-14392615D01*
X21462206Y-14392615D02*
X21452682Y-14373568D01*
X21452682Y-14373568D02*
X21433635Y-14344996D01*
X21433635Y-14344996D02*
X21424111Y-14335472D01*
M02*
