%TF.GenerationSoftware,KiCad,Pcbnew,7.0.9*%
%TF.CreationDate,2024-03-04T02:29:24+09:00*%
%TF.ProjectId,Gyro_Backup,4779726f-5f42-4616-936b-75702e6b6963,rev?*%
%TF.SameCoordinates,Original*%
%TF.FileFunction,Legend,Top*%
%TF.FilePolarity,Positive*%
%FSLAX46Y46*%
G04 Gerber Fmt 4.6, Leading zero omitted, Abs format (unit mm)*
G04 Created by KiCad (PCBNEW 7.0.9) date 2024-03-04 02:29:24*
%MOMM*%
%LPD*%
G01*
G04 APERTURE LIST*
%ADD10C,0.150000*%
%ADD11C,0.100000*%
%ADD12C,0.120000*%
G04 APERTURE END LIST*
D10*
X150494428Y-92424942D02*
X148494428Y-89424942D01*
X148494428Y-92424942D02*
X150494428Y-89424942D01*
X147351571Y-89424942D02*
X147351571Y-92424942D01*
X146065857Y-90282085D02*
X144637286Y-90282085D01*
X146351571Y-89424942D02*
X145351571Y-92424942D01*
X145351571Y-92424942D02*
X144351571Y-89424942D01*
X142780142Y-92424942D02*
X142208714Y-92424942D01*
X142208714Y-92424942D02*
X141922999Y-92282085D01*
X141922999Y-92282085D02*
X141637285Y-91996371D01*
X141637285Y-91996371D02*
X141494428Y-91424942D01*
X141494428Y-91424942D02*
X141494428Y-90424942D01*
X141494428Y-90424942D02*
X141637285Y-89853514D01*
X141637285Y-89853514D02*
X141922999Y-89567800D01*
X141922999Y-89567800D02*
X142208714Y-89424942D01*
X142208714Y-89424942D02*
X142780142Y-89424942D01*
X142780142Y-89424942D02*
X143065857Y-89567800D01*
X143065857Y-89567800D02*
X143351571Y-89853514D01*
X143351571Y-89853514D02*
X143494428Y-90424942D01*
X143494428Y-90424942D02*
X143494428Y-91424942D01*
X143494428Y-91424942D02*
X143351571Y-91996371D01*
X143351571Y-91996371D02*
X143065857Y-92282085D01*
X143065857Y-92282085D02*
X142780142Y-92424942D01*
X137127200Y-72199332D02*
X137174819Y-72056475D01*
X137174819Y-72056475D02*
X137174819Y-71818380D01*
X137174819Y-71818380D02*
X137127200Y-71723142D01*
X137127200Y-71723142D02*
X137079580Y-71675523D01*
X137079580Y-71675523D02*
X136984342Y-71627904D01*
X136984342Y-71627904D02*
X136889104Y-71627904D01*
X136889104Y-71627904D02*
X136793866Y-71675523D01*
X136793866Y-71675523D02*
X136746247Y-71723142D01*
X136746247Y-71723142D02*
X136698628Y-71818380D01*
X136698628Y-71818380D02*
X136651009Y-72008856D01*
X136651009Y-72008856D02*
X136603390Y-72104094D01*
X136603390Y-72104094D02*
X136555771Y-72151713D01*
X136555771Y-72151713D02*
X136460533Y-72199332D01*
X136460533Y-72199332D02*
X136365295Y-72199332D01*
X136365295Y-72199332D02*
X136270057Y-72151713D01*
X136270057Y-72151713D02*
X136222438Y-72104094D01*
X136222438Y-72104094D02*
X136174819Y-72008856D01*
X136174819Y-72008856D02*
X136174819Y-71770761D01*
X136174819Y-71770761D02*
X136222438Y-71627904D01*
X136174819Y-71294570D02*
X137174819Y-71056475D01*
X137174819Y-71056475D02*
X136460533Y-70865999D01*
X136460533Y-70865999D02*
X137174819Y-70675523D01*
X137174819Y-70675523D02*
X136174819Y-70437428D01*
X137174819Y-69532666D02*
X137174819Y-70104094D01*
X137174819Y-69818380D02*
X136174819Y-69818380D01*
X136174819Y-69818380D02*
X136317676Y-69913618D01*
X136317676Y-69913618D02*
X136412914Y-70008856D01*
X136412914Y-70008856D02*
X136460533Y-70104094D01*
X150041761Y-66755819D02*
X149708428Y-66279628D01*
X149470333Y-66755819D02*
X149470333Y-65755819D01*
X149470333Y-65755819D02*
X149851285Y-65755819D01*
X149851285Y-65755819D02*
X149946523Y-65803438D01*
X149946523Y-65803438D02*
X149994142Y-65851057D01*
X149994142Y-65851057D02*
X150041761Y-65946295D01*
X150041761Y-65946295D02*
X150041761Y-66089152D01*
X150041761Y-66089152D02*
X149994142Y-66184390D01*
X149994142Y-66184390D02*
X149946523Y-66232009D01*
X149946523Y-66232009D02*
X149851285Y-66279628D01*
X149851285Y-66279628D02*
X149470333Y-66279628D01*
X150327476Y-65755819D02*
X150660809Y-66755819D01*
X150660809Y-66755819D02*
X150994142Y-65755819D01*
X151851285Y-66755819D02*
X151279857Y-66755819D01*
X151565571Y-66755819D02*
X151565571Y-65755819D01*
X151565571Y-65755819D02*
X151470333Y-65898676D01*
X151470333Y-65898676D02*
X151375095Y-65993914D01*
X151375095Y-65993914D02*
X151279857Y-66041533D01*
D11*
%TO.C,U3*%
X139700000Y-89154000D02*
X152400000Y-89154000D01*
X152400000Y-89154000D02*
X152400000Y-76454000D01*
X152400000Y-76454000D02*
X139700000Y-76454000D01*
X139700000Y-76454000D02*
X139700000Y-89154000D01*
D12*
%TO.C,U2*%
X154939131Y-101561900D02*
X137159131Y-101561900D01*
X154939131Y-80556100D02*
X154939131Y-101561900D01*
X152399131Y-80556100D02*
X152399131Y-101561900D01*
X139699131Y-101536500D02*
X139699131Y-80568800D01*
D11*
X139699131Y-80568800D02*
X152410870Y-80550629D01*
D12*
X137159131Y-101561900D02*
X137159131Y-80556100D01*
X137159131Y-80556100D02*
X154939131Y-80556100D01*
D11*
X139724531Y-101257100D02*
X152399131Y-101257100D01*
X152399131Y-101257100D02*
X152399131Y-101549200D01*
X152399131Y-101549200D02*
X139724531Y-101549200D01*
X139724531Y-101549200D02*
X139724531Y-101257100D01*
X139699131Y-80568800D02*
X152373731Y-80568800D01*
X152373731Y-80568800D02*
X152373731Y-80860900D01*
X152373731Y-80860900D02*
X139699131Y-80860900D01*
X139699131Y-80860900D02*
X139699131Y-80568800D01*
X154634665Y-98665966D02*
G75*
G03*
X154634665Y-98665966I-965534J0D01*
G01*
X154634665Y-96125966D02*
G75*
G03*
X154634665Y-96125966I-965534J0D01*
G01*
X154634665Y-93585966D02*
G75*
G03*
X154634665Y-93585966I-965534J0D01*
G01*
X154634665Y-91045966D02*
G75*
G03*
X154634665Y-91045966I-965534J0D01*
G01*
X154634665Y-88505966D02*
G75*
G03*
X154634665Y-88505966I-965534J0D01*
G01*
X154634665Y-85965966D02*
G75*
G03*
X154634665Y-85965966I-965534J0D01*
G01*
X154634665Y-83425966D02*
G75*
G03*
X154634665Y-83425966I-965534J0D01*
G01*
X139394665Y-98665966D02*
G75*
G03*
X139394665Y-98665966I-965534J0D01*
G01*
X139394665Y-96125966D02*
G75*
G03*
X139394665Y-96125966I-965534J0D01*
G01*
X139394665Y-93585966D02*
G75*
G03*
X139394665Y-93585966I-965534J0D01*
G01*
X139394665Y-91045966D02*
G75*
G03*
X139394665Y-91045966I-965534J0D01*
G01*
X139394665Y-88505966D02*
G75*
G03*
X139394665Y-88505966I-965534J0D01*
G01*
X139394665Y-83426300D02*
G75*
G03*
X139394665Y-83426300I-965534J0D01*
G01*
X139394331Y-85966300D02*
G75*
G03*
X139394331Y-85966300I-965534J0D01*
G01*
X152410870Y-101556429D02*
X139724531Y-101549200D01*
X139724531Y-101257100D01*
X152399131Y-101257100D01*
X152410870Y-101556429D01*
G36*
X152410870Y-101556429D02*
G01*
X139724531Y-101549200D01*
X139724531Y-101257100D01*
X152399131Y-101257100D01*
X152410870Y-101556429D01*
G37*
X152373731Y-80860900D02*
X139699131Y-80860900D01*
X139699131Y-80568800D01*
X152373731Y-80568800D01*
X152373731Y-80860900D01*
G36*
X152373731Y-80860900D02*
G01*
X139699131Y-80860900D01*
X139699131Y-80568800D01*
X152373731Y-80568800D01*
X152373731Y-80860900D01*
G37*
X154950870Y-83420829D02*
X154646404Y-83420495D01*
X154646070Y-83192229D01*
X154569870Y-82989029D01*
X154493670Y-82836629D01*
X154239670Y-82608029D01*
X154036470Y-82455629D01*
X154925470Y-82455629D01*
X154950870Y-83420829D01*
G36*
X154950870Y-83420829D02*
G01*
X154646404Y-83420495D01*
X154646070Y-83192229D01*
X154569870Y-82989029D01*
X154493670Y-82836629D01*
X154239670Y-82608029D01*
X154036470Y-82455629D01*
X154925470Y-82455629D01*
X154950870Y-83420829D01*
G37*
X139699131Y-83426300D02*
X139394665Y-83425966D01*
X139394331Y-83197700D01*
X139318131Y-82994500D01*
X139241931Y-82842100D01*
X138987931Y-82613500D01*
X138784731Y-82461100D01*
X139673731Y-82461100D01*
X139699131Y-83426300D01*
G36*
X139699131Y-83426300D02*
G01*
X139394665Y-83425966D01*
X139394331Y-83197700D01*
X139318131Y-82994500D01*
X139241931Y-82842100D01*
X138987931Y-82613500D01*
X138784731Y-82461100D01*
X139673731Y-82461100D01*
X139699131Y-83426300D01*
G37*
X154950870Y-91066229D02*
X154925470Y-93606229D01*
X154646404Y-93605895D01*
X154646070Y-93377629D01*
X154544470Y-93098229D01*
X154341270Y-92844229D01*
X153909470Y-92615629D01*
X153426870Y-92615629D01*
X153045870Y-92818829D01*
X152715670Y-93276029D01*
X152741070Y-91472629D01*
X153096670Y-91904429D01*
X153553870Y-92031429D01*
X153884070Y-92031429D01*
X154290470Y-91853629D01*
X154493670Y-91650429D01*
X154620670Y-91396429D01*
X154646404Y-91065895D01*
X154950870Y-91066229D01*
G36*
X154950870Y-91066229D02*
G01*
X154925470Y-93606229D01*
X154646404Y-93605895D01*
X154646070Y-93377629D01*
X154544470Y-93098229D01*
X154341270Y-92844229D01*
X153909470Y-92615629D01*
X153426870Y-92615629D01*
X153045870Y-92818829D01*
X152715670Y-93276029D01*
X152741070Y-91472629D01*
X153096670Y-91904429D01*
X153553870Y-92031429D01*
X153884070Y-92031429D01*
X154290470Y-91853629D01*
X154493670Y-91650429D01*
X154620670Y-91396429D01*
X154646404Y-91065895D01*
X154950870Y-91066229D01*
G37*
X154950870Y-96120829D02*
X154925470Y-98660829D01*
X154646404Y-98660495D01*
X154646070Y-98432229D01*
X154544470Y-98152829D01*
X154341270Y-97898829D01*
X153909470Y-97670229D01*
X153426870Y-97670229D01*
X153045870Y-97873429D01*
X152715670Y-98330629D01*
X152741070Y-96527229D01*
X152741070Y-96552629D01*
X153096670Y-96984429D01*
X153553870Y-97142300D01*
X153884070Y-97111429D01*
X154290470Y-96933629D01*
X154493670Y-96705029D01*
X154620670Y-96451029D01*
X154646404Y-96120495D01*
X154950870Y-96120829D01*
G36*
X154950870Y-96120829D02*
G01*
X154925470Y-98660829D01*
X154646404Y-98660495D01*
X154646070Y-98432229D01*
X154544470Y-98152829D01*
X154341270Y-97898829D01*
X153909470Y-97670229D01*
X153426870Y-97670229D01*
X153045870Y-97873429D01*
X152715670Y-98330629D01*
X152741070Y-96527229D01*
X152741070Y-96552629D01*
X153096670Y-96984429D01*
X153553870Y-97142300D01*
X153884070Y-97111429D01*
X154290470Y-96933629D01*
X154493670Y-96705029D01*
X154620670Y-96451029D01*
X154646404Y-96120495D01*
X154950870Y-96120829D01*
G37*
X154950870Y-93580829D02*
X154925470Y-96120829D01*
X154646404Y-96120495D01*
X154646070Y-95892229D01*
X154544470Y-95612829D01*
X154341270Y-95358829D01*
X153909470Y-95130229D01*
X153426870Y-95130229D01*
X153045870Y-95333429D01*
X152715670Y-95790629D01*
X152741070Y-93987229D01*
X152741070Y-94038029D01*
X153096670Y-94469829D01*
X153542131Y-94576900D01*
X153909470Y-94571429D01*
X154315870Y-94393629D01*
X154493670Y-94165029D01*
X154620670Y-93911029D01*
X154646404Y-93580495D01*
X154950870Y-93580829D01*
G36*
X154950870Y-93580829D02*
G01*
X154925470Y-96120829D01*
X154646404Y-96120495D01*
X154646070Y-95892229D01*
X154544470Y-95612829D01*
X154341270Y-95358829D01*
X153909470Y-95130229D01*
X153426870Y-95130229D01*
X153045870Y-95333429D01*
X152715670Y-95790629D01*
X152741070Y-93987229D01*
X152741070Y-94038029D01*
X153096670Y-94469829D01*
X153542131Y-94576900D01*
X153909470Y-94571429D01*
X154315870Y-94393629D01*
X154493670Y-94165029D01*
X154620670Y-93911029D01*
X154646404Y-93580495D01*
X154950870Y-93580829D01*
G37*
X154950870Y-88526229D02*
X154925470Y-91066229D01*
X154646404Y-91065895D01*
X154646070Y-90837629D01*
X154544470Y-90558229D01*
X154341270Y-90304229D01*
X153909470Y-90075629D01*
X153426870Y-90075629D01*
X153045870Y-90278829D01*
X152715670Y-90736029D01*
X152741070Y-88932629D01*
X152766470Y-88958029D01*
X153122070Y-89389829D01*
X153553870Y-89491429D01*
X153884070Y-89491429D01*
X154290470Y-89313629D01*
X154493670Y-89110429D01*
X154620670Y-88856429D01*
X154646404Y-88525895D01*
X154950870Y-88526229D01*
G36*
X154950870Y-88526229D02*
G01*
X154925470Y-91066229D01*
X154646404Y-91065895D01*
X154646070Y-90837629D01*
X154544470Y-90558229D01*
X154341270Y-90304229D01*
X153909470Y-90075629D01*
X153426870Y-90075629D01*
X153045870Y-90278829D01*
X152715670Y-90736029D01*
X152741070Y-88932629D01*
X152766470Y-88958029D01*
X153122070Y-89389829D01*
X153553870Y-89491429D01*
X153884070Y-89491429D01*
X154290470Y-89313629D01*
X154493670Y-89110429D01*
X154620670Y-88856429D01*
X154646404Y-88525895D01*
X154950870Y-88526229D01*
G37*
X154950870Y-85960829D02*
X154925470Y-88500829D01*
X154646404Y-88500495D01*
X154646070Y-88272229D01*
X154544470Y-87992829D01*
X154341270Y-87738829D01*
X153909470Y-87510229D01*
X153426870Y-87510229D01*
X153045870Y-87713429D01*
X152715670Y-88170629D01*
X152741070Y-86367229D01*
X152741070Y-86392629D01*
X153096670Y-86824429D01*
X153553870Y-86982300D01*
X153909470Y-86951429D01*
X154315870Y-86773629D01*
X154493670Y-86545029D01*
X154620670Y-86291029D01*
X154646404Y-85960495D01*
X154950870Y-85960829D01*
G36*
X154950870Y-85960829D02*
G01*
X154925470Y-88500829D01*
X154646404Y-88500495D01*
X154646070Y-88272229D01*
X154544470Y-87992829D01*
X154341270Y-87738829D01*
X153909470Y-87510229D01*
X153426870Y-87510229D01*
X153045870Y-87713429D01*
X152715670Y-88170629D01*
X152741070Y-86367229D01*
X152741070Y-86392629D01*
X153096670Y-86824429D01*
X153553870Y-86982300D01*
X153909470Y-86951429D01*
X154315870Y-86773629D01*
X154493670Y-86545029D01*
X154620670Y-86291029D01*
X154646404Y-85960495D01*
X154950870Y-85960829D01*
G37*
X154950870Y-83420829D02*
X154925470Y-85960829D01*
X154646404Y-85960495D01*
X154646070Y-85732229D01*
X154544470Y-85452829D01*
X154341270Y-85198829D01*
X153909470Y-84970229D01*
X153426870Y-84970229D01*
X153045870Y-85173429D01*
X152715670Y-85630629D01*
X152741070Y-83827229D01*
X152741070Y-83852629D01*
X153096670Y-84284429D01*
X153553870Y-84416900D01*
X153909470Y-84411429D01*
X154315870Y-84233629D01*
X154493670Y-84005029D01*
X154620670Y-83751029D01*
X154646404Y-83420495D01*
X154950870Y-83420829D01*
G36*
X154950870Y-83420829D02*
G01*
X154925470Y-85960829D01*
X154646404Y-85960495D01*
X154646070Y-85732229D01*
X154544470Y-85452829D01*
X154341270Y-85198829D01*
X153909470Y-84970229D01*
X153426870Y-84970229D01*
X153045870Y-85173429D01*
X152715670Y-85630629D01*
X152741070Y-83827229D01*
X152741070Y-83852629D01*
X153096670Y-84284429D01*
X153553870Y-84416900D01*
X153909470Y-84411429D01*
X154315870Y-84233629D01*
X154493670Y-84005029D01*
X154620670Y-83751029D01*
X154646404Y-83420495D01*
X154950870Y-83420829D01*
G37*
X139699131Y-96126300D02*
X139673731Y-98666300D01*
X139394665Y-98665966D01*
X139394331Y-98437700D01*
X139292731Y-98158300D01*
X139089531Y-97904300D01*
X138657731Y-97675700D01*
X138175131Y-97675700D01*
X137794131Y-97878900D01*
X137463931Y-98336100D01*
X137489331Y-96532700D01*
X137514731Y-96532700D01*
X137870331Y-96964500D01*
X138302131Y-97091500D01*
X138632331Y-97091500D01*
X139038731Y-96913700D01*
X139241931Y-96710500D01*
X139368931Y-96456500D01*
X139394665Y-96125966D01*
X139699131Y-96126300D01*
G36*
X139699131Y-96126300D02*
G01*
X139673731Y-98666300D01*
X139394665Y-98665966D01*
X139394331Y-98437700D01*
X139292731Y-98158300D01*
X139089531Y-97904300D01*
X138657731Y-97675700D01*
X138175131Y-97675700D01*
X137794131Y-97878900D01*
X137463931Y-98336100D01*
X137489331Y-96532700D01*
X137514731Y-96532700D01*
X137870331Y-96964500D01*
X138302131Y-97091500D01*
X138632331Y-97091500D01*
X139038731Y-96913700D01*
X139241931Y-96710500D01*
X139368931Y-96456500D01*
X139394665Y-96125966D01*
X139699131Y-96126300D01*
G37*
X139699131Y-93586300D02*
X139673731Y-96126300D01*
X139394665Y-96125966D01*
X139394331Y-95897700D01*
X139292731Y-95618300D01*
X139089531Y-95364300D01*
X138657731Y-95135700D01*
X138175131Y-95135700D01*
X137794131Y-95338900D01*
X137463931Y-95796100D01*
X137489331Y-93992700D01*
X137514731Y-93992700D01*
X137870331Y-94424500D01*
X138302131Y-94551500D01*
X138632331Y-94551500D01*
X139038731Y-94373700D01*
X139241931Y-94170500D01*
X139368931Y-93916500D01*
X139394665Y-93585966D01*
X139699131Y-93586300D01*
G36*
X139699131Y-93586300D02*
G01*
X139673731Y-96126300D01*
X139394665Y-96125966D01*
X139394331Y-95897700D01*
X139292731Y-95618300D01*
X139089531Y-95364300D01*
X138657731Y-95135700D01*
X138175131Y-95135700D01*
X137794131Y-95338900D01*
X137463931Y-95796100D01*
X137489331Y-93992700D01*
X137514731Y-93992700D01*
X137870331Y-94424500D01*
X138302131Y-94551500D01*
X138632331Y-94551500D01*
X139038731Y-94373700D01*
X139241931Y-94170500D01*
X139368931Y-93916500D01*
X139394665Y-93585966D01*
X139699131Y-93586300D01*
G37*
X139699131Y-91071700D02*
X139673731Y-93611700D01*
X139394665Y-93611366D01*
X139394331Y-93383100D01*
X139292731Y-93103700D01*
X139089531Y-92849700D01*
X138657731Y-92621100D01*
X138175131Y-92621100D01*
X137794131Y-92824300D01*
X137463931Y-93281500D01*
X137489331Y-91478100D01*
X137514731Y-91478100D01*
X137870331Y-91909900D01*
X138302131Y-92036900D01*
X138632331Y-92036900D01*
X139038731Y-91859100D01*
X139241931Y-91655900D01*
X139368931Y-91401900D01*
X139394665Y-91071366D01*
X139699131Y-91071700D01*
G36*
X139699131Y-91071700D02*
G01*
X139673731Y-93611700D01*
X139394665Y-93611366D01*
X139394331Y-93383100D01*
X139292731Y-93103700D01*
X139089531Y-92849700D01*
X138657731Y-92621100D01*
X138175131Y-92621100D01*
X137794131Y-92824300D01*
X137463931Y-93281500D01*
X137489331Y-91478100D01*
X137514731Y-91478100D01*
X137870331Y-91909900D01*
X138302131Y-92036900D01*
X138632331Y-92036900D01*
X139038731Y-91859100D01*
X139241931Y-91655900D01*
X139368931Y-91401900D01*
X139394665Y-91071366D01*
X139699131Y-91071700D01*
G37*
X139699131Y-88531700D02*
X139673731Y-91071700D01*
X139394665Y-91071366D01*
X139394331Y-90843100D01*
X139292731Y-90563700D01*
X139089531Y-90309700D01*
X138657731Y-90081100D01*
X138175131Y-90081100D01*
X137794131Y-90284300D01*
X137463931Y-90741500D01*
X137489331Y-88938100D01*
X137514731Y-88938100D01*
X137870331Y-89369900D01*
X138302131Y-89496900D01*
X138632331Y-89496900D01*
X139038731Y-89319100D01*
X139241931Y-89115900D01*
X139368931Y-88861900D01*
X139394665Y-88531366D01*
X139699131Y-88531700D01*
G36*
X139699131Y-88531700D02*
G01*
X139673731Y-91071700D01*
X139394665Y-91071366D01*
X139394331Y-90843100D01*
X139292731Y-90563700D01*
X139089531Y-90309700D01*
X138657731Y-90081100D01*
X138175131Y-90081100D01*
X137794131Y-90284300D01*
X137463931Y-90741500D01*
X137489331Y-88938100D01*
X137514731Y-88938100D01*
X137870331Y-89369900D01*
X138302131Y-89496900D01*
X138632331Y-89496900D01*
X139038731Y-89319100D01*
X139241931Y-89115900D01*
X139368931Y-88861900D01*
X139394665Y-88531366D01*
X139699131Y-88531700D01*
G37*
X139699131Y-85966300D02*
X139673731Y-88506300D01*
X139394665Y-88505966D01*
X139394331Y-88277700D01*
X139292731Y-87998300D01*
X139089531Y-87744300D01*
X138657731Y-87515700D01*
X138175131Y-87515700D01*
X137794131Y-87718900D01*
X137463931Y-88176100D01*
X137489331Y-86372700D01*
X137514731Y-86372700D01*
X137870331Y-86804500D01*
X138302131Y-86931500D01*
X138632331Y-86931500D01*
X139038731Y-86753700D01*
X139241931Y-86550500D01*
X139368931Y-86296500D01*
X139394665Y-85965966D01*
X139699131Y-85966300D01*
G36*
X139699131Y-85966300D02*
G01*
X139673731Y-88506300D01*
X139394665Y-88505966D01*
X139394331Y-88277700D01*
X139292731Y-87998300D01*
X139089531Y-87744300D01*
X138657731Y-87515700D01*
X138175131Y-87515700D01*
X137794131Y-87718900D01*
X137463931Y-88176100D01*
X137489331Y-86372700D01*
X137514731Y-86372700D01*
X137870331Y-86804500D01*
X138302131Y-86931500D01*
X138632331Y-86931500D01*
X139038731Y-86753700D01*
X139241931Y-86550500D01*
X139368931Y-86296500D01*
X139394665Y-85965966D01*
X139699131Y-85966300D01*
G37*
X139699131Y-83426300D02*
X139673731Y-85966300D01*
X139394665Y-85965966D01*
X139394331Y-85737700D01*
X139292731Y-85458300D01*
X139089531Y-85204300D01*
X138657731Y-84975700D01*
X138175131Y-84975700D01*
X137794131Y-85178900D01*
X137463931Y-85636100D01*
X137489331Y-83832700D01*
X137514731Y-83832700D01*
X137870331Y-84264500D01*
X138302131Y-84391500D01*
X138632331Y-84391500D01*
X139038731Y-84213700D01*
X139241931Y-84010500D01*
X139368931Y-83756500D01*
X139394665Y-83425966D01*
X139699131Y-83426300D01*
G36*
X139699131Y-83426300D02*
G01*
X139673731Y-85966300D01*
X139394665Y-85965966D01*
X139394331Y-85737700D01*
X139292731Y-85458300D01*
X139089531Y-85204300D01*
X138657731Y-84975700D01*
X138175131Y-84975700D01*
X137794131Y-85178900D01*
X137463931Y-85636100D01*
X137489331Y-83832700D01*
X137514731Y-83832700D01*
X137870331Y-84264500D01*
X138302131Y-84391500D01*
X138632331Y-84391500D01*
X139038731Y-84213700D01*
X139241931Y-84010500D01*
X139368931Y-83756500D01*
X139394665Y-83425966D01*
X139699131Y-83426300D01*
G37*
X154950870Y-80563329D02*
X154925470Y-82455629D01*
X153680870Y-82455295D01*
X153426870Y-82455629D01*
X153020470Y-82658829D01*
X152741070Y-83039829D01*
X152689936Y-83420829D01*
X152715002Y-85960829D01*
X152715336Y-88500495D01*
X152715336Y-96120495D01*
X152690270Y-98508429D01*
X152690270Y-98991029D01*
X152995070Y-99473629D01*
X153426870Y-99651429D01*
X153909470Y-99651429D01*
X154265070Y-99448229D01*
X154595270Y-99168829D01*
X154697204Y-98660495D01*
X154925470Y-98660829D01*
X154950870Y-101569129D01*
X152410870Y-101556429D01*
X152410870Y-80550629D01*
X154950870Y-80563329D01*
G36*
X154950870Y-80563329D02*
G01*
X154925470Y-82455629D01*
X153680870Y-82455295D01*
X153426870Y-82455629D01*
X153020470Y-82658829D01*
X152741070Y-83039829D01*
X152689936Y-83420829D01*
X152715002Y-85960829D01*
X152715336Y-88500495D01*
X152715336Y-96120495D01*
X152690270Y-98508429D01*
X152690270Y-98991029D01*
X152995070Y-99473629D01*
X153426870Y-99651429D01*
X153909470Y-99651429D01*
X154265070Y-99448229D01*
X154595270Y-99168829D01*
X154697204Y-98660495D01*
X154925470Y-98660829D01*
X154950870Y-101569129D01*
X152410870Y-101556429D01*
X152410870Y-80550629D01*
X154950870Y-80563329D01*
G37*
X139699131Y-80568800D02*
X139673731Y-82461100D01*
X138429131Y-82460766D01*
X138175131Y-82461100D01*
X137768731Y-82664300D01*
X137514731Y-83045300D01*
X137463597Y-83426300D01*
X137463263Y-85966300D01*
X137463597Y-88505966D01*
X137463597Y-96125966D01*
X137438531Y-98513900D01*
X137463931Y-98945700D01*
X137768731Y-99428300D01*
X138175131Y-99656900D01*
X138657731Y-99656900D01*
X139013331Y-99453700D01*
X139343531Y-99174300D01*
X139445465Y-98665966D01*
X139673731Y-98666300D01*
X139699131Y-101536500D01*
X137159131Y-101561900D01*
X137159131Y-80556100D01*
X139699131Y-80568800D01*
G36*
X139699131Y-80568800D02*
G01*
X139673731Y-82461100D01*
X138429131Y-82460766D01*
X138175131Y-82461100D01*
X137768731Y-82664300D01*
X137514731Y-83045300D01*
X137463597Y-83426300D01*
X137463263Y-85966300D01*
X137463597Y-88505966D01*
X137463597Y-96125966D01*
X137438531Y-98513900D01*
X137463931Y-98945700D01*
X137768731Y-99428300D01*
X138175131Y-99656900D01*
X138657731Y-99656900D01*
X139013331Y-99453700D01*
X139343531Y-99174300D01*
X139445465Y-98665966D01*
X139673731Y-98666300D01*
X139699131Y-101536500D01*
X137159131Y-101561900D01*
X137159131Y-80556100D01*
X139699131Y-80568800D01*
G37*
D12*
%TO.C,R2*%
X146400000Y-82154000D02*
X146400000Y-85994000D01*
X148240000Y-82154000D02*
X148240000Y-85994000D01*
%TO.C,R1*%
X144114000Y-82154000D02*
X144114000Y-85994000D01*
X145954000Y-82154000D02*
X145954000Y-85994000D01*
%TO.C,J1*%
X139740000Y-91549000D02*
X141160000Y-91549000D01*
X139740000Y-103269000D02*
X139740000Y-91549000D01*
X141160000Y-91549000D02*
X141160000Y-96049000D01*
X141160000Y-96049000D02*
X146050000Y-96049000D01*
X142000000Y-91859000D02*
X142600000Y-91859000D01*
X142050000Y-97159000D02*
X142050000Y-102659000D01*
X142050000Y-102659000D02*
X142550000Y-102659000D01*
X142300000Y-92459000D02*
X142000000Y-91859000D01*
X142550000Y-97159000D02*
X142050000Y-97159000D01*
X142550000Y-102659000D02*
X142550000Y-97159000D01*
X142600000Y-91859000D02*
X142300000Y-92459000D01*
X144550000Y-97159000D02*
X144550000Y-102659000D01*
X144550000Y-102659000D02*
X145050000Y-102659000D01*
X145050000Y-97159000D02*
X144550000Y-97159000D01*
X145050000Y-102659000D02*
X145050000Y-97159000D01*
X146050000Y-103269000D02*
X139740000Y-103269000D01*
X146050000Y-103269000D02*
X152360000Y-103269000D01*
X147050000Y-97159000D02*
X147050000Y-102659000D01*
X147050000Y-102659000D02*
X147550000Y-102659000D01*
X147550000Y-97159000D02*
X147050000Y-97159000D01*
X147550000Y-102659000D02*
X147550000Y-97159000D01*
X149550000Y-97159000D02*
X149550000Y-102659000D01*
X149550000Y-102659000D02*
X150050000Y-102659000D01*
X150050000Y-97159000D02*
X149550000Y-97159000D01*
X150050000Y-102659000D02*
X150050000Y-97159000D01*
X150940000Y-91549000D02*
X150940000Y-96049000D01*
X150940000Y-96049000D02*
X146050000Y-96049000D01*
X152360000Y-91549000D02*
X150940000Y-91549000D01*
X152360000Y-103269000D02*
X152360000Y-91549000D01*
%TO.C,SW1*%
X140220000Y-74366000D02*
X141720000Y-74366000D01*
X144220000Y-73116000D02*
X144220000Y-68616000D01*
X137720000Y-68616000D02*
X137720000Y-73116000D01*
X141720000Y-67366000D02*
X140220000Y-67366000D01*
%TO.C,RV1*%
X147017000Y-67431000D02*
X147017000Y-74271000D01*
X147017000Y-67431000D02*
X150047000Y-67431000D01*
X147017000Y-74271000D02*
X150047000Y-74271000D01*
X151347000Y-67431000D02*
X154257000Y-67431000D01*
X151347000Y-74271000D02*
X154257000Y-74271000D01*
X154257000Y-67431000D02*
X154257000Y-74271000D01*
%TD*%
M02*
