%TF.GenerationSoftware,KiCad,Pcbnew,7.0.9*%
%TF.CreationDate,2024-01-11T16:53:43+09:00*%
%TF.ProjectId,IO_Board,494f5f42-6f61-4726-942e-6b696361645f,rev?*%
%TF.SameCoordinates,Original*%
%TF.FileFunction,Drillmap*%
%TF.FilePolarity,Positive*%
%FSLAX45Y45*%
G04 Gerber Fmt 4.5, Leading zero omitted, Abs format (unit mm)*
G04 Created by KiCad (PCBNEW 7.0.9) date 2024-01-11 16:53:43*
%MOMM*%
%LPD*%
G01*
G04 APERTURE LIST*
%ADD10C,0.200000*%
G04 APERTURE END LIST*
D10*
X19440000Y-8151000D02*
G75*
G03*
X19740000Y-8451000I300000J0D01*
G01*
X19865000Y-8451000D02*
X19740000Y-8451000D01*
X10365000Y-9576500D02*
G75*
G03*
X10665000Y-9876500I300000J0D01*
G01*
X12623800Y-7724500D02*
X11323800Y-7724500D01*
X10740000Y-8451000D02*
X10615000Y-8451000D01*
X19980000Y-8701000D02*
G75*
G03*
X19980000Y-8701000I-115000J0D01*
G01*
X11323800Y-7724500D02*
X11323800Y-9674500D01*
X20115000Y-9576500D02*
X20115000Y-8701000D01*
X15355000Y-7925500D02*
G75*
G03*
X15355000Y-7925500I-115000J0D01*
G01*
X10740000Y-8451000D02*
G75*
G03*
X11040000Y-8151000I0J300000D01*
G01*
X10365000Y-8701000D02*
X10365000Y-9576500D01*
X12623800Y-9674500D02*
X12623800Y-7724500D01*
X19815000Y-9876500D02*
G75*
G03*
X20115000Y-9576500I0J300000D01*
G01*
X11323800Y-9674500D02*
X12623800Y-9674500D01*
X10665000Y-9876500D02*
X19815000Y-9876500D01*
X19140000Y-7525500D02*
X11340000Y-7525500D01*
X20115000Y-8701000D02*
G75*
G03*
X19865000Y-8451000I-250000J0D01*
G01*
X19440000Y-8151000D02*
X19440000Y-7825500D01*
X10730000Y-8701000D02*
G75*
G03*
X10730000Y-8701000I-115000J0D01*
G01*
X10615000Y-8451000D02*
G75*
G03*
X10365000Y-8701000I0J-250000D01*
G01*
X11340000Y-7525500D02*
G75*
G03*
X11040000Y-7825500I0J-300000D01*
G01*
X19440000Y-7825500D02*
G75*
G03*
X19140000Y-7525500I-300000J0D01*
G01*
X11040000Y-7825500D02*
X11040000Y-8151000D01*
X10615777Y-10197984D02*
X10615777Y-9997984D01*
X10615777Y-9997984D02*
X10663396Y-9997984D01*
X10663396Y-9997984D02*
X10691967Y-10007508D01*
X10691967Y-10007508D02*
X10711015Y-10026555D01*
X10711015Y-10026555D02*
X10720539Y-10045603D01*
X10720539Y-10045603D02*
X10730063Y-10083698D01*
X10730063Y-10083698D02*
X10730063Y-10112269D01*
X10730063Y-10112269D02*
X10720539Y-10150365D01*
X10720539Y-10150365D02*
X10711015Y-10169412D01*
X10711015Y-10169412D02*
X10691967Y-10188460D01*
X10691967Y-10188460D02*
X10663396Y-10197984D01*
X10663396Y-10197984D02*
X10615777Y-10197984D01*
X10815777Y-10197984D02*
X10815777Y-10064650D01*
X10815777Y-10102746D02*
X10825301Y-10083698D01*
X10825301Y-10083698D02*
X10834824Y-10074174D01*
X10834824Y-10074174D02*
X10853872Y-10064650D01*
X10853872Y-10064650D02*
X10872920Y-10064650D01*
X10939586Y-10197984D02*
X10939586Y-10064650D01*
X10939586Y-9997984D02*
X10930063Y-10007508D01*
X10930063Y-10007508D02*
X10939586Y-10017031D01*
X10939586Y-10017031D02*
X10949110Y-10007508D01*
X10949110Y-10007508D02*
X10939586Y-9997984D01*
X10939586Y-9997984D02*
X10939586Y-10017031D01*
X11063396Y-10197984D02*
X11044348Y-10188460D01*
X11044348Y-10188460D02*
X11034824Y-10169412D01*
X11034824Y-10169412D02*
X11034824Y-9997984D01*
X11168158Y-10197984D02*
X11149110Y-10188460D01*
X11149110Y-10188460D02*
X11139586Y-10169412D01*
X11139586Y-10169412D02*
X11139586Y-9997984D01*
X11396729Y-10197984D02*
X11396729Y-9997984D01*
X11396729Y-9997984D02*
X11463396Y-10140841D01*
X11463396Y-10140841D02*
X11530062Y-9997984D01*
X11530062Y-9997984D02*
X11530062Y-10197984D01*
X11711015Y-10197984D02*
X11711015Y-10093222D01*
X11711015Y-10093222D02*
X11701491Y-10074174D01*
X11701491Y-10074174D02*
X11682443Y-10064650D01*
X11682443Y-10064650D02*
X11644348Y-10064650D01*
X11644348Y-10064650D02*
X11625301Y-10074174D01*
X11711015Y-10188460D02*
X11691967Y-10197984D01*
X11691967Y-10197984D02*
X11644348Y-10197984D01*
X11644348Y-10197984D02*
X11625301Y-10188460D01*
X11625301Y-10188460D02*
X11615777Y-10169412D01*
X11615777Y-10169412D02*
X11615777Y-10150365D01*
X11615777Y-10150365D02*
X11625301Y-10131317D01*
X11625301Y-10131317D02*
X11644348Y-10121793D01*
X11644348Y-10121793D02*
X11691967Y-10121793D01*
X11691967Y-10121793D02*
X11711015Y-10112269D01*
X11806253Y-10064650D02*
X11806253Y-10264650D01*
X11806253Y-10074174D02*
X11825301Y-10064650D01*
X11825301Y-10064650D02*
X11863396Y-10064650D01*
X11863396Y-10064650D02*
X11882443Y-10074174D01*
X11882443Y-10074174D02*
X11891967Y-10083698D01*
X11891967Y-10083698D02*
X11901491Y-10102746D01*
X11901491Y-10102746D02*
X11901491Y-10159888D01*
X11901491Y-10159888D02*
X11891967Y-10178936D01*
X11891967Y-10178936D02*
X11882443Y-10188460D01*
X11882443Y-10188460D02*
X11863396Y-10197984D01*
X11863396Y-10197984D02*
X11825301Y-10197984D01*
X11825301Y-10197984D02*
X11806253Y-10188460D01*
X11987205Y-10178936D02*
X11996729Y-10188460D01*
X11996729Y-10188460D02*
X11987205Y-10197984D01*
X11987205Y-10197984D02*
X11977682Y-10188460D01*
X11977682Y-10188460D02*
X11987205Y-10178936D01*
X11987205Y-10178936D02*
X11987205Y-10197984D01*
X11987205Y-10074174D02*
X11996729Y-10083698D01*
X11996729Y-10083698D02*
X11987205Y-10093222D01*
X11987205Y-10093222D02*
X11977682Y-10083698D01*
X11977682Y-10083698D02*
X11987205Y-10074174D01*
X11987205Y-10074174D02*
X11987205Y-10093222D01*
M02*
