0
SECTION
2
HEADER
9
$INSUNITS
70
4
9
$ACADVER
1
AC1014
9
$HANDSEED
5
FFFF
0
ENDSEC
0
SECTION
2
TABLES
0
TABLE
2
VPORT
5
8
100
AcDbSymbolTable
0
ENDTAB
0
TABLE
2
LTYPE
5
5
100
AcDbSymbolTable
0
LTYPE
5
14
100
AcDbSymbolTableRecord
100
AcDbLinetypeTableRecord
2
BYBLOCK
70
0
0
LTYPE
5
15
100
AcDbSymbolTableRecord
100
AcDbLinetypeTableRecord
2
BYLAYER
70
0
0
ENDTAB
0
TABLE
2
LAYER
5
2
100
AcDbSymbolTable
70
2
0
LAYER
5
50
100
AcDbSymbolTableRecord
100
AcDbLayerTableRecord
2
0
70
0
6
CONTINUOUS
0
ENDTAB
0
TABLE
2
STYLE
5
3
100
AcDbSymbolTable
70
1
0
STYLE
5
11
100
AcDbSymbolTableRecord
100
AcDbTextStyleTableRecord
2
STANDARD
70
0
0
ENDTAB
0
TABLE
2
VIEW
5
6
100
AcDbSymbolTable
70
0
0
ENDTAB
0
TABLE
2
UCS
5
7
100
AcDbSymbolTable
70
0
0
ENDTAB
0
TABLE
2
APPID
5
9
100
AcDbSymbolTable
70
2
0
APPID
5
12
100
AcDbSymbolTableRecord
100
AcDbRegAppTableRecord
2
ACAD
70
0
0
ENDTAB
0
TABLE
2
DIMSTYLE
5
A
100
AcDbSymbolTable
70
1
0
ENDTAB
0
TABLE
2
BLOCK_RECORD
5
1
100
AcDbSymbolTable
70
1
0
BLOCK_RECORD
5
1F
100
AcDbSymbolTableRecord
100
AcDbBlockTableRecord
2
*MODEL_SPACE
0
BLOCK_RECORD
5
1B
100
AcDbSymbolTableRecord
100
AcDbBlockTableRecord
2
*PAPER_SPACE
0
ENDTAB
0
ENDSEC
0
SECTION
2
BLOCKS
0
BLOCK
5
20
100
AcDbEntity
100
AcDbBlockBegin
2
*MODEL_SPACE
0
ENDBLK
5
21
100
AcDbEntity
100
AcDbBlockEnd
0
BLOCK
5
1C
100
AcDbEntity
100
AcDbBlockBegin
2
*PAPER_SPACE
0
ENDBLK
5
1D
100
AcDbEntity
100
AcDbBlockEnd
0
ENDSEC
0
SECTION
2
ENTITIES
0
CIRCLE
5
100
100
AcDbEntity
8
0
100
AcDbCircle
10
-51.707999910531008
20
-43.38816365384141
30
0
40
1.6000000000000028
210
0
220
0
230
1
0
CIRCLE
5
101
100
AcDbEntity
8
0
100
AcDbCircle
10
-51.707999910531022
20
43.388163653841396
30
0
40
1.5999999999999981
210
0
220
0
230
1
0
LWPOLYLINE
5
102
100
AcDbEntity
8
0
100
AcDbPolyline
90
4
70
1
43
0.0
10
49.598386812774542
20
-28.000000491738319
42
0.27890399446888692
10
51.369757770373631
20
-26.92857193787184
42
1.6532795875251824
10
-51.369757770373631
20
-26.928571937871823
42
0.27890399446888747
10
-49.598386812774542
20
-28.000000491738316
0
CIRCLE
5
103
100
AcDbEntity
8
0
100
AcDbCircle
10
51.707999910531008
20
-43.38816365384141
30
0
40
1.6000000000000014
210
-0
220
0
230
1
0
CIRCLE
5
104
100
AcDbEntity
8
0
100
AcDbCircle
10
51.707999910531022
20
43.388163653841396
30
0
40
1.6000000000000014
210
-0
220
0
230
1
0
LWPOLYLINE
5
105
100
AcDbEntity
8
0
100
AcDbPolyline
90
24
70
1
43
0.0
10
53.636362121791464
20
41.090031060748842
42
1.0000000074505806
10
49.77963769927058
20
45.686296246933928
10
48.53763178518561
20
44.64412954250524
42
-0.39656107930456724
10
47.169164718294532
20
44.722141046448115
42
0.42989650282459091
10
-47.169164718294539
20
44.722141046448101
42
-0.39656107930456708
10
-48.53763178518561
20
44.64412954250524
10
-49.779637699270573
20
45.686296246933942
42
0.9999999925494194
10
-53.636362121791493
20
41.090031060748856
10
-52.394356807457001
20
40.047863546554865
42
-0.39656107488733627
10
-52.233551319914106
20
38.686640026111114
42
0.32999632005301172
10
-52.233550729250695
20
-38.686640823607227
42
-0.39656107930456552
10
-52.39435620770648
20
-40.047864356320162
10
-53.63636212179145
20
-41.090031060748863
42
1.0000000074505806
10
-49.779637699270566
20
-45.686296246933942
10
-48.537631091868043
20
-44.644130273758464
42
-0.39656107488733289
10
-47.169164035481799
20
-44.722141766621732
42
0.42989649377980882
10
47.169164035481792
20
-44.722141766621711
42
-0.39656107488733328
10
48.53763109186805
20
-44.644130273758449
10
49.779637699270573
20
-45.686296246933964
42
0.9999999925494194
10
53.636362121791464
20
-41.090031060748842
10
52.39435620770648
20
-40.047864356320162
42
-0.3965610793045708
10
52.233550729250702
20
-38.68664082360722
42
0.32999632005301172
10
52.233551319914078
20
38.686640026111114
42
-0.39656107488733128
10
52.394356807456987
20
40.047863546554865
0
ENDSEC
0
SECTION
2
OBJECTS
0
DICTIONARY
5
C
100
AcDbDictionary
3
ACAD_GROUP
350
D
3
ACAD_MLINESTYLE
350
17
0
DICTIONARY
5
D
100
AcDbDictionary
0
DICTIONARY
5
1A
330
C
100
AcDbDictionary
0
DICTIONARY
5
17
100
AcDbDictionary
0
ENDSEC
0
EOF
