%TF.GenerationSoftware,KiCad,Pcbnew,7.0.2-0*%
%TF.CreationDate,2023-07-23T18:48:48+09:00*%
%TF.ProjectId,power_board1,706f7765-725f-4626-9f61-7264312e6b69,rev?*%
%TF.SameCoordinates,Original*%
%TF.FileFunction,Drillmap*%
%TF.FilePolarity,Positive*%
%FSLAX45Y45*%
G04 Gerber Fmt 4.5, Leading zero omitted, Abs format (unit mm)*
G04 Created by KiCad (PCBNEW 7.0.2-0) date 2023-07-23 18:48:48*
%MOMM*%
%LPD*%
G01*
G04 APERTURE LIST*
%ADD10C,0.200000*%
%ADD11C,0.050000*%
%ADD12C,0.100000*%
%ADD13C,0.140000*%
%ADD14C,0.170000*%
G04 APERTURE END LIST*
D10*
X17063228Y-7700000D02*
X17001494Y-7700000D01*
X17001494Y-7700003D02*
G75*
G03*
X16781383Y-7796159I-4J-299997D01*
G01*
X14938445Y-9786189D02*
G75*
G03*
X14952281Y-10207862I220115J-203841D01*
G01*
X14952281Y-10207862D02*
X16124432Y-11317831D01*
X16330708Y-11400000D02*
X16704214Y-11400000D01*
X16960094Y-11529135D02*
G75*
G03*
X17213228Y-11420223I103136J108915D01*
G01*
X17112500Y-8000000D02*
G75*
G03*
X17112500Y-8000000I-112500J0D01*
G01*
X17213228Y-11420223D02*
X17213228Y-7850000D01*
X16910487Y-11482171D02*
G75*
G03*
X16704214Y-11400000I-206277J-217829D01*
G01*
X16124433Y-11317830D02*
G75*
G03*
X16330708Y-11400000I206277J217830D01*
G01*
X17112500Y-11250000D02*
G75*
G03*
X17112500Y-11250000I-112500J0D01*
G01*
X17213230Y-7850000D02*
G75*
G03*
X17063228Y-7700000I-150000J0D01*
G01*
X16781383Y-7796159D02*
X14938446Y-9786190D01*
X16910489Y-11482169D02*
X16960090Y-11529139D01*
D11*
X16600000Y-10055000D02*
X16650000Y-10105000D01*
X16650000Y-10055000D02*
X16600000Y-10105000D01*
D10*
X16545000Y-10105000D02*
X16705000Y-10105000D01*
X16705000Y-10105000D02*
G75*
G03*
X16705000Y-10055000I0J25000D01*
G01*
X16705000Y-10055000D02*
X16545000Y-10055000D01*
X16545000Y-10055000D02*
G75*
G03*
X16545000Y-10105000I0J-25000D01*
G01*
D11*
X16600000Y-10425000D02*
X16650000Y-10475000D01*
X16650000Y-10425000D02*
X16600000Y-10475000D01*
D10*
X16545000Y-10475000D02*
X16705000Y-10475000D01*
X16705000Y-10475000D02*
G75*
G03*
X16705000Y-10425000I0J25000D01*
G01*
X16705000Y-10425000D02*
X16545000Y-10425000D01*
X16545000Y-10425000D02*
G75*
G03*
X16545000Y-10475000I0J-25000D01*
G01*
D11*
X16600000Y-10855000D02*
X16650000Y-10905000D01*
X16650000Y-10855000D02*
X16600000Y-10905000D01*
D10*
X16545000Y-10905000D02*
X16705000Y-10905000D01*
X16705000Y-10905000D02*
G75*
G03*
X16705000Y-10855000I0J25000D01*
G01*
X16705000Y-10855000D02*
X16545000Y-10855000D01*
X16545000Y-10855000D02*
G75*
G03*
X16545000Y-10905000I0J-25000D01*
G01*
D11*
X16600000Y-11225000D02*
X16650000Y-11275000D01*
X16650000Y-11225000D02*
X16600000Y-11275000D01*
D10*
X16545000Y-11275000D02*
X16705000Y-11275000D01*
X16705000Y-11275000D02*
G75*
G03*
X16705000Y-11225000I0J25000D01*
G01*
X16705000Y-11225000D02*
X16545000Y-11225000D01*
X16545000Y-11225000D02*
G75*
G03*
X16545000Y-11275000I0J-25000D01*
G01*
D12*
X15871000Y-9202500D02*
G75*
G03*
X15871000Y-9202500I-50000J0D01*
G01*
X15975000Y-10772500D02*
G75*
G03*
X15975000Y-10772500I-50000J0D01*
G01*
X16050000Y-9746000D02*
G75*
G03*
X16050000Y-9746000I-50000J0D01*
G01*
X16050000Y-10000000D02*
G75*
G03*
X16050000Y-10000000I-50000J0D01*
G01*
X16050000Y-10254000D02*
G75*
G03*
X16050000Y-10254000I-50000J0D01*
G01*
X16125000Y-9202500D02*
G75*
G03*
X16125000Y-9202500I-50000J0D01*
G01*
X16229000Y-10772500D02*
G75*
G03*
X16229000Y-10772500I-50000J0D01*
G01*
X16871000Y-9275000D02*
G75*
G03*
X16871000Y-9275000I-50000J0D01*
G01*
X17125000Y-9275000D02*
G75*
G03*
X17125000Y-9275000I-50000J0D01*
G01*
D13*
X16475000Y-8345000D02*
X16475000Y-8485000D01*
X16405000Y-8415000D02*
X16545000Y-8415000D01*
X16475000Y-9615000D02*
X16475000Y-9755000D01*
X16405000Y-9685000D02*
X16545000Y-9685000D01*
D14*
X15440105Y-9834355D02*
X15440105Y-9714145D01*
X15319895Y-9714145D01*
X15319895Y-9834355D01*
X15440105Y-9834355D01*
X15440105Y-10230355D02*
X15440105Y-10110145D01*
X15319895Y-10110145D01*
X15319895Y-10230355D01*
X15440105Y-10230355D01*
D10*
X15096176Y-11892742D02*
X15096176Y-11692742D01*
X15096176Y-11692742D02*
X15143795Y-11692742D01*
X15143795Y-11692742D02*
X15172366Y-11702266D01*
X15172366Y-11702266D02*
X15191414Y-11721313D01*
X15191414Y-11721313D02*
X15200938Y-11740361D01*
X15200938Y-11740361D02*
X15210462Y-11778456D01*
X15210462Y-11778456D02*
X15210462Y-11807027D01*
X15210462Y-11807027D02*
X15200938Y-11845123D01*
X15200938Y-11845123D02*
X15191414Y-11864170D01*
X15191414Y-11864170D02*
X15172366Y-11883218D01*
X15172366Y-11883218D02*
X15143795Y-11892742D01*
X15143795Y-11892742D02*
X15096176Y-11892742D01*
X15296176Y-11892742D02*
X15296176Y-11759408D01*
X15296176Y-11797504D02*
X15305700Y-11778456D01*
X15305700Y-11778456D02*
X15315223Y-11768932D01*
X15315223Y-11768932D02*
X15334271Y-11759408D01*
X15334271Y-11759408D02*
X15353319Y-11759408D01*
X15419985Y-11892742D02*
X15419985Y-11759408D01*
X15419985Y-11692742D02*
X15410462Y-11702266D01*
X15410462Y-11702266D02*
X15419985Y-11711789D01*
X15419985Y-11711789D02*
X15429509Y-11702266D01*
X15429509Y-11702266D02*
X15419985Y-11692742D01*
X15419985Y-11692742D02*
X15419985Y-11711789D01*
X15543795Y-11892742D02*
X15524747Y-11883218D01*
X15524747Y-11883218D02*
X15515223Y-11864170D01*
X15515223Y-11864170D02*
X15515223Y-11692742D01*
X15648557Y-11892742D02*
X15629509Y-11883218D01*
X15629509Y-11883218D02*
X15619985Y-11864170D01*
X15619985Y-11864170D02*
X15619985Y-11692742D01*
X15877128Y-11892742D02*
X15877128Y-11692742D01*
X15877128Y-11692742D02*
X15943795Y-11835599D01*
X15943795Y-11835599D02*
X16010462Y-11692742D01*
X16010462Y-11692742D02*
X16010462Y-11892742D01*
X16191414Y-11892742D02*
X16191414Y-11787980D01*
X16191414Y-11787980D02*
X16181890Y-11768932D01*
X16181890Y-11768932D02*
X16162843Y-11759408D01*
X16162843Y-11759408D02*
X16124747Y-11759408D01*
X16124747Y-11759408D02*
X16105700Y-11768932D01*
X16191414Y-11883218D02*
X16172366Y-11892742D01*
X16172366Y-11892742D02*
X16124747Y-11892742D01*
X16124747Y-11892742D02*
X16105700Y-11883218D01*
X16105700Y-11883218D02*
X16096176Y-11864170D01*
X16096176Y-11864170D02*
X16096176Y-11845123D01*
X16096176Y-11845123D02*
X16105700Y-11826075D01*
X16105700Y-11826075D02*
X16124747Y-11816551D01*
X16124747Y-11816551D02*
X16172366Y-11816551D01*
X16172366Y-11816551D02*
X16191414Y-11807027D01*
X16286652Y-11759408D02*
X16286652Y-11959408D01*
X16286652Y-11768932D02*
X16305700Y-11759408D01*
X16305700Y-11759408D02*
X16343795Y-11759408D01*
X16343795Y-11759408D02*
X16362843Y-11768932D01*
X16362843Y-11768932D02*
X16372366Y-11778456D01*
X16372366Y-11778456D02*
X16381890Y-11797504D01*
X16381890Y-11797504D02*
X16381890Y-11854646D01*
X16381890Y-11854646D02*
X16372366Y-11873694D01*
X16372366Y-11873694D02*
X16362843Y-11883218D01*
X16362843Y-11883218D02*
X16343795Y-11892742D01*
X16343795Y-11892742D02*
X16305700Y-11892742D01*
X16305700Y-11892742D02*
X16286652Y-11883218D01*
X16467604Y-11873694D02*
X16477128Y-11883218D01*
X16477128Y-11883218D02*
X16467604Y-11892742D01*
X16467604Y-11892742D02*
X16458081Y-11883218D01*
X16458081Y-11883218D02*
X16467604Y-11873694D01*
X16467604Y-11873694D02*
X16467604Y-11892742D01*
X16467604Y-11768932D02*
X16477128Y-11778456D01*
X16477128Y-11778456D02*
X16467604Y-11787980D01*
X16467604Y-11787980D02*
X16458081Y-11778456D01*
X16458081Y-11778456D02*
X16467604Y-11768932D01*
X16467604Y-11768932D02*
X16467604Y-11787980D01*
D11*
X14798557Y-12195218D02*
X14848557Y-12245218D01*
X14848557Y-12195218D02*
X14798557Y-12245218D01*
D10*
X15134271Y-12112742D02*
X15153319Y-12112742D01*
X15153319Y-12112742D02*
X15172366Y-12122266D01*
X15172366Y-12122266D02*
X15181890Y-12131789D01*
X15181890Y-12131789D02*
X15191414Y-12150837D01*
X15191414Y-12150837D02*
X15200938Y-12188932D01*
X15200938Y-12188932D02*
X15200938Y-12236551D01*
X15200938Y-12236551D02*
X15191414Y-12274646D01*
X15191414Y-12274646D02*
X15181890Y-12293694D01*
X15181890Y-12293694D02*
X15172366Y-12303218D01*
X15172366Y-12303218D02*
X15153319Y-12312742D01*
X15153319Y-12312742D02*
X15134271Y-12312742D01*
X15134271Y-12312742D02*
X15115223Y-12303218D01*
X15115223Y-12303218D02*
X15105700Y-12293694D01*
X15105700Y-12293694D02*
X15096176Y-12274646D01*
X15096176Y-12274646D02*
X15086652Y-12236551D01*
X15086652Y-12236551D02*
X15086652Y-12188932D01*
X15086652Y-12188932D02*
X15096176Y-12150837D01*
X15096176Y-12150837D02*
X15105700Y-12131789D01*
X15105700Y-12131789D02*
X15115223Y-12122266D01*
X15115223Y-12122266D02*
X15134271Y-12112742D01*
X15286652Y-12293694D02*
X15296176Y-12303218D01*
X15296176Y-12303218D02*
X15286652Y-12312742D01*
X15286652Y-12312742D02*
X15277128Y-12303218D01*
X15277128Y-12303218D02*
X15286652Y-12293694D01*
X15286652Y-12293694D02*
X15286652Y-12312742D01*
X15477128Y-12112742D02*
X15381890Y-12112742D01*
X15381890Y-12112742D02*
X15372366Y-12207980D01*
X15372366Y-12207980D02*
X15381890Y-12198456D01*
X15381890Y-12198456D02*
X15400938Y-12188932D01*
X15400938Y-12188932D02*
X15448557Y-12188932D01*
X15448557Y-12188932D02*
X15467604Y-12198456D01*
X15467604Y-12198456D02*
X15477128Y-12207980D01*
X15477128Y-12207980D02*
X15486652Y-12227027D01*
X15486652Y-12227027D02*
X15486652Y-12274646D01*
X15486652Y-12274646D02*
X15477128Y-12293694D01*
X15477128Y-12293694D02*
X15467604Y-12303218D01*
X15467604Y-12303218D02*
X15448557Y-12312742D01*
X15448557Y-12312742D02*
X15400938Y-12312742D01*
X15400938Y-12312742D02*
X15381890Y-12303218D01*
X15381890Y-12303218D02*
X15372366Y-12293694D01*
X15610462Y-12112742D02*
X15629509Y-12112742D01*
X15629509Y-12112742D02*
X15648557Y-12122266D01*
X15648557Y-12122266D02*
X15658081Y-12131789D01*
X15658081Y-12131789D02*
X15667604Y-12150837D01*
X15667604Y-12150837D02*
X15677128Y-12188932D01*
X15677128Y-12188932D02*
X15677128Y-12236551D01*
X15677128Y-12236551D02*
X15667604Y-12274646D01*
X15667604Y-12274646D02*
X15658081Y-12293694D01*
X15658081Y-12293694D02*
X15648557Y-12303218D01*
X15648557Y-12303218D02*
X15629509Y-12312742D01*
X15629509Y-12312742D02*
X15610462Y-12312742D01*
X15610462Y-12312742D02*
X15591414Y-12303218D01*
X15591414Y-12303218D02*
X15581890Y-12293694D01*
X15581890Y-12293694D02*
X15572366Y-12274646D01*
X15572366Y-12274646D02*
X15562843Y-12236551D01*
X15562843Y-12236551D02*
X15562843Y-12188932D01*
X15562843Y-12188932D02*
X15572366Y-12150837D01*
X15572366Y-12150837D02*
X15581890Y-12131789D01*
X15581890Y-12131789D02*
X15591414Y-12122266D01*
X15591414Y-12122266D02*
X15610462Y-12112742D01*
X15800938Y-12112742D02*
X15819985Y-12112742D01*
X15819985Y-12112742D02*
X15839033Y-12122266D01*
X15839033Y-12122266D02*
X15848557Y-12131789D01*
X15848557Y-12131789D02*
X15858081Y-12150837D01*
X15858081Y-12150837D02*
X15867604Y-12188932D01*
X15867604Y-12188932D02*
X15867604Y-12236551D01*
X15867604Y-12236551D02*
X15858081Y-12274646D01*
X15858081Y-12274646D02*
X15848557Y-12293694D01*
X15848557Y-12293694D02*
X15839033Y-12303218D01*
X15839033Y-12303218D02*
X15819985Y-12312742D01*
X15819985Y-12312742D02*
X15800938Y-12312742D01*
X15800938Y-12312742D02*
X15781890Y-12303218D01*
X15781890Y-12303218D02*
X15772366Y-12293694D01*
X15772366Y-12293694D02*
X15762843Y-12274646D01*
X15762843Y-12274646D02*
X15753319Y-12236551D01*
X15753319Y-12236551D02*
X15753319Y-12188932D01*
X15753319Y-12188932D02*
X15762843Y-12150837D01*
X15762843Y-12150837D02*
X15772366Y-12131789D01*
X15772366Y-12131789D02*
X15781890Y-12122266D01*
X15781890Y-12122266D02*
X15800938Y-12112742D01*
X15953319Y-12312742D02*
X15953319Y-12179408D01*
X15953319Y-12198456D02*
X15962843Y-12188932D01*
X15962843Y-12188932D02*
X15981890Y-12179408D01*
X15981890Y-12179408D02*
X16010462Y-12179408D01*
X16010462Y-12179408D02*
X16029509Y-12188932D01*
X16029509Y-12188932D02*
X16039033Y-12207980D01*
X16039033Y-12207980D02*
X16039033Y-12312742D01*
X16039033Y-12207980D02*
X16048557Y-12188932D01*
X16048557Y-12188932D02*
X16067604Y-12179408D01*
X16067604Y-12179408D02*
X16096176Y-12179408D01*
X16096176Y-12179408D02*
X16115224Y-12188932D01*
X16115224Y-12188932D02*
X16124747Y-12207980D01*
X16124747Y-12207980D02*
X16124747Y-12312742D01*
X16219985Y-12312742D02*
X16219985Y-12179408D01*
X16219985Y-12198456D02*
X16229509Y-12188932D01*
X16229509Y-12188932D02*
X16248557Y-12179408D01*
X16248557Y-12179408D02*
X16277128Y-12179408D01*
X16277128Y-12179408D02*
X16296176Y-12188932D01*
X16296176Y-12188932D02*
X16305700Y-12207980D01*
X16305700Y-12207980D02*
X16305700Y-12312742D01*
X16305700Y-12207980D02*
X16315224Y-12188932D01*
X16315224Y-12188932D02*
X16334271Y-12179408D01*
X16334271Y-12179408D02*
X16362843Y-12179408D01*
X16362843Y-12179408D02*
X16381890Y-12188932D01*
X16381890Y-12188932D02*
X16391414Y-12207980D01*
X16391414Y-12207980D02*
X16391414Y-12312742D01*
X16781890Y-12103218D02*
X16610462Y-12360361D01*
X17039033Y-12112742D02*
X17058081Y-12112742D01*
X17058081Y-12112742D02*
X17077129Y-12122266D01*
X17077129Y-12122266D02*
X17086652Y-12131789D01*
X17086652Y-12131789D02*
X17096176Y-12150837D01*
X17096176Y-12150837D02*
X17105700Y-12188932D01*
X17105700Y-12188932D02*
X17105700Y-12236551D01*
X17105700Y-12236551D02*
X17096176Y-12274646D01*
X17096176Y-12274646D02*
X17086652Y-12293694D01*
X17086652Y-12293694D02*
X17077129Y-12303218D01*
X17077129Y-12303218D02*
X17058081Y-12312742D01*
X17058081Y-12312742D02*
X17039033Y-12312742D01*
X17039033Y-12312742D02*
X17019986Y-12303218D01*
X17019986Y-12303218D02*
X17010462Y-12293694D01*
X17010462Y-12293694D02*
X17000938Y-12274646D01*
X17000938Y-12274646D02*
X16991414Y-12236551D01*
X16991414Y-12236551D02*
X16991414Y-12188932D01*
X16991414Y-12188932D02*
X17000938Y-12150837D01*
X17000938Y-12150837D02*
X17010462Y-12131789D01*
X17010462Y-12131789D02*
X17019986Y-12122266D01*
X17019986Y-12122266D02*
X17039033Y-12112742D01*
X17191414Y-12293694D02*
X17200938Y-12303218D01*
X17200938Y-12303218D02*
X17191414Y-12312742D01*
X17191414Y-12312742D02*
X17181890Y-12303218D01*
X17181890Y-12303218D02*
X17191414Y-12293694D01*
X17191414Y-12293694D02*
X17191414Y-12312742D01*
X17324748Y-12112742D02*
X17343795Y-12112742D01*
X17343795Y-12112742D02*
X17362843Y-12122266D01*
X17362843Y-12122266D02*
X17372367Y-12131789D01*
X17372367Y-12131789D02*
X17381890Y-12150837D01*
X17381890Y-12150837D02*
X17391414Y-12188932D01*
X17391414Y-12188932D02*
X17391414Y-12236551D01*
X17391414Y-12236551D02*
X17381890Y-12274646D01*
X17381890Y-12274646D02*
X17372367Y-12293694D01*
X17372367Y-12293694D02*
X17362843Y-12303218D01*
X17362843Y-12303218D02*
X17343795Y-12312742D01*
X17343795Y-12312742D02*
X17324748Y-12312742D01*
X17324748Y-12312742D02*
X17305700Y-12303218D01*
X17305700Y-12303218D02*
X17296176Y-12293694D01*
X17296176Y-12293694D02*
X17286652Y-12274646D01*
X17286652Y-12274646D02*
X17277129Y-12236551D01*
X17277129Y-12236551D02*
X17277129Y-12188932D01*
X17277129Y-12188932D02*
X17286652Y-12150837D01*
X17286652Y-12150837D02*
X17296176Y-12131789D01*
X17296176Y-12131789D02*
X17305700Y-12122266D01*
X17305700Y-12122266D02*
X17324748Y-12112742D01*
X17581890Y-12312742D02*
X17467605Y-12312742D01*
X17524748Y-12312742D02*
X17524748Y-12112742D01*
X17524748Y-12112742D02*
X17505700Y-12141313D01*
X17505700Y-12141313D02*
X17486652Y-12160361D01*
X17486652Y-12160361D02*
X17467605Y-12169885D01*
X17677129Y-12312742D02*
X17715224Y-12312742D01*
X17715224Y-12312742D02*
X17734271Y-12303218D01*
X17734271Y-12303218D02*
X17743795Y-12293694D01*
X17743795Y-12293694D02*
X17762843Y-12265123D01*
X17762843Y-12265123D02*
X17772367Y-12227027D01*
X17772367Y-12227027D02*
X17772367Y-12150837D01*
X17772367Y-12150837D02*
X17762843Y-12131789D01*
X17762843Y-12131789D02*
X17753319Y-12122266D01*
X17753319Y-12122266D02*
X17734271Y-12112742D01*
X17734271Y-12112742D02*
X17696176Y-12112742D01*
X17696176Y-12112742D02*
X17677129Y-12122266D01*
X17677129Y-12122266D02*
X17667605Y-12131789D01*
X17667605Y-12131789D02*
X17658081Y-12150837D01*
X17658081Y-12150837D02*
X17658081Y-12198456D01*
X17658081Y-12198456D02*
X17667605Y-12217504D01*
X17667605Y-12217504D02*
X17677129Y-12227027D01*
X17677129Y-12227027D02*
X17696176Y-12236551D01*
X17696176Y-12236551D02*
X17734271Y-12236551D01*
X17734271Y-12236551D02*
X17753319Y-12227027D01*
X17753319Y-12227027D02*
X17762843Y-12217504D01*
X17762843Y-12217504D02*
X17772367Y-12198456D01*
X17839033Y-12112742D02*
X17972367Y-12112742D01*
X17972367Y-12112742D02*
X17886652Y-12312742D01*
X18039033Y-12112742D02*
X18039033Y-12150837D01*
X18115224Y-12112742D02*
X18115224Y-12150837D01*
X18410462Y-12388932D02*
X18400938Y-12379408D01*
X18400938Y-12379408D02*
X18381891Y-12350837D01*
X18381891Y-12350837D02*
X18372367Y-12331789D01*
X18372367Y-12331789D02*
X18362843Y-12303218D01*
X18362843Y-12303218D02*
X18353319Y-12255599D01*
X18353319Y-12255599D02*
X18353319Y-12217504D01*
X18353319Y-12217504D02*
X18362843Y-12169885D01*
X18362843Y-12169885D02*
X18372367Y-12141313D01*
X18372367Y-12141313D02*
X18381891Y-12122266D01*
X18381891Y-12122266D02*
X18400938Y-12093694D01*
X18400938Y-12093694D02*
X18410462Y-12084170D01*
X18524748Y-12112742D02*
X18543795Y-12112742D01*
X18543795Y-12112742D02*
X18562843Y-12122266D01*
X18562843Y-12122266D02*
X18572367Y-12131789D01*
X18572367Y-12131789D02*
X18581891Y-12150837D01*
X18581891Y-12150837D02*
X18591414Y-12188932D01*
X18591414Y-12188932D02*
X18591414Y-12236551D01*
X18591414Y-12236551D02*
X18581891Y-12274646D01*
X18581891Y-12274646D02*
X18572367Y-12293694D01*
X18572367Y-12293694D02*
X18562843Y-12303218D01*
X18562843Y-12303218D02*
X18543795Y-12312742D01*
X18543795Y-12312742D02*
X18524748Y-12312742D01*
X18524748Y-12312742D02*
X18505700Y-12303218D01*
X18505700Y-12303218D02*
X18496176Y-12293694D01*
X18496176Y-12293694D02*
X18486652Y-12274646D01*
X18486652Y-12274646D02*
X18477129Y-12236551D01*
X18477129Y-12236551D02*
X18477129Y-12188932D01*
X18477129Y-12188932D02*
X18486652Y-12150837D01*
X18486652Y-12150837D02*
X18496176Y-12131789D01*
X18496176Y-12131789D02*
X18505700Y-12122266D01*
X18505700Y-12122266D02*
X18524748Y-12112742D01*
X18829510Y-12312742D02*
X18829510Y-12112742D01*
X18915224Y-12312742D02*
X18915224Y-12207980D01*
X18915224Y-12207980D02*
X18905700Y-12188932D01*
X18905700Y-12188932D02*
X18886653Y-12179408D01*
X18886653Y-12179408D02*
X18858081Y-12179408D01*
X18858081Y-12179408D02*
X18839033Y-12188932D01*
X18839033Y-12188932D02*
X18829510Y-12198456D01*
X19039033Y-12312742D02*
X19019986Y-12303218D01*
X19019986Y-12303218D02*
X19010462Y-12293694D01*
X19010462Y-12293694D02*
X19000938Y-12274646D01*
X19000938Y-12274646D02*
X19000938Y-12217504D01*
X19000938Y-12217504D02*
X19010462Y-12198456D01*
X19010462Y-12198456D02*
X19019986Y-12188932D01*
X19019986Y-12188932D02*
X19039033Y-12179408D01*
X19039033Y-12179408D02*
X19067605Y-12179408D01*
X19067605Y-12179408D02*
X19086653Y-12188932D01*
X19086653Y-12188932D02*
X19096176Y-12198456D01*
X19096176Y-12198456D02*
X19105700Y-12217504D01*
X19105700Y-12217504D02*
X19105700Y-12274646D01*
X19105700Y-12274646D02*
X19096176Y-12293694D01*
X19096176Y-12293694D02*
X19086653Y-12303218D01*
X19086653Y-12303218D02*
X19067605Y-12312742D01*
X19067605Y-12312742D02*
X19039033Y-12312742D01*
X19219986Y-12312742D02*
X19200938Y-12303218D01*
X19200938Y-12303218D02*
X19191414Y-12284170D01*
X19191414Y-12284170D02*
X19191414Y-12112742D01*
X19372367Y-12303218D02*
X19353319Y-12312742D01*
X19353319Y-12312742D02*
X19315224Y-12312742D01*
X19315224Y-12312742D02*
X19296176Y-12303218D01*
X19296176Y-12303218D02*
X19286653Y-12284170D01*
X19286653Y-12284170D02*
X19286653Y-12207980D01*
X19286653Y-12207980D02*
X19296176Y-12188932D01*
X19296176Y-12188932D02*
X19315224Y-12179408D01*
X19315224Y-12179408D02*
X19353319Y-12179408D01*
X19353319Y-12179408D02*
X19372367Y-12188932D01*
X19372367Y-12188932D02*
X19381891Y-12207980D01*
X19381891Y-12207980D02*
X19381891Y-12227027D01*
X19381891Y-12227027D02*
X19286653Y-12246075D01*
X19458081Y-12303218D02*
X19477129Y-12312742D01*
X19477129Y-12312742D02*
X19515224Y-12312742D01*
X19515224Y-12312742D02*
X19534272Y-12303218D01*
X19534272Y-12303218D02*
X19543795Y-12284170D01*
X19543795Y-12284170D02*
X19543795Y-12274646D01*
X19543795Y-12274646D02*
X19534272Y-12255599D01*
X19534272Y-12255599D02*
X19515224Y-12246075D01*
X19515224Y-12246075D02*
X19486653Y-12246075D01*
X19486653Y-12246075D02*
X19467605Y-12236551D01*
X19467605Y-12236551D02*
X19458081Y-12217504D01*
X19458081Y-12217504D02*
X19458081Y-12207980D01*
X19458081Y-12207980D02*
X19467605Y-12188932D01*
X19467605Y-12188932D02*
X19486653Y-12179408D01*
X19486653Y-12179408D02*
X19515224Y-12179408D01*
X19515224Y-12179408D02*
X19534272Y-12188932D01*
X19781891Y-12236551D02*
X19934272Y-12236551D01*
X19858081Y-12312742D02*
X19858081Y-12160361D01*
X20267605Y-12179408D02*
X20267605Y-12312742D01*
X20219986Y-12103218D02*
X20172367Y-12246075D01*
X20172367Y-12246075D02*
X20296176Y-12246075D01*
X20515224Y-12303218D02*
X20534272Y-12312742D01*
X20534272Y-12312742D02*
X20572367Y-12312742D01*
X20572367Y-12312742D02*
X20591415Y-12303218D01*
X20591415Y-12303218D02*
X20600938Y-12284170D01*
X20600938Y-12284170D02*
X20600938Y-12274646D01*
X20600938Y-12274646D02*
X20591415Y-12255599D01*
X20591415Y-12255599D02*
X20572367Y-12246075D01*
X20572367Y-12246075D02*
X20543796Y-12246075D01*
X20543796Y-12246075D02*
X20524748Y-12236551D01*
X20524748Y-12236551D02*
X20515224Y-12217504D01*
X20515224Y-12217504D02*
X20515224Y-12207980D01*
X20515224Y-12207980D02*
X20524748Y-12188932D01*
X20524748Y-12188932D02*
X20543796Y-12179408D01*
X20543796Y-12179408D02*
X20572367Y-12179408D01*
X20572367Y-12179408D02*
X20591415Y-12188932D01*
X20715224Y-12312742D02*
X20696177Y-12303218D01*
X20696177Y-12303218D02*
X20686653Y-12284170D01*
X20686653Y-12284170D02*
X20686653Y-12112742D01*
X20819986Y-12312742D02*
X20800938Y-12303218D01*
X20800938Y-12303218D02*
X20791415Y-12293694D01*
X20791415Y-12293694D02*
X20781891Y-12274646D01*
X20781891Y-12274646D02*
X20781891Y-12217504D01*
X20781891Y-12217504D02*
X20791415Y-12198456D01*
X20791415Y-12198456D02*
X20800938Y-12188932D01*
X20800938Y-12188932D02*
X20819986Y-12179408D01*
X20819986Y-12179408D02*
X20848558Y-12179408D01*
X20848558Y-12179408D02*
X20867605Y-12188932D01*
X20867605Y-12188932D02*
X20877129Y-12198456D01*
X20877129Y-12198456D02*
X20886653Y-12217504D01*
X20886653Y-12217504D02*
X20886653Y-12274646D01*
X20886653Y-12274646D02*
X20877129Y-12293694D01*
X20877129Y-12293694D02*
X20867605Y-12303218D01*
X20867605Y-12303218D02*
X20848558Y-12312742D01*
X20848558Y-12312742D02*
X20819986Y-12312742D01*
X20943796Y-12179408D02*
X21019986Y-12179408D01*
X20972367Y-12112742D02*
X20972367Y-12284170D01*
X20972367Y-12284170D02*
X20981891Y-12303218D01*
X20981891Y-12303218D02*
X21000938Y-12312742D01*
X21000938Y-12312742D02*
X21019986Y-12312742D01*
X21077129Y-12303218D02*
X21096177Y-12312742D01*
X21096177Y-12312742D02*
X21134272Y-12312742D01*
X21134272Y-12312742D02*
X21153319Y-12303218D01*
X21153319Y-12303218D02*
X21162843Y-12284170D01*
X21162843Y-12284170D02*
X21162843Y-12274646D01*
X21162843Y-12274646D02*
X21153319Y-12255599D01*
X21153319Y-12255599D02*
X21134272Y-12246075D01*
X21134272Y-12246075D02*
X21105700Y-12246075D01*
X21105700Y-12246075D02*
X21086653Y-12236551D01*
X21086653Y-12236551D02*
X21077129Y-12217504D01*
X21077129Y-12217504D02*
X21077129Y-12207980D01*
X21077129Y-12207980D02*
X21086653Y-12188932D01*
X21086653Y-12188932D02*
X21105700Y-12179408D01*
X21105700Y-12179408D02*
X21134272Y-12179408D01*
X21134272Y-12179408D02*
X21153319Y-12188932D01*
X21229510Y-12388932D02*
X21239034Y-12379408D01*
X21239034Y-12379408D02*
X21258081Y-12350837D01*
X21258081Y-12350837D02*
X21267605Y-12331789D01*
X21267605Y-12331789D02*
X21277129Y-12303218D01*
X21277129Y-12303218D02*
X21286653Y-12255599D01*
X21286653Y-12255599D02*
X21286653Y-12217504D01*
X21286653Y-12217504D02*
X21277129Y-12169885D01*
X21277129Y-12169885D02*
X21267605Y-12141313D01*
X21267605Y-12141313D02*
X21258081Y-12122266D01*
X21258081Y-12122266D02*
X21239034Y-12093694D01*
X21239034Y-12093694D02*
X21229510Y-12084170D01*
D12*
X14848557Y-12484218D02*
G75*
G03*
X14848557Y-12484218I-50000J0D01*
G01*
D10*
X15200938Y-12576742D02*
X15086652Y-12576742D01*
X15143795Y-12576742D02*
X15143795Y-12376742D01*
X15143795Y-12376742D02*
X15124747Y-12405313D01*
X15124747Y-12405313D02*
X15105700Y-12424361D01*
X15105700Y-12424361D02*
X15086652Y-12433885D01*
X15286652Y-12557694D02*
X15296176Y-12567218D01*
X15296176Y-12567218D02*
X15286652Y-12576742D01*
X15286652Y-12576742D02*
X15277128Y-12567218D01*
X15277128Y-12567218D02*
X15286652Y-12557694D01*
X15286652Y-12557694D02*
X15286652Y-12576742D01*
X15419985Y-12376742D02*
X15439033Y-12376742D01*
X15439033Y-12376742D02*
X15458081Y-12386266D01*
X15458081Y-12386266D02*
X15467604Y-12395789D01*
X15467604Y-12395789D02*
X15477128Y-12414837D01*
X15477128Y-12414837D02*
X15486652Y-12452932D01*
X15486652Y-12452932D02*
X15486652Y-12500551D01*
X15486652Y-12500551D02*
X15477128Y-12538646D01*
X15477128Y-12538646D02*
X15467604Y-12557694D01*
X15467604Y-12557694D02*
X15458081Y-12567218D01*
X15458081Y-12567218D02*
X15439033Y-12576742D01*
X15439033Y-12576742D02*
X15419985Y-12576742D01*
X15419985Y-12576742D02*
X15400938Y-12567218D01*
X15400938Y-12567218D02*
X15391414Y-12557694D01*
X15391414Y-12557694D02*
X15381890Y-12538646D01*
X15381890Y-12538646D02*
X15372366Y-12500551D01*
X15372366Y-12500551D02*
X15372366Y-12452932D01*
X15372366Y-12452932D02*
X15381890Y-12414837D01*
X15381890Y-12414837D02*
X15391414Y-12395789D01*
X15391414Y-12395789D02*
X15400938Y-12386266D01*
X15400938Y-12386266D02*
X15419985Y-12376742D01*
X15610462Y-12376742D02*
X15629509Y-12376742D01*
X15629509Y-12376742D02*
X15648557Y-12386266D01*
X15648557Y-12386266D02*
X15658081Y-12395789D01*
X15658081Y-12395789D02*
X15667604Y-12414837D01*
X15667604Y-12414837D02*
X15677128Y-12452932D01*
X15677128Y-12452932D02*
X15677128Y-12500551D01*
X15677128Y-12500551D02*
X15667604Y-12538646D01*
X15667604Y-12538646D02*
X15658081Y-12557694D01*
X15658081Y-12557694D02*
X15648557Y-12567218D01*
X15648557Y-12567218D02*
X15629509Y-12576742D01*
X15629509Y-12576742D02*
X15610462Y-12576742D01*
X15610462Y-12576742D02*
X15591414Y-12567218D01*
X15591414Y-12567218D02*
X15581890Y-12557694D01*
X15581890Y-12557694D02*
X15572366Y-12538646D01*
X15572366Y-12538646D02*
X15562843Y-12500551D01*
X15562843Y-12500551D02*
X15562843Y-12452932D01*
X15562843Y-12452932D02*
X15572366Y-12414837D01*
X15572366Y-12414837D02*
X15581890Y-12395789D01*
X15581890Y-12395789D02*
X15591414Y-12386266D01*
X15591414Y-12386266D02*
X15610462Y-12376742D01*
X15800938Y-12376742D02*
X15819985Y-12376742D01*
X15819985Y-12376742D02*
X15839033Y-12386266D01*
X15839033Y-12386266D02*
X15848557Y-12395789D01*
X15848557Y-12395789D02*
X15858081Y-12414837D01*
X15858081Y-12414837D02*
X15867604Y-12452932D01*
X15867604Y-12452932D02*
X15867604Y-12500551D01*
X15867604Y-12500551D02*
X15858081Y-12538646D01*
X15858081Y-12538646D02*
X15848557Y-12557694D01*
X15848557Y-12557694D02*
X15839033Y-12567218D01*
X15839033Y-12567218D02*
X15819985Y-12576742D01*
X15819985Y-12576742D02*
X15800938Y-12576742D01*
X15800938Y-12576742D02*
X15781890Y-12567218D01*
X15781890Y-12567218D02*
X15772366Y-12557694D01*
X15772366Y-12557694D02*
X15762843Y-12538646D01*
X15762843Y-12538646D02*
X15753319Y-12500551D01*
X15753319Y-12500551D02*
X15753319Y-12452932D01*
X15753319Y-12452932D02*
X15762843Y-12414837D01*
X15762843Y-12414837D02*
X15772366Y-12395789D01*
X15772366Y-12395789D02*
X15781890Y-12386266D01*
X15781890Y-12386266D02*
X15800938Y-12376742D01*
X15953319Y-12576742D02*
X15953319Y-12443408D01*
X15953319Y-12462456D02*
X15962843Y-12452932D01*
X15962843Y-12452932D02*
X15981890Y-12443408D01*
X15981890Y-12443408D02*
X16010462Y-12443408D01*
X16010462Y-12443408D02*
X16029509Y-12452932D01*
X16029509Y-12452932D02*
X16039033Y-12471980D01*
X16039033Y-12471980D02*
X16039033Y-12576742D01*
X16039033Y-12471980D02*
X16048557Y-12452932D01*
X16048557Y-12452932D02*
X16067604Y-12443408D01*
X16067604Y-12443408D02*
X16096176Y-12443408D01*
X16096176Y-12443408D02*
X16115224Y-12452932D01*
X16115224Y-12452932D02*
X16124747Y-12471980D01*
X16124747Y-12471980D02*
X16124747Y-12576742D01*
X16219985Y-12576742D02*
X16219985Y-12443408D01*
X16219985Y-12462456D02*
X16229509Y-12452932D01*
X16229509Y-12452932D02*
X16248557Y-12443408D01*
X16248557Y-12443408D02*
X16277128Y-12443408D01*
X16277128Y-12443408D02*
X16296176Y-12452932D01*
X16296176Y-12452932D02*
X16305700Y-12471980D01*
X16305700Y-12471980D02*
X16305700Y-12576742D01*
X16305700Y-12471980D02*
X16315224Y-12452932D01*
X16315224Y-12452932D02*
X16334271Y-12443408D01*
X16334271Y-12443408D02*
X16362843Y-12443408D01*
X16362843Y-12443408D02*
X16381890Y-12452932D01*
X16381890Y-12452932D02*
X16391414Y-12471980D01*
X16391414Y-12471980D02*
X16391414Y-12576742D01*
X16781890Y-12367218D02*
X16610462Y-12624361D01*
X17039033Y-12376742D02*
X17058081Y-12376742D01*
X17058081Y-12376742D02*
X17077129Y-12386266D01*
X17077129Y-12386266D02*
X17086652Y-12395789D01*
X17086652Y-12395789D02*
X17096176Y-12414837D01*
X17096176Y-12414837D02*
X17105700Y-12452932D01*
X17105700Y-12452932D02*
X17105700Y-12500551D01*
X17105700Y-12500551D02*
X17096176Y-12538646D01*
X17096176Y-12538646D02*
X17086652Y-12557694D01*
X17086652Y-12557694D02*
X17077129Y-12567218D01*
X17077129Y-12567218D02*
X17058081Y-12576742D01*
X17058081Y-12576742D02*
X17039033Y-12576742D01*
X17039033Y-12576742D02*
X17019986Y-12567218D01*
X17019986Y-12567218D02*
X17010462Y-12557694D01*
X17010462Y-12557694D02*
X17000938Y-12538646D01*
X17000938Y-12538646D02*
X16991414Y-12500551D01*
X16991414Y-12500551D02*
X16991414Y-12452932D01*
X16991414Y-12452932D02*
X17000938Y-12414837D01*
X17000938Y-12414837D02*
X17010462Y-12395789D01*
X17010462Y-12395789D02*
X17019986Y-12386266D01*
X17019986Y-12386266D02*
X17039033Y-12376742D01*
X17191414Y-12557694D02*
X17200938Y-12567218D01*
X17200938Y-12567218D02*
X17191414Y-12576742D01*
X17191414Y-12576742D02*
X17181890Y-12567218D01*
X17181890Y-12567218D02*
X17191414Y-12557694D01*
X17191414Y-12557694D02*
X17191414Y-12576742D01*
X17324748Y-12376742D02*
X17343795Y-12376742D01*
X17343795Y-12376742D02*
X17362843Y-12386266D01*
X17362843Y-12386266D02*
X17372367Y-12395789D01*
X17372367Y-12395789D02*
X17381890Y-12414837D01*
X17381890Y-12414837D02*
X17391414Y-12452932D01*
X17391414Y-12452932D02*
X17391414Y-12500551D01*
X17391414Y-12500551D02*
X17381890Y-12538646D01*
X17381890Y-12538646D02*
X17372367Y-12557694D01*
X17372367Y-12557694D02*
X17362843Y-12567218D01*
X17362843Y-12567218D02*
X17343795Y-12576742D01*
X17343795Y-12576742D02*
X17324748Y-12576742D01*
X17324748Y-12576742D02*
X17305700Y-12567218D01*
X17305700Y-12567218D02*
X17296176Y-12557694D01*
X17296176Y-12557694D02*
X17286652Y-12538646D01*
X17286652Y-12538646D02*
X17277129Y-12500551D01*
X17277129Y-12500551D02*
X17277129Y-12452932D01*
X17277129Y-12452932D02*
X17286652Y-12414837D01*
X17286652Y-12414837D02*
X17296176Y-12395789D01*
X17296176Y-12395789D02*
X17305700Y-12386266D01*
X17305700Y-12386266D02*
X17324748Y-12376742D01*
X17458081Y-12376742D02*
X17581890Y-12376742D01*
X17581890Y-12376742D02*
X17515224Y-12452932D01*
X17515224Y-12452932D02*
X17543795Y-12452932D01*
X17543795Y-12452932D02*
X17562843Y-12462456D01*
X17562843Y-12462456D02*
X17572367Y-12471980D01*
X17572367Y-12471980D02*
X17581890Y-12491027D01*
X17581890Y-12491027D02*
X17581890Y-12538646D01*
X17581890Y-12538646D02*
X17572367Y-12557694D01*
X17572367Y-12557694D02*
X17562843Y-12567218D01*
X17562843Y-12567218D02*
X17543795Y-12576742D01*
X17543795Y-12576742D02*
X17486652Y-12576742D01*
X17486652Y-12576742D02*
X17467605Y-12567218D01*
X17467605Y-12567218D02*
X17458081Y-12557694D01*
X17677129Y-12576742D02*
X17715224Y-12576742D01*
X17715224Y-12576742D02*
X17734271Y-12567218D01*
X17734271Y-12567218D02*
X17743795Y-12557694D01*
X17743795Y-12557694D02*
X17762843Y-12529123D01*
X17762843Y-12529123D02*
X17772367Y-12491027D01*
X17772367Y-12491027D02*
X17772367Y-12414837D01*
X17772367Y-12414837D02*
X17762843Y-12395789D01*
X17762843Y-12395789D02*
X17753319Y-12386266D01*
X17753319Y-12386266D02*
X17734271Y-12376742D01*
X17734271Y-12376742D02*
X17696176Y-12376742D01*
X17696176Y-12376742D02*
X17677129Y-12386266D01*
X17677129Y-12386266D02*
X17667605Y-12395789D01*
X17667605Y-12395789D02*
X17658081Y-12414837D01*
X17658081Y-12414837D02*
X17658081Y-12462456D01*
X17658081Y-12462456D02*
X17667605Y-12481504D01*
X17667605Y-12481504D02*
X17677129Y-12491027D01*
X17677129Y-12491027D02*
X17696176Y-12500551D01*
X17696176Y-12500551D02*
X17734271Y-12500551D01*
X17734271Y-12500551D02*
X17753319Y-12491027D01*
X17753319Y-12491027D02*
X17762843Y-12481504D01*
X17762843Y-12481504D02*
X17772367Y-12462456D01*
X17943795Y-12443408D02*
X17943795Y-12576742D01*
X17896176Y-12367218D02*
X17848557Y-12510075D01*
X17848557Y-12510075D02*
X17972367Y-12510075D01*
X18039033Y-12376742D02*
X18039033Y-12414837D01*
X18115224Y-12376742D02*
X18115224Y-12414837D01*
X18410462Y-12652932D02*
X18400938Y-12643408D01*
X18400938Y-12643408D02*
X18381891Y-12614837D01*
X18381891Y-12614837D02*
X18372367Y-12595789D01*
X18372367Y-12595789D02*
X18362843Y-12567218D01*
X18362843Y-12567218D02*
X18353319Y-12519599D01*
X18353319Y-12519599D02*
X18353319Y-12481504D01*
X18353319Y-12481504D02*
X18362843Y-12433885D01*
X18362843Y-12433885D02*
X18372367Y-12405313D01*
X18372367Y-12405313D02*
X18381891Y-12386266D01*
X18381891Y-12386266D02*
X18400938Y-12357694D01*
X18400938Y-12357694D02*
X18410462Y-12348170D01*
X18496176Y-12576742D02*
X18534271Y-12576742D01*
X18534271Y-12576742D02*
X18553319Y-12567218D01*
X18553319Y-12567218D02*
X18562843Y-12557694D01*
X18562843Y-12557694D02*
X18581891Y-12529123D01*
X18581891Y-12529123D02*
X18591414Y-12491027D01*
X18591414Y-12491027D02*
X18591414Y-12414837D01*
X18591414Y-12414837D02*
X18581891Y-12395789D01*
X18581891Y-12395789D02*
X18572367Y-12386266D01*
X18572367Y-12386266D02*
X18553319Y-12376742D01*
X18553319Y-12376742D02*
X18515224Y-12376742D01*
X18515224Y-12376742D02*
X18496176Y-12386266D01*
X18496176Y-12386266D02*
X18486652Y-12395789D01*
X18486652Y-12395789D02*
X18477129Y-12414837D01*
X18477129Y-12414837D02*
X18477129Y-12462456D01*
X18477129Y-12462456D02*
X18486652Y-12481504D01*
X18486652Y-12481504D02*
X18496176Y-12491027D01*
X18496176Y-12491027D02*
X18515224Y-12500551D01*
X18515224Y-12500551D02*
X18553319Y-12500551D01*
X18553319Y-12500551D02*
X18572367Y-12491027D01*
X18572367Y-12491027D02*
X18581891Y-12481504D01*
X18581891Y-12481504D02*
X18591414Y-12462456D01*
X18829510Y-12576742D02*
X18829510Y-12376742D01*
X18915224Y-12576742D02*
X18915224Y-12471980D01*
X18915224Y-12471980D02*
X18905700Y-12452932D01*
X18905700Y-12452932D02*
X18886653Y-12443408D01*
X18886653Y-12443408D02*
X18858081Y-12443408D01*
X18858081Y-12443408D02*
X18839033Y-12452932D01*
X18839033Y-12452932D02*
X18829510Y-12462456D01*
X19039033Y-12576742D02*
X19019986Y-12567218D01*
X19019986Y-12567218D02*
X19010462Y-12557694D01*
X19010462Y-12557694D02*
X19000938Y-12538646D01*
X19000938Y-12538646D02*
X19000938Y-12481504D01*
X19000938Y-12481504D02*
X19010462Y-12462456D01*
X19010462Y-12462456D02*
X19019986Y-12452932D01*
X19019986Y-12452932D02*
X19039033Y-12443408D01*
X19039033Y-12443408D02*
X19067605Y-12443408D01*
X19067605Y-12443408D02*
X19086653Y-12452932D01*
X19086653Y-12452932D02*
X19096176Y-12462456D01*
X19096176Y-12462456D02*
X19105700Y-12481504D01*
X19105700Y-12481504D02*
X19105700Y-12538646D01*
X19105700Y-12538646D02*
X19096176Y-12557694D01*
X19096176Y-12557694D02*
X19086653Y-12567218D01*
X19086653Y-12567218D02*
X19067605Y-12576742D01*
X19067605Y-12576742D02*
X19039033Y-12576742D01*
X19219986Y-12576742D02*
X19200938Y-12567218D01*
X19200938Y-12567218D02*
X19191414Y-12548170D01*
X19191414Y-12548170D02*
X19191414Y-12376742D01*
X19372367Y-12567218D02*
X19353319Y-12576742D01*
X19353319Y-12576742D02*
X19315224Y-12576742D01*
X19315224Y-12576742D02*
X19296176Y-12567218D01*
X19296176Y-12567218D02*
X19286653Y-12548170D01*
X19286653Y-12548170D02*
X19286653Y-12471980D01*
X19286653Y-12471980D02*
X19296176Y-12452932D01*
X19296176Y-12452932D02*
X19315224Y-12443408D01*
X19315224Y-12443408D02*
X19353319Y-12443408D01*
X19353319Y-12443408D02*
X19372367Y-12452932D01*
X19372367Y-12452932D02*
X19381891Y-12471980D01*
X19381891Y-12471980D02*
X19381891Y-12491027D01*
X19381891Y-12491027D02*
X19286653Y-12510075D01*
X19458081Y-12567218D02*
X19477129Y-12576742D01*
X19477129Y-12576742D02*
X19515224Y-12576742D01*
X19515224Y-12576742D02*
X19534272Y-12567218D01*
X19534272Y-12567218D02*
X19543795Y-12548170D01*
X19543795Y-12548170D02*
X19543795Y-12538646D01*
X19543795Y-12538646D02*
X19534272Y-12519599D01*
X19534272Y-12519599D02*
X19515224Y-12510075D01*
X19515224Y-12510075D02*
X19486653Y-12510075D01*
X19486653Y-12510075D02*
X19467605Y-12500551D01*
X19467605Y-12500551D02*
X19458081Y-12481504D01*
X19458081Y-12481504D02*
X19458081Y-12471980D01*
X19458081Y-12471980D02*
X19467605Y-12452932D01*
X19467605Y-12452932D02*
X19486653Y-12443408D01*
X19486653Y-12443408D02*
X19515224Y-12443408D01*
X19515224Y-12443408D02*
X19534272Y-12452932D01*
X19610462Y-12652932D02*
X19619986Y-12643408D01*
X19619986Y-12643408D02*
X19639034Y-12614837D01*
X19639034Y-12614837D02*
X19648557Y-12595789D01*
X19648557Y-12595789D02*
X19658081Y-12567218D01*
X19658081Y-12567218D02*
X19667605Y-12519599D01*
X19667605Y-12519599D02*
X19667605Y-12481504D01*
X19667605Y-12481504D02*
X19658081Y-12433885D01*
X19658081Y-12433885D02*
X19648557Y-12405313D01*
X19648557Y-12405313D02*
X19639034Y-12386266D01*
X19639034Y-12386266D02*
X19619986Y-12357694D01*
X19619986Y-12357694D02*
X19610462Y-12348170D01*
D13*
X14778557Y-12678218D02*
X14778557Y-12818218D01*
X14708557Y-12748218D02*
X14848557Y-12748218D01*
D10*
X15200938Y-12840742D02*
X15086652Y-12840742D01*
X15143795Y-12840742D02*
X15143795Y-12640742D01*
X15143795Y-12640742D02*
X15124747Y-12669313D01*
X15124747Y-12669313D02*
X15105700Y-12688361D01*
X15105700Y-12688361D02*
X15086652Y-12697885D01*
X15286652Y-12821694D02*
X15296176Y-12831218D01*
X15296176Y-12831218D02*
X15286652Y-12840742D01*
X15286652Y-12840742D02*
X15277128Y-12831218D01*
X15277128Y-12831218D02*
X15286652Y-12821694D01*
X15286652Y-12821694D02*
X15286652Y-12840742D01*
X15467604Y-12707408D02*
X15467604Y-12840742D01*
X15419985Y-12631218D02*
X15372366Y-12774075D01*
X15372366Y-12774075D02*
X15496176Y-12774075D01*
X15610462Y-12640742D02*
X15629509Y-12640742D01*
X15629509Y-12640742D02*
X15648557Y-12650266D01*
X15648557Y-12650266D02*
X15658081Y-12659789D01*
X15658081Y-12659789D02*
X15667604Y-12678837D01*
X15667604Y-12678837D02*
X15677128Y-12716932D01*
X15677128Y-12716932D02*
X15677128Y-12764551D01*
X15677128Y-12764551D02*
X15667604Y-12802646D01*
X15667604Y-12802646D02*
X15658081Y-12821694D01*
X15658081Y-12821694D02*
X15648557Y-12831218D01*
X15648557Y-12831218D02*
X15629509Y-12840742D01*
X15629509Y-12840742D02*
X15610462Y-12840742D01*
X15610462Y-12840742D02*
X15591414Y-12831218D01*
X15591414Y-12831218D02*
X15581890Y-12821694D01*
X15581890Y-12821694D02*
X15572366Y-12802646D01*
X15572366Y-12802646D02*
X15562843Y-12764551D01*
X15562843Y-12764551D02*
X15562843Y-12716932D01*
X15562843Y-12716932D02*
X15572366Y-12678837D01*
X15572366Y-12678837D02*
X15581890Y-12659789D01*
X15581890Y-12659789D02*
X15591414Y-12650266D01*
X15591414Y-12650266D02*
X15610462Y-12640742D01*
X15800938Y-12640742D02*
X15819985Y-12640742D01*
X15819985Y-12640742D02*
X15839033Y-12650266D01*
X15839033Y-12650266D02*
X15848557Y-12659789D01*
X15848557Y-12659789D02*
X15858081Y-12678837D01*
X15858081Y-12678837D02*
X15867604Y-12716932D01*
X15867604Y-12716932D02*
X15867604Y-12764551D01*
X15867604Y-12764551D02*
X15858081Y-12802646D01*
X15858081Y-12802646D02*
X15848557Y-12821694D01*
X15848557Y-12821694D02*
X15839033Y-12831218D01*
X15839033Y-12831218D02*
X15819985Y-12840742D01*
X15819985Y-12840742D02*
X15800938Y-12840742D01*
X15800938Y-12840742D02*
X15781890Y-12831218D01*
X15781890Y-12831218D02*
X15772366Y-12821694D01*
X15772366Y-12821694D02*
X15762843Y-12802646D01*
X15762843Y-12802646D02*
X15753319Y-12764551D01*
X15753319Y-12764551D02*
X15753319Y-12716932D01*
X15753319Y-12716932D02*
X15762843Y-12678837D01*
X15762843Y-12678837D02*
X15772366Y-12659789D01*
X15772366Y-12659789D02*
X15781890Y-12650266D01*
X15781890Y-12650266D02*
X15800938Y-12640742D01*
X15953319Y-12840742D02*
X15953319Y-12707408D01*
X15953319Y-12726456D02*
X15962843Y-12716932D01*
X15962843Y-12716932D02*
X15981890Y-12707408D01*
X15981890Y-12707408D02*
X16010462Y-12707408D01*
X16010462Y-12707408D02*
X16029509Y-12716932D01*
X16029509Y-12716932D02*
X16039033Y-12735980D01*
X16039033Y-12735980D02*
X16039033Y-12840742D01*
X16039033Y-12735980D02*
X16048557Y-12716932D01*
X16048557Y-12716932D02*
X16067604Y-12707408D01*
X16067604Y-12707408D02*
X16096176Y-12707408D01*
X16096176Y-12707408D02*
X16115224Y-12716932D01*
X16115224Y-12716932D02*
X16124747Y-12735980D01*
X16124747Y-12735980D02*
X16124747Y-12840742D01*
X16219985Y-12840742D02*
X16219985Y-12707408D01*
X16219985Y-12726456D02*
X16229509Y-12716932D01*
X16229509Y-12716932D02*
X16248557Y-12707408D01*
X16248557Y-12707408D02*
X16277128Y-12707408D01*
X16277128Y-12707408D02*
X16296176Y-12716932D01*
X16296176Y-12716932D02*
X16305700Y-12735980D01*
X16305700Y-12735980D02*
X16305700Y-12840742D01*
X16305700Y-12735980D02*
X16315224Y-12716932D01*
X16315224Y-12716932D02*
X16334271Y-12707408D01*
X16334271Y-12707408D02*
X16362843Y-12707408D01*
X16362843Y-12707408D02*
X16381890Y-12716932D01*
X16381890Y-12716932D02*
X16391414Y-12735980D01*
X16391414Y-12735980D02*
X16391414Y-12840742D01*
X16781890Y-12631218D02*
X16610462Y-12888361D01*
X17039033Y-12640742D02*
X17058081Y-12640742D01*
X17058081Y-12640742D02*
X17077129Y-12650266D01*
X17077129Y-12650266D02*
X17086652Y-12659789D01*
X17086652Y-12659789D02*
X17096176Y-12678837D01*
X17096176Y-12678837D02*
X17105700Y-12716932D01*
X17105700Y-12716932D02*
X17105700Y-12764551D01*
X17105700Y-12764551D02*
X17096176Y-12802646D01*
X17096176Y-12802646D02*
X17086652Y-12821694D01*
X17086652Y-12821694D02*
X17077129Y-12831218D01*
X17077129Y-12831218D02*
X17058081Y-12840742D01*
X17058081Y-12840742D02*
X17039033Y-12840742D01*
X17039033Y-12840742D02*
X17019986Y-12831218D01*
X17019986Y-12831218D02*
X17010462Y-12821694D01*
X17010462Y-12821694D02*
X17000938Y-12802646D01*
X17000938Y-12802646D02*
X16991414Y-12764551D01*
X16991414Y-12764551D02*
X16991414Y-12716932D01*
X16991414Y-12716932D02*
X17000938Y-12678837D01*
X17000938Y-12678837D02*
X17010462Y-12659789D01*
X17010462Y-12659789D02*
X17019986Y-12650266D01*
X17019986Y-12650266D02*
X17039033Y-12640742D01*
X17191414Y-12821694D02*
X17200938Y-12831218D01*
X17200938Y-12831218D02*
X17191414Y-12840742D01*
X17191414Y-12840742D02*
X17181890Y-12831218D01*
X17181890Y-12831218D02*
X17191414Y-12821694D01*
X17191414Y-12821694D02*
X17191414Y-12840742D01*
X17324748Y-12640742D02*
X17343795Y-12640742D01*
X17343795Y-12640742D02*
X17362843Y-12650266D01*
X17362843Y-12650266D02*
X17372367Y-12659789D01*
X17372367Y-12659789D02*
X17381890Y-12678837D01*
X17381890Y-12678837D02*
X17391414Y-12716932D01*
X17391414Y-12716932D02*
X17391414Y-12764551D01*
X17391414Y-12764551D02*
X17381890Y-12802646D01*
X17381890Y-12802646D02*
X17372367Y-12821694D01*
X17372367Y-12821694D02*
X17362843Y-12831218D01*
X17362843Y-12831218D02*
X17343795Y-12840742D01*
X17343795Y-12840742D02*
X17324748Y-12840742D01*
X17324748Y-12840742D02*
X17305700Y-12831218D01*
X17305700Y-12831218D02*
X17296176Y-12821694D01*
X17296176Y-12821694D02*
X17286652Y-12802646D01*
X17286652Y-12802646D02*
X17277129Y-12764551D01*
X17277129Y-12764551D02*
X17277129Y-12716932D01*
X17277129Y-12716932D02*
X17286652Y-12678837D01*
X17286652Y-12678837D02*
X17296176Y-12659789D01*
X17296176Y-12659789D02*
X17305700Y-12650266D01*
X17305700Y-12650266D02*
X17324748Y-12640742D01*
X17572367Y-12640742D02*
X17477129Y-12640742D01*
X17477129Y-12640742D02*
X17467605Y-12735980D01*
X17467605Y-12735980D02*
X17477129Y-12726456D01*
X17477129Y-12726456D02*
X17496176Y-12716932D01*
X17496176Y-12716932D02*
X17543795Y-12716932D01*
X17543795Y-12716932D02*
X17562843Y-12726456D01*
X17562843Y-12726456D02*
X17572367Y-12735980D01*
X17572367Y-12735980D02*
X17581890Y-12755027D01*
X17581890Y-12755027D02*
X17581890Y-12802646D01*
X17581890Y-12802646D02*
X17572367Y-12821694D01*
X17572367Y-12821694D02*
X17562843Y-12831218D01*
X17562843Y-12831218D02*
X17543795Y-12840742D01*
X17543795Y-12840742D02*
X17496176Y-12840742D01*
X17496176Y-12840742D02*
X17477129Y-12831218D01*
X17477129Y-12831218D02*
X17467605Y-12821694D01*
X17762843Y-12640742D02*
X17667605Y-12640742D01*
X17667605Y-12640742D02*
X17658081Y-12735980D01*
X17658081Y-12735980D02*
X17667605Y-12726456D01*
X17667605Y-12726456D02*
X17686652Y-12716932D01*
X17686652Y-12716932D02*
X17734271Y-12716932D01*
X17734271Y-12716932D02*
X17753319Y-12726456D01*
X17753319Y-12726456D02*
X17762843Y-12735980D01*
X17762843Y-12735980D02*
X17772367Y-12755027D01*
X17772367Y-12755027D02*
X17772367Y-12802646D01*
X17772367Y-12802646D02*
X17762843Y-12821694D01*
X17762843Y-12821694D02*
X17753319Y-12831218D01*
X17753319Y-12831218D02*
X17734271Y-12840742D01*
X17734271Y-12840742D02*
X17686652Y-12840742D01*
X17686652Y-12840742D02*
X17667605Y-12831218D01*
X17667605Y-12831218D02*
X17658081Y-12821694D01*
X17962843Y-12840742D02*
X17848557Y-12840742D01*
X17905700Y-12840742D02*
X17905700Y-12640742D01*
X17905700Y-12640742D02*
X17886652Y-12669313D01*
X17886652Y-12669313D02*
X17867605Y-12688361D01*
X17867605Y-12688361D02*
X17848557Y-12697885D01*
X18039033Y-12640742D02*
X18039033Y-12678837D01*
X18115224Y-12640742D02*
X18115224Y-12678837D01*
X18410462Y-12916932D02*
X18400938Y-12907408D01*
X18400938Y-12907408D02*
X18381891Y-12878837D01*
X18381891Y-12878837D02*
X18372367Y-12859789D01*
X18372367Y-12859789D02*
X18362843Y-12831218D01*
X18362843Y-12831218D02*
X18353319Y-12783599D01*
X18353319Y-12783599D02*
X18353319Y-12745504D01*
X18353319Y-12745504D02*
X18362843Y-12697885D01*
X18362843Y-12697885D02*
X18372367Y-12669313D01*
X18372367Y-12669313D02*
X18381891Y-12650266D01*
X18381891Y-12650266D02*
X18400938Y-12621694D01*
X18400938Y-12621694D02*
X18410462Y-12612170D01*
X18477129Y-12659789D02*
X18486652Y-12650266D01*
X18486652Y-12650266D02*
X18505700Y-12640742D01*
X18505700Y-12640742D02*
X18553319Y-12640742D01*
X18553319Y-12640742D02*
X18572367Y-12650266D01*
X18572367Y-12650266D02*
X18581891Y-12659789D01*
X18581891Y-12659789D02*
X18591414Y-12678837D01*
X18591414Y-12678837D02*
X18591414Y-12697885D01*
X18591414Y-12697885D02*
X18581891Y-12726456D01*
X18581891Y-12726456D02*
X18467605Y-12840742D01*
X18467605Y-12840742D02*
X18591414Y-12840742D01*
X18829510Y-12840742D02*
X18829510Y-12640742D01*
X18915224Y-12840742D02*
X18915224Y-12735980D01*
X18915224Y-12735980D02*
X18905700Y-12716932D01*
X18905700Y-12716932D02*
X18886653Y-12707408D01*
X18886653Y-12707408D02*
X18858081Y-12707408D01*
X18858081Y-12707408D02*
X18839033Y-12716932D01*
X18839033Y-12716932D02*
X18829510Y-12726456D01*
X19039033Y-12840742D02*
X19019986Y-12831218D01*
X19019986Y-12831218D02*
X19010462Y-12821694D01*
X19010462Y-12821694D02*
X19000938Y-12802646D01*
X19000938Y-12802646D02*
X19000938Y-12745504D01*
X19000938Y-12745504D02*
X19010462Y-12726456D01*
X19010462Y-12726456D02*
X19019986Y-12716932D01*
X19019986Y-12716932D02*
X19039033Y-12707408D01*
X19039033Y-12707408D02*
X19067605Y-12707408D01*
X19067605Y-12707408D02*
X19086653Y-12716932D01*
X19086653Y-12716932D02*
X19096176Y-12726456D01*
X19096176Y-12726456D02*
X19105700Y-12745504D01*
X19105700Y-12745504D02*
X19105700Y-12802646D01*
X19105700Y-12802646D02*
X19096176Y-12821694D01*
X19096176Y-12821694D02*
X19086653Y-12831218D01*
X19086653Y-12831218D02*
X19067605Y-12840742D01*
X19067605Y-12840742D02*
X19039033Y-12840742D01*
X19219986Y-12840742D02*
X19200938Y-12831218D01*
X19200938Y-12831218D02*
X19191414Y-12812170D01*
X19191414Y-12812170D02*
X19191414Y-12640742D01*
X19372367Y-12831218D02*
X19353319Y-12840742D01*
X19353319Y-12840742D02*
X19315224Y-12840742D01*
X19315224Y-12840742D02*
X19296176Y-12831218D01*
X19296176Y-12831218D02*
X19286653Y-12812170D01*
X19286653Y-12812170D02*
X19286653Y-12735980D01*
X19286653Y-12735980D02*
X19296176Y-12716932D01*
X19296176Y-12716932D02*
X19315224Y-12707408D01*
X19315224Y-12707408D02*
X19353319Y-12707408D01*
X19353319Y-12707408D02*
X19372367Y-12716932D01*
X19372367Y-12716932D02*
X19381891Y-12735980D01*
X19381891Y-12735980D02*
X19381891Y-12755027D01*
X19381891Y-12755027D02*
X19286653Y-12774075D01*
X19458081Y-12831218D02*
X19477129Y-12840742D01*
X19477129Y-12840742D02*
X19515224Y-12840742D01*
X19515224Y-12840742D02*
X19534272Y-12831218D01*
X19534272Y-12831218D02*
X19543795Y-12812170D01*
X19543795Y-12812170D02*
X19543795Y-12802646D01*
X19543795Y-12802646D02*
X19534272Y-12783599D01*
X19534272Y-12783599D02*
X19515224Y-12774075D01*
X19515224Y-12774075D02*
X19486653Y-12774075D01*
X19486653Y-12774075D02*
X19467605Y-12764551D01*
X19467605Y-12764551D02*
X19458081Y-12745504D01*
X19458081Y-12745504D02*
X19458081Y-12735980D01*
X19458081Y-12735980D02*
X19467605Y-12716932D01*
X19467605Y-12716932D02*
X19486653Y-12707408D01*
X19486653Y-12707408D02*
X19515224Y-12707408D01*
X19515224Y-12707408D02*
X19534272Y-12716932D01*
X19610462Y-12916932D02*
X19619986Y-12907408D01*
X19619986Y-12907408D02*
X19639034Y-12878837D01*
X19639034Y-12878837D02*
X19648557Y-12859789D01*
X19648557Y-12859789D02*
X19658081Y-12831218D01*
X19658081Y-12831218D02*
X19667605Y-12783599D01*
X19667605Y-12783599D02*
X19667605Y-12745504D01*
X19667605Y-12745504D02*
X19658081Y-12697885D01*
X19658081Y-12697885D02*
X19648557Y-12669313D01*
X19648557Y-12669313D02*
X19639034Y-12650266D01*
X19639034Y-12650266D02*
X19619986Y-12621694D01*
X19619986Y-12621694D02*
X19610462Y-12612170D01*
D14*
X14823662Y-13072323D02*
X14823662Y-12952113D01*
X14703452Y-12952113D01*
X14703452Y-13072323D01*
X14823662Y-13072323D01*
D10*
X15200938Y-13104742D02*
X15086652Y-13104742D01*
X15143795Y-13104742D02*
X15143795Y-12904742D01*
X15143795Y-12904742D02*
X15124747Y-12933313D01*
X15124747Y-12933313D02*
X15105700Y-12952361D01*
X15105700Y-12952361D02*
X15086652Y-12961885D01*
X15286652Y-13085694D02*
X15296176Y-13095218D01*
X15296176Y-13095218D02*
X15286652Y-13104742D01*
X15286652Y-13104742D02*
X15277128Y-13095218D01*
X15277128Y-13095218D02*
X15286652Y-13085694D01*
X15286652Y-13085694D02*
X15286652Y-13104742D01*
X15362843Y-12904742D02*
X15496176Y-12904742D01*
X15496176Y-12904742D02*
X15410462Y-13104742D01*
X15610462Y-12904742D02*
X15629509Y-12904742D01*
X15629509Y-12904742D02*
X15648557Y-12914266D01*
X15648557Y-12914266D02*
X15658081Y-12923789D01*
X15658081Y-12923789D02*
X15667604Y-12942837D01*
X15667604Y-12942837D02*
X15677128Y-12980932D01*
X15677128Y-12980932D02*
X15677128Y-13028551D01*
X15677128Y-13028551D02*
X15667604Y-13066646D01*
X15667604Y-13066646D02*
X15658081Y-13085694D01*
X15658081Y-13085694D02*
X15648557Y-13095218D01*
X15648557Y-13095218D02*
X15629509Y-13104742D01*
X15629509Y-13104742D02*
X15610462Y-13104742D01*
X15610462Y-13104742D02*
X15591414Y-13095218D01*
X15591414Y-13095218D02*
X15581890Y-13085694D01*
X15581890Y-13085694D02*
X15572366Y-13066646D01*
X15572366Y-13066646D02*
X15562843Y-13028551D01*
X15562843Y-13028551D02*
X15562843Y-12980932D01*
X15562843Y-12980932D02*
X15572366Y-12942837D01*
X15572366Y-12942837D02*
X15581890Y-12923789D01*
X15581890Y-12923789D02*
X15591414Y-12914266D01*
X15591414Y-12914266D02*
X15610462Y-12904742D01*
X15800938Y-12904742D02*
X15819985Y-12904742D01*
X15819985Y-12904742D02*
X15839033Y-12914266D01*
X15839033Y-12914266D02*
X15848557Y-12923789D01*
X15848557Y-12923789D02*
X15858081Y-12942837D01*
X15858081Y-12942837D02*
X15867604Y-12980932D01*
X15867604Y-12980932D02*
X15867604Y-13028551D01*
X15867604Y-13028551D02*
X15858081Y-13066646D01*
X15858081Y-13066646D02*
X15848557Y-13085694D01*
X15848557Y-13085694D02*
X15839033Y-13095218D01*
X15839033Y-13095218D02*
X15819985Y-13104742D01*
X15819985Y-13104742D02*
X15800938Y-13104742D01*
X15800938Y-13104742D02*
X15781890Y-13095218D01*
X15781890Y-13095218D02*
X15772366Y-13085694D01*
X15772366Y-13085694D02*
X15762843Y-13066646D01*
X15762843Y-13066646D02*
X15753319Y-13028551D01*
X15753319Y-13028551D02*
X15753319Y-12980932D01*
X15753319Y-12980932D02*
X15762843Y-12942837D01*
X15762843Y-12942837D02*
X15772366Y-12923789D01*
X15772366Y-12923789D02*
X15781890Y-12914266D01*
X15781890Y-12914266D02*
X15800938Y-12904742D01*
X15953319Y-13104742D02*
X15953319Y-12971408D01*
X15953319Y-12990456D02*
X15962843Y-12980932D01*
X15962843Y-12980932D02*
X15981890Y-12971408D01*
X15981890Y-12971408D02*
X16010462Y-12971408D01*
X16010462Y-12971408D02*
X16029509Y-12980932D01*
X16029509Y-12980932D02*
X16039033Y-12999980D01*
X16039033Y-12999980D02*
X16039033Y-13104742D01*
X16039033Y-12999980D02*
X16048557Y-12980932D01*
X16048557Y-12980932D02*
X16067604Y-12971408D01*
X16067604Y-12971408D02*
X16096176Y-12971408D01*
X16096176Y-12971408D02*
X16115224Y-12980932D01*
X16115224Y-12980932D02*
X16124747Y-12999980D01*
X16124747Y-12999980D02*
X16124747Y-13104742D01*
X16219985Y-13104742D02*
X16219985Y-12971408D01*
X16219985Y-12990456D02*
X16229509Y-12980932D01*
X16229509Y-12980932D02*
X16248557Y-12971408D01*
X16248557Y-12971408D02*
X16277128Y-12971408D01*
X16277128Y-12971408D02*
X16296176Y-12980932D01*
X16296176Y-12980932D02*
X16305700Y-12999980D01*
X16305700Y-12999980D02*
X16305700Y-13104742D01*
X16305700Y-12999980D02*
X16315224Y-12980932D01*
X16315224Y-12980932D02*
X16334271Y-12971408D01*
X16334271Y-12971408D02*
X16362843Y-12971408D01*
X16362843Y-12971408D02*
X16381890Y-12980932D01*
X16381890Y-12980932D02*
X16391414Y-12999980D01*
X16391414Y-12999980D02*
X16391414Y-13104742D01*
X16781890Y-12895218D02*
X16610462Y-13152361D01*
X17039033Y-12904742D02*
X17058081Y-12904742D01*
X17058081Y-12904742D02*
X17077129Y-12914266D01*
X17077129Y-12914266D02*
X17086652Y-12923789D01*
X17086652Y-12923789D02*
X17096176Y-12942837D01*
X17096176Y-12942837D02*
X17105700Y-12980932D01*
X17105700Y-12980932D02*
X17105700Y-13028551D01*
X17105700Y-13028551D02*
X17096176Y-13066646D01*
X17096176Y-13066646D02*
X17086652Y-13085694D01*
X17086652Y-13085694D02*
X17077129Y-13095218D01*
X17077129Y-13095218D02*
X17058081Y-13104742D01*
X17058081Y-13104742D02*
X17039033Y-13104742D01*
X17039033Y-13104742D02*
X17019986Y-13095218D01*
X17019986Y-13095218D02*
X17010462Y-13085694D01*
X17010462Y-13085694D02*
X17000938Y-13066646D01*
X17000938Y-13066646D02*
X16991414Y-13028551D01*
X16991414Y-13028551D02*
X16991414Y-12980932D01*
X16991414Y-12980932D02*
X17000938Y-12942837D01*
X17000938Y-12942837D02*
X17010462Y-12923789D01*
X17010462Y-12923789D02*
X17019986Y-12914266D01*
X17019986Y-12914266D02*
X17039033Y-12904742D01*
X17191414Y-13085694D02*
X17200938Y-13095218D01*
X17200938Y-13095218D02*
X17191414Y-13104742D01*
X17191414Y-13104742D02*
X17181890Y-13095218D01*
X17181890Y-13095218D02*
X17191414Y-13085694D01*
X17191414Y-13085694D02*
X17191414Y-13104742D01*
X17324748Y-12904742D02*
X17343795Y-12904742D01*
X17343795Y-12904742D02*
X17362843Y-12914266D01*
X17362843Y-12914266D02*
X17372367Y-12923789D01*
X17372367Y-12923789D02*
X17381890Y-12942837D01*
X17381890Y-12942837D02*
X17391414Y-12980932D01*
X17391414Y-12980932D02*
X17391414Y-13028551D01*
X17391414Y-13028551D02*
X17381890Y-13066646D01*
X17381890Y-13066646D02*
X17372367Y-13085694D01*
X17372367Y-13085694D02*
X17362843Y-13095218D01*
X17362843Y-13095218D02*
X17343795Y-13104742D01*
X17343795Y-13104742D02*
X17324748Y-13104742D01*
X17324748Y-13104742D02*
X17305700Y-13095218D01*
X17305700Y-13095218D02*
X17296176Y-13085694D01*
X17296176Y-13085694D02*
X17286652Y-13066646D01*
X17286652Y-13066646D02*
X17277129Y-13028551D01*
X17277129Y-13028551D02*
X17277129Y-12980932D01*
X17277129Y-12980932D02*
X17286652Y-12942837D01*
X17286652Y-12942837D02*
X17296176Y-12923789D01*
X17296176Y-12923789D02*
X17305700Y-12914266D01*
X17305700Y-12914266D02*
X17324748Y-12904742D01*
X17562843Y-12904742D02*
X17524748Y-12904742D01*
X17524748Y-12904742D02*
X17505700Y-12914266D01*
X17505700Y-12914266D02*
X17496176Y-12923789D01*
X17496176Y-12923789D02*
X17477129Y-12952361D01*
X17477129Y-12952361D02*
X17467605Y-12990456D01*
X17467605Y-12990456D02*
X17467605Y-13066646D01*
X17467605Y-13066646D02*
X17477129Y-13085694D01*
X17477129Y-13085694D02*
X17486652Y-13095218D01*
X17486652Y-13095218D02*
X17505700Y-13104742D01*
X17505700Y-13104742D02*
X17543795Y-13104742D01*
X17543795Y-13104742D02*
X17562843Y-13095218D01*
X17562843Y-13095218D02*
X17572367Y-13085694D01*
X17572367Y-13085694D02*
X17581890Y-13066646D01*
X17581890Y-13066646D02*
X17581890Y-13019027D01*
X17581890Y-13019027D02*
X17572367Y-12999980D01*
X17572367Y-12999980D02*
X17562843Y-12990456D01*
X17562843Y-12990456D02*
X17543795Y-12980932D01*
X17543795Y-12980932D02*
X17505700Y-12980932D01*
X17505700Y-12980932D02*
X17486652Y-12990456D01*
X17486652Y-12990456D02*
X17477129Y-12999980D01*
X17477129Y-12999980D02*
X17467605Y-13019027D01*
X17753319Y-12904742D02*
X17715224Y-12904742D01*
X17715224Y-12904742D02*
X17696176Y-12914266D01*
X17696176Y-12914266D02*
X17686652Y-12923789D01*
X17686652Y-12923789D02*
X17667605Y-12952361D01*
X17667605Y-12952361D02*
X17658081Y-12990456D01*
X17658081Y-12990456D02*
X17658081Y-13066646D01*
X17658081Y-13066646D02*
X17667605Y-13085694D01*
X17667605Y-13085694D02*
X17677129Y-13095218D01*
X17677129Y-13095218D02*
X17696176Y-13104742D01*
X17696176Y-13104742D02*
X17734271Y-13104742D01*
X17734271Y-13104742D02*
X17753319Y-13095218D01*
X17753319Y-13095218D02*
X17762843Y-13085694D01*
X17762843Y-13085694D02*
X17772367Y-13066646D01*
X17772367Y-13066646D02*
X17772367Y-13019027D01*
X17772367Y-13019027D02*
X17762843Y-12999980D01*
X17762843Y-12999980D02*
X17753319Y-12990456D01*
X17753319Y-12990456D02*
X17734271Y-12980932D01*
X17734271Y-12980932D02*
X17696176Y-12980932D01*
X17696176Y-12980932D02*
X17677129Y-12990456D01*
X17677129Y-12990456D02*
X17667605Y-12999980D01*
X17667605Y-12999980D02*
X17658081Y-13019027D01*
X17867605Y-13104742D02*
X17905700Y-13104742D01*
X17905700Y-13104742D02*
X17924748Y-13095218D01*
X17924748Y-13095218D02*
X17934271Y-13085694D01*
X17934271Y-13085694D02*
X17953319Y-13057123D01*
X17953319Y-13057123D02*
X17962843Y-13019027D01*
X17962843Y-13019027D02*
X17962843Y-12942837D01*
X17962843Y-12942837D02*
X17953319Y-12923789D01*
X17953319Y-12923789D02*
X17943795Y-12914266D01*
X17943795Y-12914266D02*
X17924748Y-12904742D01*
X17924748Y-12904742D02*
X17886652Y-12904742D01*
X17886652Y-12904742D02*
X17867605Y-12914266D01*
X17867605Y-12914266D02*
X17858081Y-12923789D01*
X17858081Y-12923789D02*
X17848557Y-12942837D01*
X17848557Y-12942837D02*
X17848557Y-12990456D01*
X17848557Y-12990456D02*
X17858081Y-13009504D01*
X17858081Y-13009504D02*
X17867605Y-13019027D01*
X17867605Y-13019027D02*
X17886652Y-13028551D01*
X17886652Y-13028551D02*
X17924748Y-13028551D01*
X17924748Y-13028551D02*
X17943795Y-13019027D01*
X17943795Y-13019027D02*
X17953319Y-13009504D01*
X17953319Y-13009504D02*
X17962843Y-12990456D01*
X18039033Y-12904742D02*
X18039033Y-12942837D01*
X18115224Y-12904742D02*
X18115224Y-12942837D01*
X18410462Y-13180932D02*
X18400938Y-13171408D01*
X18400938Y-13171408D02*
X18381891Y-13142837D01*
X18381891Y-13142837D02*
X18372367Y-13123789D01*
X18372367Y-13123789D02*
X18362843Y-13095218D01*
X18362843Y-13095218D02*
X18353319Y-13047599D01*
X18353319Y-13047599D02*
X18353319Y-13009504D01*
X18353319Y-13009504D02*
X18362843Y-12961885D01*
X18362843Y-12961885D02*
X18372367Y-12933313D01*
X18372367Y-12933313D02*
X18381891Y-12914266D01*
X18381891Y-12914266D02*
X18400938Y-12885694D01*
X18400938Y-12885694D02*
X18410462Y-12876170D01*
X18477129Y-12923789D02*
X18486652Y-12914266D01*
X18486652Y-12914266D02*
X18505700Y-12904742D01*
X18505700Y-12904742D02*
X18553319Y-12904742D01*
X18553319Y-12904742D02*
X18572367Y-12914266D01*
X18572367Y-12914266D02*
X18581891Y-12923789D01*
X18581891Y-12923789D02*
X18591414Y-12942837D01*
X18591414Y-12942837D02*
X18591414Y-12961885D01*
X18591414Y-12961885D02*
X18581891Y-12990456D01*
X18581891Y-12990456D02*
X18467605Y-13104742D01*
X18467605Y-13104742D02*
X18591414Y-13104742D01*
X18829510Y-13104742D02*
X18829510Y-12904742D01*
X18915224Y-13104742D02*
X18915224Y-12999980D01*
X18915224Y-12999980D02*
X18905700Y-12980932D01*
X18905700Y-12980932D02*
X18886653Y-12971408D01*
X18886653Y-12971408D02*
X18858081Y-12971408D01*
X18858081Y-12971408D02*
X18839033Y-12980932D01*
X18839033Y-12980932D02*
X18829510Y-12990456D01*
X19039033Y-13104742D02*
X19019986Y-13095218D01*
X19019986Y-13095218D02*
X19010462Y-13085694D01*
X19010462Y-13085694D02*
X19000938Y-13066646D01*
X19000938Y-13066646D02*
X19000938Y-13009504D01*
X19000938Y-13009504D02*
X19010462Y-12990456D01*
X19010462Y-12990456D02*
X19019986Y-12980932D01*
X19019986Y-12980932D02*
X19039033Y-12971408D01*
X19039033Y-12971408D02*
X19067605Y-12971408D01*
X19067605Y-12971408D02*
X19086653Y-12980932D01*
X19086653Y-12980932D02*
X19096176Y-12990456D01*
X19096176Y-12990456D02*
X19105700Y-13009504D01*
X19105700Y-13009504D02*
X19105700Y-13066646D01*
X19105700Y-13066646D02*
X19096176Y-13085694D01*
X19096176Y-13085694D02*
X19086653Y-13095218D01*
X19086653Y-13095218D02*
X19067605Y-13104742D01*
X19067605Y-13104742D02*
X19039033Y-13104742D01*
X19219986Y-13104742D02*
X19200938Y-13095218D01*
X19200938Y-13095218D02*
X19191414Y-13076170D01*
X19191414Y-13076170D02*
X19191414Y-12904742D01*
X19372367Y-13095218D02*
X19353319Y-13104742D01*
X19353319Y-13104742D02*
X19315224Y-13104742D01*
X19315224Y-13104742D02*
X19296176Y-13095218D01*
X19296176Y-13095218D02*
X19286653Y-13076170D01*
X19286653Y-13076170D02*
X19286653Y-12999980D01*
X19286653Y-12999980D02*
X19296176Y-12980932D01*
X19296176Y-12980932D02*
X19315224Y-12971408D01*
X19315224Y-12971408D02*
X19353319Y-12971408D01*
X19353319Y-12971408D02*
X19372367Y-12980932D01*
X19372367Y-12980932D02*
X19381891Y-12999980D01*
X19381891Y-12999980D02*
X19381891Y-13019027D01*
X19381891Y-13019027D02*
X19286653Y-13038075D01*
X19458081Y-13095218D02*
X19477129Y-13104742D01*
X19477129Y-13104742D02*
X19515224Y-13104742D01*
X19515224Y-13104742D02*
X19534272Y-13095218D01*
X19534272Y-13095218D02*
X19543795Y-13076170D01*
X19543795Y-13076170D02*
X19543795Y-13066646D01*
X19543795Y-13066646D02*
X19534272Y-13047599D01*
X19534272Y-13047599D02*
X19515224Y-13038075D01*
X19515224Y-13038075D02*
X19486653Y-13038075D01*
X19486653Y-13038075D02*
X19467605Y-13028551D01*
X19467605Y-13028551D02*
X19458081Y-13009504D01*
X19458081Y-13009504D02*
X19458081Y-12999980D01*
X19458081Y-12999980D02*
X19467605Y-12980932D01*
X19467605Y-12980932D02*
X19486653Y-12971408D01*
X19486653Y-12971408D02*
X19515224Y-12971408D01*
X19515224Y-12971408D02*
X19534272Y-12980932D01*
X19610462Y-13180932D02*
X19619986Y-13171408D01*
X19619986Y-13171408D02*
X19639034Y-13142837D01*
X19639034Y-13142837D02*
X19648557Y-13123789D01*
X19648557Y-13123789D02*
X19658081Y-13095218D01*
X19658081Y-13095218D02*
X19667605Y-13047599D01*
X19667605Y-13047599D02*
X19667605Y-13009504D01*
X19667605Y-13009504D02*
X19658081Y-12961885D01*
X19658081Y-12961885D02*
X19648557Y-12933313D01*
X19648557Y-12933313D02*
X19639034Y-12914266D01*
X19639034Y-12914266D02*
X19619986Y-12885694D01*
X19619986Y-12885694D02*
X19610462Y-12876170D01*
M02*
