0
SECTION
2
HEADER
9
$INSUNITS
70
4
9
$ACADVER
1
AC1014
9
$HANDSEED
5
FFFF
0
ENDSEC
0
SECTION
2
TABLES
0
TABLE
2
VPORT
5
8
100
AcDbSymbolTable
0
ENDTAB
0
TABLE
2
LTYPE
5
5
100
AcDbSymbolTable
0
LTYPE
5
14
100
AcDbSymbolTableRecord
100
AcDbLinetypeTableRecord
2
BYBLOCK
70
0
0
LTYPE
5
15
100
AcDbSymbolTableRecord
100
AcDbLinetypeTableRecord
2
BYLAYER
70
0
0
ENDTAB
0
TABLE
2
LAYER
5
2
100
AcDbSymbolTable
70
2
0
LAYER
5
50
100
AcDbSymbolTableRecord
100
AcDbLayerTableRecord
2
0
70
0
6
CONTINUOUS
0
ENDTAB
0
TABLE
2
STYLE
5
3
100
AcDbSymbolTable
70
1
0
STYLE
5
11
100
AcDbSymbolTableRecord
100
AcDbTextStyleTableRecord
2
STANDARD
70
0
0
ENDTAB
0
TABLE
2
VIEW
5
6
100
AcDbSymbolTable
70
0
0
ENDTAB
0
TABLE
2
UCS
5
7
100
AcDbSymbolTable
70
0
0
ENDTAB
0
TABLE
2
APPID
5
9
100
AcDbSymbolTable
70
2
0
APPID
5
12
100
AcDbSymbolTableRecord
100
AcDbRegAppTableRecord
2
ACAD
70
0
0
ENDTAB
0
TABLE
2
DIMSTYLE
5
A
100
AcDbSymbolTable
70
1
0
ENDTAB
0
TABLE
2
BLOCK_RECORD
5
1
100
AcDbSymbolTable
70
1
0
BLOCK_RECORD
5
1F
100
AcDbSymbolTableRecord
100
AcDbBlockTableRecord
2
*MODEL_SPACE
0
BLOCK_RECORD
5
1B
100
AcDbSymbolTableRecord
100
AcDbBlockTableRecord
2
*PAPER_SPACE
0
ENDTAB
0
ENDSEC
0
SECTION
2
BLOCKS
0
BLOCK
5
20
100
AcDbEntity
100
AcDbBlockBegin
2
*MODEL_SPACE
0
ENDBLK
5
21
100
AcDbEntity
100
AcDbBlockEnd
0
BLOCK
5
1C
100
AcDbEntity
100
AcDbBlockBegin
2
*PAPER_SPACE
0
ENDBLK
5
1D
100
AcDbEntity
100
AcDbBlockEnd
0
ENDSEC
0
SECTION
2
ENTITIES
0
CIRCLE
5
100
100
AcDbEntity
8
0
100
AcDbCircle
10
43.049619884240904
20
20.074367432683236
30
0
40
1.6000000000000014
210
0
220
-0
230
1
0
CIRCLE
5
101
100
AcDbEntity
8
0
100
AcDbCircle
10
-33.587572106361037
20
-33.58757210636103
30
0
40
1.599999999999997
210
0
220
-0
230
1
0
CIRCLE
5
102
100
AcDbEntity
8
0
100
AcDbCircle
10
-43.049619884240904
20
20.074367432683236
30
0
40
1.6000000000000014
210
0
220
-0
230
1
0
CIRCLE
5
103
100
AcDbEntity
8
0
100
AcDbCircle
10
33.587572106361037
20
-33.58757210636103
30
0
40
1.599999999999997
210
0
220
-0
230
1
0
LWPOLYLINE
5
104
100
AcDbEntity
8
0
100
AcDbPolyline
90
9
70
1
43
0.0
10
38.123490228990022
20
-32.351189974405933
42
0.1520321519786979
10
49.74937184784288
20
-5.0000000745058015
10
25.00000037252903
20
-5.000000074505806
10
25.000000372529062
20
-43.301269974142187
42
0.045049385059276595
10
32.351189974405948
20
-38.123490228990008
42
0.43835753204924455
10
32.411272956104384
20
-36.653913643223653
10
31.466251762801392
20
-35.708892449920675
42
-0.99999999999999989
10
35.708892449920675
20
-31.466251762801384
10
36.653913643223667
20
-32.411272956104369
42
0.43835753204924544
0
CIRCLE
5
105
100
AcDbEntity
8
0
100
AcDbCircle
10
35
20
31
30
0
40
1.749999999999998
210
0
220
-0
230
1
0
LWPOLYLINE
5
106
100
AcDbEntity
8
0
100
AcDbPolyline
90
13
70
1
43
0.0
10
49.74937184784288
20
5.0000000745058015
10
25.00000037252903
20
5.000000074505806
10
25.000000372529072
20
43.301269974142201
42
-0.063152281273127511
10
35.016971024289425
20
35.690499300010842
10
32.6793766414632
20
33.620058630606074
42
0.99999999999999989
10
37.3206233585368
20
28.379941369393926
10
39.658217672203115
20
30.450382116882501
42
-0.034201563216855559
10
43.439176084786197
20
24.759603814983354
42
-0.43835753204925448
10
42.993010824831188
20
23.35810395164701
10
41.781765099018813
20
22.79329079379319
42
1.0000000129047841
10
44.317474726760025
20
17.355444098291315
10
45.528720395275393
20
17.920257229427104
42
-0.43835753204924321
10
46.889121078587863
20
17.361172900398433
42
-0.063696258795277599
0
CIRCLE
5
107
100
AcDbEntity
8
0
100
AcDbCircle
10
-35.000000521540642
20
31
30
0
40
1.749999999999998
210
0
220
-0
230
1
0
LWPOLYLINE
5
108
100
AcDbEntity
8
0
100
AcDbPolyline
90
12
70
1
43
0.0
10
-32.351189974405933
20
-38.123490228990022
42
0.036103635926953946
10
-26.530612625029608
20
-42.380733756515113
42
0.58932029212541126
10
-25.000000372529012
20
-41.533119081384825
10
-25.000000372529026
20
-5.9751859510499461
42
0.41421356237309503
10
-26.000000372529026
20
-4.9751859510499461
10
-48.634320729813595
20
-4.9751859510499443
42
0.45048934092893189
10
-49.626857887564896
20
-6.0971285214795623
42
0.14638939489089475
10
-38.123490228990022
20
-32.351189974405933
42
0.43835753204924272
10
-36.653913643223667
20
-32.411272956104369
10
-35.708892449920675
20
-31.466251762801388
42
-0.99999999999999989
10
-31.466251762801392
20
-35.708892449920675
10
-32.411272956104376
20
-36.653913643223667
42
0.43835753204924743
0
LWPOLYLINE
5
109
100
AcDbEntity
8
0
100
AcDbPolyline
90
18
70
1
43
0.0
10
-26.000000372529037
20
5.0000000745058113
10
-48.631265653958984
20
5.0000000745058015
42
-0.45064279516551053
10
-49.623740463223456
20
6.1224490556181905
42
-0.058027915640855243
10
-46.88912107858787
20
17.361172900398397
42
-0.4383575320492531
10
-45.5287203952754
20
17.920257229427101
10
-44.31747466946301
20
17.355444071573281
42
0.99999999999999989
10
-41.781765099018806
20
22.79329079379319
10
-42.993010824831188
20
23.35810395164701
42
-0.4383575320492436
10
-43.439176084786276
20
24.759603814983286
42
-0.028718869939688706
10
-40.315785055351171
20
29.57427049600248
42
-0.4414137049311796
10
-38.846434114484524
20
29.731373271159423
10
-37.320623860699371
20
28.379941352230489
42
0.9999999925494194
10
-32.679377182381913
20
33.620058647769511
10
-34.205187436167066
20
34.971490566698449
42
-0.44141370493118437
10
-34.226685914701477
20
36.449059950791295
42
-0.048698729129925789
10
-26.530612625029661
20
42.38073375651507
42
-0.58932029212541637
10
-25.000000372529048
20
41.533119081384783
10
-25.000000372529033
20
6.0000000745058113
42
-0.41421356237309503
0
CIRCLE
5
110
100
AcDbEntity
8
0
100
AcDbCircle
10
-35.000000521540642
20
-59.500000886619091
30
0
40
1.749999999999998
210
0
220
-0
230
1
0
CIRCLE
5
111
100
AcDbEntity
8
0
100
AcDbCircle
10
35.000000521540642
20
-59.500000886619091
30
0
40
1.749999999999998
210
0
220
-0
230
1
0
LWPOLYLINE
5
112
100
AcDbEntity
8
0
100
AcDbPolyline
90
12
70
1
43
0.0
10
34.88898711474797
20
-48.813508152016212
42
3.118849733130248
10
-34.88898711474797
20
-48.813508152016205
42
-0.38842982797610115
10
-34.32808492159068
20
-51.454665343543539
10
-38.016770274592837
20
-57.725430443647213
42
0.99999999999999989
10
-31.983230768488447
20
-61.274571329590977
10
-28.294545415486304
20
-55.003806229487289
42
-0.38842982797609915
10
-25.713558372745901
20
-54.210819176723291
42
0.22514117802585892
10
25.713558372745844
20
-54.210819176723319
42
-0.38842982797610331
10
28.294545415486279
20
-55.003806229487289
10
31.983230768488447
20
-61.27457132959097
42
0.99999999999999989
10
38.016770274592837
20
-57.725430443647213
10
34.328084921590673
20
-51.454665343543553
42
-0.38842982797610348
0
ENDSEC
0
SECTION
2
OBJECTS
0
DICTIONARY
5
C
100
AcDbDictionary
3
ACAD_GROUP
350
D
3
ACAD_MLINESTYLE
350
17
0
DICTIONARY
5
D
100
AcDbDictionary
0
DICTIONARY
5
1A
330
C
100
AcDbDictionary
0
DICTIONARY
5
17
100
AcDbDictionary
0
ENDSEC
0
EOF
