%TF.GenerationSoftware,KiCad,Pcbnew,7.0.9*%
%TF.CreationDate,2024-01-11T17:42:49+09:00*%
%TF.ProjectId,MainBoard,4d61696e-426f-4617-9264-2e6b69636164,rev?*%
%TF.SameCoordinates,Original*%
%TF.FileFunction,Drillmap*%
%TF.FilePolarity,Positive*%
%FSLAX45Y45*%
G04 Gerber Fmt 4.5, Leading zero omitted, Abs format (unit mm)*
G04 Created by KiCad (PCBNEW 7.0.9) date 2024-01-11 17:42:49*
%MOMM*%
%LPD*%
G01*
G04 APERTURE LIST*
%ADD10C,0.200000*%
%ADD11C,0.220000*%
%ADD12C,0.320000*%
G04 APERTURE END LIST*
D10*
X18713862Y-13907911D02*
X18425204Y-13907911D01*
X19749199Y-13050711D02*
G75*
G03*
X19907904Y-13209411I158701J1D01*
G01*
X11657871Y-7478246D02*
X11672394Y-7679567D01*
X12529347Y-10984893D02*
X12614469Y-11167911D01*
X11683434Y-5999143D02*
X11674875Y-6032460D01*
X14448410Y-13809207D02*
X14590145Y-13952916D01*
X20263389Y-7797788D02*
X20245946Y-7767575D01*
X19907904Y-9272414D02*
G75*
G03*
X19749204Y-9431111I-4J-158696D01*
G01*
X20028889Y-14932480D02*
X20062056Y-14926845D01*
X14073944Y-4201635D02*
X14040308Y-4201006D01*
X12621334Y-5788436D02*
X12570891Y-5790324D01*
X20066699Y-9431111D02*
G75*
G03*
X19908004Y-9272411I-158699J1D01*
G01*
X12991354Y-11881694D02*
X13094483Y-12055204D01*
X11641027Y-7074928D02*
X11647414Y-7276672D01*
X20287778Y-14701126D02*
X20293413Y-14667960D01*
X12671495Y-5782783D02*
X12621334Y-5788436D01*
X13030007Y-5610132D02*
X12991746Y-5643059D01*
X20062056Y-14926845D02*
X20094383Y-14917532D01*
X15806719Y-14932660D02*
X15838704Y-14934370D01*
X18425204Y-8510411D02*
X18660204Y-8510411D01*
X13855842Y-4273400D02*
X13831612Y-4296739D01*
X17966283Y-9213832D02*
X18166626Y-9013489D01*
X20249317Y-14793979D02*
X20265590Y-14764535D01*
X18459862Y-12828411D02*
X17663204Y-12828411D01*
X18136543Y-6969409D02*
G75*
G03*
X18136543Y-6749411I238J109999D01*
G01*
X18801626Y-12569489D02*
X18601283Y-12769832D01*
X14201527Y-4240981D02*
X14171491Y-4225827D01*
X13784786Y-13049400D02*
X13911321Y-13206658D01*
X20094383Y-14917532D02*
X20125464Y-14904658D01*
X12048704Y-6859411D02*
G75*
G03*
X12048704Y-6859411I-110000J0D01*
G01*
X12908390Y-5699889D02*
X12863762Y-5723476D01*
X12863762Y-5723476D02*
X12817496Y-5743662D01*
X20287213Y-7863242D02*
X20277207Y-7829821D01*
X13810148Y-4322643D02*
X13791719Y-4350788D01*
X19050699Y-13555777D02*
G75*
G03*
X18714211Y-13409594I-199999J-3D01*
G01*
X11934900Y-5792300D02*
X11901009Y-5798189D01*
X13911347Y-4235559D02*
X13882532Y-4252921D01*
X13973881Y-4211018D02*
X13941925Y-4221533D01*
X12817496Y-5743662D02*
X12769851Y-5760334D01*
X14590145Y-13952916D02*
X14734753Y-14093735D01*
X13941925Y-4221533D02*
X13911347Y-4235559D01*
X20125464Y-14904658D02*
X20154909Y-14888385D01*
X11807987Y-8690995D02*
G75*
G03*
X12004265Y-8852611I196283J38385D01*
G01*
X11638714Y-6873097D02*
X11641027Y-7074928D01*
X11868016Y-5807920D02*
X11836353Y-5821364D01*
X13496504Y-10420491D02*
G75*
G03*
X13496504Y-10420491I-110000J0D01*
G01*
X17463199Y-12628411D02*
G75*
G03*
X17663204Y-12828411I200001J1D01*
G01*
X12400705Y-9052611D02*
X12400705Y-10203553D01*
X15838704Y-14934370D02*
X19995300Y-14934370D01*
X14171491Y-4225827D02*
X14139950Y-4214124D01*
X15775098Y-14927550D02*
X15806719Y-14932660D01*
X18801628Y-12569491D02*
G75*
G03*
X18860204Y-12428068I-141428J141421D01*
G01*
X15340703Y-14626983D02*
X15498762Y-14752516D01*
X20147964Y-8749171D02*
G75*
G03*
X20147964Y-8749171I-160000J0D01*
G01*
X18225199Y-13707911D02*
G75*
G03*
X18425204Y-13907911I200001J1D01*
G01*
X15840134Y-14524379D02*
G75*
G03*
X15836175Y-14744341I-2534J-109971D01*
G01*
X20201172Y-7714215D02*
X20174447Y-7691790D01*
X19050704Y-13555777D02*
X19050704Y-13571068D01*
X18860199Y-8710411D02*
G75*
G03*
X18660204Y-8510411I-199999J1D01*
G01*
X17849264Y-8749171D02*
G75*
G03*
X17849264Y-8749171I-160000J0D01*
G01*
X13831612Y-4296739D02*
X13810148Y-4322643D01*
X20277207Y-7829821D02*
X20263389Y-7797788D01*
X18136543Y-6749410D02*
G75*
G03*
X18136543Y-6969410I-243J-110000D01*
G01*
X12721093Y-5773399D02*
X12671495Y-5782783D01*
X11753393Y-5881975D02*
X11730961Y-5908054D01*
X13882532Y-4252921D02*
X13855842Y-4273400D01*
X13098627Y-5536179D02*
X13065701Y-5574439D01*
X14040308Y-4201006D02*
X14006814Y-4204147D01*
X11670186Y-6066537D02*
X11656214Y-6267898D01*
X11901009Y-5798189D02*
X11868016Y-5807920D01*
X11836353Y-5821364D02*
X11806438Y-5838343D01*
X13496504Y-8784731D02*
G75*
G03*
X13496504Y-8784731I-110000J0D01*
G01*
X13661451Y-12889620D02*
X13784786Y-13049400D01*
X20229849Y-14821416D02*
X20249317Y-14793979D01*
X20293413Y-14667960D02*
X20295300Y-14634370D01*
X11740295Y-8281199D02*
X11771008Y-8480694D01*
X15685983Y-14892588D02*
X15714384Y-14907399D01*
X11711662Y-5936528D02*
X11695750Y-5967025D01*
X19987813Y-14524625D02*
G75*
G03*
X20003071Y-14744096I7487J-109745D01*
G01*
X20295300Y-7932427D02*
X20293271Y-7897599D01*
X17663204Y-9272414D02*
G75*
G03*
X17463204Y-9472411I-4J-199996D01*
G01*
X19749204Y-13050711D02*
X19749204Y-9431111D01*
X14882173Y-14231607D02*
X15032345Y-14366475D01*
X12891749Y-11706138D02*
X12991354Y-11881694D01*
X12353386Y-10312898D02*
G75*
G03*
X12400705Y-10203553I-102686J109348D01*
G01*
X12353384Y-10312895D02*
G75*
G03*
X12316481Y-10477155I102686J-109345D01*
G01*
X17663204Y-9272411D02*
X17824862Y-9272411D01*
X14107298Y-4206026D02*
X14073944Y-4201635D01*
X12447936Y-10800195D02*
X12529347Y-10984893D01*
X14309604Y-13662666D02*
X14448410Y-13809207D01*
X15659323Y-14874833D02*
X15685983Y-14892588D01*
X20182346Y-14868918D02*
X20207431Y-14846501D01*
X19907904Y-9272411D02*
X19908004Y-9272411D01*
X11640475Y-6671260D02*
X11638714Y-6873097D01*
X11969242Y-5790324D02*
X11934900Y-5792300D01*
X17463204Y-12628411D02*
X17463204Y-9472411D01*
X11690978Y-7880554D02*
X11713614Y-8081126D01*
X19908004Y-13209414D02*
G75*
G03*
X20066704Y-13050711I-4J158704D01*
G01*
X18713862Y-13907912D02*
G75*
G03*
X18855283Y-13849332I-2J200002D01*
G01*
X11672394Y-7679567D02*
X11690978Y-7880554D01*
X13541365Y-12727383D02*
X13661451Y-12889620D01*
X11647414Y-7276672D02*
X11657871Y-7478246D01*
X13128602Y-5495565D02*
X13098627Y-5536179D01*
X20207431Y-14846501D02*
X20229849Y-14821416D01*
X14139950Y-4214124D02*
X14107298Y-4206026D01*
X12614469Y-11167911D02*
X12703268Y-11349174D01*
X11771008Y-8480694D02*
X11805741Y-8679528D01*
X13155458Y-5452824D02*
X13128602Y-5495565D01*
X15185209Y-14498285D02*
X15340703Y-14626983D01*
X19908004Y-13209411D02*
X19907904Y-13209411D01*
X13791719Y-4350788D02*
X13155458Y-5452824D01*
X14001431Y-4598719D02*
G75*
G03*
X14099540Y-4401820I50099J97929D01*
G01*
X18166628Y-9013491D02*
G75*
G03*
X18225204Y-8872068I-141428J141421D01*
G01*
X19995300Y-14934370D02*
X20028889Y-14932480D01*
X12400699Y-9052611D02*
G75*
G03*
X12200705Y-8852611I-199999J1D01*
G01*
X20225113Y-7739591D02*
X20201172Y-7714215D01*
X12316480Y-10477155D02*
X12370270Y-10613891D01*
X11695750Y-5967025D02*
X11683434Y-5999143D01*
X11674875Y-6032460D02*
X11670186Y-6066537D01*
X14041005Y-13361331D02*
X14173784Y-13513354D01*
X12991746Y-5643059D02*
X12951132Y-5673033D01*
X13911321Y-13206658D02*
X14041005Y-13361331D01*
X13311139Y-12395805D02*
X13424579Y-12562756D01*
X11730961Y-5908054D02*
X11711662Y-5936528D01*
X18577717Y-13463409D02*
G75*
G03*
X18714211Y-13409594I3J199999D01*
G01*
X18225204Y-13707911D02*
X18225204Y-13663411D01*
X11656214Y-6267898D02*
X11646309Y-6469499D01*
X15498762Y-14752516D02*
X15659323Y-14874833D01*
X14006814Y-4204147D02*
X13973881Y-4211018D01*
X12370270Y-10613891D02*
X12447936Y-10800195D01*
X20174447Y-7691790D02*
X20145300Y-7672619D01*
X13201092Y-12226598D02*
X13311139Y-12395805D01*
X11713614Y-8081126D02*
X11740295Y-8281199D01*
X18992126Y-13712489D02*
X18855283Y-13849332D01*
X18425204Y-8510414D02*
G75*
G03*
X18225204Y-8710411I-4J-199996D01*
G01*
X13424579Y-12562756D02*
X13541365Y-12727383D01*
X12703268Y-11349174D02*
X12795707Y-11528607D01*
X12004265Y-8852611D02*
X12200705Y-8852611D01*
X20153044Y-13709791D02*
G75*
G03*
X20153044Y-13709791I-160000J0D01*
G01*
X13065701Y-5574439D02*
X13030007Y-5610132D01*
X18459862Y-12828412D02*
G75*
G03*
X18601283Y-12769832I-2J200002D01*
G01*
X14173784Y-13513354D02*
X14309604Y-13662666D01*
X20245946Y-7767575D02*
X20225113Y-7739591D01*
X11778662Y-5858636D02*
X11753393Y-5881975D01*
X20066704Y-9431111D02*
X20066704Y-13050711D01*
X17824862Y-9272412D02*
G75*
G03*
X17966283Y-9213832I-2J200002D01*
G01*
X18992128Y-13712491D02*
G75*
G03*
X19050704Y-13571068I-141428J141421D01*
G01*
X18425204Y-13463411D02*
X18577717Y-13463411D01*
X15744203Y-14919097D02*
X15775098Y-14927550D01*
X20293271Y-7897599D02*
X20287213Y-7863242D01*
X20265590Y-14764535D02*
X20278465Y-14733454D01*
X14099539Y-4401822D02*
G75*
G03*
X14001431Y-4598719I-50099J-97928D01*
G01*
X13094483Y-12055204D02*
X13201092Y-12226598D01*
X18425204Y-13463414D02*
G75*
G03*
X18225204Y-13663411I-4J-199996D01*
G01*
X20003071Y-14744093D02*
G75*
G03*
X19987813Y-14524626I-7491J109744D01*
G01*
X12795707Y-11528607D02*
X12891749Y-11706138D01*
X20278465Y-14733454D02*
X20287778Y-14701126D01*
X15836175Y-14744340D02*
G75*
G03*
X15840134Y-14524380I2525J109971D01*
G01*
X12769851Y-5760334D02*
X12721093Y-5773399D01*
X14734753Y-14093735D02*
X14882173Y-14231607D01*
X20154909Y-14888385D02*
X20182346Y-14868918D01*
X12951132Y-5673033D02*
X12908390Y-5699889D01*
X12570891Y-5790324D02*
X11969242Y-5790324D01*
X20295300Y-14634370D02*
X20295300Y-7932427D01*
X15714384Y-14907399D02*
X15744203Y-14919097D01*
X20145300Y-7672619D02*
X14201527Y-4240981D01*
X18860204Y-8710411D02*
X18860204Y-12428068D01*
X11805741Y-8679528D02*
X11807983Y-8690996D01*
X15032345Y-14366475D02*
X15185209Y-14498285D01*
X11806438Y-5838343D02*
X11778662Y-5858636D01*
X18225204Y-8872068D02*
X18225204Y-8710411D01*
X11646309Y-6469499D02*
X11640475Y-6671260D01*
X17849264Y-13709791D02*
G75*
G03*
X17849264Y-13709791I-160000J0D01*
G01*
D11*
X11828000Y-6748000D02*
X12048000Y-6968000D01*
X12048000Y-6748000D02*
X11828000Y-6968000D01*
X13275800Y-8673320D02*
X13495800Y-8893320D01*
X13495800Y-8673320D02*
X13275800Y-8893320D01*
X13275800Y-10309080D02*
X13495800Y-10529080D01*
X13495800Y-10309080D02*
X13275800Y-10529080D01*
X13938740Y-4388340D02*
X14158740Y-4608340D01*
X14158740Y-4388340D02*
X13938740Y-4608340D01*
X15726900Y-14522940D02*
X15946900Y-14742940D01*
X15946900Y-14522940D02*
X15726900Y-14742940D01*
X18025600Y-6748000D02*
X18245600Y-6968000D01*
X18245600Y-6748000D02*
X18025600Y-6968000D01*
X19884880Y-14522940D02*
X20104880Y-14742940D01*
X20104880Y-14522940D02*
X19884880Y-14742940D01*
D12*
X17848560Y-8747760D02*
G75*
G03*
X17848560Y-8747760I-160000J0D01*
G01*
X17848560Y-13708380D02*
G75*
G03*
X17848560Y-13708380I-160000J0D01*
G01*
X20147260Y-8747760D02*
G75*
G03*
X20147260Y-8747760I-160000J0D01*
G01*
X20152340Y-13708380D02*
G75*
G03*
X20152340Y-13708380I-160000J0D01*
G01*
D10*
X11889491Y-15255854D02*
X11889491Y-15055854D01*
X11889491Y-15055854D02*
X11937110Y-15055854D01*
X11937110Y-15055854D02*
X11965681Y-15065378D01*
X11965681Y-15065378D02*
X11984729Y-15084426D01*
X11984729Y-15084426D02*
X11994252Y-15103473D01*
X11994252Y-15103473D02*
X12003776Y-15141568D01*
X12003776Y-15141568D02*
X12003776Y-15170140D01*
X12003776Y-15170140D02*
X11994252Y-15208235D01*
X11994252Y-15208235D02*
X11984729Y-15227283D01*
X11984729Y-15227283D02*
X11965681Y-15246330D01*
X11965681Y-15246330D02*
X11937110Y-15255854D01*
X11937110Y-15255854D02*
X11889491Y-15255854D01*
X12089491Y-15255854D02*
X12089491Y-15122521D01*
X12089491Y-15160616D02*
X12099014Y-15141568D01*
X12099014Y-15141568D02*
X12108538Y-15132045D01*
X12108538Y-15132045D02*
X12127586Y-15122521D01*
X12127586Y-15122521D02*
X12146633Y-15122521D01*
X12213300Y-15255854D02*
X12213300Y-15122521D01*
X12213300Y-15055854D02*
X12203776Y-15065378D01*
X12203776Y-15065378D02*
X12213300Y-15074902D01*
X12213300Y-15074902D02*
X12222824Y-15065378D01*
X12222824Y-15065378D02*
X12213300Y-15055854D01*
X12213300Y-15055854D02*
X12213300Y-15074902D01*
X12337110Y-15255854D02*
X12318062Y-15246330D01*
X12318062Y-15246330D02*
X12308538Y-15227283D01*
X12308538Y-15227283D02*
X12308538Y-15055854D01*
X12441871Y-15255854D02*
X12422824Y-15246330D01*
X12422824Y-15246330D02*
X12413300Y-15227283D01*
X12413300Y-15227283D02*
X12413300Y-15055854D01*
X12670443Y-15255854D02*
X12670443Y-15055854D01*
X12670443Y-15055854D02*
X12737110Y-15198711D01*
X12737110Y-15198711D02*
X12803776Y-15055854D01*
X12803776Y-15055854D02*
X12803776Y-15255854D01*
X12984729Y-15255854D02*
X12984729Y-15151092D01*
X12984729Y-15151092D02*
X12975205Y-15132045D01*
X12975205Y-15132045D02*
X12956157Y-15122521D01*
X12956157Y-15122521D02*
X12918062Y-15122521D01*
X12918062Y-15122521D02*
X12899014Y-15132045D01*
X12984729Y-15246330D02*
X12965681Y-15255854D01*
X12965681Y-15255854D02*
X12918062Y-15255854D01*
X12918062Y-15255854D02*
X12899014Y-15246330D01*
X12899014Y-15246330D02*
X12889491Y-15227283D01*
X12889491Y-15227283D02*
X12889491Y-15208235D01*
X12889491Y-15208235D02*
X12899014Y-15189188D01*
X12899014Y-15189188D02*
X12918062Y-15179664D01*
X12918062Y-15179664D02*
X12965681Y-15179664D01*
X12965681Y-15179664D02*
X12984729Y-15170140D01*
X13079967Y-15122521D02*
X13079967Y-15322521D01*
X13079967Y-15132045D02*
X13099014Y-15122521D01*
X13099014Y-15122521D02*
X13137110Y-15122521D01*
X13137110Y-15122521D02*
X13156157Y-15132045D01*
X13156157Y-15132045D02*
X13165681Y-15141568D01*
X13165681Y-15141568D02*
X13175205Y-15160616D01*
X13175205Y-15160616D02*
X13175205Y-15217759D01*
X13175205Y-15217759D02*
X13165681Y-15236807D01*
X13165681Y-15236807D02*
X13156157Y-15246330D01*
X13156157Y-15246330D02*
X13137110Y-15255854D01*
X13137110Y-15255854D02*
X13099014Y-15255854D01*
X13099014Y-15255854D02*
X13079967Y-15246330D01*
X13260919Y-15236807D02*
X13270443Y-15246330D01*
X13270443Y-15246330D02*
X13260919Y-15255854D01*
X13260919Y-15255854D02*
X13251395Y-15246330D01*
X13251395Y-15246330D02*
X13260919Y-15236807D01*
X13260919Y-15236807D02*
X13260919Y-15255854D01*
X13260919Y-15132045D02*
X13270443Y-15141568D01*
X13270443Y-15141568D02*
X13260919Y-15151092D01*
X13260919Y-15151092D02*
X13251395Y-15141568D01*
X13251395Y-15141568D02*
X13260919Y-15132045D01*
X13260919Y-15132045D02*
X13260919Y-15151092D01*
X11428714Y-15484370D02*
X11628714Y-15684370D01*
X11628714Y-15484370D02*
X11428714Y-15684370D01*
X11879967Y-15494902D02*
X11889491Y-15485378D01*
X11889491Y-15485378D02*
X11908538Y-15475854D01*
X11908538Y-15475854D02*
X11956157Y-15475854D01*
X11956157Y-15475854D02*
X11975205Y-15485378D01*
X11975205Y-15485378D02*
X11984729Y-15494902D01*
X11984729Y-15494902D02*
X11994252Y-15513949D01*
X11994252Y-15513949D02*
X11994252Y-15532997D01*
X11994252Y-15532997D02*
X11984729Y-15561568D01*
X11984729Y-15561568D02*
X11870443Y-15675854D01*
X11870443Y-15675854D02*
X11994252Y-15675854D01*
X12079967Y-15656807D02*
X12089491Y-15666330D01*
X12089491Y-15666330D02*
X12079967Y-15675854D01*
X12079967Y-15675854D02*
X12070443Y-15666330D01*
X12070443Y-15666330D02*
X12079967Y-15656807D01*
X12079967Y-15656807D02*
X12079967Y-15675854D01*
X12165681Y-15494902D02*
X12175205Y-15485378D01*
X12175205Y-15485378D02*
X12194252Y-15475854D01*
X12194252Y-15475854D02*
X12241872Y-15475854D01*
X12241872Y-15475854D02*
X12260919Y-15485378D01*
X12260919Y-15485378D02*
X12270443Y-15494902D01*
X12270443Y-15494902D02*
X12279967Y-15513949D01*
X12279967Y-15513949D02*
X12279967Y-15532997D01*
X12279967Y-15532997D02*
X12270443Y-15561568D01*
X12270443Y-15561568D02*
X12156157Y-15675854D01*
X12156157Y-15675854D02*
X12279967Y-15675854D01*
X12403776Y-15475854D02*
X12422824Y-15475854D01*
X12422824Y-15475854D02*
X12441872Y-15485378D01*
X12441872Y-15485378D02*
X12451395Y-15494902D01*
X12451395Y-15494902D02*
X12460919Y-15513949D01*
X12460919Y-15513949D02*
X12470443Y-15552045D01*
X12470443Y-15552045D02*
X12470443Y-15599664D01*
X12470443Y-15599664D02*
X12460919Y-15637759D01*
X12460919Y-15637759D02*
X12451395Y-15656807D01*
X12451395Y-15656807D02*
X12441872Y-15666330D01*
X12441872Y-15666330D02*
X12422824Y-15675854D01*
X12422824Y-15675854D02*
X12403776Y-15675854D01*
X12403776Y-15675854D02*
X12384729Y-15666330D01*
X12384729Y-15666330D02*
X12375205Y-15656807D01*
X12375205Y-15656807D02*
X12365681Y-15637759D01*
X12365681Y-15637759D02*
X12356157Y-15599664D01*
X12356157Y-15599664D02*
X12356157Y-15552045D01*
X12356157Y-15552045D02*
X12365681Y-15513949D01*
X12365681Y-15513949D02*
X12375205Y-15494902D01*
X12375205Y-15494902D02*
X12384729Y-15485378D01*
X12384729Y-15485378D02*
X12403776Y-15475854D01*
X12594252Y-15475854D02*
X12613300Y-15475854D01*
X12613300Y-15475854D02*
X12632348Y-15485378D01*
X12632348Y-15485378D02*
X12641872Y-15494902D01*
X12641872Y-15494902D02*
X12651395Y-15513949D01*
X12651395Y-15513949D02*
X12660919Y-15552045D01*
X12660919Y-15552045D02*
X12660919Y-15599664D01*
X12660919Y-15599664D02*
X12651395Y-15637759D01*
X12651395Y-15637759D02*
X12641872Y-15656807D01*
X12641872Y-15656807D02*
X12632348Y-15666330D01*
X12632348Y-15666330D02*
X12613300Y-15675854D01*
X12613300Y-15675854D02*
X12594252Y-15675854D01*
X12594252Y-15675854D02*
X12575205Y-15666330D01*
X12575205Y-15666330D02*
X12565681Y-15656807D01*
X12565681Y-15656807D02*
X12556157Y-15637759D01*
X12556157Y-15637759D02*
X12546633Y-15599664D01*
X12546633Y-15599664D02*
X12546633Y-15552045D01*
X12546633Y-15552045D02*
X12556157Y-15513949D01*
X12556157Y-15513949D02*
X12565681Y-15494902D01*
X12565681Y-15494902D02*
X12575205Y-15485378D01*
X12575205Y-15485378D02*
X12594252Y-15475854D01*
X12746633Y-15675854D02*
X12746633Y-15542521D01*
X12746633Y-15561568D02*
X12756157Y-15552045D01*
X12756157Y-15552045D02*
X12775205Y-15542521D01*
X12775205Y-15542521D02*
X12803776Y-15542521D01*
X12803776Y-15542521D02*
X12822824Y-15552045D01*
X12822824Y-15552045D02*
X12832348Y-15571092D01*
X12832348Y-15571092D02*
X12832348Y-15675854D01*
X12832348Y-15571092D02*
X12841872Y-15552045D01*
X12841872Y-15552045D02*
X12860919Y-15542521D01*
X12860919Y-15542521D02*
X12889491Y-15542521D01*
X12889491Y-15542521D02*
X12908538Y-15552045D01*
X12908538Y-15552045D02*
X12918062Y-15571092D01*
X12918062Y-15571092D02*
X12918062Y-15675854D01*
X13013300Y-15675854D02*
X13013300Y-15542521D01*
X13013300Y-15561568D02*
X13022824Y-15552045D01*
X13022824Y-15552045D02*
X13041872Y-15542521D01*
X13041872Y-15542521D02*
X13070443Y-15542521D01*
X13070443Y-15542521D02*
X13089491Y-15552045D01*
X13089491Y-15552045D02*
X13099014Y-15571092D01*
X13099014Y-15571092D02*
X13099014Y-15675854D01*
X13099014Y-15571092D02*
X13108538Y-15552045D01*
X13108538Y-15552045D02*
X13127586Y-15542521D01*
X13127586Y-15542521D02*
X13156157Y-15542521D01*
X13156157Y-15542521D02*
X13175205Y-15552045D01*
X13175205Y-15552045D02*
X13184729Y-15571092D01*
X13184729Y-15571092D02*
X13184729Y-15675854D01*
X13575205Y-15466330D02*
X13403776Y-15723473D01*
X13832348Y-15475854D02*
X13851396Y-15475854D01*
X13851396Y-15475854D02*
X13870443Y-15485378D01*
X13870443Y-15485378D02*
X13879967Y-15494902D01*
X13879967Y-15494902D02*
X13889491Y-15513949D01*
X13889491Y-15513949D02*
X13899015Y-15552045D01*
X13899015Y-15552045D02*
X13899015Y-15599664D01*
X13899015Y-15599664D02*
X13889491Y-15637759D01*
X13889491Y-15637759D02*
X13879967Y-15656807D01*
X13879967Y-15656807D02*
X13870443Y-15666330D01*
X13870443Y-15666330D02*
X13851396Y-15675854D01*
X13851396Y-15675854D02*
X13832348Y-15675854D01*
X13832348Y-15675854D02*
X13813300Y-15666330D01*
X13813300Y-15666330D02*
X13803776Y-15656807D01*
X13803776Y-15656807D02*
X13794253Y-15637759D01*
X13794253Y-15637759D02*
X13784729Y-15599664D01*
X13784729Y-15599664D02*
X13784729Y-15552045D01*
X13784729Y-15552045D02*
X13794253Y-15513949D01*
X13794253Y-15513949D02*
X13803776Y-15494902D01*
X13803776Y-15494902D02*
X13813300Y-15485378D01*
X13813300Y-15485378D02*
X13832348Y-15475854D01*
X13984729Y-15656807D02*
X13994253Y-15666330D01*
X13994253Y-15666330D02*
X13984729Y-15675854D01*
X13984729Y-15675854D02*
X13975205Y-15666330D01*
X13975205Y-15666330D02*
X13984729Y-15656807D01*
X13984729Y-15656807D02*
X13984729Y-15675854D01*
X14118062Y-15475854D02*
X14137110Y-15475854D01*
X14137110Y-15475854D02*
X14156157Y-15485378D01*
X14156157Y-15485378D02*
X14165681Y-15494902D01*
X14165681Y-15494902D02*
X14175205Y-15513949D01*
X14175205Y-15513949D02*
X14184729Y-15552045D01*
X14184729Y-15552045D02*
X14184729Y-15599664D01*
X14184729Y-15599664D02*
X14175205Y-15637759D01*
X14175205Y-15637759D02*
X14165681Y-15656807D01*
X14165681Y-15656807D02*
X14156157Y-15666330D01*
X14156157Y-15666330D02*
X14137110Y-15675854D01*
X14137110Y-15675854D02*
X14118062Y-15675854D01*
X14118062Y-15675854D02*
X14099015Y-15666330D01*
X14099015Y-15666330D02*
X14089491Y-15656807D01*
X14089491Y-15656807D02*
X14079967Y-15637759D01*
X14079967Y-15637759D02*
X14070443Y-15599664D01*
X14070443Y-15599664D02*
X14070443Y-15552045D01*
X14070443Y-15552045D02*
X14079967Y-15513949D01*
X14079967Y-15513949D02*
X14089491Y-15494902D01*
X14089491Y-15494902D02*
X14099015Y-15485378D01*
X14099015Y-15485378D02*
X14118062Y-15475854D01*
X14299015Y-15561568D02*
X14279967Y-15552045D01*
X14279967Y-15552045D02*
X14270443Y-15542521D01*
X14270443Y-15542521D02*
X14260919Y-15523473D01*
X14260919Y-15523473D02*
X14260919Y-15513949D01*
X14260919Y-15513949D02*
X14270443Y-15494902D01*
X14270443Y-15494902D02*
X14279967Y-15485378D01*
X14279967Y-15485378D02*
X14299015Y-15475854D01*
X14299015Y-15475854D02*
X14337110Y-15475854D01*
X14337110Y-15475854D02*
X14356157Y-15485378D01*
X14356157Y-15485378D02*
X14365681Y-15494902D01*
X14365681Y-15494902D02*
X14375205Y-15513949D01*
X14375205Y-15513949D02*
X14375205Y-15523473D01*
X14375205Y-15523473D02*
X14365681Y-15542521D01*
X14365681Y-15542521D02*
X14356157Y-15552045D01*
X14356157Y-15552045D02*
X14337110Y-15561568D01*
X14337110Y-15561568D02*
X14299015Y-15561568D01*
X14299015Y-15561568D02*
X14279967Y-15571092D01*
X14279967Y-15571092D02*
X14270443Y-15580616D01*
X14270443Y-15580616D02*
X14260919Y-15599664D01*
X14260919Y-15599664D02*
X14260919Y-15637759D01*
X14260919Y-15637759D02*
X14270443Y-15656807D01*
X14270443Y-15656807D02*
X14279967Y-15666330D01*
X14279967Y-15666330D02*
X14299015Y-15675854D01*
X14299015Y-15675854D02*
X14337110Y-15675854D01*
X14337110Y-15675854D02*
X14356157Y-15666330D01*
X14356157Y-15666330D02*
X14365681Y-15656807D01*
X14365681Y-15656807D02*
X14375205Y-15637759D01*
X14375205Y-15637759D02*
X14375205Y-15599664D01*
X14375205Y-15599664D02*
X14365681Y-15580616D01*
X14365681Y-15580616D02*
X14356157Y-15571092D01*
X14356157Y-15571092D02*
X14337110Y-15561568D01*
X14546634Y-15475854D02*
X14508538Y-15475854D01*
X14508538Y-15475854D02*
X14489491Y-15485378D01*
X14489491Y-15485378D02*
X14479967Y-15494902D01*
X14479967Y-15494902D02*
X14460919Y-15523473D01*
X14460919Y-15523473D02*
X14451396Y-15561568D01*
X14451396Y-15561568D02*
X14451396Y-15637759D01*
X14451396Y-15637759D02*
X14460919Y-15656807D01*
X14460919Y-15656807D02*
X14470443Y-15666330D01*
X14470443Y-15666330D02*
X14489491Y-15675854D01*
X14489491Y-15675854D02*
X14527586Y-15675854D01*
X14527586Y-15675854D02*
X14546634Y-15666330D01*
X14546634Y-15666330D02*
X14556157Y-15656807D01*
X14556157Y-15656807D02*
X14565681Y-15637759D01*
X14565681Y-15637759D02*
X14565681Y-15590140D01*
X14565681Y-15590140D02*
X14556157Y-15571092D01*
X14556157Y-15571092D02*
X14546634Y-15561568D01*
X14546634Y-15561568D02*
X14527586Y-15552045D01*
X14527586Y-15552045D02*
X14489491Y-15552045D01*
X14489491Y-15552045D02*
X14470443Y-15561568D01*
X14470443Y-15561568D02*
X14460919Y-15571092D01*
X14460919Y-15571092D02*
X14451396Y-15590140D01*
X14737110Y-15475854D02*
X14699015Y-15475854D01*
X14699015Y-15475854D02*
X14679967Y-15485378D01*
X14679967Y-15485378D02*
X14670443Y-15494902D01*
X14670443Y-15494902D02*
X14651396Y-15523473D01*
X14651396Y-15523473D02*
X14641872Y-15561568D01*
X14641872Y-15561568D02*
X14641872Y-15637759D01*
X14641872Y-15637759D02*
X14651396Y-15656807D01*
X14651396Y-15656807D02*
X14660919Y-15666330D01*
X14660919Y-15666330D02*
X14679967Y-15675854D01*
X14679967Y-15675854D02*
X14718062Y-15675854D01*
X14718062Y-15675854D02*
X14737110Y-15666330D01*
X14737110Y-15666330D02*
X14746634Y-15656807D01*
X14746634Y-15656807D02*
X14756157Y-15637759D01*
X14756157Y-15637759D02*
X14756157Y-15590140D01*
X14756157Y-15590140D02*
X14746634Y-15571092D01*
X14746634Y-15571092D02*
X14737110Y-15561568D01*
X14737110Y-15561568D02*
X14718062Y-15552045D01*
X14718062Y-15552045D02*
X14679967Y-15552045D01*
X14679967Y-15552045D02*
X14660919Y-15561568D01*
X14660919Y-15561568D02*
X14651396Y-15571092D01*
X14651396Y-15571092D02*
X14641872Y-15590140D01*
X14832348Y-15475854D02*
X14832348Y-15513949D01*
X14908538Y-15475854D02*
X14908538Y-15513949D01*
X15203777Y-15752045D02*
X15194253Y-15742521D01*
X15194253Y-15742521D02*
X15175205Y-15713949D01*
X15175205Y-15713949D02*
X15165681Y-15694902D01*
X15165681Y-15694902D02*
X15156158Y-15666330D01*
X15156158Y-15666330D02*
X15146634Y-15618711D01*
X15146634Y-15618711D02*
X15146634Y-15580616D01*
X15146634Y-15580616D02*
X15156158Y-15532997D01*
X15156158Y-15532997D02*
X15165681Y-15504426D01*
X15165681Y-15504426D02*
X15175205Y-15485378D01*
X15175205Y-15485378D02*
X15194253Y-15456807D01*
X15194253Y-15456807D02*
X15203777Y-15447283D01*
X15260919Y-15475854D02*
X15394253Y-15475854D01*
X15394253Y-15475854D02*
X15308538Y-15675854D01*
X15622824Y-15675854D02*
X15622824Y-15475854D01*
X15708539Y-15675854D02*
X15708539Y-15571092D01*
X15708539Y-15571092D02*
X15699015Y-15552045D01*
X15699015Y-15552045D02*
X15679967Y-15542521D01*
X15679967Y-15542521D02*
X15651396Y-15542521D01*
X15651396Y-15542521D02*
X15632348Y-15552045D01*
X15632348Y-15552045D02*
X15622824Y-15561568D01*
X15832348Y-15675854D02*
X15813300Y-15666330D01*
X15813300Y-15666330D02*
X15803777Y-15656807D01*
X15803777Y-15656807D02*
X15794253Y-15637759D01*
X15794253Y-15637759D02*
X15794253Y-15580616D01*
X15794253Y-15580616D02*
X15803777Y-15561568D01*
X15803777Y-15561568D02*
X15813300Y-15552045D01*
X15813300Y-15552045D02*
X15832348Y-15542521D01*
X15832348Y-15542521D02*
X15860920Y-15542521D01*
X15860920Y-15542521D02*
X15879967Y-15552045D01*
X15879967Y-15552045D02*
X15889491Y-15561568D01*
X15889491Y-15561568D02*
X15899015Y-15580616D01*
X15899015Y-15580616D02*
X15899015Y-15637759D01*
X15899015Y-15637759D02*
X15889491Y-15656807D01*
X15889491Y-15656807D02*
X15879967Y-15666330D01*
X15879967Y-15666330D02*
X15860920Y-15675854D01*
X15860920Y-15675854D02*
X15832348Y-15675854D01*
X16013300Y-15675854D02*
X15994253Y-15666330D01*
X15994253Y-15666330D02*
X15984729Y-15647283D01*
X15984729Y-15647283D02*
X15984729Y-15475854D01*
X16165681Y-15666330D02*
X16146634Y-15675854D01*
X16146634Y-15675854D02*
X16108539Y-15675854D01*
X16108539Y-15675854D02*
X16089491Y-15666330D01*
X16089491Y-15666330D02*
X16079967Y-15647283D01*
X16079967Y-15647283D02*
X16079967Y-15571092D01*
X16079967Y-15571092D02*
X16089491Y-15552045D01*
X16089491Y-15552045D02*
X16108539Y-15542521D01*
X16108539Y-15542521D02*
X16146634Y-15542521D01*
X16146634Y-15542521D02*
X16165681Y-15552045D01*
X16165681Y-15552045D02*
X16175205Y-15571092D01*
X16175205Y-15571092D02*
X16175205Y-15590140D01*
X16175205Y-15590140D02*
X16079967Y-15609188D01*
X16251396Y-15666330D02*
X16270443Y-15675854D01*
X16270443Y-15675854D02*
X16308539Y-15675854D01*
X16308539Y-15675854D02*
X16327586Y-15666330D01*
X16327586Y-15666330D02*
X16337110Y-15647283D01*
X16337110Y-15647283D02*
X16337110Y-15637759D01*
X16337110Y-15637759D02*
X16327586Y-15618711D01*
X16327586Y-15618711D02*
X16308539Y-15609188D01*
X16308539Y-15609188D02*
X16279967Y-15609188D01*
X16279967Y-15609188D02*
X16260920Y-15599664D01*
X16260920Y-15599664D02*
X16251396Y-15580616D01*
X16251396Y-15580616D02*
X16251396Y-15571092D01*
X16251396Y-15571092D02*
X16260920Y-15552045D01*
X16260920Y-15552045D02*
X16279967Y-15542521D01*
X16279967Y-15542521D02*
X16308539Y-15542521D01*
X16308539Y-15542521D02*
X16327586Y-15552045D01*
X16403777Y-15752045D02*
X16413301Y-15742521D01*
X16413301Y-15742521D02*
X16432348Y-15713949D01*
X16432348Y-15713949D02*
X16441872Y-15694902D01*
X16441872Y-15694902D02*
X16451396Y-15666330D01*
X16451396Y-15666330D02*
X16460920Y-15618711D01*
X16460920Y-15618711D02*
X16460920Y-15580616D01*
X16460920Y-15580616D02*
X16451396Y-15532997D01*
X16451396Y-15532997D02*
X16441872Y-15504426D01*
X16441872Y-15504426D02*
X16432348Y-15485378D01*
X16432348Y-15485378D02*
X16413301Y-15456807D01*
X16413301Y-15456807D02*
X16403777Y-15447283D01*
X16765682Y-15752045D02*
X16756158Y-15742521D01*
X16756158Y-15742521D02*
X16737110Y-15713949D01*
X16737110Y-15713949D02*
X16727586Y-15694902D01*
X16727586Y-15694902D02*
X16718062Y-15666330D01*
X16718062Y-15666330D02*
X16708539Y-15618711D01*
X16708539Y-15618711D02*
X16708539Y-15580616D01*
X16708539Y-15580616D02*
X16718062Y-15532997D01*
X16718062Y-15532997D02*
X16727586Y-15504426D01*
X16727586Y-15504426D02*
X16737110Y-15485378D01*
X16737110Y-15485378D02*
X16756158Y-15456807D01*
X16756158Y-15456807D02*
X16765682Y-15447283D01*
X16841872Y-15542521D02*
X16841872Y-15675854D01*
X16841872Y-15561568D02*
X16851396Y-15552045D01*
X16851396Y-15552045D02*
X16870443Y-15542521D01*
X16870443Y-15542521D02*
X16899015Y-15542521D01*
X16899015Y-15542521D02*
X16918063Y-15552045D01*
X16918063Y-15552045D02*
X16927586Y-15571092D01*
X16927586Y-15571092D02*
X16927586Y-15675854D01*
X17051396Y-15675854D02*
X17032348Y-15666330D01*
X17032348Y-15666330D02*
X17022824Y-15656807D01*
X17022824Y-15656807D02*
X17013301Y-15637759D01*
X17013301Y-15637759D02*
X17013301Y-15580616D01*
X17013301Y-15580616D02*
X17022824Y-15561568D01*
X17022824Y-15561568D02*
X17032348Y-15552045D01*
X17032348Y-15552045D02*
X17051396Y-15542521D01*
X17051396Y-15542521D02*
X17079967Y-15542521D01*
X17079967Y-15542521D02*
X17099015Y-15552045D01*
X17099015Y-15552045D02*
X17108539Y-15561568D01*
X17108539Y-15561568D02*
X17118063Y-15580616D01*
X17118063Y-15580616D02*
X17118063Y-15637759D01*
X17118063Y-15637759D02*
X17108539Y-15656807D01*
X17108539Y-15656807D02*
X17099015Y-15666330D01*
X17099015Y-15666330D02*
X17079967Y-15675854D01*
X17079967Y-15675854D02*
X17051396Y-15675854D01*
X17175205Y-15542521D02*
X17251396Y-15542521D01*
X17203777Y-15475854D02*
X17203777Y-15647283D01*
X17203777Y-15647283D02*
X17213301Y-15666330D01*
X17213301Y-15666330D02*
X17232348Y-15675854D01*
X17232348Y-15675854D02*
X17251396Y-15675854D01*
X17470444Y-15542521D02*
X17470444Y-15742521D01*
X17470444Y-15552045D02*
X17489491Y-15542521D01*
X17489491Y-15542521D02*
X17527586Y-15542521D01*
X17527586Y-15542521D02*
X17546634Y-15552045D01*
X17546634Y-15552045D02*
X17556158Y-15561568D01*
X17556158Y-15561568D02*
X17565682Y-15580616D01*
X17565682Y-15580616D02*
X17565682Y-15637759D01*
X17565682Y-15637759D02*
X17556158Y-15656807D01*
X17556158Y-15656807D02*
X17546634Y-15666330D01*
X17546634Y-15666330D02*
X17527586Y-15675854D01*
X17527586Y-15675854D02*
X17489491Y-15675854D01*
X17489491Y-15675854D02*
X17470444Y-15666330D01*
X17679967Y-15675854D02*
X17660920Y-15666330D01*
X17660920Y-15666330D02*
X17651396Y-15647283D01*
X17651396Y-15647283D02*
X17651396Y-15475854D01*
X17841872Y-15675854D02*
X17841872Y-15571092D01*
X17841872Y-15571092D02*
X17832348Y-15552045D01*
X17832348Y-15552045D02*
X17813301Y-15542521D01*
X17813301Y-15542521D02*
X17775205Y-15542521D01*
X17775205Y-15542521D02*
X17756158Y-15552045D01*
X17841872Y-15666330D02*
X17822825Y-15675854D01*
X17822825Y-15675854D02*
X17775205Y-15675854D01*
X17775205Y-15675854D02*
X17756158Y-15666330D01*
X17756158Y-15666330D02*
X17746634Y-15647283D01*
X17746634Y-15647283D02*
X17746634Y-15628235D01*
X17746634Y-15628235D02*
X17756158Y-15609188D01*
X17756158Y-15609188D02*
X17775205Y-15599664D01*
X17775205Y-15599664D02*
X17822825Y-15599664D01*
X17822825Y-15599664D02*
X17841872Y-15590140D01*
X17908539Y-15542521D02*
X17984729Y-15542521D01*
X17937110Y-15475854D02*
X17937110Y-15647283D01*
X17937110Y-15647283D02*
X17946634Y-15666330D01*
X17946634Y-15666330D02*
X17965682Y-15675854D01*
X17965682Y-15675854D02*
X17984729Y-15675854D01*
X18127586Y-15666330D02*
X18108539Y-15675854D01*
X18108539Y-15675854D02*
X18070444Y-15675854D01*
X18070444Y-15675854D02*
X18051396Y-15666330D01*
X18051396Y-15666330D02*
X18041872Y-15647283D01*
X18041872Y-15647283D02*
X18041872Y-15571092D01*
X18041872Y-15571092D02*
X18051396Y-15552045D01*
X18051396Y-15552045D02*
X18070444Y-15542521D01*
X18070444Y-15542521D02*
X18108539Y-15542521D01*
X18108539Y-15542521D02*
X18127586Y-15552045D01*
X18127586Y-15552045D02*
X18137110Y-15571092D01*
X18137110Y-15571092D02*
X18137110Y-15590140D01*
X18137110Y-15590140D02*
X18041872Y-15609188D01*
X18308539Y-15675854D02*
X18308539Y-15475854D01*
X18308539Y-15666330D02*
X18289491Y-15675854D01*
X18289491Y-15675854D02*
X18251396Y-15675854D01*
X18251396Y-15675854D02*
X18232348Y-15666330D01*
X18232348Y-15666330D02*
X18222825Y-15656807D01*
X18222825Y-15656807D02*
X18213301Y-15637759D01*
X18213301Y-15637759D02*
X18213301Y-15580616D01*
X18213301Y-15580616D02*
X18222825Y-15561568D01*
X18222825Y-15561568D02*
X18232348Y-15552045D01*
X18232348Y-15552045D02*
X18251396Y-15542521D01*
X18251396Y-15542521D02*
X18289491Y-15542521D01*
X18289491Y-15542521D02*
X18308539Y-15552045D01*
X18384729Y-15752045D02*
X18394253Y-15742521D01*
X18394253Y-15742521D02*
X18413301Y-15713949D01*
X18413301Y-15713949D02*
X18422825Y-15694902D01*
X18422825Y-15694902D02*
X18432348Y-15666330D01*
X18432348Y-15666330D02*
X18441872Y-15618711D01*
X18441872Y-15618711D02*
X18441872Y-15580616D01*
X18441872Y-15580616D02*
X18432348Y-15532997D01*
X18432348Y-15532997D02*
X18422825Y-15504426D01*
X18422825Y-15504426D02*
X18413301Y-15485378D01*
X18413301Y-15485378D02*
X18394253Y-15456807D01*
X18394253Y-15456807D02*
X18384729Y-15447283D01*
X11628714Y-15904370D02*
G75*
G03*
X11628714Y-15904370I-100000J0D01*
G01*
X11870443Y-15795854D02*
X11994252Y-15795854D01*
X11994252Y-15795854D02*
X11927586Y-15872045D01*
X11927586Y-15872045D02*
X11956157Y-15872045D01*
X11956157Y-15872045D02*
X11975205Y-15881568D01*
X11975205Y-15881568D02*
X11984729Y-15891092D01*
X11984729Y-15891092D02*
X11994252Y-15910140D01*
X11994252Y-15910140D02*
X11994252Y-15957759D01*
X11994252Y-15957759D02*
X11984729Y-15976807D01*
X11984729Y-15976807D02*
X11975205Y-15986330D01*
X11975205Y-15986330D02*
X11956157Y-15995854D01*
X11956157Y-15995854D02*
X11899014Y-15995854D01*
X11899014Y-15995854D02*
X11879967Y-15986330D01*
X11879967Y-15986330D02*
X11870443Y-15976807D01*
X12079967Y-15976807D02*
X12089491Y-15986330D01*
X12089491Y-15986330D02*
X12079967Y-15995854D01*
X12079967Y-15995854D02*
X12070443Y-15986330D01*
X12070443Y-15986330D02*
X12079967Y-15976807D01*
X12079967Y-15976807D02*
X12079967Y-15995854D01*
X12165681Y-15814902D02*
X12175205Y-15805378D01*
X12175205Y-15805378D02*
X12194252Y-15795854D01*
X12194252Y-15795854D02*
X12241872Y-15795854D01*
X12241872Y-15795854D02*
X12260919Y-15805378D01*
X12260919Y-15805378D02*
X12270443Y-15814902D01*
X12270443Y-15814902D02*
X12279967Y-15833949D01*
X12279967Y-15833949D02*
X12279967Y-15852997D01*
X12279967Y-15852997D02*
X12270443Y-15881568D01*
X12270443Y-15881568D02*
X12156157Y-15995854D01*
X12156157Y-15995854D02*
X12279967Y-15995854D01*
X12403776Y-15795854D02*
X12422824Y-15795854D01*
X12422824Y-15795854D02*
X12441872Y-15805378D01*
X12441872Y-15805378D02*
X12451395Y-15814902D01*
X12451395Y-15814902D02*
X12460919Y-15833949D01*
X12460919Y-15833949D02*
X12470443Y-15872045D01*
X12470443Y-15872045D02*
X12470443Y-15919664D01*
X12470443Y-15919664D02*
X12460919Y-15957759D01*
X12460919Y-15957759D02*
X12451395Y-15976807D01*
X12451395Y-15976807D02*
X12441872Y-15986330D01*
X12441872Y-15986330D02*
X12422824Y-15995854D01*
X12422824Y-15995854D02*
X12403776Y-15995854D01*
X12403776Y-15995854D02*
X12384729Y-15986330D01*
X12384729Y-15986330D02*
X12375205Y-15976807D01*
X12375205Y-15976807D02*
X12365681Y-15957759D01*
X12365681Y-15957759D02*
X12356157Y-15919664D01*
X12356157Y-15919664D02*
X12356157Y-15872045D01*
X12356157Y-15872045D02*
X12365681Y-15833949D01*
X12365681Y-15833949D02*
X12375205Y-15814902D01*
X12375205Y-15814902D02*
X12384729Y-15805378D01*
X12384729Y-15805378D02*
X12403776Y-15795854D01*
X12594252Y-15795854D02*
X12613300Y-15795854D01*
X12613300Y-15795854D02*
X12632348Y-15805378D01*
X12632348Y-15805378D02*
X12641872Y-15814902D01*
X12641872Y-15814902D02*
X12651395Y-15833949D01*
X12651395Y-15833949D02*
X12660919Y-15872045D01*
X12660919Y-15872045D02*
X12660919Y-15919664D01*
X12660919Y-15919664D02*
X12651395Y-15957759D01*
X12651395Y-15957759D02*
X12641872Y-15976807D01*
X12641872Y-15976807D02*
X12632348Y-15986330D01*
X12632348Y-15986330D02*
X12613300Y-15995854D01*
X12613300Y-15995854D02*
X12594252Y-15995854D01*
X12594252Y-15995854D02*
X12575205Y-15986330D01*
X12575205Y-15986330D02*
X12565681Y-15976807D01*
X12565681Y-15976807D02*
X12556157Y-15957759D01*
X12556157Y-15957759D02*
X12546633Y-15919664D01*
X12546633Y-15919664D02*
X12546633Y-15872045D01*
X12546633Y-15872045D02*
X12556157Y-15833949D01*
X12556157Y-15833949D02*
X12565681Y-15814902D01*
X12565681Y-15814902D02*
X12575205Y-15805378D01*
X12575205Y-15805378D02*
X12594252Y-15795854D01*
X12746633Y-15995854D02*
X12746633Y-15862521D01*
X12746633Y-15881568D02*
X12756157Y-15872045D01*
X12756157Y-15872045D02*
X12775205Y-15862521D01*
X12775205Y-15862521D02*
X12803776Y-15862521D01*
X12803776Y-15862521D02*
X12822824Y-15872045D01*
X12822824Y-15872045D02*
X12832348Y-15891092D01*
X12832348Y-15891092D02*
X12832348Y-15995854D01*
X12832348Y-15891092D02*
X12841872Y-15872045D01*
X12841872Y-15872045D02*
X12860919Y-15862521D01*
X12860919Y-15862521D02*
X12889491Y-15862521D01*
X12889491Y-15862521D02*
X12908538Y-15872045D01*
X12908538Y-15872045D02*
X12918062Y-15891092D01*
X12918062Y-15891092D02*
X12918062Y-15995854D01*
X13013300Y-15995854D02*
X13013300Y-15862521D01*
X13013300Y-15881568D02*
X13022824Y-15872045D01*
X13022824Y-15872045D02*
X13041872Y-15862521D01*
X13041872Y-15862521D02*
X13070443Y-15862521D01*
X13070443Y-15862521D02*
X13089491Y-15872045D01*
X13089491Y-15872045D02*
X13099014Y-15891092D01*
X13099014Y-15891092D02*
X13099014Y-15995854D01*
X13099014Y-15891092D02*
X13108538Y-15872045D01*
X13108538Y-15872045D02*
X13127586Y-15862521D01*
X13127586Y-15862521D02*
X13156157Y-15862521D01*
X13156157Y-15862521D02*
X13175205Y-15872045D01*
X13175205Y-15872045D02*
X13184729Y-15891092D01*
X13184729Y-15891092D02*
X13184729Y-15995854D01*
X13575205Y-15786330D02*
X13403776Y-16043473D01*
X13832348Y-15795854D02*
X13851396Y-15795854D01*
X13851396Y-15795854D02*
X13870443Y-15805378D01*
X13870443Y-15805378D02*
X13879967Y-15814902D01*
X13879967Y-15814902D02*
X13889491Y-15833949D01*
X13889491Y-15833949D02*
X13899015Y-15872045D01*
X13899015Y-15872045D02*
X13899015Y-15919664D01*
X13899015Y-15919664D02*
X13889491Y-15957759D01*
X13889491Y-15957759D02*
X13879967Y-15976807D01*
X13879967Y-15976807D02*
X13870443Y-15986330D01*
X13870443Y-15986330D02*
X13851396Y-15995854D01*
X13851396Y-15995854D02*
X13832348Y-15995854D01*
X13832348Y-15995854D02*
X13813300Y-15986330D01*
X13813300Y-15986330D02*
X13803776Y-15976807D01*
X13803776Y-15976807D02*
X13794253Y-15957759D01*
X13794253Y-15957759D02*
X13784729Y-15919664D01*
X13784729Y-15919664D02*
X13784729Y-15872045D01*
X13784729Y-15872045D02*
X13794253Y-15833949D01*
X13794253Y-15833949D02*
X13803776Y-15814902D01*
X13803776Y-15814902D02*
X13813300Y-15805378D01*
X13813300Y-15805378D02*
X13832348Y-15795854D01*
X13984729Y-15976807D02*
X13994253Y-15986330D01*
X13994253Y-15986330D02*
X13984729Y-15995854D01*
X13984729Y-15995854D02*
X13975205Y-15986330D01*
X13975205Y-15986330D02*
X13984729Y-15976807D01*
X13984729Y-15976807D02*
X13984729Y-15995854D01*
X14184729Y-15995854D02*
X14070443Y-15995854D01*
X14127586Y-15995854D02*
X14127586Y-15795854D01*
X14127586Y-15795854D02*
X14108538Y-15824426D01*
X14108538Y-15824426D02*
X14089491Y-15843473D01*
X14089491Y-15843473D02*
X14070443Y-15852997D01*
X14260919Y-15814902D02*
X14270443Y-15805378D01*
X14270443Y-15805378D02*
X14289491Y-15795854D01*
X14289491Y-15795854D02*
X14337110Y-15795854D01*
X14337110Y-15795854D02*
X14356157Y-15805378D01*
X14356157Y-15805378D02*
X14365681Y-15814902D01*
X14365681Y-15814902D02*
X14375205Y-15833949D01*
X14375205Y-15833949D02*
X14375205Y-15852997D01*
X14375205Y-15852997D02*
X14365681Y-15881568D01*
X14365681Y-15881568D02*
X14251396Y-15995854D01*
X14251396Y-15995854D02*
X14375205Y-15995854D01*
X14546634Y-15795854D02*
X14508538Y-15795854D01*
X14508538Y-15795854D02*
X14489491Y-15805378D01*
X14489491Y-15805378D02*
X14479967Y-15814902D01*
X14479967Y-15814902D02*
X14460919Y-15843473D01*
X14460919Y-15843473D02*
X14451396Y-15881568D01*
X14451396Y-15881568D02*
X14451396Y-15957759D01*
X14451396Y-15957759D02*
X14460919Y-15976807D01*
X14460919Y-15976807D02*
X14470443Y-15986330D01*
X14470443Y-15986330D02*
X14489491Y-15995854D01*
X14489491Y-15995854D02*
X14527586Y-15995854D01*
X14527586Y-15995854D02*
X14546634Y-15986330D01*
X14546634Y-15986330D02*
X14556157Y-15976807D01*
X14556157Y-15976807D02*
X14565681Y-15957759D01*
X14565681Y-15957759D02*
X14565681Y-15910140D01*
X14565681Y-15910140D02*
X14556157Y-15891092D01*
X14556157Y-15891092D02*
X14546634Y-15881568D01*
X14546634Y-15881568D02*
X14527586Y-15872045D01*
X14527586Y-15872045D02*
X14489491Y-15872045D01*
X14489491Y-15872045D02*
X14470443Y-15881568D01*
X14470443Y-15881568D02*
X14460919Y-15891092D01*
X14460919Y-15891092D02*
X14451396Y-15910140D01*
X14689491Y-15795854D02*
X14708538Y-15795854D01*
X14708538Y-15795854D02*
X14727586Y-15805378D01*
X14727586Y-15805378D02*
X14737110Y-15814902D01*
X14737110Y-15814902D02*
X14746634Y-15833949D01*
X14746634Y-15833949D02*
X14756157Y-15872045D01*
X14756157Y-15872045D02*
X14756157Y-15919664D01*
X14756157Y-15919664D02*
X14746634Y-15957759D01*
X14746634Y-15957759D02*
X14737110Y-15976807D01*
X14737110Y-15976807D02*
X14727586Y-15986330D01*
X14727586Y-15986330D02*
X14708538Y-15995854D01*
X14708538Y-15995854D02*
X14689491Y-15995854D01*
X14689491Y-15995854D02*
X14670443Y-15986330D01*
X14670443Y-15986330D02*
X14660919Y-15976807D01*
X14660919Y-15976807D02*
X14651396Y-15957759D01*
X14651396Y-15957759D02*
X14641872Y-15919664D01*
X14641872Y-15919664D02*
X14641872Y-15872045D01*
X14641872Y-15872045D02*
X14651396Y-15833949D01*
X14651396Y-15833949D02*
X14660919Y-15814902D01*
X14660919Y-15814902D02*
X14670443Y-15805378D01*
X14670443Y-15805378D02*
X14689491Y-15795854D01*
X14832348Y-15795854D02*
X14832348Y-15833949D01*
X14908538Y-15795854D02*
X14908538Y-15833949D01*
X15203777Y-16072045D02*
X15194253Y-16062521D01*
X15194253Y-16062521D02*
X15175205Y-16033949D01*
X15175205Y-16033949D02*
X15165681Y-16014902D01*
X15165681Y-16014902D02*
X15156158Y-15986330D01*
X15156158Y-15986330D02*
X15146634Y-15938711D01*
X15146634Y-15938711D02*
X15146634Y-15900616D01*
X15146634Y-15900616D02*
X15156158Y-15852997D01*
X15156158Y-15852997D02*
X15165681Y-15824426D01*
X15165681Y-15824426D02*
X15175205Y-15805378D01*
X15175205Y-15805378D02*
X15194253Y-15776807D01*
X15194253Y-15776807D02*
X15203777Y-15767283D01*
X15365681Y-15862521D02*
X15365681Y-15995854D01*
X15318062Y-15786330D02*
X15270443Y-15929188D01*
X15270443Y-15929188D02*
X15394253Y-15929188D01*
X15622824Y-15995854D02*
X15622824Y-15795854D01*
X15708539Y-15995854D02*
X15708539Y-15891092D01*
X15708539Y-15891092D02*
X15699015Y-15872045D01*
X15699015Y-15872045D02*
X15679967Y-15862521D01*
X15679967Y-15862521D02*
X15651396Y-15862521D01*
X15651396Y-15862521D02*
X15632348Y-15872045D01*
X15632348Y-15872045D02*
X15622824Y-15881568D01*
X15832348Y-15995854D02*
X15813300Y-15986330D01*
X15813300Y-15986330D02*
X15803777Y-15976807D01*
X15803777Y-15976807D02*
X15794253Y-15957759D01*
X15794253Y-15957759D02*
X15794253Y-15900616D01*
X15794253Y-15900616D02*
X15803777Y-15881568D01*
X15803777Y-15881568D02*
X15813300Y-15872045D01*
X15813300Y-15872045D02*
X15832348Y-15862521D01*
X15832348Y-15862521D02*
X15860920Y-15862521D01*
X15860920Y-15862521D02*
X15879967Y-15872045D01*
X15879967Y-15872045D02*
X15889491Y-15881568D01*
X15889491Y-15881568D02*
X15899015Y-15900616D01*
X15899015Y-15900616D02*
X15899015Y-15957759D01*
X15899015Y-15957759D02*
X15889491Y-15976807D01*
X15889491Y-15976807D02*
X15879967Y-15986330D01*
X15879967Y-15986330D02*
X15860920Y-15995854D01*
X15860920Y-15995854D02*
X15832348Y-15995854D01*
X16013300Y-15995854D02*
X15994253Y-15986330D01*
X15994253Y-15986330D02*
X15984729Y-15967283D01*
X15984729Y-15967283D02*
X15984729Y-15795854D01*
X16165681Y-15986330D02*
X16146634Y-15995854D01*
X16146634Y-15995854D02*
X16108539Y-15995854D01*
X16108539Y-15995854D02*
X16089491Y-15986330D01*
X16089491Y-15986330D02*
X16079967Y-15967283D01*
X16079967Y-15967283D02*
X16079967Y-15891092D01*
X16079967Y-15891092D02*
X16089491Y-15872045D01*
X16089491Y-15872045D02*
X16108539Y-15862521D01*
X16108539Y-15862521D02*
X16146634Y-15862521D01*
X16146634Y-15862521D02*
X16165681Y-15872045D01*
X16165681Y-15872045D02*
X16175205Y-15891092D01*
X16175205Y-15891092D02*
X16175205Y-15910140D01*
X16175205Y-15910140D02*
X16079967Y-15929188D01*
X16251396Y-15986330D02*
X16270443Y-15995854D01*
X16270443Y-15995854D02*
X16308539Y-15995854D01*
X16308539Y-15995854D02*
X16327586Y-15986330D01*
X16327586Y-15986330D02*
X16337110Y-15967283D01*
X16337110Y-15967283D02*
X16337110Y-15957759D01*
X16337110Y-15957759D02*
X16327586Y-15938711D01*
X16327586Y-15938711D02*
X16308539Y-15929188D01*
X16308539Y-15929188D02*
X16279967Y-15929188D01*
X16279967Y-15929188D02*
X16260920Y-15919664D01*
X16260920Y-15919664D02*
X16251396Y-15900616D01*
X16251396Y-15900616D02*
X16251396Y-15891092D01*
X16251396Y-15891092D02*
X16260920Y-15872045D01*
X16260920Y-15872045D02*
X16279967Y-15862521D01*
X16279967Y-15862521D02*
X16308539Y-15862521D01*
X16308539Y-15862521D02*
X16327586Y-15872045D01*
X16403777Y-16072045D02*
X16413301Y-16062521D01*
X16413301Y-16062521D02*
X16432348Y-16033949D01*
X16432348Y-16033949D02*
X16441872Y-16014902D01*
X16441872Y-16014902D02*
X16451396Y-15986330D01*
X16451396Y-15986330D02*
X16460920Y-15938711D01*
X16460920Y-15938711D02*
X16460920Y-15900616D01*
X16460920Y-15900616D02*
X16451396Y-15852997D01*
X16451396Y-15852997D02*
X16441872Y-15824426D01*
X16441872Y-15824426D02*
X16432348Y-15805378D01*
X16432348Y-15805378D02*
X16413301Y-15776807D01*
X16413301Y-15776807D02*
X16403777Y-15767283D01*
X16765682Y-16072045D02*
X16756158Y-16062521D01*
X16756158Y-16062521D02*
X16737110Y-16033949D01*
X16737110Y-16033949D02*
X16727586Y-16014902D01*
X16727586Y-16014902D02*
X16718062Y-15986330D01*
X16718062Y-15986330D02*
X16708539Y-15938711D01*
X16708539Y-15938711D02*
X16708539Y-15900616D01*
X16708539Y-15900616D02*
X16718062Y-15852997D01*
X16718062Y-15852997D02*
X16727586Y-15824426D01*
X16727586Y-15824426D02*
X16737110Y-15805378D01*
X16737110Y-15805378D02*
X16756158Y-15776807D01*
X16756158Y-15776807D02*
X16765682Y-15767283D01*
X16841872Y-15862521D02*
X16841872Y-15995854D01*
X16841872Y-15881568D02*
X16851396Y-15872045D01*
X16851396Y-15872045D02*
X16870443Y-15862521D01*
X16870443Y-15862521D02*
X16899015Y-15862521D01*
X16899015Y-15862521D02*
X16918063Y-15872045D01*
X16918063Y-15872045D02*
X16927586Y-15891092D01*
X16927586Y-15891092D02*
X16927586Y-15995854D01*
X17051396Y-15995854D02*
X17032348Y-15986330D01*
X17032348Y-15986330D02*
X17022824Y-15976807D01*
X17022824Y-15976807D02*
X17013301Y-15957759D01*
X17013301Y-15957759D02*
X17013301Y-15900616D01*
X17013301Y-15900616D02*
X17022824Y-15881568D01*
X17022824Y-15881568D02*
X17032348Y-15872045D01*
X17032348Y-15872045D02*
X17051396Y-15862521D01*
X17051396Y-15862521D02*
X17079967Y-15862521D01*
X17079967Y-15862521D02*
X17099015Y-15872045D01*
X17099015Y-15872045D02*
X17108539Y-15881568D01*
X17108539Y-15881568D02*
X17118063Y-15900616D01*
X17118063Y-15900616D02*
X17118063Y-15957759D01*
X17118063Y-15957759D02*
X17108539Y-15976807D01*
X17108539Y-15976807D02*
X17099015Y-15986330D01*
X17099015Y-15986330D02*
X17079967Y-15995854D01*
X17079967Y-15995854D02*
X17051396Y-15995854D01*
X17175205Y-15862521D02*
X17251396Y-15862521D01*
X17203777Y-15795854D02*
X17203777Y-15967283D01*
X17203777Y-15967283D02*
X17213301Y-15986330D01*
X17213301Y-15986330D02*
X17232348Y-15995854D01*
X17232348Y-15995854D02*
X17251396Y-15995854D01*
X17470444Y-15862521D02*
X17470444Y-16062521D01*
X17470444Y-15872045D02*
X17489491Y-15862521D01*
X17489491Y-15862521D02*
X17527586Y-15862521D01*
X17527586Y-15862521D02*
X17546634Y-15872045D01*
X17546634Y-15872045D02*
X17556158Y-15881568D01*
X17556158Y-15881568D02*
X17565682Y-15900616D01*
X17565682Y-15900616D02*
X17565682Y-15957759D01*
X17565682Y-15957759D02*
X17556158Y-15976807D01*
X17556158Y-15976807D02*
X17546634Y-15986330D01*
X17546634Y-15986330D02*
X17527586Y-15995854D01*
X17527586Y-15995854D02*
X17489491Y-15995854D01*
X17489491Y-15995854D02*
X17470444Y-15986330D01*
X17679967Y-15995854D02*
X17660920Y-15986330D01*
X17660920Y-15986330D02*
X17651396Y-15967283D01*
X17651396Y-15967283D02*
X17651396Y-15795854D01*
X17841872Y-15995854D02*
X17841872Y-15891092D01*
X17841872Y-15891092D02*
X17832348Y-15872045D01*
X17832348Y-15872045D02*
X17813301Y-15862521D01*
X17813301Y-15862521D02*
X17775205Y-15862521D01*
X17775205Y-15862521D02*
X17756158Y-15872045D01*
X17841872Y-15986330D02*
X17822825Y-15995854D01*
X17822825Y-15995854D02*
X17775205Y-15995854D01*
X17775205Y-15995854D02*
X17756158Y-15986330D01*
X17756158Y-15986330D02*
X17746634Y-15967283D01*
X17746634Y-15967283D02*
X17746634Y-15948235D01*
X17746634Y-15948235D02*
X17756158Y-15929188D01*
X17756158Y-15929188D02*
X17775205Y-15919664D01*
X17775205Y-15919664D02*
X17822825Y-15919664D01*
X17822825Y-15919664D02*
X17841872Y-15910140D01*
X17908539Y-15862521D02*
X17984729Y-15862521D01*
X17937110Y-15795854D02*
X17937110Y-15967283D01*
X17937110Y-15967283D02*
X17946634Y-15986330D01*
X17946634Y-15986330D02*
X17965682Y-15995854D01*
X17965682Y-15995854D02*
X17984729Y-15995854D01*
X18127586Y-15986330D02*
X18108539Y-15995854D01*
X18108539Y-15995854D02*
X18070444Y-15995854D01*
X18070444Y-15995854D02*
X18051396Y-15986330D01*
X18051396Y-15986330D02*
X18041872Y-15967283D01*
X18041872Y-15967283D02*
X18041872Y-15891092D01*
X18041872Y-15891092D02*
X18051396Y-15872045D01*
X18051396Y-15872045D02*
X18070444Y-15862521D01*
X18070444Y-15862521D02*
X18108539Y-15862521D01*
X18108539Y-15862521D02*
X18127586Y-15872045D01*
X18127586Y-15872045D02*
X18137110Y-15891092D01*
X18137110Y-15891092D02*
X18137110Y-15910140D01*
X18137110Y-15910140D02*
X18041872Y-15929188D01*
X18308539Y-15995854D02*
X18308539Y-15795854D01*
X18308539Y-15986330D02*
X18289491Y-15995854D01*
X18289491Y-15995854D02*
X18251396Y-15995854D01*
X18251396Y-15995854D02*
X18232348Y-15986330D01*
X18232348Y-15986330D02*
X18222825Y-15976807D01*
X18222825Y-15976807D02*
X18213301Y-15957759D01*
X18213301Y-15957759D02*
X18213301Y-15900616D01*
X18213301Y-15900616D02*
X18222825Y-15881568D01*
X18222825Y-15881568D02*
X18232348Y-15872045D01*
X18232348Y-15872045D02*
X18251396Y-15862521D01*
X18251396Y-15862521D02*
X18289491Y-15862521D01*
X18289491Y-15862521D02*
X18308539Y-15872045D01*
X18384729Y-16072045D02*
X18394253Y-16062521D01*
X18394253Y-16062521D02*
X18413301Y-16033949D01*
X18413301Y-16033949D02*
X18422825Y-16014902D01*
X18422825Y-16014902D02*
X18432348Y-15986330D01*
X18432348Y-15986330D02*
X18441872Y-15938711D01*
X18441872Y-15938711D02*
X18441872Y-15900616D01*
X18441872Y-15900616D02*
X18432348Y-15852997D01*
X18432348Y-15852997D02*
X18422825Y-15824426D01*
X18422825Y-15824426D02*
X18413301Y-15805378D01*
X18413301Y-15805378D02*
X18394253Y-15776807D01*
X18394253Y-15776807D02*
X18384729Y-15767283D01*
M02*
