%TF.GenerationSoftware,KiCad,Pcbnew,7.0.9*%
%TF.CreationDate,2024-01-11T17:42:47+09:00*%
%TF.ProjectId,MainBoard,4d61696e-426f-4617-9264-2e6b69636164,rev?*%
%TF.SameCoordinates,Original*%
%TF.FileFunction,Soldermask,Bot*%
%TF.FilePolarity,Negative*%
%FSLAX46Y46*%
G04 Gerber Fmt 4.6, Leading zero omitted, Abs format (unit mm)*
G04 Created by KiCad (PCBNEW 7.0.9) date 2024-01-11 17:42:47*
%MOMM*%
%LPD*%
G01*
G04 APERTURE LIST*
G04 Aperture macros list*
%AMRoundRect*
0 Rectangle with rounded corners*
0 $1 Rounding radius*
0 $2 $3 $4 $5 $6 $7 $8 $9 X,Y pos of 4 corners*
0 Add a 4 corners polygon primitive as box body*
4,1,4,$2,$3,$4,$5,$6,$7,$8,$9,$2,$3,0*
0 Add four circle primitives for the rounded corners*
1,1,$1+$1,$2,$3*
1,1,$1+$1,$4,$5*
1,1,$1+$1,$6,$7*
1,1,$1+$1,$8,$9*
0 Add four rect primitives between the rounded corners*
20,1,$1+$1,$2,$3,$4,$5,0*
20,1,$1+$1,$4,$5,$6,$7,0*
20,1,$1+$1,$6,$7,$8,$9,0*
20,1,$1+$1,$8,$9,$2,$3,0*%
%AMHorizOval*
0 Thick line with rounded ends*
0 $1 width*
0 $2 $3 position (X,Y) of the first rounded end (center of the circle)*
0 $4 $5 position (X,Y) of the second rounded end (center of the circle)*
0 Add line between two ends*
20,1,$1,$2,$3,$4,$5,0*
0 Add two circle primitives to create the rounded ends*
1,1,$1,$2,$3*
1,1,$1,$4,$5*%
G04 Aperture macros list end*
%ADD10RoundRect,0.250000X-0.750000X0.600000X-0.750000X-0.600000X0.750000X-0.600000X0.750000X0.600000X0*%
%ADD11O,2.000000X1.700000*%
%ADD12RoundRect,0.250000X0.882115X0.327868X-0.157115X0.927868X-0.882115X-0.327868X0.157115X-0.927868X0*%
%ADD13HorizOval,1.700000X0.062500X0.108253X-0.062500X-0.108253X0*%
%ADD14C,3.200000*%
%ADD15C,1.400000*%
%ADD16O,1.400000X1.400000*%
%ADD17C,1.524000*%
%ADD18RoundRect,0.250001X1.502627X0.402628X-0.402628X1.502627X-1.502627X-0.402628X0.402628X-1.502627X0*%
%ADD19C,2.700000*%
%ADD20C,1.700000*%
%ADD21RoundRect,0.250000X0.349519X-0.894615X0.949519X0.144615X-0.349519X0.894615X-0.949519X-0.144615X0*%
%ADD22HorizOval,1.700000X-0.129904X0.075000X0.129904X-0.075000X0*%
%ADD23C,2.200000*%
%ADD24RoundRect,0.250000X-0.725000X0.600000X-0.725000X-0.600000X0.725000X-0.600000X0.725000X0.600000X0*%
%ADD25O,1.950000X1.700000*%
%ADD26RoundRect,0.250000X0.600000X0.600000X-0.600000X0.600000X-0.600000X-0.600000X0.600000X-0.600000X0*%
%ADD27C,2.000000*%
%ADD28RoundRect,0.250000X0.600000X0.725000X-0.600000X0.725000X-0.600000X-0.725000X0.600000X-0.725000X0*%
%ADD29O,1.700000X1.950000*%
%ADD30R,1.800000X1.800000*%
%ADD31O,1.800000X1.800000*%
%ADD32R,1.600000X1.600000*%
%ADD33C,1.600000*%
%ADD34R,2.000000X2.000000*%
%ADD35RoundRect,0.250000X1.250000X-0.600000X1.250000X0.600000X-1.250000X0.600000X-1.250000X-0.600000X0*%
%ADD36O,3.000000X1.700000*%
G04 APERTURE END LIST*
D10*
%TO.C,J6*%
X180270000Y-143550000D03*
D11*
X180270000Y-146050000D03*
%TD*%
D12*
%TO.C,LINE*%
X176022000Y-66294000D03*
D13*
X173856936Y-65044000D03*
X171691873Y-63794000D03*
X169526809Y-62544000D03*
X167361746Y-61294000D03*
%TD*%
D14*
%TO.C,REF\u002A\u002A*%
X199872600Y-87477600D03*
%TD*%
D15*
%TO.C,10K*%
X131572000Y-72288400D03*
D16*
X126492000Y-72288400D03*
%TD*%
D17*
%TO.C,LINE*%
X152400000Y-139954000D03*
X154940000Y-137414000D03*
X157480000Y-139954000D03*
%TD*%
D18*
%TO.C,J11*%
X194564000Y-78740000D03*
D19*
X191134539Y-76760000D03*
%TD*%
D20*
%TO.C,U1*%
X123952000Y-81290000D03*
X118872000Y-78750000D03*
X121412000Y-63510000D03*
X126492000Y-60970000D03*
X129032000Y-60970000D03*
X146812000Y-60970000D03*
X121412000Y-78750000D03*
X123952000Y-78750000D03*
X126492000Y-78750000D03*
X129032000Y-78750000D03*
X131572000Y-78750000D03*
X134112000Y-78750000D03*
X136652000Y-78750000D03*
X139192000Y-78750000D03*
X141732000Y-78750000D03*
X144272000Y-78750000D03*
X146812000Y-78750000D03*
X149352000Y-78750000D03*
X151892000Y-78750000D03*
X151892000Y-81290000D03*
X149352000Y-60970000D03*
X151892000Y-60970000D03*
X151892000Y-63510000D03*
X149352000Y-63510000D03*
X146812000Y-63510000D03*
X144272000Y-63510000D03*
X141732000Y-63510000D03*
X139192000Y-63510000D03*
X136652000Y-63510000D03*
X134112000Y-63510000D03*
X131572000Y-63510000D03*
X129032000Y-63510000D03*
X126492000Y-63510000D03*
X129032000Y-81290000D03*
X123952000Y-63510000D03*
X144272000Y-60970000D03*
X118872000Y-63510000D03*
X118872000Y-60970000D03*
X141732000Y-60970000D03*
X134112000Y-60970000D03*
X136652000Y-60970000D03*
X131572000Y-60970000D03*
X139192000Y-60970000D03*
X139192000Y-81290000D03*
X149352000Y-81290000D03*
X141732000Y-81290000D03*
X146812000Y-81290000D03*
X144272000Y-81290000D03*
X118872000Y-81290000D03*
X121412000Y-81290000D03*
X126492000Y-81290000D03*
X131572000Y-81290000D03*
X134112000Y-81290000D03*
X136652000Y-81290000D03*
X121412000Y-60970000D03*
X123952000Y-60970000D03*
%TD*%
D14*
%TO.C,REF\u002A\u002A*%
X176885600Y-137083800D03*
%TD*%
D21*
%TO.C,J12*%
X185440000Y-73539064D03*
D22*
X186690000Y-71374000D03*
%TD*%
D12*
%TO.C,TOUCH*%
X153162000Y-53086000D03*
D13*
X150996936Y-51836000D03*
X148831873Y-50586000D03*
X146666809Y-49336000D03*
%TD*%
D23*
%TO.C,REF\u002A\u002A*%
X181356000Y-68580000D03*
%TD*%
D24*
%TO.C,J3*%
X163182300Y-112572800D03*
D25*
X163182300Y-115072800D03*
X163182300Y-117572800D03*
X163182300Y-120072800D03*
X163182300Y-122572800D03*
%TD*%
D23*
%TO.C,REF\u002A\u002A*%
X133858000Y-87833200D03*
%TD*%
D26*
%TO.C,SENSOR*%
X159512000Y-78232000D03*
D20*
X156972000Y-78232000D03*
X159512000Y-75692000D03*
X156972000Y-75692000D03*
X159512000Y-73152000D03*
X156972000Y-73152000D03*
X159512000Y-70612000D03*
X156972000Y-70612000D03*
X159512000Y-68072000D03*
X156972000Y-68072000D03*
%TD*%
D24*
%TO.C,J1*%
X170180000Y-128731000D03*
D25*
X170180000Y-131231000D03*
X170180000Y-133731000D03*
X170180000Y-136231000D03*
X170180000Y-138731000D03*
%TD*%
D23*
%TO.C,REF\u002A\u002A*%
X140487400Y-44983400D03*
%TD*%
D14*
%TO.C,REF\u002A\u002A*%
X199923400Y-137083800D03*
%TD*%
D27*
%TO.C,GYRO*%
X141224000Y-56570000D03*
X134724000Y-56570000D03*
X141224000Y-52070000D03*
X134724000Y-52070000D03*
%TD*%
%TO.C,SW2*%
X171704000Y-147878800D03*
X165204000Y-147878800D03*
X171704000Y-143378800D03*
X165204000Y-143378800D03*
%TD*%
D10*
%TO.C,J4*%
X194310000Y-143550000D03*
D11*
X194310000Y-146050000D03*
%TD*%
D17*
%TO.C,GYRO*%
X147320000Y-132588000D03*
X149860000Y-130048000D03*
X152400000Y-132588000D03*
%TD*%
D23*
%TO.C,REF\u002A\u002A*%
X158369000Y-146329400D03*
%TD*%
D28*
%TO.C,IO*%
X183308000Y-80772000D03*
D29*
X180808000Y-80772000D03*
X178308000Y-80772000D03*
X175808000Y-80772000D03*
X173308000Y-80772000D03*
X170808000Y-80772000D03*
X168308000Y-80772000D03*
X165808000Y-80772000D03*
%TD*%
D14*
%TO.C,REF\u002A\u002A*%
X176885600Y-87477600D03*
%TD*%
D23*
%TO.C,REF\u002A\u002A*%
X199948800Y-146329400D03*
%TD*%
D17*
%TO.C,U3*%
X132842000Y-67320000D03*
X130302000Y-67320000D03*
X127762000Y-67320000D03*
X125222000Y-67320000D03*
X132842000Y-74940000D03*
X130302000Y-74940000D03*
X127762000Y-74940000D03*
X125222000Y-74940000D03*
%TD*%
D30*
%TO.C,D1*%
X137414000Y-74940000D03*
D31*
X137414000Y-67320000D03*
%TD*%
D23*
%TO.C,REF\u002A\u002A*%
X119380000Y-68580000D03*
%TD*%
D15*
%TO.C,10K*%
X131572000Y-69748400D03*
D16*
X126492000Y-69748400D03*
%TD*%
D23*
%TO.C,REF\u002A\u002A*%
X133858000Y-104190800D03*
%TD*%
D10*
%TO.C,J5*%
X187255000Y-143570000D03*
D11*
X187255000Y-146070000D03*
%TD*%
D17*
%TO.C,TOUCH*%
X157429200Y-132588000D03*
X159969200Y-130048000D03*
X162509200Y-132588000D03*
%TD*%
D12*
%TO.C,KICK*%
X162306000Y-58420000D03*
D13*
X160140936Y-57170000D03*
X157975873Y-55920000D03*
%TD*%
D24*
%TO.C,J2*%
X170167300Y-112572800D03*
D25*
X170167300Y-115072800D03*
X170167300Y-117572800D03*
X170167300Y-120072800D03*
X170167300Y-122572800D03*
%TD*%
D20*
%TO.C,U2*%
X138760200Y-126365000D03*
X141300200Y-126365000D03*
X143840200Y-126365000D03*
X146380200Y-126365000D03*
X148920200Y-126365000D03*
X151460200Y-126365000D03*
X154000200Y-126365000D03*
X154000200Y-111125000D03*
X151460200Y-111125000D03*
X148920200Y-111125000D03*
X146380200Y-111125000D03*
X143840200Y-111125000D03*
X141300200Y-111125000D03*
X138760200Y-111125000D03*
%TD*%
D32*
%TO.C,C1*%
X178587400Y-73406000D03*
D33*
X176087400Y-73406000D03*
%TD*%
D34*
%TO.C,BZ1*%
X145542000Y-74930000D03*
D27*
X145542000Y-67330000D03*
%TD*%
D28*
%TO.C,ESC*%
X170862000Y-74168000D03*
D29*
X168362000Y-74168000D03*
X165862000Y-74168000D03*
%TD*%
D32*
%TO.C,C2*%
X144602200Y-55778400D03*
D33*
X147102200Y-55778400D03*
%TD*%
D35*
%TO.C,J7*%
X150008000Y-99762000D03*
D36*
X150008000Y-97262000D03*
X150008000Y-94762000D03*
X150008000Y-92262000D03*
%TD*%
M02*
