%TF.GenerationSoftware,KiCad,Pcbnew,(6.0.11)*%
%TF.CreationDate,2023-10-13T17:04:58+09:00*%
%TF.ProjectId,power_supply_board,706f7765-725f-4737-9570-706c795f626f,rev?*%
%TF.SameCoordinates,Original*%
%TF.FileFunction,Legend,Top*%
%TF.FilePolarity,Positive*%
%FSLAX46Y46*%
G04 Gerber Fmt 4.6, Leading zero omitted, Abs format (unit mm)*
G04 Created by KiCad (PCBNEW (6.0.11)) date 2023-10-13 17:04:58*
%MOMM*%
%LPD*%
G01*
G04 APERTURE LIST*
%ADD10C,0.150000*%
%ADD11C,0.120000*%
%ADD12C,0.010000*%
G04 APERTURE END LIST*
D10*
X156828953Y-80624720D02*
X156725387Y-80649460D01*
X156615952Y-80741287D01*
X156537126Y-80869592D01*
X156525388Y-81003766D01*
X156550127Y-81107332D01*
X156636085Y-81283854D01*
X156727911Y-81393289D01*
X156886825Y-81508593D01*
X156984522Y-81550941D01*
X157118696Y-81562680D01*
X157258740Y-81507331D01*
X157331697Y-81446113D01*
X157410523Y-81317808D01*
X157416392Y-81250721D01*
X157202129Y-80995373D01*
X157056216Y-81117808D01*
X157805915Y-81048197D02*
X157163127Y-80282153D01*
X158243654Y-80680890D01*
X157600867Y-79914845D01*
X158608437Y-80374800D02*
X157965650Y-79608756D01*
X158148041Y-79455711D01*
X158288085Y-79400363D01*
X158422260Y-79412102D01*
X158519956Y-79454449D01*
X158678870Y-79569754D01*
X158770697Y-79679189D01*
X158856654Y-79855711D01*
X158881394Y-79959276D01*
X158869655Y-80093451D01*
X158790829Y-80221756D01*
X158608437Y-80374800D01*
X114891739Y-79946154D02*
X114308086Y-79456411D01*
X114844784Y-79409456D02*
X114355041Y-79993108D01*
X121749739Y-72072154D02*
X121166086Y-71582411D01*
X127578000Y-106490333D02*
X127611333Y-106457000D01*
X127678000Y-106423666D01*
X127844666Y-106423666D01*
X127911333Y-106457000D01*
X127944666Y-106490333D01*
X127978000Y-106557000D01*
X127978000Y-106623666D01*
X127944666Y-106723666D01*
X127544666Y-107123666D01*
X127978000Y-107123666D01*
X128244666Y-106490333D02*
X128278000Y-106457000D01*
X128344666Y-106423666D01*
X128511333Y-106423666D01*
X128578000Y-106457000D01*
X128611333Y-106490333D01*
X128644666Y-106557000D01*
X128644666Y-106623666D01*
X128611333Y-106723666D01*
X128211333Y-107123666D01*
X128644666Y-107123666D01*
X128944666Y-106657000D02*
X128944666Y-107357000D01*
X129278000Y-107023666D02*
X129311333Y-107090333D01*
X129378000Y-107123666D01*
X128944666Y-107023666D02*
X128978000Y-107090333D01*
X129044666Y-107123666D01*
X129178000Y-107123666D01*
X129244666Y-107090333D01*
X129278000Y-107023666D01*
X129278000Y-106657000D01*
X129911333Y-106757000D02*
X129678000Y-106757000D01*
X129678000Y-107123666D02*
X129678000Y-106423666D01*
X130011333Y-106423666D01*
X127611333Y-102671619D02*
X127658952Y-102624000D01*
X127754190Y-102576380D01*
X127992285Y-102576380D01*
X128087523Y-102624000D01*
X128135142Y-102671619D01*
X128182761Y-102766857D01*
X128182761Y-102862095D01*
X128135142Y-103004952D01*
X127563714Y-103576380D01*
X128182761Y-103576380D01*
X128801809Y-102576380D02*
X128897047Y-102576380D01*
X128992285Y-102624000D01*
X129039904Y-102671619D01*
X129087523Y-102766857D01*
X129135142Y-102957333D01*
X129135142Y-103195428D01*
X129087523Y-103385904D01*
X129039904Y-103481142D01*
X128992285Y-103528761D01*
X128897047Y-103576380D01*
X128801809Y-103576380D01*
X128706571Y-103528761D01*
X128658952Y-103481142D01*
X128611333Y-103385904D01*
X128563714Y-103195428D01*
X128563714Y-102957333D01*
X128611333Y-102766857D01*
X128658952Y-102671619D01*
X128706571Y-102624000D01*
X128801809Y-102576380D01*
X129563714Y-103576380D02*
X129563714Y-102576380D01*
X129658952Y-103195428D02*
X129944666Y-103576380D01*
X129944666Y-102909714D02*
X129563714Y-103290666D01*
X161781953Y-87355720D02*
X161678387Y-87380460D01*
X161568952Y-87472287D01*
X161490126Y-87600592D01*
X161478388Y-87734766D01*
X161503127Y-87838332D01*
X161589085Y-88014854D01*
X161680911Y-88124289D01*
X161839825Y-88239593D01*
X161937522Y-88281941D01*
X162071696Y-88293680D01*
X162211740Y-88238331D01*
X162284697Y-88177113D01*
X162363523Y-88048808D01*
X162369392Y-87981721D01*
X162155129Y-87726373D01*
X162009216Y-87848808D01*
X162758915Y-87779197D02*
X162116127Y-87013153D01*
X163196654Y-87411890D01*
X162553867Y-86645845D01*
X163561437Y-87105800D02*
X162918650Y-86339756D01*
X163101041Y-86186711D01*
X163241085Y-86131363D01*
X163375260Y-86143102D01*
X163472956Y-86185449D01*
X163631870Y-86300754D01*
X163723697Y-86410189D01*
X163809654Y-86586711D01*
X163834394Y-86690276D01*
X163822655Y-86824451D01*
X163743829Y-86952756D01*
X163561437Y-87105800D01*
X160091380Y-100020333D02*
X160091380Y-100591761D01*
X160091380Y-100306047D02*
X159091380Y-100306047D01*
X159234238Y-100401285D01*
X159329476Y-100496523D01*
X159377095Y-100591761D01*
X159996142Y-99591761D02*
X160043761Y-99544142D01*
X160091380Y-99591761D01*
X160043761Y-99639380D01*
X159996142Y-99591761D01*
X160091380Y-99591761D01*
X159186619Y-99163190D02*
X159139000Y-99115571D01*
X159091380Y-99020333D01*
X159091380Y-98782238D01*
X159139000Y-98687000D01*
X159186619Y-98639380D01*
X159281857Y-98591761D01*
X159377095Y-98591761D01*
X159519952Y-98639380D01*
X160091380Y-99210809D01*
X160091380Y-98591761D01*
X160091380Y-98163190D02*
X159091380Y-98163190D01*
X159710428Y-98067952D02*
X160091380Y-97782238D01*
X159424714Y-97782238D02*
X159805666Y-98163190D01*
X138773000Y-85533666D02*
X138373000Y-85533666D01*
X138573000Y-85533666D02*
X138573000Y-84833666D01*
X138506333Y-84933666D01*
X138439666Y-85000333D01*
X138373000Y-85033666D01*
X139206333Y-84833666D02*
X139273000Y-84833666D01*
X139339666Y-84867000D01*
X139373000Y-84900333D01*
X139406333Y-84967000D01*
X139439666Y-85100333D01*
X139439666Y-85267000D01*
X139406333Y-85400333D01*
X139373000Y-85467000D01*
X139339666Y-85500333D01*
X139273000Y-85533666D01*
X139206333Y-85533666D01*
X139139666Y-85500333D01*
X139106333Y-85467000D01*
X139073000Y-85400333D01*
X139039666Y-85267000D01*
X139039666Y-85100333D01*
X139073000Y-84967000D01*
X139106333Y-84900333D01*
X139139666Y-84867000D01*
X139206333Y-84833666D01*
X139739666Y-85067000D02*
X139739666Y-85767000D01*
X140073000Y-85433666D02*
X140106333Y-85500333D01*
X140173000Y-85533666D01*
X139739666Y-85433666D02*
X139773000Y-85500333D01*
X139839666Y-85533666D01*
X139973000Y-85533666D01*
X140039666Y-85500333D01*
X140073000Y-85433666D01*
X140073000Y-85067000D01*
X140706333Y-85167000D02*
X140473000Y-85167000D01*
X140473000Y-85533666D02*
X140473000Y-84833666D01*
X140806333Y-84833666D01*
X159074566Y-90914460D02*
X158636827Y-91281767D01*
X158855697Y-91098113D02*
X158212909Y-90332069D01*
X158231779Y-90502722D01*
X158220040Y-90636896D01*
X158177693Y-90734592D01*
X158784823Y-89976500D02*
X158790692Y-89909413D01*
X158833040Y-89811717D01*
X159015432Y-89658672D01*
X159118997Y-89633933D01*
X159186084Y-89639802D01*
X159283781Y-89682150D01*
X159344999Y-89755106D01*
X159400347Y-89895150D01*
X159329915Y-90700197D01*
X159804133Y-90302281D01*
X159380215Y-89352583D02*
X160278351Y-89904365D01*
X159890911Y-88924058D01*
X153299084Y-83649935D02*
X152934300Y-83956024D01*
X153203911Y-84351416D01*
X153209781Y-84284329D01*
X153252129Y-84186633D01*
X153434520Y-84033588D01*
X153538086Y-84008848D01*
X153605173Y-84014718D01*
X153702869Y-84057065D01*
X153855914Y-84239457D01*
X153880653Y-84343023D01*
X153874784Y-84410110D01*
X153832436Y-84507806D01*
X153650045Y-84660851D01*
X153546479Y-84685590D01*
X153479392Y-84679721D01*
X153554432Y-83435672D02*
X154452567Y-83987454D01*
X154065128Y-83007147D01*
X112181285Y-114577761D02*
X112324142Y-114625380D01*
X112562238Y-114625380D01*
X112657476Y-114577761D01*
X112705095Y-114530142D01*
X112752714Y-114434904D01*
X112752714Y-114339666D01*
X112705095Y-114244428D01*
X112657476Y-114196809D01*
X112562238Y-114149190D01*
X112371761Y-114101571D01*
X112276523Y-114053952D01*
X112228904Y-114006333D01*
X112181285Y-113911095D01*
X112181285Y-113815857D01*
X112228904Y-113720619D01*
X112276523Y-113673000D01*
X112371761Y-113625380D01*
X112609857Y-113625380D01*
X112752714Y-113673000D01*
X113609857Y-113958714D02*
X113609857Y-114625380D01*
X113181285Y-113958714D02*
X113181285Y-114482523D01*
X113228904Y-114577761D01*
X113324142Y-114625380D01*
X113467000Y-114625380D01*
X113562238Y-114577761D01*
X113609857Y-114530142D01*
X114086047Y-113958714D02*
X114086047Y-114958714D01*
X114086047Y-114006333D02*
X114181285Y-113958714D01*
X114371761Y-113958714D01*
X114467000Y-114006333D01*
X114514619Y-114053952D01*
X114562238Y-114149190D01*
X114562238Y-114434904D01*
X114514619Y-114530142D01*
X114467000Y-114577761D01*
X114371761Y-114625380D01*
X114181285Y-114625380D01*
X114086047Y-114577761D01*
X114990809Y-113958714D02*
X114990809Y-114958714D01*
X114990809Y-114006333D02*
X115086047Y-113958714D01*
X115276523Y-113958714D01*
X115371761Y-114006333D01*
X115419380Y-114053952D01*
X115467000Y-114149190D01*
X115467000Y-114434904D01*
X115419380Y-114530142D01*
X115371761Y-114577761D01*
X115276523Y-114625380D01*
X115086047Y-114625380D01*
X114990809Y-114577761D01*
X116038428Y-114625380D02*
X115943190Y-114577761D01*
X115895571Y-114530142D01*
X115847952Y-114434904D01*
X115847952Y-114149190D01*
X115895571Y-114053952D01*
X115943190Y-114006333D01*
X116038428Y-113958714D01*
X116181285Y-113958714D01*
X116276523Y-114006333D01*
X116324142Y-114053952D01*
X116371761Y-114149190D01*
X116371761Y-114434904D01*
X116324142Y-114530142D01*
X116276523Y-114577761D01*
X116181285Y-114625380D01*
X116038428Y-114625380D01*
X116800333Y-114625380D02*
X116800333Y-113958714D01*
X116800333Y-114149190D02*
X116847952Y-114053952D01*
X116895571Y-114006333D01*
X116990809Y-113958714D01*
X117086047Y-113958714D01*
X117276523Y-113958714D02*
X117657476Y-113958714D01*
X117419380Y-113625380D02*
X117419380Y-114482523D01*
X117467000Y-114577761D01*
X117562238Y-114625380D01*
X117657476Y-114625380D01*
X118371761Y-114577761D02*
X118276523Y-114625380D01*
X118086047Y-114625380D01*
X117990809Y-114577761D01*
X117943190Y-114482523D01*
X117943190Y-114101571D01*
X117990809Y-114006333D01*
X118086047Y-113958714D01*
X118276523Y-113958714D01*
X118371761Y-114006333D01*
X118419380Y-114101571D01*
X118419380Y-114196809D01*
X117943190Y-114292047D01*
X119276523Y-114625380D02*
X119276523Y-113625380D01*
X119276523Y-114577761D02*
X119181285Y-114625380D01*
X118990809Y-114625380D01*
X118895571Y-114577761D01*
X118847952Y-114530142D01*
X118800333Y-114434904D01*
X118800333Y-114149190D01*
X118847952Y-114053952D01*
X118895571Y-114006333D01*
X118990809Y-113958714D01*
X119181285Y-113958714D01*
X119276523Y-114006333D01*
X120514619Y-114625380D02*
X120514619Y-113625380D01*
X120514619Y-114006333D02*
X120609857Y-113958714D01*
X120800333Y-113958714D01*
X120895571Y-114006333D01*
X120943190Y-114053952D01*
X120990809Y-114149190D01*
X120990809Y-114434904D01*
X120943190Y-114530142D01*
X120895571Y-114577761D01*
X120800333Y-114625380D01*
X120609857Y-114625380D01*
X120514619Y-114577761D01*
X121324142Y-113958714D02*
X121562238Y-114625380D01*
X121800333Y-113958714D02*
X121562238Y-114625380D01*
X121467000Y-114863476D01*
X121419380Y-114911095D01*
X121324142Y-114958714D01*
D11*
%TO.C,R1*%
X126858000Y-102204000D02*
X130698000Y-102204000D01*
X126858000Y-104044000D02*
X130698000Y-104044000D01*
%TO.C,SW2*%
X116262232Y-103290316D02*
X122304435Y-96089498D01*
X122304435Y-96089498D02*
X110813768Y-86447684D01*
X110813768Y-86447684D02*
X107792667Y-90048093D01*
X116760560Y-107363603D02*
X126402374Y-95872937D01*
X110315440Y-82374397D02*
X105494533Y-88119730D01*
X126402374Y-95872937D02*
X110315440Y-82374397D01*
X105494533Y-88119730D02*
X100673626Y-93865063D01*
X107792667Y-90048093D02*
X104771565Y-93648502D01*
X104771565Y-93648502D02*
X116262232Y-103290316D01*
X100673626Y-93865063D02*
X116760560Y-107363603D01*
%TO.C,C1*%
X126108000Y-105086000D02*
X126108000Y-105752000D01*
X131448000Y-105086000D02*
X131448000Y-105752000D01*
X126108000Y-105086000D02*
X131448000Y-105086000D01*
X126108000Y-107862000D02*
X126108000Y-108528000D01*
X131448000Y-107862000D02*
X131448000Y-108528000D01*
X126108000Y-108528000D02*
X131448000Y-108528000D01*
%TO.C,J1*%
X156953657Y-78717635D02*
X154617221Y-80678138D01*
X155057434Y-76457804D02*
X156953657Y-78717635D01*
X149810029Y-80860900D02*
X150384562Y-80378809D01*
X154186927Y-74238025D02*
X148349669Y-79136067D01*
X154667786Y-74826647D02*
X154185695Y-74252114D01*
X153288906Y-75983665D02*
X154667786Y-74826647D01*
X148845848Y-79711833D02*
X150224728Y-78554815D01*
X150384562Y-80378809D02*
X152280786Y-82638640D01*
X155631967Y-75975714D02*
X155057434Y-76457804D01*
X150224728Y-78554815D02*
X149742637Y-77980282D01*
X148349669Y-79136067D02*
X152187111Y-83709352D01*
X148898663Y-78296838D02*
X147941107Y-79100322D01*
X150891704Y-77016100D02*
X151373794Y-77590634D01*
X152187111Y-83709352D02*
X158024369Y-78811311D01*
X158024369Y-78811311D02*
X154186927Y-74238025D01*
X154185695Y-74252114D02*
X152806815Y-75409131D01*
X151373794Y-77590634D02*
X152139839Y-76947846D01*
X147941107Y-79100322D02*
X148744592Y-80057878D01*
X152806815Y-75409131D02*
X153288906Y-75983665D01*
X151657748Y-76373313D02*
X150891704Y-77016100D01*
X149742637Y-77980282D02*
X148363757Y-79137300D01*
X152280786Y-82638640D02*
X154617221Y-80678138D01*
X148363757Y-79137300D02*
X148845848Y-79711833D01*
X152139839Y-76947846D02*
X151657748Y-76373313D01*
%TO.C,F1*%
X122387248Y-80282320D02*
X117489206Y-86119579D01*
X127285290Y-74445061D02*
X122387248Y-80282320D01*
X126278754Y-83547681D02*
X131176795Y-77710422D01*
X117489206Y-86119579D02*
X121380712Y-89384940D01*
X131176795Y-77710422D02*
X127285290Y-74445061D01*
X121380712Y-89384940D02*
X126278754Y-83547681D01*
%TO.C,D1*%
X124204353Y-88340532D02*
X127222568Y-90873115D01*
X125062475Y-87317863D02*
X128080690Y-89850446D01*
X130079432Y-81338886D02*
X124204353Y-88340532D01*
X125623471Y-89714070D02*
X125713461Y-89606824D01*
X125139609Y-87225938D02*
X128157824Y-89758521D01*
X131678530Y-82497931D02*
X131588540Y-82605178D01*
X125216744Y-87134012D02*
X128234959Y-89666595D01*
X127222568Y-90873115D02*
X133097647Y-83871469D01*
X133097647Y-83871469D02*
X130079432Y-81338886D01*
%TO.C,J2*%
X156073685Y-83386411D02*
X156555775Y-83960945D01*
X155566543Y-86749120D02*
X157462767Y-89008951D01*
X159849767Y-81196958D02*
X159367676Y-80622425D01*
X154924618Y-84350593D02*
X153545738Y-85507611D01*
X153123088Y-85470633D02*
X153926573Y-86428189D01*
X154080644Y-84667149D02*
X153123088Y-85470633D01*
X156555775Y-83960945D02*
X157321820Y-83318157D01*
X159367676Y-80622425D02*
X157988796Y-81779442D01*
X157369092Y-90079663D02*
X163206350Y-85181622D01*
X156839729Y-82743624D02*
X156073685Y-83386411D01*
X154992010Y-87231211D02*
X155566543Y-86749120D01*
X160813948Y-82346025D02*
X160239415Y-82828115D01*
X160239415Y-82828115D02*
X162135638Y-85087946D01*
X153545738Y-85507611D02*
X154027829Y-86082144D01*
X154027829Y-86082144D02*
X155406709Y-84925126D01*
X162135638Y-85087946D02*
X159799202Y-87048449D01*
X157462767Y-89008951D02*
X159799202Y-87048449D01*
X163206350Y-85181622D02*
X159368908Y-80608336D01*
X158470887Y-82353976D02*
X159849767Y-81196958D01*
X157988796Y-81779442D02*
X158470887Y-82353976D01*
X155406709Y-84925126D02*
X154924618Y-84350593D01*
X159368908Y-80608336D02*
X153531650Y-85506378D01*
X153531650Y-85506378D02*
X157369092Y-90079663D01*
X157321820Y-83318157D02*
X156839729Y-82743624D01*
%TO.C,C2*%
X142370000Y-83496000D02*
X137030000Y-83496000D01*
X137030000Y-86938000D02*
X137030000Y-86272000D01*
X142370000Y-86938000D02*
X137030000Y-86938000D01*
X142370000Y-86938000D02*
X142370000Y-86272000D01*
X142370000Y-84162000D02*
X142370000Y-83496000D01*
X137030000Y-84162000D02*
X137030000Y-83496000D01*
%TO.C,R2*%
X158719000Y-97267000D02*
X158719000Y-101107000D01*
X160559000Y-97267000D02*
X160559000Y-101107000D01*
%TO.C,RV1*%
X156718000Y-103808000D02*
X156718000Y-94038000D01*
X151648000Y-94038000D02*
X156718000Y-94038000D01*
X151648000Y-103808000D02*
X151648000Y-94038000D01*
X151648000Y-103808000D02*
X156718000Y-103808000D01*
%TO.C,G\u002A\u002A\u002A*%
G36*
X119231834Y-116332000D02*
G01*
X119222367Y-116382413D01*
X119200084Y-116395500D01*
X119181648Y-116405253D01*
X119171750Y-116439828D01*
X119168396Y-116507198D01*
X119168334Y-116522500D01*
X119165895Y-116596243D01*
X119157251Y-116635835D01*
X119140409Y-116649249D01*
X119136584Y-116649500D01*
X119118148Y-116659253D01*
X119108250Y-116693828D01*
X119104896Y-116761198D01*
X119104834Y-116776500D01*
X119102395Y-116850243D01*
X119093751Y-116889835D01*
X119076909Y-116903249D01*
X119073084Y-116903500D01*
X119054648Y-116913253D01*
X119044750Y-116947828D01*
X119041396Y-117015198D01*
X119041334Y-117030500D01*
X119038895Y-117104243D01*
X119030251Y-117143835D01*
X119013409Y-117157249D01*
X119009584Y-117157500D01*
X118988657Y-117169965D01*
X118979124Y-117212351D01*
X118977834Y-117252750D01*
X118973678Y-117315530D01*
X118959550Y-117344127D01*
X118946084Y-117348000D01*
X118925157Y-117360465D01*
X118915624Y-117402851D01*
X118914334Y-117443250D01*
X118910178Y-117506030D01*
X118896050Y-117534627D01*
X118882584Y-117538500D01*
X118857377Y-117557432D01*
X118850834Y-117602000D01*
X118841367Y-117652413D01*
X118819084Y-117665500D01*
X118791021Y-117682443D01*
X118787334Y-117697250D01*
X118770390Y-117725312D01*
X118755584Y-117729000D01*
X118727521Y-117745943D01*
X118723834Y-117760750D01*
X118706890Y-117788812D01*
X118692084Y-117792500D01*
X118664021Y-117809443D01*
X118660334Y-117824250D01*
X118643390Y-117852312D01*
X118628584Y-117856000D01*
X118600521Y-117872943D01*
X118596834Y-117887750D01*
X118584368Y-117908677D01*
X118541983Y-117918209D01*
X118501584Y-117919500D01*
X118438803Y-117923655D01*
X118410206Y-117937783D01*
X118406334Y-117951250D01*
X118400975Y-117962723D01*
X118381285Y-117971121D01*
X118341843Y-117976894D01*
X118277229Y-117980496D01*
X118182023Y-117982377D01*
X118050804Y-117982989D01*
X118025334Y-117983000D01*
X117644334Y-117983000D01*
X117644334Y-117856000D01*
X117646772Y-117782257D01*
X117655416Y-117742664D01*
X117672258Y-117729250D01*
X117676084Y-117729000D01*
X117701415Y-117710274D01*
X117707834Y-117669703D01*
X117707834Y-117610407D01*
X117986432Y-117611495D01*
X118109820Y-117610755D01*
X118195486Y-117607144D01*
X118247970Y-117600263D01*
X118271812Y-117589710D01*
X118273946Y-117586125D01*
X118300028Y-117561915D01*
X118312847Y-117559667D01*
X118337161Y-117542036D01*
X118342834Y-117517333D01*
X118356068Y-117482857D01*
X118374584Y-117475000D01*
X118399790Y-117456068D01*
X118406334Y-117411500D01*
X118415800Y-117361087D01*
X118438084Y-117348000D01*
X118456519Y-117338246D01*
X118466417Y-117303671D01*
X118469771Y-117236302D01*
X118469834Y-117221000D01*
X118472272Y-117147257D01*
X118480916Y-117107664D01*
X118497758Y-117094250D01*
X118501584Y-117094000D01*
X118520019Y-117084246D01*
X118529917Y-117049671D01*
X118533271Y-116982302D01*
X118533334Y-116967000D01*
X118535772Y-116893257D01*
X118544416Y-116853664D01*
X118561258Y-116840250D01*
X118565084Y-116840000D01*
X118583519Y-116830246D01*
X118593417Y-116795671D01*
X118596771Y-116728302D01*
X118596834Y-116713000D01*
X118596834Y-116586000D01*
X118406334Y-116586000D01*
X118406334Y-116459000D01*
X118408772Y-116385257D01*
X118417416Y-116345664D01*
X118434258Y-116332250D01*
X118438084Y-116332000D01*
X118466146Y-116315057D01*
X118469834Y-116300250D01*
X118475192Y-116288777D01*
X118494882Y-116280379D01*
X118534324Y-116274605D01*
X118598938Y-116271004D01*
X118694144Y-116269123D01*
X118825363Y-116268510D01*
X118850834Y-116268500D01*
X119231834Y-116268500D01*
X119231834Y-116332000D01*
G37*
D12*
X119231834Y-116332000D02*
X119222367Y-116382413D01*
X119200084Y-116395500D01*
X119181648Y-116405253D01*
X119171750Y-116439828D01*
X119168396Y-116507198D01*
X119168334Y-116522500D01*
X119165895Y-116596243D01*
X119157251Y-116635835D01*
X119140409Y-116649249D01*
X119136584Y-116649500D01*
X119118148Y-116659253D01*
X119108250Y-116693828D01*
X119104896Y-116761198D01*
X119104834Y-116776500D01*
X119102395Y-116850243D01*
X119093751Y-116889835D01*
X119076909Y-116903249D01*
X119073084Y-116903500D01*
X119054648Y-116913253D01*
X119044750Y-116947828D01*
X119041396Y-117015198D01*
X119041334Y-117030500D01*
X119038895Y-117104243D01*
X119030251Y-117143835D01*
X119013409Y-117157249D01*
X119009584Y-117157500D01*
X118988657Y-117169965D01*
X118979124Y-117212351D01*
X118977834Y-117252750D01*
X118973678Y-117315530D01*
X118959550Y-117344127D01*
X118946084Y-117348000D01*
X118925157Y-117360465D01*
X118915624Y-117402851D01*
X118914334Y-117443250D01*
X118910178Y-117506030D01*
X118896050Y-117534627D01*
X118882584Y-117538500D01*
X118857377Y-117557432D01*
X118850834Y-117602000D01*
X118841367Y-117652413D01*
X118819084Y-117665500D01*
X118791021Y-117682443D01*
X118787334Y-117697250D01*
X118770390Y-117725312D01*
X118755584Y-117729000D01*
X118727521Y-117745943D01*
X118723834Y-117760750D01*
X118706890Y-117788812D01*
X118692084Y-117792500D01*
X118664021Y-117809443D01*
X118660334Y-117824250D01*
X118643390Y-117852312D01*
X118628584Y-117856000D01*
X118600521Y-117872943D01*
X118596834Y-117887750D01*
X118584368Y-117908677D01*
X118541983Y-117918209D01*
X118501584Y-117919500D01*
X118438803Y-117923655D01*
X118410206Y-117937783D01*
X118406334Y-117951250D01*
X118400975Y-117962723D01*
X118381285Y-117971121D01*
X118341843Y-117976894D01*
X118277229Y-117980496D01*
X118182023Y-117982377D01*
X118050804Y-117982989D01*
X118025334Y-117983000D01*
X117644334Y-117983000D01*
X117644334Y-117856000D01*
X117646772Y-117782257D01*
X117655416Y-117742664D01*
X117672258Y-117729250D01*
X117676084Y-117729000D01*
X117701415Y-117710274D01*
X117707834Y-117669703D01*
X117707834Y-117610407D01*
X117986432Y-117611495D01*
X118109820Y-117610755D01*
X118195486Y-117607144D01*
X118247970Y-117600263D01*
X118271812Y-117589710D01*
X118273946Y-117586125D01*
X118300028Y-117561915D01*
X118312847Y-117559667D01*
X118337161Y-117542036D01*
X118342834Y-117517333D01*
X118356068Y-117482857D01*
X118374584Y-117475000D01*
X118399790Y-117456068D01*
X118406334Y-117411500D01*
X118415800Y-117361087D01*
X118438084Y-117348000D01*
X118456519Y-117338246D01*
X118466417Y-117303671D01*
X118469771Y-117236302D01*
X118469834Y-117221000D01*
X118472272Y-117147257D01*
X118480916Y-117107664D01*
X118497758Y-117094250D01*
X118501584Y-117094000D01*
X118520019Y-117084246D01*
X118529917Y-117049671D01*
X118533271Y-116982302D01*
X118533334Y-116967000D01*
X118535772Y-116893257D01*
X118544416Y-116853664D01*
X118561258Y-116840250D01*
X118565084Y-116840000D01*
X118583519Y-116830246D01*
X118593417Y-116795671D01*
X118596771Y-116728302D01*
X118596834Y-116713000D01*
X118596834Y-116586000D01*
X118406334Y-116586000D01*
X118406334Y-116459000D01*
X118408772Y-116385257D01*
X118417416Y-116345664D01*
X118434258Y-116332250D01*
X118438084Y-116332000D01*
X118466146Y-116315057D01*
X118469834Y-116300250D01*
X118475192Y-116288777D01*
X118494882Y-116280379D01*
X118534324Y-116274605D01*
X118598938Y-116271004D01*
X118694144Y-116269123D01*
X118825363Y-116268510D01*
X118850834Y-116268500D01*
X119231834Y-116268500D01*
X119231834Y-116332000D01*
G36*
X114148251Y-116682096D02*
G01*
X114151834Y-116691833D01*
X114134689Y-116710612D01*
X114120084Y-116713000D01*
X114092021Y-116729943D01*
X114088334Y-116744750D01*
X114071390Y-116772812D01*
X114056584Y-116776500D01*
X114031377Y-116795432D01*
X114024834Y-116840000D01*
X114015367Y-116890413D01*
X113993084Y-116903500D01*
X113967877Y-116922432D01*
X113961334Y-116967000D01*
X113951867Y-117017413D01*
X113929584Y-117030500D01*
X113912836Y-117038816D01*
X113903006Y-117068867D01*
X113898561Y-117128309D01*
X113897834Y-117189250D01*
X113899497Y-117272986D01*
X113905507Y-117322139D01*
X113917395Y-117344363D01*
X113929584Y-117348000D01*
X113957646Y-117364943D01*
X113961334Y-117379750D01*
X113978277Y-117407812D01*
X113993084Y-117411500D01*
X114021146Y-117428443D01*
X114024834Y-117443250D01*
X114041777Y-117471312D01*
X114056584Y-117475000D01*
X114084665Y-117491079D01*
X114088334Y-117505065D01*
X114108328Y-117524762D01*
X114163845Y-117540656D01*
X114248184Y-117552006D01*
X114354646Y-117558073D01*
X114476530Y-117558116D01*
X114544598Y-117555470D01*
X114635577Y-117552202D01*
X114691167Y-117554500D01*
X114718030Y-117563056D01*
X114723334Y-117574044D01*
X114714432Y-117585259D01*
X114684270Y-117593205D01*
X114627660Y-117598339D01*
X114539416Y-117601117D01*
X114414351Y-117601997D01*
X114405834Y-117602000D01*
X114281570Y-117601424D01*
X114193745Y-117599304D01*
X114136474Y-117595051D01*
X114103873Y-117588078D01*
X114090058Y-117577795D01*
X114088334Y-117570250D01*
X114069401Y-117545043D01*
X114024834Y-117538500D01*
X113974420Y-117529034D01*
X113961334Y-117506750D01*
X113944390Y-117478688D01*
X113929584Y-117475000D01*
X113904377Y-117456068D01*
X113897834Y-117411500D01*
X113888367Y-117361087D01*
X113866084Y-117348000D01*
X113849336Y-117339684D01*
X113839506Y-117309633D01*
X113835061Y-117250190D01*
X113834334Y-117189250D01*
X113835997Y-117105514D01*
X113842007Y-117056361D01*
X113853895Y-117034137D01*
X113866084Y-117030500D01*
X113891290Y-117011568D01*
X113897834Y-116967000D01*
X113907300Y-116916587D01*
X113929584Y-116903500D01*
X113954790Y-116884568D01*
X113961334Y-116840000D01*
X113970800Y-116789587D01*
X113993084Y-116776500D01*
X114021146Y-116759557D01*
X114024834Y-116744750D01*
X114041777Y-116716688D01*
X114056584Y-116713000D01*
X114084751Y-116701570D01*
X114088334Y-116691833D01*
X114105478Y-116673055D01*
X114120084Y-116670667D01*
X114148251Y-116682096D01*
G37*
X114148251Y-116682096D02*
X114151834Y-116691833D01*
X114134689Y-116710612D01*
X114120084Y-116713000D01*
X114092021Y-116729943D01*
X114088334Y-116744750D01*
X114071390Y-116772812D01*
X114056584Y-116776500D01*
X114031377Y-116795432D01*
X114024834Y-116840000D01*
X114015367Y-116890413D01*
X113993084Y-116903500D01*
X113967877Y-116922432D01*
X113961334Y-116967000D01*
X113951867Y-117017413D01*
X113929584Y-117030500D01*
X113912836Y-117038816D01*
X113903006Y-117068867D01*
X113898561Y-117128309D01*
X113897834Y-117189250D01*
X113899497Y-117272986D01*
X113905507Y-117322139D01*
X113917395Y-117344363D01*
X113929584Y-117348000D01*
X113957646Y-117364943D01*
X113961334Y-117379750D01*
X113978277Y-117407812D01*
X113993084Y-117411500D01*
X114021146Y-117428443D01*
X114024834Y-117443250D01*
X114041777Y-117471312D01*
X114056584Y-117475000D01*
X114084665Y-117491079D01*
X114088334Y-117505065D01*
X114108328Y-117524762D01*
X114163845Y-117540656D01*
X114248184Y-117552006D01*
X114354646Y-117558073D01*
X114476530Y-117558116D01*
X114544598Y-117555470D01*
X114635577Y-117552202D01*
X114691167Y-117554500D01*
X114718030Y-117563056D01*
X114723334Y-117574044D01*
X114714432Y-117585259D01*
X114684270Y-117593205D01*
X114627660Y-117598339D01*
X114539416Y-117601117D01*
X114414351Y-117601997D01*
X114405834Y-117602000D01*
X114281570Y-117601424D01*
X114193745Y-117599304D01*
X114136474Y-117595051D01*
X114103873Y-117588078D01*
X114090058Y-117577795D01*
X114088334Y-117570250D01*
X114069401Y-117545043D01*
X114024834Y-117538500D01*
X113974420Y-117529034D01*
X113961334Y-117506750D01*
X113944390Y-117478688D01*
X113929584Y-117475000D01*
X113904377Y-117456068D01*
X113897834Y-117411500D01*
X113888367Y-117361087D01*
X113866084Y-117348000D01*
X113849336Y-117339684D01*
X113839506Y-117309633D01*
X113835061Y-117250190D01*
X113834334Y-117189250D01*
X113835997Y-117105514D01*
X113842007Y-117056361D01*
X113853895Y-117034137D01*
X113866084Y-117030500D01*
X113891290Y-117011568D01*
X113897834Y-116967000D01*
X113907300Y-116916587D01*
X113929584Y-116903500D01*
X113954790Y-116884568D01*
X113961334Y-116840000D01*
X113970800Y-116789587D01*
X113993084Y-116776500D01*
X114021146Y-116759557D01*
X114024834Y-116744750D01*
X114041777Y-116716688D01*
X114056584Y-116713000D01*
X114084751Y-116701570D01*
X114088334Y-116691833D01*
X114105478Y-116673055D01*
X114120084Y-116670667D01*
X114148251Y-116682096D01*
G36*
X123168834Y-116903500D02*
G01*
X123171272Y-116829757D01*
X123179916Y-116790164D01*
X123196758Y-116776750D01*
X123200584Y-116776500D01*
X123221510Y-116764034D01*
X123231043Y-116721649D01*
X123232334Y-116681250D01*
X123236489Y-116618469D01*
X123250617Y-116589873D01*
X123264084Y-116586000D01*
X123282519Y-116576246D01*
X123292417Y-116541671D01*
X123295771Y-116474302D01*
X123295834Y-116459000D01*
X123298272Y-116385257D01*
X123306916Y-116345664D01*
X123323758Y-116332250D01*
X123327584Y-116332000D01*
X123355039Y-116314862D01*
X123359334Y-116297679D01*
X123362699Y-116287109D01*
X123375981Y-116279131D01*
X123403961Y-116273514D01*
X123451417Y-116270027D01*
X123523131Y-116268439D01*
X123623881Y-116268520D01*
X123758448Y-116270039D01*
X123889797Y-116272071D01*
X124078180Y-116276002D01*
X124225473Y-116280970D01*
X124332907Y-116287048D01*
X124401717Y-116294310D01*
X124433133Y-116302829D01*
X124435051Y-116304713D01*
X124465068Y-116327204D01*
X124507837Y-116343200D01*
X124549768Y-116359068D01*
X124565834Y-116374946D01*
X124584060Y-116390973D01*
X124628036Y-116405795D01*
X124629334Y-116406083D01*
X124676304Y-116424833D01*
X124692346Y-116459654D01*
X124692834Y-116471265D01*
X124704178Y-116512562D01*
X124724584Y-116522500D01*
X124749790Y-116541432D01*
X124756334Y-116586000D01*
X124765800Y-116636413D01*
X124788084Y-116649500D01*
X124813290Y-116668432D01*
X124819834Y-116713000D01*
X124810367Y-116763413D01*
X124788084Y-116776500D01*
X124769648Y-116786253D01*
X124759750Y-116820828D01*
X124756396Y-116888198D01*
X124756334Y-116903500D01*
X124753895Y-116977243D01*
X124745251Y-117016835D01*
X124728409Y-117030249D01*
X124724584Y-117030500D01*
X124696521Y-117047443D01*
X124692834Y-117062250D01*
X124675890Y-117090312D01*
X124661084Y-117094000D01*
X124633021Y-117110943D01*
X124629334Y-117125750D01*
X124612390Y-117153812D01*
X124597584Y-117157500D01*
X124569521Y-117174443D01*
X124565834Y-117189250D01*
X124548890Y-117217312D01*
X124534084Y-117221000D01*
X124506021Y-117237943D01*
X124502334Y-117252750D01*
X124483401Y-117277956D01*
X124438834Y-117284500D01*
X124388420Y-117293966D01*
X124375334Y-117316250D01*
X124365580Y-117334686D01*
X124331005Y-117344584D01*
X124263636Y-117347937D01*
X124248334Y-117348000D01*
X124174590Y-117350438D01*
X124134998Y-117359082D01*
X124121584Y-117375924D01*
X124121334Y-117379750D01*
X124115305Y-117392759D01*
X124093113Y-117401750D01*
X124048596Y-117407408D01*
X123975591Y-117410418D01*
X123867939Y-117411465D01*
X123835584Y-117411500D01*
X123549834Y-117411500D01*
X123549834Y-117506750D01*
X123545678Y-117569530D01*
X123531550Y-117598127D01*
X123518084Y-117602000D01*
X123499648Y-117611753D01*
X123489750Y-117646328D01*
X123486396Y-117713698D01*
X123486334Y-117729000D01*
X123483895Y-117802743D01*
X123475251Y-117842335D01*
X123458409Y-117855749D01*
X123454584Y-117856000D01*
X123429377Y-117874932D01*
X123422834Y-117919500D01*
X123422834Y-117983000D01*
X122914834Y-117983000D01*
X122914834Y-117887750D01*
X122918989Y-117824969D01*
X122933117Y-117796373D01*
X122946584Y-117792500D01*
X122965019Y-117782746D01*
X122974917Y-117748171D01*
X122978271Y-117680802D01*
X122978334Y-117665500D01*
X122980772Y-117591757D01*
X122989416Y-117552164D01*
X123006258Y-117538750D01*
X123010084Y-117538500D01*
X123028519Y-117528746D01*
X123038417Y-117494171D01*
X123041771Y-117426802D01*
X123041834Y-117411500D01*
X123044272Y-117337757D01*
X123052916Y-117298164D01*
X123069758Y-117284750D01*
X123073584Y-117284500D01*
X123092019Y-117274746D01*
X123101917Y-117240171D01*
X123105271Y-117172802D01*
X123105334Y-117157500D01*
X123107433Y-117094000D01*
X123676834Y-117094000D01*
X123803834Y-117094000D01*
X123871481Y-117090787D01*
X123917344Y-117082392D01*
X123930834Y-117072833D01*
X123948781Y-117056200D01*
X123978459Y-117051377D01*
X124051957Y-117043569D01*
X124102869Y-117023672D01*
X124121334Y-116996281D01*
X124138330Y-116970375D01*
X124153084Y-116967000D01*
X124181146Y-116950057D01*
X124184834Y-116935250D01*
X124201777Y-116907188D01*
X124216584Y-116903500D01*
X124237510Y-116891034D01*
X124247043Y-116848649D01*
X124248334Y-116808250D01*
X124244178Y-116745469D01*
X124230050Y-116716873D01*
X124216584Y-116713000D01*
X124188521Y-116696057D01*
X124184834Y-116681250D01*
X124167890Y-116653188D01*
X124153084Y-116649500D01*
X124125021Y-116632557D01*
X124121334Y-116617750D01*
X124113910Y-116602260D01*
X124086815Y-116592612D01*
X124032816Y-116587599D01*
X123944677Y-116586017D01*
X123930834Y-116586000D01*
X123740334Y-116586000D01*
X123740334Y-116713000D01*
X123737895Y-116786743D01*
X123729251Y-116826335D01*
X123712409Y-116839749D01*
X123708584Y-116840000D01*
X123690148Y-116849753D01*
X123680250Y-116884328D01*
X123676896Y-116951698D01*
X123676834Y-116967000D01*
X123676834Y-117094000D01*
X123107433Y-117094000D01*
X123107772Y-117083757D01*
X123116416Y-117044164D01*
X123133258Y-117030750D01*
X123137084Y-117030500D01*
X123155519Y-117020746D01*
X123165417Y-116986171D01*
X123166371Y-116967000D01*
X123168771Y-116918802D01*
X123168834Y-116903500D01*
G37*
X123168834Y-116903500D02*
X123171272Y-116829757D01*
X123179916Y-116790164D01*
X123196758Y-116776750D01*
X123200584Y-116776500D01*
X123221510Y-116764034D01*
X123231043Y-116721649D01*
X123232334Y-116681250D01*
X123236489Y-116618469D01*
X123250617Y-116589873D01*
X123264084Y-116586000D01*
X123282519Y-116576246D01*
X123292417Y-116541671D01*
X123295771Y-116474302D01*
X123295834Y-116459000D01*
X123298272Y-116385257D01*
X123306916Y-116345664D01*
X123323758Y-116332250D01*
X123327584Y-116332000D01*
X123355039Y-116314862D01*
X123359334Y-116297679D01*
X123362699Y-116287109D01*
X123375981Y-116279131D01*
X123403961Y-116273514D01*
X123451417Y-116270027D01*
X123523131Y-116268439D01*
X123623881Y-116268520D01*
X123758448Y-116270039D01*
X123889797Y-116272071D01*
X124078180Y-116276002D01*
X124225473Y-116280970D01*
X124332907Y-116287048D01*
X124401717Y-116294310D01*
X124433133Y-116302829D01*
X124435051Y-116304713D01*
X124465068Y-116327204D01*
X124507837Y-116343200D01*
X124549768Y-116359068D01*
X124565834Y-116374946D01*
X124584060Y-116390973D01*
X124628036Y-116405795D01*
X124629334Y-116406083D01*
X124676304Y-116424833D01*
X124692346Y-116459654D01*
X124692834Y-116471265D01*
X124704178Y-116512562D01*
X124724584Y-116522500D01*
X124749790Y-116541432D01*
X124756334Y-116586000D01*
X124765800Y-116636413D01*
X124788084Y-116649500D01*
X124813290Y-116668432D01*
X124819834Y-116713000D01*
X124810367Y-116763413D01*
X124788084Y-116776500D01*
X124769648Y-116786253D01*
X124759750Y-116820828D01*
X124756396Y-116888198D01*
X124756334Y-116903500D01*
X124753895Y-116977243D01*
X124745251Y-117016835D01*
X124728409Y-117030249D01*
X124724584Y-117030500D01*
X124696521Y-117047443D01*
X124692834Y-117062250D01*
X124675890Y-117090312D01*
X124661084Y-117094000D01*
X124633021Y-117110943D01*
X124629334Y-117125750D01*
X124612390Y-117153812D01*
X124597584Y-117157500D01*
X124569521Y-117174443D01*
X124565834Y-117189250D01*
X124548890Y-117217312D01*
X124534084Y-117221000D01*
X124506021Y-117237943D01*
X124502334Y-117252750D01*
X124483401Y-117277956D01*
X124438834Y-117284500D01*
X124388420Y-117293966D01*
X124375334Y-117316250D01*
X124365580Y-117334686D01*
X124331005Y-117344584D01*
X124263636Y-117347937D01*
X124248334Y-117348000D01*
X124174590Y-117350438D01*
X124134998Y-117359082D01*
X124121584Y-117375924D01*
X124121334Y-117379750D01*
X124115305Y-117392759D01*
X124093113Y-117401750D01*
X124048596Y-117407408D01*
X123975591Y-117410418D01*
X123867939Y-117411465D01*
X123835584Y-117411500D01*
X123549834Y-117411500D01*
X123549834Y-117506750D01*
X123545678Y-117569530D01*
X123531550Y-117598127D01*
X123518084Y-117602000D01*
X123499648Y-117611753D01*
X123489750Y-117646328D01*
X123486396Y-117713698D01*
X123486334Y-117729000D01*
X123483895Y-117802743D01*
X123475251Y-117842335D01*
X123458409Y-117855749D01*
X123454584Y-117856000D01*
X123429377Y-117874932D01*
X123422834Y-117919500D01*
X123422834Y-117983000D01*
X122914834Y-117983000D01*
X122914834Y-117887750D01*
X122918989Y-117824969D01*
X122933117Y-117796373D01*
X122946584Y-117792500D01*
X122965019Y-117782746D01*
X122974917Y-117748171D01*
X122978271Y-117680802D01*
X122978334Y-117665500D01*
X122980772Y-117591757D01*
X122989416Y-117552164D01*
X123006258Y-117538750D01*
X123010084Y-117538500D01*
X123028519Y-117528746D01*
X123038417Y-117494171D01*
X123041771Y-117426802D01*
X123041834Y-117411500D01*
X123044272Y-117337757D01*
X123052916Y-117298164D01*
X123069758Y-117284750D01*
X123073584Y-117284500D01*
X123092019Y-117274746D01*
X123101917Y-117240171D01*
X123105271Y-117172802D01*
X123105334Y-117157500D01*
X123107433Y-117094000D01*
X123676834Y-117094000D01*
X123803834Y-117094000D01*
X123871481Y-117090787D01*
X123917344Y-117082392D01*
X123930834Y-117072833D01*
X123948781Y-117056200D01*
X123978459Y-117051377D01*
X124051957Y-117043569D01*
X124102869Y-117023672D01*
X124121334Y-116996281D01*
X124138330Y-116970375D01*
X124153084Y-116967000D01*
X124181146Y-116950057D01*
X124184834Y-116935250D01*
X124201777Y-116907188D01*
X124216584Y-116903500D01*
X124237510Y-116891034D01*
X124247043Y-116848649D01*
X124248334Y-116808250D01*
X124244178Y-116745469D01*
X124230050Y-116716873D01*
X124216584Y-116713000D01*
X124188521Y-116696057D01*
X124184834Y-116681250D01*
X124167890Y-116653188D01*
X124153084Y-116649500D01*
X124125021Y-116632557D01*
X124121334Y-116617750D01*
X124113910Y-116602260D01*
X124086815Y-116592612D01*
X124032816Y-116587599D01*
X123944677Y-116586017D01*
X123930834Y-116586000D01*
X123740334Y-116586000D01*
X123740334Y-116713000D01*
X123737895Y-116786743D01*
X123729251Y-116826335D01*
X123712409Y-116839749D01*
X123708584Y-116840000D01*
X123690148Y-116849753D01*
X123680250Y-116884328D01*
X123676896Y-116951698D01*
X123676834Y-116967000D01*
X123676834Y-117094000D01*
X123107433Y-117094000D01*
X123107772Y-117083757D01*
X123116416Y-117044164D01*
X123133258Y-117030750D01*
X123137084Y-117030500D01*
X123155519Y-117020746D01*
X123165417Y-116986171D01*
X123166371Y-116967000D01*
X123168771Y-116918802D01*
X123168834Y-116903500D01*
G36*
X122363722Y-116228129D02*
G01*
X122428763Y-116233387D01*
X122465514Y-116240992D01*
X122470334Y-116245255D01*
X122489510Y-116257535D01*
X122539366Y-116270237D01*
X122597334Y-116279083D01*
X122664231Y-116289730D01*
X122710242Y-116302563D01*
X122724334Y-116312911D01*
X122742295Y-116327927D01*
X122771959Y-116332289D01*
X122849516Y-116338651D01*
X122893730Y-116360541D01*
X122912497Y-116403928D01*
X122914834Y-116440302D01*
X122909268Y-116498239D01*
X122890958Y-116521395D01*
X122883084Y-116522500D01*
X122862157Y-116534965D01*
X122852624Y-116577351D01*
X122851334Y-116617750D01*
X122847178Y-116680530D01*
X122833050Y-116709127D01*
X122819584Y-116713000D01*
X122791521Y-116729943D01*
X122787834Y-116744750D01*
X122768901Y-116769956D01*
X122724334Y-116776500D01*
X122673920Y-116767034D01*
X122660834Y-116744750D01*
X122643890Y-116716688D01*
X122629084Y-116713000D01*
X122601021Y-116696057D01*
X122597334Y-116681250D01*
X122578401Y-116656043D01*
X122533834Y-116649500D01*
X122483420Y-116640034D01*
X122470334Y-116617750D01*
X122463520Y-116603251D01*
X122438523Y-116593819D01*
X122388509Y-116588478D01*
X122306644Y-116586251D01*
X122248084Y-116586000D01*
X122146592Y-116586973D01*
X122080569Y-116590544D01*
X122043180Y-116597689D01*
X122027593Y-116609384D01*
X122025834Y-116617750D01*
X122006901Y-116642956D01*
X121962334Y-116649500D01*
X121911920Y-116658966D01*
X121898834Y-116681250D01*
X121881890Y-116709312D01*
X121867084Y-116713000D01*
X121839021Y-116729943D01*
X121835334Y-116744750D01*
X121818390Y-116772812D01*
X121803584Y-116776500D01*
X121775521Y-116793443D01*
X121771834Y-116808250D01*
X121754890Y-116836312D01*
X121740084Y-116840000D01*
X121712021Y-116856943D01*
X121708334Y-116871750D01*
X121691390Y-116899812D01*
X121676584Y-116903500D01*
X121658148Y-116913253D01*
X121648250Y-116947828D01*
X121644896Y-117015198D01*
X121644834Y-117030500D01*
X121642395Y-117104243D01*
X121633751Y-117143835D01*
X121616909Y-117157249D01*
X121613084Y-117157500D01*
X121594648Y-117167253D01*
X121584750Y-117201828D01*
X121581396Y-117269198D01*
X121581334Y-117284500D01*
X121583772Y-117358243D01*
X121592416Y-117397835D01*
X121609258Y-117411249D01*
X121613084Y-117411500D01*
X121638290Y-117430432D01*
X121644834Y-117475000D01*
X121654300Y-117525413D01*
X121676584Y-117538500D01*
X121704665Y-117554580D01*
X121708334Y-117568568D01*
X121726663Y-117593675D01*
X121770848Y-117612363D01*
X121771834Y-117612583D01*
X121816271Y-117627942D01*
X121835322Y-117645633D01*
X121835334Y-117646015D01*
X121854561Y-117656291D01*
X121904539Y-117663352D01*
X121962334Y-117665500D01*
X122029314Y-117662610D01*
X122075332Y-117655098D01*
X122089334Y-117646411D01*
X122108510Y-117634131D01*
X122158366Y-117621429D01*
X122216334Y-117612583D01*
X122283223Y-117602192D01*
X122329234Y-117590020D01*
X122343334Y-117580437D01*
X122361562Y-117564257D01*
X122405542Y-117549370D01*
X122406834Y-117549083D01*
X122451354Y-117530626D01*
X122470326Y-117505536D01*
X122470334Y-117505068D01*
X122487313Y-117478474D01*
X122502084Y-117475000D01*
X122530251Y-117463570D01*
X122533834Y-117453833D01*
X122550978Y-117435055D01*
X122565584Y-117432667D01*
X122593751Y-117444096D01*
X122597334Y-117453833D01*
X122614478Y-117472612D01*
X122629084Y-117475000D01*
X122657146Y-117491943D01*
X122660834Y-117506750D01*
X122643890Y-117534812D01*
X122629084Y-117538500D01*
X122608157Y-117550965D01*
X122598624Y-117593351D01*
X122597334Y-117633750D01*
X122593178Y-117696530D01*
X122579050Y-117725127D01*
X122565584Y-117729000D01*
X122540377Y-117747932D01*
X122533834Y-117792500D01*
X122524367Y-117842913D01*
X122502084Y-117856000D01*
X122474021Y-117872943D01*
X122470334Y-117887750D01*
X122457868Y-117908677D01*
X122415483Y-117918209D01*
X122375084Y-117919500D01*
X122312303Y-117923655D01*
X122283706Y-117937783D01*
X122279834Y-117951250D01*
X122274475Y-117962723D01*
X122254785Y-117971121D01*
X122215343Y-117976894D01*
X122150729Y-117980496D01*
X122055523Y-117982377D01*
X121924304Y-117982989D01*
X121898834Y-117983000D01*
X121761156Y-117982553D01*
X121660385Y-117980912D01*
X121591100Y-117977626D01*
X121547881Y-117972241D01*
X121525307Y-117964307D01*
X121517959Y-117953372D01*
X121517834Y-117951250D01*
X121498901Y-117926043D01*
X121454334Y-117919500D01*
X121403920Y-117910034D01*
X121390834Y-117887750D01*
X121371901Y-117862543D01*
X121327334Y-117856000D01*
X121276920Y-117846534D01*
X121263834Y-117824250D01*
X121246890Y-117796188D01*
X121232084Y-117792500D01*
X121204021Y-117775557D01*
X121200334Y-117760750D01*
X121183390Y-117732688D01*
X121168584Y-117729000D01*
X121143377Y-117710068D01*
X121136834Y-117665500D01*
X121127367Y-117615087D01*
X121105084Y-117602000D01*
X121092075Y-117595972D01*
X121083083Y-117573779D01*
X121077425Y-117529262D01*
X121074415Y-117456258D01*
X121073369Y-117348605D01*
X121073334Y-117316250D01*
X121074003Y-117199171D01*
X121076469Y-117118249D01*
X121081415Y-117067324D01*
X121089527Y-117040233D01*
X121101488Y-117030815D01*
X121105084Y-117030500D01*
X121126010Y-117018034D01*
X121135543Y-116975649D01*
X121136834Y-116935250D01*
X121140989Y-116872469D01*
X121155117Y-116843873D01*
X121168584Y-116840000D01*
X121196646Y-116823057D01*
X121200334Y-116808250D01*
X121217277Y-116780188D01*
X121232084Y-116776500D01*
X121257290Y-116757568D01*
X121263834Y-116713000D01*
X121273300Y-116662587D01*
X121295584Y-116649500D01*
X121323646Y-116632557D01*
X121327334Y-116617750D01*
X121344277Y-116589688D01*
X121359084Y-116586000D01*
X121387146Y-116569057D01*
X121390834Y-116554250D01*
X121407777Y-116526188D01*
X121422584Y-116522500D01*
X121450765Y-116511963D01*
X121454334Y-116503015D01*
X121472581Y-116485372D01*
X121516599Y-116469858D01*
X121517834Y-116469583D01*
X121562354Y-116451126D01*
X121581326Y-116426036D01*
X121581334Y-116425568D01*
X121598130Y-116398584D01*
X121611320Y-116395500D01*
X121643193Y-116382090D01*
X121648816Y-116372968D01*
X121672595Y-116356511D01*
X121723281Y-116342137D01*
X121745830Y-116338431D01*
X121800541Y-116327670D01*
X121832194Y-116314818D01*
X121835334Y-116310124D01*
X121854502Y-116299314D01*
X121904340Y-116287624D01*
X121962334Y-116279083D01*
X122029231Y-116268437D01*
X122075242Y-116255603D01*
X122089334Y-116245255D01*
X122108921Y-116236849D01*
X122161389Y-116230332D01*
X122237295Y-116226649D01*
X122279834Y-116226167D01*
X122363722Y-116228129D01*
G37*
X122363722Y-116228129D02*
X122428763Y-116233387D01*
X122465514Y-116240992D01*
X122470334Y-116245255D01*
X122489510Y-116257535D01*
X122539366Y-116270237D01*
X122597334Y-116279083D01*
X122664231Y-116289730D01*
X122710242Y-116302563D01*
X122724334Y-116312911D01*
X122742295Y-116327927D01*
X122771959Y-116332289D01*
X122849516Y-116338651D01*
X122893730Y-116360541D01*
X122912497Y-116403928D01*
X122914834Y-116440302D01*
X122909268Y-116498239D01*
X122890958Y-116521395D01*
X122883084Y-116522500D01*
X122862157Y-116534965D01*
X122852624Y-116577351D01*
X122851334Y-116617750D01*
X122847178Y-116680530D01*
X122833050Y-116709127D01*
X122819584Y-116713000D01*
X122791521Y-116729943D01*
X122787834Y-116744750D01*
X122768901Y-116769956D01*
X122724334Y-116776500D01*
X122673920Y-116767034D01*
X122660834Y-116744750D01*
X122643890Y-116716688D01*
X122629084Y-116713000D01*
X122601021Y-116696057D01*
X122597334Y-116681250D01*
X122578401Y-116656043D01*
X122533834Y-116649500D01*
X122483420Y-116640034D01*
X122470334Y-116617750D01*
X122463520Y-116603251D01*
X122438523Y-116593819D01*
X122388509Y-116588478D01*
X122306644Y-116586251D01*
X122248084Y-116586000D01*
X122146592Y-116586973D01*
X122080569Y-116590544D01*
X122043180Y-116597689D01*
X122027593Y-116609384D01*
X122025834Y-116617750D01*
X122006901Y-116642956D01*
X121962334Y-116649500D01*
X121911920Y-116658966D01*
X121898834Y-116681250D01*
X121881890Y-116709312D01*
X121867084Y-116713000D01*
X121839021Y-116729943D01*
X121835334Y-116744750D01*
X121818390Y-116772812D01*
X121803584Y-116776500D01*
X121775521Y-116793443D01*
X121771834Y-116808250D01*
X121754890Y-116836312D01*
X121740084Y-116840000D01*
X121712021Y-116856943D01*
X121708334Y-116871750D01*
X121691390Y-116899812D01*
X121676584Y-116903500D01*
X121658148Y-116913253D01*
X121648250Y-116947828D01*
X121644896Y-117015198D01*
X121644834Y-117030500D01*
X121642395Y-117104243D01*
X121633751Y-117143835D01*
X121616909Y-117157249D01*
X121613084Y-117157500D01*
X121594648Y-117167253D01*
X121584750Y-117201828D01*
X121581396Y-117269198D01*
X121581334Y-117284500D01*
X121583772Y-117358243D01*
X121592416Y-117397835D01*
X121609258Y-117411249D01*
X121613084Y-117411500D01*
X121638290Y-117430432D01*
X121644834Y-117475000D01*
X121654300Y-117525413D01*
X121676584Y-117538500D01*
X121704665Y-117554580D01*
X121708334Y-117568568D01*
X121726663Y-117593675D01*
X121770848Y-117612363D01*
X121771834Y-117612583D01*
X121816271Y-117627942D01*
X121835322Y-117645633D01*
X121835334Y-117646015D01*
X121854561Y-117656291D01*
X121904539Y-117663352D01*
X121962334Y-117665500D01*
X122029314Y-117662610D01*
X122075332Y-117655098D01*
X122089334Y-117646411D01*
X122108510Y-117634131D01*
X122158366Y-117621429D01*
X122216334Y-117612583D01*
X122283223Y-117602192D01*
X122329234Y-117590020D01*
X122343334Y-117580437D01*
X122361562Y-117564257D01*
X122405542Y-117549370D01*
X122406834Y-117549083D01*
X122451354Y-117530626D01*
X122470326Y-117505536D01*
X122470334Y-117505068D01*
X122487313Y-117478474D01*
X122502084Y-117475000D01*
X122530251Y-117463570D01*
X122533834Y-117453833D01*
X122550978Y-117435055D01*
X122565584Y-117432667D01*
X122593751Y-117444096D01*
X122597334Y-117453833D01*
X122614478Y-117472612D01*
X122629084Y-117475000D01*
X122657146Y-117491943D01*
X122660834Y-117506750D01*
X122643890Y-117534812D01*
X122629084Y-117538500D01*
X122608157Y-117550965D01*
X122598624Y-117593351D01*
X122597334Y-117633750D01*
X122593178Y-117696530D01*
X122579050Y-117725127D01*
X122565584Y-117729000D01*
X122540377Y-117747932D01*
X122533834Y-117792500D01*
X122524367Y-117842913D01*
X122502084Y-117856000D01*
X122474021Y-117872943D01*
X122470334Y-117887750D01*
X122457868Y-117908677D01*
X122415483Y-117918209D01*
X122375084Y-117919500D01*
X122312303Y-117923655D01*
X122283706Y-117937783D01*
X122279834Y-117951250D01*
X122274475Y-117962723D01*
X122254785Y-117971121D01*
X122215343Y-117976894D01*
X122150729Y-117980496D01*
X122055523Y-117982377D01*
X121924304Y-117982989D01*
X121898834Y-117983000D01*
X121761156Y-117982553D01*
X121660385Y-117980912D01*
X121591100Y-117977626D01*
X121547881Y-117972241D01*
X121525307Y-117964307D01*
X121517959Y-117953372D01*
X121517834Y-117951250D01*
X121498901Y-117926043D01*
X121454334Y-117919500D01*
X121403920Y-117910034D01*
X121390834Y-117887750D01*
X121371901Y-117862543D01*
X121327334Y-117856000D01*
X121276920Y-117846534D01*
X121263834Y-117824250D01*
X121246890Y-117796188D01*
X121232084Y-117792500D01*
X121204021Y-117775557D01*
X121200334Y-117760750D01*
X121183390Y-117732688D01*
X121168584Y-117729000D01*
X121143377Y-117710068D01*
X121136834Y-117665500D01*
X121127367Y-117615087D01*
X121105084Y-117602000D01*
X121092075Y-117595972D01*
X121083083Y-117573779D01*
X121077425Y-117529262D01*
X121074415Y-117456258D01*
X121073369Y-117348605D01*
X121073334Y-117316250D01*
X121074003Y-117199171D01*
X121076469Y-117118249D01*
X121081415Y-117067324D01*
X121089527Y-117040233D01*
X121101488Y-117030815D01*
X121105084Y-117030500D01*
X121126010Y-117018034D01*
X121135543Y-116975649D01*
X121136834Y-116935250D01*
X121140989Y-116872469D01*
X121155117Y-116843873D01*
X121168584Y-116840000D01*
X121196646Y-116823057D01*
X121200334Y-116808250D01*
X121217277Y-116780188D01*
X121232084Y-116776500D01*
X121257290Y-116757568D01*
X121263834Y-116713000D01*
X121273300Y-116662587D01*
X121295584Y-116649500D01*
X121323646Y-116632557D01*
X121327334Y-116617750D01*
X121344277Y-116589688D01*
X121359084Y-116586000D01*
X121387146Y-116569057D01*
X121390834Y-116554250D01*
X121407777Y-116526188D01*
X121422584Y-116522500D01*
X121450765Y-116511963D01*
X121454334Y-116503015D01*
X121472581Y-116485372D01*
X121516599Y-116469858D01*
X121517834Y-116469583D01*
X121562354Y-116451126D01*
X121581326Y-116426036D01*
X121581334Y-116425568D01*
X121598130Y-116398584D01*
X121611320Y-116395500D01*
X121643193Y-116382090D01*
X121648816Y-116372968D01*
X121672595Y-116356511D01*
X121723281Y-116342137D01*
X121745830Y-116338431D01*
X121800541Y-116327670D01*
X121832194Y-116314818D01*
X121835334Y-116310124D01*
X121854502Y-116299314D01*
X121904340Y-116287624D01*
X121962334Y-116279083D01*
X122029231Y-116268437D01*
X122075242Y-116255603D01*
X122089334Y-116245255D01*
X122108921Y-116236849D01*
X122161389Y-116230332D01*
X122237295Y-116226649D01*
X122279834Y-116226167D01*
X122363722Y-116228129D01*
G36*
X114846646Y-117491943D02*
G01*
X114850334Y-117506750D01*
X114833390Y-117534812D01*
X114818584Y-117538500D01*
X114790521Y-117521557D01*
X114786834Y-117506750D01*
X114803777Y-117478688D01*
X114818584Y-117475000D01*
X114846646Y-117491943D01*
G37*
X114846646Y-117491943D02*
X114850334Y-117506750D01*
X114833390Y-117534812D01*
X114818584Y-117538500D01*
X114790521Y-117521557D01*
X114786834Y-117506750D01*
X114803777Y-117478688D01*
X114818584Y-117475000D01*
X114846646Y-117491943D01*
G36*
X116863430Y-116358494D02*
G01*
X116882329Y-116371328D01*
X116882334Y-116371546D01*
X116901134Y-116385305D01*
X116948403Y-116398145D01*
X116971837Y-116401931D01*
X117028611Y-116414151D01*
X117064145Y-116430471D01*
X117068851Y-116436468D01*
X117093561Y-116457059D01*
X117106347Y-116459000D01*
X117132870Y-116475982D01*
X117136334Y-116490750D01*
X117119390Y-116518812D01*
X117104584Y-116522500D01*
X117076521Y-116539443D01*
X117072834Y-116554250D01*
X117053901Y-116579456D01*
X117009334Y-116586000D01*
X116958920Y-116576534D01*
X116945834Y-116554250D01*
X116936080Y-116535814D01*
X116901505Y-116525916D01*
X116834136Y-116522562D01*
X116818834Y-116522500D01*
X116745090Y-116524938D01*
X116705498Y-116533582D01*
X116692084Y-116550424D01*
X116691834Y-116554250D01*
X116672901Y-116579456D01*
X116628334Y-116586000D01*
X116577920Y-116595466D01*
X116564834Y-116617750D01*
X116547890Y-116645812D01*
X116533084Y-116649500D01*
X116505021Y-116666443D01*
X116501334Y-116681250D01*
X116484390Y-116709312D01*
X116469584Y-116713000D01*
X116455895Y-116719368D01*
X116446686Y-116742791D01*
X116441146Y-116789744D01*
X116438468Y-116866705D01*
X116437834Y-116967000D01*
X116438630Y-117076510D01*
X116441557Y-117150184D01*
X116447427Y-117194497D01*
X116457047Y-117215927D01*
X116469584Y-117221000D01*
X116497646Y-117237943D01*
X116501334Y-117252750D01*
X116520910Y-117278491D01*
X116570125Y-117288205D01*
X116654892Y-117289457D01*
X116732394Y-117284897D01*
X116790980Y-117275705D01*
X116819002Y-117263060D01*
X116819045Y-117262991D01*
X116845697Y-117245465D01*
X116887837Y-117230967D01*
X116930521Y-117225666D01*
X116945300Y-117242195D01*
X116945834Y-117250455D01*
X116961798Y-117279963D01*
X116977584Y-117284500D01*
X117005646Y-117301443D01*
X117009334Y-117316250D01*
X116990401Y-117341456D01*
X116945834Y-117348000D01*
X116895420Y-117357466D01*
X116882334Y-117379750D01*
X116863401Y-117404956D01*
X116818834Y-117411500D01*
X116768420Y-117420966D01*
X116755334Y-117443250D01*
X116745580Y-117461686D01*
X116711005Y-117471584D01*
X116643636Y-117474937D01*
X116628334Y-117475000D01*
X116554590Y-117472561D01*
X116514998Y-117463918D01*
X116501584Y-117447075D01*
X116501334Y-117443250D01*
X116488868Y-117422323D01*
X116446483Y-117412791D01*
X116406084Y-117411500D01*
X116343303Y-117407345D01*
X116314706Y-117393216D01*
X116310834Y-117379750D01*
X116293890Y-117351688D01*
X116279084Y-117348000D01*
X116253877Y-117329068D01*
X116247334Y-117284500D01*
X116237867Y-117234087D01*
X116215584Y-117221000D01*
X116201085Y-117214186D01*
X116191653Y-117189189D01*
X116186312Y-117139175D01*
X116184085Y-117057310D01*
X116183834Y-116998750D01*
X116184807Y-116897258D01*
X116188378Y-116831235D01*
X116195523Y-116793847D01*
X116207218Y-116778259D01*
X116215584Y-116776500D01*
X116240790Y-116757568D01*
X116247334Y-116713000D01*
X116256800Y-116662587D01*
X116279084Y-116649500D01*
X116307146Y-116632557D01*
X116310834Y-116617750D01*
X116327777Y-116589688D01*
X116342584Y-116586000D01*
X116370646Y-116569057D01*
X116374334Y-116554250D01*
X116391277Y-116526188D01*
X116406084Y-116522500D01*
X116434269Y-116512289D01*
X116437834Y-116503628D01*
X116455883Y-116485447D01*
X116495830Y-116470200D01*
X116542846Y-116452585D01*
X116566863Y-116434550D01*
X116594400Y-116418761D01*
X116647396Y-116404908D01*
X116667616Y-116401691D01*
X116721698Y-116390502D01*
X116752567Y-116376491D01*
X116755334Y-116371546D01*
X116773738Y-116358638D01*
X116818078Y-116353168D01*
X116818834Y-116353167D01*
X116863430Y-116358494D01*
G37*
X116863430Y-116358494D02*
X116882329Y-116371328D01*
X116882334Y-116371546D01*
X116901134Y-116385305D01*
X116948403Y-116398145D01*
X116971837Y-116401931D01*
X117028611Y-116414151D01*
X117064145Y-116430471D01*
X117068851Y-116436468D01*
X117093561Y-116457059D01*
X117106347Y-116459000D01*
X117132870Y-116475982D01*
X117136334Y-116490750D01*
X117119390Y-116518812D01*
X117104584Y-116522500D01*
X117076521Y-116539443D01*
X117072834Y-116554250D01*
X117053901Y-116579456D01*
X117009334Y-116586000D01*
X116958920Y-116576534D01*
X116945834Y-116554250D01*
X116936080Y-116535814D01*
X116901505Y-116525916D01*
X116834136Y-116522562D01*
X116818834Y-116522500D01*
X116745090Y-116524938D01*
X116705498Y-116533582D01*
X116692084Y-116550424D01*
X116691834Y-116554250D01*
X116672901Y-116579456D01*
X116628334Y-116586000D01*
X116577920Y-116595466D01*
X116564834Y-116617750D01*
X116547890Y-116645812D01*
X116533084Y-116649500D01*
X116505021Y-116666443D01*
X116501334Y-116681250D01*
X116484390Y-116709312D01*
X116469584Y-116713000D01*
X116455895Y-116719368D01*
X116446686Y-116742791D01*
X116441146Y-116789744D01*
X116438468Y-116866705D01*
X116437834Y-116967000D01*
X116438630Y-117076510D01*
X116441557Y-117150184D01*
X116447427Y-117194497D01*
X116457047Y-117215927D01*
X116469584Y-117221000D01*
X116497646Y-117237943D01*
X116501334Y-117252750D01*
X116520910Y-117278491D01*
X116570125Y-117288205D01*
X116654892Y-117289457D01*
X116732394Y-117284897D01*
X116790980Y-117275705D01*
X116819002Y-117263060D01*
X116819045Y-117262991D01*
X116845697Y-117245465D01*
X116887837Y-117230967D01*
X116930521Y-117225666D01*
X116945300Y-117242195D01*
X116945834Y-117250455D01*
X116961798Y-117279963D01*
X116977584Y-117284500D01*
X117005646Y-117301443D01*
X117009334Y-117316250D01*
X116990401Y-117341456D01*
X116945834Y-117348000D01*
X116895420Y-117357466D01*
X116882334Y-117379750D01*
X116863401Y-117404956D01*
X116818834Y-117411500D01*
X116768420Y-117420966D01*
X116755334Y-117443250D01*
X116745580Y-117461686D01*
X116711005Y-117471584D01*
X116643636Y-117474937D01*
X116628334Y-117475000D01*
X116554590Y-117472561D01*
X116514998Y-117463918D01*
X116501584Y-117447075D01*
X116501334Y-117443250D01*
X116488868Y-117422323D01*
X116446483Y-117412791D01*
X116406084Y-117411500D01*
X116343303Y-117407345D01*
X116314706Y-117393216D01*
X116310834Y-117379750D01*
X116293890Y-117351688D01*
X116279084Y-117348000D01*
X116253877Y-117329068D01*
X116247334Y-117284500D01*
X116237867Y-117234087D01*
X116215584Y-117221000D01*
X116201085Y-117214186D01*
X116191653Y-117189189D01*
X116186312Y-117139175D01*
X116184085Y-117057310D01*
X116183834Y-116998750D01*
X116184807Y-116897258D01*
X116188378Y-116831235D01*
X116195523Y-116793847D01*
X116207218Y-116778259D01*
X116215584Y-116776500D01*
X116240790Y-116757568D01*
X116247334Y-116713000D01*
X116256800Y-116662587D01*
X116279084Y-116649500D01*
X116307146Y-116632557D01*
X116310834Y-116617750D01*
X116327777Y-116589688D01*
X116342584Y-116586000D01*
X116370646Y-116569057D01*
X116374334Y-116554250D01*
X116391277Y-116526188D01*
X116406084Y-116522500D01*
X116434269Y-116512289D01*
X116437834Y-116503628D01*
X116455883Y-116485447D01*
X116495830Y-116470200D01*
X116542846Y-116452585D01*
X116566863Y-116434550D01*
X116594400Y-116418761D01*
X116647396Y-116404908D01*
X116667616Y-116401691D01*
X116721698Y-116390502D01*
X116752567Y-116376491D01*
X116755334Y-116371546D01*
X116773738Y-116358638D01*
X116818078Y-116353168D01*
X116818834Y-116353167D01*
X116863430Y-116358494D01*
G36*
X113834334Y-116459000D02*
G01*
X113824867Y-116509413D01*
X113802584Y-116522500D01*
X113785836Y-116530816D01*
X113776006Y-116560867D01*
X113771561Y-116620309D01*
X113770834Y-116681250D01*
X113769170Y-116764986D01*
X113763160Y-116814139D01*
X113751272Y-116836363D01*
X113739084Y-116840000D01*
X113722336Y-116848316D01*
X113712506Y-116878367D01*
X113708061Y-116937809D01*
X113707334Y-116998750D01*
X113705670Y-117082486D01*
X113699660Y-117131639D01*
X113687772Y-117153863D01*
X113675584Y-117157500D01*
X113650377Y-117176432D01*
X113643834Y-117221000D01*
X113634367Y-117271413D01*
X113612084Y-117284500D01*
X113584021Y-117301443D01*
X113580334Y-117316250D01*
X113563390Y-117344312D01*
X113548584Y-117348000D01*
X113520521Y-117364943D01*
X113516834Y-117379750D01*
X113497901Y-117404956D01*
X113453334Y-117411500D01*
X113402920Y-117420966D01*
X113389834Y-117443250D01*
X113380080Y-117461686D01*
X113345505Y-117471584D01*
X113278136Y-117474937D01*
X113262834Y-117475000D01*
X113189090Y-117472561D01*
X113149498Y-117463918D01*
X113136084Y-117447075D01*
X113135834Y-117443250D01*
X113116901Y-117418043D01*
X113072334Y-117411500D01*
X113021920Y-117402034D01*
X113008834Y-117379750D01*
X112991890Y-117351688D01*
X112977084Y-117348000D01*
X112949740Y-117333114D01*
X112943982Y-117298951D01*
X112957610Y-117261257D01*
X112988427Y-117235773D01*
X112992959Y-117234341D01*
X113066969Y-117221715D01*
X113117045Y-117227974D01*
X113135827Y-117252168D01*
X113135834Y-117252750D01*
X113145587Y-117271186D01*
X113180162Y-117281084D01*
X113247531Y-117284437D01*
X113262834Y-117284500D01*
X113336577Y-117282061D01*
X113376169Y-117273418D01*
X113389583Y-117256575D01*
X113389834Y-117252750D01*
X113406777Y-117224688D01*
X113421584Y-117221000D01*
X113440019Y-117211246D01*
X113449917Y-117176671D01*
X113453271Y-117109302D01*
X113453334Y-117094000D01*
X113455772Y-117020257D01*
X113464416Y-116980664D01*
X113481258Y-116967250D01*
X113485084Y-116967000D01*
X113501831Y-116958684D01*
X113511661Y-116928633D01*
X113516106Y-116869190D01*
X113516834Y-116808250D01*
X113518497Y-116724514D01*
X113524507Y-116675361D01*
X113536395Y-116653137D01*
X113548584Y-116649500D01*
X113567019Y-116639746D01*
X113576917Y-116605171D01*
X113580271Y-116537802D01*
X113580334Y-116522500D01*
X113580334Y-116395500D01*
X113834334Y-116395500D01*
X113834334Y-116459000D01*
G37*
X113834334Y-116459000D02*
X113824867Y-116509413D01*
X113802584Y-116522500D01*
X113785836Y-116530816D01*
X113776006Y-116560867D01*
X113771561Y-116620309D01*
X113770834Y-116681250D01*
X113769170Y-116764986D01*
X113763160Y-116814139D01*
X113751272Y-116836363D01*
X113739084Y-116840000D01*
X113722336Y-116848316D01*
X113712506Y-116878367D01*
X113708061Y-116937809D01*
X113707334Y-116998750D01*
X113705670Y-117082486D01*
X113699660Y-117131639D01*
X113687772Y-117153863D01*
X113675584Y-117157500D01*
X113650377Y-117176432D01*
X113643834Y-117221000D01*
X113634367Y-117271413D01*
X113612084Y-117284500D01*
X113584021Y-117301443D01*
X113580334Y-117316250D01*
X113563390Y-117344312D01*
X113548584Y-117348000D01*
X113520521Y-117364943D01*
X113516834Y-117379750D01*
X113497901Y-117404956D01*
X113453334Y-117411500D01*
X113402920Y-117420966D01*
X113389834Y-117443250D01*
X113380080Y-117461686D01*
X113345505Y-117471584D01*
X113278136Y-117474937D01*
X113262834Y-117475000D01*
X113189090Y-117472561D01*
X113149498Y-117463918D01*
X113136084Y-117447075D01*
X113135834Y-117443250D01*
X113116901Y-117418043D01*
X113072334Y-117411500D01*
X113021920Y-117402034D01*
X113008834Y-117379750D01*
X112991890Y-117351688D01*
X112977084Y-117348000D01*
X112949740Y-117333114D01*
X112943982Y-117298951D01*
X112957610Y-117261257D01*
X112988427Y-117235773D01*
X112992959Y-117234341D01*
X113066969Y-117221715D01*
X113117045Y-117227974D01*
X113135827Y-117252168D01*
X113135834Y-117252750D01*
X113145587Y-117271186D01*
X113180162Y-117281084D01*
X113247531Y-117284437D01*
X113262834Y-117284500D01*
X113336577Y-117282061D01*
X113376169Y-117273418D01*
X113389583Y-117256575D01*
X113389834Y-117252750D01*
X113406777Y-117224688D01*
X113421584Y-117221000D01*
X113440019Y-117211246D01*
X113449917Y-117176671D01*
X113453271Y-117109302D01*
X113453334Y-117094000D01*
X113455772Y-117020257D01*
X113464416Y-116980664D01*
X113481258Y-116967250D01*
X113485084Y-116967000D01*
X113501831Y-116958684D01*
X113511661Y-116928633D01*
X113516106Y-116869190D01*
X113516834Y-116808250D01*
X113518497Y-116724514D01*
X113524507Y-116675361D01*
X113536395Y-116653137D01*
X113548584Y-116649500D01*
X113567019Y-116639746D01*
X113576917Y-116605171D01*
X113580271Y-116537802D01*
X113580334Y-116522500D01*
X113580334Y-116395500D01*
X113834334Y-116395500D01*
X113834334Y-116459000D01*
G36*
X126879758Y-117538750D02*
G01*
X126883584Y-117538500D01*
X126902019Y-117528746D01*
X126911917Y-117494171D01*
X126915271Y-117426802D01*
X126915334Y-117411500D01*
X126917772Y-117337757D01*
X126926416Y-117298164D01*
X126943258Y-117284750D01*
X126947084Y-117284500D01*
X126965519Y-117274746D01*
X126975417Y-117240171D01*
X126978771Y-117172802D01*
X126978834Y-117157500D01*
X126981272Y-117083757D01*
X126989916Y-117044164D01*
X127006758Y-117030750D01*
X127010584Y-117030500D01*
X127029019Y-117020746D01*
X127038917Y-116986171D01*
X127042271Y-116918802D01*
X127042334Y-116903500D01*
X127044713Y-116831526D01*
X127549017Y-116831526D01*
X127555871Y-116874704D01*
X127577414Y-116905568D01*
X127587375Y-116910076D01*
X127655521Y-116919552D01*
X127748347Y-116921737D01*
X127848820Y-116916570D01*
X127896629Y-116911206D01*
X127962966Y-116896155D01*
X127993414Y-116875087D01*
X127994834Y-116868873D01*
X128011838Y-116843324D01*
X128026584Y-116840000D01*
X128047510Y-116827534D01*
X128057043Y-116785149D01*
X128058334Y-116744750D01*
X128054178Y-116681969D01*
X128040050Y-116653373D01*
X128026584Y-116649500D01*
X127998521Y-116632557D01*
X127994834Y-116617750D01*
X127987410Y-116602260D01*
X127960315Y-116592612D01*
X127906316Y-116587599D01*
X127818177Y-116586017D01*
X127804334Y-116586000D01*
X127613834Y-116586000D01*
X127613834Y-116681250D01*
X127609678Y-116744030D01*
X127595550Y-116772627D01*
X127582084Y-116776500D01*
X127557529Y-116793101D01*
X127549017Y-116831526D01*
X127044713Y-116831526D01*
X127044772Y-116829757D01*
X127053416Y-116790164D01*
X127070258Y-116776750D01*
X127074084Y-116776500D01*
X127092519Y-116766746D01*
X127102417Y-116732171D01*
X127105771Y-116664802D01*
X127105834Y-116649500D01*
X127108272Y-116575757D01*
X127116916Y-116536164D01*
X127133758Y-116522750D01*
X127137584Y-116522500D01*
X127156800Y-116511977D01*
X127166651Y-116475092D01*
X127169334Y-116407042D01*
X127170510Y-116340603D01*
X127178444Y-116304781D01*
X127199746Y-116287864D01*
X127241024Y-116278136D01*
X127242183Y-116277918D01*
X127292859Y-116272731D01*
X127373381Y-116269558D01*
X127476497Y-116268225D01*
X127594954Y-116268554D01*
X127721499Y-116270369D01*
X127848881Y-116273495D01*
X127969846Y-116277755D01*
X128077143Y-116282973D01*
X128163519Y-116288972D01*
X128221722Y-116295577D01*
X128244324Y-116302268D01*
X128273364Y-116320093D01*
X128326894Y-116335708D01*
X128343917Y-116338811D01*
X128398839Y-116352120D01*
X128432171Y-116368924D01*
X128435639Y-116373834D01*
X128460067Y-116393629D01*
X128472847Y-116395500D01*
X128499370Y-116412482D01*
X128502834Y-116427250D01*
X128519777Y-116455312D01*
X128534584Y-116459000D01*
X128559790Y-116477932D01*
X128566334Y-116522500D01*
X128575800Y-116572913D01*
X128598084Y-116586000D01*
X128623290Y-116604932D01*
X128629834Y-116649500D01*
X128620367Y-116699913D01*
X128598084Y-116713000D01*
X128577157Y-116725465D01*
X128567624Y-116767851D01*
X128566334Y-116808250D01*
X128562178Y-116871030D01*
X128548050Y-116899627D01*
X128534584Y-116903500D01*
X128506521Y-116920443D01*
X128502834Y-116935250D01*
X128483901Y-116960456D01*
X128439334Y-116967000D01*
X128388920Y-116976466D01*
X128375834Y-116998750D01*
X128358890Y-117026812D01*
X128344084Y-117030500D01*
X128316021Y-117047443D01*
X128312334Y-117062250D01*
X128329277Y-117090312D01*
X128344084Y-117094000D01*
X128372146Y-117110943D01*
X128375834Y-117125750D01*
X128392777Y-117153812D01*
X128407584Y-117157500D01*
X128435646Y-117174443D01*
X128439334Y-117189250D01*
X128456277Y-117217312D01*
X128471084Y-117221000D01*
X128496290Y-117239932D01*
X128502834Y-117284500D01*
X128512300Y-117334913D01*
X128534584Y-117348000D01*
X128562646Y-117364943D01*
X128566334Y-117379750D01*
X128549390Y-117407812D01*
X128534584Y-117411500D01*
X128513657Y-117423965D01*
X128504124Y-117466351D01*
X128502834Y-117506750D01*
X128498678Y-117569530D01*
X128484550Y-117598127D01*
X128471084Y-117602000D01*
X128445877Y-117620932D01*
X128439334Y-117665500D01*
X128429867Y-117715913D01*
X128407584Y-117729000D01*
X128379521Y-117745943D01*
X128375834Y-117760750D01*
X128356901Y-117785956D01*
X128312334Y-117792500D01*
X128261920Y-117801966D01*
X128248834Y-117824250D01*
X128229901Y-117849456D01*
X128185334Y-117856000D01*
X128134920Y-117865466D01*
X128121834Y-117887750D01*
X128112080Y-117906186D01*
X128077505Y-117916084D01*
X128010136Y-117919437D01*
X127994834Y-117919500D01*
X127921090Y-117921938D01*
X127881498Y-117930582D01*
X127868084Y-117947424D01*
X127867834Y-117951250D01*
X127863061Y-117961080D01*
X127845674Y-117968692D01*
X127811064Y-117974355D01*
X127754624Y-117978341D01*
X127671749Y-117980922D01*
X127557829Y-117982367D01*
X127408260Y-117982948D01*
X127328084Y-117983000D01*
X126788334Y-117983000D01*
X126788334Y-117887750D01*
X126792489Y-117824969D01*
X126806617Y-117796373D01*
X126820084Y-117792500D01*
X126838519Y-117782746D01*
X126848417Y-117748171D01*
X126851771Y-117680802D01*
X126851834Y-117665500D01*
X126854272Y-117591757D01*
X126856848Y-117579955D01*
X127363126Y-117579955D01*
X127386350Y-117605342D01*
X127396875Y-117609500D01*
X127443701Y-117616163D01*
X127515182Y-117618810D01*
X127600446Y-117617947D01*
X127688625Y-117614080D01*
X127768849Y-117607713D01*
X127830247Y-117599352D01*
X127861951Y-117589503D01*
X127863553Y-117587803D01*
X127893993Y-117564655D01*
X127936837Y-117548467D01*
X127969293Y-117537411D01*
X127986641Y-117517581D01*
X127993586Y-117477680D01*
X127994834Y-117409205D01*
X127994834Y-117284500D01*
X127899584Y-117284500D01*
X127836803Y-117280345D01*
X127808206Y-117266216D01*
X127804334Y-117252750D01*
X127796018Y-117236003D01*
X127765966Y-117226172D01*
X127706524Y-117221727D01*
X127645584Y-117221000D01*
X127561847Y-117222663D01*
X127512695Y-117228673D01*
X127490471Y-117240562D01*
X127486834Y-117252750D01*
X127469890Y-117280812D01*
X127455084Y-117284500D01*
X127436648Y-117294253D01*
X127426750Y-117328828D01*
X127423396Y-117396198D01*
X127423334Y-117411500D01*
X127420895Y-117485243D01*
X127412251Y-117524835D01*
X127395409Y-117538249D01*
X127391584Y-117538500D01*
X127364433Y-117551800D01*
X127363126Y-117579955D01*
X126856848Y-117579955D01*
X126862916Y-117552164D01*
X126879758Y-117538750D01*
G37*
X126879758Y-117538750D02*
X126883584Y-117538500D01*
X126902019Y-117528746D01*
X126911917Y-117494171D01*
X126915271Y-117426802D01*
X126915334Y-117411500D01*
X126917772Y-117337757D01*
X126926416Y-117298164D01*
X126943258Y-117284750D01*
X126947084Y-117284500D01*
X126965519Y-117274746D01*
X126975417Y-117240171D01*
X126978771Y-117172802D01*
X126978834Y-117157500D01*
X126981272Y-117083757D01*
X126989916Y-117044164D01*
X127006758Y-117030750D01*
X127010584Y-117030500D01*
X127029019Y-117020746D01*
X127038917Y-116986171D01*
X127042271Y-116918802D01*
X127042334Y-116903500D01*
X127044713Y-116831526D01*
X127549017Y-116831526D01*
X127555871Y-116874704D01*
X127577414Y-116905568D01*
X127587375Y-116910076D01*
X127655521Y-116919552D01*
X127748347Y-116921737D01*
X127848820Y-116916570D01*
X127896629Y-116911206D01*
X127962966Y-116896155D01*
X127993414Y-116875087D01*
X127994834Y-116868873D01*
X128011838Y-116843324D01*
X128026584Y-116840000D01*
X128047510Y-116827534D01*
X128057043Y-116785149D01*
X128058334Y-116744750D01*
X128054178Y-116681969D01*
X128040050Y-116653373D01*
X128026584Y-116649500D01*
X127998521Y-116632557D01*
X127994834Y-116617750D01*
X127987410Y-116602260D01*
X127960315Y-116592612D01*
X127906316Y-116587599D01*
X127818177Y-116586017D01*
X127804334Y-116586000D01*
X127613834Y-116586000D01*
X127613834Y-116681250D01*
X127609678Y-116744030D01*
X127595550Y-116772627D01*
X127582084Y-116776500D01*
X127557529Y-116793101D01*
X127549017Y-116831526D01*
X127044713Y-116831526D01*
X127044772Y-116829757D01*
X127053416Y-116790164D01*
X127070258Y-116776750D01*
X127074084Y-116776500D01*
X127092519Y-116766746D01*
X127102417Y-116732171D01*
X127105771Y-116664802D01*
X127105834Y-116649500D01*
X127108272Y-116575757D01*
X127116916Y-116536164D01*
X127133758Y-116522750D01*
X127137584Y-116522500D01*
X127156800Y-116511977D01*
X127166651Y-116475092D01*
X127169334Y-116407042D01*
X127170510Y-116340603D01*
X127178444Y-116304781D01*
X127199746Y-116287864D01*
X127241024Y-116278136D01*
X127242183Y-116277918D01*
X127292859Y-116272731D01*
X127373381Y-116269558D01*
X127476497Y-116268225D01*
X127594954Y-116268554D01*
X127721499Y-116270369D01*
X127848881Y-116273495D01*
X127969846Y-116277755D01*
X128077143Y-116282973D01*
X128163519Y-116288972D01*
X128221722Y-116295577D01*
X128244324Y-116302268D01*
X128273364Y-116320093D01*
X128326894Y-116335708D01*
X128343917Y-116338811D01*
X128398839Y-116352120D01*
X128432171Y-116368924D01*
X128435639Y-116373834D01*
X128460067Y-116393629D01*
X128472847Y-116395500D01*
X128499370Y-116412482D01*
X128502834Y-116427250D01*
X128519777Y-116455312D01*
X128534584Y-116459000D01*
X128559790Y-116477932D01*
X128566334Y-116522500D01*
X128575800Y-116572913D01*
X128598084Y-116586000D01*
X128623290Y-116604932D01*
X128629834Y-116649500D01*
X128620367Y-116699913D01*
X128598084Y-116713000D01*
X128577157Y-116725465D01*
X128567624Y-116767851D01*
X128566334Y-116808250D01*
X128562178Y-116871030D01*
X128548050Y-116899627D01*
X128534584Y-116903500D01*
X128506521Y-116920443D01*
X128502834Y-116935250D01*
X128483901Y-116960456D01*
X128439334Y-116967000D01*
X128388920Y-116976466D01*
X128375834Y-116998750D01*
X128358890Y-117026812D01*
X128344084Y-117030500D01*
X128316021Y-117047443D01*
X128312334Y-117062250D01*
X128329277Y-117090312D01*
X128344084Y-117094000D01*
X128372146Y-117110943D01*
X128375834Y-117125750D01*
X128392777Y-117153812D01*
X128407584Y-117157500D01*
X128435646Y-117174443D01*
X128439334Y-117189250D01*
X128456277Y-117217312D01*
X128471084Y-117221000D01*
X128496290Y-117239932D01*
X128502834Y-117284500D01*
X128512300Y-117334913D01*
X128534584Y-117348000D01*
X128562646Y-117364943D01*
X128566334Y-117379750D01*
X128549390Y-117407812D01*
X128534584Y-117411500D01*
X128513657Y-117423965D01*
X128504124Y-117466351D01*
X128502834Y-117506750D01*
X128498678Y-117569530D01*
X128484550Y-117598127D01*
X128471084Y-117602000D01*
X128445877Y-117620932D01*
X128439334Y-117665500D01*
X128429867Y-117715913D01*
X128407584Y-117729000D01*
X128379521Y-117745943D01*
X128375834Y-117760750D01*
X128356901Y-117785956D01*
X128312334Y-117792500D01*
X128261920Y-117801966D01*
X128248834Y-117824250D01*
X128229901Y-117849456D01*
X128185334Y-117856000D01*
X128134920Y-117865466D01*
X128121834Y-117887750D01*
X128112080Y-117906186D01*
X128077505Y-117916084D01*
X128010136Y-117919437D01*
X127994834Y-117919500D01*
X127921090Y-117921938D01*
X127881498Y-117930582D01*
X127868084Y-117947424D01*
X127867834Y-117951250D01*
X127863061Y-117961080D01*
X127845674Y-117968692D01*
X127811064Y-117974355D01*
X127754624Y-117978341D01*
X127671749Y-117980922D01*
X127557829Y-117982367D01*
X127408260Y-117982948D01*
X127328084Y-117983000D01*
X126788334Y-117983000D01*
X126788334Y-117887750D01*
X126792489Y-117824969D01*
X126806617Y-117796373D01*
X126820084Y-117792500D01*
X126838519Y-117782746D01*
X126848417Y-117748171D01*
X126851771Y-117680802D01*
X126851834Y-117665500D01*
X126854272Y-117591757D01*
X126856848Y-117579955D01*
X127363126Y-117579955D01*
X127386350Y-117605342D01*
X127396875Y-117609500D01*
X127443701Y-117616163D01*
X127515182Y-117618810D01*
X127600446Y-117617947D01*
X127688625Y-117614080D01*
X127768849Y-117607713D01*
X127830247Y-117599352D01*
X127861951Y-117589503D01*
X127863553Y-117587803D01*
X127893993Y-117564655D01*
X127936837Y-117548467D01*
X127969293Y-117537411D01*
X127986641Y-117517581D01*
X127993586Y-117477680D01*
X127994834Y-117409205D01*
X127994834Y-117284500D01*
X127899584Y-117284500D01*
X127836803Y-117280345D01*
X127808206Y-117266216D01*
X127804334Y-117252750D01*
X127796018Y-117236003D01*
X127765966Y-117226172D01*
X127706524Y-117221727D01*
X127645584Y-117221000D01*
X127561847Y-117222663D01*
X127512695Y-117228673D01*
X127490471Y-117240562D01*
X127486834Y-117252750D01*
X127469890Y-117280812D01*
X127455084Y-117284500D01*
X127436648Y-117294253D01*
X127426750Y-117328828D01*
X127423396Y-117396198D01*
X127423334Y-117411500D01*
X127420895Y-117485243D01*
X127412251Y-117524835D01*
X127395409Y-117538249D01*
X127391584Y-117538500D01*
X127364433Y-117551800D01*
X127363126Y-117579955D01*
X126856848Y-117579955D01*
X126862916Y-117552164D01*
X126879758Y-117538750D01*
G36*
X114973646Y-117428443D02*
G01*
X114977334Y-117443250D01*
X114960390Y-117471312D01*
X114945584Y-117475000D01*
X114917521Y-117458057D01*
X114913834Y-117443250D01*
X114930777Y-117415188D01*
X114945584Y-117411500D01*
X114973646Y-117428443D01*
G37*
X114973646Y-117428443D02*
X114977334Y-117443250D01*
X114960390Y-117471312D01*
X114945584Y-117475000D01*
X114917521Y-117458057D01*
X114913834Y-117443250D01*
X114930777Y-117415188D01*
X114945584Y-117411500D01*
X114973646Y-117428443D01*
G36*
X115494532Y-115592494D02*
G01*
X115581862Y-115596135D01*
X115644363Y-115601573D01*
X115674324Y-115608293D01*
X115675834Y-115610255D01*
X115695010Y-115622535D01*
X115744866Y-115635237D01*
X115802834Y-115644083D01*
X115869719Y-115654306D01*
X115915729Y-115666044D01*
X115929834Y-115675124D01*
X115948604Y-115687691D01*
X115995696Y-115699744D01*
X116017551Y-115703191D01*
X116075276Y-115715209D01*
X116113062Y-115730963D01*
X116118304Y-115736050D01*
X116146838Y-115756352D01*
X116189337Y-115771700D01*
X116231286Y-115788102D01*
X116247334Y-115805128D01*
X116264511Y-115821881D01*
X116279084Y-115824000D01*
X116307165Y-115840080D01*
X116310834Y-115854068D01*
X116329163Y-115879175D01*
X116373348Y-115897863D01*
X116374334Y-115898083D01*
X116418771Y-115913442D01*
X116437822Y-115931133D01*
X116437834Y-115931515D01*
X116455003Y-115948810D01*
X116469584Y-115951000D01*
X116497646Y-115967943D01*
X116501334Y-115982750D01*
X116518277Y-116010812D01*
X116533084Y-116014500D01*
X116561146Y-116031443D01*
X116564834Y-116046250D01*
X116581777Y-116074312D01*
X116596584Y-116078000D01*
X116624646Y-116094943D01*
X116628334Y-116109750D01*
X116645277Y-116137812D01*
X116660084Y-116141500D01*
X116688146Y-116158443D01*
X116691834Y-116173250D01*
X116686628Y-116184325D01*
X116667528Y-116192547D01*
X116629310Y-116198316D01*
X116566749Y-116202035D01*
X116474620Y-116204105D01*
X116347699Y-116204929D01*
X116279084Y-116205000D01*
X116135102Y-116204599D01*
X116028224Y-116203130D01*
X115953225Y-116200190D01*
X115904880Y-116195378D01*
X115877966Y-116188291D01*
X115867258Y-116178528D01*
X115866334Y-116173250D01*
X115849390Y-116145188D01*
X115834584Y-116141500D01*
X115809377Y-116122568D01*
X115802834Y-116078000D01*
X115797589Y-116033023D01*
X115772849Y-116016445D01*
X115739334Y-116014500D01*
X115688920Y-116005034D01*
X115675834Y-115982750D01*
X115658890Y-115954688D01*
X115644084Y-115951000D01*
X115616021Y-115934057D01*
X115612334Y-115919250D01*
X115593401Y-115894043D01*
X115548834Y-115887500D01*
X115498420Y-115878034D01*
X115485334Y-115855750D01*
X115475580Y-115837314D01*
X115441005Y-115827416D01*
X115373636Y-115824062D01*
X115358334Y-115824000D01*
X115284590Y-115821561D01*
X115244998Y-115812918D01*
X115231584Y-115796075D01*
X115231334Y-115792250D01*
X115225793Y-115780330D01*
X115205413Y-115771746D01*
X115164554Y-115765984D01*
X115097577Y-115762531D01*
X114998844Y-115760877D01*
X114882084Y-115760500D01*
X114750968Y-115761004D01*
X114656538Y-115762856D01*
X114593156Y-115766571D01*
X114555182Y-115772660D01*
X114536978Y-115781635D01*
X114532834Y-115792250D01*
X114520368Y-115813177D01*
X114477983Y-115822709D01*
X114437584Y-115824000D01*
X114371564Y-115819053D01*
X114345445Y-115806944D01*
X114359864Y-115791767D01*
X114415455Y-115777619D01*
X114430051Y-115775475D01*
X114487711Y-115763658D01*
X114525382Y-115748398D01*
X114530592Y-115743500D01*
X114557196Y-115729700D01*
X114612107Y-115715580D01*
X114659834Y-115707583D01*
X114725998Y-115695898D01*
X114773225Y-115682422D01*
X114787739Y-115673827D01*
X114813046Y-115663158D01*
X114868987Y-115651905D01*
X114943961Y-115642348D01*
X114951781Y-115641599D01*
X115025941Y-115632405D01*
X115080194Y-115621293D01*
X115104019Y-115610489D01*
X115104334Y-115609294D01*
X115124213Y-115602668D01*
X115178710Y-115597128D01*
X115260113Y-115593163D01*
X115360710Y-115591262D01*
X115390084Y-115591167D01*
X115494532Y-115592494D01*
G37*
X115494532Y-115592494D02*
X115581862Y-115596135D01*
X115644363Y-115601573D01*
X115674324Y-115608293D01*
X115675834Y-115610255D01*
X115695010Y-115622535D01*
X115744866Y-115635237D01*
X115802834Y-115644083D01*
X115869719Y-115654306D01*
X115915729Y-115666044D01*
X115929834Y-115675124D01*
X115948604Y-115687691D01*
X115995696Y-115699744D01*
X116017551Y-115703191D01*
X116075276Y-115715209D01*
X116113062Y-115730963D01*
X116118304Y-115736050D01*
X116146838Y-115756352D01*
X116189337Y-115771700D01*
X116231286Y-115788102D01*
X116247334Y-115805128D01*
X116264511Y-115821881D01*
X116279084Y-115824000D01*
X116307165Y-115840080D01*
X116310834Y-115854068D01*
X116329163Y-115879175D01*
X116373348Y-115897863D01*
X116374334Y-115898083D01*
X116418771Y-115913442D01*
X116437822Y-115931133D01*
X116437834Y-115931515D01*
X116455003Y-115948810D01*
X116469584Y-115951000D01*
X116497646Y-115967943D01*
X116501334Y-115982750D01*
X116518277Y-116010812D01*
X116533084Y-116014500D01*
X116561146Y-116031443D01*
X116564834Y-116046250D01*
X116581777Y-116074312D01*
X116596584Y-116078000D01*
X116624646Y-116094943D01*
X116628334Y-116109750D01*
X116645277Y-116137812D01*
X116660084Y-116141500D01*
X116688146Y-116158443D01*
X116691834Y-116173250D01*
X116686628Y-116184325D01*
X116667528Y-116192547D01*
X116629310Y-116198316D01*
X116566749Y-116202035D01*
X116474620Y-116204105D01*
X116347699Y-116204929D01*
X116279084Y-116205000D01*
X116135102Y-116204599D01*
X116028224Y-116203130D01*
X115953225Y-116200190D01*
X115904880Y-116195378D01*
X115877966Y-116188291D01*
X115867258Y-116178528D01*
X115866334Y-116173250D01*
X115849390Y-116145188D01*
X115834584Y-116141500D01*
X115809377Y-116122568D01*
X115802834Y-116078000D01*
X115797589Y-116033023D01*
X115772849Y-116016445D01*
X115739334Y-116014500D01*
X115688920Y-116005034D01*
X115675834Y-115982750D01*
X115658890Y-115954688D01*
X115644084Y-115951000D01*
X115616021Y-115934057D01*
X115612334Y-115919250D01*
X115593401Y-115894043D01*
X115548834Y-115887500D01*
X115498420Y-115878034D01*
X115485334Y-115855750D01*
X115475580Y-115837314D01*
X115441005Y-115827416D01*
X115373636Y-115824062D01*
X115358334Y-115824000D01*
X115284590Y-115821561D01*
X115244998Y-115812918D01*
X115231584Y-115796075D01*
X115231334Y-115792250D01*
X115225793Y-115780330D01*
X115205413Y-115771746D01*
X115164554Y-115765984D01*
X115097577Y-115762531D01*
X114998844Y-115760877D01*
X114882084Y-115760500D01*
X114750968Y-115761004D01*
X114656538Y-115762856D01*
X114593156Y-115766571D01*
X114555182Y-115772660D01*
X114536978Y-115781635D01*
X114532834Y-115792250D01*
X114520368Y-115813177D01*
X114477983Y-115822709D01*
X114437584Y-115824000D01*
X114371564Y-115819053D01*
X114345445Y-115806944D01*
X114359864Y-115791767D01*
X114415455Y-115777619D01*
X114430051Y-115775475D01*
X114487711Y-115763658D01*
X114525382Y-115748398D01*
X114530592Y-115743500D01*
X114557196Y-115729700D01*
X114612107Y-115715580D01*
X114659834Y-115707583D01*
X114725998Y-115695898D01*
X114773225Y-115682422D01*
X114787739Y-115673827D01*
X114813046Y-115663158D01*
X114868987Y-115651905D01*
X114943961Y-115642348D01*
X114951781Y-115641599D01*
X115025941Y-115632405D01*
X115080194Y-115621293D01*
X115104019Y-115610489D01*
X115104334Y-115609294D01*
X115124213Y-115602668D01*
X115178710Y-115597128D01*
X115260113Y-115593163D01*
X115360710Y-115591262D01*
X115390084Y-115591167D01*
X115494532Y-115592494D01*
G36*
X116359565Y-117602400D02*
G01*
X116466443Y-117603869D01*
X116541442Y-117606809D01*
X116589787Y-117611622D01*
X116616701Y-117618709D01*
X116627409Y-117628472D01*
X116628334Y-117633750D01*
X116611390Y-117661812D01*
X116596584Y-117665500D01*
X116568521Y-117682443D01*
X116564834Y-117697250D01*
X116547890Y-117725312D01*
X116533084Y-117729000D01*
X116505021Y-117745943D01*
X116501334Y-117760750D01*
X116484390Y-117788812D01*
X116469584Y-117792500D01*
X116444377Y-117811432D01*
X116437834Y-117856000D01*
X116428367Y-117906413D01*
X116406084Y-117919500D01*
X116378021Y-117936443D01*
X116374334Y-117951250D01*
X116357390Y-117979312D01*
X116342584Y-117983000D01*
X116314521Y-117999943D01*
X116310834Y-118014750D01*
X116293890Y-118042812D01*
X116279084Y-118046500D01*
X116251021Y-118063443D01*
X116247334Y-118078250D01*
X116228401Y-118103456D01*
X116183834Y-118110000D01*
X116133420Y-118119466D01*
X116120334Y-118141750D01*
X116103390Y-118169812D01*
X116088584Y-118173500D01*
X116060521Y-118190443D01*
X116056834Y-118205250D01*
X116039890Y-118233312D01*
X116025084Y-118237000D01*
X115997021Y-118253943D01*
X115993334Y-118268750D01*
X115974401Y-118293956D01*
X115929834Y-118300500D01*
X115879420Y-118309966D01*
X115866334Y-118332250D01*
X115847401Y-118357456D01*
X115802834Y-118364000D01*
X115752420Y-118373466D01*
X115739334Y-118395750D01*
X115722390Y-118423812D01*
X115707584Y-118427500D01*
X115679521Y-118444443D01*
X115675834Y-118459250D01*
X115663368Y-118480177D01*
X115620983Y-118489709D01*
X115580584Y-118491000D01*
X115517803Y-118495155D01*
X115489206Y-118509283D01*
X115485334Y-118522750D01*
X115466401Y-118547956D01*
X115421834Y-118554500D01*
X115371420Y-118563966D01*
X115358334Y-118586250D01*
X115345868Y-118607177D01*
X115303483Y-118616709D01*
X115263084Y-118618000D01*
X115200303Y-118622155D01*
X115171706Y-118636283D01*
X115167834Y-118649750D01*
X115158080Y-118668186D01*
X115123505Y-118678084D01*
X115056136Y-118681437D01*
X115040834Y-118681500D01*
X114967090Y-118683938D01*
X114927498Y-118692582D01*
X114914084Y-118709424D01*
X114913834Y-118713250D01*
X114907465Y-118726939D01*
X114884042Y-118736148D01*
X114837089Y-118741687D01*
X114760129Y-118744366D01*
X114659834Y-118745000D01*
X114550323Y-118745796D01*
X114476650Y-118748724D01*
X114432336Y-118754593D01*
X114410907Y-118764213D01*
X114405834Y-118776750D01*
X114388890Y-118804812D01*
X114374084Y-118808500D01*
X114346021Y-118791557D01*
X114342334Y-118776750D01*
X114335520Y-118762251D01*
X114310523Y-118752819D01*
X114260509Y-118747478D01*
X114178644Y-118745251D01*
X114120084Y-118745000D01*
X114018592Y-118744026D01*
X113952569Y-118740455D01*
X113915180Y-118733311D01*
X113899593Y-118721616D01*
X113897834Y-118713250D01*
X113888080Y-118694814D01*
X113853505Y-118684916D01*
X113786136Y-118681562D01*
X113770834Y-118681500D01*
X113697090Y-118679061D01*
X113657498Y-118670418D01*
X113644084Y-118653575D01*
X113643834Y-118649750D01*
X113624901Y-118624543D01*
X113580334Y-118618000D01*
X113529920Y-118608534D01*
X113516834Y-118586250D01*
X113497901Y-118561043D01*
X113453334Y-118554500D01*
X113402920Y-118545034D01*
X113389834Y-118522750D01*
X113372890Y-118494688D01*
X113358084Y-118491000D01*
X113330021Y-118474057D01*
X113326334Y-118459250D01*
X113307401Y-118434043D01*
X113262834Y-118427500D01*
X113212420Y-118418034D01*
X113199334Y-118395750D01*
X113182390Y-118367688D01*
X113167584Y-118364000D01*
X113139521Y-118347057D01*
X113135834Y-118332250D01*
X113118890Y-118304188D01*
X113104084Y-118300500D01*
X113078877Y-118281568D01*
X113072334Y-118237000D01*
X113062867Y-118186587D01*
X113040584Y-118173500D01*
X113012521Y-118156557D01*
X113008834Y-118141750D01*
X112991890Y-118113688D01*
X112977084Y-118110000D01*
X112951877Y-118091068D01*
X112945334Y-118046500D01*
X112935867Y-117996087D01*
X112913584Y-117983000D01*
X112888377Y-117964068D01*
X112881834Y-117919500D01*
X112891300Y-117869087D01*
X112913584Y-117856000D01*
X112938790Y-117874932D01*
X112945334Y-117919500D01*
X112954800Y-117969913D01*
X112977084Y-117983000D01*
X113005146Y-117999943D01*
X113008834Y-118014750D01*
X113025777Y-118042812D01*
X113040584Y-118046500D01*
X113068646Y-118063443D01*
X113072334Y-118078250D01*
X113089277Y-118106312D01*
X113104084Y-118110000D01*
X113132165Y-118126080D01*
X113135833Y-118140068D01*
X113154163Y-118165175D01*
X113198348Y-118183863D01*
X113199333Y-118184083D01*
X113243750Y-118198773D01*
X113262820Y-118214866D01*
X113262834Y-118215220D01*
X113280864Y-118232174D01*
X113320830Y-118246967D01*
X113367621Y-118264276D01*
X113391334Y-118281761D01*
X113418616Y-118297746D01*
X113470800Y-118312246D01*
X113486796Y-118315106D01*
X113542662Y-118327818D01*
X113578190Y-118343082D01*
X113582064Y-118346885D01*
X113607439Y-118356701D01*
X113664610Y-118366882D01*
X113743091Y-118375734D01*
X113777856Y-118378506D01*
X113860002Y-118386223D01*
X113923144Y-118395808D01*
X113957674Y-118405639D01*
X113961334Y-118409477D01*
X113980258Y-118420227D01*
X114028137Y-118426674D01*
X114056584Y-118427500D01*
X114113397Y-118423935D01*
X114147469Y-118414917D01*
X114151834Y-118409559D01*
X114171603Y-118401425D01*
X114225397Y-118392628D01*
X114304940Y-118384240D01*
X114399500Y-118377473D01*
X114497605Y-118370417D01*
X114579417Y-118361793D01*
X114636138Y-118352716D01*
X114658792Y-118344646D01*
X114684598Y-118332099D01*
X114739273Y-118319026D01*
X114792125Y-118310793D01*
X114857403Y-118300075D01*
X114901577Y-118287882D01*
X114913834Y-118279189D01*
X114931856Y-118262787D01*
X114971830Y-118248200D01*
X115018846Y-118230585D01*
X115042863Y-118212550D01*
X115070400Y-118196761D01*
X115123396Y-118182908D01*
X115143616Y-118179691D01*
X115204045Y-118165010D01*
X115230680Y-118143286D01*
X115231334Y-118138963D01*
X115248337Y-118113335D01*
X115263084Y-118110000D01*
X115291265Y-118099463D01*
X115294834Y-118090515D01*
X115313081Y-118072872D01*
X115357099Y-118057358D01*
X115358334Y-118057083D01*
X115402854Y-118038626D01*
X115421826Y-118013536D01*
X115421834Y-118013068D01*
X115438813Y-117986474D01*
X115453584Y-117983000D01*
X115481751Y-117971570D01*
X115485334Y-117961833D01*
X115502478Y-117943055D01*
X115517084Y-117940667D01*
X115545146Y-117923723D01*
X115548834Y-117908917D01*
X115565777Y-117880854D01*
X115580584Y-117877167D01*
X115608646Y-117860223D01*
X115612334Y-117845417D01*
X115629277Y-117817354D01*
X115644084Y-117813667D01*
X115672146Y-117796723D01*
X115675834Y-117781917D01*
X115692777Y-117753854D01*
X115707584Y-117750167D01*
X115733441Y-117732520D01*
X115739334Y-117707833D01*
X115752568Y-117673357D01*
X115771084Y-117665500D01*
X115799146Y-117648557D01*
X115802834Y-117633750D01*
X115808039Y-117622674D01*
X115827139Y-117614453D01*
X115865357Y-117608684D01*
X115927918Y-117604965D01*
X116020047Y-117602895D01*
X116146968Y-117602071D01*
X116215584Y-117602000D01*
X116359565Y-117602400D01*
G37*
X116359565Y-117602400D02*
X116466443Y-117603869D01*
X116541442Y-117606809D01*
X116589787Y-117611622D01*
X116616701Y-117618709D01*
X116627409Y-117628472D01*
X116628334Y-117633750D01*
X116611390Y-117661812D01*
X116596584Y-117665500D01*
X116568521Y-117682443D01*
X116564834Y-117697250D01*
X116547890Y-117725312D01*
X116533084Y-117729000D01*
X116505021Y-117745943D01*
X116501334Y-117760750D01*
X116484390Y-117788812D01*
X116469584Y-117792500D01*
X116444377Y-117811432D01*
X116437834Y-117856000D01*
X116428367Y-117906413D01*
X116406084Y-117919500D01*
X116378021Y-117936443D01*
X116374334Y-117951250D01*
X116357390Y-117979312D01*
X116342584Y-117983000D01*
X116314521Y-117999943D01*
X116310834Y-118014750D01*
X116293890Y-118042812D01*
X116279084Y-118046500D01*
X116251021Y-118063443D01*
X116247334Y-118078250D01*
X116228401Y-118103456D01*
X116183834Y-118110000D01*
X116133420Y-118119466D01*
X116120334Y-118141750D01*
X116103390Y-118169812D01*
X116088584Y-118173500D01*
X116060521Y-118190443D01*
X116056834Y-118205250D01*
X116039890Y-118233312D01*
X116025084Y-118237000D01*
X115997021Y-118253943D01*
X115993334Y-118268750D01*
X115974401Y-118293956D01*
X115929834Y-118300500D01*
X115879420Y-118309966D01*
X115866334Y-118332250D01*
X115847401Y-118357456D01*
X115802834Y-118364000D01*
X115752420Y-118373466D01*
X115739334Y-118395750D01*
X115722390Y-118423812D01*
X115707584Y-118427500D01*
X115679521Y-118444443D01*
X115675834Y-118459250D01*
X115663368Y-118480177D01*
X115620983Y-118489709D01*
X115580584Y-118491000D01*
X115517803Y-118495155D01*
X115489206Y-118509283D01*
X115485334Y-118522750D01*
X115466401Y-118547956D01*
X115421834Y-118554500D01*
X115371420Y-118563966D01*
X115358334Y-118586250D01*
X115345868Y-118607177D01*
X115303483Y-118616709D01*
X115263084Y-118618000D01*
X115200303Y-118622155D01*
X115171706Y-118636283D01*
X115167834Y-118649750D01*
X115158080Y-118668186D01*
X115123505Y-118678084D01*
X115056136Y-118681437D01*
X115040834Y-118681500D01*
X114967090Y-118683938D01*
X114927498Y-118692582D01*
X114914084Y-118709424D01*
X114913834Y-118713250D01*
X114907465Y-118726939D01*
X114884042Y-118736148D01*
X114837089Y-118741687D01*
X114760129Y-118744366D01*
X114659834Y-118745000D01*
X114550323Y-118745796D01*
X114476650Y-118748724D01*
X114432336Y-118754593D01*
X114410907Y-118764213D01*
X114405834Y-118776750D01*
X114388890Y-118804812D01*
X114374084Y-118808500D01*
X114346021Y-118791557D01*
X114342334Y-118776750D01*
X114335520Y-118762251D01*
X114310523Y-118752819D01*
X114260509Y-118747478D01*
X114178644Y-118745251D01*
X114120084Y-118745000D01*
X114018592Y-118744026D01*
X113952569Y-118740455D01*
X113915180Y-118733311D01*
X113899593Y-118721616D01*
X113897834Y-118713250D01*
X113888080Y-118694814D01*
X113853505Y-118684916D01*
X113786136Y-118681562D01*
X113770834Y-118681500D01*
X113697090Y-118679061D01*
X113657498Y-118670418D01*
X113644084Y-118653575D01*
X113643834Y-118649750D01*
X113624901Y-118624543D01*
X113580334Y-118618000D01*
X113529920Y-118608534D01*
X113516834Y-118586250D01*
X113497901Y-118561043D01*
X113453334Y-118554500D01*
X113402920Y-118545034D01*
X113389834Y-118522750D01*
X113372890Y-118494688D01*
X113358084Y-118491000D01*
X113330021Y-118474057D01*
X113326334Y-118459250D01*
X113307401Y-118434043D01*
X113262834Y-118427500D01*
X113212420Y-118418034D01*
X113199334Y-118395750D01*
X113182390Y-118367688D01*
X113167584Y-118364000D01*
X113139521Y-118347057D01*
X113135834Y-118332250D01*
X113118890Y-118304188D01*
X113104084Y-118300500D01*
X113078877Y-118281568D01*
X113072334Y-118237000D01*
X113062867Y-118186587D01*
X113040584Y-118173500D01*
X113012521Y-118156557D01*
X113008834Y-118141750D01*
X112991890Y-118113688D01*
X112977084Y-118110000D01*
X112951877Y-118091068D01*
X112945334Y-118046500D01*
X112935867Y-117996087D01*
X112913584Y-117983000D01*
X112888377Y-117964068D01*
X112881834Y-117919500D01*
X112891300Y-117869087D01*
X112913584Y-117856000D01*
X112938790Y-117874932D01*
X112945334Y-117919500D01*
X112954800Y-117969913D01*
X112977084Y-117983000D01*
X113005146Y-117999943D01*
X113008834Y-118014750D01*
X113025777Y-118042812D01*
X113040584Y-118046500D01*
X113068646Y-118063443D01*
X113072334Y-118078250D01*
X113089277Y-118106312D01*
X113104084Y-118110000D01*
X113132165Y-118126080D01*
X113135833Y-118140068D01*
X113154163Y-118165175D01*
X113198348Y-118183863D01*
X113199333Y-118184083D01*
X113243750Y-118198773D01*
X113262820Y-118214866D01*
X113262834Y-118215220D01*
X113280864Y-118232174D01*
X113320830Y-118246967D01*
X113367621Y-118264276D01*
X113391334Y-118281761D01*
X113418616Y-118297746D01*
X113470800Y-118312246D01*
X113486796Y-118315106D01*
X113542662Y-118327818D01*
X113578190Y-118343082D01*
X113582064Y-118346885D01*
X113607439Y-118356701D01*
X113664610Y-118366882D01*
X113743091Y-118375734D01*
X113777856Y-118378506D01*
X113860002Y-118386223D01*
X113923144Y-118395808D01*
X113957674Y-118405639D01*
X113961334Y-118409477D01*
X113980258Y-118420227D01*
X114028137Y-118426674D01*
X114056584Y-118427500D01*
X114113397Y-118423935D01*
X114147469Y-118414917D01*
X114151834Y-118409559D01*
X114171603Y-118401425D01*
X114225397Y-118392628D01*
X114304940Y-118384240D01*
X114399500Y-118377473D01*
X114497605Y-118370417D01*
X114579417Y-118361793D01*
X114636138Y-118352716D01*
X114658792Y-118344646D01*
X114684598Y-118332099D01*
X114739273Y-118319026D01*
X114792125Y-118310793D01*
X114857403Y-118300075D01*
X114901577Y-118287882D01*
X114913834Y-118279189D01*
X114931856Y-118262787D01*
X114971830Y-118248200D01*
X115018846Y-118230585D01*
X115042863Y-118212550D01*
X115070400Y-118196761D01*
X115123396Y-118182908D01*
X115143616Y-118179691D01*
X115204045Y-118165010D01*
X115230680Y-118143286D01*
X115231334Y-118138963D01*
X115248337Y-118113335D01*
X115263084Y-118110000D01*
X115291265Y-118099463D01*
X115294834Y-118090515D01*
X115313081Y-118072872D01*
X115357099Y-118057358D01*
X115358334Y-118057083D01*
X115402854Y-118038626D01*
X115421826Y-118013536D01*
X115421834Y-118013068D01*
X115438813Y-117986474D01*
X115453584Y-117983000D01*
X115481751Y-117971570D01*
X115485334Y-117961833D01*
X115502478Y-117943055D01*
X115517084Y-117940667D01*
X115545146Y-117923723D01*
X115548834Y-117908917D01*
X115565777Y-117880854D01*
X115580584Y-117877167D01*
X115608646Y-117860223D01*
X115612334Y-117845417D01*
X115629277Y-117817354D01*
X115644084Y-117813667D01*
X115672146Y-117796723D01*
X115675834Y-117781917D01*
X115692777Y-117753854D01*
X115707584Y-117750167D01*
X115733441Y-117732520D01*
X115739334Y-117707833D01*
X115752568Y-117673357D01*
X115771084Y-117665500D01*
X115799146Y-117648557D01*
X115802834Y-117633750D01*
X115808039Y-117622674D01*
X115827139Y-117614453D01*
X115865357Y-117608684D01*
X115927918Y-117604965D01*
X116020047Y-117602895D01*
X116146968Y-117602071D01*
X116215584Y-117602000D01*
X116359565Y-117602400D01*
G36*
X126173723Y-116228030D02*
G01*
X126238764Y-116233023D01*
X126275514Y-116240246D01*
X126280334Y-116244294D01*
X126299700Y-116254906D01*
X126350786Y-116266100D01*
X126423070Y-116275649D01*
X126432886Y-116276599D01*
X126509125Y-116285988D01*
X126567487Y-116297479D01*
X126596348Y-116308729D01*
X126597140Y-116309710D01*
X126624550Y-116328355D01*
X126666837Y-116343200D01*
X126708786Y-116359602D01*
X126724834Y-116376628D01*
X126742011Y-116393381D01*
X126756584Y-116395500D01*
X126784646Y-116412443D01*
X126788334Y-116427250D01*
X126771390Y-116455312D01*
X126756584Y-116459000D01*
X126738148Y-116468753D01*
X126728250Y-116503328D01*
X126724896Y-116570698D01*
X126724834Y-116586000D01*
X126722395Y-116659743D01*
X126713751Y-116699335D01*
X126696909Y-116712749D01*
X126693084Y-116713000D01*
X126667877Y-116731932D01*
X126661334Y-116776500D01*
X126651867Y-116826913D01*
X126629584Y-116840000D01*
X126601521Y-116823057D01*
X126597834Y-116808250D01*
X126580890Y-116780188D01*
X126566084Y-116776500D01*
X126538021Y-116759557D01*
X126534334Y-116744750D01*
X126515401Y-116719543D01*
X126470834Y-116713000D01*
X126420420Y-116703534D01*
X126407334Y-116681250D01*
X126388401Y-116656043D01*
X126343834Y-116649500D01*
X126293420Y-116640034D01*
X126280334Y-116617750D01*
X126272910Y-116602260D01*
X126245815Y-116592612D01*
X126191816Y-116587599D01*
X126103677Y-116586017D01*
X126089834Y-116586000D01*
X125996896Y-116587237D01*
X125939007Y-116591753D01*
X125908931Y-116600753D01*
X125899434Y-116615443D01*
X125899334Y-116617750D01*
X125880401Y-116642956D01*
X125835834Y-116649500D01*
X125785420Y-116658966D01*
X125772334Y-116681250D01*
X125753401Y-116706456D01*
X125708834Y-116713000D01*
X125658420Y-116722466D01*
X125645334Y-116744750D01*
X125628390Y-116772812D01*
X125613584Y-116776500D01*
X125588377Y-116795432D01*
X125581834Y-116840000D01*
X125572367Y-116890413D01*
X125550084Y-116903500D01*
X125524877Y-116922432D01*
X125518334Y-116967000D01*
X125508867Y-117017413D01*
X125486584Y-117030500D01*
X125472085Y-117037314D01*
X125462653Y-117062310D01*
X125457312Y-117112324D01*
X125455085Y-117194189D01*
X125454834Y-117252750D01*
X125455807Y-117354241D01*
X125459378Y-117420264D01*
X125466523Y-117457653D01*
X125478218Y-117473241D01*
X125486584Y-117475000D01*
X125514646Y-117491943D01*
X125518334Y-117506750D01*
X125535277Y-117534812D01*
X125550084Y-117538500D01*
X125578165Y-117554580D01*
X125581834Y-117568568D01*
X125600163Y-117593675D01*
X125644348Y-117612363D01*
X125645334Y-117612583D01*
X125689771Y-117627942D01*
X125708822Y-117645633D01*
X125708834Y-117646015D01*
X125728061Y-117656291D01*
X125778039Y-117663352D01*
X125835834Y-117665500D01*
X125902814Y-117662610D01*
X125948832Y-117655098D01*
X125962834Y-117646411D01*
X125982010Y-117634131D01*
X126031866Y-117621429D01*
X126089834Y-117612583D01*
X126169459Y-117599246D01*
X126209980Y-117581769D01*
X126216834Y-117568172D01*
X126235911Y-117545190D01*
X126280334Y-117538500D01*
X126330747Y-117529034D01*
X126343834Y-117506750D01*
X126360777Y-117478688D01*
X126375584Y-117475000D01*
X126403751Y-117463570D01*
X126407334Y-117453833D01*
X126424478Y-117435055D01*
X126439084Y-117432667D01*
X126456334Y-117441380D01*
X126466207Y-117472712D01*
X126470371Y-117534447D01*
X126470834Y-117580833D01*
X126468966Y-117661335D01*
X126462252Y-117707408D01*
X126449023Y-117726840D01*
X126439084Y-117729000D01*
X126413877Y-117747932D01*
X126407334Y-117792500D01*
X126402089Y-117837477D01*
X126377349Y-117854054D01*
X126343834Y-117856000D01*
X126293420Y-117865466D01*
X126280334Y-117887750D01*
X126267868Y-117908677D01*
X126225483Y-117918209D01*
X126185084Y-117919500D01*
X126122303Y-117923655D01*
X126093706Y-117937783D01*
X126089834Y-117951250D01*
X126084293Y-117963169D01*
X126063913Y-117971754D01*
X126023054Y-117977516D01*
X125956077Y-117980968D01*
X125857344Y-117982623D01*
X125740584Y-117983000D01*
X125609468Y-117982496D01*
X125515038Y-117980643D01*
X125451656Y-117976929D01*
X125413682Y-117970840D01*
X125395478Y-117961864D01*
X125391334Y-117951250D01*
X125372401Y-117926043D01*
X125327834Y-117919500D01*
X125277420Y-117910034D01*
X125264334Y-117887750D01*
X125245401Y-117862543D01*
X125200834Y-117856000D01*
X125150420Y-117846534D01*
X125137334Y-117824250D01*
X125120390Y-117796188D01*
X125105584Y-117792500D01*
X125077521Y-117775557D01*
X125073834Y-117760750D01*
X125056890Y-117732688D01*
X125042084Y-117729000D01*
X125016877Y-117710068D01*
X125010334Y-117665500D01*
X125000867Y-117615087D01*
X124978584Y-117602000D01*
X124966157Y-117596241D01*
X124957375Y-117575041D01*
X124951648Y-117532516D01*
X124948387Y-117462782D01*
X124947006Y-117359954D01*
X124946834Y-117284500D01*
X124947409Y-117160236D01*
X124949529Y-117072411D01*
X124953782Y-117015140D01*
X124960755Y-116982539D01*
X124971038Y-116968724D01*
X124978584Y-116967000D01*
X125003790Y-116948068D01*
X125010334Y-116903500D01*
X125019800Y-116853087D01*
X125042084Y-116840000D01*
X125067290Y-116821068D01*
X125073834Y-116776500D01*
X125083300Y-116726087D01*
X125105584Y-116713000D01*
X125133646Y-116696057D01*
X125137334Y-116681250D01*
X125154277Y-116653188D01*
X125169084Y-116649500D01*
X125197146Y-116632557D01*
X125200834Y-116617750D01*
X125217777Y-116589688D01*
X125232584Y-116586000D01*
X125260646Y-116569057D01*
X125264334Y-116554250D01*
X125281277Y-116526188D01*
X125296084Y-116522500D01*
X125324146Y-116505557D01*
X125327834Y-116490750D01*
X125344777Y-116462688D01*
X125359584Y-116459000D01*
X125387765Y-116448463D01*
X125391334Y-116439515D01*
X125409581Y-116421872D01*
X125453599Y-116406358D01*
X125454834Y-116406083D01*
X125499255Y-116391215D01*
X125518321Y-116374695D01*
X125518334Y-116374333D01*
X125536566Y-116357874D01*
X125580553Y-116342868D01*
X125581834Y-116342583D01*
X125626252Y-116327830D01*
X125645320Y-116311587D01*
X125645334Y-116311230D01*
X125664505Y-116299837D01*
X125714351Y-116287745D01*
X125772334Y-116279083D01*
X125839231Y-116268437D01*
X125885242Y-116255603D01*
X125899334Y-116245255D01*
X125918921Y-116236849D01*
X125971389Y-116230332D01*
X126047295Y-116226649D01*
X126089834Y-116226167D01*
X126173723Y-116228030D01*
G37*
X126173723Y-116228030D02*
X126238764Y-116233023D01*
X126275514Y-116240246D01*
X126280334Y-116244294D01*
X126299700Y-116254906D01*
X126350786Y-116266100D01*
X126423070Y-116275649D01*
X126432886Y-116276599D01*
X126509125Y-116285988D01*
X126567487Y-116297479D01*
X126596348Y-116308729D01*
X126597140Y-116309710D01*
X126624550Y-116328355D01*
X126666837Y-116343200D01*
X126708786Y-116359602D01*
X126724834Y-116376628D01*
X126742011Y-116393381D01*
X126756584Y-116395500D01*
X126784646Y-116412443D01*
X126788334Y-116427250D01*
X126771390Y-116455312D01*
X126756584Y-116459000D01*
X126738148Y-116468753D01*
X126728250Y-116503328D01*
X126724896Y-116570698D01*
X126724834Y-116586000D01*
X126722395Y-116659743D01*
X126713751Y-116699335D01*
X126696909Y-116712749D01*
X126693084Y-116713000D01*
X126667877Y-116731932D01*
X126661334Y-116776500D01*
X126651867Y-116826913D01*
X126629584Y-116840000D01*
X126601521Y-116823057D01*
X126597834Y-116808250D01*
X126580890Y-116780188D01*
X126566084Y-116776500D01*
X126538021Y-116759557D01*
X126534334Y-116744750D01*
X126515401Y-116719543D01*
X126470834Y-116713000D01*
X126420420Y-116703534D01*
X126407334Y-116681250D01*
X126388401Y-116656043D01*
X126343834Y-116649500D01*
X126293420Y-116640034D01*
X126280334Y-116617750D01*
X126272910Y-116602260D01*
X126245815Y-116592612D01*
X126191816Y-116587599D01*
X126103677Y-116586017D01*
X126089834Y-116586000D01*
X125996896Y-116587237D01*
X125939007Y-116591753D01*
X125908931Y-116600753D01*
X125899434Y-116615443D01*
X125899334Y-116617750D01*
X125880401Y-116642956D01*
X125835834Y-116649500D01*
X125785420Y-116658966D01*
X125772334Y-116681250D01*
X125753401Y-116706456D01*
X125708834Y-116713000D01*
X125658420Y-116722466D01*
X125645334Y-116744750D01*
X125628390Y-116772812D01*
X125613584Y-116776500D01*
X125588377Y-116795432D01*
X125581834Y-116840000D01*
X125572367Y-116890413D01*
X125550084Y-116903500D01*
X125524877Y-116922432D01*
X125518334Y-116967000D01*
X125508867Y-117017413D01*
X125486584Y-117030500D01*
X125472085Y-117037314D01*
X125462653Y-117062310D01*
X125457312Y-117112324D01*
X125455085Y-117194189D01*
X125454834Y-117252750D01*
X125455807Y-117354241D01*
X125459378Y-117420264D01*
X125466523Y-117457653D01*
X125478218Y-117473241D01*
X125486584Y-117475000D01*
X125514646Y-117491943D01*
X125518334Y-117506750D01*
X125535277Y-117534812D01*
X125550084Y-117538500D01*
X125578165Y-117554580D01*
X125581834Y-117568568D01*
X125600163Y-117593675D01*
X125644348Y-117612363D01*
X125645334Y-117612583D01*
X125689771Y-117627942D01*
X125708822Y-117645633D01*
X125708834Y-117646015D01*
X125728061Y-117656291D01*
X125778039Y-117663352D01*
X125835834Y-117665500D01*
X125902814Y-117662610D01*
X125948832Y-117655098D01*
X125962834Y-117646411D01*
X125982010Y-117634131D01*
X126031866Y-117621429D01*
X126089834Y-117612583D01*
X126169459Y-117599246D01*
X126209980Y-117581769D01*
X126216834Y-117568172D01*
X126235911Y-117545190D01*
X126280334Y-117538500D01*
X126330747Y-117529034D01*
X126343834Y-117506750D01*
X126360777Y-117478688D01*
X126375584Y-117475000D01*
X126403751Y-117463570D01*
X126407334Y-117453833D01*
X126424478Y-117435055D01*
X126439084Y-117432667D01*
X126456334Y-117441380D01*
X126466207Y-117472712D01*
X126470371Y-117534447D01*
X126470834Y-117580833D01*
X126468966Y-117661335D01*
X126462252Y-117707408D01*
X126449023Y-117726840D01*
X126439084Y-117729000D01*
X126413877Y-117747932D01*
X126407334Y-117792500D01*
X126402089Y-117837477D01*
X126377349Y-117854054D01*
X126343834Y-117856000D01*
X126293420Y-117865466D01*
X126280334Y-117887750D01*
X126267868Y-117908677D01*
X126225483Y-117918209D01*
X126185084Y-117919500D01*
X126122303Y-117923655D01*
X126093706Y-117937783D01*
X126089834Y-117951250D01*
X126084293Y-117963169D01*
X126063913Y-117971754D01*
X126023054Y-117977516D01*
X125956077Y-117980968D01*
X125857344Y-117982623D01*
X125740584Y-117983000D01*
X125609468Y-117982496D01*
X125515038Y-117980643D01*
X125451656Y-117976929D01*
X125413682Y-117970840D01*
X125395478Y-117961864D01*
X125391334Y-117951250D01*
X125372401Y-117926043D01*
X125327834Y-117919500D01*
X125277420Y-117910034D01*
X125264334Y-117887750D01*
X125245401Y-117862543D01*
X125200834Y-117856000D01*
X125150420Y-117846534D01*
X125137334Y-117824250D01*
X125120390Y-117796188D01*
X125105584Y-117792500D01*
X125077521Y-117775557D01*
X125073834Y-117760750D01*
X125056890Y-117732688D01*
X125042084Y-117729000D01*
X125016877Y-117710068D01*
X125010334Y-117665500D01*
X125000867Y-117615087D01*
X124978584Y-117602000D01*
X124966157Y-117596241D01*
X124957375Y-117575041D01*
X124951648Y-117532516D01*
X124948387Y-117462782D01*
X124947006Y-117359954D01*
X124946834Y-117284500D01*
X124947409Y-117160236D01*
X124949529Y-117072411D01*
X124953782Y-117015140D01*
X124960755Y-116982539D01*
X124971038Y-116968724D01*
X124978584Y-116967000D01*
X125003790Y-116948068D01*
X125010334Y-116903500D01*
X125019800Y-116853087D01*
X125042084Y-116840000D01*
X125067290Y-116821068D01*
X125073834Y-116776500D01*
X125083300Y-116726087D01*
X125105584Y-116713000D01*
X125133646Y-116696057D01*
X125137334Y-116681250D01*
X125154277Y-116653188D01*
X125169084Y-116649500D01*
X125197146Y-116632557D01*
X125200834Y-116617750D01*
X125217777Y-116589688D01*
X125232584Y-116586000D01*
X125260646Y-116569057D01*
X125264334Y-116554250D01*
X125281277Y-116526188D01*
X125296084Y-116522500D01*
X125324146Y-116505557D01*
X125327834Y-116490750D01*
X125344777Y-116462688D01*
X125359584Y-116459000D01*
X125387765Y-116448463D01*
X125391334Y-116439515D01*
X125409581Y-116421872D01*
X125453599Y-116406358D01*
X125454834Y-116406083D01*
X125499255Y-116391215D01*
X125518321Y-116374695D01*
X125518334Y-116374333D01*
X125536566Y-116357874D01*
X125580553Y-116342868D01*
X125581834Y-116342583D01*
X125626252Y-116327830D01*
X125645320Y-116311587D01*
X125645334Y-116311230D01*
X125664505Y-116299837D01*
X125714351Y-116287745D01*
X125772334Y-116279083D01*
X125839231Y-116268437D01*
X125885242Y-116255603D01*
X125899334Y-116245255D01*
X125918921Y-116236849D01*
X125971389Y-116230332D01*
X126047295Y-116226649D01*
X126089834Y-116226167D01*
X126173723Y-116228030D01*
G36*
X120037112Y-116270170D02*
G01*
X120122417Y-116273264D01*
X120184224Y-116278762D01*
X120200209Y-116281841D01*
X120237786Y-116300137D01*
X120246459Y-116320436D01*
X120222753Y-116331755D01*
X120216084Y-116332000D01*
X120197648Y-116341753D01*
X120187750Y-116376328D01*
X120184396Y-116443698D01*
X120184334Y-116459000D01*
X120181895Y-116532743D01*
X120173251Y-116572335D01*
X120156409Y-116585749D01*
X120152584Y-116586000D01*
X120134148Y-116595753D01*
X120124250Y-116630328D01*
X120120896Y-116697698D01*
X120120834Y-116713000D01*
X120118395Y-116786743D01*
X120109751Y-116826335D01*
X120092909Y-116839749D01*
X120089084Y-116840000D01*
X120070648Y-116849753D01*
X120060750Y-116884328D01*
X120057396Y-116951698D01*
X120057334Y-116967000D01*
X120054895Y-117040743D01*
X120046251Y-117080335D01*
X120029409Y-117093749D01*
X120025584Y-117094000D01*
X120007148Y-117103753D01*
X119997250Y-117138328D01*
X119993896Y-117205698D01*
X119993834Y-117221000D01*
X119991395Y-117294743D01*
X119982751Y-117334335D01*
X119965909Y-117347749D01*
X119962084Y-117348000D01*
X119944274Y-117357185D01*
X119934376Y-117390005D01*
X119930566Y-117454359D01*
X119930334Y-117485583D01*
X119930334Y-117623167D01*
X120755834Y-117623167D01*
X120755834Y-117676083D01*
X120744793Y-117718643D01*
X120724084Y-117729000D01*
X120703157Y-117741465D01*
X120693624Y-117783851D01*
X120692334Y-117824250D01*
X120688178Y-117887030D01*
X120674050Y-117915627D01*
X120660584Y-117919500D01*
X120632521Y-117936443D01*
X120628834Y-117951250D01*
X120624333Y-117960189D01*
X120608054Y-117967311D01*
X120575832Y-117972813D01*
X120523504Y-117976895D01*
X120446904Y-117979753D01*
X120341868Y-117981588D01*
X120204233Y-117982597D01*
X120029832Y-117982978D01*
X119962084Y-117983000D01*
X119295334Y-117983000D01*
X119295334Y-117887750D01*
X119299489Y-117824969D01*
X119313617Y-117796373D01*
X119327084Y-117792500D01*
X119345519Y-117782746D01*
X119355417Y-117748171D01*
X119358771Y-117680802D01*
X119358834Y-117665500D01*
X119361272Y-117591757D01*
X119369916Y-117552164D01*
X119386758Y-117538750D01*
X119390584Y-117538500D01*
X119409019Y-117528746D01*
X119418917Y-117494171D01*
X119422271Y-117426802D01*
X119422334Y-117411500D01*
X119424772Y-117337757D01*
X119433416Y-117298164D01*
X119450258Y-117284750D01*
X119454084Y-117284500D01*
X119472519Y-117274746D01*
X119482417Y-117240171D01*
X119485771Y-117172802D01*
X119485834Y-117157500D01*
X119488272Y-117083757D01*
X119496916Y-117044164D01*
X119513758Y-117030750D01*
X119517584Y-117030500D01*
X119536019Y-117020746D01*
X119545917Y-116986171D01*
X119549271Y-116918802D01*
X119549334Y-116903500D01*
X119551772Y-116829757D01*
X119560416Y-116790164D01*
X119577258Y-116776750D01*
X119581084Y-116776500D01*
X119599519Y-116766746D01*
X119609417Y-116732171D01*
X119612771Y-116664802D01*
X119612834Y-116649500D01*
X119615272Y-116575757D01*
X119623916Y-116536164D01*
X119640758Y-116522750D01*
X119644584Y-116522500D01*
X119663911Y-116511862D01*
X119673751Y-116474637D01*
X119676334Y-116408552D01*
X119678478Y-116341204D01*
X119687813Y-116304511D01*
X119708692Y-116286890D01*
X119723959Y-116281841D01*
X119771731Y-116275316D01*
X119848616Y-116271196D01*
X119941461Y-116269481D01*
X120037112Y-116270170D01*
G37*
X120037112Y-116270170D02*
X120122417Y-116273264D01*
X120184224Y-116278762D01*
X120200209Y-116281841D01*
X120237786Y-116300137D01*
X120246459Y-116320436D01*
X120222753Y-116331755D01*
X120216084Y-116332000D01*
X120197648Y-116341753D01*
X120187750Y-116376328D01*
X120184396Y-116443698D01*
X120184334Y-116459000D01*
X120181895Y-116532743D01*
X120173251Y-116572335D01*
X120156409Y-116585749D01*
X120152584Y-116586000D01*
X120134148Y-116595753D01*
X120124250Y-116630328D01*
X120120896Y-116697698D01*
X120120834Y-116713000D01*
X120118395Y-116786743D01*
X120109751Y-116826335D01*
X120092909Y-116839749D01*
X120089084Y-116840000D01*
X120070648Y-116849753D01*
X120060750Y-116884328D01*
X120057396Y-116951698D01*
X120057334Y-116967000D01*
X120054895Y-117040743D01*
X120046251Y-117080335D01*
X120029409Y-117093749D01*
X120025584Y-117094000D01*
X120007148Y-117103753D01*
X119997250Y-117138328D01*
X119993896Y-117205698D01*
X119993834Y-117221000D01*
X119991395Y-117294743D01*
X119982751Y-117334335D01*
X119965909Y-117347749D01*
X119962084Y-117348000D01*
X119944274Y-117357185D01*
X119934376Y-117390005D01*
X119930566Y-117454359D01*
X119930334Y-117485583D01*
X119930334Y-117623167D01*
X120755834Y-117623167D01*
X120755834Y-117676083D01*
X120744793Y-117718643D01*
X120724084Y-117729000D01*
X120703157Y-117741465D01*
X120693624Y-117783851D01*
X120692334Y-117824250D01*
X120688178Y-117887030D01*
X120674050Y-117915627D01*
X120660584Y-117919500D01*
X120632521Y-117936443D01*
X120628834Y-117951250D01*
X120624333Y-117960189D01*
X120608054Y-117967311D01*
X120575832Y-117972813D01*
X120523504Y-117976895D01*
X120446904Y-117979753D01*
X120341868Y-117981588D01*
X120204233Y-117982597D01*
X120029832Y-117982978D01*
X119962084Y-117983000D01*
X119295334Y-117983000D01*
X119295334Y-117887750D01*
X119299489Y-117824969D01*
X119313617Y-117796373D01*
X119327084Y-117792500D01*
X119345519Y-117782746D01*
X119355417Y-117748171D01*
X119358771Y-117680802D01*
X119358834Y-117665500D01*
X119361272Y-117591757D01*
X119369916Y-117552164D01*
X119386758Y-117538750D01*
X119390584Y-117538500D01*
X119409019Y-117528746D01*
X119418917Y-117494171D01*
X119422271Y-117426802D01*
X119422334Y-117411500D01*
X119424772Y-117337757D01*
X119433416Y-117298164D01*
X119450258Y-117284750D01*
X119454084Y-117284500D01*
X119472519Y-117274746D01*
X119482417Y-117240171D01*
X119485771Y-117172802D01*
X119485834Y-117157500D01*
X119488272Y-117083757D01*
X119496916Y-117044164D01*
X119513758Y-117030750D01*
X119517584Y-117030500D01*
X119536019Y-117020746D01*
X119545917Y-116986171D01*
X119549271Y-116918802D01*
X119549334Y-116903500D01*
X119551772Y-116829757D01*
X119560416Y-116790164D01*
X119577258Y-116776750D01*
X119581084Y-116776500D01*
X119599519Y-116766746D01*
X119609417Y-116732171D01*
X119612771Y-116664802D01*
X119612834Y-116649500D01*
X119615272Y-116575757D01*
X119623916Y-116536164D01*
X119640758Y-116522750D01*
X119644584Y-116522500D01*
X119663911Y-116511862D01*
X119673751Y-116474637D01*
X119676334Y-116408552D01*
X119678478Y-116341204D01*
X119687813Y-116304511D01*
X119708692Y-116286890D01*
X119723959Y-116281841D01*
X119771731Y-116275316D01*
X119848616Y-116271196D01*
X119941461Y-116269481D01*
X120037112Y-116270170D01*
G36*
X115622577Y-116397938D02*
G01*
X115662169Y-116406582D01*
X115675583Y-116423424D01*
X115675834Y-116427250D01*
X115658890Y-116455312D01*
X115644084Y-116459000D01*
X115627336Y-116467316D01*
X115617506Y-116497367D01*
X115613061Y-116556809D01*
X115612334Y-116617750D01*
X115610670Y-116701486D01*
X115604660Y-116750639D01*
X115592772Y-116772863D01*
X115580584Y-116776500D01*
X115563836Y-116784816D01*
X115554006Y-116814867D01*
X115549561Y-116874309D01*
X115548834Y-116935250D01*
X115547170Y-117018986D01*
X115541160Y-117068139D01*
X115529272Y-117090363D01*
X115517084Y-117094000D01*
X115496157Y-117106465D01*
X115486624Y-117148851D01*
X115485334Y-117189250D01*
X115485334Y-117284500D01*
X115739334Y-117284500D01*
X115848844Y-117285296D01*
X115922517Y-117288224D01*
X115966831Y-117294093D01*
X115988260Y-117303713D01*
X115993334Y-117316250D01*
X115976390Y-117344312D01*
X115961584Y-117348000D01*
X115936377Y-117366932D01*
X115929834Y-117411500D01*
X115929834Y-117475000D01*
X115612334Y-117475000D01*
X115488070Y-117474424D01*
X115400245Y-117472304D01*
X115342974Y-117468051D01*
X115310373Y-117461078D01*
X115296558Y-117450795D01*
X115294834Y-117443250D01*
X115277890Y-117415188D01*
X115263084Y-117411500D01*
X115242157Y-117399034D01*
X115232624Y-117356649D01*
X115231334Y-117316250D01*
X115235489Y-117253469D01*
X115249617Y-117224873D01*
X115263084Y-117221000D01*
X115279831Y-117212684D01*
X115289661Y-117182633D01*
X115294106Y-117123190D01*
X115294834Y-117062250D01*
X115296497Y-116978514D01*
X115302507Y-116929361D01*
X115314395Y-116907137D01*
X115326584Y-116903500D01*
X115343331Y-116895184D01*
X115353161Y-116865133D01*
X115357606Y-116805690D01*
X115358334Y-116744750D01*
X115359997Y-116661014D01*
X115366007Y-116611861D01*
X115377895Y-116589637D01*
X115390084Y-116586000D01*
X115411010Y-116573534D01*
X115420543Y-116531149D01*
X115421834Y-116490750D01*
X115421834Y-116395500D01*
X115548834Y-116395500D01*
X115622577Y-116397938D01*
G37*
X115622577Y-116397938D02*
X115662169Y-116406582D01*
X115675583Y-116423424D01*
X115675834Y-116427250D01*
X115658890Y-116455312D01*
X115644084Y-116459000D01*
X115627336Y-116467316D01*
X115617506Y-116497367D01*
X115613061Y-116556809D01*
X115612334Y-116617750D01*
X115610670Y-116701486D01*
X115604660Y-116750639D01*
X115592772Y-116772863D01*
X115580584Y-116776500D01*
X115563836Y-116784816D01*
X115554006Y-116814867D01*
X115549561Y-116874309D01*
X115548834Y-116935250D01*
X115547170Y-117018986D01*
X115541160Y-117068139D01*
X115529272Y-117090363D01*
X115517084Y-117094000D01*
X115496157Y-117106465D01*
X115486624Y-117148851D01*
X115485334Y-117189250D01*
X115485334Y-117284500D01*
X115739334Y-117284500D01*
X115848844Y-117285296D01*
X115922517Y-117288224D01*
X115966831Y-117294093D01*
X115988260Y-117303713D01*
X115993334Y-117316250D01*
X115976390Y-117344312D01*
X115961584Y-117348000D01*
X115936377Y-117366932D01*
X115929834Y-117411500D01*
X115929834Y-117475000D01*
X115612334Y-117475000D01*
X115488070Y-117474424D01*
X115400245Y-117472304D01*
X115342974Y-117468051D01*
X115310373Y-117461078D01*
X115296558Y-117450795D01*
X115294834Y-117443250D01*
X115277890Y-117415188D01*
X115263084Y-117411500D01*
X115242157Y-117399034D01*
X115232624Y-117356649D01*
X115231334Y-117316250D01*
X115235489Y-117253469D01*
X115249617Y-117224873D01*
X115263084Y-117221000D01*
X115279831Y-117212684D01*
X115289661Y-117182633D01*
X115294106Y-117123190D01*
X115294834Y-117062250D01*
X115296497Y-116978514D01*
X115302507Y-116929361D01*
X115314395Y-116907137D01*
X115326584Y-116903500D01*
X115343331Y-116895184D01*
X115353161Y-116865133D01*
X115357606Y-116805690D01*
X115358334Y-116744750D01*
X115359997Y-116661014D01*
X115366007Y-116611861D01*
X115377895Y-116589637D01*
X115390084Y-116586000D01*
X115411010Y-116573534D01*
X115420543Y-116531149D01*
X115421834Y-116490750D01*
X115421834Y-116395500D01*
X115548834Y-116395500D01*
X115622577Y-116397938D01*
G36*
X114973646Y-117174443D02*
G01*
X114977334Y-117189250D01*
X114960390Y-117217312D01*
X114945584Y-117221000D01*
X114917521Y-117204057D01*
X114913834Y-117189250D01*
X114930777Y-117161188D01*
X114945584Y-117157500D01*
X114973646Y-117174443D01*
G37*
X114973646Y-117174443D02*
X114977334Y-117189250D01*
X114960390Y-117217312D01*
X114945584Y-117221000D01*
X114917521Y-117204057D01*
X114913834Y-117189250D01*
X114930777Y-117161188D01*
X114945584Y-117157500D01*
X114973646Y-117174443D01*
G36*
X114679011Y-116525565D02*
G01*
X114761303Y-116532339D01*
X114820048Y-116544816D01*
X114845911Y-116562149D01*
X114870448Y-116579259D01*
X114915597Y-116586000D01*
X114964710Y-116595692D01*
X114977334Y-116617750D01*
X114994277Y-116645812D01*
X115009084Y-116649500D01*
X115037146Y-116666443D01*
X115040834Y-116681250D01*
X115057777Y-116709312D01*
X115072584Y-116713000D01*
X115089331Y-116721316D01*
X115099161Y-116751367D01*
X115103606Y-116810809D01*
X115104334Y-116871750D01*
X115102670Y-116955486D01*
X115096660Y-117004639D01*
X115084772Y-117026863D01*
X115072584Y-117030500D01*
X115044521Y-117047443D01*
X115040834Y-117062250D01*
X115023890Y-117090312D01*
X115009084Y-117094000D01*
X114983877Y-117075068D01*
X114977334Y-117030500D01*
X114986800Y-116980087D01*
X115009084Y-116967000D01*
X115030010Y-116954534D01*
X115039543Y-116912149D01*
X115040834Y-116871750D01*
X115036678Y-116808969D01*
X115022550Y-116780373D01*
X115009084Y-116776500D01*
X114983877Y-116757568D01*
X114977334Y-116713000D01*
X114972089Y-116668023D01*
X114947349Y-116651445D01*
X114913834Y-116649500D01*
X114863420Y-116640034D01*
X114850334Y-116617750D01*
X114843965Y-116604061D01*
X114820542Y-116594852D01*
X114773589Y-116589313D01*
X114696629Y-116586634D01*
X114596334Y-116586000D01*
X114482906Y-116583942D01*
X114402309Y-116578317D01*
X114356306Y-116569948D01*
X114346659Y-116559657D01*
X114375130Y-116548266D01*
X114443481Y-116536599D01*
X114481035Y-116532182D01*
X114582485Y-116525257D01*
X114679011Y-116525565D01*
G37*
X114679011Y-116525565D02*
X114761303Y-116532339D01*
X114820048Y-116544816D01*
X114845911Y-116562149D01*
X114870448Y-116579259D01*
X114915597Y-116586000D01*
X114964710Y-116595692D01*
X114977334Y-116617750D01*
X114994277Y-116645812D01*
X115009084Y-116649500D01*
X115037146Y-116666443D01*
X115040834Y-116681250D01*
X115057777Y-116709312D01*
X115072584Y-116713000D01*
X115089331Y-116721316D01*
X115099161Y-116751367D01*
X115103606Y-116810809D01*
X115104334Y-116871750D01*
X115102670Y-116955486D01*
X115096660Y-117004639D01*
X115084772Y-117026863D01*
X115072584Y-117030500D01*
X115044521Y-117047443D01*
X115040834Y-117062250D01*
X115023890Y-117090312D01*
X115009084Y-117094000D01*
X114983877Y-117075068D01*
X114977334Y-117030500D01*
X114986800Y-116980087D01*
X115009084Y-116967000D01*
X115030010Y-116954534D01*
X115039543Y-116912149D01*
X115040834Y-116871750D01*
X115036678Y-116808969D01*
X115022550Y-116780373D01*
X115009084Y-116776500D01*
X114983877Y-116757568D01*
X114977334Y-116713000D01*
X114972089Y-116668023D01*
X114947349Y-116651445D01*
X114913834Y-116649500D01*
X114863420Y-116640034D01*
X114850334Y-116617750D01*
X114843965Y-116604061D01*
X114820542Y-116594852D01*
X114773589Y-116589313D01*
X114696629Y-116586634D01*
X114596334Y-116586000D01*
X114482906Y-116583942D01*
X114402309Y-116578317D01*
X114356306Y-116569948D01*
X114346659Y-116559657D01*
X114375130Y-116548266D01*
X114443481Y-116536599D01*
X114481035Y-116532182D01*
X114582485Y-116525257D01*
X114679011Y-116525565D01*
G36*
X114275251Y-116618596D02*
G01*
X114278834Y-116628333D01*
X114261689Y-116647112D01*
X114247084Y-116649500D01*
X114218916Y-116638070D01*
X114215334Y-116628333D01*
X114232478Y-116609555D01*
X114247084Y-116607167D01*
X114275251Y-116618596D01*
G37*
X114275251Y-116618596D02*
X114278834Y-116628333D01*
X114261689Y-116647112D01*
X114247084Y-116649500D01*
X114218916Y-116638070D01*
X114215334Y-116628333D01*
X114232478Y-116609555D01*
X114247084Y-116607167D01*
X114275251Y-116618596D01*
G36*
X114837247Y-116785966D02*
G01*
X114850334Y-116808250D01*
X114833390Y-116836312D01*
X114818584Y-116840000D01*
X114793377Y-116858932D01*
X114786834Y-116903500D01*
X114777367Y-116953913D01*
X114755084Y-116967000D01*
X114729877Y-116985932D01*
X114723334Y-117030500D01*
X114713867Y-117080913D01*
X114691584Y-117094000D01*
X114670657Y-117106465D01*
X114661124Y-117148851D01*
X114659834Y-117189250D01*
X114661674Y-117247821D01*
X114672303Y-117275562D01*
X114699377Y-117283961D01*
X114723334Y-117284500D01*
X114767919Y-117278369D01*
X114786829Y-117263597D01*
X114786834Y-117263333D01*
X114803978Y-117244555D01*
X114818584Y-117242167D01*
X114846751Y-117253596D01*
X114850334Y-117263333D01*
X114833189Y-117282112D01*
X114818584Y-117284500D01*
X114790521Y-117301443D01*
X114786834Y-117316250D01*
X114777080Y-117334686D01*
X114742505Y-117344584D01*
X114675136Y-117347937D01*
X114659834Y-117348000D01*
X114586090Y-117345561D01*
X114546498Y-117336918D01*
X114533084Y-117320075D01*
X114532834Y-117316250D01*
X114515890Y-117288188D01*
X114501084Y-117284500D01*
X114473021Y-117267557D01*
X114469334Y-117252750D01*
X114486277Y-117224688D01*
X114501084Y-117221000D01*
X114529146Y-117204057D01*
X114532834Y-117189250D01*
X114549777Y-117161188D01*
X114564584Y-117157500D01*
X114581331Y-117149184D01*
X114591161Y-117119133D01*
X114595606Y-117059690D01*
X114596334Y-116998750D01*
X114596334Y-116840000D01*
X114469334Y-116840000D01*
X114395590Y-116842438D01*
X114355998Y-116851082D01*
X114342584Y-116867924D01*
X114342334Y-116871750D01*
X114325390Y-116899812D01*
X114310584Y-116903500D01*
X114285377Y-116922432D01*
X114278834Y-116967000D01*
X114269367Y-117017413D01*
X114247084Y-117030500D01*
X114228490Y-117040403D01*
X114218597Y-117075434D01*
X114215370Y-117143573D01*
X114215334Y-117155031D01*
X114219576Y-117233315D01*
X114237932Y-117278532D01*
X114278847Y-117299569D01*
X114350765Y-117305312D01*
X114358209Y-117305377D01*
X114395388Y-117313580D01*
X114405834Y-117326833D01*
X114386554Y-117338108D01*
X114336188Y-117345752D01*
X114278834Y-117348000D01*
X114205090Y-117345561D01*
X114165498Y-117336918D01*
X114152084Y-117320075D01*
X114151834Y-117316250D01*
X114134890Y-117288188D01*
X114120084Y-117284500D01*
X114101648Y-117274746D01*
X114091750Y-117240171D01*
X114088396Y-117172802D01*
X114088334Y-117157500D01*
X114090772Y-117083757D01*
X114099416Y-117044164D01*
X114116258Y-117030750D01*
X114120084Y-117030500D01*
X114148146Y-117013557D01*
X114151834Y-116998750D01*
X114168777Y-116970688D01*
X114183584Y-116967000D01*
X114211646Y-116950057D01*
X114215334Y-116935250D01*
X114232277Y-116907188D01*
X114247084Y-116903500D01*
X114275146Y-116886557D01*
X114278834Y-116871750D01*
X114294872Y-116843667D01*
X114308820Y-116840000D01*
X114341521Y-116824195D01*
X114347625Y-116813542D01*
X114374701Y-116796981D01*
X114442549Y-116788420D01*
X114501084Y-116787083D01*
X114592927Y-116791026D01*
X114643694Y-116802915D01*
X114654542Y-116813542D01*
X114677374Y-116837094D01*
X114707327Y-116835451D01*
X114723282Y-116810237D01*
X114723334Y-116808250D01*
X114742266Y-116783043D01*
X114786834Y-116776500D01*
X114837247Y-116785966D01*
G37*
X114837247Y-116785966D02*
X114850334Y-116808250D01*
X114833390Y-116836312D01*
X114818584Y-116840000D01*
X114793377Y-116858932D01*
X114786834Y-116903500D01*
X114777367Y-116953913D01*
X114755084Y-116967000D01*
X114729877Y-116985932D01*
X114723334Y-117030500D01*
X114713867Y-117080913D01*
X114691584Y-117094000D01*
X114670657Y-117106465D01*
X114661124Y-117148851D01*
X114659834Y-117189250D01*
X114661674Y-117247821D01*
X114672303Y-117275562D01*
X114699377Y-117283961D01*
X114723334Y-117284500D01*
X114767919Y-117278369D01*
X114786829Y-117263597D01*
X114786834Y-117263333D01*
X114803978Y-117244555D01*
X114818584Y-117242167D01*
X114846751Y-117253596D01*
X114850334Y-117263333D01*
X114833189Y-117282112D01*
X114818584Y-117284500D01*
X114790521Y-117301443D01*
X114786834Y-117316250D01*
X114777080Y-117334686D01*
X114742505Y-117344584D01*
X114675136Y-117347937D01*
X114659834Y-117348000D01*
X114586090Y-117345561D01*
X114546498Y-117336918D01*
X114533084Y-117320075D01*
X114532834Y-117316250D01*
X114515890Y-117288188D01*
X114501084Y-117284500D01*
X114473021Y-117267557D01*
X114469334Y-117252750D01*
X114486277Y-117224688D01*
X114501084Y-117221000D01*
X114529146Y-117204057D01*
X114532834Y-117189250D01*
X114549777Y-117161188D01*
X114564584Y-117157500D01*
X114581331Y-117149184D01*
X114591161Y-117119133D01*
X114595606Y-117059690D01*
X114596334Y-116998750D01*
X114596334Y-116840000D01*
X114469334Y-116840000D01*
X114395590Y-116842438D01*
X114355998Y-116851082D01*
X114342584Y-116867924D01*
X114342334Y-116871750D01*
X114325390Y-116899812D01*
X114310584Y-116903500D01*
X114285377Y-116922432D01*
X114278834Y-116967000D01*
X114269367Y-117017413D01*
X114247084Y-117030500D01*
X114228490Y-117040403D01*
X114218597Y-117075434D01*
X114215370Y-117143573D01*
X114215334Y-117155031D01*
X114219576Y-117233315D01*
X114237932Y-117278532D01*
X114278847Y-117299569D01*
X114350765Y-117305312D01*
X114358209Y-117305377D01*
X114395388Y-117313580D01*
X114405834Y-117326833D01*
X114386554Y-117338108D01*
X114336188Y-117345752D01*
X114278834Y-117348000D01*
X114205090Y-117345561D01*
X114165498Y-117336918D01*
X114152084Y-117320075D01*
X114151834Y-117316250D01*
X114134890Y-117288188D01*
X114120084Y-117284500D01*
X114101648Y-117274746D01*
X114091750Y-117240171D01*
X114088396Y-117172802D01*
X114088334Y-117157500D01*
X114090772Y-117083757D01*
X114099416Y-117044164D01*
X114116258Y-117030750D01*
X114120084Y-117030500D01*
X114148146Y-117013557D01*
X114151834Y-116998750D01*
X114168777Y-116970688D01*
X114183584Y-116967000D01*
X114211646Y-116950057D01*
X114215334Y-116935250D01*
X114232277Y-116907188D01*
X114247084Y-116903500D01*
X114275146Y-116886557D01*
X114278834Y-116871750D01*
X114294872Y-116843667D01*
X114308820Y-116840000D01*
X114341521Y-116824195D01*
X114347625Y-116813542D01*
X114374701Y-116796981D01*
X114442549Y-116788420D01*
X114501084Y-116787083D01*
X114592927Y-116791026D01*
X114643694Y-116802915D01*
X114654542Y-116813542D01*
X114677374Y-116837094D01*
X114707327Y-116835451D01*
X114723282Y-116810237D01*
X114723334Y-116808250D01*
X114742266Y-116783043D01*
X114786834Y-116776500D01*
X114837247Y-116785966D01*
D11*
%TO.C,MES1*%
X142240000Y-112776000D02*
X153670000Y-112776000D01*
X142240000Y-122936000D02*
X130810000Y-122936000D01*
X130810000Y-112776000D02*
X142240000Y-112776000D01*
X153670000Y-122936000D02*
X142240000Y-122936000D01*
X153670000Y-112776000D02*
X153670000Y-122936000D01*
X130810000Y-122936000D02*
X130810000Y-112776000D01*
%TO.C,BT1*%
X113856460Y-77204005D02*
X114627805Y-76284751D01*
X124427816Y-75526735D02*
X119234092Y-81716374D01*
X119234092Y-81716374D02*
X113856460Y-77204005D01*
X114728770Y-78980286D02*
X115344256Y-78713495D01*
X115344256Y-78713495D02*
X115188397Y-79365958D01*
X114627805Y-76284751D02*
X113325529Y-75192012D01*
X115188397Y-79365958D02*
X114728770Y-78980286D01*
X116976563Y-70840880D02*
X118278839Y-71933619D01*
X113325529Y-75192012D02*
X116976563Y-70840880D01*
X118278839Y-71933619D02*
X119050184Y-71014366D01*
X119050184Y-71014366D02*
X124427816Y-75526735D01*
%TD*%
M02*
