%TF.GenerationSoftware,KiCad,Pcbnew,(6.0.11)*%
%TF.CreationDate,2023-10-13T17:04:58+09:00*%
%TF.ProjectId,power_supply_board,706f7765-725f-4737-9570-706c795f626f,rev?*%
%TF.SameCoordinates,Original*%
%TF.FileFunction,Copper,L1,Top*%
%TF.FilePolarity,Positive*%
%FSLAX46Y46*%
G04 Gerber Fmt 4.6, Leading zero omitted, Abs format (unit mm)*
G04 Created by KiCad (PCBNEW (6.0.11)) date 2023-10-13 17:04:58*
%MOMM*%
%LPD*%
G01*
G04 APERTURE LIST*
G04 Aperture macros list*
%AMRoundRect*
0 Rectangle with rounded corners*
0 $1 Rounding radius*
0 $2 $3 $4 $5 $6 $7 $8 $9 X,Y pos of 4 corners*
0 Add a 4 corners polygon primitive as box body*
4,1,4,$2,$3,$4,$5,$6,$7,$8,$9,$2,$3,0*
0 Add four circle primitives for the rounded corners*
1,1,$1+$1,$2,$3*
1,1,$1+$1,$4,$5*
1,1,$1+$1,$6,$7*
1,1,$1+$1,$8,$9*
0 Add four rect primitives between the rounded corners*
20,1,$1+$1,$2,$3,$4,$5,0*
20,1,$1+$1,$4,$5,$6,$7,0*
20,1,$1+$1,$6,$7,$8,$9,0*
20,1,$1+$1,$8,$9,$2,$3,0*%
%AMHorizOval*
0 Thick line with rounded ends*
0 $1 width*
0 $2 $3 position (X,Y) of the first rounded end (center of the circle)*
0 $4 $5 position (X,Y) of the second rounded end (center of the circle)*
0 Add line between two ends*
20,1,$1,$2,$3,$4,$5,0*
0 Add two circle primitives to create the rounded ends*
1,1,$1,$2,$3*
1,1,$1,$4,$5*%
%AMRotRect*
0 Rectangle, with rotation*
0 The origin of the aperture is its center*
0 $1 length*
0 $2 width*
0 $3 Rotation angle, in degrees counterclockwise*
0 Add horizontal line*
21,1,$1,$2,0,0,$3*%
%AMOutline4P*
0 Free polygon, 4 corners , with rotation*
0 The origin of the aperture is its center*
0 number of corners: always 4*
0 $1 to $8 corner X, Y*
0 $9 Rotation angle, in degrees counterclockwise*
0 create outline with 4 corners*
4,1,4,$1,$2,$3,$4,$5,$6,$7,$8,$1,$2,$9*%
G04 Aperture macros list end*
%TA.AperFunction,ComponentPad*%
%ADD10C,1.400000*%
%TD*%
%TA.AperFunction,ComponentPad*%
%ADD11O,1.400000X1.400000*%
%TD*%
%TA.AperFunction,ComponentPad*%
%ADD12HorizOval,2.000000X-0.642788X-0.766044X0.642788X0.766044X0*%
%TD*%
%TA.AperFunction,ComponentPad*%
%ADD13C,1.600000*%
%TD*%
%TA.AperFunction,ComponentPad*%
%ADD14RoundRect,0.250000X0.022464X-0.960206X0.941717X-0.188861X-0.022464X0.960206X-0.941717X0.188861X0*%
%TD*%
%TA.AperFunction,ComponentPad*%
%ADD15HorizOval,1.700000X-0.096418X0.114907X0.096418X-0.114907X0*%
%TD*%
%TA.AperFunction,ComponentPad*%
%ADD16HorizOval,1.500000X-0.459627X0.385673X0.459627X-0.385673X0*%
%TD*%
%TA.AperFunction,ComponentPad*%
%ADD17RotRect,2.800000X2.800000X50.000000*%
%TD*%
%TA.AperFunction,ComponentPad*%
%ADD18HorizOval,2.800000X0.000000X0.000000X0.000000X0.000000X0*%
%TD*%
%TA.AperFunction,SMDPad,CuDef*%
%ADD19Outline4P,-1.500000X-0.600000X1.500000X-0.600000X1.500000X0.600000X-1.500000X0.600000X0.000000*%
%TD*%
%TA.AperFunction,SMDPad,CuDef*%
%ADD20Outline4P,-2.035000X-0.885000X2.035000X-0.885000X2.035000X0.885000X-2.035000X0.885000X0.000000*%
%TD*%
%TA.AperFunction,SMDPad,CuDef*%
%ADD21Outline4P,-0.600000X-1.500000X0.600000X-1.500000X0.600000X1.500000X-0.600000X1.500000X0.000000*%
%TD*%
%TA.AperFunction,SMDPad,CuDef*%
%ADD22Outline4P,-0.885000X-2.035000X0.885000X-2.035000X0.885000X2.035000X-0.885000X2.035000X0.000000*%
%TD*%
%TA.AperFunction,SMDPad,CuDef*%
%ADD23Outline4P,-0.750000X-0.600000X0.750000X-0.600000X0.750000X0.600000X-0.750000X0.600000X0.000000*%
%TD*%
%TA.AperFunction,SMDPad,CuDef*%
%ADD24Outline4P,-0.500000X-0.600000X0.500000X-0.600000X0.500000X0.600000X-0.500000X0.600000X0.000000*%
%TD*%
%TA.AperFunction,ComponentPad*%
%ADD25C,1.700000*%
%TD*%
%TA.AperFunction,ComponentPad*%
%ADD26C,1.440000*%
%TD*%
%TA.AperFunction,ComponentPad*%
%ADD27RoundRect,0.250001X0.135582X-1.549714X1.549714X0.135582X-0.135582X1.549714X-1.549714X-0.135582X0*%
%TD*%
%TA.AperFunction,ComponentPad*%
%ADD28C,2.700000*%
%TD*%
%TA.AperFunction,ViaPad*%
%ADD29C,0.800000*%
%TD*%
%TA.AperFunction,Conductor*%
%ADD30C,3.000000*%
%TD*%
%TA.AperFunction,Conductor*%
%ADD31C,2.000000*%
%TD*%
%TA.AperFunction,Conductor*%
%ADD32C,1.000000*%
%TD*%
G04 APERTURE END LIST*
D10*
%TO.P,R1,1*%
%TO.N,+12V*%
X126238000Y-103124000D03*
D11*
%TO.P,R1,2*%
%TO.N,Net-(R1-Pad2)*%
X131318000Y-103124000D03*
%TD*%
D12*
%TO.P,SW2,1*%
%TO.N,Net-(D1-Pad1)*%
X113538000Y-94869000D03*
%TO.P,SW2,2*%
%TO.N,+12V*%
X118134267Y-98725726D03*
%TD*%
D13*
%TO.P,C1,1*%
%TO.N,+12V*%
X126278000Y-106807000D03*
%TO.P,C1,2*%
%TO.N,GND*%
X131278000Y-106807000D03*
%TD*%
D14*
%TO.P,J1,1,Pin_1*%
%TO.N,+5V*%
X151892000Y-79375000D03*
D15*
%TO.P,J1,2,Pin_2*%
%TO.N,GND*%
X153807111Y-77768031D03*
%TD*%
D16*
%TO.P,F1,1*%
%TO.N,Net-(D1-Pad1)*%
X122951008Y-83561996D03*
X120572693Y-86396361D03*
%TO.P,F1,2*%
%TO.N,Net-(BT1-Pad1)*%
X128093308Y-77433641D03*
X125714994Y-80268005D03*
%TD*%
D17*
%TO.P,D1,1,K*%
%TO.N,Net-(D1-Pad1)*%
X124569299Y-90970383D03*
D18*
%TO.P,D1,2,A*%
%TO.N,GND*%
X132732702Y-81241619D03*
%TD*%
D19*
%TO.P,U1,1,ON/OFF_CTRL*%
%TO.N,Net-(R1-Pad2)*%
X136513000Y-97663000D03*
%TO.P,U1,2,VIN*%
%TO.N,+12V*%
X136513000Y-93083000D03*
D20*
X138678000Y-93083000D03*
D21*
X139823000Y-92063000D03*
%TO.P,U1,3,GND*%
%TO.N,GND*%
X144403000Y-92063000D03*
X142113000Y-92063000D03*
D20*
X143258000Y-93083000D03*
D19*
%TO.P,U1,4,VOUT*%
%TO.N,+5V*%
X147713000Y-93083000D03*
D22*
X146713000Y-94228000D03*
D19*
%TO.P,U1,5,SENSE*%
X147713000Y-97663000D03*
%TO.P,U1,6,TRIM*%
%TO.N,Net-(RV1-Pad3)*%
X147713000Y-102243000D03*
D21*
%TO.P,U1,7,GND*%
%TO.N,GND*%
X142113000Y-103263000D03*
%TO.P,U1,8*%
%TO.N,N/C*%
X139823000Y-103263000D03*
D19*
%TO.P,U1,9*%
X136513000Y-102243000D03*
%TO.P,U1,10,PG_OUT*%
%TO.N,unconnected-(U1-Pad10)*%
X136513000Y-99953000D03*
D23*
%TO.P,U1,11*%
%TO.N,N/C*%
X148463000Y-99953000D03*
D21*
%TO.P,U1,12*%
X144403000Y-103263000D03*
D24*
%TO.P,U1,13*%
X146713000Y-99953000D03*
%TD*%
D14*
%TO.P,J2,1,Pin_1*%
%TO.N,+12V*%
X157073981Y-85745311D03*
D15*
%TO.P,J2,2,Pin_2*%
%TO.N,GND*%
X158989092Y-84138342D03*
%TD*%
D13*
%TO.P,C2,1*%
%TO.N,+5V*%
X142200000Y-85217000D03*
%TO.P,C2,2*%
%TO.N,GND*%
X137200000Y-85217000D03*
%TD*%
D25*
%TO.P,SW1,1*%
%TO.N,GND*%
X131191000Y-110663000D03*
%TO.P,SW1,2*%
%TO.N,Net-(R1-Pad2)*%
X126111000Y-110663000D03*
%TO.P,SW1,3*%
%TO.N,N/C*%
X128651000Y-110663000D03*
%TD*%
D10*
%TO.P,R2,1*%
%TO.N,Net-(R2-Pad1)*%
X159639000Y-96647000D03*
D11*
%TO.P,R2,2*%
%TO.N,GND*%
X159639000Y-101727000D03*
%TD*%
D26*
%TO.P,RV1,1,1*%
%TO.N,Net-(R2-Pad1)*%
X154178000Y-96383000D03*
%TO.P,RV1,2,2*%
X154178000Y-98923000D03*
%TO.P,RV1,3,3*%
%TO.N,Net-(RV1-Pad3)*%
X154178000Y-101463000D03*
%TD*%
D27*
%TO.P,BT1,1,+*%
%TO.N,Net-(BT1-Pad1)*%
X116796956Y-76982235D03*
D28*
%TO.P,BT1,2,-*%
%TO.N,GND*%
X119342395Y-73948699D03*
%TD*%
D29*
%TO.N,GND*%
X164084000Y-92456000D03*
X162179000Y-91059000D03*
X157734000Y-98552000D03*
X160020000Y-76200000D03*
X137668000Y-111760000D03*
X131318000Y-78689200D03*
X147320000Y-111760000D03*
X145034000Y-77470000D03*
X149606000Y-85852000D03*
X133604000Y-102616000D03*
X141986000Y-106172000D03*
X120243600Y-105968800D03*
X128778000Y-85598000D03*
X161798000Y-116078000D03*
X115824000Y-109982000D03*
X136347200Y-124866400D03*
X144322800Y-95351600D03*
X148437600Y-124460000D03*
X129082800Y-118719600D03*
X173278800Y-91948000D03*
X99568000Y-91389200D03*
X163576000Y-81026000D03*
X151384000Y-90424000D03*
X158242000Y-111506000D03*
X147726400Y-72491600D03*
X147066000Y-105410000D03*
X142240000Y-111760000D03*
X111607600Y-121615200D03*
X155448000Y-82677000D03*
X155448000Y-71374000D03*
X134061200Y-85293200D03*
X125476000Y-73660000D03*
X106172000Y-96774000D03*
X133756400Y-73050400D03*
X117398800Y-69596000D03*
X136906000Y-77724000D03*
X113995200Y-104089200D03*
X161950400Y-101092000D03*
X135636000Y-107442000D03*
X156718000Y-118110000D03*
X151384000Y-108458000D03*
X137668000Y-104648000D03*
X113842800Y-82956400D03*
X151130000Y-99568000D03*
X133350000Y-111760000D03*
X113538000Y-99060000D03*
X119126000Y-82804000D03*
X107340400Y-82092800D03*
X163576000Y-85852000D03*
X161239200Y-121970800D03*
X123952000Y-124002800D03*
X168148000Y-96520000D03*
X156311600Y-92710000D03*
X123799600Y-109474000D03*
X109778800Y-78790800D03*
X144780000Y-82296000D03*
X140716000Y-73101200D03*
X115062000Y-72898000D03*
%TO.N,+12V*%
X132519800Y-93083000D03*
X133604000Y-92964000D03*
X131605400Y-93083000D03*
X130733800Y-91567000D03*
X130771900Y-92544900D03*
X133477000Y-91567000D03*
X131648200Y-91313000D03*
X132562600Y-91313000D03*
%TD*%
D30*
%TO.N,Net-(BT1-Pad1)*%
X120082726Y-80268005D02*
X125714994Y-80268005D01*
X116796956Y-76982235D02*
X120082726Y-80268005D01*
X125714994Y-80268005D02*
X125714994Y-79811955D01*
X125714994Y-79811955D02*
X128093308Y-77433641D01*
%TO.N,+12V*%
X139027000Y-91567000D02*
X139523000Y-92063000D01*
X125192526Y-95372926D02*
X124663200Y-94843600D01*
X126238000Y-99568000D02*
X122682000Y-99568000D01*
X118134267Y-98725726D02*
X121839726Y-98725726D01*
X118196726Y-98725726D02*
X126238000Y-106767000D01*
X132519800Y-93083000D02*
X136513000Y-93083000D01*
X128905000Y-91567000D02*
X130733800Y-91567000D01*
X138678000Y-93083000D02*
X136513000Y-93083000D01*
X128905000Y-91660452D02*
X128905000Y-91567000D01*
X128151000Y-93083000D02*
X126238000Y-94996000D01*
X128592200Y-93083000D02*
X128151000Y-93083000D01*
X133477000Y-91567000D02*
X139027000Y-91567000D01*
X126238000Y-103124000D02*
X126238000Y-106767000D01*
X123566926Y-96998526D02*
X125192526Y-95372926D01*
X121056400Y-94843600D02*
X118134267Y-97765733D01*
X126238000Y-99517200D02*
X126238000Y-99568000D01*
X126238000Y-98450400D02*
X131605400Y-93083000D01*
X138678000Y-93083000D02*
X138803000Y-93083000D01*
X131605400Y-93083000D02*
X132519800Y-93083000D01*
X126238000Y-94327452D02*
X126238000Y-94996000D01*
X121839726Y-98725726D02*
X122326400Y-99212400D01*
X125192526Y-95372926D02*
X126335526Y-94229926D01*
X126085600Y-99517200D02*
X126238000Y-99517200D01*
X127482452Y-93083000D02*
X128905000Y-91660452D01*
X126238000Y-99568000D02*
X126238000Y-103124000D01*
X126238000Y-106767000D02*
X126278000Y-106807000D01*
X126238000Y-99517200D02*
X126238000Y-98450400D01*
X118134267Y-97765733D02*
X118134267Y-98725726D01*
X123566926Y-96998526D02*
X126085600Y-99517200D01*
X127482452Y-93083000D02*
X128592200Y-93083000D01*
X118134267Y-98725726D02*
X118196726Y-98725726D01*
X130733800Y-91567000D02*
X133477000Y-91567000D01*
X126335526Y-94229926D02*
X127482452Y-93083000D01*
X119307874Y-98725726D02*
X121666000Y-96367600D01*
X126335526Y-94229926D02*
X126238000Y-94327452D01*
X122326400Y-99212400D02*
X126238000Y-103124000D01*
X121839726Y-98725726D02*
X123566926Y-96998526D01*
X118134267Y-98725726D02*
X119307874Y-98725726D01*
X139523000Y-92363000D02*
X139523000Y-92063000D01*
X128592200Y-93083000D02*
X131605400Y-93083000D01*
X138803000Y-93083000D02*
X139523000Y-92363000D01*
X124663200Y-94843600D02*
X121056400Y-94843600D01*
X122682000Y-99568000D02*
X122326400Y-99212400D01*
X126238000Y-94996000D02*
X126238000Y-99517200D01*
%TO.N,+5V*%
X142200000Y-85217000D02*
X144653000Y-85217000D01*
D31*
X146713000Y-91031000D02*
X146713000Y-94228000D01*
X149225000Y-96901000D02*
X149225000Y-89789000D01*
D30*
X148590000Y-89154000D02*
X148590000Y-92206000D01*
D31*
X148463000Y-97663000D02*
X149225000Y-96901000D01*
D30*
X148590000Y-92206000D02*
X147713000Y-93083000D01*
D31*
X146713000Y-96663000D02*
X147713000Y-97663000D01*
D30*
X151853698Y-79413302D02*
X151853698Y-79407139D01*
X146050000Y-85217000D02*
X151853698Y-79413302D01*
D31*
X146713000Y-94228000D02*
X146713000Y-96663000D01*
X147713000Y-97663000D02*
X148463000Y-97663000D01*
X147713000Y-97663000D02*
X147713000Y-93083000D01*
D30*
X144653000Y-85217000D02*
X146050000Y-85217000D01*
X144653000Y-85217000D02*
X148590000Y-89154000D01*
D31*
X148590000Y-89154000D02*
X146713000Y-91031000D01*
X149225000Y-89789000D02*
X148590000Y-89154000D01*
D30*
%TO.N,Net-(D1-Pad1)*%
X124569299Y-90970383D02*
X117436617Y-90970383D01*
X122951008Y-84018046D02*
X120572693Y-86396361D01*
X120572693Y-86396361D02*
X120572693Y-87834307D01*
X122951008Y-83561996D02*
X122228804Y-83561996D01*
X113258600Y-94869000D02*
X113538000Y-94869000D01*
X122228804Y-83561996D02*
X113538000Y-92252800D01*
X120572693Y-87834307D02*
X113538000Y-94869000D01*
X110947200Y-91440000D02*
X110947200Y-92557600D01*
X110947200Y-92557600D02*
X113258600Y-94869000D01*
X115990839Y-86396361D02*
X110947200Y-91440000D01*
X120572693Y-86396361D02*
X120572693Y-86973777D01*
X117436617Y-90970383D02*
X113538000Y-94869000D01*
X120572693Y-86973777D02*
X124569299Y-90970383D01*
X122951008Y-83561996D02*
X122951008Y-84018046D01*
X113538000Y-92252800D02*
X113538000Y-94869000D01*
X120572693Y-86396361D02*
X115990839Y-86396361D01*
D32*
%TO.N,Net-(R1-Pad2)*%
X128778000Y-107996000D02*
X128778000Y-105664000D01*
X132080000Y-97663000D02*
X136513000Y-97663000D01*
X131318000Y-98425000D02*
X132080000Y-97663000D01*
X126111000Y-110663000D02*
X128778000Y-107996000D01*
X131318000Y-103124000D02*
X131318000Y-98425000D01*
X128778000Y-105664000D02*
X131318000Y-103124000D01*
D31*
%TO.N,Net-(R2-Pad1)*%
X154178000Y-96383000D02*
X159375000Y-96383000D01*
X154178000Y-96383000D02*
X154178000Y-98923000D01*
X159375000Y-96383000D02*
X159639000Y-96647000D01*
%TO.N,Net-(RV1-Pad3)*%
X153289000Y-103759000D02*
X148463000Y-103759000D01*
X147713000Y-102243000D02*
X153398000Y-102243000D01*
X154178000Y-101463000D02*
X154178000Y-102870000D01*
X147713000Y-103009000D02*
X147713000Y-102243000D01*
X148463000Y-103759000D02*
X147713000Y-103009000D01*
X153398000Y-102243000D02*
X154178000Y-101463000D01*
X154178000Y-102870000D02*
X153289000Y-103759000D01*
%TD*%
%TA.AperFunction,Conductor*%
%TO.N,GND*%
G36*
X155483339Y-68123121D02*
G01*
X155561404Y-68129691D01*
X155678407Y-68139539D01*
X155696248Y-68142339D01*
X155826899Y-68172583D01*
X155886973Y-68186490D01*
X155904236Y-68191816D01*
X156086675Y-68262786D01*
X156103000Y-68270526D01*
X156273417Y-68366860D01*
X156288468Y-68376856D01*
X156443361Y-68496579D01*
X156456826Y-68508625D01*
X156570300Y-68625821D01*
X156581659Y-68640573D01*
X156586607Y-68646627D01*
X156591249Y-68654317D01*
X156614690Y-68675861D01*
X156625993Y-68687695D01*
X169562694Y-84125443D01*
X169591116Y-84190501D01*
X169579852Y-84260598D01*
X169532480Y-84313479D01*
X169464038Y-84332353D01*
X169400284Y-84313803D01*
X169300868Y-84252881D01*
X169297211Y-84250640D01*
X169279117Y-84242697D01*
X169037899Y-84136810D01*
X169033967Y-84135084D01*
X169019413Y-84130938D01*
X168884222Y-84092428D01*
X168757475Y-84056323D01*
X168514745Y-84021778D01*
X168477105Y-84016421D01*
X168477103Y-84016421D01*
X168472853Y-84015816D01*
X168468564Y-84015794D01*
X168468557Y-84015793D01*
X168189652Y-84014332D01*
X168189645Y-84014332D01*
X168185366Y-84014310D01*
X168181122Y-84014869D01*
X168181118Y-84014869D01*
X168055729Y-84031377D01*
X167900335Y-84051835D01*
X167896195Y-84052968D01*
X167896193Y-84052968D01*
X167819380Y-84073982D01*
X167623033Y-84127696D01*
X167619085Y-84129380D01*
X167362545Y-84238804D01*
X167362541Y-84238806D01*
X167358593Y-84240490D01*
X167327762Y-84258942D01*
X167115590Y-84385924D01*
X167115586Y-84385927D01*
X167111908Y-84388128D01*
X166887541Y-84567880D01*
X166827965Y-84630660D01*
X166692663Y-84773239D01*
X166689646Y-84776418D01*
X166558258Y-84959263D01*
X166536048Y-84990172D01*
X166521883Y-85009884D01*
X166519874Y-85013679D01*
X166519873Y-85013680D01*
X166506972Y-85038046D01*
X166387357Y-85263959D01*
X166288558Y-85533940D01*
X166227314Y-85814831D01*
X166215335Y-85967046D01*
X166205265Y-86094995D01*
X166205264Y-86094995D01*
X166205265Y-86094997D01*
X166204758Y-86101436D01*
X166205005Y-86105720D01*
X166205005Y-86105721D01*
X166207388Y-86147051D01*
X166221307Y-86388450D01*
X166222132Y-86392655D01*
X166222133Y-86392663D01*
X166244884Y-86508625D01*
X166276655Y-86670562D01*
X166278042Y-86674612D01*
X166278043Y-86674617D01*
X166368282Y-86938181D01*
X166369779Y-86942553D01*
X166396022Y-86994731D01*
X166492733Y-87187019D01*
X166498954Y-87199389D01*
X166661790Y-87436317D01*
X166855275Y-87648955D01*
X166858570Y-87651710D01*
X166858571Y-87651711D01*
X167035594Y-87799724D01*
X167075828Y-87833365D01*
X167319367Y-87986138D01*
X167581387Y-88104444D01*
X167585506Y-88105664D01*
X167852926Y-88184878D01*
X167852931Y-88184879D01*
X167857039Y-88186096D01*
X167861273Y-88186744D01*
X167861278Y-88186745D01*
X168109880Y-88224786D01*
X168141222Y-88229582D01*
X168287554Y-88231881D01*
X168424386Y-88234031D01*
X168424392Y-88234031D01*
X168428677Y-88234098D01*
X168432929Y-88233583D01*
X168432937Y-88233583D01*
X168709825Y-88200075D01*
X168709830Y-88200074D01*
X168714086Y-88199559D01*
X168893636Y-88152455D01*
X168988023Y-88127693D01*
X168988024Y-88127693D01*
X168992166Y-88126606D01*
X169257773Y-88016588D01*
X169505991Y-87871541D01*
X169732228Y-87694149D01*
X169762260Y-87663159D01*
X169929313Y-87490773D01*
X169932296Y-87487695D01*
X169934829Y-87484247D01*
X169934833Y-87484242D01*
X170099956Y-87259453D01*
X170102494Y-87255998D01*
X170108193Y-87245502D01*
X170237623Y-87007122D01*
X170237624Y-87007120D01*
X170239673Y-87003346D01*
X170341294Y-86734415D01*
X170405476Y-86454180D01*
X170408479Y-86420539D01*
X170430812Y-86170293D01*
X170430812Y-86170291D01*
X170431032Y-86167827D01*
X170431496Y-86123567D01*
X170429548Y-86094995D01*
X170412234Y-85841019D01*
X170412233Y-85841013D01*
X170411942Y-85836742D01*
X170407405Y-85814831D01*
X170354512Y-85559422D01*
X170353643Y-85555225D01*
X170288665Y-85371734D01*
X170284781Y-85300845D01*
X170319839Y-85239108D01*
X170382709Y-85206125D01*
X170453431Y-85212369D01*
X170504012Y-85248747D01*
X172188967Y-87259453D01*
X175083377Y-90713438D01*
X175094675Y-90729256D01*
X175107066Y-90749788D01*
X175113676Y-90755864D01*
X175113677Y-90755865D01*
X175118390Y-90760197D01*
X175135224Y-90779127D01*
X175234446Y-90916337D01*
X175243907Y-90931606D01*
X175334395Y-91104005D01*
X175341590Y-91120471D01*
X175349213Y-91141978D01*
X175406623Y-91303958D01*
X175406629Y-91303976D01*
X175411409Y-91321299D01*
X175449682Y-91512191D01*
X175451950Y-91530017D01*
X175462679Y-91724425D01*
X175462387Y-91742388D01*
X175450009Y-91883314D01*
X175445352Y-91936340D01*
X175442507Y-91954084D01*
X175398053Y-92143645D01*
X175392719Y-92160784D01*
X175339402Y-92296998D01*
X175321750Y-92342096D01*
X175314024Y-92358319D01*
X175217985Y-92527690D01*
X175208032Y-92542645D01*
X175088872Y-92696636D01*
X175076910Y-92710003D01*
X174960188Y-92823070D01*
X174946720Y-92833449D01*
X174946727Y-92833458D01*
X174939782Y-92839142D01*
X174932098Y-92843786D01*
X174926028Y-92850398D01*
X174926026Y-92850400D01*
X174910563Y-92867245D01*
X174898733Y-92878559D01*
X159649522Y-105674167D01*
X159632388Y-105686265D01*
X159615082Y-105696439D01*
X159605368Y-105704390D01*
X159602117Y-105708020D01*
X159600142Y-105709909D01*
X159596563Y-105713591D01*
X159385500Y-105913619D01*
X159383075Y-105916549D01*
X159383073Y-105916551D01*
X159237321Y-106092644D01*
X159192000Y-106147399D01*
X159028090Y-106402798D01*
X159026435Y-106406227D01*
X159026433Y-106406230D01*
X158915750Y-106635509D01*
X158896159Y-106676092D01*
X158798131Y-106963296D01*
X158797345Y-106967016D01*
X158797345Y-106967018D01*
X158736221Y-107256506D01*
X158735436Y-107260222D01*
X158735106Y-107263999D01*
X158735105Y-107264003D01*
X158723703Y-107394345D01*
X158708989Y-107562539D01*
X158719174Y-107865841D01*
X158719760Y-107869603D01*
X158719760Y-107869608D01*
X158765258Y-108161942D01*
X158765843Y-108165703D01*
X158848316Y-108457754D01*
X158849785Y-108461267D01*
X158849788Y-108461275D01*
X158888689Y-108554306D01*
X158965389Y-108737734D01*
X158967264Y-108741032D01*
X158967269Y-108741042D01*
X159113478Y-108998257D01*
X159115357Y-109001562D01*
X159277634Y-109220561D01*
X159285015Y-109231717D01*
X159287587Y-109236091D01*
X159295538Y-109245805D01*
X159316333Y-109264431D01*
X159328783Y-109277290D01*
X160488718Y-110659646D01*
X166097893Y-117344400D01*
X166126356Y-117409438D01*
X166115139Y-117479543D01*
X166067800Y-117532454D01*
X165999371Y-117551373D01*
X165950727Y-117540763D01*
X165755694Y-117455150D01*
X165729759Y-117447762D01*
X165483330Y-117377565D01*
X165483331Y-117377565D01*
X165479202Y-117376389D01*
X165254418Y-117344398D01*
X165198832Y-117336487D01*
X165198830Y-117336487D01*
X165194580Y-117335882D01*
X165190291Y-117335860D01*
X165190284Y-117335859D01*
X164911379Y-117334398D01*
X164911372Y-117334398D01*
X164907093Y-117334376D01*
X164902849Y-117334935D01*
X164902845Y-117334935D01*
X164777456Y-117351443D01*
X164622062Y-117371901D01*
X164617922Y-117373034D01*
X164617920Y-117373034D01*
X164541107Y-117394048D01*
X164344760Y-117447762D01*
X164340812Y-117449446D01*
X164084272Y-117558870D01*
X164084268Y-117558872D01*
X164080320Y-117560556D01*
X163955756Y-117635106D01*
X163837317Y-117705990D01*
X163837313Y-117705993D01*
X163833635Y-117708194D01*
X163609268Y-117887946D01*
X163411373Y-118096484D01*
X163274783Y-118286569D01*
X163246844Y-118325450D01*
X163243610Y-118329950D01*
X163241601Y-118333745D01*
X163241600Y-118333746D01*
X163226480Y-118362303D01*
X163109084Y-118584025D01*
X163010285Y-118854006D01*
X162949041Y-119134897D01*
X162948705Y-119139167D01*
X162926992Y-119415061D01*
X162926991Y-119415061D01*
X162926992Y-119415063D01*
X162926485Y-119421502D01*
X162943034Y-119708516D01*
X162943859Y-119712721D01*
X162943860Y-119712729D01*
X162963730Y-119814007D01*
X162998382Y-119990628D01*
X162999769Y-119994678D01*
X162999770Y-119994683D01*
X163090117Y-120258563D01*
X163091506Y-120262619D01*
X163099959Y-120279426D01*
X163208149Y-120494537D01*
X163220681Y-120519455D01*
X163383517Y-120756383D01*
X163577002Y-120969021D01*
X163580297Y-120971776D01*
X163580298Y-120971777D01*
X163674026Y-121050145D01*
X163797555Y-121153431D01*
X164041094Y-121306204D01*
X164303114Y-121424510D01*
X164307233Y-121425730D01*
X164574653Y-121504944D01*
X164574658Y-121504945D01*
X164578766Y-121506162D01*
X164583000Y-121506810D01*
X164583005Y-121506811D01*
X164831607Y-121544852D01*
X164862949Y-121549648D01*
X165009281Y-121551947D01*
X165146113Y-121554097D01*
X165146119Y-121554097D01*
X165150404Y-121554164D01*
X165154656Y-121553649D01*
X165154664Y-121553649D01*
X165431552Y-121520141D01*
X165431557Y-121520140D01*
X165435813Y-121519625D01*
X165713893Y-121446672D01*
X165979500Y-121336654D01*
X166227718Y-121191607D01*
X166453955Y-121014215D01*
X166495081Y-120971777D01*
X166651040Y-120810839D01*
X166654023Y-120807761D01*
X166656556Y-120804313D01*
X166656560Y-120804308D01*
X166821683Y-120579519D01*
X166824221Y-120576064D01*
X166878118Y-120476798D01*
X166959350Y-120327188D01*
X166959351Y-120327186D01*
X166961400Y-120323412D01*
X167063021Y-120054481D01*
X167127203Y-119774246D01*
X167141471Y-119614381D01*
X167152539Y-119490359D01*
X167152539Y-119490357D01*
X167152759Y-119487893D01*
X167153223Y-119443633D01*
X167135370Y-119181758D01*
X167133961Y-119161085D01*
X167133960Y-119161079D01*
X167133669Y-119156808D01*
X167129132Y-119134897D01*
X167098118Y-118985136D01*
X167076094Y-118878787D01*
X167081866Y-118808027D01*
X167124979Y-118751619D01*
X167191744Y-118727474D01*
X167260964Y-118743259D01*
X167295998Y-118772246D01*
X167461365Y-118969323D01*
X167472670Y-118985128D01*
X167485085Y-119005668D01*
X167491699Y-119011739D01*
X167491702Y-119011743D01*
X167495927Y-119015621D01*
X167513060Y-119034940D01*
X167618468Y-119181707D01*
X167628337Y-119197895D01*
X167721775Y-119380832D01*
X167729105Y-119398317D01*
X167794038Y-119593207D01*
X167798660Y-119611593D01*
X167806921Y-119659428D01*
X167832575Y-119807983D01*
X167833615Y-119814007D01*
X167835427Y-119832880D01*
X167839616Y-120038262D01*
X167838575Y-120057192D01*
X167811902Y-120260867D01*
X167808033Y-120279426D01*
X167751102Y-120476798D01*
X167744493Y-120494565D01*
X167658611Y-120681119D01*
X167658591Y-120681162D01*
X167649391Y-120697735D01*
X167536464Y-120869333D01*
X167524880Y-120884341D01*
X167448692Y-120969021D01*
X167387489Y-121037046D01*
X167373785Y-121050145D01*
X167215028Y-121180516D01*
X167199518Y-121191408D01*
X167022992Y-121296486D01*
X167006042Y-121304919D01*
X166845562Y-121370193D01*
X166829895Y-121374553D01*
X166820889Y-121377439D01*
X166811315Y-121378950D01*
X166811309Y-121378953D01*
X166811302Y-121378954D01*
X166802769Y-121382982D01*
X166802766Y-121382983D01*
X166785190Y-121391280D01*
X166768792Y-121397662D01*
X165581009Y-121766731D01*
X164961465Y-121959236D01*
X164959119Y-121959940D01*
X163104000Y-122497059D01*
X163101700Y-122497701D01*
X161236505Y-122998660D01*
X161234225Y-122999250D01*
X159359539Y-123463891D01*
X159357244Y-123464437D01*
X157473948Y-123892540D01*
X157471555Y-123893059D01*
X155580389Y-124284461D01*
X155577986Y-124284934D01*
X153679538Y-124639512D01*
X153677127Y-124639938D01*
X151772190Y-124957545D01*
X151769770Y-124957925D01*
X149858942Y-125238462D01*
X149856516Y-125238794D01*
X147940647Y-125482133D01*
X147938215Y-125482418D01*
X146017928Y-125688482D01*
X146015490Y-125688719D01*
X144091679Y-125857413D01*
X144089238Y-125857604D01*
X142162353Y-125988887D01*
X142159908Y-125989029D01*
X140454139Y-126071979D01*
X140230940Y-126082833D01*
X140228501Y-126082928D01*
X138298044Y-126139226D01*
X138295657Y-126139272D01*
X136864841Y-126153178D01*
X136364425Y-126158041D01*
X136361977Y-126158041D01*
X135861561Y-126153178D01*
X134430745Y-126139272D01*
X134428358Y-126139226D01*
X132497901Y-126082928D01*
X132495462Y-126082833D01*
X132272263Y-126071979D01*
X130566494Y-125989029D01*
X130564049Y-125988887D01*
X128637164Y-125857604D01*
X128634723Y-125857413D01*
X126710912Y-125688719D01*
X126708474Y-125688482D01*
X124788187Y-125482418D01*
X124785755Y-125482133D01*
X122869886Y-125238794D01*
X122867460Y-125238462D01*
X120956632Y-124957925D01*
X120954212Y-124957545D01*
X119049275Y-124639938D01*
X119046864Y-124639512D01*
X117148416Y-124284934D01*
X117146013Y-124284461D01*
X115254847Y-123893059D01*
X115252454Y-123892540D01*
X113369158Y-123464437D01*
X113366863Y-123463891D01*
X111518286Y-123005721D01*
X130301024Y-123005721D01*
X130303491Y-123014352D01*
X130309150Y-123034153D01*
X130312728Y-123050915D01*
X130316920Y-123080187D01*
X130320634Y-123088355D01*
X130320634Y-123088356D01*
X130327548Y-123103562D01*
X130333996Y-123121086D01*
X130341051Y-123145771D01*
X130345843Y-123153365D01*
X130345844Y-123153368D01*
X130356830Y-123170780D01*
X130364969Y-123185863D01*
X130377208Y-123212782D01*
X130383069Y-123219584D01*
X130393970Y-123232235D01*
X130405073Y-123247239D01*
X130418776Y-123268958D01*
X130425501Y-123274897D01*
X130425504Y-123274901D01*
X130440938Y-123288532D01*
X130452982Y-123300724D01*
X130466427Y-123316327D01*
X130466430Y-123316329D01*
X130472287Y-123323127D01*
X130479816Y-123328007D01*
X130479817Y-123328008D01*
X130493835Y-123337094D01*
X130508709Y-123348385D01*
X130521217Y-123359431D01*
X130527951Y-123365378D01*
X130554711Y-123377942D01*
X130569691Y-123386263D01*
X130586983Y-123397471D01*
X130586988Y-123397473D01*
X130594515Y-123402352D01*
X130603108Y-123404922D01*
X130603113Y-123404924D01*
X130619120Y-123409711D01*
X130636564Y-123416372D01*
X130651676Y-123423467D01*
X130651678Y-123423468D01*
X130659800Y-123427281D01*
X130668667Y-123428662D01*
X130668668Y-123428662D01*
X130671353Y-123429080D01*
X130689017Y-123431830D01*
X130705732Y-123435613D01*
X130725466Y-123441515D01*
X130725472Y-123441516D01*
X130734066Y-123444086D01*
X130743037Y-123444141D01*
X130743038Y-123444141D01*
X130753097Y-123444202D01*
X130768506Y-123444296D01*
X130769289Y-123444329D01*
X130770386Y-123444500D01*
X130801377Y-123444500D01*
X130802147Y-123444502D01*
X130875785Y-123444952D01*
X130875786Y-123444952D01*
X130879721Y-123444976D01*
X130881065Y-123444592D01*
X130882410Y-123444500D01*
X153661377Y-123444500D01*
X153662148Y-123444502D01*
X153739721Y-123444976D01*
X153768152Y-123436850D01*
X153784915Y-123433272D01*
X153785753Y-123433152D01*
X153814187Y-123429080D01*
X153837564Y-123418451D01*
X153855087Y-123412004D01*
X153879771Y-123404949D01*
X153887365Y-123400157D01*
X153887368Y-123400156D01*
X153904780Y-123389170D01*
X153919865Y-123381030D01*
X153946782Y-123368792D01*
X153966235Y-123352030D01*
X153981239Y-123340927D01*
X154002958Y-123327224D01*
X154008897Y-123320499D01*
X154008901Y-123320496D01*
X154022532Y-123305062D01*
X154034724Y-123293018D01*
X154050327Y-123279573D01*
X154050329Y-123279570D01*
X154057127Y-123273713D01*
X154071094Y-123252165D01*
X154082385Y-123237291D01*
X154093431Y-123224783D01*
X154093432Y-123224782D01*
X154099378Y-123218049D01*
X154111943Y-123191287D01*
X154120263Y-123176309D01*
X154131471Y-123159017D01*
X154131473Y-123159012D01*
X154136352Y-123151485D01*
X154138922Y-123142892D01*
X154138924Y-123142887D01*
X154143711Y-123126880D01*
X154150372Y-123109436D01*
X154157467Y-123094324D01*
X154157468Y-123094322D01*
X154161281Y-123086200D01*
X154165830Y-123056983D01*
X154169613Y-123040268D01*
X154175515Y-123020534D01*
X154175516Y-123020528D01*
X154178086Y-123011934D01*
X154178164Y-122999261D01*
X154178296Y-122977503D01*
X154178329Y-122976711D01*
X154178500Y-122975614D01*
X154178500Y-122944623D01*
X154178502Y-122943853D01*
X154178952Y-122870215D01*
X154178952Y-122870214D01*
X154178976Y-122866279D01*
X154178592Y-122864935D01*
X154178500Y-122863590D01*
X154178500Y-112835423D01*
X154178502Y-112834653D01*
X154178800Y-112785902D01*
X154178976Y-112757079D01*
X154170850Y-112728647D01*
X154167272Y-112711885D01*
X154164352Y-112691498D01*
X154163080Y-112682613D01*
X154152451Y-112659236D01*
X154146004Y-112641713D01*
X154141416Y-112625662D01*
X154138949Y-112617029D01*
X154134156Y-112609432D01*
X154123170Y-112592020D01*
X154115030Y-112576935D01*
X154112564Y-112571511D01*
X154102792Y-112550018D01*
X154086030Y-112530565D01*
X154074927Y-112515561D01*
X154061224Y-112493842D01*
X154054499Y-112487903D01*
X154054496Y-112487899D01*
X154039062Y-112474268D01*
X154027018Y-112462076D01*
X154013573Y-112446473D01*
X154013570Y-112446471D01*
X154007713Y-112439673D01*
X153994009Y-112430790D01*
X153986165Y-112425706D01*
X153971291Y-112414415D01*
X153958783Y-112403369D01*
X153958782Y-112403368D01*
X153952049Y-112397422D01*
X153925287Y-112384857D01*
X153910309Y-112376537D01*
X153893017Y-112365329D01*
X153893012Y-112365327D01*
X153885485Y-112360448D01*
X153876892Y-112357878D01*
X153876887Y-112357876D01*
X153860880Y-112353089D01*
X153843436Y-112346428D01*
X153828324Y-112339333D01*
X153828322Y-112339332D01*
X153820200Y-112335519D01*
X153811333Y-112334138D01*
X153811332Y-112334138D01*
X153800478Y-112332448D01*
X153790983Y-112330970D01*
X153774268Y-112327187D01*
X153754534Y-112321285D01*
X153754528Y-112321284D01*
X153745934Y-112318714D01*
X153736963Y-112318659D01*
X153736962Y-112318659D01*
X153726903Y-112318598D01*
X153711494Y-112318504D01*
X153710711Y-112318471D01*
X153709614Y-112318300D01*
X153678623Y-112318300D01*
X153677853Y-112318298D01*
X153604215Y-112317848D01*
X153604214Y-112317848D01*
X153600279Y-112317824D01*
X153598935Y-112318208D01*
X153597590Y-112318300D01*
X130818623Y-112318300D01*
X130817853Y-112318298D01*
X130817037Y-112318293D01*
X130740279Y-112317824D01*
X130717918Y-112324215D01*
X130711847Y-112325950D01*
X130695085Y-112329528D01*
X130665813Y-112333720D01*
X130657645Y-112337434D01*
X130657644Y-112337434D01*
X130642438Y-112344348D01*
X130624914Y-112350796D01*
X130600229Y-112357851D01*
X130592635Y-112362643D01*
X130592632Y-112362644D01*
X130575220Y-112373630D01*
X130560137Y-112381769D01*
X130533218Y-112394008D01*
X130526416Y-112399869D01*
X130513765Y-112410770D01*
X130498761Y-112421873D01*
X130477042Y-112435576D01*
X130471103Y-112442301D01*
X130471099Y-112442304D01*
X130457468Y-112457738D01*
X130445276Y-112469782D01*
X130429673Y-112483227D01*
X130429671Y-112483230D01*
X130422873Y-112489087D01*
X130417993Y-112496616D01*
X130417992Y-112496617D01*
X130408906Y-112510635D01*
X130397615Y-112525509D01*
X130386569Y-112538017D01*
X130380622Y-112544751D01*
X130374312Y-112558191D01*
X130368058Y-112571511D01*
X130359737Y-112586491D01*
X130348529Y-112603783D01*
X130348527Y-112603788D01*
X130343648Y-112611315D01*
X130341078Y-112619908D01*
X130341076Y-112619913D01*
X130336289Y-112635920D01*
X130329628Y-112653364D01*
X130322533Y-112668476D01*
X130318719Y-112676600D01*
X130317338Y-112685467D01*
X130317338Y-112685468D01*
X130314170Y-112705815D01*
X130310387Y-112722532D01*
X130304485Y-112742266D01*
X130304484Y-112742272D01*
X130301914Y-112750866D01*
X130301859Y-112759837D01*
X130301859Y-112759838D01*
X130301704Y-112785297D01*
X130301671Y-112786089D01*
X130301500Y-112787186D01*
X130301500Y-112818177D01*
X130301498Y-112818947D01*
X130301024Y-112896521D01*
X130301408Y-112897865D01*
X130301500Y-112899210D01*
X130301500Y-122927377D01*
X130301498Y-122928147D01*
X130301024Y-123005721D01*
X111518286Y-123005721D01*
X111492177Y-122999250D01*
X111489897Y-122998660D01*
X109624702Y-122497701D01*
X109622402Y-122497059D01*
X107767283Y-121959940D01*
X107764937Y-121959236D01*
X107145596Y-121766794D01*
X105964983Y-121399953D01*
X105945819Y-121392223D01*
X105927049Y-121382795D01*
X105927043Y-121382794D01*
X105927037Y-121382791D01*
X105918266Y-121381186D01*
X105918262Y-121381185D01*
X105912570Y-121380144D01*
X105887775Y-121372917D01*
X105720405Y-121304841D01*
X105703439Y-121296400D01*
X105526933Y-121191335D01*
X105511426Y-121180445D01*
X105352676Y-121050081D01*
X105338980Y-121036990D01*
X105201642Y-120884342D01*
X105201592Y-120884286D01*
X105190008Y-120869279D01*
X105149523Y-120807761D01*
X105077084Y-120697687D01*
X105067888Y-120681119D01*
X105021116Y-120579519D01*
X104981992Y-120494535D01*
X104975383Y-120476768D01*
X104918455Y-120279409D01*
X104914586Y-120260849D01*
X104887915Y-120057187D01*
X104886874Y-120038257D01*
X104891062Y-119832890D01*
X104892874Y-119814017D01*
X104927828Y-119611613D01*
X104932450Y-119593227D01*
X104989665Y-119421502D01*
X105920724Y-119421502D01*
X105937273Y-119708516D01*
X105938098Y-119712721D01*
X105938099Y-119712729D01*
X105957969Y-119814007D01*
X105992621Y-119990628D01*
X105994008Y-119994678D01*
X105994009Y-119994683D01*
X106084356Y-120258563D01*
X106085745Y-120262619D01*
X106094198Y-120279426D01*
X106202388Y-120494537D01*
X106214920Y-120519455D01*
X106377756Y-120756383D01*
X106571241Y-120969021D01*
X106574536Y-120971776D01*
X106574537Y-120971777D01*
X106668265Y-121050145D01*
X106791794Y-121153431D01*
X107035333Y-121306204D01*
X107297353Y-121424510D01*
X107301472Y-121425730D01*
X107568892Y-121504944D01*
X107568897Y-121504945D01*
X107573005Y-121506162D01*
X107577239Y-121506810D01*
X107577244Y-121506811D01*
X107825846Y-121544852D01*
X107857188Y-121549648D01*
X108003520Y-121551947D01*
X108140352Y-121554097D01*
X108140358Y-121554097D01*
X108144643Y-121554164D01*
X108148895Y-121553649D01*
X108148903Y-121553649D01*
X108425791Y-121520141D01*
X108425796Y-121520140D01*
X108430052Y-121519625D01*
X108708132Y-121446672D01*
X108973739Y-121336654D01*
X109221957Y-121191607D01*
X109448194Y-121014215D01*
X109489320Y-120971777D01*
X109645279Y-120810839D01*
X109648262Y-120807761D01*
X109650795Y-120804313D01*
X109650799Y-120804308D01*
X109815922Y-120579519D01*
X109818460Y-120576064D01*
X109872357Y-120476798D01*
X109953589Y-120327188D01*
X109953590Y-120327186D01*
X109955639Y-120323412D01*
X110057260Y-120054481D01*
X110121442Y-119774246D01*
X110135710Y-119614381D01*
X110146778Y-119490359D01*
X110146778Y-119490357D01*
X110146998Y-119487893D01*
X110147462Y-119443633D01*
X110129609Y-119181758D01*
X110128200Y-119161085D01*
X110128199Y-119161079D01*
X110127908Y-119156808D01*
X110123371Y-119134897D01*
X110070478Y-118879488D01*
X110069609Y-118875291D01*
X109973642Y-118604290D01*
X109841785Y-118348821D01*
X109835967Y-118340542D01*
X109678939Y-118117115D01*
X109676476Y-118113610D01*
X109480775Y-117903011D01*
X109258303Y-117720920D01*
X109013177Y-117570706D01*
X108995083Y-117562763D01*
X108753865Y-117456876D01*
X108749933Y-117455150D01*
X108723998Y-117447762D01*
X108477569Y-117377565D01*
X108477570Y-117377565D01*
X108473441Y-117376389D01*
X108248657Y-117344398D01*
X108193071Y-117336487D01*
X108193069Y-117336487D01*
X108188819Y-117335882D01*
X108184530Y-117335860D01*
X108184523Y-117335859D01*
X107905618Y-117334398D01*
X107905611Y-117334398D01*
X107901332Y-117334376D01*
X107897088Y-117334935D01*
X107897084Y-117334935D01*
X107771695Y-117351443D01*
X107616301Y-117371901D01*
X107612161Y-117373034D01*
X107612159Y-117373034D01*
X107535346Y-117394048D01*
X107338999Y-117447762D01*
X107335051Y-117449446D01*
X107078511Y-117558870D01*
X107078507Y-117558872D01*
X107074559Y-117560556D01*
X106949995Y-117635106D01*
X106831556Y-117705990D01*
X106831552Y-117705993D01*
X106827874Y-117708194D01*
X106603507Y-117887946D01*
X106405612Y-118096484D01*
X106269022Y-118286569D01*
X106241083Y-118325450D01*
X106237849Y-118329950D01*
X106235840Y-118333745D01*
X106235839Y-118333746D01*
X106220719Y-118362303D01*
X106103323Y-118584025D01*
X106004524Y-118854006D01*
X105943280Y-119134897D01*
X105942944Y-119139167D01*
X105921231Y-119415061D01*
X105921230Y-119415061D01*
X105921231Y-119415063D01*
X105920724Y-119421502D01*
X104989665Y-119421502D01*
X104997380Y-119398346D01*
X105004706Y-119380869D01*
X105098143Y-119197933D01*
X105108006Y-119181758D01*
X105209511Y-119040426D01*
X105220731Y-119028080D01*
X105220634Y-119027997D01*
X105226486Y-119021194D01*
X105233248Y-119015284D01*
X105250379Y-118988446D01*
X105260058Y-118975258D01*
X113199802Y-109513039D01*
X113392634Y-109283231D01*
X113407403Y-109268345D01*
X113422679Y-109255321D01*
X113430864Y-109245804D01*
X113433431Y-109241672D01*
X113434673Y-109239980D01*
X113438238Y-109234735D01*
X113608761Y-109004607D01*
X113608763Y-109004605D01*
X113611026Y-109001550D01*
X113718349Y-108812744D01*
X113759112Y-108741032D01*
X113759114Y-108741027D01*
X113760992Y-108737724D01*
X113869906Y-108477258D01*
X113876593Y-108461267D01*
X113876595Y-108461263D01*
X113878065Y-108457746D01*
X113960537Y-108165698D01*
X113967725Y-108119517D01*
X114006620Y-107869605D01*
X114006620Y-107869603D01*
X114007206Y-107865839D01*
X114017390Y-107562540D01*
X113990943Y-107260225D01*
X113928249Y-106963302D01*
X113927017Y-106959692D01*
X113927016Y-106959689D01*
X113875912Y-106809965D01*
X113830222Y-106676101D01*
X113746427Y-106502520D01*
X113699950Y-106406242D01*
X113699948Y-106406239D01*
X113698293Y-106402810D01*
X113534384Y-106147413D01*
X113490828Y-106094789D01*
X113343313Y-105916567D01*
X113343311Y-105916565D01*
X113340886Y-105913635D01*
X113338109Y-105911003D01*
X113143050Y-105726140D01*
X113133852Y-105716446D01*
X113133714Y-105716285D01*
X113133709Y-105716280D01*
X113130551Y-105712576D01*
X113121034Y-105704390D01*
X113116901Y-105701822D01*
X113097321Y-105689657D01*
X113082824Y-105679153D01*
X97834594Y-92884370D01*
X97820707Y-92870758D01*
X97810832Y-92859457D01*
X97810829Y-92859455D01*
X97804925Y-92852698D01*
X97797363Y-92847871D01*
X97797358Y-92847867D01*
X97791953Y-92844417D01*
X97772076Y-92828707D01*
X97650409Y-92710839D01*
X97638422Y-92697441D01*
X97557420Y-92592738D01*
X108934102Y-92592738D01*
X108934485Y-92597115D01*
X108934485Y-92597119D01*
X108944721Y-92714114D01*
X108944893Y-92716307D01*
X108952773Y-92829000D01*
X108953389Y-92837812D01*
X108954302Y-92842107D01*
X108955446Y-92847487D01*
X108957719Y-92862700D01*
X108958198Y-92868175D01*
X108958200Y-92868188D01*
X108958583Y-92872566D01*
X108959571Y-92876845D01*
X108959572Y-92876852D01*
X108985993Y-92991295D01*
X108986468Y-92993440D01*
X109005833Y-93084539D01*
X109011791Y-93112570D01*
X109013295Y-93116702D01*
X109015178Y-93121875D01*
X109019545Y-93136619D01*
X109021772Y-93146263D01*
X109023350Y-93150375D01*
X109023351Y-93150377D01*
X109065420Y-93259971D01*
X109066190Y-93262031D01*
X109106354Y-93372382D01*
X109106358Y-93372391D01*
X109107863Y-93376526D01*
X109109930Y-93380413D01*
X109112508Y-93385262D01*
X109118883Y-93399252D01*
X109120854Y-93404386D01*
X109120859Y-93404398D01*
X109122435Y-93408502D01*
X109181536Y-93515121D01*
X109182548Y-93516988D01*
X109237670Y-93620658D01*
X109237676Y-93620667D01*
X109239736Y-93624542D01*
X109242321Y-93628099D01*
X109242324Y-93628105D01*
X109245555Y-93632553D01*
X109253820Y-93645526D01*
X109258617Y-93654179D01*
X109331901Y-93751431D01*
X109333199Y-93753185D01*
X109404842Y-93851792D01*
X109410598Y-93857753D01*
X109411725Y-93858920D01*
X109421710Y-93870612D01*
X109425012Y-93874993D01*
X109427664Y-93878512D01*
X109513740Y-93964588D01*
X109515282Y-93966156D01*
X109599969Y-94053852D01*
X109607730Y-94059915D01*
X109607778Y-94059953D01*
X109619300Y-94070148D01*
X111373497Y-95824345D01*
X111408251Y-95890261D01*
X111434748Y-96031843D01*
X111516975Y-96260239D01*
X111634662Y-96472550D01*
X111637792Y-96476528D01*
X111637795Y-96476532D01*
X111638582Y-96477532D01*
X111784779Y-96663315D01*
X111788498Y-96666735D01*
X111788500Y-96666737D01*
X111959741Y-96824202D01*
X111959745Y-96824205D01*
X111963464Y-96827625D01*
X111967682Y-96830406D01*
X111967688Y-96830411D01*
X112141905Y-96945285D01*
X112166122Y-96961253D01*
X112170740Y-96963328D01*
X112170741Y-96963329D01*
X112382920Y-97058687D01*
X112382926Y-97058689D01*
X112387536Y-97060761D01*
X112392417Y-97062069D01*
X112392423Y-97062071D01*
X112617130Y-97122281D01*
X112617132Y-97122281D01*
X112622012Y-97123589D01*
X112627041Y-97124100D01*
X112627042Y-97124100D01*
X112721790Y-97133724D01*
X112863517Y-97148120D01*
X112895084Y-97146245D01*
X113100775Y-97134025D01*
X113100779Y-97134024D01*
X113105836Y-97133724D01*
X113110782Y-97132618D01*
X113110785Y-97132618D01*
X113337799Y-97081874D01*
X113342738Y-97080770D01*
X113391697Y-97061188D01*
X113563421Y-96992504D01*
X113563423Y-96992503D01*
X113568126Y-96990622D01*
X113749990Y-96881347D01*
X113806098Y-96863658D01*
X113808385Y-96863498D01*
X113813825Y-96863118D01*
X113813828Y-96863118D01*
X113818212Y-96862811D01*
X113827893Y-96860753D01*
X113843100Y-96858481D01*
X113848575Y-96858002D01*
X113848588Y-96858000D01*
X113852966Y-96857617D01*
X113857245Y-96856629D01*
X113857252Y-96856628D01*
X113935363Y-96838595D01*
X113941825Y-96837280D01*
X113966062Y-96833006D01*
X114025087Y-96822598D01*
X114052276Y-96813764D01*
X114065007Y-96810353D01*
X114092970Y-96804409D01*
X114097091Y-96802909D01*
X114097095Y-96802908D01*
X114099380Y-96802076D01*
X114102281Y-96801020D01*
X114117019Y-96796655D01*
X114126663Y-96794428D01*
X114130774Y-96792850D01*
X114130777Y-96792849D01*
X114190212Y-96770034D01*
X114205592Y-96764130D01*
X114211808Y-96761929D01*
X114288046Y-96737158D01*
X114288045Y-96737158D01*
X114292235Y-96735797D01*
X114296188Y-96733869D01*
X114296193Y-96733867D01*
X114317929Y-96723265D01*
X114330070Y-96718112D01*
X114352782Y-96709846D01*
X114352791Y-96709842D01*
X114356926Y-96708337D01*
X114365664Y-96703691D01*
X114379652Y-96697317D01*
X114384792Y-96695344D01*
X114384807Y-96695337D01*
X114388902Y-96693765D01*
X114403684Y-96685571D01*
X114462870Y-96652764D01*
X114468721Y-96649718D01*
X114483516Y-96642502D01*
X114544702Y-96612660D01*
X114568409Y-96596670D01*
X114579701Y-96589885D01*
X114604942Y-96576464D01*
X114608499Y-96573879D01*
X114608505Y-96573876D01*
X114612953Y-96570645D01*
X114625927Y-96562379D01*
X114630733Y-96559715D01*
X114634579Y-96557583D01*
X114702100Y-96506702D01*
X114707471Y-96502871D01*
X114718005Y-96495766D01*
X114777576Y-96455585D01*
X114798829Y-96436450D01*
X114809051Y-96428171D01*
X114832192Y-96411358D01*
X114839320Y-96404475D01*
X114851012Y-96394490D01*
X114855393Y-96391188D01*
X114855394Y-96391187D01*
X114858912Y-96388536D01*
X114918683Y-96328765D01*
X114923467Y-96324224D01*
X114943742Y-96305968D01*
X114986322Y-96267629D01*
X115004694Y-96245735D01*
X115013686Y-96236093D01*
X115031080Y-96219295D01*
X115031085Y-96219289D01*
X115034252Y-96216231D01*
X115040353Y-96208422D01*
X115050548Y-96196900D01*
X118231660Y-93015788D01*
X118293972Y-92981762D01*
X118320755Y-92978883D01*
X119816984Y-92978883D01*
X119885105Y-92998885D01*
X119931598Y-93052541D01*
X119941702Y-93122815D01*
X119912208Y-93187395D01*
X119892815Y-93205509D01*
X119862502Y-93228351D01*
X119860815Y-93229599D01*
X119762208Y-93301242D01*
X119756247Y-93306998D01*
X119755080Y-93308125D01*
X119743388Y-93318110D01*
X119739007Y-93321412D01*
X119735488Y-93324064D01*
X119649412Y-93410140D01*
X119647844Y-93411682D01*
X119560148Y-93496369D01*
X119554085Y-93504130D01*
X119554047Y-93504178D01*
X119543852Y-93515700D01*
X116753584Y-96305968D01*
X116748800Y-96310509D01*
X116685945Y-96367104D01*
X116627749Y-96436459D01*
X116607643Y-96460420D01*
X116606232Y-96462072D01*
X116526290Y-96554036D01*
X116523896Y-96557722D01*
X116523891Y-96557729D01*
X116520899Y-96562336D01*
X116511755Y-96574694D01*
X116508220Y-96578907D01*
X116508215Y-96578914D01*
X116505388Y-96582283D01*
X116451612Y-96668343D01*
X116440847Y-96685571D01*
X116439666Y-96687426D01*
X116373303Y-96789615D01*
X116371440Y-96793609D01*
X116371440Y-96793610D01*
X116369117Y-96798590D01*
X116361785Y-96812096D01*
X116356536Y-96820497D01*
X116354750Y-96824509D01*
X116354746Y-96824516D01*
X116306996Y-96931765D01*
X116306084Y-96933766D01*
X116269851Y-97011469D01*
X116254591Y-97044193D01*
X116253306Y-97048395D01*
X116253306Y-97048396D01*
X116251697Y-97053660D01*
X116246309Y-97068070D01*
X116242285Y-97077108D01*
X116240288Y-97084073D01*
X116208702Y-97194228D01*
X116208084Y-97196316D01*
X116172466Y-97312816D01*
X116170917Y-97322598D01*
X116167587Y-97337612D01*
X116164860Y-97347123D01*
X116164248Y-97351476D01*
X116164247Y-97351482D01*
X116147913Y-97467711D01*
X116147588Y-97469888D01*
X116131800Y-97569567D01*
X116128523Y-97590253D01*
X116128446Y-97594649D01*
X116128446Y-97594653D01*
X116128350Y-97600163D01*
X116127143Y-97615493D01*
X116125767Y-97625285D01*
X116125767Y-97747045D01*
X116125748Y-97749243D01*
X116123621Y-97871107D01*
X116124156Y-97875463D01*
X116124156Y-97875466D01*
X116124828Y-97880937D01*
X116125767Y-97896293D01*
X116125767Y-98613859D01*
X116125077Y-98627029D01*
X116122089Y-98655459D01*
X116122242Y-98659847D01*
X116122242Y-98659853D01*
X116125690Y-98758580D01*
X116125767Y-98762977D01*
X116125767Y-98795872D01*
X116125919Y-98798052D01*
X116125920Y-98798067D01*
X116126738Y-98809763D01*
X116114100Y-98874180D01*
X116086584Y-98930100D01*
X116086580Y-98930109D01*
X116084348Y-98934646D01*
X116082867Y-98939490D01*
X116054867Y-99031075D01*
X116013375Y-99166787D01*
X115980431Y-99407288D01*
X115980555Y-99412357D01*
X115985968Y-99633871D01*
X115986361Y-99649963D01*
X116031015Y-99888569D01*
X116032730Y-99893331D01*
X116032730Y-99893333D01*
X116049224Y-99939148D01*
X116113242Y-100116965D01*
X116230929Y-100329276D01*
X116234059Y-100333254D01*
X116234062Y-100333258D01*
X116271314Y-100380596D01*
X116381046Y-100520041D01*
X116384765Y-100523461D01*
X116384767Y-100523463D01*
X116556008Y-100680928D01*
X116556012Y-100680931D01*
X116559731Y-100684351D01*
X116563949Y-100687132D01*
X116563955Y-100687137D01*
X116745573Y-100806891D01*
X116762389Y-100817979D01*
X116767007Y-100820054D01*
X116767008Y-100820055D01*
X116979187Y-100915413D01*
X116979193Y-100915415D01*
X116983803Y-100917487D01*
X116988684Y-100918795D01*
X116988690Y-100918797D01*
X117213397Y-100979007D01*
X117213399Y-100979007D01*
X117218279Y-100980315D01*
X117223308Y-100980826D01*
X117223309Y-100980826D01*
X117315674Y-100990208D01*
X117459784Y-101004846D01*
X117569024Y-100998356D01*
X117638211Y-101014283D01*
X117665591Y-101035039D01*
X124804540Y-108173988D01*
X124806082Y-108175556D01*
X124890769Y-108263252D01*
X124894231Y-108265957D01*
X124894239Y-108265964D01*
X124899791Y-108270301D01*
X124907068Y-108276516D01*
X124907377Y-108276825D01*
X124909049Y-108278278D01*
X124909056Y-108278285D01*
X125032199Y-108385331D01*
X125066303Y-108414977D01*
X125069996Y-108417375D01*
X125298196Y-108565570D01*
X125298200Y-108565572D01*
X125301883Y-108567964D01*
X125305864Y-108569821D01*
X125305867Y-108569822D01*
X125455897Y-108639782D01*
X125556461Y-108686676D01*
X125825083Y-108768802D01*
X126102520Y-108812744D01*
X126106920Y-108812821D01*
X126106922Y-108812821D01*
X126166820Y-108813866D01*
X126230812Y-108814983D01*
X126298572Y-108836171D01*
X126344122Y-108890630D01*
X126352998Y-108961069D01*
X126317707Y-109030059D01*
X126078992Y-109268774D01*
X126016680Y-109302800D01*
X126008956Y-109304229D01*
X125926368Y-109316867D01*
X125795091Y-109336955D01*
X125582756Y-109406357D01*
X125384607Y-109509507D01*
X125380474Y-109512610D01*
X125380471Y-109512612D01*
X125210100Y-109640530D01*
X125205965Y-109643635D01*
X125051629Y-109805138D01*
X124925743Y-109989680D01*
X124831688Y-110192305D01*
X124771989Y-110407570D01*
X124748251Y-110629695D01*
X124748548Y-110634848D01*
X124748548Y-110634851D01*
X124750910Y-110675812D01*
X124761110Y-110852715D01*
X124762247Y-110857761D01*
X124762248Y-110857767D01*
X124783275Y-110951069D01*
X124810222Y-111070639D01*
X124894266Y-111277616D01*
X124944861Y-111360180D01*
X125008291Y-111463688D01*
X125010987Y-111468088D01*
X125157250Y-111636938D01*
X125329126Y-111779632D01*
X125522000Y-111892338D01*
X125730692Y-111972030D01*
X125735760Y-111973061D01*
X125735763Y-111973062D01*
X125840604Y-111994392D01*
X125949597Y-112016567D01*
X125954772Y-112016757D01*
X125954774Y-112016757D01*
X126167673Y-112024564D01*
X126167677Y-112024564D01*
X126172837Y-112024753D01*
X126177957Y-112024097D01*
X126177959Y-112024097D01*
X126389288Y-111997025D01*
X126389289Y-111997025D01*
X126394416Y-111996368D01*
X126399366Y-111994883D01*
X126603429Y-111933661D01*
X126603434Y-111933659D01*
X126608384Y-111932174D01*
X126808994Y-111833896D01*
X126990860Y-111704173D01*
X127149096Y-111546489D01*
X127208594Y-111463689D01*
X127279453Y-111365077D01*
X127280776Y-111366028D01*
X127327645Y-111322857D01*
X127397580Y-111310625D01*
X127463026Y-111338144D01*
X127490875Y-111369994D01*
X127550987Y-111468088D01*
X127697250Y-111636938D01*
X127869126Y-111779632D01*
X128062000Y-111892338D01*
X128270692Y-111972030D01*
X128275760Y-111973061D01*
X128275763Y-111973062D01*
X128380604Y-111994392D01*
X128489597Y-112016567D01*
X128494772Y-112016757D01*
X128494774Y-112016757D01*
X128707673Y-112024564D01*
X128707677Y-112024564D01*
X128712837Y-112024753D01*
X128717957Y-112024097D01*
X128717959Y-112024097D01*
X128929288Y-111997025D01*
X128929289Y-111997025D01*
X128934416Y-111996368D01*
X128939366Y-111994883D01*
X129143429Y-111933661D01*
X129143434Y-111933659D01*
X129148384Y-111932174D01*
X129348994Y-111833896D01*
X129413544Y-111787853D01*
X130430977Y-111787853D01*
X130436258Y-111794907D01*
X130597756Y-111889279D01*
X130607042Y-111893729D01*
X130806001Y-111969703D01*
X130815899Y-111972579D01*
X131024595Y-112015038D01*
X131034823Y-112016257D01*
X131247650Y-112024062D01*
X131257936Y-112023595D01*
X131469185Y-111996534D01*
X131479262Y-111994392D01*
X131683255Y-111933191D01*
X131692842Y-111929433D01*
X131884098Y-111835738D01*
X131892944Y-111830465D01*
X131940247Y-111796723D01*
X131948648Y-111786023D01*
X131941660Y-111772870D01*
X131203812Y-111035022D01*
X131189868Y-111027408D01*
X131188035Y-111027539D01*
X131181420Y-111031790D01*
X130437737Y-111775473D01*
X130430977Y-111787853D01*
X129413544Y-111787853D01*
X129530860Y-111704173D01*
X129689096Y-111546489D01*
X129748594Y-111463689D01*
X129819453Y-111365077D01*
X129820640Y-111365930D01*
X129867960Y-111322362D01*
X129937897Y-111310145D01*
X130003338Y-111337678D01*
X130031166Y-111369512D01*
X130057459Y-111412419D01*
X130067916Y-111421880D01*
X130076694Y-111418096D01*
X130818978Y-110675812D01*
X130825356Y-110664132D01*
X131555408Y-110664132D01*
X131555539Y-110665965D01*
X131559790Y-110672580D01*
X132301474Y-111414264D01*
X132313484Y-111420823D01*
X132325223Y-111411855D01*
X132356004Y-111369019D01*
X132361315Y-111360180D01*
X132455670Y-111169267D01*
X132459469Y-111159672D01*
X132521376Y-110955915D01*
X132523555Y-110945834D01*
X132551590Y-110732887D01*
X132552109Y-110726212D01*
X132553572Y-110666364D01*
X132553378Y-110659646D01*
X132535781Y-110445604D01*
X132534096Y-110435424D01*
X132482214Y-110228875D01*
X132478894Y-110219124D01*
X132393972Y-110023814D01*
X132389105Y-110014739D01*
X132324063Y-109914197D01*
X132313377Y-109904995D01*
X132303812Y-109909398D01*
X131563022Y-110650188D01*
X131555408Y-110664132D01*
X130825356Y-110664132D01*
X130826592Y-110661868D01*
X130826461Y-110660035D01*
X130822210Y-110653420D01*
X130080849Y-109912059D01*
X130069313Y-109905759D01*
X130057031Y-109915382D01*
X130024499Y-109963072D01*
X129969587Y-110008075D01*
X129899063Y-110016246D01*
X129835316Y-109984992D01*
X129814618Y-109960508D01*
X129733822Y-109835617D01*
X129733820Y-109835614D01*
X129731014Y-109831277D01*
X129580670Y-109666051D01*
X129576619Y-109662852D01*
X129576615Y-109662848D01*
X129420338Y-109539427D01*
X130432223Y-109539427D01*
X130438968Y-109551758D01*
X131178188Y-110290978D01*
X131192132Y-110298592D01*
X131193965Y-110298461D01*
X131200580Y-110294210D01*
X131944389Y-109550401D01*
X131951410Y-109537544D01*
X131944611Y-109528213D01*
X131940554Y-109525518D01*
X131754117Y-109422599D01*
X131744705Y-109418369D01*
X131543959Y-109347280D01*
X131533989Y-109344646D01*
X131324327Y-109307301D01*
X131314073Y-109306331D01*
X131101116Y-109303728D01*
X131090832Y-109304448D01*
X130880321Y-109336661D01*
X130870293Y-109339050D01*
X130667868Y-109405212D01*
X130658359Y-109409209D01*
X130469466Y-109507540D01*
X130460734Y-109513039D01*
X130440677Y-109528099D01*
X130432223Y-109539427D01*
X129420338Y-109539427D01*
X129409414Y-109530800D01*
X129409410Y-109530798D01*
X129405359Y-109527598D01*
X129209789Y-109419638D01*
X129204920Y-109417914D01*
X129204916Y-109417912D01*
X129081078Y-109374059D01*
X129023542Y-109332465D01*
X128997626Y-109266367D01*
X129011560Y-109196751D01*
X129034043Y-109166191D01*
X129447379Y-108752855D01*
X129457522Y-108743753D01*
X129482218Y-108723897D01*
X129487025Y-108720032D01*
X129519292Y-108681578D01*
X129522473Y-108677930D01*
X129524117Y-108676117D01*
X129526309Y-108673925D01*
X129553580Y-108640724D01*
X129554362Y-108639782D01*
X129610193Y-108573247D01*
X129610195Y-108573244D01*
X129614154Y-108568526D01*
X129616723Y-108563853D01*
X129620103Y-108559738D01*
X129664028Y-108477820D01*
X129664657Y-108476662D01*
X129706465Y-108400612D01*
X129706465Y-108400611D01*
X129709433Y-108395213D01*
X129711044Y-108390135D01*
X129713563Y-108385437D01*
X129740753Y-108296502D01*
X129741136Y-108295272D01*
X129747855Y-108274093D01*
X129769235Y-108206694D01*
X129769828Y-108201403D01*
X129771388Y-108196302D01*
X129780795Y-108103689D01*
X129780915Y-108102569D01*
X129786500Y-108052773D01*
X129786500Y-108049244D01*
X129786555Y-108048261D01*
X129787004Y-108042556D01*
X129790752Y-108005664D01*
X129790752Y-108005661D01*
X129791374Y-107999537D01*
X129787059Y-107953888D01*
X129786500Y-107942031D01*
X129786500Y-107893062D01*
X130556493Y-107893062D01*
X130565789Y-107905077D01*
X130616994Y-107940931D01*
X130626489Y-107946414D01*
X130823947Y-108038490D01*
X130834239Y-108042236D01*
X131044688Y-108098625D01*
X131055481Y-108100528D01*
X131272525Y-108119517D01*
X131283475Y-108119517D01*
X131500519Y-108100528D01*
X131511312Y-108098625D01*
X131721761Y-108042236D01*
X131732053Y-108038490D01*
X131929511Y-107946414D01*
X131939006Y-107940931D01*
X131991048Y-107904491D01*
X131999424Y-107894012D01*
X131992356Y-107880566D01*
X131290812Y-107179022D01*
X131276868Y-107171408D01*
X131275035Y-107171539D01*
X131268420Y-107175790D01*
X130562923Y-107881287D01*
X130556493Y-107893062D01*
X129786500Y-107893062D01*
X129786500Y-107251436D01*
X129806502Y-107183315D01*
X129860158Y-107136822D01*
X129930432Y-107126718D01*
X129995012Y-107156212D01*
X130034207Y-107218825D01*
X130042764Y-107250761D01*
X130046510Y-107261053D01*
X130138586Y-107458511D01*
X130144069Y-107468006D01*
X130180509Y-107520048D01*
X130190988Y-107528424D01*
X130204434Y-107521356D01*
X130905978Y-106819812D01*
X130912356Y-106808132D01*
X131642408Y-106808132D01*
X131642539Y-106809965D01*
X131646790Y-106816580D01*
X132352287Y-107522077D01*
X132364062Y-107528507D01*
X132376077Y-107519211D01*
X132411931Y-107468006D01*
X132417414Y-107458511D01*
X132509490Y-107261053D01*
X132513236Y-107250761D01*
X132569625Y-107040312D01*
X132571528Y-107029519D01*
X132590517Y-106812475D01*
X132590517Y-106801525D01*
X132571528Y-106584481D01*
X132569625Y-106573688D01*
X132513236Y-106363239D01*
X132509490Y-106352947D01*
X132417414Y-106155489D01*
X132411931Y-106145994D01*
X132375491Y-106093952D01*
X132365012Y-106085576D01*
X132351566Y-106092644D01*
X131650022Y-106794188D01*
X131642408Y-106808132D01*
X130912356Y-106808132D01*
X130913592Y-106805868D01*
X130913461Y-106804035D01*
X130909210Y-106797420D01*
X130203713Y-106091923D01*
X130191938Y-106085493D01*
X130179923Y-106094789D01*
X130144069Y-106145994D01*
X130138586Y-106155489D01*
X130046510Y-106352947D01*
X130042764Y-106363239D01*
X130034207Y-106395175D01*
X129997255Y-106455798D01*
X129933395Y-106486819D01*
X129862900Y-106478391D01*
X129808153Y-106433188D01*
X129786500Y-106362564D01*
X129786500Y-106133925D01*
X129806502Y-106065804D01*
X129823405Y-106044830D01*
X130148247Y-105719988D01*
X130556576Y-105719988D01*
X130563644Y-105733434D01*
X131265188Y-106434978D01*
X131279132Y-106442592D01*
X131280965Y-106442461D01*
X131287580Y-106438210D01*
X131993077Y-105732713D01*
X131999507Y-105720938D01*
X131990211Y-105708923D01*
X131939006Y-105673069D01*
X131929511Y-105667586D01*
X131732053Y-105575510D01*
X131721761Y-105571764D01*
X131511312Y-105515375D01*
X131500519Y-105513472D01*
X131283475Y-105494483D01*
X131272525Y-105494483D01*
X131055481Y-105513472D01*
X131044688Y-105515375D01*
X130834239Y-105571764D01*
X130823947Y-105575510D01*
X130626489Y-105667586D01*
X130616994Y-105673069D01*
X130564952Y-105709509D01*
X130556576Y-105719988D01*
X130148247Y-105719988D01*
X131533323Y-104334912D01*
X131589806Y-104302300D01*
X131660657Y-104283316D01*
X131727600Y-104265379D01*
X131727602Y-104265378D01*
X131732910Y-104263956D01*
X131737892Y-104261633D01*
X131919577Y-104176912D01*
X131919580Y-104176910D01*
X131924558Y-104174589D01*
X132097776Y-104053301D01*
X132247301Y-103903776D01*
X132368589Y-103730558D01*
X132375417Y-103715917D01*
X132455633Y-103543892D01*
X132455634Y-103543891D01*
X132457956Y-103538910D01*
X132470696Y-103491366D01*
X132511262Y-103339970D01*
X132511262Y-103339968D01*
X132512686Y-103334655D01*
X132531116Y-103124000D01*
X132512686Y-102913345D01*
X132500511Y-102867908D01*
X132459379Y-102714400D01*
X132459378Y-102714398D01*
X132457956Y-102709090D01*
X132434634Y-102659075D01*
X132370914Y-102522427D01*
X132370912Y-102522423D01*
X132368589Y-102517442D01*
X132363624Y-102510350D01*
X132349286Y-102489874D01*
X132326500Y-102417604D01*
X132326500Y-98894926D01*
X132346502Y-98826805D01*
X132363404Y-98805831D01*
X132460829Y-98708405D01*
X132523141Y-98674380D01*
X132549925Y-98671500D01*
X134668126Y-98671500D01*
X134736247Y-98691502D01*
X134743691Y-98696674D01*
X134757701Y-98707174D01*
X134800216Y-98764034D01*
X134805241Y-98834852D01*
X134771182Y-98897145D01*
X134757702Y-98908825D01*
X134649739Y-98989739D01*
X134562385Y-99106295D01*
X134511255Y-99242684D01*
X134504500Y-99304866D01*
X134504500Y-100601134D01*
X134511255Y-100663316D01*
X134562385Y-100799705D01*
X134649739Y-100916261D01*
X134754798Y-100994998D01*
X134757701Y-100997174D01*
X134800216Y-101054033D01*
X134805242Y-101124852D01*
X134771182Y-101187145D01*
X134757702Y-101198825D01*
X134649739Y-101279739D01*
X134562385Y-101396295D01*
X134511255Y-101532684D01*
X134504500Y-101594866D01*
X134504500Y-102891134D01*
X134511255Y-102953316D01*
X134562385Y-103089705D01*
X134649739Y-103206261D01*
X134766295Y-103293615D01*
X134902684Y-103344745D01*
X134964866Y-103351500D01*
X138061134Y-103351500D01*
X138123316Y-103344745D01*
X138259705Y-103293615D01*
X138376261Y-103206261D01*
X138463615Y-103089705D01*
X138470518Y-103071292D01*
X138513159Y-103014527D01*
X138579720Y-102989827D01*
X138649069Y-103005034D01*
X138699188Y-103055320D01*
X138714500Y-103115521D01*
X138714500Y-104811134D01*
X138721255Y-104873316D01*
X138772385Y-105009705D01*
X138859739Y-105126261D01*
X138976295Y-105213615D01*
X139112684Y-105264745D01*
X139174866Y-105271500D01*
X140471134Y-105271500D01*
X140533316Y-105264745D01*
X140669705Y-105213615D01*
X140786261Y-105126261D01*
X140795363Y-105114116D01*
X140867487Y-105017882D01*
X140924346Y-104975367D01*
X140995165Y-104970341D01*
X141057458Y-105004401D01*
X141069140Y-105017883D01*
X141144716Y-105118725D01*
X141157276Y-105131285D01*
X141259351Y-105207786D01*
X141274946Y-105216324D01*
X141395394Y-105261478D01*
X141410649Y-105265105D01*
X141461514Y-105270631D01*
X141468328Y-105271000D01*
X141840885Y-105271000D01*
X141856124Y-105266525D01*
X141857329Y-105265135D01*
X141859000Y-105257452D01*
X141859000Y-101273116D01*
X141854525Y-101257877D01*
X141853135Y-101256672D01*
X141845452Y-101255001D01*
X141468331Y-101255001D01*
X141461510Y-101255371D01*
X141410648Y-101260895D01*
X141395396Y-101264521D01*
X141274946Y-101309676D01*
X141259351Y-101318214D01*
X141157276Y-101394715D01*
X141144716Y-101407275D01*
X141069140Y-101508117D01*
X141012281Y-101550633D01*
X140941462Y-101555659D01*
X140879169Y-101521599D01*
X140867487Y-101508118D01*
X140791643Y-101406920D01*
X140791642Y-101406919D01*
X140786261Y-101399739D01*
X140669705Y-101312385D01*
X140533316Y-101261255D01*
X140471134Y-101254500D01*
X139174866Y-101254500D01*
X139112684Y-101261255D01*
X138976295Y-101312385D01*
X138859739Y-101399739D01*
X138772385Y-101516295D01*
X138769233Y-101524704D01*
X138769232Y-101524705D01*
X138756737Y-101558035D01*
X138714096Y-101614800D01*
X138647534Y-101639500D01*
X138578185Y-101624293D01*
X138528067Y-101574007D01*
X138516172Y-101542953D01*
X138515598Y-101540540D01*
X138514745Y-101532684D01*
X138510590Y-101521599D01*
X138466767Y-101404703D01*
X138463615Y-101396295D01*
X138376261Y-101279739D01*
X138268299Y-101198826D01*
X138225784Y-101141967D01*
X138220758Y-101071148D01*
X138254818Y-101008855D01*
X138268299Y-100997174D01*
X138271203Y-100994998D01*
X138376261Y-100916261D01*
X138463615Y-100799705D01*
X138514745Y-100663316D01*
X138521500Y-100601134D01*
X138521500Y-99304866D01*
X138514745Y-99242684D01*
X138463615Y-99106295D01*
X138376261Y-98989739D01*
X138268299Y-98908826D01*
X138225784Y-98851967D01*
X138220758Y-98781148D01*
X138254818Y-98718855D01*
X138268299Y-98707174D01*
X138369081Y-98631642D01*
X138376261Y-98626261D01*
X138463615Y-98509705D01*
X138514745Y-98373316D01*
X138521500Y-98311134D01*
X138521500Y-97014866D01*
X138514745Y-96952684D01*
X138463615Y-96816295D01*
X138376261Y-96699739D01*
X138259705Y-96612385D01*
X138123316Y-96561255D01*
X138061134Y-96554500D01*
X134964866Y-96554500D01*
X134902684Y-96561255D01*
X134766295Y-96612385D01*
X134743689Y-96629327D01*
X134677185Y-96654174D01*
X134668126Y-96654500D01*
X132141850Y-96654500D01*
X132128242Y-96653763D01*
X132127662Y-96653700D01*
X132090612Y-96649675D01*
X132040570Y-96654053D01*
X132035788Y-96654379D01*
X132033310Y-96654500D01*
X132030231Y-96654500D01*
X132027177Y-96654799D01*
X132027166Y-96654800D01*
X131987529Y-96658687D01*
X131986215Y-96658809D01*
X131950688Y-96661917D01*
X131893587Y-96666913D01*
X131888468Y-96668400D01*
X131883167Y-96668920D01*
X131794166Y-96695791D01*
X131793033Y-96696126D01*
X131709586Y-96720370D01*
X131709584Y-96720371D01*
X131703664Y-96722091D01*
X131698932Y-96724544D01*
X131693831Y-96726084D01*
X131688388Y-96728978D01*
X131611740Y-96769731D01*
X131610574Y-96770343D01*
X131542973Y-96805385D01*
X131528074Y-96813108D01*
X131523911Y-96816431D01*
X131519204Y-96818934D01*
X131514429Y-96822828D01*
X131514428Y-96822829D01*
X131447102Y-96877739D01*
X131446075Y-96878567D01*
X131409792Y-96907531D01*
X131409787Y-96907536D01*
X131407028Y-96909738D01*
X131404527Y-96912239D01*
X131403809Y-96912881D01*
X131399461Y-96916594D01*
X131365938Y-96943935D01*
X131362015Y-96948677D01*
X131362013Y-96948679D01*
X131336703Y-96979273D01*
X131328713Y-96988053D01*
X130648621Y-97668145D01*
X130638478Y-97677247D01*
X130608975Y-97700968D01*
X130605008Y-97705696D01*
X130576709Y-97739421D01*
X130573528Y-97743069D01*
X130571885Y-97744881D01*
X130569691Y-97747075D01*
X130542358Y-97780349D01*
X130541696Y-97781147D01*
X130481846Y-97852474D01*
X130479278Y-97857144D01*
X130475897Y-97861261D01*
X130465347Y-97880937D01*
X130432023Y-97943086D01*
X130431394Y-97944245D01*
X130389538Y-98020381D01*
X130389535Y-98020389D01*
X130386567Y-98025787D01*
X130384955Y-98030869D01*
X130382438Y-98035563D01*
X130355238Y-98124531D01*
X130354918Y-98125559D01*
X130326765Y-98214306D01*
X130326171Y-98219602D01*
X130324613Y-98224698D01*
X130315488Y-98314531D01*
X130315218Y-98317187D01*
X130315089Y-98318393D01*
X130309500Y-98368227D01*
X130309500Y-98371754D01*
X130309445Y-98372739D01*
X130308998Y-98378419D01*
X130304626Y-98421462D01*
X130305206Y-98427593D01*
X130308941Y-98467109D01*
X130309500Y-98478967D01*
X130309500Y-102417604D01*
X130286714Y-102489874D01*
X130272377Y-102510350D01*
X130267411Y-102517442D01*
X130265088Y-102522423D01*
X130265086Y-102522427D01*
X130201366Y-102659075D01*
X130178044Y-102709090D01*
X130142006Y-102843587D01*
X130139699Y-102852195D01*
X130107087Y-102908679D01*
X128461595Y-104554171D01*
X128399283Y-104588197D01*
X128328468Y-104583132D01*
X128271632Y-104540585D01*
X128246821Y-104474065D01*
X128246500Y-104465076D01*
X128246500Y-103179909D01*
X128246673Y-103173315D01*
X128250869Y-103093259D01*
X128250869Y-103093253D01*
X128251099Y-103088862D01*
X128250396Y-103080819D01*
X128246979Y-103041771D01*
X128246500Y-103030789D01*
X128246500Y-99679867D01*
X128247190Y-99666697D01*
X128249719Y-99642637D01*
X128249719Y-99642633D01*
X128250178Y-99638267D01*
X128250025Y-99633879D01*
X128250025Y-99633871D01*
X128249154Y-99608942D01*
X128249597Y-99596243D01*
X128249564Y-99596242D01*
X128249717Y-99591848D01*
X128250178Y-99587467D01*
X128246577Y-99484346D01*
X128246500Y-99479949D01*
X128246500Y-99334538D01*
X128266502Y-99266417D01*
X128283405Y-99245443D01*
X132400443Y-95128405D01*
X132462755Y-95094379D01*
X132489538Y-95091500D01*
X138747105Y-95091500D01*
X138753699Y-95091673D01*
X138833741Y-95095868D01*
X138833747Y-95095868D01*
X138838138Y-95096098D01*
X138842515Y-95095715D01*
X138842519Y-95095715D01*
X138959514Y-95085479D01*
X138961707Y-95085307D01*
X139078827Y-95077118D01*
X139078833Y-95077117D01*
X139083212Y-95076811D01*
X139092893Y-95074753D01*
X139108100Y-95072481D01*
X139113575Y-95072002D01*
X139113588Y-95072000D01*
X139117966Y-95071617D01*
X139122245Y-95070629D01*
X139122252Y-95070628D01*
X139236695Y-95044207D01*
X139238840Y-95043732D01*
X139353663Y-95019325D01*
X139353670Y-95019323D01*
X139357970Y-95018409D01*
X139367281Y-95015020D01*
X139382019Y-95010655D01*
X139391663Y-95008428D01*
X139403866Y-95003744D01*
X139493036Y-94969515D01*
X139505400Y-94964769D01*
X139507431Y-94964010D01*
X139617782Y-94923846D01*
X139617791Y-94923842D01*
X139621926Y-94922337D01*
X139630664Y-94917691D01*
X139644652Y-94911317D01*
X139649786Y-94909346D01*
X139649798Y-94909341D01*
X139653902Y-94907765D01*
X139760521Y-94848664D01*
X139762388Y-94847652D01*
X139866058Y-94792530D01*
X139866067Y-94792524D01*
X139869942Y-94790464D01*
X139873499Y-94787879D01*
X139873505Y-94787876D01*
X139877953Y-94784645D01*
X139890927Y-94776379D01*
X139899579Y-94771583D01*
X139996844Y-94698289D01*
X139998598Y-94696991D01*
X140093637Y-94627941D01*
X140093638Y-94627940D01*
X140097192Y-94625358D01*
X140104320Y-94618475D01*
X140116012Y-94608490D01*
X140120393Y-94605188D01*
X140120394Y-94605187D01*
X140123912Y-94602536D01*
X140209988Y-94516460D01*
X140211563Y-94514912D01*
X140214727Y-94511857D01*
X140277625Y-94478929D01*
X140302247Y-94476500D01*
X140761134Y-94476500D01*
X140823316Y-94469745D01*
X140924484Y-94431819D01*
X140995289Y-94426636D01*
X141012942Y-94431819D01*
X141105394Y-94466478D01*
X141120649Y-94470105D01*
X141171514Y-94475631D01*
X141178328Y-94476000D01*
X142985885Y-94476000D01*
X143001124Y-94471525D01*
X143002329Y-94470135D01*
X143004000Y-94462452D01*
X143004000Y-92955000D01*
X143024002Y-92886879D01*
X143077658Y-92840386D01*
X143130000Y-92829000D01*
X143386000Y-92829000D01*
X143454121Y-92849002D01*
X143500614Y-92902658D01*
X143512000Y-92955000D01*
X143512000Y-94457884D01*
X143516475Y-94473123D01*
X143517865Y-94474328D01*
X143525548Y-94475999D01*
X145078500Y-94475999D01*
X145146621Y-94496001D01*
X145193114Y-94549657D01*
X145204500Y-94601999D01*
X145204500Y-96638984D01*
X145204451Y-96642502D01*
X145202964Y-96695752D01*
X145201666Y-96742205D01*
X145211533Y-96816149D01*
X145212058Y-96820086D01*
X145212758Y-96826639D01*
X145213720Y-96838595D01*
X145217023Y-96879641D01*
X145219060Y-96904965D01*
X145226897Y-96936870D01*
X145229426Y-96950258D01*
X145233771Y-96982820D01*
X145235232Y-96987661D01*
X145235233Y-96987663D01*
X145256478Y-97058029D01*
X145258219Y-97064390D01*
X145276963Y-97140706D01*
X145278941Y-97145366D01*
X145289801Y-97170951D01*
X145294438Y-97183761D01*
X145303933Y-97215208D01*
X145306151Y-97219756D01*
X145306154Y-97219763D01*
X145338371Y-97285818D01*
X145341107Y-97291820D01*
X145350898Y-97314885D01*
X145371812Y-97364156D01*
X145374504Y-97368430D01*
X145389319Y-97391956D01*
X145395945Y-97403860D01*
X145410346Y-97433388D01*
X145413265Y-97437525D01*
X145413265Y-97437526D01*
X145455641Y-97497597D01*
X145459301Y-97503086D01*
X145483714Y-97541852D01*
X145501167Y-97569567D01*
X145504508Y-97573356D01*
X145504512Y-97573362D01*
X145522898Y-97594217D01*
X145531344Y-97604912D01*
X145550274Y-97631747D01*
X145569909Y-97653250D01*
X145609625Y-97692966D01*
X145615044Y-97698736D01*
X145661698Y-97751655D01*
X145665610Y-97754868D01*
X145666028Y-97755272D01*
X145701135Y-97816982D01*
X145704500Y-97845908D01*
X145704500Y-98311134D01*
X145711255Y-98373316D01*
X145762385Y-98509705D01*
X145849739Y-98626261D01*
X145856919Y-98631642D01*
X145957701Y-98707174D01*
X146000216Y-98764033D01*
X146005242Y-98834852D01*
X145971182Y-98897145D01*
X145957702Y-98908825D01*
X145849739Y-98989739D01*
X145762385Y-99106295D01*
X145711255Y-99242684D01*
X145704500Y-99304866D01*
X145704500Y-100601134D01*
X145711255Y-100663316D01*
X145762385Y-100799705D01*
X145849739Y-100916261D01*
X145954798Y-100994998D01*
X145957701Y-100997174D01*
X146000216Y-101054033D01*
X146005242Y-101124852D01*
X145971182Y-101187145D01*
X145957702Y-101198825D01*
X145849739Y-101279739D01*
X145762385Y-101396295D01*
X145759233Y-101404703D01*
X145715411Y-101521599D01*
X145711255Y-101532684D01*
X145710402Y-101540540D01*
X145709828Y-101542953D01*
X145674610Y-101604599D01*
X145611655Y-101637419D01*
X145540950Y-101630993D01*
X145484943Y-101587361D01*
X145469263Y-101558035D01*
X145456768Y-101524705D01*
X145456767Y-101524704D01*
X145453615Y-101516295D01*
X145366261Y-101399739D01*
X145249705Y-101312385D01*
X145113316Y-101261255D01*
X145051134Y-101254500D01*
X143754866Y-101254500D01*
X143692684Y-101261255D01*
X143556295Y-101312385D01*
X143439739Y-101399739D01*
X143434358Y-101406919D01*
X143434357Y-101406920D01*
X143358513Y-101508118D01*
X143301654Y-101550633D01*
X143230835Y-101555659D01*
X143168542Y-101521599D01*
X143156860Y-101508117D01*
X143081284Y-101407275D01*
X143068724Y-101394715D01*
X142966649Y-101318214D01*
X142951054Y-101309676D01*
X142830606Y-101264522D01*
X142815351Y-101260895D01*
X142764486Y-101255369D01*
X142757672Y-101255000D01*
X142385115Y-101255000D01*
X142369876Y-101259475D01*
X142368671Y-101260865D01*
X142367000Y-101268548D01*
X142367000Y-105252884D01*
X142371475Y-105268123D01*
X142372865Y-105269328D01*
X142380548Y-105270999D01*
X142757669Y-105270999D01*
X142764490Y-105270629D01*
X142815352Y-105265105D01*
X142830604Y-105261479D01*
X142951054Y-105216324D01*
X142966649Y-105207786D01*
X143068724Y-105131285D01*
X143081284Y-105118725D01*
X143156860Y-105017883D01*
X143213719Y-104975367D01*
X143284538Y-104970341D01*
X143346831Y-105004401D01*
X143358513Y-105017882D01*
X143430637Y-105114116D01*
X143439739Y-105126261D01*
X143556295Y-105213615D01*
X143692684Y-105264745D01*
X143754866Y-105271500D01*
X145051134Y-105271500D01*
X145113316Y-105264745D01*
X145249705Y-105213615D01*
X145366261Y-105126261D01*
X145453615Y-105009705D01*
X145504745Y-104873316D01*
X145511500Y-104811134D01*
X145511500Y-103115521D01*
X145531502Y-103047400D01*
X145585158Y-103000907D01*
X145655432Y-102990803D01*
X145720012Y-103020297D01*
X145755482Y-103071292D01*
X145762385Y-103089705D01*
X145849739Y-103206261D01*
X145966295Y-103293615D01*
X146102684Y-103344745D01*
X146131793Y-103347907D01*
X146158207Y-103350777D01*
X146223769Y-103378020D01*
X146264194Y-103436383D01*
X146266961Y-103445983D01*
X146276963Y-103486706D01*
X146278941Y-103491366D01*
X146289801Y-103516951D01*
X146294438Y-103529761D01*
X146303933Y-103561208D01*
X146306151Y-103565756D01*
X146306154Y-103565763D01*
X146338371Y-103631818D01*
X146341107Y-103637820D01*
X146371812Y-103710156D01*
X146384660Y-103730558D01*
X146389319Y-103737956D01*
X146395945Y-103749860D01*
X146410346Y-103779388D01*
X146413265Y-103783525D01*
X146413265Y-103783526D01*
X146455641Y-103843597D01*
X146459301Y-103849086D01*
X146498471Y-103911286D01*
X146501167Y-103915567D01*
X146504508Y-103919356D01*
X146504512Y-103919362D01*
X146522898Y-103940217D01*
X146531344Y-103950912D01*
X146550274Y-103977747D01*
X146569909Y-103999250D01*
X146609625Y-104038966D01*
X146615044Y-104044736D01*
X146658350Y-104093858D01*
X146658353Y-104093861D01*
X146661698Y-104097655D01*
X146665606Y-104100865D01*
X146665607Y-104100866D01*
X146693989Y-104124179D01*
X146703108Y-104132449D01*
X147379325Y-104808666D01*
X147381779Y-104811188D01*
X147425060Y-104856956D01*
X147450332Y-104883681D01*
X147496601Y-104919056D01*
X147512757Y-104931408D01*
X147517892Y-104935552D01*
X147558769Y-104970341D01*
X147577720Y-104986470D01*
X147582045Y-104989089D01*
X147582050Y-104989093D01*
X147605824Y-105003491D01*
X147617071Y-105011163D01*
X147643174Y-105031120D01*
X147704255Y-105063871D01*
X147712401Y-105068239D01*
X147718126Y-105071504D01*
X147785358Y-105112221D01*
X147815817Y-105124527D01*
X147828158Y-105130307D01*
X147857109Y-105145831D01*
X147861890Y-105147477D01*
X147861894Y-105147479D01*
X147931401Y-105171412D01*
X147937579Y-105173722D01*
X147951962Y-105179533D01*
X148010429Y-105203155D01*
X148015369Y-105204277D01*
X148015368Y-105204277D01*
X148042460Y-105210432D01*
X148055559Y-105214163D01*
X148086631Y-105224862D01*
X148164100Y-105238243D01*
X148170504Y-105239523D01*
X148247144Y-105256935D01*
X148279953Y-105258999D01*
X148293453Y-105260585D01*
X148325836Y-105266179D01*
X148329793Y-105266359D01*
X148329796Y-105266359D01*
X148353506Y-105267436D01*
X148353525Y-105267436D01*
X148354925Y-105267500D01*
X148411107Y-105267500D01*
X148419018Y-105267749D01*
X148489412Y-105272178D01*
X148528454Y-105268350D01*
X148530991Y-105268101D01*
X148543287Y-105267500D01*
X153264984Y-105267500D01*
X153268502Y-105267549D01*
X153363150Y-105270193D01*
X153363153Y-105270193D01*
X153368205Y-105270334D01*
X153446098Y-105259941D01*
X153452639Y-105259242D01*
X153481332Y-105256933D01*
X153525923Y-105253346D01*
X153525927Y-105253345D01*
X153530965Y-105252940D01*
X153562878Y-105245101D01*
X153576258Y-105242574D01*
X153608820Y-105238229D01*
X153613661Y-105236768D01*
X153613663Y-105236767D01*
X153684029Y-105215522D01*
X153690392Y-105213781D01*
X153714800Y-105207786D01*
X153766706Y-105195037D01*
X153796952Y-105182199D01*
X153809763Y-105177561D01*
X153836362Y-105169530D01*
X153841208Y-105168067D01*
X153845756Y-105165849D01*
X153845763Y-105165846D01*
X153911818Y-105133629D01*
X153917820Y-105130893D01*
X153967978Y-105109602D01*
X153990156Y-105100188D01*
X154017956Y-105082681D01*
X154029860Y-105076055D01*
X154059388Y-105061654D01*
X154123600Y-105016357D01*
X154129086Y-105012699D01*
X154191286Y-104973529D01*
X154191287Y-104973528D01*
X154195567Y-104970833D01*
X154199356Y-104967492D01*
X154199362Y-104967488D01*
X154220217Y-104949102D01*
X154230912Y-104940656D01*
X154244022Y-104931408D01*
X154257747Y-104921726D01*
X154279250Y-104902091D01*
X154318966Y-104862375D01*
X154324736Y-104856956D01*
X154373858Y-104813650D01*
X154373861Y-104813647D01*
X154377655Y-104810302D01*
X154404179Y-104778011D01*
X154412449Y-104768892D01*
X155227666Y-103953675D01*
X155230188Y-103951221D01*
X155299012Y-103886138D01*
X155299014Y-103886135D01*
X155302681Y-103882668D01*
X155350411Y-103820239D01*
X155354552Y-103815108D01*
X155402191Y-103759133D01*
X155402192Y-103759132D01*
X155405470Y-103755280D01*
X155408089Y-103750955D01*
X155408093Y-103750950D01*
X155422491Y-103727176D01*
X155430163Y-103715929D01*
X155450120Y-103689826D01*
X155487243Y-103620592D01*
X155490507Y-103614868D01*
X155528602Y-103551966D01*
X155531221Y-103547642D01*
X155543528Y-103517181D01*
X155549308Y-103504841D01*
X155562440Y-103480350D01*
X155564831Y-103475891D01*
X155588488Y-103407188D01*
X155590412Y-103401599D01*
X155592722Y-103395421D01*
X155620258Y-103327266D01*
X155622155Y-103322571D01*
X155629432Y-103290539D01*
X155633163Y-103277441D01*
X155643862Y-103246369D01*
X155657243Y-103168900D01*
X155658526Y-103162482D01*
X155674815Y-103090786D01*
X155674815Y-103090785D01*
X155675935Y-103085856D01*
X155677999Y-103053047D01*
X155679585Y-103039547D01*
X155685179Y-103007164D01*
X155685922Y-102990803D01*
X155686436Y-102979494D01*
X155686436Y-102979475D01*
X155686500Y-102978075D01*
X155686500Y-102921892D01*
X155686749Y-102913980D01*
X155690860Y-102848641D01*
X155691178Y-102843587D01*
X155687101Y-102802008D01*
X155686500Y-102789712D01*
X155686500Y-101993522D01*
X158459801Y-101993522D01*
X158498092Y-102136423D01*
X158501842Y-102146727D01*
X158586521Y-102328323D01*
X158591998Y-102337811D01*
X158706925Y-102501942D01*
X158713981Y-102510350D01*
X158855650Y-102652019D01*
X158864058Y-102659075D01*
X159028189Y-102774002D01*
X159037677Y-102779479D01*
X159219273Y-102864158D01*
X159229577Y-102867908D01*
X159367503Y-102904866D01*
X159381599Y-102904530D01*
X159385000Y-102896588D01*
X159385000Y-102891439D01*
X159893000Y-102891439D01*
X159896973Y-102904970D01*
X159905522Y-102906199D01*
X160048423Y-102867908D01*
X160058727Y-102864158D01*
X160240323Y-102779479D01*
X160249811Y-102774002D01*
X160413942Y-102659075D01*
X160422350Y-102652019D01*
X160564019Y-102510350D01*
X160571075Y-102501942D01*
X160686002Y-102337811D01*
X160691479Y-102328323D01*
X160776158Y-102146727D01*
X160779908Y-102136423D01*
X160816866Y-101998497D01*
X160816530Y-101984401D01*
X160808588Y-101981000D01*
X159911115Y-101981000D01*
X159895876Y-101985475D01*
X159894671Y-101986865D01*
X159893000Y-101994548D01*
X159893000Y-102891439D01*
X159385000Y-102891439D01*
X159385000Y-101999115D01*
X159380525Y-101983876D01*
X159379135Y-101982671D01*
X159371452Y-101981000D01*
X158474561Y-101981000D01*
X158461030Y-101984973D01*
X158459801Y-101993522D01*
X155686500Y-101993522D01*
X155686500Y-101514892D01*
X155686749Y-101506980D01*
X155689988Y-101455503D01*
X158461134Y-101455503D01*
X158461470Y-101469599D01*
X158469412Y-101473000D01*
X159366885Y-101473000D01*
X159382124Y-101468525D01*
X159383329Y-101467135D01*
X159385000Y-101459452D01*
X159385000Y-101454885D01*
X159893000Y-101454885D01*
X159897475Y-101470124D01*
X159898865Y-101471329D01*
X159906548Y-101473000D01*
X160803439Y-101473000D01*
X160816970Y-101469027D01*
X160818199Y-101460478D01*
X160779908Y-101317577D01*
X160776158Y-101307273D01*
X160691479Y-101125677D01*
X160686002Y-101116189D01*
X160571075Y-100952058D01*
X160564019Y-100943650D01*
X160422350Y-100801981D01*
X160413942Y-100794925D01*
X160249811Y-100679998D01*
X160240323Y-100674521D01*
X160058727Y-100589842D01*
X160048423Y-100586092D01*
X159910497Y-100549134D01*
X159896401Y-100549470D01*
X159893000Y-100557412D01*
X159893000Y-101454885D01*
X159385000Y-101454885D01*
X159385000Y-100562561D01*
X159381027Y-100549030D01*
X159372478Y-100547801D01*
X159229577Y-100586092D01*
X159219273Y-100589842D01*
X159037677Y-100674521D01*
X159028189Y-100679998D01*
X158864058Y-100794925D01*
X158855650Y-100801981D01*
X158713981Y-100943650D01*
X158706925Y-100952058D01*
X158591998Y-101116189D01*
X158586521Y-101125677D01*
X158501842Y-101307273D01*
X158498092Y-101317577D01*
X158461134Y-101455503D01*
X155689988Y-101455503D01*
X155690860Y-101441641D01*
X155691178Y-101436587D01*
X155680721Y-101329934D01*
X155680526Y-101327745D01*
X155672346Y-101226078D01*
X155672346Y-101226075D01*
X155671940Y-101221035D01*
X155670734Y-101216124D01*
X155669923Y-101211120D01*
X155669940Y-101211117D01*
X155668897Y-101205012D01*
X155668879Y-101205015D01*
X155667984Y-101200043D01*
X155667490Y-101194998D01*
X155640106Y-101091355D01*
X155639572Y-101089258D01*
X155633257Y-101063544D01*
X155614037Y-100985294D01*
X155612060Y-100980638D01*
X155610461Y-100975830D01*
X155610477Y-100975825D01*
X155608471Y-100969965D01*
X155608455Y-100969971D01*
X155606773Y-100965193D01*
X155605481Y-100960304D01*
X155561913Y-100862451D01*
X155561037Y-100860435D01*
X155521164Y-100766499D01*
X155521164Y-100766498D01*
X155519188Y-100761844D01*
X155516494Y-100757566D01*
X155514148Y-100753078D01*
X155514162Y-100753071D01*
X155511240Y-100747597D01*
X155511226Y-100747605D01*
X155508801Y-100743157D01*
X155506747Y-100738544D01*
X155503985Y-100734323D01*
X155503980Y-100734314D01*
X155448068Y-100648871D01*
X155446881Y-100647022D01*
X155392526Y-100560709D01*
X155392525Y-100560707D01*
X155389833Y-100556433D01*
X155386492Y-100552644D01*
X155383457Y-100548586D01*
X155383470Y-100548576D01*
X155379709Y-100543639D01*
X155379696Y-100543649D01*
X155376597Y-100539654D01*
X155373827Y-100535421D01*
X155317079Y-100473274D01*
X155301572Y-100456291D01*
X155300104Y-100454654D01*
X155232644Y-100378136D01*
X155229302Y-100374345D01*
X155225398Y-100371138D01*
X155221751Y-100367616D01*
X155221762Y-100367604D01*
X155217267Y-100363339D01*
X155217256Y-100363351D01*
X155213551Y-100359896D01*
X155210142Y-100356163D01*
X155176219Y-100329276D01*
X155132391Y-100294538D01*
X155091430Y-100236550D01*
X155088322Y-100165621D01*
X155124054Y-100104272D01*
X155125530Y-100102984D01*
X155126307Y-100102456D01*
X155302681Y-99935668D01*
X155380901Y-99833361D01*
X155447047Y-99746846D01*
X155447050Y-99746842D01*
X155450120Y-99742826D01*
X155564831Y-99528891D01*
X155643862Y-99299369D01*
X155685179Y-99060164D01*
X155686500Y-99031075D01*
X155686500Y-98017500D01*
X155706502Y-97949379D01*
X155760158Y-97902886D01*
X155812500Y-97891500D01*
X158746659Y-97891500D01*
X158811931Y-97909724D01*
X158824173Y-97917138D01*
X158961357Y-98000220D01*
X159186429Y-98091155D01*
X159191360Y-98092275D01*
X159191359Y-98092275D01*
X159418213Y-98143815D01*
X159418216Y-98143816D01*
X159423144Y-98144935D01*
X159428191Y-98145253D01*
X159428194Y-98145253D01*
X159660358Y-98159860D01*
X159665412Y-98160178D01*
X159852745Y-98141809D01*
X159901975Y-98136982D01*
X159901976Y-98136982D01*
X159907002Y-98136489D01*
X159998012Y-98112443D01*
X160136807Y-98075773D01*
X160136813Y-98075771D01*
X160141695Y-98074481D01*
X160363455Y-97975746D01*
X160566578Y-97842826D01*
X160705069Y-97716367D01*
X160742103Y-97682551D01*
X160742105Y-97682549D01*
X160745836Y-97679142D01*
X160849633Y-97548183D01*
X160893473Y-97492871D01*
X160893477Y-97492865D01*
X160896618Y-97488902D01*
X160997387Y-97308598D01*
X161012575Y-97281422D01*
X161012576Y-97281419D01*
X161015045Y-97277002D01*
X161053645Y-97170951D01*
X161096337Y-97053657D01*
X161096339Y-97053650D01*
X161098070Y-97048894D01*
X161105666Y-97009075D01*
X161142606Y-96815424D01*
X161142607Y-96815419D01*
X161143555Y-96810447D01*
X161150334Y-96567795D01*
X161149462Y-96561255D01*
X161118898Y-96332194D01*
X161118229Y-96327180D01*
X161113196Y-96310509D01*
X161049532Y-96099643D01*
X161049530Y-96099639D01*
X161048067Y-96094792D01*
X160941654Y-95876612D01*
X160840922Y-95733816D01*
X160804007Y-95681486D01*
X160804004Y-95681482D01*
X160801726Y-95678253D01*
X160782091Y-95656750D01*
X160458675Y-95333334D01*
X160456221Y-95330812D01*
X160391138Y-95261988D01*
X160391135Y-95261986D01*
X160387668Y-95258319D01*
X160325239Y-95210589D01*
X160320108Y-95206448D01*
X160264133Y-95158809D01*
X160264132Y-95158808D01*
X160260280Y-95155530D01*
X160255955Y-95152911D01*
X160255950Y-95152907D01*
X160232176Y-95138509D01*
X160220929Y-95130837D01*
X160194826Y-95110880D01*
X160125592Y-95073757D01*
X160119868Y-95070493D01*
X160101332Y-95059267D01*
X160052642Y-95029779D01*
X160022181Y-95017472D01*
X160009841Y-95011692D01*
X159980891Y-94996169D01*
X159976110Y-94994523D01*
X159976106Y-94994521D01*
X159906599Y-94970588D01*
X159900421Y-94968278D01*
X159832266Y-94940742D01*
X159832267Y-94940742D01*
X159827571Y-94938845D01*
X159795539Y-94931568D01*
X159782441Y-94927837D01*
X159751369Y-94917138D01*
X159673900Y-94903757D01*
X159667496Y-94902477D01*
X159590856Y-94885065D01*
X159558047Y-94883001D01*
X159544547Y-94881415D01*
X159512164Y-94875821D01*
X159508207Y-94875641D01*
X159508204Y-94875641D01*
X159484494Y-94874564D01*
X159484475Y-94874564D01*
X159483075Y-94874500D01*
X159426892Y-94874500D01*
X159418980Y-94874251D01*
X159413386Y-94873899D01*
X159348587Y-94869822D01*
X159309545Y-94873650D01*
X159307008Y-94873899D01*
X159294712Y-94874500D01*
X154215812Y-94874500D01*
X154210096Y-94874370D01*
X154125183Y-94870514D01*
X154120163Y-94871095D01*
X154120159Y-94871095D01*
X154080871Y-94875641D01*
X154032944Y-94881186D01*
X154028593Y-94881613D01*
X153936035Y-94889060D01*
X153918029Y-94893482D01*
X153902467Y-94896282D01*
X153889071Y-94897833D01*
X153889068Y-94897834D01*
X153884044Y-94898415D01*
X153879182Y-94899791D01*
X153879181Y-94899791D01*
X153794710Y-94923693D01*
X153790460Y-94924816D01*
X153700294Y-94946963D01*
X153695641Y-94948938D01*
X153695638Y-94948939D01*
X153689457Y-94951563D01*
X153683222Y-94954209D01*
X153668311Y-94959461D01*
X153650468Y-94964510D01*
X153645893Y-94966644D01*
X153645886Y-94966646D01*
X153591265Y-94992117D01*
X153566318Y-95003750D01*
X153562327Y-95005527D01*
X153476844Y-95041812D01*
X153472572Y-95044502D01*
X153472563Y-95044507D01*
X153461154Y-95051692D01*
X153447260Y-95059267D01*
X153430464Y-95067099D01*
X153426277Y-95069944D01*
X153426276Y-95069945D01*
X153353680Y-95119281D01*
X153350001Y-95121689D01*
X153291057Y-95158809D01*
X153271433Y-95171167D01*
X153267649Y-95174503D01*
X153267645Y-95174506D01*
X153257521Y-95183432D01*
X153245024Y-95193125D01*
X153229693Y-95203544D01*
X153226016Y-95207021D01*
X153226010Y-95207026D01*
X153162265Y-95267308D01*
X153159016Y-95270275D01*
X153093137Y-95328354D01*
X153093131Y-95328360D01*
X153089345Y-95331698D01*
X153086139Y-95335601D01*
X153086137Y-95335603D01*
X153077574Y-95346028D01*
X153066789Y-95357594D01*
X153053319Y-95370332D01*
X153012168Y-95424155D01*
X152996945Y-95444066D01*
X152994214Y-95447513D01*
X152935266Y-95519278D01*
X152925938Y-95535306D01*
X152917146Y-95548439D01*
X152905880Y-95563174D01*
X152903490Y-95567632D01*
X152903489Y-95567633D01*
X152862011Y-95644990D01*
X152859871Y-95648819D01*
X152813159Y-95729078D01*
X152811345Y-95733803D01*
X152811339Y-95733816D01*
X152806516Y-95746382D01*
X152799929Y-95760771D01*
X152791169Y-95777109D01*
X152789524Y-95781887D01*
X152789519Y-95781898D01*
X152760936Y-95864910D01*
X152759432Y-95869043D01*
X152727982Y-95950972D01*
X152727980Y-95950980D01*
X152726167Y-95955702D01*
X152725132Y-95960657D01*
X152722378Y-95973839D01*
X152718177Y-95989092D01*
X152712138Y-96006631D01*
X152696324Y-96098187D01*
X152695511Y-96102446D01*
X152677560Y-96188368D01*
X152677559Y-96188374D01*
X152676526Y-96193320D01*
X152676297Y-96198367D01*
X152676296Y-96198373D01*
X152675685Y-96211836D01*
X152673977Y-96227561D01*
X152670821Y-96245836D01*
X152669500Y-96274925D01*
X152669500Y-96345188D01*
X152669370Y-96350903D01*
X152665514Y-96435817D01*
X152666095Y-96440837D01*
X152666095Y-96440841D01*
X152668665Y-96463050D01*
X152669500Y-96477532D01*
X152669500Y-98984001D01*
X152669702Y-98986509D01*
X152669702Y-98986514D01*
X152679340Y-99106295D01*
X152684060Y-99164965D01*
X152741963Y-99400706D01*
X152743938Y-99405358D01*
X152743939Y-99405362D01*
X152775600Y-99479949D01*
X152836812Y-99624156D01*
X152966167Y-99829567D01*
X152969512Y-99833361D01*
X153123350Y-100007858D01*
X153123353Y-100007861D01*
X153126698Y-100011655D01*
X153130606Y-100014865D01*
X153130607Y-100014866D01*
X153225430Y-100092754D01*
X153265373Y-100151449D01*
X153267243Y-100222421D01*
X153230554Y-100282959D01*
X153229693Y-100283544D01*
X153226994Y-100286097D01*
X153226983Y-100286106D01*
X153226634Y-100286436D01*
X153225840Y-100287086D01*
X153224411Y-100288311D01*
X153222073Y-100290191D01*
X153222062Y-100290178D01*
X153215566Y-100295495D01*
X153215577Y-100295509D01*
X153214004Y-100296774D01*
X153212689Y-100297850D01*
X153212495Y-100297987D01*
X153209253Y-100300274D01*
X153206333Y-100302941D01*
X153206326Y-100302946D01*
X153188813Y-100318938D01*
X153187750Y-100319909D01*
X153128334Y-100379325D01*
X153125812Y-100381779D01*
X153053319Y-100450332D01*
X153050241Y-100454358D01*
X153050240Y-100454359D01*
X153045386Y-100460708D01*
X153034385Y-100473274D01*
X152810064Y-100697595D01*
X152747752Y-100731621D01*
X152720969Y-100734500D01*
X149847101Y-100734500D01*
X149778980Y-100714498D01*
X149732487Y-100660842D01*
X149721384Y-100602206D01*
X149721500Y-100601134D01*
X149721500Y-99304866D01*
X149714745Y-99242684D01*
X149663615Y-99106295D01*
X149576261Y-98989739D01*
X149518048Y-98946110D01*
X149475534Y-98889251D01*
X149470509Y-98818433D01*
X149504569Y-98756140D01*
X149510289Y-98750771D01*
X149547858Y-98717650D01*
X149547861Y-98717647D01*
X149551655Y-98714302D01*
X149578179Y-98682011D01*
X149586449Y-98672892D01*
X150274666Y-97984675D01*
X150277188Y-97982221D01*
X150346012Y-97917138D01*
X150346014Y-97917135D01*
X150349681Y-97913668D01*
X150397411Y-97851239D01*
X150401552Y-97846108D01*
X150449191Y-97790133D01*
X150449192Y-97790132D01*
X150452470Y-97786280D01*
X150455089Y-97781955D01*
X150455093Y-97781950D01*
X150469491Y-97758176D01*
X150477163Y-97746929D01*
X150497120Y-97720826D01*
X150534243Y-97651592D01*
X150537507Y-97645868D01*
X150547304Y-97629691D01*
X150578221Y-97578642D01*
X150590528Y-97548181D01*
X150596308Y-97535841D01*
X150609440Y-97511350D01*
X150611831Y-97506891D01*
X150614104Y-97500292D01*
X150637412Y-97432599D01*
X150639722Y-97426421D01*
X150664878Y-97364156D01*
X150669155Y-97353571D01*
X150676432Y-97321539D01*
X150680163Y-97308441D01*
X150690862Y-97277369D01*
X150691722Y-97272392D01*
X150691725Y-97272379D01*
X150704239Y-97199929D01*
X150705531Y-97193460D01*
X150721815Y-97121785D01*
X150721815Y-97121784D01*
X150722935Y-97116855D01*
X150724999Y-97084049D01*
X150726586Y-97070545D01*
X150732179Y-97038164D01*
X150733237Y-97014866D01*
X150733436Y-97010494D01*
X150733436Y-97010475D01*
X150733500Y-97009075D01*
X150733500Y-96952892D01*
X150733749Y-96944980D01*
X150737860Y-96879641D01*
X150738178Y-96874587D01*
X150734101Y-96833006D01*
X150733500Y-96820711D01*
X150733500Y-89813016D01*
X150733549Y-89809498D01*
X150736193Y-89714850D01*
X150736193Y-89714847D01*
X150736334Y-89709795D01*
X150725941Y-89631902D01*
X150725241Y-89625353D01*
X150719346Y-89552077D01*
X150719345Y-89552073D01*
X150718940Y-89547035D01*
X150711101Y-89515122D01*
X150708573Y-89501738D01*
X150704229Y-89469180D01*
X150681522Y-89393968D01*
X150679783Y-89387613D01*
X150675141Y-89368716D01*
X150661037Y-89311294D01*
X150648201Y-89281054D01*
X150643564Y-89268243D01*
X150635533Y-89241644D01*
X150635533Y-89241643D01*
X150634068Y-89236792D01*
X150614806Y-89197300D01*
X150602229Y-89135472D01*
X150603099Y-89118862D01*
X150592477Y-88997454D01*
X150592305Y-88995261D01*
X150584118Y-88878173D01*
X150584117Y-88878168D01*
X150583811Y-88873788D01*
X150581753Y-88864107D01*
X150579481Y-88848900D01*
X150579002Y-88843425D01*
X150579000Y-88843412D01*
X150578617Y-88839034D01*
X150551211Y-88720326D01*
X150550735Y-88718179D01*
X150526321Y-88603322D01*
X150525409Y-88599030D01*
X150523903Y-88594892D01*
X150522024Y-88589728D01*
X150517656Y-88574982D01*
X150516419Y-88569624D01*
X150516418Y-88569619D01*
X150515429Y-88565337D01*
X150471759Y-88451571D01*
X150471000Y-88449542D01*
X150430844Y-88339214D01*
X150430843Y-88339212D01*
X150429337Y-88335074D01*
X150424691Y-88326336D01*
X150418310Y-88312333D01*
X150416344Y-88307210D01*
X150416341Y-88307203D01*
X150414765Y-88303098D01*
X150355664Y-88196479D01*
X150354652Y-88194612D01*
X150299530Y-88090942D01*
X150299524Y-88090933D01*
X150297464Y-88087058D01*
X150294879Y-88083501D01*
X150294876Y-88083495D01*
X150291645Y-88079047D01*
X150283379Y-88066073D01*
X150278583Y-88057421D01*
X150205289Y-87960156D01*
X150203991Y-87958402D01*
X150134941Y-87863363D01*
X150134940Y-87863362D01*
X150132358Y-87859808D01*
X150125475Y-87852680D01*
X150115490Y-87840988D01*
X150112188Y-87836607D01*
X150112187Y-87836606D01*
X150109536Y-87833088D01*
X150023460Y-87747012D01*
X150021918Y-87745444D01*
X149940287Y-87660913D01*
X149937231Y-87657748D01*
X149929422Y-87651647D01*
X149917900Y-87641452D01*
X148281043Y-86004595D01*
X148247017Y-85942283D01*
X148252082Y-85871468D01*
X148281043Y-85826405D01*
X148528343Y-85579105D01*
X155368936Y-85579105D01*
X155370000Y-85586354D01*
X155387542Y-85705868D01*
X155394621Y-85754102D01*
X155459875Y-85918494D01*
X155463740Y-85924192D01*
X155467712Y-85930048D01*
X155518822Y-86005396D01*
X155520884Y-86007854D01*
X155520886Y-86007856D01*
X156308405Y-86946384D01*
X156547797Y-87231680D01*
X156624188Y-87305647D01*
X156630060Y-87309252D01*
X156630062Y-87309254D01*
X156768678Y-87394365D01*
X156768682Y-87394367D01*
X156774915Y-87398194D01*
X156942889Y-87453583D01*
X157066582Y-87464296D01*
X157111801Y-87468212D01*
X157111802Y-87468212D01*
X157119100Y-87468844D01*
X157126349Y-87467780D01*
X157126350Y-87467780D01*
X157286853Y-87444223D01*
X157294096Y-87443160D01*
X157300896Y-87440461D01*
X157300899Y-87440460D01*
X157417022Y-87394365D01*
X157458489Y-87377905D01*
X157545391Y-87318958D01*
X157561255Y-87305647D01*
X158407009Y-86595974D01*
X158541861Y-86482820D01*
X158615829Y-86406428D01*
X158626868Y-86388450D01*
X158704544Y-86261940D01*
X158708375Y-86255701D01*
X158710666Y-86248753D01*
X158710668Y-86248749D01*
X158752764Y-86121087D01*
X158763764Y-86087727D01*
X158777421Y-85930048D01*
X158778394Y-85918815D01*
X158778394Y-85918814D01*
X158779026Y-85911517D01*
X158763741Y-85807378D01*
X158754106Y-85741730D01*
X158764003Y-85671427D01*
X158810339Y-85617635D01*
X158878401Y-85597434D01*
X158892705Y-85598206D01*
X159044524Y-85615101D01*
X159055157Y-85615379D01*
X159274571Y-85602537D01*
X159285095Y-85601020D01*
X159499216Y-85551390D01*
X159509318Y-85548127D01*
X159712023Y-85463127D01*
X159721437Y-85458205D01*
X159734567Y-85449857D01*
X159744007Y-85439069D01*
X159738437Y-85426531D01*
X158686657Y-84173068D01*
X159351985Y-84173068D01*
X159355642Y-84180026D01*
X160126116Y-85098241D01*
X160137857Y-85106053D01*
X160146965Y-85100401D01*
X160221337Y-85005724D01*
X160227187Y-84996818D01*
X160331886Y-84803585D01*
X160336145Y-84793837D01*
X160406792Y-84585714D01*
X160409348Y-84575389D01*
X160443921Y-84358336D01*
X160444700Y-84347737D01*
X160442207Y-84127958D01*
X160441188Y-84117375D01*
X160401700Y-83901163D01*
X160398911Y-83890898D01*
X160323559Y-83684428D01*
X160319082Y-83674784D01*
X160209432Y-83482935D01*
X160204859Y-83476032D01*
X160202162Y-83472492D01*
X160191063Y-83465090D01*
X160189260Y-83465059D01*
X160182244Y-83468742D01*
X159360813Y-84158004D01*
X159352014Y-84171229D01*
X159351985Y-84173068D01*
X158686657Y-84173068D01*
X158631249Y-84107035D01*
X157852068Y-83178443D01*
X157840327Y-83170631D01*
X157831219Y-83176283D01*
X157756842Y-83270967D01*
X157751003Y-83279856D01*
X157646297Y-83473100D01*
X157642039Y-83482846D01*
X157571392Y-83690970D01*
X157568836Y-83701295D01*
X157534263Y-83918347D01*
X157533484Y-83928947D01*
X157533948Y-83969838D01*
X157514719Y-84038181D01*
X157461594Y-84085279D01*
X157391439Y-84096179D01*
X157368498Y-84090928D01*
X157261722Y-84055719D01*
X157205073Y-84037039D01*
X157081380Y-84026326D01*
X157036161Y-84022410D01*
X157036160Y-84022410D01*
X157028862Y-84021778D01*
X157021613Y-84022842D01*
X157021612Y-84022842D01*
X157014690Y-84023858D01*
X156853866Y-84047462D01*
X156847066Y-84050161D01*
X156847063Y-84050162D01*
X156828580Y-84057499D01*
X156689473Y-84112717D01*
X156602571Y-84171664D01*
X156600113Y-84173726D01*
X156600111Y-84173728D01*
X155876319Y-84781062D01*
X155606101Y-85007802D01*
X155603840Y-85010137D01*
X155603839Y-85010138D01*
X155585813Y-85028755D01*
X155532133Y-85084194D01*
X155528528Y-85090066D01*
X155528526Y-85090068D01*
X155498854Y-85138395D01*
X155439587Y-85234921D01*
X155437296Y-85241869D01*
X155437294Y-85241873D01*
X155410982Y-85321670D01*
X155384198Y-85402895D01*
X155375762Y-85500299D01*
X155371175Y-85553260D01*
X155368936Y-85579105D01*
X148528343Y-85579105D01*
X151269833Y-82837615D01*
X158234177Y-82837615D01*
X158239747Y-82850153D01*
X159008754Y-83766621D01*
X159021979Y-83775420D01*
X159023818Y-83775449D01*
X159030776Y-83771792D01*
X159849236Y-83085022D01*
X159857711Y-83072284D01*
X159851654Y-83061857D01*
X159777955Y-82987772D01*
X159769848Y-82980896D01*
X159590798Y-82853415D01*
X159581650Y-82848005D01*
X159383685Y-82752518D01*
X159373750Y-82748724D01*
X159162532Y-82687957D01*
X159152096Y-82685891D01*
X158933659Y-82661583D01*
X158923027Y-82661305D01*
X158703612Y-82674147D01*
X158693088Y-82675664D01*
X158478968Y-82725294D01*
X158468866Y-82728557D01*
X158266161Y-82813557D01*
X158256747Y-82818479D01*
X158243617Y-82826827D01*
X158234177Y-82837615D01*
X151269833Y-82837615D01*
X153234381Y-80873067D01*
X153239165Y-80868526D01*
X153298747Y-80814878D01*
X153302020Y-80811931D01*
X153380366Y-80718563D01*
X153381721Y-80716976D01*
X153385297Y-80712863D01*
X153461675Y-80625000D01*
X153467069Y-80616695D01*
X153476212Y-80604339D01*
X153479742Y-80600131D01*
X153479743Y-80600129D01*
X153482577Y-80596752D01*
X153484911Y-80593017D01*
X153484916Y-80593010D01*
X153547118Y-80493465D01*
X153548300Y-80491609D01*
X153612266Y-80393110D01*
X153612268Y-80393107D01*
X153614662Y-80389420D01*
X153616524Y-80385428D01*
X153618848Y-80380445D01*
X153626180Y-80366939D01*
X153629097Y-80362270D01*
X153631429Y-80358538D01*
X153633222Y-80354512D01*
X153680992Y-80247221D01*
X153681903Y-80245222D01*
X153731512Y-80138832D01*
X153733373Y-80134842D01*
X153736268Y-80125371D01*
X153741656Y-80110964D01*
X153743888Y-80105951D01*
X153745680Y-80101927D01*
X153746892Y-80097701D01*
X153746895Y-80097692D01*
X153779267Y-79984793D01*
X153779892Y-79982683D01*
X153814213Y-79870427D01*
X153814214Y-79870424D01*
X153815499Y-79866220D01*
X153817048Y-79856442D01*
X153820375Y-79841436D01*
X153821892Y-79836143D01*
X153821892Y-79836141D01*
X153823105Y-79831912D01*
X153840062Y-79711258D01*
X153840382Y-79709112D01*
X153858752Y-79593129D01*
X153859441Y-79588782D01*
X153859614Y-79578884D01*
X153860821Y-79563555D01*
X153861586Y-79558112D01*
X153861587Y-79558096D01*
X153862198Y-79553750D01*
X153862198Y-79431967D01*
X153862217Y-79429768D01*
X153863395Y-79362284D01*
X153884583Y-79294523D01*
X153939042Y-79248973D01*
X153982014Y-79238698D01*
X154092590Y-79232226D01*
X154103114Y-79230709D01*
X154317235Y-79181079D01*
X154327337Y-79177816D01*
X154530042Y-79092816D01*
X154539456Y-79087894D01*
X154552586Y-79079546D01*
X154562026Y-79068758D01*
X154556456Y-79056220D01*
X153504676Y-77802757D01*
X154170004Y-77802757D01*
X154173661Y-77809715D01*
X154944135Y-78727930D01*
X154955876Y-78735742D01*
X154964984Y-78730090D01*
X155039356Y-78635413D01*
X155045206Y-78626507D01*
X155149905Y-78433274D01*
X155154164Y-78423526D01*
X155224811Y-78215403D01*
X155227367Y-78205078D01*
X155261940Y-77988025D01*
X155262719Y-77977426D01*
X155260226Y-77757647D01*
X155259207Y-77747064D01*
X155219719Y-77530852D01*
X155216930Y-77520587D01*
X155141578Y-77314117D01*
X155137101Y-77304473D01*
X155027451Y-77112624D01*
X155022878Y-77105721D01*
X155020181Y-77102181D01*
X155009082Y-77094779D01*
X155007279Y-77094748D01*
X155000263Y-77098431D01*
X154178832Y-77787693D01*
X154170033Y-77800918D01*
X154170004Y-77802757D01*
X153504676Y-77802757D01*
X153449268Y-77736724D01*
X152670087Y-76808132D01*
X152658346Y-76800320D01*
X152649238Y-76805972D01*
X152574861Y-76900656D01*
X152569022Y-76909545D01*
X152464316Y-77102789D01*
X152460058Y-77112535D01*
X152389411Y-77320659D01*
X152385574Y-77336162D01*
X152383987Y-77335769D01*
X152356684Y-77393226D01*
X152296382Y-77430698D01*
X152232244Y-77431533D01*
X152203322Y-77424322D01*
X152198954Y-77423863D01*
X152198949Y-77423862D01*
X151928334Y-77395420D01*
X151928331Y-77395420D01*
X151923965Y-77394961D01*
X151919577Y-77395114D01*
X151919571Y-77395114D01*
X151647637Y-77404610D01*
X151647631Y-77404611D01*
X151643240Y-77404764D01*
X151638917Y-77405526D01*
X151638910Y-77405527D01*
X151491425Y-77431533D01*
X151366611Y-77453541D01*
X151099463Y-77540342D01*
X151095510Y-77542270D01*
X151095505Y-77542272D01*
X151007347Y-77585270D01*
X150846996Y-77663479D01*
X150843357Y-77665934D01*
X150843351Y-77665937D01*
X150738405Y-77736724D01*
X150614122Y-77820554D01*
X150532943Y-77893648D01*
X150532810Y-77893500D01*
X150532491Y-77893934D01*
X150532551Y-77894001D01*
X150405376Y-78008510D01*
X150343440Y-78082323D01*
X150342853Y-78083022D01*
X150335426Y-78091126D01*
X145254957Y-83171595D01*
X145192645Y-83205621D01*
X145165862Y-83208500D01*
X144671688Y-83208500D01*
X144669489Y-83208481D01*
X144547626Y-83206354D01*
X144543270Y-83206889D01*
X144543267Y-83206889D01*
X144537796Y-83207561D01*
X144522440Y-83208500D01*
X142129854Y-83208500D01*
X142127668Y-83208653D01*
X142127664Y-83208653D01*
X141924173Y-83222882D01*
X141924168Y-83222883D01*
X141919788Y-83223189D01*
X141645030Y-83281591D01*
X141640901Y-83283094D01*
X141640897Y-83283095D01*
X141385219Y-83376154D01*
X141385215Y-83376156D01*
X141381074Y-83377663D01*
X141133058Y-83509536D01*
X141129499Y-83512122D01*
X141129497Y-83512123D01*
X140958125Y-83636632D01*
X140905808Y-83674642D01*
X140703748Y-83869769D01*
X140573556Y-84036408D01*
X140537101Y-84083069D01*
X140530812Y-84091118D01*
X140528616Y-84094922D01*
X140528611Y-84094929D01*
X140445545Y-84238804D01*
X140390364Y-84334381D01*
X140285138Y-84594824D01*
X140284073Y-84599097D01*
X140284072Y-84599099D01*
X140220902Y-84852461D01*
X140217183Y-84867376D01*
X140216724Y-84871744D01*
X140216723Y-84871749D01*
X140190906Y-85117392D01*
X140187822Y-85146733D01*
X140187975Y-85151121D01*
X140187975Y-85151127D01*
X140197131Y-85413303D01*
X140197625Y-85427458D01*
X140198387Y-85431781D01*
X140198388Y-85431788D01*
X140225543Y-85585790D01*
X140246402Y-85704087D01*
X140333203Y-85971235D01*
X140335131Y-85975188D01*
X140335133Y-85975193D01*
X140351064Y-86007856D01*
X140456340Y-86223702D01*
X140458795Y-86227341D01*
X140458798Y-86227347D01*
X140517578Y-86314491D01*
X140613415Y-86456576D01*
X140801371Y-86665322D01*
X140804733Y-86668143D01*
X140804734Y-86668144D01*
X140838630Y-86696586D01*
X141016550Y-86845879D01*
X141254764Y-86994731D01*
X141511375Y-87108982D01*
X141781390Y-87186407D01*
X141785740Y-87187018D01*
X141785743Y-87187019D01*
X141873762Y-87199389D01*
X142059552Y-87225500D01*
X143768862Y-87225500D01*
X143836983Y-87245502D01*
X143857957Y-87262405D01*
X146014010Y-89418458D01*
X146048036Y-89480770D01*
X146042971Y-89551585D01*
X146014010Y-89596648D01*
X145663316Y-89947342D01*
X145660794Y-89949796D01*
X145623804Y-89984776D01*
X145588319Y-90018332D01*
X145549926Y-90068548D01*
X145540592Y-90080757D01*
X145536448Y-90085892D01*
X145487440Y-90143475D01*
X145428057Y-90182387D01*
X145357063Y-90183017D01*
X145315922Y-90162637D01*
X145256648Y-90118214D01*
X145241054Y-90109676D01*
X145120606Y-90064522D01*
X145105351Y-90060895D01*
X145054486Y-90055369D01*
X145047672Y-90055000D01*
X144675115Y-90055000D01*
X144659876Y-90059475D01*
X144658671Y-90060865D01*
X144657000Y-90068548D01*
X144657000Y-92191000D01*
X144636998Y-92259121D01*
X144583342Y-92305614D01*
X144531000Y-92317000D01*
X141985000Y-92317000D01*
X141916879Y-92296998D01*
X141870386Y-92243342D01*
X141859000Y-92191000D01*
X141859000Y-91790885D01*
X142367000Y-91790885D01*
X142371475Y-91806124D01*
X142372865Y-91807329D01*
X142380548Y-91809000D01*
X144130885Y-91809000D01*
X144146124Y-91804525D01*
X144147329Y-91803135D01*
X144149000Y-91795452D01*
X144149000Y-90073116D01*
X144144525Y-90057877D01*
X144143135Y-90056672D01*
X144135452Y-90055001D01*
X143758331Y-90055001D01*
X143751510Y-90055371D01*
X143700648Y-90060895D01*
X143685396Y-90064521D01*
X143564946Y-90109676D01*
X143549351Y-90118214D01*
X143447276Y-90194715D01*
X143434715Y-90207276D01*
X143358826Y-90308535D01*
X143301967Y-90351050D01*
X143231149Y-90356076D01*
X143168855Y-90322016D01*
X143157174Y-90308535D01*
X143081285Y-90207276D01*
X143068724Y-90194715D01*
X142966649Y-90118214D01*
X142951054Y-90109676D01*
X142830606Y-90064522D01*
X142815351Y-90060895D01*
X142764486Y-90055369D01*
X142757672Y-90055000D01*
X142385115Y-90055000D01*
X142369876Y-90059475D01*
X142368671Y-90060865D01*
X142367000Y-90068548D01*
X142367000Y-91790885D01*
X141859000Y-91790885D01*
X141859000Y-90073116D01*
X141854525Y-90057877D01*
X141853135Y-90056672D01*
X141845452Y-90055001D01*
X141468331Y-90055001D01*
X141461510Y-90055371D01*
X141410648Y-90060895D01*
X141395396Y-90064521D01*
X141274946Y-90109676D01*
X141259351Y-90118214D01*
X141157276Y-90194715D01*
X141144716Y-90207275D01*
X141069140Y-90308117D01*
X141012281Y-90350633D01*
X140941462Y-90355659D01*
X140879169Y-90321599D01*
X140867487Y-90308118D01*
X140791643Y-90206920D01*
X140791642Y-90206919D01*
X140786261Y-90199739D01*
X140669705Y-90112385D01*
X140533316Y-90061255D01*
X140471134Y-90054500D01*
X140395641Y-90054500D01*
X140327520Y-90034498D01*
X140312978Y-90023594D01*
X140294855Y-90007840D01*
X140238697Y-89959023D01*
X140235011Y-89956629D01*
X140235004Y-89956624D01*
X140230397Y-89953632D01*
X140218039Y-89944488D01*
X140213826Y-89940953D01*
X140213819Y-89940948D01*
X140210450Y-89938121D01*
X140107162Y-89873580D01*
X140105306Y-89872398D01*
X140006809Y-89808433D01*
X140003118Y-89806036D01*
X139999123Y-89804173D01*
X139994143Y-89801850D01*
X139980637Y-89794518D01*
X139975968Y-89791601D01*
X139972236Y-89789269D01*
X139968224Y-89787483D01*
X139968217Y-89787479D01*
X139860968Y-89739729D01*
X139858967Y-89738817D01*
X139752525Y-89689182D01*
X139752522Y-89689181D01*
X139748540Y-89687324D01*
X139739070Y-89684429D01*
X139724663Y-89679042D01*
X139719650Y-89676810D01*
X139719649Y-89676810D01*
X139715625Y-89675018D01*
X139598505Y-89641435D01*
X139596417Y-89640817D01*
X139479917Y-89605199D01*
X139470135Y-89603650D01*
X139455119Y-89600320D01*
X139449843Y-89598807D01*
X139449844Y-89598807D01*
X139445610Y-89597593D01*
X139441257Y-89596981D01*
X139441251Y-89596980D01*
X139325022Y-89580646D01*
X139322845Y-89580321D01*
X139206824Y-89561944D01*
X139206823Y-89561944D01*
X139202480Y-89561256D01*
X139198084Y-89561179D01*
X139198080Y-89561179D01*
X139192570Y-89561083D01*
X139177240Y-89559876D01*
X139167448Y-89558500D01*
X139045688Y-89558500D01*
X139043489Y-89558481D01*
X138921626Y-89556354D01*
X138917270Y-89556889D01*
X138917267Y-89556889D01*
X138911796Y-89557561D01*
X138896440Y-89558500D01*
X129016867Y-89558500D01*
X129003697Y-89557810D01*
X128979636Y-89555281D01*
X128979633Y-89555281D01*
X128975267Y-89554822D01*
X128970879Y-89554975D01*
X128970873Y-89554975D01*
X128872146Y-89558423D01*
X128867749Y-89558500D01*
X128834854Y-89558500D01*
X128817353Y-89559724D01*
X128802039Y-89560795D01*
X128797645Y-89561025D01*
X128698939Y-89564471D01*
X128698932Y-89564472D01*
X128694542Y-89564625D01*
X128690217Y-89565388D01*
X128690213Y-89565388D01*
X128672975Y-89568428D01*
X128666394Y-89569588D01*
X128653307Y-89571195D01*
X128643442Y-89571885D01*
X128629176Y-89572882D01*
X128629174Y-89572882D01*
X128624788Y-89573189D01*
X128523833Y-89594648D01*
X128519554Y-89595480D01*
X128417913Y-89613402D01*
X128390724Y-89622236D01*
X128377993Y-89625647D01*
X128350030Y-89631591D01*
X128269977Y-89660728D01*
X128253066Y-89666883D01*
X128248907Y-89668315D01*
X128211269Y-89680544D01*
X128150765Y-89700203D01*
X128146812Y-89702131D01*
X128146807Y-89702133D01*
X128131905Y-89709401D01*
X128131099Y-89709795D01*
X128125071Y-89712735D01*
X128112930Y-89717888D01*
X128090211Y-89726157D01*
X128090208Y-89726158D01*
X128086074Y-89727663D01*
X127994932Y-89776124D01*
X127991087Y-89778083D01*
X127949032Y-89798595D01*
X127902248Y-89821413D01*
X127902243Y-89821416D01*
X127898298Y-89823340D01*
X127874591Y-89839330D01*
X127863302Y-89846113D01*
X127838058Y-89859536D01*
X127754566Y-89920196D01*
X127750994Y-89922697D01*
X127665424Y-89980415D01*
X127644171Y-89999550D01*
X127633949Y-90007829D01*
X127610808Y-90024642D01*
X127607651Y-90027690D01*
X127607647Y-90027694D01*
X127536560Y-90096342D01*
X127533348Y-90099337D01*
X127456678Y-90168371D01*
X127453852Y-90171739D01*
X127453846Y-90171745D01*
X127438306Y-90190265D01*
X127429314Y-90199907D01*
X127411925Y-90216700D01*
X127411919Y-90216707D01*
X127408748Y-90219769D01*
X127380012Y-90256550D01*
X127345228Y-90301071D01*
X127342461Y-90304488D01*
X127278949Y-90380179D01*
X127278945Y-90380184D01*
X127276121Y-90383550D01*
X127273792Y-90387278D01*
X127273790Y-90387280D01*
X127260972Y-90407793D01*
X127253410Y-90418592D01*
X127240537Y-90435070D01*
X127235812Y-90441118D01*
X127233616Y-90444922D01*
X127233611Y-90444929D01*
X127188640Y-90522822D01*
X127137257Y-90571815D01*
X127067544Y-90585251D01*
X127001633Y-90558865D01*
X126969802Y-90521772D01*
X126952569Y-90491251D01*
X126952569Y-90491250D01*
X126948686Y-90484374D01*
X126937642Y-90472857D01*
X126907753Y-90441690D01*
X126905394Y-90439230D01*
X126298672Y-89930130D01*
X126269462Y-89894695D01*
X126260013Y-89877648D01*
X126260011Y-89877646D01*
X126257882Y-89873804D01*
X126245574Y-89857470D01*
X126207002Y-89806284D01*
X126203171Y-89800913D01*
X126158345Y-89734455D01*
X126158342Y-89734451D01*
X126155884Y-89730807D01*
X126124255Y-89695678D01*
X126117272Y-89687208D01*
X126113481Y-89682177D01*
X126088834Y-89649470D01*
X126029064Y-89589700D01*
X126024523Y-89584916D01*
X125970875Y-89525334D01*
X125967928Y-89522061D01*
X125931725Y-89491683D01*
X125923621Y-89484257D01*
X123213528Y-86774164D01*
X123179502Y-86711852D01*
X123184567Y-86641037D01*
X123213528Y-86595974D01*
X123506440Y-86303062D01*
X136478493Y-86303062D01*
X136487789Y-86315077D01*
X136538994Y-86350931D01*
X136548489Y-86356414D01*
X136745947Y-86448490D01*
X136756239Y-86452236D01*
X136966688Y-86508625D01*
X136977481Y-86510528D01*
X137194525Y-86529517D01*
X137205475Y-86529517D01*
X137422519Y-86510528D01*
X137433312Y-86508625D01*
X137643761Y-86452236D01*
X137654053Y-86448490D01*
X137851511Y-86356414D01*
X137861006Y-86350931D01*
X137913048Y-86314491D01*
X137921424Y-86304012D01*
X137914356Y-86290566D01*
X137212812Y-85589022D01*
X137198868Y-85581408D01*
X137197035Y-85581539D01*
X137190420Y-85585790D01*
X136484923Y-86291287D01*
X136478493Y-86303062D01*
X123506440Y-86303062D01*
X124331691Y-85477810D01*
X124336476Y-85473269D01*
X124396056Y-85419623D01*
X124396057Y-85419622D01*
X124399330Y-85416675D01*
X124477645Y-85323343D01*
X124479074Y-85321670D01*
X124556100Y-85233063D01*
X124556101Y-85233061D01*
X124558985Y-85229744D01*
X124563706Y-85222475D01*
X135887483Y-85222475D01*
X135906472Y-85439519D01*
X135908375Y-85450312D01*
X135964764Y-85660761D01*
X135968510Y-85671053D01*
X136060586Y-85868511D01*
X136066069Y-85878006D01*
X136102509Y-85930048D01*
X136112988Y-85938424D01*
X136126434Y-85931356D01*
X136827978Y-85229812D01*
X136834356Y-85218132D01*
X137564408Y-85218132D01*
X137564539Y-85219965D01*
X137568790Y-85226580D01*
X138274287Y-85932077D01*
X138286062Y-85938507D01*
X138298077Y-85929211D01*
X138333931Y-85878006D01*
X138339414Y-85868511D01*
X138431490Y-85671053D01*
X138435236Y-85660761D01*
X138491625Y-85450312D01*
X138493528Y-85439519D01*
X138512517Y-85222475D01*
X138512517Y-85211525D01*
X138493528Y-84994481D01*
X138491625Y-84983688D01*
X138435236Y-84773239D01*
X138431490Y-84762947D01*
X138339414Y-84565489D01*
X138333931Y-84555994D01*
X138297491Y-84503952D01*
X138287012Y-84495576D01*
X138273566Y-84502644D01*
X137572022Y-85204188D01*
X137564408Y-85218132D01*
X136834356Y-85218132D01*
X136835592Y-85215868D01*
X136835461Y-85214035D01*
X136831210Y-85207420D01*
X136125713Y-84501923D01*
X136113938Y-84495493D01*
X136101923Y-84504789D01*
X136066069Y-84555994D01*
X136060586Y-84565489D01*
X135968510Y-84762947D01*
X135964764Y-84773239D01*
X135908375Y-84983688D01*
X135906472Y-84994481D01*
X135887483Y-85211525D01*
X135887483Y-85222475D01*
X124563706Y-85222475D01*
X124564379Y-85221439D01*
X124573522Y-85209083D01*
X124577052Y-85204875D01*
X124577053Y-85204873D01*
X124579887Y-85201496D01*
X124582221Y-85197761D01*
X124582226Y-85197754D01*
X124644428Y-85098209D01*
X124645610Y-85096353D01*
X124709576Y-84997854D01*
X124709578Y-84997851D01*
X124711972Y-84994164D01*
X124713834Y-84990172D01*
X124716158Y-84985189D01*
X124723490Y-84971683D01*
X124726407Y-84967014D01*
X124728739Y-84963282D01*
X124730525Y-84959270D01*
X124730529Y-84959263D01*
X124778279Y-84852014D01*
X124779191Y-84850013D01*
X124814991Y-84773239D01*
X124830684Y-84739586D01*
X124831966Y-84735392D01*
X124831973Y-84735374D01*
X124833581Y-84730113D01*
X124838968Y-84715703D01*
X124841201Y-84710688D01*
X124842990Y-84706671D01*
X124846419Y-84694716D01*
X124876561Y-84589595D01*
X124877185Y-84587487D01*
X124911522Y-84475175D01*
X124911523Y-84475169D01*
X124912809Y-84470964D01*
X124914358Y-84461186D01*
X124917685Y-84446180D01*
X124919202Y-84440889D01*
X124919204Y-84440879D01*
X124920415Y-84436656D01*
X124937371Y-84316011D01*
X124937678Y-84313954D01*
X124956752Y-84193526D01*
X124956925Y-84183616D01*
X124958132Y-84168281D01*
X124958895Y-84162854D01*
X124959508Y-84158494D01*
X124959508Y-84129988D01*
X136478576Y-84129988D01*
X136485644Y-84143434D01*
X137187188Y-84844978D01*
X137201132Y-84852592D01*
X137202965Y-84852461D01*
X137209580Y-84848210D01*
X137915077Y-84142713D01*
X137921507Y-84130938D01*
X137912211Y-84118923D01*
X137861006Y-84083069D01*
X137851511Y-84077586D01*
X137654053Y-83985510D01*
X137643761Y-83981764D01*
X137433312Y-83925375D01*
X137422519Y-83923472D01*
X137205475Y-83904483D01*
X137194525Y-83904483D01*
X136977481Y-83923472D01*
X136966688Y-83925375D01*
X136756239Y-83981764D01*
X136745947Y-83985510D01*
X136548489Y-84077586D01*
X136538994Y-84083069D01*
X136486952Y-84119509D01*
X136478576Y-84129988D01*
X124959508Y-84129988D01*
X124959508Y-84036734D01*
X124959527Y-84034535D01*
X124961577Y-83917064D01*
X124961654Y-83912672D01*
X124960649Y-83904483D01*
X124960447Y-83902842D01*
X124959508Y-83887486D01*
X124959508Y-83673863D01*
X124960198Y-83660693D01*
X124962727Y-83636632D01*
X124962727Y-83636629D01*
X124963186Y-83632263D01*
X124959585Y-83529142D01*
X124959508Y-83524745D01*
X124959508Y-83491850D01*
X124957213Y-83459035D01*
X124956983Y-83454641D01*
X124953537Y-83355935D01*
X124953536Y-83355928D01*
X124953383Y-83351538D01*
X124948420Y-83323390D01*
X124946813Y-83310301D01*
X124945126Y-83286172D01*
X124945126Y-83286170D01*
X124944819Y-83281784D01*
X124923360Y-83180829D01*
X124922525Y-83176536D01*
X124922481Y-83176283D01*
X124904606Y-83074909D01*
X124895772Y-83047720D01*
X124892360Y-83034987D01*
X124887330Y-83011322D01*
X124886417Y-83007026D01*
X124851125Y-82910062D01*
X124849693Y-82905903D01*
X124832414Y-82852724D01*
X131717479Y-82852724D01*
X131727263Y-82863514D01*
X131860458Y-82943704D01*
X131868372Y-82947737D01*
X132108988Y-83049625D01*
X132117393Y-83052502D01*
X132369959Y-83119469D01*
X132378691Y-83121135D01*
X132638176Y-83151846D01*
X132647042Y-83152264D01*
X132908263Y-83146109D01*
X132917116Y-83145272D01*
X133174864Y-83102371D01*
X133183498Y-83100298D01*
X133432632Y-83021507D01*
X133440894Y-83018236D01*
X133676433Y-82905132D01*
X133684157Y-82900726D01*
X133901408Y-82755564D01*
X133908436Y-82750112D01*
X134004675Y-82663913D01*
X134012110Y-82651916D01*
X134004306Y-82640195D01*
X132777887Y-81611107D01*
X132763335Y-81604738D01*
X132761519Y-81605029D01*
X132755303Y-81609838D01*
X131723017Y-82840069D01*
X131717479Y-82852724D01*
X124832414Y-82852724D01*
X124819166Y-82811950D01*
X124817805Y-82807761D01*
X124805272Y-82782064D01*
X124800120Y-82769926D01*
X124791851Y-82747207D01*
X124791850Y-82747204D01*
X124790345Y-82743070D01*
X124741878Y-82651916D01*
X124739925Y-82648083D01*
X124694668Y-82555294D01*
X124678678Y-82531587D01*
X124671893Y-82520295D01*
X124660538Y-82498940D01*
X124658472Y-82495054D01*
X124645039Y-82476565D01*
X124621181Y-82409697D01*
X124637263Y-82340545D01*
X124688177Y-82291066D01*
X124746976Y-82276505D01*
X125603127Y-82276505D01*
X125616297Y-82277195D01*
X125640358Y-82279724D01*
X125640361Y-82279724D01*
X125644727Y-82280183D01*
X125649115Y-82280030D01*
X125649121Y-82280030D01*
X125747848Y-82276582D01*
X125752245Y-82276505D01*
X125785140Y-82276505D01*
X125817955Y-82274210D01*
X125822349Y-82273980D01*
X125921055Y-82270534D01*
X125921062Y-82270533D01*
X125925452Y-82270380D01*
X125929777Y-82269617D01*
X125929781Y-82269617D01*
X125947019Y-82266577D01*
X125953600Y-82265417D01*
X125966687Y-82263810D01*
X125976552Y-82263120D01*
X125990818Y-82262123D01*
X125990820Y-82262123D01*
X125995206Y-82261816D01*
X126096161Y-82240357D01*
X126100440Y-82239525D01*
X126202081Y-82221603D01*
X126229270Y-82212769D01*
X126242001Y-82209358D01*
X126269964Y-82203414D01*
X126366928Y-82168122D01*
X126371087Y-82166690D01*
X126435322Y-82145819D01*
X126469229Y-82134802D01*
X126473182Y-82132874D01*
X126473187Y-82132872D01*
X126494923Y-82122270D01*
X126507064Y-82117117D01*
X126529783Y-82108848D01*
X126529786Y-82108847D01*
X126533920Y-82107342D01*
X126625062Y-82058881D01*
X126628907Y-82056922D01*
X126686218Y-82028969D01*
X126717746Y-82013592D01*
X126717751Y-82013589D01*
X126721696Y-82011665D01*
X126745403Y-81995675D01*
X126756695Y-81988890D01*
X126777866Y-81977633D01*
X126781936Y-81975469D01*
X126800460Y-81962011D01*
X126811813Y-81953762D01*
X126865428Y-81914809D01*
X126869000Y-81912308D01*
X126954570Y-81854590D01*
X126975823Y-81835455D01*
X126986045Y-81827176D01*
X127009186Y-81810363D01*
X127012343Y-81807315D01*
X127012347Y-81807311D01*
X127083434Y-81738663D01*
X127086650Y-81735664D01*
X127111761Y-81713054D01*
X127163316Y-81666634D01*
X127166142Y-81663266D01*
X127166148Y-81663260D01*
X127181688Y-81644740D01*
X127190680Y-81635098D01*
X127208069Y-81618305D01*
X127208075Y-81618298D01*
X127211246Y-81615236D01*
X127274769Y-81533931D01*
X127277533Y-81530517D01*
X127341045Y-81454826D01*
X127341049Y-81454821D01*
X127343873Y-81451455D01*
X127359022Y-81427212D01*
X127366584Y-81416413D01*
X127381470Y-81397358D01*
X127384182Y-81393887D01*
X127435779Y-81304519D01*
X127438037Y-81300760D01*
X127490398Y-81216965D01*
X127492725Y-81213241D01*
X127504354Y-81187122D01*
X127504933Y-81185986D01*
X130820947Y-81185986D01*
X130831205Y-81447078D01*
X130832180Y-81455907D01*
X130879124Y-81712951D01*
X130881333Y-81721553D01*
X130964026Y-81969415D01*
X130967430Y-81977633D01*
X131084222Y-82211371D01*
X131088740Y-82219010D01*
X131237306Y-82433967D01*
X131242858Y-82440898D01*
X131310214Y-82513762D01*
X131322611Y-82521177D01*
X131333819Y-82513588D01*
X132363214Y-81286804D01*
X132369583Y-81272252D01*
X132369292Y-81270436D01*
X132364483Y-81264220D01*
X132301041Y-81210986D01*
X133095821Y-81210986D01*
X133096112Y-81212802D01*
X133100921Y-81219018D01*
X134330807Y-82251015D01*
X134343771Y-82256689D01*
X134354233Y-82247350D01*
X134420873Y-82140495D01*
X134425035Y-82132636D01*
X134530690Y-81893649D01*
X134533696Y-81885299D01*
X134604623Y-81633811D01*
X134606424Y-81625118D01*
X134641374Y-81364911D01*
X134641902Y-81358518D01*
X134645475Y-81244841D01*
X134645348Y-81238398D01*
X134626808Y-80976542D01*
X134625555Y-80967738D01*
X134570560Y-80712296D01*
X134568081Y-80703763D01*
X134477643Y-80458621D01*
X134473988Y-80450526D01*
X134349908Y-80220566D01*
X134345149Y-80213068D01*
X134189912Y-80002893D01*
X134184139Y-79996134D01*
X134156479Y-79968036D01*
X134143293Y-79960701D01*
X134133109Y-79967832D01*
X133102190Y-81196434D01*
X133095821Y-81210986D01*
X132301041Y-81210986D01*
X131133539Y-80231336D01*
X131121198Y-80225935D01*
X131110091Y-80236166D01*
X131017122Y-80396224D01*
X131013218Y-80404194D01*
X130915122Y-80646382D01*
X130912378Y-80654826D01*
X130849385Y-80908419D01*
X130847858Y-80917170D01*
X130821226Y-81177102D01*
X130820947Y-81185986D01*
X127504933Y-81185986D01*
X127510335Y-81175383D01*
X127524630Y-81150624D01*
X127526275Y-81146551D01*
X127526281Y-81146540D01*
X127563281Y-81054960D01*
X127564999Y-81050911D01*
X127605187Y-80960649D01*
X127605189Y-80960644D01*
X127606976Y-80956630D01*
X127614854Y-80929156D01*
X127619147Y-80916689D01*
X127628203Y-80894276D01*
X127628209Y-80894256D01*
X127629856Y-80890181D01*
X127630921Y-80885908D01*
X127630924Y-80885900D01*
X127654819Y-80790058D01*
X127655946Y-80785847D01*
X127676875Y-80712861D01*
X127708898Y-80658499D01*
X128535968Y-79831429D01*
X131452639Y-79831429D01*
X131460005Y-79842126D01*
X132687517Y-80872131D01*
X132702069Y-80878500D01*
X132703885Y-80878209D01*
X132710101Y-80873400D01*
X133743894Y-79641373D01*
X133749155Y-79629352D01*
X133738473Y-79617937D01*
X133551055Y-79512978D01*
X133543005Y-79509190D01*
X133299319Y-79414914D01*
X133290829Y-79412302D01*
X133036280Y-79353302D01*
X133027502Y-79351912D01*
X132767180Y-79329365D01*
X132758309Y-79329225D01*
X132497398Y-79343584D01*
X132488588Y-79344698D01*
X132232309Y-79395674D01*
X132223752Y-79398015D01*
X131977198Y-79484599D01*
X131969064Y-79488119D01*
X131737179Y-79608574D01*
X131729607Y-79613213D01*
X131517011Y-79765136D01*
X131510170Y-79770796D01*
X131460021Y-79818635D01*
X131452639Y-79831429D01*
X128535968Y-79831429D01*
X129563133Y-78804264D01*
X129701285Y-78645338D01*
X129854272Y-78409759D01*
X129972984Y-78155180D01*
X129995259Y-78082323D01*
X130040025Y-77935895D01*
X130055109Y-77886558D01*
X130099052Y-77609121D01*
X130100253Y-77540342D01*
X130102115Y-77433609D01*
X130103954Y-77328267D01*
X130102217Y-77314117D01*
X130070257Y-77053829D01*
X130070256Y-77053825D01*
X130069721Y-77049466D01*
X129997020Y-76778141D01*
X129887265Y-76519574D01*
X129885002Y-76515807D01*
X129884998Y-76515800D01*
X129855858Y-76467304D01*
X153052196Y-76467304D01*
X153057766Y-76479842D01*
X153826773Y-77396310D01*
X153839998Y-77405109D01*
X153841837Y-77405138D01*
X153848795Y-77401481D01*
X154667255Y-76714711D01*
X154675730Y-76701973D01*
X154669673Y-76691546D01*
X154595974Y-76617461D01*
X154587867Y-76610585D01*
X154408817Y-76483104D01*
X154399669Y-76477694D01*
X154201704Y-76382207D01*
X154191769Y-76378413D01*
X153980551Y-76317646D01*
X153970115Y-76315580D01*
X153751678Y-76291272D01*
X153741046Y-76290994D01*
X153521631Y-76303836D01*
X153511107Y-76305353D01*
X153296987Y-76354983D01*
X153286885Y-76358246D01*
X153084180Y-76443246D01*
X153074766Y-76448168D01*
X153061636Y-76456516D01*
X153052196Y-76467304D01*
X129855858Y-76467304D01*
X129798667Y-76372122D01*
X129742593Y-76278799D01*
X129565819Y-76060503D01*
X129562600Y-76057501D01*
X129562596Y-76057497D01*
X129363603Y-75871933D01*
X129360385Y-75868932D01*
X129145918Y-75718760D01*
X129133887Y-75710336D01*
X129133886Y-75710336D01*
X129130288Y-75707816D01*
X128933014Y-75607299D01*
X128883930Y-75582289D01*
X128883926Y-75582287D01*
X128880008Y-75580291D01*
X128614416Y-75488841D01*
X128562028Y-75478658D01*
X128342999Y-75436082D01*
X128342992Y-75436081D01*
X128338680Y-75435243D01*
X128207401Y-75428363D01*
X128062567Y-75420773D01*
X128062561Y-75420773D01*
X128058170Y-75420543D01*
X128053793Y-75420926D01*
X128053789Y-75420926D01*
X127936818Y-75431160D01*
X127778342Y-75445024D01*
X127774063Y-75446012D01*
X127774056Y-75446013D01*
X127508927Y-75507224D01*
X127508922Y-75507226D01*
X127504645Y-75508213D01*
X127242406Y-75608876D01*
X127116427Y-75678708D01*
X127056084Y-75712157D01*
X126996729Y-75745058D01*
X126993222Y-75747701D01*
X126993220Y-75747702D01*
X126798437Y-75894482D01*
X126772396Y-75914105D01*
X124463901Y-78222600D01*
X124401589Y-78256626D01*
X124374806Y-78259505D01*
X120966864Y-78259505D01*
X120898743Y-78239503D01*
X120877769Y-78222600D01*
X118549651Y-75894482D01*
X118515625Y-75832170D01*
X118520690Y-75761355D01*
X118563237Y-75704519D01*
X118629757Y-75679708D01*
X118687877Y-75689361D01*
X118734906Y-75709275D01*
X118743323Y-75712157D01*
X118989054Y-75777312D01*
X118997766Y-75778974D01*
X119232178Y-75806718D01*
X119246080Y-75804363D01*
X119248861Y-75793934D01*
X119113078Y-74241914D01*
X119107293Y-74227125D01*
X119105802Y-74226046D01*
X119098005Y-74225051D01*
X117547154Y-74360732D01*
X117533067Y-74366243D01*
X117532075Y-74378570D01*
X117537373Y-74407573D01*
X117539577Y-74416161D01*
X117620031Y-74657312D01*
X117623435Y-74665530D01*
X117737062Y-74892934D01*
X117741584Y-74900580D01*
X117789524Y-74969944D01*
X117811800Y-75037355D01*
X117794095Y-75106108D01*
X117742029Y-75154375D01*
X117672133Y-75166831D01*
X117632624Y-75155778D01*
X117518496Y-75102559D01*
X117514297Y-75101275D01*
X117514291Y-75101273D01*
X117459695Y-75084582D01*
X117432354Y-75076223D01*
X117388202Y-75052251D01*
X117381958Y-75047011D01*
X117122867Y-74829608D01*
X117112810Y-74821169D01*
X117112808Y-74821167D01*
X117110319Y-74819079D01*
X117107633Y-74817262D01*
X117107629Y-74817259D01*
X117027957Y-74763365D01*
X117027958Y-74763365D01*
X117022245Y-74759501D01*
X116857737Y-74694534D01*
X116850494Y-74693484D01*
X116850491Y-74693483D01*
X116770217Y-74681844D01*
X116682696Y-74669154D01*
X116675407Y-74669798D01*
X116675403Y-74669798D01*
X116594604Y-74676939D01*
X116506513Y-74684723D01*
X116499564Y-74687028D01*
X116499563Y-74687028D01*
X116480102Y-74693483D01*
X116338635Y-74740405D01*
X116332407Y-74744244D01*
X116332405Y-74744245D01*
X116193921Y-74829608D01*
X116193919Y-74829610D01*
X116188070Y-74833215D01*
X116112725Y-74906357D01*
X116110660Y-74908818D01*
X115882881Y-75180274D01*
X115851254Y-75207286D01*
X115642114Y-75332950D01*
X115638698Y-75335716D01*
X115638694Y-75335719D01*
X115504188Y-75444641D01*
X115423818Y-75509724D01*
X115420816Y-75512943D01*
X115420812Y-75512947D01*
X115331357Y-75608876D01*
X115232247Y-75715158D01*
X115177087Y-75793934D01*
X115092943Y-75914105D01*
X115071131Y-75945255D01*
X114943606Y-76195535D01*
X114901561Y-76317646D01*
X114890406Y-76350042D01*
X114867791Y-76390012D01*
X114635899Y-76666369D01*
X114635888Y-76666384D01*
X114633800Y-76668872D01*
X114574222Y-76756946D01*
X114509255Y-76921454D01*
X114483875Y-77096495D01*
X114499444Y-77272678D01*
X114501749Y-77279627D01*
X114501749Y-77279628D01*
X114515358Y-77320659D01*
X114555126Y-77440556D01*
X114647936Y-77591121D01*
X114721078Y-77666466D01*
X114994214Y-77895654D01*
X114999940Y-77900459D01*
X115029151Y-77935895D01*
X115088509Y-78042978D01*
X115108373Y-78078814D01*
X115111016Y-78082321D01*
X115111017Y-78082323D01*
X115203520Y-78205078D01*
X115277420Y-78303147D01*
X118622961Y-81648688D01*
X118627502Y-81653472D01*
X118684097Y-81716327D01*
X118777465Y-81794673D01*
X118779032Y-81796011D01*
X118871028Y-81875982D01*
X118877158Y-81879963D01*
X118879333Y-81881376D01*
X118891689Y-81890519D01*
X118895420Y-81893649D01*
X118899276Y-81896884D01*
X118903011Y-81899218D01*
X118903018Y-81899223D01*
X119002563Y-81961425D01*
X119004407Y-81962599D01*
X119106608Y-82028969D01*
X119110595Y-82030828D01*
X119110600Y-82030831D01*
X119115583Y-82033155D01*
X119129089Y-82040487D01*
X119133440Y-82043205D01*
X119137490Y-82045736D01*
X119141510Y-82047526D01*
X119141516Y-82047529D01*
X119248807Y-82095299D01*
X119250806Y-82096210D01*
X119295643Y-82117117D01*
X119361186Y-82147680D01*
X119370657Y-82150575D01*
X119385061Y-82155962D01*
X119394101Y-82159987D01*
X119398327Y-82161199D01*
X119398336Y-82161202D01*
X119511235Y-82193574D01*
X119513322Y-82194192D01*
X119538569Y-82201911D01*
X119625601Y-82228520D01*
X119625604Y-82228521D01*
X119629808Y-82229806D01*
X119639586Y-82231355D01*
X119654592Y-82234682D01*
X119659885Y-82236199D01*
X119664116Y-82237412D01*
X119668463Y-82238023D01*
X119668468Y-82238024D01*
X119734830Y-82247350D01*
X119784770Y-82254369D01*
X119786887Y-82254685D01*
X119907246Y-82273748D01*
X119911646Y-82273825D01*
X119911649Y-82273825D01*
X119917144Y-82273921D01*
X119932473Y-82275128D01*
X119937916Y-82275893D01*
X119937932Y-82275894D01*
X119942278Y-82276505D01*
X120064061Y-82276505D01*
X120066261Y-82276524D01*
X120188099Y-82278651D01*
X120192455Y-82278116D01*
X120192458Y-82278116D01*
X120195513Y-82277741D01*
X120197931Y-82277444D01*
X120213284Y-82276505D01*
X120369657Y-82276505D01*
X120437778Y-82296507D01*
X120484271Y-82350163D01*
X120494375Y-82420437D01*
X120464881Y-82485017D01*
X120458752Y-82491600D01*
X118599396Y-84350956D01*
X118537084Y-84384982D01*
X118510301Y-84387861D01*
X116046748Y-84387861D01*
X116040154Y-84387688D01*
X115960098Y-84383492D01*
X115960092Y-84383492D01*
X115955701Y-84383262D01*
X115951324Y-84383645D01*
X115951321Y-84383645D01*
X115834293Y-84393884D01*
X115832100Y-84394056D01*
X115715012Y-84402243D01*
X115715007Y-84402244D01*
X115710627Y-84402550D01*
X115700946Y-84404608D01*
X115685739Y-84406880D01*
X115680264Y-84407359D01*
X115680251Y-84407361D01*
X115675873Y-84407744D01*
X115603180Y-84424527D01*
X115557165Y-84435150D01*
X115555018Y-84435626D01*
X115505366Y-84446180D01*
X115435869Y-84460952D01*
X115431737Y-84462456D01*
X115426567Y-84464337D01*
X115411821Y-84468705D01*
X115406463Y-84469942D01*
X115406458Y-84469943D01*
X115402176Y-84470932D01*
X115288410Y-84514602D01*
X115286410Y-84515350D01*
X115171913Y-84557024D01*
X115163175Y-84561670D01*
X115149172Y-84568051D01*
X115144049Y-84570017D01*
X115144042Y-84570020D01*
X115139937Y-84571596D01*
X115033318Y-84630697D01*
X115031451Y-84631709D01*
X114927781Y-84686831D01*
X114927772Y-84686837D01*
X114923897Y-84688897D01*
X114920340Y-84691482D01*
X114920334Y-84691485D01*
X114915886Y-84694716D01*
X114902913Y-84702981D01*
X114894260Y-84707778D01*
X114803171Y-84776418D01*
X114797008Y-84781062D01*
X114795254Y-84782360D01*
X114696647Y-84854003D01*
X114690686Y-84859759D01*
X114689519Y-84860886D01*
X114677827Y-84870871D01*
X114673446Y-84874173D01*
X114669927Y-84876825D01*
X114583851Y-84962901D01*
X114582283Y-84964443D01*
X114494587Y-85049130D01*
X114488524Y-85056891D01*
X114488486Y-85056939D01*
X114478291Y-85068461D01*
X109566517Y-89980235D01*
X109561733Y-89984776D01*
X109498878Y-90041371D01*
X109420576Y-90134687D01*
X109419165Y-90136339D01*
X109339223Y-90228303D01*
X109336829Y-90231989D01*
X109336824Y-90231996D01*
X109333832Y-90236603D01*
X109324688Y-90248961D01*
X109321153Y-90253174D01*
X109321148Y-90253181D01*
X109318321Y-90256550D01*
X109277674Y-90321599D01*
X109253780Y-90359838D01*
X109252599Y-90361693D01*
X109186236Y-90463882D01*
X109184373Y-90467876D01*
X109184373Y-90467877D01*
X109182050Y-90472857D01*
X109174718Y-90486363D01*
X109169469Y-90494764D01*
X109167683Y-90498776D01*
X109167679Y-90498783D01*
X109119929Y-90606032D01*
X109119017Y-90608033D01*
X109082196Y-90686997D01*
X109067524Y-90718460D01*
X109066239Y-90722662D01*
X109066239Y-90722663D01*
X109064630Y-90727927D01*
X109059242Y-90742337D01*
X109055218Y-90751375D01*
X109050219Y-90768808D01*
X109021635Y-90868495D01*
X109021017Y-90870583D01*
X108985399Y-90987083D01*
X108983850Y-90996865D01*
X108980520Y-91011879D01*
X108977793Y-91021390D01*
X108977181Y-91025743D01*
X108977180Y-91025749D01*
X108960846Y-91141978D01*
X108960521Y-91144155D01*
X108944695Y-91244074D01*
X108941456Y-91264520D01*
X108941379Y-91268916D01*
X108941379Y-91268920D01*
X108941283Y-91274430D01*
X108940076Y-91289760D01*
X108938700Y-91299552D01*
X108938700Y-91421312D01*
X108938681Y-91423510D01*
X108936554Y-91545374D01*
X108937089Y-91549730D01*
X108937089Y-91549733D01*
X108937761Y-91555204D01*
X108938700Y-91570560D01*
X108938700Y-92501705D01*
X108938527Y-92508299D01*
X108937473Y-92528420D01*
X108934102Y-92592738D01*
X97557420Y-92592738D01*
X97519241Y-92543387D01*
X97509283Y-92528420D01*
X97455944Y-92434318D01*
X97413228Y-92358956D01*
X97405512Y-92342746D01*
X97334550Y-92161330D01*
X97329216Y-92144174D01*
X97284799Y-91954526D01*
X97281958Y-91936774D01*
X97269595Y-91795452D01*
X97264983Y-91742728D01*
X97264698Y-91724757D01*
X97264717Y-91724425D01*
X97275510Y-91530277D01*
X97277786Y-91512444D01*
X97295660Y-91423511D01*
X97316167Y-91321476D01*
X97320954Y-91304162D01*
X97386121Y-91120605D01*
X97393328Y-91104136D01*
X97483956Y-90931716D01*
X97493435Y-90916441D01*
X97588680Y-90784910D01*
X97600460Y-90772000D01*
X97606123Y-90765416D01*
X97612880Y-90759511D01*
X97630011Y-90732673D01*
X97639690Y-90719485D01*
X100812315Y-86938497D01*
X102092141Y-85413260D01*
X102151251Y-85373933D01*
X102222239Y-85372807D01*
X102282566Y-85410238D01*
X102313080Y-85474343D01*
X102311771Y-85521093D01*
X102298620Y-85581408D01*
X102255061Y-85781190D01*
X102254725Y-85785460D01*
X102233012Y-86061354D01*
X102233011Y-86061354D01*
X102233012Y-86061356D01*
X102232505Y-86067795D01*
X102232752Y-86072079D01*
X102232752Y-86072080D01*
X102234198Y-86097157D01*
X102249054Y-86354809D01*
X102249879Y-86359014D01*
X102249880Y-86359022D01*
X102269662Y-86459848D01*
X102304402Y-86636921D01*
X102305789Y-86640971D01*
X102305790Y-86640976D01*
X102375945Y-86845879D01*
X102397526Y-86908912D01*
X102454957Y-87023101D01*
X102487126Y-87087061D01*
X102526701Y-87165748D01*
X102689537Y-87402676D01*
X102883022Y-87615314D01*
X102886317Y-87618069D01*
X102886318Y-87618070D01*
X103040532Y-87747012D01*
X103103575Y-87799724D01*
X103347114Y-87952497D01*
X103609134Y-88070803D01*
X103664010Y-88087058D01*
X103880673Y-88151237D01*
X103880678Y-88151238D01*
X103884786Y-88152455D01*
X103889020Y-88153103D01*
X103889025Y-88153104D01*
X104137627Y-88191145D01*
X104168969Y-88195941D01*
X104315301Y-88198240D01*
X104452133Y-88200390D01*
X104452139Y-88200390D01*
X104456424Y-88200457D01*
X104460676Y-88199942D01*
X104460684Y-88199942D01*
X104737572Y-88166434D01*
X104737577Y-88166433D01*
X104741833Y-88165918D01*
X104897933Y-88124966D01*
X105015770Y-88094052D01*
X105015771Y-88094052D01*
X105019913Y-88092965D01*
X105285520Y-87982947D01*
X105472465Y-87873705D01*
X105530035Y-87840064D01*
X105530036Y-87840063D01*
X105533738Y-87837900D01*
X105759975Y-87660508D01*
X105773156Y-87646907D01*
X105924460Y-87490773D01*
X105960043Y-87454054D01*
X105962576Y-87450606D01*
X105962580Y-87450601D01*
X106127703Y-87225812D01*
X106130241Y-87222357D01*
X106132287Y-87218589D01*
X106265370Y-86973481D01*
X106265371Y-86973479D01*
X106267420Y-86969705D01*
X106369041Y-86700774D01*
X106413049Y-86508625D01*
X106432265Y-86424723D01*
X106432266Y-86424719D01*
X106433223Y-86420539D01*
X106434483Y-86406428D01*
X106458559Y-86136652D01*
X106458559Y-86136650D01*
X106458779Y-86134186D01*
X106459243Y-86089926D01*
X106451421Y-85975193D01*
X106439981Y-85807378D01*
X106439980Y-85807372D01*
X106439689Y-85803101D01*
X106435152Y-85781190D01*
X106397840Y-85601020D01*
X106381390Y-85521584D01*
X106285423Y-85250583D01*
X106202575Y-85090068D01*
X106155531Y-84998921D01*
X106155531Y-84998920D01*
X106153566Y-84995114D01*
X106140304Y-84976243D01*
X106059229Y-84860886D01*
X105988257Y-84759903D01*
X105868157Y-84630660D01*
X105795477Y-84552447D01*
X105795474Y-84552445D01*
X105792556Y-84549304D01*
X105570084Y-84367213D01*
X105324958Y-84216999D01*
X105248910Y-84183616D01*
X105065646Y-84103169D01*
X105061714Y-84101443D01*
X105038847Y-84094929D01*
X104901199Y-84055719D01*
X104785222Y-84022682D01*
X104559236Y-83990520D01*
X104504852Y-83982780D01*
X104504850Y-83982780D01*
X104500600Y-83982175D01*
X104496311Y-83982153D01*
X104496304Y-83982152D01*
X104217399Y-83980691D01*
X104217392Y-83980691D01*
X104213113Y-83980669D01*
X104208869Y-83981228D01*
X104208865Y-83981228D01*
X104083476Y-83997736D01*
X103928082Y-84018194D01*
X103923942Y-84019327D01*
X103923940Y-84019327D01*
X103868349Y-84034535D01*
X103650780Y-84094055D01*
X103431918Y-84187408D01*
X103361412Y-84195737D01*
X103297596Y-84164624D01*
X103260731Y-84103949D01*
X103262522Y-84032975D01*
X103285962Y-83990520D01*
X108058235Y-78303147D01*
X111506983Y-74193089D01*
X119618747Y-74193089D01*
X119754560Y-75745442D01*
X119760184Y-75759820D01*
X119771947Y-75760859D01*
X119772854Y-75760708D01*
X119781488Y-75758635D01*
X120023872Y-75681979D01*
X120032134Y-75678708D01*
X120261290Y-75568669D01*
X120269014Y-75564263D01*
X120480377Y-75423035D01*
X120487406Y-75417583D01*
X120676764Y-75247980D01*
X120682951Y-75241595D01*
X120846516Y-75047011D01*
X120851752Y-75039804D01*
X120986262Y-74824124D01*
X120990433Y-74816246D01*
X121093212Y-74583764D01*
X121096228Y-74575387D01*
X121165227Y-74330733D01*
X121167031Y-74322025D01*
X121201037Y-74068846D01*
X121201566Y-74062449D01*
X121201673Y-74059060D01*
X121198000Y-74044922D01*
X121184967Y-74042465D01*
X119635614Y-74178016D01*
X119620821Y-74183803D01*
X119619741Y-74185294D01*
X119618747Y-74193089D01*
X111506983Y-74193089D01*
X111804694Y-73838291D01*
X117485886Y-73838291D01*
X117488273Y-73851156D01*
X117503578Y-73854605D01*
X119049176Y-73719382D01*
X119063969Y-73713595D01*
X119065049Y-73712104D01*
X119066043Y-73704309D01*
X118930453Y-72154505D01*
X118925059Y-72140715D01*
X118912168Y-72139780D01*
X118855227Y-72151107D01*
X118846674Y-72153447D01*
X118606816Y-72237677D01*
X118598650Y-72241211D01*
X118373064Y-72358395D01*
X118365492Y-72363034D01*
X118158658Y-72510841D01*
X118151816Y-72516501D01*
X117967870Y-72691976D01*
X117961893Y-72698545D01*
X117804510Y-72898184D01*
X117799517Y-72905532D01*
X117671835Y-73125354D01*
X117667927Y-73133328D01*
X117572492Y-73368946D01*
X117569743Y-73377408D01*
X117508462Y-73624112D01*
X117506933Y-73632873D01*
X117485886Y-73838291D01*
X111804694Y-73838291D01*
X113254319Y-72110695D01*
X119436561Y-72110695D01*
X119571712Y-73655484D01*
X119577497Y-73670273D01*
X119578988Y-73671352D01*
X119586785Y-73672347D01*
X121135999Y-73536809D01*
X121149486Y-73531533D01*
X121150356Y-73518085D01*
X121132115Y-73433361D01*
X121129636Y-73424828D01*
X121041649Y-73186329D01*
X121037994Y-73178234D01*
X120917276Y-72954506D01*
X120912517Y-72947008D01*
X120761491Y-72742534D01*
X120755706Y-72735760D01*
X120577382Y-72554614D01*
X120570705Y-72548726D01*
X120368625Y-72394504D01*
X120361196Y-72389624D01*
X120139400Y-72265412D01*
X120131366Y-72261631D01*
X119894260Y-72169902D01*
X119885787Y-72167295D01*
X119638131Y-72109892D01*
X119629354Y-72108502D01*
X119452945Y-72093223D01*
X119439777Y-72095882D01*
X119436561Y-72110695D01*
X113254319Y-72110695D01*
X116115123Y-68701322D01*
X116128723Y-68687446D01*
X116146794Y-68671654D01*
X116155043Y-68658730D01*
X116170776Y-68638828D01*
X116289282Y-68516571D01*
X116302739Y-68504546D01*
X116457551Y-68384994D01*
X116472577Y-68375022D01*
X116642900Y-68278812D01*
X116659201Y-68271089D01*
X116841501Y-68200217D01*
X116858751Y-68194898D01*
X116938712Y-68176395D01*
X117049305Y-68150804D01*
X117067133Y-68148005D01*
X117262043Y-68131595D01*
X117280088Y-68131373D01*
X117373299Y-68136916D01*
X117475336Y-68142984D01*
X117493233Y-68145344D01*
X117627980Y-68173051D01*
X117684816Y-68184738D01*
X117702186Y-68189629D01*
X117792961Y-68222372D01*
X117852244Y-68243757D01*
X117872611Y-68253983D01*
X117872843Y-68253566D01*
X117877098Y-68255931D01*
X117881160Y-68258619D01*
X117886617Y-68261122D01*
X117886846Y-68261270D01*
X117887107Y-68261347D01*
X117892569Y-68263853D01*
X117895944Y-68264807D01*
X117897969Y-68265612D01*
X119099720Y-68778619D01*
X120321018Y-69258833D01*
X120321844Y-69259130D01*
X120321861Y-69259137D01*
X121554793Y-69703327D01*
X121554805Y-69703331D01*
X121555654Y-69703637D01*
X122802601Y-70112659D01*
X124060822Y-70485562D01*
X124061672Y-70485788D01*
X124061681Y-70485790D01*
X125328399Y-70821803D01*
X125328419Y-70821808D01*
X125329271Y-70822034D01*
X125330145Y-70822239D01*
X126605993Y-71121585D01*
X126606019Y-71121591D01*
X126606894Y-71121796D01*
X127892628Y-71384598D01*
X129020373Y-71581420D01*
X129167115Y-71607030D01*
X129185404Y-71610222D01*
X130053702Y-71736086D01*
X130483276Y-71798355D01*
X130483293Y-71798357D01*
X130484147Y-71798481D01*
X130485019Y-71798582D01*
X130485028Y-71798583D01*
X131786842Y-71949109D01*
X131786865Y-71949111D01*
X131787779Y-71949217D01*
X133095214Y-72062307D01*
X133096097Y-72062358D01*
X133096100Y-72062358D01*
X133936585Y-72110695D01*
X134405366Y-72137655D01*
X134770531Y-72148106D01*
X135716223Y-72175172D01*
X135716252Y-72175172D01*
X135717146Y-72175198D01*
X135718055Y-72175198D01*
X136364755Y-72175054D01*
X137029463Y-72174907D01*
X137291362Y-72167295D01*
X138340312Y-72136808D01*
X138340340Y-72136807D01*
X138341227Y-72136781D01*
X138342131Y-72136729D01*
X138342145Y-72136728D01*
X139650400Y-72060906D01*
X139650415Y-72060905D01*
X139651345Y-72060851D01*
X140958730Y-71947181D01*
X141434580Y-71891945D01*
X142261419Y-71795967D01*
X142261440Y-71795964D01*
X142262295Y-71795865D01*
X142263163Y-71795739D01*
X142263169Y-71795738D01*
X142472462Y-71765305D01*
X143560954Y-71607030D01*
X143561841Y-71606875D01*
X143561871Y-71606870D01*
X144285728Y-71480206D01*
X144853630Y-71380832D01*
X145566446Y-71234803D01*
X146138321Y-71117648D01*
X146138341Y-71117644D01*
X146139247Y-71117458D01*
X147416736Y-70817129D01*
X148240733Y-70598162D01*
X148684156Y-70480328D01*
X148684166Y-70480325D01*
X148685036Y-70480094D01*
X148685913Y-70479834D01*
X148685926Y-70479830D01*
X149047792Y-70372408D01*
X149943091Y-70106633D01*
X151189856Y-69697056D01*
X151190689Y-69696755D01*
X151190702Y-69696751D01*
X152423475Y-69252001D01*
X152423485Y-69251997D01*
X152424295Y-69251705D01*
X153645380Y-68770949D01*
X154834330Y-68262782D01*
X154838430Y-68261208D01*
X154840770Y-68260606D01*
X154846290Y-68258232D01*
X154846554Y-68258161D01*
X154846788Y-68258018D01*
X154852302Y-68255647D01*
X154858130Y-68251988D01*
X154861639Y-68249786D01*
X154885830Y-68237994D01*
X155042817Y-68181298D01*
X155060205Y-68176395D01*
X155184488Y-68150805D01*
X155251944Y-68136916D01*
X155269853Y-68134550D01*
X155334958Y-68130669D01*
X155465274Y-68122900D01*
X155483339Y-68123121D01*
G37*
%TD.AperFunction*%
%TD*%
M02*
