%TF.GenerationSoftware,KiCad,Pcbnew,7.0.2-0*%
%TF.CreationDate,2023-07-23T18:43:14+09:00*%
%TF.ProjectId,capacitor_board2,63617061-6369-4746-9f72-5f626f617264,rev?*%
%TF.SameCoordinates,Original*%
%TF.FileFunction,Drillmap*%
%TF.FilePolarity,Positive*%
%FSLAX45Y45*%
G04 Gerber Fmt 4.5, Leading zero omitted, Abs format (unit mm)*
G04 Created by KiCad (PCBNEW 7.0.2-0) date 2023-07-23 18:43:14*
%MOMM*%
%LPD*%
G01*
G04 APERTURE LIST*
%ADD10C,0.200000*%
%ADD11C,0.100000*%
%ADD12C,0.120000*%
%ADD13C,0.220000*%
G04 APERTURE END LIST*
D10*
X17152462Y-11950002D02*
G75*
G03*
X17441351Y-11730889I-2J300002D01*
G01*
X16291406Y-8350000D02*
X12868594Y-8350000D01*
X12868594Y-8350002D02*
G75*
G03*
X12705619Y-8398129I-4J-299998D01*
G01*
X11718651Y-11730889D02*
G75*
G03*
X12007538Y-11950000I288889J80889D01*
G01*
X18020427Y-9662741D02*
G75*
G03*
X17894518Y-9329983I-288887J80891D01*
G01*
X12968594Y-8650000D02*
G75*
G03*
X12968594Y-8650000I-100000J0D01*
G01*
X17252462Y-11650000D02*
G75*
G03*
X17252462Y-11650000I-100000J0D01*
G01*
X12007538Y-11950000D02*
X17152462Y-11950000D01*
X12107538Y-11650000D02*
G75*
G03*
X12107538Y-11650000I-100000J0D01*
G01*
X16454380Y-8398131D02*
G75*
G03*
X16291406Y-8350000I-162970J-251839D01*
G01*
X17441351Y-11730889D02*
X18020432Y-9662743D01*
X16391406Y-8650000D02*
G75*
G03*
X16391406Y-8650000I-100000J0D01*
G01*
X12705619Y-8398129D02*
X11265482Y-9329983D01*
X11265479Y-9329978D02*
G75*
G03*
X11139568Y-9662743I162981J-251872D01*
G01*
X11139568Y-9662743D02*
X11718649Y-11730889D01*
X17894518Y-9329983D02*
X16454381Y-8398129D01*
D11*
X11811800Y-10325900D02*
X11911800Y-10425900D01*
X11911800Y-10325900D02*
X11811800Y-10425900D01*
X11811800Y-10579900D02*
X11911800Y-10679900D01*
X11911800Y-10579900D02*
X11811800Y-10679900D01*
X17270000Y-10326000D02*
X17370000Y-10426000D01*
X17370000Y-10326000D02*
X17270000Y-10426000D01*
X17270000Y-10580000D02*
X17370000Y-10680000D01*
X17370000Y-10580000D02*
X17270000Y-10680000D01*
D12*
X12430000Y-9480000D02*
G75*
G03*
X12430000Y-9480000I-60000J0D01*
G01*
X12677604Y-10880000D02*
G75*
G03*
X12677604Y-10880000I-60000J0D01*
G01*
X12930000Y-9480000D02*
G75*
G03*
X12930000Y-9480000I-60000J0D01*
G01*
X13177604Y-10880000D02*
G75*
G03*
X13177604Y-10880000I-60000J0D01*
G01*
X16117604Y-10850000D02*
G75*
G03*
X16117604Y-10850000I-60000J0D01*
G01*
X16350000Y-9470000D02*
G75*
G03*
X16350000Y-9470000I-60000J0D01*
G01*
X16617604Y-10850000D02*
G75*
G03*
X16617604Y-10850000I-60000J0D01*
G01*
X16850000Y-9470000D02*
G75*
G03*
X16850000Y-9470000I-60000J0D01*
G01*
D13*
X12010000Y-11540000D02*
X12010000Y-11760000D01*
X11900000Y-11650000D02*
X12120000Y-11650000D01*
X12870000Y-8540000D02*
X12870000Y-8760000D01*
X12760000Y-8650000D02*
X12980000Y-8650000D01*
X16290000Y-8540000D02*
X16290000Y-8760000D01*
X16180000Y-8650000D02*
X16400000Y-8650000D01*
X17150000Y-11540000D02*
X17150000Y-11760000D01*
X17040000Y-11650000D02*
X17260000Y-11650000D01*
D10*
X11366075Y-12272524D02*
X11366075Y-12072524D01*
X11366075Y-12072524D02*
X11413694Y-12072524D01*
X11413694Y-12072524D02*
X11442266Y-12082048D01*
X11442266Y-12082048D02*
X11461313Y-12101095D01*
X11461313Y-12101095D02*
X11470837Y-12120143D01*
X11470837Y-12120143D02*
X11480361Y-12158238D01*
X11480361Y-12158238D02*
X11480361Y-12186810D01*
X11480361Y-12186810D02*
X11470837Y-12224905D01*
X11470837Y-12224905D02*
X11461313Y-12243952D01*
X11461313Y-12243952D02*
X11442266Y-12263000D01*
X11442266Y-12263000D02*
X11413694Y-12272524D01*
X11413694Y-12272524D02*
X11366075Y-12272524D01*
X11566075Y-12272524D02*
X11566075Y-12139190D01*
X11566075Y-12177286D02*
X11575599Y-12158238D01*
X11575599Y-12158238D02*
X11585123Y-12148714D01*
X11585123Y-12148714D02*
X11604170Y-12139190D01*
X11604170Y-12139190D02*
X11623218Y-12139190D01*
X11689885Y-12272524D02*
X11689885Y-12139190D01*
X11689885Y-12072524D02*
X11680361Y-12082048D01*
X11680361Y-12082048D02*
X11689885Y-12091571D01*
X11689885Y-12091571D02*
X11699408Y-12082048D01*
X11699408Y-12082048D02*
X11689885Y-12072524D01*
X11689885Y-12072524D02*
X11689885Y-12091571D01*
X11813694Y-12272524D02*
X11794647Y-12263000D01*
X11794647Y-12263000D02*
X11785123Y-12243952D01*
X11785123Y-12243952D02*
X11785123Y-12072524D01*
X11918456Y-12272524D02*
X11899408Y-12263000D01*
X11899408Y-12263000D02*
X11889885Y-12243952D01*
X11889885Y-12243952D02*
X11889885Y-12072524D01*
X12147028Y-12272524D02*
X12147028Y-12072524D01*
X12147028Y-12072524D02*
X12213694Y-12215381D01*
X12213694Y-12215381D02*
X12280361Y-12072524D01*
X12280361Y-12072524D02*
X12280361Y-12272524D01*
X12461313Y-12272524D02*
X12461313Y-12167762D01*
X12461313Y-12167762D02*
X12451789Y-12148714D01*
X12451789Y-12148714D02*
X12432742Y-12139190D01*
X12432742Y-12139190D02*
X12394647Y-12139190D01*
X12394647Y-12139190D02*
X12375599Y-12148714D01*
X12461313Y-12263000D02*
X12442266Y-12272524D01*
X12442266Y-12272524D02*
X12394647Y-12272524D01*
X12394647Y-12272524D02*
X12375599Y-12263000D01*
X12375599Y-12263000D02*
X12366075Y-12243952D01*
X12366075Y-12243952D02*
X12366075Y-12224905D01*
X12366075Y-12224905D02*
X12375599Y-12205857D01*
X12375599Y-12205857D02*
X12394647Y-12196333D01*
X12394647Y-12196333D02*
X12442266Y-12196333D01*
X12442266Y-12196333D02*
X12461313Y-12186810D01*
X12556551Y-12139190D02*
X12556551Y-12339190D01*
X12556551Y-12148714D02*
X12575599Y-12139190D01*
X12575599Y-12139190D02*
X12613694Y-12139190D01*
X12613694Y-12139190D02*
X12632742Y-12148714D01*
X12632742Y-12148714D02*
X12642266Y-12158238D01*
X12642266Y-12158238D02*
X12651789Y-12177286D01*
X12651789Y-12177286D02*
X12651789Y-12234429D01*
X12651789Y-12234429D02*
X12642266Y-12253476D01*
X12642266Y-12253476D02*
X12632742Y-12263000D01*
X12632742Y-12263000D02*
X12613694Y-12272524D01*
X12613694Y-12272524D02*
X12575599Y-12272524D01*
X12575599Y-12272524D02*
X12556551Y-12263000D01*
X12737504Y-12253476D02*
X12747028Y-12263000D01*
X12747028Y-12263000D02*
X12737504Y-12272524D01*
X12737504Y-12272524D02*
X12727980Y-12263000D01*
X12727980Y-12263000D02*
X12737504Y-12253476D01*
X12737504Y-12253476D02*
X12737504Y-12272524D01*
X12737504Y-12148714D02*
X12747028Y-12158238D01*
X12747028Y-12158238D02*
X12737504Y-12167762D01*
X12737504Y-12167762D02*
X12727980Y-12158238D01*
X12727980Y-12158238D02*
X12737504Y-12148714D01*
X12737504Y-12148714D02*
X12737504Y-12167762D01*
D11*
X11018456Y-12550000D02*
X11118456Y-12650000D01*
X11118456Y-12550000D02*
X11018456Y-12650000D01*
D10*
X11470837Y-12692524D02*
X11356551Y-12692524D01*
X11413694Y-12692524D02*
X11413694Y-12492524D01*
X11413694Y-12492524D02*
X11394647Y-12521095D01*
X11394647Y-12521095D02*
X11375599Y-12540143D01*
X11375599Y-12540143D02*
X11356551Y-12549667D01*
X11556551Y-12673476D02*
X11566075Y-12683000D01*
X11566075Y-12683000D02*
X11556551Y-12692524D01*
X11556551Y-12692524D02*
X11547028Y-12683000D01*
X11547028Y-12683000D02*
X11556551Y-12673476D01*
X11556551Y-12673476D02*
X11556551Y-12692524D01*
X11689885Y-12492524D02*
X11708932Y-12492524D01*
X11708932Y-12492524D02*
X11727980Y-12502048D01*
X11727980Y-12502048D02*
X11737504Y-12511571D01*
X11737504Y-12511571D02*
X11747028Y-12530619D01*
X11747028Y-12530619D02*
X11756551Y-12568714D01*
X11756551Y-12568714D02*
X11756551Y-12616333D01*
X11756551Y-12616333D02*
X11747028Y-12654429D01*
X11747028Y-12654429D02*
X11737504Y-12673476D01*
X11737504Y-12673476D02*
X11727980Y-12683000D01*
X11727980Y-12683000D02*
X11708932Y-12692524D01*
X11708932Y-12692524D02*
X11689885Y-12692524D01*
X11689885Y-12692524D02*
X11670837Y-12683000D01*
X11670837Y-12683000D02*
X11661313Y-12673476D01*
X11661313Y-12673476D02*
X11651789Y-12654429D01*
X11651789Y-12654429D02*
X11642266Y-12616333D01*
X11642266Y-12616333D02*
X11642266Y-12568714D01*
X11642266Y-12568714D02*
X11651789Y-12530619D01*
X11651789Y-12530619D02*
X11661313Y-12511571D01*
X11661313Y-12511571D02*
X11670837Y-12502048D01*
X11670837Y-12502048D02*
X11689885Y-12492524D01*
X11880361Y-12492524D02*
X11899409Y-12492524D01*
X11899409Y-12492524D02*
X11918456Y-12502048D01*
X11918456Y-12502048D02*
X11927980Y-12511571D01*
X11927980Y-12511571D02*
X11937504Y-12530619D01*
X11937504Y-12530619D02*
X11947028Y-12568714D01*
X11947028Y-12568714D02*
X11947028Y-12616333D01*
X11947028Y-12616333D02*
X11937504Y-12654429D01*
X11937504Y-12654429D02*
X11927980Y-12673476D01*
X11927980Y-12673476D02*
X11918456Y-12683000D01*
X11918456Y-12683000D02*
X11899409Y-12692524D01*
X11899409Y-12692524D02*
X11880361Y-12692524D01*
X11880361Y-12692524D02*
X11861313Y-12683000D01*
X11861313Y-12683000D02*
X11851789Y-12673476D01*
X11851789Y-12673476D02*
X11842266Y-12654429D01*
X11842266Y-12654429D02*
X11832742Y-12616333D01*
X11832742Y-12616333D02*
X11832742Y-12568714D01*
X11832742Y-12568714D02*
X11842266Y-12530619D01*
X11842266Y-12530619D02*
X11851789Y-12511571D01*
X11851789Y-12511571D02*
X11861313Y-12502048D01*
X11861313Y-12502048D02*
X11880361Y-12492524D01*
X12070837Y-12492524D02*
X12089885Y-12492524D01*
X12089885Y-12492524D02*
X12108932Y-12502048D01*
X12108932Y-12502048D02*
X12118456Y-12511571D01*
X12118456Y-12511571D02*
X12127980Y-12530619D01*
X12127980Y-12530619D02*
X12137504Y-12568714D01*
X12137504Y-12568714D02*
X12137504Y-12616333D01*
X12137504Y-12616333D02*
X12127980Y-12654429D01*
X12127980Y-12654429D02*
X12118456Y-12673476D01*
X12118456Y-12673476D02*
X12108932Y-12683000D01*
X12108932Y-12683000D02*
X12089885Y-12692524D01*
X12089885Y-12692524D02*
X12070837Y-12692524D01*
X12070837Y-12692524D02*
X12051789Y-12683000D01*
X12051789Y-12683000D02*
X12042266Y-12673476D01*
X12042266Y-12673476D02*
X12032742Y-12654429D01*
X12032742Y-12654429D02*
X12023218Y-12616333D01*
X12023218Y-12616333D02*
X12023218Y-12568714D01*
X12023218Y-12568714D02*
X12032742Y-12530619D01*
X12032742Y-12530619D02*
X12042266Y-12511571D01*
X12042266Y-12511571D02*
X12051789Y-12502048D01*
X12051789Y-12502048D02*
X12070837Y-12492524D01*
X12223218Y-12692524D02*
X12223218Y-12559190D01*
X12223218Y-12578238D02*
X12232742Y-12568714D01*
X12232742Y-12568714D02*
X12251789Y-12559190D01*
X12251789Y-12559190D02*
X12280361Y-12559190D01*
X12280361Y-12559190D02*
X12299409Y-12568714D01*
X12299409Y-12568714D02*
X12308932Y-12587762D01*
X12308932Y-12587762D02*
X12308932Y-12692524D01*
X12308932Y-12587762D02*
X12318456Y-12568714D01*
X12318456Y-12568714D02*
X12337504Y-12559190D01*
X12337504Y-12559190D02*
X12366075Y-12559190D01*
X12366075Y-12559190D02*
X12385123Y-12568714D01*
X12385123Y-12568714D02*
X12394647Y-12587762D01*
X12394647Y-12587762D02*
X12394647Y-12692524D01*
X12489885Y-12692524D02*
X12489885Y-12559190D01*
X12489885Y-12578238D02*
X12499409Y-12568714D01*
X12499409Y-12568714D02*
X12518456Y-12559190D01*
X12518456Y-12559190D02*
X12547028Y-12559190D01*
X12547028Y-12559190D02*
X12566075Y-12568714D01*
X12566075Y-12568714D02*
X12575599Y-12587762D01*
X12575599Y-12587762D02*
X12575599Y-12692524D01*
X12575599Y-12587762D02*
X12585123Y-12568714D01*
X12585123Y-12568714D02*
X12604170Y-12559190D01*
X12604170Y-12559190D02*
X12632742Y-12559190D01*
X12632742Y-12559190D02*
X12651790Y-12568714D01*
X12651790Y-12568714D02*
X12661313Y-12587762D01*
X12661313Y-12587762D02*
X12661313Y-12692524D01*
X13051790Y-12483000D02*
X12880361Y-12740143D01*
X13308932Y-12492524D02*
X13327980Y-12492524D01*
X13327980Y-12492524D02*
X13347028Y-12502048D01*
X13347028Y-12502048D02*
X13356552Y-12511571D01*
X13356552Y-12511571D02*
X13366075Y-12530619D01*
X13366075Y-12530619D02*
X13375599Y-12568714D01*
X13375599Y-12568714D02*
X13375599Y-12616333D01*
X13375599Y-12616333D02*
X13366075Y-12654429D01*
X13366075Y-12654429D02*
X13356552Y-12673476D01*
X13356552Y-12673476D02*
X13347028Y-12683000D01*
X13347028Y-12683000D02*
X13327980Y-12692524D01*
X13327980Y-12692524D02*
X13308932Y-12692524D01*
X13308932Y-12692524D02*
X13289885Y-12683000D01*
X13289885Y-12683000D02*
X13280361Y-12673476D01*
X13280361Y-12673476D02*
X13270837Y-12654429D01*
X13270837Y-12654429D02*
X13261313Y-12616333D01*
X13261313Y-12616333D02*
X13261313Y-12568714D01*
X13261313Y-12568714D02*
X13270837Y-12530619D01*
X13270837Y-12530619D02*
X13280361Y-12511571D01*
X13280361Y-12511571D02*
X13289885Y-12502048D01*
X13289885Y-12502048D02*
X13308932Y-12492524D01*
X13461313Y-12673476D02*
X13470837Y-12683000D01*
X13470837Y-12683000D02*
X13461313Y-12692524D01*
X13461313Y-12692524D02*
X13451790Y-12683000D01*
X13451790Y-12683000D02*
X13461313Y-12673476D01*
X13461313Y-12673476D02*
X13461313Y-12692524D01*
X13594647Y-12492524D02*
X13613694Y-12492524D01*
X13613694Y-12492524D02*
X13632742Y-12502048D01*
X13632742Y-12502048D02*
X13642266Y-12511571D01*
X13642266Y-12511571D02*
X13651790Y-12530619D01*
X13651790Y-12530619D02*
X13661313Y-12568714D01*
X13661313Y-12568714D02*
X13661313Y-12616333D01*
X13661313Y-12616333D02*
X13651790Y-12654429D01*
X13651790Y-12654429D02*
X13642266Y-12673476D01*
X13642266Y-12673476D02*
X13632742Y-12683000D01*
X13632742Y-12683000D02*
X13613694Y-12692524D01*
X13613694Y-12692524D02*
X13594647Y-12692524D01*
X13594647Y-12692524D02*
X13575599Y-12683000D01*
X13575599Y-12683000D02*
X13566075Y-12673476D01*
X13566075Y-12673476D02*
X13556552Y-12654429D01*
X13556552Y-12654429D02*
X13547028Y-12616333D01*
X13547028Y-12616333D02*
X13547028Y-12568714D01*
X13547028Y-12568714D02*
X13556552Y-12530619D01*
X13556552Y-12530619D02*
X13566075Y-12511571D01*
X13566075Y-12511571D02*
X13575599Y-12502048D01*
X13575599Y-12502048D02*
X13594647Y-12492524D01*
X13727980Y-12492524D02*
X13851790Y-12492524D01*
X13851790Y-12492524D02*
X13785123Y-12568714D01*
X13785123Y-12568714D02*
X13813694Y-12568714D01*
X13813694Y-12568714D02*
X13832742Y-12578238D01*
X13832742Y-12578238D02*
X13842266Y-12587762D01*
X13842266Y-12587762D02*
X13851790Y-12606810D01*
X13851790Y-12606810D02*
X13851790Y-12654429D01*
X13851790Y-12654429D02*
X13842266Y-12673476D01*
X13842266Y-12673476D02*
X13832742Y-12683000D01*
X13832742Y-12683000D02*
X13813694Y-12692524D01*
X13813694Y-12692524D02*
X13756552Y-12692524D01*
X13756552Y-12692524D02*
X13737504Y-12683000D01*
X13737504Y-12683000D02*
X13727980Y-12673476D01*
X13947028Y-12692524D02*
X13985123Y-12692524D01*
X13985123Y-12692524D02*
X14004171Y-12683000D01*
X14004171Y-12683000D02*
X14013694Y-12673476D01*
X14013694Y-12673476D02*
X14032742Y-12644905D01*
X14032742Y-12644905D02*
X14042266Y-12606810D01*
X14042266Y-12606810D02*
X14042266Y-12530619D01*
X14042266Y-12530619D02*
X14032742Y-12511571D01*
X14032742Y-12511571D02*
X14023218Y-12502048D01*
X14023218Y-12502048D02*
X14004171Y-12492524D01*
X14004171Y-12492524D02*
X13966075Y-12492524D01*
X13966075Y-12492524D02*
X13947028Y-12502048D01*
X13947028Y-12502048D02*
X13937504Y-12511571D01*
X13937504Y-12511571D02*
X13927980Y-12530619D01*
X13927980Y-12530619D02*
X13927980Y-12578238D01*
X13927980Y-12578238D02*
X13937504Y-12597286D01*
X13937504Y-12597286D02*
X13947028Y-12606810D01*
X13947028Y-12606810D02*
X13966075Y-12616333D01*
X13966075Y-12616333D02*
X14004171Y-12616333D01*
X14004171Y-12616333D02*
X14023218Y-12606810D01*
X14023218Y-12606810D02*
X14032742Y-12597286D01*
X14032742Y-12597286D02*
X14042266Y-12578238D01*
X14213694Y-12559190D02*
X14213694Y-12692524D01*
X14166075Y-12483000D02*
X14118456Y-12625857D01*
X14118456Y-12625857D02*
X14242266Y-12625857D01*
X14308933Y-12492524D02*
X14308933Y-12530619D01*
X14385123Y-12492524D02*
X14385123Y-12530619D01*
X14680361Y-12768714D02*
X14670837Y-12759190D01*
X14670837Y-12759190D02*
X14651790Y-12730619D01*
X14651790Y-12730619D02*
X14642266Y-12711571D01*
X14642266Y-12711571D02*
X14632742Y-12683000D01*
X14632742Y-12683000D02*
X14623218Y-12635381D01*
X14623218Y-12635381D02*
X14623218Y-12597286D01*
X14623218Y-12597286D02*
X14632742Y-12549667D01*
X14632742Y-12549667D02*
X14642266Y-12521095D01*
X14642266Y-12521095D02*
X14651790Y-12502048D01*
X14651790Y-12502048D02*
X14670837Y-12473476D01*
X14670837Y-12473476D02*
X14680361Y-12463952D01*
X14842266Y-12559190D02*
X14842266Y-12692524D01*
X14794647Y-12483000D02*
X14747028Y-12625857D01*
X14747028Y-12625857D02*
X14870837Y-12625857D01*
X15099409Y-12692524D02*
X15099409Y-12492524D01*
X15185123Y-12692524D02*
X15185123Y-12587762D01*
X15185123Y-12587762D02*
X15175599Y-12568714D01*
X15175599Y-12568714D02*
X15156552Y-12559190D01*
X15156552Y-12559190D02*
X15127980Y-12559190D01*
X15127980Y-12559190D02*
X15108933Y-12568714D01*
X15108933Y-12568714D02*
X15099409Y-12578238D01*
X15308933Y-12692524D02*
X15289885Y-12683000D01*
X15289885Y-12683000D02*
X15280361Y-12673476D01*
X15280361Y-12673476D02*
X15270837Y-12654429D01*
X15270837Y-12654429D02*
X15270837Y-12597286D01*
X15270837Y-12597286D02*
X15280361Y-12578238D01*
X15280361Y-12578238D02*
X15289885Y-12568714D01*
X15289885Y-12568714D02*
X15308933Y-12559190D01*
X15308933Y-12559190D02*
X15337504Y-12559190D01*
X15337504Y-12559190D02*
X15356552Y-12568714D01*
X15356552Y-12568714D02*
X15366076Y-12578238D01*
X15366076Y-12578238D02*
X15375599Y-12597286D01*
X15375599Y-12597286D02*
X15375599Y-12654429D01*
X15375599Y-12654429D02*
X15366076Y-12673476D01*
X15366076Y-12673476D02*
X15356552Y-12683000D01*
X15356552Y-12683000D02*
X15337504Y-12692524D01*
X15337504Y-12692524D02*
X15308933Y-12692524D01*
X15489885Y-12692524D02*
X15470837Y-12683000D01*
X15470837Y-12683000D02*
X15461314Y-12663952D01*
X15461314Y-12663952D02*
X15461314Y-12492524D01*
X15642266Y-12683000D02*
X15623218Y-12692524D01*
X15623218Y-12692524D02*
X15585123Y-12692524D01*
X15585123Y-12692524D02*
X15566076Y-12683000D01*
X15566076Y-12683000D02*
X15556552Y-12663952D01*
X15556552Y-12663952D02*
X15556552Y-12587762D01*
X15556552Y-12587762D02*
X15566076Y-12568714D01*
X15566076Y-12568714D02*
X15585123Y-12559190D01*
X15585123Y-12559190D02*
X15623218Y-12559190D01*
X15623218Y-12559190D02*
X15642266Y-12568714D01*
X15642266Y-12568714D02*
X15651790Y-12587762D01*
X15651790Y-12587762D02*
X15651790Y-12606810D01*
X15651790Y-12606810D02*
X15556552Y-12625857D01*
X15727980Y-12683000D02*
X15747028Y-12692524D01*
X15747028Y-12692524D02*
X15785123Y-12692524D01*
X15785123Y-12692524D02*
X15804171Y-12683000D01*
X15804171Y-12683000D02*
X15813695Y-12663952D01*
X15813695Y-12663952D02*
X15813695Y-12654429D01*
X15813695Y-12654429D02*
X15804171Y-12635381D01*
X15804171Y-12635381D02*
X15785123Y-12625857D01*
X15785123Y-12625857D02*
X15756552Y-12625857D01*
X15756552Y-12625857D02*
X15737504Y-12616333D01*
X15737504Y-12616333D02*
X15727980Y-12597286D01*
X15727980Y-12597286D02*
X15727980Y-12587762D01*
X15727980Y-12587762D02*
X15737504Y-12568714D01*
X15737504Y-12568714D02*
X15756552Y-12559190D01*
X15756552Y-12559190D02*
X15785123Y-12559190D01*
X15785123Y-12559190D02*
X15804171Y-12568714D01*
X15880361Y-12768714D02*
X15889885Y-12759190D01*
X15889885Y-12759190D02*
X15908933Y-12730619D01*
X15908933Y-12730619D02*
X15918457Y-12711571D01*
X15918457Y-12711571D02*
X15927980Y-12683000D01*
X15927980Y-12683000D02*
X15937504Y-12635381D01*
X15937504Y-12635381D02*
X15937504Y-12597286D01*
X15937504Y-12597286D02*
X15927980Y-12549667D01*
X15927980Y-12549667D02*
X15918457Y-12521095D01*
X15918457Y-12521095D02*
X15908933Y-12502048D01*
X15908933Y-12502048D02*
X15889885Y-12473476D01*
X15889885Y-12473476D02*
X15880361Y-12463952D01*
D12*
X11118456Y-12864000D02*
G75*
G03*
X11118456Y-12864000I-60000J0D01*
G01*
D10*
X11470837Y-12956524D02*
X11356551Y-12956524D01*
X11413694Y-12956524D02*
X11413694Y-12756524D01*
X11413694Y-12756524D02*
X11394647Y-12785095D01*
X11394647Y-12785095D02*
X11375599Y-12804143D01*
X11375599Y-12804143D02*
X11356551Y-12813667D01*
X11556551Y-12937476D02*
X11566075Y-12947000D01*
X11566075Y-12947000D02*
X11556551Y-12956524D01*
X11556551Y-12956524D02*
X11547028Y-12947000D01*
X11547028Y-12947000D02*
X11556551Y-12937476D01*
X11556551Y-12937476D02*
X11556551Y-12956524D01*
X11642266Y-12775571D02*
X11651789Y-12766048D01*
X11651789Y-12766048D02*
X11670837Y-12756524D01*
X11670837Y-12756524D02*
X11718456Y-12756524D01*
X11718456Y-12756524D02*
X11737504Y-12766048D01*
X11737504Y-12766048D02*
X11747028Y-12775571D01*
X11747028Y-12775571D02*
X11756551Y-12794619D01*
X11756551Y-12794619D02*
X11756551Y-12813667D01*
X11756551Y-12813667D02*
X11747028Y-12842238D01*
X11747028Y-12842238D02*
X11632742Y-12956524D01*
X11632742Y-12956524D02*
X11756551Y-12956524D01*
X11880361Y-12756524D02*
X11899409Y-12756524D01*
X11899409Y-12756524D02*
X11918456Y-12766048D01*
X11918456Y-12766048D02*
X11927980Y-12775571D01*
X11927980Y-12775571D02*
X11937504Y-12794619D01*
X11937504Y-12794619D02*
X11947028Y-12832714D01*
X11947028Y-12832714D02*
X11947028Y-12880333D01*
X11947028Y-12880333D02*
X11937504Y-12918429D01*
X11937504Y-12918429D02*
X11927980Y-12937476D01*
X11927980Y-12937476D02*
X11918456Y-12947000D01*
X11918456Y-12947000D02*
X11899409Y-12956524D01*
X11899409Y-12956524D02*
X11880361Y-12956524D01*
X11880361Y-12956524D02*
X11861313Y-12947000D01*
X11861313Y-12947000D02*
X11851789Y-12937476D01*
X11851789Y-12937476D02*
X11842266Y-12918429D01*
X11842266Y-12918429D02*
X11832742Y-12880333D01*
X11832742Y-12880333D02*
X11832742Y-12832714D01*
X11832742Y-12832714D02*
X11842266Y-12794619D01*
X11842266Y-12794619D02*
X11851789Y-12775571D01*
X11851789Y-12775571D02*
X11861313Y-12766048D01*
X11861313Y-12766048D02*
X11880361Y-12756524D01*
X12070837Y-12756524D02*
X12089885Y-12756524D01*
X12089885Y-12756524D02*
X12108932Y-12766048D01*
X12108932Y-12766048D02*
X12118456Y-12775571D01*
X12118456Y-12775571D02*
X12127980Y-12794619D01*
X12127980Y-12794619D02*
X12137504Y-12832714D01*
X12137504Y-12832714D02*
X12137504Y-12880333D01*
X12137504Y-12880333D02*
X12127980Y-12918429D01*
X12127980Y-12918429D02*
X12118456Y-12937476D01*
X12118456Y-12937476D02*
X12108932Y-12947000D01*
X12108932Y-12947000D02*
X12089885Y-12956524D01*
X12089885Y-12956524D02*
X12070837Y-12956524D01*
X12070837Y-12956524D02*
X12051789Y-12947000D01*
X12051789Y-12947000D02*
X12042266Y-12937476D01*
X12042266Y-12937476D02*
X12032742Y-12918429D01*
X12032742Y-12918429D02*
X12023218Y-12880333D01*
X12023218Y-12880333D02*
X12023218Y-12832714D01*
X12023218Y-12832714D02*
X12032742Y-12794619D01*
X12032742Y-12794619D02*
X12042266Y-12775571D01*
X12042266Y-12775571D02*
X12051789Y-12766048D01*
X12051789Y-12766048D02*
X12070837Y-12756524D01*
X12223218Y-12956524D02*
X12223218Y-12823190D01*
X12223218Y-12842238D02*
X12232742Y-12832714D01*
X12232742Y-12832714D02*
X12251789Y-12823190D01*
X12251789Y-12823190D02*
X12280361Y-12823190D01*
X12280361Y-12823190D02*
X12299409Y-12832714D01*
X12299409Y-12832714D02*
X12308932Y-12851762D01*
X12308932Y-12851762D02*
X12308932Y-12956524D01*
X12308932Y-12851762D02*
X12318456Y-12832714D01*
X12318456Y-12832714D02*
X12337504Y-12823190D01*
X12337504Y-12823190D02*
X12366075Y-12823190D01*
X12366075Y-12823190D02*
X12385123Y-12832714D01*
X12385123Y-12832714D02*
X12394647Y-12851762D01*
X12394647Y-12851762D02*
X12394647Y-12956524D01*
X12489885Y-12956524D02*
X12489885Y-12823190D01*
X12489885Y-12842238D02*
X12499409Y-12832714D01*
X12499409Y-12832714D02*
X12518456Y-12823190D01*
X12518456Y-12823190D02*
X12547028Y-12823190D01*
X12547028Y-12823190D02*
X12566075Y-12832714D01*
X12566075Y-12832714D02*
X12575599Y-12851762D01*
X12575599Y-12851762D02*
X12575599Y-12956524D01*
X12575599Y-12851762D02*
X12585123Y-12832714D01*
X12585123Y-12832714D02*
X12604170Y-12823190D01*
X12604170Y-12823190D02*
X12632742Y-12823190D01*
X12632742Y-12823190D02*
X12651790Y-12832714D01*
X12651790Y-12832714D02*
X12661313Y-12851762D01*
X12661313Y-12851762D02*
X12661313Y-12956524D01*
X13051790Y-12747000D02*
X12880361Y-13004143D01*
X13308932Y-12756524D02*
X13327980Y-12756524D01*
X13327980Y-12756524D02*
X13347028Y-12766048D01*
X13347028Y-12766048D02*
X13356552Y-12775571D01*
X13356552Y-12775571D02*
X13366075Y-12794619D01*
X13366075Y-12794619D02*
X13375599Y-12832714D01*
X13375599Y-12832714D02*
X13375599Y-12880333D01*
X13375599Y-12880333D02*
X13366075Y-12918429D01*
X13366075Y-12918429D02*
X13356552Y-12937476D01*
X13356552Y-12937476D02*
X13347028Y-12947000D01*
X13347028Y-12947000D02*
X13327980Y-12956524D01*
X13327980Y-12956524D02*
X13308932Y-12956524D01*
X13308932Y-12956524D02*
X13289885Y-12947000D01*
X13289885Y-12947000D02*
X13280361Y-12937476D01*
X13280361Y-12937476D02*
X13270837Y-12918429D01*
X13270837Y-12918429D02*
X13261313Y-12880333D01*
X13261313Y-12880333D02*
X13261313Y-12832714D01*
X13261313Y-12832714D02*
X13270837Y-12794619D01*
X13270837Y-12794619D02*
X13280361Y-12775571D01*
X13280361Y-12775571D02*
X13289885Y-12766048D01*
X13289885Y-12766048D02*
X13308932Y-12756524D01*
X13461313Y-12937476D02*
X13470837Y-12947000D01*
X13470837Y-12947000D02*
X13461313Y-12956524D01*
X13461313Y-12956524D02*
X13451790Y-12947000D01*
X13451790Y-12947000D02*
X13461313Y-12937476D01*
X13461313Y-12937476D02*
X13461313Y-12956524D01*
X13594647Y-12756524D02*
X13613694Y-12756524D01*
X13613694Y-12756524D02*
X13632742Y-12766048D01*
X13632742Y-12766048D02*
X13642266Y-12775571D01*
X13642266Y-12775571D02*
X13651790Y-12794619D01*
X13651790Y-12794619D02*
X13661313Y-12832714D01*
X13661313Y-12832714D02*
X13661313Y-12880333D01*
X13661313Y-12880333D02*
X13651790Y-12918429D01*
X13651790Y-12918429D02*
X13642266Y-12937476D01*
X13642266Y-12937476D02*
X13632742Y-12947000D01*
X13632742Y-12947000D02*
X13613694Y-12956524D01*
X13613694Y-12956524D02*
X13594647Y-12956524D01*
X13594647Y-12956524D02*
X13575599Y-12947000D01*
X13575599Y-12947000D02*
X13566075Y-12937476D01*
X13566075Y-12937476D02*
X13556552Y-12918429D01*
X13556552Y-12918429D02*
X13547028Y-12880333D01*
X13547028Y-12880333D02*
X13547028Y-12832714D01*
X13547028Y-12832714D02*
X13556552Y-12794619D01*
X13556552Y-12794619D02*
X13566075Y-12775571D01*
X13566075Y-12775571D02*
X13575599Y-12766048D01*
X13575599Y-12766048D02*
X13594647Y-12756524D01*
X13832742Y-12823190D02*
X13832742Y-12956524D01*
X13785123Y-12747000D02*
X13737504Y-12889857D01*
X13737504Y-12889857D02*
X13861313Y-12889857D01*
X13918456Y-12756524D02*
X14051790Y-12756524D01*
X14051790Y-12756524D02*
X13966075Y-12956524D01*
X14118456Y-12775571D02*
X14127980Y-12766048D01*
X14127980Y-12766048D02*
X14147028Y-12756524D01*
X14147028Y-12756524D02*
X14194647Y-12756524D01*
X14194647Y-12756524D02*
X14213694Y-12766048D01*
X14213694Y-12766048D02*
X14223218Y-12775571D01*
X14223218Y-12775571D02*
X14232742Y-12794619D01*
X14232742Y-12794619D02*
X14232742Y-12813667D01*
X14232742Y-12813667D02*
X14223218Y-12842238D01*
X14223218Y-12842238D02*
X14108933Y-12956524D01*
X14108933Y-12956524D02*
X14232742Y-12956524D01*
X14308933Y-12756524D02*
X14308933Y-12794619D01*
X14385123Y-12756524D02*
X14385123Y-12794619D01*
X14680361Y-13032714D02*
X14670837Y-13023190D01*
X14670837Y-13023190D02*
X14651790Y-12994619D01*
X14651790Y-12994619D02*
X14642266Y-12975571D01*
X14642266Y-12975571D02*
X14632742Y-12947000D01*
X14632742Y-12947000D02*
X14623218Y-12899381D01*
X14623218Y-12899381D02*
X14623218Y-12861286D01*
X14623218Y-12861286D02*
X14632742Y-12813667D01*
X14632742Y-12813667D02*
X14642266Y-12785095D01*
X14642266Y-12785095D02*
X14651790Y-12766048D01*
X14651790Y-12766048D02*
X14670837Y-12737476D01*
X14670837Y-12737476D02*
X14680361Y-12727952D01*
X14785123Y-12842238D02*
X14766075Y-12832714D01*
X14766075Y-12832714D02*
X14756552Y-12823190D01*
X14756552Y-12823190D02*
X14747028Y-12804143D01*
X14747028Y-12804143D02*
X14747028Y-12794619D01*
X14747028Y-12794619D02*
X14756552Y-12775571D01*
X14756552Y-12775571D02*
X14766075Y-12766048D01*
X14766075Y-12766048D02*
X14785123Y-12756524D01*
X14785123Y-12756524D02*
X14823218Y-12756524D01*
X14823218Y-12756524D02*
X14842266Y-12766048D01*
X14842266Y-12766048D02*
X14851790Y-12775571D01*
X14851790Y-12775571D02*
X14861314Y-12794619D01*
X14861314Y-12794619D02*
X14861314Y-12804143D01*
X14861314Y-12804143D02*
X14851790Y-12823190D01*
X14851790Y-12823190D02*
X14842266Y-12832714D01*
X14842266Y-12832714D02*
X14823218Y-12842238D01*
X14823218Y-12842238D02*
X14785123Y-12842238D01*
X14785123Y-12842238D02*
X14766075Y-12851762D01*
X14766075Y-12851762D02*
X14756552Y-12861286D01*
X14756552Y-12861286D02*
X14747028Y-12880333D01*
X14747028Y-12880333D02*
X14747028Y-12918429D01*
X14747028Y-12918429D02*
X14756552Y-12937476D01*
X14756552Y-12937476D02*
X14766075Y-12947000D01*
X14766075Y-12947000D02*
X14785123Y-12956524D01*
X14785123Y-12956524D02*
X14823218Y-12956524D01*
X14823218Y-12956524D02*
X14842266Y-12947000D01*
X14842266Y-12947000D02*
X14851790Y-12937476D01*
X14851790Y-12937476D02*
X14861314Y-12918429D01*
X14861314Y-12918429D02*
X14861314Y-12880333D01*
X14861314Y-12880333D02*
X14851790Y-12861286D01*
X14851790Y-12861286D02*
X14842266Y-12851762D01*
X14842266Y-12851762D02*
X14823218Y-12842238D01*
X15099409Y-12956524D02*
X15099409Y-12756524D01*
X15185123Y-12956524D02*
X15185123Y-12851762D01*
X15185123Y-12851762D02*
X15175599Y-12832714D01*
X15175599Y-12832714D02*
X15156552Y-12823190D01*
X15156552Y-12823190D02*
X15127980Y-12823190D01*
X15127980Y-12823190D02*
X15108933Y-12832714D01*
X15108933Y-12832714D02*
X15099409Y-12842238D01*
X15308933Y-12956524D02*
X15289885Y-12947000D01*
X15289885Y-12947000D02*
X15280361Y-12937476D01*
X15280361Y-12937476D02*
X15270837Y-12918429D01*
X15270837Y-12918429D02*
X15270837Y-12861286D01*
X15270837Y-12861286D02*
X15280361Y-12842238D01*
X15280361Y-12842238D02*
X15289885Y-12832714D01*
X15289885Y-12832714D02*
X15308933Y-12823190D01*
X15308933Y-12823190D02*
X15337504Y-12823190D01*
X15337504Y-12823190D02*
X15356552Y-12832714D01*
X15356552Y-12832714D02*
X15366076Y-12842238D01*
X15366076Y-12842238D02*
X15375599Y-12861286D01*
X15375599Y-12861286D02*
X15375599Y-12918429D01*
X15375599Y-12918429D02*
X15366076Y-12937476D01*
X15366076Y-12937476D02*
X15356552Y-12947000D01*
X15356552Y-12947000D02*
X15337504Y-12956524D01*
X15337504Y-12956524D02*
X15308933Y-12956524D01*
X15489885Y-12956524D02*
X15470837Y-12947000D01*
X15470837Y-12947000D02*
X15461314Y-12927952D01*
X15461314Y-12927952D02*
X15461314Y-12756524D01*
X15642266Y-12947000D02*
X15623218Y-12956524D01*
X15623218Y-12956524D02*
X15585123Y-12956524D01*
X15585123Y-12956524D02*
X15566076Y-12947000D01*
X15566076Y-12947000D02*
X15556552Y-12927952D01*
X15556552Y-12927952D02*
X15556552Y-12851762D01*
X15556552Y-12851762D02*
X15566076Y-12832714D01*
X15566076Y-12832714D02*
X15585123Y-12823190D01*
X15585123Y-12823190D02*
X15623218Y-12823190D01*
X15623218Y-12823190D02*
X15642266Y-12832714D01*
X15642266Y-12832714D02*
X15651790Y-12851762D01*
X15651790Y-12851762D02*
X15651790Y-12870810D01*
X15651790Y-12870810D02*
X15556552Y-12889857D01*
X15727980Y-12947000D02*
X15747028Y-12956524D01*
X15747028Y-12956524D02*
X15785123Y-12956524D01*
X15785123Y-12956524D02*
X15804171Y-12947000D01*
X15804171Y-12947000D02*
X15813695Y-12927952D01*
X15813695Y-12927952D02*
X15813695Y-12918429D01*
X15813695Y-12918429D02*
X15804171Y-12899381D01*
X15804171Y-12899381D02*
X15785123Y-12889857D01*
X15785123Y-12889857D02*
X15756552Y-12889857D01*
X15756552Y-12889857D02*
X15737504Y-12880333D01*
X15737504Y-12880333D02*
X15727980Y-12861286D01*
X15727980Y-12861286D02*
X15727980Y-12851762D01*
X15727980Y-12851762D02*
X15737504Y-12832714D01*
X15737504Y-12832714D02*
X15756552Y-12823190D01*
X15756552Y-12823190D02*
X15785123Y-12823190D01*
X15785123Y-12823190D02*
X15804171Y-12832714D01*
X15880361Y-13032714D02*
X15889885Y-13023190D01*
X15889885Y-13023190D02*
X15908933Y-12994619D01*
X15908933Y-12994619D02*
X15918457Y-12975571D01*
X15918457Y-12975571D02*
X15927980Y-12947000D01*
X15927980Y-12947000D02*
X15937504Y-12899381D01*
X15937504Y-12899381D02*
X15937504Y-12861286D01*
X15937504Y-12861286D02*
X15927980Y-12813667D01*
X15927980Y-12813667D02*
X15918457Y-12785095D01*
X15918457Y-12785095D02*
X15908933Y-12766048D01*
X15908933Y-12766048D02*
X15889885Y-12737476D01*
X15889885Y-12737476D02*
X15880361Y-12727952D01*
X11018456Y-13028000D02*
X11018456Y-13228000D01*
X10918456Y-13128000D02*
X11118456Y-13128000D01*
X11356551Y-13039571D02*
X11366075Y-13030048D01*
X11366075Y-13030048D02*
X11385123Y-13020524D01*
X11385123Y-13020524D02*
X11432742Y-13020524D01*
X11432742Y-13020524D02*
X11451789Y-13030048D01*
X11451789Y-13030048D02*
X11461313Y-13039571D01*
X11461313Y-13039571D02*
X11470837Y-13058619D01*
X11470837Y-13058619D02*
X11470837Y-13077667D01*
X11470837Y-13077667D02*
X11461313Y-13106238D01*
X11461313Y-13106238D02*
X11347028Y-13220524D01*
X11347028Y-13220524D02*
X11470837Y-13220524D01*
X11556551Y-13201476D02*
X11566075Y-13211000D01*
X11566075Y-13211000D02*
X11556551Y-13220524D01*
X11556551Y-13220524D02*
X11547028Y-13211000D01*
X11547028Y-13211000D02*
X11556551Y-13201476D01*
X11556551Y-13201476D02*
X11556551Y-13220524D01*
X11642266Y-13039571D02*
X11651789Y-13030048D01*
X11651789Y-13030048D02*
X11670837Y-13020524D01*
X11670837Y-13020524D02*
X11718456Y-13020524D01*
X11718456Y-13020524D02*
X11737504Y-13030048D01*
X11737504Y-13030048D02*
X11747028Y-13039571D01*
X11747028Y-13039571D02*
X11756551Y-13058619D01*
X11756551Y-13058619D02*
X11756551Y-13077667D01*
X11756551Y-13077667D02*
X11747028Y-13106238D01*
X11747028Y-13106238D02*
X11632742Y-13220524D01*
X11632742Y-13220524D02*
X11756551Y-13220524D01*
X11880361Y-13020524D02*
X11899409Y-13020524D01*
X11899409Y-13020524D02*
X11918456Y-13030048D01*
X11918456Y-13030048D02*
X11927980Y-13039571D01*
X11927980Y-13039571D02*
X11937504Y-13058619D01*
X11937504Y-13058619D02*
X11947028Y-13096714D01*
X11947028Y-13096714D02*
X11947028Y-13144333D01*
X11947028Y-13144333D02*
X11937504Y-13182429D01*
X11937504Y-13182429D02*
X11927980Y-13201476D01*
X11927980Y-13201476D02*
X11918456Y-13211000D01*
X11918456Y-13211000D02*
X11899409Y-13220524D01*
X11899409Y-13220524D02*
X11880361Y-13220524D01*
X11880361Y-13220524D02*
X11861313Y-13211000D01*
X11861313Y-13211000D02*
X11851789Y-13201476D01*
X11851789Y-13201476D02*
X11842266Y-13182429D01*
X11842266Y-13182429D02*
X11832742Y-13144333D01*
X11832742Y-13144333D02*
X11832742Y-13096714D01*
X11832742Y-13096714D02*
X11842266Y-13058619D01*
X11842266Y-13058619D02*
X11851789Y-13039571D01*
X11851789Y-13039571D02*
X11861313Y-13030048D01*
X11861313Y-13030048D02*
X11880361Y-13020524D01*
X12070837Y-13020524D02*
X12089885Y-13020524D01*
X12089885Y-13020524D02*
X12108932Y-13030048D01*
X12108932Y-13030048D02*
X12118456Y-13039571D01*
X12118456Y-13039571D02*
X12127980Y-13058619D01*
X12127980Y-13058619D02*
X12137504Y-13096714D01*
X12137504Y-13096714D02*
X12137504Y-13144333D01*
X12137504Y-13144333D02*
X12127980Y-13182429D01*
X12127980Y-13182429D02*
X12118456Y-13201476D01*
X12118456Y-13201476D02*
X12108932Y-13211000D01*
X12108932Y-13211000D02*
X12089885Y-13220524D01*
X12089885Y-13220524D02*
X12070837Y-13220524D01*
X12070837Y-13220524D02*
X12051789Y-13211000D01*
X12051789Y-13211000D02*
X12042266Y-13201476D01*
X12042266Y-13201476D02*
X12032742Y-13182429D01*
X12032742Y-13182429D02*
X12023218Y-13144333D01*
X12023218Y-13144333D02*
X12023218Y-13096714D01*
X12023218Y-13096714D02*
X12032742Y-13058619D01*
X12032742Y-13058619D02*
X12042266Y-13039571D01*
X12042266Y-13039571D02*
X12051789Y-13030048D01*
X12051789Y-13030048D02*
X12070837Y-13020524D01*
X12223218Y-13220524D02*
X12223218Y-13087190D01*
X12223218Y-13106238D02*
X12232742Y-13096714D01*
X12232742Y-13096714D02*
X12251789Y-13087190D01*
X12251789Y-13087190D02*
X12280361Y-13087190D01*
X12280361Y-13087190D02*
X12299409Y-13096714D01*
X12299409Y-13096714D02*
X12308932Y-13115762D01*
X12308932Y-13115762D02*
X12308932Y-13220524D01*
X12308932Y-13115762D02*
X12318456Y-13096714D01*
X12318456Y-13096714D02*
X12337504Y-13087190D01*
X12337504Y-13087190D02*
X12366075Y-13087190D01*
X12366075Y-13087190D02*
X12385123Y-13096714D01*
X12385123Y-13096714D02*
X12394647Y-13115762D01*
X12394647Y-13115762D02*
X12394647Y-13220524D01*
X12489885Y-13220524D02*
X12489885Y-13087190D01*
X12489885Y-13106238D02*
X12499409Y-13096714D01*
X12499409Y-13096714D02*
X12518456Y-13087190D01*
X12518456Y-13087190D02*
X12547028Y-13087190D01*
X12547028Y-13087190D02*
X12566075Y-13096714D01*
X12566075Y-13096714D02*
X12575599Y-13115762D01*
X12575599Y-13115762D02*
X12575599Y-13220524D01*
X12575599Y-13115762D02*
X12585123Y-13096714D01*
X12585123Y-13096714D02*
X12604170Y-13087190D01*
X12604170Y-13087190D02*
X12632742Y-13087190D01*
X12632742Y-13087190D02*
X12651790Y-13096714D01*
X12651790Y-13096714D02*
X12661313Y-13115762D01*
X12661313Y-13115762D02*
X12661313Y-13220524D01*
X13051790Y-13011000D02*
X12880361Y-13268143D01*
X13308932Y-13020524D02*
X13327980Y-13020524D01*
X13327980Y-13020524D02*
X13347028Y-13030048D01*
X13347028Y-13030048D02*
X13356552Y-13039571D01*
X13356552Y-13039571D02*
X13366075Y-13058619D01*
X13366075Y-13058619D02*
X13375599Y-13096714D01*
X13375599Y-13096714D02*
X13375599Y-13144333D01*
X13375599Y-13144333D02*
X13366075Y-13182429D01*
X13366075Y-13182429D02*
X13356552Y-13201476D01*
X13356552Y-13201476D02*
X13347028Y-13211000D01*
X13347028Y-13211000D02*
X13327980Y-13220524D01*
X13327980Y-13220524D02*
X13308932Y-13220524D01*
X13308932Y-13220524D02*
X13289885Y-13211000D01*
X13289885Y-13211000D02*
X13280361Y-13201476D01*
X13280361Y-13201476D02*
X13270837Y-13182429D01*
X13270837Y-13182429D02*
X13261313Y-13144333D01*
X13261313Y-13144333D02*
X13261313Y-13096714D01*
X13261313Y-13096714D02*
X13270837Y-13058619D01*
X13270837Y-13058619D02*
X13280361Y-13039571D01*
X13280361Y-13039571D02*
X13289885Y-13030048D01*
X13289885Y-13030048D02*
X13308932Y-13020524D01*
X13461313Y-13201476D02*
X13470837Y-13211000D01*
X13470837Y-13211000D02*
X13461313Y-13220524D01*
X13461313Y-13220524D02*
X13451790Y-13211000D01*
X13451790Y-13211000D02*
X13461313Y-13201476D01*
X13461313Y-13201476D02*
X13461313Y-13220524D01*
X13594647Y-13020524D02*
X13613694Y-13020524D01*
X13613694Y-13020524D02*
X13632742Y-13030048D01*
X13632742Y-13030048D02*
X13642266Y-13039571D01*
X13642266Y-13039571D02*
X13651790Y-13058619D01*
X13651790Y-13058619D02*
X13661313Y-13096714D01*
X13661313Y-13096714D02*
X13661313Y-13144333D01*
X13661313Y-13144333D02*
X13651790Y-13182429D01*
X13651790Y-13182429D02*
X13642266Y-13201476D01*
X13642266Y-13201476D02*
X13632742Y-13211000D01*
X13632742Y-13211000D02*
X13613694Y-13220524D01*
X13613694Y-13220524D02*
X13594647Y-13220524D01*
X13594647Y-13220524D02*
X13575599Y-13211000D01*
X13575599Y-13211000D02*
X13566075Y-13201476D01*
X13566075Y-13201476D02*
X13556552Y-13182429D01*
X13556552Y-13182429D02*
X13547028Y-13144333D01*
X13547028Y-13144333D02*
X13547028Y-13096714D01*
X13547028Y-13096714D02*
X13556552Y-13058619D01*
X13556552Y-13058619D02*
X13566075Y-13039571D01*
X13566075Y-13039571D02*
X13575599Y-13030048D01*
X13575599Y-13030048D02*
X13594647Y-13020524D01*
X13775599Y-13106238D02*
X13756552Y-13096714D01*
X13756552Y-13096714D02*
X13747028Y-13087190D01*
X13747028Y-13087190D02*
X13737504Y-13068143D01*
X13737504Y-13068143D02*
X13737504Y-13058619D01*
X13737504Y-13058619D02*
X13747028Y-13039571D01*
X13747028Y-13039571D02*
X13756552Y-13030048D01*
X13756552Y-13030048D02*
X13775599Y-13020524D01*
X13775599Y-13020524D02*
X13813694Y-13020524D01*
X13813694Y-13020524D02*
X13832742Y-13030048D01*
X13832742Y-13030048D02*
X13842266Y-13039571D01*
X13842266Y-13039571D02*
X13851790Y-13058619D01*
X13851790Y-13058619D02*
X13851790Y-13068143D01*
X13851790Y-13068143D02*
X13842266Y-13087190D01*
X13842266Y-13087190D02*
X13832742Y-13096714D01*
X13832742Y-13096714D02*
X13813694Y-13106238D01*
X13813694Y-13106238D02*
X13775599Y-13106238D01*
X13775599Y-13106238D02*
X13756552Y-13115762D01*
X13756552Y-13115762D02*
X13747028Y-13125286D01*
X13747028Y-13125286D02*
X13737504Y-13144333D01*
X13737504Y-13144333D02*
X13737504Y-13182429D01*
X13737504Y-13182429D02*
X13747028Y-13201476D01*
X13747028Y-13201476D02*
X13756552Y-13211000D01*
X13756552Y-13211000D02*
X13775599Y-13220524D01*
X13775599Y-13220524D02*
X13813694Y-13220524D01*
X13813694Y-13220524D02*
X13832742Y-13211000D01*
X13832742Y-13211000D02*
X13842266Y-13201476D01*
X13842266Y-13201476D02*
X13851790Y-13182429D01*
X13851790Y-13182429D02*
X13851790Y-13144333D01*
X13851790Y-13144333D02*
X13842266Y-13125286D01*
X13842266Y-13125286D02*
X13832742Y-13115762D01*
X13832742Y-13115762D02*
X13813694Y-13106238D01*
X14023218Y-13020524D02*
X13985123Y-13020524D01*
X13985123Y-13020524D02*
X13966075Y-13030048D01*
X13966075Y-13030048D02*
X13956552Y-13039571D01*
X13956552Y-13039571D02*
X13937504Y-13068143D01*
X13937504Y-13068143D02*
X13927980Y-13106238D01*
X13927980Y-13106238D02*
X13927980Y-13182429D01*
X13927980Y-13182429D02*
X13937504Y-13201476D01*
X13937504Y-13201476D02*
X13947028Y-13211000D01*
X13947028Y-13211000D02*
X13966075Y-13220524D01*
X13966075Y-13220524D02*
X14004171Y-13220524D01*
X14004171Y-13220524D02*
X14023218Y-13211000D01*
X14023218Y-13211000D02*
X14032742Y-13201476D01*
X14032742Y-13201476D02*
X14042266Y-13182429D01*
X14042266Y-13182429D02*
X14042266Y-13134810D01*
X14042266Y-13134810D02*
X14032742Y-13115762D01*
X14032742Y-13115762D02*
X14023218Y-13106238D01*
X14023218Y-13106238D02*
X14004171Y-13096714D01*
X14004171Y-13096714D02*
X13966075Y-13096714D01*
X13966075Y-13096714D02*
X13947028Y-13106238D01*
X13947028Y-13106238D02*
X13937504Y-13115762D01*
X13937504Y-13115762D02*
X13927980Y-13134810D01*
X14213694Y-13020524D02*
X14175599Y-13020524D01*
X14175599Y-13020524D02*
X14156552Y-13030048D01*
X14156552Y-13030048D02*
X14147028Y-13039571D01*
X14147028Y-13039571D02*
X14127980Y-13068143D01*
X14127980Y-13068143D02*
X14118456Y-13106238D01*
X14118456Y-13106238D02*
X14118456Y-13182429D01*
X14118456Y-13182429D02*
X14127980Y-13201476D01*
X14127980Y-13201476D02*
X14137504Y-13211000D01*
X14137504Y-13211000D02*
X14156552Y-13220524D01*
X14156552Y-13220524D02*
X14194647Y-13220524D01*
X14194647Y-13220524D02*
X14213694Y-13211000D01*
X14213694Y-13211000D02*
X14223218Y-13201476D01*
X14223218Y-13201476D02*
X14232742Y-13182429D01*
X14232742Y-13182429D02*
X14232742Y-13134810D01*
X14232742Y-13134810D02*
X14223218Y-13115762D01*
X14223218Y-13115762D02*
X14213694Y-13106238D01*
X14213694Y-13106238D02*
X14194647Y-13096714D01*
X14194647Y-13096714D02*
X14156552Y-13096714D01*
X14156552Y-13096714D02*
X14137504Y-13106238D01*
X14137504Y-13106238D02*
X14127980Y-13115762D01*
X14127980Y-13115762D02*
X14118456Y-13134810D01*
X14308933Y-13020524D02*
X14308933Y-13058619D01*
X14385123Y-13020524D02*
X14385123Y-13058619D01*
X14680361Y-13296714D02*
X14670837Y-13287190D01*
X14670837Y-13287190D02*
X14651790Y-13258619D01*
X14651790Y-13258619D02*
X14642266Y-13239571D01*
X14642266Y-13239571D02*
X14632742Y-13211000D01*
X14632742Y-13211000D02*
X14623218Y-13163381D01*
X14623218Y-13163381D02*
X14623218Y-13125286D01*
X14623218Y-13125286D02*
X14632742Y-13077667D01*
X14632742Y-13077667D02*
X14642266Y-13049095D01*
X14642266Y-13049095D02*
X14651790Y-13030048D01*
X14651790Y-13030048D02*
X14670837Y-13001476D01*
X14670837Y-13001476D02*
X14680361Y-12991952D01*
X14842266Y-13087190D02*
X14842266Y-13220524D01*
X14794647Y-13011000D02*
X14747028Y-13153857D01*
X14747028Y-13153857D02*
X14870837Y-13153857D01*
X15099409Y-13220524D02*
X15099409Y-13020524D01*
X15185123Y-13220524D02*
X15185123Y-13115762D01*
X15185123Y-13115762D02*
X15175599Y-13096714D01*
X15175599Y-13096714D02*
X15156552Y-13087190D01*
X15156552Y-13087190D02*
X15127980Y-13087190D01*
X15127980Y-13087190D02*
X15108933Y-13096714D01*
X15108933Y-13096714D02*
X15099409Y-13106238D01*
X15308933Y-13220524D02*
X15289885Y-13211000D01*
X15289885Y-13211000D02*
X15280361Y-13201476D01*
X15280361Y-13201476D02*
X15270837Y-13182429D01*
X15270837Y-13182429D02*
X15270837Y-13125286D01*
X15270837Y-13125286D02*
X15280361Y-13106238D01*
X15280361Y-13106238D02*
X15289885Y-13096714D01*
X15289885Y-13096714D02*
X15308933Y-13087190D01*
X15308933Y-13087190D02*
X15337504Y-13087190D01*
X15337504Y-13087190D02*
X15356552Y-13096714D01*
X15356552Y-13096714D02*
X15366076Y-13106238D01*
X15366076Y-13106238D02*
X15375599Y-13125286D01*
X15375599Y-13125286D02*
X15375599Y-13182429D01*
X15375599Y-13182429D02*
X15366076Y-13201476D01*
X15366076Y-13201476D02*
X15356552Y-13211000D01*
X15356552Y-13211000D02*
X15337504Y-13220524D01*
X15337504Y-13220524D02*
X15308933Y-13220524D01*
X15489885Y-13220524D02*
X15470837Y-13211000D01*
X15470837Y-13211000D02*
X15461314Y-13191952D01*
X15461314Y-13191952D02*
X15461314Y-13020524D01*
X15642266Y-13211000D02*
X15623218Y-13220524D01*
X15623218Y-13220524D02*
X15585123Y-13220524D01*
X15585123Y-13220524D02*
X15566076Y-13211000D01*
X15566076Y-13211000D02*
X15556552Y-13191952D01*
X15556552Y-13191952D02*
X15556552Y-13115762D01*
X15556552Y-13115762D02*
X15566076Y-13096714D01*
X15566076Y-13096714D02*
X15585123Y-13087190D01*
X15585123Y-13087190D02*
X15623218Y-13087190D01*
X15623218Y-13087190D02*
X15642266Y-13096714D01*
X15642266Y-13096714D02*
X15651790Y-13115762D01*
X15651790Y-13115762D02*
X15651790Y-13134810D01*
X15651790Y-13134810D02*
X15556552Y-13153857D01*
X15727980Y-13211000D02*
X15747028Y-13220524D01*
X15747028Y-13220524D02*
X15785123Y-13220524D01*
X15785123Y-13220524D02*
X15804171Y-13211000D01*
X15804171Y-13211000D02*
X15813695Y-13191952D01*
X15813695Y-13191952D02*
X15813695Y-13182429D01*
X15813695Y-13182429D02*
X15804171Y-13163381D01*
X15804171Y-13163381D02*
X15785123Y-13153857D01*
X15785123Y-13153857D02*
X15756552Y-13153857D01*
X15756552Y-13153857D02*
X15737504Y-13144333D01*
X15737504Y-13144333D02*
X15727980Y-13125286D01*
X15727980Y-13125286D02*
X15727980Y-13115762D01*
X15727980Y-13115762D02*
X15737504Y-13096714D01*
X15737504Y-13096714D02*
X15756552Y-13087190D01*
X15756552Y-13087190D02*
X15785123Y-13087190D01*
X15785123Y-13087190D02*
X15804171Y-13096714D01*
X15880361Y-13296714D02*
X15889885Y-13287190D01*
X15889885Y-13287190D02*
X15908933Y-13258619D01*
X15908933Y-13258619D02*
X15918457Y-13239571D01*
X15918457Y-13239571D02*
X15927980Y-13211000D01*
X15927980Y-13211000D02*
X15937504Y-13163381D01*
X15937504Y-13163381D02*
X15937504Y-13125286D01*
X15937504Y-13125286D02*
X15927980Y-13077667D01*
X15927980Y-13077667D02*
X15918457Y-13049095D01*
X15918457Y-13049095D02*
X15908933Y-13030048D01*
X15908933Y-13030048D02*
X15889885Y-13001476D01*
X15889885Y-13001476D02*
X15880361Y-12991952D01*
X16242266Y-13296714D02*
X16232742Y-13287190D01*
X16232742Y-13287190D02*
X16213695Y-13258619D01*
X16213695Y-13258619D02*
X16204171Y-13239571D01*
X16204171Y-13239571D02*
X16194647Y-13211000D01*
X16194647Y-13211000D02*
X16185123Y-13163381D01*
X16185123Y-13163381D02*
X16185123Y-13125286D01*
X16185123Y-13125286D02*
X16194647Y-13077667D01*
X16194647Y-13077667D02*
X16204171Y-13049095D01*
X16204171Y-13049095D02*
X16213695Y-13030048D01*
X16213695Y-13030048D02*
X16232742Y-13001476D01*
X16232742Y-13001476D02*
X16242266Y-12991952D01*
X16318457Y-13087190D02*
X16318457Y-13220524D01*
X16318457Y-13106238D02*
X16327980Y-13096714D01*
X16327980Y-13096714D02*
X16347028Y-13087190D01*
X16347028Y-13087190D02*
X16375599Y-13087190D01*
X16375599Y-13087190D02*
X16394647Y-13096714D01*
X16394647Y-13096714D02*
X16404171Y-13115762D01*
X16404171Y-13115762D02*
X16404171Y-13220524D01*
X16527980Y-13220524D02*
X16508933Y-13211000D01*
X16508933Y-13211000D02*
X16499409Y-13201476D01*
X16499409Y-13201476D02*
X16489885Y-13182429D01*
X16489885Y-13182429D02*
X16489885Y-13125286D01*
X16489885Y-13125286D02*
X16499409Y-13106238D01*
X16499409Y-13106238D02*
X16508933Y-13096714D01*
X16508933Y-13096714D02*
X16527980Y-13087190D01*
X16527980Y-13087190D02*
X16556552Y-13087190D01*
X16556552Y-13087190D02*
X16575599Y-13096714D01*
X16575599Y-13096714D02*
X16585123Y-13106238D01*
X16585123Y-13106238D02*
X16594647Y-13125286D01*
X16594647Y-13125286D02*
X16594647Y-13182429D01*
X16594647Y-13182429D02*
X16585123Y-13201476D01*
X16585123Y-13201476D02*
X16575599Y-13211000D01*
X16575599Y-13211000D02*
X16556552Y-13220524D01*
X16556552Y-13220524D02*
X16527980Y-13220524D01*
X16651790Y-13087190D02*
X16727980Y-13087190D01*
X16680361Y-13020524D02*
X16680361Y-13191952D01*
X16680361Y-13191952D02*
X16689885Y-13211000D01*
X16689885Y-13211000D02*
X16708933Y-13220524D01*
X16708933Y-13220524D02*
X16727980Y-13220524D01*
X16947028Y-13087190D02*
X16947028Y-13287190D01*
X16947028Y-13096714D02*
X16966076Y-13087190D01*
X16966076Y-13087190D02*
X17004171Y-13087190D01*
X17004171Y-13087190D02*
X17023219Y-13096714D01*
X17023219Y-13096714D02*
X17032742Y-13106238D01*
X17032742Y-13106238D02*
X17042266Y-13125286D01*
X17042266Y-13125286D02*
X17042266Y-13182429D01*
X17042266Y-13182429D02*
X17032742Y-13201476D01*
X17032742Y-13201476D02*
X17023219Y-13211000D01*
X17023219Y-13211000D02*
X17004171Y-13220524D01*
X17004171Y-13220524D02*
X16966076Y-13220524D01*
X16966076Y-13220524D02*
X16947028Y-13211000D01*
X17156552Y-13220524D02*
X17137504Y-13211000D01*
X17137504Y-13211000D02*
X17127981Y-13191952D01*
X17127981Y-13191952D02*
X17127981Y-13020524D01*
X17318457Y-13220524D02*
X17318457Y-13115762D01*
X17318457Y-13115762D02*
X17308933Y-13096714D01*
X17308933Y-13096714D02*
X17289885Y-13087190D01*
X17289885Y-13087190D02*
X17251790Y-13087190D01*
X17251790Y-13087190D02*
X17232742Y-13096714D01*
X17318457Y-13211000D02*
X17299409Y-13220524D01*
X17299409Y-13220524D02*
X17251790Y-13220524D01*
X17251790Y-13220524D02*
X17232742Y-13211000D01*
X17232742Y-13211000D02*
X17223219Y-13191952D01*
X17223219Y-13191952D02*
X17223219Y-13172905D01*
X17223219Y-13172905D02*
X17232742Y-13153857D01*
X17232742Y-13153857D02*
X17251790Y-13144333D01*
X17251790Y-13144333D02*
X17299409Y-13144333D01*
X17299409Y-13144333D02*
X17318457Y-13134810D01*
X17385123Y-13087190D02*
X17461314Y-13087190D01*
X17413695Y-13020524D02*
X17413695Y-13191952D01*
X17413695Y-13191952D02*
X17423219Y-13211000D01*
X17423219Y-13211000D02*
X17442266Y-13220524D01*
X17442266Y-13220524D02*
X17461314Y-13220524D01*
X17604171Y-13211000D02*
X17585123Y-13220524D01*
X17585123Y-13220524D02*
X17547028Y-13220524D01*
X17547028Y-13220524D02*
X17527981Y-13211000D01*
X17527981Y-13211000D02*
X17518457Y-13191952D01*
X17518457Y-13191952D02*
X17518457Y-13115762D01*
X17518457Y-13115762D02*
X17527981Y-13096714D01*
X17527981Y-13096714D02*
X17547028Y-13087190D01*
X17547028Y-13087190D02*
X17585123Y-13087190D01*
X17585123Y-13087190D02*
X17604171Y-13096714D01*
X17604171Y-13096714D02*
X17613695Y-13115762D01*
X17613695Y-13115762D02*
X17613695Y-13134810D01*
X17613695Y-13134810D02*
X17518457Y-13153857D01*
X17785123Y-13220524D02*
X17785123Y-13020524D01*
X17785123Y-13211000D02*
X17766076Y-13220524D01*
X17766076Y-13220524D02*
X17727981Y-13220524D01*
X17727981Y-13220524D02*
X17708933Y-13211000D01*
X17708933Y-13211000D02*
X17699409Y-13201476D01*
X17699409Y-13201476D02*
X17689885Y-13182429D01*
X17689885Y-13182429D02*
X17689885Y-13125286D01*
X17689885Y-13125286D02*
X17699409Y-13106238D01*
X17699409Y-13106238D02*
X17708933Y-13096714D01*
X17708933Y-13096714D02*
X17727981Y-13087190D01*
X17727981Y-13087190D02*
X17766076Y-13087190D01*
X17766076Y-13087190D02*
X17785123Y-13096714D01*
X17861314Y-13296714D02*
X17870838Y-13287190D01*
X17870838Y-13287190D02*
X17889885Y-13258619D01*
X17889885Y-13258619D02*
X17899409Y-13239571D01*
X17899409Y-13239571D02*
X17908933Y-13211000D01*
X17908933Y-13211000D02*
X17918457Y-13163381D01*
X17918457Y-13163381D02*
X17918457Y-13125286D01*
X17918457Y-13125286D02*
X17908933Y-13077667D01*
X17908933Y-13077667D02*
X17899409Y-13049095D01*
X17899409Y-13049095D02*
X17889885Y-13030048D01*
X17889885Y-13030048D02*
X17870838Y-13001476D01*
X17870838Y-13001476D02*
X17861314Y-12991952D01*
M02*
