%TF.GenerationSoftware,KiCad,Pcbnew,7.0.9*%
%TF.CreationDate,2024-01-11T17:52:56+09:00*%
%TF.ProjectId,SensorBoard,53656e73-6f72-4426-9f61-72642e6b6963,rev?*%
%TF.SameCoordinates,Original*%
%TF.FileFunction,Profile,NP*%
%FSLAX46Y46*%
G04 Gerber Fmt 4.6, Leading zero omitted, Abs format (unit mm)*
G04 Created by KiCad (PCBNEW 7.0.9) date 2024-01-11 17:52:56*
%MOMM*%
%LPD*%
G01*
G04 APERTURE LIST*
%TA.AperFunction,Profile*%
%ADD10C,0.200000*%
%TD*%
G04 APERTURE END LIST*
D10*
X156738961Y-87600000D02*
X122738961Y-87600000D01*
X173738990Y-113598994D02*
G75*
G03*
X175882495Y-116475145I3000010J-1006D01*
G01*
X178338961Y-89600000D02*
G75*
G03*
X178338961Y-89600000I-1600000J0D01*
G01*
X104338961Y-113600000D02*
G75*
G03*
X104338961Y-113600000I-1600000J0D01*
G01*
X165762988Y-133599992D02*
G75*
G03*
X169232858Y-132200001I12J4999992D01*
G01*
X156738961Y-87599961D02*
G75*
G03*
X159738961Y-84600000I39J2999961D01*
G01*
X159738961Y-69486919D02*
X159738961Y-84600000D01*
X129288961Y-139100001D02*
G75*
G03*
X129288961Y-139100001I-1100000J0D01*
G01*
X177706053Y-120698413D02*
G75*
G03*
X175882495Y-116475147I-2680053J1348113D01*
G01*
X110245076Y-132199989D02*
G75*
G03*
X113714934Y-133600001I3469924J3600089D01*
G01*
X104338961Y-89600000D02*
G75*
G03*
X104338961Y-89600000I-1600000J0D01*
G01*
X169232852Y-132199995D02*
G75*
G03*
X177706059Y-120698416I-29493852J30599995D01*
G01*
X175882487Y-86724827D02*
G75*
G03*
X173738961Y-89599999I856513J-2875173D01*
G01*
X101771803Y-82501554D02*
G75*
G03*
X103595427Y-86724853I2679997J-1348146D01*
G01*
X103595419Y-116475120D02*
G75*
G03*
X105738961Y-113600000I-856419J2875120D01*
G01*
X164485842Y-67047888D02*
G75*
G03*
X159738961Y-69486919I-1746842J-2439012D01*
G01*
X119738961Y-84600000D02*
X119738961Y-69486919D01*
X175882497Y-86724860D02*
G75*
G03*
X177706059Y-82501584I-856497J2875160D01*
G01*
X119739007Y-69486919D02*
G75*
G03*
X114992125Y-67047951I-3000007J19D01*
G01*
X189738961Y-101600000D02*
G75*
G03*
X189738961Y-101600000I-50000000J0D01*
G01*
X101771870Y-120698412D02*
G75*
G03*
X110245064Y-132200001I37967130J19098412D01*
G01*
X177706069Y-82501579D02*
G75*
G03*
X164485797Y-67047951I-37967069J-19098421D01*
G01*
X105738988Y-89599999D02*
G75*
G03*
X103595427Y-86724855I-2999988J-1D01*
G01*
X152388961Y-139100001D02*
G75*
G03*
X152388961Y-139100001I-1100000J0D01*
G01*
X119739000Y-84600000D02*
G75*
G03*
X122738961Y-87600000I3000000J0D01*
G01*
X178338961Y-113600000D02*
G75*
G03*
X178338961Y-113600000I-1600000J0D01*
G01*
X105738961Y-89599999D02*
X105738961Y-113600000D01*
X173738962Y-113598994D02*
X173738961Y-89599999D01*
X103595429Y-116475153D02*
G75*
G03*
X101771863Y-120698416I856471J-2875147D01*
G01*
X114992118Y-67047941D02*
G75*
G03*
X101771863Y-82501584I24746882J-34552059D01*
G01*
X113714934Y-133600001D02*
X165762988Y-133600001D01*
M02*
