%TF.GenerationSoftware,KiCad,Pcbnew,7.0.9*%
%TF.CreationDate,2024-01-11T17:52:56+09:00*%
%TF.ProjectId,SensorBoard,53656e73-6f72-4426-9f61-72642e6b6963,rev?*%
%TF.SameCoordinates,Original*%
%TF.FileFunction,Legend,Bot*%
%TF.FilePolarity,Positive*%
%FSLAX46Y46*%
G04 Gerber Fmt 4.6, Leading zero omitted, Abs format (unit mm)*
G04 Created by KiCad (PCBNEW 7.0.9) date 2024-01-11 17:52:56*
%MOMM*%
%LPD*%
G01*
G04 APERTURE LIST*
%ADD10C,0.125000*%
%ADD11C,0.100000*%
%ADD12C,0.150000*%
%ADD13C,0.120000*%
%ADD14C,1.000000*%
G04 APERTURE END LIST*
D10*
X104912626Y-134779189D02*
X105417702Y-135284265D01*
X104811611Y-135284265D02*
X105518718Y-134173097D01*
X105653405Y-134913876D02*
X105148328Y-134408799D01*
X105754420Y-134408799D02*
X105047313Y-135519967D01*
X106562542Y-135418952D02*
X106158481Y-135014891D01*
X106360511Y-135216921D02*
X105653405Y-135924028D01*
X105653405Y-135924028D02*
X105687076Y-135755670D01*
X105687076Y-135755670D02*
X105687076Y-135620983D01*
X105687076Y-135620983D02*
X105653405Y-135519967D01*
X107303320Y-136159731D02*
X106899259Y-135755669D01*
X107101290Y-135957700D02*
X106394183Y-136664807D01*
X106394183Y-136664807D02*
X106427855Y-136496448D01*
X106427855Y-136496448D02*
X106427855Y-136361761D01*
X106427855Y-136361761D02*
X106394183Y-136260746D01*
X120260749Y-145581034D02*
X120920663Y-145854380D01*
X120360707Y-146086321D02*
X120588763Y-144789138D01*
X120996682Y-145421985D02*
X120336768Y-145148640D01*
X120896723Y-144916699D02*
X120668667Y-146213882D01*
X122029899Y-145540703D02*
X121501968Y-145322027D01*
X121765934Y-145431365D02*
X121383250Y-146355245D01*
X121383250Y-146355245D02*
X121349931Y-146186816D01*
X121349931Y-146186816D02*
X121298388Y-146062381D01*
X121298388Y-146062381D02*
X121228623Y-145981941D01*
X122307130Y-146737928D02*
X122395118Y-146774374D01*
X122395118Y-146774374D02*
X122501330Y-146766826D01*
X122501330Y-146766826D02*
X122563547Y-146741055D01*
X122563547Y-146741055D02*
X122643987Y-146671289D01*
X122643987Y-146671289D02*
X122760874Y-146513535D01*
X122760874Y-146513535D02*
X122851989Y-146293564D01*
X122851989Y-146293564D02*
X122880887Y-146099364D01*
X122880887Y-146099364D02*
X122873338Y-145993152D01*
X122873338Y-145993152D02*
X122847567Y-145930935D01*
X122847567Y-145930935D02*
X122777802Y-145850494D01*
X122777802Y-145850494D02*
X122689813Y-145814048D01*
X122689813Y-145814048D02*
X122583602Y-145821597D01*
X122583602Y-145821597D02*
X122521384Y-145847368D01*
X122521384Y-145847368D02*
X122440944Y-145917133D01*
X122440944Y-145917133D02*
X122324058Y-146074887D01*
X122324058Y-146074887D02*
X122232943Y-146294859D01*
X122232943Y-146294859D02*
X122204045Y-146489059D01*
X122204045Y-146489059D02*
X122211593Y-146595270D01*
X122211593Y-146595270D02*
X122237364Y-146657488D01*
X122237364Y-146657488D02*
X122307130Y-146737928D01*
X91651794Y-100435292D02*
X91651794Y-101149577D01*
X91223222Y-100721006D02*
X92508937Y-100435292D01*
X92080365Y-101054339D02*
X92080365Y-100340054D01*
X92508937Y-100768625D02*
X91223222Y-101054339D01*
X92366080Y-102054339D02*
X92366080Y-101482911D01*
X92366080Y-101768625D02*
X91366080Y-101768625D01*
X91366080Y-101768625D02*
X91508937Y-101673387D01*
X91508937Y-101673387D02*
X91604175Y-101578149D01*
X91604175Y-101578149D02*
X91651794Y-101482911D01*
X91366080Y-102482911D02*
X91366080Y-103101958D01*
X91366080Y-103101958D02*
X91747032Y-102768625D01*
X91747032Y-102768625D02*
X91747032Y-102911482D01*
X91747032Y-102911482D02*
X91794651Y-103006720D01*
X91794651Y-103006720D02*
X91842270Y-103054339D01*
X91842270Y-103054339D02*
X91937508Y-103101958D01*
X91937508Y-103101958D02*
X92175603Y-103101958D01*
X92175603Y-103101958D02*
X92270841Y-103054339D01*
X92270841Y-103054339D02*
X92318461Y-103006720D01*
X92318461Y-103006720D02*
X92366080Y-102911482D01*
X92366080Y-102911482D02*
X92366080Y-102625768D01*
X92366080Y-102625768D02*
X92318461Y-102530530D01*
X92318461Y-102530530D02*
X92270841Y-102482911D01*
X174206085Y-68061600D02*
X173701009Y-67556524D01*
X174307100Y-67556524D02*
X173599993Y-68667692D01*
X173465306Y-67926913D02*
X173970383Y-68431990D01*
X173364291Y-68431990D02*
X174071398Y-67320822D01*
X173701009Y-67152463D02*
X173263276Y-66714730D01*
X173263276Y-66714730D02*
X173229604Y-67219806D01*
X173229604Y-67219806D02*
X173128589Y-67118791D01*
X173128589Y-67118791D02*
X173027574Y-67085119D01*
X173027574Y-67085119D02*
X172960230Y-67085119D01*
X172960230Y-67085119D02*
X172859215Y-67118791D01*
X172859215Y-67118791D02*
X172690856Y-67287150D01*
X172690856Y-67287150D02*
X172657184Y-67388165D01*
X172657184Y-67388165D02*
X172657184Y-67455509D01*
X172657184Y-67455509D02*
X172690856Y-67556524D01*
X172690856Y-67556524D02*
X172892887Y-67758555D01*
X172892887Y-67758555D02*
X172993902Y-67792226D01*
X172993902Y-67792226D02*
X173061245Y-67792226D01*
X106559771Y-66773665D02*
X106054695Y-67278741D01*
X106054695Y-66672650D02*
X107165863Y-67379757D01*
X106425084Y-67514444D02*
X106930161Y-67009367D01*
X106930161Y-67615459D02*
X105818993Y-66908352D01*
X105920008Y-68423581D02*
X106324069Y-68019520D01*
X106122039Y-68221550D02*
X105414932Y-67514444D01*
X105414932Y-67514444D02*
X105583290Y-67548115D01*
X105583290Y-67548115D02*
X105717977Y-67548115D01*
X105717977Y-67548115D02*
X105818993Y-67514444D01*
X104505794Y-68423581D02*
X104842512Y-68086863D01*
X104842512Y-68086863D02*
X105212901Y-68389909D01*
X105212901Y-68389909D02*
X105145558Y-68389909D01*
X105145558Y-68389909D02*
X105044542Y-68423581D01*
X105044542Y-68423581D02*
X104876184Y-68591940D01*
X104876184Y-68591940D02*
X104842512Y-68692955D01*
X104842512Y-68692955D02*
X104842512Y-68760298D01*
X104842512Y-68760298D02*
X104876184Y-68861314D01*
X104876184Y-68861314D02*
X105044542Y-69029672D01*
X105044542Y-69029672D02*
X105145558Y-69063344D01*
X105145558Y-69063344D02*
X105212901Y-69063344D01*
X105212901Y-69063344D02*
X105313917Y-69029672D01*
X105313917Y-69029672D02*
X105482275Y-68861314D01*
X105482275Y-68861314D02*
X105515947Y-68760298D01*
X105515947Y-68760298D02*
X105515947Y-68692955D01*
X95757926Y-82121788D02*
X95484580Y-82781702D01*
X95252639Y-82221746D02*
X96549822Y-82449802D01*
X95916975Y-82857721D02*
X96190320Y-82197807D01*
X96422261Y-82757762D02*
X95125078Y-82529706D01*
X95798257Y-83890938D02*
X96016933Y-83363007D01*
X95907595Y-83626973D02*
X94983715Y-83244289D01*
X94983715Y-83244289D02*
X95152144Y-83210970D01*
X95152144Y-83210970D02*
X95276579Y-83159427D01*
X95276579Y-83159427D02*
X95357019Y-83089662D01*
X94836100Y-84471707D02*
X95452020Y-84726829D01*
X94575261Y-84105951D02*
X95326290Y-84159325D01*
X95326290Y-84159325D02*
X95089391Y-84731251D01*
X183914398Y-120608880D02*
X184187744Y-119948966D01*
X184419685Y-120508922D02*
X183122502Y-120280866D01*
X183755349Y-119872947D02*
X183482004Y-120532861D01*
X183250063Y-119972906D02*
X184547246Y-120200962D01*
X184761501Y-119310402D02*
X184688609Y-119486379D01*
X184688609Y-119486379D02*
X184608168Y-119556144D01*
X184608168Y-119556144D02*
X184545951Y-119581915D01*
X184545951Y-119581915D02*
X184377522Y-119615235D01*
X184377522Y-119615235D02*
X184183322Y-119586337D01*
X184183322Y-119586337D02*
X183831368Y-119440553D01*
X183831368Y-119440553D02*
X183761602Y-119360113D01*
X183761602Y-119360113D02*
X183735831Y-119297895D01*
X183735831Y-119297895D02*
X183728283Y-119191684D01*
X183728283Y-119191684D02*
X183801175Y-119015707D01*
X183801175Y-119015707D02*
X183881615Y-118945941D01*
X183881615Y-118945941D02*
X183943833Y-118920170D01*
X183943833Y-118920170D02*
X184050044Y-118912622D01*
X184050044Y-118912622D02*
X184270015Y-119003737D01*
X184270015Y-119003737D02*
X184339781Y-119084177D01*
X184339781Y-119084177D02*
X184365552Y-119146394D01*
X184365552Y-119146394D02*
X184373100Y-119252606D01*
X184373100Y-119252606D02*
X184300208Y-119428583D01*
X184300208Y-119428583D02*
X184219768Y-119498349D01*
X184219768Y-119498349D02*
X184157551Y-119524120D01*
X184157551Y-119524120D02*
X184051339Y-119531668D01*
X94866498Y-118926112D02*
X95139843Y-119586026D01*
X94579887Y-119354085D02*
X95658394Y-118598098D01*
X95499345Y-119334030D02*
X95226000Y-118674116D01*
X95785955Y-118906057D02*
X94707448Y-119662044D01*
X96145994Y-120148571D02*
X95927318Y-119620640D01*
X96036656Y-119884606D02*
X95112777Y-120267289D01*
X95112777Y-120267289D02*
X95208313Y-120124632D01*
X95208313Y-120124632D02*
X95259856Y-120000197D01*
X95259856Y-120000197D02*
X95267404Y-119893986D01*
X95492333Y-120934751D02*
X95466562Y-120996969D01*
X95466562Y-120996969D02*
X95459014Y-121103180D01*
X95459014Y-121103180D02*
X95550129Y-121323152D01*
X95550129Y-121323152D02*
X95630569Y-121392917D01*
X95630569Y-121392917D02*
X95692787Y-121418688D01*
X95692787Y-121418688D02*
X95798998Y-121426237D01*
X95798998Y-121426237D02*
X95886987Y-121389791D01*
X95886987Y-121389791D02*
X96000746Y-121291127D01*
X96000746Y-121291127D02*
X96310001Y-120544520D01*
X96310001Y-120544520D02*
X96546901Y-121116445D01*
X122412848Y-56727537D02*
X121752934Y-57000882D01*
X121984875Y-56440926D02*
X122740862Y-57519433D01*
X122004930Y-57360384D02*
X122664844Y-57087039D01*
X122432903Y-57646994D02*
X121676916Y-56568487D01*
X121190389Y-58007033D02*
X121718320Y-57788357D01*
X121454354Y-57897695D02*
X121071671Y-56973816D01*
X121071671Y-56973816D02*
X121214328Y-57069352D01*
X121214328Y-57069352D02*
X121338763Y-57120895D01*
X121338763Y-57120895D02*
X121444974Y-57128443D01*
X119927820Y-57447614D02*
X120103797Y-57374722D01*
X120103797Y-57374722D02*
X120210008Y-57382270D01*
X120210008Y-57382270D02*
X120272226Y-57408041D01*
X120272226Y-57408041D02*
X120414883Y-57503578D01*
X120414883Y-57503578D02*
X120531770Y-57661332D01*
X120531770Y-57661332D02*
X120677554Y-58013286D01*
X120677554Y-58013286D02*
X120670006Y-58119498D01*
X120670006Y-58119498D02*
X120644234Y-58181715D01*
X120644234Y-58181715D02*
X120574469Y-58262155D01*
X120574469Y-58262155D02*
X120398492Y-58335048D01*
X120398492Y-58335048D02*
X120292280Y-58327499D01*
X120292280Y-58327499D02*
X120230063Y-58301728D01*
X120230063Y-58301728D02*
X120149623Y-58231963D01*
X120149623Y-58231963D02*
X120058508Y-58011991D01*
X120058508Y-58011991D02*
X120066056Y-57905780D01*
X120066056Y-57905780D02*
X120091827Y-57843562D01*
X120091827Y-57843562D02*
X120161593Y-57763122D01*
X120161593Y-57763122D02*
X120337570Y-57690230D01*
X120337570Y-57690230D02*
X120443781Y-57697778D01*
X120443781Y-57697778D02*
X120505998Y-57723549D01*
X120505998Y-57723549D02*
X120586439Y-57793315D01*
X158747841Y-57424562D02*
X158087927Y-57151216D01*
X158647883Y-56919275D02*
X158419827Y-58216458D01*
X158011908Y-57583611D02*
X158671822Y-57856956D01*
X158111867Y-58088897D02*
X158339923Y-56791714D01*
X157852859Y-56847678D02*
X157827088Y-56785461D01*
X157827088Y-56785461D02*
X157757323Y-56705021D01*
X157757323Y-56705021D02*
X157537351Y-56613905D01*
X157537351Y-56613905D02*
X157431140Y-56621454D01*
X157431140Y-56621454D02*
X157368922Y-56647225D01*
X157368922Y-56647225D02*
X157288482Y-56716990D01*
X157288482Y-56716990D02*
X157252036Y-56804979D01*
X157252036Y-56804979D02*
X157241361Y-56955185D01*
X157241361Y-56955185D02*
X157550616Y-57701792D01*
X157550616Y-57701792D02*
X156978691Y-57464893D01*
X173277360Y-136067124D02*
X173782436Y-135562048D01*
X173782436Y-136168139D02*
X172671268Y-135461032D01*
X173412047Y-135326345D02*
X172906970Y-135831422D01*
X172906970Y-135225330D02*
X174018138Y-135932437D01*
X174186497Y-135562048D02*
X174657902Y-135090643D01*
X174657902Y-135090643D02*
X173647749Y-134686582D01*
X187826127Y-102256707D02*
X187826127Y-101542422D01*
X188254699Y-101970993D02*
X186968984Y-102256707D01*
X187397556Y-101637660D02*
X187397556Y-102351945D01*
X186968984Y-101923374D02*
X188254699Y-101637660D01*
X188111841Y-100685279D02*
X188111841Y-101161469D01*
X188111841Y-101161469D02*
X187635651Y-101209088D01*
X187635651Y-101209088D02*
X187683270Y-101161469D01*
X187683270Y-101161469D02*
X187730889Y-101066231D01*
X187730889Y-101066231D02*
X187730889Y-100828136D01*
X187730889Y-100828136D02*
X187683270Y-100732898D01*
X187683270Y-100732898D02*
X187635651Y-100685279D01*
X187635651Y-100685279D02*
X187540413Y-100637660D01*
X187540413Y-100637660D02*
X187302318Y-100637660D01*
X187302318Y-100637660D02*
X187207080Y-100685279D01*
X187207080Y-100685279D02*
X187159461Y-100732898D01*
X187159461Y-100732898D02*
X187111841Y-100828136D01*
X187111841Y-100828136D02*
X187111841Y-101066231D01*
X187111841Y-101066231D02*
X187159461Y-101161469D01*
X187159461Y-101161469D02*
X187207080Y-101209088D01*
X139082253Y-149687166D02*
X139796538Y-149687166D01*
X139367967Y-150115738D02*
X139082253Y-148830023D01*
X139701300Y-149258595D02*
X138987015Y-149258595D01*
X139415586Y-148830023D02*
X139701300Y-150115738D01*
X140177491Y-149020500D02*
X140367967Y-149020500D01*
X140367967Y-149020500D02*
X140463205Y-149068119D01*
X140463205Y-149068119D02*
X140510824Y-149115738D01*
X140510824Y-149115738D02*
X140606062Y-149258595D01*
X140606062Y-149258595D02*
X140653681Y-149449071D01*
X140653681Y-149449071D02*
X140653681Y-149830023D01*
X140653681Y-149830023D02*
X140606062Y-149925261D01*
X140606062Y-149925261D02*
X140558443Y-149972880D01*
X140558443Y-149972880D02*
X140463205Y-150020500D01*
X140463205Y-150020500D02*
X140272729Y-150020500D01*
X140272729Y-150020500D02*
X140177491Y-149972880D01*
X140177491Y-149972880D02*
X140129872Y-149925261D01*
X140129872Y-149925261D02*
X140082253Y-149830023D01*
X140082253Y-149830023D02*
X140082253Y-149591928D01*
X140082253Y-149591928D02*
X140129872Y-149496690D01*
X140129872Y-149496690D02*
X140177491Y-149449071D01*
X140177491Y-149449071D02*
X140272729Y-149401452D01*
X140272729Y-149401452D02*
X140463205Y-149401452D01*
X140463205Y-149401452D02*
X140558443Y-149449071D01*
X140558443Y-149449071D02*
X140606062Y-149496690D01*
X140606062Y-149496690D02*
X140653681Y-149591928D01*
X140395668Y-53512833D02*
X139681383Y-53512833D01*
X140109954Y-53084261D02*
X140395668Y-54369976D01*
X139776621Y-53941404D02*
X140490906Y-53941404D01*
X140062335Y-54369976D02*
X139776621Y-53084261D01*
X138776621Y-54227119D02*
X139348049Y-54227119D01*
X139062335Y-54227119D02*
X139062335Y-53227119D01*
X139062335Y-53227119D02*
X139157573Y-53369976D01*
X139157573Y-53369976D02*
X139252811Y-53465214D01*
X139252811Y-53465214D02*
X139348049Y-53512833D01*
X157534404Y-146278059D02*
X158194318Y-146004714D01*
X157962377Y-146564670D02*
X157206390Y-145486163D01*
X157942322Y-145645212D02*
X157282408Y-145918557D01*
X157514349Y-145358602D02*
X158270336Y-146437109D01*
X158579591Y-145690501D02*
X158509826Y-145770941D01*
X158509826Y-145770941D02*
X158484055Y-145833159D01*
X158484055Y-145833159D02*
X158476506Y-145939370D01*
X158476506Y-145939370D02*
X158494729Y-145983365D01*
X158494729Y-145983365D02*
X158575170Y-146053130D01*
X158575170Y-146053130D02*
X158637387Y-146078901D01*
X158637387Y-146078901D02*
X158743599Y-146086450D01*
X158743599Y-146086450D02*
X158919576Y-146013557D01*
X158919576Y-146013557D02*
X158989341Y-145933117D01*
X158989341Y-145933117D02*
X159015112Y-145870900D01*
X159015112Y-145870900D02*
X159022661Y-145764688D01*
X159022661Y-145764688D02*
X159004438Y-145720694D01*
X159004438Y-145720694D02*
X158923997Y-145650929D01*
X158923997Y-145650929D02*
X158861780Y-145625157D01*
X158861780Y-145625157D02*
X158755568Y-145617609D01*
X158755568Y-145617609D02*
X158579591Y-145690501D01*
X158579591Y-145690501D02*
X158473380Y-145682953D01*
X158473380Y-145682953D02*
X158411163Y-145657182D01*
X158411163Y-145657182D02*
X158330722Y-145587416D01*
X158330722Y-145587416D02*
X158257830Y-145411439D01*
X158257830Y-145411439D02*
X158265378Y-145305228D01*
X158265378Y-145305228D02*
X158291150Y-145243010D01*
X158291150Y-145243010D02*
X158360915Y-145162570D01*
X158360915Y-145162570D02*
X158536892Y-145089678D01*
X158536892Y-145089678D02*
X158643104Y-145097226D01*
X158643104Y-145097226D02*
X158705321Y-145122997D01*
X158705321Y-145122997D02*
X158785761Y-145192763D01*
X158785761Y-145192763D02*
X158858653Y-145368740D01*
X158858653Y-145368740D02*
X158851105Y-145474952D01*
X158851105Y-145474952D02*
X158825334Y-145537169D01*
X158825334Y-145537169D02*
X158755568Y-145617609D01*
X184417020Y-83804556D02*
X184143675Y-83144642D01*
X184703631Y-83376583D02*
X183625124Y-84132570D01*
X183784173Y-83396638D02*
X184057518Y-84056552D01*
X183497563Y-83824611D02*
X184576070Y-83068624D01*
X183808113Y-82458957D02*
X183192193Y-82714079D01*
X184251182Y-82533144D02*
X183682383Y-83026461D01*
X183682383Y-83026461D02*
X183445484Y-82454535D01*
D11*
X148210580Y-71850094D02*
X147401057Y-71850094D01*
X147401057Y-71850094D02*
X147305819Y-71802475D01*
X147305819Y-71802475D02*
X147258200Y-71754856D01*
X147258200Y-71754856D02*
X147210580Y-71659618D01*
X147210580Y-71659618D02*
X147210580Y-71469142D01*
X147210580Y-71469142D02*
X147258200Y-71373904D01*
X147258200Y-71373904D02*
X147305819Y-71326285D01*
X147305819Y-71326285D02*
X147401057Y-71278666D01*
X147401057Y-71278666D02*
X148210580Y-71278666D01*
X148115342Y-70850094D02*
X148162961Y-70802475D01*
X148162961Y-70802475D02*
X148210580Y-70707237D01*
X148210580Y-70707237D02*
X148210580Y-70469142D01*
X148210580Y-70469142D02*
X148162961Y-70373904D01*
X148162961Y-70373904D02*
X148115342Y-70326285D01*
X148115342Y-70326285D02*
X148020104Y-70278666D01*
X148020104Y-70278666D02*
X147924866Y-70278666D01*
X147924866Y-70278666D02*
X147782009Y-70326285D01*
X147782009Y-70326285D02*
X147210580Y-70897713D01*
X147210580Y-70897713D02*
X147210580Y-70278666D01*
X148210580Y-69659618D02*
X148210580Y-69564380D01*
X148210580Y-69564380D02*
X148162961Y-69469142D01*
X148162961Y-69469142D02*
X148115342Y-69421523D01*
X148115342Y-69421523D02*
X148020104Y-69373904D01*
X148020104Y-69373904D02*
X147829628Y-69326285D01*
X147829628Y-69326285D02*
X147591533Y-69326285D01*
X147591533Y-69326285D02*
X147401057Y-69373904D01*
X147401057Y-69373904D02*
X147305819Y-69421523D01*
X147305819Y-69421523D02*
X147258200Y-69469142D01*
X147258200Y-69469142D02*
X147210580Y-69564380D01*
X147210580Y-69564380D02*
X147210580Y-69659618D01*
X147210580Y-69659618D02*
X147258200Y-69754856D01*
X147258200Y-69754856D02*
X147305819Y-69802475D01*
X147305819Y-69802475D02*
X147401057Y-69850094D01*
X147401057Y-69850094D02*
X147591533Y-69897713D01*
X147591533Y-69897713D02*
X147829628Y-69897713D01*
X147829628Y-69897713D02*
X148020104Y-69850094D01*
X148020104Y-69850094D02*
X148115342Y-69802475D01*
X148115342Y-69802475D02*
X148162961Y-69754856D01*
X148162961Y-69754856D02*
X148210580Y-69659618D01*
D12*
X141208094Y-106559819D02*
X141208094Y-107369342D01*
X141208094Y-107369342D02*
X141160475Y-107464580D01*
X141160475Y-107464580D02*
X141112856Y-107512200D01*
X141112856Y-107512200D02*
X141017618Y-107559819D01*
X141017618Y-107559819D02*
X140827142Y-107559819D01*
X140827142Y-107559819D02*
X140731904Y-107512200D01*
X140731904Y-107512200D02*
X140684285Y-107464580D01*
X140684285Y-107464580D02*
X140636666Y-107369342D01*
X140636666Y-107369342D02*
X140636666Y-106559819D01*
X139636666Y-107559819D02*
X140208094Y-107559819D01*
X139922380Y-107559819D02*
X139922380Y-106559819D01*
X139922380Y-106559819D02*
X140017618Y-106702676D01*
X140017618Y-106702676D02*
X140112856Y-106797914D01*
X140112856Y-106797914D02*
X140208094Y-106845533D01*
X139160475Y-107559819D02*
X138969999Y-107559819D01*
X138969999Y-107559819D02*
X138874761Y-107512200D01*
X138874761Y-107512200D02*
X138827142Y-107464580D01*
X138827142Y-107464580D02*
X138731904Y-107321723D01*
X138731904Y-107321723D02*
X138684285Y-107131247D01*
X138684285Y-107131247D02*
X138684285Y-106750295D01*
X138684285Y-106750295D02*
X138731904Y-106655057D01*
X138731904Y-106655057D02*
X138779523Y-106607438D01*
X138779523Y-106607438D02*
X138874761Y-106559819D01*
X138874761Y-106559819D02*
X139065237Y-106559819D01*
X139065237Y-106559819D02*
X139160475Y-106607438D01*
X139160475Y-106607438D02*
X139208094Y-106655057D01*
X139208094Y-106655057D02*
X139255713Y-106750295D01*
X139255713Y-106750295D02*
X139255713Y-106988390D01*
X139255713Y-106988390D02*
X139208094Y-107083628D01*
X139208094Y-107083628D02*
X139160475Y-107131247D01*
X139160475Y-107131247D02*
X139065237Y-107178866D01*
X139065237Y-107178866D02*
X138874761Y-107178866D01*
X138874761Y-107178866D02*
X138779523Y-107131247D01*
X138779523Y-107131247D02*
X138731904Y-107083628D01*
X138731904Y-107083628D02*
X138684285Y-106988390D01*
D13*
%TO.C,U3*%
X152707255Y-60233948D02*
X159747217Y-63149996D01*
X159747217Y-63149996D02*
X160719233Y-60803342D01*
X160719233Y-60803342D02*
X153679271Y-57887294D01*
X153679271Y-57887294D02*
X152707255Y-60233948D01*
%TO.C,U10*%
X143587922Y-144780000D02*
X135967922Y-144780000D01*
X135967922Y-144780000D02*
X135967922Y-147320000D01*
X135967922Y-147320000D02*
X143587922Y-147320000D01*
X143587922Y-147320000D02*
X143587922Y-144780000D01*
%TO.C,U7*%
X181105013Y-114568294D02*
X178188965Y-121608256D01*
X178188965Y-121608256D02*
X180535619Y-122580272D01*
X180535619Y-122580272D02*
X183451667Y-115540310D01*
X183451667Y-115540310D02*
X181105013Y-114568294D01*
%TO.C,U9*%
X159819208Y-140020184D02*
X152779246Y-142936232D01*
X152779246Y-142936232D02*
X153751262Y-145282886D01*
X153751262Y-145282886D02*
X160791224Y-142366838D01*
X160791224Y-142366838D02*
X159819208Y-140020184D01*
%TO.C,J1*%
X144280000Y-88703200D02*
X144780000Y-87703200D01*
X145280000Y-88703200D02*
X144280000Y-88703200D01*
X144780000Y-87703200D02*
X145280000Y-88703200D01*
X129410000Y-87313200D02*
X149990000Y-87313200D01*
X141750000Y-87313200D02*
X141750000Y-86003200D01*
X149990000Y-87313200D02*
X149990000Y-78193200D01*
X130710000Y-86003200D02*
X137650000Y-86003200D01*
X137650000Y-86003200D02*
X137650000Y-87313200D01*
X137650000Y-86003200D02*
X137650000Y-86003200D01*
X141750000Y-86003200D02*
X148690000Y-86003200D01*
X148690000Y-86003200D02*
X148690000Y-79503200D01*
X130710000Y-79503200D02*
X130710000Y-86003200D01*
X148690000Y-79503200D02*
X130710000Y-79503200D01*
X129410000Y-78193200D02*
X129410000Y-87313200D01*
X149990000Y-78193200D02*
X129410000Y-78193200D01*
%TO.C,U12*%
X111927717Y-134854498D02*
X106539563Y-129466344D01*
X106539563Y-129466344D02*
X104743512Y-131262395D01*
X104743512Y-131262395D02*
X110131666Y-136650549D01*
X110131666Y-136650549D02*
X111927717Y-134854498D01*
%TO.C,U8*%
X172993459Y-129411244D02*
X167605305Y-134799398D01*
X167605305Y-134799398D02*
X169401356Y-136595449D01*
X169401356Y-136595449D02*
X174789510Y-131207295D01*
X174789510Y-131207295D02*
X172993459Y-129411244D01*
%TO.C,U11*%
X126770667Y-142966052D02*
X119730705Y-140050004D01*
X119730705Y-140050004D02*
X118758689Y-142396658D01*
X118758689Y-142396658D02*
X125798651Y-145312706D01*
X125798651Y-145312706D02*
X126770667Y-142966052D01*
%TO.C,U5*%
X178159145Y-81519753D02*
X181075193Y-88559715D01*
X181075193Y-88559715D02*
X183421847Y-87587699D01*
X183421847Y-87587699D02*
X180505799Y-80547737D01*
X180505799Y-80547737D02*
X178159145Y-81519753D01*
D11*
%TO.C,U20*%
X134468000Y-75692000D02*
X134468000Y-65532000D01*
X152248000Y-75692000D02*
X134468000Y-75692000D01*
D14*
X130658000Y-73152000D02*
X134468000Y-73152000D01*
X130658000Y-70612000D02*
X134468000Y-70612000D01*
X130658000Y-68072000D02*
X134468000Y-68072000D01*
D11*
X134468000Y-65532000D02*
X152248000Y-65532000D01*
X143358000Y-65532000D02*
X143358000Y-75692000D01*
X152248000Y-65532000D02*
X152248000Y-75692000D01*
X150978000Y-70612000D02*
G75*
G03*
X150978000Y-70612000I-2540000J0D01*
G01*
X143358000Y-75692000D02*
X134468000Y-75692000D01*
X134468000Y-65532000D01*
X143358000Y-65532000D01*
X143358000Y-75692000D01*
G36*
X143358000Y-75692000D02*
G01*
X134468000Y-75692000D01*
X134468000Y-65532000D01*
X143358000Y-65532000D01*
X143358000Y-75692000D01*
G37*
D13*
%TO.C,U16*%
X106484463Y-73788756D02*
X111872617Y-68400602D01*
X111872617Y-68400602D02*
X110076566Y-66604551D01*
X110076566Y-66604551D02*
X104688412Y-71992705D01*
X104688412Y-71992705D02*
X106484463Y-73788756D01*
%TO.C,U2*%
X135890000Y-58420000D02*
X143510000Y-58420000D01*
X143510000Y-58420000D02*
X143510000Y-55880000D01*
X143510000Y-55880000D02*
X135890000Y-55880000D01*
X135890000Y-55880000D02*
X135890000Y-58420000D01*
%TO.C,U14*%
X96558961Y-105448961D02*
X94018961Y-105448961D01*
X94018961Y-105448961D02*
X94018961Y-97828961D01*
X94018961Y-97828961D02*
X96558961Y-97828961D01*
X96558961Y-97828961D02*
X96558961Y-105448961D01*
%TO.C,U17*%
X119658714Y-63179816D02*
X126698676Y-60263768D01*
X126698676Y-60263768D02*
X125726660Y-57917114D01*
X125726660Y-57917114D02*
X118686698Y-60833162D01*
X118686698Y-60833162D02*
X119658714Y-63179816D01*
%TO.C,U13*%
X101318777Y-121680247D02*
X98402729Y-114640285D01*
X98402729Y-114640285D02*
X96056075Y-115612301D01*
X96056075Y-115612301D02*
X98972123Y-122652263D01*
X98972123Y-122652263D02*
X101318777Y-121680247D01*
%TO.C,U4*%
X167550205Y-68345502D02*
X172938359Y-73733656D01*
X172938359Y-73733656D02*
X174734410Y-71937605D01*
X174734410Y-71937605D02*
X169346256Y-66549451D01*
X169346256Y-66549451D02*
X167550205Y-68345502D01*
%TO.C,U15*%
X98372909Y-88631706D02*
X101288957Y-81591744D01*
X101288957Y-81591744D02*
X98942303Y-80619728D01*
X98942303Y-80619728D02*
X96026255Y-87659690D01*
X96026255Y-87659690D02*
X98372909Y-88631706D01*
%TO.C,U6*%
X182918961Y-97751039D02*
X185458961Y-97751039D01*
X185458961Y-97751039D02*
X185458961Y-105371039D01*
X185458961Y-105371039D02*
X182918961Y-105371039D01*
X182918961Y-105371039D02*
X182918961Y-97751039D01*
%TD*%
M02*
