0
SECTION
2
HEADER
9
$INSUNITS
70
4
9
$ACADVER
1
AC1014
9
$HANDSEED
5
FFFF
0
ENDSEC
0
SECTION
2
TABLES
0
TABLE
2
VPORT
5
8
100
AcDbSymbolTable
0
ENDTAB
0
TABLE
2
LTYPE
5
5
100
AcDbSymbolTable
0
LTYPE
5
14
100
AcDbSymbolTableRecord
100
AcDbLinetypeTableRecord
2
BYBLOCK
70
0
0
LTYPE
5
15
100
AcDbSymbolTableRecord
100
AcDbLinetypeTableRecord
2
BYLAYER
70
0
0
ENDTAB
0
TABLE
2
LAYER
5
2
100
AcDbSymbolTable
70
2
0
LAYER
5
50
100
AcDbSymbolTableRecord
100
AcDbLayerTableRecord
2
0
70
0
6
CONTINUOUS
0
ENDTAB
0
TABLE
2
STYLE
5
3
100
AcDbSymbolTable
70
1
0
STYLE
5
11
100
AcDbSymbolTableRecord
100
AcDbTextStyleTableRecord
2
STANDARD
70
0
0
ENDTAB
0
TABLE
2
VIEW
5
6
100
AcDbSymbolTable
70
0
0
ENDTAB
0
TABLE
2
UCS
5
7
100
AcDbSymbolTable
70
0
0
ENDTAB
0
TABLE
2
APPID
5
9
100
AcDbSymbolTable
70
2
0
APPID
5
12
100
AcDbSymbolTableRecord
100
AcDbRegAppTableRecord
2
ACAD
70
0
0
ENDTAB
0
TABLE
2
DIMSTYLE
5
A
100
AcDbSymbolTable
70
1
0
ENDTAB
0
TABLE
2
BLOCK_RECORD
5
1
100
AcDbSymbolTable
70
1
0
BLOCK_RECORD
5
1F
100
AcDbSymbolTableRecord
100
AcDbBlockTableRecord
2
*MODEL_SPACE
0
BLOCK_RECORD
5
1B
100
AcDbSymbolTableRecord
100
AcDbBlockTableRecord
2
*PAPER_SPACE
0
ENDTAB
0
ENDSEC
0
SECTION
2
BLOCKS
0
BLOCK
5
20
100
AcDbEntity
100
AcDbBlockBegin
2
*MODEL_SPACE
0
ENDBLK
5
21
100
AcDbEntity
100
AcDbBlockEnd
0
BLOCK
5
1C
100
AcDbEntity
100
AcDbBlockBegin
2
*PAPER_SPACE
0
ENDBLK
5
1D
100
AcDbEntity
100
AcDbBlockEnd
0
ENDSEC
0
SECTION
2
ENTITIES
0
LWPOLYLINE
5
100
100
AcDbEntity
8
0
100
AcDbPolyline
90
104
70
1
43
0.0
10
-4.9999999999999991
20
67.735103386591476
42
0.38517038821472599
10
-6.7999999999999989
20
69.725078260804707
42
-0.38517038821472732
10
-9.5000000000000089
20
72.710040572124569
10
-9.5000000000000071
20
76.19052611891729
42
0.34199872314708674
10
-12.500000139077507
20
80.063509501034332
42
-0.34199872314708529
10
-14.000000208616257
20
82.000001192092896
10
-14.000000208616243
20
83.000001266598701
42
-0.34199872314708468
10
-12.500000139077505
20
84.936492957657237
42
0.3419987231470869
10
-9.5000000000000036
20
88.809476339774307
10
-9.4999999999997939
20
94.777370716854122
42
-0.39429710844390037
10
-6.705263157894592
20
97.770340318438997
42
-0.034250658945517022
10
6.7052631578947244
20
97.770340318438997
42
-0.3942971084438972
10
9.5000000000000124
20
94.777370716854122
10
9.5000000000000089
20
88.809476339774307
42
0.34199872314708796
10
12.500000139077507
20
84.936492957657265
42
-0.34199872314708529
10
14.000000208616257
20
83.000001266598701
10
14.000000208616243
20
82.000001192092896
42
-0.34199872314708468
10
12.500000139077505
20
80.06350950103436
42
0.3419987231470869
10
9.5000000000000036
20
76.19052611891729
10
9.4999999999999964
20
72.710040572124569
42
-0.38517038821472654
10
6.8000000000000007
20
69.725078260804707
42
0.3851703882147266
10
5
20
67.735103386591476
10
5.0000000000000044
20
66.633324995830748
42
0.38387870150014813
10
6.7910447761193771
20
64.644270518343234
42
-0.14502948521479894
10
40.91044298450101
20
50.510747913804359
42
0.31840812534013913
10
46.680476989252824
20
50.139493239776087
42
-0.34746575105237021
10
49.143921292465066
20
49.851028073651605
10
49.851028073651648
20
49.143921292465095
42
-0.34746575105237137
10
50.139493239776137
20
46.680476989252789
42
0.31840812534014401
10
50.51074791380438
20
40.910442984501039
42
-0.10645794113383053
10
62.872857521867324
20
16.492537313432827
42
0.34092241469291817
10
64.807406984078625
20
15
10
65.840716885525993
20
15.000000000000002
42
0.49031439482586886
10
67.77720855862971
20
17.500000000000007
42
0.018830470675035141
10
66.268350101925805
20
22.550072611160079
42
-0.51388953088436262
10
69.108422249151175
20
26.516504294495515
10
71.19481239319299
20
26.516504294495512
42
0.34120533307261519
10
75.064938209455718
20
29.505501739455834
42
-0.34120533307261491
10
77.00000111758709
20
31.000000461935997
10
78.000001192092896
20
31.00000046193599
42
-0.34120533307261458
10
79.935064100224253
20
29.505501739455838
42
0.34120533307261575
10
83.805189916486981
20
26.516504294495515
10
92.043326894278295
20
26.516504294495455
42
-0.34270747606417346
10
94.949958269887105
20
24.259130745900627
42
-0.063613187346971536
10
97.999228601135258
20
-0.38883618971841105
42
-0.41305191905362099
10
94.999252215386207
20
-3.3769330410535403
10
83.839868975591187
20
-3.3769330410535408
42
0.3479091886099413
10
79.946623786592326
20
-6.4589777598240428
42
-0.34790918860994069
10
78.000001192092896
20
-8.0000001192092896
10
77.00000111758709
20
-8.0000001192092913
42
-0.36043237498981495
10
75.03488437699265
20
-6.3719089734135057
42
0.28477139292241022
10
72.187151442763451
20
-3.2649874585257028
42
-0.3374816359154893
10
69.999066845326382
20
-0.36144264210614679
42
0.012324489041728757
10
69.931843982324423
20
3.0882352941176547
42
0.40134589063430948
10
67.933791297115135
20
5
10
66.932802122726045
20
4.9999999999999956
42
0.42739425685286003
10
64.93480802951035
20
2.9104477611939972
42
-0.11646268777623138
10
59.378037703089994
20
-26.443309901190961
42
0.31840812534014284
10
60.512827916634492
20
-32.112822545168711
42
-0.34746575105237021
10
60.871778264910716
20
-34.566987298107769
10
60.371778264910752
20
-35.433012701892245
42
-0.34746575105236988
10
58.066934069655012
20
-36.349234958057309
42
0.31840812534014229
10
52.589596986120959
20
-38.201234127150634
42
-0.50958302418483814
10
-52.589596986120952
20
-38.201234127150641
42
0.31840812534014173
10
-58.066934069654998
20
-36.349234958057266
42
-0.34746575105237032
10
-60.371778264910709
20
-35.433012701892217
10
-60.871778264910752
20
-34.566987298107797
42
-0.34746575105237121
10
-60.512827916634521
20
-32.112822545168676
42
0.31840812534014157
10
-59.378037703090001
20
-26.443309901190986
42
-0.1164626877762316
10
-64.93480802951035
20
2.9104477611940291
42
0.4273942568528567
10
-66.932802122726059
20
5
10
-67.933791297115135
20
5.0000000000000018
42
0.40134589063431275
10
-69.931843982324423
20
3.0882352941176254
42
0.012324489041728757
10
-69.999066845326368
20
-0.36144264210607691
42
-0.33748163591549601
10
-72.187151442763451
20
-3.2649874585257095
42
0.28477139292240911
10
-75.034884376992636
20
-6.3719089734135048
42
-0.36043237498981495
10
-77.00000111758709
20
-8.0000001192092896
10
-78.000001192092896
20
-8.0000001192092913
42
-0.34790918860994058
10
-79.946623786592326
20
-6.4589777598240428
42
0.34790918860994302
10
-83.839868975591202
20
-3.3769330410535399
10
-94.999252215386207
20
-3.3769330410535412
42
-0.41305191905362765
10
-97.999228601135272
20
-0.38883618971840228
42
-0.063613187346971412
10
-94.949958269887105
20
24.259130745900592
42
-0.34270747606417507
10
-92.043326894278295
20
26.516504294495515
10
-83.805189916486995
20
26.516504294495512
42
0.34120533307261763
10
-79.935064100224267
20
29.505501739455834
42
-0.34120533307261491
10
-78.000001192092896
20
31.000000461935997
10
-77.00000111758709
20
31.000000461935997
42
-0.34120533307261547
10
-75.064938209455732
20
29.505501739455834
42
0.34120533307261552
10
-71.194812393193004
20
26.516504294495515
10
-69.108422249151189
20
26.516504294495494
42
-0.51388953088436684
10
-66.268350101925819
20
22.550072611160029
42
0.018830470675035509
10
-67.777208558629781
20
17.499999999999993
42
0.49031439482586747
10
-65.840716885526064
20
15
10
-64.807406984078597
20
15
42
0.34092241469291185
10
-62.872857521867303
20
16.492537313432784
42
-0.10645794113383066
10
-50.510747913804359
20
40.91044298450101
42
0.31840812534013913
10
-50.139493239776087
20
46.680476989252824
42
-0.34746575105237021
10
-49.851028073651605
20
49.143921292465066
10
-49.143921292465095
20
49.851028073651648
42
-0.34746575105237137
10
-46.680476989252789
20
50.139493239776137
42
0.31840812534014046
10
-40.910442984501046
20
50.510747913804366
42
-0.14502948521479894
10
-6.7910447761194002
20
64.644270518343248
42
0.38387870150014741
10
-5
20
66.633324995830733
0
CIRCLE
5
101
100
AcDbEntity
8
0
100
AcDbCircle
10
-77.500001154839993
20
28.758252378215758
30
0
40
1.6000000000000014
210
0
220
0
230
1
0
CIRCLE
5
102
100
AcDbEntity
8
0
100
AcDbCircle
10
-77.500001154839993
20
-5.6884665801314132
30
0
40
1.6000000000000014
210
0
220
0
230
1
0
CIRCLE
5
103
100
AcDbEntity
8
0
100
AcDbCircle
10
11.750000104308132
20
82.500001229345798
30
0
40
1.6000000000000059
210
0
220
0
230
1
0
CIRCLE
5
104
100
AcDbEntity
8
0
100
AcDbCircle
10
-11.750000104308128
20
82.500001229345798
30
0
40
1.6000000000000036
210
0
220
0
230
1
0
LWPOLYLINE
5
105
100
AcDbEntity
8
0
100
AcDbPolyline
90
2
70
1
43
0.0
10
46.097722286464418
20
-30.000000000000028
42
1.8439088914585786
10
-46.097722286464432
20
-30.000000000000018
0
CIRCLE
5
106
100
AcDbEntity
8
0
100
AcDbCircle
10
-58.43588913245533
20
-33.737976320958268
30
0
40
1.6000000000000014
210
0
220
0
230
1
0
CIRCLE
5
107
100
AcDbEntity
8
0
100
AcDbCircle
10
58.435889132455365
20
-33.737976320958218
30
0
40
1.6000000000000014
210
0
220
0
230
1
0
CIRCLE
5
108
100
AcDbEntity
8
0
100
AcDbCircle
10
-47.712703680121493
20
47.712703680121422
30
0
40
1.6000000000000014
210
0
220
0
230
1
0
CIRCLE
5
109
100
AcDbEntity
8
0
100
AcDbCircle
10
47.712703680121457
20
47.712703680121464
30
0
40
1.6000000000000014
210
0
220
0
230
1
0
CIRCLE
5
110
100
AcDbEntity
8
0
100
AcDbCircle
10
77.500001154839993
20
-5.6884665801314167
30
0
40
1.6000000000000014
210
0
220
0
230
1
0
CIRCLE
5
111
100
AcDbEntity
8
0
100
AcDbCircle
10
77.500001154839993
20
28.758252378215758
30
0
40
1.6000000000000014
210
0
220
0
230
1
0
ENDSEC
0
SECTION
2
OBJECTS
0
DICTIONARY
5
C
100
AcDbDictionary
3
ACAD_GROUP
350
D
3
ACAD_MLINESTYLE
350
17
0
DICTIONARY
5
D
100
AcDbDictionary
0
DICTIONARY
5
1A
330
C
100
AcDbDictionary
0
DICTIONARY
5
17
100
AcDbDictionary
0
ENDSEC
0
EOF
