0
SECTION
2
HEADER
9
$INSUNITS
70
4
9
$ACADVER
1
AC1014
9
$HANDSEED
5
FFFF
0
ENDSEC
0
SECTION
2
TABLES
0
TABLE
2
VPORT
5
8
100
AcDbSymbolTable
0
ENDTAB
0
TABLE
2
LTYPE
5
5
100
AcDbSymbolTable
0
LTYPE
5
14
100
AcDbSymbolTableRecord
100
AcDbLinetypeTableRecord
2
BYBLOCK
70
0
0
LTYPE
5
15
100
AcDbSymbolTableRecord
100
AcDbLinetypeTableRecord
2
BYLAYER
70
0
0
ENDTAB
0
TABLE
2
LAYER
5
2
100
AcDbSymbolTable
70
2
0
LAYER
5
50
100
AcDbSymbolTableRecord
100
AcDbLayerTableRecord
2
0
70
0
6
CONTINUOUS
0
ENDTAB
0
TABLE
2
STYLE
5
3
100
AcDbSymbolTable
70
1
0
STYLE
5
11
100
AcDbSymbolTableRecord
100
AcDbTextStyleTableRecord
2
STANDARD
70
0
0
ENDTAB
0
TABLE
2
VIEW
5
6
100
AcDbSymbolTable
70
0
0
ENDTAB
0
TABLE
2
UCS
5
7
100
AcDbSymbolTable
70
0
0
ENDTAB
0
TABLE
2
APPID
5
9
100
AcDbSymbolTable
70
2
0
APPID
5
12
100
AcDbSymbolTableRecord
100
AcDbRegAppTableRecord
2
ACAD
70
0
0
ENDTAB
0
TABLE
2
DIMSTYLE
5
A
100
AcDbSymbolTable
70
1
0
ENDTAB
0
TABLE
2
BLOCK_RECORD
5
1
100
AcDbSymbolTable
70
1
0
BLOCK_RECORD
5
1F
100
AcDbSymbolTableRecord
100
AcDbBlockTableRecord
2
*MODEL_SPACE
0
BLOCK_RECORD
5
1B
100
AcDbSymbolTableRecord
100
AcDbBlockTableRecord
2
*PAPER_SPACE
0
ENDTAB
0
ENDSEC
0
SECTION
2
BLOCKS
0
BLOCK
5
20
100
AcDbEntity
100
AcDbBlockBegin
2
*MODEL_SPACE
0
ENDBLK
5
21
100
AcDbEntity
100
AcDbBlockEnd
0
BLOCK
5
1C
100
AcDbEntity
100
AcDbBlockBegin
2
*PAPER_SPACE
0
ENDBLK
5
1D
100
AcDbEntity
100
AcDbBlockEnd
0
ENDSEC
0
SECTION
2
ENTITIES
0
CIRCLE
5
100
100
AcDbEntity
8
0
100
AcDbCircle
10
-52.000000774860382
20
23.500000350177288
30
0
40
1.1249999999999982
210
0
220
0
230
1
0
CIRCLE
5
101
100
AcDbEntity
8
0
100
AcDbCircle
10
-52.000000774860382
20
-9.0000001341104507
30
0
40
1.1249999999999982
210
0
220
0
230
1
0
LWPOLYLINE
5
102
100
AcDbEntity
8
0
100
AcDbPolyline
90
24
70
1
43
0.0
10
-31.062856401073269
20
11.86483451205865
42
0.47041751328074899
10
-30.903895350004017
20
12.215683520010266
42
0.026768590604838129
10
-31.059902055287928
20
12.496215984384257
42
0.091707695538955761
10
-31.088540068297242
20
12.563096834943316
42
0.056349988796959218
10
-31.522811031595399
20
13.078620795175272
10
-43.24432398750843
20
24.178312927399407
42
0.19184219228327251
10
-45.307078072050274
20
25.000000372529033
10
-49.042139020158544
20
25.000000372529026
42
-0.19184219228327376
10
-51.104893104700402
20
25.821687817658649
10
-54.132281254096235
20
28.688474430395882
42
0.19184219228327251
10
-56.195035338638078
20
29.510161875525508
10
-66.94185026822484
20
29.510161875525505
42
0.30761893652350425
10
-69.731094029400879
20
27.6147519536724
42
0.1262637778136558
10
-74.411755600224467
20
-9.3750001862645238
42
0.37796447229403857
10
-71.435285376215504
20
-12.000000178813938
10
-52.014935528694664
20
-12.000000178813934
42
0.20890041884730737
10
-49.813827697104855
20
-11.038412382886996
10
-31.384457284547437
20
8.8618960362318351
42
0.039869072589812801
10
-31.088826221096532
20
9.2370900074831006
42
0.090450902522954027
10
-31.060398526449625
20
9.3029937544629711
42
0.02684638474300011
10
-30.903895350004017
20
9.5843159927217627
42
0.47041751328075593
10
-31.062856401073269
20
9.9351650006733809
42
-0.11085127167377605
10
-31.449999279844203
20
10.140065550967082
42
-2.1712406033874601
10
-31.449999279844217
20
11.65993396176496
42
-0.11085127167376964
0
LWPOLYLINE
5
103
100
AcDbEntity
8
0
100
AcDbPolyline
90
6
70
1
43
0.0
10
-68.000001013279075
20
-8.0000001341104543
42
0.17040361184978906
10
-68.624999523329947
20
-8.2193741913989822
42
2.081661624968262
10
-68.624999942091108
20
-9.7806257415457907
42
0.17052537845470592
10
-67.999528237018481
20
-9.9999997988343274
10
-62.172068027879099
20
-9.9999997988343257
42
3.1861406616343699
10
-62.172067498711399
20
-7.9999997988343274
0
LWPOLYLINE
5
104
100
AcDbEntity
8
0
100
AcDbPolyline
90
6
70
1
43
0.0
10
-63.499998580664503
20
27.499999385327101
42
0.17040409697778766
10
-64.124998548813267
20
27.280624154346896
42
2.0816660128282778
10
-64.124998548813267
20
25.719374661010789
42
0.17040409697778483
10
-63.499998580664503
20
25.499999407678846
10
-57.624046111359661
20
25.499999407678843
42
3.1860434545629244
10
-57.638199106178291
20
27.49999940767885
0
ENDSEC
0
SECTION
2
OBJECTS
0
DICTIONARY
5
C
100
AcDbDictionary
3
ACAD_GROUP
350
D
3
ACAD_MLINESTYLE
350
17
0
DICTIONARY
5
D
100
AcDbDictionary
0
DICTIONARY
5
1A
330
C
100
AcDbDictionary
0
DICTIONARY
5
17
100
AcDbDictionary
0
ENDSEC
0
EOF
