M48
; DRILL file {KiCad 7.0.9} date 
; FORMAT={-:-/ absolute / metric / decimal}
; #@! TF.CreationDate,2024-06-22T14:18:41+09:00
; #@! TF.GenerationSoftware,Kicad,Pcbnew,7.0.9
; #@! TF.FileFunction,Plated,1,2,PTH
FMAT,2
METRIC
; #@! TA.AperFunction,Plated,PTH,ViaDrill
T1C0.400
; #@! TA.AperFunction,Plated,PTH,ComponentDrill
T2C0.900
; #@! TA.AperFunction,Plated,PTH,ComponentDrill
T3C1.000
%
G90
G05
T1
X-56.631Y-1.899
X-56.464Y-13.075
X-55.956Y-14.98
X-55.829Y2.038
X-55.157Y-1.553
X-53.581Y-2.242
X-53.519Y6.75
X-52.793Y8.033
X-52.781Y-23.743
X-52.318Y-8.968
X-52.019Y-25.648
X-51.21Y13.421
X-50.241Y2.165
X-50.241Y-2.153
X-48.59Y17.659
X-48.463Y-29.077
X-46.812Y21.469
X-46.558Y17.532
X-45.288Y20.707
X-45.161Y26.549
X-44.907Y-31.744
X-43.383Y-30.474
X-41.41Y-37.391
X-39.573Y-42.031
X-38.176Y42.17
X-38.176Y-43.555
X-37.218Y39.592
X-35.255Y45.853
X-33.604Y47.123
X-32.715Y-41.777
X-30.937Y-43.301
X-29.794Y-49.651
X-29.032Y48.647
X-28.905Y-44.571
X-27.889Y-45.587
X-25.349Y50.679
X-24.714Y52.33
X-23.19Y51.822
X-22.936Y45.294
X-21.184Y45.974
X-20.142Y-52.318
X-19.634Y-54.604
X-17.856Y-53.842
X-17.221Y-49.905
X-15.062Y54.616
X-14.046Y56.14
X-13.538Y49.79
X-12.522Y55.251
X-12.268Y49.557
X-11.197Y49.354
X-10.134Y49.393
X-9.855Y-52.572
X-9.601Y-57.144
X-9.474Y-55.112
X-9.132Y50.268
X-8.458Y-52.572
X-8.331Y57.029
X-7.95Y53.981
X-7.569Y-57.398
X-6.883Y-52.699
X-5.029Y49.905
X-4.14Y56.521
X-2.807Y-56.572
X-2.743Y57.918
X-2.311Y-50.743
X-2.108Y51.568
X-1.727Y-49.651
X-0.076Y48.012
X-0.076Y43.567
X-0.076Y-51.302
X0.229Y42.107
X1.422Y41.383
X2.083Y51.568
X2.21Y-50.413
X2.845Y36.836
X4.242Y35.312
X5.255Y48.269
X5.766Y-52.699
X5.794Y44.549
X5.893Y52.203
X6.147Y40.011
X6.363Y42.759
X6.401Y35.312
X8.306Y-54.223
X8.433Y-57.144
X9.195Y52.203
X9.449Y49.155
X9.576Y55.378
X10.719Y49.409
X10.846Y52.076
X11.862Y-51.302
X12.116Y45.091
X12.37Y-54.604
X13.005Y-56.382
X13.767Y49.536
X13.894Y51.695
X14.275Y55.251
X15.037Y-54.604
X15.037Y-56.001
X15.164Y46.736
X16.307Y-50.032
X16.434Y49.536
X16.546Y47.073
X17.323Y45.218
X17.323Y-48.127
X17.831Y53.727
X19.609Y54.616
X19.736Y-47.746
X20.244Y52.965
X21.133Y45.218
X22.784Y-51.048
X23.165Y-46.857
X23.673Y-52.826
X24.308Y45.218
X24.562Y51.695
X25.324Y-50.794
X27.102Y-45.714
X29.769Y49.663
X30.023Y47.504
X30.658Y-42.666
X33.579Y-47.111
X34.214Y-37.205
X34.976Y38.106
X35.103Y-45.968
X36.627Y33.915
X37.135Y-34.157
X37.643Y39.757
X38.024Y43.567
X38.913Y42.805
X39.04Y41.154
X39.167Y-34.03
X41.199Y-38.983
X42.85Y-37.078
X42.977Y-30.347
X43.485Y-38.221
X45.263Y-26.918
X45.644Y21.215
X45.771Y35.185
X45.771Y-21.203
X46.533Y34.423
X46.787Y17.278
X47.549Y-17.266
X48.692Y-28.061
X48.819Y17.659
X50.089Y1.911
X50.216Y-2.026
X52.095Y6.407
X52.121Y-19.933
X52.591Y7.728
X53.534Y7.371
X53.899Y2.419
X53.899Y-12.821
X54.153Y-20.568
X54.407Y1.53
X54.559Y7.372
X54.788Y-18.536
X55.677Y-14.98
X56.185Y-13.202
X56.82Y-3.804
X57.074Y-9.519
X57.328Y-7.487
T2
X-57.669Y0.051
X-57.387Y-5.601
X-57.377Y5.702
X-56.571Y-11.201
X-56.551Y11.301
X-55.191Y-16.689
X-55.162Y16.786
X-55.129Y0.051
X-54.859Y-5.352
X-54.849Y5.453
X-54.08Y-10.705
X-54.06Y10.805
X-53.299Y-22.022
X-53.26Y22.116
X-52.761Y-15.952
X-52.731Y16.049
X-50.952Y-21.05
X-50.913Y21.144
X-50.875Y-27.136
X-50.827Y27.225
X-48.635Y-25.938
X-48.587Y26.028
X-47.978Y-31.997
X-47.922Y32.082
X-45.866Y-30.586
X-45.81Y30.67
X-44.603Y-36.539
X-44.539Y36.618
X-42.64Y-34.928
X-42.575Y35.007
X-40.814Y-40.742
X-40.742Y40.814
X-39.018Y-38.946
X-38.946Y39.018
X-36.618Y-44.539
X-36.539Y44.603
X-35.007Y-42.575
X-34.928Y42.64
X-32.082Y-47.922
X-31.902Y48.012
X-30.67Y-45.81
X-30.491Y45.9
X-27.225Y-50.827
X-27.136Y50.875
X-26.028Y-48.587
X-25.938Y48.635
X-22.116Y-53.26
X-22.022Y53.299
X-21.144Y-50.913
X-21.05Y50.952
X-16.786Y-55.162
X-16.689Y55.191
X-16.049Y-52.731
X-15.952Y52.761
X-11.301Y-56.551
X-11.176Y56.521
X-10.805Y-54.06
X-10.68Y54.03
X-5.702Y-57.377
X-5.601Y57.387
X-5.453Y-54.849
X-5.352Y54.859
X-0.051Y-55.129
X-0.051Y-57.669
X0.051Y57.669
X0.051Y55.129
X5.352Y-54.859
X5.453Y54.849
X5.601Y-57.387
X5.702Y57.377
X10.705Y-54.08
X10.805Y54.06
X11.201Y-56.571
X11.301Y56.551
X15.952Y-52.761
X16.049Y52.731
X16.689Y-55.191
X16.786Y55.162
X21.05Y-50.952
X21.144Y50.913
X22.022Y-53.299
X22.116Y53.26
X25.938Y-48.635
X26.028Y48.587
X27.136Y-50.875
X27.225Y50.827
X30.586Y-45.866
X30.67Y45.81
X31.997Y-47.978
X32.082Y47.922
X34.928Y-42.64
X35.007Y42.575
X36.539Y-44.603
X36.618Y44.539
X38.946Y-39.018
X39.018Y38.946
X40.742Y-40.814
X40.814Y40.742
X42.575Y-35.007
X42.64Y34.928
X44.539Y-36.618
X44.603Y36.539
X45.81Y-30.67
X45.866Y30.586
X47.922Y-32.082
X47.978Y31.997
X48.587Y-26.028
X48.635Y25.938
X50.827Y-27.225
X50.875Y27.136
X50.913Y-21.144
X50.952Y21.05
X52.731Y-16.049
X52.761Y15.952
X53.26Y-22.116
X53.299Y22.022
X54.06Y-10.805
X54.08Y10.705
X54.849Y-5.453
X54.859Y5.352
X55.129Y-0.051
X55.162Y-16.786
X55.191Y16.689
X56.551Y-11.301
X56.571Y11.201
X57.377Y-5.702
X57.387Y5.601
X57.669Y-0.051
T3
X-7.518Y49.181
X-7.518Y46.641
X-7.518Y44.101
X-7.518Y41.561
X-7.518Y39.021
X-7.518Y36.481
X-7.518Y33.941
X-3.745Y38.747
X-1.205Y38.747
X1.335Y38.747
X3.875Y38.747
X7.722Y49.181
X7.722Y46.641
X7.722Y44.101
X7.722Y41.561
X7.722Y39.021
X7.722Y36.481
X7.722Y33.941
T0
M30
