%TF.GenerationSoftware,KiCad,Pcbnew,(6.0.11)*%
%TF.CreationDate,2023-09-02T14:34:40+09:00*%
%TF.ProjectId,line_board,6c696e65-5f62-46f6-9172-642e6b696361,rev?*%
%TF.SameCoordinates,Original*%
%TF.FileFunction,Profile,NP*%
%FSLAX46Y46*%
G04 Gerber Fmt 4.6, Leading zero omitted, Abs format (unit mm)*
G04 Created by KiCad (PCBNEW (6.0.11)) date 2023-09-02 14:34:40*
%MOMM*%
%LPD*%
G01*
G04 APERTURE LIST*
%TA.AperFunction,Profile*%
%ADD10C,0.200000*%
%TD*%
G04 APERTURE END LIST*
D10*
X106945485Y-114219043D02*
X105433666Y-115091906D01*
X196366319Y-120288126D02*
G75*
G03*
X199366352Y-115091916I1499981J2598126D01*
G01*
X191644459Y-56438199D02*
G75*
G03*
X187401801Y-52195541I-2121359J2121299D01*
G01*
X193020184Y-85872080D02*
G75*
G03*
X192524805Y-85439982I-495384J-67920D01*
G01*
X114521780Y-60355551D02*
G75*
G03*
X114389965Y-57672605I-1546080J1268751D01*
G01*
X197032734Y-111661605D02*
G75*
G03*
X197854515Y-114219043I1821666J-825395D01*
G01*
X197032779Y-111661625D02*
G75*
G03*
X190278209Y-60355560I-44632779J20221645D01*
G01*
X191123106Y-54316876D02*
G75*
G03*
X191123106Y-54316876I-1600000J0D01*
G01*
X116876894Y-54316876D02*
G75*
G03*
X116876894Y-54316876I-1600000J0D01*
G01*
X112275195Y-85439993D02*
G75*
G03*
X111779827Y-85872081I5J-500007D01*
G01*
X108533666Y-117689982D02*
G75*
G03*
X108533666Y-117689982I-1600000J0D01*
G01*
X187401801Y-52195541D02*
X186167377Y-53429947D01*
X113155559Y-56438181D02*
X114389965Y-57672605D01*
X114521789Y-60355559D02*
G75*
G03*
X107767219Y-111661626I37878211J-31084421D01*
G01*
X194854503Y-119415216D02*
X196366352Y-120288069D01*
X112571152Y-119982282D02*
G75*
G03*
X192228848Y-119982282I39828848J28542301D01*
G01*
X112275195Y-85439982D02*
X192524805Y-85439982D01*
X118632597Y-53429973D02*
G75*
G03*
X121315578Y-53561773I1414203J1414273D01*
G01*
X183484422Y-53561773D02*
G75*
G03*
X121315578Y-53561773I-31084422J-37878209D01*
G01*
X190410025Y-57672595D02*
G75*
G03*
X190278209Y-60355560I1414275J-1414205D01*
G01*
X194854489Y-119415240D02*
G75*
G03*
X192228848Y-119982282I-999989J-1732060D01*
G01*
X199466334Y-117689982D02*
G75*
G03*
X199466334Y-117689982I-1600000J0D01*
G01*
X112571174Y-119982266D02*
G75*
G03*
X109945497Y-119415216I-1625674J-1165034D01*
G01*
X179374785Y-60563438D02*
G75*
G03*
X125425215Y-60563438I-26974785J-30876544D01*
G01*
X105433698Y-115091962D02*
G75*
G03*
X108433648Y-120288069I1500002J-2598038D01*
G01*
X108433648Y-120288069D02*
X109945497Y-119415216D01*
X190410035Y-57672605D02*
X191644441Y-56438181D01*
X106945480Y-114219035D02*
G75*
G03*
X107767219Y-111661626I-999980J1732035D01*
G01*
X118632623Y-53429947D02*
X117398199Y-52195541D01*
X111779827Y-85872081D02*
G75*
G03*
X193020173Y-85872081I40620173J-5567901D01*
G01*
X117398191Y-52195549D02*
G75*
G03*
X113155559Y-56438181I-2121301J-2121331D01*
G01*
X125754175Y-61439982D02*
X179045825Y-61439982D01*
X179045825Y-61440030D02*
G75*
G03*
X179374785Y-60563438I-25J500030D01*
G01*
X199366352Y-115091916D02*
X197854515Y-114219043D01*
X183484449Y-53561740D02*
G75*
G03*
X186167377Y-53429947I1268751J1546140D01*
G01*
X125425247Y-60563474D02*
G75*
G03*
X125754175Y-61439982I328953J-376526D01*
G01*
M02*
