M48
; DRILL file {KiCad (6.0.11)} date Sat Sep  2 14:34:46 2023
; FORMAT={-:-/ absolute / metric / decimal}
; #@! TF.CreationDate,2023-09-02T14:34:46+09:00
; #@! TF.GenerationSoftware,Kicad,Pcbnew,(6.0.11)
; #@! TF.FileFunction,Plated,1,2,PTH
FMAT,2
METRIC
; #@! TA.AperFunction,Plated,PTH,ViaDrill
T1C0.400
; #@! TA.AperFunction,Plated,PTH,ComponentDrill
T2C0.762
; #@! TA.AperFunction,Plated,PTH,ComponentDrill
T3C0.800
; #@! TA.AperFunction,Plated,PTH,ComponentDrill
T4C0.900
; #@! TA.AperFunction,Plated,PTH,ComponentDrill
T5C0.950
; #@! TA.AperFunction,Plated,PTH,ComponentDrill
T6C1.000
%
G90
G05
T1
X107.086Y-103.124
X110.245Y-108.79
X113.792Y-80.467
X115.164Y-71.425
X115.824Y-63.094
X116.18Y-120.904
X119.008Y-123.529
X119.177Y-73.101
X120.447Y-124.663
X120.955Y-77.775
X125.12Y-125.628
X129.642Y-50.952
X132.029Y-80.264
X134.366Y-65.176
X135.28Y-80.467
X140.157Y-135.89
X140.208Y-46.431
X152.451Y-73.05
X158.801Y-84.328
X162.255Y-77.165
X162.357Y-63.652
X162.357Y-66.7
X162.357Y-71.984
X162.458Y-73.965
X162.865Y-84.074
X164.592Y-48.311
X165.049Y-136.449
X180.645Y-127.914
X180.848Y-64.11
X181.051Y-53.95
X183.998Y-66.802
X186.182Y-118.669
X186.792Y-77.013
X187.198Y-71.882
X187.35Y-74.168
X191.922Y-78.74
X192.126Y-84.125
X192.786Y-67.97
X193.904Y-105.105
X194.59Y-95.301
X195.326Y-86.157
T2
X104.414Y-88.9
X104.414Y-93.98
X106.954Y-88.9
X106.954Y-93.98
X107.095Y-75.423
X107.095Y-107.457
X109.039Y-70.73
X109.039Y-112.15
X109.441Y-76.395
X109.441Y-106.485
X111.385Y-71.702
X111.385Y-111.178
X116.673Y-59.305
X116.673Y-123.575
X118.469Y-61.101
X118.469Y-121.779
X120.265Y-55.713
X120.265Y-127.167
X122.061Y-57.509
X122.061Y-125.371
X131.69Y-48.079
X131.69Y-134.801
X132.662Y-50.425
X132.662Y-132.455
X136.383Y-46.135
X136.383Y-136.745
X137.355Y-48.481
X137.355Y-134.399
X149.86Y-43.454
X149.86Y-45.994
X149.86Y-136.886
X149.86Y-139.426
X154.94Y-43.454
X154.94Y-45.994
X154.94Y-136.886
X154.94Y-139.426
X167.445Y-48.481
X167.445Y-134.399
X168.417Y-46.135
X168.417Y-136.745
X172.138Y-50.425
X172.138Y-132.455
X173.11Y-48.079
X173.11Y-134.801
X182.739Y-57.509
X182.739Y-125.371
X184.535Y-55.713
X184.535Y-127.167
X186.331Y-61.101
X186.331Y-121.779
X188.127Y-59.305
X188.127Y-123.575
X193.415Y-71.702
X193.415Y-111.178
X195.359Y-76.395
X195.359Y-106.485
X195.761Y-70.73
X195.761Y-112.15
X197.705Y-75.423
X197.705Y-107.457
X197.846Y-88.9
X197.846Y-93.98
X200.386Y-88.9
X200.386Y-93.98
T3
X109.728Y-90.19
X109.728Y-92.69
X112.498Y-76.265
X112.498Y-106.615
X113.455Y-73.955
X113.455Y-108.925
X121.342Y-62.15
X121.342Y-120.73
X123.11Y-60.382
X123.11Y-122.498
X134.915Y-52.495
X134.915Y-130.385
X137.225Y-51.538
X137.225Y-131.342
X137.77Y-73.692
X137.77Y-76.192
X151.15Y-48.768
X151.15Y-134.112
X153.65Y-48.768
X153.65Y-134.112
X167.575Y-51.538
X167.575Y-131.342
X169.885Y-52.495
X169.885Y-130.385
X181.69Y-60.382
X181.69Y-122.498
X183.458Y-62.15
X183.458Y-120.73
X191.345Y-73.955
X191.345Y-108.925
X192.302Y-76.265
X192.302Y-106.615
X195.072Y-90.19
X195.072Y-92.69
T4
X107.065Y-82.422
X107.065Y-100.458
X109.556Y-82.918
X109.556Y-99.962
X113.963Y-117.123
X113.967Y-65.76
X116.075Y-115.712
X116.079Y-67.171
X126.717Y-53.003
X126.717Y-129.877
X128.128Y-55.115
X128.128Y-127.765
X143.381Y-46.1
X143.381Y-136.78
X143.877Y-48.591
X143.877Y-134.289
X160.922Y-48.596
X160.923Y-134.289
X161.418Y-46.105
X161.419Y-136.78
X176.669Y-55.119
X176.669Y-127.761
X178.08Y-53.007
X178.08Y-129.873
X188.725Y-67.168
X188.725Y-115.712
X190.837Y-65.757
X190.837Y-117.123
X195.249Y-82.917
X195.249Y-99.963
X197.74Y-82.421
X197.74Y-100.459
T5
X128.287Y-68.66
X128.287Y-71.16
X128.287Y-73.66
X128.287Y-76.16
X128.287Y-78.66
T6
X144.78Y-65.405
X144.78Y-67.945
X144.78Y-70.485
X144.78Y-73.025
X144.78Y-75.565
X144.78Y-78.105
X144.78Y-80.645
X160.02Y-65.405
X160.02Y-67.945
X160.02Y-70.485
X160.02Y-73.025
X160.02Y-75.565
X160.02Y-78.105
X160.02Y-80.645
T0
M30
