%TF.GenerationSoftware,KiCad,Pcbnew,7.0.9*%
%TF.CreationDate,2024-06-22T15:13:28+09:00*%
%TF.ProjectId,Sensor,53656e73-6f72-42e6-9b69-6361645f7063,rev?*%
%TF.SameCoordinates,Original*%
%TF.FileFunction,Drillmap*%
%TF.FilePolarity,Positive*%
%FSLAX45Y45*%
G04 Gerber Fmt 4.5, Leading zero omitted, Abs format (unit mm)*
G04 Created by KiCad (PCBNEW 7.0.9) date 2024-06-22 15:13:28*
%MOMM*%
%LPD*%
G01*
G04 APERTURE LIST*
%ADD10C,0.200000*%
G04 APERTURE END LIST*
D10*
X14540200Y-11732380D02*
X14540200Y-11239780D01*
X14540200Y-11732380D02*
G75*
G03*
X14840200Y-12032380I300000J0D01*
G01*
X19214314Y-7381088D02*
G75*
G03*
X18188473Y-5826304I-3974114J-1506292D01*
G01*
X15940200Y-11239780D02*
G75*
G03*
X15640200Y-10939780I-300000J0D01*
G01*
X16740200Y-12032380D02*
X17980360Y-12032380D01*
X16521976Y-10096520D02*
G75*
G03*
X16440200Y-10302378I218224J-205860D01*
G01*
X14040200Y-7597045D02*
X14040200Y-6042380D01*
X16740200Y-5742380D02*
G75*
G03*
X16440200Y-6042380I0J-300000D01*
G01*
X14040201Y-10302378D02*
G75*
G03*
X13958425Y-10096520I-300001J-2D01*
G01*
X14040200Y-6042380D02*
G75*
G03*
X13740200Y-5742380I-300000J0D01*
G01*
X13740200Y-5742380D02*
X12500040Y-5742380D01*
X13740200Y-12032380D02*
G75*
G03*
X14040200Y-11732380I0J300000D01*
G01*
X16440200Y-11732380D02*
G75*
G03*
X16740200Y-12032380I300000J0D01*
G01*
X17980360Y-12032380D02*
G75*
G03*
X18188473Y-11948456I0J300000D01*
G01*
X18640200Y-9687380D02*
X18640200Y-8087380D01*
X18936994Y-7787390D02*
G75*
G03*
X19214314Y-7381088I-3204J299980D01*
G01*
X11266079Y-7381085D02*
G75*
G03*
X11543406Y-7787397I280531J-106325D01*
G01*
X18936994Y-7787397D02*
G75*
G03*
X18640200Y-8087380I3206J-299983D01*
G01*
X11543406Y-9987361D02*
G75*
G03*
X11266086Y-10393672I3214J-299989D01*
G01*
X19090200Y-9687380D02*
G75*
G03*
X19090200Y-9687380I-150000J0D01*
G01*
X18640200Y-9687380D02*
G75*
G03*
X18936994Y-9987363I300000J0D01*
G01*
X11690200Y-9687380D02*
G75*
G03*
X11690200Y-9687380I-150000J0D01*
G01*
X16440200Y-10302378D02*
X16440200Y-11732380D01*
X12291927Y-5826304D02*
G75*
G03*
X11266086Y-7381088I2948273J-3061076D01*
G01*
X19214321Y-10393675D02*
G75*
G03*
X18936994Y-9987363I-280531J106325D01*
G01*
X14840200Y-10939780D02*
X15640200Y-10939780D01*
X16823200Y-9407380D02*
G75*
G03*
X16823200Y-9407380I-110000J0D01*
G01*
X16521975Y-10096520D02*
G75*
G03*
X16440200Y-7597045I-1281775J1209140D01*
G01*
X15640200Y-12032380D02*
X14840200Y-12032380D01*
X12291927Y-11948456D02*
G75*
G03*
X12500040Y-12032380I208113J216076D01*
G01*
X11690200Y-8087380D02*
G75*
G03*
X11690200Y-8087380I-150000J0D01*
G01*
X11840200Y-8087380D02*
X11840200Y-9687380D01*
X17980360Y-5742380D02*
X16740200Y-5742380D01*
X11840200Y-8087380D02*
G75*
G03*
X11543406Y-7787397I-300000J0D01*
G01*
X16240200Y-8887380D02*
G75*
G03*
X16240200Y-8887380I-1000000J0D01*
G01*
X14040200Y-11732380D02*
X14040200Y-10302378D01*
X12500040Y-5742380D02*
G75*
G03*
X12291927Y-5826304I0J-300000D01*
G01*
X15640200Y-12032380D02*
G75*
G03*
X15940200Y-11732380I0J300000D01*
G01*
X19090200Y-8087380D02*
G75*
G03*
X19090200Y-8087380I-150000J0D01*
G01*
X15940200Y-11239780D02*
X15940200Y-11732380D01*
X18188473Y-5826304D02*
G75*
G03*
X17980360Y-5742380I-208113J-216076D01*
G01*
X11266086Y-10393672D02*
G75*
G03*
X12291927Y-11948456I3974114J1506292D01*
G01*
X14840200Y-10939780D02*
G75*
G03*
X14540200Y-11239780I0J-300000D01*
G01*
X13877200Y-9407380D02*
G75*
G03*
X13877200Y-9407380I-110000J0D01*
G01*
X12500040Y-12032380D02*
X13740200Y-12032380D01*
X14040200Y-7597045D02*
G75*
G03*
X13958425Y-10096520I1200000J-1290335D01*
G01*
X18188473Y-11948456D02*
G75*
G03*
X19214314Y-10393672I-2948273J3061076D01*
G01*
X16440200Y-6042380D02*
X16440200Y-7597045D01*
X20240200Y-8887380D02*
G75*
G03*
X20240200Y-8887380I-5000000J0D01*
G01*
X11543406Y-9987363D02*
G75*
G03*
X11840200Y-9687380I-3206J299983D01*
G01*
X10490977Y-14208864D02*
X10490977Y-14008864D01*
X10490977Y-14008864D02*
X10538596Y-14008864D01*
X10538596Y-14008864D02*
X10567167Y-14018388D01*
X10567167Y-14018388D02*
X10586215Y-14037435D01*
X10586215Y-14037435D02*
X10595739Y-14056483D01*
X10595739Y-14056483D02*
X10605263Y-14094578D01*
X10605263Y-14094578D02*
X10605263Y-14123149D01*
X10605263Y-14123149D02*
X10595739Y-14161245D01*
X10595739Y-14161245D02*
X10586215Y-14180292D01*
X10586215Y-14180292D02*
X10567167Y-14199340D01*
X10567167Y-14199340D02*
X10538596Y-14208864D01*
X10538596Y-14208864D02*
X10490977Y-14208864D01*
X10690977Y-14208864D02*
X10690977Y-14075530D01*
X10690977Y-14113626D02*
X10700501Y-14094578D01*
X10700501Y-14094578D02*
X10710024Y-14085054D01*
X10710024Y-14085054D02*
X10729072Y-14075530D01*
X10729072Y-14075530D02*
X10748120Y-14075530D01*
X10814786Y-14208864D02*
X10814786Y-14075530D01*
X10814786Y-14008864D02*
X10805263Y-14018388D01*
X10805263Y-14018388D02*
X10814786Y-14027911D01*
X10814786Y-14027911D02*
X10824310Y-14018388D01*
X10824310Y-14018388D02*
X10814786Y-14008864D01*
X10814786Y-14008864D02*
X10814786Y-14027911D01*
X10938596Y-14208864D02*
X10919548Y-14199340D01*
X10919548Y-14199340D02*
X10910024Y-14180292D01*
X10910024Y-14180292D02*
X10910024Y-14008864D01*
X11043358Y-14208864D02*
X11024310Y-14199340D01*
X11024310Y-14199340D02*
X11014786Y-14180292D01*
X11014786Y-14180292D02*
X11014786Y-14008864D01*
X11271929Y-14208864D02*
X11271929Y-14008864D01*
X11271929Y-14008864D02*
X11338596Y-14151721D01*
X11338596Y-14151721D02*
X11405262Y-14008864D01*
X11405262Y-14008864D02*
X11405262Y-14208864D01*
X11586215Y-14208864D02*
X11586215Y-14104102D01*
X11586215Y-14104102D02*
X11576691Y-14085054D01*
X11576691Y-14085054D02*
X11557643Y-14075530D01*
X11557643Y-14075530D02*
X11519548Y-14075530D01*
X11519548Y-14075530D02*
X11500501Y-14085054D01*
X11586215Y-14199340D02*
X11567167Y-14208864D01*
X11567167Y-14208864D02*
X11519548Y-14208864D01*
X11519548Y-14208864D02*
X11500501Y-14199340D01*
X11500501Y-14199340D02*
X11490977Y-14180292D01*
X11490977Y-14180292D02*
X11490977Y-14161245D01*
X11490977Y-14161245D02*
X11500501Y-14142197D01*
X11500501Y-14142197D02*
X11519548Y-14132673D01*
X11519548Y-14132673D02*
X11567167Y-14132673D01*
X11567167Y-14132673D02*
X11586215Y-14123149D01*
X11681453Y-14075530D02*
X11681453Y-14275530D01*
X11681453Y-14085054D02*
X11700501Y-14075530D01*
X11700501Y-14075530D02*
X11738596Y-14075530D01*
X11738596Y-14075530D02*
X11757643Y-14085054D01*
X11757643Y-14085054D02*
X11767167Y-14094578D01*
X11767167Y-14094578D02*
X11776691Y-14113626D01*
X11776691Y-14113626D02*
X11776691Y-14170768D01*
X11776691Y-14170768D02*
X11767167Y-14189816D01*
X11767167Y-14189816D02*
X11757643Y-14199340D01*
X11757643Y-14199340D02*
X11738596Y-14208864D01*
X11738596Y-14208864D02*
X11700501Y-14208864D01*
X11700501Y-14208864D02*
X11681453Y-14199340D01*
X11862405Y-14189816D02*
X11871929Y-14199340D01*
X11871929Y-14199340D02*
X11862405Y-14208864D01*
X11862405Y-14208864D02*
X11852882Y-14199340D01*
X11852882Y-14199340D02*
X11862405Y-14189816D01*
X11862405Y-14189816D02*
X11862405Y-14208864D01*
X11862405Y-14085054D02*
X11871929Y-14094578D01*
X11871929Y-14094578D02*
X11862405Y-14104102D01*
X11862405Y-14104102D02*
X11852882Y-14094578D01*
X11852882Y-14094578D02*
X11862405Y-14085054D01*
X11862405Y-14085054D02*
X11862405Y-14104102D01*
M02*
