%TF.GenerationSoftware,KiCad,Pcbnew,7.0.9*%
%TF.CreationDate,2024-06-22T15:13:25+09:00*%
%TF.ProjectId,Sensor,53656e73-6f72-42e6-9b69-6361645f7063,rev?*%
%TF.SameCoordinates,Original*%
%TF.FileFunction,Soldermask,Top*%
%TF.FilePolarity,Negative*%
%FSLAX46Y46*%
G04 Gerber Fmt 4.6, Leading zero omitted, Abs format (unit mm)*
G04 Created by KiCad (PCBNEW 7.0.9) date 2024-06-22 15:13:25*
%MOMM*%
%LPD*%
G01*
G04 APERTURE LIST*
G04 Aperture macros list*
%AMRoundRect*
0 Rectangle with rounded corners*
0 $1 Rounding radius*
0 $2 $3 $4 $5 $6 $7 $8 $9 X,Y pos of 4 corners*
0 Add a 4 corners polygon primitive as box body*
4,1,4,$2,$3,$4,$5,$6,$7,$8,$9,$2,$3,0*
0 Add four circle primitives for the rounded corners*
1,1,$1+$1,$2,$3*
1,1,$1+$1,$4,$5*
1,1,$1+$1,$6,$7*
1,1,$1+$1,$8,$9*
0 Add four rect primitives between the rounded corners*
20,1,$1+$1,$2,$3,$4,$5,0*
20,1,$1+$1,$4,$5,$6,$7,0*
20,1,$1+$1,$6,$7,$8,$9,0*
20,1,$1+$1,$8,$9,$2,$3,0*%
G04 Aperture macros list end*
%ADD10RoundRect,0.135000X0.135000X0.185000X-0.135000X0.185000X-0.135000X-0.185000X0.135000X-0.185000X0*%
%ADD11RoundRect,0.135000X-0.053927X-0.222580X0.195520X-0.119255X0.053927X0.222580X-0.195520X0.119255X0*%
%ADD12RoundRect,0.140000X0.021213X-0.219203X0.219203X-0.021213X-0.021213X0.219203X-0.219203X0.021213X0*%
%ADD13RoundRect,0.135000X-0.195520X-0.119255X0.053927X-0.222580X0.195520X0.119255X-0.053927X0.222580X0*%
%ADD14RoundRect,0.140000X0.140000X0.170000X-0.140000X0.170000X-0.140000X-0.170000X0.140000X-0.170000X0*%
%ADD15RoundRect,0.135000X-0.222580X0.053927X-0.119255X-0.195520X0.222580X-0.053927X0.119255X0.195520X0*%
%ADD16RoundRect,0.140000X-0.194399X-0.103484X0.064287X-0.210635X0.194399X0.103484X-0.064287X0.210635X0*%
%ADD17C,2.000000*%
%ADD18RoundRect,0.135000X-0.135000X-0.185000X0.135000X-0.185000X0.135000X0.185000X-0.135000X0.185000X0*%
%ADD19R,1.750000X0.450000*%
%ADD20RoundRect,0.135000X-0.119255X0.195520X-0.222580X-0.053927X0.119255X-0.195520X0.222580X0.053927X0*%
%ADD21RoundRect,0.135000X-0.226274X-0.035355X-0.035355X-0.226274X0.226274X0.035355X0.035355X0.226274X0*%
%ADD22RoundRect,0.140000X-0.064287X-0.210635X0.194399X-0.103484X0.064287X0.210635X-0.194399X0.103484X0*%
%ADD23RoundRect,0.140000X0.170000X-0.140000X0.170000X0.140000X-0.170000X0.140000X-0.170000X-0.140000X0*%
%ADD24RoundRect,0.140000X0.210635X-0.064287X0.103484X0.194399X-0.210635X0.064287X-0.103484X-0.194399X0*%
%ADD25RoundRect,0.140000X0.064287X0.210635X-0.194399X0.103484X-0.064287X-0.210635X0.194399X-0.103484X0*%
%ADD26RoundRect,0.135000X0.119255X-0.195520X0.222580X0.053927X-0.119255X0.195520X-0.222580X-0.053927X0*%
%ADD27R,1.700000X1.700000*%
%ADD28O,1.700000X1.700000*%
%ADD29RoundRect,0.135000X0.195520X0.119255X-0.053927X0.222580X-0.195520X-0.119255X0.053927X-0.222580X0*%
%ADD30RoundRect,0.140000X0.219203X0.021213X0.021213X0.219203X-0.219203X-0.021213X-0.021213X-0.219203X0*%
%ADD31RoundRect,0.135000X0.226274X0.035355X0.035355X0.226274X-0.226274X-0.035355X-0.035355X-0.226274X0*%
%ADD32RoundRect,0.140000X0.194399X0.103484X-0.064287X0.210635X-0.194399X-0.103484X0.064287X-0.210635X0*%
%ADD33RoundRect,0.135000X-0.035355X0.226274X-0.226274X0.035355X0.035355X-0.226274X0.226274X-0.035355X0*%
%ADD34RoundRect,0.140000X-0.170000X0.140000X-0.170000X-0.140000X0.170000X-0.140000X0.170000X0.140000X0*%
%ADD35RoundRect,0.140000X0.103484X-0.194399X0.210635X0.064287X-0.103484X0.194399X-0.210635X-0.064287X0*%
%ADD36RoundRect,0.140000X-0.103484X0.194399X-0.210635X-0.064287X0.103484X-0.194399X0.210635X0.064287X0*%
%ADD37RoundRect,0.140000X-0.219203X-0.021213X-0.021213X-0.219203X0.219203X0.021213X0.021213X0.219203X0*%
%ADD38RoundRect,0.135000X-0.185000X0.135000X-0.185000X-0.135000X0.185000X-0.135000X0.185000X0.135000X0*%
%ADD39RoundRect,0.135000X0.185000X-0.135000X0.185000X0.135000X-0.185000X0.135000X-0.185000X-0.135000X0*%
%ADD40RoundRect,0.140000X-0.140000X-0.170000X0.140000X-0.170000X0.140000X0.170000X-0.140000X0.170000X0*%
%ADD41C,1.700000*%
%ADD42RoundRect,0.135000X0.053927X0.222580X-0.195520X0.119255X-0.053927X-0.222580X0.195520X-0.119255X0*%
%ADD43RoundRect,0.250200X0.351669X0.849005X-0.849005X0.351669X-0.351669X-0.849005X0.849005X-0.351669X0*%
%ADD44C,1.800000*%
%ADD45RoundRect,0.250000X-0.600000X-0.725000X0.600000X-0.725000X0.600000X0.725000X-0.600000X0.725000X0*%
%ADD46O,1.700000X1.950000*%
%ADD47RoundRect,0.250200X0.849005X0.351669X-0.351669X0.849005X-0.849005X-0.351669X0.351669X-0.849005X0*%
%ADD48RoundRect,0.250200X-0.849005X0.351669X-0.351669X-0.849005X0.849005X-0.351669X0.351669X0.849005X0*%
%ADD49RoundRect,0.250200X-0.351669X-0.849005X0.849005X-0.351669X0.351669X0.849005X-0.849005X0.351669X0*%
%ADD50RoundRect,0.250000X0.600000X-0.600000X0.600000X0.600000X-0.600000X0.600000X-0.600000X-0.600000X0*%
%ADD51RoundRect,0.250200X0.918956X0.000000X0.000000X0.918956X-0.918956X0.000000X0.000000X-0.918956X0*%
%ADD52RoundRect,0.250200X-0.649800X-0.649800X0.649800X-0.649800X0.649800X0.649800X-0.649800X0.649800X0*%
%ADD53RoundRect,0.250200X-0.918956X0.000000X0.000000X-0.918956X0.918956X0.000000X0.000000X0.918956X0*%
%ADD54RoundRect,0.250200X0.000000X0.918956X-0.918956X0.000000X0.000000X-0.918956X0.918956X0.000000X0*%
%ADD55RoundRect,0.250200X-0.351669X0.849005X-0.849005X-0.351669X0.351669X-0.849005X0.849005X0.351669X0*%
%ADD56RoundRect,0.250200X-0.849005X-0.351669X0.351669X-0.849005X0.849005X0.351669X-0.351669X0.849005X0*%
%ADD57RoundRect,0.250200X0.351669X-0.849005X0.849005X0.351669X-0.351669X0.849005X-0.849005X-0.351669X0*%
%ADD58RoundRect,0.250200X0.649800X0.649800X-0.649800X0.649800X-0.649800X-0.649800X0.649800X-0.649800X0*%
%ADD59RoundRect,0.250200X-0.649800X0.649800X-0.649800X-0.649800X0.649800X-0.649800X0.649800X0.649800X0*%
%ADD60RoundRect,0.250200X0.649800X-0.649800X0.649800X0.649800X-0.649800X0.649800X-0.649800X-0.649800X0*%
%ADD61RoundRect,0.250200X0.849005X-0.351669X0.351669X0.849005X-0.849005X0.351669X-0.351669X-0.849005X0*%
%ADD62RoundRect,0.250200X0.000000X-0.918956X0.918956X0.000000X0.000000X0.918956X-0.918956X0.000000X0*%
G04 APERTURE END LIST*
D10*
%TO.C,R5*%
X196819000Y-84599799D03*
X195799000Y-84599799D03*
%TD*%
D11*
%TO.C,R13*%
X112995180Y-109807796D03*
X113937538Y-109417458D03*
%TD*%
D12*
%TO.C,C14*%
X122647389Y-126120211D03*
X123326211Y-125441389D03*
%TD*%
D13*
%TO.C,R11*%
X109729206Y-75810963D03*
X110671564Y-76201301D03*
%TD*%
D14*
%TO.C,C12*%
X108970999Y-94048600D03*
X108010999Y-94048600D03*
%TD*%
D15*
%TO.C,R8*%
X173591631Y-129018021D03*
X173981969Y-129960379D03*
%TD*%
D16*
%TO.C,C6*%
X194506078Y-100699385D03*
X195393002Y-101066761D03*
%TD*%
D17*
%TO.C,SW4*%
X151484400Y-126532200D03*
X144984400Y-126532200D03*
X151484400Y-122032200D03*
X144984400Y-122032200D03*
%TD*%
D18*
%TO.C,R17*%
X164234400Y-124358400D03*
X165254400Y-124358400D03*
%TD*%
D19*
%TO.C,U17*%
X156000000Y-58947000D03*
X156000000Y-58297000D03*
X156000000Y-57647000D03*
X156000000Y-56997000D03*
X156000000Y-56347000D03*
X156000000Y-55697000D03*
X156000000Y-55047000D03*
X156000000Y-54397000D03*
X156000000Y-53747000D03*
X156000000Y-53097000D03*
X156000000Y-52447000D03*
X156000000Y-51797000D03*
X148800000Y-51797000D03*
X148800000Y-52447000D03*
X148800000Y-53097000D03*
X148800000Y-53747000D03*
X148800000Y-54397000D03*
X148800000Y-55047000D03*
X148800000Y-55697000D03*
X148800000Y-56347000D03*
X148800000Y-56997000D03*
X148800000Y-57647000D03*
X148800000Y-58297000D03*
X148800000Y-58947000D03*
%TD*%
D20*
%TO.C,R2*%
X165456037Y-46196208D03*
X165065699Y-47138566D03*
%TD*%
D17*
%TO.C,SW2*%
X141958200Y-126521600D03*
X135458200Y-126521600D03*
X141958200Y-122021600D03*
X135458200Y-122021600D03*
%TD*%
D21*
%TO.C,R10*%
X117973657Y-60475390D03*
X118694905Y-61196638D03*
%TD*%
D17*
%TO.C,SW1*%
X171804400Y-55920200D03*
X165304400Y-55920200D03*
X171804400Y-51420200D03*
X165304400Y-51420200D03*
%TD*%
D15*
%TO.C,R9*%
X131459204Y-49462180D03*
X131849542Y-50404538D03*
%TD*%
D22*
%TO.C,C4*%
X190540253Y-67460267D03*
X191427177Y-67092891D03*
%TD*%
D23*
%TO.C,C1*%
X147218400Y-45438000D03*
X147218400Y-44478000D03*
%TD*%
D24*
%TO.C,C9*%
X130993267Y-50726747D03*
X130625891Y-49839823D03*
%TD*%
D25*
%TO.C,C13*%
X114259747Y-110273733D03*
X113372823Y-110641109D03*
%TD*%
D26*
%TO.C,R15*%
X139343962Y-131537794D03*
X139734300Y-130595436D03*
%TD*%
D12*
%TO.C,C3*%
X179444997Y-54494115D03*
X180123819Y-53815293D03*
%TD*%
D27*
%TO.C,Brd1*%
X172847000Y-126619000D03*
D28*
X170307000Y-126619000D03*
X167767000Y-126619000D03*
X165227000Y-126619000D03*
%TD*%
D29*
%TO.C,R6*%
X195070793Y-101923036D03*
X194128435Y-101532698D03*
%TD*%
D30*
%TO.C,C10*%
X118027114Y-61822003D03*
X117348292Y-61143181D03*
%TD*%
D31*
%TO.C,R7*%
X186826343Y-117258609D03*
X186105095Y-116537361D03*
%TD*%
D32*
%TO.C,C11*%
X110293922Y-77034615D03*
X109406998Y-76667239D03*
%TD*%
D33*
%TO.C,R14*%
X123347424Y-123946976D03*
X122626176Y-124668224D03*
%TD*%
D34*
%TO.C,C16*%
X157581600Y-132296001D03*
X157581600Y-133256001D03*
%TD*%
D35*
%TO.C,C2*%
X164232385Y-46760923D03*
X164599761Y-45873999D03*
%TD*%
D36*
%TO.C,C15*%
X140567615Y-130973078D03*
X140200239Y-131860002D03*
%TD*%
D37*
%TO.C,C7*%
X186772886Y-115911997D03*
X187451708Y-116590819D03*
%TD*%
D38*
%TO.C,R1*%
X148132800Y-44448000D03*
X148132800Y-45468000D03*
%TD*%
D24*
%TO.C,C8*%
X174884888Y-129526262D03*
X174517512Y-128639338D03*
%TD*%
D10*
%TO.C,R18*%
X168761600Y-124307600D03*
X167741600Y-124307600D03*
%TD*%
D39*
%TO.C,R16*%
X156667201Y-133286002D03*
X156667201Y-132266002D03*
%TD*%
D40*
%TO.C,C5*%
X195829001Y-83685400D03*
X196789001Y-83685400D03*
%TD*%
D18*
%TO.C,R12*%
X107980998Y-93134201D03*
X109000998Y-93134201D03*
%TD*%
D41*
%TO.C,U18*%
X144780000Y-53848000D03*
X144780000Y-56388000D03*
X144780000Y-58928000D03*
X144780000Y-61468000D03*
X144780000Y-64008000D03*
X144780000Y-66548000D03*
X144780000Y-69088000D03*
X160020000Y-69088000D03*
X160020000Y-66548000D03*
X160020000Y-64008000D03*
X160020000Y-61468000D03*
X160020000Y-58928000D03*
X160020000Y-56388000D03*
X160020000Y-53848000D03*
%TD*%
D17*
%TO.C,SW3*%
X132459800Y-126532200D03*
X125959800Y-126532200D03*
X132459800Y-122032200D03*
X125959800Y-122032200D03*
%TD*%
D42*
%TO.C,R4*%
X191804818Y-67926205D03*
X190862460Y-68316543D03*
%TD*%
D33*
%TO.C,R3*%
X180791609Y-54440658D03*
X180070361Y-55161906D03*
%TD*%
D43*
%TO.C,U8*%
X171791237Y-128911501D03*
D44*
X169444583Y-129883517D03*
X167097929Y-130855533D03*
%TD*%
D45*
%TO.C,U19*%
X148675400Y-69032800D03*
D46*
X151175400Y-69032800D03*
X153675400Y-69032800D03*
X156175400Y-69032800D03*
%TD*%
D47*
%TO.C,U10*%
X137795937Y-130894413D03*
D44*
X135449283Y-129922397D03*
X133102629Y-128950381D03*
%TD*%
D48*
%TO.C,U4*%
X192444501Y-69475763D03*
D44*
X193416517Y-71822417D03*
X194388533Y-74169071D03*
%TD*%
D49*
%TO.C,U16*%
X133008763Y-48822499D03*
D44*
X135355417Y-47850483D03*
X137702071Y-46878467D03*
%TD*%
D50*
%TO.C,J1*%
X157480000Y-106146600D03*
D41*
X157480000Y-103606600D03*
X154940000Y-106146600D03*
X154940000Y-103606600D03*
X152400000Y-106146600D03*
X152400000Y-103606600D03*
X149860000Y-106146600D03*
X149860000Y-103606600D03*
X147320000Y-106146600D03*
X147320000Y-103606600D03*
%TD*%
D51*
%TO.C,U11*%
X122824410Y-122106534D03*
D44*
X121028359Y-120310483D03*
X119232308Y-118514432D03*
%TD*%
D52*
%TO.C,U1*%
X149809200Y-44450000D03*
D44*
X152349200Y-44450000D03*
X154889200Y-44450000D03*
%TD*%
D53*
%TO.C,U3*%
X181975590Y-55627466D03*
D44*
X183771641Y-57423517D03*
X185567692Y-59219568D03*
%TD*%
D54*
%TO.C,U7*%
X185639534Y-118442590D03*
D44*
X183843483Y-120238641D03*
X182047432Y-122034692D03*
%TD*%
D55*
%TO.C,U6*%
X194427413Y-103471063D03*
D44*
X193455397Y-105817717D03*
X192483381Y-108164371D03*
%TD*%
D56*
%TO.C,U2*%
X167004063Y-46839587D03*
D44*
X169350717Y-47811603D03*
X171697371Y-48783619D03*
%TD*%
D57*
%TO.C,U14*%
X110372587Y-74262937D03*
D44*
X111344603Y-71916283D03*
X112316619Y-69569629D03*
%TD*%
D58*
%TO.C,U9*%
X154990800Y-133284000D03*
D44*
X152450800Y-133284000D03*
X149910800Y-133284000D03*
%TD*%
D59*
%TO.C,U5*%
X196817000Y-86276200D03*
D44*
X196817000Y-88816200D03*
X196817000Y-91356200D03*
%TD*%
D60*
%TO.C,U13*%
X107983000Y-91457800D03*
D44*
X107983000Y-88917800D03*
X107983000Y-86377800D03*
%TD*%
D61*
%TO.C,U12*%
X112355499Y-108258237D03*
D44*
X111383483Y-105911583D03*
X110411467Y-103564929D03*
%TD*%
D62*
%TO.C,U15*%
X119160466Y-59291410D03*
D44*
X120956517Y-57495359D03*
X122752568Y-55699308D03*
%TD*%
M02*
