%TF.GenerationSoftware,KiCad,Pcbnew,7.0.9*%
%TF.CreationDate,2024-06-22T15:13:25+09:00*%
%TF.ProjectId,Sensor,53656e73-6f72-42e6-9b69-6361645f7063,rev?*%
%TF.SameCoordinates,Original*%
%TF.FileFunction,Soldermask,Bot*%
%TF.FilePolarity,Negative*%
%FSLAX46Y46*%
G04 Gerber Fmt 4.6, Leading zero omitted, Abs format (unit mm)*
G04 Created by KiCad (PCBNEW 7.0.9) date 2024-06-22 15:13:25*
%MOMM*%
%LPD*%
G01*
G04 APERTURE LIST*
G04 Aperture macros list*
%AMRoundRect*
0 Rectangle with rounded corners*
0 $1 Rounding radius*
0 $2 $3 $4 $5 $6 $7 $8 $9 X,Y pos of 4 corners*
0 Add a 4 corners polygon primitive as box body*
4,1,4,$2,$3,$4,$5,$6,$7,$8,$9,$2,$3,0*
0 Add four circle primitives for the rounded corners*
1,1,$1+$1,$2,$3*
1,1,$1+$1,$4,$5*
1,1,$1+$1,$6,$7*
1,1,$1+$1,$8,$9*
0 Add four rect primitives between the rounded corners*
20,1,$1+$1,$2,$3,$4,$5,0*
20,1,$1+$1,$4,$5,$6,$7,0*
20,1,$1+$1,$6,$7,$8,$9,0*
20,1,$1+$1,$8,$9,$2,$3,0*%
G04 Aperture macros list end*
%ADD10C,2.000000*%
%ADD11R,1.700000X1.700000*%
%ADD12O,1.700000X1.700000*%
%ADD13C,1.700000*%
%ADD14RoundRect,0.250200X0.351669X0.849005X-0.849005X0.351669X-0.351669X-0.849005X0.849005X-0.351669X0*%
%ADD15C,1.800000*%
%ADD16RoundRect,0.250000X-0.600000X-0.725000X0.600000X-0.725000X0.600000X0.725000X-0.600000X0.725000X0*%
%ADD17O,1.700000X1.950000*%
%ADD18RoundRect,0.250200X0.849005X0.351669X-0.351669X0.849005X-0.849005X-0.351669X0.351669X-0.849005X0*%
%ADD19RoundRect,0.250200X-0.849005X0.351669X-0.351669X-0.849005X0.849005X-0.351669X0.351669X0.849005X0*%
%ADD20RoundRect,0.250200X-0.351669X-0.849005X0.849005X-0.351669X0.351669X0.849005X-0.849005X0.351669X0*%
%ADD21RoundRect,0.250000X0.600000X-0.600000X0.600000X0.600000X-0.600000X0.600000X-0.600000X-0.600000X0*%
%ADD22RoundRect,0.250200X0.918956X0.000000X0.000000X0.918956X-0.918956X0.000000X0.000000X-0.918956X0*%
%ADD23RoundRect,0.250200X-0.649800X-0.649800X0.649800X-0.649800X0.649800X0.649800X-0.649800X0.649800X0*%
%ADD24RoundRect,0.250200X-0.918956X0.000000X0.000000X-0.918956X0.918956X0.000000X0.000000X0.918956X0*%
%ADD25RoundRect,0.250200X0.000000X0.918956X-0.918956X0.000000X0.000000X-0.918956X0.918956X0.000000X0*%
%ADD26RoundRect,0.250200X-0.351669X0.849005X-0.849005X-0.351669X0.351669X-0.849005X0.849005X0.351669X0*%
%ADD27RoundRect,0.250200X-0.849005X-0.351669X0.351669X-0.849005X0.849005X0.351669X-0.351669X0.849005X0*%
%ADD28RoundRect,0.250200X0.351669X-0.849005X0.849005X0.351669X-0.351669X0.849005X-0.849005X-0.351669X0*%
%ADD29RoundRect,0.250200X0.649800X0.649800X-0.649800X0.649800X-0.649800X-0.649800X0.649800X-0.649800X0*%
%ADD30RoundRect,0.250200X-0.649800X0.649800X-0.649800X-0.649800X0.649800X-0.649800X0.649800X0.649800X0*%
%ADD31RoundRect,0.250200X0.649800X-0.649800X0.649800X0.649800X-0.649800X0.649800X-0.649800X-0.649800X0*%
%ADD32RoundRect,0.250200X0.849005X-0.351669X0.351669X0.849005X-0.849005X0.351669X-0.351669X-0.849005X0*%
%ADD33RoundRect,0.250200X0.000000X-0.918956X0.918956X0.000000X0.000000X0.918956X-0.918956X0.000000X0*%
G04 APERTURE END LIST*
D10*
%TO.C,SW4*%
X151484400Y-126532200D03*
X144984400Y-126532200D03*
X151484400Y-122032200D03*
X144984400Y-122032200D03*
%TD*%
%TO.C,SW2*%
X141958200Y-126521600D03*
X135458200Y-126521600D03*
X141958200Y-122021600D03*
X135458200Y-122021600D03*
%TD*%
%TO.C,SW1*%
X171804400Y-55920200D03*
X165304400Y-55920200D03*
X171804400Y-51420200D03*
X165304400Y-51420200D03*
%TD*%
D11*
%TO.C,Brd1*%
X172847000Y-126619000D03*
D12*
X170307000Y-126619000D03*
X167767000Y-126619000D03*
X165227000Y-126619000D03*
%TD*%
D13*
%TO.C,U18*%
X144780000Y-53848000D03*
X144780000Y-56388000D03*
X144780000Y-58928000D03*
X144780000Y-61468000D03*
X144780000Y-64008000D03*
X144780000Y-66548000D03*
X144780000Y-69088000D03*
X160020000Y-69088000D03*
X160020000Y-66548000D03*
X160020000Y-64008000D03*
X160020000Y-61468000D03*
X160020000Y-58928000D03*
X160020000Y-56388000D03*
X160020000Y-53848000D03*
%TD*%
D10*
%TO.C,SW3*%
X132459800Y-126532200D03*
X125959800Y-126532200D03*
X132459800Y-122032200D03*
X125959800Y-122032200D03*
%TD*%
D14*
%TO.C,U8*%
X171791237Y-128911501D03*
D15*
X169444583Y-129883517D03*
X167097929Y-130855533D03*
%TD*%
D16*
%TO.C,U19*%
X148675400Y-69032800D03*
D17*
X151175400Y-69032800D03*
X153675400Y-69032800D03*
X156175400Y-69032800D03*
%TD*%
D18*
%TO.C,U10*%
X137795937Y-130894413D03*
D15*
X135449283Y-129922397D03*
X133102629Y-128950381D03*
%TD*%
D19*
%TO.C,U4*%
X192444501Y-69475763D03*
D15*
X193416517Y-71822417D03*
X194388533Y-74169071D03*
%TD*%
D20*
%TO.C,U16*%
X133008763Y-48822499D03*
D15*
X135355417Y-47850483D03*
X137702071Y-46878467D03*
%TD*%
D21*
%TO.C,J1*%
X157480000Y-106146600D03*
D13*
X157480000Y-103606600D03*
X154940000Y-106146600D03*
X154940000Y-103606600D03*
X152400000Y-106146600D03*
X152400000Y-103606600D03*
X149860000Y-106146600D03*
X149860000Y-103606600D03*
X147320000Y-106146600D03*
X147320000Y-103606600D03*
%TD*%
D22*
%TO.C,U11*%
X122824410Y-122106534D03*
D15*
X121028359Y-120310483D03*
X119232308Y-118514432D03*
%TD*%
D23*
%TO.C,U1*%
X149809200Y-44450000D03*
D15*
X152349200Y-44450000D03*
X154889200Y-44450000D03*
%TD*%
D24*
%TO.C,U3*%
X181975590Y-55627466D03*
D15*
X183771641Y-57423517D03*
X185567692Y-59219568D03*
%TD*%
D25*
%TO.C,U7*%
X185639534Y-118442590D03*
D15*
X183843483Y-120238641D03*
X182047432Y-122034692D03*
%TD*%
D26*
%TO.C,U6*%
X194427413Y-103471063D03*
D15*
X193455397Y-105817717D03*
X192483381Y-108164371D03*
%TD*%
D27*
%TO.C,U2*%
X167004063Y-46839587D03*
D15*
X169350717Y-47811603D03*
X171697371Y-48783619D03*
%TD*%
D28*
%TO.C,U14*%
X110372587Y-74262937D03*
D15*
X111344603Y-71916283D03*
X112316619Y-69569629D03*
%TD*%
D29*
%TO.C,U9*%
X154990800Y-133284000D03*
D15*
X152450800Y-133284000D03*
X149910800Y-133284000D03*
%TD*%
D30*
%TO.C,U5*%
X196817000Y-86276200D03*
D15*
X196817000Y-88816200D03*
X196817000Y-91356200D03*
%TD*%
D31*
%TO.C,U13*%
X107983000Y-91457800D03*
D15*
X107983000Y-88917800D03*
X107983000Y-86377800D03*
%TD*%
D32*
%TO.C,U12*%
X112355499Y-108258237D03*
D15*
X111383483Y-105911583D03*
X110411467Y-103564929D03*
%TD*%
D33*
%TO.C,U15*%
X119160466Y-59291410D03*
D15*
X120956517Y-57495359D03*
X122752568Y-55699308D03*
%TD*%
M02*
