%TF.GenerationSoftware,KiCad,Pcbnew,7.0.2-0*%
%TF.CreationDate,2023-08-02T16:30:45+09:00*%
%TF.ProjectId,touch_board2,746f7563-685f-4626-9f61-7264322e6b69,rev?*%
%TF.SameCoordinates,Original*%
%TF.FileFunction,Drillmap*%
%TF.FilePolarity,Positive*%
%FSLAX45Y45*%
G04 Gerber Fmt 4.5, Leading zero omitted, Abs format (unit mm)*
G04 Created by KiCad (PCBNEW 7.0.2-0) date 2023-08-02 16:30:45*
%MOMM*%
%LPD*%
G01*
G04 APERTURE LIST*
%ADD10C,0.200000*%
%ADD11C,0.076200*%
%ADD12C,0.090000*%
%ADD13C,0.100000*%
G04 APERTURE END LIST*
D10*
X12800000Y-11500000D02*
X13800000Y-11500000D01*
X12800000Y-10000000D02*
X12800000Y-11500000D01*
X13800000Y-10000000D02*
X12800000Y-10000000D01*
X13800000Y-11500000D02*
X13800000Y-10000000D01*
X14200000Y-11500000D02*
X15200000Y-11500000D01*
X14200000Y-10000000D02*
X14200000Y-11500000D01*
X15200000Y-10000000D02*
X14200000Y-10000000D01*
X15200000Y-11500000D02*
X15200000Y-10000000D01*
D11*
X13134900Y-10574400D02*
X13211100Y-10650600D01*
X13211100Y-10574400D02*
X13134900Y-10650600D01*
X13134900Y-11149400D02*
X13211100Y-11225600D01*
X13211100Y-11149400D02*
X13134900Y-11225600D01*
X13388900Y-10574400D02*
X13465100Y-10650600D01*
X13465100Y-10574400D02*
X13388900Y-10650600D01*
X13388900Y-11149400D02*
X13465100Y-11225600D01*
X13465100Y-11149400D02*
X13388900Y-11225600D01*
D12*
X14615000Y-10900000D02*
G75*
G03*
X14615000Y-10900000I-45000J0D01*
G01*
X14869000Y-10900000D02*
G75*
G03*
X14869000Y-10900000I-45000J0D01*
G01*
D13*
X12920000Y-10150000D02*
X12920000Y-10250000D01*
X12870000Y-10200000D02*
X12970000Y-10200000D01*
X13174000Y-10150000D02*
X13174000Y-10250000D01*
X13124000Y-10200000D02*
X13224000Y-10200000D01*
X13428000Y-10150000D02*
X13428000Y-10250000D01*
X13378000Y-10200000D02*
X13478000Y-10200000D01*
X13682000Y-10150000D02*
X13682000Y-10250000D01*
X13632000Y-10200000D02*
X13732000Y-10200000D01*
X14573500Y-10150000D02*
X14573500Y-10250000D01*
X14523500Y-10200000D02*
X14623500Y-10200000D01*
X14827500Y-10150000D02*
X14827500Y-10250000D01*
X14777500Y-10200000D02*
X14877500Y-10200000D01*
D10*
X13037619Y-11822524D02*
X13037619Y-11622524D01*
X13037619Y-11622524D02*
X13085238Y-11622524D01*
X13085238Y-11622524D02*
X13113809Y-11632048D01*
X13113809Y-11632048D02*
X13132857Y-11651095D01*
X13132857Y-11651095D02*
X13142381Y-11670143D01*
X13142381Y-11670143D02*
X13151905Y-11708238D01*
X13151905Y-11708238D02*
X13151905Y-11736809D01*
X13151905Y-11736809D02*
X13142381Y-11774905D01*
X13142381Y-11774905D02*
X13132857Y-11793952D01*
X13132857Y-11793952D02*
X13113809Y-11813000D01*
X13113809Y-11813000D02*
X13085238Y-11822524D01*
X13085238Y-11822524D02*
X13037619Y-11822524D01*
X13237619Y-11822524D02*
X13237619Y-11689190D01*
X13237619Y-11727286D02*
X13247143Y-11708238D01*
X13247143Y-11708238D02*
X13256667Y-11698714D01*
X13256667Y-11698714D02*
X13275714Y-11689190D01*
X13275714Y-11689190D02*
X13294762Y-11689190D01*
X13361428Y-11822524D02*
X13361428Y-11689190D01*
X13361428Y-11622524D02*
X13351905Y-11632048D01*
X13351905Y-11632048D02*
X13361428Y-11641571D01*
X13361428Y-11641571D02*
X13370952Y-11632048D01*
X13370952Y-11632048D02*
X13361428Y-11622524D01*
X13361428Y-11622524D02*
X13361428Y-11641571D01*
X13485238Y-11822524D02*
X13466190Y-11813000D01*
X13466190Y-11813000D02*
X13456667Y-11793952D01*
X13456667Y-11793952D02*
X13456667Y-11622524D01*
X13590000Y-11822524D02*
X13570952Y-11813000D01*
X13570952Y-11813000D02*
X13561428Y-11793952D01*
X13561428Y-11793952D02*
X13561428Y-11622524D01*
X13818571Y-11822524D02*
X13818571Y-11622524D01*
X13818571Y-11622524D02*
X13885238Y-11765381D01*
X13885238Y-11765381D02*
X13951905Y-11622524D01*
X13951905Y-11622524D02*
X13951905Y-11822524D01*
X14132857Y-11822524D02*
X14132857Y-11717762D01*
X14132857Y-11717762D02*
X14123333Y-11698714D01*
X14123333Y-11698714D02*
X14104286Y-11689190D01*
X14104286Y-11689190D02*
X14066190Y-11689190D01*
X14066190Y-11689190D02*
X14047143Y-11698714D01*
X14132857Y-11813000D02*
X14113809Y-11822524D01*
X14113809Y-11822524D02*
X14066190Y-11822524D01*
X14066190Y-11822524D02*
X14047143Y-11813000D01*
X14047143Y-11813000D02*
X14037619Y-11793952D01*
X14037619Y-11793952D02*
X14037619Y-11774905D01*
X14037619Y-11774905D02*
X14047143Y-11755857D01*
X14047143Y-11755857D02*
X14066190Y-11746333D01*
X14066190Y-11746333D02*
X14113809Y-11746333D01*
X14113809Y-11746333D02*
X14132857Y-11736809D01*
X14228095Y-11689190D02*
X14228095Y-11889190D01*
X14228095Y-11698714D02*
X14247143Y-11689190D01*
X14247143Y-11689190D02*
X14285238Y-11689190D01*
X14285238Y-11689190D02*
X14304286Y-11698714D01*
X14304286Y-11698714D02*
X14313809Y-11708238D01*
X14313809Y-11708238D02*
X14323333Y-11727286D01*
X14323333Y-11727286D02*
X14323333Y-11784428D01*
X14323333Y-11784428D02*
X14313809Y-11803476D01*
X14313809Y-11803476D02*
X14304286Y-11813000D01*
X14304286Y-11813000D02*
X14285238Y-11822524D01*
X14285238Y-11822524D02*
X14247143Y-11822524D01*
X14247143Y-11822524D02*
X14228095Y-11813000D01*
X14409048Y-11803476D02*
X14418571Y-11813000D01*
X14418571Y-11813000D02*
X14409048Y-11822524D01*
X14409048Y-11822524D02*
X14399524Y-11813000D01*
X14399524Y-11813000D02*
X14409048Y-11803476D01*
X14409048Y-11803476D02*
X14409048Y-11822524D01*
X14409048Y-11698714D02*
X14418571Y-11708238D01*
X14418571Y-11708238D02*
X14409048Y-11717762D01*
X14409048Y-11717762D02*
X14399524Y-11708238D01*
X14399524Y-11708238D02*
X14409048Y-11698714D01*
X14409048Y-11698714D02*
X14409048Y-11717762D01*
D11*
X12713800Y-12111900D02*
X12790000Y-12188100D01*
X12790000Y-12111900D02*
X12713800Y-12188100D01*
D10*
X13075714Y-12042524D02*
X13094762Y-12042524D01*
X13094762Y-12042524D02*
X13113809Y-12052048D01*
X13113809Y-12052048D02*
X13123333Y-12061571D01*
X13123333Y-12061571D02*
X13132857Y-12080619D01*
X13132857Y-12080619D02*
X13142381Y-12118714D01*
X13142381Y-12118714D02*
X13142381Y-12166333D01*
X13142381Y-12166333D02*
X13132857Y-12204428D01*
X13132857Y-12204428D02*
X13123333Y-12223476D01*
X13123333Y-12223476D02*
X13113809Y-12233000D01*
X13113809Y-12233000D02*
X13094762Y-12242524D01*
X13094762Y-12242524D02*
X13075714Y-12242524D01*
X13075714Y-12242524D02*
X13056667Y-12233000D01*
X13056667Y-12233000D02*
X13047143Y-12223476D01*
X13047143Y-12223476D02*
X13037619Y-12204428D01*
X13037619Y-12204428D02*
X13028095Y-12166333D01*
X13028095Y-12166333D02*
X13028095Y-12118714D01*
X13028095Y-12118714D02*
X13037619Y-12080619D01*
X13037619Y-12080619D02*
X13047143Y-12061571D01*
X13047143Y-12061571D02*
X13056667Y-12052048D01*
X13056667Y-12052048D02*
X13075714Y-12042524D01*
X13228095Y-12223476D02*
X13237619Y-12233000D01*
X13237619Y-12233000D02*
X13228095Y-12242524D01*
X13228095Y-12242524D02*
X13218571Y-12233000D01*
X13218571Y-12233000D02*
X13228095Y-12223476D01*
X13228095Y-12223476D02*
X13228095Y-12242524D01*
X13304286Y-12042524D02*
X13437619Y-12042524D01*
X13437619Y-12042524D02*
X13351905Y-12242524D01*
X13599524Y-12042524D02*
X13561428Y-12042524D01*
X13561428Y-12042524D02*
X13542381Y-12052048D01*
X13542381Y-12052048D02*
X13532857Y-12061571D01*
X13532857Y-12061571D02*
X13513809Y-12090143D01*
X13513809Y-12090143D02*
X13504286Y-12128238D01*
X13504286Y-12128238D02*
X13504286Y-12204428D01*
X13504286Y-12204428D02*
X13513809Y-12223476D01*
X13513809Y-12223476D02*
X13523333Y-12233000D01*
X13523333Y-12233000D02*
X13542381Y-12242524D01*
X13542381Y-12242524D02*
X13580476Y-12242524D01*
X13580476Y-12242524D02*
X13599524Y-12233000D01*
X13599524Y-12233000D02*
X13609048Y-12223476D01*
X13609048Y-12223476D02*
X13618571Y-12204428D01*
X13618571Y-12204428D02*
X13618571Y-12156809D01*
X13618571Y-12156809D02*
X13609048Y-12137762D01*
X13609048Y-12137762D02*
X13599524Y-12128238D01*
X13599524Y-12128238D02*
X13580476Y-12118714D01*
X13580476Y-12118714D02*
X13542381Y-12118714D01*
X13542381Y-12118714D02*
X13523333Y-12128238D01*
X13523333Y-12128238D02*
X13513809Y-12137762D01*
X13513809Y-12137762D02*
X13504286Y-12156809D01*
X13694762Y-12061571D02*
X13704286Y-12052048D01*
X13704286Y-12052048D02*
X13723333Y-12042524D01*
X13723333Y-12042524D02*
X13770952Y-12042524D01*
X13770952Y-12042524D02*
X13790000Y-12052048D01*
X13790000Y-12052048D02*
X13799524Y-12061571D01*
X13799524Y-12061571D02*
X13809048Y-12080619D01*
X13809048Y-12080619D02*
X13809048Y-12099667D01*
X13809048Y-12099667D02*
X13799524Y-12128238D01*
X13799524Y-12128238D02*
X13685238Y-12242524D01*
X13685238Y-12242524D02*
X13809048Y-12242524D01*
X13894762Y-12242524D02*
X13894762Y-12109190D01*
X13894762Y-12128238D02*
X13904286Y-12118714D01*
X13904286Y-12118714D02*
X13923333Y-12109190D01*
X13923333Y-12109190D02*
X13951905Y-12109190D01*
X13951905Y-12109190D02*
X13970952Y-12118714D01*
X13970952Y-12118714D02*
X13980476Y-12137762D01*
X13980476Y-12137762D02*
X13980476Y-12242524D01*
X13980476Y-12137762D02*
X13990000Y-12118714D01*
X13990000Y-12118714D02*
X14009048Y-12109190D01*
X14009048Y-12109190D02*
X14037619Y-12109190D01*
X14037619Y-12109190D02*
X14056667Y-12118714D01*
X14056667Y-12118714D02*
X14066190Y-12137762D01*
X14066190Y-12137762D02*
X14066190Y-12242524D01*
X14161429Y-12242524D02*
X14161429Y-12109190D01*
X14161429Y-12128238D02*
X14170952Y-12118714D01*
X14170952Y-12118714D02*
X14190000Y-12109190D01*
X14190000Y-12109190D02*
X14218571Y-12109190D01*
X14218571Y-12109190D02*
X14237619Y-12118714D01*
X14237619Y-12118714D02*
X14247143Y-12137762D01*
X14247143Y-12137762D02*
X14247143Y-12242524D01*
X14247143Y-12137762D02*
X14256667Y-12118714D01*
X14256667Y-12118714D02*
X14275714Y-12109190D01*
X14275714Y-12109190D02*
X14304286Y-12109190D01*
X14304286Y-12109190D02*
X14323333Y-12118714D01*
X14323333Y-12118714D02*
X14332857Y-12137762D01*
X14332857Y-12137762D02*
X14332857Y-12242524D01*
X14723333Y-12033000D02*
X14551905Y-12290143D01*
X14980476Y-12042524D02*
X14999524Y-12042524D01*
X14999524Y-12042524D02*
X15018572Y-12052048D01*
X15018572Y-12052048D02*
X15028095Y-12061571D01*
X15028095Y-12061571D02*
X15037619Y-12080619D01*
X15037619Y-12080619D02*
X15047143Y-12118714D01*
X15047143Y-12118714D02*
X15047143Y-12166333D01*
X15047143Y-12166333D02*
X15037619Y-12204428D01*
X15037619Y-12204428D02*
X15028095Y-12223476D01*
X15028095Y-12223476D02*
X15018572Y-12233000D01*
X15018572Y-12233000D02*
X14999524Y-12242524D01*
X14999524Y-12242524D02*
X14980476Y-12242524D01*
X14980476Y-12242524D02*
X14961429Y-12233000D01*
X14961429Y-12233000D02*
X14951905Y-12223476D01*
X14951905Y-12223476D02*
X14942381Y-12204428D01*
X14942381Y-12204428D02*
X14932857Y-12166333D01*
X14932857Y-12166333D02*
X14932857Y-12118714D01*
X14932857Y-12118714D02*
X14942381Y-12080619D01*
X14942381Y-12080619D02*
X14951905Y-12061571D01*
X14951905Y-12061571D02*
X14961429Y-12052048D01*
X14961429Y-12052048D02*
X14980476Y-12042524D01*
X15132857Y-12223476D02*
X15142381Y-12233000D01*
X15142381Y-12233000D02*
X15132857Y-12242524D01*
X15132857Y-12242524D02*
X15123333Y-12233000D01*
X15123333Y-12233000D02*
X15132857Y-12223476D01*
X15132857Y-12223476D02*
X15132857Y-12242524D01*
X15266191Y-12042524D02*
X15285238Y-12042524D01*
X15285238Y-12042524D02*
X15304286Y-12052048D01*
X15304286Y-12052048D02*
X15313810Y-12061571D01*
X15313810Y-12061571D02*
X15323333Y-12080619D01*
X15323333Y-12080619D02*
X15332857Y-12118714D01*
X15332857Y-12118714D02*
X15332857Y-12166333D01*
X15332857Y-12166333D02*
X15323333Y-12204428D01*
X15323333Y-12204428D02*
X15313810Y-12223476D01*
X15313810Y-12223476D02*
X15304286Y-12233000D01*
X15304286Y-12233000D02*
X15285238Y-12242524D01*
X15285238Y-12242524D02*
X15266191Y-12242524D01*
X15266191Y-12242524D02*
X15247143Y-12233000D01*
X15247143Y-12233000D02*
X15237619Y-12223476D01*
X15237619Y-12223476D02*
X15228095Y-12204428D01*
X15228095Y-12204428D02*
X15218572Y-12166333D01*
X15218572Y-12166333D02*
X15218572Y-12118714D01*
X15218572Y-12118714D02*
X15228095Y-12080619D01*
X15228095Y-12080619D02*
X15237619Y-12061571D01*
X15237619Y-12061571D02*
X15247143Y-12052048D01*
X15247143Y-12052048D02*
X15266191Y-12042524D01*
X15399524Y-12042524D02*
X15523333Y-12042524D01*
X15523333Y-12042524D02*
X15456667Y-12118714D01*
X15456667Y-12118714D02*
X15485238Y-12118714D01*
X15485238Y-12118714D02*
X15504286Y-12128238D01*
X15504286Y-12128238D02*
X15513810Y-12137762D01*
X15513810Y-12137762D02*
X15523333Y-12156809D01*
X15523333Y-12156809D02*
X15523333Y-12204428D01*
X15523333Y-12204428D02*
X15513810Y-12223476D01*
X15513810Y-12223476D02*
X15504286Y-12233000D01*
X15504286Y-12233000D02*
X15485238Y-12242524D01*
X15485238Y-12242524D02*
X15428095Y-12242524D01*
X15428095Y-12242524D02*
X15409048Y-12233000D01*
X15409048Y-12233000D02*
X15399524Y-12223476D01*
X15647143Y-12042524D02*
X15666191Y-12042524D01*
X15666191Y-12042524D02*
X15685238Y-12052048D01*
X15685238Y-12052048D02*
X15694762Y-12061571D01*
X15694762Y-12061571D02*
X15704286Y-12080619D01*
X15704286Y-12080619D02*
X15713810Y-12118714D01*
X15713810Y-12118714D02*
X15713810Y-12166333D01*
X15713810Y-12166333D02*
X15704286Y-12204428D01*
X15704286Y-12204428D02*
X15694762Y-12223476D01*
X15694762Y-12223476D02*
X15685238Y-12233000D01*
X15685238Y-12233000D02*
X15666191Y-12242524D01*
X15666191Y-12242524D02*
X15647143Y-12242524D01*
X15647143Y-12242524D02*
X15628095Y-12233000D01*
X15628095Y-12233000D02*
X15618572Y-12223476D01*
X15618572Y-12223476D02*
X15609048Y-12204428D01*
X15609048Y-12204428D02*
X15599524Y-12166333D01*
X15599524Y-12166333D02*
X15599524Y-12118714D01*
X15599524Y-12118714D02*
X15609048Y-12080619D01*
X15609048Y-12080619D02*
X15618572Y-12061571D01*
X15618572Y-12061571D02*
X15628095Y-12052048D01*
X15628095Y-12052048D02*
X15647143Y-12042524D01*
X15837619Y-12042524D02*
X15856667Y-12042524D01*
X15856667Y-12042524D02*
X15875714Y-12052048D01*
X15875714Y-12052048D02*
X15885238Y-12061571D01*
X15885238Y-12061571D02*
X15894762Y-12080619D01*
X15894762Y-12080619D02*
X15904286Y-12118714D01*
X15904286Y-12118714D02*
X15904286Y-12166333D01*
X15904286Y-12166333D02*
X15894762Y-12204428D01*
X15894762Y-12204428D02*
X15885238Y-12223476D01*
X15885238Y-12223476D02*
X15875714Y-12233000D01*
X15875714Y-12233000D02*
X15856667Y-12242524D01*
X15856667Y-12242524D02*
X15837619Y-12242524D01*
X15837619Y-12242524D02*
X15818572Y-12233000D01*
X15818572Y-12233000D02*
X15809048Y-12223476D01*
X15809048Y-12223476D02*
X15799524Y-12204428D01*
X15799524Y-12204428D02*
X15790000Y-12166333D01*
X15790000Y-12166333D02*
X15790000Y-12118714D01*
X15790000Y-12118714D02*
X15799524Y-12080619D01*
X15799524Y-12080619D02*
X15809048Y-12061571D01*
X15809048Y-12061571D02*
X15818572Y-12052048D01*
X15818572Y-12052048D02*
X15837619Y-12042524D01*
X15980476Y-12042524D02*
X15980476Y-12080619D01*
X16056667Y-12042524D02*
X16056667Y-12080619D01*
X16351905Y-12318714D02*
X16342381Y-12309190D01*
X16342381Y-12309190D02*
X16323334Y-12280619D01*
X16323334Y-12280619D02*
X16313810Y-12261571D01*
X16313810Y-12261571D02*
X16304286Y-12233000D01*
X16304286Y-12233000D02*
X16294762Y-12185381D01*
X16294762Y-12185381D02*
X16294762Y-12147286D01*
X16294762Y-12147286D02*
X16304286Y-12099667D01*
X16304286Y-12099667D02*
X16313810Y-12071095D01*
X16313810Y-12071095D02*
X16323334Y-12052048D01*
X16323334Y-12052048D02*
X16342381Y-12023476D01*
X16342381Y-12023476D02*
X16351905Y-12013952D01*
X16513810Y-12109190D02*
X16513810Y-12242524D01*
X16466191Y-12033000D02*
X16418572Y-12175857D01*
X16418572Y-12175857D02*
X16542381Y-12175857D01*
X16770953Y-12242524D02*
X16770953Y-12042524D01*
X16856667Y-12242524D02*
X16856667Y-12137762D01*
X16856667Y-12137762D02*
X16847143Y-12118714D01*
X16847143Y-12118714D02*
X16828096Y-12109190D01*
X16828096Y-12109190D02*
X16799524Y-12109190D01*
X16799524Y-12109190D02*
X16780477Y-12118714D01*
X16780477Y-12118714D02*
X16770953Y-12128238D01*
X16980477Y-12242524D02*
X16961429Y-12233000D01*
X16961429Y-12233000D02*
X16951905Y-12223476D01*
X16951905Y-12223476D02*
X16942381Y-12204428D01*
X16942381Y-12204428D02*
X16942381Y-12147286D01*
X16942381Y-12147286D02*
X16951905Y-12128238D01*
X16951905Y-12128238D02*
X16961429Y-12118714D01*
X16961429Y-12118714D02*
X16980477Y-12109190D01*
X16980477Y-12109190D02*
X17009048Y-12109190D01*
X17009048Y-12109190D02*
X17028096Y-12118714D01*
X17028096Y-12118714D02*
X17037619Y-12128238D01*
X17037619Y-12128238D02*
X17047143Y-12147286D01*
X17047143Y-12147286D02*
X17047143Y-12204428D01*
X17047143Y-12204428D02*
X17037619Y-12223476D01*
X17037619Y-12223476D02*
X17028096Y-12233000D01*
X17028096Y-12233000D02*
X17009048Y-12242524D01*
X17009048Y-12242524D02*
X16980477Y-12242524D01*
X17161429Y-12242524D02*
X17142381Y-12233000D01*
X17142381Y-12233000D02*
X17132858Y-12213952D01*
X17132858Y-12213952D02*
X17132858Y-12042524D01*
X17313810Y-12233000D02*
X17294762Y-12242524D01*
X17294762Y-12242524D02*
X17256667Y-12242524D01*
X17256667Y-12242524D02*
X17237619Y-12233000D01*
X17237619Y-12233000D02*
X17228096Y-12213952D01*
X17228096Y-12213952D02*
X17228096Y-12137762D01*
X17228096Y-12137762D02*
X17237619Y-12118714D01*
X17237619Y-12118714D02*
X17256667Y-12109190D01*
X17256667Y-12109190D02*
X17294762Y-12109190D01*
X17294762Y-12109190D02*
X17313810Y-12118714D01*
X17313810Y-12118714D02*
X17323334Y-12137762D01*
X17323334Y-12137762D02*
X17323334Y-12156809D01*
X17323334Y-12156809D02*
X17228096Y-12175857D01*
X17399524Y-12233000D02*
X17418572Y-12242524D01*
X17418572Y-12242524D02*
X17456667Y-12242524D01*
X17456667Y-12242524D02*
X17475715Y-12233000D01*
X17475715Y-12233000D02*
X17485239Y-12213952D01*
X17485239Y-12213952D02*
X17485239Y-12204428D01*
X17485239Y-12204428D02*
X17475715Y-12185381D01*
X17475715Y-12185381D02*
X17456667Y-12175857D01*
X17456667Y-12175857D02*
X17428096Y-12175857D01*
X17428096Y-12175857D02*
X17409048Y-12166333D01*
X17409048Y-12166333D02*
X17399524Y-12147286D01*
X17399524Y-12147286D02*
X17399524Y-12137762D01*
X17399524Y-12137762D02*
X17409048Y-12118714D01*
X17409048Y-12118714D02*
X17428096Y-12109190D01*
X17428096Y-12109190D02*
X17456667Y-12109190D01*
X17456667Y-12109190D02*
X17475715Y-12118714D01*
X17551905Y-12318714D02*
X17561429Y-12309190D01*
X17561429Y-12309190D02*
X17580477Y-12280619D01*
X17580477Y-12280619D02*
X17590000Y-12261571D01*
X17590000Y-12261571D02*
X17599524Y-12233000D01*
X17599524Y-12233000D02*
X17609048Y-12185381D01*
X17609048Y-12185381D02*
X17609048Y-12147286D01*
X17609048Y-12147286D02*
X17599524Y-12099667D01*
X17599524Y-12099667D02*
X17590000Y-12071095D01*
X17590000Y-12071095D02*
X17580477Y-12052048D01*
X17580477Y-12052048D02*
X17561429Y-12023476D01*
X17561429Y-12023476D02*
X17551905Y-12013952D01*
D12*
X12790000Y-12414000D02*
G75*
G03*
X12790000Y-12414000I-45000J0D01*
G01*
D10*
X13075714Y-12306524D02*
X13094762Y-12306524D01*
X13094762Y-12306524D02*
X13113809Y-12316048D01*
X13113809Y-12316048D02*
X13123333Y-12325571D01*
X13123333Y-12325571D02*
X13132857Y-12344619D01*
X13132857Y-12344619D02*
X13142381Y-12382714D01*
X13142381Y-12382714D02*
X13142381Y-12430333D01*
X13142381Y-12430333D02*
X13132857Y-12468428D01*
X13132857Y-12468428D02*
X13123333Y-12487476D01*
X13123333Y-12487476D02*
X13113809Y-12497000D01*
X13113809Y-12497000D02*
X13094762Y-12506524D01*
X13094762Y-12506524D02*
X13075714Y-12506524D01*
X13075714Y-12506524D02*
X13056667Y-12497000D01*
X13056667Y-12497000D02*
X13047143Y-12487476D01*
X13047143Y-12487476D02*
X13037619Y-12468428D01*
X13037619Y-12468428D02*
X13028095Y-12430333D01*
X13028095Y-12430333D02*
X13028095Y-12382714D01*
X13028095Y-12382714D02*
X13037619Y-12344619D01*
X13037619Y-12344619D02*
X13047143Y-12325571D01*
X13047143Y-12325571D02*
X13056667Y-12316048D01*
X13056667Y-12316048D02*
X13075714Y-12306524D01*
X13228095Y-12487476D02*
X13237619Y-12497000D01*
X13237619Y-12497000D02*
X13228095Y-12506524D01*
X13228095Y-12506524D02*
X13218571Y-12497000D01*
X13218571Y-12497000D02*
X13228095Y-12487476D01*
X13228095Y-12487476D02*
X13228095Y-12506524D01*
X13332857Y-12506524D02*
X13370952Y-12506524D01*
X13370952Y-12506524D02*
X13390000Y-12497000D01*
X13390000Y-12497000D02*
X13399524Y-12487476D01*
X13399524Y-12487476D02*
X13418571Y-12458905D01*
X13418571Y-12458905D02*
X13428095Y-12420809D01*
X13428095Y-12420809D02*
X13428095Y-12344619D01*
X13428095Y-12344619D02*
X13418571Y-12325571D01*
X13418571Y-12325571D02*
X13409048Y-12316048D01*
X13409048Y-12316048D02*
X13390000Y-12306524D01*
X13390000Y-12306524D02*
X13351905Y-12306524D01*
X13351905Y-12306524D02*
X13332857Y-12316048D01*
X13332857Y-12316048D02*
X13323333Y-12325571D01*
X13323333Y-12325571D02*
X13313809Y-12344619D01*
X13313809Y-12344619D02*
X13313809Y-12392238D01*
X13313809Y-12392238D02*
X13323333Y-12411286D01*
X13323333Y-12411286D02*
X13332857Y-12420809D01*
X13332857Y-12420809D02*
X13351905Y-12430333D01*
X13351905Y-12430333D02*
X13390000Y-12430333D01*
X13390000Y-12430333D02*
X13409048Y-12420809D01*
X13409048Y-12420809D02*
X13418571Y-12411286D01*
X13418571Y-12411286D02*
X13428095Y-12392238D01*
X13551905Y-12306524D02*
X13570952Y-12306524D01*
X13570952Y-12306524D02*
X13590000Y-12316048D01*
X13590000Y-12316048D02*
X13599524Y-12325571D01*
X13599524Y-12325571D02*
X13609048Y-12344619D01*
X13609048Y-12344619D02*
X13618571Y-12382714D01*
X13618571Y-12382714D02*
X13618571Y-12430333D01*
X13618571Y-12430333D02*
X13609048Y-12468428D01*
X13609048Y-12468428D02*
X13599524Y-12487476D01*
X13599524Y-12487476D02*
X13590000Y-12497000D01*
X13590000Y-12497000D02*
X13570952Y-12506524D01*
X13570952Y-12506524D02*
X13551905Y-12506524D01*
X13551905Y-12506524D02*
X13532857Y-12497000D01*
X13532857Y-12497000D02*
X13523333Y-12487476D01*
X13523333Y-12487476D02*
X13513809Y-12468428D01*
X13513809Y-12468428D02*
X13504286Y-12430333D01*
X13504286Y-12430333D02*
X13504286Y-12382714D01*
X13504286Y-12382714D02*
X13513809Y-12344619D01*
X13513809Y-12344619D02*
X13523333Y-12325571D01*
X13523333Y-12325571D02*
X13532857Y-12316048D01*
X13532857Y-12316048D02*
X13551905Y-12306524D01*
X13742381Y-12306524D02*
X13761429Y-12306524D01*
X13761429Y-12306524D02*
X13780476Y-12316048D01*
X13780476Y-12316048D02*
X13790000Y-12325571D01*
X13790000Y-12325571D02*
X13799524Y-12344619D01*
X13799524Y-12344619D02*
X13809048Y-12382714D01*
X13809048Y-12382714D02*
X13809048Y-12430333D01*
X13809048Y-12430333D02*
X13799524Y-12468428D01*
X13799524Y-12468428D02*
X13790000Y-12487476D01*
X13790000Y-12487476D02*
X13780476Y-12497000D01*
X13780476Y-12497000D02*
X13761429Y-12506524D01*
X13761429Y-12506524D02*
X13742381Y-12506524D01*
X13742381Y-12506524D02*
X13723333Y-12497000D01*
X13723333Y-12497000D02*
X13713809Y-12487476D01*
X13713809Y-12487476D02*
X13704286Y-12468428D01*
X13704286Y-12468428D02*
X13694762Y-12430333D01*
X13694762Y-12430333D02*
X13694762Y-12382714D01*
X13694762Y-12382714D02*
X13704286Y-12344619D01*
X13704286Y-12344619D02*
X13713809Y-12325571D01*
X13713809Y-12325571D02*
X13723333Y-12316048D01*
X13723333Y-12316048D02*
X13742381Y-12306524D01*
X13894762Y-12506524D02*
X13894762Y-12373190D01*
X13894762Y-12392238D02*
X13904286Y-12382714D01*
X13904286Y-12382714D02*
X13923333Y-12373190D01*
X13923333Y-12373190D02*
X13951905Y-12373190D01*
X13951905Y-12373190D02*
X13970952Y-12382714D01*
X13970952Y-12382714D02*
X13980476Y-12401762D01*
X13980476Y-12401762D02*
X13980476Y-12506524D01*
X13980476Y-12401762D02*
X13990000Y-12382714D01*
X13990000Y-12382714D02*
X14009048Y-12373190D01*
X14009048Y-12373190D02*
X14037619Y-12373190D01*
X14037619Y-12373190D02*
X14056667Y-12382714D01*
X14056667Y-12382714D02*
X14066190Y-12401762D01*
X14066190Y-12401762D02*
X14066190Y-12506524D01*
X14161429Y-12506524D02*
X14161429Y-12373190D01*
X14161429Y-12392238D02*
X14170952Y-12382714D01*
X14170952Y-12382714D02*
X14190000Y-12373190D01*
X14190000Y-12373190D02*
X14218571Y-12373190D01*
X14218571Y-12373190D02*
X14237619Y-12382714D01*
X14237619Y-12382714D02*
X14247143Y-12401762D01*
X14247143Y-12401762D02*
X14247143Y-12506524D01*
X14247143Y-12401762D02*
X14256667Y-12382714D01*
X14256667Y-12382714D02*
X14275714Y-12373190D01*
X14275714Y-12373190D02*
X14304286Y-12373190D01*
X14304286Y-12373190D02*
X14323333Y-12382714D01*
X14323333Y-12382714D02*
X14332857Y-12401762D01*
X14332857Y-12401762D02*
X14332857Y-12506524D01*
X14723333Y-12297000D02*
X14551905Y-12554143D01*
X14980476Y-12306524D02*
X14999524Y-12306524D01*
X14999524Y-12306524D02*
X15018572Y-12316048D01*
X15018572Y-12316048D02*
X15028095Y-12325571D01*
X15028095Y-12325571D02*
X15037619Y-12344619D01*
X15037619Y-12344619D02*
X15047143Y-12382714D01*
X15047143Y-12382714D02*
X15047143Y-12430333D01*
X15047143Y-12430333D02*
X15037619Y-12468428D01*
X15037619Y-12468428D02*
X15028095Y-12487476D01*
X15028095Y-12487476D02*
X15018572Y-12497000D01*
X15018572Y-12497000D02*
X14999524Y-12506524D01*
X14999524Y-12506524D02*
X14980476Y-12506524D01*
X14980476Y-12506524D02*
X14961429Y-12497000D01*
X14961429Y-12497000D02*
X14951905Y-12487476D01*
X14951905Y-12487476D02*
X14942381Y-12468428D01*
X14942381Y-12468428D02*
X14932857Y-12430333D01*
X14932857Y-12430333D02*
X14932857Y-12382714D01*
X14932857Y-12382714D02*
X14942381Y-12344619D01*
X14942381Y-12344619D02*
X14951905Y-12325571D01*
X14951905Y-12325571D02*
X14961429Y-12316048D01*
X14961429Y-12316048D02*
X14980476Y-12306524D01*
X15132857Y-12487476D02*
X15142381Y-12497000D01*
X15142381Y-12497000D02*
X15132857Y-12506524D01*
X15132857Y-12506524D02*
X15123333Y-12497000D01*
X15123333Y-12497000D02*
X15132857Y-12487476D01*
X15132857Y-12487476D02*
X15132857Y-12506524D01*
X15266191Y-12306524D02*
X15285238Y-12306524D01*
X15285238Y-12306524D02*
X15304286Y-12316048D01*
X15304286Y-12316048D02*
X15313810Y-12325571D01*
X15313810Y-12325571D02*
X15323333Y-12344619D01*
X15323333Y-12344619D02*
X15332857Y-12382714D01*
X15332857Y-12382714D02*
X15332857Y-12430333D01*
X15332857Y-12430333D02*
X15323333Y-12468428D01*
X15323333Y-12468428D02*
X15313810Y-12487476D01*
X15313810Y-12487476D02*
X15304286Y-12497000D01*
X15304286Y-12497000D02*
X15285238Y-12506524D01*
X15285238Y-12506524D02*
X15266191Y-12506524D01*
X15266191Y-12506524D02*
X15247143Y-12497000D01*
X15247143Y-12497000D02*
X15237619Y-12487476D01*
X15237619Y-12487476D02*
X15228095Y-12468428D01*
X15228095Y-12468428D02*
X15218572Y-12430333D01*
X15218572Y-12430333D02*
X15218572Y-12382714D01*
X15218572Y-12382714D02*
X15228095Y-12344619D01*
X15228095Y-12344619D02*
X15237619Y-12325571D01*
X15237619Y-12325571D02*
X15247143Y-12316048D01*
X15247143Y-12316048D02*
X15266191Y-12306524D01*
X15399524Y-12306524D02*
X15523333Y-12306524D01*
X15523333Y-12306524D02*
X15456667Y-12382714D01*
X15456667Y-12382714D02*
X15485238Y-12382714D01*
X15485238Y-12382714D02*
X15504286Y-12392238D01*
X15504286Y-12392238D02*
X15513810Y-12401762D01*
X15513810Y-12401762D02*
X15523333Y-12420809D01*
X15523333Y-12420809D02*
X15523333Y-12468428D01*
X15523333Y-12468428D02*
X15513810Y-12487476D01*
X15513810Y-12487476D02*
X15504286Y-12497000D01*
X15504286Y-12497000D02*
X15485238Y-12506524D01*
X15485238Y-12506524D02*
X15428095Y-12506524D01*
X15428095Y-12506524D02*
X15409048Y-12497000D01*
X15409048Y-12497000D02*
X15399524Y-12487476D01*
X15704286Y-12306524D02*
X15609048Y-12306524D01*
X15609048Y-12306524D02*
X15599524Y-12401762D01*
X15599524Y-12401762D02*
X15609048Y-12392238D01*
X15609048Y-12392238D02*
X15628095Y-12382714D01*
X15628095Y-12382714D02*
X15675714Y-12382714D01*
X15675714Y-12382714D02*
X15694762Y-12392238D01*
X15694762Y-12392238D02*
X15704286Y-12401762D01*
X15704286Y-12401762D02*
X15713810Y-12420809D01*
X15713810Y-12420809D02*
X15713810Y-12468428D01*
X15713810Y-12468428D02*
X15704286Y-12487476D01*
X15704286Y-12487476D02*
X15694762Y-12497000D01*
X15694762Y-12497000D02*
X15675714Y-12506524D01*
X15675714Y-12506524D02*
X15628095Y-12506524D01*
X15628095Y-12506524D02*
X15609048Y-12497000D01*
X15609048Y-12497000D02*
X15599524Y-12487476D01*
X15885238Y-12373190D02*
X15885238Y-12506524D01*
X15837619Y-12297000D02*
X15790000Y-12439857D01*
X15790000Y-12439857D02*
X15913810Y-12439857D01*
X15980476Y-12306524D02*
X15980476Y-12344619D01*
X16056667Y-12306524D02*
X16056667Y-12344619D01*
X16351905Y-12582714D02*
X16342381Y-12573190D01*
X16342381Y-12573190D02*
X16323334Y-12544619D01*
X16323334Y-12544619D02*
X16313810Y-12525571D01*
X16313810Y-12525571D02*
X16304286Y-12497000D01*
X16304286Y-12497000D02*
X16294762Y-12449381D01*
X16294762Y-12449381D02*
X16294762Y-12411286D01*
X16294762Y-12411286D02*
X16304286Y-12363667D01*
X16304286Y-12363667D02*
X16313810Y-12335095D01*
X16313810Y-12335095D02*
X16323334Y-12316048D01*
X16323334Y-12316048D02*
X16342381Y-12287476D01*
X16342381Y-12287476D02*
X16351905Y-12277952D01*
X16418572Y-12325571D02*
X16428095Y-12316048D01*
X16428095Y-12316048D02*
X16447143Y-12306524D01*
X16447143Y-12306524D02*
X16494762Y-12306524D01*
X16494762Y-12306524D02*
X16513810Y-12316048D01*
X16513810Y-12316048D02*
X16523334Y-12325571D01*
X16523334Y-12325571D02*
X16532857Y-12344619D01*
X16532857Y-12344619D02*
X16532857Y-12363667D01*
X16532857Y-12363667D02*
X16523334Y-12392238D01*
X16523334Y-12392238D02*
X16409048Y-12506524D01*
X16409048Y-12506524D02*
X16532857Y-12506524D01*
X16770953Y-12506524D02*
X16770953Y-12306524D01*
X16856667Y-12506524D02*
X16856667Y-12401762D01*
X16856667Y-12401762D02*
X16847143Y-12382714D01*
X16847143Y-12382714D02*
X16828096Y-12373190D01*
X16828096Y-12373190D02*
X16799524Y-12373190D01*
X16799524Y-12373190D02*
X16780477Y-12382714D01*
X16780477Y-12382714D02*
X16770953Y-12392238D01*
X16980477Y-12506524D02*
X16961429Y-12497000D01*
X16961429Y-12497000D02*
X16951905Y-12487476D01*
X16951905Y-12487476D02*
X16942381Y-12468428D01*
X16942381Y-12468428D02*
X16942381Y-12411286D01*
X16942381Y-12411286D02*
X16951905Y-12392238D01*
X16951905Y-12392238D02*
X16961429Y-12382714D01*
X16961429Y-12382714D02*
X16980477Y-12373190D01*
X16980477Y-12373190D02*
X17009048Y-12373190D01*
X17009048Y-12373190D02*
X17028096Y-12382714D01*
X17028096Y-12382714D02*
X17037619Y-12392238D01*
X17037619Y-12392238D02*
X17047143Y-12411286D01*
X17047143Y-12411286D02*
X17047143Y-12468428D01*
X17047143Y-12468428D02*
X17037619Y-12487476D01*
X17037619Y-12487476D02*
X17028096Y-12497000D01*
X17028096Y-12497000D02*
X17009048Y-12506524D01*
X17009048Y-12506524D02*
X16980477Y-12506524D01*
X17161429Y-12506524D02*
X17142381Y-12497000D01*
X17142381Y-12497000D02*
X17132858Y-12477952D01*
X17132858Y-12477952D02*
X17132858Y-12306524D01*
X17313810Y-12497000D02*
X17294762Y-12506524D01*
X17294762Y-12506524D02*
X17256667Y-12506524D01*
X17256667Y-12506524D02*
X17237619Y-12497000D01*
X17237619Y-12497000D02*
X17228096Y-12477952D01*
X17228096Y-12477952D02*
X17228096Y-12401762D01*
X17228096Y-12401762D02*
X17237619Y-12382714D01*
X17237619Y-12382714D02*
X17256667Y-12373190D01*
X17256667Y-12373190D02*
X17294762Y-12373190D01*
X17294762Y-12373190D02*
X17313810Y-12382714D01*
X17313810Y-12382714D02*
X17323334Y-12401762D01*
X17323334Y-12401762D02*
X17323334Y-12420809D01*
X17323334Y-12420809D02*
X17228096Y-12439857D01*
X17399524Y-12497000D02*
X17418572Y-12506524D01*
X17418572Y-12506524D02*
X17456667Y-12506524D01*
X17456667Y-12506524D02*
X17475715Y-12497000D01*
X17475715Y-12497000D02*
X17485239Y-12477952D01*
X17485239Y-12477952D02*
X17485239Y-12468428D01*
X17485239Y-12468428D02*
X17475715Y-12449381D01*
X17475715Y-12449381D02*
X17456667Y-12439857D01*
X17456667Y-12439857D02*
X17428096Y-12439857D01*
X17428096Y-12439857D02*
X17409048Y-12430333D01*
X17409048Y-12430333D02*
X17399524Y-12411286D01*
X17399524Y-12411286D02*
X17399524Y-12401762D01*
X17399524Y-12401762D02*
X17409048Y-12382714D01*
X17409048Y-12382714D02*
X17428096Y-12373190D01*
X17428096Y-12373190D02*
X17456667Y-12373190D01*
X17456667Y-12373190D02*
X17475715Y-12382714D01*
X17551905Y-12582714D02*
X17561429Y-12573190D01*
X17561429Y-12573190D02*
X17580477Y-12544619D01*
X17580477Y-12544619D02*
X17590000Y-12525571D01*
X17590000Y-12525571D02*
X17599524Y-12497000D01*
X17599524Y-12497000D02*
X17609048Y-12449381D01*
X17609048Y-12449381D02*
X17609048Y-12411286D01*
X17609048Y-12411286D02*
X17599524Y-12363667D01*
X17599524Y-12363667D02*
X17590000Y-12335095D01*
X17590000Y-12335095D02*
X17580477Y-12316048D01*
X17580477Y-12316048D02*
X17561429Y-12287476D01*
X17561429Y-12287476D02*
X17551905Y-12277952D01*
D13*
X12740000Y-12628000D02*
X12740000Y-12728000D01*
X12690000Y-12678000D02*
X12790000Y-12678000D01*
D10*
X13142381Y-12770524D02*
X13028095Y-12770524D01*
X13085238Y-12770524D02*
X13085238Y-12570524D01*
X13085238Y-12570524D02*
X13066190Y-12599095D01*
X13066190Y-12599095D02*
X13047143Y-12618143D01*
X13047143Y-12618143D02*
X13028095Y-12627667D01*
X13228095Y-12751476D02*
X13237619Y-12761000D01*
X13237619Y-12761000D02*
X13228095Y-12770524D01*
X13228095Y-12770524D02*
X13218571Y-12761000D01*
X13218571Y-12761000D02*
X13228095Y-12751476D01*
X13228095Y-12751476D02*
X13228095Y-12770524D01*
X13361428Y-12570524D02*
X13380476Y-12570524D01*
X13380476Y-12570524D02*
X13399524Y-12580048D01*
X13399524Y-12580048D02*
X13409048Y-12589571D01*
X13409048Y-12589571D02*
X13418571Y-12608619D01*
X13418571Y-12608619D02*
X13428095Y-12646714D01*
X13428095Y-12646714D02*
X13428095Y-12694333D01*
X13428095Y-12694333D02*
X13418571Y-12732428D01*
X13418571Y-12732428D02*
X13409048Y-12751476D01*
X13409048Y-12751476D02*
X13399524Y-12761000D01*
X13399524Y-12761000D02*
X13380476Y-12770524D01*
X13380476Y-12770524D02*
X13361428Y-12770524D01*
X13361428Y-12770524D02*
X13342381Y-12761000D01*
X13342381Y-12761000D02*
X13332857Y-12751476D01*
X13332857Y-12751476D02*
X13323333Y-12732428D01*
X13323333Y-12732428D02*
X13313809Y-12694333D01*
X13313809Y-12694333D02*
X13313809Y-12646714D01*
X13313809Y-12646714D02*
X13323333Y-12608619D01*
X13323333Y-12608619D02*
X13332857Y-12589571D01*
X13332857Y-12589571D02*
X13342381Y-12580048D01*
X13342381Y-12580048D02*
X13361428Y-12570524D01*
X13551905Y-12570524D02*
X13570952Y-12570524D01*
X13570952Y-12570524D02*
X13590000Y-12580048D01*
X13590000Y-12580048D02*
X13599524Y-12589571D01*
X13599524Y-12589571D02*
X13609048Y-12608619D01*
X13609048Y-12608619D02*
X13618571Y-12646714D01*
X13618571Y-12646714D02*
X13618571Y-12694333D01*
X13618571Y-12694333D02*
X13609048Y-12732428D01*
X13609048Y-12732428D02*
X13599524Y-12751476D01*
X13599524Y-12751476D02*
X13590000Y-12761000D01*
X13590000Y-12761000D02*
X13570952Y-12770524D01*
X13570952Y-12770524D02*
X13551905Y-12770524D01*
X13551905Y-12770524D02*
X13532857Y-12761000D01*
X13532857Y-12761000D02*
X13523333Y-12751476D01*
X13523333Y-12751476D02*
X13513809Y-12732428D01*
X13513809Y-12732428D02*
X13504286Y-12694333D01*
X13504286Y-12694333D02*
X13504286Y-12646714D01*
X13504286Y-12646714D02*
X13513809Y-12608619D01*
X13513809Y-12608619D02*
X13523333Y-12589571D01*
X13523333Y-12589571D02*
X13532857Y-12580048D01*
X13532857Y-12580048D02*
X13551905Y-12570524D01*
X13742381Y-12570524D02*
X13761429Y-12570524D01*
X13761429Y-12570524D02*
X13780476Y-12580048D01*
X13780476Y-12580048D02*
X13790000Y-12589571D01*
X13790000Y-12589571D02*
X13799524Y-12608619D01*
X13799524Y-12608619D02*
X13809048Y-12646714D01*
X13809048Y-12646714D02*
X13809048Y-12694333D01*
X13809048Y-12694333D02*
X13799524Y-12732428D01*
X13799524Y-12732428D02*
X13790000Y-12751476D01*
X13790000Y-12751476D02*
X13780476Y-12761000D01*
X13780476Y-12761000D02*
X13761429Y-12770524D01*
X13761429Y-12770524D02*
X13742381Y-12770524D01*
X13742381Y-12770524D02*
X13723333Y-12761000D01*
X13723333Y-12761000D02*
X13713809Y-12751476D01*
X13713809Y-12751476D02*
X13704286Y-12732428D01*
X13704286Y-12732428D02*
X13694762Y-12694333D01*
X13694762Y-12694333D02*
X13694762Y-12646714D01*
X13694762Y-12646714D02*
X13704286Y-12608619D01*
X13704286Y-12608619D02*
X13713809Y-12589571D01*
X13713809Y-12589571D02*
X13723333Y-12580048D01*
X13723333Y-12580048D02*
X13742381Y-12570524D01*
X13894762Y-12770524D02*
X13894762Y-12637190D01*
X13894762Y-12656238D02*
X13904286Y-12646714D01*
X13904286Y-12646714D02*
X13923333Y-12637190D01*
X13923333Y-12637190D02*
X13951905Y-12637190D01*
X13951905Y-12637190D02*
X13970952Y-12646714D01*
X13970952Y-12646714D02*
X13980476Y-12665762D01*
X13980476Y-12665762D02*
X13980476Y-12770524D01*
X13980476Y-12665762D02*
X13990000Y-12646714D01*
X13990000Y-12646714D02*
X14009048Y-12637190D01*
X14009048Y-12637190D02*
X14037619Y-12637190D01*
X14037619Y-12637190D02*
X14056667Y-12646714D01*
X14056667Y-12646714D02*
X14066190Y-12665762D01*
X14066190Y-12665762D02*
X14066190Y-12770524D01*
X14161429Y-12770524D02*
X14161429Y-12637190D01*
X14161429Y-12656238D02*
X14170952Y-12646714D01*
X14170952Y-12646714D02*
X14190000Y-12637190D01*
X14190000Y-12637190D02*
X14218571Y-12637190D01*
X14218571Y-12637190D02*
X14237619Y-12646714D01*
X14237619Y-12646714D02*
X14247143Y-12665762D01*
X14247143Y-12665762D02*
X14247143Y-12770524D01*
X14247143Y-12665762D02*
X14256667Y-12646714D01*
X14256667Y-12646714D02*
X14275714Y-12637190D01*
X14275714Y-12637190D02*
X14304286Y-12637190D01*
X14304286Y-12637190D02*
X14323333Y-12646714D01*
X14323333Y-12646714D02*
X14332857Y-12665762D01*
X14332857Y-12665762D02*
X14332857Y-12770524D01*
X14723333Y-12561000D02*
X14551905Y-12818143D01*
X14980476Y-12570524D02*
X14999524Y-12570524D01*
X14999524Y-12570524D02*
X15018572Y-12580048D01*
X15018572Y-12580048D02*
X15028095Y-12589571D01*
X15028095Y-12589571D02*
X15037619Y-12608619D01*
X15037619Y-12608619D02*
X15047143Y-12646714D01*
X15047143Y-12646714D02*
X15047143Y-12694333D01*
X15047143Y-12694333D02*
X15037619Y-12732428D01*
X15037619Y-12732428D02*
X15028095Y-12751476D01*
X15028095Y-12751476D02*
X15018572Y-12761000D01*
X15018572Y-12761000D02*
X14999524Y-12770524D01*
X14999524Y-12770524D02*
X14980476Y-12770524D01*
X14980476Y-12770524D02*
X14961429Y-12761000D01*
X14961429Y-12761000D02*
X14951905Y-12751476D01*
X14951905Y-12751476D02*
X14942381Y-12732428D01*
X14942381Y-12732428D02*
X14932857Y-12694333D01*
X14932857Y-12694333D02*
X14932857Y-12646714D01*
X14932857Y-12646714D02*
X14942381Y-12608619D01*
X14942381Y-12608619D02*
X14951905Y-12589571D01*
X14951905Y-12589571D02*
X14961429Y-12580048D01*
X14961429Y-12580048D02*
X14980476Y-12570524D01*
X15132857Y-12751476D02*
X15142381Y-12761000D01*
X15142381Y-12761000D02*
X15132857Y-12770524D01*
X15132857Y-12770524D02*
X15123333Y-12761000D01*
X15123333Y-12761000D02*
X15132857Y-12751476D01*
X15132857Y-12751476D02*
X15132857Y-12770524D01*
X15266191Y-12570524D02*
X15285238Y-12570524D01*
X15285238Y-12570524D02*
X15304286Y-12580048D01*
X15304286Y-12580048D02*
X15313810Y-12589571D01*
X15313810Y-12589571D02*
X15323333Y-12608619D01*
X15323333Y-12608619D02*
X15332857Y-12646714D01*
X15332857Y-12646714D02*
X15332857Y-12694333D01*
X15332857Y-12694333D02*
X15323333Y-12732428D01*
X15323333Y-12732428D02*
X15313810Y-12751476D01*
X15313810Y-12751476D02*
X15304286Y-12761000D01*
X15304286Y-12761000D02*
X15285238Y-12770524D01*
X15285238Y-12770524D02*
X15266191Y-12770524D01*
X15266191Y-12770524D02*
X15247143Y-12761000D01*
X15247143Y-12761000D02*
X15237619Y-12751476D01*
X15237619Y-12751476D02*
X15228095Y-12732428D01*
X15228095Y-12732428D02*
X15218572Y-12694333D01*
X15218572Y-12694333D02*
X15218572Y-12646714D01*
X15218572Y-12646714D02*
X15228095Y-12608619D01*
X15228095Y-12608619D02*
X15237619Y-12589571D01*
X15237619Y-12589571D02*
X15247143Y-12580048D01*
X15247143Y-12580048D02*
X15266191Y-12570524D01*
X15399524Y-12570524D02*
X15523333Y-12570524D01*
X15523333Y-12570524D02*
X15456667Y-12646714D01*
X15456667Y-12646714D02*
X15485238Y-12646714D01*
X15485238Y-12646714D02*
X15504286Y-12656238D01*
X15504286Y-12656238D02*
X15513810Y-12665762D01*
X15513810Y-12665762D02*
X15523333Y-12684809D01*
X15523333Y-12684809D02*
X15523333Y-12732428D01*
X15523333Y-12732428D02*
X15513810Y-12751476D01*
X15513810Y-12751476D02*
X15504286Y-12761000D01*
X15504286Y-12761000D02*
X15485238Y-12770524D01*
X15485238Y-12770524D02*
X15428095Y-12770524D01*
X15428095Y-12770524D02*
X15409048Y-12761000D01*
X15409048Y-12761000D02*
X15399524Y-12751476D01*
X15618572Y-12770524D02*
X15656667Y-12770524D01*
X15656667Y-12770524D02*
X15675714Y-12761000D01*
X15675714Y-12761000D02*
X15685238Y-12751476D01*
X15685238Y-12751476D02*
X15704286Y-12722905D01*
X15704286Y-12722905D02*
X15713810Y-12684809D01*
X15713810Y-12684809D02*
X15713810Y-12608619D01*
X15713810Y-12608619D02*
X15704286Y-12589571D01*
X15704286Y-12589571D02*
X15694762Y-12580048D01*
X15694762Y-12580048D02*
X15675714Y-12570524D01*
X15675714Y-12570524D02*
X15637619Y-12570524D01*
X15637619Y-12570524D02*
X15618572Y-12580048D01*
X15618572Y-12580048D02*
X15609048Y-12589571D01*
X15609048Y-12589571D02*
X15599524Y-12608619D01*
X15599524Y-12608619D02*
X15599524Y-12656238D01*
X15599524Y-12656238D02*
X15609048Y-12675286D01*
X15609048Y-12675286D02*
X15618572Y-12684809D01*
X15618572Y-12684809D02*
X15637619Y-12694333D01*
X15637619Y-12694333D02*
X15675714Y-12694333D01*
X15675714Y-12694333D02*
X15694762Y-12684809D01*
X15694762Y-12684809D02*
X15704286Y-12675286D01*
X15704286Y-12675286D02*
X15713810Y-12656238D01*
X15885238Y-12637190D02*
X15885238Y-12770524D01*
X15837619Y-12561000D02*
X15790000Y-12703857D01*
X15790000Y-12703857D02*
X15913810Y-12703857D01*
X15980476Y-12570524D02*
X15980476Y-12608619D01*
X16056667Y-12570524D02*
X16056667Y-12608619D01*
X16351905Y-12846714D02*
X16342381Y-12837190D01*
X16342381Y-12837190D02*
X16323334Y-12808619D01*
X16323334Y-12808619D02*
X16313810Y-12789571D01*
X16313810Y-12789571D02*
X16304286Y-12761000D01*
X16304286Y-12761000D02*
X16294762Y-12713381D01*
X16294762Y-12713381D02*
X16294762Y-12675286D01*
X16294762Y-12675286D02*
X16304286Y-12627667D01*
X16304286Y-12627667D02*
X16313810Y-12599095D01*
X16313810Y-12599095D02*
X16323334Y-12580048D01*
X16323334Y-12580048D02*
X16342381Y-12551476D01*
X16342381Y-12551476D02*
X16351905Y-12541952D01*
X16513810Y-12570524D02*
X16475714Y-12570524D01*
X16475714Y-12570524D02*
X16456667Y-12580048D01*
X16456667Y-12580048D02*
X16447143Y-12589571D01*
X16447143Y-12589571D02*
X16428095Y-12618143D01*
X16428095Y-12618143D02*
X16418572Y-12656238D01*
X16418572Y-12656238D02*
X16418572Y-12732428D01*
X16418572Y-12732428D02*
X16428095Y-12751476D01*
X16428095Y-12751476D02*
X16437619Y-12761000D01*
X16437619Y-12761000D02*
X16456667Y-12770524D01*
X16456667Y-12770524D02*
X16494762Y-12770524D01*
X16494762Y-12770524D02*
X16513810Y-12761000D01*
X16513810Y-12761000D02*
X16523334Y-12751476D01*
X16523334Y-12751476D02*
X16532857Y-12732428D01*
X16532857Y-12732428D02*
X16532857Y-12684809D01*
X16532857Y-12684809D02*
X16523334Y-12665762D01*
X16523334Y-12665762D02*
X16513810Y-12656238D01*
X16513810Y-12656238D02*
X16494762Y-12646714D01*
X16494762Y-12646714D02*
X16456667Y-12646714D01*
X16456667Y-12646714D02*
X16437619Y-12656238D01*
X16437619Y-12656238D02*
X16428095Y-12665762D01*
X16428095Y-12665762D02*
X16418572Y-12684809D01*
X16770953Y-12770524D02*
X16770953Y-12570524D01*
X16856667Y-12770524D02*
X16856667Y-12665762D01*
X16856667Y-12665762D02*
X16847143Y-12646714D01*
X16847143Y-12646714D02*
X16828096Y-12637190D01*
X16828096Y-12637190D02*
X16799524Y-12637190D01*
X16799524Y-12637190D02*
X16780477Y-12646714D01*
X16780477Y-12646714D02*
X16770953Y-12656238D01*
X16980477Y-12770524D02*
X16961429Y-12761000D01*
X16961429Y-12761000D02*
X16951905Y-12751476D01*
X16951905Y-12751476D02*
X16942381Y-12732428D01*
X16942381Y-12732428D02*
X16942381Y-12675286D01*
X16942381Y-12675286D02*
X16951905Y-12656238D01*
X16951905Y-12656238D02*
X16961429Y-12646714D01*
X16961429Y-12646714D02*
X16980477Y-12637190D01*
X16980477Y-12637190D02*
X17009048Y-12637190D01*
X17009048Y-12637190D02*
X17028096Y-12646714D01*
X17028096Y-12646714D02*
X17037619Y-12656238D01*
X17037619Y-12656238D02*
X17047143Y-12675286D01*
X17047143Y-12675286D02*
X17047143Y-12732428D01*
X17047143Y-12732428D02*
X17037619Y-12751476D01*
X17037619Y-12751476D02*
X17028096Y-12761000D01*
X17028096Y-12761000D02*
X17009048Y-12770524D01*
X17009048Y-12770524D02*
X16980477Y-12770524D01*
X17161429Y-12770524D02*
X17142381Y-12761000D01*
X17142381Y-12761000D02*
X17132858Y-12741952D01*
X17132858Y-12741952D02*
X17132858Y-12570524D01*
X17313810Y-12761000D02*
X17294762Y-12770524D01*
X17294762Y-12770524D02*
X17256667Y-12770524D01*
X17256667Y-12770524D02*
X17237619Y-12761000D01*
X17237619Y-12761000D02*
X17228096Y-12741952D01*
X17228096Y-12741952D02*
X17228096Y-12665762D01*
X17228096Y-12665762D02*
X17237619Y-12646714D01*
X17237619Y-12646714D02*
X17256667Y-12637190D01*
X17256667Y-12637190D02*
X17294762Y-12637190D01*
X17294762Y-12637190D02*
X17313810Y-12646714D01*
X17313810Y-12646714D02*
X17323334Y-12665762D01*
X17323334Y-12665762D02*
X17323334Y-12684809D01*
X17323334Y-12684809D02*
X17228096Y-12703857D01*
X17399524Y-12761000D02*
X17418572Y-12770524D01*
X17418572Y-12770524D02*
X17456667Y-12770524D01*
X17456667Y-12770524D02*
X17475715Y-12761000D01*
X17475715Y-12761000D02*
X17485239Y-12741952D01*
X17485239Y-12741952D02*
X17485239Y-12732428D01*
X17485239Y-12732428D02*
X17475715Y-12713381D01*
X17475715Y-12713381D02*
X17456667Y-12703857D01*
X17456667Y-12703857D02*
X17428096Y-12703857D01*
X17428096Y-12703857D02*
X17409048Y-12694333D01*
X17409048Y-12694333D02*
X17399524Y-12675286D01*
X17399524Y-12675286D02*
X17399524Y-12665762D01*
X17399524Y-12665762D02*
X17409048Y-12646714D01*
X17409048Y-12646714D02*
X17428096Y-12637190D01*
X17428096Y-12637190D02*
X17456667Y-12637190D01*
X17456667Y-12637190D02*
X17475715Y-12646714D01*
X17551905Y-12846714D02*
X17561429Y-12837190D01*
X17561429Y-12837190D02*
X17580477Y-12808619D01*
X17580477Y-12808619D02*
X17590000Y-12789571D01*
X17590000Y-12789571D02*
X17599524Y-12761000D01*
X17599524Y-12761000D02*
X17609048Y-12713381D01*
X17609048Y-12713381D02*
X17609048Y-12675286D01*
X17609048Y-12675286D02*
X17599524Y-12627667D01*
X17599524Y-12627667D02*
X17590000Y-12599095D01*
X17590000Y-12599095D02*
X17580477Y-12580048D01*
X17580477Y-12580048D02*
X17561429Y-12551476D01*
X17561429Y-12551476D02*
X17551905Y-12541952D01*
M02*
