0
SECTION
2
HEADER
9
$INSUNITS
70
4
9
$ACADVER
1
AC1014
9
$HANDSEED
5
FFFF
0
ENDSEC
0
SECTION
2
TABLES
0
TABLE
2
VPORT
5
8
100
AcDbSymbolTable
0
ENDTAB
0
TABLE
2
LTYPE
5
5
100
AcDbSymbolTable
0
LTYPE
5
14
100
AcDbSymbolTableRecord
100
AcDbLinetypeTableRecord
2
BYBLOCK
70
0
0
LTYPE
5
15
100
AcDbSymbolTableRecord
100
AcDbLinetypeTableRecord
2
BYLAYER
70
0
0
ENDTAB
0
TABLE
2
LAYER
5
2
100
AcDbSymbolTable
70
2
0
LAYER
5
50
100
AcDbSymbolTableRecord
100
AcDbLayerTableRecord
2
0
70
0
6
CONTINUOUS
0
ENDTAB
0
TABLE
2
STYLE
5
3
100
AcDbSymbolTable
70
1
0
STYLE
5
11
100
AcDbSymbolTableRecord
100
AcDbTextStyleTableRecord
2
STANDARD
70
0
0
ENDTAB
0
TABLE
2
VIEW
5
6
100
AcDbSymbolTable
70
0
0
ENDTAB
0
TABLE
2
UCS
5
7
100
AcDbSymbolTable
70
0
0
ENDTAB
0
TABLE
2
APPID
5
9
100
AcDbSymbolTable
70
2
0
APPID
5
12
100
AcDbSymbolTableRecord
100
AcDbRegAppTableRecord
2
ACAD
70
0
0
ENDTAB
0
TABLE
2
DIMSTYLE
5
A
100
AcDbSymbolTable
70
1
0
ENDTAB
0
TABLE
2
BLOCK_RECORD
5
1
100
AcDbSymbolTable
70
1
0
BLOCK_RECORD
5
1F
100
AcDbSymbolTableRecord
100
AcDbBlockTableRecord
2
*MODEL_SPACE
0
BLOCK_RECORD
5
1B
100
AcDbSymbolTableRecord
100
AcDbBlockTableRecord
2
*PAPER_SPACE
0
ENDTAB
0
ENDSEC
0
SECTION
2
BLOCKS
0
BLOCK
5
20
100
AcDbEntity
100
AcDbBlockBegin
2
*MODEL_SPACE
0
ENDBLK
5
21
100
AcDbEntity
100
AcDbBlockEnd
0
BLOCK
5
1C
100
AcDbEntity
100
AcDbBlockBegin
2
*PAPER_SPACE
0
ENDBLK
5
1D
100
AcDbEntity
100
AcDbBlockEnd
0
ENDSEC
0
SECTION
2
ENTITIES
0
LWPOLYLINE
5
100
100
AcDbEntity
8
0
100
AcDbPolyline
90
4
70
1
43
0.0
10
-8.9533537187401464
20
35.587500536441809
42
0.3080691872822473
10
-8.8913302265759082
20
35.313056091997353
42
-2.537324679445967
10
-11.108670071447314
20
35.313056091997353
42
0.30806918728223892
10
-11.046646579283079
20
35.587500536441802
42
-1.4689774459950347
0
LWPOLYLINE
5
101
100
AcDbEntity
8
0
100
AcDbPolyline
90
4
70
1
43
0.0
10
-27.9533540465657
20
65.488942573558205
42
0.30806918728222255
10
-27.89133055440147
20
65.214498129113736
42
-2.5373246794459918
10
-30.10867039927286
20
65.21449812911375
42
0.30806918728225996
10
-30.046646907108617
20
65.488942573558191
42
-1.4689774459950291
0
LWPOLYLINE
5
102
100
AcDbEntity
8
0
100
AcDbPolyline
90
4
70
1
43
0.0
10
8.8913302265759135
20
35.31305609199736
42
0.3080691872822382
10
8.9533537187401446
20
35.587500536441809
42
-1.4689774459950282
10
11.046646579283079
20
35.587500536441809
42
0.30806918728225002
10
11.108670071447309
20
35.31305609199736
42
-2.5373246794459834
0
LWPOLYLINE
5
103
100
AcDbEntity
8
0
100
AcDbPolyline
90
4
70
1
43
0.0
10
27.891330554401463
20
65.214498129113736
42
0.30806918728226296
10
27.953354046565696
20
65.488942573558205
42
-1.4689774459950338
10
30.046646907108624
20
65.488942573558191
42
0.30806918728221527
10
30.108670399272842
20
65.214498129113736
42
-2.5373246794459883
0
LWPOLYLINE
5
104
100
AcDbEntity
8
0
100
AcDbPolyline
90
20
70
1
43
0.0
10
-27.000000402331352
20
48.620606880819004
42
0.19623306215434053
10
-26.143088055717602
20
46.521279533809135
10
-8.8822816853125239
20
28.900673070222656
42
0.20159442258516469
10
-6.7391940319262789
20
28.000000417232513
10
6.7391940319262797
20
28.000000417232513
42
0.20159442258516128
10
8.8822816853125257
20
28.900673070222659
10
26.143088055717598
20
46.52127953380915
42
0.1962330621543403
10
27.000000402331352
20
48.620606880819004
10
27.000000402331349
20
51.757360102642245
42
-0.19891236737965859
10
27.878680058771714
20
53.878680446201898
10
31.121320820396804
20
57.121321207826988
42
0.19891236737965637
10
32.000000476837158
20
59.242641551386626
10
32.000000476837158
20
65.901442573558185
42
0.29739117963958694
10
30.208333811282891
20
68.647335971501235
42
0.21029511875008208
10
-30.208333811282898
20
68.647335971501235
42
0.29739117963958744
10
-32.000000476837172
20
65.901442573558185
10
-32.000000476837158
20
59.242641551386647
42
0.19891236737965681
10
-31.121320820396797
20
57.121321207826995
10
-27.878680058771714
20
53.878680446201905
42
-0.19891236737965859
10
-27.000000402331352
20
51.757360102642252
0
ENDSEC
0
SECTION
2
OBJECTS
0
DICTIONARY
5
C
100
AcDbDictionary
3
ACAD_GROUP
350
D
3
ACAD_MLINESTYLE
350
17
0
DICTIONARY
5
D
100
AcDbDictionary
0
DICTIONARY
5
1A
330
C
100
AcDbDictionary
0
DICTIONARY
5
17
100
AcDbDictionary
0
ENDSEC
0
EOF
