0
SECTION
2
HEADER
9
$INSUNITS
70
4
9
$ACADVER
1
AC1014
9
$HANDSEED
5
FFFF
0
ENDSEC
0
SECTION
2
TABLES
0
TABLE
2
VPORT
5
8
100
AcDbSymbolTable
0
ENDTAB
0
TABLE
2
LTYPE
5
5
100
AcDbSymbolTable
0
LTYPE
5
14
100
AcDbSymbolTableRecord
100
AcDbLinetypeTableRecord
2
BYBLOCK
70
0
0
LTYPE
5
15
100
AcDbSymbolTableRecord
100
AcDbLinetypeTableRecord
2
BYLAYER
70
0
0
ENDTAB
0
TABLE
2
LAYER
5
2
100
AcDbSymbolTable
70
2
0
LAYER
5
50
100
AcDbSymbolTableRecord
100
AcDbLayerTableRecord
2
0
70
0
6
CONTINUOUS
0
ENDTAB
0
TABLE
2
STYLE
5
3
100
AcDbSymbolTable
70
1
0
STYLE
5
11
100
AcDbSymbolTableRecord
100
AcDbTextStyleTableRecord
2
STANDARD
70
0
0
ENDTAB
0
TABLE
2
VIEW
5
6
100
AcDbSymbolTable
70
0
0
ENDTAB
0
TABLE
2
UCS
5
7
100
AcDbSymbolTable
70
0
0
ENDTAB
0
TABLE
2
APPID
5
9
100
AcDbSymbolTable
70
2
0
APPID
5
12
100
AcDbSymbolTableRecord
100
AcDbRegAppTableRecord
2
ACAD
70
0
0
ENDTAB
0
TABLE
2
DIMSTYLE
5
A
100
AcDbSymbolTable
70
1
0
ENDTAB
0
TABLE
2
BLOCK_RECORD
5
1
100
AcDbSymbolTable
70
1
0
BLOCK_RECORD
5
1F
100
AcDbSymbolTableRecord
100
AcDbBlockTableRecord
2
*MODEL_SPACE
0
BLOCK_RECORD
5
1B
100
AcDbSymbolTableRecord
100
AcDbBlockTableRecord
2
*PAPER_SPACE
0
ENDTAB
0
ENDSEC
0
SECTION
2
BLOCKS
0
BLOCK
5
20
100
AcDbEntity
100
AcDbBlockBegin
2
*MODEL_SPACE
0
ENDBLK
5
21
100
AcDbEntity
100
AcDbBlockEnd
0
BLOCK
5
1C
100
AcDbEntity
100
AcDbBlockBegin
2
*PAPER_SPACE
0
ENDBLK
5
1D
100
AcDbEntity
100
AcDbBlockEnd
0
ENDSEC
0
SECTION
2
ENTITIES
0
LWPOLYLINE
5
100
100
AcDbEntity
8
0
100
AcDbPolyline
90
4
70
1
43
0.0
10
26.974785475747627
20
30.876543662421078
42
0.37529330295046864
10
-26.974785475726463
20
30.876543662439573
42
0.69281018606145905
10
-26.645824677242164
20
30.000000447043966
10
26.645824677262727
20
30.000000447025705
42
0.69281018606146716
0
CIRCLE
5
101
100
AcDbEntity
8
0
100
AcDbCircle
10
-37.123106011383122
20
37.123106011383115
30
0
40
1.6000000000000014
210
0
220
-0
230
1
0
CIRCLE
5
102
100
AcDbEntity
8
0
100
AcDbCircle
10
45.466333697567748
20
-26.249999999356088
30
0
40
1.6000000000000014
210
0
220
-0
230
1
0
CIRCLE
5
103
100
AcDbEntity
8
0
100
AcDbCircle
10
-45.466333698138932
20
-26.24999999965171
30
0
40
1.6000000000000014
210
0
220
-0
230
1
0
LWPOLYLINE
5
104
100
AcDbEntity
8
0
100
AcDbPolyline
90
4
70
1
43
0.0
10
-40.124805295477763
20
5.9999999999999982
10
40.124805295477763
20
6.0000000000000107
42
-0.37485465006910768
10
40.620173262088592
20
5.5679012345679499
42
-1.146423008442222
10
-40.620173262088599
20
5.5679012345679011
42
-0.37485465006910706
0
CIRCLE
5
105
100
AcDbEntity
8
0
100
AcDbCircle
10
37.123106011383122
20
37.123106011383108
30
0
40
1.6000000000000014
210
0
220
-0
230
1
0
LWPOLYLINE
5
106
100
AcDbEntity
8
0
100
AcDbPolyline
90
24
70
1
43
0.0
10
35.001800508439615
20
39.244441195455067
10
33.767377166039211
20
38.010035124760776
42
-0.38573411725564322
10
31.084421595551007
20
37.878209224698622
42
0.35779307461500937
10
-31.084421595550964
20
37.878209224698629
42
-0.38573411725564766
10
-33.767377166039203
20
38.010035124760776
10
-35.001800508439615
20
39.244441195455082
42
0.99999300411178871
10
-39.244441195455082
20
35.001800508439608
10
-38.010035124760776
20
33.767377166039203
42
-0.38573411725564366
10
-37.878209224698608
20
31.084421595550996
42
0.28555310672750012
10
-44.632780858624997
20
-20.221643672707668
42
-0.38573411725565082
10
-45.454514898873001
20
-22.779060695455193
10
-46.966333698137504
20
-23.651923788297566
42
0.99999650204779278
10
-43.96635187408198
20
-28.848086704805862
10
-42.454502686040705
20
-27.975234271406215
42
-0.38573411725565077
10
-39.828847556146442
20
-28.542300228770078
42
0.5136402639414499
10
39.828847556130349
20
-28.542300228792534
42
-0.38573411725564372
10
42.454502686024902
20
-27.975234271430139
10
43.966351873509375
20
-28.848086704509434
42
0.99999300412369085
10
46.966351873435961
20
-23.651934281929957
10
45.454514898892
20
-22.779060695417186
42
-0.3857341172556456
10
44.632780858641908
20
-20.221643672670375
42
0.28555310672727408
10
37.878209224698629
20
31.084421595550978
42
-0.38573411725564655
10
38.01003512476079
20
33.767377166039203
10
39.244441195455082
20
35.001800508439601
42
0.99999300411575598
0
ENDSEC
0
SECTION
2
OBJECTS
0
DICTIONARY
5
C
100
AcDbDictionary
3
ACAD_GROUP
350
D
3
ACAD_MLINESTYLE
350
17
0
DICTIONARY
5
D
100
AcDbDictionary
0
DICTIONARY
5
1A
330
C
100
AcDbDictionary
0
DICTIONARY
5
17
100
AcDbDictionary
0
ENDSEC
0
EOF
