%TF.GenerationSoftware,KiCad,Pcbnew,7.0.2-0*%
%TF.CreationDate,2023-08-02T22:41:30+09:00*%
%TF.ProjectId,line_front,6c696e65-5f66-4726-9f6e-742e6b696361,rev?*%
%TF.SameCoordinates,Original*%
%TF.FileFunction,Legend,Top*%
%TF.FilePolarity,Positive*%
%FSLAX46Y46*%
G04 Gerber Fmt 4.6, Leading zero omitted, Abs format (unit mm)*
G04 Created by KiCad (PCBNEW 7.0.2-0) date 2023-08-02 22:41:30*
%MOMM*%
%LPD*%
G01*
G04 APERTURE LIST*
%ADD10C,0.150000*%
%ADD11C,0.120000*%
%ADD12C,0.100000*%
G04 APERTURE END LIST*
D10*
%TO.C,U8*%
X155437619Y-82451904D02*
X156247142Y-82451904D01*
X156247142Y-82451904D02*
X156342380Y-82404285D01*
X156342380Y-82404285D02*
X156390000Y-82356666D01*
X156390000Y-82356666D02*
X156437619Y-82261428D01*
X156437619Y-82261428D02*
X156437619Y-82070952D01*
X156437619Y-82070952D02*
X156390000Y-81975714D01*
X156390000Y-81975714D02*
X156342380Y-81928095D01*
X156342380Y-81928095D02*
X156247142Y-81880476D01*
X156247142Y-81880476D02*
X155437619Y-81880476D01*
X155866190Y-81261428D02*
X155818571Y-81356666D01*
X155818571Y-81356666D02*
X155770952Y-81404285D01*
X155770952Y-81404285D02*
X155675714Y-81451904D01*
X155675714Y-81451904D02*
X155628095Y-81451904D01*
X155628095Y-81451904D02*
X155532857Y-81404285D01*
X155532857Y-81404285D02*
X155485238Y-81356666D01*
X155485238Y-81356666D02*
X155437619Y-81261428D01*
X155437619Y-81261428D02*
X155437619Y-81070952D01*
X155437619Y-81070952D02*
X155485238Y-80975714D01*
X155485238Y-80975714D02*
X155532857Y-80928095D01*
X155532857Y-80928095D02*
X155628095Y-80880476D01*
X155628095Y-80880476D02*
X155675714Y-80880476D01*
X155675714Y-80880476D02*
X155770952Y-80928095D01*
X155770952Y-80928095D02*
X155818571Y-80975714D01*
X155818571Y-80975714D02*
X155866190Y-81070952D01*
X155866190Y-81070952D02*
X155866190Y-81261428D01*
X155866190Y-81261428D02*
X155913809Y-81356666D01*
X155913809Y-81356666D02*
X155961428Y-81404285D01*
X155961428Y-81404285D02*
X156056666Y-81451904D01*
X156056666Y-81451904D02*
X156247142Y-81451904D01*
X156247142Y-81451904D02*
X156342380Y-81404285D01*
X156342380Y-81404285D02*
X156390000Y-81356666D01*
X156390000Y-81356666D02*
X156437619Y-81261428D01*
X156437619Y-81261428D02*
X156437619Y-81070952D01*
X156437619Y-81070952D02*
X156390000Y-80975714D01*
X156390000Y-80975714D02*
X156342380Y-80928095D01*
X156342380Y-80928095D02*
X156247142Y-80880476D01*
X156247142Y-80880476D02*
X156056666Y-80880476D01*
X156056666Y-80880476D02*
X155961428Y-80928095D01*
X155961428Y-80928095D02*
X155913809Y-80975714D01*
X155913809Y-80975714D02*
X155866190Y-81070952D01*
%TO.C,U9*%
X155437619Y-97356904D02*
X156247142Y-97356904D01*
X156247142Y-97356904D02*
X156342380Y-97309285D01*
X156342380Y-97309285D02*
X156390000Y-97261666D01*
X156390000Y-97261666D02*
X156437619Y-97166428D01*
X156437619Y-97166428D02*
X156437619Y-96975952D01*
X156437619Y-96975952D02*
X156390000Y-96880714D01*
X156390000Y-96880714D02*
X156342380Y-96833095D01*
X156342380Y-96833095D02*
X156247142Y-96785476D01*
X156247142Y-96785476D02*
X155437619Y-96785476D01*
X156437619Y-96261666D02*
X156437619Y-96071190D01*
X156437619Y-96071190D02*
X156390000Y-95975952D01*
X156390000Y-95975952D02*
X156342380Y-95928333D01*
X156342380Y-95928333D02*
X156199523Y-95833095D01*
X156199523Y-95833095D02*
X156009047Y-95785476D01*
X156009047Y-95785476D02*
X155628095Y-95785476D01*
X155628095Y-95785476D02*
X155532857Y-95833095D01*
X155532857Y-95833095D02*
X155485238Y-95880714D01*
X155485238Y-95880714D02*
X155437619Y-95975952D01*
X155437619Y-95975952D02*
X155437619Y-96166428D01*
X155437619Y-96166428D02*
X155485238Y-96261666D01*
X155485238Y-96261666D02*
X155532857Y-96309285D01*
X155532857Y-96309285D02*
X155628095Y-96356904D01*
X155628095Y-96356904D02*
X155866190Y-96356904D01*
X155866190Y-96356904D02*
X155961428Y-96309285D01*
X155961428Y-96309285D02*
X156009047Y-96261666D01*
X156009047Y-96261666D02*
X156056666Y-96166428D01*
X156056666Y-96166428D02*
X156056666Y-95975952D01*
X156056666Y-95975952D02*
X156009047Y-95880714D01*
X156009047Y-95880714D02*
X155961428Y-95833095D01*
X155961428Y-95833095D02*
X155866190Y-95785476D01*
%TO.C,D5*%
X151661905Y-85402619D02*
X151661905Y-84402619D01*
X151661905Y-84402619D02*
X151900000Y-84402619D01*
X151900000Y-84402619D02*
X152042857Y-84450238D01*
X152042857Y-84450238D02*
X152138095Y-84545476D01*
X152138095Y-84545476D02*
X152185714Y-84640714D01*
X152185714Y-84640714D02*
X152233333Y-84831190D01*
X152233333Y-84831190D02*
X152233333Y-84974047D01*
X152233333Y-84974047D02*
X152185714Y-85164523D01*
X152185714Y-85164523D02*
X152138095Y-85259761D01*
X152138095Y-85259761D02*
X152042857Y-85355000D01*
X152042857Y-85355000D02*
X151900000Y-85402619D01*
X151900000Y-85402619D02*
X151661905Y-85402619D01*
X153138095Y-84402619D02*
X152661905Y-84402619D01*
X152661905Y-84402619D02*
X152614286Y-84878809D01*
X152614286Y-84878809D02*
X152661905Y-84831190D01*
X152661905Y-84831190D02*
X152757143Y-84783571D01*
X152757143Y-84783571D02*
X152995238Y-84783571D01*
X152995238Y-84783571D02*
X153090476Y-84831190D01*
X153090476Y-84831190D02*
X153138095Y-84878809D01*
X153138095Y-84878809D02*
X153185714Y-84974047D01*
X153185714Y-84974047D02*
X153185714Y-85212142D01*
X153185714Y-85212142D02*
X153138095Y-85307380D01*
X153138095Y-85307380D02*
X153090476Y-85355000D01*
X153090476Y-85355000D02*
X152995238Y-85402619D01*
X152995238Y-85402619D02*
X152757143Y-85402619D01*
X152757143Y-85402619D02*
X152661905Y-85355000D01*
X152661905Y-85355000D02*
X152614286Y-85307380D01*
%TO.C,J29*%
X157932619Y-107499523D02*
X158646904Y-107499523D01*
X158646904Y-107499523D02*
X158789761Y-107547142D01*
X158789761Y-107547142D02*
X158885000Y-107642380D01*
X158885000Y-107642380D02*
X158932619Y-107785237D01*
X158932619Y-107785237D02*
X158932619Y-107880475D01*
X158027857Y-107070951D02*
X157980238Y-107023332D01*
X157980238Y-107023332D02*
X157932619Y-106928094D01*
X157932619Y-106928094D02*
X157932619Y-106689999D01*
X157932619Y-106689999D02*
X157980238Y-106594761D01*
X157980238Y-106594761D02*
X158027857Y-106547142D01*
X158027857Y-106547142D02*
X158123095Y-106499523D01*
X158123095Y-106499523D02*
X158218333Y-106499523D01*
X158218333Y-106499523D02*
X158361190Y-106547142D01*
X158361190Y-106547142D02*
X158932619Y-107118570D01*
X158932619Y-107118570D02*
X158932619Y-106499523D01*
X158932619Y-106023332D02*
X158932619Y-105832856D01*
X158932619Y-105832856D02*
X158885000Y-105737618D01*
X158885000Y-105737618D02*
X158837380Y-105689999D01*
X158837380Y-105689999D02*
X158694523Y-105594761D01*
X158694523Y-105594761D02*
X158504047Y-105547142D01*
X158504047Y-105547142D02*
X158123095Y-105547142D01*
X158123095Y-105547142D02*
X158027857Y-105594761D01*
X158027857Y-105594761D02*
X157980238Y-105642380D01*
X157980238Y-105642380D02*
X157932619Y-105737618D01*
X157932619Y-105737618D02*
X157932619Y-105928094D01*
X157932619Y-105928094D02*
X157980238Y-106023332D01*
X157980238Y-106023332D02*
X158027857Y-106070951D01*
X158027857Y-106070951D02*
X158123095Y-106118570D01*
X158123095Y-106118570D02*
X158361190Y-106118570D01*
X158361190Y-106118570D02*
X158456428Y-106070951D01*
X158456428Y-106070951D02*
X158504047Y-106023332D01*
X158504047Y-106023332D02*
X158551666Y-105928094D01*
X158551666Y-105928094D02*
X158551666Y-105737618D01*
X158551666Y-105737618D02*
X158504047Y-105642380D01*
X158504047Y-105642380D02*
X158456428Y-105594761D01*
X158456428Y-105594761D02*
X158361190Y-105547142D01*
D11*
%TO.C,U8*%
X152725000Y-79315000D02*
X152100000Y-79315000D01*
X149700000Y-79315000D02*
X149700000Y-83915000D01*
X155100000Y-81615000D02*
X155100000Y-79315000D01*
X155100000Y-83915000D02*
X155100000Y-81615000D01*
X152775000Y-83915000D02*
X152025000Y-83915000D01*
D12*
X155100000Y-82690000D02*
X153575000Y-82690000D01*
X153575000Y-82440000D01*
X155100000Y-82440000D01*
X155100000Y-82690000D01*
G36*
X155100000Y-82690000D02*
G01*
X153575000Y-82690000D01*
X153575000Y-82440000D01*
X155100000Y-82440000D01*
X155100000Y-82690000D01*
G37*
X153750000Y-83440000D02*
X153575000Y-83440000D01*
X153575000Y-82440000D01*
X153750000Y-82440000D01*
X153750000Y-83440000D01*
G36*
X153750000Y-83440000D02*
G01*
X153575000Y-83440000D01*
X153575000Y-82440000D01*
X153750000Y-82440000D01*
X153750000Y-83440000D01*
G37*
D11*
%TO.C,U9*%
X152725000Y-94220000D02*
X152100000Y-94220000D01*
X149700000Y-94220000D02*
X149700000Y-98820000D01*
X155100000Y-96520000D02*
X155100000Y-94220000D01*
X155100000Y-98820000D02*
X155100000Y-96520000D01*
X152775000Y-98820000D02*
X152025000Y-98820000D01*
D12*
X155100000Y-97595000D02*
X153575000Y-97595000D01*
X153575000Y-97345000D01*
X155100000Y-97345000D01*
X155100000Y-97595000D01*
G36*
X155100000Y-97595000D02*
G01*
X153575000Y-97595000D01*
X153575000Y-97345000D01*
X155100000Y-97345000D01*
X155100000Y-97595000D01*
G37*
X153750000Y-98345000D02*
X153575000Y-98345000D01*
X153575000Y-97345000D01*
X153750000Y-97345000D01*
X153750000Y-98345000D01*
G36*
X153750000Y-98345000D02*
G01*
X153575000Y-98345000D01*
X153575000Y-97345000D01*
X153750000Y-97345000D01*
X153750000Y-98345000D01*
G37*
D11*
%TO.C,D5*%
X149840000Y-87355000D02*
X149840000Y-90445000D01*
X155389999Y-88900462D02*
G75*
G03*
X149840001Y-87355170I-2989999J462D01*
G01*
X149840000Y-90444830D02*
G75*
G03*
X155390000Y-88899538I2560000J1544830D01*
G01*
X154900000Y-88900000D02*
G75*
G03*
X154900000Y-88900000I-2500000J0D01*
G01*
%TO.C,J29*%
X157470000Y-101035000D02*
X157470000Y-102305000D01*
X156200000Y-101035000D02*
X157470000Y-101035000D01*
X154040000Y-103347929D02*
X154040000Y-103745000D01*
X153280000Y-103347929D02*
X153280000Y-103745000D01*
X151500000Y-103347929D02*
X151500000Y-103745000D01*
X150740000Y-103347929D02*
X150740000Y-103745000D01*
X148960000Y-103347929D02*
X148960000Y-103745000D01*
X148200000Y-103347929D02*
X148200000Y-103745000D01*
X156580000Y-103415000D02*
X156580000Y-103745000D01*
X155820000Y-103415000D02*
X155820000Y-103745000D01*
X157530000Y-103745000D02*
X147250000Y-103745000D01*
X154930000Y-103745000D02*
X154930000Y-106405000D01*
X152390000Y-103745000D02*
X152390000Y-106405000D01*
X149850000Y-103745000D02*
X149850000Y-106405000D01*
X147250000Y-103745000D02*
X147250000Y-106405000D01*
X157530000Y-106405000D02*
X157530000Y-103745000D01*
X156580000Y-106405000D02*
X156580000Y-112405000D01*
X156520000Y-106405000D02*
X156520000Y-112405000D01*
X156400000Y-106405000D02*
X156400000Y-112405000D01*
X156280000Y-106405000D02*
X156280000Y-112405000D01*
X156160000Y-106405000D02*
X156160000Y-112405000D01*
X156040000Y-106405000D02*
X156040000Y-112405000D01*
X155920000Y-106405000D02*
X155920000Y-112405000D01*
X154040000Y-106405000D02*
X154040000Y-112405000D01*
X151500000Y-106405000D02*
X151500000Y-112405000D01*
X148960000Y-106405000D02*
X148960000Y-112405000D01*
X147250000Y-106405000D02*
X157530000Y-106405000D01*
X156580000Y-112405000D02*
X155820000Y-112405000D01*
X155820000Y-112405000D02*
X155820000Y-106405000D01*
X154040000Y-112405000D02*
X153280000Y-112405000D01*
X153280000Y-112405000D02*
X153280000Y-106405000D01*
X151500000Y-112405000D02*
X150740000Y-112405000D01*
X150740000Y-112405000D02*
X150740000Y-106405000D01*
X148960000Y-112405000D02*
X148200000Y-112405000D01*
X148200000Y-112405000D02*
X148200000Y-106405000D01*
%TD*%
M02*
