M48
; DRILL file {KiCad 7.0.9} date 
; FORMAT={-:-/ absolute / inch / decimal}
; #@! TF.CreationDate,2024-03-01T15:48:58+09:00
; #@! TF.GenerationSoftware,Kicad,Pcbnew,7.0.9
; #@! TF.FileFunction,Plated,1,2,PTH
FMAT,2
INCH
; #@! TA.AperFunction,Plated,PTH,ViaDrill
T1C0.0157
%
G90
G05
T1
X5.59Y-3.66
X5.59Y-4.13
X5.715Y-3.49
X5.715Y-4.515
X5.735Y-4.375
X5.755Y-3.62
X5.755Y-3.72
X5.8Y-4.105
X5.81Y-4.28
X5.82Y-3.945
X5.895Y-3.845
X5.9Y-4.1
X5.925Y-4.05
X5.935Y-3.885
X5.935Y-4.295
X5.97Y-3.915
X5.975Y-3.62
X6.0Y-3.525
X6.0Y-4.275
X6.0Y-4.315
X6.01Y-3.725
X6.055Y-4.29
X6.075Y-3.805
X6.08Y-4.04
X6.08Y-4.125
X6.11Y-3.65
X6.115Y-3.91
X6.115Y-3.995
X6.14Y-3.955
X6.15Y-3.65
X6.15Y-4.255
X6.22Y-4.085
X6.23Y-3.64
X6.23Y-4.35
X6.28Y-4.245
X6.29Y-3.49
T0
M30
