%TF.GenerationSoftware,KiCad,Pcbnew,7.0.9*%
%TF.CreationDate,2024-03-01T15:48:56+09:00*%
%TF.ProjectId,LineIntegratedBoard2,4c696e65-496e-4746-9567-726174656442,rev?*%
%TF.SameCoordinates,Original*%
%TF.FileFunction,Legend,Top*%
%TF.FilePolarity,Positive*%
%FSLAX46Y46*%
G04 Gerber Fmt 4.6, Leading zero omitted, Abs format (unit mm)*
G04 Created by KiCad (PCBNEW 7.0.9) date 2024-03-01 15:48:56*
%MOMM*%
%LPD*%
G01*
G04 APERTURE LIST*
%ADD10C,0.200000*%
G04 APERTURE END LIST*
D10*
X146479959Y-92590263D02*
X149146626Y-96590263D01*
X149146626Y-92590263D02*
X146479959Y-96590263D01*
X150670435Y-96590263D02*
X150670435Y-92590263D01*
X152384721Y-95447406D02*
X154289483Y-95447406D01*
X152003769Y-96590263D02*
X153337102Y-92590263D01*
X153337102Y-92590263D02*
X154670436Y-96590263D01*
X156765673Y-92590263D02*
X157527578Y-92590263D01*
X157527578Y-92590263D02*
X157908530Y-92780739D01*
X157908530Y-92780739D02*
X158289483Y-93161691D01*
X158289483Y-93161691D02*
X158479959Y-93923596D01*
X158479959Y-93923596D02*
X158479959Y-95256929D01*
X158479959Y-95256929D02*
X158289483Y-96018834D01*
X158289483Y-96018834D02*
X157908530Y-96399787D01*
X157908530Y-96399787D02*
X157527578Y-96590263D01*
X157527578Y-96590263D02*
X156765673Y-96590263D01*
X156765673Y-96590263D02*
X156384721Y-96399787D01*
X156384721Y-96399787D02*
X156003768Y-96018834D01*
X156003768Y-96018834D02*
X155813292Y-95256929D01*
X155813292Y-95256929D02*
X155813292Y-93923596D01*
X155813292Y-93923596D02*
X156003768Y-93161691D01*
X156003768Y-93161691D02*
X156384721Y-92780739D01*
X156384721Y-92780739D02*
X156765673Y-92590263D01*
%TO.C,U1*%
X144066197Y-89670187D02*
X144066197Y-106942187D01*
X145717197Y-108593187D02*
X159179197Y-108720187D01*
X159179197Y-87892187D02*
X145844197Y-87892187D01*
X160957197Y-106942187D02*
X160957197Y-89670187D01*
X145844197Y-87892187D02*
G75*
G03*
X144066197Y-89670187I0J-1778000D01*
G01*
X144066197Y-106942187D02*
G75*
G03*
X145717197Y-108593187I1651000J0D01*
G01*
X160957197Y-89670187D02*
G75*
G03*
X159179197Y-87892187I-1778000J0D01*
G01*
X159179197Y-108720187D02*
G75*
G03*
X160957197Y-106942187I0J1778000D01*
G01*
%TD*%
M02*
