M48
; DRILL file {KiCad 7.0.9} date 
; FORMAT={-:-/ absolute / inch / decimal}
; #@! TF.CreationDate,2024-03-01T15:46:34+09:00
; #@! TF.GenerationSoftware,Kicad,Pcbnew,7.0.9
; #@! TF.FileFunction,Plated,1,2,PTH
FMAT,2
INCH
; #@! TA.AperFunction,Plated,PTH,ViaDrill
T1C0.0157
; #@! TA.AperFunction,Plated,PTH,ComponentDrill
T2C0.0315
; #@! TA.AperFunction,Plated,PTH,ComponentDrill
T3C0.0354
; #@! TA.AperFunction,Plated,PTH,ComponentDrill
T4C0.0394
%
G90
G05
T1
X5.89Y-3.58
X5.89Y-4.1
X5.89Y-4.61
X5.89Y-5.13
X5.93Y-5.19
X5.95Y-3.13
X5.96Y-4.51
X5.96Y-5.41
X5.97Y-4.915
X6.0Y-5.2
X6.005Y-4.66
X6.02Y-3.35
X6.02Y-3.61
X6.02Y-4.12
X6.03Y-3.86
X6.04Y-4.37
X6.04Y-4.51
X6.04Y-5.41
X6.0502Y-3.9898
X6.0699Y-5.0298
X6.07Y-5.19
X6.13Y-3.13
T2
X5.89Y-3.1708
X5.89Y-3.2692
X5.89Y-3.6908
X5.89Y-3.7892
X5.89Y-4.2
X5.89Y-4.2985
X5.89Y-4.7308
X5.89Y-4.8292
T3
X6.02Y-3.1702
X6.02Y-3.2702
X6.02Y-3.6902
X6.02Y-3.7902
X6.02Y-4.2
X6.02Y-4.3
X6.02Y-4.7302
X6.02Y-4.8302
T4
X5.92Y-5.3375
X5.96Y-5.2625
X6.0Y-5.3375
X6.04Y-5.2625
X6.08Y-5.3375
T0
M30
