0
SECTION
2
HEADER
9
$INSUNITS
70
4
9
$ACADVER
1
AC1014
9
$HANDSEED
5
FFFF
0
ENDSEC
0
SECTION
2
TABLES
0
TABLE
2
VPORT
5
8
100
AcDbSymbolTable
0
ENDTAB
0
TABLE
2
LTYPE
5
5
100
AcDbSymbolTable
0
LTYPE
5
14
100
AcDbSymbolTableRecord
100
AcDbLinetypeTableRecord
2
BYBLOCK
70
0
0
LTYPE
5
15
100
AcDbSymbolTableRecord
100
AcDbLinetypeTableRecord
2
BYLAYER
70
0
0
ENDTAB
0
TABLE
2
LAYER
5
2
100
AcDbSymbolTable
70
2
0
LAYER
5
50
100
AcDbSymbolTableRecord
100
AcDbLayerTableRecord
2
0
70
0
6
CONTINUOUS
0
ENDTAB
0
TABLE
2
STYLE
5
3
100
AcDbSymbolTable
70
1
0
STYLE
5
11
100
AcDbSymbolTableRecord
100
AcDbTextStyleTableRecord
2
STANDARD
70
0
0
ENDTAB
0
TABLE
2
VIEW
5
6
100
AcDbSymbolTable
70
0
0
ENDTAB
0
TABLE
2
UCS
5
7
100
AcDbSymbolTable
70
0
0
ENDTAB
0
TABLE
2
APPID
5
9
100
AcDbSymbolTable
70
2
0
APPID
5
12
100
AcDbSymbolTableRecord
100
AcDbRegAppTableRecord
2
ACAD
70
0
0
ENDTAB
0
TABLE
2
DIMSTYLE
5
A
100
AcDbSymbolTable
70
1
0
ENDTAB
0
TABLE
2
BLOCK_RECORD
5
1
100
AcDbSymbolTable
70
1
0
BLOCK_RECORD
5
1F
100
AcDbSymbolTableRecord
100
AcDbBlockTableRecord
2
*MODEL_SPACE
0
BLOCK_RECORD
5
1B
100
AcDbSymbolTableRecord
100
AcDbBlockTableRecord
2
*PAPER_SPACE
0
ENDTAB
0
ENDSEC
0
SECTION
2
BLOCKS
0
BLOCK
5
20
100
AcDbEntity
100
AcDbBlockBegin
2
*MODEL_SPACE
0
ENDBLK
5
21
100
AcDbEntity
100
AcDbBlockEnd
0
BLOCK
5
1C
100
AcDbEntity
100
AcDbBlockBegin
2
*PAPER_SPACE
0
ENDBLK
5
1D
100
AcDbEntity
100
AcDbBlockEnd
0
ENDSEC
0
SECTION
2
ENTITIES
0
CIRCLE
5
100
100
AcDbEntity
8
0
100
AcDbCircle
10
51.707999910531022
20
43.388163653841396
30
0
40
1.6000000000000014
210
-0
220
0
230
1
0
CIRCLE
5
101
100
AcDbEntity
8
0
100
AcDbCircle
10
51.707999910531008
20
-43.38816365384141
30
0
40
1.6000000000000014
210
-0
220
0
230
1
0
LWPOLYLINE
5
102
100
AcDbEntity
8
0
100
AcDbPolyline
90
4
70
1
43
0.0
10
49.598386812774542
20
-28.000000491738319
42
0.27890399446888692
10
51.369757770373631
20
-26.92857193787184
42
1.6532795875251824
10
-51.369757770373631
20
-26.928571937871823
42
0.27890399446888747
10
-49.598386812774542
20
-28.000000491738316
0
CIRCLE
5
103
100
AcDbEntity
8
0
100
AcDbCircle
10
-51.707999910531022
20
43.388163653841396
30
0
40
1.5999999999999981
210
0
220
0
230
1
0
CIRCLE
5
104
100
AcDbEntity
8
0
100
AcDbCircle
10
-51.707999910531008
20
-43.38816365384141
30
0
40
1.6000000000000028
210
0
220
0
230
1
0
LWPOLYLINE
5
105
100
AcDbEntity
8
0
100
AcDbPolyline
90
90
70
1
43
0.0
10
-100.91913401664259
20
-26.724335087256495
42
0.51854364586921009
10
-100.50583110038193
20
-26.460393649462119
42
-0.7868253551927018
10
-97.643479846375371
20
-25.90467252525557
42
0.36597738245805794
10
-97.293050372193562
20
-26.069594276389807
10
-95.132661102034405
20
-25.490719716113791
42
0.40976008881782883
10
-94.066256832078764
20
-23.675711723228243
42
-0.047277679908336409
10
-96.83913109553697
20
-5.5841461891151658
42
-0.43118673146126008
10
-95.341618759008043
20
-3.9977934129948469
10
-67.638974617812238
20
-3.9977934129948438
42
-0.38433122930718244
10
-64.65490220820287
20
-6.6890672330097836
42
0.13439989169850497
10
-52.233550729250709
20
-38.686640823607206
42
-0.39656107930457229
10
-52.39435620770648
20
-40.047864356320162
10
-53.63636212179145
20
-41.090031060748863
42
1.0000000074505806
10
-49.779637699270566
20
-45.686296246933942
10
-48.537631091868043
20
-44.644130273758464
42
-0.39656107488733289
10
-47.169164035481799
20
-44.722141766621732
42
0.42989649377980882
10
47.169164035481792
20
-44.722141766621711
42
-0.39656107488733328
10
48.53763109186805
20
-44.644130273758449
10
49.779637699270573
20
-45.686296246933964
42
0.9999999925494194
10
53.636362121791464
20
-41.090031060748842
10
52.39435620770648
20
-40.047864356320162
42
-0.3965610793045708
10
52.233550729250702
20
-38.68664082360722
42
0.13439989169850497
10
64.65490220820287
20
-6.6890672330097809
42
-0.38433122930717939
10
67.638974617812224
20
-3.9977934129948691
10
95.341618759008043
20
-3.9977934129948469
42
-0.43118673146126402
10
96.83913109553697
20
-5.5841461891151596
42
-0.047277679908336298
10
94.066256832078722
20
-23.675711723228183
42
0.40976008881782622
10
95.13266110203439
20
-25.490719716113738
10
97.293050372193548
20
-26.069594276389743
42
0.36597738245805383
10
97.643479846375371
20
-25.904672525255531
42
-0.78682535519268959
10
100.50583110038193
20
-26.460393649462087
42
0.51854364586924162
10
100.9191340166426
20
-26.724335087256435
42
0.23812245487498368
10
101.80541491363279
20
-25.703258436686134
42
0.12428716359975606
10
101.8054149136328
20
25.703258436686095
42
0.23812245487496914
10
100.9191340166426
20
26.724335087256499
42
0.51854364586921364
10
100.50583110038193
20
26.460393649462119
42
-0.78682535519271579
10
97.643479846375357
20
25.904672525255585
42
0.36597738245805411
10
97.293050372193548
20
26.069594276389818
10
95.132661102034405
20
25.490719716113798
42
0.40976008881782883
10
94.066256832078722
20
23.675711723228172
42
-0.04727188081513909
10
96.839001826509147
20
5.5863874950957708
42
-0.43119359341478836
10
95.341491488985795
20
4.0000000596046377
10
67.638746286174879
20
4.0000000596046386
42
-0.38432186862489587
10
64.654683950020114
20
6.6911765275632549
42
0.13439158451061636
10
52.233551319914078
20
38.686640026111107
42
-0.39656107488733283
10
52.394356807456987
20
40.047863546554865
10
53.636362768325483
20
41.090030290239604
42
0.99999999999999989
10
49.77963769927058
20
45.686296246933928
10
48.53763178518561
20
44.64412954250524
42
-0.39656107930456724
10
47.169164718294532
20
44.722141046448115
42
0.17910345007610939
10
6.6911765275632371
20
64.654683950020114
42
-0.38432186862489393
10
4.0000000596046377
20
67.638746286174879
10
4.000000059604635
20
95.341491488985795
42
-0.43119359341479635
10
5.5863874950957815
20
96.839001826509161
42
-0.091120891310384297
10
39.650458541957072
20
88.525934829362569
42
0.40976008881782949
10
41.623071643263934
20
89.260965191844747
10
42.568299458059606
20
91.288012782132171
42
0.36597738245806744
10
42.466734678494745
20
91.661756806732512
42
-0.78682535519269825
10
43.511055229226905
20
94.384122553012901
42
0.51854364586917612
10
43.842756101741081
20
94.745313519605219
42
0.23812245487496958
10
42.991092962503046
20
95.795437917937505
42
0.21410393287955565
10
-42.991092962503075
20
95.795437917937505
42
0.23812245487494799
10
-43.842756101741109
20
94.745313519605219
42
0.51854364586918977
10
-43.511055229226933
20
94.384122553012887
42
-0.78682535519271113
10
-42.466734678494745
20
91.661756806732512
42
0.36597738245805694
10
-42.568299458059613
20
91.288012782132171
10
-41.623071643263955
20
89.260965191844747
42
0.40976008881784121
10
-39.650458541957093
20
88.525934829362555
42
-0.091120891310384297
10
-5.586387495095809
20
96.839001826509147
42
-0.43119359341479296
10
-4.0000000596046537
20
95.341491488985795
10
-4.0000000596046483
20
67.638746286174879
42
-0.38432186862489598
10
-6.6911765275632664
20
64.654683950020114
42
0.17910345007610926
10
-47.169164718294532
20
44.722141046448115
42
-0.39656107930457057
10
-48.53763178518561
20
44.64412954250524
10
-49.779637699270573
20
45.686296246933942
42
0.9999999925494194
10
-53.636362121791493
20
41.090031060748856
10
-52.394356807457001
20
40.047863546554865
42
-0.39656107488733627
10
-52.233551319914106
20
38.686640026111114
42
0.13439158451061628
10
-64.654683950020114
20
6.6911765275632673
42
-0.38432186862489615
10
-67.638746286174879
20
4.0000000596046457
10
-95.341491488985781
20
4.0000000596046377
42
-0.43119359341480001
10
-96.839001826509147
20
5.5863874950958898
42
-0.047271880815138868
10
-94.066256832078722
20
23.675711723228211
42
0.40976008881782716
10
-95.132661102034405
20
25.490719716113791
10
-97.293050372193562
20
26.069594276389793
42
0.36597738245804651
10
-97.643479846375371
20
25.90467252525557
42
-0.78682535519271313
10
-100.50583110038191
20
26.460393649462123
42
0.51854364586922896
10
-100.9191340166426
20
26.724335087256481
42
0.23812245487495945
10
-101.80541491363277
20
25.703258436686177
42
0.12428716359975636
10
-101.80541491363279
20
-25.703258436686159
42
0.23812245487496786
0
LINE
5
106
100
AcDbEntity
8
0
100
AcDbLine
10
0
20
0
30
0
11
-7.0000001043081284
21
0
31
0
0
ENDSEC
0
SECTION
2
OBJECTS
0
DICTIONARY
5
C
100
AcDbDictionary
3
ACAD_GROUP
350
D
3
ACAD_MLINESTYLE
350
17
0
DICTIONARY
5
D
100
AcDbDictionary
0
DICTIONARY
5
1A
330
C
100
AcDbDictionary
0
DICTIONARY
5
17
100
AcDbDictionary
0
ENDSEC
0
EOF
