M48
; DRILL file {KiCad 7.0.9} date 
; FORMAT={-:-/ absolute / metric / decimal}
; #@! TF.CreationDate,2024-06-22T14:47:40+09:00
; #@! TF.GenerationSoftware,Kicad,Pcbnew,7.0.9
; #@! TF.FileFunction,Plated,1,2,PTH
FMAT,2
METRIC
; #@! TA.AperFunction,Plated,PTH,ViaDrill
T1C0.400
; #@! TA.AperFunction,Plated,PTH,ComponentDrill
T2C0.700
; #@! TA.AperFunction,Plated,PTH,ComponentDrill
T3C0.762
; #@! TA.AperFunction,Plated,PTH,ComponentDrill
T4C0.800
; #@! TA.AperFunction,Plated,PTH,ComponentDrill
T5C0.900
; #@! TA.AperFunction,Plated,PTH,ComponentDrill
T6C0.950
; #@! TA.AperFunction,Plated,PTH,ComponentDrill
T7C1.000
; #@! TA.AperFunction,Plated,PTH,ComponentDrill
T8C2.500
; #@! TA.AperFunction,Plated,PTH,ComponentDrill
T9C3.000
%
G90
G05
T1
X110.998Y-109.474
X111.125Y-75.057
X111.125Y-83.185
X111.125Y-91.186
X111.125Y-101.6
X111.379Y-65.024
X112.268Y-111.76
X113.665Y-105.918
X114.3Y-109.474
X114.427Y-61.595
X114.554Y-70.104
X114.681Y-78.994
X114.808Y-87.122
X115.316Y-94.869
X117.475Y-104.394
X117.602Y-58.039
X117.729Y-117.221
X117.856Y-109.982
X117.856Y-113.157
X118.237Y-62.992
X119.634Y-114.3
X119.888Y-55.88
X120.015Y-79.121
X120.142Y-60.579
X120.904Y-120.523
X121.539Y-54.229
X123.698Y-55.88
X123.698Y-80.899
X124.079Y-52.07
X124.079Y-109.601
X124.206Y-123.698
X124.46Y-60.071
X124.587Y-54.991
X125.476Y-119.71
X125.73Y-101.854
X125.857Y-77.47
X125.857Y-107.188
X126.136Y-121.336
X126.34Y-89.23
X126.873Y-62.738
X127.0Y-98.298
X127.127Y-73.66
X127.406Y-119.99
X128.549Y-121.336
X129.032Y-104.013
X129.286Y-107.188
X129.565Y-119.786
X129.794Y-124.46
X129.794Y-125.984
X129.921Y-54.61
X129.921Y-100.965
X130.048Y-60.071
X130.175Y-121.056
X130.429Y-97.917
X130.937Y-77.47
X131.445Y-53.086
X131.47Y-120.396
X131.826Y-117.475
X132.08Y-89.174
X132.205Y-93.194
X132.486Y-121.615
X132.588Y-109.093
X132.842Y-57.785
X133.096Y-125.349
X133.401Y-122.758
X133.511Y-89.178
X134.239Y-106.426
X134.366Y-53.213
X134.366Y-62.611
X134.366Y-73.66
X134.366Y-80.899
X134.493Y-58.801
X134.747Y-89.408
X134.747Y-98.171
X135.255Y-117.602
X135.255Y-124.079
X135.382Y-121.285
X136.017Y-49.403
X136.038Y-89.249
X136.271Y-56.896
X136.906Y-125.984
X137.287Y-52.959
X138.049Y-63.5
X138.557Y-105.918
X139.192Y-118.11
X139.319Y-102.997
X139.446Y-50.292
X139.446Y-54.864
X139.497Y-89.332
X139.954Y-63.246
X140.335Y-80.01
X142.113Y-105.029
X142.24Y-54.991
X143.129Y-56.896
X144.145Y-112.649
X144.272Y-116.586
X144.399Y-50.292
X144.526Y-60.071
X144.653Y-64.897
X144.78Y-54.864
X144.907Y-110.744
X145.796Y-119.126
X146.431Y-101.473
X146.431Y-104.394
X146.431Y-107.442
X146.558Y-54.864
X149.225Y-50.292
X149.479Y-125.857
X150.368Y-105.029
X153.543Y-121.793
X154.94Y-125.984
X155.194Y-120.015
X155.829Y-50.292
X156.972Y-120.015
X160.02Y-50.292
X160.528Y-122.174
X160.528Y-124.587
X163.322Y-69.469
X163.576Y-104.394
X164.338Y-50.419
X164.592Y-64.389
X164.592Y-66.675
X164.592Y-82.169
X164.592Y-84.455
X164.592Y-99.822
X164.592Y-101.854
X164.592Y-117.221
X164.719Y-119.253
X164.719Y-122.047
X164.846Y-125.73
X164.973Y-73.025
X164.973Y-75.438
X164.973Y-90.551
X164.973Y-93.091
X165.227Y-53.213
X165.481Y-105.156
X165.608Y-70.104
X166.751Y-52.959
X168.021Y-69.977
X168.021Y-73.787
X168.021Y-101.346
X168.021Y-105.156
X168.148Y-57.023
X168.148Y-63.373
X168.148Y-66.421
X168.148Y-77.724
X168.148Y-97.536
X168.148Y-108.585
X168.148Y-111.76
X168.275Y-114.935
X168.275Y-117.475
X168.529Y-59.309
X169.418Y-61.468
X169.672Y-113.411
X170.307Y-110.744
X170.434Y-65.278
X170.815Y-69.342
X170.815Y-105.537
X171.323Y-73.787
X171.323Y-100.965
X171.577Y-77.47
X171.704Y-80.899
X171.704Y-83.058
X171.704Y-86.614
X171.704Y-88.519
X171.704Y-97.663
X172.593Y-82.042
X172.72Y-87.63
T2
X121.844Y-100.3
X121.844Y-102.2
X121.844Y-105.948
X121.844Y-107.848
X133.841Y-99.593
X133.841Y-104.673
X135.687Y-99.593
X135.687Y-104.673
X136.652Y-107.798
X136.652Y-112.878
X137.439Y-103.124
X137.516Y-59.944
X137.516Y-65.024
X137.541Y-96.037
X137.541Y-101.117
X138.532Y-107.798
X138.532Y-112.878
X139.344Y-73.508
X139.344Y-78.588
X139.395Y-59.944
X139.395Y-65.024
X139.421Y-52.959
X139.421Y-58.039
X139.421Y-96.037
X139.421Y-101.117
X140.818Y-90.145
X140.818Y-91.999
X141.402Y-73.482
X141.402Y-75.336
X141.402Y-77.191
X141.402Y-79.045
X141.402Y-80.899
X141.427Y-56.566
X141.427Y-58.42
X141.427Y-60.274
X141.427Y-62.128
X141.427Y-63.906
X141.427Y-96.037
X141.427Y-97.892
X141.427Y-99.746
X141.427Y-109.169
X141.427Y-111.023
X141.427Y-112.878
X141.427Y-114.732
X141.427Y-116.586
X142.519Y-103.124
X145.898Y-90.145
X145.898Y-91.999
X146.482Y-73.482
X146.482Y-75.336
X146.482Y-77.191
X146.482Y-79.045
X146.482Y-80.899
X146.507Y-56.566
X146.507Y-58.42
X146.507Y-60.274
X146.507Y-62.128
X146.507Y-63.906
X146.507Y-96.037
X146.507Y-97.892
X146.507Y-99.746
X146.507Y-109.169
X146.507Y-111.023
X146.507Y-112.878
X146.507Y-114.732
X146.507Y-116.586
T3
X114.019Y-96.469
X114.019Y-111.709
X116.559Y-96.469
X116.559Y-111.709
X119.099Y-96.469
X119.099Y-111.709
X121.639Y-96.469
X121.639Y-111.709
X124.179Y-96.469
X124.179Y-111.709
X125.527Y-53.416
X125.527Y-94.056
X126.719Y-96.469
X126.719Y-111.709
X129.259Y-96.469
X129.259Y-111.709
X131.799Y-96.469
X131.799Y-111.709
X134.339Y-96.469
X134.339Y-111.709
X143.307Y-53.416
X143.307Y-94.056
T4
X124.007Y-104.668
X124.007Y-107.208
X124.013Y-99.334
X124.013Y-101.874
X131.627Y-104.668
X131.627Y-107.208
X131.633Y-99.334
X131.633Y-101.874
X137.516Y-89.575
X137.516Y-92.075
X169.19Y-79.248
X169.19Y-84.785
X169.19Y-90.322
X169.19Y-95.86
X171.69Y-79.248
X171.69Y-84.785
X171.69Y-90.322
X171.69Y-95.86
T5
X129.692Y-117.373
X130.937Y-122.86
X137.312Y-117.373
X138.557Y-122.86
T6
X119.583Y-100.348
X119.583Y-102.848
X119.583Y-105.348
X119.583Y-107.848
X120.518Y-117.368
X122.286Y-119.136
X124.054Y-120.904
T7
X119.604Y-65.755
X119.604Y-68.255
X119.604Y-73.836
X119.604Y-76.336
X119.604Y-81.888
X119.604Y-84.388
X119.604Y-89.965
X119.604Y-92.465
X120.117Y-58.217
X121.884Y-56.449
X128.753Y-56.083
X128.753Y-91.801
X131.293Y-56.083
X131.293Y-91.801
X131.851Y-51.054
X133.833Y-56.083
X133.833Y-91.801
X134.351Y-51.054
T8
G00X160.503Y-117.085
M15
G01X160.503Y-119.085
M16
G05
G00X160.528Y-108.677
M15
G01X160.528Y-110.677
M16
G05
G00X160.553Y-99.559
M15
G01X160.553Y-101.559
M16
G05
G00X160.579Y-81.956
M15
G01X160.579Y-83.956
M16
G05
G00X160.579Y-91.151
M15
G01X160.579Y-93.151
M16
G05
G00X160.604Y-73.549
M15
G01X160.604Y-75.549
M16
G05
G00X160.63Y-64.43
M15
G01X160.63Y-66.43
M16
G05
G00X160.655Y-56.023
M15
G01X160.655Y-58.023
M16
G05
T9
G00X154.457Y-94.418
M15
G01X154.457Y-98.418
M16
G05
G00X154.483Y-59.316
M15
G01X154.483Y-63.316
M16
G05
G00X154.483Y-111.843
M15
G01X154.483Y-115.843
M16
G05
G00X154.508Y-76.74
M15
G01X154.508Y-80.74
M16
G05
T0
M30
