%TF.GenerationSoftware,KiCad,Pcbnew,7.0.9*%
%TF.CreationDate,2024-06-22T14:47:41+09:00*%
%TF.ProjectId,Drive,44726976-652e-46b6-9963-61645f706362,rev?*%
%TF.SameCoordinates,Original*%
%TF.FileFunction,Drillmap*%
%TF.FilePolarity,Positive*%
%FSLAX45Y45*%
G04 Gerber Fmt 4.5, Leading zero omitted, Abs format (unit mm)*
G04 Created by KiCad (PCBNEW 7.0.9) date 2024-06-22 14:47:41*
%MOMM*%
%LPD*%
G01*
G04 APERTURE LIST*
%ADD10C,0.200000*%
G04 APERTURE END LIST*
D10*
X16617730Y-12527601D02*
G75*
G03*
X16617730Y-4989817I-9585690J3768892D01*
G01*
X12095511Y-5392295D02*
X11090619Y-6397187D01*
X11032040Y-6538608D02*
X11032040Y-10978810D01*
X14997598Y-12654419D02*
X16431600Y-12654419D01*
X12566228Y-12595839D02*
G75*
G03*
X12707648Y-12654419I141422J141419D01*
G01*
X14997598Y-4863000D02*
X12707648Y-4863000D01*
X12817648Y-12454419D02*
G75*
G03*
X12817648Y-12454419I-110000J0D01*
G01*
X11090619Y-11120232D02*
X12566227Y-12595840D01*
X16617730Y-4989817D02*
G75*
G03*
X16431600Y-4863000I-186130J-73183D01*
G01*
X16431600Y-4863000D02*
X14997598Y-4863000D01*
X12566227Y-4921579D02*
X12095511Y-5392295D01*
X12707648Y-4862999D02*
G75*
G03*
X12566227Y-4921579I2J-200001D01*
G01*
X11090619Y-6397188D02*
G75*
G03*
X11032040Y-6538608I141421J-141422D01*
G01*
X12707648Y-12654419D02*
X14997598Y-12654419D01*
X12817648Y-5063000D02*
G75*
G03*
X12817648Y-5063000I-110000J0D01*
G01*
X11032040Y-10978810D02*
G75*
G03*
X11090619Y-11120232I200000J0D01*
G01*
X15341600Y-12454419D02*
G75*
G03*
X15341600Y-12454419I-110000J0D01*
G01*
X15341600Y-5063000D02*
G75*
G03*
X15341600Y-5063000I-110000J0D01*
G01*
X16431600Y-12654420D02*
G75*
G03*
X16617730Y-12527601I0J200000D01*
G01*
X11282817Y-12975903D02*
X11282817Y-12775903D01*
X11282817Y-12775903D02*
X11330436Y-12775903D01*
X11330436Y-12775903D02*
X11359007Y-12785427D01*
X11359007Y-12785427D02*
X11378055Y-12804474D01*
X11378055Y-12804474D02*
X11387579Y-12823522D01*
X11387579Y-12823522D02*
X11397102Y-12861617D01*
X11397102Y-12861617D02*
X11397102Y-12890188D01*
X11397102Y-12890188D02*
X11387579Y-12928284D01*
X11387579Y-12928284D02*
X11378055Y-12947331D01*
X11378055Y-12947331D02*
X11359007Y-12966379D01*
X11359007Y-12966379D02*
X11330436Y-12975903D01*
X11330436Y-12975903D02*
X11282817Y-12975903D01*
X11482817Y-12975903D02*
X11482817Y-12842569D01*
X11482817Y-12880665D02*
X11492340Y-12861617D01*
X11492340Y-12861617D02*
X11501864Y-12852093D01*
X11501864Y-12852093D02*
X11520912Y-12842569D01*
X11520912Y-12842569D02*
X11539960Y-12842569D01*
X11606626Y-12975903D02*
X11606626Y-12842569D01*
X11606626Y-12775903D02*
X11597102Y-12785427D01*
X11597102Y-12785427D02*
X11606626Y-12794950D01*
X11606626Y-12794950D02*
X11616150Y-12785427D01*
X11616150Y-12785427D02*
X11606626Y-12775903D01*
X11606626Y-12775903D02*
X11606626Y-12794950D01*
X11730436Y-12975903D02*
X11711388Y-12966379D01*
X11711388Y-12966379D02*
X11701864Y-12947331D01*
X11701864Y-12947331D02*
X11701864Y-12775903D01*
X11835198Y-12975903D02*
X11816150Y-12966379D01*
X11816150Y-12966379D02*
X11806626Y-12947331D01*
X11806626Y-12947331D02*
X11806626Y-12775903D01*
X12063769Y-12975903D02*
X12063769Y-12775903D01*
X12063769Y-12775903D02*
X12130436Y-12918760D01*
X12130436Y-12918760D02*
X12197102Y-12775903D01*
X12197102Y-12775903D02*
X12197102Y-12975903D01*
X12378055Y-12975903D02*
X12378055Y-12871141D01*
X12378055Y-12871141D02*
X12368531Y-12852093D01*
X12368531Y-12852093D02*
X12349483Y-12842569D01*
X12349483Y-12842569D02*
X12311388Y-12842569D01*
X12311388Y-12842569D02*
X12292340Y-12852093D01*
X12378055Y-12966379D02*
X12359007Y-12975903D01*
X12359007Y-12975903D02*
X12311388Y-12975903D01*
X12311388Y-12975903D02*
X12292340Y-12966379D01*
X12292340Y-12966379D02*
X12282817Y-12947331D01*
X12282817Y-12947331D02*
X12282817Y-12928284D01*
X12282817Y-12928284D02*
X12292340Y-12909236D01*
X12292340Y-12909236D02*
X12311388Y-12899712D01*
X12311388Y-12899712D02*
X12359007Y-12899712D01*
X12359007Y-12899712D02*
X12378055Y-12890188D01*
X12473293Y-12842569D02*
X12473293Y-13042569D01*
X12473293Y-12852093D02*
X12492340Y-12842569D01*
X12492340Y-12842569D02*
X12530436Y-12842569D01*
X12530436Y-12842569D02*
X12549483Y-12852093D01*
X12549483Y-12852093D02*
X12559007Y-12861617D01*
X12559007Y-12861617D02*
X12568531Y-12880665D01*
X12568531Y-12880665D02*
X12568531Y-12937807D01*
X12568531Y-12937807D02*
X12559007Y-12956855D01*
X12559007Y-12956855D02*
X12549483Y-12966379D01*
X12549483Y-12966379D02*
X12530436Y-12975903D01*
X12530436Y-12975903D02*
X12492340Y-12975903D01*
X12492340Y-12975903D02*
X12473293Y-12966379D01*
X12654245Y-12956855D02*
X12663769Y-12966379D01*
X12663769Y-12966379D02*
X12654245Y-12975903D01*
X12654245Y-12975903D02*
X12644721Y-12966379D01*
X12644721Y-12966379D02*
X12654245Y-12956855D01*
X12654245Y-12956855D02*
X12654245Y-12975903D01*
X12654245Y-12852093D02*
X12663769Y-12861617D01*
X12663769Y-12861617D02*
X12654245Y-12871141D01*
X12654245Y-12871141D02*
X12644721Y-12861617D01*
X12644721Y-12861617D02*
X12654245Y-12852093D01*
X12654245Y-12852093D02*
X12654245Y-12871141D01*
M02*
