%TF.GenerationSoftware,KiCad,Pcbnew,7.0.9*%
%TF.CreationDate,2024-06-22T14:47:41+09:00*%
%TF.ProjectId,Drive,44726976-652e-46b6-9963-61645f706362,rev?*%
%TF.SameCoordinates,Original*%
%TF.FileFunction,Drillmap*%
%TF.FilePolarity,Positive*%
%FSLAX45Y45*%
G04 Gerber Fmt 4.5, Leading zero omitted, Abs format (unit mm)*
G04 Created by KiCad (PCBNEW 7.0.9) date 2024-06-22 14:47:41*
%MOMM*%
%LPD*%
G01*
G04 APERTURE LIST*
%ADD10C,0.200000*%
%ADD11C,0.100000*%
%ADD12C,0.250000*%
%ADD13C,0.300000*%
G04 APERTURE END LIST*
D10*
X16617730Y-12527601D02*
G75*
G03*
X16617730Y-4989817I-9585690J3768892D01*
G01*
X12095511Y-5392295D02*
X11090619Y-6397187D01*
X11032040Y-6538608D02*
X11032040Y-10978810D01*
X14997598Y-12654419D02*
X16431600Y-12654419D01*
X12566228Y-12595839D02*
G75*
G03*
X12707648Y-12654419I141422J141419D01*
G01*
X14997598Y-4863000D02*
X12707648Y-4863000D01*
X12817648Y-12454419D02*
G75*
G03*
X12817648Y-12454419I-110000J0D01*
G01*
X11090619Y-11120232D02*
X12566227Y-12595840D01*
X16617730Y-4989817D02*
G75*
G03*
X16431600Y-4863000I-186130J-73183D01*
G01*
X16431600Y-4863000D02*
X14997598Y-4863000D01*
X12566227Y-4921579D02*
X12095511Y-5392295D01*
X12707648Y-4862999D02*
G75*
G03*
X12566227Y-4921579I2J-200001D01*
G01*
X11090619Y-6397188D02*
G75*
G03*
X11032040Y-6538608I141421J-141422D01*
G01*
X12707648Y-12654419D02*
X14997598Y-12654419D01*
X12817648Y-5063000D02*
G75*
G03*
X12817648Y-5063000I-110000J0D01*
G01*
X11032040Y-10978810D02*
G75*
G03*
X11090619Y-11120232I200000J0D01*
G01*
X15341600Y-12454419D02*
G75*
G03*
X15341600Y-12454419I-110000J0D01*
G01*
X15341600Y-5063000D02*
G75*
G03*
X15341600Y-5063000I-110000J0D01*
G01*
X16431600Y-12654420D02*
G75*
G03*
X16617730Y-12527601I0J200000D01*
G01*
D11*
X11079800Y-10927400D02*
X11119800Y-10967400D01*
X11119800Y-10927400D02*
X11079800Y-10967400D01*
X11092500Y-7485700D02*
X11132500Y-7525700D01*
X11132500Y-7485700D02*
X11092500Y-7525700D01*
X11092500Y-8298500D02*
X11132500Y-8338500D01*
X11132500Y-8298500D02*
X11092500Y-8338500D01*
X11092500Y-9098600D02*
X11132500Y-9138600D01*
X11132500Y-9098600D02*
X11092500Y-9138600D01*
X11092500Y-10140000D02*
X11132500Y-10180000D01*
X11132500Y-10140000D02*
X11092500Y-10180000D01*
X11117900Y-6482400D02*
X11157900Y-6522400D01*
X11157900Y-6482400D02*
X11117900Y-6522400D01*
X11206800Y-11156000D02*
X11246800Y-11196000D01*
X11246800Y-11156000D02*
X11206800Y-11196000D01*
X11346500Y-10571800D02*
X11386500Y-10611800D01*
X11386500Y-10571800D02*
X11346500Y-10611800D01*
X11410000Y-10927400D02*
X11450000Y-10967400D01*
X11450000Y-10927400D02*
X11410000Y-10967400D01*
X11422700Y-6139500D02*
X11462700Y-6179500D01*
X11462700Y-6139500D02*
X11422700Y-6179500D01*
X11435400Y-6990400D02*
X11475400Y-7030400D01*
X11475400Y-6990400D02*
X11435400Y-7030400D01*
X11448100Y-7879400D02*
X11488100Y-7919400D01*
X11488100Y-7879400D02*
X11448100Y-7919400D01*
X11460800Y-8692200D02*
X11500800Y-8732200D01*
X11500800Y-8692200D02*
X11460800Y-8732200D01*
X11511600Y-9466900D02*
X11551600Y-9506900D01*
X11551600Y-9466900D02*
X11511600Y-9506900D01*
X11727500Y-10419400D02*
X11767500Y-10459400D01*
X11767500Y-10419400D02*
X11727500Y-10459400D01*
X11740200Y-5783900D02*
X11780200Y-5823900D01*
X11780200Y-5783900D02*
X11740200Y-5823900D01*
X11752900Y-11702100D02*
X11792900Y-11742100D01*
X11792900Y-11702100D02*
X11752900Y-11742100D01*
X11765600Y-10978200D02*
X11805600Y-11018200D01*
X11805600Y-10978200D02*
X11765600Y-11018200D01*
X11765600Y-11295700D02*
X11805600Y-11335700D01*
X11805600Y-11295700D02*
X11765600Y-11335700D01*
X11803700Y-6279200D02*
X11843700Y-6319200D01*
X11843700Y-6279200D02*
X11803700Y-6319200D01*
X11943400Y-11410000D02*
X11983400Y-11450000D01*
X11983400Y-11410000D02*
X11943400Y-11450000D01*
X11968800Y-5568000D02*
X12008800Y-5608000D01*
X12008800Y-5568000D02*
X11968800Y-5608000D01*
X11981500Y-7892100D02*
X12021500Y-7932100D01*
X12021500Y-7892100D02*
X11981500Y-7932100D01*
X11994200Y-6037900D02*
X12034200Y-6077900D01*
X12034200Y-6037900D02*
X11994200Y-6077900D01*
X12070400Y-12032300D02*
X12110400Y-12072300D01*
X12110400Y-12032300D02*
X12070400Y-12072300D01*
X12133900Y-5402900D02*
X12173900Y-5442900D01*
X12173900Y-5402900D02*
X12133900Y-5442900D01*
X12349800Y-5568000D02*
X12389800Y-5608000D01*
X12389800Y-5568000D02*
X12349800Y-5608000D01*
X12349800Y-8069900D02*
X12389800Y-8109900D01*
X12389800Y-8069900D02*
X12349800Y-8109900D01*
X12387900Y-5187000D02*
X12427900Y-5227000D01*
X12427900Y-5187000D02*
X12387900Y-5227000D01*
X12387900Y-10940100D02*
X12427900Y-10980100D01*
X12427900Y-10940100D02*
X12387900Y-10980100D01*
X12400600Y-12349800D02*
X12440600Y-12389800D01*
X12440600Y-12349800D02*
X12400600Y-12389800D01*
X12426000Y-5987100D02*
X12466000Y-6027100D01*
X12466000Y-5987100D02*
X12426000Y-6027100D01*
X12438700Y-5479100D02*
X12478700Y-5519100D01*
X12478700Y-5479100D02*
X12438700Y-5519100D01*
X12527600Y-11951020D02*
X12567600Y-11991020D01*
X12567600Y-11951020D02*
X12527600Y-11991020D01*
X12553000Y-10165400D02*
X12593000Y-10205400D01*
X12593000Y-10165400D02*
X12553000Y-10205400D01*
X12565700Y-7727000D02*
X12605700Y-7767000D01*
X12605700Y-7727000D02*
X12565700Y-7767000D01*
X12565700Y-10698800D02*
X12605700Y-10738800D01*
X12605700Y-10698800D02*
X12565700Y-10738800D01*
X12593640Y-12113580D02*
X12633640Y-12153580D01*
X12633640Y-12113580D02*
X12593640Y-12153580D01*
X12613960Y-8903020D02*
X12653960Y-8943020D01*
X12653960Y-8903020D02*
X12613960Y-8943020D01*
X12667300Y-6253800D02*
X12707300Y-6293800D01*
X12707300Y-6253800D02*
X12667300Y-6293800D01*
X12680000Y-9809800D02*
X12720000Y-9849800D01*
X12720000Y-9809800D02*
X12680000Y-9849800D01*
X12692700Y-7346000D02*
X12732700Y-7386000D01*
X12732700Y-7346000D02*
X12692700Y-7386000D01*
X12720640Y-11978960D02*
X12760640Y-12018960D01*
X12760640Y-11978960D02*
X12720640Y-12018960D01*
X12834940Y-12113580D02*
X12874940Y-12153580D01*
X12874940Y-12113580D02*
X12834940Y-12153580D01*
X12883200Y-10381300D02*
X12923200Y-10421300D01*
X12923200Y-10381300D02*
X12883200Y-10421300D01*
X12908600Y-10698800D02*
X12948600Y-10738800D01*
X12948600Y-10698800D02*
X12908600Y-10738800D01*
X12936540Y-11958640D02*
X12976540Y-11998640D01*
X12976540Y-11958640D02*
X12936540Y-11998640D01*
X12959400Y-12426000D02*
X12999400Y-12466000D01*
X12999400Y-12426000D02*
X12959400Y-12466000D01*
X12959400Y-12578400D02*
X12999400Y-12618400D01*
X12999400Y-12578400D02*
X12959400Y-12618400D01*
X12972100Y-5441000D02*
X13012100Y-5481000D01*
X13012100Y-5441000D02*
X12972100Y-5481000D01*
X12972100Y-10076500D02*
X13012100Y-10116500D01*
X13012100Y-10076500D02*
X12972100Y-10116500D01*
X12984800Y-5987100D02*
X13024800Y-6027100D01*
X13024800Y-5987100D02*
X12984800Y-6027100D01*
X12997500Y-12085640D02*
X13037500Y-12125640D01*
X13037500Y-12085640D02*
X12997500Y-12125640D01*
X13022900Y-9771700D02*
X13062900Y-9811700D01*
X13062900Y-9771700D02*
X13022900Y-9811700D01*
X13073700Y-7727000D02*
X13113700Y-7767000D01*
X13113700Y-7727000D02*
X13073700Y-7767000D01*
X13124500Y-5288600D02*
X13164500Y-5328600D01*
X13164500Y-5288600D02*
X13124500Y-5328600D01*
X13127040Y-12019600D02*
X13167040Y-12059600D01*
X13167040Y-12019600D02*
X13127040Y-12059600D01*
X13162600Y-11727500D02*
X13202600Y-11767500D01*
X13202600Y-11727500D02*
X13162600Y-11767500D01*
X13188000Y-8897450D02*
X13228000Y-8937450D01*
X13228000Y-8897450D02*
X13188000Y-8937450D01*
X13200518Y-9299382D02*
X13240518Y-9339382D01*
X13240518Y-9299382D02*
X13200518Y-9339382D01*
X13228640Y-12141520D02*
X13268640Y-12181520D01*
X13268640Y-12141520D02*
X13228640Y-12181520D01*
X13238800Y-10889300D02*
X13278800Y-10929300D01*
X13278800Y-10889300D02*
X13238800Y-10929300D01*
X13264200Y-5758500D02*
X13304200Y-5798500D01*
X13304200Y-5758500D02*
X13264200Y-5798500D01*
X13289600Y-12514900D02*
X13329600Y-12554900D01*
X13329600Y-12514900D02*
X13289600Y-12554900D01*
X13320080Y-12255820D02*
X13360080Y-12295820D01*
X13360080Y-12255820D02*
X13320080Y-12295820D01*
X13331144Y-8897793D02*
X13371144Y-8937793D01*
X13371144Y-8897793D02*
X13331144Y-8937793D01*
X13403900Y-10622600D02*
X13443900Y-10662600D01*
X13443900Y-10622600D02*
X13403900Y-10662600D01*
X13416600Y-5301300D02*
X13456600Y-5341300D01*
X13456600Y-5301300D02*
X13416600Y-5341300D01*
X13416600Y-6241100D02*
X13456600Y-6281100D01*
X13456600Y-6241100D02*
X13416600Y-6281100D01*
X13416600Y-7346000D02*
X13456600Y-7386000D01*
X13456600Y-7346000D02*
X13416600Y-7386000D01*
X13416600Y-8069900D02*
X13456600Y-8109900D01*
X13456600Y-8069900D02*
X13416600Y-8109900D01*
X13429300Y-5860100D02*
X13469300Y-5900100D01*
X13469300Y-5860100D02*
X13429300Y-5900100D01*
X13454700Y-8920800D02*
X13494700Y-8960800D01*
X13494700Y-8920800D02*
X13454700Y-8960800D01*
X13454700Y-9797100D02*
X13494700Y-9837100D01*
X13494700Y-9797100D02*
X13454700Y-9837100D01*
X13505500Y-11740200D02*
X13545500Y-11780200D01*
X13545500Y-11740200D02*
X13505500Y-11780200D01*
X13505500Y-12387900D02*
X13545500Y-12427900D01*
X13545500Y-12387900D02*
X13505500Y-12427900D01*
X13518200Y-12108500D02*
X13558200Y-12148500D01*
X13558200Y-12108500D02*
X13518200Y-12148500D01*
X13581700Y-4920300D02*
X13621700Y-4960300D01*
X13621700Y-4920300D02*
X13581700Y-4960300D01*
X13583837Y-8904938D02*
X13623837Y-8944938D01*
X13623837Y-8904938D02*
X13583837Y-8944938D01*
X13607100Y-5669600D02*
X13647100Y-5709600D01*
X13647100Y-5669600D02*
X13607100Y-5709600D01*
X13670600Y-12578400D02*
X13710600Y-12618400D01*
X13710600Y-12578400D02*
X13670600Y-12618400D01*
X13708700Y-5275900D02*
X13748700Y-5315900D01*
X13748700Y-5275900D02*
X13708700Y-5315900D01*
X13784900Y-6330000D02*
X13824900Y-6370000D01*
X13824900Y-6330000D02*
X13784900Y-6370000D01*
X13835700Y-10571800D02*
X13875700Y-10611800D01*
X13875700Y-10571800D02*
X13835700Y-10611800D01*
X13899200Y-11791000D02*
X13939200Y-11831000D01*
X13939200Y-11791000D02*
X13899200Y-11831000D01*
X13911900Y-10279700D02*
X13951900Y-10319700D01*
X13951900Y-10279700D02*
X13911900Y-10319700D01*
X13924600Y-5009200D02*
X13964600Y-5049200D01*
X13964600Y-5009200D02*
X13924600Y-5049200D01*
X13924600Y-5466400D02*
X13964600Y-5506400D01*
X13964600Y-5466400D02*
X13924600Y-5506400D01*
X13929680Y-8913180D02*
X13969680Y-8953180D01*
X13969680Y-8913180D02*
X13929680Y-8953180D01*
X13975400Y-6304600D02*
X14015400Y-6344600D01*
X14015400Y-6304600D02*
X13975400Y-6344600D01*
X14013500Y-7981000D02*
X14053500Y-8021000D01*
X14053500Y-7981000D02*
X14013500Y-8021000D01*
X14191300Y-10482900D02*
X14231300Y-10522900D01*
X14231300Y-10482900D02*
X14191300Y-10522900D01*
X14204000Y-5479100D02*
X14244000Y-5519100D01*
X14244000Y-5479100D02*
X14204000Y-5519100D01*
X14292900Y-5669600D02*
X14332900Y-5709600D01*
X14332900Y-5669600D02*
X14292900Y-5709600D01*
X14394500Y-11244900D02*
X14434500Y-11284900D01*
X14434500Y-11244900D02*
X14394500Y-11284900D01*
X14407200Y-11638600D02*
X14447200Y-11678600D01*
X14447200Y-11638600D02*
X14407200Y-11678600D01*
X14419900Y-5009200D02*
X14459900Y-5049200D01*
X14459900Y-5009200D02*
X14419900Y-5049200D01*
X14432600Y-5987100D02*
X14472600Y-6027100D01*
X14472600Y-5987100D02*
X14432600Y-6027100D01*
X14445300Y-6469700D02*
X14485300Y-6509700D01*
X14485300Y-6469700D02*
X14445300Y-6509700D01*
X14458000Y-5466400D02*
X14498000Y-5506400D01*
X14498000Y-5466400D02*
X14458000Y-5506400D01*
X14470700Y-11054400D02*
X14510700Y-11094400D01*
X14510700Y-11054400D02*
X14470700Y-11094400D01*
X14559600Y-11892600D02*
X14599600Y-11932600D01*
X14599600Y-11892600D02*
X14559600Y-11932600D01*
X14623100Y-10127300D02*
X14663100Y-10167300D01*
X14663100Y-10127300D02*
X14623100Y-10167300D01*
X14623100Y-10419400D02*
X14663100Y-10459400D01*
X14663100Y-10419400D02*
X14623100Y-10459400D01*
X14623100Y-10724200D02*
X14663100Y-10764200D01*
X14663100Y-10724200D02*
X14623100Y-10764200D01*
X14635800Y-5466400D02*
X14675800Y-5506400D01*
X14675800Y-5466400D02*
X14635800Y-5506400D01*
X14902500Y-5009200D02*
X14942500Y-5049200D01*
X14942500Y-5009200D02*
X14902500Y-5049200D01*
X14927900Y-12565700D02*
X14967900Y-12605700D01*
X14967900Y-12565700D02*
X14927900Y-12605700D01*
X15016800Y-10482900D02*
X15056800Y-10522900D01*
X15056800Y-10482900D02*
X15016800Y-10522900D01*
X15334300Y-12159300D02*
X15374300Y-12199300D01*
X15374300Y-12159300D02*
X15334300Y-12199300D01*
X15474000Y-12578400D02*
X15514000Y-12618400D01*
X15514000Y-12578400D02*
X15474000Y-12618400D01*
X15499400Y-11981500D02*
X15539400Y-12021500D01*
X15539400Y-11981500D02*
X15499400Y-12021500D01*
X15562900Y-5009200D02*
X15602900Y-5049200D01*
X15602900Y-5009200D02*
X15562900Y-5049200D01*
X15677200Y-11981500D02*
X15717200Y-12021500D01*
X15717200Y-11981500D02*
X15677200Y-12021500D01*
X15982000Y-5009200D02*
X16022000Y-5049200D01*
X16022000Y-5009200D02*
X15982000Y-5049200D01*
X16032800Y-12197400D02*
X16072800Y-12237400D01*
X16072800Y-12197400D02*
X16032800Y-12237400D01*
X16032800Y-12438700D02*
X16072800Y-12478700D01*
X16072800Y-12438700D02*
X16032800Y-12478700D01*
X16312200Y-6926900D02*
X16352200Y-6966900D01*
X16352200Y-6926900D02*
X16312200Y-6966900D01*
X16337600Y-10419400D02*
X16377600Y-10459400D01*
X16377600Y-10419400D02*
X16337600Y-10459400D01*
X16413800Y-5021900D02*
X16453800Y-5061900D01*
X16453800Y-5021900D02*
X16413800Y-5061900D01*
X16439200Y-6418900D02*
X16479200Y-6458900D01*
X16479200Y-6418900D02*
X16439200Y-6458900D01*
X16439200Y-6647500D02*
X16479200Y-6687500D01*
X16479200Y-6647500D02*
X16439200Y-6687500D01*
X16439200Y-8196900D02*
X16479200Y-8236900D01*
X16479200Y-8196900D02*
X16439200Y-8236900D01*
X16439200Y-8425500D02*
X16479200Y-8465500D01*
X16479200Y-8425500D02*
X16439200Y-8465500D01*
X16439200Y-9962200D02*
X16479200Y-10002200D01*
X16479200Y-9962200D02*
X16439200Y-10002200D01*
X16439200Y-10165400D02*
X16479200Y-10205400D01*
X16479200Y-10165400D02*
X16439200Y-10205400D01*
X16439200Y-11702100D02*
X16479200Y-11742100D01*
X16479200Y-11702100D02*
X16439200Y-11742100D01*
X16451900Y-11905300D02*
X16491900Y-11945300D01*
X16491900Y-11905300D02*
X16451900Y-11945300D01*
X16451900Y-12184700D02*
X16491900Y-12224700D01*
X16491900Y-12184700D02*
X16451900Y-12224700D01*
X16464600Y-12553000D02*
X16504600Y-12593000D01*
X16504600Y-12553000D02*
X16464600Y-12593000D01*
X16477300Y-7282500D02*
X16517300Y-7322500D01*
X16517300Y-7282500D02*
X16477300Y-7322500D01*
X16477300Y-7523800D02*
X16517300Y-7563800D01*
X16517300Y-7523800D02*
X16477300Y-7563800D01*
X16477300Y-9035100D02*
X16517300Y-9075100D01*
X16517300Y-9035100D02*
X16477300Y-9075100D01*
X16477300Y-9289100D02*
X16517300Y-9329100D01*
X16517300Y-9289100D02*
X16477300Y-9329100D01*
X16502700Y-5301300D02*
X16542700Y-5341300D01*
X16542700Y-5301300D02*
X16502700Y-5341300D01*
X16528100Y-10495600D02*
X16568100Y-10535600D01*
X16568100Y-10495600D02*
X16528100Y-10535600D01*
X16540800Y-6990400D02*
X16580800Y-7030400D01*
X16580800Y-6990400D02*
X16540800Y-7030400D01*
X16655100Y-5275900D02*
X16695100Y-5315900D01*
X16695100Y-5275900D02*
X16655100Y-5315900D01*
X16782100Y-6977700D02*
X16822100Y-7017700D01*
X16822100Y-6977700D02*
X16782100Y-7017700D01*
X16782100Y-7358700D02*
X16822100Y-7398700D01*
X16822100Y-7358700D02*
X16782100Y-7398700D01*
X16782100Y-10114600D02*
X16822100Y-10154600D01*
X16822100Y-10114600D02*
X16782100Y-10154600D01*
X16782100Y-10495600D02*
X16822100Y-10535600D01*
X16822100Y-10495600D02*
X16782100Y-10535600D01*
X16794800Y-5682300D02*
X16834800Y-5722300D01*
X16834800Y-5682300D02*
X16794800Y-5722300D01*
X16794800Y-6317300D02*
X16834800Y-6357300D01*
X16834800Y-6317300D02*
X16794800Y-6357300D01*
X16794800Y-6622100D02*
X16834800Y-6662100D01*
X16834800Y-6622100D02*
X16794800Y-6662100D01*
X16794800Y-7752400D02*
X16834800Y-7792400D01*
X16834800Y-7752400D02*
X16794800Y-7792400D01*
X16794800Y-9733600D02*
X16834800Y-9773600D01*
X16834800Y-9733600D02*
X16794800Y-9773600D01*
X16794800Y-10838500D02*
X16834800Y-10878500D01*
X16834800Y-10838500D02*
X16794800Y-10878500D01*
X16794800Y-11156000D02*
X16834800Y-11196000D01*
X16834800Y-11156000D02*
X16794800Y-11196000D01*
X16807500Y-11473500D02*
X16847500Y-11513500D01*
X16847500Y-11473500D02*
X16807500Y-11513500D01*
X16807500Y-11727500D02*
X16847500Y-11767500D01*
X16847500Y-11727500D02*
X16807500Y-11767500D01*
X16832900Y-5910900D02*
X16872900Y-5950900D01*
X16872900Y-5910900D02*
X16832900Y-5950900D01*
X16921800Y-6126800D02*
X16961800Y-6166800D01*
X16961800Y-6126800D02*
X16921800Y-6166800D01*
X16947200Y-11321100D02*
X16987200Y-11361100D01*
X16987200Y-11321100D02*
X16947200Y-11361100D01*
X17010700Y-11054400D02*
X17050700Y-11094400D01*
X17050700Y-11054400D02*
X17010700Y-11094400D01*
X17023400Y-6507800D02*
X17063400Y-6547800D01*
X17063400Y-6507800D02*
X17023400Y-6547800D01*
X17061500Y-6914200D02*
X17101500Y-6954200D01*
X17101500Y-6914200D02*
X17061500Y-6954200D01*
X17061500Y-10533700D02*
X17101500Y-10573700D01*
X17101500Y-10533700D02*
X17061500Y-10573700D01*
X17112300Y-7358700D02*
X17152300Y-7398700D01*
X17152300Y-7358700D02*
X17112300Y-7398700D01*
X17112300Y-10076500D02*
X17152300Y-10116500D01*
X17152300Y-10076500D02*
X17112300Y-10116500D01*
X17137700Y-7727000D02*
X17177700Y-7767000D01*
X17177700Y-7727000D02*
X17137700Y-7767000D01*
X17150400Y-8069900D02*
X17190400Y-8109900D01*
X17190400Y-8069900D02*
X17150400Y-8109900D01*
X17150400Y-8285800D02*
X17190400Y-8325800D01*
X17190400Y-8285800D02*
X17150400Y-8325800D01*
X17150400Y-8641400D02*
X17190400Y-8681400D01*
X17190400Y-8641400D02*
X17150400Y-8681400D01*
X17150400Y-8831900D02*
X17190400Y-8871900D01*
X17190400Y-8831900D02*
X17150400Y-8871900D01*
X17150400Y-9746300D02*
X17190400Y-9786300D01*
X17190400Y-9746300D02*
X17150400Y-9786300D01*
X17239300Y-8184200D02*
X17279300Y-8224200D01*
X17279300Y-8184200D02*
X17239300Y-8224200D01*
X17252000Y-8743000D02*
X17292000Y-8783000D01*
X17292000Y-8743000D02*
X17252000Y-8783000D01*
X12219380Y-10030020D02*
G75*
G03*
X12219380Y-10030020I-35000J0D01*
G01*
X12219380Y-10220020D02*
G75*
G03*
X12219380Y-10220020I-35000J0D01*
G01*
X12219380Y-10594840D02*
G75*
G03*
X12219380Y-10594840I-35000J0D01*
G01*
X12219380Y-10784840D02*
G75*
G03*
X12219380Y-10784840I-35000J0D01*
G01*
X13419120Y-9959340D02*
G75*
G03*
X13419120Y-9959340I-35000J0D01*
G01*
X13419120Y-10467340D02*
G75*
G03*
X13419120Y-10467340I-35000J0D01*
G01*
X13603680Y-9959340D02*
G75*
G03*
X13603680Y-9959340I-35000J0D01*
G01*
X13603680Y-10467340D02*
G75*
G03*
X13603680Y-10467340I-35000J0D01*
G01*
X13700200Y-10779760D02*
G75*
G03*
X13700200Y-10779760I-35000J0D01*
G01*
X13700200Y-11287760D02*
G75*
G03*
X13700200Y-11287760I-35000J0D01*
G01*
X13778940Y-10312400D02*
G75*
G03*
X13778940Y-10312400I-35000J0D01*
G01*
X13786560Y-5994400D02*
G75*
G03*
X13786560Y-5994400I-35000J0D01*
G01*
X13786560Y-6502400D02*
G75*
G03*
X13786560Y-6502400I-35000J0D01*
G01*
X13789100Y-9603740D02*
G75*
G03*
X13789100Y-9603740I-35000J0D01*
G01*
X13789100Y-10111740D02*
G75*
G03*
X13789100Y-10111740I-35000J0D01*
G01*
X13888160Y-10779760D02*
G75*
G03*
X13888160Y-10779760I-35000J0D01*
G01*
X13888160Y-11287760D02*
G75*
G03*
X13888160Y-11287760I-35000J0D01*
G01*
X13969440Y-7350760D02*
G75*
G03*
X13969440Y-7350760I-35000J0D01*
G01*
X13969440Y-7858760D02*
G75*
G03*
X13969440Y-7858760I-35000J0D01*
G01*
X13974520Y-5994400D02*
G75*
G03*
X13974520Y-5994400I-35000J0D01*
G01*
X13974520Y-6502400D02*
G75*
G03*
X13974520Y-6502400I-35000J0D01*
G01*
X13977060Y-5295900D02*
G75*
G03*
X13977060Y-5295900I-35000J0D01*
G01*
X13977060Y-5803900D02*
G75*
G03*
X13977060Y-5803900I-35000J0D01*
G01*
X13977060Y-9603740D02*
G75*
G03*
X13977060Y-9603740I-35000J0D01*
G01*
X13977060Y-10111740D02*
G75*
G03*
X13977060Y-10111740I-35000J0D01*
G01*
X14116760Y-9014460D02*
G75*
G03*
X14116760Y-9014460I-35000J0D01*
G01*
X14116760Y-9199880D02*
G75*
G03*
X14116760Y-9199880I-35000J0D01*
G01*
X14175180Y-7348220D02*
G75*
G03*
X14175180Y-7348220I-35000J0D01*
G01*
X14175180Y-7533640D02*
G75*
G03*
X14175180Y-7533640I-35000J0D01*
G01*
X14175180Y-7719060D02*
G75*
G03*
X14175180Y-7719060I-35000J0D01*
G01*
X14175180Y-7904480D02*
G75*
G03*
X14175180Y-7904480I-35000J0D01*
G01*
X14175180Y-8089900D02*
G75*
G03*
X14175180Y-8089900I-35000J0D01*
G01*
X14177720Y-5656580D02*
G75*
G03*
X14177720Y-5656580I-35000J0D01*
G01*
X14177720Y-5842000D02*
G75*
G03*
X14177720Y-5842000I-35000J0D01*
G01*
X14177720Y-6027420D02*
G75*
G03*
X14177720Y-6027420I-35000J0D01*
G01*
X14177720Y-6212840D02*
G75*
G03*
X14177720Y-6212840I-35000J0D01*
G01*
X14177720Y-6390640D02*
G75*
G03*
X14177720Y-6390640I-35000J0D01*
G01*
X14177720Y-9603740D02*
G75*
G03*
X14177720Y-9603740I-35000J0D01*
G01*
X14177720Y-9789160D02*
G75*
G03*
X14177720Y-9789160I-35000J0D01*
G01*
X14177720Y-9974580D02*
G75*
G03*
X14177720Y-9974580I-35000J0D01*
G01*
X14177720Y-10916920D02*
G75*
G03*
X14177720Y-10916920I-35000J0D01*
G01*
X14177720Y-11102340D02*
G75*
G03*
X14177720Y-11102340I-35000J0D01*
G01*
X14177720Y-11287760D02*
G75*
G03*
X14177720Y-11287760I-35000J0D01*
G01*
X14177720Y-11473180D02*
G75*
G03*
X14177720Y-11473180I-35000J0D01*
G01*
X14177720Y-11658600D02*
G75*
G03*
X14177720Y-11658600I-35000J0D01*
G01*
X14286940Y-10312400D02*
G75*
G03*
X14286940Y-10312400I-35000J0D01*
G01*
X14624760Y-9014460D02*
G75*
G03*
X14624760Y-9014460I-35000J0D01*
G01*
X14624760Y-9199880D02*
G75*
G03*
X14624760Y-9199880I-35000J0D01*
G01*
X14683180Y-7348220D02*
G75*
G03*
X14683180Y-7348220I-35000J0D01*
G01*
X14683180Y-7533640D02*
G75*
G03*
X14683180Y-7533640I-35000J0D01*
G01*
X14683180Y-7719060D02*
G75*
G03*
X14683180Y-7719060I-35000J0D01*
G01*
X14683180Y-7904480D02*
G75*
G03*
X14683180Y-7904480I-35000J0D01*
G01*
X14683180Y-8089900D02*
G75*
G03*
X14683180Y-8089900I-35000J0D01*
G01*
X14685720Y-5656580D02*
G75*
G03*
X14685720Y-5656580I-35000J0D01*
G01*
X14685720Y-5842000D02*
G75*
G03*
X14685720Y-5842000I-35000J0D01*
G01*
X14685720Y-6027420D02*
G75*
G03*
X14685720Y-6027420I-35000J0D01*
G01*
X14685720Y-6212840D02*
G75*
G03*
X14685720Y-6212840I-35000J0D01*
G01*
X14685720Y-6390640D02*
G75*
G03*
X14685720Y-6390640I-35000J0D01*
G01*
X14685720Y-9603740D02*
G75*
G03*
X14685720Y-9603740I-35000J0D01*
G01*
X14685720Y-9789160D02*
G75*
G03*
X14685720Y-9789160I-35000J0D01*
G01*
X14685720Y-9974580D02*
G75*
G03*
X14685720Y-9974580I-35000J0D01*
G01*
X14685720Y-10916920D02*
G75*
G03*
X14685720Y-10916920I-35000J0D01*
G01*
X14685720Y-11102340D02*
G75*
G03*
X14685720Y-11102340I-35000J0D01*
G01*
X14685720Y-11287760D02*
G75*
G03*
X14685720Y-11287760I-35000J0D01*
G01*
X14685720Y-11473180D02*
G75*
G03*
X14685720Y-11473180I-35000J0D01*
G01*
X14685720Y-11658600D02*
G75*
G03*
X14685720Y-11658600I-35000J0D01*
G01*
X11401900Y-9608820D02*
X11401900Y-9685020D01*
X11363800Y-9646920D02*
X11440000Y-9646920D01*
X11401900Y-11132820D02*
X11401900Y-11209020D01*
X11363800Y-11170920D02*
X11440000Y-11170920D01*
X11655900Y-9608820D02*
X11655900Y-9685020D01*
X11617800Y-9646920D02*
X11694000Y-9646920D01*
X11655900Y-11132820D02*
X11655900Y-11209020D01*
X11617800Y-11170920D02*
X11694000Y-11170920D01*
X11909900Y-9608820D02*
X11909900Y-9685020D01*
X11871800Y-9646920D02*
X11948000Y-9646920D01*
X11909900Y-11132820D02*
X11909900Y-11209020D01*
X11871800Y-11170920D02*
X11948000Y-11170920D01*
X12163900Y-9608820D02*
X12163900Y-9685020D01*
X12125800Y-9646920D02*
X12202000Y-9646920D01*
X12163900Y-11132820D02*
X12163900Y-11209020D01*
X12125800Y-11170920D02*
X12202000Y-11170920D01*
X12417900Y-9608820D02*
X12417900Y-9685020D01*
X12379800Y-9646920D02*
X12456000Y-9646920D01*
X12417900Y-11132820D02*
X12417900Y-11209020D01*
X12379800Y-11170920D02*
X12456000Y-11170920D01*
X12552680Y-5303520D02*
X12552680Y-5379720D01*
X12514580Y-5341620D02*
X12590780Y-5341620D01*
X12552680Y-9367520D02*
X12552680Y-9443720D01*
X12514580Y-9405620D02*
X12590780Y-9405620D01*
X12671900Y-9608820D02*
X12671900Y-9685020D01*
X12633800Y-9646920D02*
X12710000Y-9646920D01*
X12671900Y-11132820D02*
X12671900Y-11209020D01*
X12633800Y-11170920D02*
X12710000Y-11170920D01*
X12925900Y-9608820D02*
X12925900Y-9685020D01*
X12887800Y-9646920D02*
X12964000Y-9646920D01*
X12925900Y-11132820D02*
X12925900Y-11209020D01*
X12887800Y-11170920D02*
X12964000Y-11170920D01*
X13179900Y-9608820D02*
X13179900Y-9685020D01*
X13141800Y-9646920D02*
X13218000Y-9646920D01*
X13179900Y-11132820D02*
X13179900Y-11209020D01*
X13141800Y-11170920D02*
X13218000Y-11170920D01*
X13433900Y-9608820D02*
X13433900Y-9685020D01*
X13395800Y-9646920D02*
X13472000Y-9646920D01*
X13433900Y-11132820D02*
X13433900Y-11209020D01*
X13395800Y-11170920D02*
X13472000Y-11170920D01*
X14330680Y-5303520D02*
X14330680Y-5379720D01*
X14292580Y-5341620D02*
X14368780Y-5341620D01*
X14330680Y-9367520D02*
X14330680Y-9443720D01*
X14292580Y-9405620D02*
X14368780Y-9405620D01*
X12429024Y-10495125D02*
X12429024Y-10438556D01*
X12372455Y-10438556D01*
X12372455Y-10495125D01*
X12429024Y-10495125D01*
X12429024Y-10749125D02*
X12429024Y-10692556D01*
X12372455Y-10692556D01*
X12372455Y-10749125D01*
X12429024Y-10749125D01*
X12429564Y-9961725D02*
X12429564Y-9905156D01*
X12372995Y-9905156D01*
X12372995Y-9961725D01*
X12429564Y-9961725D01*
X12429564Y-10215725D02*
X12429564Y-10159156D01*
X12372995Y-10159156D01*
X12372995Y-10215725D01*
X12429564Y-10215725D01*
X13191024Y-10495125D02*
X13191024Y-10438556D01*
X13134455Y-10438556D01*
X13134455Y-10495125D01*
X13191024Y-10495125D01*
X13191024Y-10749125D02*
X13191024Y-10692556D01*
X13134455Y-10692556D01*
X13134455Y-10749125D01*
X13191024Y-10749125D01*
X13191564Y-9961725D02*
X13191564Y-9905156D01*
X13134995Y-9905156D01*
X13134995Y-9961725D01*
X13191564Y-9961725D01*
X13191564Y-10215725D02*
X13191564Y-10159156D01*
X13134995Y-10159156D01*
X13134995Y-10215725D01*
X13191564Y-10215725D01*
X13779844Y-8985785D02*
X13779844Y-8929216D01*
X13723275Y-8929216D01*
X13723275Y-8985785D01*
X13779844Y-8985785D01*
X13779844Y-9235785D02*
X13779844Y-9179216D01*
X13723275Y-9179216D01*
X13723275Y-9235785D01*
X13779844Y-9235785D01*
X16947276Y-7953084D02*
X16947276Y-7896515D01*
X16890707Y-7896515D01*
X16890707Y-7953084D01*
X16947276Y-7953084D01*
X16947276Y-8506805D02*
X16947276Y-8450236D01*
X16890707Y-8450236D01*
X16890707Y-8506805D01*
X16947276Y-8506805D01*
X16947276Y-9060525D02*
X16947276Y-9003956D01*
X16890707Y-9003956D01*
X16890707Y-9060525D01*
X16947276Y-9060525D01*
X16947276Y-9614245D02*
X16947276Y-9557676D01*
X16890707Y-9557676D01*
X16890707Y-9614245D01*
X16947276Y-9614245D01*
X17197276Y-7953084D02*
X17197276Y-7896515D01*
X17140707Y-7896515D01*
X17140707Y-7953084D01*
X17197276Y-7953084D01*
X17197276Y-8506805D02*
X17197276Y-8450236D01*
X17140707Y-8450236D01*
X17140707Y-8506805D01*
X17197276Y-8506805D01*
X17197276Y-9060525D02*
X17197276Y-9003956D01*
X17140707Y-9003956D01*
X17140707Y-9060525D01*
X17197276Y-9060525D01*
X17197276Y-9614245D02*
X17197276Y-9557676D01*
X17140707Y-9557676D01*
X17140707Y-9614245D01*
X17197276Y-9614245D01*
X12969240Y-11782340D02*
X13014240Y-11737340D01*
X12969240Y-11692340D01*
X12924240Y-11737340D01*
X12969240Y-11782340D01*
X13093700Y-12330980D02*
X13138700Y-12285980D01*
X13093700Y-12240980D01*
X13048700Y-12285980D01*
X13093700Y-12330980D01*
X13731240Y-11782340D02*
X13776240Y-11737340D01*
X13731240Y-11692340D01*
X13686240Y-11737340D01*
X13731240Y-11782340D01*
X13855700Y-12330980D02*
X13900700Y-12285980D01*
X13855700Y-12240980D01*
X13810700Y-12285980D01*
X13855700Y-12330980D01*
X11910820Y-9987320D02*
X12005820Y-10082320D01*
X12005820Y-9987320D02*
X11910820Y-10082320D01*
X12005820Y-10034820D02*
G75*
G03*
X12005820Y-10034820I-47500J0D01*
G01*
X11910820Y-10237320D02*
X12005820Y-10332320D01*
X12005820Y-10237320D02*
X11910820Y-10332320D01*
X12005820Y-10284820D02*
G75*
G03*
X12005820Y-10284820I-47500J0D01*
G01*
X11910820Y-10487320D02*
X12005820Y-10582320D01*
X12005820Y-10487320D02*
X11910820Y-10582320D01*
X12005820Y-10534820D02*
G75*
G03*
X12005820Y-10534820I-47500J0D01*
G01*
X11910820Y-10737320D02*
X12005820Y-10832320D01*
X12005820Y-10737320D02*
X11910820Y-10832320D01*
X12005820Y-10784820D02*
G75*
G03*
X12005820Y-10784820I-47500J0D01*
G01*
X12004307Y-11689347D02*
X12099307Y-11784347D01*
X12099307Y-11689347D02*
X12004307Y-11784347D01*
X12099307Y-11736847D02*
G75*
G03*
X12099307Y-11736847I-47500J0D01*
G01*
X12181083Y-11866123D02*
X12276083Y-11961123D01*
X12276083Y-11866123D02*
X12181083Y-11961123D01*
X12276083Y-11913623D02*
G75*
G03*
X12276083Y-11913623I-47500J0D01*
G01*
X12357860Y-12042900D02*
X12452860Y-12137900D01*
X12452860Y-12042900D02*
X12357860Y-12137900D01*
X12452860Y-12090400D02*
G75*
G03*
X12452860Y-12090400I-47500J0D01*
G01*
X11910420Y-6525520D02*
X12010420Y-6625520D01*
X12010420Y-6525520D02*
X11910420Y-6625520D01*
X11960420Y-6525520D02*
X11960420Y-6625520D01*
X11910420Y-6575520D02*
X12010420Y-6575520D01*
X11910420Y-6775520D02*
X12010420Y-6875520D01*
X12010420Y-6775520D02*
X11910420Y-6875520D01*
X11960420Y-6775520D02*
X11960420Y-6875520D01*
X11910420Y-6825520D02*
X12010420Y-6825520D01*
X11910420Y-7333600D02*
X12010420Y-7433600D01*
X12010420Y-7333600D02*
X11910420Y-7433600D01*
X11960420Y-7333600D02*
X11960420Y-7433600D01*
X11910420Y-7383600D02*
X12010420Y-7383600D01*
X11910420Y-7583600D02*
X12010420Y-7683600D01*
X12010420Y-7583600D02*
X11910420Y-7683600D01*
X11960420Y-7583600D02*
X11960420Y-7683600D01*
X11910420Y-7633600D02*
X12010420Y-7633600D01*
X11910420Y-8138780D02*
X12010420Y-8238780D01*
X12010420Y-8138780D02*
X11910420Y-8238780D01*
X11960420Y-8138780D02*
X11960420Y-8238780D01*
X11910420Y-8188780D02*
X12010420Y-8188780D01*
X11910420Y-8388780D02*
X12010420Y-8488780D01*
X12010420Y-8388780D02*
X11910420Y-8488780D01*
X11960420Y-8388780D02*
X11960420Y-8488780D01*
X11910420Y-8438780D02*
X12010420Y-8438780D01*
X11910420Y-8946500D02*
X12010420Y-9046500D01*
X12010420Y-8946500D02*
X11910420Y-9046500D01*
X11960420Y-8946500D02*
X11960420Y-9046500D01*
X11910420Y-8996500D02*
X12010420Y-8996500D01*
X11910420Y-9196500D02*
X12010420Y-9296500D01*
X12010420Y-9196500D02*
X11910420Y-9296500D01*
X11960420Y-9196500D02*
X11960420Y-9296500D01*
X11910420Y-9246500D02*
X12010420Y-9246500D01*
X11961660Y-5771680D02*
X12061660Y-5871680D01*
X12061660Y-5771680D02*
X11961660Y-5871680D01*
X12011660Y-5771680D02*
X12011660Y-5871680D01*
X11961660Y-5821680D02*
X12061660Y-5821680D01*
X12138437Y-5594903D02*
X12238437Y-5694903D01*
X12238437Y-5594903D02*
X12138437Y-5694903D01*
X12188437Y-5594903D02*
X12188437Y-5694903D01*
X12138437Y-5644903D02*
X12238437Y-5644903D01*
X12825260Y-5558320D02*
X12925260Y-5658320D01*
X12925260Y-5558320D02*
X12825260Y-5658320D01*
X12875260Y-5558320D02*
X12875260Y-5658320D01*
X12825260Y-5608320D02*
X12925260Y-5608320D01*
X12825260Y-9130080D02*
X12925260Y-9230080D01*
X12925260Y-9130080D02*
X12825260Y-9230080D01*
X12875260Y-9130080D02*
X12875260Y-9230080D01*
X12825260Y-9180080D02*
X12925260Y-9180080D01*
X13079260Y-5558320D02*
X13179260Y-5658320D01*
X13179260Y-5558320D02*
X13079260Y-5658320D01*
X13129260Y-5558320D02*
X13129260Y-5658320D01*
X13079260Y-5608320D02*
X13179260Y-5608320D01*
X13079260Y-9130080D02*
X13179260Y-9230080D01*
X13179260Y-9130080D02*
X13079260Y-9230080D01*
X13129260Y-9130080D02*
X13129260Y-9230080D01*
X13079260Y-9180080D02*
X13179260Y-9180080D01*
X13135140Y-5055400D02*
X13235140Y-5155400D01*
X13235140Y-5055400D02*
X13135140Y-5155400D01*
X13185140Y-5055400D02*
X13185140Y-5155400D01*
X13135140Y-5105400D02*
X13235140Y-5105400D01*
X13333260Y-5558320D02*
X13433260Y-5658320D01*
X13433260Y-5558320D02*
X13333260Y-5658320D01*
X13383260Y-5558320D02*
X13383260Y-5658320D01*
X13333260Y-5608320D02*
X13433260Y-5608320D01*
X13333260Y-9130080D02*
X13433260Y-9230080D01*
X13433260Y-9130080D02*
X13333260Y-9230080D01*
X13383260Y-9130080D02*
X13383260Y-9230080D01*
X13333260Y-9180080D02*
X13433260Y-9180080D01*
X13385140Y-5055400D02*
X13485140Y-5155400D01*
X13485140Y-5055400D02*
X13385140Y-5155400D01*
X13435140Y-5055400D02*
X13435140Y-5155400D01*
X13385140Y-5105400D02*
X13485140Y-5105400D01*
D12*
X15925260Y-11683460D02*
X16175260Y-11933460D01*
X16175260Y-11683460D02*
X15925260Y-11933460D01*
X16138649Y-11896849D02*
X16138649Y-11720071D01*
X15961871Y-11720071D01*
X15961871Y-11896849D01*
X16138649Y-11896849D01*
D11*
X15925260Y-11708460D02*
X15925260Y-11908460D01*
X15925260Y-11908460D02*
G75*
G03*
X16175260Y-11908460I125000J0D01*
G01*
X16175260Y-11908460D02*
X16175260Y-11708460D01*
X16175260Y-11708460D02*
G75*
G03*
X15925260Y-11708460I-125000J0D01*
G01*
D12*
X15927800Y-10842720D02*
X16177800Y-11092720D01*
X16177800Y-10842720D02*
X15927800Y-11092720D01*
X16141189Y-11056109D02*
X16141189Y-10879331D01*
X15964411Y-10879331D01*
X15964411Y-11056109D01*
X16141189Y-11056109D01*
D11*
X15927800Y-10867720D02*
X15927800Y-11067720D01*
X15927800Y-11067720D02*
G75*
G03*
X16177800Y-11067720I125000J0D01*
G01*
X16177800Y-11067720D02*
X16177800Y-10867720D01*
X16177800Y-10867720D02*
G75*
G03*
X15927800Y-10867720I-125000J0D01*
G01*
D12*
X15930340Y-9930860D02*
X16180340Y-10180860D01*
X16180340Y-9930860D02*
X15930340Y-10180860D01*
X16143729Y-10144249D02*
X16143729Y-9967471D01*
X15966951Y-9967471D01*
X15966951Y-10144249D01*
X16143729Y-10144249D01*
D11*
X15930340Y-9955860D02*
X15930340Y-10155860D01*
X15930340Y-10155860D02*
G75*
G03*
X16180340Y-10155860I125000J0D01*
G01*
X16180340Y-10155860D02*
X16180340Y-9955860D01*
X16180340Y-9955860D02*
G75*
G03*
X15930340Y-9955860I-125000J0D01*
G01*
D12*
X15932880Y-8170640D02*
X16182880Y-8420640D01*
X16182880Y-8170640D02*
X15932880Y-8420640D01*
X16146269Y-8384029D02*
X16146269Y-8207251D01*
X15969491Y-8207251D01*
X15969491Y-8384029D01*
X16146269Y-8384029D01*
D11*
X15932880Y-8195640D02*
X15932880Y-8395640D01*
X15932880Y-8395640D02*
G75*
G03*
X16182880Y-8395640I125000J0D01*
G01*
X16182880Y-8395640D02*
X16182880Y-8195640D01*
X16182880Y-8195640D02*
G75*
G03*
X15932880Y-8195640I-125000J0D01*
G01*
D12*
X15932880Y-9090120D02*
X16182880Y-9340120D01*
X16182880Y-9090120D02*
X15932880Y-9340120D01*
X16146269Y-9303509D02*
X16146269Y-9126731D01*
X15969491Y-9126731D01*
X15969491Y-9303509D01*
X16146269Y-9303509D01*
D11*
X15932880Y-9115120D02*
X15932880Y-9315120D01*
X15932880Y-9315120D02*
G75*
G03*
X16182880Y-9315120I125000J0D01*
G01*
X16182880Y-9315120D02*
X16182880Y-9115120D01*
X16182880Y-9115120D02*
G75*
G03*
X15932880Y-9115120I-125000J0D01*
G01*
D12*
X15935420Y-7329900D02*
X16185420Y-7579900D01*
X16185420Y-7329900D02*
X15935420Y-7579900D01*
X16148809Y-7543289D02*
X16148809Y-7366511D01*
X15972031Y-7366511D01*
X15972031Y-7543289D01*
X16148809Y-7543289D01*
D11*
X15935420Y-7354900D02*
X15935420Y-7554900D01*
X15935420Y-7554900D02*
G75*
G03*
X16185420Y-7554900I125000J0D01*
G01*
X16185420Y-7554900D02*
X16185420Y-7354900D01*
X16185420Y-7354900D02*
G75*
G03*
X15935420Y-7354900I-125000J0D01*
G01*
D12*
X15937960Y-6418040D02*
X16187960Y-6668040D01*
X16187960Y-6418040D02*
X15937960Y-6668040D01*
X16151349Y-6631429D02*
X16151349Y-6454651D01*
X15974571Y-6454651D01*
X15974571Y-6631429D01*
X16151349Y-6631429D01*
D11*
X15937960Y-6443040D02*
X15937960Y-6643040D01*
X15937960Y-6643040D02*
G75*
G03*
X16187960Y-6643040I125000J0D01*
G01*
X16187960Y-6643040D02*
X16187960Y-6443040D01*
X16187960Y-6443040D02*
G75*
G03*
X15937960Y-6443040I-125000J0D01*
G01*
D12*
X15940500Y-5577300D02*
X16190500Y-5827300D01*
X16190500Y-5577300D02*
X15940500Y-5827300D01*
X16153889Y-5790689D02*
X16153889Y-5613911D01*
X15977111Y-5613911D01*
X15977111Y-5790689D01*
X16153889Y-5790689D01*
D11*
X15940500Y-5602300D02*
X15940500Y-5802300D01*
X15940500Y-5802300D02*
G75*
G03*
X16190500Y-5802300I125000J0D01*
G01*
X16190500Y-5802300D02*
X16190500Y-5602300D01*
X16190500Y-5602300D02*
G75*
G03*
X15940500Y-5602300I-125000J0D01*
G01*
D13*
X15295740Y-9491840D02*
X15595740Y-9791840D01*
X15595740Y-9491840D02*
X15295740Y-9791840D01*
X15445740Y-9791840D02*
X15595740Y-9641840D01*
X15445740Y-9491840D01*
X15295740Y-9641840D01*
X15445740Y-9791840D01*
D11*
X15295740Y-9441840D02*
X15295740Y-9841840D01*
X15295740Y-9841840D02*
G75*
G03*
X15595740Y-9841840I150000J0D01*
G01*
X15595740Y-9841840D02*
X15595740Y-9441840D01*
X15595740Y-9441840D02*
G75*
G03*
X15295740Y-9441840I-150000J0D01*
G01*
D13*
X15298280Y-5981560D02*
X15598280Y-6281560D01*
X15598280Y-5981560D02*
X15298280Y-6281560D01*
X15448280Y-6281560D02*
X15598280Y-6131560D01*
X15448280Y-5981560D01*
X15298280Y-6131560D01*
X15448280Y-6281560D01*
D11*
X15298280Y-5931560D02*
X15298280Y-6331560D01*
X15298280Y-6331560D02*
G75*
G03*
X15598280Y-6331560I150000J0D01*
G01*
X15598280Y-6331560D02*
X15598280Y-5931560D01*
X15598280Y-5931560D02*
G75*
G03*
X15298280Y-5931560I-150000J0D01*
G01*
D13*
X15298280Y-11234280D02*
X15598280Y-11534280D01*
X15598280Y-11234280D02*
X15298280Y-11534280D01*
X15448280Y-11534280D02*
X15598280Y-11384280D01*
X15448280Y-11234280D01*
X15298280Y-11384280D01*
X15448280Y-11534280D01*
D11*
X15298280Y-11184280D02*
X15298280Y-11584280D01*
X15298280Y-11584280D02*
G75*
G03*
X15598280Y-11584280I150000J0D01*
G01*
X15598280Y-11584280D02*
X15598280Y-11184280D01*
X15598280Y-11184280D02*
G75*
G03*
X15298280Y-11184280I-150000J0D01*
G01*
D13*
X15300820Y-7724000D02*
X15600820Y-8024000D01*
X15600820Y-7724000D02*
X15300820Y-8024000D01*
X15450820Y-8024000D02*
X15600820Y-7874000D01*
X15450820Y-7724000D01*
X15300820Y-7874000D01*
X15450820Y-8024000D01*
D11*
X15300820Y-7674000D02*
X15300820Y-8074000D01*
X15300820Y-8074000D02*
G75*
G03*
X15600820Y-8074000I150000J0D01*
G01*
X15600820Y-8074000D02*
X15600820Y-7674000D01*
X15600820Y-7674000D02*
G75*
G03*
X15300820Y-7674000I-150000J0D01*
G01*
D10*
X11282817Y-12975903D02*
X11282817Y-12775903D01*
X11282817Y-12775903D02*
X11330436Y-12775903D01*
X11330436Y-12775903D02*
X11359007Y-12785427D01*
X11359007Y-12785427D02*
X11378055Y-12804474D01*
X11378055Y-12804474D02*
X11387579Y-12823522D01*
X11387579Y-12823522D02*
X11397102Y-12861617D01*
X11397102Y-12861617D02*
X11397102Y-12890188D01*
X11397102Y-12890188D02*
X11387579Y-12928284D01*
X11387579Y-12928284D02*
X11378055Y-12947331D01*
X11378055Y-12947331D02*
X11359007Y-12966379D01*
X11359007Y-12966379D02*
X11330436Y-12975903D01*
X11330436Y-12975903D02*
X11282817Y-12975903D01*
X11482817Y-12975903D02*
X11482817Y-12842569D01*
X11482817Y-12880665D02*
X11492340Y-12861617D01*
X11492340Y-12861617D02*
X11501864Y-12852093D01*
X11501864Y-12852093D02*
X11520912Y-12842569D01*
X11520912Y-12842569D02*
X11539960Y-12842569D01*
X11606626Y-12975903D02*
X11606626Y-12842569D01*
X11606626Y-12775903D02*
X11597102Y-12785427D01*
X11597102Y-12785427D02*
X11606626Y-12794950D01*
X11606626Y-12794950D02*
X11616150Y-12785427D01*
X11616150Y-12785427D02*
X11606626Y-12775903D01*
X11606626Y-12775903D02*
X11606626Y-12794950D01*
X11730436Y-12975903D02*
X11711388Y-12966379D01*
X11711388Y-12966379D02*
X11701864Y-12947331D01*
X11701864Y-12947331D02*
X11701864Y-12775903D01*
X11835198Y-12975903D02*
X11816150Y-12966379D01*
X11816150Y-12966379D02*
X11806626Y-12947331D01*
X11806626Y-12947331D02*
X11806626Y-12775903D01*
X12063769Y-12975903D02*
X12063769Y-12775903D01*
X12063769Y-12775903D02*
X12130436Y-12918760D01*
X12130436Y-12918760D02*
X12197102Y-12775903D01*
X12197102Y-12775903D02*
X12197102Y-12975903D01*
X12378055Y-12975903D02*
X12378055Y-12871141D01*
X12378055Y-12871141D02*
X12368531Y-12852093D01*
X12368531Y-12852093D02*
X12349483Y-12842569D01*
X12349483Y-12842569D02*
X12311388Y-12842569D01*
X12311388Y-12842569D02*
X12292340Y-12852093D01*
X12378055Y-12966379D02*
X12359007Y-12975903D01*
X12359007Y-12975903D02*
X12311388Y-12975903D01*
X12311388Y-12975903D02*
X12292340Y-12966379D01*
X12292340Y-12966379D02*
X12282817Y-12947331D01*
X12282817Y-12947331D02*
X12282817Y-12928284D01*
X12282817Y-12928284D02*
X12292340Y-12909236D01*
X12292340Y-12909236D02*
X12311388Y-12899712D01*
X12311388Y-12899712D02*
X12359007Y-12899712D01*
X12359007Y-12899712D02*
X12378055Y-12890188D01*
X12473293Y-12842569D02*
X12473293Y-13042569D01*
X12473293Y-12852093D02*
X12492340Y-12842569D01*
X12492340Y-12842569D02*
X12530436Y-12842569D01*
X12530436Y-12842569D02*
X12549483Y-12852093D01*
X12549483Y-12852093D02*
X12559007Y-12861617D01*
X12559007Y-12861617D02*
X12568531Y-12880665D01*
X12568531Y-12880665D02*
X12568531Y-12937807D01*
X12568531Y-12937807D02*
X12559007Y-12956855D01*
X12559007Y-12956855D02*
X12549483Y-12966379D01*
X12549483Y-12966379D02*
X12530436Y-12975903D01*
X12530436Y-12975903D02*
X12492340Y-12975903D01*
X12492340Y-12975903D02*
X12473293Y-12966379D01*
X12654245Y-12956855D02*
X12663769Y-12966379D01*
X12663769Y-12966379D02*
X12654245Y-12975903D01*
X12654245Y-12975903D02*
X12644721Y-12966379D01*
X12644721Y-12966379D02*
X12654245Y-12956855D01*
X12654245Y-12956855D02*
X12654245Y-12975903D01*
X12654245Y-12852093D02*
X12663769Y-12861617D01*
X12663769Y-12861617D02*
X12654245Y-12871141D01*
X12654245Y-12871141D02*
X12644721Y-12861617D01*
X12644721Y-12861617D02*
X12654245Y-12852093D01*
X12654245Y-12852093D02*
X12654245Y-12871141D01*
D11*
X10982040Y-13284419D02*
X11022040Y-13324419D01*
X11022040Y-13284419D02*
X10982040Y-13324419D01*
D10*
X11320912Y-13195903D02*
X11339960Y-13195903D01*
X11339960Y-13195903D02*
X11359007Y-13205427D01*
X11359007Y-13205427D02*
X11368531Y-13214950D01*
X11368531Y-13214950D02*
X11378055Y-13233998D01*
X11378055Y-13233998D02*
X11387579Y-13272093D01*
X11387579Y-13272093D02*
X11387579Y-13319712D01*
X11387579Y-13319712D02*
X11378055Y-13357807D01*
X11378055Y-13357807D02*
X11368531Y-13376855D01*
X11368531Y-13376855D02*
X11359007Y-13386379D01*
X11359007Y-13386379D02*
X11339960Y-13395903D01*
X11339960Y-13395903D02*
X11320912Y-13395903D01*
X11320912Y-13395903D02*
X11301864Y-13386379D01*
X11301864Y-13386379D02*
X11292340Y-13376855D01*
X11292340Y-13376855D02*
X11282817Y-13357807D01*
X11282817Y-13357807D02*
X11273293Y-13319712D01*
X11273293Y-13319712D02*
X11273293Y-13272093D01*
X11273293Y-13272093D02*
X11282817Y-13233998D01*
X11282817Y-13233998D02*
X11292340Y-13214950D01*
X11292340Y-13214950D02*
X11301864Y-13205427D01*
X11301864Y-13205427D02*
X11320912Y-13195903D01*
X11473293Y-13376855D02*
X11482817Y-13386379D01*
X11482817Y-13386379D02*
X11473293Y-13395903D01*
X11473293Y-13395903D02*
X11463769Y-13386379D01*
X11463769Y-13386379D02*
X11473293Y-13376855D01*
X11473293Y-13376855D02*
X11473293Y-13395903D01*
X11654245Y-13262569D02*
X11654245Y-13395903D01*
X11606626Y-13186379D02*
X11559007Y-13329236D01*
X11559007Y-13329236D02*
X11682817Y-13329236D01*
X11797102Y-13195903D02*
X11816150Y-13195903D01*
X11816150Y-13195903D02*
X11835198Y-13205427D01*
X11835198Y-13205427D02*
X11844721Y-13214950D01*
X11844721Y-13214950D02*
X11854245Y-13233998D01*
X11854245Y-13233998D02*
X11863769Y-13272093D01*
X11863769Y-13272093D02*
X11863769Y-13319712D01*
X11863769Y-13319712D02*
X11854245Y-13357807D01*
X11854245Y-13357807D02*
X11844721Y-13376855D01*
X11844721Y-13376855D02*
X11835198Y-13386379D01*
X11835198Y-13386379D02*
X11816150Y-13395903D01*
X11816150Y-13395903D02*
X11797102Y-13395903D01*
X11797102Y-13395903D02*
X11778055Y-13386379D01*
X11778055Y-13386379D02*
X11768531Y-13376855D01*
X11768531Y-13376855D02*
X11759007Y-13357807D01*
X11759007Y-13357807D02*
X11749483Y-13319712D01*
X11749483Y-13319712D02*
X11749483Y-13272093D01*
X11749483Y-13272093D02*
X11759007Y-13233998D01*
X11759007Y-13233998D02*
X11768531Y-13214950D01*
X11768531Y-13214950D02*
X11778055Y-13205427D01*
X11778055Y-13205427D02*
X11797102Y-13195903D01*
X11987579Y-13195903D02*
X12006626Y-13195903D01*
X12006626Y-13195903D02*
X12025674Y-13205427D01*
X12025674Y-13205427D02*
X12035198Y-13214950D01*
X12035198Y-13214950D02*
X12044721Y-13233998D01*
X12044721Y-13233998D02*
X12054245Y-13272093D01*
X12054245Y-13272093D02*
X12054245Y-13319712D01*
X12054245Y-13319712D02*
X12044721Y-13357807D01*
X12044721Y-13357807D02*
X12035198Y-13376855D01*
X12035198Y-13376855D02*
X12025674Y-13386379D01*
X12025674Y-13386379D02*
X12006626Y-13395903D01*
X12006626Y-13395903D02*
X11987579Y-13395903D01*
X11987579Y-13395903D02*
X11968531Y-13386379D01*
X11968531Y-13386379D02*
X11959007Y-13376855D01*
X11959007Y-13376855D02*
X11949483Y-13357807D01*
X11949483Y-13357807D02*
X11939960Y-13319712D01*
X11939960Y-13319712D02*
X11939960Y-13272093D01*
X11939960Y-13272093D02*
X11949483Y-13233998D01*
X11949483Y-13233998D02*
X11959007Y-13214950D01*
X11959007Y-13214950D02*
X11968531Y-13205427D01*
X11968531Y-13205427D02*
X11987579Y-13195903D01*
X12139960Y-13395903D02*
X12139960Y-13262569D01*
X12139960Y-13281617D02*
X12149483Y-13272093D01*
X12149483Y-13272093D02*
X12168531Y-13262569D01*
X12168531Y-13262569D02*
X12197102Y-13262569D01*
X12197102Y-13262569D02*
X12216150Y-13272093D01*
X12216150Y-13272093D02*
X12225674Y-13291141D01*
X12225674Y-13291141D02*
X12225674Y-13395903D01*
X12225674Y-13291141D02*
X12235198Y-13272093D01*
X12235198Y-13272093D02*
X12254245Y-13262569D01*
X12254245Y-13262569D02*
X12282817Y-13262569D01*
X12282817Y-13262569D02*
X12301864Y-13272093D01*
X12301864Y-13272093D02*
X12311388Y-13291141D01*
X12311388Y-13291141D02*
X12311388Y-13395903D01*
X12406626Y-13395903D02*
X12406626Y-13262569D01*
X12406626Y-13281617D02*
X12416150Y-13272093D01*
X12416150Y-13272093D02*
X12435198Y-13262569D01*
X12435198Y-13262569D02*
X12463769Y-13262569D01*
X12463769Y-13262569D02*
X12482817Y-13272093D01*
X12482817Y-13272093D02*
X12492341Y-13291141D01*
X12492341Y-13291141D02*
X12492341Y-13395903D01*
X12492341Y-13291141D02*
X12501864Y-13272093D01*
X12501864Y-13272093D02*
X12520912Y-13262569D01*
X12520912Y-13262569D02*
X12549483Y-13262569D01*
X12549483Y-13262569D02*
X12568531Y-13272093D01*
X12568531Y-13272093D02*
X12578055Y-13291141D01*
X12578055Y-13291141D02*
X12578055Y-13395903D01*
X12968531Y-13186379D02*
X12797103Y-13443522D01*
X13225674Y-13195903D02*
X13244722Y-13195903D01*
X13244722Y-13195903D02*
X13263769Y-13205427D01*
X13263769Y-13205427D02*
X13273293Y-13214950D01*
X13273293Y-13214950D02*
X13282817Y-13233998D01*
X13282817Y-13233998D02*
X13292341Y-13272093D01*
X13292341Y-13272093D02*
X13292341Y-13319712D01*
X13292341Y-13319712D02*
X13282817Y-13357807D01*
X13282817Y-13357807D02*
X13273293Y-13376855D01*
X13273293Y-13376855D02*
X13263769Y-13386379D01*
X13263769Y-13386379D02*
X13244722Y-13395903D01*
X13244722Y-13395903D02*
X13225674Y-13395903D01*
X13225674Y-13395903D02*
X13206626Y-13386379D01*
X13206626Y-13386379D02*
X13197103Y-13376855D01*
X13197103Y-13376855D02*
X13187579Y-13357807D01*
X13187579Y-13357807D02*
X13178055Y-13319712D01*
X13178055Y-13319712D02*
X13178055Y-13272093D01*
X13178055Y-13272093D02*
X13187579Y-13233998D01*
X13187579Y-13233998D02*
X13197103Y-13214950D01*
X13197103Y-13214950D02*
X13206626Y-13205427D01*
X13206626Y-13205427D02*
X13225674Y-13195903D01*
X13378055Y-13376855D02*
X13387579Y-13386379D01*
X13387579Y-13386379D02*
X13378055Y-13395903D01*
X13378055Y-13395903D02*
X13368531Y-13386379D01*
X13368531Y-13386379D02*
X13378055Y-13376855D01*
X13378055Y-13376855D02*
X13378055Y-13395903D01*
X13511388Y-13195903D02*
X13530436Y-13195903D01*
X13530436Y-13195903D02*
X13549484Y-13205427D01*
X13549484Y-13205427D02*
X13559007Y-13214950D01*
X13559007Y-13214950D02*
X13568531Y-13233998D01*
X13568531Y-13233998D02*
X13578055Y-13272093D01*
X13578055Y-13272093D02*
X13578055Y-13319712D01*
X13578055Y-13319712D02*
X13568531Y-13357807D01*
X13568531Y-13357807D02*
X13559007Y-13376855D01*
X13559007Y-13376855D02*
X13549484Y-13386379D01*
X13549484Y-13386379D02*
X13530436Y-13395903D01*
X13530436Y-13395903D02*
X13511388Y-13395903D01*
X13511388Y-13395903D02*
X13492341Y-13386379D01*
X13492341Y-13386379D02*
X13482817Y-13376855D01*
X13482817Y-13376855D02*
X13473293Y-13357807D01*
X13473293Y-13357807D02*
X13463769Y-13319712D01*
X13463769Y-13319712D02*
X13463769Y-13272093D01*
X13463769Y-13272093D02*
X13473293Y-13233998D01*
X13473293Y-13233998D02*
X13482817Y-13214950D01*
X13482817Y-13214950D02*
X13492341Y-13205427D01*
X13492341Y-13205427D02*
X13511388Y-13195903D01*
X13768531Y-13395903D02*
X13654245Y-13395903D01*
X13711388Y-13395903D02*
X13711388Y-13195903D01*
X13711388Y-13195903D02*
X13692341Y-13224474D01*
X13692341Y-13224474D02*
X13673293Y-13243522D01*
X13673293Y-13243522D02*
X13654245Y-13253046D01*
X13949484Y-13195903D02*
X13854245Y-13195903D01*
X13854245Y-13195903D02*
X13844722Y-13291141D01*
X13844722Y-13291141D02*
X13854245Y-13281617D01*
X13854245Y-13281617D02*
X13873293Y-13272093D01*
X13873293Y-13272093D02*
X13920912Y-13272093D01*
X13920912Y-13272093D02*
X13939960Y-13281617D01*
X13939960Y-13281617D02*
X13949484Y-13291141D01*
X13949484Y-13291141D02*
X13959007Y-13310188D01*
X13959007Y-13310188D02*
X13959007Y-13357807D01*
X13959007Y-13357807D02*
X13949484Y-13376855D01*
X13949484Y-13376855D02*
X13939960Y-13386379D01*
X13939960Y-13386379D02*
X13920912Y-13395903D01*
X13920912Y-13395903D02*
X13873293Y-13395903D01*
X13873293Y-13395903D02*
X13854245Y-13386379D01*
X13854245Y-13386379D02*
X13844722Y-13376855D01*
X14025674Y-13195903D02*
X14159007Y-13195903D01*
X14159007Y-13195903D02*
X14073293Y-13395903D01*
X14225674Y-13195903D02*
X14225674Y-13233998D01*
X14301865Y-13195903D02*
X14301865Y-13233998D01*
X14597103Y-13472093D02*
X14587579Y-13462569D01*
X14587579Y-13462569D02*
X14568531Y-13433998D01*
X14568531Y-13433998D02*
X14559007Y-13414950D01*
X14559007Y-13414950D02*
X14549484Y-13386379D01*
X14549484Y-13386379D02*
X14539960Y-13338760D01*
X14539960Y-13338760D02*
X14539960Y-13300665D01*
X14539960Y-13300665D02*
X14549484Y-13253046D01*
X14549484Y-13253046D02*
X14559007Y-13224474D01*
X14559007Y-13224474D02*
X14568531Y-13205427D01*
X14568531Y-13205427D02*
X14587579Y-13176855D01*
X14587579Y-13176855D02*
X14597103Y-13167331D01*
X14778055Y-13395903D02*
X14663769Y-13395903D01*
X14720912Y-13395903D02*
X14720912Y-13195903D01*
X14720912Y-13195903D02*
X14701865Y-13224474D01*
X14701865Y-13224474D02*
X14682817Y-13243522D01*
X14682817Y-13243522D02*
X14663769Y-13253046D01*
X14949484Y-13195903D02*
X14911388Y-13195903D01*
X14911388Y-13195903D02*
X14892341Y-13205427D01*
X14892341Y-13205427D02*
X14882817Y-13214950D01*
X14882817Y-13214950D02*
X14863769Y-13243522D01*
X14863769Y-13243522D02*
X14854246Y-13281617D01*
X14854246Y-13281617D02*
X14854246Y-13357807D01*
X14854246Y-13357807D02*
X14863769Y-13376855D01*
X14863769Y-13376855D02*
X14873293Y-13386379D01*
X14873293Y-13386379D02*
X14892341Y-13395903D01*
X14892341Y-13395903D02*
X14930436Y-13395903D01*
X14930436Y-13395903D02*
X14949484Y-13386379D01*
X14949484Y-13386379D02*
X14959007Y-13376855D01*
X14959007Y-13376855D02*
X14968531Y-13357807D01*
X14968531Y-13357807D02*
X14968531Y-13310188D01*
X14968531Y-13310188D02*
X14959007Y-13291141D01*
X14959007Y-13291141D02*
X14949484Y-13281617D01*
X14949484Y-13281617D02*
X14930436Y-13272093D01*
X14930436Y-13272093D02*
X14892341Y-13272093D01*
X14892341Y-13272093D02*
X14873293Y-13281617D01*
X14873293Y-13281617D02*
X14863769Y-13291141D01*
X14863769Y-13291141D02*
X14854246Y-13310188D01*
X15082817Y-13281617D02*
X15063769Y-13272093D01*
X15063769Y-13272093D02*
X15054246Y-13262569D01*
X15054246Y-13262569D02*
X15044722Y-13243522D01*
X15044722Y-13243522D02*
X15044722Y-13233998D01*
X15044722Y-13233998D02*
X15054246Y-13214950D01*
X15054246Y-13214950D02*
X15063769Y-13205427D01*
X15063769Y-13205427D02*
X15082817Y-13195903D01*
X15082817Y-13195903D02*
X15120912Y-13195903D01*
X15120912Y-13195903D02*
X15139960Y-13205427D01*
X15139960Y-13205427D02*
X15149484Y-13214950D01*
X15149484Y-13214950D02*
X15159007Y-13233998D01*
X15159007Y-13233998D02*
X15159007Y-13243522D01*
X15159007Y-13243522D02*
X15149484Y-13262569D01*
X15149484Y-13262569D02*
X15139960Y-13272093D01*
X15139960Y-13272093D02*
X15120912Y-13281617D01*
X15120912Y-13281617D02*
X15082817Y-13281617D01*
X15082817Y-13281617D02*
X15063769Y-13291141D01*
X15063769Y-13291141D02*
X15054246Y-13300665D01*
X15054246Y-13300665D02*
X15044722Y-13319712D01*
X15044722Y-13319712D02*
X15044722Y-13357807D01*
X15044722Y-13357807D02*
X15054246Y-13376855D01*
X15054246Y-13376855D02*
X15063769Y-13386379D01*
X15063769Y-13386379D02*
X15082817Y-13395903D01*
X15082817Y-13395903D02*
X15120912Y-13395903D01*
X15120912Y-13395903D02*
X15139960Y-13386379D01*
X15139960Y-13386379D02*
X15149484Y-13376855D01*
X15149484Y-13376855D02*
X15159007Y-13357807D01*
X15159007Y-13357807D02*
X15159007Y-13319712D01*
X15159007Y-13319712D02*
X15149484Y-13300665D01*
X15149484Y-13300665D02*
X15139960Y-13291141D01*
X15139960Y-13291141D02*
X15120912Y-13281617D01*
X15397103Y-13395903D02*
X15397103Y-13195903D01*
X15482817Y-13395903D02*
X15482817Y-13291141D01*
X15482817Y-13291141D02*
X15473293Y-13272093D01*
X15473293Y-13272093D02*
X15454246Y-13262569D01*
X15454246Y-13262569D02*
X15425674Y-13262569D01*
X15425674Y-13262569D02*
X15406627Y-13272093D01*
X15406627Y-13272093D02*
X15397103Y-13281617D01*
X15606627Y-13395903D02*
X15587579Y-13386379D01*
X15587579Y-13386379D02*
X15578055Y-13376855D01*
X15578055Y-13376855D02*
X15568531Y-13357807D01*
X15568531Y-13357807D02*
X15568531Y-13300665D01*
X15568531Y-13300665D02*
X15578055Y-13281617D01*
X15578055Y-13281617D02*
X15587579Y-13272093D01*
X15587579Y-13272093D02*
X15606627Y-13262569D01*
X15606627Y-13262569D02*
X15635198Y-13262569D01*
X15635198Y-13262569D02*
X15654246Y-13272093D01*
X15654246Y-13272093D02*
X15663769Y-13281617D01*
X15663769Y-13281617D02*
X15673293Y-13300665D01*
X15673293Y-13300665D02*
X15673293Y-13357807D01*
X15673293Y-13357807D02*
X15663769Y-13376855D01*
X15663769Y-13376855D02*
X15654246Y-13386379D01*
X15654246Y-13386379D02*
X15635198Y-13395903D01*
X15635198Y-13395903D02*
X15606627Y-13395903D01*
X15787579Y-13395903D02*
X15768531Y-13386379D01*
X15768531Y-13386379D02*
X15759008Y-13367331D01*
X15759008Y-13367331D02*
X15759008Y-13195903D01*
X15939960Y-13386379D02*
X15920912Y-13395903D01*
X15920912Y-13395903D02*
X15882817Y-13395903D01*
X15882817Y-13395903D02*
X15863769Y-13386379D01*
X15863769Y-13386379D02*
X15854246Y-13367331D01*
X15854246Y-13367331D02*
X15854246Y-13291141D01*
X15854246Y-13291141D02*
X15863769Y-13272093D01*
X15863769Y-13272093D02*
X15882817Y-13262569D01*
X15882817Y-13262569D02*
X15920912Y-13262569D01*
X15920912Y-13262569D02*
X15939960Y-13272093D01*
X15939960Y-13272093D02*
X15949484Y-13291141D01*
X15949484Y-13291141D02*
X15949484Y-13310188D01*
X15949484Y-13310188D02*
X15854246Y-13329236D01*
X16025674Y-13386379D02*
X16044722Y-13395903D01*
X16044722Y-13395903D02*
X16082817Y-13395903D01*
X16082817Y-13395903D02*
X16101865Y-13386379D01*
X16101865Y-13386379D02*
X16111389Y-13367331D01*
X16111389Y-13367331D02*
X16111389Y-13357807D01*
X16111389Y-13357807D02*
X16101865Y-13338760D01*
X16101865Y-13338760D02*
X16082817Y-13329236D01*
X16082817Y-13329236D02*
X16054246Y-13329236D01*
X16054246Y-13329236D02*
X16035198Y-13319712D01*
X16035198Y-13319712D02*
X16025674Y-13300665D01*
X16025674Y-13300665D02*
X16025674Y-13291141D01*
X16025674Y-13291141D02*
X16035198Y-13272093D01*
X16035198Y-13272093D02*
X16054246Y-13262569D01*
X16054246Y-13262569D02*
X16082817Y-13262569D01*
X16082817Y-13262569D02*
X16101865Y-13272093D01*
X16178055Y-13472093D02*
X16187579Y-13462569D01*
X16187579Y-13462569D02*
X16206627Y-13433998D01*
X16206627Y-13433998D02*
X16216150Y-13414950D01*
X16216150Y-13414950D02*
X16225674Y-13386379D01*
X16225674Y-13386379D02*
X16235198Y-13338760D01*
X16235198Y-13338760D02*
X16235198Y-13300665D01*
X16235198Y-13300665D02*
X16225674Y-13253046D01*
X16225674Y-13253046D02*
X16216150Y-13224474D01*
X16216150Y-13224474D02*
X16206627Y-13205427D01*
X16206627Y-13205427D02*
X16187579Y-13176855D01*
X16187579Y-13176855D02*
X16178055Y-13167331D01*
D11*
X11022040Y-13568419D02*
G75*
G03*
X11022040Y-13568419I-35000J0D01*
G01*
D10*
X11320912Y-13459903D02*
X11339960Y-13459903D01*
X11339960Y-13459903D02*
X11359007Y-13469427D01*
X11359007Y-13469427D02*
X11368531Y-13478950D01*
X11368531Y-13478950D02*
X11378055Y-13497998D01*
X11378055Y-13497998D02*
X11387579Y-13536093D01*
X11387579Y-13536093D02*
X11387579Y-13583712D01*
X11387579Y-13583712D02*
X11378055Y-13621807D01*
X11378055Y-13621807D02*
X11368531Y-13640855D01*
X11368531Y-13640855D02*
X11359007Y-13650379D01*
X11359007Y-13650379D02*
X11339960Y-13659903D01*
X11339960Y-13659903D02*
X11320912Y-13659903D01*
X11320912Y-13659903D02*
X11301864Y-13650379D01*
X11301864Y-13650379D02*
X11292340Y-13640855D01*
X11292340Y-13640855D02*
X11282817Y-13621807D01*
X11282817Y-13621807D02*
X11273293Y-13583712D01*
X11273293Y-13583712D02*
X11273293Y-13536093D01*
X11273293Y-13536093D02*
X11282817Y-13497998D01*
X11282817Y-13497998D02*
X11292340Y-13478950D01*
X11292340Y-13478950D02*
X11301864Y-13469427D01*
X11301864Y-13469427D02*
X11320912Y-13459903D01*
X11473293Y-13640855D02*
X11482817Y-13650379D01*
X11482817Y-13650379D02*
X11473293Y-13659903D01*
X11473293Y-13659903D02*
X11463769Y-13650379D01*
X11463769Y-13650379D02*
X11473293Y-13640855D01*
X11473293Y-13640855D02*
X11473293Y-13659903D01*
X11549483Y-13459903D02*
X11682817Y-13459903D01*
X11682817Y-13459903D02*
X11597102Y-13659903D01*
X11797102Y-13459903D02*
X11816150Y-13459903D01*
X11816150Y-13459903D02*
X11835198Y-13469427D01*
X11835198Y-13469427D02*
X11844721Y-13478950D01*
X11844721Y-13478950D02*
X11854245Y-13497998D01*
X11854245Y-13497998D02*
X11863769Y-13536093D01*
X11863769Y-13536093D02*
X11863769Y-13583712D01*
X11863769Y-13583712D02*
X11854245Y-13621807D01*
X11854245Y-13621807D02*
X11844721Y-13640855D01*
X11844721Y-13640855D02*
X11835198Y-13650379D01*
X11835198Y-13650379D02*
X11816150Y-13659903D01*
X11816150Y-13659903D02*
X11797102Y-13659903D01*
X11797102Y-13659903D02*
X11778055Y-13650379D01*
X11778055Y-13650379D02*
X11768531Y-13640855D01*
X11768531Y-13640855D02*
X11759007Y-13621807D01*
X11759007Y-13621807D02*
X11749483Y-13583712D01*
X11749483Y-13583712D02*
X11749483Y-13536093D01*
X11749483Y-13536093D02*
X11759007Y-13497998D01*
X11759007Y-13497998D02*
X11768531Y-13478950D01*
X11768531Y-13478950D02*
X11778055Y-13469427D01*
X11778055Y-13469427D02*
X11797102Y-13459903D01*
X11987579Y-13459903D02*
X12006626Y-13459903D01*
X12006626Y-13459903D02*
X12025674Y-13469427D01*
X12025674Y-13469427D02*
X12035198Y-13478950D01*
X12035198Y-13478950D02*
X12044721Y-13497998D01*
X12044721Y-13497998D02*
X12054245Y-13536093D01*
X12054245Y-13536093D02*
X12054245Y-13583712D01*
X12054245Y-13583712D02*
X12044721Y-13621807D01*
X12044721Y-13621807D02*
X12035198Y-13640855D01*
X12035198Y-13640855D02*
X12025674Y-13650379D01*
X12025674Y-13650379D02*
X12006626Y-13659903D01*
X12006626Y-13659903D02*
X11987579Y-13659903D01*
X11987579Y-13659903D02*
X11968531Y-13650379D01*
X11968531Y-13650379D02*
X11959007Y-13640855D01*
X11959007Y-13640855D02*
X11949483Y-13621807D01*
X11949483Y-13621807D02*
X11939960Y-13583712D01*
X11939960Y-13583712D02*
X11939960Y-13536093D01*
X11939960Y-13536093D02*
X11949483Y-13497998D01*
X11949483Y-13497998D02*
X11959007Y-13478950D01*
X11959007Y-13478950D02*
X11968531Y-13469427D01*
X11968531Y-13469427D02*
X11987579Y-13459903D01*
X12139960Y-13659903D02*
X12139960Y-13526569D01*
X12139960Y-13545617D02*
X12149483Y-13536093D01*
X12149483Y-13536093D02*
X12168531Y-13526569D01*
X12168531Y-13526569D02*
X12197102Y-13526569D01*
X12197102Y-13526569D02*
X12216150Y-13536093D01*
X12216150Y-13536093D02*
X12225674Y-13555141D01*
X12225674Y-13555141D02*
X12225674Y-13659903D01*
X12225674Y-13555141D02*
X12235198Y-13536093D01*
X12235198Y-13536093D02*
X12254245Y-13526569D01*
X12254245Y-13526569D02*
X12282817Y-13526569D01*
X12282817Y-13526569D02*
X12301864Y-13536093D01*
X12301864Y-13536093D02*
X12311388Y-13555141D01*
X12311388Y-13555141D02*
X12311388Y-13659903D01*
X12406626Y-13659903D02*
X12406626Y-13526569D01*
X12406626Y-13545617D02*
X12416150Y-13536093D01*
X12416150Y-13536093D02*
X12435198Y-13526569D01*
X12435198Y-13526569D02*
X12463769Y-13526569D01*
X12463769Y-13526569D02*
X12482817Y-13536093D01*
X12482817Y-13536093D02*
X12492341Y-13555141D01*
X12492341Y-13555141D02*
X12492341Y-13659903D01*
X12492341Y-13555141D02*
X12501864Y-13536093D01*
X12501864Y-13536093D02*
X12520912Y-13526569D01*
X12520912Y-13526569D02*
X12549483Y-13526569D01*
X12549483Y-13526569D02*
X12568531Y-13536093D01*
X12568531Y-13536093D02*
X12578055Y-13555141D01*
X12578055Y-13555141D02*
X12578055Y-13659903D01*
X12968531Y-13450379D02*
X12797103Y-13707522D01*
X13225674Y-13459903D02*
X13244722Y-13459903D01*
X13244722Y-13459903D02*
X13263769Y-13469427D01*
X13263769Y-13469427D02*
X13273293Y-13478950D01*
X13273293Y-13478950D02*
X13282817Y-13497998D01*
X13282817Y-13497998D02*
X13292341Y-13536093D01*
X13292341Y-13536093D02*
X13292341Y-13583712D01*
X13292341Y-13583712D02*
X13282817Y-13621807D01*
X13282817Y-13621807D02*
X13273293Y-13640855D01*
X13273293Y-13640855D02*
X13263769Y-13650379D01*
X13263769Y-13650379D02*
X13244722Y-13659903D01*
X13244722Y-13659903D02*
X13225674Y-13659903D01*
X13225674Y-13659903D02*
X13206626Y-13650379D01*
X13206626Y-13650379D02*
X13197103Y-13640855D01*
X13197103Y-13640855D02*
X13187579Y-13621807D01*
X13187579Y-13621807D02*
X13178055Y-13583712D01*
X13178055Y-13583712D02*
X13178055Y-13536093D01*
X13178055Y-13536093D02*
X13187579Y-13497998D01*
X13187579Y-13497998D02*
X13197103Y-13478950D01*
X13197103Y-13478950D02*
X13206626Y-13469427D01*
X13206626Y-13469427D02*
X13225674Y-13459903D01*
X13378055Y-13640855D02*
X13387579Y-13650379D01*
X13387579Y-13650379D02*
X13378055Y-13659903D01*
X13378055Y-13659903D02*
X13368531Y-13650379D01*
X13368531Y-13650379D02*
X13378055Y-13640855D01*
X13378055Y-13640855D02*
X13378055Y-13659903D01*
X13511388Y-13459903D02*
X13530436Y-13459903D01*
X13530436Y-13459903D02*
X13549484Y-13469427D01*
X13549484Y-13469427D02*
X13559007Y-13478950D01*
X13559007Y-13478950D02*
X13568531Y-13497998D01*
X13568531Y-13497998D02*
X13578055Y-13536093D01*
X13578055Y-13536093D02*
X13578055Y-13583712D01*
X13578055Y-13583712D02*
X13568531Y-13621807D01*
X13568531Y-13621807D02*
X13559007Y-13640855D01*
X13559007Y-13640855D02*
X13549484Y-13650379D01*
X13549484Y-13650379D02*
X13530436Y-13659903D01*
X13530436Y-13659903D02*
X13511388Y-13659903D01*
X13511388Y-13659903D02*
X13492341Y-13650379D01*
X13492341Y-13650379D02*
X13482817Y-13640855D01*
X13482817Y-13640855D02*
X13473293Y-13621807D01*
X13473293Y-13621807D02*
X13463769Y-13583712D01*
X13463769Y-13583712D02*
X13463769Y-13536093D01*
X13463769Y-13536093D02*
X13473293Y-13497998D01*
X13473293Y-13497998D02*
X13482817Y-13478950D01*
X13482817Y-13478950D02*
X13492341Y-13469427D01*
X13492341Y-13469427D02*
X13511388Y-13459903D01*
X13654245Y-13478950D02*
X13663769Y-13469427D01*
X13663769Y-13469427D02*
X13682817Y-13459903D01*
X13682817Y-13459903D02*
X13730436Y-13459903D01*
X13730436Y-13459903D02*
X13749484Y-13469427D01*
X13749484Y-13469427D02*
X13759007Y-13478950D01*
X13759007Y-13478950D02*
X13768531Y-13497998D01*
X13768531Y-13497998D02*
X13768531Y-13517046D01*
X13768531Y-13517046D02*
X13759007Y-13545617D01*
X13759007Y-13545617D02*
X13644722Y-13659903D01*
X13644722Y-13659903D02*
X13768531Y-13659903D01*
X13835198Y-13459903D02*
X13968531Y-13459903D01*
X13968531Y-13459903D02*
X13882817Y-13659903D01*
X14130436Y-13459903D02*
X14092341Y-13459903D01*
X14092341Y-13459903D02*
X14073293Y-13469427D01*
X14073293Y-13469427D02*
X14063769Y-13478950D01*
X14063769Y-13478950D02*
X14044722Y-13507522D01*
X14044722Y-13507522D02*
X14035198Y-13545617D01*
X14035198Y-13545617D02*
X14035198Y-13621807D01*
X14035198Y-13621807D02*
X14044722Y-13640855D01*
X14044722Y-13640855D02*
X14054245Y-13650379D01*
X14054245Y-13650379D02*
X14073293Y-13659903D01*
X14073293Y-13659903D02*
X14111388Y-13659903D01*
X14111388Y-13659903D02*
X14130436Y-13650379D01*
X14130436Y-13650379D02*
X14139960Y-13640855D01*
X14139960Y-13640855D02*
X14149484Y-13621807D01*
X14149484Y-13621807D02*
X14149484Y-13574188D01*
X14149484Y-13574188D02*
X14139960Y-13555141D01*
X14139960Y-13555141D02*
X14130436Y-13545617D01*
X14130436Y-13545617D02*
X14111388Y-13536093D01*
X14111388Y-13536093D02*
X14073293Y-13536093D01*
X14073293Y-13536093D02*
X14054245Y-13545617D01*
X14054245Y-13545617D02*
X14044722Y-13555141D01*
X14044722Y-13555141D02*
X14035198Y-13574188D01*
X14225674Y-13459903D02*
X14225674Y-13497998D01*
X14301865Y-13459903D02*
X14301865Y-13497998D01*
X14597103Y-13736093D02*
X14587579Y-13726569D01*
X14587579Y-13726569D02*
X14568531Y-13697998D01*
X14568531Y-13697998D02*
X14559007Y-13678950D01*
X14559007Y-13678950D02*
X14549484Y-13650379D01*
X14549484Y-13650379D02*
X14539960Y-13602760D01*
X14539960Y-13602760D02*
X14539960Y-13564665D01*
X14539960Y-13564665D02*
X14549484Y-13517046D01*
X14549484Y-13517046D02*
X14559007Y-13488474D01*
X14559007Y-13488474D02*
X14568531Y-13469427D01*
X14568531Y-13469427D02*
X14587579Y-13440855D01*
X14587579Y-13440855D02*
X14597103Y-13431331D01*
X14759007Y-13459903D02*
X14720912Y-13459903D01*
X14720912Y-13459903D02*
X14701865Y-13469427D01*
X14701865Y-13469427D02*
X14692341Y-13478950D01*
X14692341Y-13478950D02*
X14673293Y-13507522D01*
X14673293Y-13507522D02*
X14663769Y-13545617D01*
X14663769Y-13545617D02*
X14663769Y-13621807D01*
X14663769Y-13621807D02*
X14673293Y-13640855D01*
X14673293Y-13640855D02*
X14682817Y-13650379D01*
X14682817Y-13650379D02*
X14701865Y-13659903D01*
X14701865Y-13659903D02*
X14739960Y-13659903D01*
X14739960Y-13659903D02*
X14759007Y-13650379D01*
X14759007Y-13650379D02*
X14768531Y-13640855D01*
X14768531Y-13640855D02*
X14778055Y-13621807D01*
X14778055Y-13621807D02*
X14778055Y-13574188D01*
X14778055Y-13574188D02*
X14768531Y-13555141D01*
X14768531Y-13555141D02*
X14759007Y-13545617D01*
X14759007Y-13545617D02*
X14739960Y-13536093D01*
X14739960Y-13536093D02*
X14701865Y-13536093D01*
X14701865Y-13536093D02*
X14682817Y-13545617D01*
X14682817Y-13545617D02*
X14673293Y-13555141D01*
X14673293Y-13555141D02*
X14663769Y-13574188D01*
X14949484Y-13459903D02*
X14911388Y-13459903D01*
X14911388Y-13459903D02*
X14892341Y-13469427D01*
X14892341Y-13469427D02*
X14882817Y-13478950D01*
X14882817Y-13478950D02*
X14863769Y-13507522D01*
X14863769Y-13507522D02*
X14854246Y-13545617D01*
X14854246Y-13545617D02*
X14854246Y-13621807D01*
X14854246Y-13621807D02*
X14863769Y-13640855D01*
X14863769Y-13640855D02*
X14873293Y-13650379D01*
X14873293Y-13650379D02*
X14892341Y-13659903D01*
X14892341Y-13659903D02*
X14930436Y-13659903D01*
X14930436Y-13659903D02*
X14949484Y-13650379D01*
X14949484Y-13650379D02*
X14959007Y-13640855D01*
X14959007Y-13640855D02*
X14968531Y-13621807D01*
X14968531Y-13621807D02*
X14968531Y-13574188D01*
X14968531Y-13574188D02*
X14959007Y-13555141D01*
X14959007Y-13555141D02*
X14949484Y-13545617D01*
X14949484Y-13545617D02*
X14930436Y-13536093D01*
X14930436Y-13536093D02*
X14892341Y-13536093D01*
X14892341Y-13536093D02*
X14873293Y-13545617D01*
X14873293Y-13545617D02*
X14863769Y-13555141D01*
X14863769Y-13555141D02*
X14854246Y-13574188D01*
X15206627Y-13659903D02*
X15206627Y-13459903D01*
X15292341Y-13659903D02*
X15292341Y-13555141D01*
X15292341Y-13555141D02*
X15282817Y-13536093D01*
X15282817Y-13536093D02*
X15263769Y-13526569D01*
X15263769Y-13526569D02*
X15235198Y-13526569D01*
X15235198Y-13526569D02*
X15216150Y-13536093D01*
X15216150Y-13536093D02*
X15206627Y-13545617D01*
X15416150Y-13659903D02*
X15397103Y-13650379D01*
X15397103Y-13650379D02*
X15387579Y-13640855D01*
X15387579Y-13640855D02*
X15378055Y-13621807D01*
X15378055Y-13621807D02*
X15378055Y-13564665D01*
X15378055Y-13564665D02*
X15387579Y-13545617D01*
X15387579Y-13545617D02*
X15397103Y-13536093D01*
X15397103Y-13536093D02*
X15416150Y-13526569D01*
X15416150Y-13526569D02*
X15444722Y-13526569D01*
X15444722Y-13526569D02*
X15463769Y-13536093D01*
X15463769Y-13536093D02*
X15473293Y-13545617D01*
X15473293Y-13545617D02*
X15482817Y-13564665D01*
X15482817Y-13564665D02*
X15482817Y-13621807D01*
X15482817Y-13621807D02*
X15473293Y-13640855D01*
X15473293Y-13640855D02*
X15463769Y-13650379D01*
X15463769Y-13650379D02*
X15444722Y-13659903D01*
X15444722Y-13659903D02*
X15416150Y-13659903D01*
X15597103Y-13659903D02*
X15578055Y-13650379D01*
X15578055Y-13650379D02*
X15568531Y-13631331D01*
X15568531Y-13631331D02*
X15568531Y-13459903D01*
X15749484Y-13650379D02*
X15730436Y-13659903D01*
X15730436Y-13659903D02*
X15692341Y-13659903D01*
X15692341Y-13659903D02*
X15673293Y-13650379D01*
X15673293Y-13650379D02*
X15663769Y-13631331D01*
X15663769Y-13631331D02*
X15663769Y-13555141D01*
X15663769Y-13555141D02*
X15673293Y-13536093D01*
X15673293Y-13536093D02*
X15692341Y-13526569D01*
X15692341Y-13526569D02*
X15730436Y-13526569D01*
X15730436Y-13526569D02*
X15749484Y-13536093D01*
X15749484Y-13536093D02*
X15759008Y-13555141D01*
X15759008Y-13555141D02*
X15759008Y-13574188D01*
X15759008Y-13574188D02*
X15663769Y-13593236D01*
X15835198Y-13650379D02*
X15854246Y-13659903D01*
X15854246Y-13659903D02*
X15892341Y-13659903D01*
X15892341Y-13659903D02*
X15911389Y-13650379D01*
X15911389Y-13650379D02*
X15920912Y-13631331D01*
X15920912Y-13631331D02*
X15920912Y-13621807D01*
X15920912Y-13621807D02*
X15911389Y-13602760D01*
X15911389Y-13602760D02*
X15892341Y-13593236D01*
X15892341Y-13593236D02*
X15863769Y-13593236D01*
X15863769Y-13593236D02*
X15844722Y-13583712D01*
X15844722Y-13583712D02*
X15835198Y-13564665D01*
X15835198Y-13564665D02*
X15835198Y-13555141D01*
X15835198Y-13555141D02*
X15844722Y-13536093D01*
X15844722Y-13536093D02*
X15863769Y-13526569D01*
X15863769Y-13526569D02*
X15892341Y-13526569D01*
X15892341Y-13526569D02*
X15911389Y-13536093D01*
X15987579Y-13736093D02*
X15997103Y-13726569D01*
X15997103Y-13726569D02*
X16016150Y-13697998D01*
X16016150Y-13697998D02*
X16025674Y-13678950D01*
X16025674Y-13678950D02*
X16035198Y-13650379D01*
X16035198Y-13650379D02*
X16044722Y-13602760D01*
X16044722Y-13602760D02*
X16044722Y-13564665D01*
X16044722Y-13564665D02*
X16035198Y-13517046D01*
X16035198Y-13517046D02*
X16025674Y-13488474D01*
X16025674Y-13488474D02*
X16016150Y-13469427D01*
X16016150Y-13469427D02*
X15997103Y-13440855D01*
X15997103Y-13440855D02*
X15987579Y-13431331D01*
D11*
X10983940Y-13794319D02*
X10983940Y-13870519D01*
X10945840Y-13832419D02*
X11022040Y-13832419D01*
D10*
X11320912Y-13723903D02*
X11339960Y-13723903D01*
X11339960Y-13723903D02*
X11359007Y-13733427D01*
X11359007Y-13733427D02*
X11368531Y-13742950D01*
X11368531Y-13742950D02*
X11378055Y-13761998D01*
X11378055Y-13761998D02*
X11387579Y-13800093D01*
X11387579Y-13800093D02*
X11387579Y-13847712D01*
X11387579Y-13847712D02*
X11378055Y-13885807D01*
X11378055Y-13885807D02*
X11368531Y-13904855D01*
X11368531Y-13904855D02*
X11359007Y-13914379D01*
X11359007Y-13914379D02*
X11339960Y-13923903D01*
X11339960Y-13923903D02*
X11320912Y-13923903D01*
X11320912Y-13923903D02*
X11301864Y-13914379D01*
X11301864Y-13914379D02*
X11292340Y-13904855D01*
X11292340Y-13904855D02*
X11282817Y-13885807D01*
X11282817Y-13885807D02*
X11273293Y-13847712D01*
X11273293Y-13847712D02*
X11273293Y-13800093D01*
X11273293Y-13800093D02*
X11282817Y-13761998D01*
X11282817Y-13761998D02*
X11292340Y-13742950D01*
X11292340Y-13742950D02*
X11301864Y-13733427D01*
X11301864Y-13733427D02*
X11320912Y-13723903D01*
X11473293Y-13904855D02*
X11482817Y-13914379D01*
X11482817Y-13914379D02*
X11473293Y-13923903D01*
X11473293Y-13923903D02*
X11463769Y-13914379D01*
X11463769Y-13914379D02*
X11473293Y-13904855D01*
X11473293Y-13904855D02*
X11473293Y-13923903D01*
X11549483Y-13723903D02*
X11682817Y-13723903D01*
X11682817Y-13723903D02*
X11597102Y-13923903D01*
X11844721Y-13723903D02*
X11806626Y-13723903D01*
X11806626Y-13723903D02*
X11787579Y-13733427D01*
X11787579Y-13733427D02*
X11778055Y-13742950D01*
X11778055Y-13742950D02*
X11759007Y-13771522D01*
X11759007Y-13771522D02*
X11749483Y-13809617D01*
X11749483Y-13809617D02*
X11749483Y-13885807D01*
X11749483Y-13885807D02*
X11759007Y-13904855D01*
X11759007Y-13904855D02*
X11768531Y-13914379D01*
X11768531Y-13914379D02*
X11787579Y-13923903D01*
X11787579Y-13923903D02*
X11825674Y-13923903D01*
X11825674Y-13923903D02*
X11844721Y-13914379D01*
X11844721Y-13914379D02*
X11854245Y-13904855D01*
X11854245Y-13904855D02*
X11863769Y-13885807D01*
X11863769Y-13885807D02*
X11863769Y-13838188D01*
X11863769Y-13838188D02*
X11854245Y-13819141D01*
X11854245Y-13819141D02*
X11844721Y-13809617D01*
X11844721Y-13809617D02*
X11825674Y-13800093D01*
X11825674Y-13800093D02*
X11787579Y-13800093D01*
X11787579Y-13800093D02*
X11768531Y-13809617D01*
X11768531Y-13809617D02*
X11759007Y-13819141D01*
X11759007Y-13819141D02*
X11749483Y-13838188D01*
X11939960Y-13742950D02*
X11949483Y-13733427D01*
X11949483Y-13733427D02*
X11968531Y-13723903D01*
X11968531Y-13723903D02*
X12016150Y-13723903D01*
X12016150Y-13723903D02*
X12035198Y-13733427D01*
X12035198Y-13733427D02*
X12044721Y-13742950D01*
X12044721Y-13742950D02*
X12054245Y-13761998D01*
X12054245Y-13761998D02*
X12054245Y-13781046D01*
X12054245Y-13781046D02*
X12044721Y-13809617D01*
X12044721Y-13809617D02*
X11930436Y-13923903D01*
X11930436Y-13923903D02*
X12054245Y-13923903D01*
X12139960Y-13923903D02*
X12139960Y-13790569D01*
X12139960Y-13809617D02*
X12149483Y-13800093D01*
X12149483Y-13800093D02*
X12168531Y-13790569D01*
X12168531Y-13790569D02*
X12197102Y-13790569D01*
X12197102Y-13790569D02*
X12216150Y-13800093D01*
X12216150Y-13800093D02*
X12225674Y-13819141D01*
X12225674Y-13819141D02*
X12225674Y-13923903D01*
X12225674Y-13819141D02*
X12235198Y-13800093D01*
X12235198Y-13800093D02*
X12254245Y-13790569D01*
X12254245Y-13790569D02*
X12282817Y-13790569D01*
X12282817Y-13790569D02*
X12301864Y-13800093D01*
X12301864Y-13800093D02*
X12311388Y-13819141D01*
X12311388Y-13819141D02*
X12311388Y-13923903D01*
X12406626Y-13923903D02*
X12406626Y-13790569D01*
X12406626Y-13809617D02*
X12416150Y-13800093D01*
X12416150Y-13800093D02*
X12435198Y-13790569D01*
X12435198Y-13790569D02*
X12463769Y-13790569D01*
X12463769Y-13790569D02*
X12482817Y-13800093D01*
X12482817Y-13800093D02*
X12492341Y-13819141D01*
X12492341Y-13819141D02*
X12492341Y-13923903D01*
X12492341Y-13819141D02*
X12501864Y-13800093D01*
X12501864Y-13800093D02*
X12520912Y-13790569D01*
X12520912Y-13790569D02*
X12549483Y-13790569D01*
X12549483Y-13790569D02*
X12568531Y-13800093D01*
X12568531Y-13800093D02*
X12578055Y-13819141D01*
X12578055Y-13819141D02*
X12578055Y-13923903D01*
X12968531Y-13714379D02*
X12797103Y-13971522D01*
X13225674Y-13723903D02*
X13244722Y-13723903D01*
X13244722Y-13723903D02*
X13263769Y-13733427D01*
X13263769Y-13733427D02*
X13273293Y-13742950D01*
X13273293Y-13742950D02*
X13282817Y-13761998D01*
X13282817Y-13761998D02*
X13292341Y-13800093D01*
X13292341Y-13800093D02*
X13292341Y-13847712D01*
X13292341Y-13847712D02*
X13282817Y-13885807D01*
X13282817Y-13885807D02*
X13273293Y-13904855D01*
X13273293Y-13904855D02*
X13263769Y-13914379D01*
X13263769Y-13914379D02*
X13244722Y-13923903D01*
X13244722Y-13923903D02*
X13225674Y-13923903D01*
X13225674Y-13923903D02*
X13206626Y-13914379D01*
X13206626Y-13914379D02*
X13197103Y-13904855D01*
X13197103Y-13904855D02*
X13187579Y-13885807D01*
X13187579Y-13885807D02*
X13178055Y-13847712D01*
X13178055Y-13847712D02*
X13178055Y-13800093D01*
X13178055Y-13800093D02*
X13187579Y-13761998D01*
X13187579Y-13761998D02*
X13197103Y-13742950D01*
X13197103Y-13742950D02*
X13206626Y-13733427D01*
X13206626Y-13733427D02*
X13225674Y-13723903D01*
X13378055Y-13904855D02*
X13387579Y-13914379D01*
X13387579Y-13914379D02*
X13378055Y-13923903D01*
X13378055Y-13923903D02*
X13368531Y-13914379D01*
X13368531Y-13914379D02*
X13378055Y-13904855D01*
X13378055Y-13904855D02*
X13378055Y-13923903D01*
X13511388Y-13723903D02*
X13530436Y-13723903D01*
X13530436Y-13723903D02*
X13549484Y-13733427D01*
X13549484Y-13733427D02*
X13559007Y-13742950D01*
X13559007Y-13742950D02*
X13568531Y-13761998D01*
X13568531Y-13761998D02*
X13578055Y-13800093D01*
X13578055Y-13800093D02*
X13578055Y-13847712D01*
X13578055Y-13847712D02*
X13568531Y-13885807D01*
X13568531Y-13885807D02*
X13559007Y-13904855D01*
X13559007Y-13904855D02*
X13549484Y-13914379D01*
X13549484Y-13914379D02*
X13530436Y-13923903D01*
X13530436Y-13923903D02*
X13511388Y-13923903D01*
X13511388Y-13923903D02*
X13492341Y-13914379D01*
X13492341Y-13914379D02*
X13482817Y-13904855D01*
X13482817Y-13904855D02*
X13473293Y-13885807D01*
X13473293Y-13885807D02*
X13463769Y-13847712D01*
X13463769Y-13847712D02*
X13463769Y-13800093D01*
X13463769Y-13800093D02*
X13473293Y-13761998D01*
X13473293Y-13761998D02*
X13482817Y-13742950D01*
X13482817Y-13742950D02*
X13492341Y-13733427D01*
X13492341Y-13733427D02*
X13511388Y-13723903D01*
X13644722Y-13723903D02*
X13768531Y-13723903D01*
X13768531Y-13723903D02*
X13701864Y-13800093D01*
X13701864Y-13800093D02*
X13730436Y-13800093D01*
X13730436Y-13800093D02*
X13749484Y-13809617D01*
X13749484Y-13809617D02*
X13759007Y-13819141D01*
X13759007Y-13819141D02*
X13768531Y-13838188D01*
X13768531Y-13838188D02*
X13768531Y-13885807D01*
X13768531Y-13885807D02*
X13759007Y-13904855D01*
X13759007Y-13904855D02*
X13749484Y-13914379D01*
X13749484Y-13914379D02*
X13730436Y-13923903D01*
X13730436Y-13923903D02*
X13673293Y-13923903D01*
X13673293Y-13923903D02*
X13654245Y-13914379D01*
X13654245Y-13914379D02*
X13644722Y-13904855D01*
X13892341Y-13723903D02*
X13911388Y-13723903D01*
X13911388Y-13723903D02*
X13930436Y-13733427D01*
X13930436Y-13733427D02*
X13939960Y-13742950D01*
X13939960Y-13742950D02*
X13949484Y-13761998D01*
X13949484Y-13761998D02*
X13959007Y-13800093D01*
X13959007Y-13800093D02*
X13959007Y-13847712D01*
X13959007Y-13847712D02*
X13949484Y-13885807D01*
X13949484Y-13885807D02*
X13939960Y-13904855D01*
X13939960Y-13904855D02*
X13930436Y-13914379D01*
X13930436Y-13914379D02*
X13911388Y-13923903D01*
X13911388Y-13923903D02*
X13892341Y-13923903D01*
X13892341Y-13923903D02*
X13873293Y-13914379D01*
X13873293Y-13914379D02*
X13863769Y-13904855D01*
X13863769Y-13904855D02*
X13854245Y-13885807D01*
X13854245Y-13885807D02*
X13844722Y-13847712D01*
X13844722Y-13847712D02*
X13844722Y-13800093D01*
X13844722Y-13800093D02*
X13854245Y-13761998D01*
X13854245Y-13761998D02*
X13863769Y-13742950D01*
X13863769Y-13742950D02*
X13873293Y-13733427D01*
X13873293Y-13733427D02*
X13892341Y-13723903D01*
X14082817Y-13723903D02*
X14101865Y-13723903D01*
X14101865Y-13723903D02*
X14120912Y-13733427D01*
X14120912Y-13733427D02*
X14130436Y-13742950D01*
X14130436Y-13742950D02*
X14139960Y-13761998D01*
X14139960Y-13761998D02*
X14149484Y-13800093D01*
X14149484Y-13800093D02*
X14149484Y-13847712D01*
X14149484Y-13847712D02*
X14139960Y-13885807D01*
X14139960Y-13885807D02*
X14130436Y-13904855D01*
X14130436Y-13904855D02*
X14120912Y-13914379D01*
X14120912Y-13914379D02*
X14101865Y-13923903D01*
X14101865Y-13923903D02*
X14082817Y-13923903D01*
X14082817Y-13923903D02*
X14063769Y-13914379D01*
X14063769Y-13914379D02*
X14054245Y-13904855D01*
X14054245Y-13904855D02*
X14044722Y-13885807D01*
X14044722Y-13885807D02*
X14035198Y-13847712D01*
X14035198Y-13847712D02*
X14035198Y-13800093D01*
X14035198Y-13800093D02*
X14044722Y-13761998D01*
X14044722Y-13761998D02*
X14054245Y-13742950D01*
X14054245Y-13742950D02*
X14063769Y-13733427D01*
X14063769Y-13733427D02*
X14082817Y-13723903D01*
X14225674Y-13723903D02*
X14225674Y-13761998D01*
X14301865Y-13723903D02*
X14301865Y-13761998D01*
X14597103Y-14000093D02*
X14587579Y-13990569D01*
X14587579Y-13990569D02*
X14568531Y-13961998D01*
X14568531Y-13961998D02*
X14559007Y-13942950D01*
X14559007Y-13942950D02*
X14549484Y-13914379D01*
X14549484Y-13914379D02*
X14539960Y-13866760D01*
X14539960Y-13866760D02*
X14539960Y-13828665D01*
X14539960Y-13828665D02*
X14549484Y-13781046D01*
X14549484Y-13781046D02*
X14559007Y-13752474D01*
X14559007Y-13752474D02*
X14568531Y-13733427D01*
X14568531Y-13733427D02*
X14587579Y-13704855D01*
X14587579Y-13704855D02*
X14597103Y-13695331D01*
X14663769Y-13742950D02*
X14673293Y-13733427D01*
X14673293Y-13733427D02*
X14692341Y-13723903D01*
X14692341Y-13723903D02*
X14739960Y-13723903D01*
X14739960Y-13723903D02*
X14759007Y-13733427D01*
X14759007Y-13733427D02*
X14768531Y-13742950D01*
X14768531Y-13742950D02*
X14778055Y-13761998D01*
X14778055Y-13761998D02*
X14778055Y-13781046D01*
X14778055Y-13781046D02*
X14768531Y-13809617D01*
X14768531Y-13809617D02*
X14654246Y-13923903D01*
X14654246Y-13923903D02*
X14778055Y-13923903D01*
X14854246Y-13742950D02*
X14863769Y-13733427D01*
X14863769Y-13733427D02*
X14882817Y-13723903D01*
X14882817Y-13723903D02*
X14930436Y-13723903D01*
X14930436Y-13723903D02*
X14949484Y-13733427D01*
X14949484Y-13733427D02*
X14959007Y-13742950D01*
X14959007Y-13742950D02*
X14968531Y-13761998D01*
X14968531Y-13761998D02*
X14968531Y-13781046D01*
X14968531Y-13781046D02*
X14959007Y-13809617D01*
X14959007Y-13809617D02*
X14844722Y-13923903D01*
X14844722Y-13923903D02*
X14968531Y-13923903D01*
X15206627Y-13923903D02*
X15206627Y-13723903D01*
X15292341Y-13923903D02*
X15292341Y-13819141D01*
X15292341Y-13819141D02*
X15282817Y-13800093D01*
X15282817Y-13800093D02*
X15263769Y-13790569D01*
X15263769Y-13790569D02*
X15235198Y-13790569D01*
X15235198Y-13790569D02*
X15216150Y-13800093D01*
X15216150Y-13800093D02*
X15206627Y-13809617D01*
X15416150Y-13923903D02*
X15397103Y-13914379D01*
X15397103Y-13914379D02*
X15387579Y-13904855D01*
X15387579Y-13904855D02*
X15378055Y-13885807D01*
X15378055Y-13885807D02*
X15378055Y-13828665D01*
X15378055Y-13828665D02*
X15387579Y-13809617D01*
X15387579Y-13809617D02*
X15397103Y-13800093D01*
X15397103Y-13800093D02*
X15416150Y-13790569D01*
X15416150Y-13790569D02*
X15444722Y-13790569D01*
X15444722Y-13790569D02*
X15463769Y-13800093D01*
X15463769Y-13800093D02*
X15473293Y-13809617D01*
X15473293Y-13809617D02*
X15482817Y-13828665D01*
X15482817Y-13828665D02*
X15482817Y-13885807D01*
X15482817Y-13885807D02*
X15473293Y-13904855D01*
X15473293Y-13904855D02*
X15463769Y-13914379D01*
X15463769Y-13914379D02*
X15444722Y-13923903D01*
X15444722Y-13923903D02*
X15416150Y-13923903D01*
X15597103Y-13923903D02*
X15578055Y-13914379D01*
X15578055Y-13914379D02*
X15568531Y-13895331D01*
X15568531Y-13895331D02*
X15568531Y-13723903D01*
X15749484Y-13914379D02*
X15730436Y-13923903D01*
X15730436Y-13923903D02*
X15692341Y-13923903D01*
X15692341Y-13923903D02*
X15673293Y-13914379D01*
X15673293Y-13914379D02*
X15663769Y-13895331D01*
X15663769Y-13895331D02*
X15663769Y-13819141D01*
X15663769Y-13819141D02*
X15673293Y-13800093D01*
X15673293Y-13800093D02*
X15692341Y-13790569D01*
X15692341Y-13790569D02*
X15730436Y-13790569D01*
X15730436Y-13790569D02*
X15749484Y-13800093D01*
X15749484Y-13800093D02*
X15759008Y-13819141D01*
X15759008Y-13819141D02*
X15759008Y-13838188D01*
X15759008Y-13838188D02*
X15663769Y-13857236D01*
X15835198Y-13914379D02*
X15854246Y-13923903D01*
X15854246Y-13923903D02*
X15892341Y-13923903D01*
X15892341Y-13923903D02*
X15911389Y-13914379D01*
X15911389Y-13914379D02*
X15920912Y-13895331D01*
X15920912Y-13895331D02*
X15920912Y-13885807D01*
X15920912Y-13885807D02*
X15911389Y-13866760D01*
X15911389Y-13866760D02*
X15892341Y-13857236D01*
X15892341Y-13857236D02*
X15863769Y-13857236D01*
X15863769Y-13857236D02*
X15844722Y-13847712D01*
X15844722Y-13847712D02*
X15835198Y-13828665D01*
X15835198Y-13828665D02*
X15835198Y-13819141D01*
X15835198Y-13819141D02*
X15844722Y-13800093D01*
X15844722Y-13800093D02*
X15863769Y-13790569D01*
X15863769Y-13790569D02*
X15892341Y-13790569D01*
X15892341Y-13790569D02*
X15911389Y-13800093D01*
X15987579Y-14000093D02*
X15997103Y-13990569D01*
X15997103Y-13990569D02*
X16016150Y-13961998D01*
X16016150Y-13961998D02*
X16025674Y-13942950D01*
X16025674Y-13942950D02*
X16035198Y-13914379D01*
X16035198Y-13914379D02*
X16044722Y-13866760D01*
X16044722Y-13866760D02*
X16044722Y-13828665D01*
X16044722Y-13828665D02*
X16035198Y-13781046D01*
X16035198Y-13781046D02*
X16025674Y-13752474D01*
X16025674Y-13752474D02*
X16016150Y-13733427D01*
X16016150Y-13733427D02*
X15997103Y-13704855D01*
X15997103Y-13704855D02*
X15987579Y-13695331D01*
D11*
X11010324Y-14124703D02*
X11010324Y-14068134D01*
X10953755Y-14068134D01*
X10953755Y-14124703D01*
X11010324Y-14124703D01*
D10*
X11320912Y-13987903D02*
X11339960Y-13987903D01*
X11339960Y-13987903D02*
X11359007Y-13997427D01*
X11359007Y-13997427D02*
X11368531Y-14006950D01*
X11368531Y-14006950D02*
X11378055Y-14025998D01*
X11378055Y-14025998D02*
X11387579Y-14064093D01*
X11387579Y-14064093D02*
X11387579Y-14111712D01*
X11387579Y-14111712D02*
X11378055Y-14149807D01*
X11378055Y-14149807D02*
X11368531Y-14168855D01*
X11368531Y-14168855D02*
X11359007Y-14178379D01*
X11359007Y-14178379D02*
X11339960Y-14187903D01*
X11339960Y-14187903D02*
X11320912Y-14187903D01*
X11320912Y-14187903D02*
X11301864Y-14178379D01*
X11301864Y-14178379D02*
X11292340Y-14168855D01*
X11292340Y-14168855D02*
X11282817Y-14149807D01*
X11282817Y-14149807D02*
X11273293Y-14111712D01*
X11273293Y-14111712D02*
X11273293Y-14064093D01*
X11273293Y-14064093D02*
X11282817Y-14025998D01*
X11282817Y-14025998D02*
X11292340Y-14006950D01*
X11292340Y-14006950D02*
X11301864Y-13997427D01*
X11301864Y-13997427D02*
X11320912Y-13987903D01*
X11473293Y-14168855D02*
X11482817Y-14178379D01*
X11482817Y-14178379D02*
X11473293Y-14187903D01*
X11473293Y-14187903D02*
X11463769Y-14178379D01*
X11463769Y-14178379D02*
X11473293Y-14168855D01*
X11473293Y-14168855D02*
X11473293Y-14187903D01*
X11597102Y-14073617D02*
X11578055Y-14064093D01*
X11578055Y-14064093D02*
X11568531Y-14054569D01*
X11568531Y-14054569D02*
X11559007Y-14035522D01*
X11559007Y-14035522D02*
X11559007Y-14025998D01*
X11559007Y-14025998D02*
X11568531Y-14006950D01*
X11568531Y-14006950D02*
X11578055Y-13997427D01*
X11578055Y-13997427D02*
X11597102Y-13987903D01*
X11597102Y-13987903D02*
X11635198Y-13987903D01*
X11635198Y-13987903D02*
X11654245Y-13997427D01*
X11654245Y-13997427D02*
X11663769Y-14006950D01*
X11663769Y-14006950D02*
X11673293Y-14025998D01*
X11673293Y-14025998D02*
X11673293Y-14035522D01*
X11673293Y-14035522D02*
X11663769Y-14054569D01*
X11663769Y-14054569D02*
X11654245Y-14064093D01*
X11654245Y-14064093D02*
X11635198Y-14073617D01*
X11635198Y-14073617D02*
X11597102Y-14073617D01*
X11597102Y-14073617D02*
X11578055Y-14083141D01*
X11578055Y-14083141D02*
X11568531Y-14092665D01*
X11568531Y-14092665D02*
X11559007Y-14111712D01*
X11559007Y-14111712D02*
X11559007Y-14149807D01*
X11559007Y-14149807D02*
X11568531Y-14168855D01*
X11568531Y-14168855D02*
X11578055Y-14178379D01*
X11578055Y-14178379D02*
X11597102Y-14187903D01*
X11597102Y-14187903D02*
X11635198Y-14187903D01*
X11635198Y-14187903D02*
X11654245Y-14178379D01*
X11654245Y-14178379D02*
X11663769Y-14168855D01*
X11663769Y-14168855D02*
X11673293Y-14149807D01*
X11673293Y-14149807D02*
X11673293Y-14111712D01*
X11673293Y-14111712D02*
X11663769Y-14092665D01*
X11663769Y-14092665D02*
X11654245Y-14083141D01*
X11654245Y-14083141D02*
X11635198Y-14073617D01*
X11797102Y-13987903D02*
X11816150Y-13987903D01*
X11816150Y-13987903D02*
X11835198Y-13997427D01*
X11835198Y-13997427D02*
X11844721Y-14006950D01*
X11844721Y-14006950D02*
X11854245Y-14025998D01*
X11854245Y-14025998D02*
X11863769Y-14064093D01*
X11863769Y-14064093D02*
X11863769Y-14111712D01*
X11863769Y-14111712D02*
X11854245Y-14149807D01*
X11854245Y-14149807D02*
X11844721Y-14168855D01*
X11844721Y-14168855D02*
X11835198Y-14178379D01*
X11835198Y-14178379D02*
X11816150Y-14187903D01*
X11816150Y-14187903D02*
X11797102Y-14187903D01*
X11797102Y-14187903D02*
X11778055Y-14178379D01*
X11778055Y-14178379D02*
X11768531Y-14168855D01*
X11768531Y-14168855D02*
X11759007Y-14149807D01*
X11759007Y-14149807D02*
X11749483Y-14111712D01*
X11749483Y-14111712D02*
X11749483Y-14064093D01*
X11749483Y-14064093D02*
X11759007Y-14025998D01*
X11759007Y-14025998D02*
X11768531Y-14006950D01*
X11768531Y-14006950D02*
X11778055Y-13997427D01*
X11778055Y-13997427D02*
X11797102Y-13987903D01*
X11987579Y-13987903D02*
X12006626Y-13987903D01*
X12006626Y-13987903D02*
X12025674Y-13997427D01*
X12025674Y-13997427D02*
X12035198Y-14006950D01*
X12035198Y-14006950D02*
X12044721Y-14025998D01*
X12044721Y-14025998D02*
X12054245Y-14064093D01*
X12054245Y-14064093D02*
X12054245Y-14111712D01*
X12054245Y-14111712D02*
X12044721Y-14149807D01*
X12044721Y-14149807D02*
X12035198Y-14168855D01*
X12035198Y-14168855D02*
X12025674Y-14178379D01*
X12025674Y-14178379D02*
X12006626Y-14187903D01*
X12006626Y-14187903D02*
X11987579Y-14187903D01*
X11987579Y-14187903D02*
X11968531Y-14178379D01*
X11968531Y-14178379D02*
X11959007Y-14168855D01*
X11959007Y-14168855D02*
X11949483Y-14149807D01*
X11949483Y-14149807D02*
X11939960Y-14111712D01*
X11939960Y-14111712D02*
X11939960Y-14064093D01*
X11939960Y-14064093D02*
X11949483Y-14025998D01*
X11949483Y-14025998D02*
X11959007Y-14006950D01*
X11959007Y-14006950D02*
X11968531Y-13997427D01*
X11968531Y-13997427D02*
X11987579Y-13987903D01*
X12139960Y-14187903D02*
X12139960Y-14054569D01*
X12139960Y-14073617D02*
X12149483Y-14064093D01*
X12149483Y-14064093D02*
X12168531Y-14054569D01*
X12168531Y-14054569D02*
X12197102Y-14054569D01*
X12197102Y-14054569D02*
X12216150Y-14064093D01*
X12216150Y-14064093D02*
X12225674Y-14083141D01*
X12225674Y-14083141D02*
X12225674Y-14187903D01*
X12225674Y-14083141D02*
X12235198Y-14064093D01*
X12235198Y-14064093D02*
X12254245Y-14054569D01*
X12254245Y-14054569D02*
X12282817Y-14054569D01*
X12282817Y-14054569D02*
X12301864Y-14064093D01*
X12301864Y-14064093D02*
X12311388Y-14083141D01*
X12311388Y-14083141D02*
X12311388Y-14187903D01*
X12406626Y-14187903D02*
X12406626Y-14054569D01*
X12406626Y-14073617D02*
X12416150Y-14064093D01*
X12416150Y-14064093D02*
X12435198Y-14054569D01*
X12435198Y-14054569D02*
X12463769Y-14054569D01*
X12463769Y-14054569D02*
X12482817Y-14064093D01*
X12482817Y-14064093D02*
X12492341Y-14083141D01*
X12492341Y-14083141D02*
X12492341Y-14187903D01*
X12492341Y-14083141D02*
X12501864Y-14064093D01*
X12501864Y-14064093D02*
X12520912Y-14054569D01*
X12520912Y-14054569D02*
X12549483Y-14054569D01*
X12549483Y-14054569D02*
X12568531Y-14064093D01*
X12568531Y-14064093D02*
X12578055Y-14083141D01*
X12578055Y-14083141D02*
X12578055Y-14187903D01*
X12968531Y-13978379D02*
X12797103Y-14235522D01*
X13225674Y-13987903D02*
X13244722Y-13987903D01*
X13244722Y-13987903D02*
X13263769Y-13997427D01*
X13263769Y-13997427D02*
X13273293Y-14006950D01*
X13273293Y-14006950D02*
X13282817Y-14025998D01*
X13282817Y-14025998D02*
X13292341Y-14064093D01*
X13292341Y-14064093D02*
X13292341Y-14111712D01*
X13292341Y-14111712D02*
X13282817Y-14149807D01*
X13282817Y-14149807D02*
X13273293Y-14168855D01*
X13273293Y-14168855D02*
X13263769Y-14178379D01*
X13263769Y-14178379D02*
X13244722Y-14187903D01*
X13244722Y-14187903D02*
X13225674Y-14187903D01*
X13225674Y-14187903D02*
X13206626Y-14178379D01*
X13206626Y-14178379D02*
X13197103Y-14168855D01*
X13197103Y-14168855D02*
X13187579Y-14149807D01*
X13187579Y-14149807D02*
X13178055Y-14111712D01*
X13178055Y-14111712D02*
X13178055Y-14064093D01*
X13178055Y-14064093D02*
X13187579Y-14025998D01*
X13187579Y-14025998D02*
X13197103Y-14006950D01*
X13197103Y-14006950D02*
X13206626Y-13997427D01*
X13206626Y-13997427D02*
X13225674Y-13987903D01*
X13378055Y-14168855D02*
X13387579Y-14178379D01*
X13387579Y-14178379D02*
X13378055Y-14187903D01*
X13378055Y-14187903D02*
X13368531Y-14178379D01*
X13368531Y-14178379D02*
X13378055Y-14168855D01*
X13378055Y-14168855D02*
X13378055Y-14187903D01*
X13511388Y-13987903D02*
X13530436Y-13987903D01*
X13530436Y-13987903D02*
X13549484Y-13997427D01*
X13549484Y-13997427D02*
X13559007Y-14006950D01*
X13559007Y-14006950D02*
X13568531Y-14025998D01*
X13568531Y-14025998D02*
X13578055Y-14064093D01*
X13578055Y-14064093D02*
X13578055Y-14111712D01*
X13578055Y-14111712D02*
X13568531Y-14149807D01*
X13568531Y-14149807D02*
X13559007Y-14168855D01*
X13559007Y-14168855D02*
X13549484Y-14178379D01*
X13549484Y-14178379D02*
X13530436Y-14187903D01*
X13530436Y-14187903D02*
X13511388Y-14187903D01*
X13511388Y-14187903D02*
X13492341Y-14178379D01*
X13492341Y-14178379D02*
X13482817Y-14168855D01*
X13482817Y-14168855D02*
X13473293Y-14149807D01*
X13473293Y-14149807D02*
X13463769Y-14111712D01*
X13463769Y-14111712D02*
X13463769Y-14064093D01*
X13463769Y-14064093D02*
X13473293Y-14025998D01*
X13473293Y-14025998D02*
X13482817Y-14006950D01*
X13482817Y-14006950D02*
X13492341Y-13997427D01*
X13492341Y-13997427D02*
X13511388Y-13987903D01*
X13644722Y-13987903D02*
X13768531Y-13987903D01*
X13768531Y-13987903D02*
X13701864Y-14064093D01*
X13701864Y-14064093D02*
X13730436Y-14064093D01*
X13730436Y-14064093D02*
X13749484Y-14073617D01*
X13749484Y-14073617D02*
X13759007Y-14083141D01*
X13759007Y-14083141D02*
X13768531Y-14102188D01*
X13768531Y-14102188D02*
X13768531Y-14149807D01*
X13768531Y-14149807D02*
X13759007Y-14168855D01*
X13759007Y-14168855D02*
X13749484Y-14178379D01*
X13749484Y-14178379D02*
X13730436Y-14187903D01*
X13730436Y-14187903D02*
X13673293Y-14187903D01*
X13673293Y-14187903D02*
X13654245Y-14178379D01*
X13654245Y-14178379D02*
X13644722Y-14168855D01*
X13959007Y-14187903D02*
X13844722Y-14187903D01*
X13901864Y-14187903D02*
X13901864Y-13987903D01*
X13901864Y-13987903D02*
X13882817Y-14016474D01*
X13882817Y-14016474D02*
X13863769Y-14035522D01*
X13863769Y-14035522D02*
X13844722Y-14045046D01*
X14139960Y-13987903D02*
X14044722Y-13987903D01*
X14044722Y-13987903D02*
X14035198Y-14083141D01*
X14035198Y-14083141D02*
X14044722Y-14073617D01*
X14044722Y-14073617D02*
X14063769Y-14064093D01*
X14063769Y-14064093D02*
X14111388Y-14064093D01*
X14111388Y-14064093D02*
X14130436Y-14073617D01*
X14130436Y-14073617D02*
X14139960Y-14083141D01*
X14139960Y-14083141D02*
X14149484Y-14102188D01*
X14149484Y-14102188D02*
X14149484Y-14149807D01*
X14149484Y-14149807D02*
X14139960Y-14168855D01*
X14139960Y-14168855D02*
X14130436Y-14178379D01*
X14130436Y-14178379D02*
X14111388Y-14187903D01*
X14111388Y-14187903D02*
X14063769Y-14187903D01*
X14063769Y-14187903D02*
X14044722Y-14178379D01*
X14044722Y-14178379D02*
X14035198Y-14168855D01*
X14225674Y-13987903D02*
X14225674Y-14025998D01*
X14301865Y-13987903D02*
X14301865Y-14025998D01*
X14597103Y-14264093D02*
X14587579Y-14254569D01*
X14587579Y-14254569D02*
X14568531Y-14225998D01*
X14568531Y-14225998D02*
X14559007Y-14206950D01*
X14559007Y-14206950D02*
X14549484Y-14178379D01*
X14549484Y-14178379D02*
X14539960Y-14130760D01*
X14539960Y-14130760D02*
X14539960Y-14092665D01*
X14539960Y-14092665D02*
X14549484Y-14045046D01*
X14549484Y-14045046D02*
X14559007Y-14016474D01*
X14559007Y-14016474D02*
X14568531Y-13997427D01*
X14568531Y-13997427D02*
X14587579Y-13968855D01*
X14587579Y-13968855D02*
X14597103Y-13959331D01*
X14778055Y-14187903D02*
X14663769Y-14187903D01*
X14720912Y-14187903D02*
X14720912Y-13987903D01*
X14720912Y-13987903D02*
X14701865Y-14016474D01*
X14701865Y-14016474D02*
X14682817Y-14035522D01*
X14682817Y-14035522D02*
X14663769Y-14045046D01*
X14892341Y-14073617D02*
X14873293Y-14064093D01*
X14873293Y-14064093D02*
X14863769Y-14054569D01*
X14863769Y-14054569D02*
X14854246Y-14035522D01*
X14854246Y-14035522D02*
X14854246Y-14025998D01*
X14854246Y-14025998D02*
X14863769Y-14006950D01*
X14863769Y-14006950D02*
X14873293Y-13997427D01*
X14873293Y-13997427D02*
X14892341Y-13987903D01*
X14892341Y-13987903D02*
X14930436Y-13987903D01*
X14930436Y-13987903D02*
X14949484Y-13997427D01*
X14949484Y-13997427D02*
X14959007Y-14006950D01*
X14959007Y-14006950D02*
X14968531Y-14025998D01*
X14968531Y-14025998D02*
X14968531Y-14035522D01*
X14968531Y-14035522D02*
X14959007Y-14054569D01*
X14959007Y-14054569D02*
X14949484Y-14064093D01*
X14949484Y-14064093D02*
X14930436Y-14073617D01*
X14930436Y-14073617D02*
X14892341Y-14073617D01*
X14892341Y-14073617D02*
X14873293Y-14083141D01*
X14873293Y-14083141D02*
X14863769Y-14092665D01*
X14863769Y-14092665D02*
X14854246Y-14111712D01*
X14854246Y-14111712D02*
X14854246Y-14149807D01*
X14854246Y-14149807D02*
X14863769Y-14168855D01*
X14863769Y-14168855D02*
X14873293Y-14178379D01*
X14873293Y-14178379D02*
X14892341Y-14187903D01*
X14892341Y-14187903D02*
X14930436Y-14187903D01*
X14930436Y-14187903D02*
X14949484Y-14178379D01*
X14949484Y-14178379D02*
X14959007Y-14168855D01*
X14959007Y-14168855D02*
X14968531Y-14149807D01*
X14968531Y-14149807D02*
X14968531Y-14111712D01*
X14968531Y-14111712D02*
X14959007Y-14092665D01*
X14959007Y-14092665D02*
X14949484Y-14083141D01*
X14949484Y-14083141D02*
X14930436Y-14073617D01*
X15206627Y-14187903D02*
X15206627Y-13987903D01*
X15292341Y-14187903D02*
X15292341Y-14083141D01*
X15292341Y-14083141D02*
X15282817Y-14064093D01*
X15282817Y-14064093D02*
X15263769Y-14054569D01*
X15263769Y-14054569D02*
X15235198Y-14054569D01*
X15235198Y-14054569D02*
X15216150Y-14064093D01*
X15216150Y-14064093D02*
X15206627Y-14073617D01*
X15416150Y-14187903D02*
X15397103Y-14178379D01*
X15397103Y-14178379D02*
X15387579Y-14168855D01*
X15387579Y-14168855D02*
X15378055Y-14149807D01*
X15378055Y-14149807D02*
X15378055Y-14092665D01*
X15378055Y-14092665D02*
X15387579Y-14073617D01*
X15387579Y-14073617D02*
X15397103Y-14064093D01*
X15397103Y-14064093D02*
X15416150Y-14054569D01*
X15416150Y-14054569D02*
X15444722Y-14054569D01*
X15444722Y-14054569D02*
X15463769Y-14064093D01*
X15463769Y-14064093D02*
X15473293Y-14073617D01*
X15473293Y-14073617D02*
X15482817Y-14092665D01*
X15482817Y-14092665D02*
X15482817Y-14149807D01*
X15482817Y-14149807D02*
X15473293Y-14168855D01*
X15473293Y-14168855D02*
X15463769Y-14178379D01*
X15463769Y-14178379D02*
X15444722Y-14187903D01*
X15444722Y-14187903D02*
X15416150Y-14187903D01*
X15597103Y-14187903D02*
X15578055Y-14178379D01*
X15578055Y-14178379D02*
X15568531Y-14159331D01*
X15568531Y-14159331D02*
X15568531Y-13987903D01*
X15749484Y-14178379D02*
X15730436Y-14187903D01*
X15730436Y-14187903D02*
X15692341Y-14187903D01*
X15692341Y-14187903D02*
X15673293Y-14178379D01*
X15673293Y-14178379D02*
X15663769Y-14159331D01*
X15663769Y-14159331D02*
X15663769Y-14083141D01*
X15663769Y-14083141D02*
X15673293Y-14064093D01*
X15673293Y-14064093D02*
X15692341Y-14054569D01*
X15692341Y-14054569D02*
X15730436Y-14054569D01*
X15730436Y-14054569D02*
X15749484Y-14064093D01*
X15749484Y-14064093D02*
X15759008Y-14083141D01*
X15759008Y-14083141D02*
X15759008Y-14102188D01*
X15759008Y-14102188D02*
X15663769Y-14121236D01*
X15835198Y-14178379D02*
X15854246Y-14187903D01*
X15854246Y-14187903D02*
X15892341Y-14187903D01*
X15892341Y-14187903D02*
X15911389Y-14178379D01*
X15911389Y-14178379D02*
X15920912Y-14159331D01*
X15920912Y-14159331D02*
X15920912Y-14149807D01*
X15920912Y-14149807D02*
X15911389Y-14130760D01*
X15911389Y-14130760D02*
X15892341Y-14121236D01*
X15892341Y-14121236D02*
X15863769Y-14121236D01*
X15863769Y-14121236D02*
X15844722Y-14111712D01*
X15844722Y-14111712D02*
X15835198Y-14092665D01*
X15835198Y-14092665D02*
X15835198Y-14083141D01*
X15835198Y-14083141D02*
X15844722Y-14064093D01*
X15844722Y-14064093D02*
X15863769Y-14054569D01*
X15863769Y-14054569D02*
X15892341Y-14054569D01*
X15892341Y-14054569D02*
X15911389Y-14064093D01*
X15987579Y-14264093D02*
X15997103Y-14254569D01*
X15997103Y-14254569D02*
X16016150Y-14225998D01*
X16016150Y-14225998D02*
X16025674Y-14206950D01*
X16025674Y-14206950D02*
X16035198Y-14178379D01*
X16035198Y-14178379D02*
X16044722Y-14130760D01*
X16044722Y-14130760D02*
X16044722Y-14092665D01*
X16044722Y-14092665D02*
X16035198Y-14045046D01*
X16035198Y-14045046D02*
X16025674Y-14016474D01*
X16025674Y-14016474D02*
X16016150Y-13997427D01*
X16016150Y-13997427D02*
X15997103Y-13968855D01*
X15997103Y-13968855D02*
X15987579Y-13959331D01*
D11*
X10977040Y-14405419D02*
X11022040Y-14360419D01*
X10977040Y-14315419D01*
X10932040Y-14360419D01*
X10977040Y-14405419D01*
D10*
X11320912Y-14251903D02*
X11339960Y-14251903D01*
X11339960Y-14251903D02*
X11359007Y-14261427D01*
X11359007Y-14261427D02*
X11368531Y-14270950D01*
X11368531Y-14270950D02*
X11378055Y-14289998D01*
X11378055Y-14289998D02*
X11387579Y-14328093D01*
X11387579Y-14328093D02*
X11387579Y-14375712D01*
X11387579Y-14375712D02*
X11378055Y-14413807D01*
X11378055Y-14413807D02*
X11368531Y-14432855D01*
X11368531Y-14432855D02*
X11359007Y-14442379D01*
X11359007Y-14442379D02*
X11339960Y-14451903D01*
X11339960Y-14451903D02*
X11320912Y-14451903D01*
X11320912Y-14451903D02*
X11301864Y-14442379D01*
X11301864Y-14442379D02*
X11292340Y-14432855D01*
X11292340Y-14432855D02*
X11282817Y-14413807D01*
X11282817Y-14413807D02*
X11273293Y-14375712D01*
X11273293Y-14375712D02*
X11273293Y-14328093D01*
X11273293Y-14328093D02*
X11282817Y-14289998D01*
X11282817Y-14289998D02*
X11292340Y-14270950D01*
X11292340Y-14270950D02*
X11301864Y-14261427D01*
X11301864Y-14261427D02*
X11320912Y-14251903D01*
X11473293Y-14432855D02*
X11482817Y-14442379D01*
X11482817Y-14442379D02*
X11473293Y-14451903D01*
X11473293Y-14451903D02*
X11463769Y-14442379D01*
X11463769Y-14442379D02*
X11473293Y-14432855D01*
X11473293Y-14432855D02*
X11473293Y-14451903D01*
X11578055Y-14451903D02*
X11616150Y-14451903D01*
X11616150Y-14451903D02*
X11635198Y-14442379D01*
X11635198Y-14442379D02*
X11644721Y-14432855D01*
X11644721Y-14432855D02*
X11663769Y-14404284D01*
X11663769Y-14404284D02*
X11673293Y-14366188D01*
X11673293Y-14366188D02*
X11673293Y-14289998D01*
X11673293Y-14289998D02*
X11663769Y-14270950D01*
X11663769Y-14270950D02*
X11654245Y-14261427D01*
X11654245Y-14261427D02*
X11635198Y-14251903D01*
X11635198Y-14251903D02*
X11597102Y-14251903D01*
X11597102Y-14251903D02*
X11578055Y-14261427D01*
X11578055Y-14261427D02*
X11568531Y-14270950D01*
X11568531Y-14270950D02*
X11559007Y-14289998D01*
X11559007Y-14289998D02*
X11559007Y-14337617D01*
X11559007Y-14337617D02*
X11568531Y-14356665D01*
X11568531Y-14356665D02*
X11578055Y-14366188D01*
X11578055Y-14366188D02*
X11597102Y-14375712D01*
X11597102Y-14375712D02*
X11635198Y-14375712D01*
X11635198Y-14375712D02*
X11654245Y-14366188D01*
X11654245Y-14366188D02*
X11663769Y-14356665D01*
X11663769Y-14356665D02*
X11673293Y-14337617D01*
X11797102Y-14251903D02*
X11816150Y-14251903D01*
X11816150Y-14251903D02*
X11835198Y-14261427D01*
X11835198Y-14261427D02*
X11844721Y-14270950D01*
X11844721Y-14270950D02*
X11854245Y-14289998D01*
X11854245Y-14289998D02*
X11863769Y-14328093D01*
X11863769Y-14328093D02*
X11863769Y-14375712D01*
X11863769Y-14375712D02*
X11854245Y-14413807D01*
X11854245Y-14413807D02*
X11844721Y-14432855D01*
X11844721Y-14432855D02*
X11835198Y-14442379D01*
X11835198Y-14442379D02*
X11816150Y-14451903D01*
X11816150Y-14451903D02*
X11797102Y-14451903D01*
X11797102Y-14451903D02*
X11778055Y-14442379D01*
X11778055Y-14442379D02*
X11768531Y-14432855D01*
X11768531Y-14432855D02*
X11759007Y-14413807D01*
X11759007Y-14413807D02*
X11749483Y-14375712D01*
X11749483Y-14375712D02*
X11749483Y-14328093D01*
X11749483Y-14328093D02*
X11759007Y-14289998D01*
X11759007Y-14289998D02*
X11768531Y-14270950D01*
X11768531Y-14270950D02*
X11778055Y-14261427D01*
X11778055Y-14261427D02*
X11797102Y-14251903D01*
X11987579Y-14251903D02*
X12006626Y-14251903D01*
X12006626Y-14251903D02*
X12025674Y-14261427D01*
X12025674Y-14261427D02*
X12035198Y-14270950D01*
X12035198Y-14270950D02*
X12044721Y-14289998D01*
X12044721Y-14289998D02*
X12054245Y-14328093D01*
X12054245Y-14328093D02*
X12054245Y-14375712D01*
X12054245Y-14375712D02*
X12044721Y-14413807D01*
X12044721Y-14413807D02*
X12035198Y-14432855D01*
X12035198Y-14432855D02*
X12025674Y-14442379D01*
X12025674Y-14442379D02*
X12006626Y-14451903D01*
X12006626Y-14451903D02*
X11987579Y-14451903D01*
X11987579Y-14451903D02*
X11968531Y-14442379D01*
X11968531Y-14442379D02*
X11959007Y-14432855D01*
X11959007Y-14432855D02*
X11949483Y-14413807D01*
X11949483Y-14413807D02*
X11939960Y-14375712D01*
X11939960Y-14375712D02*
X11939960Y-14328093D01*
X11939960Y-14328093D02*
X11949483Y-14289998D01*
X11949483Y-14289998D02*
X11959007Y-14270950D01*
X11959007Y-14270950D02*
X11968531Y-14261427D01*
X11968531Y-14261427D02*
X11987579Y-14251903D01*
X12139960Y-14451903D02*
X12139960Y-14318569D01*
X12139960Y-14337617D02*
X12149483Y-14328093D01*
X12149483Y-14328093D02*
X12168531Y-14318569D01*
X12168531Y-14318569D02*
X12197102Y-14318569D01*
X12197102Y-14318569D02*
X12216150Y-14328093D01*
X12216150Y-14328093D02*
X12225674Y-14347141D01*
X12225674Y-14347141D02*
X12225674Y-14451903D01*
X12225674Y-14347141D02*
X12235198Y-14328093D01*
X12235198Y-14328093D02*
X12254245Y-14318569D01*
X12254245Y-14318569D02*
X12282817Y-14318569D01*
X12282817Y-14318569D02*
X12301864Y-14328093D01*
X12301864Y-14328093D02*
X12311388Y-14347141D01*
X12311388Y-14347141D02*
X12311388Y-14451903D01*
X12406626Y-14451903D02*
X12406626Y-14318569D01*
X12406626Y-14337617D02*
X12416150Y-14328093D01*
X12416150Y-14328093D02*
X12435198Y-14318569D01*
X12435198Y-14318569D02*
X12463769Y-14318569D01*
X12463769Y-14318569D02*
X12482817Y-14328093D01*
X12482817Y-14328093D02*
X12492341Y-14347141D01*
X12492341Y-14347141D02*
X12492341Y-14451903D01*
X12492341Y-14347141D02*
X12501864Y-14328093D01*
X12501864Y-14328093D02*
X12520912Y-14318569D01*
X12520912Y-14318569D02*
X12549483Y-14318569D01*
X12549483Y-14318569D02*
X12568531Y-14328093D01*
X12568531Y-14328093D02*
X12578055Y-14347141D01*
X12578055Y-14347141D02*
X12578055Y-14451903D01*
X12968531Y-14242379D02*
X12797103Y-14499522D01*
X13225674Y-14251903D02*
X13244722Y-14251903D01*
X13244722Y-14251903D02*
X13263769Y-14261427D01*
X13263769Y-14261427D02*
X13273293Y-14270950D01*
X13273293Y-14270950D02*
X13282817Y-14289998D01*
X13282817Y-14289998D02*
X13292341Y-14328093D01*
X13292341Y-14328093D02*
X13292341Y-14375712D01*
X13292341Y-14375712D02*
X13282817Y-14413807D01*
X13282817Y-14413807D02*
X13273293Y-14432855D01*
X13273293Y-14432855D02*
X13263769Y-14442379D01*
X13263769Y-14442379D02*
X13244722Y-14451903D01*
X13244722Y-14451903D02*
X13225674Y-14451903D01*
X13225674Y-14451903D02*
X13206626Y-14442379D01*
X13206626Y-14442379D02*
X13197103Y-14432855D01*
X13197103Y-14432855D02*
X13187579Y-14413807D01*
X13187579Y-14413807D02*
X13178055Y-14375712D01*
X13178055Y-14375712D02*
X13178055Y-14328093D01*
X13178055Y-14328093D02*
X13187579Y-14289998D01*
X13187579Y-14289998D02*
X13197103Y-14270950D01*
X13197103Y-14270950D02*
X13206626Y-14261427D01*
X13206626Y-14261427D02*
X13225674Y-14251903D01*
X13378055Y-14432855D02*
X13387579Y-14442379D01*
X13387579Y-14442379D02*
X13378055Y-14451903D01*
X13378055Y-14451903D02*
X13368531Y-14442379D01*
X13368531Y-14442379D02*
X13378055Y-14432855D01*
X13378055Y-14432855D02*
X13378055Y-14451903D01*
X13511388Y-14251903D02*
X13530436Y-14251903D01*
X13530436Y-14251903D02*
X13549484Y-14261427D01*
X13549484Y-14261427D02*
X13559007Y-14270950D01*
X13559007Y-14270950D02*
X13568531Y-14289998D01*
X13568531Y-14289998D02*
X13578055Y-14328093D01*
X13578055Y-14328093D02*
X13578055Y-14375712D01*
X13578055Y-14375712D02*
X13568531Y-14413807D01*
X13568531Y-14413807D02*
X13559007Y-14432855D01*
X13559007Y-14432855D02*
X13549484Y-14442379D01*
X13549484Y-14442379D02*
X13530436Y-14451903D01*
X13530436Y-14451903D02*
X13511388Y-14451903D01*
X13511388Y-14451903D02*
X13492341Y-14442379D01*
X13492341Y-14442379D02*
X13482817Y-14432855D01*
X13482817Y-14432855D02*
X13473293Y-14413807D01*
X13473293Y-14413807D02*
X13463769Y-14375712D01*
X13463769Y-14375712D02*
X13463769Y-14328093D01*
X13463769Y-14328093D02*
X13473293Y-14289998D01*
X13473293Y-14289998D02*
X13482817Y-14270950D01*
X13482817Y-14270950D02*
X13492341Y-14261427D01*
X13492341Y-14261427D02*
X13511388Y-14251903D01*
X13644722Y-14251903D02*
X13768531Y-14251903D01*
X13768531Y-14251903D02*
X13701864Y-14328093D01*
X13701864Y-14328093D02*
X13730436Y-14328093D01*
X13730436Y-14328093D02*
X13749484Y-14337617D01*
X13749484Y-14337617D02*
X13759007Y-14347141D01*
X13759007Y-14347141D02*
X13768531Y-14366188D01*
X13768531Y-14366188D02*
X13768531Y-14413807D01*
X13768531Y-14413807D02*
X13759007Y-14432855D01*
X13759007Y-14432855D02*
X13749484Y-14442379D01*
X13749484Y-14442379D02*
X13730436Y-14451903D01*
X13730436Y-14451903D02*
X13673293Y-14451903D01*
X13673293Y-14451903D02*
X13654245Y-14442379D01*
X13654245Y-14442379D02*
X13644722Y-14432855D01*
X13949484Y-14251903D02*
X13854245Y-14251903D01*
X13854245Y-14251903D02*
X13844722Y-14347141D01*
X13844722Y-14347141D02*
X13854245Y-14337617D01*
X13854245Y-14337617D02*
X13873293Y-14328093D01*
X13873293Y-14328093D02*
X13920912Y-14328093D01*
X13920912Y-14328093D02*
X13939960Y-14337617D01*
X13939960Y-14337617D02*
X13949484Y-14347141D01*
X13949484Y-14347141D02*
X13959007Y-14366188D01*
X13959007Y-14366188D02*
X13959007Y-14413807D01*
X13959007Y-14413807D02*
X13949484Y-14432855D01*
X13949484Y-14432855D02*
X13939960Y-14442379D01*
X13939960Y-14442379D02*
X13920912Y-14451903D01*
X13920912Y-14451903D02*
X13873293Y-14451903D01*
X13873293Y-14451903D02*
X13854245Y-14442379D01*
X13854245Y-14442379D02*
X13844722Y-14432855D01*
X14130436Y-14318569D02*
X14130436Y-14451903D01*
X14082817Y-14242379D02*
X14035198Y-14385236D01*
X14035198Y-14385236D02*
X14159007Y-14385236D01*
X14225674Y-14251903D02*
X14225674Y-14289998D01*
X14301865Y-14251903D02*
X14301865Y-14289998D01*
X14597103Y-14528093D02*
X14587579Y-14518569D01*
X14587579Y-14518569D02*
X14568531Y-14489998D01*
X14568531Y-14489998D02*
X14559007Y-14470950D01*
X14559007Y-14470950D02*
X14549484Y-14442379D01*
X14549484Y-14442379D02*
X14539960Y-14394760D01*
X14539960Y-14394760D02*
X14539960Y-14356665D01*
X14539960Y-14356665D02*
X14549484Y-14309046D01*
X14549484Y-14309046D02*
X14559007Y-14280474D01*
X14559007Y-14280474D02*
X14568531Y-14261427D01*
X14568531Y-14261427D02*
X14587579Y-14232855D01*
X14587579Y-14232855D02*
X14597103Y-14223331D01*
X14759007Y-14318569D02*
X14759007Y-14451903D01*
X14711388Y-14242379D02*
X14663769Y-14385236D01*
X14663769Y-14385236D02*
X14787579Y-14385236D01*
X15016150Y-14451903D02*
X15016150Y-14251903D01*
X15101865Y-14451903D02*
X15101865Y-14347141D01*
X15101865Y-14347141D02*
X15092341Y-14328093D01*
X15092341Y-14328093D02*
X15073293Y-14318569D01*
X15073293Y-14318569D02*
X15044722Y-14318569D01*
X15044722Y-14318569D02*
X15025674Y-14328093D01*
X15025674Y-14328093D02*
X15016150Y-14337617D01*
X15225674Y-14451903D02*
X15206627Y-14442379D01*
X15206627Y-14442379D02*
X15197103Y-14432855D01*
X15197103Y-14432855D02*
X15187579Y-14413807D01*
X15187579Y-14413807D02*
X15187579Y-14356665D01*
X15187579Y-14356665D02*
X15197103Y-14337617D01*
X15197103Y-14337617D02*
X15206627Y-14328093D01*
X15206627Y-14328093D02*
X15225674Y-14318569D01*
X15225674Y-14318569D02*
X15254246Y-14318569D01*
X15254246Y-14318569D02*
X15273293Y-14328093D01*
X15273293Y-14328093D02*
X15282817Y-14337617D01*
X15282817Y-14337617D02*
X15292341Y-14356665D01*
X15292341Y-14356665D02*
X15292341Y-14413807D01*
X15292341Y-14413807D02*
X15282817Y-14432855D01*
X15282817Y-14432855D02*
X15273293Y-14442379D01*
X15273293Y-14442379D02*
X15254246Y-14451903D01*
X15254246Y-14451903D02*
X15225674Y-14451903D01*
X15406627Y-14451903D02*
X15387579Y-14442379D01*
X15387579Y-14442379D02*
X15378055Y-14423331D01*
X15378055Y-14423331D02*
X15378055Y-14251903D01*
X15559008Y-14442379D02*
X15539960Y-14451903D01*
X15539960Y-14451903D02*
X15501865Y-14451903D01*
X15501865Y-14451903D02*
X15482817Y-14442379D01*
X15482817Y-14442379D02*
X15473293Y-14423331D01*
X15473293Y-14423331D02*
X15473293Y-14347141D01*
X15473293Y-14347141D02*
X15482817Y-14328093D01*
X15482817Y-14328093D02*
X15501865Y-14318569D01*
X15501865Y-14318569D02*
X15539960Y-14318569D01*
X15539960Y-14318569D02*
X15559008Y-14328093D01*
X15559008Y-14328093D02*
X15568531Y-14347141D01*
X15568531Y-14347141D02*
X15568531Y-14366188D01*
X15568531Y-14366188D02*
X15473293Y-14385236D01*
X15644722Y-14442379D02*
X15663769Y-14451903D01*
X15663769Y-14451903D02*
X15701865Y-14451903D01*
X15701865Y-14451903D02*
X15720912Y-14442379D01*
X15720912Y-14442379D02*
X15730436Y-14423331D01*
X15730436Y-14423331D02*
X15730436Y-14413807D01*
X15730436Y-14413807D02*
X15720912Y-14394760D01*
X15720912Y-14394760D02*
X15701865Y-14385236D01*
X15701865Y-14385236D02*
X15673293Y-14385236D01*
X15673293Y-14385236D02*
X15654246Y-14375712D01*
X15654246Y-14375712D02*
X15644722Y-14356665D01*
X15644722Y-14356665D02*
X15644722Y-14347141D01*
X15644722Y-14347141D02*
X15654246Y-14328093D01*
X15654246Y-14328093D02*
X15673293Y-14318569D01*
X15673293Y-14318569D02*
X15701865Y-14318569D01*
X15701865Y-14318569D02*
X15720912Y-14328093D01*
X15797103Y-14528093D02*
X15806627Y-14518569D01*
X15806627Y-14518569D02*
X15825674Y-14489998D01*
X15825674Y-14489998D02*
X15835198Y-14470950D01*
X15835198Y-14470950D02*
X15844722Y-14442379D01*
X15844722Y-14442379D02*
X15854246Y-14394760D01*
X15854246Y-14394760D02*
X15854246Y-14356665D01*
X15854246Y-14356665D02*
X15844722Y-14309046D01*
X15844722Y-14309046D02*
X15835198Y-14280474D01*
X15835198Y-14280474D02*
X15825674Y-14261427D01*
X15825674Y-14261427D02*
X15806627Y-14232855D01*
X15806627Y-14232855D02*
X15797103Y-14223331D01*
D11*
X10927040Y-14576919D02*
X11022040Y-14671919D01*
X11022040Y-14576919D02*
X10927040Y-14671919D01*
X11022040Y-14624419D02*
G75*
G03*
X11022040Y-14624419I-47500J0D01*
G01*
D10*
X11320912Y-14515903D02*
X11339960Y-14515903D01*
X11339960Y-14515903D02*
X11359007Y-14525427D01*
X11359007Y-14525427D02*
X11368531Y-14534950D01*
X11368531Y-14534950D02*
X11378055Y-14553998D01*
X11378055Y-14553998D02*
X11387579Y-14592093D01*
X11387579Y-14592093D02*
X11387579Y-14639712D01*
X11387579Y-14639712D02*
X11378055Y-14677807D01*
X11378055Y-14677807D02*
X11368531Y-14696855D01*
X11368531Y-14696855D02*
X11359007Y-14706379D01*
X11359007Y-14706379D02*
X11339960Y-14715903D01*
X11339960Y-14715903D02*
X11320912Y-14715903D01*
X11320912Y-14715903D02*
X11301864Y-14706379D01*
X11301864Y-14706379D02*
X11292340Y-14696855D01*
X11292340Y-14696855D02*
X11282817Y-14677807D01*
X11282817Y-14677807D02*
X11273293Y-14639712D01*
X11273293Y-14639712D02*
X11273293Y-14592093D01*
X11273293Y-14592093D02*
X11282817Y-14553998D01*
X11282817Y-14553998D02*
X11292340Y-14534950D01*
X11292340Y-14534950D02*
X11301864Y-14525427D01*
X11301864Y-14525427D02*
X11320912Y-14515903D01*
X11473293Y-14696855D02*
X11482817Y-14706379D01*
X11482817Y-14706379D02*
X11473293Y-14715903D01*
X11473293Y-14715903D02*
X11463769Y-14706379D01*
X11463769Y-14706379D02*
X11473293Y-14696855D01*
X11473293Y-14696855D02*
X11473293Y-14715903D01*
X11578055Y-14715903D02*
X11616150Y-14715903D01*
X11616150Y-14715903D02*
X11635198Y-14706379D01*
X11635198Y-14706379D02*
X11644721Y-14696855D01*
X11644721Y-14696855D02*
X11663769Y-14668284D01*
X11663769Y-14668284D02*
X11673293Y-14630188D01*
X11673293Y-14630188D02*
X11673293Y-14553998D01*
X11673293Y-14553998D02*
X11663769Y-14534950D01*
X11663769Y-14534950D02*
X11654245Y-14525427D01*
X11654245Y-14525427D02*
X11635198Y-14515903D01*
X11635198Y-14515903D02*
X11597102Y-14515903D01*
X11597102Y-14515903D02*
X11578055Y-14525427D01*
X11578055Y-14525427D02*
X11568531Y-14534950D01*
X11568531Y-14534950D02*
X11559007Y-14553998D01*
X11559007Y-14553998D02*
X11559007Y-14601617D01*
X11559007Y-14601617D02*
X11568531Y-14620665D01*
X11568531Y-14620665D02*
X11578055Y-14630188D01*
X11578055Y-14630188D02*
X11597102Y-14639712D01*
X11597102Y-14639712D02*
X11635198Y-14639712D01*
X11635198Y-14639712D02*
X11654245Y-14630188D01*
X11654245Y-14630188D02*
X11663769Y-14620665D01*
X11663769Y-14620665D02*
X11673293Y-14601617D01*
X11854245Y-14515903D02*
X11759007Y-14515903D01*
X11759007Y-14515903D02*
X11749483Y-14611141D01*
X11749483Y-14611141D02*
X11759007Y-14601617D01*
X11759007Y-14601617D02*
X11778055Y-14592093D01*
X11778055Y-14592093D02*
X11825674Y-14592093D01*
X11825674Y-14592093D02*
X11844721Y-14601617D01*
X11844721Y-14601617D02*
X11854245Y-14611141D01*
X11854245Y-14611141D02*
X11863769Y-14630188D01*
X11863769Y-14630188D02*
X11863769Y-14677807D01*
X11863769Y-14677807D02*
X11854245Y-14696855D01*
X11854245Y-14696855D02*
X11844721Y-14706379D01*
X11844721Y-14706379D02*
X11825674Y-14715903D01*
X11825674Y-14715903D02*
X11778055Y-14715903D01*
X11778055Y-14715903D02*
X11759007Y-14706379D01*
X11759007Y-14706379D02*
X11749483Y-14696855D01*
X11987579Y-14515903D02*
X12006626Y-14515903D01*
X12006626Y-14515903D02*
X12025674Y-14525427D01*
X12025674Y-14525427D02*
X12035198Y-14534950D01*
X12035198Y-14534950D02*
X12044721Y-14553998D01*
X12044721Y-14553998D02*
X12054245Y-14592093D01*
X12054245Y-14592093D02*
X12054245Y-14639712D01*
X12054245Y-14639712D02*
X12044721Y-14677807D01*
X12044721Y-14677807D02*
X12035198Y-14696855D01*
X12035198Y-14696855D02*
X12025674Y-14706379D01*
X12025674Y-14706379D02*
X12006626Y-14715903D01*
X12006626Y-14715903D02*
X11987579Y-14715903D01*
X11987579Y-14715903D02*
X11968531Y-14706379D01*
X11968531Y-14706379D02*
X11959007Y-14696855D01*
X11959007Y-14696855D02*
X11949483Y-14677807D01*
X11949483Y-14677807D02*
X11939960Y-14639712D01*
X11939960Y-14639712D02*
X11939960Y-14592093D01*
X11939960Y-14592093D02*
X11949483Y-14553998D01*
X11949483Y-14553998D02*
X11959007Y-14534950D01*
X11959007Y-14534950D02*
X11968531Y-14525427D01*
X11968531Y-14525427D02*
X11987579Y-14515903D01*
X12139960Y-14715903D02*
X12139960Y-14582569D01*
X12139960Y-14601617D02*
X12149483Y-14592093D01*
X12149483Y-14592093D02*
X12168531Y-14582569D01*
X12168531Y-14582569D02*
X12197102Y-14582569D01*
X12197102Y-14582569D02*
X12216150Y-14592093D01*
X12216150Y-14592093D02*
X12225674Y-14611141D01*
X12225674Y-14611141D02*
X12225674Y-14715903D01*
X12225674Y-14611141D02*
X12235198Y-14592093D01*
X12235198Y-14592093D02*
X12254245Y-14582569D01*
X12254245Y-14582569D02*
X12282817Y-14582569D01*
X12282817Y-14582569D02*
X12301864Y-14592093D01*
X12301864Y-14592093D02*
X12311388Y-14611141D01*
X12311388Y-14611141D02*
X12311388Y-14715903D01*
X12406626Y-14715903D02*
X12406626Y-14582569D01*
X12406626Y-14601617D02*
X12416150Y-14592093D01*
X12416150Y-14592093D02*
X12435198Y-14582569D01*
X12435198Y-14582569D02*
X12463769Y-14582569D01*
X12463769Y-14582569D02*
X12482817Y-14592093D01*
X12482817Y-14592093D02*
X12492341Y-14611141D01*
X12492341Y-14611141D02*
X12492341Y-14715903D01*
X12492341Y-14611141D02*
X12501864Y-14592093D01*
X12501864Y-14592093D02*
X12520912Y-14582569D01*
X12520912Y-14582569D02*
X12549483Y-14582569D01*
X12549483Y-14582569D02*
X12568531Y-14592093D01*
X12568531Y-14592093D02*
X12578055Y-14611141D01*
X12578055Y-14611141D02*
X12578055Y-14715903D01*
X12968531Y-14506379D02*
X12797103Y-14763522D01*
X13225674Y-14515903D02*
X13244722Y-14515903D01*
X13244722Y-14515903D02*
X13263769Y-14525427D01*
X13263769Y-14525427D02*
X13273293Y-14534950D01*
X13273293Y-14534950D02*
X13282817Y-14553998D01*
X13282817Y-14553998D02*
X13292341Y-14592093D01*
X13292341Y-14592093D02*
X13292341Y-14639712D01*
X13292341Y-14639712D02*
X13282817Y-14677807D01*
X13282817Y-14677807D02*
X13273293Y-14696855D01*
X13273293Y-14696855D02*
X13263769Y-14706379D01*
X13263769Y-14706379D02*
X13244722Y-14715903D01*
X13244722Y-14715903D02*
X13225674Y-14715903D01*
X13225674Y-14715903D02*
X13206626Y-14706379D01*
X13206626Y-14706379D02*
X13197103Y-14696855D01*
X13197103Y-14696855D02*
X13187579Y-14677807D01*
X13187579Y-14677807D02*
X13178055Y-14639712D01*
X13178055Y-14639712D02*
X13178055Y-14592093D01*
X13178055Y-14592093D02*
X13187579Y-14553998D01*
X13187579Y-14553998D02*
X13197103Y-14534950D01*
X13197103Y-14534950D02*
X13206626Y-14525427D01*
X13206626Y-14525427D02*
X13225674Y-14515903D01*
X13378055Y-14696855D02*
X13387579Y-14706379D01*
X13387579Y-14706379D02*
X13378055Y-14715903D01*
X13378055Y-14715903D02*
X13368531Y-14706379D01*
X13368531Y-14706379D02*
X13378055Y-14696855D01*
X13378055Y-14696855D02*
X13378055Y-14715903D01*
X13511388Y-14515903D02*
X13530436Y-14515903D01*
X13530436Y-14515903D02*
X13549484Y-14525427D01*
X13549484Y-14525427D02*
X13559007Y-14534950D01*
X13559007Y-14534950D02*
X13568531Y-14553998D01*
X13568531Y-14553998D02*
X13578055Y-14592093D01*
X13578055Y-14592093D02*
X13578055Y-14639712D01*
X13578055Y-14639712D02*
X13568531Y-14677807D01*
X13568531Y-14677807D02*
X13559007Y-14696855D01*
X13559007Y-14696855D02*
X13549484Y-14706379D01*
X13549484Y-14706379D02*
X13530436Y-14715903D01*
X13530436Y-14715903D02*
X13511388Y-14715903D01*
X13511388Y-14715903D02*
X13492341Y-14706379D01*
X13492341Y-14706379D02*
X13482817Y-14696855D01*
X13482817Y-14696855D02*
X13473293Y-14677807D01*
X13473293Y-14677807D02*
X13463769Y-14639712D01*
X13463769Y-14639712D02*
X13463769Y-14592093D01*
X13463769Y-14592093D02*
X13473293Y-14553998D01*
X13473293Y-14553998D02*
X13482817Y-14534950D01*
X13482817Y-14534950D02*
X13492341Y-14525427D01*
X13492341Y-14525427D02*
X13511388Y-14515903D01*
X13644722Y-14515903D02*
X13768531Y-14515903D01*
X13768531Y-14515903D02*
X13701864Y-14592093D01*
X13701864Y-14592093D02*
X13730436Y-14592093D01*
X13730436Y-14592093D02*
X13749484Y-14601617D01*
X13749484Y-14601617D02*
X13759007Y-14611141D01*
X13759007Y-14611141D02*
X13768531Y-14630188D01*
X13768531Y-14630188D02*
X13768531Y-14677807D01*
X13768531Y-14677807D02*
X13759007Y-14696855D01*
X13759007Y-14696855D02*
X13749484Y-14706379D01*
X13749484Y-14706379D02*
X13730436Y-14715903D01*
X13730436Y-14715903D02*
X13673293Y-14715903D01*
X13673293Y-14715903D02*
X13654245Y-14706379D01*
X13654245Y-14706379D02*
X13644722Y-14696855D01*
X13835198Y-14515903D02*
X13968531Y-14515903D01*
X13968531Y-14515903D02*
X13882817Y-14715903D01*
X14130436Y-14582569D02*
X14130436Y-14715903D01*
X14082817Y-14506379D02*
X14035198Y-14649236D01*
X14035198Y-14649236D02*
X14159007Y-14649236D01*
X14225674Y-14515903D02*
X14225674Y-14553998D01*
X14301865Y-14515903D02*
X14301865Y-14553998D01*
X14597103Y-14792093D02*
X14587579Y-14782569D01*
X14587579Y-14782569D02*
X14568531Y-14753998D01*
X14568531Y-14753998D02*
X14559007Y-14734950D01*
X14559007Y-14734950D02*
X14549484Y-14706379D01*
X14549484Y-14706379D02*
X14539960Y-14658760D01*
X14539960Y-14658760D02*
X14539960Y-14620665D01*
X14539960Y-14620665D02*
X14549484Y-14573046D01*
X14549484Y-14573046D02*
X14559007Y-14544474D01*
X14559007Y-14544474D02*
X14568531Y-14525427D01*
X14568531Y-14525427D02*
X14587579Y-14496855D01*
X14587579Y-14496855D02*
X14597103Y-14487331D01*
X14654246Y-14515903D02*
X14787579Y-14515903D01*
X14787579Y-14515903D02*
X14701865Y-14715903D01*
X15016150Y-14715903D02*
X15016150Y-14515903D01*
X15101865Y-14715903D02*
X15101865Y-14611141D01*
X15101865Y-14611141D02*
X15092341Y-14592093D01*
X15092341Y-14592093D02*
X15073293Y-14582569D01*
X15073293Y-14582569D02*
X15044722Y-14582569D01*
X15044722Y-14582569D02*
X15025674Y-14592093D01*
X15025674Y-14592093D02*
X15016150Y-14601617D01*
X15225674Y-14715903D02*
X15206627Y-14706379D01*
X15206627Y-14706379D02*
X15197103Y-14696855D01*
X15197103Y-14696855D02*
X15187579Y-14677807D01*
X15187579Y-14677807D02*
X15187579Y-14620665D01*
X15187579Y-14620665D02*
X15197103Y-14601617D01*
X15197103Y-14601617D02*
X15206627Y-14592093D01*
X15206627Y-14592093D02*
X15225674Y-14582569D01*
X15225674Y-14582569D02*
X15254246Y-14582569D01*
X15254246Y-14582569D02*
X15273293Y-14592093D01*
X15273293Y-14592093D02*
X15282817Y-14601617D01*
X15282817Y-14601617D02*
X15292341Y-14620665D01*
X15292341Y-14620665D02*
X15292341Y-14677807D01*
X15292341Y-14677807D02*
X15282817Y-14696855D01*
X15282817Y-14696855D02*
X15273293Y-14706379D01*
X15273293Y-14706379D02*
X15254246Y-14715903D01*
X15254246Y-14715903D02*
X15225674Y-14715903D01*
X15406627Y-14715903D02*
X15387579Y-14706379D01*
X15387579Y-14706379D02*
X15378055Y-14687331D01*
X15378055Y-14687331D02*
X15378055Y-14515903D01*
X15559008Y-14706379D02*
X15539960Y-14715903D01*
X15539960Y-14715903D02*
X15501865Y-14715903D01*
X15501865Y-14715903D02*
X15482817Y-14706379D01*
X15482817Y-14706379D02*
X15473293Y-14687331D01*
X15473293Y-14687331D02*
X15473293Y-14611141D01*
X15473293Y-14611141D02*
X15482817Y-14592093D01*
X15482817Y-14592093D02*
X15501865Y-14582569D01*
X15501865Y-14582569D02*
X15539960Y-14582569D01*
X15539960Y-14582569D02*
X15559008Y-14592093D01*
X15559008Y-14592093D02*
X15568531Y-14611141D01*
X15568531Y-14611141D02*
X15568531Y-14630188D01*
X15568531Y-14630188D02*
X15473293Y-14649236D01*
X15644722Y-14706379D02*
X15663769Y-14715903D01*
X15663769Y-14715903D02*
X15701865Y-14715903D01*
X15701865Y-14715903D02*
X15720912Y-14706379D01*
X15720912Y-14706379D02*
X15730436Y-14687331D01*
X15730436Y-14687331D02*
X15730436Y-14677807D01*
X15730436Y-14677807D02*
X15720912Y-14658760D01*
X15720912Y-14658760D02*
X15701865Y-14649236D01*
X15701865Y-14649236D02*
X15673293Y-14649236D01*
X15673293Y-14649236D02*
X15654246Y-14639712D01*
X15654246Y-14639712D02*
X15644722Y-14620665D01*
X15644722Y-14620665D02*
X15644722Y-14611141D01*
X15644722Y-14611141D02*
X15654246Y-14592093D01*
X15654246Y-14592093D02*
X15673293Y-14582569D01*
X15673293Y-14582569D02*
X15701865Y-14582569D01*
X15701865Y-14582569D02*
X15720912Y-14592093D01*
X15797103Y-14792093D02*
X15806627Y-14782569D01*
X15806627Y-14782569D02*
X15825674Y-14753998D01*
X15825674Y-14753998D02*
X15835198Y-14734950D01*
X15835198Y-14734950D02*
X15844722Y-14706379D01*
X15844722Y-14706379D02*
X15854246Y-14658760D01*
X15854246Y-14658760D02*
X15854246Y-14620665D01*
X15854246Y-14620665D02*
X15844722Y-14573046D01*
X15844722Y-14573046D02*
X15835198Y-14544474D01*
X15835198Y-14544474D02*
X15825674Y-14525427D01*
X15825674Y-14525427D02*
X15806627Y-14496855D01*
X15806627Y-14496855D02*
X15797103Y-14487331D01*
D11*
X10922040Y-14838419D02*
X11022040Y-14938419D01*
X11022040Y-14838419D02*
X10922040Y-14938419D01*
X10972040Y-14838419D02*
X10972040Y-14938419D01*
X10922040Y-14888419D02*
X11022040Y-14888419D01*
D10*
X11387579Y-14979903D02*
X11273293Y-14979903D01*
X11330436Y-14979903D02*
X11330436Y-14779903D01*
X11330436Y-14779903D02*
X11311388Y-14808474D01*
X11311388Y-14808474D02*
X11292340Y-14827522D01*
X11292340Y-14827522D02*
X11273293Y-14837046D01*
X11473293Y-14960855D02*
X11482817Y-14970379D01*
X11482817Y-14970379D02*
X11473293Y-14979903D01*
X11473293Y-14979903D02*
X11463769Y-14970379D01*
X11463769Y-14970379D02*
X11473293Y-14960855D01*
X11473293Y-14960855D02*
X11473293Y-14979903D01*
X11606626Y-14779903D02*
X11625674Y-14779903D01*
X11625674Y-14779903D02*
X11644721Y-14789427D01*
X11644721Y-14789427D02*
X11654245Y-14798950D01*
X11654245Y-14798950D02*
X11663769Y-14817998D01*
X11663769Y-14817998D02*
X11673293Y-14856093D01*
X11673293Y-14856093D02*
X11673293Y-14903712D01*
X11673293Y-14903712D02*
X11663769Y-14941807D01*
X11663769Y-14941807D02*
X11654245Y-14960855D01*
X11654245Y-14960855D02*
X11644721Y-14970379D01*
X11644721Y-14970379D02*
X11625674Y-14979903D01*
X11625674Y-14979903D02*
X11606626Y-14979903D01*
X11606626Y-14979903D02*
X11587579Y-14970379D01*
X11587579Y-14970379D02*
X11578055Y-14960855D01*
X11578055Y-14960855D02*
X11568531Y-14941807D01*
X11568531Y-14941807D02*
X11559007Y-14903712D01*
X11559007Y-14903712D02*
X11559007Y-14856093D01*
X11559007Y-14856093D02*
X11568531Y-14817998D01*
X11568531Y-14817998D02*
X11578055Y-14798950D01*
X11578055Y-14798950D02*
X11587579Y-14789427D01*
X11587579Y-14789427D02*
X11606626Y-14779903D01*
X11797102Y-14779903D02*
X11816150Y-14779903D01*
X11816150Y-14779903D02*
X11835198Y-14789427D01*
X11835198Y-14789427D02*
X11844721Y-14798950D01*
X11844721Y-14798950D02*
X11854245Y-14817998D01*
X11854245Y-14817998D02*
X11863769Y-14856093D01*
X11863769Y-14856093D02*
X11863769Y-14903712D01*
X11863769Y-14903712D02*
X11854245Y-14941807D01*
X11854245Y-14941807D02*
X11844721Y-14960855D01*
X11844721Y-14960855D02*
X11835198Y-14970379D01*
X11835198Y-14970379D02*
X11816150Y-14979903D01*
X11816150Y-14979903D02*
X11797102Y-14979903D01*
X11797102Y-14979903D02*
X11778055Y-14970379D01*
X11778055Y-14970379D02*
X11768531Y-14960855D01*
X11768531Y-14960855D02*
X11759007Y-14941807D01*
X11759007Y-14941807D02*
X11749483Y-14903712D01*
X11749483Y-14903712D02*
X11749483Y-14856093D01*
X11749483Y-14856093D02*
X11759007Y-14817998D01*
X11759007Y-14817998D02*
X11768531Y-14798950D01*
X11768531Y-14798950D02*
X11778055Y-14789427D01*
X11778055Y-14789427D02*
X11797102Y-14779903D01*
X11987579Y-14779903D02*
X12006626Y-14779903D01*
X12006626Y-14779903D02*
X12025674Y-14789427D01*
X12025674Y-14789427D02*
X12035198Y-14798950D01*
X12035198Y-14798950D02*
X12044721Y-14817998D01*
X12044721Y-14817998D02*
X12054245Y-14856093D01*
X12054245Y-14856093D02*
X12054245Y-14903712D01*
X12054245Y-14903712D02*
X12044721Y-14941807D01*
X12044721Y-14941807D02*
X12035198Y-14960855D01*
X12035198Y-14960855D02*
X12025674Y-14970379D01*
X12025674Y-14970379D02*
X12006626Y-14979903D01*
X12006626Y-14979903D02*
X11987579Y-14979903D01*
X11987579Y-14979903D02*
X11968531Y-14970379D01*
X11968531Y-14970379D02*
X11959007Y-14960855D01*
X11959007Y-14960855D02*
X11949483Y-14941807D01*
X11949483Y-14941807D02*
X11939960Y-14903712D01*
X11939960Y-14903712D02*
X11939960Y-14856093D01*
X11939960Y-14856093D02*
X11949483Y-14817998D01*
X11949483Y-14817998D02*
X11959007Y-14798950D01*
X11959007Y-14798950D02*
X11968531Y-14789427D01*
X11968531Y-14789427D02*
X11987579Y-14779903D01*
X12139960Y-14979903D02*
X12139960Y-14846569D01*
X12139960Y-14865617D02*
X12149483Y-14856093D01*
X12149483Y-14856093D02*
X12168531Y-14846569D01*
X12168531Y-14846569D02*
X12197102Y-14846569D01*
X12197102Y-14846569D02*
X12216150Y-14856093D01*
X12216150Y-14856093D02*
X12225674Y-14875141D01*
X12225674Y-14875141D02*
X12225674Y-14979903D01*
X12225674Y-14875141D02*
X12235198Y-14856093D01*
X12235198Y-14856093D02*
X12254245Y-14846569D01*
X12254245Y-14846569D02*
X12282817Y-14846569D01*
X12282817Y-14846569D02*
X12301864Y-14856093D01*
X12301864Y-14856093D02*
X12311388Y-14875141D01*
X12311388Y-14875141D02*
X12311388Y-14979903D01*
X12406626Y-14979903D02*
X12406626Y-14846569D01*
X12406626Y-14865617D02*
X12416150Y-14856093D01*
X12416150Y-14856093D02*
X12435198Y-14846569D01*
X12435198Y-14846569D02*
X12463769Y-14846569D01*
X12463769Y-14846569D02*
X12482817Y-14856093D01*
X12482817Y-14856093D02*
X12492341Y-14875141D01*
X12492341Y-14875141D02*
X12492341Y-14979903D01*
X12492341Y-14875141D02*
X12501864Y-14856093D01*
X12501864Y-14856093D02*
X12520912Y-14846569D01*
X12520912Y-14846569D02*
X12549483Y-14846569D01*
X12549483Y-14846569D02*
X12568531Y-14856093D01*
X12568531Y-14856093D02*
X12578055Y-14875141D01*
X12578055Y-14875141D02*
X12578055Y-14979903D01*
X12968531Y-14770379D02*
X12797103Y-15027522D01*
X13225674Y-14779903D02*
X13244722Y-14779903D01*
X13244722Y-14779903D02*
X13263769Y-14789427D01*
X13263769Y-14789427D02*
X13273293Y-14798950D01*
X13273293Y-14798950D02*
X13282817Y-14817998D01*
X13282817Y-14817998D02*
X13292341Y-14856093D01*
X13292341Y-14856093D02*
X13292341Y-14903712D01*
X13292341Y-14903712D02*
X13282817Y-14941807D01*
X13282817Y-14941807D02*
X13273293Y-14960855D01*
X13273293Y-14960855D02*
X13263769Y-14970379D01*
X13263769Y-14970379D02*
X13244722Y-14979903D01*
X13244722Y-14979903D02*
X13225674Y-14979903D01*
X13225674Y-14979903D02*
X13206626Y-14970379D01*
X13206626Y-14970379D02*
X13197103Y-14960855D01*
X13197103Y-14960855D02*
X13187579Y-14941807D01*
X13187579Y-14941807D02*
X13178055Y-14903712D01*
X13178055Y-14903712D02*
X13178055Y-14856093D01*
X13178055Y-14856093D02*
X13187579Y-14817998D01*
X13187579Y-14817998D02*
X13197103Y-14798950D01*
X13197103Y-14798950D02*
X13206626Y-14789427D01*
X13206626Y-14789427D02*
X13225674Y-14779903D01*
X13378055Y-14960855D02*
X13387579Y-14970379D01*
X13387579Y-14970379D02*
X13378055Y-14979903D01*
X13378055Y-14979903D02*
X13368531Y-14970379D01*
X13368531Y-14970379D02*
X13378055Y-14960855D01*
X13378055Y-14960855D02*
X13378055Y-14979903D01*
X13511388Y-14779903D02*
X13530436Y-14779903D01*
X13530436Y-14779903D02*
X13549484Y-14789427D01*
X13549484Y-14789427D02*
X13559007Y-14798950D01*
X13559007Y-14798950D02*
X13568531Y-14817998D01*
X13568531Y-14817998D02*
X13578055Y-14856093D01*
X13578055Y-14856093D02*
X13578055Y-14903712D01*
X13578055Y-14903712D02*
X13568531Y-14941807D01*
X13568531Y-14941807D02*
X13559007Y-14960855D01*
X13559007Y-14960855D02*
X13549484Y-14970379D01*
X13549484Y-14970379D02*
X13530436Y-14979903D01*
X13530436Y-14979903D02*
X13511388Y-14979903D01*
X13511388Y-14979903D02*
X13492341Y-14970379D01*
X13492341Y-14970379D02*
X13482817Y-14960855D01*
X13482817Y-14960855D02*
X13473293Y-14941807D01*
X13473293Y-14941807D02*
X13463769Y-14903712D01*
X13463769Y-14903712D02*
X13463769Y-14856093D01*
X13463769Y-14856093D02*
X13473293Y-14817998D01*
X13473293Y-14817998D02*
X13482817Y-14798950D01*
X13482817Y-14798950D02*
X13492341Y-14789427D01*
X13492341Y-14789427D02*
X13511388Y-14779903D01*
X13644722Y-14779903D02*
X13768531Y-14779903D01*
X13768531Y-14779903D02*
X13701864Y-14856093D01*
X13701864Y-14856093D02*
X13730436Y-14856093D01*
X13730436Y-14856093D02*
X13749484Y-14865617D01*
X13749484Y-14865617D02*
X13759007Y-14875141D01*
X13759007Y-14875141D02*
X13768531Y-14894188D01*
X13768531Y-14894188D02*
X13768531Y-14941807D01*
X13768531Y-14941807D02*
X13759007Y-14960855D01*
X13759007Y-14960855D02*
X13749484Y-14970379D01*
X13749484Y-14970379D02*
X13730436Y-14979903D01*
X13730436Y-14979903D02*
X13673293Y-14979903D01*
X13673293Y-14979903D02*
X13654245Y-14970379D01*
X13654245Y-14970379D02*
X13644722Y-14960855D01*
X13863769Y-14979903D02*
X13901864Y-14979903D01*
X13901864Y-14979903D02*
X13920912Y-14970379D01*
X13920912Y-14970379D02*
X13930436Y-14960855D01*
X13930436Y-14960855D02*
X13949484Y-14932284D01*
X13949484Y-14932284D02*
X13959007Y-14894188D01*
X13959007Y-14894188D02*
X13959007Y-14817998D01*
X13959007Y-14817998D02*
X13949484Y-14798950D01*
X13949484Y-14798950D02*
X13939960Y-14789427D01*
X13939960Y-14789427D02*
X13920912Y-14779903D01*
X13920912Y-14779903D02*
X13882817Y-14779903D01*
X13882817Y-14779903D02*
X13863769Y-14789427D01*
X13863769Y-14789427D02*
X13854245Y-14798950D01*
X13854245Y-14798950D02*
X13844722Y-14817998D01*
X13844722Y-14817998D02*
X13844722Y-14865617D01*
X13844722Y-14865617D02*
X13854245Y-14884665D01*
X13854245Y-14884665D02*
X13863769Y-14894188D01*
X13863769Y-14894188D02*
X13882817Y-14903712D01*
X13882817Y-14903712D02*
X13920912Y-14903712D01*
X13920912Y-14903712D02*
X13939960Y-14894188D01*
X13939960Y-14894188D02*
X13949484Y-14884665D01*
X13949484Y-14884665D02*
X13959007Y-14865617D01*
X14130436Y-14846569D02*
X14130436Y-14979903D01*
X14082817Y-14770379D02*
X14035198Y-14913236D01*
X14035198Y-14913236D02*
X14159007Y-14913236D01*
X14225674Y-14779903D02*
X14225674Y-14817998D01*
X14301865Y-14779903D02*
X14301865Y-14817998D01*
X14597103Y-15056093D02*
X14587579Y-15046569D01*
X14587579Y-15046569D02*
X14568531Y-15017998D01*
X14568531Y-15017998D02*
X14559007Y-14998950D01*
X14559007Y-14998950D02*
X14549484Y-14970379D01*
X14549484Y-14970379D02*
X14539960Y-14922760D01*
X14539960Y-14922760D02*
X14539960Y-14884665D01*
X14539960Y-14884665D02*
X14549484Y-14837046D01*
X14549484Y-14837046D02*
X14559007Y-14808474D01*
X14559007Y-14808474D02*
X14568531Y-14789427D01*
X14568531Y-14789427D02*
X14587579Y-14760855D01*
X14587579Y-14760855D02*
X14597103Y-14751331D01*
X14778055Y-14979903D02*
X14663769Y-14979903D01*
X14720912Y-14979903D02*
X14720912Y-14779903D01*
X14720912Y-14779903D02*
X14701865Y-14808474D01*
X14701865Y-14808474D02*
X14682817Y-14827522D01*
X14682817Y-14827522D02*
X14663769Y-14837046D01*
X14892341Y-14865617D02*
X14873293Y-14856093D01*
X14873293Y-14856093D02*
X14863769Y-14846569D01*
X14863769Y-14846569D02*
X14854246Y-14827522D01*
X14854246Y-14827522D02*
X14854246Y-14817998D01*
X14854246Y-14817998D02*
X14863769Y-14798950D01*
X14863769Y-14798950D02*
X14873293Y-14789427D01*
X14873293Y-14789427D02*
X14892341Y-14779903D01*
X14892341Y-14779903D02*
X14930436Y-14779903D01*
X14930436Y-14779903D02*
X14949484Y-14789427D01*
X14949484Y-14789427D02*
X14959007Y-14798950D01*
X14959007Y-14798950D02*
X14968531Y-14817998D01*
X14968531Y-14817998D02*
X14968531Y-14827522D01*
X14968531Y-14827522D02*
X14959007Y-14846569D01*
X14959007Y-14846569D02*
X14949484Y-14856093D01*
X14949484Y-14856093D02*
X14930436Y-14865617D01*
X14930436Y-14865617D02*
X14892341Y-14865617D01*
X14892341Y-14865617D02*
X14873293Y-14875141D01*
X14873293Y-14875141D02*
X14863769Y-14884665D01*
X14863769Y-14884665D02*
X14854246Y-14903712D01*
X14854246Y-14903712D02*
X14854246Y-14941807D01*
X14854246Y-14941807D02*
X14863769Y-14960855D01*
X14863769Y-14960855D02*
X14873293Y-14970379D01*
X14873293Y-14970379D02*
X14892341Y-14979903D01*
X14892341Y-14979903D02*
X14930436Y-14979903D01*
X14930436Y-14979903D02*
X14949484Y-14970379D01*
X14949484Y-14970379D02*
X14959007Y-14960855D01*
X14959007Y-14960855D02*
X14968531Y-14941807D01*
X14968531Y-14941807D02*
X14968531Y-14903712D01*
X14968531Y-14903712D02*
X14959007Y-14884665D01*
X14959007Y-14884665D02*
X14949484Y-14875141D01*
X14949484Y-14875141D02*
X14930436Y-14865617D01*
X15206627Y-14979903D02*
X15206627Y-14779903D01*
X15292341Y-14979903D02*
X15292341Y-14875141D01*
X15292341Y-14875141D02*
X15282817Y-14856093D01*
X15282817Y-14856093D02*
X15263769Y-14846569D01*
X15263769Y-14846569D02*
X15235198Y-14846569D01*
X15235198Y-14846569D02*
X15216150Y-14856093D01*
X15216150Y-14856093D02*
X15206627Y-14865617D01*
X15416150Y-14979903D02*
X15397103Y-14970379D01*
X15397103Y-14970379D02*
X15387579Y-14960855D01*
X15387579Y-14960855D02*
X15378055Y-14941807D01*
X15378055Y-14941807D02*
X15378055Y-14884665D01*
X15378055Y-14884665D02*
X15387579Y-14865617D01*
X15387579Y-14865617D02*
X15397103Y-14856093D01*
X15397103Y-14856093D02*
X15416150Y-14846569D01*
X15416150Y-14846569D02*
X15444722Y-14846569D01*
X15444722Y-14846569D02*
X15463769Y-14856093D01*
X15463769Y-14856093D02*
X15473293Y-14865617D01*
X15473293Y-14865617D02*
X15482817Y-14884665D01*
X15482817Y-14884665D02*
X15482817Y-14941807D01*
X15482817Y-14941807D02*
X15473293Y-14960855D01*
X15473293Y-14960855D02*
X15463769Y-14970379D01*
X15463769Y-14970379D02*
X15444722Y-14979903D01*
X15444722Y-14979903D02*
X15416150Y-14979903D01*
X15597103Y-14979903D02*
X15578055Y-14970379D01*
X15578055Y-14970379D02*
X15568531Y-14951331D01*
X15568531Y-14951331D02*
X15568531Y-14779903D01*
X15749484Y-14970379D02*
X15730436Y-14979903D01*
X15730436Y-14979903D02*
X15692341Y-14979903D01*
X15692341Y-14979903D02*
X15673293Y-14970379D01*
X15673293Y-14970379D02*
X15663769Y-14951331D01*
X15663769Y-14951331D02*
X15663769Y-14875141D01*
X15663769Y-14875141D02*
X15673293Y-14856093D01*
X15673293Y-14856093D02*
X15692341Y-14846569D01*
X15692341Y-14846569D02*
X15730436Y-14846569D01*
X15730436Y-14846569D02*
X15749484Y-14856093D01*
X15749484Y-14856093D02*
X15759008Y-14875141D01*
X15759008Y-14875141D02*
X15759008Y-14894188D01*
X15759008Y-14894188D02*
X15663769Y-14913236D01*
X15835198Y-14970379D02*
X15854246Y-14979903D01*
X15854246Y-14979903D02*
X15892341Y-14979903D01*
X15892341Y-14979903D02*
X15911389Y-14970379D01*
X15911389Y-14970379D02*
X15920912Y-14951331D01*
X15920912Y-14951331D02*
X15920912Y-14941807D01*
X15920912Y-14941807D02*
X15911389Y-14922760D01*
X15911389Y-14922760D02*
X15892341Y-14913236D01*
X15892341Y-14913236D02*
X15863769Y-14913236D01*
X15863769Y-14913236D02*
X15844722Y-14903712D01*
X15844722Y-14903712D02*
X15835198Y-14884665D01*
X15835198Y-14884665D02*
X15835198Y-14875141D01*
X15835198Y-14875141D02*
X15844722Y-14856093D01*
X15844722Y-14856093D02*
X15863769Y-14846569D01*
X15863769Y-14846569D02*
X15892341Y-14846569D01*
X15892341Y-14846569D02*
X15911389Y-14856093D01*
X15987579Y-15056093D02*
X15997103Y-15046569D01*
X15997103Y-15046569D02*
X16016150Y-15017998D01*
X16016150Y-15017998D02*
X16025674Y-14998950D01*
X16025674Y-14998950D02*
X16035198Y-14970379D01*
X16035198Y-14970379D02*
X16044722Y-14922760D01*
X16044722Y-14922760D02*
X16044722Y-14884665D01*
X16044722Y-14884665D02*
X16035198Y-14837046D01*
X16035198Y-14837046D02*
X16025674Y-14808474D01*
X16025674Y-14808474D02*
X16016150Y-14789427D01*
X16016150Y-14789427D02*
X15997103Y-14760855D01*
X15997103Y-14760855D02*
X15987579Y-14751331D01*
X10822040Y-15052419D02*
X11022040Y-15252419D01*
X11022040Y-15052419D02*
X10822040Y-15252419D01*
X10992751Y-15223130D02*
X10992751Y-15081708D01*
X10851329Y-15081708D01*
X10851329Y-15223130D01*
X10992751Y-15223130D01*
X11273293Y-15062950D02*
X11282817Y-15053427D01*
X11282817Y-15053427D02*
X11301864Y-15043903D01*
X11301864Y-15043903D02*
X11349483Y-15043903D01*
X11349483Y-15043903D02*
X11368531Y-15053427D01*
X11368531Y-15053427D02*
X11378055Y-15062950D01*
X11378055Y-15062950D02*
X11387579Y-15081998D01*
X11387579Y-15081998D02*
X11387579Y-15101046D01*
X11387579Y-15101046D02*
X11378055Y-15129617D01*
X11378055Y-15129617D02*
X11263769Y-15243903D01*
X11263769Y-15243903D02*
X11387579Y-15243903D01*
X11473293Y-15224855D02*
X11482817Y-15234379D01*
X11482817Y-15234379D02*
X11473293Y-15243903D01*
X11473293Y-15243903D02*
X11463769Y-15234379D01*
X11463769Y-15234379D02*
X11473293Y-15224855D01*
X11473293Y-15224855D02*
X11473293Y-15243903D01*
X11663769Y-15043903D02*
X11568531Y-15043903D01*
X11568531Y-15043903D02*
X11559007Y-15139141D01*
X11559007Y-15139141D02*
X11568531Y-15129617D01*
X11568531Y-15129617D02*
X11587579Y-15120093D01*
X11587579Y-15120093D02*
X11635198Y-15120093D01*
X11635198Y-15120093D02*
X11654245Y-15129617D01*
X11654245Y-15129617D02*
X11663769Y-15139141D01*
X11663769Y-15139141D02*
X11673293Y-15158188D01*
X11673293Y-15158188D02*
X11673293Y-15205807D01*
X11673293Y-15205807D02*
X11663769Y-15224855D01*
X11663769Y-15224855D02*
X11654245Y-15234379D01*
X11654245Y-15234379D02*
X11635198Y-15243903D01*
X11635198Y-15243903D02*
X11587579Y-15243903D01*
X11587579Y-15243903D02*
X11568531Y-15234379D01*
X11568531Y-15234379D02*
X11559007Y-15224855D01*
X11797102Y-15043903D02*
X11816150Y-15043903D01*
X11816150Y-15043903D02*
X11835198Y-15053427D01*
X11835198Y-15053427D02*
X11844721Y-15062950D01*
X11844721Y-15062950D02*
X11854245Y-15081998D01*
X11854245Y-15081998D02*
X11863769Y-15120093D01*
X11863769Y-15120093D02*
X11863769Y-15167712D01*
X11863769Y-15167712D02*
X11854245Y-15205807D01*
X11854245Y-15205807D02*
X11844721Y-15224855D01*
X11844721Y-15224855D02*
X11835198Y-15234379D01*
X11835198Y-15234379D02*
X11816150Y-15243903D01*
X11816150Y-15243903D02*
X11797102Y-15243903D01*
X11797102Y-15243903D02*
X11778055Y-15234379D01*
X11778055Y-15234379D02*
X11768531Y-15224855D01*
X11768531Y-15224855D02*
X11759007Y-15205807D01*
X11759007Y-15205807D02*
X11749483Y-15167712D01*
X11749483Y-15167712D02*
X11749483Y-15120093D01*
X11749483Y-15120093D02*
X11759007Y-15081998D01*
X11759007Y-15081998D02*
X11768531Y-15062950D01*
X11768531Y-15062950D02*
X11778055Y-15053427D01*
X11778055Y-15053427D02*
X11797102Y-15043903D01*
X11987579Y-15043903D02*
X12006626Y-15043903D01*
X12006626Y-15043903D02*
X12025674Y-15053427D01*
X12025674Y-15053427D02*
X12035198Y-15062950D01*
X12035198Y-15062950D02*
X12044721Y-15081998D01*
X12044721Y-15081998D02*
X12054245Y-15120093D01*
X12054245Y-15120093D02*
X12054245Y-15167712D01*
X12054245Y-15167712D02*
X12044721Y-15205807D01*
X12044721Y-15205807D02*
X12035198Y-15224855D01*
X12035198Y-15224855D02*
X12025674Y-15234379D01*
X12025674Y-15234379D02*
X12006626Y-15243903D01*
X12006626Y-15243903D02*
X11987579Y-15243903D01*
X11987579Y-15243903D02*
X11968531Y-15234379D01*
X11968531Y-15234379D02*
X11959007Y-15224855D01*
X11959007Y-15224855D02*
X11949483Y-15205807D01*
X11949483Y-15205807D02*
X11939960Y-15167712D01*
X11939960Y-15167712D02*
X11939960Y-15120093D01*
X11939960Y-15120093D02*
X11949483Y-15081998D01*
X11949483Y-15081998D02*
X11959007Y-15062950D01*
X11959007Y-15062950D02*
X11968531Y-15053427D01*
X11968531Y-15053427D02*
X11987579Y-15043903D01*
X12139960Y-15243903D02*
X12139960Y-15110569D01*
X12139960Y-15129617D02*
X12149483Y-15120093D01*
X12149483Y-15120093D02*
X12168531Y-15110569D01*
X12168531Y-15110569D02*
X12197102Y-15110569D01*
X12197102Y-15110569D02*
X12216150Y-15120093D01*
X12216150Y-15120093D02*
X12225674Y-15139141D01*
X12225674Y-15139141D02*
X12225674Y-15243903D01*
X12225674Y-15139141D02*
X12235198Y-15120093D01*
X12235198Y-15120093D02*
X12254245Y-15110569D01*
X12254245Y-15110569D02*
X12282817Y-15110569D01*
X12282817Y-15110569D02*
X12301864Y-15120093D01*
X12301864Y-15120093D02*
X12311388Y-15139141D01*
X12311388Y-15139141D02*
X12311388Y-15243903D01*
X12406626Y-15243903D02*
X12406626Y-15110569D01*
X12406626Y-15129617D02*
X12416150Y-15120093D01*
X12416150Y-15120093D02*
X12435198Y-15110569D01*
X12435198Y-15110569D02*
X12463769Y-15110569D01*
X12463769Y-15110569D02*
X12482817Y-15120093D01*
X12482817Y-15120093D02*
X12492341Y-15139141D01*
X12492341Y-15139141D02*
X12492341Y-15243903D01*
X12492341Y-15139141D02*
X12501864Y-15120093D01*
X12501864Y-15120093D02*
X12520912Y-15110569D01*
X12520912Y-15110569D02*
X12549483Y-15110569D01*
X12549483Y-15110569D02*
X12568531Y-15120093D01*
X12568531Y-15120093D02*
X12578055Y-15139141D01*
X12578055Y-15139141D02*
X12578055Y-15243903D01*
X12968531Y-15034379D02*
X12797103Y-15291522D01*
X13225674Y-15043903D02*
X13244722Y-15043903D01*
X13244722Y-15043903D02*
X13263769Y-15053427D01*
X13263769Y-15053427D02*
X13273293Y-15062950D01*
X13273293Y-15062950D02*
X13282817Y-15081998D01*
X13282817Y-15081998D02*
X13292341Y-15120093D01*
X13292341Y-15120093D02*
X13292341Y-15167712D01*
X13292341Y-15167712D02*
X13282817Y-15205807D01*
X13282817Y-15205807D02*
X13273293Y-15224855D01*
X13273293Y-15224855D02*
X13263769Y-15234379D01*
X13263769Y-15234379D02*
X13244722Y-15243903D01*
X13244722Y-15243903D02*
X13225674Y-15243903D01*
X13225674Y-15243903D02*
X13206626Y-15234379D01*
X13206626Y-15234379D02*
X13197103Y-15224855D01*
X13197103Y-15224855D02*
X13187579Y-15205807D01*
X13187579Y-15205807D02*
X13178055Y-15167712D01*
X13178055Y-15167712D02*
X13178055Y-15120093D01*
X13178055Y-15120093D02*
X13187579Y-15081998D01*
X13187579Y-15081998D02*
X13197103Y-15062950D01*
X13197103Y-15062950D02*
X13206626Y-15053427D01*
X13206626Y-15053427D02*
X13225674Y-15043903D01*
X13378055Y-15224855D02*
X13387579Y-15234379D01*
X13387579Y-15234379D02*
X13378055Y-15243903D01*
X13378055Y-15243903D02*
X13368531Y-15234379D01*
X13368531Y-15234379D02*
X13378055Y-15224855D01*
X13378055Y-15224855D02*
X13378055Y-15243903D01*
X13511388Y-15043903D02*
X13530436Y-15043903D01*
X13530436Y-15043903D02*
X13549484Y-15053427D01*
X13549484Y-15053427D02*
X13559007Y-15062950D01*
X13559007Y-15062950D02*
X13568531Y-15081998D01*
X13568531Y-15081998D02*
X13578055Y-15120093D01*
X13578055Y-15120093D02*
X13578055Y-15167712D01*
X13578055Y-15167712D02*
X13568531Y-15205807D01*
X13568531Y-15205807D02*
X13559007Y-15224855D01*
X13559007Y-15224855D02*
X13549484Y-15234379D01*
X13549484Y-15234379D02*
X13530436Y-15243903D01*
X13530436Y-15243903D02*
X13511388Y-15243903D01*
X13511388Y-15243903D02*
X13492341Y-15234379D01*
X13492341Y-15234379D02*
X13482817Y-15224855D01*
X13482817Y-15224855D02*
X13473293Y-15205807D01*
X13473293Y-15205807D02*
X13463769Y-15167712D01*
X13463769Y-15167712D02*
X13463769Y-15120093D01*
X13463769Y-15120093D02*
X13473293Y-15081998D01*
X13473293Y-15081998D02*
X13482817Y-15062950D01*
X13482817Y-15062950D02*
X13492341Y-15053427D01*
X13492341Y-15053427D02*
X13511388Y-15043903D01*
X13673293Y-15243903D02*
X13711388Y-15243903D01*
X13711388Y-15243903D02*
X13730436Y-15234379D01*
X13730436Y-15234379D02*
X13739960Y-15224855D01*
X13739960Y-15224855D02*
X13759007Y-15196284D01*
X13759007Y-15196284D02*
X13768531Y-15158188D01*
X13768531Y-15158188D02*
X13768531Y-15081998D01*
X13768531Y-15081998D02*
X13759007Y-15062950D01*
X13759007Y-15062950D02*
X13749484Y-15053427D01*
X13749484Y-15053427D02*
X13730436Y-15043903D01*
X13730436Y-15043903D02*
X13692341Y-15043903D01*
X13692341Y-15043903D02*
X13673293Y-15053427D01*
X13673293Y-15053427D02*
X13663769Y-15062950D01*
X13663769Y-15062950D02*
X13654245Y-15081998D01*
X13654245Y-15081998D02*
X13654245Y-15129617D01*
X13654245Y-15129617D02*
X13663769Y-15148665D01*
X13663769Y-15148665D02*
X13673293Y-15158188D01*
X13673293Y-15158188D02*
X13692341Y-15167712D01*
X13692341Y-15167712D02*
X13730436Y-15167712D01*
X13730436Y-15167712D02*
X13749484Y-15158188D01*
X13749484Y-15158188D02*
X13759007Y-15148665D01*
X13759007Y-15148665D02*
X13768531Y-15129617D01*
X13882817Y-15129617D02*
X13863769Y-15120093D01*
X13863769Y-15120093D02*
X13854245Y-15110569D01*
X13854245Y-15110569D02*
X13844722Y-15091522D01*
X13844722Y-15091522D02*
X13844722Y-15081998D01*
X13844722Y-15081998D02*
X13854245Y-15062950D01*
X13854245Y-15062950D02*
X13863769Y-15053427D01*
X13863769Y-15053427D02*
X13882817Y-15043903D01*
X13882817Y-15043903D02*
X13920912Y-15043903D01*
X13920912Y-15043903D02*
X13939960Y-15053427D01*
X13939960Y-15053427D02*
X13949484Y-15062950D01*
X13949484Y-15062950D02*
X13959007Y-15081998D01*
X13959007Y-15081998D02*
X13959007Y-15091522D01*
X13959007Y-15091522D02*
X13949484Y-15110569D01*
X13949484Y-15110569D02*
X13939960Y-15120093D01*
X13939960Y-15120093D02*
X13920912Y-15129617D01*
X13920912Y-15129617D02*
X13882817Y-15129617D01*
X13882817Y-15129617D02*
X13863769Y-15139141D01*
X13863769Y-15139141D02*
X13854245Y-15148665D01*
X13854245Y-15148665D02*
X13844722Y-15167712D01*
X13844722Y-15167712D02*
X13844722Y-15205807D01*
X13844722Y-15205807D02*
X13854245Y-15224855D01*
X13854245Y-15224855D02*
X13863769Y-15234379D01*
X13863769Y-15234379D02*
X13882817Y-15243903D01*
X13882817Y-15243903D02*
X13920912Y-15243903D01*
X13920912Y-15243903D02*
X13939960Y-15234379D01*
X13939960Y-15234379D02*
X13949484Y-15224855D01*
X13949484Y-15224855D02*
X13959007Y-15205807D01*
X13959007Y-15205807D02*
X13959007Y-15167712D01*
X13959007Y-15167712D02*
X13949484Y-15148665D01*
X13949484Y-15148665D02*
X13939960Y-15139141D01*
X13939960Y-15139141D02*
X13920912Y-15129617D01*
X14130436Y-15110569D02*
X14130436Y-15243903D01*
X14082817Y-15034379D02*
X14035198Y-15177236D01*
X14035198Y-15177236D02*
X14159007Y-15177236D01*
X14225674Y-15043903D02*
X14225674Y-15081998D01*
X14301865Y-15043903D02*
X14301865Y-15081998D01*
X14597103Y-15320093D02*
X14587579Y-15310569D01*
X14587579Y-15310569D02*
X14568531Y-15281998D01*
X14568531Y-15281998D02*
X14559007Y-15262950D01*
X14559007Y-15262950D02*
X14549484Y-15234379D01*
X14549484Y-15234379D02*
X14539960Y-15186760D01*
X14539960Y-15186760D02*
X14539960Y-15148665D01*
X14539960Y-15148665D02*
X14549484Y-15101046D01*
X14549484Y-15101046D02*
X14559007Y-15072474D01*
X14559007Y-15072474D02*
X14568531Y-15053427D01*
X14568531Y-15053427D02*
X14587579Y-15024855D01*
X14587579Y-15024855D02*
X14597103Y-15015331D01*
X14711388Y-15043903D02*
X14730436Y-15043903D01*
X14730436Y-15043903D02*
X14749484Y-15053427D01*
X14749484Y-15053427D02*
X14759007Y-15062950D01*
X14759007Y-15062950D02*
X14768531Y-15081998D01*
X14768531Y-15081998D02*
X14778055Y-15120093D01*
X14778055Y-15120093D02*
X14778055Y-15167712D01*
X14778055Y-15167712D02*
X14768531Y-15205807D01*
X14768531Y-15205807D02*
X14759007Y-15224855D01*
X14759007Y-15224855D02*
X14749484Y-15234379D01*
X14749484Y-15234379D02*
X14730436Y-15243903D01*
X14730436Y-15243903D02*
X14711388Y-15243903D01*
X14711388Y-15243903D02*
X14692341Y-15234379D01*
X14692341Y-15234379D02*
X14682817Y-15224855D01*
X14682817Y-15224855D02*
X14673293Y-15205807D01*
X14673293Y-15205807D02*
X14663769Y-15167712D01*
X14663769Y-15167712D02*
X14663769Y-15120093D01*
X14663769Y-15120093D02*
X14673293Y-15081998D01*
X14673293Y-15081998D02*
X14682817Y-15062950D01*
X14682817Y-15062950D02*
X14692341Y-15053427D01*
X14692341Y-15053427D02*
X14711388Y-15043903D01*
X15016150Y-15243903D02*
X15016150Y-15043903D01*
X15101865Y-15243903D02*
X15101865Y-15139141D01*
X15101865Y-15139141D02*
X15092341Y-15120093D01*
X15092341Y-15120093D02*
X15073293Y-15110569D01*
X15073293Y-15110569D02*
X15044722Y-15110569D01*
X15044722Y-15110569D02*
X15025674Y-15120093D01*
X15025674Y-15120093D02*
X15016150Y-15129617D01*
X15225674Y-15243903D02*
X15206627Y-15234379D01*
X15206627Y-15234379D02*
X15197103Y-15224855D01*
X15197103Y-15224855D02*
X15187579Y-15205807D01*
X15187579Y-15205807D02*
X15187579Y-15148665D01*
X15187579Y-15148665D02*
X15197103Y-15129617D01*
X15197103Y-15129617D02*
X15206627Y-15120093D01*
X15206627Y-15120093D02*
X15225674Y-15110569D01*
X15225674Y-15110569D02*
X15254246Y-15110569D01*
X15254246Y-15110569D02*
X15273293Y-15120093D01*
X15273293Y-15120093D02*
X15282817Y-15129617D01*
X15282817Y-15129617D02*
X15292341Y-15148665D01*
X15292341Y-15148665D02*
X15292341Y-15205807D01*
X15292341Y-15205807D02*
X15282817Y-15224855D01*
X15282817Y-15224855D02*
X15273293Y-15234379D01*
X15273293Y-15234379D02*
X15254246Y-15243903D01*
X15254246Y-15243903D02*
X15225674Y-15243903D01*
X15406627Y-15243903D02*
X15387579Y-15234379D01*
X15387579Y-15234379D02*
X15378055Y-15215331D01*
X15378055Y-15215331D02*
X15378055Y-15043903D01*
X15559008Y-15234379D02*
X15539960Y-15243903D01*
X15539960Y-15243903D02*
X15501865Y-15243903D01*
X15501865Y-15243903D02*
X15482817Y-15234379D01*
X15482817Y-15234379D02*
X15473293Y-15215331D01*
X15473293Y-15215331D02*
X15473293Y-15139141D01*
X15473293Y-15139141D02*
X15482817Y-15120093D01*
X15482817Y-15120093D02*
X15501865Y-15110569D01*
X15501865Y-15110569D02*
X15539960Y-15110569D01*
X15539960Y-15110569D02*
X15559008Y-15120093D01*
X15559008Y-15120093D02*
X15568531Y-15139141D01*
X15568531Y-15139141D02*
X15568531Y-15158188D01*
X15568531Y-15158188D02*
X15473293Y-15177236D01*
X15644722Y-15234379D02*
X15663769Y-15243903D01*
X15663769Y-15243903D02*
X15701865Y-15243903D01*
X15701865Y-15243903D02*
X15720912Y-15234379D01*
X15720912Y-15234379D02*
X15730436Y-15215331D01*
X15730436Y-15215331D02*
X15730436Y-15205807D01*
X15730436Y-15205807D02*
X15720912Y-15186760D01*
X15720912Y-15186760D02*
X15701865Y-15177236D01*
X15701865Y-15177236D02*
X15673293Y-15177236D01*
X15673293Y-15177236D02*
X15654246Y-15167712D01*
X15654246Y-15167712D02*
X15644722Y-15148665D01*
X15644722Y-15148665D02*
X15644722Y-15139141D01*
X15644722Y-15139141D02*
X15654246Y-15120093D01*
X15654246Y-15120093D02*
X15673293Y-15110569D01*
X15673293Y-15110569D02*
X15701865Y-15110569D01*
X15701865Y-15110569D02*
X15720912Y-15120093D01*
X15968531Y-15167712D02*
X16120912Y-15167712D01*
X16044722Y-15243903D02*
X16044722Y-15091522D01*
X16397103Y-15129617D02*
X16378055Y-15120093D01*
X16378055Y-15120093D02*
X16368531Y-15110569D01*
X16368531Y-15110569D02*
X16359008Y-15091522D01*
X16359008Y-15091522D02*
X16359008Y-15081998D01*
X16359008Y-15081998D02*
X16368531Y-15062950D01*
X16368531Y-15062950D02*
X16378055Y-15053427D01*
X16378055Y-15053427D02*
X16397103Y-15043903D01*
X16397103Y-15043903D02*
X16435198Y-15043903D01*
X16435198Y-15043903D02*
X16454246Y-15053427D01*
X16454246Y-15053427D02*
X16463770Y-15062950D01*
X16463770Y-15062950D02*
X16473293Y-15081998D01*
X16473293Y-15081998D02*
X16473293Y-15091522D01*
X16473293Y-15091522D02*
X16463770Y-15110569D01*
X16463770Y-15110569D02*
X16454246Y-15120093D01*
X16454246Y-15120093D02*
X16435198Y-15129617D01*
X16435198Y-15129617D02*
X16397103Y-15129617D01*
X16397103Y-15129617D02*
X16378055Y-15139141D01*
X16378055Y-15139141D02*
X16368531Y-15148665D01*
X16368531Y-15148665D02*
X16359008Y-15167712D01*
X16359008Y-15167712D02*
X16359008Y-15205807D01*
X16359008Y-15205807D02*
X16368531Y-15224855D01*
X16368531Y-15224855D02*
X16378055Y-15234379D01*
X16378055Y-15234379D02*
X16397103Y-15243903D01*
X16397103Y-15243903D02*
X16435198Y-15243903D01*
X16435198Y-15243903D02*
X16454246Y-15234379D01*
X16454246Y-15234379D02*
X16463770Y-15224855D01*
X16463770Y-15224855D02*
X16473293Y-15205807D01*
X16473293Y-15205807D02*
X16473293Y-15167712D01*
X16473293Y-15167712D02*
X16463770Y-15148665D01*
X16463770Y-15148665D02*
X16454246Y-15139141D01*
X16454246Y-15139141D02*
X16435198Y-15129617D01*
X16701865Y-15234379D02*
X16720912Y-15243903D01*
X16720912Y-15243903D02*
X16759008Y-15243903D01*
X16759008Y-15243903D02*
X16778055Y-15234379D01*
X16778055Y-15234379D02*
X16787579Y-15215331D01*
X16787579Y-15215331D02*
X16787579Y-15205807D01*
X16787579Y-15205807D02*
X16778055Y-15186760D01*
X16778055Y-15186760D02*
X16759008Y-15177236D01*
X16759008Y-15177236D02*
X16730436Y-15177236D01*
X16730436Y-15177236D02*
X16711389Y-15167712D01*
X16711389Y-15167712D02*
X16701865Y-15148665D01*
X16701865Y-15148665D02*
X16701865Y-15139141D01*
X16701865Y-15139141D02*
X16711389Y-15120093D01*
X16711389Y-15120093D02*
X16730436Y-15110569D01*
X16730436Y-15110569D02*
X16759008Y-15110569D01*
X16759008Y-15110569D02*
X16778055Y-15120093D01*
X16901865Y-15243903D02*
X16882817Y-15234379D01*
X16882817Y-15234379D02*
X16873294Y-15215331D01*
X16873294Y-15215331D02*
X16873294Y-15043903D01*
X17006627Y-15243903D02*
X16987579Y-15234379D01*
X16987579Y-15234379D02*
X16978055Y-15224855D01*
X16978055Y-15224855D02*
X16968532Y-15205807D01*
X16968532Y-15205807D02*
X16968532Y-15148665D01*
X16968532Y-15148665D02*
X16978055Y-15129617D01*
X16978055Y-15129617D02*
X16987579Y-15120093D01*
X16987579Y-15120093D02*
X17006627Y-15110569D01*
X17006627Y-15110569D02*
X17035198Y-15110569D01*
X17035198Y-15110569D02*
X17054246Y-15120093D01*
X17054246Y-15120093D02*
X17063770Y-15129617D01*
X17063770Y-15129617D02*
X17073294Y-15148665D01*
X17073294Y-15148665D02*
X17073294Y-15205807D01*
X17073294Y-15205807D02*
X17063770Y-15224855D01*
X17063770Y-15224855D02*
X17054246Y-15234379D01*
X17054246Y-15234379D02*
X17035198Y-15243903D01*
X17035198Y-15243903D02*
X17006627Y-15243903D01*
X17130436Y-15110569D02*
X17206627Y-15110569D01*
X17159008Y-15043903D02*
X17159008Y-15215331D01*
X17159008Y-15215331D02*
X17168532Y-15234379D01*
X17168532Y-15234379D02*
X17187579Y-15243903D01*
X17187579Y-15243903D02*
X17206627Y-15243903D01*
X17263770Y-15234379D02*
X17282817Y-15243903D01*
X17282817Y-15243903D02*
X17320913Y-15243903D01*
X17320913Y-15243903D02*
X17339960Y-15234379D01*
X17339960Y-15234379D02*
X17349484Y-15215331D01*
X17349484Y-15215331D02*
X17349484Y-15205807D01*
X17349484Y-15205807D02*
X17339960Y-15186760D01*
X17339960Y-15186760D02*
X17320913Y-15177236D01*
X17320913Y-15177236D02*
X17292341Y-15177236D01*
X17292341Y-15177236D02*
X17273294Y-15167712D01*
X17273294Y-15167712D02*
X17263770Y-15148665D01*
X17263770Y-15148665D02*
X17263770Y-15139141D01*
X17263770Y-15139141D02*
X17273294Y-15120093D01*
X17273294Y-15120093D02*
X17292341Y-15110569D01*
X17292341Y-15110569D02*
X17320913Y-15110569D01*
X17320913Y-15110569D02*
X17339960Y-15120093D01*
X17416151Y-15320093D02*
X17425675Y-15310569D01*
X17425675Y-15310569D02*
X17444722Y-15281998D01*
X17444722Y-15281998D02*
X17454246Y-15262950D01*
X17454246Y-15262950D02*
X17463770Y-15234379D01*
X17463770Y-15234379D02*
X17473294Y-15186760D01*
X17473294Y-15186760D02*
X17473294Y-15148665D01*
X17473294Y-15148665D02*
X17463770Y-15101046D01*
X17463770Y-15101046D02*
X17454246Y-15072474D01*
X17454246Y-15072474D02*
X17444722Y-15053427D01*
X17444722Y-15053427D02*
X17425675Y-15024855D01*
X17425675Y-15024855D02*
X17416151Y-15015331D01*
X10822040Y-15372419D02*
X11022040Y-15572419D01*
X11022040Y-15372419D02*
X10822040Y-15572419D01*
X10922040Y-15572419D02*
X11022040Y-15472419D01*
X10922040Y-15372419D01*
X10822040Y-15472419D01*
X10922040Y-15572419D01*
X11263769Y-15363903D02*
X11387579Y-15363903D01*
X11387579Y-15363903D02*
X11320912Y-15440093D01*
X11320912Y-15440093D02*
X11349483Y-15440093D01*
X11349483Y-15440093D02*
X11368531Y-15449617D01*
X11368531Y-15449617D02*
X11378055Y-15459141D01*
X11378055Y-15459141D02*
X11387579Y-15478188D01*
X11387579Y-15478188D02*
X11387579Y-15525807D01*
X11387579Y-15525807D02*
X11378055Y-15544855D01*
X11378055Y-15544855D02*
X11368531Y-15554379D01*
X11368531Y-15554379D02*
X11349483Y-15563903D01*
X11349483Y-15563903D02*
X11292340Y-15563903D01*
X11292340Y-15563903D02*
X11273293Y-15554379D01*
X11273293Y-15554379D02*
X11263769Y-15544855D01*
X11473293Y-15544855D02*
X11482817Y-15554379D01*
X11482817Y-15554379D02*
X11473293Y-15563903D01*
X11473293Y-15563903D02*
X11463769Y-15554379D01*
X11463769Y-15554379D02*
X11473293Y-15544855D01*
X11473293Y-15544855D02*
X11473293Y-15563903D01*
X11606626Y-15363903D02*
X11625674Y-15363903D01*
X11625674Y-15363903D02*
X11644721Y-15373427D01*
X11644721Y-15373427D02*
X11654245Y-15382950D01*
X11654245Y-15382950D02*
X11663769Y-15401998D01*
X11663769Y-15401998D02*
X11673293Y-15440093D01*
X11673293Y-15440093D02*
X11673293Y-15487712D01*
X11673293Y-15487712D02*
X11663769Y-15525807D01*
X11663769Y-15525807D02*
X11654245Y-15544855D01*
X11654245Y-15544855D02*
X11644721Y-15554379D01*
X11644721Y-15554379D02*
X11625674Y-15563903D01*
X11625674Y-15563903D02*
X11606626Y-15563903D01*
X11606626Y-15563903D02*
X11587579Y-15554379D01*
X11587579Y-15554379D02*
X11578055Y-15544855D01*
X11578055Y-15544855D02*
X11568531Y-15525807D01*
X11568531Y-15525807D02*
X11559007Y-15487712D01*
X11559007Y-15487712D02*
X11559007Y-15440093D01*
X11559007Y-15440093D02*
X11568531Y-15401998D01*
X11568531Y-15401998D02*
X11578055Y-15382950D01*
X11578055Y-15382950D02*
X11587579Y-15373427D01*
X11587579Y-15373427D02*
X11606626Y-15363903D01*
X11797102Y-15363903D02*
X11816150Y-15363903D01*
X11816150Y-15363903D02*
X11835198Y-15373427D01*
X11835198Y-15373427D02*
X11844721Y-15382950D01*
X11844721Y-15382950D02*
X11854245Y-15401998D01*
X11854245Y-15401998D02*
X11863769Y-15440093D01*
X11863769Y-15440093D02*
X11863769Y-15487712D01*
X11863769Y-15487712D02*
X11854245Y-15525807D01*
X11854245Y-15525807D02*
X11844721Y-15544855D01*
X11844721Y-15544855D02*
X11835198Y-15554379D01*
X11835198Y-15554379D02*
X11816150Y-15563903D01*
X11816150Y-15563903D02*
X11797102Y-15563903D01*
X11797102Y-15563903D02*
X11778055Y-15554379D01*
X11778055Y-15554379D02*
X11768531Y-15544855D01*
X11768531Y-15544855D02*
X11759007Y-15525807D01*
X11759007Y-15525807D02*
X11749483Y-15487712D01*
X11749483Y-15487712D02*
X11749483Y-15440093D01*
X11749483Y-15440093D02*
X11759007Y-15401998D01*
X11759007Y-15401998D02*
X11768531Y-15382950D01*
X11768531Y-15382950D02*
X11778055Y-15373427D01*
X11778055Y-15373427D02*
X11797102Y-15363903D01*
X11987579Y-15363903D02*
X12006626Y-15363903D01*
X12006626Y-15363903D02*
X12025674Y-15373427D01*
X12025674Y-15373427D02*
X12035198Y-15382950D01*
X12035198Y-15382950D02*
X12044721Y-15401998D01*
X12044721Y-15401998D02*
X12054245Y-15440093D01*
X12054245Y-15440093D02*
X12054245Y-15487712D01*
X12054245Y-15487712D02*
X12044721Y-15525807D01*
X12044721Y-15525807D02*
X12035198Y-15544855D01*
X12035198Y-15544855D02*
X12025674Y-15554379D01*
X12025674Y-15554379D02*
X12006626Y-15563903D01*
X12006626Y-15563903D02*
X11987579Y-15563903D01*
X11987579Y-15563903D02*
X11968531Y-15554379D01*
X11968531Y-15554379D02*
X11959007Y-15544855D01*
X11959007Y-15544855D02*
X11949483Y-15525807D01*
X11949483Y-15525807D02*
X11939960Y-15487712D01*
X11939960Y-15487712D02*
X11939960Y-15440093D01*
X11939960Y-15440093D02*
X11949483Y-15401998D01*
X11949483Y-15401998D02*
X11959007Y-15382950D01*
X11959007Y-15382950D02*
X11968531Y-15373427D01*
X11968531Y-15373427D02*
X11987579Y-15363903D01*
X12139960Y-15563903D02*
X12139960Y-15430569D01*
X12139960Y-15449617D02*
X12149483Y-15440093D01*
X12149483Y-15440093D02*
X12168531Y-15430569D01*
X12168531Y-15430569D02*
X12197102Y-15430569D01*
X12197102Y-15430569D02*
X12216150Y-15440093D01*
X12216150Y-15440093D02*
X12225674Y-15459141D01*
X12225674Y-15459141D02*
X12225674Y-15563903D01*
X12225674Y-15459141D02*
X12235198Y-15440093D01*
X12235198Y-15440093D02*
X12254245Y-15430569D01*
X12254245Y-15430569D02*
X12282817Y-15430569D01*
X12282817Y-15430569D02*
X12301864Y-15440093D01*
X12301864Y-15440093D02*
X12311388Y-15459141D01*
X12311388Y-15459141D02*
X12311388Y-15563903D01*
X12406626Y-15563903D02*
X12406626Y-15430569D01*
X12406626Y-15449617D02*
X12416150Y-15440093D01*
X12416150Y-15440093D02*
X12435198Y-15430569D01*
X12435198Y-15430569D02*
X12463769Y-15430569D01*
X12463769Y-15430569D02*
X12482817Y-15440093D01*
X12482817Y-15440093D02*
X12492341Y-15459141D01*
X12492341Y-15459141D02*
X12492341Y-15563903D01*
X12492341Y-15459141D02*
X12501864Y-15440093D01*
X12501864Y-15440093D02*
X12520912Y-15430569D01*
X12520912Y-15430569D02*
X12549483Y-15430569D01*
X12549483Y-15430569D02*
X12568531Y-15440093D01*
X12568531Y-15440093D02*
X12578055Y-15459141D01*
X12578055Y-15459141D02*
X12578055Y-15563903D01*
X12968531Y-15354379D02*
X12797103Y-15611522D01*
X13225674Y-15363903D02*
X13244722Y-15363903D01*
X13244722Y-15363903D02*
X13263769Y-15373427D01*
X13263769Y-15373427D02*
X13273293Y-15382950D01*
X13273293Y-15382950D02*
X13282817Y-15401998D01*
X13282817Y-15401998D02*
X13292341Y-15440093D01*
X13292341Y-15440093D02*
X13292341Y-15487712D01*
X13292341Y-15487712D02*
X13282817Y-15525807D01*
X13282817Y-15525807D02*
X13273293Y-15544855D01*
X13273293Y-15544855D02*
X13263769Y-15554379D01*
X13263769Y-15554379D02*
X13244722Y-15563903D01*
X13244722Y-15563903D02*
X13225674Y-15563903D01*
X13225674Y-15563903D02*
X13206626Y-15554379D01*
X13206626Y-15554379D02*
X13197103Y-15544855D01*
X13197103Y-15544855D02*
X13187579Y-15525807D01*
X13187579Y-15525807D02*
X13178055Y-15487712D01*
X13178055Y-15487712D02*
X13178055Y-15440093D01*
X13178055Y-15440093D02*
X13187579Y-15401998D01*
X13187579Y-15401998D02*
X13197103Y-15382950D01*
X13197103Y-15382950D02*
X13206626Y-15373427D01*
X13206626Y-15373427D02*
X13225674Y-15363903D01*
X13378055Y-15544855D02*
X13387579Y-15554379D01*
X13387579Y-15554379D02*
X13378055Y-15563903D01*
X13378055Y-15563903D02*
X13368531Y-15554379D01*
X13368531Y-15554379D02*
X13378055Y-15544855D01*
X13378055Y-15544855D02*
X13378055Y-15563903D01*
X13578055Y-15563903D02*
X13463769Y-15563903D01*
X13520912Y-15563903D02*
X13520912Y-15363903D01*
X13520912Y-15363903D02*
X13501864Y-15392474D01*
X13501864Y-15392474D02*
X13482817Y-15411522D01*
X13482817Y-15411522D02*
X13463769Y-15421046D01*
X13768531Y-15563903D02*
X13654245Y-15563903D01*
X13711388Y-15563903D02*
X13711388Y-15363903D01*
X13711388Y-15363903D02*
X13692341Y-15392474D01*
X13692341Y-15392474D02*
X13673293Y-15411522D01*
X13673293Y-15411522D02*
X13654245Y-15421046D01*
X13882817Y-15449617D02*
X13863769Y-15440093D01*
X13863769Y-15440093D02*
X13854245Y-15430569D01*
X13854245Y-15430569D02*
X13844722Y-15411522D01*
X13844722Y-15411522D02*
X13844722Y-15401998D01*
X13844722Y-15401998D02*
X13854245Y-15382950D01*
X13854245Y-15382950D02*
X13863769Y-15373427D01*
X13863769Y-15373427D02*
X13882817Y-15363903D01*
X13882817Y-15363903D02*
X13920912Y-15363903D01*
X13920912Y-15363903D02*
X13939960Y-15373427D01*
X13939960Y-15373427D02*
X13949484Y-15382950D01*
X13949484Y-15382950D02*
X13959007Y-15401998D01*
X13959007Y-15401998D02*
X13959007Y-15411522D01*
X13959007Y-15411522D02*
X13949484Y-15430569D01*
X13949484Y-15430569D02*
X13939960Y-15440093D01*
X13939960Y-15440093D02*
X13920912Y-15449617D01*
X13920912Y-15449617D02*
X13882817Y-15449617D01*
X13882817Y-15449617D02*
X13863769Y-15459141D01*
X13863769Y-15459141D02*
X13854245Y-15468665D01*
X13854245Y-15468665D02*
X13844722Y-15487712D01*
X13844722Y-15487712D02*
X13844722Y-15525807D01*
X13844722Y-15525807D02*
X13854245Y-15544855D01*
X13854245Y-15544855D02*
X13863769Y-15554379D01*
X13863769Y-15554379D02*
X13882817Y-15563903D01*
X13882817Y-15563903D02*
X13920912Y-15563903D01*
X13920912Y-15563903D02*
X13939960Y-15554379D01*
X13939960Y-15554379D02*
X13949484Y-15544855D01*
X13949484Y-15544855D02*
X13959007Y-15525807D01*
X13959007Y-15525807D02*
X13959007Y-15487712D01*
X13959007Y-15487712D02*
X13949484Y-15468665D01*
X13949484Y-15468665D02*
X13939960Y-15459141D01*
X13939960Y-15459141D02*
X13920912Y-15449617D01*
X14149484Y-15563903D02*
X14035198Y-15563903D01*
X14092341Y-15563903D02*
X14092341Y-15363903D01*
X14092341Y-15363903D02*
X14073293Y-15392474D01*
X14073293Y-15392474D02*
X14054245Y-15411522D01*
X14054245Y-15411522D02*
X14035198Y-15421046D01*
X14225674Y-15363903D02*
X14225674Y-15401998D01*
X14301865Y-15363903D02*
X14301865Y-15401998D01*
X14597103Y-15640093D02*
X14587579Y-15630569D01*
X14587579Y-15630569D02*
X14568531Y-15601998D01*
X14568531Y-15601998D02*
X14559007Y-15582950D01*
X14559007Y-15582950D02*
X14549484Y-15554379D01*
X14549484Y-15554379D02*
X14539960Y-15506760D01*
X14539960Y-15506760D02*
X14539960Y-15468665D01*
X14539960Y-15468665D02*
X14549484Y-15421046D01*
X14549484Y-15421046D02*
X14559007Y-15392474D01*
X14559007Y-15392474D02*
X14568531Y-15373427D01*
X14568531Y-15373427D02*
X14587579Y-15344855D01*
X14587579Y-15344855D02*
X14597103Y-15335331D01*
X14711388Y-15363903D02*
X14730436Y-15363903D01*
X14730436Y-15363903D02*
X14749484Y-15373427D01*
X14749484Y-15373427D02*
X14759007Y-15382950D01*
X14759007Y-15382950D02*
X14768531Y-15401998D01*
X14768531Y-15401998D02*
X14778055Y-15440093D01*
X14778055Y-15440093D02*
X14778055Y-15487712D01*
X14778055Y-15487712D02*
X14768531Y-15525807D01*
X14768531Y-15525807D02*
X14759007Y-15544855D01*
X14759007Y-15544855D02*
X14749484Y-15554379D01*
X14749484Y-15554379D02*
X14730436Y-15563903D01*
X14730436Y-15563903D02*
X14711388Y-15563903D01*
X14711388Y-15563903D02*
X14692341Y-15554379D01*
X14692341Y-15554379D02*
X14682817Y-15544855D01*
X14682817Y-15544855D02*
X14673293Y-15525807D01*
X14673293Y-15525807D02*
X14663769Y-15487712D01*
X14663769Y-15487712D02*
X14663769Y-15440093D01*
X14663769Y-15440093D02*
X14673293Y-15401998D01*
X14673293Y-15401998D02*
X14682817Y-15382950D01*
X14682817Y-15382950D02*
X14692341Y-15373427D01*
X14692341Y-15373427D02*
X14711388Y-15363903D01*
X15016150Y-15563903D02*
X15016150Y-15363903D01*
X15101865Y-15563903D02*
X15101865Y-15459141D01*
X15101865Y-15459141D02*
X15092341Y-15440093D01*
X15092341Y-15440093D02*
X15073293Y-15430569D01*
X15073293Y-15430569D02*
X15044722Y-15430569D01*
X15044722Y-15430569D02*
X15025674Y-15440093D01*
X15025674Y-15440093D02*
X15016150Y-15449617D01*
X15225674Y-15563903D02*
X15206627Y-15554379D01*
X15206627Y-15554379D02*
X15197103Y-15544855D01*
X15197103Y-15544855D02*
X15187579Y-15525807D01*
X15187579Y-15525807D02*
X15187579Y-15468665D01*
X15187579Y-15468665D02*
X15197103Y-15449617D01*
X15197103Y-15449617D02*
X15206627Y-15440093D01*
X15206627Y-15440093D02*
X15225674Y-15430569D01*
X15225674Y-15430569D02*
X15254246Y-15430569D01*
X15254246Y-15430569D02*
X15273293Y-15440093D01*
X15273293Y-15440093D02*
X15282817Y-15449617D01*
X15282817Y-15449617D02*
X15292341Y-15468665D01*
X15292341Y-15468665D02*
X15292341Y-15525807D01*
X15292341Y-15525807D02*
X15282817Y-15544855D01*
X15282817Y-15544855D02*
X15273293Y-15554379D01*
X15273293Y-15554379D02*
X15254246Y-15563903D01*
X15254246Y-15563903D02*
X15225674Y-15563903D01*
X15406627Y-15563903D02*
X15387579Y-15554379D01*
X15387579Y-15554379D02*
X15378055Y-15535331D01*
X15378055Y-15535331D02*
X15378055Y-15363903D01*
X15559008Y-15554379D02*
X15539960Y-15563903D01*
X15539960Y-15563903D02*
X15501865Y-15563903D01*
X15501865Y-15563903D02*
X15482817Y-15554379D01*
X15482817Y-15554379D02*
X15473293Y-15535331D01*
X15473293Y-15535331D02*
X15473293Y-15459141D01*
X15473293Y-15459141D02*
X15482817Y-15440093D01*
X15482817Y-15440093D02*
X15501865Y-15430569D01*
X15501865Y-15430569D02*
X15539960Y-15430569D01*
X15539960Y-15430569D02*
X15559008Y-15440093D01*
X15559008Y-15440093D02*
X15568531Y-15459141D01*
X15568531Y-15459141D02*
X15568531Y-15478188D01*
X15568531Y-15478188D02*
X15473293Y-15497236D01*
X15644722Y-15554379D02*
X15663769Y-15563903D01*
X15663769Y-15563903D02*
X15701865Y-15563903D01*
X15701865Y-15563903D02*
X15720912Y-15554379D01*
X15720912Y-15554379D02*
X15730436Y-15535331D01*
X15730436Y-15535331D02*
X15730436Y-15525807D01*
X15730436Y-15525807D02*
X15720912Y-15506760D01*
X15720912Y-15506760D02*
X15701865Y-15497236D01*
X15701865Y-15497236D02*
X15673293Y-15497236D01*
X15673293Y-15497236D02*
X15654246Y-15487712D01*
X15654246Y-15487712D02*
X15644722Y-15468665D01*
X15644722Y-15468665D02*
X15644722Y-15459141D01*
X15644722Y-15459141D02*
X15654246Y-15440093D01*
X15654246Y-15440093D02*
X15673293Y-15430569D01*
X15673293Y-15430569D02*
X15701865Y-15430569D01*
X15701865Y-15430569D02*
X15720912Y-15440093D01*
X15968531Y-15487712D02*
X16120912Y-15487712D01*
X16044722Y-15563903D02*
X16044722Y-15411522D01*
X16454246Y-15430569D02*
X16454246Y-15563903D01*
X16406627Y-15354379D02*
X16359008Y-15497236D01*
X16359008Y-15497236D02*
X16482817Y-15497236D01*
X16701865Y-15554379D02*
X16720912Y-15563903D01*
X16720912Y-15563903D02*
X16759008Y-15563903D01*
X16759008Y-15563903D02*
X16778055Y-15554379D01*
X16778055Y-15554379D02*
X16787579Y-15535331D01*
X16787579Y-15535331D02*
X16787579Y-15525807D01*
X16787579Y-15525807D02*
X16778055Y-15506760D01*
X16778055Y-15506760D02*
X16759008Y-15497236D01*
X16759008Y-15497236D02*
X16730436Y-15497236D01*
X16730436Y-15497236D02*
X16711389Y-15487712D01*
X16711389Y-15487712D02*
X16701865Y-15468665D01*
X16701865Y-15468665D02*
X16701865Y-15459141D01*
X16701865Y-15459141D02*
X16711389Y-15440093D01*
X16711389Y-15440093D02*
X16730436Y-15430569D01*
X16730436Y-15430569D02*
X16759008Y-15430569D01*
X16759008Y-15430569D02*
X16778055Y-15440093D01*
X16901865Y-15563903D02*
X16882817Y-15554379D01*
X16882817Y-15554379D02*
X16873294Y-15535331D01*
X16873294Y-15535331D02*
X16873294Y-15363903D01*
X17006627Y-15563903D02*
X16987579Y-15554379D01*
X16987579Y-15554379D02*
X16978055Y-15544855D01*
X16978055Y-15544855D02*
X16968532Y-15525807D01*
X16968532Y-15525807D02*
X16968532Y-15468665D01*
X16968532Y-15468665D02*
X16978055Y-15449617D01*
X16978055Y-15449617D02*
X16987579Y-15440093D01*
X16987579Y-15440093D02*
X17006627Y-15430569D01*
X17006627Y-15430569D02*
X17035198Y-15430569D01*
X17035198Y-15430569D02*
X17054246Y-15440093D01*
X17054246Y-15440093D02*
X17063770Y-15449617D01*
X17063770Y-15449617D02*
X17073294Y-15468665D01*
X17073294Y-15468665D02*
X17073294Y-15525807D01*
X17073294Y-15525807D02*
X17063770Y-15544855D01*
X17063770Y-15544855D02*
X17054246Y-15554379D01*
X17054246Y-15554379D02*
X17035198Y-15563903D01*
X17035198Y-15563903D02*
X17006627Y-15563903D01*
X17130436Y-15430569D02*
X17206627Y-15430569D01*
X17159008Y-15363903D02*
X17159008Y-15535331D01*
X17159008Y-15535331D02*
X17168532Y-15554379D01*
X17168532Y-15554379D02*
X17187579Y-15563903D01*
X17187579Y-15563903D02*
X17206627Y-15563903D01*
X17263770Y-15554379D02*
X17282817Y-15563903D01*
X17282817Y-15563903D02*
X17320913Y-15563903D01*
X17320913Y-15563903D02*
X17339960Y-15554379D01*
X17339960Y-15554379D02*
X17349484Y-15535331D01*
X17349484Y-15535331D02*
X17349484Y-15525807D01*
X17349484Y-15525807D02*
X17339960Y-15506760D01*
X17339960Y-15506760D02*
X17320913Y-15497236D01*
X17320913Y-15497236D02*
X17292341Y-15497236D01*
X17292341Y-15497236D02*
X17273294Y-15487712D01*
X17273294Y-15487712D02*
X17263770Y-15468665D01*
X17263770Y-15468665D02*
X17263770Y-15459141D01*
X17263770Y-15459141D02*
X17273294Y-15440093D01*
X17273294Y-15440093D02*
X17292341Y-15430569D01*
X17292341Y-15430569D02*
X17320913Y-15430569D01*
X17320913Y-15430569D02*
X17339960Y-15440093D01*
X17416151Y-15640093D02*
X17425675Y-15630569D01*
X17425675Y-15630569D02*
X17444722Y-15601998D01*
X17444722Y-15601998D02*
X17454246Y-15582950D01*
X17454246Y-15582950D02*
X17463770Y-15554379D01*
X17463770Y-15554379D02*
X17473294Y-15506760D01*
X17473294Y-15506760D02*
X17473294Y-15468665D01*
X17473294Y-15468665D02*
X17463770Y-15421046D01*
X17463770Y-15421046D02*
X17454246Y-15392474D01*
X17454246Y-15392474D02*
X17444722Y-15373427D01*
X17444722Y-15373427D02*
X17425675Y-15344855D01*
X17425675Y-15344855D02*
X17416151Y-15335331D01*
M02*
