0
SECTION
2
HEADER
9
$INSUNITS
70
4
9
$ACADVER
1
AC1014
9
$HANDSEED
5
FFFF
0
ENDSEC
0
SECTION
2
TABLES
0
TABLE
2
VPORT
5
8
100
AcDbSymbolTable
0
ENDTAB
0
TABLE
2
LTYPE
5
5
100
AcDbSymbolTable
0
LTYPE
5
14
100
AcDbSymbolTableRecord
100
AcDbLinetypeTableRecord
2
BYBLOCK
70
0
0
LTYPE
5
15
100
AcDbSymbolTableRecord
100
AcDbLinetypeTableRecord
2
BYLAYER
70
0
0
ENDTAB
0
TABLE
2
LAYER
5
2
100
AcDbSymbolTable
70
2
0
LAYER
5
50
100
AcDbSymbolTableRecord
100
AcDbLayerTableRecord
2
0
70
0
6
CONTINUOUS
0
ENDTAB
0
TABLE
2
STYLE
5
3
100
AcDbSymbolTable
70
1
0
STYLE
5
11
100
AcDbSymbolTableRecord
100
AcDbTextStyleTableRecord
2
STANDARD
70
0
0
ENDTAB
0
TABLE
2
VIEW
5
6
100
AcDbSymbolTable
70
0
0
ENDTAB
0
TABLE
2
UCS
5
7
100
AcDbSymbolTable
70
0
0
ENDTAB
0
TABLE
2
APPID
5
9
100
AcDbSymbolTable
70
2
0
APPID
5
12
100
AcDbSymbolTableRecord
100
AcDbRegAppTableRecord
2
ACAD
70
0
0
ENDTAB
0
TABLE
2
DIMSTYLE
5
A
100
AcDbSymbolTable
70
1
0
ENDTAB
0
TABLE
2
BLOCK_RECORD
5
1
100
AcDbSymbolTable
70
1
0
BLOCK_RECORD
5
1F
100
AcDbSymbolTableRecord
100
AcDbBlockTableRecord
2
*MODEL_SPACE
0
BLOCK_RECORD
5
1B
100
AcDbSymbolTableRecord
100
AcDbBlockTableRecord
2
*PAPER_SPACE
0
ENDTAB
0
ENDSEC
0
SECTION
2
BLOCKS
0
BLOCK
5
20
100
AcDbEntity
100
AcDbBlockBegin
2
*MODEL_SPACE
0
ENDBLK
5
21
100
AcDbEntity
100
AcDbBlockEnd
0
BLOCK
5
1C
100
AcDbEntity
100
AcDbBlockBegin
2
*PAPER_SPACE
0
ENDBLK
5
1D
100
AcDbEntity
100
AcDbBlockEnd
0
ENDSEC
0
SECTION
2
ENTITIES
0
CIRCLE
5
100
100
AcDbEntity
8
0
100
AcDbCircle
10
78.175989135982832
20
-11.380453532733002
30
0
40
1.1499999999999932
210
0
220
0
230
1
0
CIRCLE
5
101
100
AcDbEntity
8
0
100
AcDbCircle
10
72.859262392727388
20
30.537319521983306
30
0
40
1.1500000000000021
210
0
220
0
230
1
0
CIRCLE
5
102
100
AcDbEntity
8
0
100
AcDbCircle
10
35.000000476837158
20
-3.3091913183980113
30
0
40
1.1500000000000021
210
0
220
0
230
1
0
CIRCLE
5
103
100
AcDbEntity
8
0
100
AcDbCircle
10
35.000000476837144
20
11.435416918973782
30
0
40
1.1500000000000021
210
0
220
0
230
1
0
LWPOLYLINE
5
104
100
AcDbEntity
8
0
100
AcDbPolyline
90
12
70
1
43
0.0
10
32.878680133277513
20
13.556737262533417
42
0.19891236737965873
10
32.000000476837158
20
11.435416918973775
10
32.000000476837158
20
-3.3091913183980171
42
0.26794919243112225
10
33.500000476837158
20
-5.9072675297513344
10
47.479836713276185
20
-13.978529744086297
42
0.13165249758739672
10
48.979836713276192
20
-14.380453532732975
10
78.175989135982832
20
-14.380453532732984
42
0.37247968272090515
10
81.144697584184684
20
-11.812622654229209
42
0.13619418608735268
10
75.626069825362578
20
31.696964567121899
42
0.30220397548122663
10
72.859262392727388
20
33.537319521983306
10
54.101903079846693
20
33.537319521983306
42
0.19891236737965515
10
51.98058273628704
20
32.658639865542952
0
LWPOLYLINE
5
105
100
AcDbEntity
8
0
100
AcDbPolyline
90
4
70
1
43
0.0
10
70.585682797808744
20
12.999709422548012
10
70.690478587263044
20
13.231542166358938
42
-0.55863367071964043
10
73.242764159419636
20
13.33996142555451
10
73.366842941355728
20
13.117851334691007
42
-1.4795478340388444
0
LWPOLYLINE
5
106
100
AcDbEntity
8
0
100
AcDbPolyline
90
4
70
1
43
0.0
10
73.366842227590439
20
-12.117852469525781
10
73.242765388589405
20
-12.339960461146751
42
-0.55863262957936932
10
70.690479652811945
20
-12.231544892200903
10
70.585682504185556
20
-11.999707596571783
42
-1.4795476042781532
0
LWPOLYLINE
5
107
100
AcDbEntity
8
0
100
AcDbPolyline
90
4
70
1
43
0.0
10
46.585683745777509
20
12.999709327818499
10
46.690477723855977
20
13.231542105649352
42
-0.55863336702307353
10
49.242763668999757
20
13.339961416378177
10
49.366840781631737
20
13.117850408796507
42
-1.4795479242129232
0
LWPOLYLINE
5
108
100
AcDbEntity
8
0
100
AcDbPolyline
90
4
70
1
43
0.0
10
46.690478752898194
20
-12.231544766141409
10
46.585681136918389
20
-11.999708012423746
42
-1.4795475446019777
10
49.3668422087854
20
-12.117852520109322
10
49.242764891532261
20
-12.339960461788744
42
-0.55863233966164783
0
ENDSEC
0
SECTION
2
OBJECTS
0
DICTIONARY
5
C
100
AcDbDictionary
3
ACAD_GROUP
350
D
3
ACAD_MLINESTYLE
350
17
0
DICTIONARY
5
D
100
AcDbDictionary
0
DICTIONARY
5
1A
330
C
100
AcDbDictionary
0
DICTIONARY
5
17
100
AcDbDictionary
0
ENDSEC
0
EOF
