M48
; DRILL file {KiCad (6.0.11)} date Sat Sep  2 12:48:37 2023
; FORMAT={-:-/ absolute / metric / decimal}
; #@! TF.CreationDate,2023-09-02T12:48:37+09:00
; #@! TF.GenerationSoftware,Kicad,Pcbnew,(6.0.11)
; #@! TF.FileFunction,Plated,1,2,PTH
FMAT,2
METRIC
; #@! TA.AperFunction,Plated,PTH,ViaDrill
T1C0.400
; #@! TA.AperFunction,Plated,PTH,ComponentDrill
T2C0.700
; #@! TA.AperFunction,Plated,PTH,ComponentDrill
T3C0.762
; #@! TA.AperFunction,Plated,PTH,ComponentDrill
T4C0.800
; #@! TA.AperFunction,Plated,PTH,ComponentDrill
T5C0.900
; #@! TA.AperFunction,Plated,PTH,ComponentDrill
T6C0.950
; #@! TA.AperFunction,Plated,PTH,ComponentDrill
T7C1.000
; #@! TA.AperFunction,Plated,PTH,ComponentDrill
T8C1.100
%
G90
G05
T1
X121.971Y-102.921
X122.022Y-97.333
X122.174Y-105.816
X130.861Y-101.346
X134.112Y-103.073
X134.417Y-121.869
X135.331Y-96.774
X135.382Y-100.076
X135.839Y-139.243
X136.449Y-63.195
X137.465Y-65.024
X137.77Y-72.492
X137.82Y-125.73
X137.973Y-133.909
X138.227Y-61.163
X139.903Y-143.612
X140.212Y-72.902
X141.58Y-86.309
X141.63Y-96.622
X141.732Y-70.358
X141.898Y-71.374
X141.986Y-57.506
X142.088Y-133.807
X142.291Y-73.304
X143.347Y-69.342
X143.347Y-70.358
X143.51Y-71.374
X144.577Y-126.898
X144.78Y-133.756
X145.44Y-71.526
X145.44Y-142.799
X146.304Y-137.262
X146.863Y-53.797
X147.015Y-95.86
X147.32Y-97.367
X147.32Y-98.816
X147.98Y-64.16
X148.184Y-150.114
X149.149Y-75.286
X149.25Y-134.518
X149.403Y-127.203
X149.758Y-71.679
X149.77Y-103.124
X149.77Y-116.332
X149.77Y-117.475
X149.77Y-118.745
X149.911Y-81.077
X149.962Y-77.775
X150.724Y-151.841
X151.638Y-135.89
X151.855Y-103.124
X152.908Y-89.357
X153.162Y-81.128
X153.822Y-78.842
X153.924Y-72.492
X154.397Y-117.475
X154.397Y-118.745
X154.432Y-116.332
X157.226Y-141.224
X157.328Y-121.666
X157.632Y-133.248
X158.039Y-72.339
X158.496Y-142.24
X159.563Y-143.561
X160.274Y-46.99
X160.274Y-78.689
X160.985Y-88.341
X161.087Y-92.507
X161.087Y-109.626
X161.138Y-119.126
X161.239Y-95.606
X161.493Y-137.262
X162.154Y-64.059
X162.611Y-68.021
X163.271Y-86.004
X163.474Y-137.363
X165.049Y-157.48
X165.252Y-143.256
X166.878Y-63.957
X167.386Y-151.536
X167.488Y-85.801
X167.64Y-73.254
X168.605Y-146.66
X173.99Y-51.968
X175.819Y-142.85
X175.87Y-151.587
X176.225Y-52.019
X176.327Y-43.282
X177.8Y-141.072
X179.07Y-43.129
X181.407Y-160.071
X183.896Y-43.282
X184.404Y-159.918
X184.556Y-151.079
X184.607Y-51.511
X186.182Y-140.716
X193.904Y-146.507
X194.107Y-118.974
X194.259Y-63.551
X194.767Y-151.079
X194.818Y-110.693
X194.92Y-95.453
X195.326Y-109.474
X195.49Y-96.774
X195.783Y-117.45
X197.358Y-96.774
X197.358Y-109.474
X197.46Y-119.228
X197.561Y-111.15
X197.714Y-115.468
X197.917Y-63.551
X197.968Y-68.021
X198.374Y-140.614
X199.593Y-117.348
X200.508Y-108.204
X200.609Y-100.482
X203.657Y-113.284
X206.248Y-108.712
X206.35Y-64.262
X206.553Y-68.123
X206.553Y-113.284
X206.756Y-100.533
X206.807Y-105.054
X207.772Y-69.342
X207.874Y-51.613
X208.636Y-132.029
X208.839Y-109.068
X209.042Y-137.058
X209.144Y-101.244
X209.347Y-104.953
X210.668Y-107.594
X211.582Y-52.121
X211.582Y-55.169
X211.887Y-99.263
X212.09Y-75.641
X212.09Y-87.02
X212.141Y-150.368
X213.004Y-102.21
X213.106Y-105.004
X215.24Y-100.33
X215.798Y-77.368
X216.002Y-87.02
X216.103Y-85.547
X216.662Y-136.906
X218.034Y-85.547
X218.745Y-104.953
X219.1Y-145.288
X219.558Y-68.58
X219.964Y-135.738
X220.777Y-59.487
X221.437Y-93.777
X221.64Y-75.641
X221.691Y-82.194
X222.555Y-142.037
X224.282Y-140.106
X224.638Y-63.602
X224.688Y-85.242
X224.841Y-89.357
X226.466Y-131.978
X226.517Y-119.888
X226.924Y-128.778
X227.584Y-89.306
X228.295Y-134.722
X228.448Y-82.448
X229.464Y-128.778
X229.768Y-102.159
X229.972Y-115.316
X229.972Y-132.232
X231.343Y-85.192
X231.75Y-90.475
X232.207Y-97.485
X235.356Y-90.526
X235.356Y-93.32
X235.763Y-84.684
X237.084Y-115.418
X237.744Y-90.576
X238.15Y-93.32
X238.557Y-97.638
X238.709Y-100.482
T2
X129.54Y-99.06
X129.54Y-104.14
X142.623Y-135.725
X142.623Y-67.475
X146.215Y-139.317
X146.215Y-63.883
X176.53Y-100.025
X176.53Y-102.87
X177.8Y-50.8
X177.8Y-152.4
X181.61Y-100.025
X181.61Y-102.87
X182.88Y-50.8
X182.88Y-152.4
X204.47Y-78.348
X204.47Y-83.428
X207.01Y-78.348
X207.01Y-83.428
X214.465Y-139.317
X214.465Y-63.883
X218.057Y-135.725
X218.057Y-67.475
X231.14Y-99.06
X231.14Y-104.14
T3
X124.058Y-99.06
X124.058Y-101.6
X124.058Y-104.14
X138.706Y-63.558
X138.746Y-139.601
X140.502Y-61.762
X140.542Y-141.398
X142.298Y-59.966
X142.339Y-143.194
X148.24Y-120.396
X148.24Y-122.936
X148.24Y-125.476
X177.8Y-45.318
X177.8Y-157.882
X180.34Y-45.318
X180.34Y-157.882
X182.88Y-45.318
X182.88Y-157.882
X212.725Y-93.44
X215.265Y-93.44
X217.805Y-93.44
X218.341Y-60.006
X218.341Y-143.194
X220.138Y-61.802
X220.138Y-141.398
X221.934Y-63.599
X221.934Y-139.601
X221.996Y-84.328
X221.996Y-86.868
X221.996Y-89.408
X221.996Y-91.948
X229.616Y-84.328
X229.616Y-86.868
X229.616Y-89.408
X229.616Y-91.948
X236.622Y-99.06
X236.622Y-101.6
X236.622Y-104.14
T4
X127.0Y-101.62
X127.0Y-104.12
X140.841Y-65.665
X142.609Y-63.897
X142.637Y-139.331
X144.405Y-141.099
X177.82Y-48.26
X180.32Y-48.26
X180.36Y-154.94
X182.86Y-154.94
X216.275Y-62.101
X218.043Y-63.869
X218.057Y-139.317
X219.825Y-137.549
X233.68Y-99.08
X233.68Y-101.58
T5
X207.975Y-111.989
X208.001Y-106.985
X215.595Y-111.989
X215.621Y-106.985
T6
X142.003Y-120.476
X142.003Y-122.976
X142.003Y-125.476
X142.003Y-127.976
X142.003Y-130.476
X151.875Y-68.894
X151.875Y-71.394
X151.875Y-73.894
X151.875Y-76.394
X222.233Y-106.974
X222.233Y-109.474
X222.233Y-111.974
X222.233Y-118.658
X222.233Y-121.158
X222.233Y-123.658
T7
X126.729Y-86.634
X126.729Y-89.134
X137.16Y-81.486
X137.16Y-84.026
X137.16Y-86.566
X137.16Y-89.106
X137.16Y-91.646
X137.16Y-94.186
X137.16Y-96.726
X137.16Y-99.266
X137.16Y-101.806
X137.16Y-104.346
X137.16Y-106.886
X137.16Y-109.426
X137.16Y-111.966
X137.16Y-114.506
X139.7Y-81.486
X139.7Y-84.026
X139.7Y-86.566
X139.7Y-89.106
X139.7Y-91.646
X139.7Y-94.186
X139.7Y-96.726
X139.7Y-99.266
X139.7Y-101.806
X139.7Y-104.346
X139.7Y-106.886
X139.7Y-109.426
X139.7Y-111.966
X139.7Y-114.506
X154.94Y-81.486
X154.94Y-84.026
X154.94Y-86.566
X154.94Y-89.106
X154.94Y-91.646
X154.94Y-94.186
X154.94Y-96.726
X154.94Y-99.266
X154.94Y-101.806
X154.94Y-104.346
X154.94Y-106.886
X154.94Y-109.426
X154.94Y-111.966
X154.94Y-114.506
X157.48Y-81.486
X157.48Y-84.026
X157.48Y-86.566
X157.48Y-89.106
X157.48Y-91.646
X157.48Y-94.186
X157.48Y-96.726
X157.48Y-99.266
X157.48Y-101.806
X157.48Y-104.346
X157.48Y-106.886
X157.48Y-109.426
X157.48Y-111.966
X157.48Y-114.506
X164.34Y-66.802
X164.34Y-69.342
X164.34Y-71.882
X164.34Y-74.422
X164.34Y-76.962
X164.34Y-79.502
X164.34Y-82.042
X164.34Y-84.582
X176.72Y-106.24
X179.26Y-106.24
X181.8Y-106.24
X184.34Y-106.24
X196.34Y-66.802
X196.34Y-69.342
X196.34Y-71.882
X196.34Y-74.422
X196.34Y-76.962
X196.34Y-79.502
X196.34Y-82.042
X196.34Y-84.582
X201.93Y-73.66
X201.93Y-88.9
X204.47Y-73.66
X204.47Y-88.9
X205.994Y-57.444
X205.994Y-59.944
X207.01Y-73.66
X207.01Y-88.9
X209.55Y-73.66
X209.55Y-88.9
X212.09Y-73.66
X212.09Y-88.9
X214.63Y-73.66
X214.63Y-88.9
X217.17Y-73.66
X217.17Y-88.9
T8
X165.66Y-134.62
X165.66Y-139.12
X172.16Y-134.62
X172.16Y-139.12
X177.695Y-134.62
X177.695Y-139.12
X184.195Y-134.62
X184.195Y-139.12
X189.536Y-134.62
X189.536Y-139.12
X196.036Y-134.62
X196.036Y-139.12
X200.712Y-120.432
X200.712Y-124.932
X202.49Y-93.635
X202.49Y-98.135
X207.212Y-120.432
X207.212Y-124.932
X208.99Y-93.635
X208.99Y-98.135
T0
M30
