%TF.GenerationSoftware,KiCad,Pcbnew,7.0.9*%
%TF.CreationDate,2024-01-11T17:27:39+09:00*%
%TF.ProjectId,LineIntegratedBoard,4c696e65-496e-4746-9567-726174656442,rev?*%
%TF.SameCoordinates,Original*%
%TF.FileFunction,Copper,L1,Top*%
%TF.FilePolarity,Positive*%
%FSLAX46Y46*%
G04 Gerber Fmt 4.6, Leading zero omitted, Abs format (unit mm)*
G04 Created by KiCad (PCBNEW 7.0.9) date 2024-01-11 17:27:39*
%MOMM*%
%LPD*%
G01*
G04 APERTURE LIST*
%TA.AperFunction,SMDPad,CuDef*%
%ADD10O,1.700000X2.500000*%
%TD*%
%TA.AperFunction,SMDPad,CuDef*%
%ADD11O,2.748280X1.998980*%
%TD*%
%TA.AperFunction,ViaPad*%
%ADD12C,0.800000*%
%TD*%
%TA.AperFunction,Conductor*%
%ADD13C,0.400000*%
%TD*%
%TA.AperFunction,Conductor*%
%ADD14C,1.000000*%
%TD*%
G04 APERTURE END LIST*
D10*
%TO.P,J4,1,Pin_1*%
%TO.N,+5V*%
X157480000Y-100965000D03*
%TO.P,J4,2,Pin_2*%
%TO.N,GND*%
X154940000Y-100965000D03*
%TO.P,J4,3,Pin_3*%
%TO.N,+5VA*%
X152400000Y-100965000D03*
%TO.P,J4,4,Pin_4*%
%TO.N,LINE_TX*%
X149860000Y-100965000D03*
%TO.P,J4,5,Pin_5*%
%TO.N,LINE_RX*%
X147320000Y-100965000D03*
%TD*%
D11*
%TO.P,U2,1,PA02_A0_D0*%
%TO.N,Data*%
X144315117Y-79477167D03*
%TO.P,U2,2,PA4_A1_D1*%
%TO.N,S0*%
X144315117Y-82017167D03*
%TO.P,U2,3,PA10_A2_D2*%
%TO.N,S1*%
X144315117Y-84557167D03*
%TO.P,U2,4,PA11_A3_D3*%
%TO.N,E*%
X144315117Y-87097167D03*
%TO.P,U2,5,PA8_A4_D4_SDA*%
%TO.N,S2*%
X144315117Y-89637167D03*
%TO.P,U2,6,PA9_A5_D5_SCL*%
%TO.N,S3*%
X144315117Y-92177167D03*
%TO.P,U2,7,PB08_A6_D6_TX*%
%TO.N,LINE_RX*%
X144315117Y-94717167D03*
%TO.P,U2,8,PB09_A7_D7_RX*%
%TO.N,LINE_TX*%
X160479677Y-94717167D03*
%TO.P,U2,9,PA7_A8_D8_SCK*%
%TO.N,unconnected-(U2-PA7_A8_D8_SCK-Pad9)*%
X160479677Y-92177167D03*
%TO.P,U2,10,PA5_A9_D9_MISO*%
%TO.N,unconnected-(U2-PA5_A9_D9_MISO-Pad10)*%
X160479677Y-89637167D03*
%TO.P,U2,11,PA6_A10_D10_MOSI*%
%TO.N,unconnected-(U2-PA6_A10_D10_MOSI-Pad11)*%
X160479677Y-87097167D03*
%TO.P,U2,12,3V3*%
%TO.N,+3.3V*%
X160479677Y-84557167D03*
%TO.P,U2,13,GND*%
%TO.N,GND*%
X160479677Y-82017167D03*
%TO.P,U2,14,5V*%
%TO.N,+5V*%
X160479677Y-79477167D03*
%TD*%
D12*
%TO.N,+3.3V*%
X157988000Y-92964000D03*
X153160693Y-87391768D03*
%TO.N,GND*%
X159385000Y-77216000D03*
X140716000Y-96774000D03*
X151638000Y-97536000D03*
X160020000Y-96520000D03*
X152019000Y-82931000D03*
X165354000Y-87884000D03*
X146050000Y-77470000D03*
X145796000Y-100584000D03*
X158877000Y-99060000D03*
X157607000Y-83439000D03*
X141572955Y-87462062D03*
X157861000Y-78867000D03*
X159131000Y-103124000D03*
X162687000Y-99441000D03*
X143510000Y-98298000D03*
X152019000Y-77597000D03*
X145796000Y-96774000D03*
X139954000Y-93472000D03*
X138684000Y-87122000D03*
X157226000Y-96139000D03*
X165354000Y-94615000D03*
%TO.N,+5VA*%
X142240000Y-89662000D03*
X142240000Y-88392000D03*
X162630000Y-88392000D03*
X153000689Y-98459311D03*
X162630000Y-89662000D03*
X152400000Y-99060000D03*
%TO.N,Data*%
X152775236Y-86143500D03*
%TO.N,S0*%
X153924000Y-91948000D03*
%TO.N,S1*%
X153868039Y-93022439D03*
%TO.N,S3*%
X146840072Y-93894500D03*
%TO.N,S2*%
X146192971Y-92720968D03*
%TO.N,E*%
X146615332Y-90620668D03*
%TD*%
D13*
%TO.N,+3.3V*%
X155448000Y-87376000D02*
X158266833Y-84557167D01*
X153176461Y-87376000D02*
X155448000Y-87376000D01*
X159282833Y-84557167D02*
X157988000Y-85852000D01*
X158750000Y-84557167D02*
X160479677Y-84557167D01*
X157734000Y-92710000D02*
X157734000Y-85573167D01*
X158266833Y-84557167D02*
X158750000Y-84557167D01*
X160479677Y-84557167D02*
X159282833Y-84557167D01*
X157734000Y-85573167D02*
X158750000Y-84557167D01*
X153160693Y-87391768D02*
X153176461Y-87376000D01*
X157988000Y-85852000D02*
X157988000Y-92964000D01*
X157988000Y-92964000D02*
X157734000Y-92710000D01*
D14*
%TO.N,+5VA*%
X153000689Y-98459311D02*
X153543000Y-97917000D01*
X152400000Y-100965000D02*
X152400000Y-99060000D01*
X160481944Y-97917000D02*
X162630000Y-95768944D01*
X153543000Y-97917000D02*
X160481944Y-97917000D01*
X152400000Y-101365000D02*
X150641000Y-103124000D01*
X146558000Y-103124000D02*
X142240000Y-98806000D01*
X142240000Y-98806000D02*
X142240000Y-89662000D01*
X162630000Y-95768944D02*
X162630000Y-89662000D01*
X142240000Y-89662000D02*
X142240000Y-88392000D01*
X152400000Y-99060000D02*
X153000689Y-98459311D01*
X150641000Y-103124000D02*
X146558000Y-103124000D01*
X162630000Y-89662000D02*
X162630000Y-88392000D01*
X152400000Y-100965000D02*
X152400000Y-101365000D01*
%TO.N,+5V*%
X159131000Y-100965000D02*
X163830000Y-96266000D01*
X157480000Y-100965000D02*
X159131000Y-100965000D01*
X161565295Y-79477167D02*
X160479677Y-79477167D01*
X163830000Y-82967341D02*
X162155978Y-80067850D01*
X163830000Y-96266000D02*
X163830000Y-82967341D01*
X162155978Y-80067850D02*
X161565295Y-79477167D01*
%TO.N,LINE_RX*%
X145771167Y-94717167D02*
X147320000Y-96266000D01*
X144315117Y-94717167D02*
X145771167Y-94717167D01*
X147320000Y-96266000D02*
X147320000Y-100965000D01*
%TO.N,LINE_TX*%
X151662833Y-94717167D02*
X160479677Y-94717167D01*
X149860000Y-100965000D02*
X149860000Y-96520000D01*
X149860000Y-96520000D02*
X151662833Y-94717167D01*
D13*
%TO.N,Data*%
X152775236Y-85465236D02*
X146787167Y-79477167D01*
X152775236Y-86143500D02*
X152775236Y-85465236D01*
X146787167Y-79477167D02*
X144315117Y-79477167D01*
%TO.N,S0*%
X148478639Y-82017167D02*
X151975736Y-85514264D01*
X144315117Y-82017167D02*
X148478639Y-82017167D01*
X151975736Y-89999736D02*
X153924000Y-91948000D01*
X151975736Y-85514264D02*
X151975736Y-89999736D01*
%TO.N,S1*%
X151375736Y-90530136D02*
X153868039Y-93022439D01*
X144315117Y-84557167D02*
X150170111Y-84557167D01*
X151375736Y-87376000D02*
X151375736Y-90530136D01*
X150170111Y-84557167D02*
X151043472Y-85430528D01*
X151375736Y-85762792D02*
X151375736Y-87376000D01*
X151043472Y-85430528D02*
X151375736Y-85762792D01*
%TO.N,S3*%
X144315117Y-92245117D02*
X144315117Y-92177167D01*
X146840072Y-93894500D02*
X146762739Y-93817167D01*
X145887167Y-93817167D02*
X144315117Y-92245117D01*
X146762739Y-93817167D02*
X145887167Y-93817167D01*
%TO.N,S2*%
X145796000Y-90932000D02*
X144501167Y-89637167D01*
X146192971Y-91328971D02*
X145796000Y-90932000D01*
X144501167Y-89637167D02*
X144315117Y-89637167D01*
X146192971Y-92720968D02*
X146192971Y-91328971D01*
%TO.N,E*%
X146615332Y-90620668D02*
X146615332Y-87687332D01*
X146025167Y-87097167D02*
X144315117Y-87097167D01*
X146615332Y-87687332D02*
X146025167Y-87097167D01*
%TD*%
%TA.AperFunction,Conductor*%
%TO.N,GND*%
G36*
X164238579Y-97374854D02*
G01*
X164294512Y-97416726D01*
X164318929Y-97482190D01*
X164304077Y-97550463D01*
X164302632Y-97553036D01*
X161060843Y-103167978D01*
X161058700Y-103171424D01*
X161030148Y-103214155D01*
X160906055Y-103396165D01*
X160901439Y-103402123D01*
X160828898Y-103484843D01*
X160717185Y-103605240D01*
X160712612Y-103609686D01*
X160622800Y-103688449D01*
X160620577Y-103690308D01*
X160500554Y-103786024D01*
X160496341Y-103789104D01*
X160394363Y-103857243D01*
X160390917Y-103859386D01*
X160259891Y-103935034D01*
X160256312Y-103936947D01*
X160146319Y-103991189D01*
X160141546Y-103993298D01*
X159998638Y-104049385D01*
X159995917Y-104050380D01*
X159882805Y-104088778D01*
X159876667Y-104090515D01*
X159716542Y-104127063D01*
X159608639Y-104148526D01*
X159601170Y-104149545D01*
X159381246Y-104166024D01*
X159339638Y-104168752D01*
X159330258Y-104169367D01*
X159326210Y-104169500D01*
X151293937Y-104169500D01*
X151226898Y-104149815D01*
X151181143Y-104097011D01*
X151171199Y-104027853D01*
X151200224Y-103964297D01*
X151213163Y-103951417D01*
X151241566Y-103927033D01*
X151247843Y-103922300D01*
X151248145Y-103922101D01*
X151276519Y-103903402D01*
X151319917Y-103860002D01*
X151323336Y-103856834D01*
X151369895Y-103816866D01*
X151390931Y-103789688D01*
X151396101Y-103783818D01*
X152433031Y-102746888D01*
X152494352Y-102713405D01*
X152509896Y-102711044D01*
X152635408Y-102700063D01*
X152863663Y-102638903D01*
X153077829Y-102539035D01*
X153271401Y-102403495D01*
X153438495Y-102236401D01*
X153568732Y-102050402D01*
X153623306Y-102006779D01*
X153692805Y-101999585D01*
X153755160Y-102031107D01*
X153771880Y-102050404D01*
X153901886Y-102236073D01*
X153901891Y-102236079D01*
X154068917Y-102403105D01*
X154262421Y-102538600D01*
X154476507Y-102638429D01*
X154476516Y-102638433D01*
X154690000Y-102695634D01*
X154690000Y-99234364D01*
X154689999Y-99234364D01*
X154476513Y-99291567D01*
X154476507Y-99291570D01*
X154262422Y-99391399D01*
X154262420Y-99391400D01*
X154068926Y-99526886D01*
X154068920Y-99526891D01*
X153901891Y-99693920D01*
X153901890Y-99693922D01*
X153771880Y-99879595D01*
X153717303Y-99923219D01*
X153647804Y-99930412D01*
X153585450Y-99898890D01*
X153568730Y-99879594D01*
X153438494Y-99693597D01*
X153436819Y-99691922D01*
X153436315Y-99691000D01*
X153435014Y-99689449D01*
X153435325Y-99689187D01*
X153403334Y-99630599D01*
X153400500Y-99604241D01*
X153400500Y-99525783D01*
X153420185Y-99458744D01*
X153436819Y-99438102D01*
X153921102Y-98953819D01*
X153982425Y-98920334D01*
X154008783Y-98917500D01*
X159464218Y-98917500D01*
X159531257Y-98937185D01*
X159577012Y-98989989D01*
X159586956Y-99059147D01*
X159557931Y-99122703D01*
X159551899Y-99129181D01*
X158816134Y-99864945D01*
X158754811Y-99898430D01*
X158685119Y-99893446D01*
X158629186Y-99851574D01*
X158626878Y-99848387D01*
X158518494Y-99693597D01*
X158351402Y-99526506D01*
X158351395Y-99526501D01*
X158157834Y-99390967D01*
X158157830Y-99390965D01*
X158135392Y-99380502D01*
X157943663Y-99291097D01*
X157943659Y-99291096D01*
X157943655Y-99291094D01*
X157715413Y-99229938D01*
X157715403Y-99229936D01*
X157480001Y-99209341D01*
X157479999Y-99209341D01*
X157244596Y-99229936D01*
X157244586Y-99229938D01*
X157016344Y-99291094D01*
X157016335Y-99291098D01*
X156802171Y-99390964D01*
X156802169Y-99390965D01*
X156608597Y-99526505D01*
X156441508Y-99693594D01*
X156311269Y-99879595D01*
X156256692Y-99923219D01*
X156187193Y-99930412D01*
X156124839Y-99898890D01*
X156108119Y-99879594D01*
X155978113Y-99693926D01*
X155978108Y-99693920D01*
X155811082Y-99526894D01*
X155617578Y-99391399D01*
X155403492Y-99291570D01*
X155403486Y-99291567D01*
X155190000Y-99234364D01*
X155190000Y-102695633D01*
X155403483Y-102638433D01*
X155403492Y-102638429D01*
X155617577Y-102538600D01*
X155617579Y-102538599D01*
X155811073Y-102403113D01*
X155811079Y-102403108D01*
X155978108Y-102236079D01*
X155978113Y-102236073D01*
X156108119Y-102050405D01*
X156162696Y-102006780D01*
X156232194Y-101999586D01*
X156294549Y-102031109D01*
X156311269Y-102050405D01*
X156441505Y-102236402D01*
X156608209Y-102403105D01*
X156608599Y-102403495D01*
X156705384Y-102471265D01*
X156802165Y-102539032D01*
X156802167Y-102539033D01*
X156802170Y-102539035D01*
X157016337Y-102638903D01*
X157244592Y-102700063D01*
X157415056Y-102714977D01*
X157479999Y-102720659D01*
X157480000Y-102720659D01*
X157480001Y-102720659D01*
X157519234Y-102717226D01*
X157715408Y-102700063D01*
X157943663Y-102638903D01*
X158157829Y-102539035D01*
X158351401Y-102403495D01*
X158518495Y-102236401D01*
X158654035Y-102042829D01*
X158656711Y-102037091D01*
X158702885Y-101984654D01*
X158769091Y-101965500D01*
X159118284Y-101965500D01*
X159207358Y-101967757D01*
X159207358Y-101967756D01*
X159207363Y-101967757D01*
X159267753Y-101956932D01*
X159272412Y-101956280D01*
X159314607Y-101951988D01*
X159333438Y-101950074D01*
X159366227Y-101939786D01*
X159373840Y-101937918D01*
X159407653Y-101931858D01*
X159464621Y-101909101D01*
X159469053Y-101907524D01*
X159527588Y-101889159D01*
X159557627Y-101872484D01*
X159564708Y-101869122D01*
X159596617Y-101856377D01*
X159647854Y-101822608D01*
X159651851Y-101820187D01*
X159705502Y-101790409D01*
X159731568Y-101768030D01*
X159737843Y-101763300D01*
X159766519Y-101744402D01*
X159809917Y-101701002D01*
X159813336Y-101697834D01*
X159859895Y-101657866D01*
X159880931Y-101630688D01*
X159886101Y-101624818D01*
X164107566Y-97403353D01*
X164168887Y-97369870D01*
X164238579Y-97374854D01*
G37*
%TD.AperFunction*%
%TA.AperFunction,Conductor*%
G36*
X145621532Y-95986746D02*
G01*
X145642961Y-96003882D01*
X146283181Y-96644102D01*
X146316666Y-96705425D01*
X146319500Y-96731783D01*
X146319500Y-99604241D01*
X146299815Y-99671280D01*
X146283181Y-99691922D01*
X146281505Y-99693597D01*
X146145965Y-99887169D01*
X146145964Y-99887171D01*
X146046098Y-100101335D01*
X146046094Y-100101344D01*
X145984938Y-100329586D01*
X145984936Y-100329596D01*
X145969500Y-100506034D01*
X145969500Y-100821217D01*
X145949815Y-100888256D01*
X145897011Y-100934011D01*
X145827853Y-100943955D01*
X145764297Y-100914930D01*
X145757819Y-100908898D01*
X143276819Y-98427898D01*
X143243334Y-98366575D01*
X143240500Y-98340217D01*
X143240500Y-96237878D01*
X143260185Y-96170839D01*
X143312989Y-96125084D01*
X143382147Y-96115140D01*
X143414311Y-96124323D01*
X143451748Y-96140745D01*
X143451752Y-96140746D01*
X143692731Y-96201770D01*
X143878424Y-96217157D01*
X143878426Y-96217157D01*
X144751808Y-96217157D01*
X144751810Y-96217157D01*
X144937503Y-96201770D01*
X145178482Y-96140746D01*
X145406130Y-96040890D01*
X145487459Y-95987754D01*
X145554347Y-95967567D01*
X145621532Y-95986746D01*
G37*
%TD.AperFunction*%
%TA.AperFunction,Conductor*%
G36*
X158995793Y-95737352D02*
G01*
X159012737Y-95750438D01*
X159180555Y-95904926D01*
X159180554Y-95904926D01*
X159332019Y-96003882D01*
X159388664Y-96040890D01*
X159616312Y-96140746D01*
X159857291Y-96201770D01*
X160042984Y-96217157D01*
X160467505Y-96217157D01*
X160534544Y-96236842D01*
X160580299Y-96289646D01*
X160590243Y-96358804D01*
X160561218Y-96422360D01*
X160555186Y-96428838D01*
X160103843Y-96880181D01*
X160042520Y-96913666D01*
X160016162Y-96916500D01*
X153555717Y-96916500D01*
X153511176Y-96915371D01*
X153466637Y-96914243D01*
X153466636Y-96914243D01*
X153466627Y-96914243D01*
X153406253Y-96925065D01*
X153401587Y-96925719D01*
X153340563Y-96931925D01*
X153340562Y-96931925D01*
X153307786Y-96942208D01*
X153300159Y-96944080D01*
X153266350Y-96950140D01*
X153266347Y-96950141D01*
X153209368Y-96972899D01*
X153204931Y-96974478D01*
X153146417Y-96992838D01*
X153146406Y-96992843D01*
X153116382Y-97009507D01*
X153109290Y-97012875D01*
X153083262Y-97023273D01*
X153077383Y-97025622D01*
X153077382Y-97025622D01*
X153077381Y-97025623D01*
X153077373Y-97025627D01*
X153026155Y-97059383D01*
X153022126Y-97061824D01*
X152968502Y-97091588D01*
X152968499Y-97091590D01*
X152942427Y-97113970D01*
X152936160Y-97118695D01*
X152907482Y-97137598D01*
X152907475Y-97137603D01*
X152864116Y-97180962D01*
X152860661Y-97184164D01*
X152814106Y-97224132D01*
X152814105Y-97224133D01*
X152793076Y-97251300D01*
X152787884Y-97257194D01*
X152365171Y-97679909D01*
X151701532Y-98343546D01*
X151636946Y-98404942D01*
X151601899Y-98455294D01*
X151599062Y-98459056D01*
X151560302Y-98506592D01*
X151560299Y-98506597D01*
X151544392Y-98537047D01*
X151540324Y-98543761D01*
X151520702Y-98571954D01*
X151496509Y-98628330D01*
X151494488Y-98632584D01*
X151466091Y-98686951D01*
X151466090Y-98686952D01*
X151456640Y-98719975D01*
X151454007Y-98727371D01*
X151440459Y-98758943D01*
X151428113Y-98819019D01*
X151426990Y-98823595D01*
X151410113Y-98882577D01*
X151410113Y-98882579D01*
X151407503Y-98916841D01*
X151406414Y-98924608D01*
X151402211Y-98945067D01*
X151399500Y-98958258D01*
X151399500Y-99019597D01*
X151399321Y-99024306D01*
X151394662Y-99085474D01*
X151396707Y-99101527D01*
X151399003Y-99119560D01*
X151399500Y-99127388D01*
X151399500Y-99604241D01*
X151379815Y-99671280D01*
X151363181Y-99691922D01*
X151361505Y-99693597D01*
X151231575Y-99879158D01*
X151176998Y-99922783D01*
X151107500Y-99929977D01*
X151045145Y-99898454D01*
X151028425Y-99879158D01*
X150898494Y-99693597D01*
X150896819Y-99691922D01*
X150896315Y-99691000D01*
X150895014Y-99689449D01*
X150895325Y-99689187D01*
X150863334Y-99630599D01*
X150860500Y-99604241D01*
X150860500Y-96985782D01*
X150880185Y-96918743D01*
X150896819Y-96898101D01*
X152040934Y-95753986D01*
X152102257Y-95720501D01*
X152128615Y-95717667D01*
X158928754Y-95717667D01*
X158995793Y-95737352D01*
G37*
%TD.AperFunction*%
%TA.AperFunction,Conductor*%
G36*
X142428397Y-79725616D02*
G01*
X142468925Y-79782531D01*
X142474054Y-79802676D01*
X142481393Y-79846659D01*
X142562106Y-80081767D01*
X142562108Y-80081772D01*
X142680421Y-80300395D01*
X142680425Y-80300400D01*
X142833100Y-80496557D01*
X142833109Y-80496567D01*
X143006230Y-80655938D01*
X143042221Y-80715825D01*
X143040120Y-80785663D01*
X143006230Y-80838396D01*
X142833109Y-80997766D01*
X142833100Y-80997776D01*
X142680425Y-81193933D01*
X142680421Y-81193938D01*
X142562108Y-81412561D01*
X142562106Y-81412566D01*
X142481393Y-81647675D01*
X142440477Y-81892875D01*
X142440477Y-82141458D01*
X142481393Y-82386658D01*
X142562106Y-82621767D01*
X142562108Y-82621772D01*
X142680421Y-82840395D01*
X142680425Y-82840400D01*
X142833100Y-83036557D01*
X142833109Y-83036567D01*
X143006230Y-83195938D01*
X143042221Y-83255825D01*
X143040120Y-83325663D01*
X143006230Y-83378396D01*
X142833109Y-83537766D01*
X142833100Y-83537776D01*
X142680425Y-83733933D01*
X142680421Y-83733938D01*
X142562108Y-83952561D01*
X142562106Y-83952566D01*
X142481393Y-84187675D01*
X142440477Y-84432875D01*
X142440477Y-84681458D01*
X142481393Y-84926658D01*
X142562106Y-85161767D01*
X142562108Y-85161772D01*
X142680421Y-85380395D01*
X142680425Y-85380400D01*
X142833100Y-85576557D01*
X142833109Y-85576567D01*
X143006230Y-85735938D01*
X143042221Y-85795825D01*
X143040120Y-85865663D01*
X143006230Y-85918396D01*
X142833109Y-86077766D01*
X142833100Y-86077776D01*
X142680425Y-86273933D01*
X142680421Y-86273938D01*
X142562108Y-86492561D01*
X142562106Y-86492566D01*
X142481393Y-86727675D01*
X142472469Y-86781157D01*
X142442734Y-86959352D01*
X142440477Y-86972875D01*
X142440477Y-87221461D01*
X142445214Y-87249851D01*
X142436831Y-87319216D01*
X142392278Y-87373037D01*
X142325699Y-87394228D01*
X142316625Y-87394100D01*
X142189064Y-87387631D01*
X142189061Y-87387631D01*
X141987936Y-87418442D01*
X141987924Y-87418445D01*
X141797118Y-87489111D01*
X141797111Y-87489115D01*
X141624432Y-87596745D01*
X141624427Y-87596749D01*
X141476949Y-87736938D01*
X141476948Y-87736940D01*
X141360705Y-87903949D01*
X141280459Y-88090943D01*
X141239500Y-88290258D01*
X141239500Y-98375673D01*
X141219815Y-98442712D01*
X141167011Y-98488467D01*
X141097853Y-98498411D01*
X141034297Y-98469386D01*
X141008113Y-98437673D01*
X140283517Y-97182636D01*
X136812979Y-91171487D01*
X136811073Y-91167921D01*
X136806065Y-91157766D01*
X136788373Y-91121890D01*
X136692767Y-90923360D01*
X136689927Y-90916413D01*
X136654560Y-90812225D01*
X136606143Y-90655258D01*
X136604584Y-90649098D01*
X136581273Y-90531905D01*
X136580788Y-90529131D01*
X136557895Y-90377240D01*
X136557340Y-90372101D01*
X136552688Y-90301120D01*
X136549319Y-90249706D01*
X136549186Y-90245651D01*
X136549186Y-90170000D01*
X137175941Y-90170000D01*
X137196536Y-90405403D01*
X137196538Y-90405413D01*
X137257694Y-90633655D01*
X137257696Y-90633659D01*
X137257697Y-90633663D01*
X137282806Y-90687508D01*
X137357564Y-90847828D01*
X137357565Y-90847830D01*
X137493105Y-91041402D01*
X137660197Y-91208494D01*
X137853769Y-91344034D01*
X137853771Y-91344035D01*
X138067937Y-91443903D01*
X138296192Y-91505063D01*
X138472634Y-91520500D01*
X138590566Y-91520500D01*
X138767008Y-91505063D01*
X138995263Y-91443903D01*
X139209429Y-91344035D01*
X139403001Y-91208495D01*
X139570095Y-91041401D01*
X139705635Y-90847830D01*
X139805503Y-90633663D01*
X139866663Y-90405408D01*
X139887259Y-90170000D01*
X139866663Y-89934592D01*
X139805503Y-89706337D01*
X139705635Y-89492171D01*
X139705634Y-89492169D01*
X139570094Y-89298597D01*
X139403002Y-89131505D01*
X139209430Y-88995965D01*
X139209428Y-88995964D01*
X139102346Y-88946031D01*
X138995263Y-88896097D01*
X138995259Y-88896096D01*
X138995255Y-88896094D01*
X138767013Y-88834938D01*
X138767003Y-88834936D01*
X138590566Y-88819500D01*
X138472634Y-88819500D01*
X138296196Y-88834936D01*
X138296186Y-88834938D01*
X138067944Y-88896094D01*
X138067935Y-88896098D01*
X137853771Y-88995964D01*
X137853769Y-88995965D01*
X137660197Y-89131505D01*
X137493106Y-89298597D01*
X137493101Y-89298604D01*
X137357567Y-89492165D01*
X137357565Y-89492169D01*
X137257698Y-89706335D01*
X137257694Y-89706344D01*
X137196538Y-89934586D01*
X137196536Y-89934596D01*
X137175941Y-90169999D01*
X137175941Y-90170000D01*
X136549186Y-90170000D01*
X136549186Y-90094347D01*
X136549319Y-90090292D01*
X136552688Y-90038880D01*
X136557340Y-89967893D01*
X136557894Y-89962764D01*
X136580791Y-89810854D01*
X136581271Y-89808108D01*
X136604586Y-89690892D01*
X136606140Y-89684750D01*
X136654552Y-89527797D01*
X136689928Y-89423583D01*
X136692765Y-89416642D01*
X136788408Y-89218039D01*
X136792875Y-89208979D01*
X136811084Y-89172054D01*
X136812978Y-89168511D01*
X142244359Y-79761085D01*
X142294925Y-79712871D01*
X142363532Y-79699648D01*
X142428397Y-79725616D01*
G37*
%TD.AperFunction*%
%TA.AperFunction,Conductor*%
G36*
X165035703Y-84070316D02*
G01*
X165061885Y-84102026D01*
X166075991Y-85858509D01*
X167979615Y-89155684D01*
X167979616Y-89155684D01*
X167987012Y-89168496D01*
X167988923Y-89172073D01*
X168011592Y-89218039D01*
X168107231Y-89416637D01*
X168110076Y-89423597D01*
X168145434Y-89527759D01*
X168159680Y-89573942D01*
X168193853Y-89684732D01*
X168195417Y-89690915D01*
X168218716Y-89808046D01*
X168219215Y-89810902D01*
X168242101Y-89962740D01*
X168242661Y-89967928D01*
X168250561Y-90088455D01*
X168250681Y-90090276D01*
X168250814Y-90094333D01*
X168250814Y-90245665D01*
X168250682Y-90249706D01*
X168250506Y-90252390D01*
X168242661Y-90372070D01*
X168242101Y-90377258D01*
X168219215Y-90529096D01*
X168218716Y-90531952D01*
X168195417Y-90649083D01*
X168193853Y-90655265D01*
X168145441Y-90812219D01*
X168127049Y-90866402D01*
X168110079Y-90916394D01*
X168107227Y-90923371D01*
X168011609Y-91121925D01*
X167988915Y-91167942D01*
X167987002Y-91171520D01*
X165061887Y-96237969D01*
X165011320Y-96286185D01*
X164942713Y-96299408D01*
X164877848Y-96273440D01*
X164837320Y-96216525D01*
X164830500Y-96175969D01*
X164830500Y-90841297D01*
X164850185Y-90774258D01*
X164902989Y-90728503D01*
X164972147Y-90718559D01*
X165035703Y-90747584D01*
X165066882Y-90788892D01*
X165094364Y-90847828D01*
X165094365Y-90847830D01*
X165229905Y-91041402D01*
X165396997Y-91208494D01*
X165590569Y-91344034D01*
X165590571Y-91344035D01*
X165804737Y-91443903D01*
X166032992Y-91505063D01*
X166209434Y-91520500D01*
X166327366Y-91520500D01*
X166503808Y-91505063D01*
X166732063Y-91443903D01*
X166946229Y-91344035D01*
X167139801Y-91208495D01*
X167306895Y-91041401D01*
X167442435Y-90847830D01*
X167542303Y-90633663D01*
X167603463Y-90405408D01*
X167624059Y-90170000D01*
X167603463Y-89934592D01*
X167542303Y-89706337D01*
X167442435Y-89492171D01*
X167442434Y-89492169D01*
X167306894Y-89298597D01*
X167139802Y-89131505D01*
X166946230Y-88995965D01*
X166946228Y-88995964D01*
X166839146Y-88946031D01*
X166732063Y-88896097D01*
X166732059Y-88896096D01*
X166732055Y-88896094D01*
X166503813Y-88834938D01*
X166503803Y-88834936D01*
X166327366Y-88819500D01*
X166209434Y-88819500D01*
X166032996Y-88834936D01*
X166032986Y-88834938D01*
X165804744Y-88896094D01*
X165804735Y-88896098D01*
X165590571Y-88995964D01*
X165590569Y-88995965D01*
X165396997Y-89131505D01*
X165229906Y-89298597D01*
X165229901Y-89298604D01*
X165094367Y-89492165D01*
X165094365Y-89492170D01*
X165066882Y-89551107D01*
X165020709Y-89603546D01*
X164953515Y-89622698D01*
X164886634Y-89602482D01*
X164841300Y-89549316D01*
X164830500Y-89498702D01*
X164830500Y-84164029D01*
X164850185Y-84096990D01*
X164902989Y-84051235D01*
X164972147Y-84041291D01*
X165035703Y-84070316D01*
G37*
%TD.AperFunction*%
%TA.AperFunction,Conductor*%
G36*
X159330223Y-76170633D02*
G01*
X159349246Y-76171879D01*
X159381421Y-76173988D01*
X159601196Y-76190458D01*
X159608626Y-76191472D01*
X159716522Y-76212934D01*
X159873630Y-76248793D01*
X159876669Y-76249487D01*
X159882806Y-76251224D01*
X159995915Y-76289620D01*
X159998622Y-76290609D01*
X160141557Y-76346707D01*
X160146319Y-76348812D01*
X160187660Y-76369198D01*
X160256306Y-76403051D01*
X160259851Y-76404945D01*
X160390948Y-76480634D01*
X160394376Y-76482766D01*
X160496335Y-76550893D01*
X160500531Y-76553960D01*
X160500549Y-76553974D01*
X160620595Y-76649708D01*
X160622807Y-76651558D01*
X160712610Y-76730313D01*
X160717178Y-76734755D01*
X160828921Y-76855186D01*
X160901434Y-76937872D01*
X160906051Y-76943830D01*
X161030084Y-77125749D01*
X161058711Y-77168593D01*
X161060854Y-77172039D01*
X161461836Y-77866562D01*
X161478309Y-77934462D01*
X161455456Y-78000489D01*
X161400535Y-78043680D01*
X161330982Y-78050321D01*
X161324009Y-78048768D01*
X161102059Y-77992563D01*
X160953254Y-77980233D01*
X160916370Y-77977177D01*
X160042984Y-77977177D01*
X160009431Y-77979957D01*
X159857294Y-77992563D01*
X159616311Y-78053588D01*
X159388664Y-78153443D01*
X159180554Y-78289407D01*
X158997669Y-78457766D01*
X158997660Y-78457776D01*
X158844985Y-78653933D01*
X158844981Y-78653938D01*
X158726668Y-78872561D01*
X158726666Y-78872566D01*
X158645953Y-79107675D01*
X158605037Y-79352875D01*
X158605037Y-79601458D01*
X158645953Y-79846658D01*
X158726666Y-80081767D01*
X158726668Y-80081772D01*
X158844981Y-80300395D01*
X158844985Y-80300400D01*
X158997660Y-80496557D01*
X158997669Y-80496567D01*
X159171160Y-80656278D01*
X159207151Y-80716165D01*
X159205050Y-80786003D01*
X159171160Y-80838737D01*
X158998032Y-80998112D01*
X158998029Y-80998116D01*
X158845407Y-81194204D01*
X158845403Y-81194210D01*
X158727128Y-81412762D01*
X158727125Y-81412771D01*
X158646439Y-81647799D01*
X158626521Y-81767167D01*
X160605677Y-81767167D01*
X160672716Y-81786852D01*
X160718471Y-81839656D01*
X160729677Y-81891167D01*
X160729677Y-82143167D01*
X160709992Y-82210206D01*
X160657188Y-82255961D01*
X160605677Y-82267167D01*
X158626521Y-82267167D01*
X158646439Y-82386534D01*
X158727125Y-82621562D01*
X158727128Y-82621571D01*
X158845403Y-82840123D01*
X158845407Y-82840129D01*
X158998029Y-83036217D01*
X158998032Y-83036220D01*
X159171160Y-83195596D01*
X159207150Y-83255483D01*
X159205050Y-83325321D01*
X159171161Y-83378055D01*
X159027899Y-83509938D01*
X158997671Y-83537766D01*
X158997664Y-83537772D01*
X158997660Y-83537776D01*
X158844985Y-83733933D01*
X158844978Y-83733943D01*
X158815923Y-83787632D01*
X158766703Y-83837222D01*
X158714365Y-83852386D01*
X158707400Y-83852807D01*
X158697424Y-83854636D01*
X158675073Y-83856667D01*
X158289881Y-83856667D01*
X158286136Y-83856554D01*
X158224229Y-83852809D01*
X158224222Y-83852809D01*
X158163219Y-83863988D01*
X158159518Y-83864551D01*
X158097961Y-83872026D01*
X158097954Y-83872028D01*
X158088480Y-83875621D01*
X158066882Y-83881642D01*
X158056901Y-83883472D01*
X158056896Y-83883473D01*
X158000338Y-83908928D01*
X157996879Y-83910360D01*
X157938903Y-83932348D01*
X157938899Y-83932351D01*
X157930556Y-83938109D01*
X157911021Y-83949127D01*
X157901781Y-83953286D01*
X157901772Y-83953291D01*
X157852957Y-83991535D01*
X157849942Y-83993753D01*
X157798901Y-84028985D01*
X157757775Y-84075407D01*
X157755208Y-84078133D01*
X155194162Y-86639181D01*
X155132839Y-86672666D01*
X155106481Y-86675500D01*
X153747146Y-86675500D01*
X153680107Y-86655815D01*
X153674259Y-86651817D01*
X153652210Y-86635797D01*
X153609545Y-86580467D01*
X153603567Y-86510853D01*
X153607166Y-86497162D01*
X153622373Y-86450360D01*
X153660910Y-86331756D01*
X153680696Y-86143500D01*
X153660910Y-85955244D01*
X153602415Y-85775216D01*
X153507769Y-85611284D01*
X153507580Y-85611074D01*
X153507509Y-85610927D01*
X153503950Y-85606028D01*
X153504846Y-85605376D01*
X153477355Y-85548080D01*
X153475736Y-85528108D01*
X153475736Y-85488271D01*
X153475849Y-85484526D01*
X153479593Y-85422630D01*
X153468413Y-85361622D01*
X153467851Y-85357925D01*
X153460376Y-85296365D01*
X153460375Y-85296361D01*
X153456782Y-85286887D01*
X153450755Y-85265265D01*
X153448930Y-85255306D01*
X153448930Y-85255304D01*
X153423475Y-85198748D01*
X153422045Y-85195293D01*
X153400054Y-85137306D01*
X153394295Y-85128963D01*
X153383266Y-85109408D01*
X153379113Y-85100179D01*
X153379110Y-85100174D01*
X153340869Y-85051363D01*
X153338649Y-85048346D01*
X153325065Y-85028667D01*
X153303419Y-84997307D01*
X153256986Y-84956171D01*
X153254292Y-84953635D01*
X147298765Y-78998108D01*
X147296231Y-78995417D01*
X147255096Y-78948984D01*
X147255095Y-78948983D01*
X147255091Y-78948979D01*
X147204063Y-78913758D01*
X147201054Y-78911544D01*
X147152227Y-78873291D01*
X147152222Y-78873287D01*
X147142980Y-78869128D01*
X147123433Y-78858103D01*
X147115098Y-78852350D01*
X147115099Y-78852350D01*
X147115097Y-78852349D01*
X147057108Y-78830356D01*
X147053657Y-78828926D01*
X146997097Y-78803471D01*
X146987113Y-78801641D01*
X146965510Y-78795618D01*
X146956041Y-78792027D01*
X146956037Y-78792026D01*
X146894480Y-78784551D01*
X146890779Y-78783988D01*
X146829775Y-78772809D01*
X146829770Y-78772809D01*
X146767864Y-78776554D01*
X146764119Y-78776667D01*
X146090118Y-78776667D01*
X146023079Y-78756982D01*
X145981063Y-78711685D01*
X145949812Y-78653938D01*
X145949808Y-78653933D01*
X145797133Y-78457776D01*
X145797124Y-78457766D01*
X145614238Y-78289407D01*
X145614239Y-78289407D01*
X145406129Y-78153443D01*
X145178482Y-78053588D01*
X144937499Y-77992563D01*
X144788694Y-77980233D01*
X144751810Y-77977177D01*
X143878424Y-77977177D01*
X143844871Y-77979957D01*
X143692734Y-77992563D01*
X143476880Y-78047224D01*
X143407059Y-78044598D01*
X143349742Y-78004642D01*
X143323126Y-77940041D01*
X143335661Y-77871305D01*
X143339037Y-77865047D01*
X143739160Y-77172014D01*
X143741290Y-77168587D01*
X143769915Y-77125749D01*
X143893963Y-76943803D01*
X143898546Y-76937890D01*
X143971126Y-76855128D01*
X144082836Y-76734735D01*
X144087365Y-76730331D01*
X144177251Y-76651504D01*
X144179381Y-76649723D01*
X144299474Y-76553951D01*
X144303608Y-76550929D01*
X144405683Y-76482724D01*
X144409026Y-76480645D01*
X144540163Y-76404933D01*
X144543630Y-76403080D01*
X144653704Y-76348797D01*
X144658421Y-76346713D01*
X144801403Y-76290597D01*
X144804056Y-76289626D01*
X144917230Y-76251209D01*
X144923301Y-76249491D01*
X145083442Y-76212939D01*
X145191378Y-76191469D01*
X145198811Y-76190455D01*
X145418660Y-76173980D01*
X145453835Y-76171675D01*
X145469747Y-76170633D01*
X145473802Y-76170500D01*
X159326168Y-76170500D01*
X159330223Y-76170633D01*
G37*
%TD.AperFunction*%
%TD*%
M02*
