%TF.GenerationSoftware,KiCad,Pcbnew,7.0.9*%
%TF.CreationDate,2024-01-11T17:27:43+09:00*%
%TF.ProjectId,LineIntegratedBoard,4c696e65-496e-4746-9567-726174656442,rev?*%
%TF.SameCoordinates,Original*%
%TF.FileFunction,Drillmap*%
%TF.FilePolarity,Positive*%
%FSLAX45Y45*%
G04 Gerber Fmt 4.5, Leading zero omitted, Abs format (unit mm)*
G04 Created by KiCad (PCBNEW 7.0.9) date 2024-01-11 17:27:43*
%MOMM*%
%LPD*%
G01*
G04 APERTURE LIST*
%ADD10C,0.200000*%
%ADD11C,0.100000*%
G04 APERTURE END LIST*
D10*
X13964359Y-9017000D02*
G75*
G03*
X13964359Y-9017000I-110000J0D01*
G01*
X16106025Y-10317000D02*
X16798846Y-9117000D01*
X14547180Y-10417000D02*
X15932820Y-10417000D01*
X14373975Y-7717000D02*
X13681154Y-8917000D01*
X14547180Y-7617000D02*
G75*
G03*
X14373975Y-7717000I0J-200000D01*
G01*
X16798846Y-9117000D02*
G75*
G03*
X16798846Y-8917000I-173206J100000D01*
G01*
X16735641Y-9017000D02*
G75*
G03*
X16735641Y-9017000I-110000J0D01*
G01*
X16798846Y-8917000D02*
X16106025Y-7717000D01*
X13681154Y-9117000D02*
X14373975Y-10317000D01*
X16106025Y-7717000D02*
G75*
G03*
X15932820Y-7617000I-173205J-100000D01*
G01*
X14373975Y-10317000D02*
G75*
G03*
X14547180Y-10417000I173205J100000D01*
G01*
X15932820Y-10417000D02*
G75*
G03*
X16106025Y-10317000I0J200000D01*
G01*
X13681154Y-8917000D02*
G75*
G03*
X13681154Y-9117000I173206J-100000D01*
G01*
X15932820Y-7617000D02*
X14547180Y-7617000D01*
D11*
X13848400Y-8692200D02*
X13888400Y-8732200D01*
X13888400Y-8692200D02*
X13848400Y-8732200D01*
X13975400Y-9327200D02*
X14015400Y-9367200D01*
X14015400Y-9327200D02*
X13975400Y-9367200D01*
X14051600Y-9657400D02*
X14091600Y-9697400D01*
X14091600Y-9657400D02*
X14051600Y-9697400D01*
X14137295Y-8726206D02*
X14177295Y-8766206D01*
X14177295Y-8726206D02*
X14137295Y-8766206D01*
X14204000Y-8819200D02*
X14244000Y-8859200D01*
X14244000Y-8819200D02*
X14204000Y-8859200D01*
X14204000Y-8946200D02*
X14244000Y-8986200D01*
X14244000Y-8946200D02*
X14204000Y-8986200D01*
X14331000Y-9809800D02*
X14371000Y-9849800D01*
X14371000Y-9809800D02*
X14331000Y-9849800D01*
X14559600Y-9657400D02*
X14599600Y-9697400D01*
X14599600Y-9657400D02*
X14559600Y-9697400D01*
X14559600Y-10038400D02*
X14599600Y-10078400D01*
X14599600Y-10038400D02*
X14559600Y-10078400D01*
X14585000Y-7727000D02*
X14625000Y-7767000D01*
X14625000Y-7727000D02*
X14585000Y-7767000D01*
X14599297Y-9252097D02*
X14639297Y-9292097D01*
X14639297Y-9252097D02*
X14599297Y-9292097D01*
X14641533Y-9042067D02*
X14681533Y-9082067D01*
X14681533Y-9042067D02*
X14641533Y-9082067D01*
X14664007Y-9369450D02*
X14704007Y-9409450D01*
X14704007Y-9369450D02*
X14664007Y-9409450D01*
X15143800Y-9733600D02*
X15183800Y-9773600D01*
X15183800Y-9733600D02*
X15143800Y-9773600D01*
X15181900Y-7739700D02*
X15221900Y-7779700D01*
X15221900Y-7739700D02*
X15181900Y-7779700D01*
X15181900Y-8273100D02*
X15221900Y-8313100D01*
X15221900Y-8273100D02*
X15181900Y-8313100D01*
X15220000Y-9886000D02*
X15260000Y-9926000D01*
X15260000Y-9886000D02*
X15220000Y-9926000D01*
X15257524Y-8594350D02*
X15297524Y-8634350D01*
X15297524Y-8594350D02*
X15257524Y-8634350D01*
X15280069Y-9825931D02*
X15320069Y-9865931D01*
X15320069Y-9825931D02*
X15280069Y-9865931D01*
X15296069Y-8719177D02*
X15336069Y-8759177D01*
X15336069Y-8719177D02*
X15296069Y-8759177D01*
X15366804Y-9282244D02*
X15406804Y-9322244D01*
X15406804Y-9282244D02*
X15366804Y-9322244D01*
X15372400Y-9174800D02*
X15412400Y-9214800D01*
X15412400Y-9174800D02*
X15372400Y-9214800D01*
X15702600Y-9593900D02*
X15742600Y-9633900D01*
X15742600Y-9593900D02*
X15702600Y-9633900D01*
X15740700Y-8323900D02*
X15780700Y-8363900D01*
X15780700Y-8323900D02*
X15740700Y-8363900D01*
X15766100Y-7866700D02*
X15806100Y-7906700D01*
X15806100Y-7866700D02*
X15766100Y-7906700D01*
X15778800Y-9276400D02*
X15818800Y-9316400D01*
X15818800Y-9276400D02*
X15778800Y-9316400D01*
X15867700Y-9886000D02*
X15907700Y-9926000D01*
X15907700Y-9886000D02*
X15867700Y-9926000D01*
X15893100Y-10292400D02*
X15933100Y-10332400D01*
X15933100Y-10292400D02*
X15893100Y-10332400D01*
X15918500Y-7701600D02*
X15958500Y-7741600D01*
X15958500Y-7701600D02*
X15918500Y-7741600D01*
X15982000Y-9632000D02*
X16022000Y-9672000D01*
X16022000Y-9632000D02*
X15982000Y-9672000D01*
X16243000Y-8819200D02*
X16283000Y-8859200D01*
X16283000Y-8819200D02*
X16243000Y-8859200D01*
X16243000Y-8946200D02*
X16283000Y-8986200D01*
X16283000Y-8946200D02*
X16243000Y-8986200D01*
X16248700Y-9924100D02*
X16288700Y-9964100D01*
X16288700Y-9924100D02*
X16248700Y-9964100D01*
X16515400Y-8768400D02*
X16555400Y-8808400D01*
X16555400Y-8768400D02*
X16515400Y-8808400D01*
X16515400Y-9441500D02*
X16555400Y-9481500D01*
X16555400Y-9441500D02*
X16515400Y-9481500D01*
D10*
X13905136Y-10738484D02*
X13905136Y-10538484D01*
X13905136Y-10538484D02*
X13952755Y-10538484D01*
X13952755Y-10538484D02*
X13981327Y-10548008D01*
X13981327Y-10548008D02*
X14000374Y-10567055D01*
X14000374Y-10567055D02*
X14009898Y-10586103D01*
X14009898Y-10586103D02*
X14019422Y-10624198D01*
X14019422Y-10624198D02*
X14019422Y-10652770D01*
X14019422Y-10652770D02*
X14009898Y-10690865D01*
X14009898Y-10690865D02*
X14000374Y-10709912D01*
X14000374Y-10709912D02*
X13981327Y-10728960D01*
X13981327Y-10728960D02*
X13952755Y-10738484D01*
X13952755Y-10738484D02*
X13905136Y-10738484D01*
X14105136Y-10738484D02*
X14105136Y-10605150D01*
X14105136Y-10643246D02*
X14114660Y-10624198D01*
X14114660Y-10624198D02*
X14124184Y-10614674D01*
X14124184Y-10614674D02*
X14143231Y-10605150D01*
X14143231Y-10605150D02*
X14162279Y-10605150D01*
X14228946Y-10738484D02*
X14228946Y-10605150D01*
X14228946Y-10538484D02*
X14219422Y-10548008D01*
X14219422Y-10548008D02*
X14228946Y-10557531D01*
X14228946Y-10557531D02*
X14238469Y-10548008D01*
X14238469Y-10548008D02*
X14228946Y-10538484D01*
X14228946Y-10538484D02*
X14228946Y-10557531D01*
X14352755Y-10738484D02*
X14333708Y-10728960D01*
X14333708Y-10728960D02*
X14324184Y-10709912D01*
X14324184Y-10709912D02*
X14324184Y-10538484D01*
X14457517Y-10738484D02*
X14438469Y-10728960D01*
X14438469Y-10728960D02*
X14428946Y-10709912D01*
X14428946Y-10709912D02*
X14428946Y-10538484D01*
X14686089Y-10738484D02*
X14686089Y-10538484D01*
X14686089Y-10538484D02*
X14752755Y-10681341D01*
X14752755Y-10681341D02*
X14819422Y-10538484D01*
X14819422Y-10538484D02*
X14819422Y-10738484D01*
X15000374Y-10738484D02*
X15000374Y-10633722D01*
X15000374Y-10633722D02*
X14990850Y-10614674D01*
X14990850Y-10614674D02*
X14971803Y-10605150D01*
X14971803Y-10605150D02*
X14933708Y-10605150D01*
X14933708Y-10605150D02*
X14914660Y-10614674D01*
X15000374Y-10728960D02*
X14981327Y-10738484D01*
X14981327Y-10738484D02*
X14933708Y-10738484D01*
X14933708Y-10738484D02*
X14914660Y-10728960D01*
X14914660Y-10728960D02*
X14905136Y-10709912D01*
X14905136Y-10709912D02*
X14905136Y-10690865D01*
X14905136Y-10690865D02*
X14914660Y-10671817D01*
X14914660Y-10671817D02*
X14933708Y-10662293D01*
X14933708Y-10662293D02*
X14981327Y-10662293D01*
X14981327Y-10662293D02*
X15000374Y-10652770D01*
X15095612Y-10605150D02*
X15095612Y-10805150D01*
X15095612Y-10614674D02*
X15114660Y-10605150D01*
X15114660Y-10605150D02*
X15152755Y-10605150D01*
X15152755Y-10605150D02*
X15171803Y-10614674D01*
X15171803Y-10614674D02*
X15181327Y-10624198D01*
X15181327Y-10624198D02*
X15190850Y-10643246D01*
X15190850Y-10643246D02*
X15190850Y-10700389D01*
X15190850Y-10700389D02*
X15181327Y-10719436D01*
X15181327Y-10719436D02*
X15171803Y-10728960D01*
X15171803Y-10728960D02*
X15152755Y-10738484D01*
X15152755Y-10738484D02*
X15114660Y-10738484D01*
X15114660Y-10738484D02*
X15095612Y-10728960D01*
X15276565Y-10719436D02*
X15286089Y-10728960D01*
X15286089Y-10728960D02*
X15276565Y-10738484D01*
X15276565Y-10738484D02*
X15267041Y-10728960D01*
X15267041Y-10728960D02*
X15276565Y-10719436D01*
X15276565Y-10719436D02*
X15276565Y-10738484D01*
X15276565Y-10614674D02*
X15286089Y-10624198D01*
X15286089Y-10624198D02*
X15276565Y-10633722D01*
X15276565Y-10633722D02*
X15267041Y-10624198D01*
X15267041Y-10624198D02*
X15276565Y-10614674D01*
X15276565Y-10614674D02*
X15276565Y-10633722D01*
D11*
X13604359Y-11047000D02*
X13644359Y-11087000D01*
X13644359Y-11047000D02*
X13604359Y-11087000D01*
D10*
X13943231Y-10958484D02*
X13962279Y-10958484D01*
X13962279Y-10958484D02*
X13981327Y-10968008D01*
X13981327Y-10968008D02*
X13990850Y-10977531D01*
X13990850Y-10977531D02*
X14000374Y-10996579D01*
X14000374Y-10996579D02*
X14009898Y-11034674D01*
X14009898Y-11034674D02*
X14009898Y-11082293D01*
X14009898Y-11082293D02*
X14000374Y-11120389D01*
X14000374Y-11120389D02*
X13990850Y-11139436D01*
X13990850Y-11139436D02*
X13981327Y-11148960D01*
X13981327Y-11148960D02*
X13962279Y-11158484D01*
X13962279Y-11158484D02*
X13943231Y-11158484D01*
X13943231Y-11158484D02*
X13924184Y-11148960D01*
X13924184Y-11148960D02*
X13914660Y-11139436D01*
X13914660Y-11139436D02*
X13905136Y-11120389D01*
X13905136Y-11120389D02*
X13895612Y-11082293D01*
X13895612Y-11082293D02*
X13895612Y-11034674D01*
X13895612Y-11034674D02*
X13905136Y-10996579D01*
X13905136Y-10996579D02*
X13914660Y-10977531D01*
X13914660Y-10977531D02*
X13924184Y-10968008D01*
X13924184Y-10968008D02*
X13943231Y-10958484D01*
X14095612Y-11139436D02*
X14105136Y-11148960D01*
X14105136Y-11148960D02*
X14095612Y-11158484D01*
X14095612Y-11158484D02*
X14086089Y-11148960D01*
X14086089Y-11148960D02*
X14095612Y-11139436D01*
X14095612Y-11139436D02*
X14095612Y-11158484D01*
X14276565Y-11025150D02*
X14276565Y-11158484D01*
X14228946Y-10948960D02*
X14181327Y-11091817D01*
X14181327Y-11091817D02*
X14305136Y-11091817D01*
X14419422Y-10958484D02*
X14438470Y-10958484D01*
X14438470Y-10958484D02*
X14457517Y-10968008D01*
X14457517Y-10968008D02*
X14467041Y-10977531D01*
X14467041Y-10977531D02*
X14476565Y-10996579D01*
X14476565Y-10996579D02*
X14486089Y-11034674D01*
X14486089Y-11034674D02*
X14486089Y-11082293D01*
X14486089Y-11082293D02*
X14476565Y-11120389D01*
X14476565Y-11120389D02*
X14467041Y-11139436D01*
X14467041Y-11139436D02*
X14457517Y-11148960D01*
X14457517Y-11148960D02*
X14438470Y-11158484D01*
X14438470Y-11158484D02*
X14419422Y-11158484D01*
X14419422Y-11158484D02*
X14400374Y-11148960D01*
X14400374Y-11148960D02*
X14390850Y-11139436D01*
X14390850Y-11139436D02*
X14381327Y-11120389D01*
X14381327Y-11120389D02*
X14371803Y-11082293D01*
X14371803Y-11082293D02*
X14371803Y-11034674D01*
X14371803Y-11034674D02*
X14381327Y-10996579D01*
X14381327Y-10996579D02*
X14390850Y-10977531D01*
X14390850Y-10977531D02*
X14400374Y-10968008D01*
X14400374Y-10968008D02*
X14419422Y-10958484D01*
X14609898Y-10958484D02*
X14628946Y-10958484D01*
X14628946Y-10958484D02*
X14647993Y-10968008D01*
X14647993Y-10968008D02*
X14657517Y-10977531D01*
X14657517Y-10977531D02*
X14667041Y-10996579D01*
X14667041Y-10996579D02*
X14676565Y-11034674D01*
X14676565Y-11034674D02*
X14676565Y-11082293D01*
X14676565Y-11082293D02*
X14667041Y-11120389D01*
X14667041Y-11120389D02*
X14657517Y-11139436D01*
X14657517Y-11139436D02*
X14647993Y-11148960D01*
X14647993Y-11148960D02*
X14628946Y-11158484D01*
X14628946Y-11158484D02*
X14609898Y-11158484D01*
X14609898Y-11158484D02*
X14590850Y-11148960D01*
X14590850Y-11148960D02*
X14581327Y-11139436D01*
X14581327Y-11139436D02*
X14571803Y-11120389D01*
X14571803Y-11120389D02*
X14562279Y-11082293D01*
X14562279Y-11082293D02*
X14562279Y-11034674D01*
X14562279Y-11034674D02*
X14571803Y-10996579D01*
X14571803Y-10996579D02*
X14581327Y-10977531D01*
X14581327Y-10977531D02*
X14590850Y-10968008D01*
X14590850Y-10968008D02*
X14609898Y-10958484D01*
X14762279Y-11158484D02*
X14762279Y-11025150D01*
X14762279Y-11044198D02*
X14771803Y-11034674D01*
X14771803Y-11034674D02*
X14790850Y-11025150D01*
X14790850Y-11025150D02*
X14819422Y-11025150D01*
X14819422Y-11025150D02*
X14838470Y-11034674D01*
X14838470Y-11034674D02*
X14847993Y-11053722D01*
X14847993Y-11053722D02*
X14847993Y-11158484D01*
X14847993Y-11053722D02*
X14857517Y-11034674D01*
X14857517Y-11034674D02*
X14876565Y-11025150D01*
X14876565Y-11025150D02*
X14905136Y-11025150D01*
X14905136Y-11025150D02*
X14924184Y-11034674D01*
X14924184Y-11034674D02*
X14933708Y-11053722D01*
X14933708Y-11053722D02*
X14933708Y-11158484D01*
X15028946Y-11158484D02*
X15028946Y-11025150D01*
X15028946Y-11044198D02*
X15038470Y-11034674D01*
X15038470Y-11034674D02*
X15057517Y-11025150D01*
X15057517Y-11025150D02*
X15086089Y-11025150D01*
X15086089Y-11025150D02*
X15105136Y-11034674D01*
X15105136Y-11034674D02*
X15114660Y-11053722D01*
X15114660Y-11053722D02*
X15114660Y-11158484D01*
X15114660Y-11053722D02*
X15124184Y-11034674D01*
X15124184Y-11034674D02*
X15143231Y-11025150D01*
X15143231Y-11025150D02*
X15171803Y-11025150D01*
X15171803Y-11025150D02*
X15190851Y-11034674D01*
X15190851Y-11034674D02*
X15200374Y-11053722D01*
X15200374Y-11053722D02*
X15200374Y-11158484D01*
X15590851Y-10948960D02*
X15419422Y-11206103D01*
X15847993Y-10958484D02*
X15867041Y-10958484D01*
X15867041Y-10958484D02*
X15886089Y-10968008D01*
X15886089Y-10968008D02*
X15895613Y-10977531D01*
X15895613Y-10977531D02*
X15905136Y-10996579D01*
X15905136Y-10996579D02*
X15914660Y-11034674D01*
X15914660Y-11034674D02*
X15914660Y-11082293D01*
X15914660Y-11082293D02*
X15905136Y-11120389D01*
X15905136Y-11120389D02*
X15895613Y-11139436D01*
X15895613Y-11139436D02*
X15886089Y-11148960D01*
X15886089Y-11148960D02*
X15867041Y-11158484D01*
X15867041Y-11158484D02*
X15847993Y-11158484D01*
X15847993Y-11158484D02*
X15828946Y-11148960D01*
X15828946Y-11148960D02*
X15819422Y-11139436D01*
X15819422Y-11139436D02*
X15809898Y-11120389D01*
X15809898Y-11120389D02*
X15800374Y-11082293D01*
X15800374Y-11082293D02*
X15800374Y-11034674D01*
X15800374Y-11034674D02*
X15809898Y-10996579D01*
X15809898Y-10996579D02*
X15819422Y-10977531D01*
X15819422Y-10977531D02*
X15828946Y-10968008D01*
X15828946Y-10968008D02*
X15847993Y-10958484D01*
X16000374Y-11139436D02*
X16009898Y-11148960D01*
X16009898Y-11148960D02*
X16000374Y-11158484D01*
X16000374Y-11158484D02*
X15990851Y-11148960D01*
X15990851Y-11148960D02*
X16000374Y-11139436D01*
X16000374Y-11139436D02*
X16000374Y-11158484D01*
X16133708Y-10958484D02*
X16152755Y-10958484D01*
X16152755Y-10958484D02*
X16171803Y-10968008D01*
X16171803Y-10968008D02*
X16181327Y-10977531D01*
X16181327Y-10977531D02*
X16190851Y-10996579D01*
X16190851Y-10996579D02*
X16200374Y-11034674D01*
X16200374Y-11034674D02*
X16200374Y-11082293D01*
X16200374Y-11082293D02*
X16190851Y-11120389D01*
X16190851Y-11120389D02*
X16181327Y-11139436D01*
X16181327Y-11139436D02*
X16171803Y-11148960D01*
X16171803Y-11148960D02*
X16152755Y-11158484D01*
X16152755Y-11158484D02*
X16133708Y-11158484D01*
X16133708Y-11158484D02*
X16114660Y-11148960D01*
X16114660Y-11148960D02*
X16105136Y-11139436D01*
X16105136Y-11139436D02*
X16095613Y-11120389D01*
X16095613Y-11120389D02*
X16086089Y-11082293D01*
X16086089Y-11082293D02*
X16086089Y-11034674D01*
X16086089Y-11034674D02*
X16095613Y-10996579D01*
X16095613Y-10996579D02*
X16105136Y-10977531D01*
X16105136Y-10977531D02*
X16114660Y-10968008D01*
X16114660Y-10968008D02*
X16133708Y-10958484D01*
X16390851Y-11158484D02*
X16276565Y-11158484D01*
X16333708Y-11158484D02*
X16333708Y-10958484D01*
X16333708Y-10958484D02*
X16314660Y-10987055D01*
X16314660Y-10987055D02*
X16295613Y-11006103D01*
X16295613Y-11006103D02*
X16276565Y-11015627D01*
X16571803Y-10958484D02*
X16476565Y-10958484D01*
X16476565Y-10958484D02*
X16467041Y-11053722D01*
X16467041Y-11053722D02*
X16476565Y-11044198D01*
X16476565Y-11044198D02*
X16495613Y-11034674D01*
X16495613Y-11034674D02*
X16543232Y-11034674D01*
X16543232Y-11034674D02*
X16562279Y-11044198D01*
X16562279Y-11044198D02*
X16571803Y-11053722D01*
X16571803Y-11053722D02*
X16581327Y-11072770D01*
X16581327Y-11072770D02*
X16581327Y-11120389D01*
X16581327Y-11120389D02*
X16571803Y-11139436D01*
X16571803Y-11139436D02*
X16562279Y-11148960D01*
X16562279Y-11148960D02*
X16543232Y-11158484D01*
X16543232Y-11158484D02*
X16495613Y-11158484D01*
X16495613Y-11158484D02*
X16476565Y-11148960D01*
X16476565Y-11148960D02*
X16467041Y-11139436D01*
X16647994Y-10958484D02*
X16781327Y-10958484D01*
X16781327Y-10958484D02*
X16695613Y-11158484D01*
X16847994Y-10958484D02*
X16847994Y-10996579D01*
X16924184Y-10958484D02*
X16924184Y-10996579D01*
X17219422Y-11234674D02*
X17209898Y-11225150D01*
X17209898Y-11225150D02*
X17190851Y-11196579D01*
X17190851Y-11196579D02*
X17181327Y-11177531D01*
X17181327Y-11177531D02*
X17171803Y-11148960D01*
X17171803Y-11148960D02*
X17162279Y-11101341D01*
X17162279Y-11101341D02*
X17162279Y-11063246D01*
X17162279Y-11063246D02*
X17171803Y-11015627D01*
X17171803Y-11015627D02*
X17181327Y-10987055D01*
X17181327Y-10987055D02*
X17190851Y-10968008D01*
X17190851Y-10968008D02*
X17209898Y-10939436D01*
X17209898Y-10939436D02*
X17219422Y-10929912D01*
X17276565Y-10958484D02*
X17400375Y-10958484D01*
X17400375Y-10958484D02*
X17333708Y-11034674D01*
X17333708Y-11034674D02*
X17362279Y-11034674D01*
X17362279Y-11034674D02*
X17381327Y-11044198D01*
X17381327Y-11044198D02*
X17390851Y-11053722D01*
X17390851Y-11053722D02*
X17400375Y-11072770D01*
X17400375Y-11072770D02*
X17400375Y-11120389D01*
X17400375Y-11120389D02*
X17390851Y-11139436D01*
X17390851Y-11139436D02*
X17381327Y-11148960D01*
X17381327Y-11148960D02*
X17362279Y-11158484D01*
X17362279Y-11158484D02*
X17305137Y-11158484D01*
X17305137Y-11158484D02*
X17286089Y-11148960D01*
X17286089Y-11148960D02*
X17276565Y-11139436D01*
X17581327Y-10958484D02*
X17486089Y-10958484D01*
X17486089Y-10958484D02*
X17476565Y-11053722D01*
X17476565Y-11053722D02*
X17486089Y-11044198D01*
X17486089Y-11044198D02*
X17505137Y-11034674D01*
X17505137Y-11034674D02*
X17552756Y-11034674D01*
X17552756Y-11034674D02*
X17571803Y-11044198D01*
X17571803Y-11044198D02*
X17581327Y-11053722D01*
X17581327Y-11053722D02*
X17590851Y-11072770D01*
X17590851Y-11072770D02*
X17590851Y-11120389D01*
X17590851Y-11120389D02*
X17581327Y-11139436D01*
X17581327Y-11139436D02*
X17571803Y-11148960D01*
X17571803Y-11148960D02*
X17552756Y-11158484D01*
X17552756Y-11158484D02*
X17505137Y-11158484D01*
X17505137Y-11158484D02*
X17486089Y-11148960D01*
X17486089Y-11148960D02*
X17476565Y-11139436D01*
X17828946Y-11158484D02*
X17828946Y-10958484D01*
X17914660Y-11158484D02*
X17914660Y-11053722D01*
X17914660Y-11053722D02*
X17905137Y-11034674D01*
X17905137Y-11034674D02*
X17886089Y-11025150D01*
X17886089Y-11025150D02*
X17857518Y-11025150D01*
X17857518Y-11025150D02*
X17838470Y-11034674D01*
X17838470Y-11034674D02*
X17828946Y-11044198D01*
X18038470Y-11158484D02*
X18019422Y-11148960D01*
X18019422Y-11148960D02*
X18009899Y-11139436D01*
X18009899Y-11139436D02*
X18000375Y-11120389D01*
X18000375Y-11120389D02*
X18000375Y-11063246D01*
X18000375Y-11063246D02*
X18009899Y-11044198D01*
X18009899Y-11044198D02*
X18019422Y-11034674D01*
X18019422Y-11034674D02*
X18038470Y-11025150D01*
X18038470Y-11025150D02*
X18067041Y-11025150D01*
X18067041Y-11025150D02*
X18086089Y-11034674D01*
X18086089Y-11034674D02*
X18095613Y-11044198D01*
X18095613Y-11044198D02*
X18105137Y-11063246D01*
X18105137Y-11063246D02*
X18105137Y-11120389D01*
X18105137Y-11120389D02*
X18095613Y-11139436D01*
X18095613Y-11139436D02*
X18086089Y-11148960D01*
X18086089Y-11148960D02*
X18067041Y-11158484D01*
X18067041Y-11158484D02*
X18038470Y-11158484D01*
X18219422Y-11158484D02*
X18200375Y-11148960D01*
X18200375Y-11148960D02*
X18190851Y-11129912D01*
X18190851Y-11129912D02*
X18190851Y-10958484D01*
X18371803Y-11148960D02*
X18352756Y-11158484D01*
X18352756Y-11158484D02*
X18314660Y-11158484D01*
X18314660Y-11158484D02*
X18295613Y-11148960D01*
X18295613Y-11148960D02*
X18286089Y-11129912D01*
X18286089Y-11129912D02*
X18286089Y-11053722D01*
X18286089Y-11053722D02*
X18295613Y-11034674D01*
X18295613Y-11034674D02*
X18314660Y-11025150D01*
X18314660Y-11025150D02*
X18352756Y-11025150D01*
X18352756Y-11025150D02*
X18371803Y-11034674D01*
X18371803Y-11034674D02*
X18381327Y-11053722D01*
X18381327Y-11053722D02*
X18381327Y-11072770D01*
X18381327Y-11072770D02*
X18286089Y-11091817D01*
X18457518Y-11148960D02*
X18476565Y-11158484D01*
X18476565Y-11158484D02*
X18514660Y-11158484D01*
X18514660Y-11158484D02*
X18533708Y-11148960D01*
X18533708Y-11148960D02*
X18543232Y-11129912D01*
X18543232Y-11129912D02*
X18543232Y-11120389D01*
X18543232Y-11120389D02*
X18533708Y-11101341D01*
X18533708Y-11101341D02*
X18514660Y-11091817D01*
X18514660Y-11091817D02*
X18486089Y-11091817D01*
X18486089Y-11091817D02*
X18467041Y-11082293D01*
X18467041Y-11082293D02*
X18457518Y-11063246D01*
X18457518Y-11063246D02*
X18457518Y-11053722D01*
X18457518Y-11053722D02*
X18467041Y-11034674D01*
X18467041Y-11034674D02*
X18486089Y-11025150D01*
X18486089Y-11025150D02*
X18514660Y-11025150D01*
X18514660Y-11025150D02*
X18533708Y-11034674D01*
X18609899Y-11234674D02*
X18619422Y-11225150D01*
X18619422Y-11225150D02*
X18638470Y-11196579D01*
X18638470Y-11196579D02*
X18647994Y-11177531D01*
X18647994Y-11177531D02*
X18657518Y-11148960D01*
X18657518Y-11148960D02*
X18667041Y-11101341D01*
X18667041Y-11101341D02*
X18667041Y-11063246D01*
X18667041Y-11063246D02*
X18657518Y-11015627D01*
X18657518Y-11015627D02*
X18647994Y-10987055D01*
X18647994Y-10987055D02*
X18638470Y-10968008D01*
X18638470Y-10968008D02*
X18619422Y-10939436D01*
X18619422Y-10939436D02*
X18609899Y-10929912D01*
M02*
