%TF.GenerationSoftware,KiCad,Pcbnew,7.0.9*%
%TF.CreationDate,2024-01-11T17:38:52+09:00*%
%TF.ProjectId,LineStick,4c696e65-5374-4696-936b-2e6b69636164,rev?*%
%TF.SameCoordinates,Original*%
%TF.FileFunction,Soldermask,Bot*%
%TF.FilePolarity,Negative*%
%FSLAX46Y46*%
G04 Gerber Fmt 4.6, Leading zero omitted, Abs format (unit mm)*
G04 Created by KiCad (PCBNEW 7.0.9) date 2024-01-11 17:38:52*
%MOMM*%
%LPD*%
G01*
G04 APERTURE LIST*
%ADD10C,1.600000*%
%ADD11C,1.524000*%
%ADD12R,1.800000X1.800000*%
%ADD13C,1.800000*%
%ADD14O,1.000000X1.200000*%
%ADD15C,3.200000*%
G04 APERTURE END LIST*
D10*
%TO.C,C1*%
X150114000Y-130017200D03*
X150114000Y-132517200D03*
%TD*%
%TO.C,C5*%
X150114000Y-86614000D03*
X150114000Y-89114000D03*
%TD*%
D11*
%TO.C,U3*%
X154940000Y-105389350D03*
X154940000Y-102849350D03*
X149860000Y-102849350D03*
X149860000Y-105389350D03*
%TD*%
%TO.C,U5*%
X154940000Y-83748550D03*
X154940000Y-81208550D03*
X149860000Y-81208550D03*
X149860000Y-83748550D03*
%TD*%
D12*
%TO.C,D4*%
X153466800Y-97434400D03*
D13*
X153466800Y-99974400D03*
%TD*%
D10*
%TO.C,C3*%
X150114000Y-108295450D03*
X150114000Y-110795450D03*
%TD*%
D14*
%TO.C,J1*%
X150520400Y-136550400D03*
X151790400Y-136550400D03*
X153060400Y-136550400D03*
X154330400Y-136550400D03*
X150520400Y-135026400D03*
X151790400Y-135026400D03*
X153060400Y-135026400D03*
X154330400Y-135026400D03*
%TD*%
D11*
%TO.C,U1*%
X154940000Y-127131750D03*
X154940000Y-124591750D03*
X149860000Y-124591750D03*
X149860000Y-127131750D03*
%TD*%
D10*
%TO.C,C2*%
X150114000Y-119166650D03*
X150114000Y-121666650D03*
%TD*%
D12*
%TO.C,D3*%
X153466800Y-108275450D03*
D13*
X153466800Y-110815450D03*
%TD*%
D12*
%TO.C,D1*%
X153466800Y-129997200D03*
D13*
X153466800Y-132537200D03*
%TD*%
D12*
%TO.C,D2*%
X153466800Y-119146650D03*
D13*
X153466800Y-121686650D03*
%TD*%
D11*
%TO.C,U4*%
X154940000Y-94568950D03*
X154940000Y-92028950D03*
X149860000Y-92028950D03*
X149860000Y-94568950D03*
%TD*%
D12*
%TO.C,D5*%
X153466800Y-86614000D03*
D13*
X153466800Y-89154000D03*
%TD*%
D15*
%TO.C,REF\u002A\u002A*%
X152400000Y-76200000D03*
%TD*%
D11*
%TO.C,U2*%
X154940000Y-116260550D03*
X154940000Y-113720550D03*
X149860000Y-113720550D03*
X149860000Y-116260550D03*
%TD*%
D10*
%TO.C,C4*%
X150114000Y-97459400D03*
X150114000Y-99959400D03*
%TD*%
M02*
