0
SECTION
2
HEADER
9
$INSUNITS
70
4
9
$ACADVER
1
AC1014
9
$HANDSEED
5
FFFF
0
ENDSEC
0
SECTION
2
TABLES
0
TABLE
2
VPORT
5
8
100
AcDbSymbolTable
0
ENDTAB
0
TABLE
2
LTYPE
5
5
100
AcDbSymbolTable
0
LTYPE
5
14
100
AcDbSymbolTableRecord
100
AcDbLinetypeTableRecord
2
BYBLOCK
70
0
0
LTYPE
5
15
100
AcDbSymbolTableRecord
100
AcDbLinetypeTableRecord
2
BYLAYER
70
0
0
ENDTAB
0
TABLE
2
LAYER
5
2
100
AcDbSymbolTable
70
2
0
LAYER
5
50
100
AcDbSymbolTableRecord
100
AcDbLayerTableRecord
2
0
70
0
6
CONTINUOUS
0
ENDTAB
0
TABLE
2
STYLE
5
3
100
AcDbSymbolTable
70
1
0
STYLE
5
11
100
AcDbSymbolTableRecord
100
AcDbTextStyleTableRecord
2
STANDARD
70
0
0
ENDTAB
0
TABLE
2
VIEW
5
6
100
AcDbSymbolTable
70
0
0
ENDTAB
0
TABLE
2
UCS
5
7
100
AcDbSymbolTable
70
0
0
ENDTAB
0
TABLE
2
APPID
5
9
100
AcDbSymbolTable
70
2
0
APPID
5
12
100
AcDbSymbolTableRecord
100
AcDbRegAppTableRecord
2
ACAD
70
0
0
ENDTAB
0
TABLE
2
DIMSTYLE
5
A
100
AcDbSymbolTable
70
1
0
ENDTAB
0
TABLE
2
BLOCK_RECORD
5
1
100
AcDbSymbolTable
70
1
0
BLOCK_RECORD
5
1F
100
AcDbSymbolTableRecord
100
AcDbBlockTableRecord
2
*MODEL_SPACE
0
BLOCK_RECORD
5
1B
100
AcDbSymbolTableRecord
100
AcDbBlockTableRecord
2
*PAPER_SPACE
0
ENDTAB
0
ENDSEC
0
SECTION
2
BLOCKS
0
BLOCK
5
20
100
AcDbEntity
100
AcDbBlockBegin
2
*MODEL_SPACE
0
ENDBLK
5
21
100
AcDbEntity
100
AcDbBlockEnd
0
BLOCK
5
1C
100
AcDbEntity
100
AcDbBlockBegin
2
*PAPER_SPACE
0
ENDBLK
5
1D
100
AcDbEntity
100
AcDbBlockEnd
0
ENDSEC
0
SECTION
2
ENTITIES
0
LWPOLYLINE
5
100
100
AcDbEntity
8
0
100
AcDbPolyline
90
50
70
1
43
0.0
10
3.3977062073983304e-14
20
-7.0000001043083238
10
3.5135371006950669e-14
20
-10.000000104308304
10
2.7846098714942968
20
-10.000000104308299
42
-0.1316524975873915
10
3.784609871494264
20
-10.26794929673942
10
13.038104073692187
20
-15.610456665323413
42
-0.26794919243112481
10
14.038104073692201
20
-17.342507472892301
10
14.0381040736922
20
-50.268501840048998
42
-0.27381602456883886
10
13.000000223517391
20
-52.021999999999977
10
5.1070259132757201e-14
20
-52.021999999999977
10
5.3290705182007514e-14
20
-57.02200000000002
10
28.961153571899203
20
-57.022000000000006
42
-0.13165249758739661
10
30.46115357189921
20
-57.42392378864669
10
43.500000000000007
20
-64.951905283832886
42
-0.26794919243112253
10
45
20
-67.549981495186202
10
45
20
-79.021671451790198
42
0.41421356237309509
10
48.000000000000007
20
-82.021671451790198
10
64.137499045947507
20
-82.021671451790098
42
0.76732698797893439
10
66.137499045947166
20
-74.557569836652618
10
60.243729182084486
20
-71.154800219209847
42
-0.41421356237309281
10
57.773057706539532
20
-61.934128743664928
10
82.523057706539532
20
-19.065871256335104
42
-0.41421356237309603
10
91.743729182084508
20
-16.595199780790153
10
97.637499045947195
20
-19.997969398233
42
0.52377771201051893
10
103.58353861212333
20
-17.188674427970305
42
0.35826667534616941
10
36.905940594059352
20
98.300313065970272
42
0.52377771201051992
10
31.500000000000043
20
94.555539234885714
10
31.500000000000007
20
87.75
42
-0.4142135623730952
10
24.749999999999996
20
81
10
0
20
80.999999999999972
10
2.7027208435905127e-15
20
74.000000000000014
10
1.9999999999999751
20
74.000000000000014
42
-0.41421356237309154
10
3.9999999999999702
20
72.000000000000014
10
4.0000000000000018
20
58.5000008419156
42
-0.41421356237309603
10
1.9999999999999929
20
56.5000008419156
10
9.4368957093138306e-15
20
56.500000841915615
10
2.9332951992221136e-14
20
56.1500008195639
42
-0.99999999999999989
10
1.0821756418236837e-14
20
53.850000819563903
10
1.0617831577728255e-14
20
53.500000797212117
10
1.9999999999999929
20
53.50000079721211
42
-0.41421356237309603
10
4
20
51.500000797212103
10
3.9999999999999898
20
11.000000000000005
42
-0.41421356237309531
10
1.9999999999999929
20
9.0000000000000018
10
2.7755575615628914e-14
20
9.0000000000000036
10
2.8571620306254821e-14
20
7.0000001043080928
10
2.8867514061705002
20
7.0000001043080893
42
-0.26794919243112308
10
4.6188022137393689
20
6.0000001043080697
10
7.5055536199098105
20
0.99999999999983014
42
-0.26794919243112186
10
7.5055536199097883
20
-1.0000000000001648
10
4.6188022137392268
20
-6.0000001043083397
42
-0.26794919243112236
10
2.8867514061703403
20
-7.000000104308322
0
LWPOLYLINE
5
101
100
AcDbEntity
8
0
100
AcDbPolyline
90
8
70
1
43
0.0
10
60.353829072479606
20
-39.464101615137807
10
7.5262794416288177
20
-8.9641016151377571
42
-0.41421356237309481
10
6.7942286340599436
20
-6.2320508075688794
10
8.794228634059932
20
-2.7679491924311073
42
-0.41421356237309254
10
11.5262794416288
20
-2.0358983848622425
10
64.353829072479655
20
-32.535898384862222
42
-0.41421356237308787
10
65.085879880048495
20
-35.267949192431104
10
63.085879880048509
20
-38.732050807568903
42
-0.41421356237309476
0
LWPOLYLINE
5
102
100
AcDbEntity
8
0
100
AcDbPolyline
90
12
70
1
43
0.0
10
43.75
20
78.9303265398744
10
43.75
20
-11.980018085684794
42
-0.57735026918962695
10
39.25
20
-14.578094297038113
10
10.784609871493146
20
1.8564063562433657
42
-0.13165249758740022
10
10.052559063924232
20
2.5884571638122535
10
7.2679491924311135
20
7.4115429404963882
42
-0.13165249758739322
10
7.0000000000000009
20
8.4115429404963713
10
7.0000000000000018
20
70.51000005215441
42
-0.4142135623730942
10
10
20
73.510000052154396
10
24.749999999999996
20
73.510000052154396
42
0.21853211710960022
10
35.547241524709413
20
78.465756682866797
42
-0.085109527864803261
10
39.256810563443729
20
81.532322947742159
42
-0.57647746258821742
0
LWPOLYLINE
5
103
100
AcDbEntity
8
0
100
AcDbPolyline
90
8
70
1
43
0.0
10
20.038104073692207
20
-50.022363007941507
10
20.038104073692196
20
-23.116010164788406
42
-0.57735026918962329
10
23.038104073692189
20
-21.383959357219517
10
58.429476669791185
20
-41.81717785256722
42
-0.41421356237304385
10
59.161527477360266
20
-44.549228660135789
10
58.957854849328413
20
-44.901999999998097
42
-0.26794919243116427
10
46.625653099436889
20
-52.022000000000006
10
22.000000268220905
20
-52.021999999999963
42
-0.40864399829911102
0
LWPOLYLINE
5
104
100
AcDbEntity
8
0
100
AcDbPolyline
90
8
70
1
43
0.0
10
74.778229367476413
20
-17.500307539800598
10
68.161527477360238
20
-28.960771392017236
42
-0.41421356237293688
10
65.429476669792109
20
-29.692822199585965
10
50.250000000000014
20
-20.928947258124218
42
-0.26794919243112353
10
48.750000000000007
20
-18.330871046770902
10
48.75
20
-16.500307539800598
42
-0.41421356237309637
10
50.750000000000014
20
-14.500307539800598
10
73.046178559907503
20
-14.500307539800573
42
-0.57735026918962384
0
LWPOLYLINE
5
105
100
AcDbEntity
8
0
100
AcDbPolyline
90
9
70
1
43
0.0
10
48.75
20
-7.5000001788139414
10
48.750000000000007
20
79.036359191737105
42
-0.57007403520692812
10
53.192753623941947
20
81.666656129461444
42
-0.022137191215843698
10
54.269851639893204
20
81.012241683439242
42
-0.23254162676436566
10
97.293585134019693
20
6.4929493372878797
42
-0.37949843377973147
10
85.72695937621431
20
-8.4480641467008777
42
0.0037135478354735794
10
85.519407582156617
20
-8.4888475703308792
42
-0.050405785733221818
10
75.514767096328995
20
-9.5000001788139077
10
50.750000000000014
20
-9.5000001788139414
42
-0.4142135623730962
0
CIRCLE
5
106
100
AcDbEntity
8
0
100
AcDbCircle
10
-64.137499045947209
20
-78.021671451790397
30
0
40
1.6000000000000003
210
0
220
0
230
-1
0
CIRCLE
5
107
100
AcDbEntity
8
0
100
AcDbCircle
10
-99.637499045947209
20
-16.533867783095204
30
0
40
1.6000000000000003
210
0
220
0
230
-1
0
CIRCLE
5
108
100
AcDbEntity
8
0
100
AcDbCircle
10
-35.5
20
94.555539234885714
30
0
40
1.6000000000000003
210
0
220
0
230
-1
0
CIRCLE
5
109
100
AcDbEntity
8
0
100
AcDbCircle
10
-46.25
20
52.750000528991201
30
0
40
1.6000000000000003
210
0
220
0
230
-1
0
CIRCLE
5
110
100
AcDbEntity
8
0
100
AcDbCircle
10
-46.25
20
62.755000324100301
30
0
40
1.1499999999999999
210
0
220
0
230
-1
0
CIRCLE
5
111
100
AcDbEntity
8
0
100
AcDbCircle
10
-46.25
20
72.760000324100304
30
0
40
1.6000000000000003
210
0
220
0
230
-1
0
CIRCLE
5
112
100
AcDbEntity
8
0
100
AcDbCircle
10
-46.25
20
-4.5000001788139397
30
0
40
1.6000000000000003
210
0
220
0
230
-1
0
CIRCLE
5
113
100
AcDbEntity
8
0
100
AcDbCircle
10
-18.0000001959644
20
76.000001177191706
30
0
40
1.6000000000000003
210
0
220
0
230
-1
0
CIRCLE
5
114
100
AcDbEntity
8
0
100
AcDbCircle
10
-62.942616241594997
20
-45.0001908125559
30
0
40
1.6000000000000003
210
0
220
0
230
-1
0
CIRCLE
5
115
100
AcDbEntity
8
0
100
AcDbCircle
10
-70.442616353353714
20
-32.009809562217598
30
0
40
1.6000000000000003
210
0
220
0
230
-1
0
CIRCLE
5
116
100
AcDbEntity
8
0
100
AcDbCircle
10
-7.5000002980231102
20
77.010000052154396
30
0
40
1.6000000000000003
210
0
220
0
230
-1
0
CIRCLE
5
117
100
AcDbEntity
8
0
100
AcDbCircle
10
-55.000000895158898
20
-12.000000000000002
30
0
40
1.6000000000000003
210
0
220
0
230
-1
0
CIRCLE
5
118
100
AcDbEntity
8
0
100
AcDbCircle
10
-48.000000000000007
20
-69.021671451790098
30
0
40
1.0999999999999901
210
0
220
0
230
-1
0
CIRCLE
5
119
100
AcDbEntity
8
0
100
AcDbCircle
10
-48.000000000000007
20
-79.021671451790198
30
0
40
1.1000000000000001
210
0
220
0
230
-1
0
CIRCLE
5
120
100
AcDbEntity
8
0
100
AcDbCircle
10
-17.0381040736922
20
-39.737806934513003
30
0
40
1.1000000000000001
210
0
220
0
230
-1
0
CIRCLE
5
121
100
AcDbEntity
8
0
100
AcDbCircle
10
-17.0381040736922
20
-18.187806934512999
30
0
40
1.1000000000000001
210
0
220
0
230
-1
0
ENDSEC
0
SECTION
2
OBJECTS
0
DICTIONARY
5
C
100
AcDbDictionary
3
ACAD_GROUP
350
D
3
ACAD_MLINESTYLE
350
17
0
DICTIONARY
5
D
100
AcDbDictionary
0
DICTIONARY
5
1A
330
C
100
AcDbDictionary
0
DICTIONARY
5
17
100
AcDbDictionary
0
ENDSEC
0
EOF
