0
SECTION
2
HEADER
9
$INSUNITS
70
4
9
$ACADVER
1
AC1014
9
$HANDSEED
5
FFFF
0
ENDSEC
0
SECTION
2
TABLES
0
TABLE
2
VPORT
5
8
100
AcDbSymbolTable
0
ENDTAB
0
TABLE
2
LTYPE
5
5
100
AcDbSymbolTable
0
LTYPE
5
14
100
AcDbSymbolTableRecord
100
AcDbLinetypeTableRecord
2
BYBLOCK
70
0
0
LTYPE
5
15
100
AcDbSymbolTableRecord
100
AcDbLinetypeTableRecord
2
BYLAYER
70
0
0
ENDTAB
0
TABLE
2
LAYER
5
2
100
AcDbSymbolTable
70
2
0
LAYER
5
50
100
AcDbSymbolTableRecord
100
AcDbLayerTableRecord
2
0
70
0
6
CONTINUOUS
0
ENDTAB
0
TABLE
2
STYLE
5
3
100
AcDbSymbolTable
70
1
0
STYLE
5
11
100
AcDbSymbolTableRecord
100
AcDbTextStyleTableRecord
2
STANDARD
70
0
0
ENDTAB
0
TABLE
2
VIEW
5
6
100
AcDbSymbolTable
70
0
0
ENDTAB
0
TABLE
2
UCS
5
7
100
AcDbSymbolTable
70
0
0
ENDTAB
0
TABLE
2
APPID
5
9
100
AcDbSymbolTable
70
2
0
APPID
5
12
100
AcDbSymbolTableRecord
100
AcDbRegAppTableRecord
2
ACAD
70
0
0
ENDTAB
0
TABLE
2
DIMSTYLE
5
A
100
AcDbSymbolTable
70
1
0
ENDTAB
0
TABLE
2
BLOCK_RECORD
5
1
100
AcDbSymbolTable
70
1
0
BLOCK_RECORD
5
1F
100
AcDbSymbolTableRecord
100
AcDbBlockTableRecord
2
*MODEL_SPACE
0
BLOCK_RECORD
5
1B
100
AcDbSymbolTableRecord
100
AcDbBlockTableRecord
2
*PAPER_SPACE
0
ENDTAB
0
ENDSEC
0
SECTION
2
BLOCKS
0
BLOCK
5
20
100
AcDbEntity
100
AcDbBlockBegin
2
*MODEL_SPACE
0
ENDBLK
5
21
100
AcDbEntity
100
AcDbBlockEnd
0
BLOCK
5
1C
100
AcDbEntity
100
AcDbBlockBegin
2
*PAPER_SPACE
0
ENDBLK
5
1D
100
AcDbEntity
100
AcDbBlockEnd
0
ENDSEC
0
SECTION
2
ENTITIES
0
LWPOLYLINE
5
100
100
AcDbEntity
8
0
100
AcDbPolyline
90
50
70
1
43
0.0
10
-3.9999999999999805
20
58.5000008419156
10
-3.9999999999999707
20
72
42
-0.41421356237309209
10
-1.99999999999998
20
74.000000000000014
10
-2.7755575615628914e-15
20
74.000000000000014
10
0
20
80.999999999999972
10
-24.75
20
81
42
-0.41421356237309509
10
-31.500000000000004
20
87.75
10
-31.500000000000004
20
94.555539234885714
42
0.52377771201051992
10
-36.905940594059366
20
98.3003130659703
42
0.35826667534616941
10
-103.58353861212333
20
-17.188674427970291
42
0.52377771201052081
10
-97.637499049349572
20
-19.997969392339886
10
-91.743729182084508
20
-16.59519978079015
42
-0.41421356237309637
10
-82.523057706539532
20
-19.065871256335104
10
-57.773057706539532
20
-61.934128743664928
42
-0.41421356237309243
10
-60.243729182084479
20
-71.154800219209847
10
-66.137499045947195
20
-74.557569836652604
42
0.76732698797893395
10
-64.137499045947493
20
-82.021671451790439
10
-48.000000000000007
20
-82.021671451790198
42
0.41421356237309509
10
-45.000000000000007
20
-79.021671451790198
10
-45
20
-67.549981495186202
42
-0.26794919243112142
10
-43.500000000000014
20
-64.951905283832886
10
-30.461153571899203
20
-57.42392378864669
42
-0.13165249758739592
10
-28.961153571899203
20
-57.022000000000006
10
-5.3290705182007514e-14
20
-57.022000000000013
10
-5.1625370645069779e-14
20
-52.022000000000013
10
-13.000000223517389
20
-52.021999999999977
42
-0.27381602456883908
10
-14.038104073692196
20
-50.268501840048998
10
-14.0381040736922
20
-17.342507472892301
42
-0.26794919243112403
10
-13.038104073692189
20
-15.610456665323419
10
-3.7846098714942671
20
-10.26794929673942
42
-0.13165249758739142
10
-2.7846098714943004
20
-10.000000104308299
10
-3.4972025275692431e-14
20
-10.000000104308304
10
-3.3861802251067274e-14
20
-7.0000001043082882
10
-2.8867514061703399
20
-7.000000104308322
42
-0.26794919243112264
10
-4.6188022137392268
20
-6.000000104308338
10
-7.5055536199097892
20
-1.0000000000001663
42
-0.26794919243112186
10
-7.5055536199098114
20
0.99999999999983014
10
-4.6188022137393689
20
6.0000001043080697
42
-0.26794919243112308
10
-2.8867514061705002
20
7.0000001043080911
10
-2.8310687127941492e-14
20
7.0000001043081284
10
-2.7755575615628914e-14
20
9.0000000000000036
10
-1.9999999999999902
20
9.0000000000000018
42
-0.41421356237309509
10
-3.9999999999999902
20
11
10
-4.0000000000000018
20
51.500000797212095
42
-0.41421356237309637
10
-2
20
53.50000079721211
10
-1.0547118733938987e-14
20
53.500000797212095
10
9.6329320442728932e-15
20
53.850000819563903
42
-0.99999999999999989
10
-9.6329320442728932e-15
20
56.1500008195639
10
-9.4368957093138306e-15
20
56.500000841915615
10
-2
20
56.500000841915615
42
-0.41421356237309509
0
LWPOLYLINE
5
101
100
AcDbEntity
8
0
100
AcDbPolyline
90
12
70
1
43
0.0
10
-35.547241524709406
20
78.465756682866783
42
0.21853211710960174
10
-24.749999999999904
20
73.510000052154425
10
-10
20
73.510000052154396
42
-0.41421356237309509
10
-7
20
70.510000052154396
10
-7.0000000000000009
20
8.4115429404963677
42
-0.13165249758739231
10
-7.2679491924311108
20
7.4115429404963917
10
-10.052559063924232
20
2.5884571638122544
42
-0.13165249758740022
10
-10.784609871493146
20
1.8564063562433664
10
-39.25
20
-14.578094297038113
42
-0.57735026918962629
10
-43.75
20
-11.980018085684801
10
-43.75
20
78.930326539874386
42
-0.57647746258821775
10
-39.25681056344375
20
81.532322947742145
42
-0.085109527864803816
0
LWPOLYLINE
5
102
100
AcDbEntity
8
0
100
AcDbPolyline
90
9
70
1
43
0.0
10
-50.75
20
-9.5000001788139432
10
-75.514767096328967
20
-9.5000001788139148
42
-0.050405785733221929
10
-85.519407582156617
20
-8.4888475703308863
42
0.0037135478354735794
10
-85.726959376214296
20
-8.448064146700883
42
-0.37949843377973175
10
-97.293585135373775
20
6.4929493373782332
42
-0.23254162676436566
10
-54.269851639893183
20
81.0122416834392
42
-0.022137191215843031
10
-53.192753623942004
20
81.666656129461487
42
-0.57007403520692934
10
-48.75
20
79.036359191737105
10
-48.75
20
-7.5000001788139414
42
-0.41421356237309492
0
LWPOLYLINE
5
103
100
AcDbEntity
8
0
100
AcDbPolyline
90
8
70
1
43
0.0
10
-58.957854849328406
20
-44.901999999998097
10
-59.161527477360266
20
-44.549228660135789
42
-0.41421356237304202
10
-58.4294766697912
20
-41.81717785256722
10
-23.038104073692192
20
-21.383959357219517
42
-0.57735026918962384
10
-20.038104073692196
20
-23.116010164788399
10
-20.038104073692157
20
-50.022363007941507
42
-0.4086439982991103
10
-22.000000268220901
20
-52.022000000000006
10
-46.625653099436903
20
-52.022000000000006
42
-0.267949192431164
0
LWPOLYLINE
5
104
100
AcDbEntity
8
0
100
AcDbPolyline
90
8
70
1
43
0.0
10
-50.250000000000014
20
-20.928947258124218
10
-65.429476669792109
20
-29.692822199585969
42
-0.41421356237293644
10
-68.161527477360238
20
-28.960771392017225
10
-74.778229367476385
20
-17.500307539800595
42
-0.57735026918962529
10
-73.046178559907503
20
-14.500307539800598
10
-50.75
20
-14.500307539800597
42
-0.41421356237309509
10
-48.75
20
-16.500307539800598
10
-48.750000000000007
20
-18.330871046770902
42
-0.26794919243112336
0
LWPOLYLINE
5
105
100
AcDbEntity
8
0
100
AcDbPolyline
90
8
70
1
43
0.0
10
-8.7942286340599249
20
-2.7679491924311161
10
-6.7942286340599436
20
-6.2320508075688785
42
-0.41421356237309548
10
-7.5262794416288212
20
-8.9641016151377588
10
-60.353829072479606
20
-39.4641016151378
42
-0.4142135623730947
10
-63.085879880048495
20
-38.732050807568903
10
-65.085879880048438
20
-35.267949192431054
42
-0.41421356237308832
10
-64.353829072479598
20
-32.535898384862293
10
-11.526279441628803
20
-2.0358983848622434
42
-0.41421356237309465
0
CIRCLE
5
106
100
AcDbEntity
8
0
100
AcDbCircle
10
-17.0381040736922
20
-18.187806934512999
30
0
40
1.100000000000001
210
0
220
0
230
1
0
CIRCLE
5
107
100
AcDbEntity
8
0
100
AcDbCircle
10
-17.0381040736922
20
-39.737806934513003
30
0
40
1.100000000000001
210
0
220
0
230
1
0
CIRCLE
5
108
100
AcDbEntity
8
0
100
AcDbCircle
10
-55.000000895158898
20
-12.000000000000002
30
0
40
1.6000000000000014
210
0
220
0
230
1
0
CIRCLE
5
109
100
AcDbEntity
8
0
100
AcDbCircle
10
-7.5000002980231102
20
77.010000052154396
30
0
40
1.6000000000000003
210
0
220
0
230
1
0
CIRCLE
5
110
100
AcDbEntity
8
0
100
AcDbCircle
10
-70.442616353353714
20
-32.009809562217598
30
0
40
1.6000000000000014
210
0
220
0
230
1
0
CIRCLE
5
111
100
AcDbEntity
8
0
100
AcDbCircle
10
-62.942616241594997
20
-45.0001908125559
30
0
40
1.6000000000000014
210
0
220
0
230
1
0
CIRCLE
5
112
100
AcDbEntity
8
0
100
AcDbCircle
10
-18.0000001959644
20
76.000001177191706
30
0
40
1.5999999999999992
210
0
220
0
230
1
0
CIRCLE
5
113
100
AcDbEntity
8
0
100
AcDbCircle
10
-46.25
20
-4.5000001788139397
30
0
40
1.6000000000000014
210
0
220
0
230
1
0
CIRCLE
5
114
100
AcDbEntity
8
0
100
AcDbCircle
10
-46.25
20
72.760000324100304
30
0
40
1.6000000000000014
210
0
220
0
230
1
0
CIRCLE
5
115
100
AcDbEntity
8
0
100
AcDbCircle
10
-46.25
20
62.755000324100301
30
0
40
1.1500000000000021
210
0
220
0
230
1
0
CIRCLE
5
116
100
AcDbEntity
8
0
100
AcDbCircle
10
-46.25
20
52.750000528991201
30
0
40
1.6000000000000014
210
0
220
0
230
1
0
CIRCLE
5
117
100
AcDbEntity
8
0
100
AcDbCircle
10
-99.637499045947209
20
-16.533867783095204
30
0
40
1.6000000000000014
210
0
220
0
230
1
0
CIRCLE
5
118
100
AcDbEntity
8
0
100
AcDbCircle
10
-35.5
20
94.555539234885714
30
0
40
1.6000000000000014
210
0
220
0
230
1
0
CIRCLE
5
119
100
AcDbEntity
8
0
100
AcDbCircle
10
-48.000000000000007
20
-69.021671451790098
30
0
40
1.0999999999999943
210
0
220
0
230
1
0
CIRCLE
5
120
100
AcDbEntity
8
0
100
AcDbCircle
10
-48.000000000000007
20
-79.021671451790198
30
0
40
1.1000000000000032
210
0
220
0
230
1
0
CIRCLE
5
121
100
AcDbEntity
8
0
100
AcDbCircle
10
-64.137499045947209
20
-78.021671451790397
30
0
40
1.6000000000000014
210
0
220
0
230
1
0
ENDSEC
0
SECTION
2
OBJECTS
0
DICTIONARY
5
C
100
AcDbDictionary
3
ACAD_GROUP
350
D
3
ACAD_MLINESTYLE
350
17
0
DICTIONARY
5
D
100
AcDbDictionary
0
DICTIONARY
5
1A
330
C
100
AcDbDictionary
0
DICTIONARY
5
17
100
AcDbDictionary
0
ENDSEC
0
EOF
