%TF.GenerationSoftware,KiCad,Pcbnew,7.0.9*%
%TF.CreationDate,2024-06-22T15:47:22+09:00*%
%TF.ProjectId,Side_Line,53696465-5f4c-4696-9e65-2e6b69636164,rev?*%
%TF.SameCoordinates,Original*%
%TF.FileFunction,Legend,Bot*%
%TF.FilePolarity,Positive*%
%FSLAX46Y46*%
G04 Gerber Fmt 4.6, Leading zero omitted, Abs format (unit mm)*
G04 Created by KiCad (PCBNEW 7.0.9) date 2024-06-22 15:47:22*
%MOMM*%
%LPD*%
G01*
G04 APERTURE LIST*
%ADD10C,0.120000*%
G04 APERTURE END LIST*
D10*
%TO.C,Q6*%
X249656933Y-127633919D02*
X249618137Y-127785018D01*
X250232899Y-125390680D02*
X250194103Y-125541779D01*
X246526494Y-126828722D02*
G75*
G03*
X249618258Y-127784549I1888034J628829D01*
G01*
X247137562Y-126986886D02*
G75*
G03*
X249154201Y-127504839I1276966J786993D01*
G01*
X249691371Y-125412700D02*
G75*
G03*
X247674652Y-124895062I-1276843J-787193D01*
G01*
X250232777Y-125391149D02*
G75*
G03*
X247062973Y-124739279I-1818249J-808744D01*
G01*
%TO.C,R2*%
X249378466Y-85647484D02*
X249849241Y-85588012D01*
X249509439Y-86684244D02*
X249980214Y-86624772D01*
%TO.C,Q5*%
X252152948Y-115239108D02*
X252133396Y-115393877D01*
X252443220Y-112941370D02*
X252423668Y-113096140D01*
X248946276Y-114832607D02*
G75*
G03*
X252133456Y-115393396I1794333J860503D01*
G01*
X249572349Y-114912938D02*
G75*
G03*
X251638002Y-115174055I1168260J940834D01*
G01*
X251908722Y-113031087D02*
G75*
G03*
X249843028Y-112770293I-1168113J-941017D01*
G01*
X252443158Y-112941850D02*
G75*
G03*
X249216647Y-112692402I-1702549J-1030254D01*
G01*
%TO.C,D2*%
X248006106Y-82210970D02*
X247976874Y-82057734D01*
X248440081Y-84485948D02*
X248410850Y-84332711D01*
X251181448Y-81606659D02*
G75*
G03*
X247976965Y-82058209I-1440602J-1372867D01*
G01*
X250561193Y-81723727D02*
G75*
G03*
X248515951Y-82113712I-820347J-1255799D01*
G01*
X248920696Y-84235452D02*
G75*
G03*
X250965875Y-83845147I820150J1255926D01*
G01*
X248439991Y-84485471D02*
G75*
G03*
X251585670Y-83725664I1300855J1505945D01*
G01*
%TO.C,R4*%
X250638542Y-104125500D02*
X251113058Y-104125500D01*
X250638542Y-105170500D02*
X251113058Y-105170500D01*
%TO.C,Q4*%
X253197800Y-102629200D02*
X253197800Y-102785200D01*
X253197800Y-100313200D02*
X253197800Y-100469200D01*
X249965466Y-102627808D02*
G75*
G03*
X253197799Y-102784715I1672334J1078608D01*
G01*
X250596671Y-102629036D02*
G75*
G03*
X252678760Y-102629199I1041129J1079836D01*
G01*
X252678760Y-100469201D02*
G75*
G03*
X250596671Y-100469364I-1040960J-1079999D01*
G01*
X253197799Y-100313685D02*
G75*
G03*
X249965466Y-100470592I-1559999J-1235515D01*
G01*
%TO.C,Q1*%
X246384866Y-65495692D02*
X246442293Y-65640738D01*
X245532289Y-63342330D02*
X245589717Y-63487375D01*
X243379004Y-66684300D02*
G75*
G03*
X246442115Y-65640288I1157836J1618492D01*
G01*
X243966337Y-66453080D02*
G75*
G03*
X245902275Y-65686763I570503J1387272D01*
G01*
X245107126Y-63678447D02*
G75*
G03*
X243171308Y-64445067I-570286J-1387361D01*
G01*
X245532467Y-63342780D02*
G75*
G03*
X242584880Y-64678571I-995627J-1723028D01*
G01*
%TO.C,D3*%
X249692292Y-94345852D02*
X249682497Y-94190160D01*
X249837715Y-96657282D02*
X249827920Y-96501590D01*
X252918336Y-94144283D02*
G75*
G03*
X249682529Y-94190643I-1601308J-1181485D01*
G01*
X252288300Y-94182689D02*
G75*
G03*
X250210308Y-94313263I-971272J-1143079D01*
G01*
X250345935Y-96468999D02*
G75*
G03*
X252423906Y-96338100I971093J1143231D01*
G01*
X249837686Y-96656798D02*
G75*
G03*
X253053788Y-96297241I1479342J1331030D01*
G01*
%TO.C,R3*%
X250613142Y-97927900D02*
X251087658Y-97927900D01*
X250613142Y-98972900D02*
X251087658Y-98972900D01*
%TO.C,Q2*%
X250168836Y-77559813D02*
X250207632Y-77710912D01*
X249592870Y-75316574D02*
X249631666Y-75467673D01*
X247037706Y-78362313D02*
G75*
G03*
X250207510Y-77710443I1351555J1460614D01*
G01*
X247649385Y-78206530D02*
G75*
G03*
X249666104Y-77688892I739876J1304831D01*
G01*
X249128933Y-75596754D02*
G75*
G03*
X247112296Y-76114706I-739672J-1304945D01*
G01*
X249592990Y-75317044D02*
G75*
G03*
X246501228Y-76272870I-1203729J-1584655D01*
G01*
%TO.C,R1*%
X246614381Y-73618650D02*
X247073990Y-73500643D01*
X246874262Y-74630819D02*
X247333871Y-74512812D01*
%TO.C,R7*%
X247785658Y-98769700D02*
X247311142Y-98769700D01*
X247785658Y-97724700D02*
X247311142Y-97724700D01*
%TO.C,D6*%
X245521005Y-130667855D02*
X245569212Y-130519490D01*
X244805322Y-132870502D02*
X244853528Y-132722137D01*
X248594708Y-131668025D02*
G75*
G03*
X245569062Y-130519951I-1923793J-509038D01*
G01*
X247994776Y-131471803D02*
G75*
G03*
X246014640Y-130828247I-1323861J-705260D01*
G01*
X245347165Y-132882528D02*
G75*
G03*
X247327400Y-133525774I1323750J705465D01*
G01*
X244805472Y-132870042D02*
G75*
G03*
X247928091Y-133719659I1865443J692979D01*
G01*
%TO.C,Q7*%
X245627118Y-139618160D02*
X245569690Y-139763205D01*
X246479694Y-137464797D02*
X246422267Y-137609843D01*
X242622282Y-138426964D02*
G75*
G03*
X245569868Y-139762754I1951959J387237D01*
G01*
X243208709Y-138660468D02*
G75*
G03*
X245144527Y-139427088I1365532J620741D01*
G01*
X245939677Y-137418772D02*
G75*
G03*
X244003737Y-136652454I-1365436J-620955D01*
G01*
X246479516Y-137465247D02*
G75*
G03*
X243416405Y-136421235I-1905275J-574480D01*
G01*
%TO.C,R5*%
X249522172Y-116414956D02*
X249992947Y-116474428D01*
X249391199Y-117451716D02*
X249861974Y-117511188D01*
%TO.C,R6*%
X246899528Y-128470771D02*
X247359137Y-128588778D01*
X246639647Y-129482940D02*
X247099256Y-129600947D01*
%TO.C,D4*%
X249834299Y-106597011D02*
X249844094Y-106441319D01*
X249688876Y-108908441D02*
X249698671Y-108752749D01*
X253060167Y-106801360D02*
G75*
G03*
X249844065Y-106441803I-1736760J-971473D01*
G01*
X252430285Y-106760501D02*
G75*
G03*
X250352314Y-106629602I-1106878J-1012332D01*
G01*
X250216687Y-108785338D02*
G75*
G03*
X252294679Y-108915912I1106720J1012505D01*
G01*
X249688908Y-108907958D02*
G75*
G03*
X252924715Y-108954318I1634499J1135125D01*
G01*
%TO.C,Q3*%
X252410934Y-90003061D02*
X252430486Y-90157831D01*
X252120662Y-87705324D02*
X252140214Y-87860093D01*
X249203913Y-90406799D02*
G75*
G03*
X252430424Y-90157351I1523962J1279702D01*
G01*
X249830294Y-90328908D02*
G75*
G03*
X251895988Y-90068114I897581J1201811D01*
G01*
X251625268Y-87925146D02*
G75*
G03*
X249559615Y-88186263I-897393J-1201951D01*
G01*
X252120722Y-87705805D02*
G75*
G03*
X248933542Y-88266594I-1392847J-1421292D01*
G01*
%TO.C,D1*%
X244822132Y-70381235D02*
X244773926Y-70232870D01*
X245537816Y-72583882D02*
X245489609Y-72435517D01*
X247896696Y-69383712D02*
G75*
G03*
X244774075Y-70233330I-1257177J-1542597D01*
G01*
X247296004Y-69577597D02*
G75*
G03*
X245315769Y-70220843I-656485J-1348712D01*
G01*
X245983245Y-72275124D02*
G75*
G03*
X247963379Y-71631569I656274J1348815D01*
G01*
X245537667Y-72583420D02*
G75*
G03*
X248563311Y-71435347I1101852J1657111D01*
G01*
%TO.C,D5*%
X248439709Y-118769363D02*
X248468940Y-118616126D01*
X248005733Y-121044340D02*
X248034965Y-120891104D01*
X251614529Y-119376410D02*
G75*
G03*
X248468850Y-118616603I-1844824J-746138D01*
G01*
X250994735Y-119256926D02*
G75*
G03*
X248949554Y-118866621I-1225030J-865622D01*
G01*
X248544810Y-120988362D02*
G75*
G03*
X250590052Y-121378347I1224895J865814D01*
G01*
X248005825Y-121043864D02*
G75*
G03*
X251210307Y-121495415I1763880J921316D01*
G01*
%TO.C,RV1*%
X245672200Y-99076200D02*
X246372200Y-99076200D01*
X247272200Y-99576200D02*
X247672200Y-99576200D01*
X245672200Y-99776200D02*
X245672200Y-99076200D01*
X249072200Y-100676200D02*
X249072200Y-103576200D01*
X245872200Y-100676200D02*
X245872200Y-103576200D01*
X249072200Y-103576200D02*
X248472200Y-103576200D01*
X245872200Y-103576200D02*
X246472200Y-103576200D01*
%TD*%
M02*
