%TF.GenerationSoftware,KiCad,Pcbnew,7.0.9*%
%TF.CreationDate,2024-06-22T15:47:22+09:00*%
%TF.ProjectId,Side_Line,53696465-5f4c-4696-9e65-2e6b69636164,rev?*%
%TF.SameCoordinates,Original*%
%TF.FileFunction,Copper,L1,Top*%
%TF.FilePolarity,Positive*%
%FSLAX46Y46*%
G04 Gerber Fmt 4.6, Leading zero omitted, Abs format (unit mm)*
G04 Created by KiCad (PCBNEW 7.0.9) date 2024-06-22 15:47:22*
%MOMM*%
%LPD*%
G01*
G04 APERTURE LIST*
G04 Aperture macros list*
%AMRotRect*
0 Rectangle, with rotation*
0 The origin of the aperture is its center*
0 $1 length*
0 $2 width*
0 $3 Rotation angle, in degrees counterclockwise*
0 Add horizontal line*
21,1,$1,$2,0,0,$3*%
G04 Aperture macros list end*
%TA.AperFunction,SMDPad,CuDef*%
%ADD10C,1.700000*%
%TD*%
%TA.AperFunction,SMDPad,CuDef*%
%ADD11O,1.700000X1.700000*%
%TD*%
%TA.AperFunction,ComponentPad*%
%ADD12RotRect,1.800000X1.800000X165.600000*%
%TD*%
%TA.AperFunction,ComponentPad*%
%ADD13C,1.800000*%
%TD*%
%TA.AperFunction,ComponentPad*%
%ADD14RotRect,1.800000X1.800000X172.800000*%
%TD*%
%TA.AperFunction,ComponentPad*%
%ADD15RotRect,1.800000X1.800000X10.800000*%
%TD*%
%TA.AperFunction,ComponentPad*%
%ADD16R,1.800000X1.800000*%
%TD*%
%TA.AperFunction,ComponentPad*%
%ADD17RotRect,1.800000X1.800000X201.600000*%
%TD*%
%TA.AperFunction,ComponentPad*%
%ADD18RotRect,1.800000X1.800000X3.600000*%
%TD*%
%TA.AperFunction,ComponentPad*%
%ADD19RotRect,1.800000X1.800000X194.400000*%
%TD*%
%TA.AperFunction,ComponentPad*%
%ADD20RotRect,1.800000X1.800000X342.000000*%
%TD*%
%TA.AperFunction,ComponentPad*%
%ADD21RotRect,1.800000X1.800000X158.400000*%
%TD*%
%TA.AperFunction,ComponentPad*%
%ADD22RotRect,1.800000X1.800000X356.400000*%
%TD*%
%TA.AperFunction,ComponentPad*%
%ADD23RotRect,1.800000X1.800000X187.200000*%
%TD*%
%TA.AperFunction,ComponentPad*%
%ADD24RotRect,1.800000X1.800000X18.000000*%
%TD*%
%TA.AperFunction,ComponentPad*%
%ADD25RotRect,1.800000X1.800000X349.200000*%
%TD*%
%TA.AperFunction,ViaPad*%
%ADD26C,0.800000*%
%TD*%
%TA.AperFunction,Conductor*%
%ADD27C,1.000000*%
%TD*%
G04 APERTURE END LIST*
D10*
%TO.P,J1,1,Pin_1*%
%TO.N,+5V*%
X247497600Y-105450800D03*
D11*
%TO.P,J1,2,Pin_2*%
%TO.N,+3.3V*%
X247497600Y-102910800D03*
%TO.P,J1,3,Pin_3*%
%TO.N,GND*%
X247497600Y-100370800D03*
%TO.P,J1,4,Pin_4*%
%TO.N,/signal*%
X247497600Y-97830800D03*
%TD*%
D12*
%TO.P,Q6,1,C*%
%TO.N,+3.3V*%
X249644629Y-126515729D03*
D13*
%TO.P,Q6,2,E*%
%TO.N,/signal*%
X247184428Y-125884057D03*
%TD*%
D14*
%TO.P,Q5,1,C*%
%TO.N,+3.3V*%
X252000595Y-114131277D03*
D13*
%TO.P,Q5,2,E*%
%TO.N,/signal*%
X249480624Y-113812931D03*
%TD*%
D15*
%TO.P,D2,1,K*%
%TO.N,Net-(D2-K)*%
X248493341Y-83217500D03*
D13*
%TO.P,D2,2,A*%
%TO.N,+5V*%
X250988351Y-82741551D03*
%TD*%
D16*
%TO.P,Q4,1,C*%
%TO.N,+3.3V*%
X252907800Y-101549200D03*
D13*
%TO.P,Q4,2,E*%
%TO.N,/signal*%
X250367800Y-101549200D03*
%TD*%
D17*
%TO.P,Q1,1,C*%
%TO.N,+3.3V*%
X245717656Y-64598290D03*
D13*
%TO.P,Q1,2,E*%
%TO.N,/signal*%
X243356024Y-65533326D03*
%TD*%
D18*
%TO.P,D3,1,K*%
%TO.N,Net-(D3-K)*%
X250049534Y-95405512D03*
D13*
%TO.P,D3,2,A*%
%TO.N,+5V*%
X252584522Y-95246024D03*
%TD*%
D19*
%TO.P,Q2,1,C*%
%TO.N,+3.3V*%
X249619362Y-76585863D03*
D13*
%TO.P,Q2,2,E*%
%TO.N,/signal*%
X247159161Y-77217535D03*
%TD*%
D20*
%TO.P,D6,1,K*%
%TO.N,Net-(D6-K)*%
X245463073Y-131784611D03*
D13*
%TO.P,D6,2,A*%
%TO.N,+5V*%
X247878757Y-132569514D03*
%TD*%
D21*
%TO.P,Q7,1,C*%
%TO.N,+3.3V*%
X245755057Y-138507245D03*
D13*
%TO.P,Q7,2,E*%
%TO.N,/signal*%
X243393425Y-137572209D03*
%TD*%
D22*
%TO.P,D4,1,K*%
%TO.N,Net-(D4-K)*%
X250055913Y-107693089D03*
D13*
%TO.P,D4,2,A*%
%TO.N,+5V*%
X252590901Y-107852577D03*
%TD*%
D23*
%TO.P,Q3,1,C*%
%TO.N,+3.3V*%
X251987861Y-88967924D03*
D13*
%TO.P,Q3,2,E*%
%TO.N,/signal*%
X249467890Y-89286270D03*
%TD*%
D24*
%TO.P,D1,1,K*%
%TO.N,Net-(D1-K)*%
X245431677Y-71318761D03*
D13*
%TO.P,D1,2,A*%
%TO.N,+5V*%
X247847361Y-70533858D03*
%TD*%
D25*
%TO.P,D5,1,K*%
%TO.N,Net-(D5-K)*%
X248522200Y-119884574D03*
D13*
%TO.P,D5,2,A*%
%TO.N,+5V*%
X251017210Y-120360523D03*
%TD*%
D26*
%TO.N,GND*%
X245364000Y-87630000D03*
X245999000Y-135128000D03*
X248158000Y-127889000D03*
X247269000Y-89281000D03*
X247523000Y-130683000D03*
X242443000Y-128016000D03*
X242697000Y-75057000D03*
X245745000Y-68072000D03*
X244983000Y-84963000D03*
X251714000Y-97028000D03*
X241554000Y-130683000D03*
X250698000Y-87376000D03*
X252984000Y-98425000D03*
X241935000Y-72263000D03*
X249174000Y-123190000D03*
X245618000Y-92202000D03*
X245999000Y-107188000D03*
X250952000Y-92329000D03*
X239903000Y-138938000D03*
X247269000Y-113792000D03*
X245110000Y-115570000D03*
X249682000Y-99822000D03*
X251968000Y-85852000D03*
X244729000Y-125730000D03*
X251924500Y-99822000D03*
X247396000Y-72390000D03*
X250317000Y-118491000D03*
X244729000Y-117983000D03*
X250317000Y-84582000D03*
X249174000Y-79883000D03*
X245618000Y-61722000D03*
X239649000Y-64389000D03*
X250317000Y-115570000D03*
X249174000Y-73533000D03*
X247650000Y-75311000D03*
X251841000Y-117221000D03*
X245364000Y-141224000D03*
X249174000Y-129540000D03*
X250825000Y-110871000D03*
%TO.N,/signal*%
X246723400Y-95910400D03*
%TD*%
D27*
%TO.N,+5V*%
X248085153Y-106038353D02*
X247497600Y-105450800D01*
X251187577Y-106038353D02*
X248085153Y-106038353D01*
X251461916Y-105450800D02*
X252590901Y-106579785D01*
X247497600Y-105450800D02*
X251461916Y-105450800D01*
X252590901Y-106579785D02*
X252590901Y-107852577D01*
X252590901Y-107441677D02*
X251187577Y-106038353D01*
X252590901Y-107852577D02*
X252590901Y-107441677D01*
%TO.N,+3.3V*%
X251357932Y-75675056D02*
X250827783Y-73729828D01*
X253092300Y-119650918D02*
X253428488Y-117662989D01*
X254619434Y-102362000D02*
X254619434Y-104698800D01*
X253517400Y-103149400D02*
X253951700Y-102715100D01*
X250827783Y-129470172D02*
X251168721Y-128219200D01*
X251081500Y-103253500D02*
X251185600Y-103149400D01*
X252907800Y-101549200D02*
X254518714Y-99938286D01*
X253983028Y-89530890D02*
X253725437Y-87531214D01*
X253420062Y-88967924D02*
X253983028Y-89530890D01*
X249619362Y-76585863D02*
X251381480Y-76585863D01*
X248327113Y-66064608D02*
X247774804Y-64617600D01*
X249072400Y-103760800D02*
X253681434Y-103760800D01*
X253428488Y-117662989D02*
X253725437Y-115668786D01*
X247803490Y-138507245D02*
X248327113Y-137135392D01*
X247736200Y-103149400D02*
X252323600Y-103149400D01*
X251681567Y-126238000D02*
X251849632Y-125569686D01*
X253041847Y-114131277D02*
X254041524Y-113131600D01*
X251357932Y-127524944D02*
X251477168Y-127050800D01*
X251656017Y-76860400D02*
X251357932Y-75675056D01*
X252000595Y-114131277D02*
X252758190Y-114131277D01*
X249644629Y-126515729D02*
X250942097Y-126515729D01*
X253681434Y-103760800D02*
X254619434Y-104698800D01*
X251081500Y-103253500D02*
X252785800Y-101549200D01*
X248327113Y-137135392D02*
X249008813Y-135237957D01*
X252941048Y-88967924D02*
X254041524Y-90068400D01*
X250259389Y-71795386D02*
X249652997Y-69872575D01*
X251477168Y-127050800D02*
X251681567Y-126238000D01*
X253725437Y-87531214D02*
X253428488Y-85537011D01*
X254619434Y-98297120D02*
X254619434Y-101041200D01*
X253428488Y-85537011D02*
X253092300Y-83549082D01*
X254518714Y-95554885D02*
X254379741Y-93543480D01*
X251987861Y-88967924D02*
X252288727Y-88967924D01*
X254379741Y-109656520D02*
X254518714Y-107645115D01*
X253725437Y-115668786D02*
X253790513Y-115163600D01*
X251403838Y-126515729D02*
X251681567Y-126238000D01*
X252907800Y-101549200D02*
X254111434Y-101549200D01*
X251210256Y-75133200D02*
X251357932Y-75675056D01*
X252906000Y-103760800D02*
X253517400Y-103149400D01*
X252716991Y-81568119D02*
X252302718Y-79594957D01*
X251987861Y-88967924D02*
X252941048Y-88967924D01*
X251987861Y-88967924D02*
X253420062Y-88967924D01*
X252302718Y-123605043D02*
X252716991Y-121631881D01*
X254379741Y-93543480D02*
X254201157Y-91535243D01*
X252785800Y-101549200D02*
X252907800Y-101549200D01*
X251849632Y-125569686D02*
X252302718Y-123605043D01*
X252907800Y-101671200D02*
X253596100Y-102359500D01*
X254201157Y-91535243D02*
X254041524Y-90068400D01*
X249644629Y-126515729D02*
X251403838Y-126515729D01*
X253983028Y-113669110D02*
X254041524Y-113131600D01*
X251975500Y-102359500D02*
X253596100Y-102359500D01*
X247774804Y-64617600D02*
X247755494Y-64598290D01*
X249072400Y-103760800D02*
X250574200Y-103760800D01*
X250574200Y-103760800D02*
X252906000Y-103760800D01*
X250530169Y-75675056D02*
X251357932Y-75675056D01*
X250574200Y-103760800D02*
X251975500Y-102359500D01*
X247497600Y-102910800D02*
X247736200Y-103149400D01*
X249008813Y-135237957D02*
X249652997Y-133327425D01*
X247653936Y-138507245D02*
X245755057Y-138507245D01*
X247497600Y-102910800D02*
X248347600Y-103760800D01*
X251072025Y-75133200D02*
X251210256Y-75133200D01*
X245755057Y-138507245D02*
X247803490Y-138507245D01*
X253806634Y-101549200D02*
X254619434Y-102362000D01*
X253790513Y-115163600D02*
X253983028Y-113669110D01*
X254518714Y-107645115D02*
X254618017Y-105631376D01*
X250574200Y-103760800D02*
X251081500Y-103253500D01*
X253092300Y-83549082D02*
X252716991Y-81568119D01*
X252323600Y-103149400D02*
X253517400Y-103149400D01*
X249644629Y-126515729D02*
X251168721Y-128039821D01*
X254518714Y-98196400D02*
X254619434Y-98297120D01*
X250942097Y-126515729D02*
X251477168Y-127050800D01*
X251185600Y-103149400D02*
X252323600Y-103149400D01*
X250827783Y-73729828D02*
X250259389Y-71795386D01*
X254518714Y-98196400D02*
X254518714Y-95554885D01*
X249008813Y-67962043D02*
X248327113Y-66064608D01*
X247755494Y-64598290D02*
X245717656Y-64598290D01*
X254041524Y-113131600D02*
X254201157Y-111664757D01*
X252302718Y-79594957D02*
X251849632Y-77630314D01*
X249619362Y-76585863D02*
X251072025Y-75133200D01*
X253596100Y-102359500D02*
X253951700Y-102715100D01*
X253951700Y-102715100D02*
X254618017Y-103381417D01*
X252288727Y-88967924D02*
X253725437Y-87531214D01*
X249652997Y-69872575D02*
X249008813Y-67962043D01*
X252907800Y-101549200D02*
X253806634Y-101549200D01*
X250259389Y-131404614D02*
X250827783Y-129470172D01*
X251381480Y-76585863D02*
X251656017Y-76860400D01*
X249619362Y-76585863D02*
X250530169Y-75675056D01*
X254619434Y-105583445D02*
X254618017Y-105631376D01*
X254201157Y-111664757D02*
X254379741Y-109656520D01*
X252758190Y-114131277D02*
X253790513Y-115163600D01*
X254518714Y-99938286D02*
X254518714Y-98196400D01*
X252000595Y-114131277D02*
X253041847Y-114131277D01*
X249652997Y-133327425D02*
X250259389Y-131404614D01*
X254618017Y-103381417D02*
X254618017Y-105631376D01*
X248347600Y-103760800D02*
X249072400Y-103760800D01*
X252716991Y-121631881D02*
X253092300Y-119650918D01*
X254111434Y-101549200D02*
X254619434Y-101041200D01*
X254041524Y-90068400D02*
X253983028Y-89530890D01*
X251849632Y-77630314D02*
X251656017Y-76860400D01*
X254619434Y-104698800D02*
X254619434Y-105583445D01*
X252907800Y-101549200D02*
X252907800Y-101671200D01*
X251168721Y-128219200D02*
X251357932Y-127524944D01*
X254619434Y-101041200D02*
X254619434Y-102362000D01*
X251168721Y-128039821D02*
X251168721Y-128219200D01*
%TO.N,/signal*%
X247233600Y-97830800D02*
X246723400Y-97320600D01*
X247497600Y-97830800D02*
X247233600Y-97830800D01*
X250190000Y-98298000D02*
X247964800Y-98298000D01*
X250367800Y-101549200D02*
X250825000Y-101092000D01*
X246723400Y-97320600D02*
X246723400Y-95910400D01*
X247497600Y-97830800D02*
X247142000Y-97475200D01*
X250825000Y-98933000D02*
X250190000Y-98298000D01*
X250825000Y-101092000D02*
X250825000Y-98933000D01*
X247142000Y-96329000D02*
X246723400Y-95910400D01*
X247142000Y-97475200D02*
X247142000Y-96329000D01*
X247964800Y-98298000D02*
X247497600Y-97830800D01*
%TD*%
%TA.AperFunction,Conductor*%
%TO.N,GND*%
G36*
X245940298Y-60120691D02*
G01*
X245966359Y-60130429D01*
X245969083Y-60131522D01*
X246083962Y-60180905D01*
X246088195Y-60182918D01*
X246192368Y-60237425D01*
X246195677Y-60239290D01*
X246302187Y-60303760D01*
X246305395Y-60305841D01*
X246401969Y-60372844D01*
X246405733Y-60375674D01*
X246502733Y-60454537D01*
X246505013Y-60456485D01*
X246591910Y-60534414D01*
X246595875Y-60538305D01*
X246683155Y-60632024D01*
X246759008Y-60719339D01*
X246762970Y-60724408D01*
X246839526Y-60833590D01*
X246900493Y-60924493D01*
X246904192Y-60930778D01*
X246978687Y-61076279D01*
X247013218Y-61144890D01*
X247015077Y-61148939D01*
X247755723Y-62928340D01*
X247774766Y-62974091D01*
X247864297Y-63201423D01*
X247953670Y-63428351D01*
X247959920Y-63497941D01*
X247927556Y-63559863D01*
X247866852Y-63594457D01*
X247838295Y-63597790D01*
X247795896Y-63597790D01*
X247791189Y-63597611D01*
X247785615Y-63597186D01*
X247730018Y-63592952D01*
X247710083Y-63595491D01*
X247695934Y-63597293D01*
X247688105Y-63597790D01*
X246912075Y-63597790D01*
X246845036Y-63578105D01*
X246799281Y-63525301D01*
X246796783Y-63519437D01*
X246670879Y-63201440D01*
X246670873Y-63201426D01*
X246670872Y-63201423D01*
X246642970Y-63148357D01*
X246546566Y-63041493D01*
X246546565Y-63041492D01*
X246423961Y-62966121D01*
X246423953Y-62966117D01*
X246285087Y-62928340D01*
X246285082Y-62928339D01*
X246141190Y-62931217D01*
X246083407Y-62947202D01*
X246083403Y-62947203D01*
X244320806Y-63645066D01*
X244320792Y-63645072D01*
X244267723Y-63672976D01*
X244267721Y-63672977D01*
X244160858Y-63769380D01*
X244085487Y-63891984D01*
X244085483Y-63891992D01*
X244047706Y-64030858D01*
X244047705Y-64030863D01*
X244049378Y-64114480D01*
X244031038Y-64181900D01*
X243979160Y-64228702D01*
X243910214Y-64240026D01*
X243885140Y-64234241D01*
X243701008Y-64171028D01*
X243529306Y-64142376D01*
X243472073Y-64132826D01*
X243239975Y-64132826D01*
X243194188Y-64140466D01*
X243011039Y-64171028D01*
X242791528Y-64246387D01*
X242791519Y-64246390D01*
X242587395Y-64356857D01*
X242587389Y-64356861D01*
X242404246Y-64499407D01*
X242404243Y-64499410D01*
X242247040Y-64670178D01*
X242120099Y-64864477D01*
X242026866Y-65077025D01*
X241969890Y-65302017D01*
X241969888Y-65302028D01*
X241950724Y-65533319D01*
X241950724Y-65533332D01*
X241969888Y-65764623D01*
X241969890Y-65764634D01*
X242026866Y-65989626D01*
X242120099Y-66202174D01*
X242247040Y-66396473D01*
X242247043Y-66396477D01*
X242247045Y-66396479D01*
X242404240Y-66567239D01*
X242404243Y-66567241D01*
X242404246Y-66567244D01*
X242587389Y-66709790D01*
X242587395Y-66709794D01*
X242587398Y-66709796D01*
X242791521Y-66820262D01*
X242844268Y-66838370D01*
X243011039Y-66895623D01*
X243011041Y-66895623D01*
X243011043Y-66895624D01*
X243239975Y-66933826D01*
X243239976Y-66933826D01*
X243472072Y-66933826D01*
X243472073Y-66933826D01*
X243701005Y-66895624D01*
X243920527Y-66820262D01*
X244124650Y-66709796D01*
X244307808Y-66567239D01*
X244465003Y-66396479D01*
X244591948Y-66202175D01*
X244625859Y-66124863D01*
X244670815Y-66071379D01*
X244737550Y-66050689D01*
X244804878Y-66069363D01*
X244831486Y-66091615D01*
X244888745Y-66155087D01*
X244986567Y-66215223D01*
X245011353Y-66230460D01*
X245011355Y-66230460D01*
X245011358Y-66230462D01*
X245150224Y-66268239D01*
X245150228Y-66268240D01*
X245150228Y-66268239D01*
X245150229Y-66268240D01*
X245294121Y-66265362D01*
X245351904Y-66249377D01*
X246950748Y-65616348D01*
X247020325Y-65609972D01*
X247082305Y-65642224D01*
X247112242Y-65687423D01*
X247388868Y-66412162D01*
X248063900Y-68291038D01*
X248304758Y-69005378D01*
X248307524Y-69075193D01*
X248272107Y-69135420D01*
X248209750Y-69166939D01*
X248166848Y-69167305D01*
X247963410Y-69133358D01*
X247731312Y-69133358D01*
X247685525Y-69140998D01*
X247502376Y-69171560D01*
X247282865Y-69246919D01*
X247282856Y-69246922D01*
X247078732Y-69357389D01*
X247078726Y-69357393D01*
X246895583Y-69499939D01*
X246895580Y-69499942D01*
X246895577Y-69499944D01*
X246895577Y-69499945D01*
X246874108Y-69523267D01*
X246738377Y-69670710D01*
X246608632Y-69869302D01*
X246606970Y-69868216D01*
X246563716Y-69911746D01*
X246495491Y-69926815D01*
X246429949Y-69902606D01*
X246406839Y-69880217D01*
X246356702Y-69817083D01*
X246239072Y-69734161D01*
X246239066Y-69734158D01*
X246102849Y-69687736D01*
X246102844Y-69687735D01*
X246102843Y-69687735D01*
X245994999Y-69683112D01*
X245959053Y-69681572D01*
X245959052Y-69681572D01*
X245900379Y-69693897D01*
X245900378Y-69693897D01*
X244097423Y-70279714D01*
X244097418Y-70279716D01*
X244042705Y-70304231D01*
X243929998Y-70393736D01*
X243847077Y-70511365D01*
X243847074Y-70511371D01*
X243800652Y-70647588D01*
X243800651Y-70647597D01*
X243794488Y-70791384D01*
X243806813Y-70850058D01*
X243806813Y-70850059D01*
X244392630Y-72653014D01*
X244392632Y-72653019D01*
X244417147Y-72707732D01*
X244506652Y-72820439D01*
X244624281Y-72903360D01*
X244624287Y-72903363D01*
X244760504Y-72949785D01*
X244760505Y-72949785D01*
X244760511Y-72949787D01*
X244904302Y-72955950D01*
X244962975Y-72943625D01*
X246765935Y-72357806D01*
X246820648Y-72333291D01*
X246933354Y-72243787D01*
X247016277Y-72126155D01*
X247029646Y-72086928D01*
X247062701Y-71989933D01*
X247062701Y-71989932D01*
X247062703Y-71989927D01*
X247066286Y-71906317D01*
X247088823Y-71840183D01*
X247143537Y-71796731D01*
X247213058Y-71789758D01*
X247249189Y-71802573D01*
X247282858Y-71820794D01*
X247356677Y-71846136D01*
X247502376Y-71896155D01*
X247502378Y-71896155D01*
X247502380Y-71896156D01*
X247731312Y-71934358D01*
X247731313Y-71934358D01*
X247963409Y-71934358D01*
X247963410Y-71934358D01*
X248192342Y-71896156D01*
X248411864Y-71820794D01*
X248615987Y-71710328D01*
X248799145Y-71567771D01*
X248906865Y-71450755D01*
X248966751Y-71414765D01*
X249036589Y-71416865D01*
X249094205Y-71456388D01*
X249116353Y-71497443D01*
X249302257Y-72086928D01*
X249865078Y-74002403D01*
X250043800Y-74658171D01*
X250042436Y-74728028D01*
X250011846Y-74778458D01*
X249894651Y-74895654D01*
X249851285Y-74939019D01*
X249847830Y-74942220D01*
X249801275Y-74982188D01*
X249801274Y-74982189D01*
X249780245Y-75009356D01*
X249775053Y-75015250D01*
X249685065Y-75105238D01*
X249628222Y-75137661D01*
X248352977Y-75465089D01*
X248296837Y-75486120D01*
X248296835Y-75486121D01*
X248178732Y-75568369D01*
X248178726Y-75568375D01*
X248088587Y-75680559D01*
X248088583Y-75680566D01*
X248033698Y-75813606D01*
X248033697Y-75813610D01*
X248024657Y-75898843D01*
X247998011Y-75963432D01*
X247940676Y-76003362D01*
X247870854Y-76005956D01*
X247842334Y-75994820D01*
X247723664Y-75930599D01*
X247723656Y-75930596D01*
X247504145Y-75855237D01*
X247332443Y-75826585D01*
X247275210Y-75817035D01*
X247043112Y-75817035D01*
X246997325Y-75824675D01*
X246814176Y-75855237D01*
X246594665Y-75930596D01*
X246594656Y-75930599D01*
X246390532Y-76041066D01*
X246390526Y-76041070D01*
X246207383Y-76183616D01*
X246207380Y-76183619D01*
X246050177Y-76354387D01*
X245923236Y-76548686D01*
X245830003Y-76761234D01*
X245773027Y-76986226D01*
X245773025Y-76986237D01*
X245753861Y-77217528D01*
X245753861Y-77217541D01*
X245773025Y-77448832D01*
X245773027Y-77448843D01*
X245830003Y-77673835D01*
X245923236Y-77886383D01*
X246050177Y-78080682D01*
X246050180Y-78080686D01*
X246050182Y-78080688D01*
X246207377Y-78251448D01*
X246207380Y-78251450D01*
X246207383Y-78251453D01*
X246390526Y-78393999D01*
X246390532Y-78394003D01*
X246390535Y-78394005D01*
X246594658Y-78504471D01*
X246708648Y-78543603D01*
X246814176Y-78579832D01*
X246814178Y-78579832D01*
X246814180Y-78579833D01*
X247043112Y-78618035D01*
X247043113Y-78618035D01*
X247275209Y-78618035D01*
X247275210Y-78618035D01*
X247504142Y-78579833D01*
X247723664Y-78504471D01*
X247927787Y-78394005D01*
X248110945Y-78251448D01*
X248268140Y-78080688D01*
X248347420Y-77959339D01*
X248400565Y-77913984D01*
X248469796Y-77904560D01*
X248533132Y-77934061D01*
X248552981Y-77956293D01*
X248601870Y-78026494D01*
X248601871Y-78026495D01*
X248601874Y-78026498D01*
X248714058Y-78116637D01*
X248714065Y-78116641D01*
X248847105Y-78171526D01*
X248847106Y-78171526D01*
X248847108Y-78171527D01*
X248990227Y-78186707D01*
X249049558Y-78178090D01*
X250719418Y-77749342D01*
X250789247Y-77751736D01*
X250846696Y-77791502D01*
X250870511Y-77839203D01*
X250876930Y-77864724D01*
X251325587Y-79810160D01*
X251635156Y-81284626D01*
X251629666Y-81354280D01*
X251587391Y-81409908D01*
X251521751Y-81433850D01*
X251473539Y-81427386D01*
X251333335Y-81379253D01*
X251161633Y-81350601D01*
X251104400Y-81341051D01*
X250872302Y-81341051D01*
X250826515Y-81348691D01*
X250643366Y-81379253D01*
X250423855Y-81454612D01*
X250423846Y-81454615D01*
X250219722Y-81565082D01*
X250219716Y-81565086D01*
X250036573Y-81707632D01*
X250036570Y-81707635D01*
X250036567Y-81707637D01*
X250036567Y-81707638D01*
X249879372Y-81878398D01*
X249879370Y-81878400D01*
X249879368Y-81878403D01*
X249852790Y-81919083D01*
X249799642Y-81964439D01*
X249730411Y-81973861D01*
X249667076Y-81944359D01*
X249642977Y-81915595D01*
X249599283Y-81843601D01*
X249492972Y-81746588D01*
X249492967Y-81746584D01*
X249363638Y-81683456D01*
X249363636Y-81683455D01*
X249363633Y-81683454D01*
X249363632Y-81683454D01*
X249221754Y-81659319D01*
X249221752Y-81659319D01*
X249212006Y-81660113D01*
X249161999Y-81664192D01*
X248061141Y-81874192D01*
X247299831Y-82019421D01*
X247299828Y-82019422D01*
X247242477Y-82036886D01*
X247242469Y-82036889D01*
X247119444Y-82111555D01*
X247119442Y-82111557D01*
X247022429Y-82217868D01*
X247022425Y-82217873D01*
X246959297Y-82347202D01*
X246959295Y-82347208D01*
X246935160Y-82489084D01*
X246935160Y-82489088D01*
X246940033Y-82548841D01*
X247085262Y-83310154D01*
X247295262Y-84411010D01*
X247312727Y-84468363D01*
X247312730Y-84468371D01*
X247387396Y-84591396D01*
X247387398Y-84591398D01*
X247493709Y-84688411D01*
X247493714Y-84688415D01*
X247579286Y-84730184D01*
X247623046Y-84751545D01*
X247764930Y-84775681D01*
X247824685Y-84770807D01*
X249686851Y-84415579D01*
X249744205Y-84398114D01*
X249867240Y-84323442D01*
X249964253Y-84217131D01*
X249964254Y-84217127D01*
X249964256Y-84217126D01*
X250000902Y-84142051D01*
X250027386Y-84087795D01*
X250041017Y-84007663D01*
X250071665Y-83944875D01*
X250131394Y-83908623D01*
X250201241Y-83910418D01*
X250222279Y-83919403D01*
X250385370Y-84007664D01*
X250423848Y-84028487D01*
X250537838Y-84067619D01*
X250643366Y-84103848D01*
X250643368Y-84103848D01*
X250643370Y-84103849D01*
X250872302Y-84142051D01*
X250872303Y-84142051D01*
X251104399Y-84142051D01*
X251104400Y-84142051D01*
X251333332Y-84103849D01*
X251552854Y-84028487D01*
X251756977Y-83918021D01*
X251931624Y-83782088D01*
X251996616Y-83756446D01*
X252065156Y-83770012D01*
X252115481Y-83818481D01*
X252130049Y-83859265D01*
X252440351Y-85694124D01*
X252652423Y-87118329D01*
X252642827Y-87187537D01*
X252617456Y-87224273D01*
X252358485Y-87483244D01*
X252297162Y-87516729D01*
X252286345Y-87518585D01*
X250871946Y-87697266D01*
X250871937Y-87697267D01*
X250871934Y-87697268D01*
X250871930Y-87697268D01*
X250871924Y-87697270D01*
X250813599Y-87711096D01*
X250813595Y-87711097D01*
X250743428Y-87747864D01*
X250686115Y-87777896D01*
X250686114Y-87777896D01*
X250686112Y-87777898D01*
X250582623Y-87877900D01*
X250582616Y-87877909D01*
X250511489Y-88003021D01*
X250491951Y-88085968D01*
X250457420Y-88146709D01*
X250395532Y-88179138D01*
X250325936Y-88172960D01*
X250295093Y-88155392D01*
X250269319Y-88135332D01*
X250236518Y-88109801D01*
X250032394Y-87999334D01*
X250032385Y-87999331D01*
X249812874Y-87923972D01*
X249641172Y-87895320D01*
X249583939Y-87885770D01*
X249351841Y-87885770D01*
X249306054Y-87893410D01*
X249122905Y-87923972D01*
X248903394Y-87999331D01*
X248903385Y-87999334D01*
X248699261Y-88109801D01*
X248699255Y-88109805D01*
X248516112Y-88252351D01*
X248516109Y-88252354D01*
X248358906Y-88423122D01*
X248231965Y-88617421D01*
X248138732Y-88829969D01*
X248081756Y-89054961D01*
X248081754Y-89054972D01*
X248062590Y-89286263D01*
X248062590Y-89286276D01*
X248081754Y-89517567D01*
X248081756Y-89517578D01*
X248138732Y-89742570D01*
X248231965Y-89955118D01*
X248358906Y-90149417D01*
X248358909Y-90149421D01*
X248358911Y-90149423D01*
X248516106Y-90320183D01*
X248516109Y-90320185D01*
X248516112Y-90320188D01*
X248699255Y-90462734D01*
X248699261Y-90462738D01*
X248699264Y-90462740D01*
X248903387Y-90573206D01*
X249017377Y-90612338D01*
X249122905Y-90648567D01*
X249122907Y-90648567D01*
X249122909Y-90648568D01*
X249351841Y-90686770D01*
X249351842Y-90686770D01*
X249583938Y-90686770D01*
X249583939Y-90686770D01*
X249812871Y-90648568D01*
X250032393Y-90573206D01*
X250236516Y-90462740D01*
X250419674Y-90320183D01*
X250558224Y-90169676D01*
X250618109Y-90133688D01*
X250687947Y-90135788D01*
X250745563Y-90175312D01*
X250759287Y-90196108D01*
X250797834Y-90269672D01*
X250897837Y-90373161D01*
X250897846Y-90373168D01*
X251022958Y-90444295D01*
X251022959Y-90444296D01*
X251042293Y-90448850D01*
X251163048Y-90477293D01*
X251222991Y-90476181D01*
X252770951Y-90280626D01*
X252839926Y-90291753D01*
X252874171Y-90315967D01*
X253054133Y-90495930D01*
X253087618Y-90557253D01*
X253089724Y-90570195D01*
X253205465Y-91633712D01*
X253382301Y-93622294D01*
X253399997Y-93878420D01*
X253384980Y-93946657D01*
X253335456Y-93995943D01*
X253267147Y-94010629D01*
X253217275Y-93996022D01*
X253149031Y-93959091D01*
X253149028Y-93959090D01*
X253149025Y-93959088D01*
X253149019Y-93959086D01*
X253149017Y-93959085D01*
X252929506Y-93883726D01*
X252757804Y-93855074D01*
X252700571Y-93845524D01*
X252468473Y-93845524D01*
X252422686Y-93853164D01*
X252239537Y-93883726D01*
X252020026Y-93959085D01*
X252020017Y-93959088D01*
X251815893Y-94069555D01*
X251815887Y-94069559D01*
X251632744Y-94212105D01*
X251632734Y-94212114D01*
X251558394Y-94292869D01*
X251498507Y-94328860D01*
X251428669Y-94326759D01*
X251371053Y-94287235D01*
X251353933Y-94259428D01*
X251318953Y-94181060D01*
X251318951Y-94181058D01*
X251318951Y-94181057D01*
X251225637Y-94071486D01*
X251225635Y-94071485D01*
X251225636Y-94071485D01*
X251105237Y-93992641D01*
X250967496Y-93950912D01*
X250967488Y-93950911D01*
X250907606Y-93948258D01*
X250907582Y-93948258D01*
X249015595Y-94067293D01*
X249015590Y-94067294D01*
X248956509Y-94077429D01*
X248956503Y-94077431D01*
X248825081Y-94136093D01*
X248715507Y-94229409D01*
X248636663Y-94349808D01*
X248594934Y-94487549D01*
X248594933Y-94487557D01*
X248592280Y-94547439D01*
X248592280Y-94547463D01*
X248711315Y-96439450D01*
X248711316Y-96439455D01*
X248721451Y-96498536D01*
X248721453Y-96498542D01*
X248780115Y-96629964D01*
X248780116Y-96629965D01*
X248780117Y-96629967D01*
X248873431Y-96739538D01*
X248993830Y-96818382D01*
X248993833Y-96818383D01*
X248993835Y-96818384D01*
X249089720Y-96847432D01*
X249131571Y-96860111D01*
X249131572Y-96860111D01*
X249131575Y-96860112D01*
X249191470Y-96862766D01*
X251083474Y-96743730D01*
X251107908Y-96739538D01*
X251142558Y-96733594D01*
X251142562Y-96733592D01*
X251142565Y-96733592D01*
X251273989Y-96674929D01*
X251383560Y-96581615D01*
X251462406Y-96461211D01*
X251486994Y-96380046D01*
X251525269Y-96321596D01*
X251589070Y-96293116D01*
X251658141Y-96303650D01*
X251681829Y-96318146D01*
X251815896Y-96422494D01*
X252020019Y-96532960D01*
X252125454Y-96569156D01*
X252239537Y-96608321D01*
X252239539Y-96608321D01*
X252239541Y-96608322D01*
X252468473Y-96646524D01*
X252468474Y-96646524D01*
X252700570Y-96646524D01*
X252700571Y-96646524D01*
X252929503Y-96608322D01*
X253149025Y-96532960D01*
X253149032Y-96532956D01*
X253149035Y-96532955D01*
X253335196Y-96432209D01*
X253403524Y-96417613D01*
X253468897Y-96442276D01*
X253510558Y-96498366D01*
X253518214Y-96541263D01*
X253518214Y-98183684D01*
X253515956Y-98272759D01*
X253515956Y-98272761D01*
X253516269Y-98274505D01*
X253518214Y-98296379D01*
X253518214Y-99472503D01*
X253498529Y-99539542D01*
X253481895Y-99560184D01*
X252929697Y-100112381D01*
X252868374Y-100145866D01*
X252842016Y-100148700D01*
X251959929Y-100148700D01*
X251956605Y-100148879D01*
X251956519Y-100147281D01*
X251893955Y-100135971D01*
X251842835Y-100088342D01*
X251825500Y-100025107D01*
X251825500Y-98945715D01*
X251827757Y-98856641D01*
X251827756Y-98856640D01*
X251827757Y-98856637D01*
X251816933Y-98796253D01*
X251816280Y-98791587D01*
X251813034Y-98759674D01*
X251810074Y-98730562D01*
X251799788Y-98697780D01*
X251797918Y-98690166D01*
X251791858Y-98656348D01*
X251769092Y-98599352D01*
X251767527Y-98594955D01*
X251749159Y-98536412D01*
X251732491Y-98506382D01*
X251729120Y-98499284D01*
X251716378Y-98467384D01*
X251716377Y-98467381D01*
X251708471Y-98455386D01*
X251682605Y-98416139D01*
X251680183Y-98412142D01*
X251650409Y-98358498D01*
X251628034Y-98332434D01*
X251623306Y-98326163D01*
X251604404Y-98297484D01*
X251604399Y-98297478D01*
X251579679Y-98272759D01*
X251561019Y-98254099D01*
X251557828Y-98250655D01*
X251517865Y-98204104D01*
X251490694Y-98183072D01*
X251484807Y-98177887D01*
X250906452Y-97599532D01*
X250845059Y-97534947D01*
X250817204Y-97515559D01*
X250794709Y-97499902D01*
X250790946Y-97497064D01*
X250743413Y-97458305D01*
X250743406Y-97458300D01*
X250712959Y-97442397D01*
X250706251Y-97438334D01*
X250678049Y-97418705D01*
X250678046Y-97418703D01*
X250678045Y-97418703D01*
X250678041Y-97418701D01*
X250621680Y-97394514D01*
X250617424Y-97392493D01*
X250563057Y-97364094D01*
X250563050Y-97364091D01*
X250563049Y-97364091D01*
X250557008Y-97362362D01*
X250530030Y-97354642D01*
X250522630Y-97352008D01*
X250491057Y-97338459D01*
X250491058Y-97338459D01*
X250430966Y-97326109D01*
X250426391Y-97324986D01*
X250367420Y-97308113D01*
X250367425Y-97308113D01*
X250333158Y-97305503D01*
X250325380Y-97304412D01*
X250291742Y-97297500D01*
X250291741Y-97297500D01*
X250230402Y-97297500D01*
X250225695Y-97297321D01*
X250220121Y-97296896D01*
X250164524Y-97292662D01*
X250144589Y-97295201D01*
X250130440Y-97297003D01*
X250122611Y-97297500D01*
X248818027Y-97297500D01*
X248750988Y-97277815D01*
X248705645Y-97225905D01*
X248671635Y-97152972D01*
X248671634Y-97152970D01*
X248536094Y-96959397D01*
X248369002Y-96792306D01*
X248369001Y-96792305D01*
X248253525Y-96711448D01*
X248195376Y-96670731D01*
X248151751Y-96616154D01*
X248142500Y-96569156D01*
X248142500Y-96341715D01*
X248144757Y-96252641D01*
X248144756Y-96252640D01*
X248144757Y-96252637D01*
X248133933Y-96192249D01*
X248133280Y-96187587D01*
X248127074Y-96126563D01*
X248127074Y-96126562D01*
X248116784Y-96093768D01*
X248114917Y-96086155D01*
X248108858Y-96052348D01*
X248092094Y-96010379D01*
X248086095Y-95995361D01*
X248084527Y-95990955D01*
X248075367Y-95961760D01*
X248066161Y-95932416D01*
X248066160Y-95932414D01*
X248049492Y-95902385D01*
X248046124Y-95895295D01*
X248033378Y-95863383D01*
X247999612Y-95812150D01*
X247997183Y-95808142D01*
X247967409Y-95754498D01*
X247945034Y-95728434D01*
X247940306Y-95722163D01*
X247921404Y-95693484D01*
X247921399Y-95693478D01*
X247899715Y-95671795D01*
X247878019Y-95650099D01*
X247874828Y-95646655D01*
X247834865Y-95600104D01*
X247807694Y-95579072D01*
X247801807Y-95573887D01*
X247459418Y-95231498D01*
X247456228Y-95228055D01*
X247416264Y-95181503D01*
X247345826Y-95126980D01*
X247276805Y-95070700D01*
X247275238Y-95069882D01*
X247256756Y-95058034D01*
X247255360Y-95056953D01*
X247255352Y-95056948D01*
X247175379Y-95017720D01*
X247096451Y-94976492D01*
X247096450Y-94976491D01*
X247096449Y-94976491D01*
X247094747Y-94976004D01*
X247074251Y-94968115D01*
X247072676Y-94967342D01*
X247072668Y-94967339D01*
X246986454Y-94945017D01*
X246900818Y-94920513D01*
X246900815Y-94920512D01*
X246900813Y-94920512D01*
X246899042Y-94920377D01*
X246877392Y-94916779D01*
X246875686Y-94916337D01*
X246786745Y-94911826D01*
X246697924Y-94905063D01*
X246697923Y-94905063D01*
X246697922Y-94905063D01*
X246696154Y-94905288D01*
X246674244Y-94906121D01*
X246672468Y-94906031D01*
X246672459Y-94906031D01*
X246584442Y-94919515D01*
X246496080Y-94930768D01*
X246496061Y-94930772D01*
X246494378Y-94931348D01*
X246473085Y-94936574D01*
X246471340Y-94936841D01*
X246471330Y-94936843D01*
X246471329Y-94936844D01*
X246471327Y-94936844D01*
X246471326Y-94936845D01*
X246387827Y-94967769D01*
X246303527Y-94996584D01*
X246303524Y-94996585D01*
X246301996Y-94997485D01*
X246282181Y-95006895D01*
X246280521Y-95007509D01*
X246280515Y-95007512D01*
X246239140Y-95033301D01*
X246204911Y-95054636D01*
X246171564Y-95074266D01*
X246128170Y-95099811D01*
X246128169Y-95099812D01*
X246126863Y-95100993D01*
X246109338Y-95114207D01*
X246107831Y-95115145D01*
X246073205Y-95148059D01*
X246043252Y-95176533D01*
X245982399Y-95231512D01*
X245977186Y-95236222D01*
X245977174Y-95236235D01*
X245976130Y-95237658D01*
X245961641Y-95254110D01*
X245960347Y-95255339D01*
X245926419Y-95304085D01*
X245909455Y-95328458D01*
X245887918Y-95357787D01*
X245856747Y-95400237D01*
X245856008Y-95401847D01*
X245845122Y-95420888D01*
X245844109Y-95422343D01*
X245844102Y-95422355D01*
X245808972Y-95504218D01*
X245771794Y-95585133D01*
X245771395Y-95586855D01*
X245764562Y-95607705D01*
X245763861Y-95609338D01*
X245745934Y-95696568D01*
X245725797Y-95783340D01*
X245725796Y-95783346D01*
X245725751Y-95785144D01*
X245723258Y-95806915D01*
X245722900Y-95808655D01*
X245722900Y-95897684D01*
X245720642Y-95986759D01*
X245720642Y-95986761D01*
X245720955Y-95988505D01*
X245722900Y-96010379D01*
X245722900Y-97307883D01*
X245720643Y-97396962D01*
X245720643Y-97396970D01*
X245731464Y-97457339D01*
X245732118Y-97462004D01*
X245738325Y-97523030D01*
X245738327Y-97523044D01*
X245748608Y-97555813D01*
X245750479Y-97563437D01*
X245756542Y-97597252D01*
X245756542Y-97597255D01*
X245779294Y-97654212D01*
X245780874Y-97658651D01*
X245799241Y-97717188D01*
X245799244Y-97717195D01*
X245815909Y-97747219D01*
X245819279Y-97754314D01*
X245832022Y-97786214D01*
X245832027Y-97786224D01*
X245865777Y-97837433D01*
X245868218Y-97841463D01*
X245897988Y-97895098D01*
X245897989Y-97895099D01*
X245897991Y-97895102D01*
X245920368Y-97921167D01*
X245925093Y-97927435D01*
X245937663Y-97946506D01*
X245943998Y-97956119D01*
X245987378Y-97999499D01*
X245990569Y-98002943D01*
X246030531Y-98049492D01*
X246030534Y-98049495D01*
X246041722Y-98058155D01*
X246057694Y-98070518D01*
X246063590Y-98075711D01*
X246178736Y-98190857D01*
X246210829Y-98246442D01*
X246223697Y-98294463D01*
X246323565Y-98508630D01*
X246323567Y-98508634D01*
X246387105Y-98599375D01*
X246456009Y-98697780D01*
X246459101Y-98702195D01*
X246459106Y-98702202D01*
X246626197Y-98869293D01*
X246626203Y-98869298D01*
X246812194Y-98999530D01*
X246855819Y-99054107D01*
X246863013Y-99123605D01*
X246831490Y-99185960D01*
X246812195Y-99202680D01*
X246626522Y-99332690D01*
X246626520Y-99332691D01*
X246459491Y-99499720D01*
X246459486Y-99499726D01*
X246324000Y-99693220D01*
X246323999Y-99693222D01*
X246224170Y-99907307D01*
X246224167Y-99907313D01*
X246166964Y-100120799D01*
X246166964Y-100120800D01*
X248828236Y-100120800D01*
X248828235Y-100120799D01*
X248771032Y-99907313D01*
X248771029Y-99907307D01*
X248671200Y-99693222D01*
X248671199Y-99693220D01*
X248532605Y-99495287D01*
X248534257Y-99494129D01*
X248509780Y-99438186D01*
X248520826Y-99369195D01*
X248567418Y-99317128D01*
X248632784Y-99298500D01*
X249700500Y-99298500D01*
X249767539Y-99318185D01*
X249813294Y-99370989D01*
X249824500Y-99422500D01*
X249824500Y-100176901D01*
X249804815Y-100243940D01*
X249759518Y-100285956D01*
X249599171Y-100372731D01*
X249599165Y-100372735D01*
X249416022Y-100515281D01*
X249416019Y-100515284D01*
X249258816Y-100686052D01*
X249131875Y-100880351D01*
X249038642Y-101092899D01*
X248981666Y-101317891D01*
X248981664Y-101317902D01*
X248962500Y-101549193D01*
X248962500Y-101549206D01*
X248981664Y-101780497D01*
X248981666Y-101780508D01*
X249035847Y-101994460D01*
X249033222Y-102064280D01*
X248993266Y-102121597D01*
X248928665Y-102148214D01*
X248915641Y-102148900D01*
X248677319Y-102148900D01*
X248610280Y-102129215D01*
X248575744Y-102096024D01*
X248536095Y-102039399D01*
X248536093Y-102039397D01*
X248536091Y-102039394D01*
X248369002Y-101872306D01*
X248369001Y-101872305D01*
X248183005Y-101742069D01*
X248139381Y-101687492D01*
X248132188Y-101617993D01*
X248163710Y-101555639D01*
X248183005Y-101538919D01*
X248368682Y-101408905D01*
X248535705Y-101241882D01*
X248671200Y-101048378D01*
X248771029Y-100834292D01*
X248771032Y-100834286D01*
X248828236Y-100620800D01*
X246166964Y-100620800D01*
X246224167Y-100834286D01*
X246224170Y-100834292D01*
X246323999Y-101048378D01*
X246459494Y-101241882D01*
X246626517Y-101408905D01*
X246812195Y-101538919D01*
X246855819Y-101593496D01*
X246863012Y-101662995D01*
X246831490Y-101725349D01*
X246812195Y-101742069D01*
X246626194Y-101872308D01*
X246459105Y-102039397D01*
X246323565Y-102232969D01*
X246323564Y-102232971D01*
X246223698Y-102447135D01*
X246223694Y-102447144D01*
X246162538Y-102675386D01*
X246162536Y-102675396D01*
X246141941Y-102910799D01*
X246141941Y-102910800D01*
X246162536Y-103146203D01*
X246162538Y-103146213D01*
X246223694Y-103374455D01*
X246223696Y-103374459D01*
X246223697Y-103374463D01*
X246270511Y-103474855D01*
X246323565Y-103588630D01*
X246323567Y-103588634D01*
X246459101Y-103782195D01*
X246459106Y-103782202D01*
X246626197Y-103949293D01*
X246626203Y-103949298D01*
X246811758Y-104079225D01*
X246855383Y-104133802D01*
X246862577Y-104203300D01*
X246831054Y-104265655D01*
X246811758Y-104282375D01*
X246626197Y-104412305D01*
X246459105Y-104579397D01*
X246323565Y-104772969D01*
X246323564Y-104772971D01*
X246223698Y-104987135D01*
X246223694Y-104987144D01*
X246162538Y-105215386D01*
X246162536Y-105215396D01*
X246141941Y-105450799D01*
X246141941Y-105450800D01*
X246162536Y-105686203D01*
X246162538Y-105686213D01*
X246223694Y-105914455D01*
X246223696Y-105914459D01*
X246223697Y-105914463D01*
X246266047Y-106005283D01*
X246323565Y-106128630D01*
X246323567Y-106128634D01*
X246431881Y-106283321D01*
X246459105Y-106322201D01*
X246626199Y-106489295D01*
X246722984Y-106557065D01*
X246819765Y-106624832D01*
X246819767Y-106624833D01*
X246819770Y-106624835D01*
X247033937Y-106724703D01*
X247262192Y-106785863D01*
X247395778Y-106797550D01*
X247455806Y-106819302D01*
X247480458Y-106836460D01*
X247484200Y-106839282D01*
X247531745Y-106878050D01*
X247531749Y-106878052D01*
X247531750Y-106878053D01*
X247562192Y-106893954D01*
X247568906Y-106898021D01*
X247597100Y-106917645D01*
X247597106Y-106917649D01*
X247653484Y-106941843D01*
X247657722Y-106943855D01*
X247712104Y-106972262D01*
X247745126Y-106981709D01*
X247752518Y-106984342D01*
X247784093Y-106997892D01*
X247784094Y-106997893D01*
X247797207Y-107000587D01*
X247844208Y-107010245D01*
X247848748Y-107011359D01*
X247907735Y-107028239D01*
X247941994Y-107030847D01*
X247949762Y-107031938D01*
X247983408Y-107038853D01*
X247983412Y-107038853D01*
X248044754Y-107038853D01*
X248049461Y-107039031D01*
X248085804Y-107041799D01*
X248110628Y-107043690D01*
X248110628Y-107043689D01*
X248110629Y-107043690D01*
X248144712Y-107039349D01*
X248152542Y-107038853D01*
X248561759Y-107038853D01*
X248628798Y-107058538D01*
X248674553Y-107111342D01*
X248685513Y-107170638D01*
X248671937Y-107386426D01*
X248598660Y-108551136D01*
X248598660Y-108551143D01*
X248601313Y-108611050D01*
X248643042Y-108748792D01*
X248721886Y-108869191D01*
X248721887Y-108869192D01*
X248831458Y-108962506D01*
X248962882Y-109021169D01*
X249021972Y-109031308D01*
X249021975Y-109031308D01*
X249021980Y-109031309D01*
X250547781Y-109127303D01*
X250913977Y-109150342D01*
X250973872Y-109147689D01*
X251111612Y-109105961D01*
X251111614Y-109105959D01*
X251111616Y-109105959D01*
X251225611Y-109031309D01*
X251232016Y-109027115D01*
X251325330Y-108917544D01*
X251360312Y-108839170D01*
X251405612Y-108785978D01*
X251472480Y-108765719D01*
X251539686Y-108784827D01*
X251564771Y-108805728D01*
X251639117Y-108886490D01*
X251639120Y-108886492D01*
X251639123Y-108886495D01*
X251822266Y-109029041D01*
X251822272Y-109029045D01*
X251822275Y-109029047D01*
X252026398Y-109139513D01*
X252110491Y-109168382D01*
X252245916Y-109214874D01*
X252245918Y-109214874D01*
X252245920Y-109214875D01*
X252474852Y-109253077D01*
X252474853Y-109253077D01*
X252706949Y-109253077D01*
X252706950Y-109253077D01*
X252935882Y-109214875D01*
X253155404Y-109139513D01*
X253224305Y-109102225D01*
X253292632Y-109087630D01*
X253358004Y-109112292D01*
X253399665Y-109168382D01*
X253407027Y-109219827D01*
X253382301Y-109577699D01*
X253205461Y-111566325D01*
X253089725Y-112629802D01*
X253062903Y-112694319D01*
X253054134Y-112704068D01*
X252965094Y-112793108D01*
X252903771Y-112826593D01*
X252861872Y-112828449D01*
X251235728Y-112623021D01*
X251175783Y-112621908D01*
X251175782Y-112621908D01*
X251153352Y-112627191D01*
X251035693Y-112654904D01*
X251035692Y-112654905D01*
X250910580Y-112726032D01*
X250910571Y-112726039D01*
X250810568Y-112829528D01*
X250772021Y-112903093D01*
X250723469Y-112953338D01*
X250655461Y-112969357D01*
X250589587Y-112946066D01*
X250570961Y-112929528D01*
X250432408Y-112779018D01*
X250432403Y-112779014D01*
X250432401Y-112779012D01*
X250249258Y-112636466D01*
X250249252Y-112636462D01*
X250045128Y-112525995D01*
X250045119Y-112525992D01*
X249825608Y-112450633D01*
X249653906Y-112421981D01*
X249596673Y-112412431D01*
X249364575Y-112412431D01*
X249318788Y-112420071D01*
X249135639Y-112450633D01*
X248916128Y-112525992D01*
X248916119Y-112525995D01*
X248711995Y-112636462D01*
X248711989Y-112636466D01*
X248528846Y-112779012D01*
X248528843Y-112779015D01*
X248528840Y-112779017D01*
X248528840Y-112779018D01*
X248482340Y-112829531D01*
X248371640Y-112949783D01*
X248244699Y-113144082D01*
X248151466Y-113356630D01*
X248094490Y-113581622D01*
X248094488Y-113581633D01*
X248075324Y-113812924D01*
X248075324Y-113812937D01*
X248094488Y-114044228D01*
X248094490Y-114044239D01*
X248151466Y-114269231D01*
X248244699Y-114481779D01*
X248371640Y-114676078D01*
X248371643Y-114676082D01*
X248371645Y-114676084D01*
X248528840Y-114846844D01*
X248528843Y-114846846D01*
X248528846Y-114846849D01*
X248711989Y-114989395D01*
X248711995Y-114989399D01*
X248711998Y-114989401D01*
X248916121Y-115099867D01*
X249030111Y-115138999D01*
X249135639Y-115175228D01*
X249135641Y-115175228D01*
X249135643Y-115175229D01*
X249364575Y-115213431D01*
X249364576Y-115213431D01*
X249596672Y-115213431D01*
X249596673Y-115213431D01*
X249825605Y-115175229D01*
X250045127Y-115099867D01*
X250249250Y-114989401D01*
X250307827Y-114943808D01*
X250372818Y-114918166D01*
X250441358Y-114931732D01*
X250491683Y-114980199D01*
X250504685Y-115013232D01*
X250524223Y-115096179D01*
X250595350Y-115221291D01*
X250595357Y-115221300D01*
X250690383Y-115313125D01*
X250698849Y-115321305D01*
X250826330Y-115388104D01*
X250884667Y-115401934D01*
X252593354Y-115617790D01*
X252657397Y-115645721D01*
X252696173Y-115703844D01*
X252700460Y-115759075D01*
X252584914Y-116535045D01*
X252440357Y-117505842D01*
X252161264Y-119156163D01*
X252148041Y-119234350D01*
X252117453Y-119297168D01*
X252057759Y-119333478D01*
X251987911Y-119331750D01*
X251949615Y-119311526D01*
X251785844Y-119184058D01*
X251785838Y-119184054D01*
X251581714Y-119073587D01*
X251581705Y-119073584D01*
X251362194Y-118998225D01*
X251190492Y-118969573D01*
X251133259Y-118960023D01*
X250901161Y-118960023D01*
X250855374Y-118967663D01*
X250672225Y-118998225D01*
X250452714Y-119073584D01*
X250452700Y-119073590D01*
X250251137Y-119182670D01*
X250182809Y-119197265D01*
X250117437Y-119172602D01*
X250075776Y-119116511D01*
X250069876Y-119094409D01*
X250056246Y-119014283D01*
X250056245Y-119014281D01*
X250056245Y-119014279D01*
X250029761Y-118960023D01*
X249993115Y-118884947D01*
X249993111Y-118884942D01*
X249896098Y-118778631D01*
X249896096Y-118778629D01*
X249773066Y-118703960D01*
X249773060Y-118703958D01*
X249715722Y-118686496D01*
X249715718Y-118686495D01*
X248122585Y-118382590D01*
X247853545Y-118331268D01*
X247853543Y-118331267D01*
X247853541Y-118331267D01*
X247793793Y-118326393D01*
X247793784Y-118326393D01*
X247651908Y-118350528D01*
X247651902Y-118350530D01*
X247522573Y-118413658D01*
X247522568Y-118413662D01*
X247416257Y-118510675D01*
X247416255Y-118510677D01*
X247341586Y-118633707D01*
X247341584Y-118633713D01*
X247324122Y-118691051D01*
X247324121Y-118691055D01*
X246968894Y-120553229D01*
X246968893Y-120553232D01*
X246964019Y-120612980D01*
X246964019Y-120612989D01*
X246988154Y-120754865D01*
X246988156Y-120754871D01*
X247051284Y-120884200D01*
X247051288Y-120884205D01*
X247148301Y-120990516D01*
X247148303Y-120990518D01*
X247271333Y-121065187D01*
X247271339Y-121065189D01*
X247328677Y-121082651D01*
X247328681Y-121082652D01*
X247328684Y-121082652D01*
X247328689Y-121082654D01*
X249190855Y-121437880D01*
X249250611Y-121442755D01*
X249392495Y-121418619D01*
X249476130Y-121377793D01*
X249521826Y-121355489D01*
X249521827Y-121355487D01*
X249521831Y-121355486D01*
X249628142Y-121258473D01*
X249671838Y-121186476D01*
X249723446Y-121139381D01*
X249792326Y-121127662D01*
X249856607Y-121155043D01*
X249881649Y-121182991D01*
X249908225Y-121223668D01*
X249908227Y-121223670D01*
X249908231Y-121223676D01*
X250065426Y-121394436D01*
X250065429Y-121394438D01*
X250065432Y-121394441D01*
X250248575Y-121536987D01*
X250248581Y-121536991D01*
X250248584Y-121536993D01*
X250452707Y-121647459D01*
X250540965Y-121677758D01*
X250672225Y-121722820D01*
X250672227Y-121722820D01*
X250672229Y-121722821D01*
X250901161Y-121761023D01*
X250901162Y-121761023D01*
X251133258Y-121761023D01*
X251133259Y-121761023D01*
X251362191Y-121722821D01*
X251493455Y-121677757D01*
X251563252Y-121674608D01*
X251623674Y-121709694D01*
X251655534Y-121771876D01*
X251655071Y-121820518D01*
X251325595Y-123389799D01*
X250894402Y-125259509D01*
X250860156Y-125320411D01*
X250798421Y-125353129D01*
X250742737Y-125351748D01*
X249074834Y-124923504D01*
X249074814Y-124923500D01*
X249015495Y-124914885D01*
X249015486Y-124914884D01*
X248872376Y-124930064D01*
X248872372Y-124930065D01*
X248739332Y-124984950D01*
X248739325Y-124984954D01*
X248627141Y-125075093D01*
X248627134Y-125075100D01*
X248578250Y-125145294D01*
X248523784Y-125189058D01*
X248454304Y-125196427D01*
X248391870Y-125165063D01*
X248372686Y-125142250D01*
X248293411Y-125020909D01*
X248293408Y-125020906D01*
X248293407Y-125020904D01*
X248136212Y-124850144D01*
X248136207Y-124850140D01*
X248136205Y-124850138D01*
X247953062Y-124707592D01*
X247953056Y-124707588D01*
X247748932Y-124597121D01*
X247748923Y-124597118D01*
X247529412Y-124521759D01*
X247357710Y-124493107D01*
X247300477Y-124483557D01*
X247068379Y-124483557D01*
X247022592Y-124491197D01*
X246839443Y-124521759D01*
X246619932Y-124597118D01*
X246619923Y-124597121D01*
X246415799Y-124707588D01*
X246415793Y-124707592D01*
X246232650Y-124850138D01*
X246232647Y-124850141D01*
X246075444Y-125020909D01*
X245948503Y-125215208D01*
X245855270Y-125427756D01*
X245798294Y-125652748D01*
X245798292Y-125652759D01*
X245779128Y-125884050D01*
X245779128Y-125884063D01*
X245798292Y-126115354D01*
X245798294Y-126115365D01*
X245855270Y-126340357D01*
X245948503Y-126552905D01*
X246075444Y-126747204D01*
X246075447Y-126747208D01*
X246075449Y-126747210D01*
X246232644Y-126917970D01*
X246232647Y-126917972D01*
X246232650Y-126917975D01*
X246415793Y-127060521D01*
X246415799Y-127060525D01*
X246415802Y-127060527D01*
X246619925Y-127170993D01*
X246712424Y-127202748D01*
X246839443Y-127246354D01*
X246839445Y-127246354D01*
X246839447Y-127246355D01*
X247068379Y-127284557D01*
X247068380Y-127284557D01*
X247300476Y-127284557D01*
X247300477Y-127284557D01*
X247529409Y-127246355D01*
X247531635Y-127245591D01*
X247537867Y-127243451D01*
X247748931Y-127170993D01*
X247748938Y-127170989D01*
X247748941Y-127170988D01*
X247867597Y-127106774D01*
X247935925Y-127092178D01*
X248001297Y-127116840D01*
X248042959Y-127172931D01*
X248049923Y-127202748D01*
X248058964Y-127287981D01*
X248058965Y-127287985D01*
X248113850Y-127421025D01*
X248113854Y-127421032D01*
X248203993Y-127533216D01*
X248203996Y-127533219D01*
X248203998Y-127533221D01*
X248322102Y-127615471D01*
X248378245Y-127636503D01*
X249653487Y-127963928D01*
X249710330Y-127996351D01*
X250038332Y-128324353D01*
X250071817Y-128385676D01*
X250070287Y-128444639D01*
X249865079Y-129197592D01*
X249302250Y-131113095D01*
X249147062Y-131605182D01*
X249108125Y-131663197D01*
X249044005Y-131690952D01*
X248975058Y-131679634D01*
X248937575Y-131651871D01*
X248830541Y-131535601D01*
X248830536Y-131535597D01*
X248830534Y-131535595D01*
X248647391Y-131393049D01*
X248647385Y-131393045D01*
X248443261Y-131282578D01*
X248443252Y-131282575D01*
X248223741Y-131207216D01*
X248052039Y-131178564D01*
X247994806Y-131169014D01*
X247762708Y-131169014D01*
X247716921Y-131176654D01*
X247533772Y-131207216D01*
X247314261Y-131282575D01*
X247314247Y-131282581D01*
X247280585Y-131300798D01*
X247212256Y-131315393D01*
X247146884Y-131290729D01*
X247105224Y-131234639D01*
X247097682Y-131197052D01*
X247094099Y-131113445D01*
X247093980Y-131113095D01*
X247047675Y-130977221D01*
X247047672Y-130977215D01*
X246964751Y-130859586D01*
X246964750Y-130859585D01*
X246852044Y-130770081D01*
X246797332Y-130745565D01*
X246797333Y-130745565D01*
X246797328Y-130745563D01*
X246797326Y-130745562D01*
X244994376Y-130159750D01*
X244994372Y-130159749D01*
X244994371Y-130159749D01*
X244935698Y-130147422D01*
X244791907Y-130153585D01*
X244791906Y-130153585D01*
X244791900Y-130153586D01*
X244655683Y-130200008D01*
X244655677Y-130200011D01*
X244538048Y-130282932D01*
X244448543Y-130395640D01*
X244424025Y-130450355D01*
X244424024Y-130450357D01*
X243838212Y-132253307D01*
X243838211Y-132253313D01*
X243825884Y-132311983D01*
X243825884Y-132311988D01*
X243832047Y-132455774D01*
X243832048Y-132455783D01*
X243878470Y-132592000D01*
X243878473Y-132592006D01*
X243961394Y-132709635D01*
X243961395Y-132709636D01*
X243961396Y-132709637D01*
X244074102Y-132799141D01*
X244128814Y-132823657D01*
X244128816Y-132823657D01*
X244128817Y-132823658D01*
X244128819Y-132823659D01*
X245552653Y-133286289D01*
X245931775Y-133409473D01*
X245990448Y-133421800D01*
X246134239Y-133415637D01*
X246152332Y-133409471D01*
X246270462Y-133369213D01*
X246270463Y-133369212D01*
X246270467Y-133369211D01*
X246388099Y-133286288D01*
X246438238Y-133223150D01*
X246495340Y-133182897D01*
X246565146Y-133179904D01*
X246625488Y-133215125D01*
X246639468Y-133234435D01*
X246640028Y-133234070D01*
X246769773Y-133432661D01*
X246769776Y-133432665D01*
X246769778Y-133432667D01*
X246926973Y-133603427D01*
X246926976Y-133603429D01*
X246926979Y-133603432D01*
X247110122Y-133745978D01*
X247110128Y-133745982D01*
X247110131Y-133745984D01*
X247314254Y-133856450D01*
X247428244Y-133895582D01*
X247533772Y-133931811D01*
X247533774Y-133931811D01*
X247533776Y-133931812D01*
X247762708Y-133970014D01*
X247762709Y-133970014D01*
X247994805Y-133970014D01*
X247994806Y-133970014D01*
X248199498Y-133935857D01*
X248268864Y-133944239D01*
X248322686Y-133988792D01*
X248343876Y-134055371D01*
X248337409Y-134097784D01*
X248063906Y-134908945D01*
X247388878Y-136787809D01*
X247148475Y-137417647D01*
X247106178Y-137473260D01*
X247040530Y-137497177D01*
X246986980Y-137488721D01*
X245389321Y-136856164D01*
X245389320Y-136856163D01*
X245389306Y-136856159D01*
X245331522Y-136840173D01*
X245331520Y-136840172D01*
X245331516Y-136840172D01*
X245187630Y-136837294D01*
X245187625Y-136837295D01*
X245048759Y-136875072D01*
X245048751Y-136875076D01*
X244926146Y-136950447D01*
X244868887Y-137013919D01*
X244809365Y-137050511D01*
X244739509Y-137049114D01*
X244681498Y-137010172D01*
X244663260Y-136980669D01*
X244629349Y-136903360D01*
X244502408Y-136709061D01*
X244502405Y-136709058D01*
X244502404Y-136709056D01*
X244345209Y-136538296D01*
X244345204Y-136538292D01*
X244345202Y-136538290D01*
X244162059Y-136395744D01*
X244162053Y-136395740D01*
X243957929Y-136285273D01*
X243957920Y-136285270D01*
X243738409Y-136209911D01*
X243566707Y-136181259D01*
X243509474Y-136171709D01*
X243277376Y-136171709D01*
X243231589Y-136179349D01*
X243048440Y-136209911D01*
X242828929Y-136285270D01*
X242828920Y-136285273D01*
X242624796Y-136395740D01*
X242624790Y-136395744D01*
X242441647Y-136538290D01*
X242441644Y-136538293D01*
X242284441Y-136709061D01*
X242157500Y-136903360D01*
X242064267Y-137115908D01*
X242007291Y-137340900D01*
X242007289Y-137340911D01*
X241988125Y-137572202D01*
X241988125Y-137572215D01*
X242007289Y-137803506D01*
X242007291Y-137803517D01*
X242064267Y-138028509D01*
X242157500Y-138241057D01*
X242284441Y-138435356D01*
X242284444Y-138435360D01*
X242284446Y-138435362D01*
X242441641Y-138606122D01*
X242441644Y-138606124D01*
X242441647Y-138606127D01*
X242624790Y-138748673D01*
X242624796Y-138748677D01*
X242624799Y-138748679D01*
X242828922Y-138859145D01*
X242869269Y-138872996D01*
X243048440Y-138934506D01*
X243048442Y-138934506D01*
X243048444Y-138934507D01*
X243277376Y-138972709D01*
X243277377Y-138972709D01*
X243509473Y-138972709D01*
X243509474Y-138972709D01*
X243738406Y-138934507D01*
X243922542Y-138871292D01*
X243992339Y-138868143D01*
X244052761Y-138903229D01*
X244084621Y-138965411D01*
X244086779Y-138991054D01*
X244085106Y-139074671D01*
X244085107Y-139074676D01*
X244122884Y-139213542D01*
X244122888Y-139213550D01*
X244196107Y-139332654D01*
X244198260Y-139336155D01*
X244305124Y-139432559D01*
X244358189Y-139460462D01*
X244358193Y-139460464D01*
X244358192Y-139460464D01*
X246120792Y-140158325D01*
X246120793Y-140158326D01*
X246120800Y-140158328D01*
X246120808Y-140158331D01*
X246178592Y-140174317D01*
X246281372Y-140176372D01*
X246322483Y-140177195D01*
X246322483Y-140177194D01*
X246322485Y-140177195D01*
X246391827Y-140158331D01*
X246461354Y-140139417D01*
X246461355Y-140139416D01*
X246461360Y-140139415D01*
X246583967Y-140064042D01*
X246680371Y-139957178D01*
X246708274Y-139904113D01*
X246834185Y-139586098D01*
X246877166Y-139531012D01*
X246943105Y-139507909D01*
X246949477Y-139507745D01*
X247798493Y-139507745D01*
X247799607Y-139507756D01*
X247876428Y-139508518D01*
X247943267Y-139528867D01*
X247988496Y-139582122D01*
X247997753Y-139651376D01*
X247990571Y-139677951D01*
X247774766Y-140225909D01*
X247014852Y-142051600D01*
X247012994Y-142055648D01*
X246982311Y-142116615D01*
X246959936Y-142160301D01*
X246903829Y-142269839D01*
X246900135Y-142276113D01*
X246841898Y-142362948D01*
X246762455Y-142476248D01*
X246758493Y-142481316D01*
X246684834Y-142566108D01*
X246595186Y-142662368D01*
X246591207Y-142666273D01*
X246506375Y-142742350D01*
X246504092Y-142744300D01*
X246404825Y-142825007D01*
X246401054Y-142827841D01*
X246306579Y-142893388D01*
X246303341Y-142895488D01*
X246194483Y-142961380D01*
X246191120Y-142963275D01*
X246089235Y-143016584D01*
X246084976Y-143018610D01*
X245967460Y-143069127D01*
X245964674Y-143070246D01*
X245857916Y-143110134D01*
X245852611Y-143111848D01*
X245725756Y-143146638D01*
X245616473Y-143172580D01*
X245610145Y-143173739D01*
X245472941Y-143191585D01*
X245395440Y-143200033D01*
X245329566Y-143189130D01*
X238235285Y-139878465D01*
X238184360Y-139834597D01*
X238158989Y-139796312D01*
X238155544Y-139790438D01*
X238101165Y-139684818D01*
X238097989Y-139677951D01*
X238038930Y-139550270D01*
X238036769Y-139544962D01*
X237996965Y-139432559D01*
X237996416Y-139431009D01*
X237995301Y-139427538D01*
X237955338Y-139289207D01*
X237954208Y-139284653D01*
X237942202Y-139226979D01*
X237929381Y-139165389D01*
X237928602Y-139160773D01*
X237910044Y-139017968D01*
X237909686Y-139014395D01*
X237901214Y-138893765D01*
X237901079Y-138888014D01*
X237904454Y-138739838D01*
X237912172Y-138621259D01*
X237912981Y-138614546D01*
X237940311Y-138459766D01*
X237961906Y-138353298D01*
X237963935Y-138345772D01*
X238030895Y-138148210D01*
X238048940Y-138096412D01*
X238050439Y-138092537D01*
X238064781Y-138058878D01*
X238064785Y-138058866D01*
X238417218Y-137231731D01*
X239117332Y-135492274D01*
X239782276Y-133739071D01*
X240411778Y-131972833D01*
X241005583Y-130194275D01*
X241563452Y-128404121D01*
X242085156Y-126603094D01*
X242570486Y-124791927D01*
X243019243Y-122971354D01*
X243431246Y-121142112D01*
X243806329Y-119304945D01*
X244144338Y-117460596D01*
X244445136Y-115609815D01*
X244708602Y-113753352D01*
X244934629Y-111891959D01*
X245123125Y-110026392D01*
X245274014Y-108157407D01*
X245387234Y-106285763D01*
X245462739Y-104412218D01*
X245500500Y-102537533D01*
X245500500Y-100662467D01*
X245462739Y-98787782D01*
X245387234Y-96914237D01*
X245274014Y-95042593D01*
X245123125Y-93173608D01*
X244934629Y-91308041D01*
X244708602Y-89446648D01*
X244445136Y-87590185D01*
X244144338Y-85739404D01*
X243806329Y-83895055D01*
X243431246Y-82057888D01*
X243019243Y-80228646D01*
X242570486Y-78408073D01*
X242085156Y-76596906D01*
X241563452Y-74795879D01*
X241005583Y-73005725D01*
X240411778Y-71227167D01*
X239782276Y-69460929D01*
X239117332Y-67707726D01*
X238417218Y-65968269D01*
X238050526Y-65107665D01*
X238049034Y-65103807D01*
X238030159Y-65049625D01*
X237964012Y-64854500D01*
X237961967Y-64846920D01*
X237940067Y-64738947D01*
X237913018Y-64585765D01*
X237912207Y-64579030D01*
X237904418Y-64459364D01*
X237901071Y-64312341D01*
X237901207Y-64306584D01*
X237909744Y-64185033D01*
X237910098Y-64181490D01*
X237928533Y-64039631D01*
X237929304Y-64035065D01*
X237954311Y-63914934D01*
X237955440Y-63910379D01*
X237995133Y-63772980D01*
X237996230Y-63769565D01*
X238036917Y-63654672D01*
X238039062Y-63649406D01*
X238080024Y-63560848D01*
X238126032Y-63508270D01*
X238142788Y-63499339D01*
X245847139Y-60123275D01*
X245916439Y-60114398D01*
X245940298Y-60120691D01*
G37*
%TD.AperFunction*%
%TD*%
M02*
