%TF.GenerationSoftware,KiCad,Pcbnew,7.0.9*%
%TF.CreationDate,2024-06-22T15:47:25+09:00*%
%TF.ProjectId,Side_Line,53696465-5f4c-4696-9e65-2e6b69636164,rev?*%
%TF.SameCoordinates,Original*%
%TF.FileFunction,Drillmap*%
%TF.FilePolarity,Positive*%
%FSLAX45Y45*%
G04 Gerber Fmt 4.5, Leading zero omitted, Abs format (unit mm)*
G04 Created by KiCad (PCBNEW 7.0.9) date 2024-06-22 15:47:25*
%MOMM*%
%LPD*%
G01*
G04 APERTURE LIST*
%ADD10C,0.200000*%
%ADD11C,0.100000*%
G04 APERTURE END LIST*
D10*
X23824899Y-14251514D02*
G75*
G03*
X24341568Y-14513911I263851J-120336D01*
G01*
X23824893Y-6068489D02*
X23873173Y-6171469D01*
X24701445Y-14205386D02*
G75*
G03*
X24701445Y-6114614I-9461445J4045386D01*
G01*
X24511906Y-14320114D02*
G75*
G03*
X24701445Y-14205386I14834J189424D01*
G01*
X24248747Y-5948150D02*
G75*
G03*
X24248747Y-5948150I-160000J0D01*
G01*
X24511907Y-14320104D02*
G75*
G03*
X24403957Y-14382575I-8587J-109666D01*
G01*
X24341568Y-14513911D02*
X24403957Y-14382575D01*
X23849163Y-6298081D02*
G75*
G03*
X23804926Y-6510596I130557J-138039D01*
G01*
X24248747Y-14371850D02*
G75*
G03*
X24248747Y-14371850I-160000J0D01*
G01*
X23873177Y-14148533D02*
G75*
G03*
X23849162Y-14021920I-99597J46693D01*
G01*
X23804924Y-13809403D02*
G75*
G03*
X23849162Y-14021920I174796J-74477D01*
G01*
X24341573Y-5806086D02*
G75*
G03*
X23824893Y-6068489I-252823J-142064D01*
G01*
X24403962Y-5937423D02*
G75*
G03*
X24511907Y-5999890I99358J47193D01*
G01*
X23849159Y-6298077D02*
G75*
G03*
X23873173Y-6171469I-75579J79917D01*
G01*
X24701441Y-6114616D02*
G75*
G03*
X24511907Y-5999890I-174702J-74694D01*
G01*
X23804926Y-13809404D02*
G75*
G03*
X23804926Y-6510596I-8564926J3649404D01*
G01*
X24403957Y-5937425D02*
X24341568Y-5806089D01*
X23873173Y-14148531D02*
X23824893Y-14251511D01*
D11*
X23944900Y-6418900D02*
X23984900Y-6458900D01*
X23984900Y-6418900D02*
X23944900Y-6458900D01*
X23970300Y-13873800D02*
X24010300Y-13913800D01*
X24010300Y-13873800D02*
X23970300Y-13913800D01*
X24135400Y-13048300D02*
X24175400Y-13088300D01*
X24175400Y-13048300D02*
X24135400Y-13088300D01*
X24173500Y-7206300D02*
X24213500Y-7246300D01*
X24213500Y-7206300D02*
X24173500Y-7246300D01*
X24224300Y-12781600D02*
X24264300Y-12821600D01*
X24264300Y-12781600D02*
X24224300Y-12821600D01*
X24249700Y-7485700D02*
X24289700Y-7525700D01*
X24289700Y-7485700D02*
X24249700Y-7525700D01*
X24452900Y-11778300D02*
X24492900Y-11818300D01*
X24492900Y-11778300D02*
X24452900Y-11818300D01*
X24452900Y-12553000D02*
X24492900Y-12593000D01*
X24492900Y-12553000D02*
X24452900Y-12593000D01*
X24478300Y-8476300D02*
X24518300Y-8516300D01*
X24518300Y-8476300D02*
X24478300Y-8516300D01*
X24491000Y-11537000D02*
X24531000Y-11577000D01*
X24531000Y-11537000D02*
X24491000Y-11577000D01*
X24516400Y-8743000D02*
X24556400Y-8783000D01*
X24556400Y-8743000D02*
X24516400Y-8783000D01*
X24516400Y-14102400D02*
X24556400Y-14142400D01*
X24556400Y-14102400D02*
X24516400Y-14142400D01*
X24541800Y-6152200D02*
X24581800Y-6192200D01*
X24581800Y-6152200D02*
X24541800Y-6192200D01*
X24541800Y-9200200D02*
X24581800Y-9240200D01*
X24581800Y-9200200D02*
X24541800Y-9240200D01*
X24554500Y-6787200D02*
X24594500Y-6827200D01*
X24594500Y-6787200D02*
X24554500Y-6827200D01*
X24579900Y-10698800D02*
X24619900Y-10738800D01*
X24619900Y-10698800D02*
X24579900Y-10738800D01*
X24579900Y-13492800D02*
X24619900Y-13532800D01*
X24619900Y-13492800D02*
X24579900Y-13532800D01*
X24652340Y-9571040D02*
X24692340Y-9611040D01*
X24692340Y-9571040D02*
X24652340Y-9611040D01*
X24706900Y-8908100D02*
X24746900Y-8948100D01*
X24746900Y-8908100D02*
X24706900Y-8948100D01*
X24706900Y-11359200D02*
X24746900Y-11399200D01*
X24746900Y-11359200D02*
X24706900Y-11399200D01*
X24719600Y-7219000D02*
X24759600Y-7259000D01*
X24759600Y-7219000D02*
X24719600Y-7259000D01*
X24732300Y-13048300D02*
X24772300Y-13088300D01*
X24772300Y-13048300D02*
X24732300Y-13088300D01*
X24745000Y-7511100D02*
X24785000Y-7551100D01*
X24785000Y-7511100D02*
X24745000Y-7551100D01*
X24795800Y-12768900D02*
X24835800Y-12808900D01*
X24835800Y-12768900D02*
X24795800Y-12808900D01*
X24897400Y-7333300D02*
X24937400Y-7373300D01*
X24937400Y-7333300D02*
X24897400Y-7373300D01*
X24897400Y-7968300D02*
X24937400Y-8008300D01*
X24937400Y-7968300D02*
X24897400Y-8008300D01*
X24897400Y-12299000D02*
X24937400Y-12339000D01*
X24937400Y-12299000D02*
X24897400Y-12339000D01*
X24897400Y-12934000D02*
X24937400Y-12974000D01*
X24937400Y-12934000D02*
X24897400Y-12974000D01*
X24948200Y-9962200D02*
X24988200Y-10002200D01*
X24988200Y-9962200D02*
X24948200Y-10002200D01*
X25011700Y-8438200D02*
X25051700Y-8478200D01*
X25051700Y-8438200D02*
X25011700Y-8478200D01*
X25011700Y-11537000D02*
X25051700Y-11577000D01*
X25051700Y-11537000D02*
X25011700Y-11577000D01*
X25011700Y-11829100D02*
X25051700Y-11869100D01*
X25051700Y-11829100D02*
X25011700Y-11869100D01*
X25049800Y-8717600D02*
X25089800Y-8757600D01*
X25089800Y-8717600D02*
X25049800Y-8757600D01*
X25062500Y-11067100D02*
X25102500Y-11107100D01*
X25102500Y-11067100D02*
X25062500Y-11107100D01*
X25075200Y-9212900D02*
X25115200Y-9252900D01*
X25115200Y-9212900D02*
X25075200Y-9252900D01*
X25151400Y-9682800D02*
X25191400Y-9722800D01*
X25191400Y-9682800D02*
X25151400Y-9722800D01*
X25164100Y-11702100D02*
X25204100Y-11742100D01*
X25204100Y-11702100D02*
X25164100Y-11742100D01*
X25172450Y-9962200D02*
X25212450Y-10002200D01*
X25212450Y-9962200D02*
X25172450Y-10002200D01*
X25176800Y-8565200D02*
X25216800Y-8605200D01*
X25216800Y-8565200D02*
X25176800Y-8605200D01*
X25278400Y-9822500D02*
X25318400Y-9862500D01*
X25318400Y-9822500D02*
X25278400Y-9862500D01*
X24380602Y-6553333D02*
G75*
G03*
X24380602Y-6553333I-45000J0D01*
G01*
X24384342Y-13757221D02*
G75*
G03*
X24384342Y-13757221I-45000J0D01*
G01*
X24588168Y-7131876D02*
G75*
G03*
X24588168Y-7131876I-45000J0D01*
G01*
X24591307Y-13178461D02*
G75*
G03*
X24591307Y-13178461I-45000J0D01*
G01*
X24616766Y-6459829D02*
G75*
G03*
X24616766Y-6459829I-45000J0D01*
G01*
X24620506Y-13850724D02*
G75*
G03*
X24620506Y-13850724I-45000J0D01*
G01*
X24760916Y-7721753D02*
G75*
G03*
X24760916Y-7721753I-45000J0D01*
G01*
X24763443Y-12588406D02*
G75*
G03*
X24763443Y-12588406I-45000J0D01*
G01*
X24829736Y-7053386D02*
G75*
G03*
X24829736Y-7053386I-45000J0D01*
G01*
X24832876Y-13256951D02*
G75*
G03*
X24832876Y-13256951I-45000J0D01*
G01*
X24894334Y-8321750D02*
G75*
G03*
X24894334Y-8321750I-45000J0D01*
G01*
X24897220Y-11988457D02*
G75*
G03*
X24897220Y-11988457I-45000J0D01*
G01*
X24991789Y-8928627D02*
G75*
G03*
X24991789Y-8928627I-45000J0D01*
G01*
X24993062Y-11381293D02*
G75*
G03*
X24993062Y-11381293I-45000J0D01*
G01*
X25006936Y-7658586D02*
G75*
G03*
X25006936Y-7658586I-45000J0D01*
G01*
X25009463Y-12651573D02*
G75*
G03*
X25009463Y-12651573I-45000J0D01*
G01*
X25049953Y-9540551D02*
G75*
G03*
X25049953Y-9540551I-45000J0D01*
G01*
X25050591Y-10769309D02*
G75*
G03*
X25050591Y-10769309I-45000J0D01*
G01*
X25081780Y-10154920D02*
G75*
G03*
X25081780Y-10154920I-45000J0D01*
G01*
X25143835Y-8274155D02*
G75*
G03*
X25143835Y-8274155I-45000J0D01*
G01*
X25146721Y-12036052D02*
G75*
G03*
X25146721Y-12036052I-45000J0D01*
G01*
X25243786Y-8896792D02*
G75*
G03*
X25243786Y-8896792I-45000J0D01*
G01*
X25245059Y-11413128D02*
G75*
G03*
X25245059Y-11413128I-45000J0D01*
G01*
X25303452Y-9524602D02*
G75*
G03*
X25303452Y-9524602I-45000J0D01*
G01*
X25304090Y-10785258D02*
G75*
G03*
X25304090Y-10785258I-45000J0D01*
G01*
X25335780Y-10154920D02*
G75*
G03*
X25335780Y-10154920I-45000J0D01*
G01*
D10*
X24040496Y-14983331D02*
X24040496Y-14783331D01*
X24040496Y-14783331D02*
X24088115Y-14783331D01*
X24088115Y-14783331D02*
X24116686Y-14792855D01*
X24116686Y-14792855D02*
X24135734Y-14811902D01*
X24135734Y-14811902D02*
X24145258Y-14830950D01*
X24145258Y-14830950D02*
X24154781Y-14869045D01*
X24154781Y-14869045D02*
X24154781Y-14897617D01*
X24154781Y-14897617D02*
X24145258Y-14935712D01*
X24145258Y-14935712D02*
X24135734Y-14954759D01*
X24135734Y-14954759D02*
X24116686Y-14973807D01*
X24116686Y-14973807D02*
X24088115Y-14983331D01*
X24088115Y-14983331D02*
X24040496Y-14983331D01*
X24240496Y-14983331D02*
X24240496Y-14849998D01*
X24240496Y-14888093D02*
X24250020Y-14869045D01*
X24250020Y-14869045D02*
X24259543Y-14859521D01*
X24259543Y-14859521D02*
X24278591Y-14849998D01*
X24278591Y-14849998D02*
X24297639Y-14849998D01*
X24364305Y-14983331D02*
X24364305Y-14849998D01*
X24364305Y-14783331D02*
X24354781Y-14792855D01*
X24354781Y-14792855D02*
X24364305Y-14802379D01*
X24364305Y-14802379D02*
X24373829Y-14792855D01*
X24373829Y-14792855D02*
X24364305Y-14783331D01*
X24364305Y-14783331D02*
X24364305Y-14802379D01*
X24488115Y-14983331D02*
X24469067Y-14973807D01*
X24469067Y-14973807D02*
X24459543Y-14954759D01*
X24459543Y-14954759D02*
X24459543Y-14783331D01*
X24592877Y-14983331D02*
X24573829Y-14973807D01*
X24573829Y-14973807D02*
X24564305Y-14954759D01*
X24564305Y-14954759D02*
X24564305Y-14783331D01*
X24821448Y-14983331D02*
X24821448Y-14783331D01*
X24821448Y-14783331D02*
X24888115Y-14926188D01*
X24888115Y-14926188D02*
X24954781Y-14783331D01*
X24954781Y-14783331D02*
X24954781Y-14983331D01*
X25135734Y-14983331D02*
X25135734Y-14878569D01*
X25135734Y-14878569D02*
X25126210Y-14859521D01*
X25126210Y-14859521D02*
X25107162Y-14849998D01*
X25107162Y-14849998D02*
X25069067Y-14849998D01*
X25069067Y-14849998D02*
X25050020Y-14859521D01*
X25135734Y-14973807D02*
X25116686Y-14983331D01*
X25116686Y-14983331D02*
X25069067Y-14983331D01*
X25069067Y-14983331D02*
X25050020Y-14973807D01*
X25050020Y-14973807D02*
X25040496Y-14954759D01*
X25040496Y-14954759D02*
X25040496Y-14935712D01*
X25040496Y-14935712D02*
X25050020Y-14916664D01*
X25050020Y-14916664D02*
X25069067Y-14907140D01*
X25069067Y-14907140D02*
X25116686Y-14907140D01*
X25116686Y-14907140D02*
X25135734Y-14897617D01*
X25230972Y-14849998D02*
X25230972Y-15049998D01*
X25230972Y-14859521D02*
X25250020Y-14849998D01*
X25250020Y-14849998D02*
X25288115Y-14849998D01*
X25288115Y-14849998D02*
X25307162Y-14859521D01*
X25307162Y-14859521D02*
X25316686Y-14869045D01*
X25316686Y-14869045D02*
X25326210Y-14888093D01*
X25326210Y-14888093D02*
X25326210Y-14945236D01*
X25326210Y-14945236D02*
X25316686Y-14964283D01*
X25316686Y-14964283D02*
X25307162Y-14973807D01*
X25307162Y-14973807D02*
X25288115Y-14983331D01*
X25288115Y-14983331D02*
X25250020Y-14983331D01*
X25250020Y-14983331D02*
X25230972Y-14973807D01*
X25411924Y-14964283D02*
X25421448Y-14973807D01*
X25421448Y-14973807D02*
X25411924Y-14983331D01*
X25411924Y-14983331D02*
X25402401Y-14973807D01*
X25402401Y-14973807D02*
X25411924Y-14964283D01*
X25411924Y-14964283D02*
X25411924Y-14983331D01*
X25411924Y-14859521D02*
X25421448Y-14869045D01*
X25421448Y-14869045D02*
X25411924Y-14878569D01*
X25411924Y-14878569D02*
X25402401Y-14869045D01*
X25402401Y-14869045D02*
X25411924Y-14859521D01*
X25411924Y-14859521D02*
X25411924Y-14878569D01*
D11*
X23739719Y-15291847D02*
X23779719Y-15331847D01*
X23779719Y-15291847D02*
X23739719Y-15331847D01*
D10*
X24078591Y-15203331D02*
X24097639Y-15203331D01*
X24097639Y-15203331D02*
X24116686Y-15212855D01*
X24116686Y-15212855D02*
X24126210Y-15222379D01*
X24126210Y-15222379D02*
X24135734Y-15241426D01*
X24135734Y-15241426D02*
X24145258Y-15279521D01*
X24145258Y-15279521D02*
X24145258Y-15327140D01*
X24145258Y-15327140D02*
X24135734Y-15365236D01*
X24135734Y-15365236D02*
X24126210Y-15384283D01*
X24126210Y-15384283D02*
X24116686Y-15393807D01*
X24116686Y-15393807D02*
X24097639Y-15403331D01*
X24097639Y-15403331D02*
X24078591Y-15403331D01*
X24078591Y-15403331D02*
X24059543Y-15393807D01*
X24059543Y-15393807D02*
X24050020Y-15384283D01*
X24050020Y-15384283D02*
X24040496Y-15365236D01*
X24040496Y-15365236D02*
X24030972Y-15327140D01*
X24030972Y-15327140D02*
X24030972Y-15279521D01*
X24030972Y-15279521D02*
X24040496Y-15241426D01*
X24040496Y-15241426D02*
X24050020Y-15222379D01*
X24050020Y-15222379D02*
X24059543Y-15212855D01*
X24059543Y-15212855D02*
X24078591Y-15203331D01*
X24230972Y-15384283D02*
X24240496Y-15393807D01*
X24240496Y-15393807D02*
X24230972Y-15403331D01*
X24230972Y-15403331D02*
X24221448Y-15393807D01*
X24221448Y-15393807D02*
X24230972Y-15384283D01*
X24230972Y-15384283D02*
X24230972Y-15403331D01*
X24411924Y-15269998D02*
X24411924Y-15403331D01*
X24364305Y-15193807D02*
X24316686Y-15336664D01*
X24316686Y-15336664D02*
X24440496Y-15336664D01*
X24554781Y-15203331D02*
X24573829Y-15203331D01*
X24573829Y-15203331D02*
X24592877Y-15212855D01*
X24592877Y-15212855D02*
X24602401Y-15222379D01*
X24602401Y-15222379D02*
X24611924Y-15241426D01*
X24611924Y-15241426D02*
X24621448Y-15279521D01*
X24621448Y-15279521D02*
X24621448Y-15327140D01*
X24621448Y-15327140D02*
X24611924Y-15365236D01*
X24611924Y-15365236D02*
X24602401Y-15384283D01*
X24602401Y-15384283D02*
X24592877Y-15393807D01*
X24592877Y-15393807D02*
X24573829Y-15403331D01*
X24573829Y-15403331D02*
X24554781Y-15403331D01*
X24554781Y-15403331D02*
X24535734Y-15393807D01*
X24535734Y-15393807D02*
X24526210Y-15384283D01*
X24526210Y-15384283D02*
X24516686Y-15365236D01*
X24516686Y-15365236D02*
X24507162Y-15327140D01*
X24507162Y-15327140D02*
X24507162Y-15279521D01*
X24507162Y-15279521D02*
X24516686Y-15241426D01*
X24516686Y-15241426D02*
X24526210Y-15222379D01*
X24526210Y-15222379D02*
X24535734Y-15212855D01*
X24535734Y-15212855D02*
X24554781Y-15203331D01*
X24745258Y-15203331D02*
X24764305Y-15203331D01*
X24764305Y-15203331D02*
X24783353Y-15212855D01*
X24783353Y-15212855D02*
X24792877Y-15222379D01*
X24792877Y-15222379D02*
X24802401Y-15241426D01*
X24802401Y-15241426D02*
X24811924Y-15279521D01*
X24811924Y-15279521D02*
X24811924Y-15327140D01*
X24811924Y-15327140D02*
X24802401Y-15365236D01*
X24802401Y-15365236D02*
X24792877Y-15384283D01*
X24792877Y-15384283D02*
X24783353Y-15393807D01*
X24783353Y-15393807D02*
X24764305Y-15403331D01*
X24764305Y-15403331D02*
X24745258Y-15403331D01*
X24745258Y-15403331D02*
X24726210Y-15393807D01*
X24726210Y-15393807D02*
X24716686Y-15384283D01*
X24716686Y-15384283D02*
X24707162Y-15365236D01*
X24707162Y-15365236D02*
X24697639Y-15327140D01*
X24697639Y-15327140D02*
X24697639Y-15279521D01*
X24697639Y-15279521D02*
X24707162Y-15241426D01*
X24707162Y-15241426D02*
X24716686Y-15222379D01*
X24716686Y-15222379D02*
X24726210Y-15212855D01*
X24726210Y-15212855D02*
X24745258Y-15203331D01*
X24897639Y-15403331D02*
X24897639Y-15269998D01*
X24897639Y-15289045D02*
X24907162Y-15279521D01*
X24907162Y-15279521D02*
X24926210Y-15269998D01*
X24926210Y-15269998D02*
X24954782Y-15269998D01*
X24954782Y-15269998D02*
X24973829Y-15279521D01*
X24973829Y-15279521D02*
X24983353Y-15298569D01*
X24983353Y-15298569D02*
X24983353Y-15403331D01*
X24983353Y-15298569D02*
X24992877Y-15279521D01*
X24992877Y-15279521D02*
X25011924Y-15269998D01*
X25011924Y-15269998D02*
X25040496Y-15269998D01*
X25040496Y-15269998D02*
X25059543Y-15279521D01*
X25059543Y-15279521D02*
X25069067Y-15298569D01*
X25069067Y-15298569D02*
X25069067Y-15403331D01*
X25164305Y-15403331D02*
X25164305Y-15269998D01*
X25164305Y-15289045D02*
X25173829Y-15279521D01*
X25173829Y-15279521D02*
X25192877Y-15269998D01*
X25192877Y-15269998D02*
X25221448Y-15269998D01*
X25221448Y-15269998D02*
X25240496Y-15279521D01*
X25240496Y-15279521D02*
X25250020Y-15298569D01*
X25250020Y-15298569D02*
X25250020Y-15403331D01*
X25250020Y-15298569D02*
X25259543Y-15279521D01*
X25259543Y-15279521D02*
X25278591Y-15269998D01*
X25278591Y-15269998D02*
X25307162Y-15269998D01*
X25307162Y-15269998D02*
X25326210Y-15279521D01*
X25326210Y-15279521D02*
X25335734Y-15298569D01*
X25335734Y-15298569D02*
X25335734Y-15403331D01*
X25726210Y-15193807D02*
X25554782Y-15450950D01*
X25983353Y-15203331D02*
X26002401Y-15203331D01*
X26002401Y-15203331D02*
X26021448Y-15212855D01*
X26021448Y-15212855D02*
X26030972Y-15222379D01*
X26030972Y-15222379D02*
X26040496Y-15241426D01*
X26040496Y-15241426D02*
X26050020Y-15279521D01*
X26050020Y-15279521D02*
X26050020Y-15327140D01*
X26050020Y-15327140D02*
X26040496Y-15365236D01*
X26040496Y-15365236D02*
X26030972Y-15384283D01*
X26030972Y-15384283D02*
X26021448Y-15393807D01*
X26021448Y-15393807D02*
X26002401Y-15403331D01*
X26002401Y-15403331D02*
X25983353Y-15403331D01*
X25983353Y-15403331D02*
X25964305Y-15393807D01*
X25964305Y-15393807D02*
X25954782Y-15384283D01*
X25954782Y-15384283D02*
X25945258Y-15365236D01*
X25945258Y-15365236D02*
X25935734Y-15327140D01*
X25935734Y-15327140D02*
X25935734Y-15279521D01*
X25935734Y-15279521D02*
X25945258Y-15241426D01*
X25945258Y-15241426D02*
X25954782Y-15222379D01*
X25954782Y-15222379D02*
X25964305Y-15212855D01*
X25964305Y-15212855D02*
X25983353Y-15203331D01*
X26135734Y-15384283D02*
X26145258Y-15393807D01*
X26145258Y-15393807D02*
X26135734Y-15403331D01*
X26135734Y-15403331D02*
X26126210Y-15393807D01*
X26126210Y-15393807D02*
X26135734Y-15384283D01*
X26135734Y-15384283D02*
X26135734Y-15403331D01*
X26269067Y-15203331D02*
X26288115Y-15203331D01*
X26288115Y-15203331D02*
X26307163Y-15212855D01*
X26307163Y-15212855D02*
X26316686Y-15222379D01*
X26316686Y-15222379D02*
X26326210Y-15241426D01*
X26326210Y-15241426D02*
X26335734Y-15279521D01*
X26335734Y-15279521D02*
X26335734Y-15327140D01*
X26335734Y-15327140D02*
X26326210Y-15365236D01*
X26326210Y-15365236D02*
X26316686Y-15384283D01*
X26316686Y-15384283D02*
X26307163Y-15393807D01*
X26307163Y-15393807D02*
X26288115Y-15403331D01*
X26288115Y-15403331D02*
X26269067Y-15403331D01*
X26269067Y-15403331D02*
X26250020Y-15393807D01*
X26250020Y-15393807D02*
X26240496Y-15384283D01*
X26240496Y-15384283D02*
X26230972Y-15365236D01*
X26230972Y-15365236D02*
X26221448Y-15327140D01*
X26221448Y-15327140D02*
X26221448Y-15279521D01*
X26221448Y-15279521D02*
X26230972Y-15241426D01*
X26230972Y-15241426D02*
X26240496Y-15222379D01*
X26240496Y-15222379D02*
X26250020Y-15212855D01*
X26250020Y-15212855D02*
X26269067Y-15203331D01*
X26526210Y-15403331D02*
X26411925Y-15403331D01*
X26469067Y-15403331D02*
X26469067Y-15203331D01*
X26469067Y-15203331D02*
X26450020Y-15231902D01*
X26450020Y-15231902D02*
X26430972Y-15250950D01*
X26430972Y-15250950D02*
X26411925Y-15260474D01*
X26707163Y-15203331D02*
X26611925Y-15203331D01*
X26611925Y-15203331D02*
X26602401Y-15298569D01*
X26602401Y-15298569D02*
X26611925Y-15289045D01*
X26611925Y-15289045D02*
X26630972Y-15279521D01*
X26630972Y-15279521D02*
X26678591Y-15279521D01*
X26678591Y-15279521D02*
X26697639Y-15289045D01*
X26697639Y-15289045D02*
X26707163Y-15298569D01*
X26707163Y-15298569D02*
X26716686Y-15317617D01*
X26716686Y-15317617D02*
X26716686Y-15365236D01*
X26716686Y-15365236D02*
X26707163Y-15384283D01*
X26707163Y-15384283D02*
X26697639Y-15393807D01*
X26697639Y-15393807D02*
X26678591Y-15403331D01*
X26678591Y-15403331D02*
X26630972Y-15403331D01*
X26630972Y-15403331D02*
X26611925Y-15393807D01*
X26611925Y-15393807D02*
X26602401Y-15384283D01*
X26783353Y-15203331D02*
X26916686Y-15203331D01*
X26916686Y-15203331D02*
X26830972Y-15403331D01*
X26983353Y-15203331D02*
X26983353Y-15241426D01*
X27059544Y-15203331D02*
X27059544Y-15241426D01*
X27354782Y-15479521D02*
X27345258Y-15469998D01*
X27345258Y-15469998D02*
X27326210Y-15441426D01*
X27326210Y-15441426D02*
X27316687Y-15422379D01*
X27316687Y-15422379D02*
X27307163Y-15393807D01*
X27307163Y-15393807D02*
X27297639Y-15346188D01*
X27297639Y-15346188D02*
X27297639Y-15308093D01*
X27297639Y-15308093D02*
X27307163Y-15260474D01*
X27307163Y-15260474D02*
X27316687Y-15231902D01*
X27316687Y-15231902D02*
X27326210Y-15212855D01*
X27326210Y-15212855D02*
X27345258Y-15184283D01*
X27345258Y-15184283D02*
X27354782Y-15174759D01*
X27516687Y-15269998D02*
X27516687Y-15403331D01*
X27469067Y-15193807D02*
X27421448Y-15336664D01*
X27421448Y-15336664D02*
X27545258Y-15336664D01*
X27659544Y-15203331D02*
X27678591Y-15203331D01*
X27678591Y-15203331D02*
X27697639Y-15212855D01*
X27697639Y-15212855D02*
X27707163Y-15222379D01*
X27707163Y-15222379D02*
X27716687Y-15241426D01*
X27716687Y-15241426D02*
X27726210Y-15279521D01*
X27726210Y-15279521D02*
X27726210Y-15327140D01*
X27726210Y-15327140D02*
X27716687Y-15365236D01*
X27716687Y-15365236D02*
X27707163Y-15384283D01*
X27707163Y-15384283D02*
X27697639Y-15393807D01*
X27697639Y-15393807D02*
X27678591Y-15403331D01*
X27678591Y-15403331D02*
X27659544Y-15403331D01*
X27659544Y-15403331D02*
X27640496Y-15393807D01*
X27640496Y-15393807D02*
X27630972Y-15384283D01*
X27630972Y-15384283D02*
X27621448Y-15365236D01*
X27621448Y-15365236D02*
X27611925Y-15327140D01*
X27611925Y-15327140D02*
X27611925Y-15279521D01*
X27611925Y-15279521D02*
X27621448Y-15241426D01*
X27621448Y-15241426D02*
X27630972Y-15222379D01*
X27630972Y-15222379D02*
X27640496Y-15212855D01*
X27640496Y-15212855D02*
X27659544Y-15203331D01*
X27964306Y-15403331D02*
X27964306Y-15203331D01*
X28050020Y-15403331D02*
X28050020Y-15298569D01*
X28050020Y-15298569D02*
X28040496Y-15279521D01*
X28040496Y-15279521D02*
X28021449Y-15269998D01*
X28021449Y-15269998D02*
X27992877Y-15269998D01*
X27992877Y-15269998D02*
X27973829Y-15279521D01*
X27973829Y-15279521D02*
X27964306Y-15289045D01*
X28173829Y-15403331D02*
X28154782Y-15393807D01*
X28154782Y-15393807D02*
X28145258Y-15384283D01*
X28145258Y-15384283D02*
X28135734Y-15365236D01*
X28135734Y-15365236D02*
X28135734Y-15308093D01*
X28135734Y-15308093D02*
X28145258Y-15289045D01*
X28145258Y-15289045D02*
X28154782Y-15279521D01*
X28154782Y-15279521D02*
X28173829Y-15269998D01*
X28173829Y-15269998D02*
X28202401Y-15269998D01*
X28202401Y-15269998D02*
X28221449Y-15279521D01*
X28221449Y-15279521D02*
X28230972Y-15289045D01*
X28230972Y-15289045D02*
X28240496Y-15308093D01*
X28240496Y-15308093D02*
X28240496Y-15365236D01*
X28240496Y-15365236D02*
X28230972Y-15384283D01*
X28230972Y-15384283D02*
X28221449Y-15393807D01*
X28221449Y-15393807D02*
X28202401Y-15403331D01*
X28202401Y-15403331D02*
X28173829Y-15403331D01*
X28354782Y-15403331D02*
X28335734Y-15393807D01*
X28335734Y-15393807D02*
X28326210Y-15374759D01*
X28326210Y-15374759D02*
X28326210Y-15203331D01*
X28507163Y-15393807D02*
X28488115Y-15403331D01*
X28488115Y-15403331D02*
X28450020Y-15403331D01*
X28450020Y-15403331D02*
X28430972Y-15393807D01*
X28430972Y-15393807D02*
X28421449Y-15374759D01*
X28421449Y-15374759D02*
X28421449Y-15298569D01*
X28421449Y-15298569D02*
X28430972Y-15279521D01*
X28430972Y-15279521D02*
X28450020Y-15269998D01*
X28450020Y-15269998D02*
X28488115Y-15269998D01*
X28488115Y-15269998D02*
X28507163Y-15279521D01*
X28507163Y-15279521D02*
X28516687Y-15298569D01*
X28516687Y-15298569D02*
X28516687Y-15317617D01*
X28516687Y-15317617D02*
X28421449Y-15336664D01*
X28592877Y-15393807D02*
X28611925Y-15403331D01*
X28611925Y-15403331D02*
X28650020Y-15403331D01*
X28650020Y-15403331D02*
X28669068Y-15393807D01*
X28669068Y-15393807D02*
X28678591Y-15374759D01*
X28678591Y-15374759D02*
X28678591Y-15365236D01*
X28678591Y-15365236D02*
X28669068Y-15346188D01*
X28669068Y-15346188D02*
X28650020Y-15336664D01*
X28650020Y-15336664D02*
X28621449Y-15336664D01*
X28621449Y-15336664D02*
X28602401Y-15327140D01*
X28602401Y-15327140D02*
X28592877Y-15308093D01*
X28592877Y-15308093D02*
X28592877Y-15298569D01*
X28592877Y-15298569D02*
X28602401Y-15279521D01*
X28602401Y-15279521D02*
X28621449Y-15269998D01*
X28621449Y-15269998D02*
X28650020Y-15269998D01*
X28650020Y-15269998D02*
X28669068Y-15279521D01*
X28745258Y-15479521D02*
X28754782Y-15469998D01*
X28754782Y-15469998D02*
X28773830Y-15441426D01*
X28773830Y-15441426D02*
X28783353Y-15422379D01*
X28783353Y-15422379D02*
X28792877Y-15393807D01*
X28792877Y-15393807D02*
X28802401Y-15346188D01*
X28802401Y-15346188D02*
X28802401Y-15308093D01*
X28802401Y-15308093D02*
X28792877Y-15260474D01*
X28792877Y-15260474D02*
X28783353Y-15231902D01*
X28783353Y-15231902D02*
X28773830Y-15212855D01*
X28773830Y-15212855D02*
X28754782Y-15184283D01*
X28754782Y-15184283D02*
X28745258Y-15174759D01*
D11*
X23779719Y-15575847D02*
G75*
G03*
X23779719Y-15575847I-45000J0D01*
G01*
D10*
X24078591Y-15467331D02*
X24097639Y-15467331D01*
X24097639Y-15467331D02*
X24116686Y-15476855D01*
X24116686Y-15476855D02*
X24126210Y-15486379D01*
X24126210Y-15486379D02*
X24135734Y-15505426D01*
X24135734Y-15505426D02*
X24145258Y-15543521D01*
X24145258Y-15543521D02*
X24145258Y-15591140D01*
X24145258Y-15591140D02*
X24135734Y-15629236D01*
X24135734Y-15629236D02*
X24126210Y-15648283D01*
X24126210Y-15648283D02*
X24116686Y-15657807D01*
X24116686Y-15657807D02*
X24097639Y-15667331D01*
X24097639Y-15667331D02*
X24078591Y-15667331D01*
X24078591Y-15667331D02*
X24059543Y-15657807D01*
X24059543Y-15657807D02*
X24050020Y-15648283D01*
X24050020Y-15648283D02*
X24040496Y-15629236D01*
X24040496Y-15629236D02*
X24030972Y-15591140D01*
X24030972Y-15591140D02*
X24030972Y-15543521D01*
X24030972Y-15543521D02*
X24040496Y-15505426D01*
X24040496Y-15505426D02*
X24050020Y-15486379D01*
X24050020Y-15486379D02*
X24059543Y-15476855D01*
X24059543Y-15476855D02*
X24078591Y-15467331D01*
X24230972Y-15648283D02*
X24240496Y-15657807D01*
X24240496Y-15657807D02*
X24230972Y-15667331D01*
X24230972Y-15667331D02*
X24221448Y-15657807D01*
X24221448Y-15657807D02*
X24230972Y-15648283D01*
X24230972Y-15648283D02*
X24230972Y-15667331D01*
X24335734Y-15667331D02*
X24373829Y-15667331D01*
X24373829Y-15667331D02*
X24392877Y-15657807D01*
X24392877Y-15657807D02*
X24402401Y-15648283D01*
X24402401Y-15648283D02*
X24421448Y-15619712D01*
X24421448Y-15619712D02*
X24430972Y-15581617D01*
X24430972Y-15581617D02*
X24430972Y-15505426D01*
X24430972Y-15505426D02*
X24421448Y-15486379D01*
X24421448Y-15486379D02*
X24411924Y-15476855D01*
X24411924Y-15476855D02*
X24392877Y-15467331D01*
X24392877Y-15467331D02*
X24354781Y-15467331D01*
X24354781Y-15467331D02*
X24335734Y-15476855D01*
X24335734Y-15476855D02*
X24326210Y-15486379D01*
X24326210Y-15486379D02*
X24316686Y-15505426D01*
X24316686Y-15505426D02*
X24316686Y-15553045D01*
X24316686Y-15553045D02*
X24326210Y-15572093D01*
X24326210Y-15572093D02*
X24335734Y-15581617D01*
X24335734Y-15581617D02*
X24354781Y-15591140D01*
X24354781Y-15591140D02*
X24392877Y-15591140D01*
X24392877Y-15591140D02*
X24411924Y-15581617D01*
X24411924Y-15581617D02*
X24421448Y-15572093D01*
X24421448Y-15572093D02*
X24430972Y-15553045D01*
X24554781Y-15467331D02*
X24573829Y-15467331D01*
X24573829Y-15467331D02*
X24592877Y-15476855D01*
X24592877Y-15476855D02*
X24602401Y-15486379D01*
X24602401Y-15486379D02*
X24611924Y-15505426D01*
X24611924Y-15505426D02*
X24621448Y-15543521D01*
X24621448Y-15543521D02*
X24621448Y-15591140D01*
X24621448Y-15591140D02*
X24611924Y-15629236D01*
X24611924Y-15629236D02*
X24602401Y-15648283D01*
X24602401Y-15648283D02*
X24592877Y-15657807D01*
X24592877Y-15657807D02*
X24573829Y-15667331D01*
X24573829Y-15667331D02*
X24554781Y-15667331D01*
X24554781Y-15667331D02*
X24535734Y-15657807D01*
X24535734Y-15657807D02*
X24526210Y-15648283D01*
X24526210Y-15648283D02*
X24516686Y-15629236D01*
X24516686Y-15629236D02*
X24507162Y-15591140D01*
X24507162Y-15591140D02*
X24507162Y-15543521D01*
X24507162Y-15543521D02*
X24516686Y-15505426D01*
X24516686Y-15505426D02*
X24526210Y-15486379D01*
X24526210Y-15486379D02*
X24535734Y-15476855D01*
X24535734Y-15476855D02*
X24554781Y-15467331D01*
X24745258Y-15467331D02*
X24764305Y-15467331D01*
X24764305Y-15467331D02*
X24783353Y-15476855D01*
X24783353Y-15476855D02*
X24792877Y-15486379D01*
X24792877Y-15486379D02*
X24802401Y-15505426D01*
X24802401Y-15505426D02*
X24811924Y-15543521D01*
X24811924Y-15543521D02*
X24811924Y-15591140D01*
X24811924Y-15591140D02*
X24802401Y-15629236D01*
X24802401Y-15629236D02*
X24792877Y-15648283D01*
X24792877Y-15648283D02*
X24783353Y-15657807D01*
X24783353Y-15657807D02*
X24764305Y-15667331D01*
X24764305Y-15667331D02*
X24745258Y-15667331D01*
X24745258Y-15667331D02*
X24726210Y-15657807D01*
X24726210Y-15657807D02*
X24716686Y-15648283D01*
X24716686Y-15648283D02*
X24707162Y-15629236D01*
X24707162Y-15629236D02*
X24697639Y-15591140D01*
X24697639Y-15591140D02*
X24697639Y-15543521D01*
X24697639Y-15543521D02*
X24707162Y-15505426D01*
X24707162Y-15505426D02*
X24716686Y-15486379D01*
X24716686Y-15486379D02*
X24726210Y-15476855D01*
X24726210Y-15476855D02*
X24745258Y-15467331D01*
X24897639Y-15667331D02*
X24897639Y-15533998D01*
X24897639Y-15553045D02*
X24907162Y-15543521D01*
X24907162Y-15543521D02*
X24926210Y-15533998D01*
X24926210Y-15533998D02*
X24954782Y-15533998D01*
X24954782Y-15533998D02*
X24973829Y-15543521D01*
X24973829Y-15543521D02*
X24983353Y-15562569D01*
X24983353Y-15562569D02*
X24983353Y-15667331D01*
X24983353Y-15562569D02*
X24992877Y-15543521D01*
X24992877Y-15543521D02*
X25011924Y-15533998D01*
X25011924Y-15533998D02*
X25040496Y-15533998D01*
X25040496Y-15533998D02*
X25059543Y-15543521D01*
X25059543Y-15543521D02*
X25069067Y-15562569D01*
X25069067Y-15562569D02*
X25069067Y-15667331D01*
X25164305Y-15667331D02*
X25164305Y-15533998D01*
X25164305Y-15553045D02*
X25173829Y-15543521D01*
X25173829Y-15543521D02*
X25192877Y-15533998D01*
X25192877Y-15533998D02*
X25221448Y-15533998D01*
X25221448Y-15533998D02*
X25240496Y-15543521D01*
X25240496Y-15543521D02*
X25250020Y-15562569D01*
X25250020Y-15562569D02*
X25250020Y-15667331D01*
X25250020Y-15562569D02*
X25259543Y-15543521D01*
X25259543Y-15543521D02*
X25278591Y-15533998D01*
X25278591Y-15533998D02*
X25307162Y-15533998D01*
X25307162Y-15533998D02*
X25326210Y-15543521D01*
X25326210Y-15543521D02*
X25335734Y-15562569D01*
X25335734Y-15562569D02*
X25335734Y-15667331D01*
X25726210Y-15457807D02*
X25554782Y-15714950D01*
X25983353Y-15467331D02*
X26002401Y-15467331D01*
X26002401Y-15467331D02*
X26021448Y-15476855D01*
X26021448Y-15476855D02*
X26030972Y-15486379D01*
X26030972Y-15486379D02*
X26040496Y-15505426D01*
X26040496Y-15505426D02*
X26050020Y-15543521D01*
X26050020Y-15543521D02*
X26050020Y-15591140D01*
X26050020Y-15591140D02*
X26040496Y-15629236D01*
X26040496Y-15629236D02*
X26030972Y-15648283D01*
X26030972Y-15648283D02*
X26021448Y-15657807D01*
X26021448Y-15657807D02*
X26002401Y-15667331D01*
X26002401Y-15667331D02*
X25983353Y-15667331D01*
X25983353Y-15667331D02*
X25964305Y-15657807D01*
X25964305Y-15657807D02*
X25954782Y-15648283D01*
X25954782Y-15648283D02*
X25945258Y-15629236D01*
X25945258Y-15629236D02*
X25935734Y-15591140D01*
X25935734Y-15591140D02*
X25935734Y-15543521D01*
X25935734Y-15543521D02*
X25945258Y-15505426D01*
X25945258Y-15505426D02*
X25954782Y-15486379D01*
X25954782Y-15486379D02*
X25964305Y-15476855D01*
X25964305Y-15476855D02*
X25983353Y-15467331D01*
X26135734Y-15648283D02*
X26145258Y-15657807D01*
X26145258Y-15657807D02*
X26135734Y-15667331D01*
X26135734Y-15667331D02*
X26126210Y-15657807D01*
X26126210Y-15657807D02*
X26135734Y-15648283D01*
X26135734Y-15648283D02*
X26135734Y-15667331D01*
X26269067Y-15467331D02*
X26288115Y-15467331D01*
X26288115Y-15467331D02*
X26307163Y-15476855D01*
X26307163Y-15476855D02*
X26316686Y-15486379D01*
X26316686Y-15486379D02*
X26326210Y-15505426D01*
X26326210Y-15505426D02*
X26335734Y-15543521D01*
X26335734Y-15543521D02*
X26335734Y-15591140D01*
X26335734Y-15591140D02*
X26326210Y-15629236D01*
X26326210Y-15629236D02*
X26316686Y-15648283D01*
X26316686Y-15648283D02*
X26307163Y-15657807D01*
X26307163Y-15657807D02*
X26288115Y-15667331D01*
X26288115Y-15667331D02*
X26269067Y-15667331D01*
X26269067Y-15667331D02*
X26250020Y-15657807D01*
X26250020Y-15657807D02*
X26240496Y-15648283D01*
X26240496Y-15648283D02*
X26230972Y-15629236D01*
X26230972Y-15629236D02*
X26221448Y-15591140D01*
X26221448Y-15591140D02*
X26221448Y-15543521D01*
X26221448Y-15543521D02*
X26230972Y-15505426D01*
X26230972Y-15505426D02*
X26240496Y-15486379D01*
X26240496Y-15486379D02*
X26250020Y-15476855D01*
X26250020Y-15476855D02*
X26269067Y-15467331D01*
X26402401Y-15467331D02*
X26526210Y-15467331D01*
X26526210Y-15467331D02*
X26459544Y-15543521D01*
X26459544Y-15543521D02*
X26488115Y-15543521D01*
X26488115Y-15543521D02*
X26507163Y-15553045D01*
X26507163Y-15553045D02*
X26516686Y-15562569D01*
X26516686Y-15562569D02*
X26526210Y-15581617D01*
X26526210Y-15581617D02*
X26526210Y-15629236D01*
X26526210Y-15629236D02*
X26516686Y-15648283D01*
X26516686Y-15648283D02*
X26507163Y-15657807D01*
X26507163Y-15657807D02*
X26488115Y-15667331D01*
X26488115Y-15667331D02*
X26430972Y-15667331D01*
X26430972Y-15667331D02*
X26411925Y-15657807D01*
X26411925Y-15657807D02*
X26402401Y-15648283D01*
X26707163Y-15467331D02*
X26611925Y-15467331D01*
X26611925Y-15467331D02*
X26602401Y-15562569D01*
X26602401Y-15562569D02*
X26611925Y-15553045D01*
X26611925Y-15553045D02*
X26630972Y-15543521D01*
X26630972Y-15543521D02*
X26678591Y-15543521D01*
X26678591Y-15543521D02*
X26697639Y-15553045D01*
X26697639Y-15553045D02*
X26707163Y-15562569D01*
X26707163Y-15562569D02*
X26716686Y-15581617D01*
X26716686Y-15581617D02*
X26716686Y-15629236D01*
X26716686Y-15629236D02*
X26707163Y-15648283D01*
X26707163Y-15648283D02*
X26697639Y-15657807D01*
X26697639Y-15657807D02*
X26678591Y-15667331D01*
X26678591Y-15667331D02*
X26630972Y-15667331D01*
X26630972Y-15667331D02*
X26611925Y-15657807D01*
X26611925Y-15657807D02*
X26602401Y-15648283D01*
X26888115Y-15533998D02*
X26888115Y-15667331D01*
X26840496Y-15457807D02*
X26792877Y-15600664D01*
X26792877Y-15600664D02*
X26916686Y-15600664D01*
X26983353Y-15467331D02*
X26983353Y-15505426D01*
X27059544Y-15467331D02*
X27059544Y-15505426D01*
X27354782Y-15743521D02*
X27345258Y-15733998D01*
X27345258Y-15733998D02*
X27326210Y-15705426D01*
X27326210Y-15705426D02*
X27316687Y-15686379D01*
X27316687Y-15686379D02*
X27307163Y-15657807D01*
X27307163Y-15657807D02*
X27297639Y-15610188D01*
X27297639Y-15610188D02*
X27297639Y-15572093D01*
X27297639Y-15572093D02*
X27307163Y-15524474D01*
X27307163Y-15524474D02*
X27316687Y-15495902D01*
X27316687Y-15495902D02*
X27326210Y-15476855D01*
X27326210Y-15476855D02*
X27345258Y-15448283D01*
X27345258Y-15448283D02*
X27354782Y-15438759D01*
X27421448Y-15486379D02*
X27430972Y-15476855D01*
X27430972Y-15476855D02*
X27450020Y-15467331D01*
X27450020Y-15467331D02*
X27497639Y-15467331D01*
X27497639Y-15467331D02*
X27516687Y-15476855D01*
X27516687Y-15476855D02*
X27526210Y-15486379D01*
X27526210Y-15486379D02*
X27535734Y-15505426D01*
X27535734Y-15505426D02*
X27535734Y-15524474D01*
X27535734Y-15524474D02*
X27526210Y-15553045D01*
X27526210Y-15553045D02*
X27411925Y-15667331D01*
X27411925Y-15667331D02*
X27535734Y-15667331D01*
X27707163Y-15467331D02*
X27669067Y-15467331D01*
X27669067Y-15467331D02*
X27650020Y-15476855D01*
X27650020Y-15476855D02*
X27640496Y-15486379D01*
X27640496Y-15486379D02*
X27621448Y-15514950D01*
X27621448Y-15514950D02*
X27611925Y-15553045D01*
X27611925Y-15553045D02*
X27611925Y-15629236D01*
X27611925Y-15629236D02*
X27621448Y-15648283D01*
X27621448Y-15648283D02*
X27630972Y-15657807D01*
X27630972Y-15657807D02*
X27650020Y-15667331D01*
X27650020Y-15667331D02*
X27688115Y-15667331D01*
X27688115Y-15667331D02*
X27707163Y-15657807D01*
X27707163Y-15657807D02*
X27716687Y-15648283D01*
X27716687Y-15648283D02*
X27726210Y-15629236D01*
X27726210Y-15629236D02*
X27726210Y-15581617D01*
X27726210Y-15581617D02*
X27716687Y-15562569D01*
X27716687Y-15562569D02*
X27707163Y-15553045D01*
X27707163Y-15553045D02*
X27688115Y-15543521D01*
X27688115Y-15543521D02*
X27650020Y-15543521D01*
X27650020Y-15543521D02*
X27630972Y-15553045D01*
X27630972Y-15553045D02*
X27621448Y-15562569D01*
X27621448Y-15562569D02*
X27611925Y-15581617D01*
X27964306Y-15667331D02*
X27964306Y-15467331D01*
X28050020Y-15667331D02*
X28050020Y-15562569D01*
X28050020Y-15562569D02*
X28040496Y-15543521D01*
X28040496Y-15543521D02*
X28021449Y-15533998D01*
X28021449Y-15533998D02*
X27992877Y-15533998D01*
X27992877Y-15533998D02*
X27973829Y-15543521D01*
X27973829Y-15543521D02*
X27964306Y-15553045D01*
X28173829Y-15667331D02*
X28154782Y-15657807D01*
X28154782Y-15657807D02*
X28145258Y-15648283D01*
X28145258Y-15648283D02*
X28135734Y-15629236D01*
X28135734Y-15629236D02*
X28135734Y-15572093D01*
X28135734Y-15572093D02*
X28145258Y-15553045D01*
X28145258Y-15553045D02*
X28154782Y-15543521D01*
X28154782Y-15543521D02*
X28173829Y-15533998D01*
X28173829Y-15533998D02*
X28202401Y-15533998D01*
X28202401Y-15533998D02*
X28221449Y-15543521D01*
X28221449Y-15543521D02*
X28230972Y-15553045D01*
X28230972Y-15553045D02*
X28240496Y-15572093D01*
X28240496Y-15572093D02*
X28240496Y-15629236D01*
X28240496Y-15629236D02*
X28230972Y-15648283D01*
X28230972Y-15648283D02*
X28221449Y-15657807D01*
X28221449Y-15657807D02*
X28202401Y-15667331D01*
X28202401Y-15667331D02*
X28173829Y-15667331D01*
X28354782Y-15667331D02*
X28335734Y-15657807D01*
X28335734Y-15657807D02*
X28326210Y-15638759D01*
X28326210Y-15638759D02*
X28326210Y-15467331D01*
X28507163Y-15657807D02*
X28488115Y-15667331D01*
X28488115Y-15667331D02*
X28450020Y-15667331D01*
X28450020Y-15667331D02*
X28430972Y-15657807D01*
X28430972Y-15657807D02*
X28421449Y-15638759D01*
X28421449Y-15638759D02*
X28421449Y-15562569D01*
X28421449Y-15562569D02*
X28430972Y-15543521D01*
X28430972Y-15543521D02*
X28450020Y-15533998D01*
X28450020Y-15533998D02*
X28488115Y-15533998D01*
X28488115Y-15533998D02*
X28507163Y-15543521D01*
X28507163Y-15543521D02*
X28516687Y-15562569D01*
X28516687Y-15562569D02*
X28516687Y-15581617D01*
X28516687Y-15581617D02*
X28421449Y-15600664D01*
X28592877Y-15657807D02*
X28611925Y-15667331D01*
X28611925Y-15667331D02*
X28650020Y-15667331D01*
X28650020Y-15667331D02*
X28669068Y-15657807D01*
X28669068Y-15657807D02*
X28678591Y-15638759D01*
X28678591Y-15638759D02*
X28678591Y-15629236D01*
X28678591Y-15629236D02*
X28669068Y-15610188D01*
X28669068Y-15610188D02*
X28650020Y-15600664D01*
X28650020Y-15600664D02*
X28621449Y-15600664D01*
X28621449Y-15600664D02*
X28602401Y-15591140D01*
X28602401Y-15591140D02*
X28592877Y-15572093D01*
X28592877Y-15572093D02*
X28592877Y-15562569D01*
X28592877Y-15562569D02*
X28602401Y-15543521D01*
X28602401Y-15543521D02*
X28621449Y-15533998D01*
X28621449Y-15533998D02*
X28650020Y-15533998D01*
X28650020Y-15533998D02*
X28669068Y-15543521D01*
X28745258Y-15743521D02*
X28754782Y-15733998D01*
X28754782Y-15733998D02*
X28773830Y-15705426D01*
X28773830Y-15705426D02*
X28783353Y-15686379D01*
X28783353Y-15686379D02*
X28792877Y-15657807D01*
X28792877Y-15657807D02*
X28802401Y-15610188D01*
X28802401Y-15610188D02*
X28802401Y-15572093D01*
X28802401Y-15572093D02*
X28792877Y-15524474D01*
X28792877Y-15524474D02*
X28783353Y-15495902D01*
X28783353Y-15495902D02*
X28773830Y-15476855D01*
X28773830Y-15476855D02*
X28754782Y-15448283D01*
X28754782Y-15448283D02*
X28745258Y-15438759D01*
M02*
