%TF.GenerationSoftware,KiCad,Pcbnew,7.0.9*%
%TF.CreationDate,2024-06-22T14:59:43+09:00*%
%TF.ProjectId,PSU,5053552e-6b69-4636-9164-5f7063625858,rev?*%
%TF.SameCoordinates,Original*%
%TF.FileFunction,Copper,L2,Bot*%
%TF.FilePolarity,Positive*%
%FSLAX46Y46*%
G04 Gerber Fmt 4.6, Leading zero omitted, Abs format (unit mm)*
G04 Created by KiCad (PCBNEW 7.0.9) date 2024-06-22 14:59:43*
%MOMM*%
%LPD*%
G01*
G04 APERTURE LIST*
G04 Aperture macros list*
%AMRoundRect*
0 Rectangle with rounded corners*
0 $1 Rounding radius*
0 $2 $3 $4 $5 $6 $7 $8 $9 X,Y pos of 4 corners*
0 Add a 4 corners polygon primitive as box body*
4,1,4,$2,$3,$4,$5,$6,$7,$8,$9,$2,$3,0*
0 Add four circle primitives for the rounded corners*
1,1,$1+$1,$2,$3*
1,1,$1+$1,$4,$5*
1,1,$1+$1,$6,$7*
1,1,$1+$1,$8,$9*
0 Add four rect primitives between the rounded corners*
20,1,$1+$1,$2,$3,$4,$5,0*
20,1,$1+$1,$4,$5,$6,$7,0*
20,1,$1+$1,$6,$7,$8,$9,0*
20,1,$1+$1,$8,$9,$2,$3,0*%
%AMHorizOval*
0 Thick line with rounded ends*
0 $1 width*
0 $2 $3 position (X,Y) of the first rounded end (center of the circle)*
0 $4 $5 position (X,Y) of the second rounded end (center of the circle)*
0 Add line between two ends*
20,1,$1,$2,$3,$4,$5,0*
0 Add two circle primitives to create the rounded ends*
1,1,$1,$2,$3*
1,1,$1,$4,$5*%
%AMRotRect*
0 Rectangle, with rotation*
0 The origin of the aperture is its center*
0 $1 length*
0 $2 width*
0 $3 Rotation angle, in degrees counterclockwise*
0 Add horizontal line*
21,1,$1,$2,0,0,$3*%
G04 Aperture macros list end*
%TA.AperFunction,ComponentPad*%
%ADD10C,1.600000*%
%TD*%
%TA.AperFunction,ComponentPad*%
%ADD11C,1.400000*%
%TD*%
%TA.AperFunction,ComponentPad*%
%ADD12O,1.400000X1.400000*%
%TD*%
%TA.AperFunction,ComponentPad*%
%ADD13C,1.635000*%
%TD*%
%TA.AperFunction,ComponentPad*%
%ADD14RotRect,1.700000X1.700000X135.000000*%
%TD*%
%TA.AperFunction,ComponentPad*%
%ADD15HorizOval,1.700000X0.000000X0.000000X0.000000X0.000000X0*%
%TD*%
%TA.AperFunction,ComponentPad*%
%ADD16RoundRect,0.250000X0.725000X-0.600000X0.725000X0.600000X-0.725000X0.600000X-0.725000X-0.600000X0*%
%TD*%
%TA.AperFunction,ComponentPad*%
%ADD17O,1.950000X1.700000*%
%TD*%
%TA.AperFunction,ComponentPad*%
%ADD18O,2.700000X1.500000*%
%TD*%
%TA.AperFunction,ComponentPad*%
%ADD19RoundRect,0.250001X1.099999X-1.099999X1.099999X1.099999X-1.099999X1.099999X-1.099999X-1.099999X0*%
%TD*%
%TA.AperFunction,ComponentPad*%
%ADD20C,2.700000*%
%TD*%
%TA.AperFunction,ComponentPad*%
%ADD21RoundRect,0.250000X-0.600000X-0.725000X0.600000X-0.725000X0.600000X0.725000X-0.600000X0.725000X0*%
%TD*%
%TA.AperFunction,ComponentPad*%
%ADD22O,1.700000X1.950000*%
%TD*%
%TA.AperFunction,ComponentPad*%
%ADD23C,1.440000*%
%TD*%
%TA.AperFunction,ComponentPad*%
%ADD24O,4.000000X2.000000*%
%TD*%
%TA.AperFunction,ViaPad*%
%ADD25C,0.800000*%
%TD*%
%TA.AperFunction,Conductor*%
%ADD26C,2.000000*%
%TD*%
%TA.AperFunction,Conductor*%
%ADD27C,1.000000*%
%TD*%
G04 APERTURE END LIST*
D10*
%TO.P,C2,1*%
%TO.N,+5V*%
X160274000Y-82550000D03*
%TO.P,C2,2*%
%TO.N,GND*%
X160274000Y-80050000D03*
%TD*%
%TO.P,C1,1*%
%TO.N,+12V*%
X156464000Y-96754000D03*
%TO.P,C1,2*%
%TO.N,GND*%
X156464000Y-94254000D03*
%TD*%
D11*
%TO.P,R1,1*%
%TO.N,+12V*%
X173736000Y-97536000D03*
D12*
%TO.P,R1,2*%
%TO.N,Net-(U1-ON{slash}OFF_CTRL)*%
X173736000Y-92456000D03*
%TD*%
D13*
%TO.P,SW1,1*%
%TO.N,GND*%
X176530000Y-91948000D03*
%TO.P,SW1,2*%
%TO.N,Net-(U1-ON{slash}OFF_CTRL)*%
X176530000Y-94488000D03*
%TO.P,SW1,3*%
%TO.N,N/C*%
X176530000Y-97028000D03*
%TD*%
D14*
%TO.P,MES1,1,-*%
%TO.N,GND*%
X131940439Y-88277562D03*
D15*
%TO.P,MES1,2,+*%
%TO.N,Net-(D1-K)*%
X133736490Y-86481511D03*
%TD*%
D16*
%TO.P,J1,1,Pin_1*%
%TO.N,+12V*%
X143510000Y-90424000D03*
D17*
%TO.P,J1,2,Pin_2*%
%TO.N,GND*%
X143510000Y-87924000D03*
%TO.P,J1,3,Pin_3*%
%TO.N,+5V*%
X143510000Y-85424000D03*
%TD*%
D18*
%TO.P,F1,1*%
%TO.N,Net-(BT1-+)*%
X137922000Y-96774000D03*
X137922000Y-93074000D03*
%TO.P,F1,2*%
%TO.N,Net-(D1-K)*%
X137922000Y-88774000D03*
X137922000Y-85074000D03*
%TD*%
D11*
%TO.P,R2,1*%
%TO.N,+5V*%
X156210000Y-86360000D03*
D12*
%TO.P,R2,2*%
%TO.N,GND*%
X156210000Y-91440000D03*
%TD*%
D19*
%TO.P,BT1,1,+*%
%TO.N,Net-(BT1-+)*%
X130302000Y-96266000D03*
D20*
%TO.P,BT1,2,-*%
%TO.N,GND*%
X130302000Y-92306000D03*
%TD*%
D21*
%TO.P,J2,1,Pin_1*%
%TO.N,+12V*%
X150154000Y-81517000D03*
D22*
%TO.P,J2,2,Pin_2*%
%TO.N,GND*%
X152654000Y-81517000D03*
%TO.P,J2,3,Pin_3*%
%TO.N,+5V*%
X155154000Y-81517000D03*
%TD*%
D23*
%TO.P,RV1,1,1*%
%TO.N,GND*%
X148336000Y-96012000D03*
%TO.P,RV1,2,2*%
X145796000Y-96012000D03*
%TO.P,RV1,3,3*%
%TO.N,Net-(U1-TRIM)*%
X143256000Y-96012000D03*
%TD*%
D24*
%TO.P,SW2,1*%
%TO.N,Net-(D1-K)*%
X152400000Y-87630000D03*
%TO.P,SW2,2*%
%TO.N,+12V*%
X152400000Y-93630000D03*
%TD*%
D25*
%TO.N,GND*%
X133604000Y-89408000D03*
X175006000Y-95758000D03*
X173482000Y-90678000D03*
X175260000Y-90678000D03*
X127000000Y-98044000D03*
X143510000Y-98298000D03*
X175260000Y-98298000D03*
X127000000Y-91948000D03*
X155194000Y-92710000D03*
X157226000Y-92710000D03*
X157226000Y-89154000D03*
X177800000Y-98298000D03*
X154432000Y-89408000D03*
X167640000Y-94234000D03*
X168148000Y-88392000D03*
X155194000Y-88138000D03*
X171704000Y-95504000D03*
X132842000Y-92202000D03*
X158242000Y-80010000D03*
X154432000Y-91440000D03*
X173228000Y-87376000D03*
X139446000Y-98298000D03*
X127000000Y-94996000D03*
X174244000Y-89154000D03*
X162560000Y-88646000D03*
X147066000Y-79502000D03*
X150114000Y-96266000D03*
X153924000Y-79502000D03*
X162560000Y-94234000D03*
X141478000Y-95758000D03*
X177800000Y-93218000D03*
X165608000Y-91440000D03*
X162560000Y-90170000D03*
X139954000Y-95504000D03*
X163830000Y-95758000D03*
X151638000Y-79502000D03*
X129794000Y-89662000D03*
X147066000Y-96774000D03*
X165354000Y-88392000D03*
X173482000Y-94234000D03*
X177800000Y-95758000D03*
X144780000Y-82042000D03*
X135890000Y-91186000D03*
X143256000Y-79248000D03*
X141478000Y-84074000D03*
%TO.N,+12V*%
X163068000Y-97536000D03*
%TO.N,Net-(U1-ON{slash}OFF_CTRL)*%
X166624000Y-92456000D03*
%TO.N,Net-(U1-TRIM)*%
X171704000Y-87122000D03*
%TD*%
D26*
%TO.N,+12V*%
X146050000Y-88859000D02*
X144485000Y-90424000D01*
X150154000Y-81517000D02*
X148590000Y-83081000D01*
X148590000Y-83081000D02*
X148590000Y-88900000D01*
X150114000Y-93630000D02*
X148844000Y-93630000D01*
X145288000Y-90424000D02*
X147320000Y-88392000D01*
X148590000Y-89916000D02*
X152304000Y-93630000D01*
X143510000Y-90424000D02*
X145288000Y-90424000D01*
X146908000Y-90424000D02*
X150114000Y-93630000D01*
X144684000Y-93630000D02*
X152400000Y-93630000D01*
X147320000Y-88392000D02*
X147320000Y-90424000D01*
X146716000Y-93630000D02*
X143510000Y-90424000D01*
X152304000Y-93630000D02*
X152400000Y-93630000D01*
X143510000Y-92456000D02*
X144684000Y-93630000D01*
X147320000Y-90424000D02*
X143510000Y-90424000D01*
X143510000Y-90424000D02*
X146908000Y-90424000D01*
X152400000Y-92456000D02*
X148844000Y-88900000D01*
X148844000Y-88900000D02*
X148590000Y-88900000D01*
X143510000Y-90424000D02*
X145638000Y-90424000D01*
X147320000Y-82296000D02*
X147320000Y-88392000D01*
X152400000Y-93630000D02*
X152400000Y-92456000D01*
X146050000Y-83566000D02*
X146050000Y-88859000D01*
X144485000Y-90424000D02*
X143510000Y-90424000D01*
X145638000Y-90424000D02*
X148844000Y-93630000D01*
X148099000Y-81517000D02*
X146050000Y-83566000D01*
D27*
X173736000Y-97536000D02*
X163068000Y-97536000D01*
D26*
X143510000Y-90424000D02*
X143510000Y-92456000D01*
X148590000Y-88900000D02*
X148590000Y-89916000D01*
X150154000Y-81517000D02*
X148099000Y-81517000D01*
X148844000Y-93630000D02*
X146716000Y-93630000D01*
X148099000Y-81517000D02*
X147320000Y-82296000D01*
X152400000Y-93630000D02*
X150114000Y-93630000D01*
D27*
%TO.N,Net-(U1-ON{slash}OFF_CTRL)*%
X166624000Y-92456000D02*
X173736000Y-92456000D01*
X175768000Y-94488000D02*
X173736000Y-92456000D01*
X176530000Y-94488000D02*
X175768000Y-94488000D01*
%TO.N,Net-(U1-TRIM)*%
X143256000Y-96012000D02*
X145498000Y-98254000D01*
X164846000Y-89916000D02*
X168910000Y-89916000D01*
X160528000Y-96520000D02*
X160528000Y-94234000D01*
X168910000Y-89916000D02*
X171704000Y-87122000D01*
X160528000Y-94234000D02*
X164846000Y-89916000D01*
X145498000Y-98254000D02*
X158794000Y-98254000D01*
X158794000Y-98254000D02*
X160528000Y-96520000D01*
%TD*%
%TA.AperFunction,Conductor*%
%TO.N,GND*%
G36*
X159502882Y-78794184D02*
G01*
X159548637Y-78846988D01*
X159558581Y-78916146D01*
X159552078Y-78930384D01*
X159548526Y-78970973D01*
X160229600Y-79652046D01*
X160148852Y-79664835D01*
X160035955Y-79722359D01*
X159946359Y-79811955D01*
X159888835Y-79924852D01*
X159876046Y-80005599D01*
X159194973Y-79324526D01*
X159194972Y-79324527D01*
X159143868Y-79397513D01*
X159047734Y-79603673D01*
X159047730Y-79603682D01*
X158988860Y-79823389D01*
X158988858Y-79823400D01*
X158969034Y-80049997D01*
X158969034Y-80050002D01*
X158988858Y-80276599D01*
X158988860Y-80276610D01*
X159047730Y-80496317D01*
X159047734Y-80496326D01*
X159143865Y-80702481D01*
X159143866Y-80702483D01*
X159194973Y-80775471D01*
X159194974Y-80775472D01*
X159876046Y-80094399D01*
X159888835Y-80175148D01*
X159946359Y-80288045D01*
X160035955Y-80377641D01*
X160148852Y-80435165D01*
X160229599Y-80447953D01*
X159548526Y-81129025D01*
X159548526Y-81129026D01*
X159621512Y-81180131D01*
X159621515Y-81180132D01*
X159636974Y-81187341D01*
X159689414Y-81233513D01*
X159708567Y-81300706D01*
X159688352Y-81367587D01*
X159636978Y-81412105D01*
X159621269Y-81419430D01*
X159621265Y-81419432D01*
X159434858Y-81549954D01*
X159273954Y-81710858D01*
X159143432Y-81897265D01*
X159143431Y-81897267D01*
X159047261Y-82103502D01*
X159047258Y-82103511D01*
X158988366Y-82323302D01*
X158988364Y-82323313D01*
X158968532Y-82549998D01*
X158968532Y-82550001D01*
X158988364Y-82776686D01*
X158988366Y-82776697D01*
X159047258Y-82996488D01*
X159047261Y-82996497D01*
X159143431Y-83202732D01*
X159143432Y-83202734D01*
X159273954Y-83389141D01*
X159434858Y-83550045D01*
X159434861Y-83550047D01*
X159621266Y-83680568D01*
X159827504Y-83776739D01*
X160047308Y-83835635D01*
X160209230Y-83849801D01*
X160273998Y-83855468D01*
X160274000Y-83855468D01*
X160274002Y-83855468D01*
X160330673Y-83850509D01*
X160500692Y-83835635D01*
X160720496Y-83776739D01*
X160926734Y-83680568D01*
X161113139Y-83550047D01*
X161274047Y-83389139D01*
X161404568Y-83202734D01*
X161500739Y-82996496D01*
X161559635Y-82776692D01*
X161579468Y-82550000D01*
X161579369Y-82548874D01*
X161559635Y-82323313D01*
X161559635Y-82323308D01*
X161501318Y-82105664D01*
X161500741Y-82103511D01*
X161500738Y-82103502D01*
X161448743Y-81992000D01*
X161404568Y-81897266D01*
X161274047Y-81710861D01*
X161274045Y-81710858D01*
X161113141Y-81549954D01*
X160926734Y-81419432D01*
X160926730Y-81419430D01*
X160911022Y-81412105D01*
X160858583Y-81365931D01*
X160839433Y-81298737D01*
X160859650Y-81231857D01*
X160911028Y-81187340D01*
X160926481Y-81180134D01*
X160999472Y-81129025D01*
X160318401Y-80447953D01*
X160399148Y-80435165D01*
X160512045Y-80377641D01*
X160601641Y-80288045D01*
X160659165Y-80175148D01*
X160671953Y-80094400D01*
X161353025Y-80775472D01*
X161409192Y-80770558D01*
X161477692Y-80784324D01*
X161527875Y-80832939D01*
X161544000Y-80894086D01*
X161544000Y-81026000D01*
X164592000Y-84074000D01*
X170677369Y-84074000D01*
X170744408Y-84093685D01*
X170765050Y-84110319D01*
X174510436Y-87855705D01*
X177192637Y-90537905D01*
X177226122Y-90599228D01*
X177221138Y-90668920D01*
X177179266Y-90724853D01*
X177113802Y-90749270D01*
X177052552Y-90737968D01*
X176982339Y-90705227D01*
X176982325Y-90705222D01*
X176759660Y-90645560D01*
X176759649Y-90645558D01*
X176530002Y-90625467D01*
X176529998Y-90625467D01*
X176300350Y-90645558D01*
X176300339Y-90645560D01*
X176077674Y-90705222D01*
X176077665Y-90705226D01*
X175868740Y-90802649D01*
X175791961Y-90856409D01*
X176362231Y-91426679D01*
X176244164Y-91477963D01*
X176127950Y-91572511D01*
X176041553Y-91694907D01*
X176010560Y-91782112D01*
X175438409Y-91209961D01*
X175384649Y-91286740D01*
X175287226Y-91495665D01*
X175287222Y-91495674D01*
X175227560Y-91718339D01*
X175227558Y-91718350D01*
X175207467Y-91947998D01*
X175207467Y-91948001D01*
X175227558Y-92177649D01*
X175227561Y-92177663D01*
X175237717Y-92215568D01*
X175236054Y-92285418D01*
X175196890Y-92343280D01*
X175132662Y-92370783D01*
X175063759Y-92359196D01*
X175030261Y-92335341D01*
X174940598Y-92245678D01*
X174909013Y-92191932D01*
X174860229Y-92020472D01*
X174850500Y-92000933D01*
X174761061Y-91821316D01*
X174761056Y-91821308D01*
X174626979Y-91643761D01*
X174462562Y-91493876D01*
X174462560Y-91493874D01*
X174273404Y-91376754D01*
X174273398Y-91376752D01*
X174065940Y-91296382D01*
X173847243Y-91255500D01*
X173624757Y-91255500D01*
X173406060Y-91296382D01*
X173388296Y-91303264D01*
X173198601Y-91376752D01*
X173198595Y-91376754D01*
X173101414Y-91436927D01*
X173036137Y-91455500D01*
X166573257Y-91455500D01*
X166421560Y-91470925D01*
X166227420Y-91531837D01*
X166227405Y-91531844D01*
X166049500Y-91630589D01*
X166049495Y-91630592D01*
X165895106Y-91763132D01*
X165895104Y-91763134D01*
X165770554Y-91924037D01*
X165770553Y-91924040D01*
X165680940Y-92106728D01*
X165629937Y-92303714D01*
X165619631Y-92506936D01*
X165650442Y-92708063D01*
X165650445Y-92708075D01*
X165721111Y-92898881D01*
X165721113Y-92898884D01*
X165721114Y-92898887D01*
X165738472Y-92926735D01*
X165828745Y-93071567D01*
X165828749Y-93071572D01*
X165927040Y-93174974D01*
X165968941Y-93219053D01*
X166097344Y-93308424D01*
X166135949Y-93335294D01*
X166135950Y-93335294D01*
X166135951Y-93335295D01*
X166322942Y-93415540D01*
X166522259Y-93456500D01*
X173036137Y-93456500D01*
X173101414Y-93475073D01*
X173198595Y-93535245D01*
X173198596Y-93535245D01*
X173198599Y-93535247D01*
X173406060Y-93615618D01*
X173460115Y-93625722D01*
X173522394Y-93657391D01*
X173525009Y-93659930D01*
X174291080Y-94426000D01*
X175051548Y-95186468D01*
X175112941Y-95251053D01*
X175112944Y-95251055D01*
X175112947Y-95251058D01*
X175124959Y-95259418D01*
X175163303Y-95286106D01*
X175167044Y-95288926D01*
X175214593Y-95327698D01*
X175245045Y-95343604D01*
X175251758Y-95347672D01*
X175279951Y-95367295D01*
X175336329Y-95391489D01*
X175340578Y-95393507D01*
X175394951Y-95421909D01*
X175422489Y-95429788D01*
X175427974Y-95431358D01*
X175435368Y-95433990D01*
X175466942Y-95447540D01*
X175466945Y-95447540D01*
X175466946Y-95447541D01*
X175527022Y-95459887D01*
X175531600Y-95461010D01*
X175545501Y-95464987D01*
X175590582Y-95477887D01*
X175613097Y-95479601D01*
X175618701Y-95480028D01*
X175680412Y-95502095D01*
X175868477Y-95633779D01*
X175868479Y-95633780D01*
X175868482Y-95633782D01*
X175893865Y-95645618D01*
X175946304Y-95691790D01*
X175965456Y-95758984D01*
X175945240Y-95825865D01*
X175893866Y-95870381D01*
X175868489Y-95882214D01*
X175868482Y-95882218D01*
X175679566Y-96014497D01*
X175516497Y-96177566D01*
X175384218Y-96366482D01*
X175384217Y-96366484D01*
X175286755Y-96575493D01*
X175286751Y-96575502D01*
X175227066Y-96798251D01*
X175227064Y-96798262D01*
X175206965Y-97027998D01*
X175206965Y-97028001D01*
X175227064Y-97257737D01*
X175227066Y-97257748D01*
X175286751Y-97480497D01*
X175286753Y-97480501D01*
X175286754Y-97480505D01*
X175361903Y-97641663D01*
X175384218Y-97689518D01*
X175384220Y-97689522D01*
X175516496Y-97878432D01*
X175679567Y-98041503D01*
X175868477Y-98173779D01*
X175868479Y-98173780D01*
X175868482Y-98173782D01*
X176077495Y-98271246D01*
X176300257Y-98330935D01*
X176464359Y-98345292D01*
X176529998Y-98351035D01*
X176530000Y-98351035D01*
X176530002Y-98351035D01*
X176587435Y-98346010D01*
X176759743Y-98330935D01*
X176982505Y-98271246D01*
X177191518Y-98173782D01*
X177380431Y-98041504D01*
X177543504Y-97878431D01*
X177675782Y-97689518D01*
X177773246Y-97480505D01*
X177832935Y-97257743D01*
X177852392Y-97035352D01*
X177853035Y-97028001D01*
X177853035Y-97027998D01*
X177845557Y-96942531D01*
X177832935Y-96798257D01*
X177773246Y-96575495D01*
X177675782Y-96366483D01*
X177543504Y-96177569D01*
X177543502Y-96177566D01*
X177380432Y-96014496D01*
X177191522Y-95882220D01*
X177191519Y-95882219D01*
X177191520Y-95882219D01*
X177191518Y-95882218D01*
X177166134Y-95870381D01*
X177113696Y-95824211D01*
X177094543Y-95757018D01*
X177114758Y-95690136D01*
X177166134Y-95645618D01*
X177191518Y-95633782D01*
X177380431Y-95501504D01*
X177543504Y-95338431D01*
X177675782Y-95149518D01*
X177773246Y-94940505D01*
X177832935Y-94717743D01*
X177853035Y-94488000D01*
X177852388Y-94480610D01*
X177843512Y-94379148D01*
X177832935Y-94258257D01*
X177778896Y-94056582D01*
X177773248Y-94035502D01*
X177773247Y-94035501D01*
X177773246Y-94035495D01*
X177675782Y-93826483D01*
X177573632Y-93680597D01*
X177543502Y-93637566D01*
X177380432Y-93474496D01*
X177191522Y-93342220D01*
X177191518Y-93342218D01*
X177165542Y-93330105D01*
X177113104Y-93283934D01*
X177093952Y-93216740D01*
X177114168Y-93149859D01*
X177165545Y-93105341D01*
X177191264Y-93093347D01*
X177268038Y-93039590D01*
X176697768Y-92469320D01*
X176815836Y-92418037D01*
X176932050Y-92323489D01*
X177018447Y-92201093D01*
X177049439Y-92113887D01*
X177621590Y-92686038D01*
X177675348Y-92609264D01*
X177772773Y-92400334D01*
X177772777Y-92400325D01*
X177832439Y-92177660D01*
X177832441Y-92177649D01*
X177852533Y-91948001D01*
X177852533Y-91947998D01*
X177832441Y-91718350D01*
X177832439Y-91718339D01*
X177772777Y-91495674D01*
X177772772Y-91495660D01*
X177740031Y-91425449D01*
X177729538Y-91356372D01*
X177758057Y-91292587D01*
X177816533Y-91254347D01*
X177886400Y-91253792D01*
X177940093Y-91285362D01*
X178271681Y-91616949D01*
X178305166Y-91678272D01*
X178308000Y-91704630D01*
X178308000Y-98649500D01*
X178288315Y-98716539D01*
X178235511Y-98762294D01*
X178184000Y-98773500D01*
X174453629Y-98773500D01*
X174386590Y-98753815D01*
X174340835Y-98701011D01*
X174330891Y-98631853D01*
X174359916Y-98568297D01*
X174388352Y-98544073D01*
X174462560Y-98498125D01*
X174462559Y-98498125D01*
X174462562Y-98498124D01*
X174626981Y-98348236D01*
X174761058Y-98170689D01*
X174860229Y-97971528D01*
X174921115Y-97757536D01*
X174941643Y-97536000D01*
X174921115Y-97314464D01*
X174860229Y-97100472D01*
X174846753Y-97073408D01*
X174761061Y-96901316D01*
X174761056Y-96901308D01*
X174626979Y-96723761D01*
X174462562Y-96573876D01*
X174462560Y-96573874D01*
X174273404Y-96456754D01*
X174273398Y-96456752D01*
X174272859Y-96456543D01*
X174065940Y-96376382D01*
X173847243Y-96335500D01*
X173624757Y-96335500D01*
X173406060Y-96376382D01*
X173314120Y-96412000D01*
X173198601Y-96456752D01*
X173198595Y-96456754D01*
X173101414Y-96516927D01*
X173036137Y-96535500D01*
X163017257Y-96535500D01*
X162865560Y-96550925D01*
X162671420Y-96611837D01*
X162671405Y-96611844D01*
X162493500Y-96710589D01*
X162493495Y-96710592D01*
X162339106Y-96843132D01*
X162339104Y-96843134D01*
X162214554Y-97004037D01*
X162214553Y-97004040D01*
X162124940Y-97186728D01*
X162073937Y-97383714D01*
X162063631Y-97586936D01*
X162094442Y-97788063D01*
X162094445Y-97788075D01*
X162165111Y-97978881D01*
X162165113Y-97978884D01*
X162165114Y-97978887D01*
X162193544Y-98024499D01*
X162272745Y-98151567D01*
X162272747Y-98151569D01*
X162272748Y-98151571D01*
X162412941Y-98299053D01*
X162541344Y-98388424D01*
X162579949Y-98415294D01*
X162579950Y-98415294D01*
X162579951Y-98415295D01*
X162766942Y-98495540D01*
X162857679Y-98514186D01*
X162925081Y-98528038D01*
X162986786Y-98560815D01*
X163020975Y-98621748D01*
X163016793Y-98691493D01*
X162975569Y-98747905D01*
X162910390Y-98773074D01*
X162900120Y-98773500D01*
X159988783Y-98773500D01*
X159921744Y-98753815D01*
X159875989Y-98701011D01*
X159866045Y-98631853D01*
X159895070Y-98568297D01*
X159901102Y-98561819D01*
X160191677Y-98271244D01*
X161226487Y-97236433D01*
X161291053Y-97175059D01*
X161326097Y-97124709D01*
X161328924Y-97120957D01*
X161367698Y-97073407D01*
X161383607Y-97042948D01*
X161387667Y-97036248D01*
X161407295Y-97008049D01*
X161431492Y-96951660D01*
X161433498Y-96947435D01*
X161461909Y-96893049D01*
X161471357Y-96860022D01*
X161473988Y-96852633D01*
X161487540Y-96821058D01*
X161499895Y-96760930D01*
X161500999Y-96756429D01*
X161517886Y-96697418D01*
X161520494Y-96663157D01*
X161521585Y-96655389D01*
X161528500Y-96621743D01*
X161528500Y-96560398D01*
X161528679Y-96555688D01*
X161529042Y-96550925D01*
X161533337Y-96494524D01*
X161528997Y-96460442D01*
X161528500Y-96452603D01*
X161528500Y-94699782D01*
X161548185Y-94632743D01*
X161564819Y-94612101D01*
X165224101Y-90952819D01*
X165285424Y-90919334D01*
X165311782Y-90916500D01*
X168897284Y-90916500D01*
X168986358Y-90918757D01*
X168986358Y-90918756D01*
X168986363Y-90918757D01*
X169046753Y-90907932D01*
X169051412Y-90907280D01*
X169093607Y-90902988D01*
X169112438Y-90901074D01*
X169145227Y-90890786D01*
X169152840Y-90888918D01*
X169186653Y-90882858D01*
X169243621Y-90860101D01*
X169248053Y-90858524D01*
X169254794Y-90856409D01*
X169306588Y-90840159D01*
X169336627Y-90823484D01*
X169343708Y-90820122D01*
X169375617Y-90807377D01*
X169426854Y-90773608D01*
X169430851Y-90771187D01*
X169484502Y-90741409D01*
X169510568Y-90719030D01*
X169516843Y-90714300D01*
X169545519Y-90695402D01*
X169588917Y-90652002D01*
X169592336Y-90648834D01*
X169638895Y-90608866D01*
X169659931Y-90581688D01*
X169665101Y-90575818D01*
X172447341Y-87793580D01*
X172543698Y-87675407D01*
X172637909Y-87495049D01*
X172693887Y-87299418D01*
X172709337Y-87096523D01*
X172700252Y-87025190D01*
X172683631Y-86894678D01*
X172683630Y-86894676D01*
X172683630Y-86894672D01*
X172617816Y-86702128D01*
X172563735Y-86610257D01*
X172514593Y-86526776D01*
X172514592Y-86526775D01*
X172514591Y-86526773D01*
X172378179Y-86375786D01*
X172378178Y-86375785D01*
X172378177Y-86375784D01*
X172214170Y-86255352D01*
X172214167Y-86255351D01*
X172029271Y-86170395D01*
X172029264Y-86170393D01*
X171831054Y-86124396D01*
X171627641Y-86119242D01*
X171427352Y-86155140D01*
X171427345Y-86155142D01*
X171238385Y-86230621D01*
X171238376Y-86230626D01*
X171068481Y-86342597D01*
X171068480Y-86342598D01*
X168531899Y-88879181D01*
X168470576Y-88912666D01*
X168444218Y-88915500D01*
X164858677Y-88915500D01*
X164769637Y-88913244D01*
X164769626Y-88913245D01*
X164709271Y-88924062D01*
X164704607Y-88924716D01*
X164643563Y-88930925D01*
X164643555Y-88930927D01*
X164610781Y-88941210D01*
X164603153Y-88943082D01*
X164569349Y-88949141D01*
X164512381Y-88971895D01*
X164507945Y-88973474D01*
X164449414Y-88991840D01*
X164449410Y-88991842D01*
X164419378Y-89008510D01*
X164412284Y-89011879D01*
X164380382Y-89024623D01*
X164380377Y-89024625D01*
X164329156Y-89058381D01*
X164325128Y-89060822D01*
X164271501Y-89090588D01*
X164245434Y-89112965D01*
X164239165Y-89117692D01*
X164210484Y-89136595D01*
X164210478Y-89136600D01*
X164167109Y-89179968D01*
X164163655Y-89183169D01*
X164117102Y-89223136D01*
X164096076Y-89250298D01*
X164090885Y-89256192D01*
X159829532Y-93517546D01*
X159764946Y-93578942D01*
X159729899Y-93629294D01*
X159727062Y-93633056D01*
X159688302Y-93680592D01*
X159688299Y-93680597D01*
X159672392Y-93711047D01*
X159668324Y-93717761D01*
X159648702Y-93745954D01*
X159624509Y-93802330D01*
X159622488Y-93806584D01*
X159594091Y-93860951D01*
X159594090Y-93860952D01*
X159584640Y-93893975D01*
X159582007Y-93901371D01*
X159568459Y-93932943D01*
X159556113Y-93993019D01*
X159554990Y-93997595D01*
X159538113Y-94056577D01*
X159538113Y-94056579D01*
X159535503Y-94090841D01*
X159534414Y-94098608D01*
X159528980Y-94125052D01*
X159527500Y-94132258D01*
X159527500Y-94193597D01*
X159527321Y-94198306D01*
X159522662Y-94259474D01*
X159524707Y-94275527D01*
X159527003Y-94293560D01*
X159527500Y-94301388D01*
X159527500Y-96054217D01*
X159507815Y-96121256D01*
X159491181Y-96141898D01*
X158415899Y-97217181D01*
X158354576Y-97250666D01*
X158328218Y-97253500D01*
X157838137Y-97253500D01*
X157771098Y-97233815D01*
X157725343Y-97181011D01*
X157715399Y-97111853D01*
X157718362Y-97097407D01*
X157735463Y-97033583D01*
X157749635Y-96980692D01*
X157769468Y-96754000D01*
X157766822Y-96723761D01*
X157757031Y-96611844D01*
X157749635Y-96527308D01*
X157699350Y-96339641D01*
X157690741Y-96307511D01*
X157690738Y-96307502D01*
X157594568Y-96101266D01*
X157464047Y-95914861D01*
X157464045Y-95914858D01*
X157303141Y-95753954D01*
X157116734Y-95623432D01*
X157116730Y-95623430D01*
X157101022Y-95616105D01*
X157048583Y-95569931D01*
X157029433Y-95502737D01*
X157049650Y-95435857D01*
X157101028Y-95391340D01*
X157116481Y-95384134D01*
X157189472Y-95333025D01*
X156508401Y-94651953D01*
X156589148Y-94639165D01*
X156702045Y-94581641D01*
X156791641Y-94492045D01*
X156849165Y-94379148D01*
X156861953Y-94298400D01*
X157543025Y-94979472D01*
X157594136Y-94906478D01*
X157690264Y-94700331D01*
X157690269Y-94700317D01*
X157749139Y-94480610D01*
X157749141Y-94480599D01*
X157768966Y-94254002D01*
X157768966Y-94253997D01*
X157749141Y-94027400D01*
X157749139Y-94027389D01*
X157690269Y-93807682D01*
X157690265Y-93807673D01*
X157594133Y-93601516D01*
X157594131Y-93601512D01*
X157543026Y-93528526D01*
X157543025Y-93528526D01*
X156861953Y-94209598D01*
X156849165Y-94128852D01*
X156791641Y-94015955D01*
X156702045Y-93926359D01*
X156589148Y-93868835D01*
X156508400Y-93856046D01*
X157189472Y-93174974D01*
X157189471Y-93174973D01*
X157116483Y-93123866D01*
X157116481Y-93123865D01*
X156910326Y-93027734D01*
X156910317Y-93027730D01*
X156690610Y-92968860D01*
X156690599Y-92968858D01*
X156464002Y-92949034D01*
X156463998Y-92949034D01*
X156237400Y-92968858D01*
X156237389Y-92968860D01*
X156017682Y-93027730D01*
X156017673Y-93027734D01*
X155811513Y-93123868D01*
X155738527Y-93174972D01*
X155738526Y-93174973D01*
X156419600Y-93856046D01*
X156338852Y-93868835D01*
X156225955Y-93926359D01*
X156136359Y-94015955D01*
X156078835Y-94128852D01*
X156066046Y-94209599D01*
X155384973Y-93528526D01*
X155384972Y-93528527D01*
X155333868Y-93601513D01*
X155237734Y-93807673D01*
X155237730Y-93807682D01*
X155178860Y-94027389D01*
X155178858Y-94027400D01*
X155159034Y-94253997D01*
X155159034Y-94254002D01*
X155178858Y-94480599D01*
X155178860Y-94480610D01*
X155237730Y-94700317D01*
X155237734Y-94700326D01*
X155333865Y-94906481D01*
X155333866Y-94906483D01*
X155384973Y-94979471D01*
X155384974Y-94979472D01*
X156066046Y-94298399D01*
X156078835Y-94379148D01*
X156136359Y-94492045D01*
X156225955Y-94581641D01*
X156338852Y-94639165D01*
X156419599Y-94651953D01*
X155738526Y-95333025D01*
X155738526Y-95333026D01*
X155811512Y-95384131D01*
X155811515Y-95384132D01*
X155826974Y-95391341D01*
X155879414Y-95437513D01*
X155898567Y-95504706D01*
X155878352Y-95571587D01*
X155826978Y-95616105D01*
X155811269Y-95623430D01*
X155811265Y-95623432D01*
X155624858Y-95753954D01*
X155463954Y-95914858D01*
X155333432Y-96101265D01*
X155333431Y-96101267D01*
X155237261Y-96307502D01*
X155237258Y-96307511D01*
X155178366Y-96527302D01*
X155178364Y-96527313D01*
X155158532Y-96753998D01*
X155158532Y-96754001D01*
X155178364Y-96980686D01*
X155178366Y-96980697D01*
X155209638Y-97097407D01*
X155207975Y-97167257D01*
X155168812Y-97225119D01*
X155104583Y-97252623D01*
X155089863Y-97253500D01*
X149083236Y-97253500D01*
X149016197Y-97233815D01*
X148970442Y-97181011D01*
X148960498Y-97111853D01*
X148989523Y-97048297D01*
X149003876Y-97035352D01*
X149004031Y-97033584D01*
X148380401Y-96409953D01*
X148461148Y-96397165D01*
X148574045Y-96339641D01*
X148663641Y-96250045D01*
X148721165Y-96137148D01*
X148733953Y-96056400D01*
X149357584Y-96680031D01*
X149396582Y-96624336D01*
X149396586Y-96624330D01*
X149486802Y-96430859D01*
X149486805Y-96430853D01*
X149542054Y-96224662D01*
X149542055Y-96224654D01*
X149560660Y-96012002D01*
X149560660Y-96011997D01*
X149542055Y-95799345D01*
X149542054Y-95799337D01*
X149486805Y-95593146D01*
X149486802Y-95593140D01*
X149396586Y-95399669D01*
X149396583Y-95399663D01*
X149344739Y-95325624D01*
X149322411Y-95259418D01*
X149339421Y-95191651D01*
X149390368Y-95143838D01*
X149446313Y-95130500D01*
X150051933Y-95130500D01*
X150082965Y-95130500D01*
X150176221Y-95134357D01*
X150203347Y-95130975D01*
X150211019Y-95130500D01*
X151337933Y-95130500D01*
X152241933Y-95130500D01*
X152272974Y-95130500D01*
X152366221Y-95134357D01*
X152382914Y-95132276D01*
X152393342Y-95130977D01*
X152401018Y-95130500D01*
X153462065Y-95130500D01*
X153462067Y-95130500D01*
X153539533Y-95124081D01*
X153647813Y-95115109D01*
X153647816Y-95115108D01*
X153647821Y-95115108D01*
X153888881Y-95054063D01*
X154116607Y-94954173D01*
X154324785Y-94818164D01*
X154507738Y-94649744D01*
X154660474Y-94453509D01*
X154778828Y-94234810D01*
X154859571Y-93999614D01*
X154900500Y-93754335D01*
X154900500Y-93505665D01*
X154859571Y-93260386D01*
X154778828Y-93025190D01*
X154757981Y-92986669D01*
X154660475Y-92806493D01*
X154660474Y-92806491D01*
X154507738Y-92610256D01*
X154324785Y-92441836D01*
X154324782Y-92441833D01*
X154116606Y-92305826D01*
X154011473Y-92259711D01*
X153939509Y-92228144D01*
X153886025Y-92183190D01*
X153869116Y-92145029D01*
X153864619Y-92127271D01*
X153862196Y-92117700D01*
X153853122Y-92074425D01*
X153843049Y-92026386D01*
X153833116Y-92000932D01*
X153830771Y-91993609D01*
X153824064Y-91967123D01*
X153824063Y-91967119D01*
X153813390Y-91942787D01*
X153786574Y-91881651D01*
X153752655Y-91794727D01*
X153752655Y-91794726D01*
X153738664Y-91771245D01*
X153735147Y-91764411D01*
X153729734Y-91752072D01*
X153724173Y-91739393D01*
X153711515Y-91720019D01*
X153691903Y-91690000D01*
X155033505Y-91690000D01*
X155086239Y-91875349D01*
X155185368Y-92074425D01*
X155319391Y-92251900D01*
X155483738Y-92401721D01*
X155672820Y-92518797D01*
X155672822Y-92518798D01*
X155880195Y-92599135D01*
X155960000Y-92614052D01*
X155960000Y-91690000D01*
X155033505Y-91690000D01*
X153691903Y-91690000D01*
X153673134Y-91661272D01*
X153651718Y-91625331D01*
X153625366Y-91581106D01*
X153607702Y-91560250D01*
X153603106Y-91554086D01*
X153588166Y-91531218D01*
X153588165Y-91531217D01*
X153588164Y-91531215D01*
X153531169Y-91469302D01*
X155856372Y-91469302D01*
X155885047Y-91582538D01*
X155948936Y-91680327D01*
X156041115Y-91752072D01*
X156151595Y-91790000D01*
X156239005Y-91790000D01*
X156325216Y-91775614D01*
X156427947Y-91720019D01*
X156455581Y-91690000D01*
X156460000Y-91690000D01*
X156460000Y-92614052D01*
X156539804Y-92599135D01*
X156747177Y-92518798D01*
X156747179Y-92518797D01*
X156936261Y-92401721D01*
X157100608Y-92251900D01*
X157234631Y-92074425D01*
X157333760Y-91875349D01*
X157386495Y-91690000D01*
X156460000Y-91690000D01*
X156455581Y-91690000D01*
X156507060Y-91634079D01*
X156553982Y-91527108D01*
X156563628Y-91410698D01*
X156534953Y-91297462D01*
X156471064Y-91199673D01*
X156378885Y-91127928D01*
X156268405Y-91090000D01*
X156180995Y-91090000D01*
X156094784Y-91104386D01*
X155992053Y-91159981D01*
X155912940Y-91245921D01*
X155866018Y-91352892D01*
X155856372Y-91469302D01*
X153531169Y-91469302D01*
X153524955Y-91462552D01*
X153518982Y-91455500D01*
X153504899Y-91438871D01*
X153482961Y-91416933D01*
X153419747Y-91348265D01*
X153419739Y-91348258D01*
X153398177Y-91331476D01*
X153392419Y-91326392D01*
X153256027Y-91190000D01*
X155033505Y-91190000D01*
X155960000Y-91190000D01*
X155960000Y-90265946D01*
X156460000Y-90265946D01*
X156460000Y-91190000D01*
X157386495Y-91190000D01*
X157333760Y-91004650D01*
X157234631Y-90805574D01*
X157100608Y-90628099D01*
X156936261Y-90478278D01*
X156747179Y-90361202D01*
X156747177Y-90361201D01*
X156539799Y-90280864D01*
X156460000Y-90265946D01*
X155960000Y-90265946D01*
X155880200Y-90280864D01*
X155672822Y-90361201D01*
X155672820Y-90361202D01*
X155483738Y-90478278D01*
X155319391Y-90628099D01*
X155185368Y-90805574D01*
X155086239Y-91004650D01*
X155033505Y-91190000D01*
X153256027Y-91190000D01*
X151408208Y-89342181D01*
X151374723Y-89280858D01*
X151379707Y-89211166D01*
X151421579Y-89155233D01*
X151487043Y-89130816D01*
X151495889Y-89130500D01*
X153462065Y-89130500D01*
X153462067Y-89130500D01*
X153523284Y-89125427D01*
X153647813Y-89115109D01*
X153647816Y-89115108D01*
X153647821Y-89115108D01*
X153888881Y-89054063D01*
X154116607Y-88954173D01*
X154324785Y-88818164D01*
X154507738Y-88649744D01*
X154660474Y-88453509D01*
X154778828Y-88234810D01*
X154859571Y-87999614D01*
X154900500Y-87754335D01*
X154900500Y-87505665D01*
X154859571Y-87260386D01*
X154778828Y-87025190D01*
X154735525Y-86945174D01*
X154660475Y-86806493D01*
X154660474Y-86806491D01*
X154507738Y-86610256D01*
X154347226Y-86462494D01*
X154324782Y-86441833D01*
X154199526Y-86360000D01*
X155004357Y-86360000D01*
X155024884Y-86581535D01*
X155024885Y-86581537D01*
X155085769Y-86795523D01*
X155085775Y-86795538D01*
X155184938Y-86994683D01*
X155184943Y-86994691D01*
X155319020Y-87172238D01*
X155483437Y-87322123D01*
X155483439Y-87322125D01*
X155672595Y-87439245D01*
X155672596Y-87439245D01*
X155672599Y-87439247D01*
X155880060Y-87519618D01*
X156098757Y-87560500D01*
X156098759Y-87560500D01*
X156321241Y-87560500D01*
X156321243Y-87560500D01*
X156539940Y-87519618D01*
X156747401Y-87439247D01*
X156936562Y-87322124D01*
X157100981Y-87172236D01*
X157235058Y-86994689D01*
X157334229Y-86795528D01*
X157395115Y-86581536D01*
X157415643Y-86360000D01*
X157414030Y-86342598D01*
X157395115Y-86138464D01*
X157395114Y-86138462D01*
X157392564Y-86129500D01*
X157334229Y-85924472D01*
X157334224Y-85924461D01*
X157235061Y-85725316D01*
X157235056Y-85725308D01*
X157100979Y-85547761D01*
X156936562Y-85397876D01*
X156936560Y-85397874D01*
X156747404Y-85280754D01*
X156747398Y-85280752D01*
X156539940Y-85200382D01*
X156321243Y-85159500D01*
X156098757Y-85159500D01*
X155880060Y-85200382D01*
X155771261Y-85242531D01*
X155672601Y-85280752D01*
X155672595Y-85280754D01*
X155483439Y-85397874D01*
X155483437Y-85397876D01*
X155319020Y-85547761D01*
X155184943Y-85725308D01*
X155184938Y-85725316D01*
X155085775Y-85924461D01*
X155085769Y-85924476D01*
X155024885Y-86138462D01*
X155024884Y-86138464D01*
X155004357Y-86359999D01*
X155004357Y-86360000D01*
X154199526Y-86360000D01*
X154116606Y-86305826D01*
X153888881Y-86205936D01*
X153647824Y-86144892D01*
X153647813Y-86144890D01*
X153482548Y-86131197D01*
X153462067Y-86129500D01*
X151337933Y-86129500D01*
X151318521Y-86131108D01*
X151152186Y-86144890D01*
X151152175Y-86144892D01*
X150911118Y-86205936D01*
X150683393Y-86305826D01*
X150475217Y-86441833D01*
X150298483Y-86604529D01*
X150235828Y-86635451D01*
X150166402Y-86627591D01*
X150112247Y-86583444D01*
X150090556Y-86517026D01*
X150090500Y-86513299D01*
X150090500Y-83753889D01*
X150110185Y-83686850D01*
X150126815Y-83666212D01*
X150768939Y-83024087D01*
X150830260Y-82990604D01*
X150844017Y-82988412D01*
X150906797Y-82981999D01*
X151073334Y-82926814D01*
X151222656Y-82834712D01*
X151346712Y-82710656D01*
X151438814Y-82561334D01*
X151438814Y-82561333D01*
X151442448Y-82555442D01*
X151494396Y-82508717D01*
X151563358Y-82497494D01*
X151627441Y-82525337D01*
X151635668Y-82532856D01*
X151782921Y-82680108D01*
X151976421Y-82815600D01*
X152190507Y-82915429D01*
X152190516Y-82915433D01*
X152404000Y-82972634D01*
X152404000Y-81925018D01*
X152518801Y-81977446D01*
X152620025Y-81992000D01*
X152687975Y-81992000D01*
X152789199Y-81977446D01*
X152904000Y-81925018D01*
X152904000Y-82972633D01*
X153117483Y-82915433D01*
X153117492Y-82915429D01*
X153331577Y-82815600D01*
X153331579Y-82815599D01*
X153525073Y-82680113D01*
X153525079Y-82680108D01*
X153692108Y-82513079D01*
X153692113Y-82513073D01*
X153802119Y-82355967D01*
X153856695Y-82312342D01*
X153926194Y-82305148D01*
X153988549Y-82336670D01*
X154005269Y-82355967D01*
X154115505Y-82513402D01*
X154243319Y-82641215D01*
X154282599Y-82680495D01*
X154379384Y-82748265D01*
X154476165Y-82816032D01*
X154476167Y-82816033D01*
X154476170Y-82816035D01*
X154690337Y-82915903D01*
X154918592Y-82977063D01*
X155106918Y-82993539D01*
X155153999Y-82997659D01*
X155154000Y-82997659D01*
X155154001Y-82997659D01*
X155193234Y-82994226D01*
X155389408Y-82977063D01*
X155617663Y-82915903D01*
X155831829Y-82816035D01*
X156025401Y-82680495D01*
X156192495Y-82513401D01*
X156328035Y-82319829D01*
X156427903Y-82105663D01*
X156489063Y-81877408D01*
X156504500Y-81700966D01*
X156504500Y-81333034D01*
X156489063Y-81156592D01*
X156427903Y-80928337D01*
X156328035Y-80714171D01*
X156302731Y-80678032D01*
X156192494Y-80520597D01*
X156025402Y-80353506D01*
X156025395Y-80353501D01*
X155831834Y-80217967D01*
X155831830Y-80217965D01*
X155791777Y-80199288D01*
X155617663Y-80118097D01*
X155617659Y-80118096D01*
X155617655Y-80118094D01*
X155389413Y-80056938D01*
X155389403Y-80056936D01*
X155154001Y-80036341D01*
X155153999Y-80036341D01*
X154918596Y-80056936D01*
X154918586Y-80056938D01*
X154690344Y-80118094D01*
X154690335Y-80118098D01*
X154476171Y-80217964D01*
X154476169Y-80217965D01*
X154282597Y-80353505D01*
X154115508Y-80520594D01*
X154005269Y-80678032D01*
X153950692Y-80721656D01*
X153881193Y-80728849D01*
X153818839Y-80697327D01*
X153802119Y-80678031D01*
X153692113Y-80520926D01*
X153692108Y-80520920D01*
X153525082Y-80353894D01*
X153331578Y-80218399D01*
X153117492Y-80118570D01*
X153117486Y-80118567D01*
X152904000Y-80061364D01*
X152904000Y-81108981D01*
X152789199Y-81056554D01*
X152687975Y-81042000D01*
X152620025Y-81042000D01*
X152518801Y-81056554D01*
X152404000Y-81108981D01*
X152404000Y-80061364D01*
X152403999Y-80061364D01*
X152190513Y-80118567D01*
X152190507Y-80118570D01*
X151976422Y-80218399D01*
X151976420Y-80218400D01*
X151782926Y-80353886D01*
X151635668Y-80501144D01*
X151574345Y-80534628D01*
X151504653Y-80529644D01*
X151448720Y-80487772D01*
X151442448Y-80478558D01*
X151424833Y-80450000D01*
X151346712Y-80323344D01*
X151222656Y-80199288D01*
X151091786Y-80118567D01*
X151073336Y-80107187D01*
X151073331Y-80107185D01*
X151030333Y-80092937D01*
X150906797Y-80052001D01*
X150906795Y-80052000D01*
X150804016Y-80041500D01*
X150804009Y-80041500D01*
X150451555Y-80041500D01*
X150443876Y-80041019D01*
X150440039Y-80040541D01*
X150435776Y-80040006D01*
X150428276Y-80038591D01*
X150401818Y-80031891D01*
X150401821Y-80031891D01*
X150308831Y-80024186D01*
X150298658Y-80022918D01*
X150216221Y-80012643D01*
X150216220Y-80012643D01*
X150216219Y-80012643D01*
X150122965Y-80016500D01*
X148196019Y-80016500D01*
X148188347Y-80016024D01*
X148161221Y-80012643D01*
X148161219Y-80012643D01*
X148067965Y-80016500D01*
X148036933Y-80016500D01*
X148006009Y-80019062D01*
X147912765Y-80022918D01*
X147912751Y-80022920D01*
X147886017Y-80028526D01*
X147878409Y-80029635D01*
X147851185Y-80031890D01*
X147851175Y-80031892D01*
X147779681Y-80049997D01*
X147760725Y-80054797D01*
X147750520Y-80056937D01*
X147669390Y-80073948D01*
X147669375Y-80073953D01*
X147643920Y-80083886D01*
X147636599Y-80086231D01*
X147610119Y-80092937D01*
X147610113Y-80092939D01*
X147524667Y-80130419D01*
X147437723Y-80164345D01*
X147414247Y-80178333D01*
X147407413Y-80181851D01*
X147382390Y-80192828D01*
X147304273Y-80243864D01*
X147224103Y-80291635D01*
X147203250Y-80309297D01*
X147197087Y-80313892D01*
X147174215Y-80328835D01*
X147174212Y-80328838D01*
X147105552Y-80392044D01*
X147081870Y-80412102D01*
X147059934Y-80434038D01*
X147059933Y-80434039D01*
X147017974Y-80472666D01*
X146991261Y-80497257D01*
X146991256Y-80497262D01*
X146974472Y-80518826D01*
X146969382Y-80524589D01*
X146327588Y-81166382D01*
X146321827Y-81171471D01*
X146300256Y-81188262D01*
X146237048Y-81256923D01*
X146218217Y-81275754D01*
X145057588Y-82436382D01*
X145051827Y-82441471D01*
X145030256Y-82458262D01*
X144967049Y-82526922D01*
X144945102Y-82548869D01*
X144945098Y-82548874D01*
X144925033Y-82572564D01*
X144894641Y-82605578D01*
X144861834Y-82641216D01*
X144846892Y-82664087D01*
X144842297Y-82670250D01*
X144824635Y-82691104D01*
X144776860Y-82771278D01*
X144725828Y-82849390D01*
X144725824Y-82849397D01*
X144714853Y-82874409D01*
X144711335Y-82881244D01*
X144697348Y-82904717D01*
X144697343Y-82904726D01*
X144663420Y-82991663D01*
X144625935Y-83077123D01*
X144619226Y-83103616D01*
X144616881Y-83110935D01*
X144606953Y-83136379D01*
X144606948Y-83136395D01*
X144587801Y-83227711D01*
X144564892Y-83318175D01*
X144564890Y-83318185D01*
X144562635Y-83345408D01*
X144561526Y-83353016D01*
X144555920Y-83379750D01*
X144555919Y-83379763D01*
X144552062Y-83473009D01*
X144549500Y-83503936D01*
X144549500Y-83534964D01*
X144545642Y-83628219D01*
X144545642Y-83628220D01*
X144549023Y-83655342D01*
X144549500Y-83663018D01*
X144549500Y-84177481D01*
X144529815Y-84244520D01*
X144477011Y-84290275D01*
X144407853Y-84300219D01*
X144354378Y-84279057D01*
X144312828Y-84249964D01*
X144205746Y-84200031D01*
X144098663Y-84150097D01*
X144098659Y-84150096D01*
X144098655Y-84150094D01*
X143870413Y-84088938D01*
X143870403Y-84088936D01*
X143693966Y-84073500D01*
X143326034Y-84073500D01*
X143149596Y-84088936D01*
X143149586Y-84088938D01*
X142921344Y-84150094D01*
X142921335Y-84150098D01*
X142707171Y-84249964D01*
X142707169Y-84249965D01*
X142513597Y-84385505D01*
X142346506Y-84552597D01*
X142346501Y-84552604D01*
X142210967Y-84746165D01*
X142210965Y-84746169D01*
X142111098Y-84960335D01*
X142111094Y-84960344D01*
X142049938Y-85188586D01*
X142049936Y-85188596D01*
X142029341Y-85423999D01*
X142029341Y-85424000D01*
X142049936Y-85659403D01*
X142049938Y-85659413D01*
X142111094Y-85887655D01*
X142111096Y-85887659D01*
X142111097Y-85887663D01*
X142136278Y-85941663D01*
X142210964Y-86101828D01*
X142210965Y-86101830D01*
X142346505Y-86295402D01*
X142513597Y-86462494D01*
X142671031Y-86572730D01*
X142714656Y-86627307D01*
X142721850Y-86696805D01*
X142690327Y-86759160D01*
X142671032Y-86775880D01*
X142513922Y-86885890D01*
X142513920Y-86885891D01*
X142346894Y-87052917D01*
X142211399Y-87246421D01*
X142111570Y-87460507D01*
X142111567Y-87460513D01*
X142054364Y-87673999D01*
X142054364Y-87674000D01*
X143106031Y-87674000D01*
X143073481Y-87724649D01*
X143035000Y-87855705D01*
X143035000Y-87992295D01*
X143073481Y-88123351D01*
X143106031Y-88174000D01*
X142054364Y-88174000D01*
X142111567Y-88387486D01*
X142111570Y-88387492D01*
X142211399Y-88601577D01*
X142211400Y-88601579D01*
X142346886Y-88795073D01*
X142494143Y-88942331D01*
X142527627Y-89003654D01*
X142522643Y-89073346D01*
X142480771Y-89129279D01*
X142471558Y-89135550D01*
X142316347Y-89231285D01*
X142316343Y-89231288D01*
X142192289Y-89355342D01*
X142100187Y-89504663D01*
X142100186Y-89504666D01*
X142045001Y-89671203D01*
X142045001Y-89671204D01*
X142045000Y-89671204D01*
X142034500Y-89773983D01*
X142034500Y-90126434D01*
X142034019Y-90134118D01*
X142033639Y-90137172D01*
X142033010Y-90142196D01*
X142031593Y-90149714D01*
X142024891Y-90176178D01*
X142024891Y-90176179D01*
X142019961Y-90235681D01*
X142019327Y-90240765D01*
X142009500Y-90299662D01*
X142009500Y-90326981D01*
X142009024Y-90334656D01*
X142005643Y-90361779D01*
X142009500Y-90455035D01*
X142009500Y-92358981D01*
X142009024Y-92366651D01*
X142005643Y-92393779D01*
X142009500Y-92487035D01*
X142009500Y-92518067D01*
X142009561Y-92518798D01*
X142012062Y-92548990D01*
X142015918Y-92642233D01*
X142021526Y-92668983D01*
X142022635Y-92676590D01*
X142024891Y-92703818D01*
X142024891Y-92703819D01*
X142024892Y-92703821D01*
X142047801Y-92794288D01*
X142066951Y-92885614D01*
X142066952Y-92885616D01*
X142076882Y-92911067D01*
X142079227Y-92918387D01*
X142081341Y-92926735D01*
X142085937Y-92944881D01*
X142121162Y-93025188D01*
X142123420Y-93030335D01*
X142157344Y-93117275D01*
X142171332Y-93140750D01*
X142174852Y-93147588D01*
X142185825Y-93172604D01*
X142185827Y-93172607D01*
X142236860Y-93250720D01*
X142284634Y-93330894D01*
X142302296Y-93351747D01*
X142306887Y-93357904D01*
X142321836Y-93380785D01*
X142321837Y-93380786D01*
X142385033Y-93449435D01*
X142405100Y-93473129D01*
X142427049Y-93495078D01*
X142490257Y-93563739D01*
X142511822Y-93580524D01*
X142517587Y-93585615D01*
X143522281Y-94590309D01*
X143555766Y-94651632D01*
X143550782Y-94721324D01*
X143508910Y-94777257D01*
X143443446Y-94801674D01*
X143423793Y-94801518D01*
X143256002Y-94786838D01*
X143255998Y-94786838D01*
X143043258Y-94805450D01*
X143043247Y-94805452D01*
X142836977Y-94860721D01*
X142836968Y-94860725D01*
X142643421Y-94950977D01*
X142468478Y-95073472D01*
X142317472Y-95224478D01*
X142194977Y-95399421D01*
X142104725Y-95592968D01*
X142104721Y-95592977D01*
X142049452Y-95799247D01*
X142049450Y-95799258D01*
X142030838Y-96011998D01*
X142030838Y-96012001D01*
X142049450Y-96224741D01*
X142049452Y-96224752D01*
X142104721Y-96431022D01*
X142104723Y-96431026D01*
X142104724Y-96431030D01*
X142144779Y-96516927D01*
X142194977Y-96624578D01*
X142317472Y-96799521D01*
X142468478Y-96950527D01*
X142468481Y-96950529D01*
X142643419Y-97073021D01*
X142643421Y-97073022D01*
X142643420Y-97073022D01*
X142702264Y-97100461D01*
X142836970Y-97163276D01*
X142836976Y-97163277D01*
X142836977Y-97163278D01*
X143017136Y-97211551D01*
X143072724Y-97243645D01*
X143813386Y-97984307D01*
X144390899Y-98561819D01*
X144424384Y-98623142D01*
X144419400Y-98692834D01*
X144377528Y-98748767D01*
X144312064Y-98773184D01*
X144303218Y-98773500D01*
X126616000Y-98773500D01*
X126548961Y-98753815D01*
X126503206Y-98701011D01*
X126492000Y-98649500D01*
X126492000Y-97416015D01*
X128451500Y-97416015D01*
X128462000Y-97518795D01*
X128462001Y-97518796D01*
X128517186Y-97685335D01*
X128517187Y-97685337D01*
X128609286Y-97834651D01*
X128609289Y-97834655D01*
X128733344Y-97958710D01*
X128733348Y-97958713D01*
X128882662Y-98050812D01*
X128882664Y-98050813D01*
X128882666Y-98050814D01*
X129049203Y-98105999D01*
X129151992Y-98116500D01*
X129151997Y-98116500D01*
X131452003Y-98116500D01*
X131452008Y-98116500D01*
X131554797Y-98105999D01*
X131721334Y-98050814D01*
X131870655Y-97958711D01*
X131994711Y-97834655D01*
X132086814Y-97685334D01*
X132141999Y-97518797D01*
X132152500Y-97416008D01*
X132152500Y-96830330D01*
X136067710Y-96830330D01*
X136097925Y-97053387D01*
X136097926Y-97053390D01*
X136167483Y-97267465D01*
X136274146Y-97465678D01*
X136274148Y-97465681D01*
X136414489Y-97641663D01*
X136414491Y-97641664D01*
X136414492Y-97641666D01*
X136584004Y-97789765D01*
X136777236Y-97905215D01*
X136973537Y-97978888D01*
X136987976Y-97984307D01*
X137209450Y-98024500D01*
X137209453Y-98024500D01*
X138578148Y-98024500D01*
X138578155Y-98024500D01*
X138746188Y-98009377D01*
X138746192Y-98009376D01*
X138963160Y-97949496D01*
X138963162Y-97949495D01*
X138963170Y-97949493D01*
X139165973Y-97851829D01*
X139348078Y-97719522D01*
X139503632Y-97556825D01*
X139627635Y-97368968D01*
X139684284Y-97236433D01*
X139716100Y-97161995D01*
X139716099Y-97161995D01*
X139716103Y-97161988D01*
X139766191Y-96942537D01*
X139776290Y-96717670D01*
X139746075Y-96494613D01*
X139676517Y-96280536D01*
X139569852Y-96082319D01*
X139497167Y-95991175D01*
X139429510Y-95906336D01*
X139401905Y-95882218D01*
X139259996Y-95758235D01*
X139066764Y-95642785D01*
X138947331Y-95597961D01*
X138856023Y-95563692D01*
X138634550Y-95523500D01*
X138634547Y-95523500D01*
X137265845Y-95523500D01*
X137227399Y-95526960D01*
X137097813Y-95538622D01*
X137097807Y-95538623D01*
X136880839Y-95598503D01*
X136880826Y-95598508D01*
X136678033Y-95696167D01*
X136678025Y-95696171D01*
X136495927Y-95828473D01*
X136495925Y-95828474D01*
X136340366Y-95991176D01*
X136216363Y-96179033D01*
X136127899Y-96386004D01*
X136127895Y-96386017D01*
X136077810Y-96605457D01*
X136077808Y-96605468D01*
X136068126Y-96821058D01*
X136067710Y-96830330D01*
X132152500Y-96830330D01*
X132152500Y-95115992D01*
X132141999Y-95013203D01*
X132086814Y-94846666D01*
X132061391Y-94805450D01*
X131994713Y-94697348D01*
X131994710Y-94697344D01*
X131870655Y-94573289D01*
X131870651Y-94573286D01*
X131721337Y-94481187D01*
X131721335Y-94481186D01*
X131637801Y-94453506D01*
X131554797Y-94426001D01*
X131554795Y-94426000D01*
X131452015Y-94415500D01*
X131452008Y-94415500D01*
X129151992Y-94415500D01*
X129151984Y-94415500D01*
X129049204Y-94426000D01*
X129049203Y-94426001D01*
X128882664Y-94481186D01*
X128882662Y-94481187D01*
X128733348Y-94573286D01*
X128733344Y-94573289D01*
X128609289Y-94697344D01*
X128609286Y-94697348D01*
X128517187Y-94846662D01*
X128517186Y-94846664D01*
X128462001Y-95013203D01*
X128462000Y-95013204D01*
X128451500Y-95115984D01*
X128451500Y-97416015D01*
X126492000Y-97416015D01*
X126492000Y-92306001D01*
X128447274Y-92306001D01*
X128466152Y-92569960D01*
X128522400Y-92828528D01*
X128614884Y-93076487D01*
X128741701Y-93308735D01*
X128741706Y-93308743D01*
X128829038Y-93425406D01*
X128829039Y-93425406D01*
X129550766Y-92703679D01*
X129594316Y-92785822D01*
X129714009Y-92926735D01*
X129861195Y-93038623D01*
X129903402Y-93058150D01*
X129182592Y-93778959D01*
X129182593Y-93778960D01*
X129299256Y-93866293D01*
X129299264Y-93866298D01*
X129531513Y-93993115D01*
X129531512Y-93993115D01*
X129779471Y-94085599D01*
X130038039Y-94141847D01*
X130301999Y-94160726D01*
X130302001Y-94160726D01*
X130565960Y-94141847D01*
X130824528Y-94085599D01*
X131072487Y-93993115D01*
X131304735Y-93866298D01*
X131304736Y-93866297D01*
X131421406Y-93778959D01*
X130700609Y-93058161D01*
X130819431Y-92986669D01*
X130953658Y-92859523D01*
X131056861Y-92707308D01*
X131774959Y-93425406D01*
X131862297Y-93308736D01*
X131862298Y-93308735D01*
X131959714Y-93130330D01*
X136067710Y-93130330D01*
X136097925Y-93353387D01*
X136097926Y-93353390D01*
X136167483Y-93567465D01*
X136274146Y-93765678D01*
X136274148Y-93765681D01*
X136414489Y-93941663D01*
X136414491Y-93941664D01*
X136414492Y-93941666D01*
X136584004Y-94089765D01*
X136777236Y-94205215D01*
X136987976Y-94284307D01*
X137209450Y-94324500D01*
X137209453Y-94324500D01*
X138578148Y-94324500D01*
X138578155Y-94324500D01*
X138746188Y-94309377D01*
X138746192Y-94309376D01*
X138963160Y-94249496D01*
X138963162Y-94249495D01*
X138963170Y-94249493D01*
X139165973Y-94151829D01*
X139348078Y-94019522D01*
X139503632Y-93856825D01*
X139627635Y-93668968D01*
X139643104Y-93632778D01*
X139716100Y-93461995D01*
X139716099Y-93461995D01*
X139716103Y-93461988D01*
X139766191Y-93242537D01*
X139776290Y-93017670D01*
X139746075Y-92794613D01*
X139676517Y-92580536D01*
X139569852Y-92382319D01*
X139429508Y-92206334D01*
X139259996Y-92058235D01*
X139066764Y-91942785D01*
X138948775Y-91898503D01*
X138856023Y-91863692D01*
X138634550Y-91823500D01*
X138634547Y-91823500D01*
X137265845Y-91823500D01*
X137236090Y-91826178D01*
X137097813Y-91838622D01*
X137097807Y-91838623D01*
X136880839Y-91898503D01*
X136880826Y-91898508D01*
X136678033Y-91996167D01*
X136678025Y-91996171D01*
X136495927Y-92128473D01*
X136495925Y-92128474D01*
X136340366Y-92291176D01*
X136216363Y-92479033D01*
X136127899Y-92686004D01*
X136127895Y-92686017D01*
X136077810Y-92905457D01*
X136077808Y-92905468D01*
X136071785Y-93039590D01*
X136067710Y-93130330D01*
X131959714Y-93130330D01*
X131989115Y-93076487D01*
X132081599Y-92828528D01*
X132137847Y-92569960D01*
X132156726Y-92306001D01*
X132156726Y-92305998D01*
X132137847Y-92042039D01*
X132081599Y-91783471D01*
X131989115Y-91535512D01*
X131862298Y-91303264D01*
X131862293Y-91303256D01*
X131774960Y-91186593D01*
X131774959Y-91186592D01*
X131053232Y-91908319D01*
X131009684Y-91826178D01*
X130889991Y-91685265D01*
X130742805Y-91573377D01*
X130700596Y-91553849D01*
X131421406Y-90833039D01*
X131421406Y-90833038D01*
X131304743Y-90745706D01*
X131304735Y-90745701D01*
X131072486Y-90618884D01*
X131072487Y-90618884D01*
X130824528Y-90526400D01*
X130565960Y-90470152D01*
X130302001Y-90451274D01*
X130301999Y-90451274D01*
X130038039Y-90470152D01*
X129779471Y-90526400D01*
X129531512Y-90618884D01*
X129299264Y-90745701D01*
X129182593Y-90833039D01*
X129903391Y-91553837D01*
X129784569Y-91625331D01*
X129650342Y-91752477D01*
X129547138Y-91904691D01*
X128829039Y-91186593D01*
X128741701Y-91303264D01*
X128614884Y-91535512D01*
X128522400Y-91783471D01*
X128466152Y-92042039D01*
X128447274Y-92305998D01*
X128447274Y-92306001D01*
X126492000Y-92306001D01*
X126492000Y-91704630D01*
X126511685Y-91637591D01*
X126528319Y-91616949D01*
X128278251Y-89867017D01*
X130031155Y-88114112D01*
X130092476Y-88080629D01*
X130162168Y-88085613D01*
X130218101Y-88127485D01*
X130242518Y-88192949D01*
X130241572Y-88219441D01*
X130233216Y-88277561D01*
X130253676Y-88419875D01*
X130253677Y-88419880D01*
X130313403Y-88550659D01*
X130350983Y-88597294D01*
X130809068Y-89055379D01*
X131457361Y-88407085D01*
X131480946Y-88487406D01*
X131558678Y-88608360D01*
X131667339Y-88702514D01*
X131798124Y-88762242D01*
X131807905Y-88763648D01*
X131162621Y-89408932D01*
X131620706Y-89867017D01*
X131667341Y-89904597D01*
X131798120Y-89964323D01*
X131798125Y-89964324D01*
X131940439Y-89984784D01*
X132082752Y-89964324D01*
X132082757Y-89964323D01*
X132213536Y-89904597D01*
X132260171Y-89867017D01*
X132718256Y-89408932D01*
X132718256Y-89408931D01*
X132072972Y-88763648D01*
X132082754Y-88762242D01*
X132213539Y-88702514D01*
X132322200Y-88608360D01*
X132399932Y-88487406D01*
X132423515Y-88407086D01*
X133071808Y-89055379D01*
X133071809Y-89055379D01*
X133296858Y-88830330D01*
X136067710Y-88830330D01*
X136097925Y-89053387D01*
X136097926Y-89053390D01*
X136167483Y-89267465D01*
X136274146Y-89465678D01*
X136274148Y-89465681D01*
X136414489Y-89641663D01*
X136414491Y-89641664D01*
X136414492Y-89641666D01*
X136584004Y-89789765D01*
X136777236Y-89905215D01*
X136987976Y-89984307D01*
X137209450Y-90024500D01*
X137209453Y-90024500D01*
X138578148Y-90024500D01*
X138578155Y-90024500D01*
X138746188Y-90009377D01*
X138835298Y-89984784D01*
X138963160Y-89949496D01*
X138963162Y-89949495D01*
X138963170Y-89949493D01*
X139165973Y-89851829D01*
X139348078Y-89719522D01*
X139503632Y-89556825D01*
X139627635Y-89368968D01*
X139639085Y-89342181D01*
X139716100Y-89161995D01*
X139716099Y-89161995D01*
X139716103Y-89161988D01*
X139766191Y-88942537D01*
X139776290Y-88717670D01*
X139746075Y-88494613D01*
X139676517Y-88280536D01*
X139569852Y-88082319D01*
X139490798Y-87983189D01*
X139429510Y-87906336D01*
X139429508Y-87906334D01*
X139259996Y-87758235D01*
X139066764Y-87642785D01*
X138948775Y-87598503D01*
X138856023Y-87563692D01*
X138634550Y-87523500D01*
X138634547Y-87523500D01*
X137265845Y-87523500D01*
X137227399Y-87526960D01*
X137097813Y-87538622D01*
X137097807Y-87538623D01*
X136880839Y-87598503D01*
X136880826Y-87598508D01*
X136678033Y-87696167D01*
X136678025Y-87696171D01*
X136495927Y-87828473D01*
X136495925Y-87828474D01*
X136340366Y-87991176D01*
X136216363Y-88179033D01*
X136127899Y-88386004D01*
X136127895Y-88386017D01*
X136077810Y-88605457D01*
X136077808Y-88605468D01*
X136072769Y-88717674D01*
X136067710Y-88830330D01*
X133296858Y-88830330D01*
X133529894Y-88597294D01*
X133567474Y-88550659D01*
X133627200Y-88419880D01*
X133627201Y-88419875D01*
X133647661Y-88277562D01*
X133627201Y-88135248D01*
X133627200Y-88135244D01*
X133569268Y-88008393D01*
X133559324Y-87939235D01*
X133588348Y-87875679D01*
X133647126Y-87837904D01*
X133692867Y-87833353D01*
X133736490Y-87837170D01*
X133971898Y-87816574D01*
X134200153Y-87755414D01*
X134414320Y-87655546D01*
X134607891Y-87520006D01*
X134774985Y-87352912D01*
X134910525Y-87159341D01*
X135010393Y-86945174D01*
X135071553Y-86716919D01*
X135092149Y-86481511D01*
X135071553Y-86246103D01*
X135010393Y-86017848D01*
X134910525Y-85803682D01*
X134883915Y-85765678D01*
X134774984Y-85610108D01*
X134607892Y-85443017D01*
X134607885Y-85443012D01*
X134414324Y-85307478D01*
X134414320Y-85307476D01*
X134200153Y-85207608D01*
X134200149Y-85207607D01*
X134200145Y-85207605D01*
X133971903Y-85146449D01*
X133971893Y-85146447D01*
X133736491Y-85125852D01*
X133736489Y-85125852D01*
X133501086Y-85146447D01*
X133501076Y-85146449D01*
X133272822Y-85207608D01*
X133271451Y-85208108D01*
X133270806Y-85208148D01*
X133267597Y-85209009D01*
X133267424Y-85208363D01*
X133201721Y-85212537D01*
X133140667Y-85178565D01*
X133107672Y-85116977D01*
X133113211Y-85047327D01*
X133141361Y-85003906D01*
X134288949Y-83856319D01*
X134350272Y-83822834D01*
X134376630Y-83820000D01*
X136538873Y-83820000D01*
X136605912Y-83839685D01*
X136651667Y-83892489D01*
X136661611Y-83961647D01*
X136632586Y-84025203D01*
X136611758Y-84044318D01*
X136495927Y-84128473D01*
X136495925Y-84128474D01*
X136340366Y-84291176D01*
X136216363Y-84479033D01*
X136127899Y-84686004D01*
X136127895Y-84686017D01*
X136077810Y-84905457D01*
X136077808Y-84905468D01*
X136067911Y-85125852D01*
X136067710Y-85130330D01*
X136097925Y-85353387D01*
X136097926Y-85353390D01*
X136167483Y-85567465D01*
X136274146Y-85765678D01*
X136274148Y-85765681D01*
X136414489Y-85941663D01*
X136414491Y-85941664D01*
X136414492Y-85941666D01*
X136584004Y-86089765D01*
X136777236Y-86205215D01*
X136987976Y-86284307D01*
X137209450Y-86324500D01*
X137209453Y-86324500D01*
X138578148Y-86324500D01*
X138578155Y-86324500D01*
X138746188Y-86309377D01*
X138796825Y-86295402D01*
X138963160Y-86249496D01*
X138963162Y-86249495D01*
X138963170Y-86249493D01*
X139165973Y-86151829D01*
X139348078Y-86019522D01*
X139503632Y-85856825D01*
X139627635Y-85668968D01*
X139716103Y-85461988D01*
X139766191Y-85242537D01*
X139776290Y-85017670D01*
X139746075Y-84794613D01*
X139676517Y-84580536D01*
X139661483Y-84552599D01*
X139569853Y-84382321D01*
X139569851Y-84382318D01*
X139429510Y-84206336D01*
X139259999Y-84058237D01*
X139259996Y-84058235D01*
X139246958Y-84050445D01*
X139199508Y-83999165D01*
X139187313Y-83930368D01*
X139214248Y-83865899D01*
X139271762Y-83826226D01*
X139310561Y-83820000D01*
X140462000Y-83820000D01*
X142748000Y-81534000D01*
X142748000Y-78898499D01*
X142767685Y-78831460D01*
X142820489Y-78785705D01*
X142872000Y-78774499D01*
X159435843Y-78774499D01*
X159502882Y-78794184D01*
G37*
%TD.AperFunction*%
%TA.AperFunction,Conductor*%
G36*
X147950835Y-96137148D02*
G01*
X148008359Y-96250045D01*
X148097955Y-96339641D01*
X148210852Y-96397165D01*
X148291599Y-96409953D01*
X147667967Y-97033583D01*
X147668404Y-97038581D01*
X147703511Y-97082502D01*
X147710704Y-97152001D01*
X147679182Y-97214355D01*
X147618952Y-97249769D01*
X147588763Y-97253500D01*
X146543236Y-97253500D01*
X146476197Y-97233815D01*
X146430442Y-97181011D01*
X146420498Y-97111853D01*
X146449523Y-97048297D01*
X146463876Y-97035352D01*
X146464031Y-97033584D01*
X145840400Y-96409953D01*
X145921148Y-96397165D01*
X146034045Y-96339641D01*
X146123641Y-96250045D01*
X146181165Y-96137148D01*
X146193953Y-96056400D01*
X146817584Y-96680031D01*
X146856582Y-96624336D01*
X146856586Y-96624330D01*
X146946802Y-96430859D01*
X146948658Y-96425764D01*
X146950287Y-96426357D01*
X146982588Y-96373361D01*
X147045435Y-96342830D01*
X147114810Y-96351124D01*
X147168689Y-96395608D01*
X147182586Y-96426039D01*
X147183342Y-96425764D01*
X147185197Y-96430859D01*
X147275412Y-96624328D01*
X147275413Y-96624330D01*
X147314415Y-96680030D01*
X147314415Y-96680031D01*
X147938046Y-96056400D01*
X147950835Y-96137148D01*
G37*
%TD.AperFunction*%
%TA.AperFunction,Conductor*%
G36*
X161487039Y-78794184D02*
G01*
X161532794Y-78846988D01*
X161544000Y-78898499D01*
X161544000Y-79205912D01*
X161524315Y-79272951D01*
X161471511Y-79318706D01*
X161409193Y-79329440D01*
X161353025Y-79324526D01*
X160671953Y-80005598D01*
X160659165Y-79924852D01*
X160601641Y-79811955D01*
X160512045Y-79722359D01*
X160399148Y-79664835D01*
X160318400Y-79652046D01*
X160999472Y-78970974D01*
X160996341Y-78935189D01*
X160990214Y-78875999D01*
X161021737Y-78813644D01*
X161081967Y-78778230D01*
X161112156Y-78774499D01*
X161420000Y-78774499D01*
X161487039Y-78794184D01*
G37*
%TD.AperFunction*%
%TD*%
M02*
