%TF.GenerationSoftware,KiCad,Pcbnew,7.0.9*%
%TF.CreationDate,2024-01-11T17:45:52+09:00*%
%TF.ProjectId,PowerSuplyUnit,506f7765-7253-4757-906c-79556e69742e,rev?*%
%TF.SameCoordinates,Original*%
%TF.FileFunction,Copper,L1,Top*%
%TF.FilePolarity,Positive*%
%FSLAX46Y46*%
G04 Gerber Fmt 4.6, Leading zero omitted, Abs format (unit mm)*
G04 Created by KiCad (PCBNEW 7.0.9) date 2024-01-11 17:45:52*
%MOMM*%
%LPD*%
G01*
G04 APERTURE LIST*
G04 Aperture macros list*
%AMRoundRect*
0 Rectangle with rounded corners*
0 $1 Rounding radius*
0 $2 $3 $4 $5 $6 $7 $8 $9 X,Y pos of 4 corners*
0 Add a 4 corners polygon primitive as box body*
4,1,4,$2,$3,$4,$5,$6,$7,$8,$9,$2,$3,0*
0 Add four circle primitives for the rounded corners*
1,1,$1+$1,$2,$3*
1,1,$1+$1,$4,$5*
1,1,$1+$1,$6,$7*
1,1,$1+$1,$8,$9*
0 Add four rect primitives between the rounded corners*
20,1,$1+$1,$2,$3,$4,$5,0*
20,1,$1+$1,$4,$5,$6,$7,0*
20,1,$1+$1,$6,$7,$8,$9,0*
20,1,$1+$1,$8,$9,$2,$3,0*%
%AMHorizOval*
0 Thick line with rounded ends*
0 $1 width*
0 $2 $3 position (X,Y) of the first rounded end (center of the circle)*
0 $4 $5 position (X,Y) of the second rounded end (center of the circle)*
0 Add line between two ends*
20,1,$1,$2,$3,$4,$5,0*
0 Add two circle primitives to create the rounded ends*
1,1,$1,$2,$3*
1,1,$1,$4,$5*%
%AMRotRect*
0 Rectangle, with rotation*
0 The origin of the aperture is its center*
0 $1 length*
0 $2 width*
0 $3 Rotation angle, in degrees counterclockwise*
0 Add horizontal line*
21,1,$1,$2,0,0,$3*%
%AMOutline4P*
0 Free polygon, 4 corners , with rotation*
0 The origin of the aperture is its center*
0 number of corners: always 4*
0 $1 to $8 corner X, Y*
0 $9 Rotation angle, in degrees counterclockwise*
0 create outline with 4 corners*
4,1,4,$1,$2,$3,$4,$5,$6,$7,$8,$1,$2,$9*%
G04 Aperture macros list end*
%TA.AperFunction,ComponentPad*%
%ADD10RotRect,2.800000X2.800000X210.000000*%
%TD*%
%TA.AperFunction,ComponentPad*%
%ADD11HorizOval,2.800000X0.000000X0.000000X0.000000X0.000000X0*%
%TD*%
%TA.AperFunction,SMDPad,CuDef*%
%ADD12Outline4P,-1.500000X-0.600000X1.500000X-0.600000X1.500000X0.600000X-1.500000X0.600000X270.000000*%
%TD*%
%TA.AperFunction,SMDPad,CuDef*%
%ADD13Outline4P,-2.035000X-0.885000X2.035000X-0.885000X2.035000X0.885000X-2.035000X0.885000X270.000000*%
%TD*%
%TA.AperFunction,SMDPad,CuDef*%
%ADD14Outline4P,-0.600000X-1.500000X0.600000X-1.500000X0.600000X1.500000X-0.600000X1.500000X270.000000*%
%TD*%
%TA.AperFunction,SMDPad,CuDef*%
%ADD15Outline4P,-0.885000X-2.035000X0.885000X-2.035000X0.885000X2.035000X-0.885000X2.035000X270.000000*%
%TD*%
%TA.AperFunction,SMDPad,CuDef*%
%ADD16Outline4P,-0.750000X-0.600000X0.750000X-0.600000X0.750000X0.600000X-0.750000X0.600000X270.000000*%
%TD*%
%TA.AperFunction,SMDPad,CuDef*%
%ADD17Outline4P,-0.500000X-0.600000X0.500000X-0.600000X0.500000X0.600000X-0.500000X0.600000X270.000000*%
%TD*%
%TA.AperFunction,ComponentPad*%
%ADD18RoundRect,0.250000X0.600000X0.750000X-0.600000X0.750000X-0.600000X-0.750000X0.600000X-0.750000X0*%
%TD*%
%TA.AperFunction,ComponentPad*%
%ADD19O,1.700000X2.000000*%
%TD*%
%TA.AperFunction,ComponentPad*%
%ADD20O,4.000000X2.000000*%
%TD*%
%TA.AperFunction,ComponentPad*%
%ADD21RoundRect,0.250001X-1.099999X1.099999X-1.099999X-1.099999X1.099999X-1.099999X1.099999X1.099999X0*%
%TD*%
%TA.AperFunction,ComponentPad*%
%ADD22C,2.700000*%
%TD*%
%TA.AperFunction,ComponentPad*%
%ADD23RoundRect,0.250001X1.099999X1.099999X-1.099999X1.099999X-1.099999X-1.099999X1.099999X-1.099999X0*%
%TD*%
%TA.AperFunction,ComponentPad*%
%ADD24C,1.600000*%
%TD*%
%TA.AperFunction,ComponentPad*%
%ADD25C,1.400000*%
%TD*%
%TA.AperFunction,ComponentPad*%
%ADD26O,1.400000X1.400000*%
%TD*%
%TA.AperFunction,ComponentPad*%
%ADD27C,1.440000*%
%TD*%
%TA.AperFunction,ComponentPad*%
%ADD28HorizOval,1.500000X-0.300000X0.519615X0.300000X-0.519615X0*%
%TD*%
%TA.AperFunction,ComponentPad*%
%ADD29R,1.700000X1.700000*%
%TD*%
%TA.AperFunction,ComponentPad*%
%ADD30O,1.700000X1.700000*%
%TD*%
%TA.AperFunction,ComponentPad*%
%ADD31C,1.050000*%
%TD*%
%TA.AperFunction,ViaPad*%
%ADD32C,0.800000*%
%TD*%
%TA.AperFunction,Conductor*%
%ADD33C,4.000000*%
%TD*%
%TA.AperFunction,Conductor*%
%ADD34C,2.000000*%
%TD*%
G04 APERTURE END LIST*
D10*
%TO.P,D1,1,K*%
%TO.N,Net-(D1-K)*%
X155105262Y-54991000D03*
D11*
%TO.P,D1,2,A*%
%TO.N,GND*%
X144106739Y-61341000D03*
%TD*%
D12*
%TO.P,U1,1,ON/OFF_CTRL*%
%TO.N,Net-(U1-ON{slash}OFF_CTRL)*%
X149733000Y-71362000D03*
%TO.P,U1,2,VIN*%
%TO.N,+12V*%
X154313000Y-71362000D03*
D13*
X154313000Y-73527000D03*
D14*
X155333000Y-74672000D03*
%TO.P,U1,3,GND*%
%TO.N,GND*%
X155333000Y-76962000D03*
D13*
X154313000Y-78107000D03*
D14*
X155333000Y-79252000D03*
D15*
%TO.P,U1,4,VOUT*%
%TO.N,+5V*%
X153168000Y-81562000D03*
D12*
X154313000Y-82562000D03*
%TO.P,U1,5,SENSE*%
X149733000Y-82562000D03*
%TO.P,U1,6,TRIM*%
%TO.N,Net-(U1-TRIM)*%
X145153000Y-82562000D03*
D14*
%TO.P,U1,7,GND*%
%TO.N,GND*%
X144133000Y-76962000D03*
%TO.P,U1,8*%
%TO.N,N/C*%
X144133000Y-74672000D03*
D12*
%TO.P,U1,9*%
X145153000Y-71362000D03*
%TO.P,U1,10,PG_OUT*%
%TO.N,unconnected-(U1-PG_OUT-Pad10)*%
X147443000Y-71362000D03*
D16*
%TO.P,U1,11*%
%TO.N,N/C*%
X147443000Y-83312000D03*
D14*
%TO.P,U1,12*%
X144133000Y-79252000D03*
D17*
%TO.P,U1,13*%
X147443000Y-81562000D03*
%TD*%
D18*
%TO.P,J1,1,Pin_1*%
%TO.N,+48V*%
X137009000Y-90932000D03*
D19*
%TO.P,J1,2,Pin_2*%
%TO.N,GND*%
X134509000Y-90932000D03*
%TD*%
D20*
%TO.P,SW2,1*%
%TO.N,+12V*%
X161798000Y-100838000D03*
%TO.P,SW2,2*%
%TO.N,Net-(D1-K)*%
X161798000Y-94838000D03*
%TD*%
D21*
%TO.P,J2,1,Pin_1*%
%TO.N,+12V*%
X136906000Y-73764000D03*
D22*
%TO.P,J2,2,Pin_2*%
%TO.N,GND*%
X136906000Y-77724000D03*
%TD*%
D23*
%TO.P,J2,1,Pin_1*%
%TO.N,+12V*%
X138053900Y-143653600D03*
D22*
%TO.P,J2,2,Pin_2*%
%TO.N,GND*%
X134093900Y-143653600D03*
%TD*%
D24*
%TO.P,C2,1*%
%TO.N,+5V*%
X147534000Y-87249000D03*
%TO.P,C2,2*%
%TO.N,GND*%
X142534000Y-87249000D03*
%TD*%
D25*
%TO.P,R1,1*%
%TO.N,+12V*%
X152113000Y-67270000D03*
D26*
%TO.P,R1,2*%
%TO.N,Net-(U1-ON{slash}OFF_CTRL)*%
X152113000Y-62190000D03*
%TD*%
D25*
%TO.P,R2,1*%
%TO.N,+5V*%
X149860000Y-87249000D03*
D26*
%TO.P,R2,2*%
%TO.N,GND*%
X154940000Y-87249000D03*
%TD*%
D27*
%TO.P,RV1,1,1*%
%TO.N,GND*%
X150368000Y-91694000D03*
%TO.P,RV1,2,2*%
X147828000Y-91694000D03*
%TO.P,RV1,3,3*%
%TO.N,Net-(U1-TRIM)*%
X145288000Y-91694000D03*
%TD*%
D24*
%TO.P,C1,1*%
%TO.N,+12V*%
X154813000Y-67230000D03*
%TO.P,C1,2*%
%TO.N,GND*%
X154813000Y-62230000D03*
%TD*%
D28*
%TO.P,F1,1*%
%TO.N,Net-(BT1-+)*%
X138203502Y-58936000D03*
X141407796Y-57086000D03*
%TO.P,F1,2*%
%TO.N,Net-(D1-K)*%
X145131706Y-54936000D03*
X148336000Y-53086000D03*
%TD*%
D29*
%TO.P,J4,1,Pin_1*%
%TO.N,+48V*%
X145846800Y-140203000D03*
D30*
%TO.P,J4,2,Pin_2*%
%TO.N,GND*%
X145846800Y-142743000D03*
%TD*%
D31*
%TO.P,SW1,1*%
%TO.N,Net-(U1-ON{slash}OFF_CTRL)*%
X148844000Y-65913000D03*
%TO.P,SW1,2*%
%TO.N,GND*%
X146344000Y-65913000D03*
%TO.P,SW1,3*%
%TO.N,N/C*%
X143844000Y-65913000D03*
%TD*%
D18*
%TO.P,J3,1,Pin_1*%
%TO.N,+5V*%
X137009000Y-84074000D03*
D19*
%TO.P,J3,2,Pin_2*%
%TO.N,GND*%
X134509000Y-84074000D03*
%TD*%
D24*
%TO.P,U2,1,IN+*%
%TO.N,+12V*%
X150752000Y-96837500D03*
%TO.P,U2,2,IN-*%
%TO.N,GND*%
X133604000Y-96837500D03*
%TO.P,U2,3,OUT+*%
%TO.N,+48V*%
X150752000Y-136334500D03*
%TO.P,U2,4,OUT-*%
%TO.N,GND*%
X133604000Y-136334500D03*
%TD*%
D21*
%TO.P,BT1,1,+*%
%TO.N,Net-(BT1-+)*%
X136906000Y-65024000D03*
D22*
%TO.P,BT1,2,-*%
%TO.N,GND*%
X136906000Y-68984000D03*
%TD*%
D32*
%TO.N,GND*%
X152146000Y-127965200D03*
X161899600Y-125018800D03*
X138887200Y-131826000D03*
X143002000Y-72644000D03*
X153670000Y-60706000D03*
X173736000Y-78486000D03*
X174742520Y-68458551D03*
X140716000Y-123190000D03*
X145288000Y-101600000D03*
X164084000Y-96774000D03*
X133604000Y-99060000D03*
X160782000Y-89916000D03*
X149479000Y-76835000D03*
X141071600Y-110896400D03*
X152095200Y-117398800D03*
X140716000Y-96012000D03*
X146812000Y-68580000D03*
X153619200Y-136245600D03*
X145084800Y-145745200D03*
X165455600Y-104444800D03*
X142748000Y-89408000D03*
X141732000Y-66294000D03*
X148336000Y-142646400D03*
X146558000Y-63246000D03*
X133604000Y-128270000D03*
X150622000Y-60706000D03*
X158445200Y-130556000D03*
X143129000Y-81280000D03*
X152247600Y-106730800D03*
X154990800Y-103022400D03*
X171704000Y-96266000D03*
X154940000Y-90932000D03*
X167132000Y-113030000D03*
X134112000Y-114452400D03*
X147421600Y-129743200D03*
X161696400Y-110337600D03*
X147320000Y-89408000D03*
%TD*%
D33*
%TO.N,Net-(BT1-+)*%
X136906000Y-65024000D02*
X136906000Y-60233502D01*
X136906000Y-65024000D02*
X135890000Y-65024000D01*
X139903200Y-58590596D02*
X139903200Y-63398400D01*
X138203502Y-58936000D02*
X141407796Y-57086000D01*
X141407796Y-57086000D02*
X139903200Y-58590596D01*
X135890000Y-65024000D02*
X134467600Y-63601600D01*
X134467600Y-63601600D02*
X134467600Y-61366400D01*
X134467600Y-61366400D02*
X138203502Y-58936000D01*
X139903200Y-63398400D02*
X138277600Y-65024000D01*
X136906000Y-60233502D02*
X138203502Y-58936000D01*
X138277600Y-65024000D02*
X136906000Y-65024000D01*
D34*
%TO.N,+12V*%
X158597600Y-97637600D02*
X161798000Y-100838000D01*
X156870400Y-73101200D02*
X156870400Y-69291200D01*
X136906000Y-73764000D02*
X140534000Y-77392000D01*
X152687250Y-98772750D02*
X156548050Y-98772750D01*
X158140400Y-92405200D02*
X158140400Y-93268800D01*
X156548050Y-98772750D02*
X156733700Y-98958400D01*
X155830900Y-68247900D02*
X156870400Y-69287400D01*
X140563600Y-74269600D02*
X140058000Y-73764000D01*
X154940000Y-95605600D02*
X155092400Y-95453200D01*
X150752000Y-96837500D02*
X144437100Y-96837500D01*
X140058000Y-73764000D02*
X136906000Y-73764000D01*
X161798000Y-100838000D02*
X162814000Y-100838000D01*
X136906000Y-73764000D02*
X139448400Y-73764000D01*
X155016200Y-69062600D02*
X155016200Y-71653400D01*
X156870400Y-69287400D02*
X156870400Y-69291200D01*
X156840056Y-74672000D02*
X158140400Y-75972344D01*
X158394400Y-100838000D02*
X154752500Y-100838000D01*
X154813000Y-67230000D02*
X155830900Y-68247900D01*
X156667200Y-73304400D02*
X156870400Y-73101200D01*
X144344000Y-94183200D02*
X140534000Y-90373200D01*
X154736800Y-94183200D02*
X144344000Y-94183200D01*
X158140400Y-70561200D02*
X158140400Y-75972344D01*
X154752500Y-100838000D02*
X153728650Y-99814150D01*
X154813000Y-67230000D02*
X154813000Y-71450200D01*
X144437100Y-96837500D02*
X145694400Y-98094800D01*
X158140400Y-96062800D02*
X159867600Y-97790000D01*
X154313000Y-71362000D02*
X154313000Y-69470000D01*
X161899600Y-97790000D02*
X159867600Y-97790000D01*
X144437100Y-96837500D02*
X143205200Y-95605600D01*
X157797500Y-96837500D02*
X158140400Y-97180400D01*
X161798000Y-100838000D02*
X158394400Y-100838000D01*
X155803600Y-93116400D02*
X155092400Y-93827600D01*
X156548050Y-98772750D02*
X158140400Y-97180400D01*
X155092400Y-95453200D02*
X155092400Y-96837500D01*
X155830900Y-68247900D02*
X155016200Y-69062600D01*
X155092400Y-96837500D02*
X156159200Y-96837500D01*
X156733700Y-98958400D02*
X159410400Y-98958400D01*
X159410400Y-97790000D02*
X159410400Y-98958400D01*
X145694400Y-98094800D02*
X152009300Y-98094800D01*
X155016200Y-71653400D02*
X156667200Y-73304400D01*
X162814000Y-100838000D02*
X162814000Y-98704400D01*
X154313000Y-73652000D02*
X155333000Y-74672000D01*
X155092400Y-93827600D02*
X155092400Y-95453200D01*
X159867600Y-97790000D02*
X159410400Y-97790000D01*
X156870400Y-69291200D02*
X158140400Y-70561200D01*
X156851350Y-94164150D02*
X155803600Y-93116400D01*
X154313000Y-71362000D02*
X154313000Y-67730000D01*
X159410400Y-97790000D02*
X158750000Y-97790000D01*
X158140400Y-93268800D02*
X158140400Y-97180400D01*
X158140400Y-93268800D02*
X158140400Y-96062800D01*
X158750000Y-97790000D02*
X158597600Y-97637600D01*
X140534000Y-90373200D02*
X140534000Y-92934400D01*
X158140400Y-90779600D02*
X154736800Y-94183200D01*
X159410400Y-99822000D02*
X159402550Y-99814150D01*
X143205200Y-95605600D02*
X154940000Y-95605600D01*
X158140400Y-94856300D02*
X156851350Y-96145350D01*
X155333000Y-74672000D02*
X156840056Y-74672000D01*
X159402550Y-99814150D02*
X153728650Y-99814150D01*
X152113000Y-67270000D02*
X154773000Y-67270000D01*
X154313000Y-67730000D02*
X154813000Y-67230000D01*
X162814000Y-98704400D02*
X162331400Y-98221800D01*
X159410400Y-98958400D02*
X161594800Y-98958400D01*
X140534000Y-92934400D02*
X141097000Y-93497400D01*
X153728650Y-99814150D02*
X152687250Y-98772750D01*
X140563600Y-74879200D02*
X140563600Y-74269600D01*
X158140400Y-71120000D02*
X158140400Y-88950800D01*
X159410400Y-99822000D02*
X158394400Y-100838000D01*
X140534000Y-77392000D02*
X140563600Y-77362400D01*
X156851350Y-96145350D02*
X156159200Y-96837500D01*
X140534000Y-77392000D02*
X140534000Y-90373200D01*
X156851350Y-96145350D02*
X156851350Y-94164150D01*
X156159200Y-96837500D02*
X157797500Y-96837500D01*
X139448400Y-73764000D02*
X140563600Y-74879200D01*
X140563600Y-77362400D02*
X140563600Y-74269600D01*
X158140400Y-97180400D02*
X158597600Y-97637600D01*
X152009300Y-98094800D02*
X152687250Y-98772750D01*
X158140400Y-92405200D02*
X158140400Y-94856300D01*
X161594800Y-98958400D02*
X162331400Y-98221800D01*
X158140400Y-88950800D02*
X158140400Y-92405200D01*
X158140400Y-90779600D02*
X155803600Y-93116400D01*
X139456000Y-76314000D02*
X136906000Y-73764000D01*
X162331400Y-98221800D02*
X161899600Y-97790000D01*
X154773000Y-67270000D02*
X154813000Y-67230000D01*
X154813000Y-71450200D02*
X155016200Y-71653400D01*
X139456000Y-91856400D02*
X139456000Y-76314000D01*
X150752000Y-96837500D02*
X155092400Y-96837500D01*
X152687250Y-98772750D02*
X150752000Y-96837500D01*
X154313000Y-69470000D02*
X152113000Y-67270000D01*
X154313000Y-69470000D02*
X154313000Y-73652000D01*
X143205200Y-95605600D02*
X139456000Y-91856400D01*
X159410400Y-98958400D02*
X159410400Y-99822000D01*
X158140400Y-88950800D02*
X158140400Y-90779600D01*
%TO.N,+5V*%
X151825000Y-85050000D02*
X149733000Y-85050000D01*
X151805000Y-85050000D02*
X149733000Y-87122000D01*
X150733000Y-81562000D02*
X149733000Y-82562000D01*
X149733000Y-85050000D02*
X149733000Y-84997000D01*
X153168000Y-81562000D02*
X150733000Y-81562000D01*
X154313000Y-82562000D02*
X154313000Y-84599400D01*
X149733000Y-84997000D02*
X153168000Y-81562000D01*
X147534000Y-87249000D02*
X149860000Y-87249000D01*
X154313000Y-84599400D02*
X151663400Y-87249000D01*
X149733000Y-82562000D02*
X149733000Y-87122000D01*
X149733000Y-87122000D02*
X149860000Y-87249000D01*
X149733000Y-85050000D02*
X147534000Y-87249000D01*
X149733000Y-82562000D02*
X149733000Y-85050000D01*
X151663400Y-87249000D02*
X149860000Y-87249000D01*
X151825000Y-85050000D02*
X151805000Y-85050000D01*
X153313000Y-81562000D02*
X154313000Y-82562000D01*
X154313000Y-82562000D02*
X151825000Y-85050000D01*
X153168000Y-81562000D02*
X153313000Y-81562000D01*
D33*
%TO.N,Net-(D1-K)*%
X148336000Y-53086000D02*
X150241000Y-54991000D01*
X145131706Y-54936000D02*
X150186000Y-54936000D01*
X152489062Y-57607200D02*
X155105262Y-54991000D01*
D34*
X155050262Y-54936000D02*
X155105262Y-54991000D01*
D33*
X152349200Y-57607200D02*
X152489062Y-57607200D01*
X150241000Y-54991000D02*
X155105262Y-54991000D01*
X152298400Y-57658000D02*
X152349200Y-57607200D01*
X145131706Y-55136001D02*
X147653705Y-57658000D01*
X145131706Y-54936000D02*
X145131706Y-55136001D01*
X147653705Y-57658000D02*
X152298400Y-57658000D01*
X145131706Y-54936000D02*
X148336000Y-53086000D01*
X150186000Y-54936000D02*
X150241000Y-54991000D01*
D34*
%TO.N,+48V*%
X147726400Y-136334500D02*
X146443700Y-136334500D01*
X144775000Y-140203000D02*
X140931900Y-136359900D01*
X146248350Y-131830850D02*
X144978350Y-131830850D01*
X144546550Y-130129050D02*
X144546550Y-132262650D01*
X138176000Y-127355600D02*
X138176000Y-128066800D01*
X137009000Y-126899800D02*
X137009000Y-119938800D01*
X146248350Y-133405650D02*
X144881600Y-134772400D01*
X144978350Y-131830850D02*
X144546550Y-132262650D01*
X142240000Y-132130800D02*
X141528800Y-131419600D01*
X146405600Y-138074400D02*
X148145500Y-136334500D01*
X137009000Y-119938800D02*
X137009000Y-122591500D01*
X137009000Y-122591500D02*
X141269950Y-126852450D01*
X143967200Y-136334500D02*
X142900400Y-136334500D01*
X144546550Y-130129050D02*
X144241750Y-130129050D01*
X148691600Y-136334500D02*
X147726400Y-136334500D01*
X140030200Y-129921000D02*
X139446000Y-129336800D01*
X137617200Y-124409200D02*
X138826700Y-124409200D01*
X144546550Y-132262650D02*
X143459200Y-133350000D01*
X142539950Y-128122450D02*
X140741400Y-129921000D01*
X137009000Y-90932000D02*
X137009000Y-92520670D01*
X145948400Y-135839200D02*
X144881600Y-134772400D01*
X139446000Y-128676400D02*
X139446000Y-129336800D01*
X148145500Y-136334500D02*
X148691600Y-136334500D01*
X147950150Y-133532650D02*
X148788350Y-134370850D01*
X139903200Y-128219200D02*
X139446000Y-128676400D01*
X141269950Y-126852450D02*
X142539950Y-128122450D01*
X146405600Y-139293600D02*
X143967200Y-136855200D01*
X139974550Y-125557050D02*
X141269950Y-126852450D01*
X146405600Y-140203000D02*
X146405600Y-138074400D01*
X143301950Y-128884450D02*
X144546550Y-130129050D01*
X141528800Y-130657600D02*
X141528800Y-131419600D01*
X150752000Y-136334500D02*
X148691600Y-136334500D01*
X143052800Y-135420100D02*
X143967200Y-136334500D01*
X137009000Y-92520670D02*
X138684000Y-94195670D01*
X137009000Y-122591500D02*
X137617200Y-123199700D01*
X139974550Y-125557050D02*
X138176000Y-127355600D01*
X146248350Y-133405650D02*
X145105350Y-132262650D01*
X144241750Y-130129050D02*
X143052800Y-131318000D01*
X145105350Y-132262650D02*
X144546550Y-132262650D01*
X145948400Y-135534400D02*
X145948400Y-135839200D01*
X146248350Y-131830850D02*
X147950150Y-133532650D01*
X146248350Y-131830850D02*
X146248350Y-133405650D01*
X137617200Y-124409200D02*
X137617200Y-127508000D01*
X143052800Y-131318000D02*
X142240000Y-132130800D01*
X142539950Y-128122450D02*
X143301950Y-128884450D01*
X150752000Y-136334500D02*
X143967200Y-136334500D01*
X146405600Y-140203000D02*
X144775000Y-140203000D01*
X146443700Y-136334500D02*
X145948400Y-135839200D01*
X144881600Y-134772400D02*
X143459200Y-133350000D01*
X139446000Y-129336800D02*
X138176000Y-128066800D01*
X148788350Y-134370850D02*
X147726400Y-135432800D01*
X138684000Y-124266500D02*
X139974550Y-125557050D01*
X142240000Y-132130800D02*
X142900400Y-132791200D01*
X141528800Y-131419600D02*
X140030200Y-129921000D01*
X140931900Y-136359900D02*
X140931900Y-136334500D01*
X147726400Y-135432800D02*
X147726400Y-136334500D01*
X142900400Y-136334500D02*
X141986000Y-136334500D01*
X140741400Y-129921000D02*
X140030200Y-129921000D01*
X140931900Y-136334500D02*
X140931900Y-129247900D01*
X141269950Y-126852450D02*
X139903200Y-128219200D01*
X141986000Y-136334500D02*
X140931900Y-136334500D01*
X137617200Y-127508000D02*
X137009000Y-126899800D01*
X143301950Y-128884450D02*
X141528800Y-130657600D01*
X143052800Y-131318000D02*
X143052800Y-135420100D01*
X137009000Y-90932000D02*
X137009000Y-119938800D01*
X137617200Y-123199700D02*
X137617200Y-124409200D01*
X146883500Y-140203000D02*
X146405600Y-140203000D01*
X143459200Y-133350000D02*
X142240000Y-132130800D01*
X138826700Y-124409200D02*
X139974550Y-125557050D01*
X143967200Y-136855200D02*
X143967200Y-136334500D01*
X140931900Y-129247900D02*
X139903200Y-128219200D01*
X146405600Y-140203000D02*
X146405600Y-139293600D01*
X142900400Y-132791200D02*
X142900400Y-136334500D01*
X147950150Y-133532650D02*
X145948400Y-135534400D01*
X138684000Y-94195670D02*
X138684000Y-124266500D01*
X144546550Y-130129050D02*
X146248350Y-131830850D01*
X138176000Y-128066800D02*
X137617200Y-127508000D01*
X148788350Y-134370850D02*
X150752000Y-136334500D01*
X150752000Y-136334500D02*
X146883500Y-140203000D01*
%TO.N,Net-(U1-ON{slash}OFF_CTRL)*%
X149733000Y-64570000D02*
X149733000Y-68275200D01*
X149733000Y-64570000D02*
X148844000Y-65459000D01*
X152113000Y-62190000D02*
X152113000Y-64091800D01*
X148844000Y-65913000D02*
X149733000Y-66802000D01*
X148844000Y-65459000D02*
X148844000Y-65913000D01*
X148844000Y-65913000D02*
X148844000Y-67386200D01*
X149733000Y-68275200D02*
X149733000Y-71362000D01*
X148844000Y-67386200D02*
X149733000Y-68275200D01*
X149733000Y-66471800D02*
X149733000Y-66802000D01*
X149733000Y-66802000D02*
X149733000Y-67310000D01*
X152113000Y-62190000D02*
X149733000Y-64570000D01*
X152113000Y-64091800D02*
X149733000Y-66471800D01*
X149733000Y-67310000D02*
X149733000Y-68275200D01*
%TO.N,Net-(U1-TRIM)*%
X145153000Y-82562000D02*
X145153000Y-91559000D01*
X145153000Y-91559000D02*
X145288000Y-91694000D01*
%TD*%
%TA.AperFunction,Conductor*%
%TO.N,GND*%
G36*
X156582939Y-80371685D02*
G01*
X156628694Y-80424489D01*
X156639900Y-80476000D01*
X156639900Y-90106710D01*
X156620215Y-90173749D01*
X156603581Y-90194391D01*
X154151591Y-92646381D01*
X154090268Y-92679866D01*
X154063910Y-92682700D01*
X151402980Y-92682700D01*
X151335941Y-92663015D01*
X151290186Y-92610211D01*
X151280242Y-92541053D01*
X151304550Y-92486688D01*
X151303039Y-92485630D01*
X151428582Y-92306336D01*
X151428586Y-92306330D01*
X151518802Y-92112859D01*
X151518805Y-92112853D01*
X151574054Y-91906662D01*
X151574055Y-91906654D01*
X151592660Y-91694002D01*
X151592660Y-91693997D01*
X151574055Y-91481345D01*
X151574054Y-91481337D01*
X151518805Y-91275146D01*
X151518802Y-91275140D01*
X151428586Y-91081670D01*
X151389583Y-91025967D01*
X150765953Y-91649597D01*
X150753165Y-91568852D01*
X150695641Y-91455955D01*
X150606045Y-91366359D01*
X150493148Y-91308835D01*
X150412401Y-91296046D01*
X151036031Y-90672416D01*
X151036030Y-90672415D01*
X150980330Y-90633413D01*
X150980328Y-90633412D01*
X150786859Y-90543197D01*
X150786853Y-90543194D01*
X150580662Y-90487945D01*
X150580654Y-90487944D01*
X150368002Y-90469340D01*
X150367998Y-90469340D01*
X150155345Y-90487944D01*
X150155337Y-90487945D01*
X149949146Y-90543194D01*
X149949140Y-90543197D01*
X149755667Y-90633414D01*
X149699967Y-90672414D01*
X150323599Y-91296046D01*
X150242852Y-91308835D01*
X150129955Y-91366359D01*
X150040359Y-91455955D01*
X149982835Y-91568852D01*
X149970046Y-91649599D01*
X149346414Y-91025967D01*
X149307414Y-91081667D01*
X149217197Y-91275140D01*
X149215342Y-91280236D01*
X149213714Y-91279643D01*
X149181404Y-91332645D01*
X149118555Y-91363170D01*
X149049180Y-91354871D01*
X148995305Y-91310383D01*
X148981412Y-91279961D01*
X148980658Y-91280236D01*
X148978802Y-91275140D01*
X148888586Y-91081670D01*
X148849583Y-91025967D01*
X148225953Y-91649597D01*
X148213165Y-91568852D01*
X148155641Y-91455955D01*
X148066045Y-91366359D01*
X147953148Y-91308835D01*
X147872401Y-91296046D01*
X148496031Y-90672416D01*
X148496030Y-90672415D01*
X148440330Y-90633413D01*
X148440328Y-90633412D01*
X148246859Y-90543197D01*
X148246853Y-90543194D01*
X148040662Y-90487945D01*
X148040654Y-90487944D01*
X147828002Y-90469340D01*
X147827998Y-90469340D01*
X147615345Y-90487944D01*
X147615337Y-90487945D01*
X147409146Y-90543194D01*
X147409140Y-90543197D01*
X147215667Y-90633414D01*
X147159967Y-90672414D01*
X147783599Y-91296046D01*
X147702852Y-91308835D01*
X147589955Y-91366359D01*
X147500359Y-91455955D01*
X147442835Y-91568852D01*
X147430046Y-91649599D01*
X146806414Y-91025967D01*
X146788308Y-91027552D01*
X146719808Y-91013786D01*
X146669625Y-90965171D01*
X146653500Y-90904024D01*
X146653500Y-88691078D01*
X146673185Y-88624039D01*
X146725989Y-88578284D01*
X146795147Y-88568340D01*
X146827306Y-88577521D01*
X146902836Y-88610652D01*
X146986687Y-88651644D01*
X147007119Y-88657726D01*
X147012873Y-88659440D01*
X147020096Y-88662087D01*
X147045119Y-88673063D01*
X147135563Y-88695966D01*
X147225019Y-88722599D01*
X147252145Y-88725979D01*
X147259684Y-88727398D01*
X147286179Y-88734108D01*
X147379168Y-88741813D01*
X147471779Y-88753357D01*
X147565035Y-88749500D01*
X149797933Y-88749500D01*
X149828974Y-88749500D01*
X149922221Y-88753357D01*
X149938914Y-88751276D01*
X149949342Y-88749977D01*
X149957018Y-88749500D01*
X151566381Y-88749500D01*
X151574052Y-88749975D01*
X151601179Y-88753357D01*
X151694435Y-88749500D01*
X151725467Y-88749500D01*
X151756390Y-88746937D01*
X151849637Y-88743081D01*
X151876382Y-88737472D01*
X151883982Y-88736364D01*
X151911221Y-88734108D01*
X151911224Y-88734107D01*
X151911226Y-88734107D01*
X151911229Y-88734106D01*
X152001688Y-88711198D01*
X152093014Y-88692049D01*
X152118477Y-88682112D01*
X152125774Y-88679774D01*
X152152281Y-88673063D01*
X152237735Y-88635579D01*
X152324674Y-88601656D01*
X152348161Y-88587659D01*
X152354981Y-88584149D01*
X152380007Y-88573173D01*
X152458120Y-88522139D01*
X152538294Y-88474366D01*
X152559154Y-88456697D01*
X152565294Y-88452117D01*
X152588185Y-88437164D01*
X152656835Y-88373966D01*
X152680526Y-88353902D01*
X152702478Y-88331949D01*
X152771138Y-88268744D01*
X152787930Y-88247167D01*
X152793004Y-88241422D01*
X153563783Y-87470643D01*
X153625104Y-87437160D01*
X153694796Y-87442144D01*
X153750729Y-87484016D01*
X153770729Y-87524392D01*
X153816240Y-87684350D01*
X153915368Y-87883425D01*
X154049391Y-88060900D01*
X154213738Y-88210721D01*
X154402820Y-88327797D01*
X154402822Y-88327798D01*
X154610195Y-88408135D01*
X154690000Y-88423052D01*
X154690000Y-87497938D01*
X154771115Y-87561072D01*
X154881595Y-87599000D01*
X154969005Y-87599000D01*
X155055216Y-87584614D01*
X155157947Y-87529019D01*
X155185581Y-87499000D01*
X155190000Y-87499000D01*
X155190000Y-88423052D01*
X155269804Y-88408135D01*
X155477177Y-88327798D01*
X155477179Y-88327797D01*
X155666261Y-88210721D01*
X155830608Y-88060900D01*
X155964631Y-87883425D01*
X156063760Y-87684349D01*
X156116495Y-87499000D01*
X155190000Y-87499000D01*
X155185581Y-87499000D01*
X155237060Y-87443079D01*
X155283982Y-87336108D01*
X155293628Y-87219698D01*
X155264953Y-87106462D01*
X155201064Y-87008673D01*
X155188636Y-86999000D01*
X156116495Y-86999000D01*
X156063760Y-86813650D01*
X155964631Y-86614574D01*
X155830608Y-86437099D01*
X155666261Y-86287278D01*
X155477179Y-86170202D01*
X155477177Y-86170201D01*
X155269804Y-86089865D01*
X155227024Y-86081868D01*
X155164743Y-86050200D01*
X155129470Y-85989887D01*
X155132404Y-85920079D01*
X155162126Y-85872300D01*
X155305422Y-85729004D01*
X155311167Y-85723930D01*
X155332744Y-85707138D01*
X155395949Y-85638478D01*
X155417902Y-85616526D01*
X155437966Y-85592835D01*
X155501164Y-85524185D01*
X155516117Y-85501294D01*
X155520697Y-85495154D01*
X155538366Y-85474294D01*
X155586134Y-85394127D01*
X155637173Y-85316007D01*
X155648148Y-85290984D01*
X155651668Y-85284147D01*
X155665655Y-85260674D01*
X155678413Y-85227977D01*
X155699574Y-85173748D01*
X155725405Y-85114857D01*
X155737063Y-85088281D01*
X155743774Y-85061774D01*
X155746112Y-85054477D01*
X155756049Y-85029014D01*
X155775196Y-84937697D01*
X155798108Y-84847221D01*
X155800364Y-84819983D01*
X155801471Y-84812380D01*
X155807080Y-84785637D01*
X155810936Y-84692405D01*
X155813500Y-84661467D01*
X155813500Y-84630426D01*
X155817357Y-84537179D01*
X155813975Y-84510053D01*
X155813500Y-84502381D01*
X155813500Y-82659018D01*
X155813976Y-82651342D01*
X155817357Y-82624221D01*
X155814889Y-82564558D01*
X155814889Y-82559432D01*
X155817357Y-82499780D01*
X155814451Y-82476468D01*
X155809968Y-82440510D01*
X155809548Y-82435431D01*
X155807081Y-82375763D01*
X155801473Y-82349016D01*
X155800364Y-82341406D01*
X155799493Y-82330898D01*
X155798108Y-82314179D01*
X155791396Y-82287674D01*
X155789978Y-82280142D01*
X155786598Y-82253019D01*
X155769559Y-82195789D01*
X155768303Y-82190825D01*
X155756050Y-82132386D01*
X155746112Y-82106920D01*
X155743774Y-82099623D01*
X155737063Y-82073119D01*
X155726084Y-82048089D01*
X155723446Y-82040896D01*
X155715644Y-82014687D01*
X155715639Y-82014676D01*
X155713780Y-82009910D01*
X155714694Y-82009553D01*
X155703499Y-81961157D01*
X155703499Y-80629129D01*
X155703498Y-80629123D01*
X155702324Y-80618204D01*
X155697091Y-80569517D01*
X155697091Y-80569516D01*
X155678374Y-80519333D01*
X155673390Y-80449641D01*
X155706875Y-80388318D01*
X155768199Y-80354834D01*
X155794556Y-80352000D01*
X156515900Y-80352000D01*
X156582939Y-80371685D01*
G37*
%TD.AperFunction*%
%TA.AperFunction,Conductor*%
G36*
X143616181Y-87977628D02*
G01*
X143649666Y-88038951D01*
X143652500Y-88065309D01*
X143652500Y-91070310D01*
X143632815Y-91137349D01*
X143580011Y-91183104D01*
X143510853Y-91193048D01*
X143447297Y-91164023D01*
X143440819Y-91157991D01*
X142070819Y-89787991D01*
X142037334Y-89726668D01*
X142034500Y-89700310D01*
X142034500Y-88622619D01*
X142054185Y-88555580D01*
X142106989Y-88509825D01*
X142176147Y-88499881D01*
X142190593Y-88502844D01*
X142307390Y-88534139D01*
X142307400Y-88534141D01*
X142533998Y-88553966D01*
X142534002Y-88553966D01*
X142760599Y-88534141D01*
X142760610Y-88534139D01*
X142980317Y-88475269D01*
X142980331Y-88475264D01*
X143186478Y-88379136D01*
X143259472Y-88328025D01*
X142578400Y-87646953D01*
X142659148Y-87634165D01*
X142772045Y-87576641D01*
X142861641Y-87487045D01*
X142919165Y-87374148D01*
X142931953Y-87293400D01*
X143616181Y-87977628D01*
G37*
%TD.AperFunction*%
%TA.AperFunction,Conductor*%
G36*
X142239703Y-80166516D02*
G01*
X142257762Y-80185912D01*
X142275454Y-80209546D01*
X142275455Y-80209546D01*
X142275456Y-80209548D01*
X142390664Y-80295793D01*
X142390671Y-80295797D01*
X142525517Y-80346091D01*
X142525516Y-80346091D01*
X142532444Y-80346835D01*
X142585127Y-80352500D01*
X144335765Y-80352499D01*
X144402803Y-80372184D01*
X144448558Y-80424987D01*
X144458502Y-80494146D01*
X144429477Y-80557702D01*
X144379098Y-80592681D01*
X144310669Y-80618203D01*
X144310664Y-80618206D01*
X144195455Y-80704452D01*
X144195452Y-80704455D01*
X144109206Y-80819664D01*
X144109202Y-80819671D01*
X144058908Y-80954517D01*
X144052501Y-81014116D01*
X144052500Y-81014135D01*
X144052500Y-81493600D01*
X144032815Y-81560639D01*
X144019731Y-81577582D01*
X143964834Y-81637217D01*
X143828826Y-81845393D01*
X143728936Y-82073118D01*
X143667892Y-82314175D01*
X143667890Y-82314186D01*
X143652500Y-82499935D01*
X143652500Y-86432690D01*
X143632815Y-86499729D01*
X143616181Y-86520371D01*
X142931953Y-87204598D01*
X142919165Y-87123852D01*
X142861641Y-87010955D01*
X142772045Y-86921359D01*
X142659148Y-86863835D01*
X142578400Y-86851046D01*
X143259472Y-86169974D01*
X143259471Y-86169973D01*
X143186483Y-86118866D01*
X143186481Y-86118865D01*
X142980326Y-86022734D01*
X142980317Y-86022730D01*
X142760610Y-85963860D01*
X142760599Y-85963858D01*
X142534002Y-85944034D01*
X142533998Y-85944034D01*
X142307400Y-85963858D01*
X142307389Y-85963860D01*
X142190593Y-85995155D01*
X142120743Y-85993492D01*
X142062880Y-85954329D01*
X142035377Y-85890100D01*
X142034500Y-85875380D01*
X142034500Y-80260229D01*
X142054185Y-80193190D01*
X142106989Y-80147435D01*
X142176147Y-80137491D01*
X142239703Y-80166516D01*
G37*
%TD.AperFunction*%
%TA.AperFunction,Conductor*%
G36*
X151438703Y-68718177D02*
G01*
X151445181Y-68724209D01*
X152776181Y-70055209D01*
X152809666Y-70116532D01*
X152812500Y-70142890D01*
X152812500Y-73554981D01*
X152812024Y-73562651D01*
X152809258Y-73584847D01*
X152808643Y-73589779D01*
X152812500Y-73683035D01*
X152812500Y-73714064D01*
X152815062Y-73744990D01*
X152818918Y-73838233D01*
X152824526Y-73864983D01*
X152825635Y-73872590D01*
X152827891Y-73899818D01*
X152827891Y-73899819D01*
X152827892Y-73899821D01*
X152850801Y-73990288D01*
X152869951Y-74081614D01*
X152873454Y-74090593D01*
X152879882Y-74107067D01*
X152882227Y-74114387D01*
X152888936Y-74140878D01*
X152917056Y-74204986D01*
X152927500Y-74254796D01*
X152927500Y-75609870D01*
X152927501Y-75609876D01*
X152933908Y-75669483D01*
X152973033Y-75774381D01*
X152978017Y-75844073D01*
X152973033Y-75861047D01*
X152934403Y-75964619D01*
X152934401Y-75964627D01*
X152928000Y-76024155D01*
X152928000Y-77857000D01*
X154439000Y-77857000D01*
X154506039Y-77876685D01*
X154551794Y-77929489D01*
X154563000Y-77981000D01*
X154563000Y-78233000D01*
X154543315Y-78300039D01*
X154490511Y-78345794D01*
X154439000Y-78357000D01*
X152928000Y-78357000D01*
X152928000Y-79937500D01*
X152908315Y-80004539D01*
X152855511Y-80050294D01*
X152804000Y-80061500D01*
X150830019Y-80061500D01*
X150822347Y-80061024D01*
X150795221Y-80057643D01*
X150795219Y-80057643D01*
X150701965Y-80061500D01*
X150670933Y-80061500D01*
X150640009Y-80064062D01*
X150546765Y-80067918D01*
X150546751Y-80067920D01*
X150520017Y-80073526D01*
X150512409Y-80074635D01*
X150485185Y-80076890D01*
X150485175Y-80076892D01*
X150416311Y-80094331D01*
X150394725Y-80099797D01*
X150380755Y-80102726D01*
X150303390Y-80118948D01*
X150303375Y-80118953D01*
X150277920Y-80128886D01*
X150270599Y-80131231D01*
X150244119Y-80137937D01*
X150244113Y-80137939D01*
X150158667Y-80175419D01*
X150071723Y-80209345D01*
X150048247Y-80223333D01*
X150041413Y-80226851D01*
X150016388Y-80237829D01*
X150016385Y-80237830D01*
X149938275Y-80288862D01*
X149858101Y-80336637D01*
X149837250Y-80354297D01*
X149831087Y-80358892D01*
X149808215Y-80373835D01*
X149808212Y-80373838D01*
X149739554Y-80437042D01*
X149715871Y-80457100D01*
X149701246Y-80471725D01*
X149693933Y-80479039D01*
X149677523Y-80494146D01*
X149639955Y-80528730D01*
X149577300Y-80559652D01*
X149555972Y-80561500D01*
X149085129Y-80561500D01*
X149085123Y-80561501D01*
X149025516Y-80567908D01*
X148890671Y-80618202D01*
X148890664Y-80618206D01*
X148775455Y-80704452D01*
X148687266Y-80822257D01*
X148631332Y-80864127D01*
X148561640Y-80869111D01*
X148500318Y-80835625D01*
X148488734Y-80822257D01*
X148439964Y-80757109D01*
X148400546Y-80704454D01*
X148400544Y-80704453D01*
X148400544Y-80704452D01*
X148285335Y-80618206D01*
X148285328Y-80618202D01*
X148150482Y-80567908D01*
X148150483Y-80567908D01*
X148090883Y-80561501D01*
X148090881Y-80561500D01*
X148090873Y-80561500D01*
X148090864Y-80561500D01*
X146795129Y-80561500D01*
X146795123Y-80561501D01*
X146735516Y-80567908D01*
X146600671Y-80618202D01*
X146600664Y-80618206D01*
X146485455Y-80704452D01*
X146397266Y-80822257D01*
X146341332Y-80864127D01*
X146271640Y-80869111D01*
X146210318Y-80835625D01*
X146198734Y-80822257D01*
X146149964Y-80757109D01*
X146110546Y-80704454D01*
X146110544Y-80704453D01*
X146110544Y-80704452D01*
X145995335Y-80618206D01*
X145995328Y-80618202D01*
X145860482Y-80567908D01*
X145860484Y-80567908D01*
X145827421Y-80564354D01*
X145762870Y-80537616D01*
X145723022Y-80480223D01*
X145720529Y-80410398D01*
X145756182Y-80350309D01*
X145797345Y-80324883D01*
X145875326Y-80295798D01*
X145875326Y-80295797D01*
X145875331Y-80295796D01*
X145990546Y-80209546D01*
X146076796Y-80094331D01*
X146127091Y-79959483D01*
X146133500Y-79899873D01*
X146133499Y-78604128D01*
X146127091Y-78544517D01*
X146076796Y-78409669D01*
X146076795Y-78409668D01*
X146076793Y-78409664D01*
X145990547Y-78294455D01*
X145872325Y-78205953D01*
X145830455Y-78150019D01*
X145825471Y-78080327D01*
X145858957Y-78019005D01*
X145872326Y-78007420D01*
X145990191Y-77919186D01*
X146076350Y-77804093D01*
X146076354Y-77804086D01*
X146126596Y-77669379D01*
X146126598Y-77669372D01*
X146132999Y-77609844D01*
X146133000Y-77609827D01*
X146133000Y-77212000D01*
X144007000Y-77212000D01*
X143939961Y-77192315D01*
X143894206Y-77139511D01*
X143883000Y-77088000D01*
X143883000Y-76836000D01*
X143902685Y-76768961D01*
X143955489Y-76723206D01*
X144007000Y-76712000D01*
X146133000Y-76712000D01*
X146133000Y-76314172D01*
X146132999Y-76314155D01*
X146126598Y-76254627D01*
X146126596Y-76254620D01*
X146076354Y-76119913D01*
X146076350Y-76119906D01*
X145990190Y-76004812D01*
X145990187Y-76004809D01*
X145872326Y-75916578D01*
X145830455Y-75860645D01*
X145825471Y-75790953D01*
X145858956Y-75729630D01*
X145872326Y-75718045D01*
X145875329Y-75715796D01*
X145875331Y-75715796D01*
X145990546Y-75629546D01*
X146076796Y-75514331D01*
X146127091Y-75379483D01*
X146133500Y-75319873D01*
X146133499Y-74024128D01*
X146127091Y-73964517D01*
X146102960Y-73899819D01*
X146076797Y-73829671D01*
X146076793Y-73829664D01*
X145990547Y-73714455D01*
X145990544Y-73714452D01*
X145875335Y-73628206D01*
X145875328Y-73628202D01*
X145797344Y-73599116D01*
X145741410Y-73557245D01*
X145716993Y-73491780D01*
X145731845Y-73423507D01*
X145781250Y-73374102D01*
X145827423Y-73359644D01*
X145860483Y-73356091D01*
X145995331Y-73305796D01*
X146110546Y-73219546D01*
X146196796Y-73104331D01*
X146196796Y-73104329D01*
X146198733Y-73101743D01*
X146254667Y-73059872D01*
X146324359Y-73054888D01*
X146385682Y-73088373D01*
X146397267Y-73101743D01*
X146399203Y-73104329D01*
X146399204Y-73104331D01*
X146485454Y-73219546D01*
X146500131Y-73230533D01*
X146600664Y-73305793D01*
X146600671Y-73305797D01*
X146735517Y-73356091D01*
X146735516Y-73356091D01*
X146742444Y-73356835D01*
X146795127Y-73362500D01*
X148090872Y-73362499D01*
X148150483Y-73356091D01*
X148285331Y-73305796D01*
X148400546Y-73219546D01*
X148486796Y-73104331D01*
X148486796Y-73104329D01*
X148488733Y-73101743D01*
X148544667Y-73059872D01*
X148614359Y-73054888D01*
X148675682Y-73088373D01*
X148687267Y-73101743D01*
X148689203Y-73104329D01*
X148689204Y-73104331D01*
X148775454Y-73219546D01*
X148790131Y-73230533D01*
X148890664Y-73305793D01*
X148890671Y-73305797D01*
X149025517Y-73356091D01*
X149025516Y-73356091D01*
X149032444Y-73356835D01*
X149085127Y-73362500D01*
X150380872Y-73362499D01*
X150440483Y-73356091D01*
X150575331Y-73305796D01*
X150690546Y-73219546D01*
X150776796Y-73104331D01*
X150827091Y-72969483D01*
X150833500Y-72909873D01*
X150833499Y-72430397D01*
X150853183Y-72363359D01*
X150866266Y-72346418D01*
X150921164Y-72286785D01*
X151057173Y-72078607D01*
X151157063Y-71850881D01*
X151218108Y-71609821D01*
X151233500Y-71424067D01*
X151233500Y-68811890D01*
X151253185Y-68744851D01*
X151305989Y-68699096D01*
X151375147Y-68689152D01*
X151438703Y-68718177D01*
G37*
%TD.AperFunction*%
%TA.AperFunction,Conductor*%
G36*
X152454141Y-47803337D02*
G01*
X152615687Y-47811804D01*
X152774238Y-47826672D01*
X152778109Y-47827159D01*
X152936856Y-47852302D01*
X152939722Y-47852828D01*
X153094301Y-47885081D01*
X153097628Y-47885873D01*
X153252899Y-47927478D01*
X153256176Y-47928455D01*
X153406166Y-47977810D01*
X153408939Y-47978799D01*
X153558942Y-48036379D01*
X153562555Y-48037900D01*
X153707336Y-48104316D01*
X153851438Y-48177740D01*
X153855243Y-48179853D01*
X153991818Y-48262146D01*
X154126911Y-48349877D01*
X154130860Y-48352668D01*
X154257817Y-48450085D01*
X154382179Y-48550791D01*
X154386176Y-48554323D01*
X154502384Y-48666264D01*
X154614276Y-48778156D01*
X154618169Y-48782432D01*
X154677845Y-48854456D01*
X154723394Y-48909432D01*
X154755020Y-48948487D01*
X154820459Y-49029299D01*
X154824149Y-49034358D01*
X154924875Y-49188198D01*
X154996753Y-49298881D01*
X154998443Y-49301637D01*
X156076015Y-51168047D01*
X161366223Y-60330956D01*
X161366608Y-60331493D01*
X161437438Y-60454177D01*
X161478167Y-60524723D01*
X161741195Y-60914686D01*
X161741809Y-60915596D01*
X162032064Y-61287111D01*
X162032064Y-61287110D01*
X162288987Y-61572457D01*
X162347529Y-61637476D01*
X162686662Y-61964980D01*
X162686663Y-61964981D01*
X162886075Y-62132310D01*
X163047826Y-62268037D01*
X163429246Y-62545160D01*
X163829067Y-62795000D01*
X163829072Y-62795003D01*
X163829073Y-62795003D01*
X164239462Y-63013215D01*
X164245351Y-63016346D01*
X164676034Y-63208103D01*
X164676035Y-63208103D01*
X164676044Y-63208107D01*
X164894976Y-63287794D01*
X165119072Y-63369361D01*
X165119073Y-63369361D01*
X165572272Y-63499317D01*
X165898572Y-63568676D01*
X166033436Y-63597344D01*
X166033435Y-63597344D01*
X166074697Y-63603142D01*
X166116881Y-63609071D01*
X166121235Y-63611043D01*
X166169974Y-63616533D01*
X166495045Y-63662222D01*
X166500313Y-63662963D01*
X166567655Y-63667671D01*
X166601605Y-63670046D01*
X166609621Y-63673021D01*
X166683878Y-63675800D01*
X166970619Y-63695853D01*
X166970620Y-63695853D01*
X167181586Y-63695853D01*
X167181590Y-63695854D01*
X167206253Y-63695854D01*
X167206352Y-63695854D01*
X167206852Y-63695854D01*
X173221195Y-63695854D01*
X173224497Y-63695942D01*
X173345041Y-63702370D01*
X173546396Y-63713934D01*
X173552686Y-63714621D01*
X173703472Y-63738924D01*
X173873840Y-63768538D01*
X173879518Y-63769803D01*
X174032488Y-63811536D01*
X174193203Y-63858940D01*
X174198240Y-63860665D01*
X174259072Y-63884459D01*
X174348242Y-63919339D01*
X174500667Y-63984062D01*
X174504988Y-63986099D01*
X174649134Y-64061032D01*
X174792382Y-64142342D01*
X174796026Y-64144581D01*
X174930966Y-64234136D01*
X174933194Y-64235688D01*
X175064886Y-64331908D01*
X175067877Y-64334238D01*
X175116101Y-64374237D01*
X175192671Y-64437750D01*
X175195137Y-64439909D01*
X175314810Y-64550442D01*
X175317175Y-64552746D01*
X175430237Y-64668921D01*
X175432809Y-64671732D01*
X175539144Y-64795355D01*
X175540918Y-64797514D01*
X175640829Y-64924852D01*
X175643375Y-64928341D01*
X175735785Y-65064686D01*
X175816818Y-65194293D01*
X175821906Y-65202430D01*
X175824298Y-65206609D01*
X175861430Y-65277773D01*
X175900891Y-65353402D01*
X175971266Y-65498263D01*
X175973389Y-65503158D01*
X176033398Y-65659640D01*
X176087113Y-65808780D01*
X176088832Y-65814364D01*
X176131863Y-65981859D01*
X176168039Y-66130212D01*
X176169224Y-66136442D01*
X176176721Y-66190921D01*
X176196648Y-66335741D01*
X176212650Y-66455663D01*
X176213045Y-66459560D01*
X176350277Y-68431619D01*
X176426136Y-69957117D01*
X176448977Y-70421987D01*
X176488717Y-71750776D01*
X176508054Y-72419481D01*
X176520612Y-73661709D01*
X176527207Y-74417702D01*
X176515644Y-75612214D01*
X176506434Y-76415828D01*
X176472123Y-77579783D01*
X176445741Y-78413156D01*
X176389446Y-79555109D01*
X176345153Y-80408910D01*
X176267326Y-81534277D01*
X176204718Y-82402145D01*
X176105635Y-83514551D01*
X176024489Y-84392158D01*
X175904393Y-85493406D01*
X175804533Y-86378217D01*
X175663598Y-87469686D01*
X175544951Y-88359413D01*
X175383310Y-89442086D01*
X175245836Y-90335042D01*
X175063621Y-91409478D01*
X174907318Y-92304255D01*
X174704620Y-93370973D01*
X174529542Y-94266232D01*
X174306437Y-95325590D01*
X174112646Y-96220266D01*
X173869261Y-97272242D01*
X173656803Y-98165557D01*
X173393215Y-99210269D01*
X173162208Y-100101278D01*
X172878505Y-101138721D01*
X172629048Y-102026716D01*
X172325346Y-103056734D01*
X172057537Y-103941096D01*
X171733927Y-104963592D01*
X171447918Y-105843616D01*
X171104511Y-106858409D01*
X170800440Y-107733513D01*
X170437301Y-108740533D01*
X170115350Y-109610073D01*
X169732621Y-110609017D01*
X169392960Y-111472458D01*
X168990679Y-112463286D01*
X168633529Y-113320010D01*
X168211852Y-114302379D01*
X167837379Y-115151954D01*
X167396378Y-116125715D01*
X167004848Y-116967528D01*
X166544642Y-117932421D01*
X166136244Y-118766074D01*
X165656945Y-119721851D01*
X165231971Y-120546766D01*
X164733629Y-121493297D01*
X164292383Y-122308929D01*
X163775116Y-123245946D01*
X163317868Y-124051854D01*
X162781696Y-124979253D01*
X162308902Y-125774712D01*
X161753835Y-126692394D01*
X161265784Y-127477021D01*
X160691981Y-128384625D01*
X160188996Y-129158006D01*
X159596486Y-130055380D01*
X159079087Y-130816845D01*
X158467779Y-131703996D01*
X157936485Y-132452933D01*
X157306375Y-133329717D01*
X156761697Y-134065584D01*
X156112679Y-134931973D01*
X155555295Y-135654060D01*
X154887195Y-136510083D01*
X154317864Y-137217648D01*
X153630407Y-138063420D01*
X153049939Y-138755738D01*
X152342844Y-139591329D01*
X151752324Y-140267437D01*
X151024953Y-141093278D01*
X150425690Y-141752071D01*
X149677359Y-142568553D01*
X149071035Y-143208662D01*
X148300464Y-144016708D01*
X147689514Y-144636166D01*
X146894959Y-145437016D01*
X146282477Y-146033454D01*
X145461281Y-146829032D01*
X144852309Y-147398562D01*
X144000111Y-148192095D01*
X143402348Y-148728939D01*
X142511953Y-149525732D01*
X141939876Y-150019015D01*
X140997468Y-150829350D01*
X140482212Y-151255814D01*
X139457189Y-152102489D01*
X139092412Y-152392201D01*
X137896093Y-153341178D01*
X136323352Y-154538819D01*
X136320058Y-154541162D01*
X136185842Y-154630180D01*
X136043961Y-154723657D01*
X136038205Y-154727021D01*
X135891389Y-154802535D01*
X135740748Y-154878359D01*
X135734969Y-154880907D01*
X135578553Y-154940581D01*
X135422005Y-154997710D01*
X135416319Y-154999480D01*
X135253226Y-155041799D01*
X135215079Y-155050873D01*
X135091866Y-155080178D01*
X135086371Y-155081226D01*
X134918908Y-155105387D01*
X134754537Y-155124723D01*
X134749319Y-155125114D01*
X134579760Y-155130662D01*
X134414362Y-155130777D01*
X134409493Y-155130589D01*
X134240000Y-155117362D01*
X134075727Y-155098268D01*
X134071268Y-155097585D01*
X133903969Y-155065676D01*
X133742986Y-155027622D01*
X133738982Y-155026533D01*
X133577448Y-154976733D01*
X133574540Y-154975757D01*
X133420402Y-154919750D01*
X133416882Y-154918348D01*
X133261791Y-154851007D01*
X133258685Y-154849555D01*
X133112126Y-154776040D01*
X133109106Y-154774419D01*
X132962387Y-154690371D01*
X132959158Y-154688388D01*
X132822106Y-154598333D01*
X132819586Y-154596586D01*
X132683079Y-154496888D01*
X132679825Y-154494341D01*
X132608831Y-154434816D01*
X132553052Y-154388049D01*
X132427427Y-154273021D01*
X132424230Y-154269872D01*
X132310712Y-154149632D01*
X132198730Y-154021648D01*
X132195668Y-154017858D01*
X132096891Y-153885256D01*
X131999933Y-153746006D01*
X131997133Y-153741601D01*
X131914342Y-153598281D01*
X131833577Y-153449611D01*
X131831132Y-153444581D01*
X131765416Y-153292312D01*
X131713824Y-153165744D01*
X131701797Y-153136237D01*
X131699823Y-153130642D01*
X131652027Y-152971070D01*
X131606310Y-152809949D01*
X131604901Y-152803813D01*
X131575609Y-152637771D01*
X131548341Y-152474903D01*
X131547596Y-152468283D01*
X131537151Y-152289063D01*
X131536114Y-152270334D01*
X133017900Y-152270334D01*
X133058829Y-152515616D01*
X133139569Y-152750802D01*
X133139572Y-152750811D01*
X133171576Y-152809949D01*
X133257926Y-152969509D01*
X133410662Y-153165744D01*
X133524045Y-153270120D01*
X133593617Y-153334166D01*
X133801793Y-153470173D01*
X134029518Y-153570063D01*
X134140846Y-153598255D01*
X134270579Y-153631108D01*
X134270581Y-153631108D01*
X134270586Y-153631109D01*
X134403776Y-153642145D01*
X134456333Y-153646500D01*
X134456335Y-153646500D01*
X134580465Y-153646500D01*
X134580467Y-153646500D01*
X134641684Y-153641427D01*
X134766213Y-153631109D01*
X134766216Y-153631108D01*
X134766221Y-153631108D01*
X135007281Y-153570063D01*
X135235007Y-153470173D01*
X135443185Y-153334164D01*
X135626138Y-153165744D01*
X135778874Y-152969509D01*
X135897228Y-152750810D01*
X135977971Y-152515614D01*
X136018900Y-152270335D01*
X136018900Y-152021665D01*
X135977971Y-151776386D01*
X135897228Y-151541190D01*
X135778874Y-151322491D01*
X135626138Y-151126256D01*
X135443185Y-150957836D01*
X135443182Y-150957833D01*
X135235006Y-150821826D01*
X135007281Y-150721936D01*
X134766224Y-150660892D01*
X134766213Y-150660890D01*
X134600948Y-150647197D01*
X134580467Y-150645500D01*
X134456333Y-150645500D01*
X134436921Y-150647108D01*
X134270586Y-150660890D01*
X134270575Y-150660892D01*
X134029518Y-150721936D01*
X133801793Y-150821826D01*
X133593617Y-150957833D01*
X133410661Y-151126257D01*
X133257924Y-151322493D01*
X133139572Y-151541188D01*
X133139569Y-151541197D01*
X133058829Y-151776383D01*
X133017900Y-152021665D01*
X133017900Y-152270334D01*
X131536114Y-152270334D01*
X131528816Y-152138493D01*
X131528722Y-152135074D01*
X131528722Y-143653601D01*
X132239174Y-143653601D01*
X132258052Y-143917560D01*
X132314300Y-144176128D01*
X132406784Y-144424087D01*
X132533601Y-144656335D01*
X132533606Y-144656343D01*
X132620938Y-144773006D01*
X132620939Y-144773006D01*
X133342666Y-144051279D01*
X133386216Y-144133422D01*
X133505909Y-144274335D01*
X133653095Y-144386223D01*
X133695302Y-144405750D01*
X132974492Y-145126559D01*
X132974493Y-145126560D01*
X133091156Y-145213893D01*
X133091164Y-145213898D01*
X133323413Y-145340715D01*
X133323412Y-145340715D01*
X133571371Y-145433199D01*
X133829939Y-145489447D01*
X134093899Y-145508326D01*
X134093901Y-145508326D01*
X134357860Y-145489447D01*
X134616428Y-145433199D01*
X134864387Y-145340715D01*
X135096635Y-145213898D01*
X135096636Y-145213897D01*
X135213306Y-145126559D01*
X134890362Y-144803615D01*
X136203400Y-144803615D01*
X136213900Y-144906395D01*
X136213901Y-144906396D01*
X136269086Y-145072935D01*
X136269087Y-145072937D01*
X136361186Y-145222251D01*
X136361189Y-145222255D01*
X136485244Y-145346310D01*
X136485248Y-145346313D01*
X136634562Y-145438412D01*
X136634564Y-145438413D01*
X136634566Y-145438414D01*
X136801103Y-145493599D01*
X136903892Y-145504100D01*
X136903897Y-145504100D01*
X139203903Y-145504100D01*
X139203908Y-145504100D01*
X139306697Y-145493599D01*
X139473234Y-145438414D01*
X139622555Y-145346311D01*
X139746611Y-145222255D01*
X139838714Y-145072934D01*
X139893899Y-144906397D01*
X139904400Y-144803608D01*
X139904400Y-142503592D01*
X139893899Y-142400803D01*
X139838714Y-142234266D01*
X139805636Y-142180639D01*
X139746613Y-142084948D01*
X139746610Y-142084944D01*
X139622555Y-141960889D01*
X139622551Y-141960886D01*
X139473237Y-141868787D01*
X139473235Y-141868786D01*
X139389965Y-141841193D01*
X139306697Y-141813601D01*
X139306695Y-141813600D01*
X139203915Y-141803100D01*
X139203908Y-141803100D01*
X136903892Y-141803100D01*
X136903884Y-141803100D01*
X136801104Y-141813600D01*
X136801103Y-141813601D01*
X136634564Y-141868786D01*
X136634562Y-141868787D01*
X136485248Y-141960886D01*
X136485244Y-141960889D01*
X136361189Y-142084944D01*
X136361186Y-142084948D01*
X136269087Y-142234262D01*
X136269086Y-142234264D01*
X136213901Y-142400803D01*
X136213900Y-142400804D01*
X136203400Y-142503584D01*
X136203400Y-144803615D01*
X134890362Y-144803615D01*
X134492509Y-144405761D01*
X134611331Y-144334269D01*
X134745558Y-144207123D01*
X134848761Y-144054908D01*
X135566859Y-144773006D01*
X135654197Y-144656336D01*
X135654198Y-144656335D01*
X135781015Y-144424087D01*
X135873499Y-144176128D01*
X135929747Y-143917560D01*
X135948626Y-143653601D01*
X135948626Y-143653598D01*
X135929747Y-143389639D01*
X135873499Y-143131071D01*
X135781015Y-142883112D01*
X135654198Y-142650864D01*
X135654193Y-142650856D01*
X135566860Y-142534193D01*
X135566859Y-142534192D01*
X134845132Y-143255919D01*
X134801584Y-143173778D01*
X134681891Y-143032865D01*
X134534705Y-142920977D01*
X134492496Y-142901449D01*
X135213306Y-142180639D01*
X135213306Y-142180638D01*
X135096643Y-142093306D01*
X135096635Y-142093301D01*
X134864386Y-141966484D01*
X134864387Y-141966484D01*
X134616428Y-141874000D01*
X134357860Y-141817752D01*
X134093901Y-141798874D01*
X134093899Y-141798874D01*
X133829939Y-141817752D01*
X133571371Y-141874000D01*
X133323412Y-141966484D01*
X133091164Y-142093301D01*
X132974493Y-142180639D01*
X133695291Y-142901437D01*
X133576469Y-142972931D01*
X133442242Y-143100077D01*
X133339038Y-143252292D01*
X132620939Y-142534193D01*
X132533601Y-142650864D01*
X132406784Y-142883112D01*
X132314300Y-143131071D01*
X132258052Y-143389639D01*
X132239174Y-143653598D01*
X132239174Y-143653601D01*
X131528722Y-143653601D01*
X131528722Y-136334502D01*
X132299034Y-136334502D01*
X132318858Y-136561099D01*
X132318860Y-136561110D01*
X132377730Y-136780817D01*
X132377734Y-136780826D01*
X132473865Y-136986981D01*
X132473866Y-136986983D01*
X132524973Y-137059971D01*
X132524974Y-137059972D01*
X133206046Y-136378899D01*
X133218835Y-136459648D01*
X133276359Y-136572545D01*
X133365955Y-136662141D01*
X133478852Y-136719665D01*
X133559599Y-136732453D01*
X132878526Y-137413525D01*
X132878526Y-137413526D01*
X132951512Y-137464631D01*
X132951516Y-137464633D01*
X133157673Y-137560765D01*
X133157682Y-137560769D01*
X133377389Y-137619639D01*
X133377400Y-137619641D01*
X133603998Y-137639466D01*
X133604002Y-137639466D01*
X133830599Y-137619641D01*
X133830610Y-137619639D01*
X134050317Y-137560769D01*
X134050331Y-137560764D01*
X134256478Y-137464636D01*
X134329472Y-137413525D01*
X133648401Y-136732453D01*
X133729148Y-136719665D01*
X133842045Y-136662141D01*
X133931641Y-136572545D01*
X133989165Y-136459648D01*
X134001953Y-136378900D01*
X134683025Y-137059972D01*
X134734136Y-136986978D01*
X134830264Y-136780831D01*
X134830269Y-136780817D01*
X134889139Y-136561110D01*
X134889141Y-136561099D01*
X134908966Y-136334502D01*
X134908966Y-136334497D01*
X134889141Y-136107900D01*
X134889139Y-136107889D01*
X134830269Y-135888182D01*
X134830265Y-135888173D01*
X134734133Y-135682016D01*
X134734131Y-135682012D01*
X134683026Y-135609026D01*
X134683025Y-135609026D01*
X134001953Y-136290098D01*
X133989165Y-136209352D01*
X133931641Y-136096455D01*
X133842045Y-136006859D01*
X133729148Y-135949335D01*
X133648400Y-135936546D01*
X134329472Y-135255474D01*
X134329471Y-135255473D01*
X134256483Y-135204366D01*
X134256481Y-135204365D01*
X134050326Y-135108234D01*
X134050317Y-135108230D01*
X133830610Y-135049360D01*
X133830599Y-135049358D01*
X133604002Y-135029534D01*
X133603998Y-135029534D01*
X133377400Y-135049358D01*
X133377389Y-135049360D01*
X133157682Y-135108230D01*
X133157673Y-135108234D01*
X132951513Y-135204368D01*
X132878527Y-135255472D01*
X132878526Y-135255473D01*
X133559600Y-135936546D01*
X133478852Y-135949335D01*
X133365955Y-136006859D01*
X133276359Y-136096455D01*
X133218835Y-136209352D01*
X133206046Y-136290099D01*
X132524973Y-135609026D01*
X132524972Y-135609027D01*
X132473868Y-135682013D01*
X132377734Y-135888173D01*
X132377730Y-135888182D01*
X132318860Y-136107889D01*
X132318858Y-136107900D01*
X132299034Y-136334497D01*
X132299034Y-136334502D01*
X131528722Y-136334502D01*
X131528722Y-131696335D01*
X132675000Y-131696335D01*
X132688643Y-131778094D01*
X132715929Y-131941616D01*
X132796669Y-132176802D01*
X132796672Y-132176811D01*
X132907743Y-132382052D01*
X132915026Y-132395509D01*
X133067762Y-132591744D01*
X133227244Y-132738557D01*
X133250717Y-132760166D01*
X133458893Y-132896173D01*
X133686618Y-132996063D01*
X133927675Y-133057107D01*
X133927679Y-133057108D01*
X133927681Y-133057108D01*
X133927686Y-133057109D01*
X134060876Y-133068145D01*
X134113433Y-133072500D01*
X134113435Y-133072500D01*
X134237565Y-133072500D01*
X134237567Y-133072500D01*
X134298784Y-133067427D01*
X134423313Y-133057109D01*
X134423316Y-133057108D01*
X134423321Y-133057108D01*
X134664381Y-132996063D01*
X134892107Y-132896173D01*
X135100285Y-132760164D01*
X135283238Y-132591744D01*
X135435974Y-132395509D01*
X135554328Y-132176810D01*
X135635071Y-131941614D01*
X135676000Y-131696335D01*
X135676000Y-131447665D01*
X135635071Y-131202386D01*
X135554328Y-130967190D01*
X135435974Y-130748491D01*
X135283238Y-130552256D01*
X135100285Y-130383836D01*
X135100282Y-130383833D01*
X134892106Y-130247826D01*
X134664381Y-130147936D01*
X134423324Y-130086892D01*
X134423313Y-130086890D01*
X134258048Y-130073197D01*
X134237567Y-130071500D01*
X134113433Y-130071500D01*
X134094021Y-130073108D01*
X133927686Y-130086890D01*
X133927675Y-130086892D01*
X133686618Y-130147936D01*
X133458893Y-130247826D01*
X133250717Y-130383833D01*
X133067761Y-130552257D01*
X132915024Y-130748493D01*
X132796672Y-130967188D01*
X132796669Y-130967197D01*
X132715929Y-131202383D01*
X132681634Y-131407908D01*
X132675000Y-131447665D01*
X132675000Y-131696335D01*
X131528722Y-131696335D01*
X131528722Y-96837502D01*
X132299034Y-96837502D01*
X132318858Y-97064099D01*
X132318860Y-97064110D01*
X132377730Y-97283817D01*
X132377734Y-97283826D01*
X132473865Y-97489981D01*
X132473866Y-97489983D01*
X132524973Y-97562971D01*
X132524974Y-97562972D01*
X133206046Y-96881899D01*
X133218835Y-96962648D01*
X133276359Y-97075545D01*
X133365955Y-97165141D01*
X133478852Y-97222665D01*
X133559599Y-97235453D01*
X132878526Y-97916525D01*
X132878526Y-97916526D01*
X132951512Y-97967631D01*
X132951516Y-97967633D01*
X133157673Y-98063765D01*
X133157682Y-98063769D01*
X133377389Y-98122639D01*
X133377400Y-98122641D01*
X133603998Y-98142466D01*
X133604002Y-98142466D01*
X133830599Y-98122641D01*
X133830610Y-98122639D01*
X134050317Y-98063769D01*
X134050331Y-98063764D01*
X134256478Y-97967636D01*
X134329472Y-97916525D01*
X133648401Y-97235453D01*
X133729148Y-97222665D01*
X133842045Y-97165141D01*
X133931641Y-97075545D01*
X133989165Y-96962648D01*
X134001953Y-96881900D01*
X134683025Y-97562972D01*
X134734136Y-97489978D01*
X134830264Y-97283831D01*
X134830269Y-97283817D01*
X134889139Y-97064110D01*
X134889141Y-97064099D01*
X134908966Y-96837502D01*
X134908966Y-96837497D01*
X134889141Y-96610900D01*
X134889139Y-96610889D01*
X134830269Y-96391182D01*
X134830265Y-96391173D01*
X134734133Y-96185016D01*
X134734131Y-96185012D01*
X134683026Y-96112026D01*
X134683025Y-96112026D01*
X134001953Y-96793098D01*
X133989165Y-96712352D01*
X133931641Y-96599455D01*
X133842045Y-96509859D01*
X133729148Y-96452335D01*
X133648400Y-96439546D01*
X134329472Y-95758474D01*
X134329471Y-95758473D01*
X134256483Y-95707366D01*
X134256481Y-95707365D01*
X134050326Y-95611234D01*
X134050317Y-95611230D01*
X133830610Y-95552360D01*
X133830599Y-95552358D01*
X133604002Y-95532534D01*
X133603998Y-95532534D01*
X133377400Y-95552358D01*
X133377389Y-95552360D01*
X133157682Y-95611230D01*
X133157673Y-95611234D01*
X132951513Y-95707368D01*
X132878527Y-95758472D01*
X132878526Y-95758473D01*
X133559600Y-96439546D01*
X133478852Y-96452335D01*
X133365955Y-96509859D01*
X133276359Y-96599455D01*
X133218835Y-96712352D01*
X133206046Y-96793099D01*
X132524973Y-96112026D01*
X132524972Y-96112027D01*
X132473868Y-96185013D01*
X132377734Y-96391173D01*
X132377730Y-96391182D01*
X132318860Y-96610889D01*
X132318858Y-96610900D01*
X132299034Y-96837497D01*
X132299034Y-96837502D01*
X131528722Y-96837502D01*
X131528722Y-91182000D01*
X133162592Y-91182000D01*
X133174430Y-91317315D01*
X133174432Y-91317326D01*
X133235566Y-91545483D01*
X133235570Y-91545492D01*
X133335399Y-91759577D01*
X133335400Y-91759579D01*
X133470886Y-91953073D01*
X133470891Y-91953079D01*
X133637917Y-92120105D01*
X133831421Y-92255600D01*
X134045507Y-92355429D01*
X134045516Y-92355433D01*
X134259000Y-92412634D01*
X134259000Y-91367501D01*
X134366685Y-91416680D01*
X134473237Y-91432000D01*
X134544763Y-91432000D01*
X134651315Y-91416680D01*
X134759000Y-91367501D01*
X134759000Y-92412633D01*
X134972483Y-92355433D01*
X134972492Y-92355429D01*
X135186575Y-92255601D01*
X135313376Y-92166814D01*
X135379582Y-92144487D01*
X135447350Y-92161497D01*
X135495163Y-92212445D01*
X135508500Y-92268389D01*
X135508500Y-92423651D01*
X135508024Y-92431326D01*
X135504643Y-92458449D01*
X135508500Y-92551705D01*
X135508500Y-122494481D01*
X135508024Y-122502156D01*
X135504643Y-122529279D01*
X135508500Y-122622535D01*
X135508500Y-126802781D01*
X135508024Y-126810456D01*
X135504643Y-126837579D01*
X135508500Y-126930835D01*
X135508500Y-126961864D01*
X135511062Y-126992790D01*
X135514918Y-127086033D01*
X135520526Y-127112783D01*
X135521635Y-127120390D01*
X135523891Y-127147618D01*
X135523891Y-127147619D01*
X135523892Y-127147621D01*
X135546801Y-127238088D01*
X135565951Y-127329414D01*
X135565952Y-127329416D01*
X135575882Y-127354867D01*
X135578227Y-127362187D01*
X135584937Y-127388681D01*
X135622420Y-127474135D01*
X135656344Y-127561075D01*
X135670332Y-127584550D01*
X135673852Y-127591388D01*
X135684825Y-127616404D01*
X135684827Y-127616407D01*
X135735860Y-127694520D01*
X135783634Y-127774694D01*
X135801296Y-127795547D01*
X135805887Y-127801704D01*
X135820836Y-127824585D01*
X135820837Y-127824586D01*
X135884033Y-127893235D01*
X135904100Y-127916929D01*
X135926049Y-127938878D01*
X135989257Y-128007539D01*
X136010822Y-128024324D01*
X136016587Y-128029415D01*
X136534251Y-128547079D01*
X136597455Y-128615738D01*
X136611458Y-128626635D01*
X136619023Y-128632523D01*
X136624786Y-128637613D01*
X137070993Y-129083820D01*
X137071015Y-129083844D01*
X137093049Y-129105878D01*
X137156257Y-129174539D01*
X137177822Y-129191324D01*
X137183587Y-129196415D01*
X138363051Y-130375879D01*
X138426255Y-130444538D01*
X138440258Y-130455435D01*
X138447823Y-130461323D01*
X138453586Y-130466413D01*
X138900592Y-130913419D01*
X138905676Y-130919177D01*
X138922458Y-130940739D01*
X138922465Y-130940747D01*
X138991116Y-131003944D01*
X139395081Y-131407908D01*
X139428566Y-131469231D01*
X139431400Y-131495589D01*
X139431400Y-136262881D01*
X139430924Y-136270556D01*
X139427543Y-136297679D01*
X139431400Y-136390935D01*
X139431400Y-136458835D01*
X139434499Y-136477408D01*
X139435292Y-136485055D01*
X139437818Y-136546134D01*
X139443426Y-136572882D01*
X139444535Y-136580490D01*
X139446791Y-136607718D01*
X139446791Y-136607719D01*
X139467396Y-136689084D01*
X139469701Y-136698188D01*
X139488851Y-136789514D01*
X139488852Y-136789516D01*
X139498782Y-136814967D01*
X139501127Y-136822287D01*
X139501709Y-136824586D01*
X139507837Y-136848781D01*
X139534611Y-136909821D01*
X139545320Y-136934235D01*
X139579244Y-137021175D01*
X139593232Y-137044650D01*
X139596752Y-137051488D01*
X139607725Y-137076504D01*
X139607727Y-137076507D01*
X139658760Y-137154620D01*
X139706534Y-137234794D01*
X139724196Y-137255647D01*
X139728787Y-137261804D01*
X139743736Y-137284685D01*
X139743737Y-137284686D01*
X139806933Y-137353335D01*
X139827000Y-137377029D01*
X139848949Y-137398978D01*
X139912157Y-137467639D01*
X139933722Y-137484424D01*
X139939487Y-137489515D01*
X143645384Y-141195412D01*
X143650473Y-141201174D01*
X143667262Y-141222744D01*
X143667264Y-141222746D01*
X143667265Y-141222747D01*
X143735921Y-141285950D01*
X143757866Y-141307894D01*
X143757874Y-141307902D01*
X143781564Y-141327966D01*
X143850215Y-141391164D01*
X143850217Y-141391165D01*
X143850218Y-141391166D01*
X143873086Y-141406106D01*
X143879250Y-141410702D01*
X143900106Y-141428366D01*
X143900113Y-141428370D01*
X143980278Y-141476139D01*
X144031312Y-141509480D01*
X144058393Y-141527173D01*
X144083412Y-141538147D01*
X144090243Y-141541663D01*
X144103657Y-141549656D01*
X144113720Y-141555653D01*
X144113730Y-141555658D01*
X144200663Y-141589579D01*
X144238147Y-141606020D01*
X144286119Y-141627063D01*
X144310908Y-141633340D01*
X144312609Y-141633771D01*
X144319932Y-141636116D01*
X144345386Y-141646049D01*
X144436702Y-141665196D01*
X144527179Y-141688108D01*
X144554415Y-141690364D01*
X144562018Y-141691471D01*
X144588763Y-141697080D01*
X144619840Y-141698365D01*
X144681992Y-141700936D01*
X144684699Y-141701160D01*
X144699722Y-141702405D01*
X144764904Y-141727557D01*
X144806143Y-141783958D01*
X144810343Y-141853701D01*
X144791056Y-141897104D01*
X144673200Y-142065420D01*
X144673199Y-142065422D01*
X144573370Y-142279507D01*
X144573367Y-142279513D01*
X144516164Y-142492999D01*
X144516164Y-142493000D01*
X145413114Y-142493000D01*
X145387307Y-142533156D01*
X145346800Y-142671111D01*
X145346800Y-142814889D01*
X145387307Y-142952844D01*
X145413114Y-142993000D01*
X144516164Y-142993000D01*
X144573367Y-143206486D01*
X144573370Y-143206492D01*
X144673199Y-143420578D01*
X144808694Y-143614082D01*
X144975717Y-143781105D01*
X145169221Y-143916600D01*
X145383307Y-144016429D01*
X145383316Y-144016433D01*
X145596800Y-144073634D01*
X145596800Y-143178501D01*
X145704485Y-143227680D01*
X145811037Y-143243000D01*
X145882563Y-143243000D01*
X145989115Y-143227680D01*
X146096800Y-143178501D01*
X146096800Y-144073633D01*
X146310283Y-144016433D01*
X146310292Y-144016429D01*
X146524378Y-143916600D01*
X146717882Y-143781105D01*
X146884905Y-143614082D01*
X147020400Y-143420578D01*
X147120229Y-143206492D01*
X147120232Y-143206486D01*
X147177436Y-142993000D01*
X146280486Y-142993000D01*
X146306293Y-142952844D01*
X146346800Y-142814889D01*
X146346800Y-142671111D01*
X146306293Y-142533156D01*
X146280486Y-142493000D01*
X147177436Y-142493000D01*
X147177435Y-142492999D01*
X147120232Y-142279513D01*
X147120229Y-142279507D01*
X147020400Y-142065422D01*
X147020399Y-142065420D01*
X146901127Y-141895081D01*
X146878800Y-141828875D01*
X146895810Y-141761108D01*
X146946758Y-141713295D01*
X146997576Y-141700065D01*
X147069737Y-141697081D01*
X147096482Y-141691472D01*
X147104082Y-141690364D01*
X147131321Y-141688108D01*
X147131324Y-141688107D01*
X147131326Y-141688107D01*
X147131329Y-141688106D01*
X147221788Y-141665198D01*
X147221798Y-141665196D01*
X147313114Y-141646049D01*
X147338577Y-141636112D01*
X147345874Y-141633774D01*
X147372381Y-141627063D01*
X147457835Y-141589579D01*
X147544774Y-141555656D01*
X147568261Y-141541659D01*
X147575081Y-141538149D01*
X147600107Y-141527173D01*
X147678220Y-141476139D01*
X147758394Y-141428366D01*
X147779254Y-141410697D01*
X147785394Y-141406117D01*
X147808285Y-141391164D01*
X147876935Y-141327966D01*
X147900626Y-141307902D01*
X147922578Y-141285949D01*
X147991238Y-141222744D01*
X148008030Y-141201167D01*
X148013104Y-141195422D01*
X151791078Y-137417449D01*
X151859738Y-137354244D01*
X151876534Y-137332663D01*
X151881602Y-137326923D01*
X151900932Y-137307595D01*
X151935636Y-137258986D01*
X151938747Y-137254988D01*
X151977366Y-137209394D01*
X151991354Y-137185917D01*
X151995685Y-137179578D01*
X152012474Y-137158009D01*
X152025487Y-137133961D01*
X152029540Y-137127468D01*
X152045429Y-137105216D01*
X152071666Y-137051544D01*
X152074077Y-137047089D01*
X152104656Y-136995774D01*
X152114588Y-136970316D01*
X152117818Y-136963349D01*
X152130828Y-136939310D01*
X152139703Y-136913455D01*
X152142639Y-136906367D01*
X152154644Y-136881813D01*
X152171684Y-136824573D01*
X152173340Y-136819747D01*
X152195049Y-136764114D01*
X152195049Y-136764112D01*
X152195051Y-136764108D01*
X152200654Y-136737382D01*
X152202696Y-136729964D01*
X152211571Y-136704114D01*
X152216068Y-136677159D01*
X152217803Y-136669662D01*
X152225596Y-136643487D01*
X152225598Y-136643481D01*
X152232984Y-136584221D01*
X152233827Y-136579171D01*
X152240754Y-136546134D01*
X152246080Y-136520737D01*
X152247208Y-136493433D01*
X152247999Y-136485802D01*
X152252500Y-136458835D01*
X152252500Y-136431518D01*
X152252977Y-136423842D01*
X152254276Y-136413414D01*
X152256357Y-136396721D01*
X152253889Y-136337062D01*
X152253889Y-136331936D01*
X152255306Y-136297679D01*
X152256357Y-136272279D01*
X152252975Y-136245153D01*
X152252500Y-136237481D01*
X152252500Y-136210169D01*
X152252500Y-136210165D01*
X152247999Y-136183198D01*
X152247208Y-136175563D01*
X152246080Y-136148263D01*
X152236426Y-136102227D01*
X152233827Y-136089827D01*
X152232983Y-136084770D01*
X152225598Y-136025519D01*
X152217803Y-135999338D01*
X152216068Y-135991841D01*
X152211572Y-135964892D01*
X152211571Y-135964886D01*
X152202696Y-135939036D01*
X152200657Y-135931632D01*
X152195049Y-135904886D01*
X152173340Y-135849251D01*
X152171690Y-135844443D01*
X152161210Y-135809243D01*
X152154646Y-135787192D01*
X152142645Y-135762644D01*
X152139704Y-135755546D01*
X152130828Y-135729690D01*
X152117816Y-135705647D01*
X152114586Y-135698678D01*
X152104655Y-135673226D01*
X152074090Y-135621932D01*
X152071662Y-135617447D01*
X152045429Y-135563784D01*
X152029553Y-135541548D01*
X152025481Y-135535025D01*
X152012477Y-135510996D01*
X152012475Y-135510994D01*
X152012474Y-135510991D01*
X152003864Y-135499929D01*
X151995689Y-135489425D01*
X151991353Y-135483080D01*
X151977366Y-135459606D01*
X151938762Y-135414027D01*
X151935621Y-135409990D01*
X151900929Y-135361401D01*
X151881618Y-135342090D01*
X151876527Y-135336326D01*
X151859741Y-135314760D01*
X151859740Y-135314758D01*
X151791066Y-135251539D01*
X151725095Y-135185568D01*
X149805476Y-133265948D01*
X149761446Y-133221918D01*
X148967276Y-132427748D01*
X148935034Y-132395506D01*
X148921623Y-132382094D01*
X148921593Y-132382066D01*
X147377956Y-130838428D01*
X147372873Y-130832672D01*
X147356088Y-130811106D01*
X147356085Y-130811103D01*
X147312158Y-130770665D01*
X147308533Y-130767040D01*
X147268097Y-130723115D01*
X147268089Y-130723108D01*
X147246527Y-130706326D01*
X147240769Y-130701242D01*
X145676156Y-129136628D01*
X145671073Y-129130872D01*
X145654288Y-129109306D01*
X145654285Y-129109303D01*
X145610358Y-129068865D01*
X145606733Y-129065240D01*
X145566297Y-129021315D01*
X145566296Y-129021314D01*
X145566294Y-129021312D01*
X145544724Y-129004523D01*
X145538962Y-128999434D01*
X140220819Y-123681291D01*
X140187334Y-123619968D01*
X140184500Y-123593610D01*
X140184500Y-123006987D01*
X142239500Y-123006987D01*
X142239509Y-123007086D01*
X142239509Y-123074526D01*
X142264142Y-123230071D01*
X142312802Y-123379838D01*
X142384298Y-123520163D01*
X142426729Y-123578564D01*
X142476862Y-123647568D01*
X142476864Y-123647570D01*
X142525395Y-123696101D01*
X142525408Y-123696116D01*
X149496235Y-130666943D01*
X149496323Y-130667105D01*
X149596867Y-130767479D01*
X149596870Y-130767481D01*
X149596871Y-130767482D01*
X149746507Y-130870770D01*
X149912310Y-130945394D01*
X150088848Y-130988907D01*
X150270339Y-130999886D01*
X150450835Y-130977970D01*
X150450845Y-130977967D01*
X150624416Y-130923880D01*
X150624420Y-130923878D01*
X150624424Y-130923877D01*
X150785419Y-130839379D01*
X150928546Y-130727246D01*
X151049116Y-130591149D01*
X151143178Y-130435548D01*
X151207651Y-130265541D01*
X151240423Y-130086697D01*
X151240500Y-129995786D01*
X151240500Y-129995286D01*
X151240500Y-105409901D01*
X151240500Y-105322468D01*
X151210101Y-105150062D01*
X151150225Y-104985555D01*
X151062692Y-104833945D01*
X151062691Y-104833943D01*
X151062690Y-104833942D01*
X150950163Y-104699836D01*
X150816057Y-104587309D01*
X150664446Y-104499775D01*
X150499937Y-104439898D01*
X150327534Y-104409500D01*
X150327532Y-104409500D01*
X150240099Y-104409500D01*
X143240500Y-104409500D01*
X143240000Y-104409500D01*
X143152468Y-104409500D01*
X143152465Y-104409500D01*
X142980062Y-104439898D01*
X142815553Y-104499775D01*
X142663942Y-104587309D01*
X142529836Y-104699836D01*
X142417309Y-104833942D01*
X142329775Y-104985553D01*
X142269898Y-105150062D01*
X142239500Y-105322465D01*
X142239500Y-123006987D01*
X140184500Y-123006987D01*
X140184500Y-101724334D01*
X148677000Y-101724334D01*
X148717929Y-101969616D01*
X148798669Y-102204802D01*
X148798672Y-102204811D01*
X148917024Y-102423506D01*
X148917026Y-102423509D01*
X149069762Y-102619744D01*
X149229244Y-102766557D01*
X149252717Y-102788166D01*
X149460893Y-102924173D01*
X149688618Y-103024063D01*
X149817633Y-103056734D01*
X149929679Y-103085108D01*
X149929681Y-103085108D01*
X149929686Y-103085109D01*
X150062876Y-103096145D01*
X150115433Y-103100500D01*
X150115435Y-103100500D01*
X150239565Y-103100500D01*
X150239567Y-103100500D01*
X150300784Y-103095427D01*
X150425313Y-103085109D01*
X150425316Y-103085108D01*
X150425321Y-103085108D01*
X150666381Y-103024063D01*
X150894107Y-102924173D01*
X151102285Y-102788164D01*
X151285238Y-102619744D01*
X151437974Y-102423509D01*
X151556328Y-102204810D01*
X151637071Y-101969614D01*
X151678000Y-101724335D01*
X151678000Y-101475665D01*
X151637071Y-101230386D01*
X151556328Y-100995190D01*
X151437974Y-100776491D01*
X151285238Y-100580256D01*
X151102285Y-100411836D01*
X151102282Y-100411833D01*
X150894106Y-100275826D01*
X150666381Y-100175936D01*
X150425324Y-100114892D01*
X150425313Y-100114890D01*
X150260048Y-100101197D01*
X150239567Y-100099500D01*
X150115433Y-100099500D01*
X150096021Y-100101108D01*
X149929686Y-100114890D01*
X149929675Y-100114892D01*
X149688618Y-100175936D01*
X149460893Y-100275826D01*
X149252717Y-100411833D01*
X149069761Y-100580257D01*
X148917024Y-100776493D01*
X148798672Y-100995188D01*
X148798669Y-100995197D01*
X148717929Y-101230383D01*
X148677000Y-101475665D01*
X148677000Y-101724334D01*
X140184500Y-101724334D01*
X140184500Y-95006289D01*
X140204185Y-94939250D01*
X140256989Y-94893495D01*
X140326147Y-94883551D01*
X140389703Y-94912576D01*
X140396181Y-94918608D01*
X142075592Y-96598019D01*
X142080676Y-96603777D01*
X142097458Y-96625339D01*
X142097465Y-96625347D01*
X142166121Y-96688550D01*
X143307484Y-97829912D01*
X143312573Y-97835674D01*
X143329362Y-97857244D01*
X143329364Y-97857246D01*
X143329365Y-97857247D01*
X143398021Y-97920450D01*
X144564784Y-99087212D01*
X144569873Y-99092974D01*
X144586662Y-99114544D01*
X144586664Y-99114546D01*
X144586665Y-99114547D01*
X144655321Y-99177750D01*
X144677266Y-99199694D01*
X144677274Y-99199702D01*
X144700964Y-99219766D01*
X144769615Y-99282964D01*
X144769617Y-99282965D01*
X144769618Y-99282966D01*
X144792486Y-99297906D01*
X144798650Y-99302502D01*
X144819506Y-99320166D01*
X144863437Y-99346343D01*
X144899675Y-99367937D01*
X144972000Y-99415188D01*
X144977793Y-99418973D01*
X145002818Y-99429950D01*
X145009648Y-99433465D01*
X145033127Y-99447456D01*
X145120067Y-99481380D01*
X145205519Y-99518863D01*
X145232023Y-99525574D01*
X145239320Y-99527912D01*
X145264786Y-99537850D01*
X145356125Y-99557002D01*
X145446579Y-99579908D01*
X145446583Y-99579908D01*
X145446587Y-99579909D01*
X145473806Y-99582164D01*
X145481416Y-99583273D01*
X145494127Y-99585938D01*
X145508163Y-99588881D01*
X145601409Y-99592737D01*
X145632333Y-99595300D01*
X145632334Y-99595300D01*
X145663365Y-99595300D01*
X145756621Y-99599157D01*
X145783747Y-99595775D01*
X145791419Y-99595300D01*
X151336410Y-99595300D01*
X151403449Y-99614985D01*
X151424091Y-99631619D01*
X151557634Y-99765162D01*
X151562723Y-99770924D01*
X151579512Y-99792494D01*
X151579514Y-99792496D01*
X151579515Y-99792497D01*
X151648171Y-99855700D01*
X152599034Y-100806562D01*
X152604123Y-100812324D01*
X152620912Y-100833894D01*
X152689572Y-100897099D01*
X153622892Y-101830419D01*
X153627976Y-101836177D01*
X153644758Y-101857739D01*
X153644765Y-101857747D01*
X153713433Y-101920961D01*
X153735372Y-101942900D01*
X153759054Y-101962957D01*
X153827715Y-102026164D01*
X153827716Y-102026165D01*
X153850589Y-102041108D01*
X153856752Y-102045704D01*
X153875744Y-102061789D01*
X153877606Y-102063366D01*
X153908179Y-102081583D01*
X153957775Y-102111137D01*
X154030100Y-102158388D01*
X154035893Y-102162173D01*
X154060918Y-102173150D01*
X154067748Y-102176665D01*
X154091227Y-102190656D01*
X154178167Y-102224580D01*
X154263619Y-102262063D01*
X154290123Y-102268774D01*
X154297420Y-102271112D01*
X154322886Y-102281050D01*
X154414225Y-102300202D01*
X154504679Y-102323108D01*
X154504683Y-102323108D01*
X154504687Y-102323109D01*
X154531906Y-102325364D01*
X154539516Y-102326473D01*
X154550005Y-102328672D01*
X154566263Y-102332081D01*
X154659509Y-102335937D01*
X154690433Y-102338500D01*
X154690434Y-102338500D01*
X154721465Y-102338500D01*
X154814721Y-102342357D01*
X154841847Y-102338975D01*
X154849519Y-102338500D01*
X158297381Y-102338500D01*
X158305052Y-102338975D01*
X158332179Y-102342357D01*
X158425435Y-102338500D01*
X160735933Y-102338500D01*
X161735933Y-102338500D01*
X161766965Y-102338500D01*
X161860219Y-102342357D01*
X161860220Y-102342357D01*
X161860220Y-102342356D01*
X161860221Y-102342357D01*
X161864307Y-102341847D01*
X161887342Y-102338977D01*
X161895018Y-102338500D01*
X162938330Y-102338500D01*
X162938335Y-102338500D01*
X162997233Y-102328670D01*
X163002309Y-102328038D01*
X163061821Y-102323108D01*
X163119722Y-102308445D01*
X163124708Y-102307400D01*
X163183614Y-102297571D01*
X163240096Y-102278179D01*
X163244984Y-102276723D01*
X163302881Y-102262063D01*
X163357560Y-102238077D01*
X163362323Y-102236218D01*
X163418810Y-102216828D01*
X163471327Y-102188405D01*
X163475920Y-102186159D01*
X163530607Y-102162173D01*
X163580593Y-102129515D01*
X163584983Y-102126898D01*
X163637509Y-102098474D01*
X163684649Y-102061782D01*
X163688795Y-102058822D01*
X163738785Y-102026164D01*
X163782720Y-101985717D01*
X163786613Y-101982419D01*
X163833744Y-101945738D01*
X163874206Y-101901783D01*
X163877783Y-101898206D01*
X163921738Y-101857744D01*
X163958419Y-101810613D01*
X163961722Y-101806715D01*
X164002164Y-101762785D01*
X164034822Y-101712795D01*
X164037782Y-101708649D01*
X164074474Y-101661509D01*
X164102898Y-101608983D01*
X164105515Y-101604593D01*
X164138172Y-101554608D01*
X164138173Y-101554607D01*
X164162159Y-101499920D01*
X164164406Y-101495327D01*
X164175047Y-101475665D01*
X164192828Y-101442810D01*
X164212218Y-101386323D01*
X164214077Y-101381560D01*
X164238063Y-101326881D01*
X164252723Y-101268984D01*
X164254181Y-101264092D01*
X164273571Y-101207614D01*
X164283400Y-101148708D01*
X164284445Y-101143722D01*
X164299108Y-101085821D01*
X164304038Y-101026309D01*
X164304672Y-101021225D01*
X164314500Y-100962335D01*
X164314500Y-100713665D01*
X164314500Y-98801418D01*
X164314977Y-98793742D01*
X164316276Y-98783314D01*
X164318357Y-98766621D01*
X164314500Y-98673373D01*
X164314500Y-98642333D01*
X164311936Y-98611394D01*
X164308080Y-98518163D01*
X164302471Y-98491418D01*
X164301364Y-98483815D01*
X164299108Y-98456579D01*
X164276196Y-98366102D01*
X164257049Y-98274786D01*
X164247116Y-98249332D01*
X164244771Y-98242009D01*
X164238064Y-98215523D01*
X164238063Y-98215519D01*
X164227973Y-98192516D01*
X164200574Y-98130051D01*
X164166655Y-98043127D01*
X164166655Y-98043126D01*
X164152664Y-98019645D01*
X164149147Y-98012811D01*
X164138175Y-97987798D01*
X164138173Y-97987793D01*
X164087134Y-97909672D01*
X164039366Y-97829506D01*
X164021702Y-97808650D01*
X164017106Y-97802486D01*
X164002166Y-97779618D01*
X164002165Y-97779617D01*
X164002164Y-97779615D01*
X163938955Y-97710952D01*
X163918899Y-97687271D01*
X163896961Y-97665333D01*
X163833747Y-97596665D01*
X163833739Y-97596658D01*
X163812177Y-97579876D01*
X163806419Y-97574792D01*
X163348526Y-97116898D01*
X163325349Y-97093721D01*
X163302174Y-97070545D01*
X163302152Y-97070525D01*
X163029206Y-96797578D01*
X163024124Y-96791822D01*
X163007339Y-96770257D01*
X162938678Y-96707049D01*
X162916729Y-96685100D01*
X162893035Y-96665033D01*
X162824386Y-96601837D01*
X162824385Y-96601836D01*
X162801504Y-96586887D01*
X162795347Y-96582296D01*
X162774494Y-96564634D01*
X162774485Y-96564628D01*
X162772795Y-96563422D01*
X162772263Y-96562744D01*
X162770578Y-96561317D01*
X162770871Y-96560970D01*
X162729670Y-96508449D01*
X162723112Y-96438888D01*
X162755202Y-96376823D01*
X162815753Y-96341961D01*
X162844843Y-96338500D01*
X162860065Y-96338500D01*
X162860067Y-96338500D01*
X162921284Y-96333427D01*
X163045813Y-96323109D01*
X163045816Y-96323108D01*
X163045821Y-96323108D01*
X163286881Y-96262063D01*
X163514607Y-96162173D01*
X163722785Y-96026164D01*
X163905738Y-95857744D01*
X164058474Y-95661509D01*
X164176828Y-95442810D01*
X164257571Y-95207614D01*
X164298500Y-94962335D01*
X164298500Y-94713665D01*
X164257571Y-94468386D01*
X164176828Y-94233190D01*
X164058474Y-94014491D01*
X163905738Y-93818256D01*
X163747118Y-93672236D01*
X163722782Y-93649833D01*
X163514606Y-93513826D01*
X163286881Y-93413936D01*
X163045824Y-93352892D01*
X163045813Y-93352890D01*
X162880548Y-93339197D01*
X162860067Y-93337500D01*
X160735933Y-93337500D01*
X160716521Y-93339108D01*
X160550186Y-93352890D01*
X160550175Y-93352892D01*
X160309118Y-93413936D01*
X160081393Y-93513826D01*
X159873217Y-93649833D01*
X159848882Y-93672236D01*
X159786227Y-93703157D01*
X159716801Y-93695296D01*
X159662646Y-93651149D01*
X159640956Y-93584731D01*
X159640900Y-93581005D01*
X159640900Y-90810626D01*
X159644757Y-90717379D01*
X159641376Y-90690256D01*
X159640900Y-90682581D01*
X159640900Y-88494889D01*
X160160416Y-88494889D01*
X160160459Y-88519001D01*
X160160500Y-88519099D01*
X160160616Y-88519382D01*
X160160618Y-88519384D01*
X160160808Y-88519462D01*
X160161000Y-88519541D01*
X160161002Y-88519539D01*
X160185616Y-88519524D01*
X160185616Y-88519528D01*
X160185760Y-88519500D01*
X170296240Y-88519500D01*
X170296383Y-88519528D01*
X170296384Y-88519524D01*
X170320997Y-88519539D01*
X170321000Y-88519541D01*
X170321383Y-88519383D01*
X170321500Y-88519099D01*
X170321541Y-88519000D01*
X170321540Y-88518997D01*
X170321583Y-88494889D01*
X170321500Y-88494467D01*
X170321500Y-74495534D01*
X172032300Y-74495534D01*
X172073229Y-74740816D01*
X172153969Y-74976002D01*
X172153972Y-74976011D01*
X172272324Y-75194706D01*
X172272326Y-75194709D01*
X172425062Y-75390944D01*
X172584544Y-75537757D01*
X172608017Y-75559366D01*
X172816193Y-75695373D01*
X173043918Y-75795263D01*
X173235077Y-75843671D01*
X173284979Y-75856308D01*
X173284981Y-75856308D01*
X173284986Y-75856309D01*
X173413807Y-75866983D01*
X173470733Y-75871700D01*
X173470735Y-75871700D01*
X173594865Y-75871700D01*
X173594867Y-75871700D01*
X173656084Y-75866627D01*
X173780613Y-75856309D01*
X173780616Y-75856308D01*
X173780621Y-75856308D01*
X174021681Y-75795263D01*
X174249407Y-75695373D01*
X174457585Y-75559364D01*
X174640538Y-75390944D01*
X174793274Y-75194709D01*
X174911628Y-74976010D01*
X174992371Y-74740814D01*
X175033300Y-74495535D01*
X175033300Y-74246865D01*
X174992371Y-74001586D01*
X174911628Y-73766390D01*
X174873129Y-73695251D01*
X174793275Y-73547693D01*
X174793274Y-73547691D01*
X174640538Y-73351456D01*
X174457585Y-73183036D01*
X174457582Y-73183033D01*
X174249406Y-73047026D01*
X174021681Y-72947136D01*
X173780624Y-72886092D01*
X173780613Y-72886090D01*
X173615348Y-72872397D01*
X173594867Y-72870700D01*
X173470733Y-72870700D01*
X173451321Y-72872308D01*
X173284986Y-72886090D01*
X173284975Y-72886092D01*
X173043918Y-72947136D01*
X172816193Y-73047026D01*
X172608017Y-73183033D01*
X172425061Y-73351457D01*
X172272324Y-73547693D01*
X172153972Y-73766388D01*
X172153969Y-73766397D01*
X172073229Y-74001583D01*
X172032300Y-74246865D01*
X172032300Y-74495534D01*
X170321500Y-74495534D01*
X170321500Y-65683759D01*
X170321528Y-65683616D01*
X170321524Y-65683616D01*
X170321539Y-65659002D01*
X170321541Y-65659000D01*
X170321462Y-65658808D01*
X170321384Y-65658618D01*
X170321382Y-65658616D01*
X170321099Y-65658500D01*
X170321000Y-65658459D01*
X170296446Y-65658459D01*
X170296240Y-65658500D01*
X160185760Y-65658500D01*
X160185554Y-65658459D01*
X160161000Y-65658459D01*
X160160901Y-65658500D01*
X160160617Y-65658616D01*
X160160615Y-65658618D01*
X160160459Y-65658999D01*
X160160476Y-65683616D01*
X160160471Y-65683616D01*
X160160500Y-65683759D01*
X160160500Y-88494467D01*
X160160416Y-88494889D01*
X159640900Y-88494889D01*
X159640900Y-76069362D01*
X159641377Y-76061686D01*
X159642676Y-76051258D01*
X159644757Y-76034565D01*
X159640900Y-75941317D01*
X159640900Y-71057933D01*
X159640900Y-70658218D01*
X159641377Y-70650542D01*
X159642676Y-70640114D01*
X159644757Y-70623421D01*
X159640900Y-70530173D01*
X159640900Y-70499133D01*
X159638336Y-70468194D01*
X159634480Y-70374963D01*
X159628871Y-70348218D01*
X159627764Y-70340615D01*
X159625508Y-70313379D01*
X159602596Y-70222902D01*
X159583449Y-70131586D01*
X159573516Y-70106132D01*
X159571171Y-70098809D01*
X159569327Y-70091528D01*
X159564463Y-70072319D01*
X159526979Y-69986864D01*
X159493056Y-69899926D01*
X159493053Y-69899920D01*
X159487056Y-69889857D01*
X159479063Y-69876443D01*
X159475547Y-69869612D01*
X159464573Y-69844593D01*
X159464572Y-69844592D01*
X159413539Y-69766478D01*
X159365765Y-69686305D01*
X159348104Y-69665453D01*
X159343506Y-69659286D01*
X159328566Y-69636418D01*
X159328565Y-69636417D01*
X159328564Y-69636415D01*
X159265366Y-69567764D01*
X159245302Y-69544074D01*
X159238751Y-69537523D01*
X159223350Y-69522121D01*
X159160147Y-69453465D01*
X159160146Y-69453464D01*
X159160144Y-69453462D01*
X159138574Y-69436673D01*
X159132812Y-69431584D01*
X157998137Y-68296909D01*
X157994672Y-68293144D01*
X157975302Y-68270274D01*
X157975300Y-68270272D01*
X157975295Y-68270266D01*
X157975294Y-68270266D01*
X157953350Y-68248321D01*
X157890147Y-68179665D01*
X157890146Y-68179664D01*
X157890144Y-68179662D01*
X157868574Y-68162873D01*
X157862812Y-68157784D01*
X156803996Y-67098968D01*
X155895950Y-66190921D01*
X155832747Y-66122265D01*
X155832743Y-66122261D01*
X155822042Y-66113932D01*
X155811173Y-66105472D01*
X155805419Y-66100391D01*
X155786096Y-66081068D01*
X155737506Y-66046375D01*
X155733461Y-66043226D01*
X155687899Y-66004637D01*
X155687894Y-66004634D01*
X155664414Y-65990643D01*
X155658080Y-65986315D01*
X155646689Y-65977449D01*
X155636510Y-65969526D01*
X155636507Y-65969524D01*
X155612473Y-65956518D01*
X155605950Y-65952446D01*
X155583716Y-65936571D01*
X155583710Y-65936568D01*
X155583705Y-65936565D01*
X155530073Y-65910346D01*
X155525565Y-65907906D01*
X155474275Y-65877344D01*
X155474270Y-65877342D01*
X155448821Y-65867412D01*
X155441845Y-65864178D01*
X155428723Y-65857077D01*
X155417810Y-65851172D01*
X155417806Y-65851170D01*
X155417799Y-65851167D01*
X155391967Y-65842299D01*
X155384864Y-65839357D01*
X155360313Y-65827355D01*
X155360310Y-65827354D01*
X155303070Y-65810313D01*
X155298223Y-65808649D01*
X155242620Y-65786952D01*
X155242608Y-65786949D01*
X155215883Y-65781345D01*
X155208470Y-65779305D01*
X155182614Y-65770428D01*
X155155665Y-65765932D01*
X155148171Y-65764198D01*
X155121983Y-65756401D01*
X155121973Y-65756399D01*
X155062718Y-65749012D01*
X155057664Y-65748169D01*
X155013195Y-65738845D01*
X154999237Y-65735919D01*
X154993473Y-65735680D01*
X154971927Y-65734789D01*
X154964282Y-65733996D01*
X154937335Y-65729500D01*
X154910019Y-65729500D01*
X154902347Y-65729024D01*
X154893917Y-65727973D01*
X154875218Y-65725642D01*
X154815563Y-65728110D01*
X154810437Y-65728110D01*
X154750780Y-65725642D01*
X154730987Y-65728110D01*
X154723652Y-65729024D01*
X154715981Y-65729500D01*
X154688665Y-65729500D01*
X154661716Y-65733996D01*
X154654072Y-65734789D01*
X154626765Y-65735918D01*
X154626752Y-65735920D01*
X154568335Y-65748169D01*
X154563281Y-65749012D01*
X154504022Y-65756400D01*
X154504019Y-65756401D01*
X154477830Y-65764197D01*
X154470344Y-65765929D01*
X154459097Y-65767807D01*
X154438677Y-65769500D01*
X152856690Y-65769500D01*
X152789651Y-65749815D01*
X152743896Y-65697011D01*
X152733952Y-65627853D01*
X152762977Y-65564297D01*
X152768999Y-65557827D01*
X153105422Y-65221404D01*
X153111167Y-65216330D01*
X153132744Y-65199538D01*
X153195949Y-65130878D01*
X153217902Y-65108926D01*
X153237966Y-65085235D01*
X153301164Y-65016585D01*
X153316117Y-64993694D01*
X153320697Y-64987554D01*
X153338366Y-64966694D01*
X153386134Y-64886527D01*
X153437173Y-64808407D01*
X153448148Y-64783384D01*
X153451668Y-64776547D01*
X153453040Y-64774244D01*
X153465655Y-64753074D01*
X153474284Y-64730957D01*
X153499574Y-64666148D01*
X153526217Y-64605407D01*
X153537063Y-64580681D01*
X153543774Y-64554174D01*
X153546112Y-64546877D01*
X153556049Y-64521414D01*
X153575196Y-64430097D01*
X153598108Y-64339621D01*
X153600364Y-64312383D01*
X153601471Y-64304780D01*
X153607080Y-64278037D01*
X153610936Y-64184805D01*
X153613500Y-64153867D01*
X153613500Y-64122826D01*
X153617357Y-64029579D01*
X153613975Y-64002453D01*
X153613500Y-63994781D01*
X153613500Y-63080254D01*
X153633185Y-63013215D01*
X153685989Y-62967460D01*
X153729476Y-62959969D01*
X154415046Y-62274399D01*
X154427835Y-62355148D01*
X154485359Y-62468045D01*
X154574955Y-62557641D01*
X154687852Y-62615165D01*
X154768599Y-62627953D01*
X154087526Y-63309025D01*
X154087526Y-63309026D01*
X154160512Y-63360131D01*
X154160516Y-63360133D01*
X154366673Y-63456265D01*
X154366682Y-63456269D01*
X154586389Y-63515139D01*
X154586400Y-63515141D01*
X154812998Y-63534966D01*
X154813002Y-63534966D01*
X155039599Y-63515141D01*
X155039610Y-63515139D01*
X155259317Y-63456269D01*
X155259331Y-63456264D01*
X155465478Y-63360136D01*
X155538472Y-63309025D01*
X154857401Y-62627953D01*
X154938148Y-62615165D01*
X155051045Y-62557641D01*
X155140641Y-62468045D01*
X155198165Y-62355148D01*
X155210953Y-62274400D01*
X155892025Y-62955472D01*
X155943136Y-62882478D01*
X156039264Y-62676331D01*
X156039269Y-62676317D01*
X156098139Y-62456610D01*
X156098141Y-62456599D01*
X156117966Y-62230002D01*
X156117966Y-62229997D01*
X156098141Y-62003400D01*
X156098139Y-62003389D01*
X156039269Y-61783682D01*
X156039265Y-61783673D01*
X155943133Y-61577516D01*
X155943131Y-61577512D01*
X155892026Y-61504526D01*
X155892025Y-61504526D01*
X155210953Y-62185598D01*
X155198165Y-62104852D01*
X155140641Y-61991955D01*
X155051045Y-61902359D01*
X154938148Y-61844835D01*
X154857400Y-61832046D01*
X155538472Y-61150974D01*
X155538471Y-61150973D01*
X155465483Y-61099866D01*
X155465481Y-61099865D01*
X155259326Y-61003734D01*
X155259317Y-61003730D01*
X155039610Y-60944860D01*
X155039599Y-60944858D01*
X154813002Y-60925034D01*
X154812998Y-60925034D01*
X154586400Y-60944858D01*
X154586389Y-60944860D01*
X154366682Y-61003730D01*
X154366673Y-61003734D01*
X154160513Y-61099868D01*
X154087527Y-61150972D01*
X154087526Y-61150973D01*
X154768600Y-61832046D01*
X154687852Y-61844835D01*
X154574955Y-61902359D01*
X154485359Y-61991955D01*
X154427835Y-62104852D01*
X154415046Y-62185599D01*
X153733973Y-61504526D01*
X153733973Y-61504527D01*
X153686408Y-61572457D01*
X153631831Y-61616081D01*
X153562332Y-61623274D01*
X153499978Y-61591752D01*
X153471278Y-61551144D01*
X153437173Y-61473393D01*
X153422229Y-61450521D01*
X153418433Y-61443840D01*
X153412892Y-61432506D01*
X153406429Y-61419284D01*
X153352203Y-61343337D01*
X153301164Y-61265215D01*
X153292686Y-61256005D01*
X153282651Y-61245103D01*
X153277804Y-61239135D01*
X153266596Y-61223438D01*
X153261932Y-61216905D01*
X153195960Y-61150933D01*
X153195949Y-61150921D01*
X153132747Y-61082265D01*
X153132745Y-61082264D01*
X153132744Y-61082262D01*
X153111165Y-61065466D01*
X153105410Y-61060383D01*
X153086101Y-61041073D01*
X153086097Y-61041070D01*
X153086095Y-61041068D01*
X153033807Y-61003734D01*
X153010161Y-60986850D01*
X152936510Y-60929526D01*
X152912476Y-60916519D01*
X152905955Y-60912448D01*
X152883720Y-60896573D01*
X152883712Y-60896569D01*
X152799880Y-60855586D01*
X152766175Y-60837346D01*
X152717810Y-60811172D01*
X152717809Y-60811171D01*
X152717806Y-60811170D01*
X152717807Y-60811170D01*
X152691962Y-60802298D01*
X152684858Y-60799355D01*
X152660315Y-60787357D01*
X152660313Y-60787356D01*
X152660310Y-60787355D01*
X152660302Y-60787352D01*
X152570880Y-60760731D01*
X152482616Y-60730429D01*
X152455660Y-60725931D01*
X152448168Y-60724198D01*
X152421982Y-60716402D01*
X152329376Y-60704858D01*
X152237335Y-60689500D01*
X152210018Y-60689500D01*
X152202342Y-60689023D01*
X152179307Y-60686152D01*
X152175221Y-60685643D01*
X152175220Y-60685643D01*
X152081974Y-60689500D01*
X151988665Y-60689500D01*
X151961710Y-60693997D01*
X151954066Y-60694790D01*
X151926764Y-60695919D01*
X151835446Y-60715067D01*
X151743390Y-60730428D01*
X151743386Y-60730429D01*
X151717526Y-60739305D01*
X151710118Y-60741344D01*
X151683388Y-60746950D01*
X151683385Y-60746951D01*
X151596476Y-60780862D01*
X151508194Y-60811170D01*
X151508184Y-60811174D01*
X151484145Y-60824183D01*
X151477173Y-60827414D01*
X151451726Y-60837345D01*
X151451724Y-60837346D01*
X151371572Y-60885104D01*
X151289493Y-60929524D01*
X151289484Y-60929530D01*
X151267924Y-60946310D01*
X151261580Y-60950644D01*
X151238104Y-60964634D01*
X151238102Y-60964636D01*
X151166895Y-61024945D01*
X151093257Y-61082260D01*
X151093252Y-61082265D01*
X151030050Y-61150921D01*
X148740588Y-63440382D01*
X148734827Y-63445471D01*
X148713254Y-63462263D01*
X148713251Y-63462266D01*
X148650050Y-63530921D01*
X147851588Y-64329382D01*
X147845827Y-64334471D01*
X147824256Y-64351262D01*
X147761049Y-64419922D01*
X147739102Y-64441869D01*
X147739098Y-64441874D01*
X147719033Y-64465564D01*
X147694769Y-64491922D01*
X147655834Y-64534216D01*
X147640892Y-64557087D01*
X147636297Y-64563250D01*
X147618635Y-64584104D01*
X147570860Y-64664278D01*
X147519828Y-64742390D01*
X147519824Y-64742397D01*
X147508853Y-64767409D01*
X147505335Y-64774244D01*
X147491348Y-64797717D01*
X147491343Y-64797726D01*
X147457420Y-64884663D01*
X147419935Y-64970123D01*
X147413226Y-64996616D01*
X147410881Y-65003935D01*
X147400953Y-65029379D01*
X147400948Y-65029395D01*
X147381801Y-65120711D01*
X147358892Y-65211175D01*
X147358890Y-65211185D01*
X147356635Y-65238408D01*
X147355526Y-65246016D01*
X147349918Y-65272762D01*
X147349481Y-65276269D01*
X147348904Y-65277596D01*
X147348866Y-65277781D01*
X147348827Y-65277773D01*
X147321653Y-65340358D01*
X147263593Y-65379227D01*
X147228567Y-65381983D01*
X146741953Y-65868598D01*
X146729165Y-65787852D01*
X146671641Y-65674955D01*
X146582045Y-65585359D01*
X146469148Y-65527835D01*
X146388401Y-65515046D01*
X146870996Y-65032450D01*
X146738152Y-64961442D01*
X146544932Y-64902829D01*
X146344000Y-64883040D01*
X146143067Y-64902829D01*
X145949845Y-64961443D01*
X145817002Y-65032449D01*
X146299599Y-65515046D01*
X146218852Y-65527835D01*
X146105955Y-65585359D01*
X146016359Y-65674955D01*
X145958835Y-65787852D01*
X145946046Y-65868598D01*
X145463449Y-65386002D01*
X145392443Y-65518845D01*
X145333829Y-65712067D01*
X145314040Y-65913000D01*
X145333829Y-66113932D01*
X145392442Y-66307152D01*
X145463450Y-66439996D01*
X145946046Y-65957400D01*
X145958835Y-66038148D01*
X146016359Y-66151045D01*
X146105955Y-66240641D01*
X146218852Y-66298165D01*
X146299599Y-66310953D01*
X145817002Y-66793548D01*
X145817003Y-66793549D01*
X145949847Y-66864557D01*
X146143067Y-66923170D01*
X146344000Y-66942959D01*
X146544932Y-66923170D01*
X146738150Y-66864557D01*
X146870996Y-66793548D01*
X146388401Y-66310953D01*
X146469148Y-66298165D01*
X146582045Y-66240641D01*
X146671641Y-66151045D01*
X146729165Y-66038148D01*
X146741953Y-65957400D01*
X147232311Y-66447759D01*
X147270507Y-66453077D01*
X147323515Y-66498596D01*
X147343499Y-66565547D01*
X147343500Y-66566101D01*
X147343500Y-67289181D01*
X147343024Y-67296856D01*
X147339643Y-67323979D01*
X147343500Y-67417235D01*
X147343500Y-67448264D01*
X147346062Y-67479190D01*
X147349918Y-67572433D01*
X147355526Y-67599183D01*
X147356635Y-67606790D01*
X147358891Y-67634018D01*
X147358891Y-67634019D01*
X147358892Y-67634021D01*
X147381801Y-67724488D01*
X147400951Y-67815814D01*
X147400952Y-67815816D01*
X147410882Y-67841267D01*
X147413227Y-67848587D01*
X147417280Y-67864593D01*
X147419937Y-67875081D01*
X147457420Y-67960535D01*
X147491344Y-68047475D01*
X147505332Y-68070950D01*
X147508852Y-68077788D01*
X147519825Y-68102804D01*
X147519827Y-68102807D01*
X147570860Y-68180920D01*
X147618634Y-68261094D01*
X147636296Y-68281947D01*
X147640887Y-68288104D01*
X147655836Y-68310985D01*
X147655837Y-68310986D01*
X147719033Y-68379635D01*
X147739100Y-68403329D01*
X147761049Y-68425278D01*
X147824257Y-68493939D01*
X147845822Y-68510724D01*
X147851587Y-68515815D01*
X148196181Y-68860409D01*
X148229666Y-68921732D01*
X148232500Y-68948090D01*
X148232500Y-69238680D01*
X148212815Y-69305719D01*
X148160011Y-69351474D01*
X148095260Y-69361971D01*
X148090883Y-69361501D01*
X148090881Y-69361500D01*
X148090873Y-69361500D01*
X148090864Y-69361500D01*
X146795129Y-69361500D01*
X146795123Y-69361501D01*
X146735516Y-69367908D01*
X146600671Y-69418202D01*
X146600664Y-69418206D01*
X146485455Y-69504452D01*
X146397266Y-69622257D01*
X146341332Y-69664127D01*
X146271640Y-69669111D01*
X146210318Y-69635625D01*
X146198734Y-69622257D01*
X146149964Y-69557109D01*
X146110546Y-69504454D01*
X146110544Y-69504453D01*
X146110544Y-69504452D01*
X145995335Y-69418206D01*
X145995328Y-69418202D01*
X145860482Y-69367908D01*
X145860483Y-69367908D01*
X145800883Y-69361501D01*
X145800881Y-69361500D01*
X145800873Y-69361500D01*
X145800864Y-69361500D01*
X144505129Y-69361500D01*
X144505123Y-69361501D01*
X144445516Y-69367908D01*
X144310671Y-69418202D01*
X144310664Y-69418206D01*
X144195455Y-69504452D01*
X144195452Y-69504455D01*
X144109206Y-69619664D01*
X144109202Y-69619671D01*
X144058908Y-69754517D01*
X144052501Y-69814116D01*
X144052500Y-69814135D01*
X144052500Y-72909870D01*
X144052501Y-72909876D01*
X144058908Y-72969483D01*
X144109202Y-73104328D01*
X144109206Y-73104335D01*
X144195452Y-73219544D01*
X144195455Y-73219547D01*
X144310664Y-73305793D01*
X144310671Y-73305797D01*
X144379097Y-73331318D01*
X144435030Y-73373189D01*
X144459448Y-73438653D01*
X144444597Y-73506926D01*
X144395192Y-73556332D01*
X144335764Y-73571500D01*
X142585129Y-73571500D01*
X142585123Y-73571501D01*
X142525516Y-73577908D01*
X142390671Y-73628202D01*
X142390664Y-73628206D01*
X142275455Y-73714452D01*
X142202999Y-73811240D01*
X142147065Y-73853110D01*
X142077373Y-73858094D01*
X142016050Y-73824608D01*
X141991188Y-73784772D01*
X141989723Y-73785415D01*
X141950174Y-73695251D01*
X141916255Y-73608327D01*
X141916255Y-73608326D01*
X141902264Y-73584845D01*
X141898747Y-73578011D01*
X141895891Y-73571501D01*
X141887773Y-73552993D01*
X141884310Y-73547693D01*
X141836734Y-73474872D01*
X141788968Y-73394710D01*
X141788965Y-73394705D01*
X141771304Y-73373853D01*
X141766706Y-73367686D01*
X141751766Y-73344818D01*
X141751765Y-73344817D01*
X141751764Y-73344815D01*
X141688555Y-73276152D01*
X141668499Y-73252471D01*
X141646561Y-73230533D01*
X141583347Y-73161865D01*
X141583339Y-73161858D01*
X141561777Y-73145076D01*
X141556019Y-73139992D01*
X141187606Y-72771578D01*
X141182524Y-72765822D01*
X141165739Y-72744257D01*
X141097078Y-72681049D01*
X141075129Y-72659100D01*
X141051435Y-72639033D01*
X140982786Y-72575837D01*
X140982785Y-72575836D01*
X140959904Y-72560887D01*
X140953747Y-72556296D01*
X140932894Y-72538634D01*
X140852720Y-72490860D01*
X140774607Y-72439827D01*
X140774604Y-72439825D01*
X140749588Y-72428852D01*
X140742750Y-72425332D01*
X140719275Y-72411344D01*
X140632335Y-72377420D01*
X140546881Y-72339937D01*
X140546877Y-72339936D01*
X140546875Y-72339935D01*
X140520387Y-72333227D01*
X140513067Y-72330882D01*
X140496593Y-72324454D01*
X140487614Y-72320951D01*
X140396288Y-72301801D01*
X140305819Y-72278891D01*
X140278590Y-72276635D01*
X140270983Y-72275526D01*
X140250986Y-72271334D01*
X140244237Y-72269919D01*
X140244235Y-72269918D01*
X140150990Y-72266062D01*
X140120067Y-72263500D01*
X140120064Y-72263500D01*
X140089035Y-72263500D01*
X139995780Y-72259643D01*
X139995779Y-72259643D01*
X139968652Y-72263024D01*
X139960981Y-72263500D01*
X139479435Y-72263500D01*
X139386180Y-72259643D01*
X139386179Y-72259643D01*
X139359052Y-72263024D01*
X139351381Y-72263500D01*
X138709956Y-72263500D01*
X138642917Y-72243815D01*
X138604417Y-72204596D01*
X138598711Y-72195345D01*
X138474655Y-72071289D01*
X138474651Y-72071286D01*
X138325337Y-71979187D01*
X138325335Y-71979186D01*
X138242065Y-71951593D01*
X138158797Y-71924001D01*
X138158795Y-71924000D01*
X138056015Y-71913500D01*
X138056008Y-71913500D01*
X135755992Y-71913500D01*
X135755984Y-71913500D01*
X135653204Y-71924000D01*
X135653203Y-71924001D01*
X135486664Y-71979186D01*
X135486662Y-71979187D01*
X135337348Y-72071286D01*
X135337344Y-72071289D01*
X135213289Y-72195344D01*
X135213286Y-72195348D01*
X135121187Y-72344662D01*
X135121186Y-72344664D01*
X135066001Y-72511203D01*
X135066000Y-72511204D01*
X135055500Y-72613984D01*
X135055500Y-74914015D01*
X135066000Y-75016795D01*
X135066001Y-75016796D01*
X135121186Y-75183335D01*
X135121187Y-75183337D01*
X135213286Y-75332651D01*
X135213289Y-75332655D01*
X135337344Y-75456710D01*
X135337348Y-75456713D01*
X135486662Y-75548812D01*
X135486664Y-75548813D01*
X135486666Y-75548814D01*
X135653203Y-75603999D01*
X135755992Y-75614500D01*
X136583110Y-75614500D01*
X136650149Y-75634185D01*
X136670791Y-75650819D01*
X136700007Y-75680035D01*
X136733492Y-75741358D01*
X136728508Y-75811050D01*
X136686636Y-75866983D01*
X136638684Y-75888882D01*
X136383471Y-75944400D01*
X136135512Y-76036884D01*
X135903264Y-76163701D01*
X135786593Y-76251039D01*
X136507391Y-76971837D01*
X136388569Y-77043331D01*
X136254342Y-77170477D01*
X136151138Y-77322692D01*
X135433039Y-76604593D01*
X135345701Y-76721264D01*
X135218884Y-76953512D01*
X135126400Y-77201471D01*
X135070152Y-77460039D01*
X135051274Y-77723998D01*
X135051274Y-77724001D01*
X135070152Y-77987960D01*
X135126400Y-78246528D01*
X135218884Y-78494487D01*
X135345701Y-78726735D01*
X135345706Y-78726743D01*
X135433038Y-78843406D01*
X135433039Y-78843406D01*
X136154766Y-78121679D01*
X136198316Y-78203822D01*
X136318009Y-78344735D01*
X136465195Y-78456623D01*
X136507401Y-78476149D01*
X135786592Y-79196959D01*
X135786593Y-79196960D01*
X135903256Y-79284293D01*
X135903264Y-79284298D01*
X136135513Y-79411115D01*
X136135512Y-79411115D01*
X136383471Y-79503599D01*
X136642039Y-79559847D01*
X136905999Y-79578726D01*
X136906001Y-79578726D01*
X137169960Y-79559847D01*
X137428528Y-79503599D01*
X137676486Y-79411115D01*
X137772073Y-79358921D01*
X137840346Y-79344069D01*
X137905810Y-79368486D01*
X137947682Y-79424419D01*
X137955500Y-79467753D01*
X137955500Y-82476468D01*
X137935815Y-82543507D01*
X137883011Y-82589262D01*
X137813853Y-82599206D01*
X137792499Y-82594174D01*
X137761797Y-82584001D01*
X137761795Y-82584000D01*
X137659010Y-82573500D01*
X136358998Y-82573500D01*
X136358981Y-82573501D01*
X136256203Y-82584000D01*
X136256200Y-82584001D01*
X136089668Y-82639185D01*
X136089663Y-82639187D01*
X135940342Y-82731289D01*
X135816288Y-82855343D01*
X135816285Y-82855347D01*
X135720550Y-83010558D01*
X135668602Y-83057283D01*
X135599640Y-83068504D01*
X135535558Y-83040661D01*
X135527331Y-83033143D01*
X135380078Y-82885891D01*
X135186578Y-82750399D01*
X134972492Y-82650570D01*
X134972486Y-82650567D01*
X134759000Y-82593364D01*
X134759000Y-83638498D01*
X134651315Y-83589320D01*
X134544763Y-83574000D01*
X134473237Y-83574000D01*
X134366685Y-83589320D01*
X134259000Y-83638498D01*
X134259000Y-82593364D01*
X134258999Y-82593364D01*
X134045513Y-82650567D01*
X134045507Y-82650570D01*
X133831422Y-82750399D01*
X133831420Y-82750400D01*
X133637926Y-82885886D01*
X133637920Y-82885891D01*
X133470891Y-83052920D01*
X133470886Y-83052926D01*
X133335400Y-83246420D01*
X133335399Y-83246422D01*
X133235570Y-83460507D01*
X133235566Y-83460516D01*
X133174432Y-83688673D01*
X133174430Y-83688684D01*
X133162592Y-83823999D01*
X133162593Y-83824000D01*
X134075314Y-83824000D01*
X134049507Y-83864156D01*
X134009000Y-84002111D01*
X134009000Y-84145889D01*
X134049507Y-84283844D01*
X134075314Y-84324000D01*
X133162592Y-84324000D01*
X133174430Y-84459315D01*
X133174432Y-84459326D01*
X133235566Y-84687483D01*
X133235570Y-84687492D01*
X133335399Y-84901577D01*
X133335400Y-84901579D01*
X133470886Y-85095073D01*
X133470891Y-85095079D01*
X133637917Y-85262105D01*
X133831421Y-85397600D01*
X134045507Y-85497429D01*
X134045516Y-85497433D01*
X134259000Y-85554634D01*
X134259000Y-84509501D01*
X134366685Y-84558680D01*
X134473237Y-84574000D01*
X134544763Y-84574000D01*
X134651315Y-84558680D01*
X134759000Y-84509501D01*
X134759000Y-85554633D01*
X134972483Y-85497433D01*
X134972492Y-85497429D01*
X135186577Y-85397600D01*
X135186579Y-85397599D01*
X135380073Y-85262113D01*
X135380079Y-85262108D01*
X135527331Y-85114857D01*
X135588654Y-85081372D01*
X135658346Y-85086356D01*
X135714279Y-85128228D01*
X135720551Y-85137441D01*
X135724186Y-85143334D01*
X135816288Y-85292656D01*
X135940344Y-85416712D01*
X136089666Y-85508814D01*
X136256203Y-85563999D01*
X136358991Y-85574500D01*
X137659008Y-85574499D01*
X137761797Y-85563999D01*
X137792494Y-85553826D01*
X137862323Y-85551424D01*
X137922365Y-85587155D01*
X137953558Y-85649674D01*
X137955500Y-85671532D01*
X137955500Y-89334468D01*
X137935815Y-89401507D01*
X137883011Y-89447262D01*
X137813853Y-89457206D01*
X137792499Y-89452174D01*
X137761797Y-89442001D01*
X137761795Y-89442000D01*
X137659016Y-89431500D01*
X137659009Y-89431500D01*
X137133337Y-89431500D01*
X137133335Y-89431500D01*
X136884665Y-89431500D01*
X136884661Y-89431500D01*
X136358998Y-89431500D01*
X136358980Y-89431501D01*
X136256203Y-89442000D01*
X136256200Y-89442001D01*
X136089668Y-89497185D01*
X136089663Y-89497187D01*
X135940342Y-89589289D01*
X135816288Y-89713343D01*
X135816285Y-89713347D01*
X135720550Y-89868558D01*
X135668602Y-89915283D01*
X135599640Y-89926504D01*
X135535558Y-89898661D01*
X135527331Y-89891143D01*
X135380078Y-89743891D01*
X135186578Y-89608399D01*
X134972492Y-89508570D01*
X134972486Y-89508567D01*
X134759000Y-89451364D01*
X134759000Y-90496498D01*
X134651315Y-90447320D01*
X134544763Y-90432000D01*
X134473237Y-90432000D01*
X134366685Y-90447320D01*
X134259000Y-90496498D01*
X134259000Y-89451364D01*
X134258999Y-89451364D01*
X134045513Y-89508567D01*
X134045507Y-89508570D01*
X133831422Y-89608399D01*
X133831420Y-89608400D01*
X133637926Y-89743886D01*
X133637920Y-89743891D01*
X133470891Y-89910920D01*
X133470886Y-89910926D01*
X133335400Y-90104420D01*
X133335399Y-90104422D01*
X133235570Y-90318507D01*
X133235566Y-90318516D01*
X133174432Y-90546673D01*
X133174430Y-90546684D01*
X133162592Y-90681999D01*
X133162593Y-90682000D01*
X134075314Y-90682000D01*
X134049507Y-90722156D01*
X134009000Y-90860111D01*
X134009000Y-91003889D01*
X134049507Y-91141844D01*
X134075314Y-91182000D01*
X133162592Y-91182000D01*
X131528722Y-91182000D01*
X131528722Y-61394653D01*
X131962316Y-61394653D01*
X131964145Y-61419284D01*
X131966930Y-61456802D01*
X131967100Y-61461394D01*
X131967100Y-63562327D01*
X131963393Y-63680293D01*
X131963393Y-63680297D01*
X131974499Y-63797796D01*
X131981910Y-63915604D01*
X131981912Y-63915615D01*
X131988745Y-63951439D01*
X131989569Y-63957223D01*
X131993002Y-63993538D01*
X131993003Y-63993544D01*
X132018750Y-64108729D01*
X132033262Y-64184805D01*
X132040869Y-64224679D01*
X132043932Y-64234106D01*
X132052140Y-64259369D01*
X132053682Y-64265004D01*
X132061638Y-64300598D01*
X132101620Y-64411651D01*
X132138094Y-64523908D01*
X132138100Y-64523922D01*
X132153625Y-64556915D01*
X132155861Y-64562313D01*
X132168218Y-64596634D01*
X132221810Y-64701815D01*
X132272060Y-64808603D01*
X132291601Y-64839395D01*
X132294497Y-64844471D01*
X132311055Y-64876967D01*
X132311060Y-64876977D01*
X132377408Y-64974605D01*
X132440651Y-65074261D01*
X132440653Y-65074264D01*
X132463900Y-65102365D01*
X132467409Y-65107038D01*
X132471797Y-65113494D01*
X132483610Y-65130877D01*
X132487912Y-65137206D01*
X132565977Y-65225753D01*
X132641206Y-65316690D01*
X132641208Y-65316692D01*
X132727252Y-65397494D01*
X134094105Y-66764347D01*
X134138568Y-66811694D01*
X134174906Y-66850390D01*
X134262882Y-66923170D01*
X134265846Y-66925622D01*
X134354393Y-67003688D01*
X134369106Y-67013686D01*
X134384563Y-67024191D01*
X134389230Y-67027694D01*
X134417337Y-67050947D01*
X134417341Y-67050950D01*
X134493006Y-67098968D01*
X134516994Y-67114191D01*
X134614625Y-67180541D01*
X134614633Y-67180545D01*
X134614638Y-67180548D01*
X134647125Y-67197101D01*
X134652202Y-67199997D01*
X134682981Y-67219530D01*
X134682987Y-67219533D01*
X134682993Y-67219537D01*
X134789801Y-67269797D01*
X134894968Y-67323382D01*
X134929285Y-67335736D01*
X134934673Y-67337968D01*
X134954610Y-67347350D01*
X134967680Y-67353501D01*
X134967683Y-67353502D01*
X134967685Y-67353503D01*
X135079952Y-67389981D01*
X135191003Y-67429962D01*
X135201951Y-67432409D01*
X135226598Y-67437919D01*
X135232231Y-67439459D01*
X135266921Y-67450731D01*
X135382868Y-67472849D01*
X135498062Y-67498598D01*
X135534382Y-67502030D01*
X135540152Y-67502852D01*
X135575985Y-67509688D01*
X135575988Y-67509688D01*
X135575991Y-67509689D01*
X135693802Y-67517100D01*
X135698656Y-67517558D01*
X135758529Y-67523218D01*
X135823416Y-67549122D01*
X135834540Y-67558986D01*
X136507391Y-68231837D01*
X136388569Y-68303331D01*
X136254342Y-68430477D01*
X136151138Y-68582692D01*
X135433039Y-67864593D01*
X135345701Y-67981264D01*
X135218884Y-68213512D01*
X135126400Y-68461471D01*
X135070152Y-68720039D01*
X135051274Y-68983998D01*
X135051274Y-68984001D01*
X135070152Y-69247960D01*
X135126400Y-69506528D01*
X135218884Y-69754487D01*
X135345701Y-69986735D01*
X135345706Y-69986743D01*
X135433038Y-70103406D01*
X135433039Y-70103406D01*
X136154766Y-69381679D01*
X136198316Y-69463822D01*
X136318009Y-69604735D01*
X136465195Y-69716623D01*
X136507402Y-69736150D01*
X135786592Y-70456959D01*
X135786593Y-70456960D01*
X135903256Y-70544293D01*
X135903264Y-70544298D01*
X136135513Y-70671115D01*
X136135512Y-70671115D01*
X136383471Y-70763599D01*
X136642039Y-70819847D01*
X136905999Y-70838726D01*
X136906001Y-70838726D01*
X137169960Y-70819847D01*
X137428528Y-70763599D01*
X137676487Y-70671115D01*
X137908735Y-70544298D01*
X137908736Y-70544297D01*
X138025406Y-70456959D01*
X137304609Y-69736161D01*
X137423431Y-69664669D01*
X137557658Y-69537523D01*
X137660861Y-69385308D01*
X138378959Y-70103406D01*
X138466297Y-69986736D01*
X138466298Y-69986735D01*
X138593115Y-69754487D01*
X138685599Y-69506528D01*
X138741847Y-69247960D01*
X138760726Y-68984001D01*
X138760726Y-68983998D01*
X138741847Y-68720039D01*
X138685599Y-68461471D01*
X138593115Y-68213512D01*
X138466298Y-67981264D01*
X138466293Y-67981256D01*
X138378960Y-67864593D01*
X138378959Y-67864592D01*
X137657232Y-68586319D01*
X137613684Y-68504178D01*
X137493991Y-68363265D01*
X137346805Y-68251377D01*
X137304596Y-68231849D01*
X137975627Y-67560819D01*
X138036950Y-67527334D01*
X138063308Y-67524500D01*
X138238328Y-67524500D01*
X138356298Y-67528207D01*
X138473796Y-67517100D01*
X138591615Y-67509688D01*
X138627467Y-67502848D01*
X138633207Y-67502031D01*
X138669538Y-67498598D01*
X138784729Y-67472849D01*
X138900679Y-67450731D01*
X138935386Y-67439453D01*
X138940983Y-67437921D01*
X138976596Y-67429962D01*
X139087651Y-67389979D01*
X139199915Y-67353503D01*
X139232930Y-67337966D01*
X139238301Y-67335741D01*
X139272632Y-67323383D01*
X139377815Y-67269789D01*
X139484607Y-67219537D01*
X139515413Y-67199985D01*
X139520469Y-67197102D01*
X139552975Y-67180541D01*
X139650605Y-67114191D01*
X139674593Y-67098968D01*
X139750252Y-67050955D01*
X139750263Y-67050947D01*
X139778379Y-67027686D01*
X139783013Y-67024206D01*
X139813205Y-67003689D01*
X139901753Y-66925622D01*
X139992694Y-66850390D01*
X140073493Y-66764347D01*
X140924840Y-65913000D01*
X142813538Y-65913000D01*
X142833337Y-66114031D01*
X142891978Y-66307345D01*
X142987198Y-66485488D01*
X142987201Y-66485492D01*
X142987202Y-66485494D01*
X143006688Y-66509238D01*
X143115352Y-66641647D01*
X143224016Y-66730824D01*
X143271506Y-66769798D01*
X143271509Y-66769799D01*
X143271511Y-66769801D01*
X143449654Y-66865021D01*
X143449656Y-66865021D01*
X143449659Y-66865023D01*
X143642967Y-66923662D01*
X143844000Y-66943462D01*
X144045033Y-66923662D01*
X144238341Y-66865023D01*
X144265716Y-66850391D01*
X144416488Y-66769801D01*
X144416486Y-66769801D01*
X144416494Y-66769798D01*
X144572647Y-66641647D01*
X144700798Y-66485494D01*
X144796023Y-66307341D01*
X144854662Y-66114033D01*
X144874462Y-65913000D01*
X144854662Y-65711967D01*
X144796023Y-65518659D01*
X144796021Y-65518656D01*
X144796021Y-65518654D01*
X144700801Y-65340511D01*
X144700799Y-65340509D01*
X144700798Y-65340506D01*
X144645202Y-65272762D01*
X144572647Y-65184352D01*
X144416495Y-65056203D01*
X144416488Y-65056198D01*
X144238345Y-64960978D01*
X144045031Y-64902337D01*
X143844000Y-64882538D01*
X143642968Y-64902337D01*
X143449654Y-64960978D01*
X143271511Y-65056198D01*
X143271504Y-65056203D01*
X143115352Y-65184352D01*
X142987203Y-65340504D01*
X142987198Y-65340511D01*
X142891978Y-65518654D01*
X142833337Y-65711968D01*
X142813538Y-65913000D01*
X140924840Y-65913000D01*
X141643547Y-65194293D01*
X141729590Y-65113494D01*
X141804829Y-65022545D01*
X141882888Y-64934006D01*
X141889482Y-64924301D01*
X141903395Y-64903828D01*
X141906888Y-64899176D01*
X141930147Y-64871063D01*
X141993391Y-64771404D01*
X142059742Y-64673774D01*
X142076311Y-64641252D01*
X142079189Y-64636208D01*
X142098737Y-64605407D01*
X142148987Y-64498619D01*
X142202583Y-64393432D01*
X142214941Y-64359101D01*
X142217166Y-64353730D01*
X142232703Y-64320715D01*
X142269179Y-64208451D01*
X142309162Y-64097396D01*
X142317121Y-64061783D01*
X142318653Y-64056186D01*
X142329931Y-64021479D01*
X142352049Y-63905529D01*
X142377798Y-63790338D01*
X142381231Y-63754012D01*
X142382049Y-63748257D01*
X142388888Y-63712415D01*
X142388888Y-63712413D01*
X142388889Y-63712409D01*
X142396299Y-63594616D01*
X142399351Y-63562327D01*
X142407408Y-63477098D01*
X142403700Y-63359107D01*
X142403700Y-62609049D01*
X142423385Y-62542010D01*
X142476189Y-62496255D01*
X142545347Y-62486311D01*
X142608903Y-62515336D01*
X142626967Y-62534739D01*
X142667140Y-62588405D01*
X142667156Y-62588423D01*
X142859315Y-62780582D01*
X142859333Y-62780598D01*
X143076895Y-62943462D01*
X143076903Y-62943467D01*
X143315428Y-63073712D01*
X143315432Y-63073714D01*
X143570084Y-63168694D01*
X143835641Y-63226462D01*
X143835648Y-63226463D01*
X144106738Y-63245853D01*
X144106740Y-63245853D01*
X144377829Y-63226463D01*
X144377836Y-63226462D01*
X144643389Y-63168695D01*
X144832551Y-63098141D01*
X144217418Y-62032702D01*
X144275490Y-62025651D01*
X144434434Y-61965371D01*
X144574334Y-61868806D01*
X144650503Y-61782828D01*
X145265065Y-62847281D01*
X145354147Y-62780595D01*
X145354165Y-62780579D01*
X145546321Y-62588423D01*
X145546337Y-62588405D01*
X145709201Y-62370843D01*
X145709206Y-62370835D01*
X145839451Y-62132310D01*
X145839453Y-62132306D01*
X145934433Y-61877654D01*
X145992201Y-61612097D01*
X145992202Y-61612090D01*
X146011592Y-61341001D01*
X146011592Y-61340998D01*
X145992202Y-61069909D01*
X145992201Y-61069902D01*
X145934434Y-60804349D01*
X145863879Y-60615186D01*
X144800162Y-61229324D01*
X144766057Y-61090954D01*
X144687059Y-60940434D01*
X144574334Y-60813194D01*
X144550007Y-60796402D01*
X145613020Y-60182672D01*
X145546331Y-60093588D01*
X145546321Y-60093576D01*
X145354162Y-59901417D01*
X145354144Y-59901401D01*
X145136582Y-59738537D01*
X145136574Y-59738532D01*
X144898049Y-59608287D01*
X144898045Y-59608285D01*
X144643393Y-59513305D01*
X144377836Y-59455537D01*
X144377829Y-59455536D01*
X144106740Y-59436147D01*
X144106738Y-59436147D01*
X143835648Y-59455536D01*
X143835641Y-59455537D01*
X143570078Y-59513307D01*
X143380925Y-59583856D01*
X143380925Y-59583857D01*
X143996058Y-60649297D01*
X143937988Y-60656349D01*
X143779044Y-60716629D01*
X143639144Y-60813194D01*
X143562974Y-60899171D01*
X142948411Y-59834718D01*
X142859327Y-59901406D01*
X142859315Y-59901417D01*
X142667156Y-60093576D01*
X142667146Y-60093588D01*
X142626967Y-60147261D01*
X142571033Y-60189132D01*
X142501341Y-60194116D01*
X142440018Y-60160631D01*
X142406534Y-60099308D01*
X142403700Y-60072950D01*
X142403700Y-59677698D01*
X142423385Y-59610659D01*
X142440015Y-59590021D01*
X143109498Y-58920537D01*
X143112778Y-58917490D01*
X143160764Y-58876071D01*
X143221159Y-58808993D01*
X143223345Y-58806691D01*
X143231483Y-58798554D01*
X143274789Y-58749432D01*
X143371296Y-58642251D01*
X143376749Y-58634403D01*
X143381155Y-58628783D01*
X143387485Y-58621605D01*
X143468582Y-58502273D01*
X143550863Y-58383887D01*
X143555292Y-58375412D01*
X143558955Y-58369291D01*
X143564337Y-58361375D01*
X143629831Y-58232834D01*
X143696633Y-58105056D01*
X143699968Y-58096086D01*
X143702832Y-58089561D01*
X143707179Y-58081032D01*
X143756039Y-57945316D01*
X143806306Y-57810153D01*
X143808490Y-57800835D01*
X143810516Y-57793998D01*
X143813758Y-57784996D01*
X143843240Y-57653099D01*
X143877074Y-57591971D01*
X143938587Y-57558836D01*
X144008249Y-57564219D01*
X144051934Y-57592470D01*
X145857810Y-59398347D01*
X145899912Y-59443180D01*
X145938611Y-59484390D01*
X146011122Y-59544376D01*
X146029551Y-59559622D01*
X146118098Y-59637688D01*
X146132811Y-59647686D01*
X146148272Y-59658193D01*
X146152935Y-59661694D01*
X146172280Y-59677698D01*
X146181046Y-59684950D01*
X146265479Y-59738532D01*
X146280699Y-59748191D01*
X146378330Y-59814541D01*
X146378338Y-59814545D01*
X146378343Y-59814548D01*
X146410830Y-59831101D01*
X146415907Y-59833997D01*
X146446686Y-59853530D01*
X146446692Y-59853533D01*
X146446698Y-59853537D01*
X146553506Y-59903797D01*
X146658673Y-59957382D01*
X146658676Y-59957383D01*
X146658678Y-59957384D01*
X146658681Y-59957385D01*
X146692983Y-59969734D01*
X146698375Y-59971966D01*
X146731390Y-59987503D01*
X146731392Y-59987503D01*
X146731395Y-59987505D01*
X146834839Y-60021116D01*
X146843663Y-60023983D01*
X146954709Y-60063962D01*
X146972018Y-60067831D01*
X146990296Y-60071917D01*
X146995933Y-60073459D01*
X147027243Y-60083631D01*
X147030626Y-60084731D01*
X147146575Y-60106849D01*
X147261767Y-60132598D01*
X147298087Y-60136030D01*
X147303857Y-60136852D01*
X147339690Y-60143688D01*
X147339693Y-60143688D01*
X147339696Y-60143689D01*
X147457508Y-60151100D01*
X147575007Y-60162207D01*
X147692977Y-60158500D01*
X152259128Y-60158500D01*
X152377098Y-60162207D01*
X152494596Y-60151100D01*
X152612415Y-60143688D01*
X152648267Y-60136848D01*
X152654007Y-60136031D01*
X152690338Y-60132598D01*
X152805529Y-60106849D01*
X152921479Y-60084731D01*
X152956186Y-60073453D01*
X152961783Y-60071921D01*
X152997396Y-60063962D01*
X153036322Y-60049947D01*
X153055075Y-60044816D01*
X153112141Y-60033931D01*
X153146848Y-60022653D01*
X153152445Y-60021121D01*
X153188058Y-60013162D01*
X153299113Y-59973179D01*
X153411377Y-59936703D01*
X153444392Y-59921166D01*
X153449763Y-59918941D01*
X153484094Y-59906583D01*
X153589277Y-59852989D01*
X153696069Y-59802737D01*
X153726875Y-59783185D01*
X153731936Y-59780300D01*
X153764437Y-59763741D01*
X153862067Y-59697391D01*
X153893099Y-59677698D01*
X153961714Y-59634155D01*
X153961725Y-59634147D01*
X153971165Y-59626337D01*
X153989841Y-59610886D01*
X153994475Y-59607406D01*
X154024667Y-59586889D01*
X154113215Y-59508822D01*
X154204156Y-59433590D01*
X154284955Y-59347547D01*
X156787940Y-56844561D01*
X156792254Y-56840637D01*
X156820356Y-56817390D01*
X156901155Y-56731347D01*
X156928949Y-56703554D01*
X156954938Y-56674074D01*
X157035740Y-56588030D01*
X157057191Y-56558503D01*
X157060825Y-56553968D01*
X157084951Y-56526604D01*
X157151300Y-56428974D01*
X157220678Y-56333484D01*
X157238249Y-56301520D01*
X157241300Y-56296543D01*
X157261799Y-56266381D01*
X157261805Y-56266372D01*
X157315395Y-56161193D01*
X157315396Y-56161192D01*
X157372256Y-56057766D01*
X157385686Y-56023843D01*
X157388077Y-56018545D01*
X157404645Y-55986032D01*
X157444625Y-55874980D01*
X157488081Y-55765225D01*
X157497150Y-55729896D01*
X157498870Y-55724307D01*
X157511220Y-55690006D01*
X157511224Y-55689996D01*
X157536971Y-55574809D01*
X157566328Y-55460473D01*
X157570899Y-55424281D01*
X157571899Y-55418547D01*
X157579860Y-55382938D01*
X157590968Y-55265418D01*
X157605762Y-55148318D01*
X157605762Y-55111852D01*
X157606037Y-55106015D01*
X157606086Y-55105487D01*
X157609470Y-55069698D01*
X157605762Y-54951707D01*
X157605762Y-54833682D01*
X157601190Y-54797502D01*
X157600732Y-54791672D01*
X157600471Y-54783376D01*
X157599587Y-54755216D01*
X157581120Y-54638626D01*
X157566328Y-54521527D01*
X157557251Y-54486175D01*
X157556076Y-54480502D01*
X157550367Y-54444454D01*
X157517432Y-54331090D01*
X157488081Y-54216775D01*
X157474652Y-54182859D01*
X157472767Y-54177351D01*
X157468240Y-54161769D01*
X157462587Y-54142310D01*
X157415698Y-54033956D01*
X157389787Y-53968513D01*
X157372257Y-53924236D01*
X157355450Y-53893664D01*
X157354684Y-53892271D01*
X157352118Y-53887030D01*
X157337633Y-53853557D01*
X157307104Y-53801936D01*
X157277531Y-53751930D01*
X157239279Y-53682350D01*
X157220680Y-53648518D01*
X157220678Y-53648515D01*
X157207317Y-53630126D01*
X157199239Y-53619008D01*
X157196036Y-53614130D01*
X157177473Y-53582743D01*
X157177464Y-53582728D01*
X157105116Y-53489459D01*
X157035744Y-53393975D01*
X157035738Y-53393968D01*
X157010765Y-53367374D01*
X157006979Y-53362941D01*
X156984623Y-53334120D01*
X156984618Y-53334115D01*
X156984615Y-53334111D01*
X156901155Y-53250652D01*
X156820358Y-53164611D01*
X156792254Y-53141362D01*
X156787930Y-53137427D01*
X156762137Y-53111634D01*
X156668872Y-53039291D01*
X156577927Y-52964054D01*
X156577925Y-52964052D01*
X156547126Y-52944506D01*
X156542346Y-52941147D01*
X156513539Y-52918801D01*
X156513523Y-52918791D01*
X156411915Y-52858700D01*
X156351860Y-52820588D01*
X156312269Y-52795463D01*
X156312267Y-52795462D01*
X156279275Y-52779937D01*
X156274112Y-52777203D01*
X156242707Y-52758630D01*
X156242702Y-52758628D01*
X156134343Y-52711737D01*
X156027577Y-52661497D01*
X155992888Y-52650225D01*
X155987447Y-52648168D01*
X155953952Y-52633675D01*
X155840578Y-52600737D01*
X155812518Y-52591620D01*
X155728344Y-52564269D01*
X155692512Y-52557432D01*
X155686834Y-52556069D01*
X155651812Y-52545896D01*
X155651795Y-52545892D01*
X155535218Y-52527429D01*
X155419274Y-52505311D01*
X155419268Y-52505310D01*
X155382886Y-52503022D01*
X155377079Y-52502381D01*
X155347527Y-52497701D01*
X155341046Y-52496675D01*
X155341055Y-52496675D01*
X155223058Y-52492967D01*
X155183851Y-52490500D01*
X155183845Y-52490500D01*
X155144554Y-52490500D01*
X155026567Y-52486792D01*
X155026561Y-52486792D01*
X154990246Y-52490225D01*
X154984409Y-52490500D01*
X152831534Y-52490500D01*
X152764495Y-52470815D01*
X152718740Y-52418011D01*
X152708796Y-52348853D01*
X152737821Y-52285297D01*
X152796599Y-52247523D01*
X152801094Y-52246294D01*
X152888881Y-52224063D01*
X153116607Y-52124173D01*
X153324785Y-51988164D01*
X153507738Y-51819744D01*
X153660474Y-51623509D01*
X153778828Y-51404810D01*
X153859571Y-51169614D01*
X153900500Y-50924335D01*
X153900500Y-50675665D01*
X153859571Y-50430386D01*
X153778828Y-50195190D01*
X153660474Y-49976491D01*
X153507738Y-49780256D01*
X153324785Y-49611836D01*
X153324782Y-49611833D01*
X153116606Y-49475826D01*
X152888881Y-49375936D01*
X152647824Y-49314892D01*
X152647813Y-49314890D01*
X152482548Y-49301197D01*
X152462067Y-49299500D01*
X152337933Y-49299500D01*
X152318521Y-49301108D01*
X152152186Y-49314890D01*
X152152175Y-49314892D01*
X151911118Y-49375936D01*
X151683393Y-49475826D01*
X151475217Y-49611833D01*
X151292261Y-49780257D01*
X151139524Y-49976493D01*
X151021172Y-50195188D01*
X151021169Y-50195197D01*
X150940429Y-50430383D01*
X150910885Y-50607435D01*
X150899500Y-50675665D01*
X150899500Y-50924335D01*
X150900355Y-50929459D01*
X150940429Y-51169616D01*
X151021169Y-51404802D01*
X151021172Y-51404811D01*
X151139524Y-51623506D01*
X151139526Y-51623509D01*
X151292262Y-51819744D01*
X151451744Y-51966557D01*
X151475217Y-51988166D01*
X151683393Y-52124173D01*
X151911118Y-52224063D01*
X151998906Y-52246294D01*
X152059062Y-52281834D01*
X152090454Y-52344254D01*
X152083116Y-52413738D01*
X152039377Y-52468223D01*
X151973124Y-52490412D01*
X151968466Y-52490500D01*
X151328103Y-52490500D01*
X151261064Y-52470815D01*
X151240422Y-52454181D01*
X150113396Y-51327155D01*
X150012474Y-51224097D01*
X150012473Y-51224096D01*
X150012469Y-51224092D01*
X150012459Y-51224084D01*
X149941760Y-51168047D01*
X149939270Y-51165965D01*
X149871607Y-51106312D01*
X149871606Y-51106311D01*
X149819193Y-51070691D01*
X149815531Y-51068000D01*
X149765890Y-51028656D01*
X149765888Y-51028654D01*
X149714109Y-50997296D01*
X149688717Y-50981918D01*
X149686010Y-50980180D01*
X149611375Y-50929459D01*
X149601317Y-50924334D01*
X149554910Y-50900688D01*
X149550938Y-50898477D01*
X149496772Y-50865672D01*
X149496756Y-50865664D01*
X149414361Y-50828979D01*
X149411432Y-50827582D01*
X149331035Y-50786618D01*
X149271417Y-50765153D01*
X149267201Y-50763458D01*
X149209334Y-50737694D01*
X149209330Y-50737693D01*
X149209328Y-50737692D01*
X149171880Y-50726385D01*
X149122957Y-50711614D01*
X149119877Y-50710595D01*
X149034995Y-50680037D01*
X148997858Y-50671736D01*
X148973152Y-50666213D01*
X148968779Y-50665066D01*
X148908120Y-50646753D01*
X148819178Y-50631709D01*
X148816005Y-50631087D01*
X148727941Y-50611402D01*
X148727924Y-50611400D01*
X148664858Y-50605438D01*
X148660354Y-50604845D01*
X148597895Y-50594281D01*
X148597884Y-50594280D01*
X148507755Y-50590503D01*
X148504517Y-50590283D01*
X148468260Y-50586856D01*
X148414698Y-50581793D01*
X148414695Y-50581793D01*
X148351369Y-50583782D01*
X148346826Y-50583758D01*
X148283535Y-50581106D01*
X148283521Y-50581106D01*
X148193643Y-50588653D01*
X148190403Y-50588840D01*
X148100209Y-50591675D01*
X148037635Y-50601587D01*
X148033123Y-50602133D01*
X147970002Y-50607433D01*
X147969987Y-50607435D01*
X147881746Y-50626190D01*
X147878556Y-50626781D01*
X147789463Y-50640892D01*
X147789454Y-50640895D01*
X147728608Y-50658572D01*
X147724200Y-50659679D01*
X147662239Y-50672849D01*
X147662237Y-50672850D01*
X147577033Y-50702519D01*
X147573948Y-50703504D01*
X147487312Y-50728675D01*
X147487311Y-50728675D01*
X147429161Y-50753838D01*
X147424929Y-50755488D01*
X147365094Y-50776326D01*
X147284301Y-50816432D01*
X147281358Y-50817797D01*
X147198548Y-50853634D01*
X147198546Y-50853635D01*
X147074382Y-50927066D01*
X143974468Y-52716801D01*
X143969866Y-52719207D01*
X143924699Y-52740462D01*
X143859867Y-52781605D01*
X143856516Y-52783587D01*
X143789233Y-52820577D01*
X143789223Y-52820583D01*
X143789222Y-52820584D01*
X143727088Y-52865726D01*
X143723878Y-52867907D01*
X143659053Y-52909045D01*
X143659042Y-52909053D01*
X143641298Y-52923731D01*
X143636090Y-52927599D01*
X143616912Y-52940342D01*
X143579129Y-52972955D01*
X143575059Y-52976181D01*
X143534679Y-53005518D01*
X143478693Y-53058092D01*
X143475772Y-53060668D01*
X143416615Y-53109606D01*
X143416608Y-53109613D01*
X143400853Y-53126389D01*
X143396173Y-53130877D01*
X143378740Y-53145926D01*
X143345332Y-53183027D01*
X143341700Y-53186736D01*
X143305311Y-53220910D01*
X143256374Y-53280066D01*
X143253798Y-53282987D01*
X143201229Y-53338968D01*
X143187699Y-53357591D01*
X143183613Y-53362637D01*
X143168210Y-53379744D01*
X143168205Y-53379749D01*
X143139720Y-53420732D01*
X143136582Y-53424867D01*
X143104753Y-53463344D01*
X143063613Y-53528171D01*
X143061424Y-53531393D01*
X143016293Y-53593510D01*
X143016292Y-53593512D01*
X143005198Y-53613689D01*
X143001781Y-53619201D01*
X142988640Y-53638110D01*
X142965511Y-53682350D01*
X142962915Y-53686847D01*
X142936167Y-53728995D01*
X142903476Y-53798466D01*
X142901708Y-53801936D01*
X142864711Y-53869234D01*
X142856232Y-53890647D01*
X142853532Y-53896545D01*
X142842870Y-53916941D01*
X142842869Y-53916943D01*
X142825469Y-53963727D01*
X142823458Y-53968513D01*
X142802202Y-54013687D01*
X142802201Y-54013690D01*
X142778476Y-54086706D01*
X142777157Y-54090371D01*
X142748888Y-54161769D01*
X142743158Y-54184079D01*
X142741220Y-54190265D01*
X142733196Y-54211846D01*
X142721796Y-54260444D01*
X142720400Y-54265445D01*
X142704975Y-54312922D01*
X142690582Y-54388363D01*
X142689733Y-54392163D01*
X142670638Y-54466534D01*
X142667754Y-54489366D01*
X142666604Y-54495756D01*
X142661350Y-54518159D01*
X142661347Y-54518173D01*
X142656128Y-54567818D01*
X142655370Y-54572952D01*
X142646019Y-54621973D01*
X142646016Y-54622000D01*
X142641196Y-54698621D01*
X142640829Y-54702499D01*
X142638471Y-54721166D01*
X142610540Y-54785210D01*
X142552418Y-54823987D01*
X142482559Y-54825185D01*
X142466203Y-54819428D01*
X142412879Y-54796353D01*
X142402365Y-54791672D01*
X142281124Y-54737692D01*
X142281120Y-54737690D01*
X142281111Y-54737687D01*
X142271957Y-54734922D01*
X142265262Y-54732472D01*
X142256497Y-54728680D01*
X142256487Y-54728676D01*
X142118025Y-54688450D01*
X141979914Y-54646752D01*
X141970475Y-54645155D01*
X141963529Y-54643564D01*
X141954348Y-54640897D01*
X141954334Y-54640894D01*
X141811909Y-54618336D01*
X141770912Y-54611402D01*
X141669686Y-54594281D01*
X141669684Y-54594280D01*
X141669679Y-54594280D01*
X141660125Y-54593879D01*
X141653022Y-54593170D01*
X141643585Y-54591675D01*
X141499420Y-54587145D01*
X141355333Y-54581106D01*
X141355317Y-54581106D01*
X141345786Y-54581906D01*
X141338657Y-54582092D01*
X141334613Y-54581966D01*
X141329105Y-54581793D01*
X141329095Y-54581793D01*
X141185496Y-54595366D01*
X141041796Y-54607433D01*
X141041775Y-54607436D01*
X141032442Y-54609420D01*
X141025393Y-54610499D01*
X141015865Y-54611400D01*
X140875086Y-54642868D01*
X140734036Y-54672848D01*
X140724990Y-54675997D01*
X140718137Y-54677949D01*
X140708809Y-54680035D01*
X140708791Y-54680040D01*
X140573083Y-54728898D01*
X140436909Y-54776319D01*
X140436883Y-54776330D01*
X140428327Y-54780577D01*
X140421765Y-54783376D01*
X140412768Y-54786615D01*
X140412763Y-54786617D01*
X140284231Y-54852107D01*
X140225601Y-54881212D01*
X140220055Y-54884413D01*
X140215661Y-54886950D01*
X140212813Y-54888496D01*
X140132432Y-54929452D01*
X140132423Y-54929457D01*
X140080013Y-54965074D01*
X140076163Y-54967488D01*
X137011374Y-56736946D01*
X137008521Y-56738494D01*
X136928133Y-56779455D01*
X136928120Y-56779462D01*
X136818823Y-56853741D01*
X133183661Y-59218602D01*
X133179721Y-59220963D01*
X133125112Y-59250986D01*
X133125110Y-59250987D01*
X133051290Y-59304619D01*
X133048663Y-59306427D01*
X133038170Y-59313254D01*
X133038167Y-59313257D01*
X132986424Y-59351749D01*
X132870578Y-59435914D01*
X132870569Y-59435922D01*
X132862840Y-59443180D01*
X132857410Y-59447724D01*
X132848908Y-59454049D01*
X132848900Y-59454056D01*
X132745605Y-59553271D01*
X132641211Y-59651304D01*
X132641204Y-59651312D01*
X132634457Y-59659468D01*
X132629635Y-59664661D01*
X132621983Y-59672011D01*
X132531923Y-59783409D01*
X132440657Y-59893731D01*
X132440648Y-59893743D01*
X132434970Y-59902689D01*
X132430843Y-59908437D01*
X132424181Y-59916679D01*
X132424175Y-59916688D01*
X132348797Y-60038478D01*
X132272061Y-60159395D01*
X132272060Y-60159397D01*
X132267549Y-60168983D01*
X132264171Y-60175210D01*
X132258596Y-60184217D01*
X132258591Y-60184228D01*
X132199068Y-60314513D01*
X132138098Y-60444081D01*
X132138093Y-60444095D01*
X132134816Y-60454177D01*
X132132249Y-60460769D01*
X132127845Y-60470411D01*
X132085142Y-60607061D01*
X132040868Y-60743321D01*
X132038881Y-60753737D01*
X132037158Y-60760606D01*
X132033999Y-60770720D01*
X132008756Y-60911661D01*
X131981911Y-61052386D01*
X131981911Y-61052387D01*
X131981245Y-61062967D01*
X131980398Y-61069992D01*
X131978527Y-61080444D01*
X131971150Y-61223438D01*
X131967100Y-61287813D01*
X131967100Y-61300341D01*
X131967018Y-61303513D01*
X131962316Y-61394653D01*
X131528722Y-61394653D01*
X131528722Y-61119897D01*
X131528807Y-61116652D01*
X131533290Y-61031125D01*
X131547033Y-60794816D01*
X131547689Y-60788752D01*
X131569934Y-60648309D01*
X131601873Y-60467183D01*
X131603026Y-60461980D01*
X131642338Y-60315272D01*
X131642566Y-60314513D01*
X131692559Y-60147529D01*
X131694069Y-60143104D01*
X131724450Y-60063959D01*
X131749850Y-59997790D01*
X131754288Y-59987505D01*
X131818097Y-59839582D01*
X131819740Y-59836084D01*
X131890453Y-59697306D01*
X131891989Y-59694480D01*
X131941753Y-59608287D01*
X131977063Y-59547129D01*
X131978723Y-59544419D01*
X132063563Y-59413779D01*
X132065801Y-59410564D01*
X132168657Y-59272405D01*
X132266640Y-59151408D01*
X132269685Y-59147926D01*
X132389864Y-59020546D01*
X132497242Y-58913169D01*
X132501201Y-58909542D01*
X132642111Y-58791306D01*
X132752612Y-58701826D01*
X132757519Y-58698239D01*
X132951812Y-58570452D01*
X133027663Y-58521195D01*
X133030396Y-58519520D01*
X150898834Y-48203171D01*
X150901620Y-48201658D01*
X151019363Y-48141665D01*
X151183478Y-48058816D01*
X151189135Y-48056310D01*
X151333203Y-48001008D01*
X151487801Y-47943646D01*
X151493283Y-47941898D01*
X151646172Y-47900932D01*
X151802791Y-47862090D01*
X151807963Y-47861042D01*
X151966058Y-47836002D01*
X152124705Y-47815116D01*
X152129483Y-47814677D01*
X152290355Y-47806246D01*
X152449827Y-47803264D01*
X152454141Y-47803337D01*
G37*
%TD.AperFunction*%
%TD*%
M02*
