%TF.GenerationSoftware,KiCad,Pcbnew,7.0.9*%
%TF.CreationDate,2024-01-11T17:45:55+09:00*%
%TF.ProjectId,PowerSuplyUnit,506f7765-7253-4757-906c-79556e69742e,rev?*%
%TF.SameCoordinates,Original*%
%TF.FileFunction,Drillmap*%
%TF.FilePolarity,Positive*%
%FSLAX45Y45*%
G04 Gerber Fmt 4.5, Leading zero omitted, Abs format (unit mm)*
G04 Created by KiCad (PCBNEW 7.0.9) date 2024-01-11 17:45:55*
%MOMM*%
%LPD*%
G01*
G04 APERTURE LIST*
%ADD10C,0.200000*%
%ADD11C,0.100000*%
%ADD12C,0.140000*%
%ADD13C,0.170000*%
G04 APERTURE END LIST*
D10*
X14224000Y-10541000D02*
X14224000Y-12299579D01*
X14253289Y-12370289D02*
X14953289Y-13070289D01*
X13562822Y-15213582D02*
G75*
G03*
X13562822Y-15213582I-110000J0D01*
G01*
X13632204Y-15454045D02*
G75*
G03*
X17621340Y-6645749I-5979381J8015422D01*
G01*
X15124000Y-10541000D02*
G75*
G03*
X15024000Y-10441000I-100000J0D01*
G01*
X17322285Y-6369535D02*
X16720635Y-6369535D01*
X13152822Y-6111828D02*
X13152822Y-15213582D01*
X14224001Y-12299579D02*
G75*
G03*
X14253289Y-12370289I99999J-1D01*
G01*
X16136068Y-6032035D02*
X15499808Y-4930000D01*
X13152817Y-15213582D02*
G75*
G03*
X13632204Y-15454045I300003J2D01*
G01*
X13302824Y-5852023D02*
G75*
G03*
X13152822Y-6111828I149996J-259807D01*
G01*
X17621340Y-6645749D02*
G75*
G03*
X17322285Y-6369535I-299060J-23791D01*
G01*
X15024000Y-10441000D02*
X14324000Y-10441000D01*
X15124000Y-12999579D02*
X15124000Y-10541000D01*
X15090000Y-4820192D02*
X13302822Y-5852020D01*
X15350000Y-5080000D02*
G75*
G03*
X15350000Y-5080000I-110000J0D01*
G01*
X17462822Y-7438622D02*
G75*
G03*
X17462822Y-7438622I-110000J0D01*
G01*
X16136074Y-6032032D02*
G75*
G03*
X16720635Y-6369535I584566J337492D01*
G01*
X14324000Y-10441000D02*
G75*
G03*
X14224000Y-10541000I0J-100000D01*
G01*
X15499808Y-4930000D02*
G75*
G03*
X15090000Y-4820192I-259808J-150000D01*
G01*
X14953289Y-13070290D02*
G75*
G03*
X15124000Y-12999579I70711J70710D01*
G01*
D11*
X13340400Y-9886000D02*
X13380400Y-9926000D01*
X13380400Y-9886000D02*
X13340400Y-9926000D01*
X13340400Y-12807000D02*
X13380400Y-12847000D01*
X13380400Y-12807000D02*
X13340400Y-12847000D01*
X13391200Y-11425240D02*
X13431200Y-11465240D01*
X13431200Y-11425240D02*
X13391200Y-11465240D01*
X13868720Y-13162600D02*
X13908720Y-13202600D01*
X13908720Y-13162600D02*
X13868720Y-13202600D01*
X14051600Y-9581200D02*
X14091600Y-9621200D01*
X14091600Y-9581200D02*
X14051600Y-9621200D01*
X14051600Y-12299000D02*
X14091600Y-12339000D01*
X14091600Y-12299000D02*
X14051600Y-12339000D01*
X14087160Y-11069640D02*
X14127160Y-11109640D01*
X14127160Y-11069640D02*
X14087160Y-11109640D01*
X14153200Y-6609400D02*
X14193200Y-6649400D01*
X14193200Y-6609400D02*
X14153200Y-6649400D01*
X14254800Y-8920800D02*
X14294800Y-8960800D01*
X14294800Y-8920800D02*
X14254800Y-8960800D01*
X14280200Y-7244400D02*
X14320200Y-7284400D01*
X14320200Y-7244400D02*
X14280200Y-7284400D01*
X14292900Y-8108000D02*
X14332900Y-8148000D01*
X14332900Y-8108000D02*
X14292900Y-8148000D01*
X14488480Y-14554520D02*
X14528480Y-14594520D01*
X14528480Y-14554520D02*
X14488480Y-14594520D01*
X14508800Y-10140000D02*
X14548800Y-10180000D01*
X14548800Y-10140000D02*
X14508800Y-10180000D01*
X14635800Y-6304600D02*
X14675800Y-6344600D01*
X14675800Y-6304600D02*
X14635800Y-6344600D01*
X14661200Y-6838000D02*
X14701200Y-6878000D01*
X14701200Y-6838000D02*
X14661200Y-6878000D01*
X14712000Y-8920800D02*
X14752000Y-8960800D01*
X14752000Y-8920800D02*
X14712000Y-8960800D01*
X14722160Y-12954320D02*
X14762160Y-12994320D01*
X14762160Y-12954320D02*
X14722160Y-12994320D01*
X14813600Y-14244640D02*
X14853600Y-14284640D01*
X14853600Y-14244640D02*
X14813600Y-14284640D01*
X14927900Y-7663500D02*
X14967900Y-7703500D01*
X14967900Y-7663500D02*
X14927900Y-7703500D01*
X15042200Y-6050600D02*
X15082200Y-6090600D01*
X15082200Y-6050600D02*
X15042200Y-6090600D01*
X15189520Y-11719880D02*
X15229520Y-11759880D01*
X15229520Y-11719880D02*
X15189520Y-11759880D01*
X15194600Y-12776520D02*
X15234600Y-12816520D01*
X15234600Y-12776520D02*
X15194600Y-12816520D01*
X15204760Y-10653080D02*
X15244760Y-10693080D01*
X15244760Y-10653080D02*
X15204760Y-10693080D01*
X15341920Y-13604560D02*
X15381920Y-13644560D01*
X15381920Y-13604560D02*
X15341920Y-13644560D01*
X15347000Y-6050600D02*
X15387000Y-6090600D01*
X15387000Y-6050600D02*
X15347000Y-6090600D01*
X15474000Y-9073200D02*
X15514000Y-9113200D01*
X15514000Y-9073200D02*
X15474000Y-9113200D01*
X15479080Y-10282240D02*
X15519080Y-10322240D01*
X15519080Y-10282240D02*
X15479080Y-10322240D01*
X15824520Y-13035600D02*
X15864520Y-13075600D01*
X15864520Y-13035600D02*
X15824520Y-13075600D01*
X16058200Y-8971600D02*
X16098200Y-9011600D01*
X16098200Y-8971600D02*
X16058200Y-9011600D01*
X16149640Y-11013760D02*
X16189640Y-11053760D01*
X16189640Y-11013760D02*
X16149640Y-11053760D01*
X16169960Y-12481880D02*
X16209960Y-12521880D01*
X16209960Y-12481880D02*
X16169960Y-12521880D01*
X16388400Y-9657400D02*
X16428400Y-9697400D01*
X16428400Y-9657400D02*
X16388400Y-9697400D01*
X16525560Y-10424480D02*
X16565560Y-10464480D01*
X16565560Y-10424480D02*
X16525560Y-10464480D01*
X16693200Y-11283000D02*
X16733200Y-11323000D01*
X16733200Y-11283000D02*
X16693200Y-11323000D01*
X17150400Y-9606600D02*
X17190400Y-9646600D01*
X17190400Y-9606600D02*
X17150400Y-9646600D01*
X17353600Y-7828600D02*
X17393600Y-7868600D01*
X17393600Y-7828600D02*
X17353600Y-7868600D01*
X17454252Y-6825855D02*
X17494252Y-6865855D01*
X17494252Y-6825855D02*
X17454252Y-6865855D01*
X13845350Y-5893600D02*
G75*
G03*
X13845350Y-5893600I-25000J0D01*
G01*
X13758700Y-5836818D02*
X13838700Y-5975382D01*
X13838700Y-5975382D02*
G75*
G03*
X13882001Y-5950382I21651J12500D01*
G01*
X13882001Y-5950382D02*
X13802001Y-5811818D01*
X13802001Y-5811818D02*
G75*
G03*
X13758700Y-5836818I-21651J-12500D01*
G01*
X14165780Y-5708600D02*
G75*
G03*
X14165780Y-5708600I-25000J0D01*
G01*
X14079129Y-5651818D02*
X14159129Y-5790382D01*
X14159129Y-5790382D02*
G75*
G03*
X14202430Y-5765382I21651J12500D01*
G01*
X14202430Y-5765382D02*
X14122430Y-5626818D01*
X14122430Y-5626818D02*
G75*
G03*
X14079129Y-5651818I-21651J-12500D01*
G01*
X14538171Y-5493600D02*
G75*
G03*
X14538171Y-5493600I-25000J0D01*
G01*
X14451520Y-5436818D02*
X14531520Y-5575382D01*
X14531520Y-5575382D02*
G75*
G03*
X14574821Y-5550382I21651J12500D01*
G01*
X14574821Y-5550382D02*
X14494821Y-5411818D01*
X14494821Y-5411818D02*
G75*
G03*
X14451520Y-5436818I-21651J-12500D01*
G01*
X14858600Y-5308600D02*
G75*
G03*
X14858600Y-5308600I-25000J0D01*
G01*
X14771949Y-5251818D02*
X14851949Y-5390382D01*
X14851949Y-5390382D02*
G75*
G03*
X14895251Y-5365382I21651J12500D01*
G01*
X14895251Y-5365382D02*
X14815251Y-5226818D01*
X14815251Y-5226818D02*
G75*
G03*
X14771949Y-5251818I-21651J-12500D01*
G01*
X14986000Y-8689900D02*
X14986000Y-8759900D01*
X14951000Y-8724900D02*
X15021000Y-8724900D01*
X15211300Y-6184000D02*
X15211300Y-6254000D01*
X15176300Y-6219000D02*
X15246300Y-6219000D01*
X15211300Y-6692000D02*
X15211300Y-6762000D01*
X15176300Y-6727000D02*
X15246300Y-6727000D01*
X15494000Y-8689900D02*
X15494000Y-8759900D01*
X15459000Y-8724900D02*
X15529000Y-8724900D01*
X13388684Y-9712035D02*
X13388684Y-9655466D01*
X13332115Y-9655466D01*
X13332115Y-9712035D01*
X13388684Y-9712035D01*
X13388684Y-13661734D02*
X13388684Y-13605165D01*
X13332115Y-13605165D01*
X13332115Y-13661734D01*
X13388684Y-13661734D01*
X14281684Y-8753185D02*
X14281684Y-8696616D01*
X14225115Y-8696616D01*
X14225115Y-8753185D01*
X14281684Y-8753185D01*
X14412684Y-6619584D02*
X14412684Y-6563015D01*
X14356115Y-6563015D01*
X14356115Y-6619584D01*
X14412684Y-6619584D01*
X14557084Y-9197685D02*
X14557084Y-9141116D01*
X14500515Y-9141116D01*
X14500515Y-9197685D01*
X14557084Y-9197685D01*
X14662684Y-6619584D02*
X14662684Y-6563015D01*
X14606115Y-6563015D01*
X14606115Y-6619584D01*
X14662684Y-6619584D01*
X14781684Y-8753185D02*
X14781684Y-8696616D01*
X14725115Y-8696616D01*
X14725115Y-8753185D01*
X14781684Y-8753185D01*
X14811084Y-9197685D02*
X14811084Y-9141116D01*
X14754515Y-9141116D01*
X14754515Y-9197685D01*
X14811084Y-9197685D01*
X14912684Y-6619584D02*
X14912684Y-6563015D01*
X14856115Y-6563015D01*
X14856115Y-6619584D01*
X14912684Y-6619584D01*
X15065084Y-9197685D02*
X15065084Y-9141116D01*
X15008515Y-9141116D01*
X15008515Y-9197685D01*
X15065084Y-9197685D01*
X15103484Y-9712035D02*
X15103484Y-9655466D01*
X15046915Y-9655466D01*
X15046915Y-9712035D01*
X15103484Y-9712035D01*
X15103484Y-13661734D02*
X15103484Y-13605165D01*
X15046915Y-13605165D01*
X15046915Y-13661734D01*
X15103484Y-13661734D01*
X15509584Y-6251284D02*
X15509584Y-6194715D01*
X15453015Y-6194715D01*
X15453015Y-6251284D01*
X15509584Y-6251284D01*
X15509584Y-6751284D02*
X15509584Y-6694715D01*
X15453015Y-6694715D01*
X15453015Y-6751284D01*
X15509584Y-6751284D01*
X13450900Y-8457400D02*
X13500900Y-8407400D01*
X13450900Y-8357400D01*
X13400900Y-8407400D01*
X13450900Y-8457400D01*
X13450900Y-9143200D02*
X13500900Y-9093200D01*
X13450900Y-9043200D01*
X13400900Y-9093200D01*
X13450900Y-9143200D01*
X13700900Y-8457400D02*
X13750900Y-8407400D01*
X13700900Y-8357400D01*
X13650900Y-8407400D01*
X13700900Y-8457400D01*
X13700900Y-9143200D02*
X13750900Y-9093200D01*
X13700900Y-9043200D01*
X13650900Y-9093200D01*
X13700900Y-9143200D01*
X14584680Y-14070300D02*
X14634680Y-14020300D01*
X14584680Y-13970300D01*
X14534680Y-14020300D01*
X14584680Y-14070300D01*
X14584680Y-14324300D02*
X14634680Y-14274300D01*
X14584680Y-14224300D01*
X14534680Y-14274300D01*
X14584680Y-14324300D01*
X16179800Y-9533800D02*
X16229800Y-9483800D01*
X16179800Y-9433800D01*
X16129800Y-9483800D01*
X16179800Y-9533800D01*
X16079800Y-9533800D02*
X16279800Y-9533800D01*
X16279800Y-9533800D02*
G75*
G03*
X16279800Y-9433800I0J50000D01*
G01*
X16279800Y-9433800D02*
X16079800Y-9433800D01*
X16079800Y-9433800D02*
G75*
G03*
X16079800Y-9533800I0J-50000D01*
G01*
X16179800Y-10133800D02*
X16229800Y-10083800D01*
X16179800Y-10033800D01*
X16129800Y-10083800D01*
X16179800Y-10133800D01*
X16079800Y-10133800D02*
X16279800Y-10133800D01*
X16279800Y-10133800D02*
G75*
G03*
X16279800Y-10033800I0J50000D01*
G01*
X16279800Y-10033800D02*
X16079800Y-10033800D01*
X16079800Y-10033800D02*
G75*
G03*
X16079800Y-10133800I0J-50000D01*
G01*
D12*
X14340674Y-6064100D02*
X14480674Y-6204100D01*
X14480674Y-6064100D02*
X14340674Y-6204100D01*
X14480674Y-6134100D02*
G75*
G03*
X14480674Y-6134100I-70000J0D01*
G01*
X15440526Y-5429100D02*
X15580526Y-5569100D01*
X15580526Y-5429100D02*
X15440526Y-5569100D01*
X15580526Y-5499100D02*
G75*
G03*
X15580526Y-5499100I-70000J0D01*
G01*
D13*
X13324390Y-14280360D02*
X13494390Y-14450360D01*
X13494390Y-14280360D02*
X13324390Y-14450360D01*
X13409390Y-14280360D02*
X13409390Y-14450360D01*
X13324390Y-14365360D02*
X13494390Y-14365360D01*
X13605600Y-6417400D02*
X13775600Y-6587400D01*
X13775600Y-6417400D02*
X13605600Y-6587400D01*
X13690600Y-6417400D02*
X13690600Y-6587400D01*
X13605600Y-6502400D02*
X13775600Y-6502400D01*
X13605600Y-6813400D02*
X13775600Y-6983400D01*
X13775600Y-6813400D02*
X13605600Y-6983400D01*
X13690600Y-6813400D02*
X13690600Y-6983400D01*
X13605600Y-6898400D02*
X13775600Y-6898400D01*
X13605600Y-7291400D02*
X13775600Y-7461400D01*
X13775600Y-7291400D02*
X13605600Y-7461400D01*
X13690600Y-7291400D02*
X13690600Y-7461400D01*
X13605600Y-7376400D02*
X13775600Y-7376400D01*
X13605600Y-7687400D02*
X13775600Y-7857400D01*
X13775600Y-7687400D02*
X13605600Y-7857400D01*
X13690600Y-7687400D02*
X13690600Y-7857400D01*
X13605600Y-7772400D02*
X13775600Y-7772400D01*
X13720390Y-14280360D02*
X13890390Y-14450360D01*
X13890390Y-14280360D02*
X13720390Y-14450360D01*
X13805390Y-14280360D02*
X13805390Y-14450360D01*
X13720390Y-14365360D02*
X13890390Y-14365360D01*
D10*
X13403599Y-15835067D02*
X13403599Y-15635067D01*
X13403599Y-15635067D02*
X13451218Y-15635067D01*
X13451218Y-15635067D02*
X13479789Y-15644591D01*
X13479789Y-15644591D02*
X13498837Y-15663638D01*
X13498837Y-15663638D02*
X13508361Y-15682686D01*
X13508361Y-15682686D02*
X13517885Y-15720781D01*
X13517885Y-15720781D02*
X13517885Y-15749353D01*
X13517885Y-15749353D02*
X13508361Y-15787448D01*
X13508361Y-15787448D02*
X13498837Y-15806495D01*
X13498837Y-15806495D02*
X13479789Y-15825543D01*
X13479789Y-15825543D02*
X13451218Y-15835067D01*
X13451218Y-15835067D02*
X13403599Y-15835067D01*
X13603599Y-15835067D02*
X13603599Y-15701734D01*
X13603599Y-15739829D02*
X13613123Y-15720781D01*
X13613123Y-15720781D02*
X13622647Y-15711257D01*
X13622647Y-15711257D02*
X13641694Y-15701734D01*
X13641694Y-15701734D02*
X13660742Y-15701734D01*
X13727408Y-15835067D02*
X13727408Y-15701734D01*
X13727408Y-15635067D02*
X13717885Y-15644591D01*
X13717885Y-15644591D02*
X13727408Y-15654115D01*
X13727408Y-15654115D02*
X13736932Y-15644591D01*
X13736932Y-15644591D02*
X13727408Y-15635067D01*
X13727408Y-15635067D02*
X13727408Y-15654115D01*
X13851218Y-15835067D02*
X13832170Y-15825543D01*
X13832170Y-15825543D02*
X13822647Y-15806495D01*
X13822647Y-15806495D02*
X13822647Y-15635067D01*
X13955980Y-15835067D02*
X13936932Y-15825543D01*
X13936932Y-15825543D02*
X13927408Y-15806495D01*
X13927408Y-15806495D02*
X13927408Y-15635067D01*
X14184551Y-15835067D02*
X14184551Y-15635067D01*
X14184551Y-15635067D02*
X14251218Y-15777924D01*
X14251218Y-15777924D02*
X14317885Y-15635067D01*
X14317885Y-15635067D02*
X14317885Y-15835067D01*
X14498837Y-15835067D02*
X14498837Y-15730305D01*
X14498837Y-15730305D02*
X14489313Y-15711257D01*
X14489313Y-15711257D02*
X14470266Y-15701734D01*
X14470266Y-15701734D02*
X14432170Y-15701734D01*
X14432170Y-15701734D02*
X14413123Y-15711257D01*
X14498837Y-15825543D02*
X14479789Y-15835067D01*
X14479789Y-15835067D02*
X14432170Y-15835067D01*
X14432170Y-15835067D02*
X14413123Y-15825543D01*
X14413123Y-15825543D02*
X14403599Y-15806495D01*
X14403599Y-15806495D02*
X14403599Y-15787448D01*
X14403599Y-15787448D02*
X14413123Y-15768400D01*
X14413123Y-15768400D02*
X14432170Y-15758876D01*
X14432170Y-15758876D02*
X14479789Y-15758876D01*
X14479789Y-15758876D02*
X14498837Y-15749353D01*
X14594075Y-15701734D02*
X14594075Y-15901734D01*
X14594075Y-15711257D02*
X14613123Y-15701734D01*
X14613123Y-15701734D02*
X14651218Y-15701734D01*
X14651218Y-15701734D02*
X14670266Y-15711257D01*
X14670266Y-15711257D02*
X14679789Y-15720781D01*
X14679789Y-15720781D02*
X14689313Y-15739829D01*
X14689313Y-15739829D02*
X14689313Y-15796972D01*
X14689313Y-15796972D02*
X14679789Y-15816019D01*
X14679789Y-15816019D02*
X14670266Y-15825543D01*
X14670266Y-15825543D02*
X14651218Y-15835067D01*
X14651218Y-15835067D02*
X14613123Y-15835067D01*
X14613123Y-15835067D02*
X14594075Y-15825543D01*
X14775028Y-15816019D02*
X14784551Y-15825543D01*
X14784551Y-15825543D02*
X14775028Y-15835067D01*
X14775028Y-15835067D02*
X14765504Y-15825543D01*
X14765504Y-15825543D02*
X14775028Y-15816019D01*
X14775028Y-15816019D02*
X14775028Y-15835067D01*
X14775028Y-15711257D02*
X14784551Y-15720781D01*
X14784551Y-15720781D02*
X14775028Y-15730305D01*
X14775028Y-15730305D02*
X14765504Y-15720781D01*
X14765504Y-15720781D02*
X14775028Y-15711257D01*
X14775028Y-15711257D02*
X14775028Y-15730305D01*
D11*
X13102822Y-16143583D02*
X13142822Y-16183583D01*
X13142822Y-16143583D02*
X13102822Y-16183583D01*
D10*
X13441694Y-16055067D02*
X13460742Y-16055067D01*
X13460742Y-16055067D02*
X13479789Y-16064591D01*
X13479789Y-16064591D02*
X13489313Y-16074115D01*
X13489313Y-16074115D02*
X13498837Y-16093162D01*
X13498837Y-16093162D02*
X13508361Y-16131257D01*
X13508361Y-16131257D02*
X13508361Y-16178876D01*
X13508361Y-16178876D02*
X13498837Y-16216972D01*
X13498837Y-16216972D02*
X13489313Y-16236019D01*
X13489313Y-16236019D02*
X13479789Y-16245543D01*
X13479789Y-16245543D02*
X13460742Y-16255067D01*
X13460742Y-16255067D02*
X13441694Y-16255067D01*
X13441694Y-16255067D02*
X13422647Y-16245543D01*
X13422647Y-16245543D02*
X13413123Y-16236019D01*
X13413123Y-16236019D02*
X13403599Y-16216972D01*
X13403599Y-16216972D02*
X13394075Y-16178876D01*
X13394075Y-16178876D02*
X13394075Y-16131257D01*
X13394075Y-16131257D02*
X13403599Y-16093162D01*
X13403599Y-16093162D02*
X13413123Y-16074115D01*
X13413123Y-16074115D02*
X13422647Y-16064591D01*
X13422647Y-16064591D02*
X13441694Y-16055067D01*
X13594075Y-16236019D02*
X13603599Y-16245543D01*
X13603599Y-16245543D02*
X13594075Y-16255067D01*
X13594075Y-16255067D02*
X13584551Y-16245543D01*
X13584551Y-16245543D02*
X13594075Y-16236019D01*
X13594075Y-16236019D02*
X13594075Y-16255067D01*
X13775028Y-16121734D02*
X13775028Y-16255067D01*
X13727408Y-16045543D02*
X13679789Y-16188400D01*
X13679789Y-16188400D02*
X13803599Y-16188400D01*
X13917885Y-16055067D02*
X13936932Y-16055067D01*
X13936932Y-16055067D02*
X13955980Y-16064591D01*
X13955980Y-16064591D02*
X13965504Y-16074115D01*
X13965504Y-16074115D02*
X13975028Y-16093162D01*
X13975028Y-16093162D02*
X13984551Y-16131257D01*
X13984551Y-16131257D02*
X13984551Y-16178876D01*
X13984551Y-16178876D02*
X13975028Y-16216972D01*
X13975028Y-16216972D02*
X13965504Y-16236019D01*
X13965504Y-16236019D02*
X13955980Y-16245543D01*
X13955980Y-16245543D02*
X13936932Y-16255067D01*
X13936932Y-16255067D02*
X13917885Y-16255067D01*
X13917885Y-16255067D02*
X13898837Y-16245543D01*
X13898837Y-16245543D02*
X13889313Y-16236019D01*
X13889313Y-16236019D02*
X13879789Y-16216972D01*
X13879789Y-16216972D02*
X13870266Y-16178876D01*
X13870266Y-16178876D02*
X13870266Y-16131257D01*
X13870266Y-16131257D02*
X13879789Y-16093162D01*
X13879789Y-16093162D02*
X13889313Y-16074115D01*
X13889313Y-16074115D02*
X13898837Y-16064591D01*
X13898837Y-16064591D02*
X13917885Y-16055067D01*
X14108361Y-16055067D02*
X14127409Y-16055067D01*
X14127409Y-16055067D02*
X14146456Y-16064591D01*
X14146456Y-16064591D02*
X14155980Y-16074115D01*
X14155980Y-16074115D02*
X14165504Y-16093162D01*
X14165504Y-16093162D02*
X14175028Y-16131257D01*
X14175028Y-16131257D02*
X14175028Y-16178876D01*
X14175028Y-16178876D02*
X14165504Y-16216972D01*
X14165504Y-16216972D02*
X14155980Y-16236019D01*
X14155980Y-16236019D02*
X14146456Y-16245543D01*
X14146456Y-16245543D02*
X14127409Y-16255067D01*
X14127409Y-16255067D02*
X14108361Y-16255067D01*
X14108361Y-16255067D02*
X14089313Y-16245543D01*
X14089313Y-16245543D02*
X14079789Y-16236019D01*
X14079789Y-16236019D02*
X14070266Y-16216972D01*
X14070266Y-16216972D02*
X14060742Y-16178876D01*
X14060742Y-16178876D02*
X14060742Y-16131257D01*
X14060742Y-16131257D02*
X14070266Y-16093162D01*
X14070266Y-16093162D02*
X14079789Y-16074115D01*
X14079789Y-16074115D02*
X14089313Y-16064591D01*
X14089313Y-16064591D02*
X14108361Y-16055067D01*
X14260742Y-16255067D02*
X14260742Y-16121734D01*
X14260742Y-16140781D02*
X14270266Y-16131257D01*
X14270266Y-16131257D02*
X14289313Y-16121734D01*
X14289313Y-16121734D02*
X14317885Y-16121734D01*
X14317885Y-16121734D02*
X14336932Y-16131257D01*
X14336932Y-16131257D02*
X14346456Y-16150305D01*
X14346456Y-16150305D02*
X14346456Y-16255067D01*
X14346456Y-16150305D02*
X14355980Y-16131257D01*
X14355980Y-16131257D02*
X14375028Y-16121734D01*
X14375028Y-16121734D02*
X14403599Y-16121734D01*
X14403599Y-16121734D02*
X14422647Y-16131257D01*
X14422647Y-16131257D02*
X14432170Y-16150305D01*
X14432170Y-16150305D02*
X14432170Y-16255067D01*
X14527409Y-16255067D02*
X14527409Y-16121734D01*
X14527409Y-16140781D02*
X14536932Y-16131257D01*
X14536932Y-16131257D02*
X14555980Y-16121734D01*
X14555980Y-16121734D02*
X14584551Y-16121734D01*
X14584551Y-16121734D02*
X14603599Y-16131257D01*
X14603599Y-16131257D02*
X14613123Y-16150305D01*
X14613123Y-16150305D02*
X14613123Y-16255067D01*
X14613123Y-16150305D02*
X14622647Y-16131257D01*
X14622647Y-16131257D02*
X14641694Y-16121734D01*
X14641694Y-16121734D02*
X14670266Y-16121734D01*
X14670266Y-16121734D02*
X14689313Y-16131257D01*
X14689313Y-16131257D02*
X14698837Y-16150305D01*
X14698837Y-16150305D02*
X14698837Y-16255067D01*
X15089313Y-16045543D02*
X14917885Y-16302686D01*
X15346456Y-16055067D02*
X15365504Y-16055067D01*
X15365504Y-16055067D02*
X15384552Y-16064591D01*
X15384552Y-16064591D02*
X15394075Y-16074115D01*
X15394075Y-16074115D02*
X15403599Y-16093162D01*
X15403599Y-16093162D02*
X15413123Y-16131257D01*
X15413123Y-16131257D02*
X15413123Y-16178876D01*
X15413123Y-16178876D02*
X15403599Y-16216972D01*
X15403599Y-16216972D02*
X15394075Y-16236019D01*
X15394075Y-16236019D02*
X15384552Y-16245543D01*
X15384552Y-16245543D02*
X15365504Y-16255067D01*
X15365504Y-16255067D02*
X15346456Y-16255067D01*
X15346456Y-16255067D02*
X15327409Y-16245543D01*
X15327409Y-16245543D02*
X15317885Y-16236019D01*
X15317885Y-16236019D02*
X15308361Y-16216972D01*
X15308361Y-16216972D02*
X15298837Y-16178876D01*
X15298837Y-16178876D02*
X15298837Y-16131257D01*
X15298837Y-16131257D02*
X15308361Y-16093162D01*
X15308361Y-16093162D02*
X15317885Y-16074115D01*
X15317885Y-16074115D02*
X15327409Y-16064591D01*
X15327409Y-16064591D02*
X15346456Y-16055067D01*
X15498837Y-16236019D02*
X15508361Y-16245543D01*
X15508361Y-16245543D02*
X15498837Y-16255067D01*
X15498837Y-16255067D02*
X15489313Y-16245543D01*
X15489313Y-16245543D02*
X15498837Y-16236019D01*
X15498837Y-16236019D02*
X15498837Y-16255067D01*
X15632171Y-16055067D02*
X15651218Y-16055067D01*
X15651218Y-16055067D02*
X15670266Y-16064591D01*
X15670266Y-16064591D02*
X15679790Y-16074115D01*
X15679790Y-16074115D02*
X15689313Y-16093162D01*
X15689313Y-16093162D02*
X15698837Y-16131257D01*
X15698837Y-16131257D02*
X15698837Y-16178876D01*
X15698837Y-16178876D02*
X15689313Y-16216972D01*
X15689313Y-16216972D02*
X15679790Y-16236019D01*
X15679790Y-16236019D02*
X15670266Y-16245543D01*
X15670266Y-16245543D02*
X15651218Y-16255067D01*
X15651218Y-16255067D02*
X15632171Y-16255067D01*
X15632171Y-16255067D02*
X15613123Y-16245543D01*
X15613123Y-16245543D02*
X15603599Y-16236019D01*
X15603599Y-16236019D02*
X15594075Y-16216972D01*
X15594075Y-16216972D02*
X15584552Y-16178876D01*
X15584552Y-16178876D02*
X15584552Y-16131257D01*
X15584552Y-16131257D02*
X15594075Y-16093162D01*
X15594075Y-16093162D02*
X15603599Y-16074115D01*
X15603599Y-16074115D02*
X15613123Y-16064591D01*
X15613123Y-16064591D02*
X15632171Y-16055067D01*
X15889313Y-16255067D02*
X15775028Y-16255067D01*
X15832171Y-16255067D02*
X15832171Y-16055067D01*
X15832171Y-16055067D02*
X15813123Y-16083638D01*
X15813123Y-16083638D02*
X15794075Y-16102686D01*
X15794075Y-16102686D02*
X15775028Y-16112210D01*
X16070266Y-16055067D02*
X15975028Y-16055067D01*
X15975028Y-16055067D02*
X15965504Y-16150305D01*
X15965504Y-16150305D02*
X15975028Y-16140781D01*
X15975028Y-16140781D02*
X15994075Y-16131257D01*
X15994075Y-16131257D02*
X16041694Y-16131257D01*
X16041694Y-16131257D02*
X16060742Y-16140781D01*
X16060742Y-16140781D02*
X16070266Y-16150305D01*
X16070266Y-16150305D02*
X16079790Y-16169353D01*
X16079790Y-16169353D02*
X16079790Y-16216972D01*
X16079790Y-16216972D02*
X16070266Y-16236019D01*
X16070266Y-16236019D02*
X16060742Y-16245543D01*
X16060742Y-16245543D02*
X16041694Y-16255067D01*
X16041694Y-16255067D02*
X15994075Y-16255067D01*
X15994075Y-16255067D02*
X15975028Y-16245543D01*
X15975028Y-16245543D02*
X15965504Y-16236019D01*
X16146456Y-16055067D02*
X16279790Y-16055067D01*
X16279790Y-16055067D02*
X16194075Y-16255067D01*
X16346456Y-16055067D02*
X16346456Y-16093162D01*
X16422647Y-16055067D02*
X16422647Y-16093162D01*
X16717885Y-16331257D02*
X16708361Y-16321734D01*
X16708361Y-16321734D02*
X16689314Y-16293162D01*
X16689314Y-16293162D02*
X16679790Y-16274115D01*
X16679790Y-16274115D02*
X16670266Y-16245543D01*
X16670266Y-16245543D02*
X16660742Y-16197924D01*
X16660742Y-16197924D02*
X16660742Y-16159829D01*
X16660742Y-16159829D02*
X16670266Y-16112210D01*
X16670266Y-16112210D02*
X16679790Y-16083638D01*
X16679790Y-16083638D02*
X16689314Y-16064591D01*
X16689314Y-16064591D02*
X16708361Y-16036019D01*
X16708361Y-16036019D02*
X16717885Y-16026495D01*
X16775028Y-16055067D02*
X16898837Y-16055067D01*
X16898837Y-16055067D02*
X16832171Y-16131257D01*
X16832171Y-16131257D02*
X16860742Y-16131257D01*
X16860742Y-16131257D02*
X16879790Y-16140781D01*
X16879790Y-16140781D02*
X16889314Y-16150305D01*
X16889314Y-16150305D02*
X16898837Y-16169353D01*
X16898837Y-16169353D02*
X16898837Y-16216972D01*
X16898837Y-16216972D02*
X16889314Y-16236019D01*
X16889314Y-16236019D02*
X16879790Y-16245543D01*
X16879790Y-16245543D02*
X16860742Y-16255067D01*
X16860742Y-16255067D02*
X16803599Y-16255067D01*
X16803599Y-16255067D02*
X16784552Y-16245543D01*
X16784552Y-16245543D02*
X16775028Y-16236019D01*
X16965504Y-16055067D02*
X17098837Y-16055067D01*
X17098837Y-16055067D02*
X17013123Y-16255067D01*
X17327409Y-16255067D02*
X17327409Y-16055067D01*
X17413123Y-16255067D02*
X17413123Y-16150305D01*
X17413123Y-16150305D02*
X17403599Y-16131257D01*
X17403599Y-16131257D02*
X17384552Y-16121734D01*
X17384552Y-16121734D02*
X17355980Y-16121734D01*
X17355980Y-16121734D02*
X17336933Y-16131257D01*
X17336933Y-16131257D02*
X17327409Y-16140781D01*
X17536933Y-16255067D02*
X17517885Y-16245543D01*
X17517885Y-16245543D02*
X17508361Y-16236019D01*
X17508361Y-16236019D02*
X17498838Y-16216972D01*
X17498838Y-16216972D02*
X17498838Y-16159829D01*
X17498838Y-16159829D02*
X17508361Y-16140781D01*
X17508361Y-16140781D02*
X17517885Y-16131257D01*
X17517885Y-16131257D02*
X17536933Y-16121734D01*
X17536933Y-16121734D02*
X17565504Y-16121734D01*
X17565504Y-16121734D02*
X17584552Y-16131257D01*
X17584552Y-16131257D02*
X17594076Y-16140781D01*
X17594076Y-16140781D02*
X17603599Y-16159829D01*
X17603599Y-16159829D02*
X17603599Y-16216972D01*
X17603599Y-16216972D02*
X17594076Y-16236019D01*
X17594076Y-16236019D02*
X17584552Y-16245543D01*
X17584552Y-16245543D02*
X17565504Y-16255067D01*
X17565504Y-16255067D02*
X17536933Y-16255067D01*
X17717885Y-16255067D02*
X17698838Y-16245543D01*
X17698838Y-16245543D02*
X17689314Y-16226495D01*
X17689314Y-16226495D02*
X17689314Y-16055067D01*
X17870266Y-16245543D02*
X17851219Y-16255067D01*
X17851219Y-16255067D02*
X17813123Y-16255067D01*
X17813123Y-16255067D02*
X17794076Y-16245543D01*
X17794076Y-16245543D02*
X17784552Y-16226495D01*
X17784552Y-16226495D02*
X17784552Y-16150305D01*
X17784552Y-16150305D02*
X17794076Y-16131257D01*
X17794076Y-16131257D02*
X17813123Y-16121734D01*
X17813123Y-16121734D02*
X17851219Y-16121734D01*
X17851219Y-16121734D02*
X17870266Y-16131257D01*
X17870266Y-16131257D02*
X17879790Y-16150305D01*
X17879790Y-16150305D02*
X17879790Y-16169353D01*
X17879790Y-16169353D02*
X17784552Y-16188400D01*
X17955980Y-16245543D02*
X17975028Y-16255067D01*
X17975028Y-16255067D02*
X18013123Y-16255067D01*
X18013123Y-16255067D02*
X18032171Y-16245543D01*
X18032171Y-16245543D02*
X18041695Y-16226495D01*
X18041695Y-16226495D02*
X18041695Y-16216972D01*
X18041695Y-16216972D02*
X18032171Y-16197924D01*
X18032171Y-16197924D02*
X18013123Y-16188400D01*
X18013123Y-16188400D02*
X17984552Y-16188400D01*
X17984552Y-16188400D02*
X17965504Y-16178876D01*
X17965504Y-16178876D02*
X17955980Y-16159829D01*
X17955980Y-16159829D02*
X17955980Y-16150305D01*
X17955980Y-16150305D02*
X17965504Y-16131257D01*
X17965504Y-16131257D02*
X17984552Y-16121734D01*
X17984552Y-16121734D02*
X18013123Y-16121734D01*
X18013123Y-16121734D02*
X18032171Y-16131257D01*
X18108361Y-16331257D02*
X18117885Y-16321734D01*
X18117885Y-16321734D02*
X18136933Y-16293162D01*
X18136933Y-16293162D02*
X18146457Y-16274115D01*
X18146457Y-16274115D02*
X18155980Y-16245543D01*
X18155980Y-16245543D02*
X18165504Y-16197924D01*
X18165504Y-16197924D02*
X18165504Y-16159829D01*
X18165504Y-16159829D02*
X18155980Y-16112210D01*
X18155980Y-16112210D02*
X18146457Y-16083638D01*
X18146457Y-16083638D02*
X18136933Y-16064591D01*
X18136933Y-16064591D02*
X18117885Y-16036019D01*
X18117885Y-16036019D02*
X18108361Y-16026495D01*
D11*
X13142822Y-16427583D02*
G75*
G03*
X13142822Y-16427583I-25000J0D01*
G01*
D10*
X13441694Y-16319067D02*
X13460742Y-16319067D01*
X13460742Y-16319067D02*
X13479789Y-16328591D01*
X13479789Y-16328591D02*
X13489313Y-16338115D01*
X13489313Y-16338115D02*
X13498837Y-16357162D01*
X13498837Y-16357162D02*
X13508361Y-16395257D01*
X13508361Y-16395257D02*
X13508361Y-16442876D01*
X13508361Y-16442876D02*
X13498837Y-16480972D01*
X13498837Y-16480972D02*
X13489313Y-16500019D01*
X13489313Y-16500019D02*
X13479789Y-16509543D01*
X13479789Y-16509543D02*
X13460742Y-16519067D01*
X13460742Y-16519067D02*
X13441694Y-16519067D01*
X13441694Y-16519067D02*
X13422647Y-16509543D01*
X13422647Y-16509543D02*
X13413123Y-16500019D01*
X13413123Y-16500019D02*
X13403599Y-16480972D01*
X13403599Y-16480972D02*
X13394075Y-16442876D01*
X13394075Y-16442876D02*
X13394075Y-16395257D01*
X13394075Y-16395257D02*
X13403599Y-16357162D01*
X13403599Y-16357162D02*
X13413123Y-16338115D01*
X13413123Y-16338115D02*
X13422647Y-16328591D01*
X13422647Y-16328591D02*
X13441694Y-16319067D01*
X13594075Y-16500019D02*
X13603599Y-16509543D01*
X13603599Y-16509543D02*
X13594075Y-16519067D01*
X13594075Y-16519067D02*
X13584551Y-16509543D01*
X13584551Y-16509543D02*
X13594075Y-16500019D01*
X13594075Y-16500019D02*
X13594075Y-16519067D01*
X13784551Y-16319067D02*
X13689313Y-16319067D01*
X13689313Y-16319067D02*
X13679789Y-16414305D01*
X13679789Y-16414305D02*
X13689313Y-16404781D01*
X13689313Y-16404781D02*
X13708361Y-16395257D01*
X13708361Y-16395257D02*
X13755980Y-16395257D01*
X13755980Y-16395257D02*
X13775028Y-16404781D01*
X13775028Y-16404781D02*
X13784551Y-16414305D01*
X13784551Y-16414305D02*
X13794075Y-16433353D01*
X13794075Y-16433353D02*
X13794075Y-16480972D01*
X13794075Y-16480972D02*
X13784551Y-16500019D01*
X13784551Y-16500019D02*
X13775028Y-16509543D01*
X13775028Y-16509543D02*
X13755980Y-16519067D01*
X13755980Y-16519067D02*
X13708361Y-16519067D01*
X13708361Y-16519067D02*
X13689313Y-16509543D01*
X13689313Y-16509543D02*
X13679789Y-16500019D01*
X13917885Y-16319067D02*
X13936932Y-16319067D01*
X13936932Y-16319067D02*
X13955980Y-16328591D01*
X13955980Y-16328591D02*
X13965504Y-16338115D01*
X13965504Y-16338115D02*
X13975028Y-16357162D01*
X13975028Y-16357162D02*
X13984551Y-16395257D01*
X13984551Y-16395257D02*
X13984551Y-16442876D01*
X13984551Y-16442876D02*
X13975028Y-16480972D01*
X13975028Y-16480972D02*
X13965504Y-16500019D01*
X13965504Y-16500019D02*
X13955980Y-16509543D01*
X13955980Y-16509543D02*
X13936932Y-16519067D01*
X13936932Y-16519067D02*
X13917885Y-16519067D01*
X13917885Y-16519067D02*
X13898837Y-16509543D01*
X13898837Y-16509543D02*
X13889313Y-16500019D01*
X13889313Y-16500019D02*
X13879789Y-16480972D01*
X13879789Y-16480972D02*
X13870266Y-16442876D01*
X13870266Y-16442876D02*
X13870266Y-16395257D01*
X13870266Y-16395257D02*
X13879789Y-16357162D01*
X13879789Y-16357162D02*
X13889313Y-16338115D01*
X13889313Y-16338115D02*
X13898837Y-16328591D01*
X13898837Y-16328591D02*
X13917885Y-16319067D01*
X14108361Y-16319067D02*
X14127409Y-16319067D01*
X14127409Y-16319067D02*
X14146456Y-16328591D01*
X14146456Y-16328591D02*
X14155980Y-16338115D01*
X14155980Y-16338115D02*
X14165504Y-16357162D01*
X14165504Y-16357162D02*
X14175028Y-16395257D01*
X14175028Y-16395257D02*
X14175028Y-16442876D01*
X14175028Y-16442876D02*
X14165504Y-16480972D01*
X14165504Y-16480972D02*
X14155980Y-16500019D01*
X14155980Y-16500019D02*
X14146456Y-16509543D01*
X14146456Y-16509543D02*
X14127409Y-16519067D01*
X14127409Y-16519067D02*
X14108361Y-16519067D01*
X14108361Y-16519067D02*
X14089313Y-16509543D01*
X14089313Y-16509543D02*
X14079789Y-16500019D01*
X14079789Y-16500019D02*
X14070266Y-16480972D01*
X14070266Y-16480972D02*
X14060742Y-16442876D01*
X14060742Y-16442876D02*
X14060742Y-16395257D01*
X14060742Y-16395257D02*
X14070266Y-16357162D01*
X14070266Y-16357162D02*
X14079789Y-16338115D01*
X14079789Y-16338115D02*
X14089313Y-16328591D01*
X14089313Y-16328591D02*
X14108361Y-16319067D01*
X14260742Y-16519067D02*
X14260742Y-16385734D01*
X14260742Y-16404781D02*
X14270266Y-16395257D01*
X14270266Y-16395257D02*
X14289313Y-16385734D01*
X14289313Y-16385734D02*
X14317885Y-16385734D01*
X14317885Y-16385734D02*
X14336932Y-16395257D01*
X14336932Y-16395257D02*
X14346456Y-16414305D01*
X14346456Y-16414305D02*
X14346456Y-16519067D01*
X14346456Y-16414305D02*
X14355980Y-16395257D01*
X14355980Y-16395257D02*
X14375028Y-16385734D01*
X14375028Y-16385734D02*
X14403599Y-16385734D01*
X14403599Y-16385734D02*
X14422647Y-16395257D01*
X14422647Y-16395257D02*
X14432170Y-16414305D01*
X14432170Y-16414305D02*
X14432170Y-16519067D01*
X14527409Y-16519067D02*
X14527409Y-16385734D01*
X14527409Y-16404781D02*
X14536932Y-16395257D01*
X14536932Y-16395257D02*
X14555980Y-16385734D01*
X14555980Y-16385734D02*
X14584551Y-16385734D01*
X14584551Y-16385734D02*
X14603599Y-16395257D01*
X14603599Y-16395257D02*
X14613123Y-16414305D01*
X14613123Y-16414305D02*
X14613123Y-16519067D01*
X14613123Y-16414305D02*
X14622647Y-16395257D01*
X14622647Y-16395257D02*
X14641694Y-16385734D01*
X14641694Y-16385734D02*
X14670266Y-16385734D01*
X14670266Y-16385734D02*
X14689313Y-16395257D01*
X14689313Y-16395257D02*
X14698837Y-16414305D01*
X14698837Y-16414305D02*
X14698837Y-16519067D01*
X15089313Y-16309543D02*
X14917885Y-16566686D01*
X15346456Y-16319067D02*
X15365504Y-16319067D01*
X15365504Y-16319067D02*
X15384552Y-16328591D01*
X15384552Y-16328591D02*
X15394075Y-16338115D01*
X15394075Y-16338115D02*
X15403599Y-16357162D01*
X15403599Y-16357162D02*
X15413123Y-16395257D01*
X15413123Y-16395257D02*
X15413123Y-16442876D01*
X15413123Y-16442876D02*
X15403599Y-16480972D01*
X15403599Y-16480972D02*
X15394075Y-16500019D01*
X15394075Y-16500019D02*
X15384552Y-16509543D01*
X15384552Y-16509543D02*
X15365504Y-16519067D01*
X15365504Y-16519067D02*
X15346456Y-16519067D01*
X15346456Y-16519067D02*
X15327409Y-16509543D01*
X15327409Y-16509543D02*
X15317885Y-16500019D01*
X15317885Y-16500019D02*
X15308361Y-16480972D01*
X15308361Y-16480972D02*
X15298837Y-16442876D01*
X15298837Y-16442876D02*
X15298837Y-16395257D01*
X15298837Y-16395257D02*
X15308361Y-16357162D01*
X15308361Y-16357162D02*
X15317885Y-16338115D01*
X15317885Y-16338115D02*
X15327409Y-16328591D01*
X15327409Y-16328591D02*
X15346456Y-16319067D01*
X15498837Y-16500019D02*
X15508361Y-16509543D01*
X15508361Y-16509543D02*
X15498837Y-16519067D01*
X15498837Y-16519067D02*
X15489313Y-16509543D01*
X15489313Y-16509543D02*
X15498837Y-16500019D01*
X15498837Y-16500019D02*
X15498837Y-16519067D01*
X15632171Y-16319067D02*
X15651218Y-16319067D01*
X15651218Y-16319067D02*
X15670266Y-16328591D01*
X15670266Y-16328591D02*
X15679790Y-16338115D01*
X15679790Y-16338115D02*
X15689313Y-16357162D01*
X15689313Y-16357162D02*
X15698837Y-16395257D01*
X15698837Y-16395257D02*
X15698837Y-16442876D01*
X15698837Y-16442876D02*
X15689313Y-16480972D01*
X15689313Y-16480972D02*
X15679790Y-16500019D01*
X15679790Y-16500019D02*
X15670266Y-16509543D01*
X15670266Y-16509543D02*
X15651218Y-16519067D01*
X15651218Y-16519067D02*
X15632171Y-16519067D01*
X15632171Y-16519067D02*
X15613123Y-16509543D01*
X15613123Y-16509543D02*
X15603599Y-16500019D01*
X15603599Y-16500019D02*
X15594075Y-16480972D01*
X15594075Y-16480972D02*
X15584552Y-16442876D01*
X15584552Y-16442876D02*
X15584552Y-16395257D01*
X15584552Y-16395257D02*
X15594075Y-16357162D01*
X15594075Y-16357162D02*
X15603599Y-16338115D01*
X15603599Y-16338115D02*
X15613123Y-16328591D01*
X15613123Y-16328591D02*
X15632171Y-16319067D01*
X15889313Y-16519067D02*
X15775028Y-16519067D01*
X15832171Y-16519067D02*
X15832171Y-16319067D01*
X15832171Y-16319067D02*
X15813123Y-16347638D01*
X15813123Y-16347638D02*
X15794075Y-16366686D01*
X15794075Y-16366686D02*
X15775028Y-16376210D01*
X15984552Y-16519067D02*
X16022647Y-16519067D01*
X16022647Y-16519067D02*
X16041694Y-16509543D01*
X16041694Y-16509543D02*
X16051218Y-16500019D01*
X16051218Y-16500019D02*
X16070266Y-16471448D01*
X16070266Y-16471448D02*
X16079790Y-16433353D01*
X16079790Y-16433353D02*
X16079790Y-16357162D01*
X16079790Y-16357162D02*
X16070266Y-16338115D01*
X16070266Y-16338115D02*
X16060742Y-16328591D01*
X16060742Y-16328591D02*
X16041694Y-16319067D01*
X16041694Y-16319067D02*
X16003599Y-16319067D01*
X16003599Y-16319067D02*
X15984552Y-16328591D01*
X15984552Y-16328591D02*
X15975028Y-16338115D01*
X15975028Y-16338115D02*
X15965504Y-16357162D01*
X15965504Y-16357162D02*
X15965504Y-16404781D01*
X15965504Y-16404781D02*
X15975028Y-16423829D01*
X15975028Y-16423829D02*
X15984552Y-16433353D01*
X15984552Y-16433353D02*
X16003599Y-16442876D01*
X16003599Y-16442876D02*
X16041694Y-16442876D01*
X16041694Y-16442876D02*
X16060742Y-16433353D01*
X16060742Y-16433353D02*
X16070266Y-16423829D01*
X16070266Y-16423829D02*
X16079790Y-16404781D01*
X16146456Y-16319067D02*
X16279790Y-16319067D01*
X16279790Y-16319067D02*
X16194075Y-16519067D01*
X16346456Y-16319067D02*
X16346456Y-16357162D01*
X16422647Y-16319067D02*
X16422647Y-16357162D01*
X16717885Y-16595257D02*
X16708361Y-16585734D01*
X16708361Y-16585734D02*
X16689314Y-16557162D01*
X16689314Y-16557162D02*
X16679790Y-16538115D01*
X16679790Y-16538115D02*
X16670266Y-16509543D01*
X16670266Y-16509543D02*
X16660742Y-16461924D01*
X16660742Y-16461924D02*
X16660742Y-16423829D01*
X16660742Y-16423829D02*
X16670266Y-16376210D01*
X16670266Y-16376210D02*
X16679790Y-16347638D01*
X16679790Y-16347638D02*
X16689314Y-16328591D01*
X16689314Y-16328591D02*
X16708361Y-16300019D01*
X16708361Y-16300019D02*
X16717885Y-16290495D01*
X16832171Y-16319067D02*
X16851218Y-16319067D01*
X16851218Y-16319067D02*
X16870266Y-16328591D01*
X16870266Y-16328591D02*
X16879790Y-16338115D01*
X16879790Y-16338115D02*
X16889314Y-16357162D01*
X16889314Y-16357162D02*
X16898837Y-16395257D01*
X16898837Y-16395257D02*
X16898837Y-16442876D01*
X16898837Y-16442876D02*
X16889314Y-16480972D01*
X16889314Y-16480972D02*
X16879790Y-16500019D01*
X16879790Y-16500019D02*
X16870266Y-16509543D01*
X16870266Y-16509543D02*
X16851218Y-16519067D01*
X16851218Y-16519067D02*
X16832171Y-16519067D01*
X16832171Y-16519067D02*
X16813123Y-16509543D01*
X16813123Y-16509543D02*
X16803599Y-16500019D01*
X16803599Y-16500019D02*
X16794076Y-16480972D01*
X16794076Y-16480972D02*
X16784552Y-16442876D01*
X16784552Y-16442876D02*
X16784552Y-16395257D01*
X16784552Y-16395257D02*
X16794076Y-16357162D01*
X16794076Y-16357162D02*
X16803599Y-16338115D01*
X16803599Y-16338115D02*
X16813123Y-16328591D01*
X16813123Y-16328591D02*
X16832171Y-16319067D01*
X17136933Y-16519067D02*
X17136933Y-16319067D01*
X17222647Y-16519067D02*
X17222647Y-16414305D01*
X17222647Y-16414305D02*
X17213123Y-16395257D01*
X17213123Y-16395257D02*
X17194076Y-16385734D01*
X17194076Y-16385734D02*
X17165504Y-16385734D01*
X17165504Y-16385734D02*
X17146457Y-16395257D01*
X17146457Y-16395257D02*
X17136933Y-16404781D01*
X17346457Y-16519067D02*
X17327409Y-16509543D01*
X17327409Y-16509543D02*
X17317885Y-16500019D01*
X17317885Y-16500019D02*
X17308361Y-16480972D01*
X17308361Y-16480972D02*
X17308361Y-16423829D01*
X17308361Y-16423829D02*
X17317885Y-16404781D01*
X17317885Y-16404781D02*
X17327409Y-16395257D01*
X17327409Y-16395257D02*
X17346457Y-16385734D01*
X17346457Y-16385734D02*
X17375028Y-16385734D01*
X17375028Y-16385734D02*
X17394076Y-16395257D01*
X17394076Y-16395257D02*
X17403599Y-16404781D01*
X17403599Y-16404781D02*
X17413123Y-16423829D01*
X17413123Y-16423829D02*
X17413123Y-16480972D01*
X17413123Y-16480972D02*
X17403599Y-16500019D01*
X17403599Y-16500019D02*
X17394076Y-16509543D01*
X17394076Y-16509543D02*
X17375028Y-16519067D01*
X17375028Y-16519067D02*
X17346457Y-16519067D01*
X17527409Y-16519067D02*
X17508361Y-16509543D01*
X17508361Y-16509543D02*
X17498838Y-16490495D01*
X17498838Y-16490495D02*
X17498838Y-16319067D01*
X17679790Y-16509543D02*
X17660742Y-16519067D01*
X17660742Y-16519067D02*
X17622647Y-16519067D01*
X17622647Y-16519067D02*
X17603599Y-16509543D01*
X17603599Y-16509543D02*
X17594076Y-16490495D01*
X17594076Y-16490495D02*
X17594076Y-16414305D01*
X17594076Y-16414305D02*
X17603599Y-16395257D01*
X17603599Y-16395257D02*
X17622647Y-16385734D01*
X17622647Y-16385734D02*
X17660742Y-16385734D01*
X17660742Y-16385734D02*
X17679790Y-16395257D01*
X17679790Y-16395257D02*
X17689314Y-16414305D01*
X17689314Y-16414305D02*
X17689314Y-16433353D01*
X17689314Y-16433353D02*
X17594076Y-16452400D01*
X17765504Y-16509543D02*
X17784552Y-16519067D01*
X17784552Y-16519067D02*
X17822647Y-16519067D01*
X17822647Y-16519067D02*
X17841695Y-16509543D01*
X17841695Y-16509543D02*
X17851219Y-16490495D01*
X17851219Y-16490495D02*
X17851219Y-16480972D01*
X17851219Y-16480972D02*
X17841695Y-16461924D01*
X17841695Y-16461924D02*
X17822647Y-16452400D01*
X17822647Y-16452400D02*
X17794076Y-16452400D01*
X17794076Y-16452400D02*
X17775028Y-16442876D01*
X17775028Y-16442876D02*
X17765504Y-16423829D01*
X17765504Y-16423829D02*
X17765504Y-16414305D01*
X17765504Y-16414305D02*
X17775028Y-16395257D01*
X17775028Y-16395257D02*
X17794076Y-16385734D01*
X17794076Y-16385734D02*
X17822647Y-16385734D01*
X17822647Y-16385734D02*
X17841695Y-16395257D01*
X18089314Y-16442876D02*
X18241695Y-16442876D01*
X18165504Y-16519067D02*
X18165504Y-16366686D01*
X18575028Y-16385734D02*
X18575028Y-16519067D01*
X18527409Y-16309543D02*
X18479790Y-16452400D01*
X18479790Y-16452400D02*
X18603600Y-16452400D01*
X18822647Y-16509543D02*
X18841695Y-16519067D01*
X18841695Y-16519067D02*
X18879790Y-16519067D01*
X18879790Y-16519067D02*
X18898838Y-16509543D01*
X18898838Y-16509543D02*
X18908362Y-16490495D01*
X18908362Y-16490495D02*
X18908362Y-16480972D01*
X18908362Y-16480972D02*
X18898838Y-16461924D01*
X18898838Y-16461924D02*
X18879790Y-16452400D01*
X18879790Y-16452400D02*
X18851219Y-16452400D01*
X18851219Y-16452400D02*
X18832171Y-16442876D01*
X18832171Y-16442876D02*
X18822647Y-16423829D01*
X18822647Y-16423829D02*
X18822647Y-16414305D01*
X18822647Y-16414305D02*
X18832171Y-16395257D01*
X18832171Y-16395257D02*
X18851219Y-16385734D01*
X18851219Y-16385734D02*
X18879790Y-16385734D01*
X18879790Y-16385734D02*
X18898838Y-16395257D01*
X19022647Y-16519067D02*
X19003600Y-16509543D01*
X19003600Y-16509543D02*
X18994076Y-16490495D01*
X18994076Y-16490495D02*
X18994076Y-16319067D01*
X19127409Y-16519067D02*
X19108362Y-16509543D01*
X19108362Y-16509543D02*
X19098838Y-16500019D01*
X19098838Y-16500019D02*
X19089314Y-16480972D01*
X19089314Y-16480972D02*
X19089314Y-16423829D01*
X19089314Y-16423829D02*
X19098838Y-16404781D01*
X19098838Y-16404781D02*
X19108362Y-16395257D01*
X19108362Y-16395257D02*
X19127409Y-16385734D01*
X19127409Y-16385734D02*
X19155981Y-16385734D01*
X19155981Y-16385734D02*
X19175028Y-16395257D01*
X19175028Y-16395257D02*
X19184552Y-16404781D01*
X19184552Y-16404781D02*
X19194076Y-16423829D01*
X19194076Y-16423829D02*
X19194076Y-16480972D01*
X19194076Y-16480972D02*
X19184552Y-16500019D01*
X19184552Y-16500019D02*
X19175028Y-16509543D01*
X19175028Y-16509543D02*
X19155981Y-16519067D01*
X19155981Y-16519067D02*
X19127409Y-16519067D01*
X19251219Y-16385734D02*
X19327409Y-16385734D01*
X19279790Y-16319067D02*
X19279790Y-16490495D01*
X19279790Y-16490495D02*
X19289314Y-16509543D01*
X19289314Y-16509543D02*
X19308362Y-16519067D01*
X19308362Y-16519067D02*
X19327409Y-16519067D01*
X19384552Y-16509543D02*
X19403600Y-16519067D01*
X19403600Y-16519067D02*
X19441695Y-16519067D01*
X19441695Y-16519067D02*
X19460743Y-16509543D01*
X19460743Y-16509543D02*
X19470266Y-16490495D01*
X19470266Y-16490495D02*
X19470266Y-16480972D01*
X19470266Y-16480972D02*
X19460743Y-16461924D01*
X19460743Y-16461924D02*
X19441695Y-16452400D01*
X19441695Y-16452400D02*
X19413123Y-16452400D01*
X19413123Y-16452400D02*
X19394076Y-16442876D01*
X19394076Y-16442876D02*
X19384552Y-16423829D01*
X19384552Y-16423829D02*
X19384552Y-16414305D01*
X19384552Y-16414305D02*
X19394076Y-16395257D01*
X19394076Y-16395257D02*
X19413123Y-16385734D01*
X19413123Y-16385734D02*
X19441695Y-16385734D01*
X19441695Y-16385734D02*
X19460743Y-16395257D01*
X19536933Y-16595257D02*
X19546457Y-16585734D01*
X19546457Y-16585734D02*
X19565504Y-16557162D01*
X19565504Y-16557162D02*
X19575028Y-16538115D01*
X19575028Y-16538115D02*
X19584552Y-16509543D01*
X19584552Y-16509543D02*
X19594076Y-16461924D01*
X19594076Y-16461924D02*
X19594076Y-16423829D01*
X19594076Y-16423829D02*
X19584552Y-16376210D01*
X19584552Y-16376210D02*
X19575028Y-16347638D01*
X19575028Y-16347638D02*
X19565504Y-16328591D01*
X19565504Y-16328591D02*
X19546457Y-16300019D01*
X19546457Y-16300019D02*
X19536933Y-16290495D01*
D11*
X13107822Y-16656583D02*
X13107822Y-16726583D01*
X13072822Y-16691583D02*
X13142822Y-16691583D01*
D10*
X13441694Y-16583067D02*
X13460742Y-16583067D01*
X13460742Y-16583067D02*
X13479789Y-16592591D01*
X13479789Y-16592591D02*
X13489313Y-16602115D01*
X13489313Y-16602115D02*
X13498837Y-16621162D01*
X13498837Y-16621162D02*
X13508361Y-16659257D01*
X13508361Y-16659257D02*
X13508361Y-16706876D01*
X13508361Y-16706876D02*
X13498837Y-16744972D01*
X13498837Y-16744972D02*
X13489313Y-16764019D01*
X13489313Y-16764019D02*
X13479789Y-16773543D01*
X13479789Y-16773543D02*
X13460742Y-16783067D01*
X13460742Y-16783067D02*
X13441694Y-16783067D01*
X13441694Y-16783067D02*
X13422647Y-16773543D01*
X13422647Y-16773543D02*
X13413123Y-16764019D01*
X13413123Y-16764019D02*
X13403599Y-16744972D01*
X13403599Y-16744972D02*
X13394075Y-16706876D01*
X13394075Y-16706876D02*
X13394075Y-16659257D01*
X13394075Y-16659257D02*
X13403599Y-16621162D01*
X13403599Y-16621162D02*
X13413123Y-16602115D01*
X13413123Y-16602115D02*
X13422647Y-16592591D01*
X13422647Y-16592591D02*
X13441694Y-16583067D01*
X13594075Y-16764019D02*
X13603599Y-16773543D01*
X13603599Y-16773543D02*
X13594075Y-16783067D01*
X13594075Y-16783067D02*
X13584551Y-16773543D01*
X13584551Y-16773543D02*
X13594075Y-16764019D01*
X13594075Y-16764019D02*
X13594075Y-16783067D01*
X13670266Y-16583067D02*
X13803599Y-16583067D01*
X13803599Y-16583067D02*
X13717885Y-16783067D01*
X13917885Y-16583067D02*
X13936932Y-16583067D01*
X13936932Y-16583067D02*
X13955980Y-16592591D01*
X13955980Y-16592591D02*
X13965504Y-16602115D01*
X13965504Y-16602115D02*
X13975028Y-16621162D01*
X13975028Y-16621162D02*
X13984551Y-16659257D01*
X13984551Y-16659257D02*
X13984551Y-16706876D01*
X13984551Y-16706876D02*
X13975028Y-16744972D01*
X13975028Y-16744972D02*
X13965504Y-16764019D01*
X13965504Y-16764019D02*
X13955980Y-16773543D01*
X13955980Y-16773543D02*
X13936932Y-16783067D01*
X13936932Y-16783067D02*
X13917885Y-16783067D01*
X13917885Y-16783067D02*
X13898837Y-16773543D01*
X13898837Y-16773543D02*
X13889313Y-16764019D01*
X13889313Y-16764019D02*
X13879789Y-16744972D01*
X13879789Y-16744972D02*
X13870266Y-16706876D01*
X13870266Y-16706876D02*
X13870266Y-16659257D01*
X13870266Y-16659257D02*
X13879789Y-16621162D01*
X13879789Y-16621162D02*
X13889313Y-16602115D01*
X13889313Y-16602115D02*
X13898837Y-16592591D01*
X13898837Y-16592591D02*
X13917885Y-16583067D01*
X14108361Y-16583067D02*
X14127409Y-16583067D01*
X14127409Y-16583067D02*
X14146456Y-16592591D01*
X14146456Y-16592591D02*
X14155980Y-16602115D01*
X14155980Y-16602115D02*
X14165504Y-16621162D01*
X14165504Y-16621162D02*
X14175028Y-16659257D01*
X14175028Y-16659257D02*
X14175028Y-16706876D01*
X14175028Y-16706876D02*
X14165504Y-16744972D01*
X14165504Y-16744972D02*
X14155980Y-16764019D01*
X14155980Y-16764019D02*
X14146456Y-16773543D01*
X14146456Y-16773543D02*
X14127409Y-16783067D01*
X14127409Y-16783067D02*
X14108361Y-16783067D01*
X14108361Y-16783067D02*
X14089313Y-16773543D01*
X14089313Y-16773543D02*
X14079789Y-16764019D01*
X14079789Y-16764019D02*
X14070266Y-16744972D01*
X14070266Y-16744972D02*
X14060742Y-16706876D01*
X14060742Y-16706876D02*
X14060742Y-16659257D01*
X14060742Y-16659257D02*
X14070266Y-16621162D01*
X14070266Y-16621162D02*
X14079789Y-16602115D01*
X14079789Y-16602115D02*
X14089313Y-16592591D01*
X14089313Y-16592591D02*
X14108361Y-16583067D01*
X14260742Y-16783067D02*
X14260742Y-16649734D01*
X14260742Y-16668781D02*
X14270266Y-16659257D01*
X14270266Y-16659257D02*
X14289313Y-16649734D01*
X14289313Y-16649734D02*
X14317885Y-16649734D01*
X14317885Y-16649734D02*
X14336932Y-16659257D01*
X14336932Y-16659257D02*
X14346456Y-16678305D01*
X14346456Y-16678305D02*
X14346456Y-16783067D01*
X14346456Y-16678305D02*
X14355980Y-16659257D01*
X14355980Y-16659257D02*
X14375028Y-16649734D01*
X14375028Y-16649734D02*
X14403599Y-16649734D01*
X14403599Y-16649734D02*
X14422647Y-16659257D01*
X14422647Y-16659257D02*
X14432170Y-16678305D01*
X14432170Y-16678305D02*
X14432170Y-16783067D01*
X14527409Y-16783067D02*
X14527409Y-16649734D01*
X14527409Y-16668781D02*
X14536932Y-16659257D01*
X14536932Y-16659257D02*
X14555980Y-16649734D01*
X14555980Y-16649734D02*
X14584551Y-16649734D01*
X14584551Y-16649734D02*
X14603599Y-16659257D01*
X14603599Y-16659257D02*
X14613123Y-16678305D01*
X14613123Y-16678305D02*
X14613123Y-16783067D01*
X14613123Y-16678305D02*
X14622647Y-16659257D01*
X14622647Y-16659257D02*
X14641694Y-16649734D01*
X14641694Y-16649734D02*
X14670266Y-16649734D01*
X14670266Y-16649734D02*
X14689313Y-16659257D01*
X14689313Y-16659257D02*
X14698837Y-16678305D01*
X14698837Y-16678305D02*
X14698837Y-16783067D01*
X15089313Y-16573543D02*
X14917885Y-16830686D01*
X15346456Y-16583067D02*
X15365504Y-16583067D01*
X15365504Y-16583067D02*
X15384552Y-16592591D01*
X15384552Y-16592591D02*
X15394075Y-16602115D01*
X15394075Y-16602115D02*
X15403599Y-16621162D01*
X15403599Y-16621162D02*
X15413123Y-16659257D01*
X15413123Y-16659257D02*
X15413123Y-16706876D01*
X15413123Y-16706876D02*
X15403599Y-16744972D01*
X15403599Y-16744972D02*
X15394075Y-16764019D01*
X15394075Y-16764019D02*
X15384552Y-16773543D01*
X15384552Y-16773543D02*
X15365504Y-16783067D01*
X15365504Y-16783067D02*
X15346456Y-16783067D01*
X15346456Y-16783067D02*
X15327409Y-16773543D01*
X15327409Y-16773543D02*
X15317885Y-16764019D01*
X15317885Y-16764019D02*
X15308361Y-16744972D01*
X15308361Y-16744972D02*
X15298837Y-16706876D01*
X15298837Y-16706876D02*
X15298837Y-16659257D01*
X15298837Y-16659257D02*
X15308361Y-16621162D01*
X15308361Y-16621162D02*
X15317885Y-16602115D01*
X15317885Y-16602115D02*
X15327409Y-16592591D01*
X15327409Y-16592591D02*
X15346456Y-16583067D01*
X15498837Y-16764019D02*
X15508361Y-16773543D01*
X15508361Y-16773543D02*
X15498837Y-16783067D01*
X15498837Y-16783067D02*
X15489313Y-16773543D01*
X15489313Y-16773543D02*
X15498837Y-16764019D01*
X15498837Y-16764019D02*
X15498837Y-16783067D01*
X15632171Y-16583067D02*
X15651218Y-16583067D01*
X15651218Y-16583067D02*
X15670266Y-16592591D01*
X15670266Y-16592591D02*
X15679790Y-16602115D01*
X15679790Y-16602115D02*
X15689313Y-16621162D01*
X15689313Y-16621162D02*
X15698837Y-16659257D01*
X15698837Y-16659257D02*
X15698837Y-16706876D01*
X15698837Y-16706876D02*
X15689313Y-16744972D01*
X15689313Y-16744972D02*
X15679790Y-16764019D01*
X15679790Y-16764019D02*
X15670266Y-16773543D01*
X15670266Y-16773543D02*
X15651218Y-16783067D01*
X15651218Y-16783067D02*
X15632171Y-16783067D01*
X15632171Y-16783067D02*
X15613123Y-16773543D01*
X15613123Y-16773543D02*
X15603599Y-16764019D01*
X15603599Y-16764019D02*
X15594075Y-16744972D01*
X15594075Y-16744972D02*
X15584552Y-16706876D01*
X15584552Y-16706876D02*
X15584552Y-16659257D01*
X15584552Y-16659257D02*
X15594075Y-16621162D01*
X15594075Y-16621162D02*
X15603599Y-16602115D01*
X15603599Y-16602115D02*
X15613123Y-16592591D01*
X15613123Y-16592591D02*
X15632171Y-16583067D01*
X15775028Y-16602115D02*
X15784552Y-16592591D01*
X15784552Y-16592591D02*
X15803599Y-16583067D01*
X15803599Y-16583067D02*
X15851218Y-16583067D01*
X15851218Y-16583067D02*
X15870266Y-16592591D01*
X15870266Y-16592591D02*
X15879790Y-16602115D01*
X15879790Y-16602115D02*
X15889313Y-16621162D01*
X15889313Y-16621162D02*
X15889313Y-16640210D01*
X15889313Y-16640210D02*
X15879790Y-16668781D01*
X15879790Y-16668781D02*
X15765504Y-16783067D01*
X15765504Y-16783067D02*
X15889313Y-16783067D01*
X15955980Y-16583067D02*
X16089313Y-16583067D01*
X16089313Y-16583067D02*
X16003599Y-16783067D01*
X16251218Y-16583067D02*
X16213123Y-16583067D01*
X16213123Y-16583067D02*
X16194075Y-16592591D01*
X16194075Y-16592591D02*
X16184552Y-16602115D01*
X16184552Y-16602115D02*
X16165504Y-16630686D01*
X16165504Y-16630686D02*
X16155980Y-16668781D01*
X16155980Y-16668781D02*
X16155980Y-16744972D01*
X16155980Y-16744972D02*
X16165504Y-16764019D01*
X16165504Y-16764019D02*
X16175028Y-16773543D01*
X16175028Y-16773543D02*
X16194075Y-16783067D01*
X16194075Y-16783067D02*
X16232171Y-16783067D01*
X16232171Y-16783067D02*
X16251218Y-16773543D01*
X16251218Y-16773543D02*
X16260742Y-16764019D01*
X16260742Y-16764019D02*
X16270266Y-16744972D01*
X16270266Y-16744972D02*
X16270266Y-16697353D01*
X16270266Y-16697353D02*
X16260742Y-16678305D01*
X16260742Y-16678305D02*
X16251218Y-16668781D01*
X16251218Y-16668781D02*
X16232171Y-16659257D01*
X16232171Y-16659257D02*
X16194075Y-16659257D01*
X16194075Y-16659257D02*
X16175028Y-16668781D01*
X16175028Y-16668781D02*
X16165504Y-16678305D01*
X16165504Y-16678305D02*
X16155980Y-16697353D01*
X16346456Y-16583067D02*
X16346456Y-16621162D01*
X16422647Y-16583067D02*
X16422647Y-16621162D01*
X16717885Y-16859257D02*
X16708361Y-16849734D01*
X16708361Y-16849734D02*
X16689314Y-16821162D01*
X16689314Y-16821162D02*
X16679790Y-16802115D01*
X16679790Y-16802115D02*
X16670266Y-16773543D01*
X16670266Y-16773543D02*
X16660742Y-16725924D01*
X16660742Y-16725924D02*
X16660742Y-16687829D01*
X16660742Y-16687829D02*
X16670266Y-16640210D01*
X16670266Y-16640210D02*
X16679790Y-16611638D01*
X16679790Y-16611638D02*
X16689314Y-16592591D01*
X16689314Y-16592591D02*
X16708361Y-16564019D01*
X16708361Y-16564019D02*
X16717885Y-16554495D01*
X16879790Y-16649734D02*
X16879790Y-16783067D01*
X16832171Y-16573543D02*
X16784552Y-16716400D01*
X16784552Y-16716400D02*
X16908361Y-16716400D01*
X17136933Y-16783067D02*
X17136933Y-16583067D01*
X17222647Y-16783067D02*
X17222647Y-16678305D01*
X17222647Y-16678305D02*
X17213123Y-16659257D01*
X17213123Y-16659257D02*
X17194076Y-16649734D01*
X17194076Y-16649734D02*
X17165504Y-16649734D01*
X17165504Y-16649734D02*
X17146457Y-16659257D01*
X17146457Y-16659257D02*
X17136933Y-16668781D01*
X17346457Y-16783067D02*
X17327409Y-16773543D01*
X17327409Y-16773543D02*
X17317885Y-16764019D01*
X17317885Y-16764019D02*
X17308361Y-16744972D01*
X17308361Y-16744972D02*
X17308361Y-16687829D01*
X17308361Y-16687829D02*
X17317885Y-16668781D01*
X17317885Y-16668781D02*
X17327409Y-16659257D01*
X17327409Y-16659257D02*
X17346457Y-16649734D01*
X17346457Y-16649734D02*
X17375028Y-16649734D01*
X17375028Y-16649734D02*
X17394076Y-16659257D01*
X17394076Y-16659257D02*
X17403599Y-16668781D01*
X17403599Y-16668781D02*
X17413123Y-16687829D01*
X17413123Y-16687829D02*
X17413123Y-16744972D01*
X17413123Y-16744972D02*
X17403599Y-16764019D01*
X17403599Y-16764019D02*
X17394076Y-16773543D01*
X17394076Y-16773543D02*
X17375028Y-16783067D01*
X17375028Y-16783067D02*
X17346457Y-16783067D01*
X17527409Y-16783067D02*
X17508361Y-16773543D01*
X17508361Y-16773543D02*
X17498838Y-16754495D01*
X17498838Y-16754495D02*
X17498838Y-16583067D01*
X17679790Y-16773543D02*
X17660742Y-16783067D01*
X17660742Y-16783067D02*
X17622647Y-16783067D01*
X17622647Y-16783067D02*
X17603599Y-16773543D01*
X17603599Y-16773543D02*
X17594076Y-16754495D01*
X17594076Y-16754495D02*
X17594076Y-16678305D01*
X17594076Y-16678305D02*
X17603599Y-16659257D01*
X17603599Y-16659257D02*
X17622647Y-16649734D01*
X17622647Y-16649734D02*
X17660742Y-16649734D01*
X17660742Y-16649734D02*
X17679790Y-16659257D01*
X17679790Y-16659257D02*
X17689314Y-16678305D01*
X17689314Y-16678305D02*
X17689314Y-16697353D01*
X17689314Y-16697353D02*
X17594076Y-16716400D01*
X17765504Y-16773543D02*
X17784552Y-16783067D01*
X17784552Y-16783067D02*
X17822647Y-16783067D01*
X17822647Y-16783067D02*
X17841695Y-16773543D01*
X17841695Y-16773543D02*
X17851219Y-16754495D01*
X17851219Y-16754495D02*
X17851219Y-16744972D01*
X17851219Y-16744972D02*
X17841695Y-16725924D01*
X17841695Y-16725924D02*
X17822647Y-16716400D01*
X17822647Y-16716400D02*
X17794076Y-16716400D01*
X17794076Y-16716400D02*
X17775028Y-16706876D01*
X17775028Y-16706876D02*
X17765504Y-16687829D01*
X17765504Y-16687829D02*
X17765504Y-16678305D01*
X17765504Y-16678305D02*
X17775028Y-16659257D01*
X17775028Y-16659257D02*
X17794076Y-16649734D01*
X17794076Y-16649734D02*
X17822647Y-16649734D01*
X17822647Y-16649734D02*
X17841695Y-16659257D01*
X17917885Y-16859257D02*
X17927409Y-16849734D01*
X17927409Y-16849734D02*
X17946457Y-16821162D01*
X17946457Y-16821162D02*
X17955980Y-16802115D01*
X17955980Y-16802115D02*
X17965504Y-16773543D01*
X17965504Y-16773543D02*
X17975028Y-16725924D01*
X17975028Y-16725924D02*
X17975028Y-16687829D01*
X17975028Y-16687829D02*
X17965504Y-16640210D01*
X17965504Y-16640210D02*
X17955980Y-16611638D01*
X17955980Y-16611638D02*
X17946457Y-16592591D01*
X17946457Y-16592591D02*
X17927409Y-16564019D01*
X17927409Y-16564019D02*
X17917885Y-16554495D01*
D11*
X13131107Y-16983868D02*
X13131107Y-16927299D01*
X13074538Y-16927299D01*
X13074538Y-16983868D01*
X13131107Y-16983868D01*
D10*
X13441694Y-16847067D02*
X13460742Y-16847067D01*
X13460742Y-16847067D02*
X13479789Y-16856591D01*
X13479789Y-16856591D02*
X13489313Y-16866115D01*
X13489313Y-16866115D02*
X13498837Y-16885162D01*
X13498837Y-16885162D02*
X13508361Y-16923257D01*
X13508361Y-16923257D02*
X13508361Y-16970877D01*
X13508361Y-16970877D02*
X13498837Y-17008972D01*
X13498837Y-17008972D02*
X13489313Y-17028019D01*
X13489313Y-17028019D02*
X13479789Y-17037543D01*
X13479789Y-17037543D02*
X13460742Y-17047067D01*
X13460742Y-17047067D02*
X13441694Y-17047067D01*
X13441694Y-17047067D02*
X13422647Y-17037543D01*
X13422647Y-17037543D02*
X13413123Y-17028019D01*
X13413123Y-17028019D02*
X13403599Y-17008972D01*
X13403599Y-17008972D02*
X13394075Y-16970877D01*
X13394075Y-16970877D02*
X13394075Y-16923257D01*
X13394075Y-16923257D02*
X13403599Y-16885162D01*
X13403599Y-16885162D02*
X13413123Y-16866115D01*
X13413123Y-16866115D02*
X13422647Y-16856591D01*
X13422647Y-16856591D02*
X13441694Y-16847067D01*
X13594075Y-17028019D02*
X13603599Y-17037543D01*
X13603599Y-17037543D02*
X13594075Y-17047067D01*
X13594075Y-17047067D02*
X13584551Y-17037543D01*
X13584551Y-17037543D02*
X13594075Y-17028019D01*
X13594075Y-17028019D02*
X13594075Y-17047067D01*
X13717885Y-16932781D02*
X13698837Y-16923257D01*
X13698837Y-16923257D02*
X13689313Y-16913734D01*
X13689313Y-16913734D02*
X13679789Y-16894686D01*
X13679789Y-16894686D02*
X13679789Y-16885162D01*
X13679789Y-16885162D02*
X13689313Y-16866115D01*
X13689313Y-16866115D02*
X13698837Y-16856591D01*
X13698837Y-16856591D02*
X13717885Y-16847067D01*
X13717885Y-16847067D02*
X13755980Y-16847067D01*
X13755980Y-16847067D02*
X13775028Y-16856591D01*
X13775028Y-16856591D02*
X13784551Y-16866115D01*
X13784551Y-16866115D02*
X13794075Y-16885162D01*
X13794075Y-16885162D02*
X13794075Y-16894686D01*
X13794075Y-16894686D02*
X13784551Y-16913734D01*
X13784551Y-16913734D02*
X13775028Y-16923257D01*
X13775028Y-16923257D02*
X13755980Y-16932781D01*
X13755980Y-16932781D02*
X13717885Y-16932781D01*
X13717885Y-16932781D02*
X13698837Y-16942305D01*
X13698837Y-16942305D02*
X13689313Y-16951829D01*
X13689313Y-16951829D02*
X13679789Y-16970877D01*
X13679789Y-16970877D02*
X13679789Y-17008972D01*
X13679789Y-17008972D02*
X13689313Y-17028019D01*
X13689313Y-17028019D02*
X13698837Y-17037543D01*
X13698837Y-17037543D02*
X13717885Y-17047067D01*
X13717885Y-17047067D02*
X13755980Y-17047067D01*
X13755980Y-17047067D02*
X13775028Y-17037543D01*
X13775028Y-17037543D02*
X13784551Y-17028019D01*
X13784551Y-17028019D02*
X13794075Y-17008972D01*
X13794075Y-17008972D02*
X13794075Y-16970877D01*
X13794075Y-16970877D02*
X13784551Y-16951829D01*
X13784551Y-16951829D02*
X13775028Y-16942305D01*
X13775028Y-16942305D02*
X13755980Y-16932781D01*
X13917885Y-16847067D02*
X13936932Y-16847067D01*
X13936932Y-16847067D02*
X13955980Y-16856591D01*
X13955980Y-16856591D02*
X13965504Y-16866115D01*
X13965504Y-16866115D02*
X13975028Y-16885162D01*
X13975028Y-16885162D02*
X13984551Y-16923257D01*
X13984551Y-16923257D02*
X13984551Y-16970877D01*
X13984551Y-16970877D02*
X13975028Y-17008972D01*
X13975028Y-17008972D02*
X13965504Y-17028019D01*
X13965504Y-17028019D02*
X13955980Y-17037543D01*
X13955980Y-17037543D02*
X13936932Y-17047067D01*
X13936932Y-17047067D02*
X13917885Y-17047067D01*
X13917885Y-17047067D02*
X13898837Y-17037543D01*
X13898837Y-17037543D02*
X13889313Y-17028019D01*
X13889313Y-17028019D02*
X13879789Y-17008972D01*
X13879789Y-17008972D02*
X13870266Y-16970877D01*
X13870266Y-16970877D02*
X13870266Y-16923257D01*
X13870266Y-16923257D02*
X13879789Y-16885162D01*
X13879789Y-16885162D02*
X13889313Y-16866115D01*
X13889313Y-16866115D02*
X13898837Y-16856591D01*
X13898837Y-16856591D02*
X13917885Y-16847067D01*
X14108361Y-16847067D02*
X14127409Y-16847067D01*
X14127409Y-16847067D02*
X14146456Y-16856591D01*
X14146456Y-16856591D02*
X14155980Y-16866115D01*
X14155980Y-16866115D02*
X14165504Y-16885162D01*
X14165504Y-16885162D02*
X14175028Y-16923257D01*
X14175028Y-16923257D02*
X14175028Y-16970877D01*
X14175028Y-16970877D02*
X14165504Y-17008972D01*
X14165504Y-17008972D02*
X14155980Y-17028019D01*
X14155980Y-17028019D02*
X14146456Y-17037543D01*
X14146456Y-17037543D02*
X14127409Y-17047067D01*
X14127409Y-17047067D02*
X14108361Y-17047067D01*
X14108361Y-17047067D02*
X14089313Y-17037543D01*
X14089313Y-17037543D02*
X14079789Y-17028019D01*
X14079789Y-17028019D02*
X14070266Y-17008972D01*
X14070266Y-17008972D02*
X14060742Y-16970877D01*
X14060742Y-16970877D02*
X14060742Y-16923257D01*
X14060742Y-16923257D02*
X14070266Y-16885162D01*
X14070266Y-16885162D02*
X14079789Y-16866115D01*
X14079789Y-16866115D02*
X14089313Y-16856591D01*
X14089313Y-16856591D02*
X14108361Y-16847067D01*
X14260742Y-17047067D02*
X14260742Y-16913734D01*
X14260742Y-16932781D02*
X14270266Y-16923257D01*
X14270266Y-16923257D02*
X14289313Y-16913734D01*
X14289313Y-16913734D02*
X14317885Y-16913734D01*
X14317885Y-16913734D02*
X14336932Y-16923257D01*
X14336932Y-16923257D02*
X14346456Y-16942305D01*
X14346456Y-16942305D02*
X14346456Y-17047067D01*
X14346456Y-16942305D02*
X14355980Y-16923257D01*
X14355980Y-16923257D02*
X14375028Y-16913734D01*
X14375028Y-16913734D02*
X14403599Y-16913734D01*
X14403599Y-16913734D02*
X14422647Y-16923257D01*
X14422647Y-16923257D02*
X14432170Y-16942305D01*
X14432170Y-16942305D02*
X14432170Y-17047067D01*
X14527409Y-17047067D02*
X14527409Y-16913734D01*
X14527409Y-16932781D02*
X14536932Y-16923257D01*
X14536932Y-16923257D02*
X14555980Y-16913734D01*
X14555980Y-16913734D02*
X14584551Y-16913734D01*
X14584551Y-16913734D02*
X14603599Y-16923257D01*
X14603599Y-16923257D02*
X14613123Y-16942305D01*
X14613123Y-16942305D02*
X14613123Y-17047067D01*
X14613123Y-16942305D02*
X14622647Y-16923257D01*
X14622647Y-16923257D02*
X14641694Y-16913734D01*
X14641694Y-16913734D02*
X14670266Y-16913734D01*
X14670266Y-16913734D02*
X14689313Y-16923257D01*
X14689313Y-16923257D02*
X14698837Y-16942305D01*
X14698837Y-16942305D02*
X14698837Y-17047067D01*
X15089313Y-16837543D02*
X14917885Y-17094686D01*
X15346456Y-16847067D02*
X15365504Y-16847067D01*
X15365504Y-16847067D02*
X15384552Y-16856591D01*
X15384552Y-16856591D02*
X15394075Y-16866115D01*
X15394075Y-16866115D02*
X15403599Y-16885162D01*
X15403599Y-16885162D02*
X15413123Y-16923257D01*
X15413123Y-16923257D02*
X15413123Y-16970877D01*
X15413123Y-16970877D02*
X15403599Y-17008972D01*
X15403599Y-17008972D02*
X15394075Y-17028019D01*
X15394075Y-17028019D02*
X15384552Y-17037543D01*
X15384552Y-17037543D02*
X15365504Y-17047067D01*
X15365504Y-17047067D02*
X15346456Y-17047067D01*
X15346456Y-17047067D02*
X15327409Y-17037543D01*
X15327409Y-17037543D02*
X15317885Y-17028019D01*
X15317885Y-17028019D02*
X15308361Y-17008972D01*
X15308361Y-17008972D02*
X15298837Y-16970877D01*
X15298837Y-16970877D02*
X15298837Y-16923257D01*
X15298837Y-16923257D02*
X15308361Y-16885162D01*
X15308361Y-16885162D02*
X15317885Y-16866115D01*
X15317885Y-16866115D02*
X15327409Y-16856591D01*
X15327409Y-16856591D02*
X15346456Y-16847067D01*
X15498837Y-17028019D02*
X15508361Y-17037543D01*
X15508361Y-17037543D02*
X15498837Y-17047067D01*
X15498837Y-17047067D02*
X15489313Y-17037543D01*
X15489313Y-17037543D02*
X15498837Y-17028019D01*
X15498837Y-17028019D02*
X15498837Y-17047067D01*
X15632171Y-16847067D02*
X15651218Y-16847067D01*
X15651218Y-16847067D02*
X15670266Y-16856591D01*
X15670266Y-16856591D02*
X15679790Y-16866115D01*
X15679790Y-16866115D02*
X15689313Y-16885162D01*
X15689313Y-16885162D02*
X15698837Y-16923257D01*
X15698837Y-16923257D02*
X15698837Y-16970877D01*
X15698837Y-16970877D02*
X15689313Y-17008972D01*
X15689313Y-17008972D02*
X15679790Y-17028019D01*
X15679790Y-17028019D02*
X15670266Y-17037543D01*
X15670266Y-17037543D02*
X15651218Y-17047067D01*
X15651218Y-17047067D02*
X15632171Y-17047067D01*
X15632171Y-17047067D02*
X15613123Y-17037543D01*
X15613123Y-17037543D02*
X15603599Y-17028019D01*
X15603599Y-17028019D02*
X15594075Y-17008972D01*
X15594075Y-17008972D02*
X15584552Y-16970877D01*
X15584552Y-16970877D02*
X15584552Y-16923257D01*
X15584552Y-16923257D02*
X15594075Y-16885162D01*
X15594075Y-16885162D02*
X15603599Y-16866115D01*
X15603599Y-16866115D02*
X15613123Y-16856591D01*
X15613123Y-16856591D02*
X15632171Y-16847067D01*
X15765504Y-16847067D02*
X15889313Y-16847067D01*
X15889313Y-16847067D02*
X15822647Y-16923257D01*
X15822647Y-16923257D02*
X15851218Y-16923257D01*
X15851218Y-16923257D02*
X15870266Y-16932781D01*
X15870266Y-16932781D02*
X15879790Y-16942305D01*
X15879790Y-16942305D02*
X15889313Y-16961353D01*
X15889313Y-16961353D02*
X15889313Y-17008972D01*
X15889313Y-17008972D02*
X15879790Y-17028019D01*
X15879790Y-17028019D02*
X15870266Y-17037543D01*
X15870266Y-17037543D02*
X15851218Y-17047067D01*
X15851218Y-17047067D02*
X15794075Y-17047067D01*
X15794075Y-17047067D02*
X15775028Y-17037543D01*
X15775028Y-17037543D02*
X15765504Y-17028019D01*
X16079790Y-17047067D02*
X15965504Y-17047067D01*
X16022647Y-17047067D02*
X16022647Y-16847067D01*
X16022647Y-16847067D02*
X16003599Y-16875638D01*
X16003599Y-16875638D02*
X15984552Y-16894686D01*
X15984552Y-16894686D02*
X15965504Y-16904210D01*
X16260742Y-16847067D02*
X16165504Y-16847067D01*
X16165504Y-16847067D02*
X16155980Y-16942305D01*
X16155980Y-16942305D02*
X16165504Y-16932781D01*
X16165504Y-16932781D02*
X16184552Y-16923257D01*
X16184552Y-16923257D02*
X16232171Y-16923257D01*
X16232171Y-16923257D02*
X16251218Y-16932781D01*
X16251218Y-16932781D02*
X16260742Y-16942305D01*
X16260742Y-16942305D02*
X16270266Y-16961353D01*
X16270266Y-16961353D02*
X16270266Y-17008972D01*
X16270266Y-17008972D02*
X16260742Y-17028019D01*
X16260742Y-17028019D02*
X16251218Y-17037543D01*
X16251218Y-17037543D02*
X16232171Y-17047067D01*
X16232171Y-17047067D02*
X16184552Y-17047067D01*
X16184552Y-17047067D02*
X16165504Y-17037543D01*
X16165504Y-17037543D02*
X16155980Y-17028019D01*
X16346456Y-16847067D02*
X16346456Y-16885162D01*
X16422647Y-16847067D02*
X16422647Y-16885162D01*
X16717885Y-17123257D02*
X16708361Y-17113734D01*
X16708361Y-17113734D02*
X16689314Y-17085162D01*
X16689314Y-17085162D02*
X16679790Y-17066115D01*
X16679790Y-17066115D02*
X16670266Y-17037543D01*
X16670266Y-17037543D02*
X16660742Y-16989924D01*
X16660742Y-16989924D02*
X16660742Y-16951829D01*
X16660742Y-16951829D02*
X16670266Y-16904210D01*
X16670266Y-16904210D02*
X16679790Y-16875638D01*
X16679790Y-16875638D02*
X16689314Y-16856591D01*
X16689314Y-16856591D02*
X16708361Y-16828019D01*
X16708361Y-16828019D02*
X16717885Y-16818496D01*
X16898837Y-17047067D02*
X16784552Y-17047067D01*
X16841695Y-17047067D02*
X16841695Y-16847067D01*
X16841695Y-16847067D02*
X16822647Y-16875638D01*
X16822647Y-16875638D02*
X16803599Y-16894686D01*
X16803599Y-16894686D02*
X16784552Y-16904210D01*
X17070266Y-16913734D02*
X17070266Y-17047067D01*
X17022647Y-16837543D02*
X16975028Y-16980400D01*
X16975028Y-16980400D02*
X17098837Y-16980400D01*
X17327409Y-17047067D02*
X17327409Y-16847067D01*
X17413123Y-17047067D02*
X17413123Y-16942305D01*
X17413123Y-16942305D02*
X17403599Y-16923257D01*
X17403599Y-16923257D02*
X17384552Y-16913734D01*
X17384552Y-16913734D02*
X17355980Y-16913734D01*
X17355980Y-16913734D02*
X17336933Y-16923257D01*
X17336933Y-16923257D02*
X17327409Y-16932781D01*
X17536933Y-17047067D02*
X17517885Y-17037543D01*
X17517885Y-17037543D02*
X17508361Y-17028019D01*
X17508361Y-17028019D02*
X17498838Y-17008972D01*
X17498838Y-17008972D02*
X17498838Y-16951829D01*
X17498838Y-16951829D02*
X17508361Y-16932781D01*
X17508361Y-16932781D02*
X17517885Y-16923257D01*
X17517885Y-16923257D02*
X17536933Y-16913734D01*
X17536933Y-16913734D02*
X17565504Y-16913734D01*
X17565504Y-16913734D02*
X17584552Y-16923257D01*
X17584552Y-16923257D02*
X17594076Y-16932781D01*
X17594076Y-16932781D02*
X17603599Y-16951829D01*
X17603599Y-16951829D02*
X17603599Y-17008972D01*
X17603599Y-17008972D02*
X17594076Y-17028019D01*
X17594076Y-17028019D02*
X17584552Y-17037543D01*
X17584552Y-17037543D02*
X17565504Y-17047067D01*
X17565504Y-17047067D02*
X17536933Y-17047067D01*
X17717885Y-17047067D02*
X17698838Y-17037543D01*
X17698838Y-17037543D02*
X17689314Y-17018496D01*
X17689314Y-17018496D02*
X17689314Y-16847067D01*
X17870266Y-17037543D02*
X17851219Y-17047067D01*
X17851219Y-17047067D02*
X17813123Y-17047067D01*
X17813123Y-17047067D02*
X17794076Y-17037543D01*
X17794076Y-17037543D02*
X17784552Y-17018496D01*
X17784552Y-17018496D02*
X17784552Y-16942305D01*
X17784552Y-16942305D02*
X17794076Y-16923257D01*
X17794076Y-16923257D02*
X17813123Y-16913734D01*
X17813123Y-16913734D02*
X17851219Y-16913734D01*
X17851219Y-16913734D02*
X17870266Y-16923257D01*
X17870266Y-16923257D02*
X17879790Y-16942305D01*
X17879790Y-16942305D02*
X17879790Y-16961353D01*
X17879790Y-16961353D02*
X17784552Y-16980400D01*
X17955980Y-17037543D02*
X17975028Y-17047067D01*
X17975028Y-17047067D02*
X18013123Y-17047067D01*
X18013123Y-17047067D02*
X18032171Y-17037543D01*
X18032171Y-17037543D02*
X18041695Y-17018496D01*
X18041695Y-17018496D02*
X18041695Y-17008972D01*
X18041695Y-17008972D02*
X18032171Y-16989924D01*
X18032171Y-16989924D02*
X18013123Y-16980400D01*
X18013123Y-16980400D02*
X17984552Y-16980400D01*
X17984552Y-16980400D02*
X17965504Y-16970877D01*
X17965504Y-16970877D02*
X17955980Y-16951829D01*
X17955980Y-16951829D02*
X17955980Y-16942305D01*
X17955980Y-16942305D02*
X17965504Y-16923257D01*
X17965504Y-16923257D02*
X17984552Y-16913734D01*
X17984552Y-16913734D02*
X18013123Y-16913734D01*
X18013123Y-16913734D02*
X18032171Y-16923257D01*
X18108361Y-17123257D02*
X18117885Y-17113734D01*
X18117885Y-17113734D02*
X18136933Y-17085162D01*
X18136933Y-17085162D02*
X18146457Y-17066115D01*
X18146457Y-17066115D02*
X18155980Y-17037543D01*
X18155980Y-17037543D02*
X18165504Y-16989924D01*
X18165504Y-16989924D02*
X18165504Y-16951829D01*
X18165504Y-16951829D02*
X18155980Y-16904210D01*
X18155980Y-16904210D02*
X18146457Y-16875638D01*
X18146457Y-16875638D02*
X18136933Y-16856591D01*
X18136933Y-16856591D02*
X18117885Y-16828019D01*
X18117885Y-16828019D02*
X18108361Y-16818496D01*
D11*
X13092822Y-17269583D02*
X13142822Y-17219583D01*
X13092822Y-17169583D01*
X13042822Y-17219583D01*
X13092822Y-17269583D01*
D10*
X13508361Y-17311067D02*
X13394075Y-17311067D01*
X13451218Y-17311067D02*
X13451218Y-17111067D01*
X13451218Y-17111067D02*
X13432170Y-17139638D01*
X13432170Y-17139638D02*
X13413123Y-17158686D01*
X13413123Y-17158686D02*
X13394075Y-17168210D01*
X13594075Y-17292019D02*
X13603599Y-17301543D01*
X13603599Y-17301543D02*
X13594075Y-17311067D01*
X13594075Y-17311067D02*
X13584551Y-17301543D01*
X13584551Y-17301543D02*
X13594075Y-17292019D01*
X13594075Y-17292019D02*
X13594075Y-17311067D01*
X13727408Y-17111067D02*
X13746456Y-17111067D01*
X13746456Y-17111067D02*
X13765504Y-17120591D01*
X13765504Y-17120591D02*
X13775028Y-17130115D01*
X13775028Y-17130115D02*
X13784551Y-17149162D01*
X13784551Y-17149162D02*
X13794075Y-17187257D01*
X13794075Y-17187257D02*
X13794075Y-17234877D01*
X13794075Y-17234877D02*
X13784551Y-17272972D01*
X13784551Y-17272972D02*
X13775028Y-17292019D01*
X13775028Y-17292019D02*
X13765504Y-17301543D01*
X13765504Y-17301543D02*
X13746456Y-17311067D01*
X13746456Y-17311067D02*
X13727408Y-17311067D01*
X13727408Y-17311067D02*
X13708361Y-17301543D01*
X13708361Y-17301543D02*
X13698837Y-17292019D01*
X13698837Y-17292019D02*
X13689313Y-17272972D01*
X13689313Y-17272972D02*
X13679789Y-17234877D01*
X13679789Y-17234877D02*
X13679789Y-17187257D01*
X13679789Y-17187257D02*
X13689313Y-17149162D01*
X13689313Y-17149162D02*
X13698837Y-17130115D01*
X13698837Y-17130115D02*
X13708361Y-17120591D01*
X13708361Y-17120591D02*
X13727408Y-17111067D01*
X13917885Y-17111067D02*
X13936932Y-17111067D01*
X13936932Y-17111067D02*
X13955980Y-17120591D01*
X13955980Y-17120591D02*
X13965504Y-17130115D01*
X13965504Y-17130115D02*
X13975028Y-17149162D01*
X13975028Y-17149162D02*
X13984551Y-17187257D01*
X13984551Y-17187257D02*
X13984551Y-17234877D01*
X13984551Y-17234877D02*
X13975028Y-17272972D01*
X13975028Y-17272972D02*
X13965504Y-17292019D01*
X13965504Y-17292019D02*
X13955980Y-17301543D01*
X13955980Y-17301543D02*
X13936932Y-17311067D01*
X13936932Y-17311067D02*
X13917885Y-17311067D01*
X13917885Y-17311067D02*
X13898837Y-17301543D01*
X13898837Y-17301543D02*
X13889313Y-17292019D01*
X13889313Y-17292019D02*
X13879789Y-17272972D01*
X13879789Y-17272972D02*
X13870266Y-17234877D01*
X13870266Y-17234877D02*
X13870266Y-17187257D01*
X13870266Y-17187257D02*
X13879789Y-17149162D01*
X13879789Y-17149162D02*
X13889313Y-17130115D01*
X13889313Y-17130115D02*
X13898837Y-17120591D01*
X13898837Y-17120591D02*
X13917885Y-17111067D01*
X14108361Y-17111067D02*
X14127409Y-17111067D01*
X14127409Y-17111067D02*
X14146456Y-17120591D01*
X14146456Y-17120591D02*
X14155980Y-17130115D01*
X14155980Y-17130115D02*
X14165504Y-17149162D01*
X14165504Y-17149162D02*
X14175028Y-17187257D01*
X14175028Y-17187257D02*
X14175028Y-17234877D01*
X14175028Y-17234877D02*
X14165504Y-17272972D01*
X14165504Y-17272972D02*
X14155980Y-17292019D01*
X14155980Y-17292019D02*
X14146456Y-17301543D01*
X14146456Y-17301543D02*
X14127409Y-17311067D01*
X14127409Y-17311067D02*
X14108361Y-17311067D01*
X14108361Y-17311067D02*
X14089313Y-17301543D01*
X14089313Y-17301543D02*
X14079789Y-17292019D01*
X14079789Y-17292019D02*
X14070266Y-17272972D01*
X14070266Y-17272972D02*
X14060742Y-17234877D01*
X14060742Y-17234877D02*
X14060742Y-17187257D01*
X14060742Y-17187257D02*
X14070266Y-17149162D01*
X14070266Y-17149162D02*
X14079789Y-17130115D01*
X14079789Y-17130115D02*
X14089313Y-17120591D01*
X14089313Y-17120591D02*
X14108361Y-17111067D01*
X14260742Y-17311067D02*
X14260742Y-17177734D01*
X14260742Y-17196781D02*
X14270266Y-17187257D01*
X14270266Y-17187257D02*
X14289313Y-17177734D01*
X14289313Y-17177734D02*
X14317885Y-17177734D01*
X14317885Y-17177734D02*
X14336932Y-17187257D01*
X14336932Y-17187257D02*
X14346456Y-17206305D01*
X14346456Y-17206305D02*
X14346456Y-17311067D01*
X14346456Y-17206305D02*
X14355980Y-17187257D01*
X14355980Y-17187257D02*
X14375028Y-17177734D01*
X14375028Y-17177734D02*
X14403599Y-17177734D01*
X14403599Y-17177734D02*
X14422647Y-17187257D01*
X14422647Y-17187257D02*
X14432170Y-17206305D01*
X14432170Y-17206305D02*
X14432170Y-17311067D01*
X14527409Y-17311067D02*
X14527409Y-17177734D01*
X14527409Y-17196781D02*
X14536932Y-17187257D01*
X14536932Y-17187257D02*
X14555980Y-17177734D01*
X14555980Y-17177734D02*
X14584551Y-17177734D01*
X14584551Y-17177734D02*
X14603599Y-17187257D01*
X14603599Y-17187257D02*
X14613123Y-17206305D01*
X14613123Y-17206305D02*
X14613123Y-17311067D01*
X14613123Y-17206305D02*
X14622647Y-17187257D01*
X14622647Y-17187257D02*
X14641694Y-17177734D01*
X14641694Y-17177734D02*
X14670266Y-17177734D01*
X14670266Y-17177734D02*
X14689313Y-17187257D01*
X14689313Y-17187257D02*
X14698837Y-17206305D01*
X14698837Y-17206305D02*
X14698837Y-17311067D01*
X15089313Y-17101543D02*
X14917885Y-17358686D01*
X15346456Y-17111067D02*
X15365504Y-17111067D01*
X15365504Y-17111067D02*
X15384552Y-17120591D01*
X15384552Y-17120591D02*
X15394075Y-17130115D01*
X15394075Y-17130115D02*
X15403599Y-17149162D01*
X15403599Y-17149162D02*
X15413123Y-17187257D01*
X15413123Y-17187257D02*
X15413123Y-17234877D01*
X15413123Y-17234877D02*
X15403599Y-17272972D01*
X15403599Y-17272972D02*
X15394075Y-17292019D01*
X15394075Y-17292019D02*
X15384552Y-17301543D01*
X15384552Y-17301543D02*
X15365504Y-17311067D01*
X15365504Y-17311067D02*
X15346456Y-17311067D01*
X15346456Y-17311067D02*
X15327409Y-17301543D01*
X15327409Y-17301543D02*
X15317885Y-17292019D01*
X15317885Y-17292019D02*
X15308361Y-17272972D01*
X15308361Y-17272972D02*
X15298837Y-17234877D01*
X15298837Y-17234877D02*
X15298837Y-17187257D01*
X15298837Y-17187257D02*
X15308361Y-17149162D01*
X15308361Y-17149162D02*
X15317885Y-17130115D01*
X15317885Y-17130115D02*
X15327409Y-17120591D01*
X15327409Y-17120591D02*
X15346456Y-17111067D01*
X15498837Y-17292019D02*
X15508361Y-17301543D01*
X15508361Y-17301543D02*
X15498837Y-17311067D01*
X15498837Y-17311067D02*
X15489313Y-17301543D01*
X15489313Y-17301543D02*
X15498837Y-17292019D01*
X15498837Y-17292019D02*
X15498837Y-17311067D01*
X15632171Y-17111067D02*
X15651218Y-17111067D01*
X15651218Y-17111067D02*
X15670266Y-17120591D01*
X15670266Y-17120591D02*
X15679790Y-17130115D01*
X15679790Y-17130115D02*
X15689313Y-17149162D01*
X15689313Y-17149162D02*
X15698837Y-17187257D01*
X15698837Y-17187257D02*
X15698837Y-17234877D01*
X15698837Y-17234877D02*
X15689313Y-17272972D01*
X15689313Y-17272972D02*
X15679790Y-17292019D01*
X15679790Y-17292019D02*
X15670266Y-17301543D01*
X15670266Y-17301543D02*
X15651218Y-17311067D01*
X15651218Y-17311067D02*
X15632171Y-17311067D01*
X15632171Y-17311067D02*
X15613123Y-17301543D01*
X15613123Y-17301543D02*
X15603599Y-17292019D01*
X15603599Y-17292019D02*
X15594075Y-17272972D01*
X15594075Y-17272972D02*
X15584552Y-17234877D01*
X15584552Y-17234877D02*
X15584552Y-17187257D01*
X15584552Y-17187257D02*
X15594075Y-17149162D01*
X15594075Y-17149162D02*
X15603599Y-17130115D01*
X15603599Y-17130115D02*
X15613123Y-17120591D01*
X15613123Y-17120591D02*
X15632171Y-17111067D01*
X15765504Y-17111067D02*
X15889313Y-17111067D01*
X15889313Y-17111067D02*
X15822647Y-17187257D01*
X15822647Y-17187257D02*
X15851218Y-17187257D01*
X15851218Y-17187257D02*
X15870266Y-17196781D01*
X15870266Y-17196781D02*
X15879790Y-17206305D01*
X15879790Y-17206305D02*
X15889313Y-17225353D01*
X15889313Y-17225353D02*
X15889313Y-17272972D01*
X15889313Y-17272972D02*
X15879790Y-17292019D01*
X15879790Y-17292019D02*
X15870266Y-17301543D01*
X15870266Y-17301543D02*
X15851218Y-17311067D01*
X15851218Y-17311067D02*
X15794075Y-17311067D01*
X15794075Y-17311067D02*
X15775028Y-17301543D01*
X15775028Y-17301543D02*
X15765504Y-17292019D01*
X15984552Y-17311067D02*
X16022647Y-17311067D01*
X16022647Y-17311067D02*
X16041694Y-17301543D01*
X16041694Y-17301543D02*
X16051218Y-17292019D01*
X16051218Y-17292019D02*
X16070266Y-17263448D01*
X16070266Y-17263448D02*
X16079790Y-17225353D01*
X16079790Y-17225353D02*
X16079790Y-17149162D01*
X16079790Y-17149162D02*
X16070266Y-17130115D01*
X16070266Y-17130115D02*
X16060742Y-17120591D01*
X16060742Y-17120591D02*
X16041694Y-17111067D01*
X16041694Y-17111067D02*
X16003599Y-17111067D01*
X16003599Y-17111067D02*
X15984552Y-17120591D01*
X15984552Y-17120591D02*
X15975028Y-17130115D01*
X15975028Y-17130115D02*
X15965504Y-17149162D01*
X15965504Y-17149162D02*
X15965504Y-17196781D01*
X15965504Y-17196781D02*
X15975028Y-17215829D01*
X15975028Y-17215829D02*
X15984552Y-17225353D01*
X15984552Y-17225353D02*
X16003599Y-17234877D01*
X16003599Y-17234877D02*
X16041694Y-17234877D01*
X16041694Y-17234877D02*
X16060742Y-17225353D01*
X16060742Y-17225353D02*
X16070266Y-17215829D01*
X16070266Y-17215829D02*
X16079790Y-17196781D01*
X16251218Y-17177734D02*
X16251218Y-17311067D01*
X16203599Y-17101543D02*
X16155980Y-17244400D01*
X16155980Y-17244400D02*
X16279790Y-17244400D01*
X16346456Y-17111067D02*
X16346456Y-17149162D01*
X16422647Y-17111067D02*
X16422647Y-17149162D01*
X16717885Y-17387257D02*
X16708361Y-17377734D01*
X16708361Y-17377734D02*
X16689314Y-17349162D01*
X16689314Y-17349162D02*
X16679790Y-17330115D01*
X16679790Y-17330115D02*
X16670266Y-17301543D01*
X16670266Y-17301543D02*
X16660742Y-17253924D01*
X16660742Y-17253924D02*
X16660742Y-17215829D01*
X16660742Y-17215829D02*
X16670266Y-17168210D01*
X16670266Y-17168210D02*
X16679790Y-17139638D01*
X16679790Y-17139638D02*
X16689314Y-17120591D01*
X16689314Y-17120591D02*
X16708361Y-17092019D01*
X16708361Y-17092019D02*
X16717885Y-17082496D01*
X16879790Y-17111067D02*
X16841695Y-17111067D01*
X16841695Y-17111067D02*
X16822647Y-17120591D01*
X16822647Y-17120591D02*
X16813123Y-17130115D01*
X16813123Y-17130115D02*
X16794076Y-17158686D01*
X16794076Y-17158686D02*
X16784552Y-17196781D01*
X16784552Y-17196781D02*
X16784552Y-17272972D01*
X16784552Y-17272972D02*
X16794076Y-17292019D01*
X16794076Y-17292019D02*
X16803599Y-17301543D01*
X16803599Y-17301543D02*
X16822647Y-17311067D01*
X16822647Y-17311067D02*
X16860742Y-17311067D01*
X16860742Y-17311067D02*
X16879790Y-17301543D01*
X16879790Y-17301543D02*
X16889314Y-17292019D01*
X16889314Y-17292019D02*
X16898837Y-17272972D01*
X16898837Y-17272972D02*
X16898837Y-17225353D01*
X16898837Y-17225353D02*
X16889314Y-17206305D01*
X16889314Y-17206305D02*
X16879790Y-17196781D01*
X16879790Y-17196781D02*
X16860742Y-17187257D01*
X16860742Y-17187257D02*
X16822647Y-17187257D01*
X16822647Y-17187257D02*
X16803599Y-17196781D01*
X16803599Y-17196781D02*
X16794076Y-17206305D01*
X16794076Y-17206305D02*
X16784552Y-17225353D01*
X17136933Y-17311067D02*
X17136933Y-17111067D01*
X17222647Y-17311067D02*
X17222647Y-17206305D01*
X17222647Y-17206305D02*
X17213123Y-17187257D01*
X17213123Y-17187257D02*
X17194076Y-17177734D01*
X17194076Y-17177734D02*
X17165504Y-17177734D01*
X17165504Y-17177734D02*
X17146457Y-17187257D01*
X17146457Y-17187257D02*
X17136933Y-17196781D01*
X17346457Y-17311067D02*
X17327409Y-17301543D01*
X17327409Y-17301543D02*
X17317885Y-17292019D01*
X17317885Y-17292019D02*
X17308361Y-17272972D01*
X17308361Y-17272972D02*
X17308361Y-17215829D01*
X17308361Y-17215829D02*
X17317885Y-17196781D01*
X17317885Y-17196781D02*
X17327409Y-17187257D01*
X17327409Y-17187257D02*
X17346457Y-17177734D01*
X17346457Y-17177734D02*
X17375028Y-17177734D01*
X17375028Y-17177734D02*
X17394076Y-17187257D01*
X17394076Y-17187257D02*
X17403599Y-17196781D01*
X17403599Y-17196781D02*
X17413123Y-17215829D01*
X17413123Y-17215829D02*
X17413123Y-17272972D01*
X17413123Y-17272972D02*
X17403599Y-17292019D01*
X17403599Y-17292019D02*
X17394076Y-17301543D01*
X17394076Y-17301543D02*
X17375028Y-17311067D01*
X17375028Y-17311067D02*
X17346457Y-17311067D01*
X17527409Y-17311067D02*
X17508361Y-17301543D01*
X17508361Y-17301543D02*
X17498838Y-17282496D01*
X17498838Y-17282496D02*
X17498838Y-17111067D01*
X17679790Y-17301543D02*
X17660742Y-17311067D01*
X17660742Y-17311067D02*
X17622647Y-17311067D01*
X17622647Y-17311067D02*
X17603599Y-17301543D01*
X17603599Y-17301543D02*
X17594076Y-17282496D01*
X17594076Y-17282496D02*
X17594076Y-17206305D01*
X17594076Y-17206305D02*
X17603599Y-17187257D01*
X17603599Y-17187257D02*
X17622647Y-17177734D01*
X17622647Y-17177734D02*
X17660742Y-17177734D01*
X17660742Y-17177734D02*
X17679790Y-17187257D01*
X17679790Y-17187257D02*
X17689314Y-17206305D01*
X17689314Y-17206305D02*
X17689314Y-17225353D01*
X17689314Y-17225353D02*
X17594076Y-17244400D01*
X17765504Y-17301543D02*
X17784552Y-17311067D01*
X17784552Y-17311067D02*
X17822647Y-17311067D01*
X17822647Y-17311067D02*
X17841695Y-17301543D01*
X17841695Y-17301543D02*
X17851219Y-17282496D01*
X17851219Y-17282496D02*
X17851219Y-17272972D01*
X17851219Y-17272972D02*
X17841695Y-17253924D01*
X17841695Y-17253924D02*
X17822647Y-17244400D01*
X17822647Y-17244400D02*
X17794076Y-17244400D01*
X17794076Y-17244400D02*
X17775028Y-17234877D01*
X17775028Y-17234877D02*
X17765504Y-17215829D01*
X17765504Y-17215829D02*
X17765504Y-17206305D01*
X17765504Y-17206305D02*
X17775028Y-17187257D01*
X17775028Y-17187257D02*
X17794076Y-17177734D01*
X17794076Y-17177734D02*
X17822647Y-17177734D01*
X17822647Y-17177734D02*
X17841695Y-17187257D01*
X18089314Y-17234877D02*
X18241695Y-17234877D01*
X18165504Y-17311067D02*
X18165504Y-17158686D01*
X18479790Y-17130115D02*
X18489314Y-17120591D01*
X18489314Y-17120591D02*
X18508361Y-17111067D01*
X18508361Y-17111067D02*
X18555981Y-17111067D01*
X18555981Y-17111067D02*
X18575028Y-17120591D01*
X18575028Y-17120591D02*
X18584552Y-17130115D01*
X18584552Y-17130115D02*
X18594076Y-17149162D01*
X18594076Y-17149162D02*
X18594076Y-17168210D01*
X18594076Y-17168210D02*
X18584552Y-17196781D01*
X18584552Y-17196781D02*
X18470266Y-17311067D01*
X18470266Y-17311067D02*
X18594076Y-17311067D01*
X18822647Y-17301543D02*
X18841695Y-17311067D01*
X18841695Y-17311067D02*
X18879790Y-17311067D01*
X18879790Y-17311067D02*
X18898838Y-17301543D01*
X18898838Y-17301543D02*
X18908362Y-17282496D01*
X18908362Y-17282496D02*
X18908362Y-17272972D01*
X18908362Y-17272972D02*
X18898838Y-17253924D01*
X18898838Y-17253924D02*
X18879790Y-17244400D01*
X18879790Y-17244400D02*
X18851219Y-17244400D01*
X18851219Y-17244400D02*
X18832171Y-17234877D01*
X18832171Y-17234877D02*
X18822647Y-17215829D01*
X18822647Y-17215829D02*
X18822647Y-17206305D01*
X18822647Y-17206305D02*
X18832171Y-17187257D01*
X18832171Y-17187257D02*
X18851219Y-17177734D01*
X18851219Y-17177734D02*
X18879790Y-17177734D01*
X18879790Y-17177734D02*
X18898838Y-17187257D01*
X19022647Y-17311067D02*
X19003600Y-17301543D01*
X19003600Y-17301543D02*
X18994076Y-17282496D01*
X18994076Y-17282496D02*
X18994076Y-17111067D01*
X19127409Y-17311067D02*
X19108362Y-17301543D01*
X19108362Y-17301543D02*
X19098838Y-17292019D01*
X19098838Y-17292019D02*
X19089314Y-17272972D01*
X19089314Y-17272972D02*
X19089314Y-17215829D01*
X19089314Y-17215829D02*
X19098838Y-17196781D01*
X19098838Y-17196781D02*
X19108362Y-17187257D01*
X19108362Y-17187257D02*
X19127409Y-17177734D01*
X19127409Y-17177734D02*
X19155981Y-17177734D01*
X19155981Y-17177734D02*
X19175028Y-17187257D01*
X19175028Y-17187257D02*
X19184552Y-17196781D01*
X19184552Y-17196781D02*
X19194076Y-17215829D01*
X19194076Y-17215829D02*
X19194076Y-17272972D01*
X19194076Y-17272972D02*
X19184552Y-17292019D01*
X19184552Y-17292019D02*
X19175028Y-17301543D01*
X19175028Y-17301543D02*
X19155981Y-17311067D01*
X19155981Y-17311067D02*
X19127409Y-17311067D01*
X19251219Y-17177734D02*
X19327409Y-17177734D01*
X19279790Y-17111067D02*
X19279790Y-17282496D01*
X19279790Y-17282496D02*
X19289314Y-17301543D01*
X19289314Y-17301543D02*
X19308362Y-17311067D01*
X19308362Y-17311067D02*
X19327409Y-17311067D01*
X19384552Y-17301543D02*
X19403600Y-17311067D01*
X19403600Y-17311067D02*
X19441695Y-17311067D01*
X19441695Y-17311067D02*
X19460743Y-17301543D01*
X19460743Y-17301543D02*
X19470266Y-17282496D01*
X19470266Y-17282496D02*
X19470266Y-17272972D01*
X19470266Y-17272972D02*
X19460743Y-17253924D01*
X19460743Y-17253924D02*
X19441695Y-17244400D01*
X19441695Y-17244400D02*
X19413123Y-17244400D01*
X19413123Y-17244400D02*
X19394076Y-17234877D01*
X19394076Y-17234877D02*
X19384552Y-17215829D01*
X19384552Y-17215829D02*
X19384552Y-17206305D01*
X19384552Y-17206305D02*
X19394076Y-17187257D01*
X19394076Y-17187257D02*
X19413123Y-17177734D01*
X19413123Y-17177734D02*
X19441695Y-17177734D01*
X19441695Y-17177734D02*
X19460743Y-17187257D01*
X19536933Y-17387257D02*
X19546457Y-17377734D01*
X19546457Y-17377734D02*
X19565504Y-17349162D01*
X19565504Y-17349162D02*
X19575028Y-17330115D01*
X19575028Y-17330115D02*
X19584552Y-17301543D01*
X19584552Y-17301543D02*
X19594076Y-17253924D01*
X19594076Y-17253924D02*
X19594076Y-17215829D01*
X19594076Y-17215829D02*
X19584552Y-17168210D01*
X19584552Y-17168210D02*
X19575028Y-17139638D01*
X19575028Y-17139638D02*
X19565504Y-17120591D01*
X19565504Y-17120591D02*
X19546457Y-17092019D01*
X19546457Y-17092019D02*
X19536933Y-17082496D01*
D12*
X13002822Y-17413583D02*
X13142822Y-17553583D01*
X13142822Y-17413583D02*
X13002822Y-17553583D01*
X13142822Y-17483583D02*
G75*
G03*
X13142822Y-17483583I-70000J0D01*
G01*
D10*
X13508361Y-17575067D02*
X13394075Y-17575067D01*
X13451218Y-17575067D02*
X13451218Y-17375067D01*
X13451218Y-17375067D02*
X13432170Y-17403638D01*
X13432170Y-17403638D02*
X13413123Y-17422686D01*
X13413123Y-17422686D02*
X13394075Y-17432210D01*
X13594075Y-17556019D02*
X13603599Y-17565543D01*
X13603599Y-17565543D02*
X13594075Y-17575067D01*
X13594075Y-17575067D02*
X13584551Y-17565543D01*
X13584551Y-17565543D02*
X13594075Y-17556019D01*
X13594075Y-17556019D02*
X13594075Y-17575067D01*
X13775028Y-17441734D02*
X13775028Y-17575067D01*
X13727408Y-17365543D02*
X13679789Y-17508400D01*
X13679789Y-17508400D02*
X13803599Y-17508400D01*
X13917885Y-17375067D02*
X13936932Y-17375067D01*
X13936932Y-17375067D02*
X13955980Y-17384591D01*
X13955980Y-17384591D02*
X13965504Y-17394115D01*
X13965504Y-17394115D02*
X13975028Y-17413162D01*
X13975028Y-17413162D02*
X13984551Y-17451257D01*
X13984551Y-17451257D02*
X13984551Y-17498877D01*
X13984551Y-17498877D02*
X13975028Y-17536972D01*
X13975028Y-17536972D02*
X13965504Y-17556019D01*
X13965504Y-17556019D02*
X13955980Y-17565543D01*
X13955980Y-17565543D02*
X13936932Y-17575067D01*
X13936932Y-17575067D02*
X13917885Y-17575067D01*
X13917885Y-17575067D02*
X13898837Y-17565543D01*
X13898837Y-17565543D02*
X13889313Y-17556019D01*
X13889313Y-17556019D02*
X13879789Y-17536972D01*
X13879789Y-17536972D02*
X13870266Y-17498877D01*
X13870266Y-17498877D02*
X13870266Y-17451257D01*
X13870266Y-17451257D02*
X13879789Y-17413162D01*
X13879789Y-17413162D02*
X13889313Y-17394115D01*
X13889313Y-17394115D02*
X13898837Y-17384591D01*
X13898837Y-17384591D02*
X13917885Y-17375067D01*
X14108361Y-17375067D02*
X14127409Y-17375067D01*
X14127409Y-17375067D02*
X14146456Y-17384591D01*
X14146456Y-17384591D02*
X14155980Y-17394115D01*
X14155980Y-17394115D02*
X14165504Y-17413162D01*
X14165504Y-17413162D02*
X14175028Y-17451257D01*
X14175028Y-17451257D02*
X14175028Y-17498877D01*
X14175028Y-17498877D02*
X14165504Y-17536972D01*
X14165504Y-17536972D02*
X14155980Y-17556019D01*
X14155980Y-17556019D02*
X14146456Y-17565543D01*
X14146456Y-17565543D02*
X14127409Y-17575067D01*
X14127409Y-17575067D02*
X14108361Y-17575067D01*
X14108361Y-17575067D02*
X14089313Y-17565543D01*
X14089313Y-17565543D02*
X14079789Y-17556019D01*
X14079789Y-17556019D02*
X14070266Y-17536972D01*
X14070266Y-17536972D02*
X14060742Y-17498877D01*
X14060742Y-17498877D02*
X14060742Y-17451257D01*
X14060742Y-17451257D02*
X14070266Y-17413162D01*
X14070266Y-17413162D02*
X14079789Y-17394115D01*
X14079789Y-17394115D02*
X14089313Y-17384591D01*
X14089313Y-17384591D02*
X14108361Y-17375067D01*
X14260742Y-17575067D02*
X14260742Y-17441734D01*
X14260742Y-17460781D02*
X14270266Y-17451257D01*
X14270266Y-17451257D02*
X14289313Y-17441734D01*
X14289313Y-17441734D02*
X14317885Y-17441734D01*
X14317885Y-17441734D02*
X14336932Y-17451257D01*
X14336932Y-17451257D02*
X14346456Y-17470305D01*
X14346456Y-17470305D02*
X14346456Y-17575067D01*
X14346456Y-17470305D02*
X14355980Y-17451257D01*
X14355980Y-17451257D02*
X14375028Y-17441734D01*
X14375028Y-17441734D02*
X14403599Y-17441734D01*
X14403599Y-17441734D02*
X14422647Y-17451257D01*
X14422647Y-17451257D02*
X14432170Y-17470305D01*
X14432170Y-17470305D02*
X14432170Y-17575067D01*
X14527409Y-17575067D02*
X14527409Y-17441734D01*
X14527409Y-17460781D02*
X14536932Y-17451257D01*
X14536932Y-17451257D02*
X14555980Y-17441734D01*
X14555980Y-17441734D02*
X14584551Y-17441734D01*
X14584551Y-17441734D02*
X14603599Y-17451257D01*
X14603599Y-17451257D02*
X14613123Y-17470305D01*
X14613123Y-17470305D02*
X14613123Y-17575067D01*
X14613123Y-17470305D02*
X14622647Y-17451257D01*
X14622647Y-17451257D02*
X14641694Y-17441734D01*
X14641694Y-17441734D02*
X14670266Y-17441734D01*
X14670266Y-17441734D02*
X14689313Y-17451257D01*
X14689313Y-17451257D02*
X14698837Y-17470305D01*
X14698837Y-17470305D02*
X14698837Y-17575067D01*
X15089313Y-17365543D02*
X14917885Y-17622686D01*
X15346456Y-17375067D02*
X15365504Y-17375067D01*
X15365504Y-17375067D02*
X15384552Y-17384591D01*
X15384552Y-17384591D02*
X15394075Y-17394115D01*
X15394075Y-17394115D02*
X15403599Y-17413162D01*
X15403599Y-17413162D02*
X15413123Y-17451257D01*
X15413123Y-17451257D02*
X15413123Y-17498877D01*
X15413123Y-17498877D02*
X15403599Y-17536972D01*
X15403599Y-17536972D02*
X15394075Y-17556019D01*
X15394075Y-17556019D02*
X15384552Y-17565543D01*
X15384552Y-17565543D02*
X15365504Y-17575067D01*
X15365504Y-17575067D02*
X15346456Y-17575067D01*
X15346456Y-17575067D02*
X15327409Y-17565543D01*
X15327409Y-17565543D02*
X15317885Y-17556019D01*
X15317885Y-17556019D02*
X15308361Y-17536972D01*
X15308361Y-17536972D02*
X15298837Y-17498877D01*
X15298837Y-17498877D02*
X15298837Y-17451257D01*
X15298837Y-17451257D02*
X15308361Y-17413162D01*
X15308361Y-17413162D02*
X15317885Y-17394115D01*
X15317885Y-17394115D02*
X15327409Y-17384591D01*
X15327409Y-17384591D02*
X15346456Y-17375067D01*
X15498837Y-17556019D02*
X15508361Y-17565543D01*
X15508361Y-17565543D02*
X15498837Y-17575067D01*
X15498837Y-17575067D02*
X15489313Y-17565543D01*
X15489313Y-17565543D02*
X15498837Y-17556019D01*
X15498837Y-17556019D02*
X15498837Y-17575067D01*
X15632171Y-17375067D02*
X15651218Y-17375067D01*
X15651218Y-17375067D02*
X15670266Y-17384591D01*
X15670266Y-17384591D02*
X15679790Y-17394115D01*
X15679790Y-17394115D02*
X15689313Y-17413162D01*
X15689313Y-17413162D02*
X15698837Y-17451257D01*
X15698837Y-17451257D02*
X15698837Y-17498877D01*
X15698837Y-17498877D02*
X15689313Y-17536972D01*
X15689313Y-17536972D02*
X15679790Y-17556019D01*
X15679790Y-17556019D02*
X15670266Y-17565543D01*
X15670266Y-17565543D02*
X15651218Y-17575067D01*
X15651218Y-17575067D02*
X15632171Y-17575067D01*
X15632171Y-17575067D02*
X15613123Y-17565543D01*
X15613123Y-17565543D02*
X15603599Y-17556019D01*
X15603599Y-17556019D02*
X15594075Y-17536972D01*
X15594075Y-17536972D02*
X15584552Y-17498877D01*
X15584552Y-17498877D02*
X15584552Y-17451257D01*
X15584552Y-17451257D02*
X15594075Y-17413162D01*
X15594075Y-17413162D02*
X15603599Y-17394115D01*
X15603599Y-17394115D02*
X15613123Y-17384591D01*
X15613123Y-17384591D02*
X15632171Y-17375067D01*
X15879790Y-17375067D02*
X15784552Y-17375067D01*
X15784552Y-17375067D02*
X15775028Y-17470305D01*
X15775028Y-17470305D02*
X15784552Y-17460781D01*
X15784552Y-17460781D02*
X15803599Y-17451257D01*
X15803599Y-17451257D02*
X15851218Y-17451257D01*
X15851218Y-17451257D02*
X15870266Y-17460781D01*
X15870266Y-17460781D02*
X15879790Y-17470305D01*
X15879790Y-17470305D02*
X15889313Y-17489353D01*
X15889313Y-17489353D02*
X15889313Y-17536972D01*
X15889313Y-17536972D02*
X15879790Y-17556019D01*
X15879790Y-17556019D02*
X15870266Y-17565543D01*
X15870266Y-17565543D02*
X15851218Y-17575067D01*
X15851218Y-17575067D02*
X15803599Y-17575067D01*
X15803599Y-17575067D02*
X15784552Y-17565543D01*
X15784552Y-17565543D02*
X15775028Y-17556019D01*
X16070266Y-17375067D02*
X15975028Y-17375067D01*
X15975028Y-17375067D02*
X15965504Y-17470305D01*
X15965504Y-17470305D02*
X15975028Y-17460781D01*
X15975028Y-17460781D02*
X15994075Y-17451257D01*
X15994075Y-17451257D02*
X16041694Y-17451257D01*
X16041694Y-17451257D02*
X16060742Y-17460781D01*
X16060742Y-17460781D02*
X16070266Y-17470305D01*
X16070266Y-17470305D02*
X16079790Y-17489353D01*
X16079790Y-17489353D02*
X16079790Y-17536972D01*
X16079790Y-17536972D02*
X16070266Y-17556019D01*
X16070266Y-17556019D02*
X16060742Y-17565543D01*
X16060742Y-17565543D02*
X16041694Y-17575067D01*
X16041694Y-17575067D02*
X15994075Y-17575067D01*
X15994075Y-17575067D02*
X15975028Y-17565543D01*
X15975028Y-17565543D02*
X15965504Y-17556019D01*
X16270266Y-17575067D02*
X16155980Y-17575067D01*
X16213123Y-17575067D02*
X16213123Y-17375067D01*
X16213123Y-17375067D02*
X16194075Y-17403638D01*
X16194075Y-17403638D02*
X16175028Y-17422686D01*
X16175028Y-17422686D02*
X16155980Y-17432210D01*
X16346456Y-17375067D02*
X16346456Y-17413162D01*
X16422647Y-17375067D02*
X16422647Y-17413162D01*
X16717885Y-17651257D02*
X16708361Y-17641734D01*
X16708361Y-17641734D02*
X16689314Y-17613162D01*
X16689314Y-17613162D02*
X16679790Y-17594115D01*
X16679790Y-17594115D02*
X16670266Y-17565543D01*
X16670266Y-17565543D02*
X16660742Y-17517924D01*
X16660742Y-17517924D02*
X16660742Y-17479829D01*
X16660742Y-17479829D02*
X16670266Y-17432210D01*
X16670266Y-17432210D02*
X16679790Y-17403638D01*
X16679790Y-17403638D02*
X16689314Y-17384591D01*
X16689314Y-17384591D02*
X16708361Y-17356019D01*
X16708361Y-17356019D02*
X16717885Y-17346496D01*
X16784552Y-17394115D02*
X16794076Y-17384591D01*
X16794076Y-17384591D02*
X16813123Y-17375067D01*
X16813123Y-17375067D02*
X16860742Y-17375067D01*
X16860742Y-17375067D02*
X16879790Y-17384591D01*
X16879790Y-17384591D02*
X16889314Y-17394115D01*
X16889314Y-17394115D02*
X16898837Y-17413162D01*
X16898837Y-17413162D02*
X16898837Y-17432210D01*
X16898837Y-17432210D02*
X16889314Y-17460781D01*
X16889314Y-17460781D02*
X16775028Y-17575067D01*
X16775028Y-17575067D02*
X16898837Y-17575067D01*
X17136933Y-17575067D02*
X17136933Y-17375067D01*
X17222647Y-17575067D02*
X17222647Y-17470305D01*
X17222647Y-17470305D02*
X17213123Y-17451257D01*
X17213123Y-17451257D02*
X17194076Y-17441734D01*
X17194076Y-17441734D02*
X17165504Y-17441734D01*
X17165504Y-17441734D02*
X17146457Y-17451257D01*
X17146457Y-17451257D02*
X17136933Y-17460781D01*
X17346457Y-17575067D02*
X17327409Y-17565543D01*
X17327409Y-17565543D02*
X17317885Y-17556019D01*
X17317885Y-17556019D02*
X17308361Y-17536972D01*
X17308361Y-17536972D02*
X17308361Y-17479829D01*
X17308361Y-17479829D02*
X17317885Y-17460781D01*
X17317885Y-17460781D02*
X17327409Y-17451257D01*
X17327409Y-17451257D02*
X17346457Y-17441734D01*
X17346457Y-17441734D02*
X17375028Y-17441734D01*
X17375028Y-17441734D02*
X17394076Y-17451257D01*
X17394076Y-17451257D02*
X17403599Y-17460781D01*
X17403599Y-17460781D02*
X17413123Y-17479829D01*
X17413123Y-17479829D02*
X17413123Y-17536972D01*
X17413123Y-17536972D02*
X17403599Y-17556019D01*
X17403599Y-17556019D02*
X17394076Y-17565543D01*
X17394076Y-17565543D02*
X17375028Y-17575067D01*
X17375028Y-17575067D02*
X17346457Y-17575067D01*
X17527409Y-17575067D02*
X17508361Y-17565543D01*
X17508361Y-17565543D02*
X17498838Y-17546496D01*
X17498838Y-17546496D02*
X17498838Y-17375067D01*
X17679790Y-17565543D02*
X17660742Y-17575067D01*
X17660742Y-17575067D02*
X17622647Y-17575067D01*
X17622647Y-17575067D02*
X17603599Y-17565543D01*
X17603599Y-17565543D02*
X17594076Y-17546496D01*
X17594076Y-17546496D02*
X17594076Y-17470305D01*
X17594076Y-17470305D02*
X17603599Y-17451257D01*
X17603599Y-17451257D02*
X17622647Y-17441734D01*
X17622647Y-17441734D02*
X17660742Y-17441734D01*
X17660742Y-17441734D02*
X17679790Y-17451257D01*
X17679790Y-17451257D02*
X17689314Y-17470305D01*
X17689314Y-17470305D02*
X17689314Y-17489353D01*
X17689314Y-17489353D02*
X17594076Y-17508400D01*
X17765504Y-17565543D02*
X17784552Y-17575067D01*
X17784552Y-17575067D02*
X17822647Y-17575067D01*
X17822647Y-17575067D02*
X17841695Y-17565543D01*
X17841695Y-17565543D02*
X17851219Y-17546496D01*
X17851219Y-17546496D02*
X17851219Y-17536972D01*
X17851219Y-17536972D02*
X17841695Y-17517924D01*
X17841695Y-17517924D02*
X17822647Y-17508400D01*
X17822647Y-17508400D02*
X17794076Y-17508400D01*
X17794076Y-17508400D02*
X17775028Y-17498877D01*
X17775028Y-17498877D02*
X17765504Y-17479829D01*
X17765504Y-17479829D02*
X17765504Y-17470305D01*
X17765504Y-17470305D02*
X17775028Y-17451257D01*
X17775028Y-17451257D02*
X17794076Y-17441734D01*
X17794076Y-17441734D02*
X17822647Y-17441734D01*
X17822647Y-17441734D02*
X17841695Y-17451257D01*
X17917885Y-17651257D02*
X17927409Y-17641734D01*
X17927409Y-17641734D02*
X17946457Y-17613162D01*
X17946457Y-17613162D02*
X17955980Y-17594115D01*
X17955980Y-17594115D02*
X17965504Y-17565543D01*
X17965504Y-17565543D02*
X17975028Y-17517924D01*
X17975028Y-17517924D02*
X17975028Y-17479829D01*
X17975028Y-17479829D02*
X17965504Y-17432210D01*
X17965504Y-17432210D02*
X17955980Y-17403638D01*
X17955980Y-17403638D02*
X17946457Y-17384591D01*
X17946457Y-17384591D02*
X17927409Y-17356019D01*
X17927409Y-17356019D02*
X17917885Y-17346496D01*
D13*
X12972822Y-17662583D02*
X13142822Y-17832583D01*
X13142822Y-17662583D02*
X12972822Y-17832583D01*
X13057822Y-17662583D02*
X13057822Y-17832583D01*
X12972822Y-17747583D02*
X13142822Y-17747583D01*
D10*
X13508361Y-17839067D02*
X13394075Y-17839067D01*
X13451218Y-17839067D02*
X13451218Y-17639067D01*
X13451218Y-17639067D02*
X13432170Y-17667638D01*
X13432170Y-17667638D02*
X13413123Y-17686686D01*
X13413123Y-17686686D02*
X13394075Y-17696210D01*
X13594075Y-17820019D02*
X13603599Y-17829543D01*
X13603599Y-17829543D02*
X13594075Y-17839067D01*
X13594075Y-17839067D02*
X13584551Y-17829543D01*
X13584551Y-17829543D02*
X13594075Y-17820019D01*
X13594075Y-17820019D02*
X13594075Y-17839067D01*
X13670266Y-17639067D02*
X13803599Y-17639067D01*
X13803599Y-17639067D02*
X13717885Y-17839067D01*
X13917885Y-17639067D02*
X13936932Y-17639067D01*
X13936932Y-17639067D02*
X13955980Y-17648591D01*
X13955980Y-17648591D02*
X13965504Y-17658115D01*
X13965504Y-17658115D02*
X13975028Y-17677162D01*
X13975028Y-17677162D02*
X13984551Y-17715257D01*
X13984551Y-17715257D02*
X13984551Y-17762877D01*
X13984551Y-17762877D02*
X13975028Y-17800972D01*
X13975028Y-17800972D02*
X13965504Y-17820019D01*
X13965504Y-17820019D02*
X13955980Y-17829543D01*
X13955980Y-17829543D02*
X13936932Y-17839067D01*
X13936932Y-17839067D02*
X13917885Y-17839067D01*
X13917885Y-17839067D02*
X13898837Y-17829543D01*
X13898837Y-17829543D02*
X13889313Y-17820019D01*
X13889313Y-17820019D02*
X13879789Y-17800972D01*
X13879789Y-17800972D02*
X13870266Y-17762877D01*
X13870266Y-17762877D02*
X13870266Y-17715257D01*
X13870266Y-17715257D02*
X13879789Y-17677162D01*
X13879789Y-17677162D02*
X13889313Y-17658115D01*
X13889313Y-17658115D02*
X13898837Y-17648591D01*
X13898837Y-17648591D02*
X13917885Y-17639067D01*
X14108361Y-17639067D02*
X14127409Y-17639067D01*
X14127409Y-17639067D02*
X14146456Y-17648591D01*
X14146456Y-17648591D02*
X14155980Y-17658115D01*
X14155980Y-17658115D02*
X14165504Y-17677162D01*
X14165504Y-17677162D02*
X14175028Y-17715257D01*
X14175028Y-17715257D02*
X14175028Y-17762877D01*
X14175028Y-17762877D02*
X14165504Y-17800972D01*
X14165504Y-17800972D02*
X14155980Y-17820019D01*
X14155980Y-17820019D02*
X14146456Y-17829543D01*
X14146456Y-17829543D02*
X14127409Y-17839067D01*
X14127409Y-17839067D02*
X14108361Y-17839067D01*
X14108361Y-17839067D02*
X14089313Y-17829543D01*
X14089313Y-17829543D02*
X14079789Y-17820019D01*
X14079789Y-17820019D02*
X14070266Y-17800972D01*
X14070266Y-17800972D02*
X14060742Y-17762877D01*
X14060742Y-17762877D02*
X14060742Y-17715257D01*
X14060742Y-17715257D02*
X14070266Y-17677162D01*
X14070266Y-17677162D02*
X14079789Y-17658115D01*
X14079789Y-17658115D02*
X14089313Y-17648591D01*
X14089313Y-17648591D02*
X14108361Y-17639067D01*
X14260742Y-17839067D02*
X14260742Y-17705734D01*
X14260742Y-17724781D02*
X14270266Y-17715257D01*
X14270266Y-17715257D02*
X14289313Y-17705734D01*
X14289313Y-17705734D02*
X14317885Y-17705734D01*
X14317885Y-17705734D02*
X14336932Y-17715257D01*
X14336932Y-17715257D02*
X14346456Y-17734305D01*
X14346456Y-17734305D02*
X14346456Y-17839067D01*
X14346456Y-17734305D02*
X14355980Y-17715257D01*
X14355980Y-17715257D02*
X14375028Y-17705734D01*
X14375028Y-17705734D02*
X14403599Y-17705734D01*
X14403599Y-17705734D02*
X14422647Y-17715257D01*
X14422647Y-17715257D02*
X14432170Y-17734305D01*
X14432170Y-17734305D02*
X14432170Y-17839067D01*
X14527409Y-17839067D02*
X14527409Y-17705734D01*
X14527409Y-17724781D02*
X14536932Y-17715257D01*
X14536932Y-17715257D02*
X14555980Y-17705734D01*
X14555980Y-17705734D02*
X14584551Y-17705734D01*
X14584551Y-17705734D02*
X14603599Y-17715257D01*
X14603599Y-17715257D02*
X14613123Y-17734305D01*
X14613123Y-17734305D02*
X14613123Y-17839067D01*
X14613123Y-17734305D02*
X14622647Y-17715257D01*
X14622647Y-17715257D02*
X14641694Y-17705734D01*
X14641694Y-17705734D02*
X14670266Y-17705734D01*
X14670266Y-17705734D02*
X14689313Y-17715257D01*
X14689313Y-17715257D02*
X14698837Y-17734305D01*
X14698837Y-17734305D02*
X14698837Y-17839067D01*
X15089313Y-17629543D02*
X14917885Y-17886686D01*
X15346456Y-17639067D02*
X15365504Y-17639067D01*
X15365504Y-17639067D02*
X15384552Y-17648591D01*
X15384552Y-17648591D02*
X15394075Y-17658115D01*
X15394075Y-17658115D02*
X15403599Y-17677162D01*
X15403599Y-17677162D02*
X15413123Y-17715257D01*
X15413123Y-17715257D02*
X15413123Y-17762877D01*
X15413123Y-17762877D02*
X15403599Y-17800972D01*
X15403599Y-17800972D02*
X15394075Y-17820019D01*
X15394075Y-17820019D02*
X15384552Y-17829543D01*
X15384552Y-17829543D02*
X15365504Y-17839067D01*
X15365504Y-17839067D02*
X15346456Y-17839067D01*
X15346456Y-17839067D02*
X15327409Y-17829543D01*
X15327409Y-17829543D02*
X15317885Y-17820019D01*
X15317885Y-17820019D02*
X15308361Y-17800972D01*
X15308361Y-17800972D02*
X15298837Y-17762877D01*
X15298837Y-17762877D02*
X15298837Y-17715257D01*
X15298837Y-17715257D02*
X15308361Y-17677162D01*
X15308361Y-17677162D02*
X15317885Y-17658115D01*
X15317885Y-17658115D02*
X15327409Y-17648591D01*
X15327409Y-17648591D02*
X15346456Y-17639067D01*
X15498837Y-17820019D02*
X15508361Y-17829543D01*
X15508361Y-17829543D02*
X15498837Y-17839067D01*
X15498837Y-17839067D02*
X15489313Y-17829543D01*
X15489313Y-17829543D02*
X15498837Y-17820019D01*
X15498837Y-17820019D02*
X15498837Y-17839067D01*
X15632171Y-17639067D02*
X15651218Y-17639067D01*
X15651218Y-17639067D02*
X15670266Y-17648591D01*
X15670266Y-17648591D02*
X15679790Y-17658115D01*
X15679790Y-17658115D02*
X15689313Y-17677162D01*
X15689313Y-17677162D02*
X15698837Y-17715257D01*
X15698837Y-17715257D02*
X15698837Y-17762877D01*
X15698837Y-17762877D02*
X15689313Y-17800972D01*
X15689313Y-17800972D02*
X15679790Y-17820019D01*
X15679790Y-17820019D02*
X15670266Y-17829543D01*
X15670266Y-17829543D02*
X15651218Y-17839067D01*
X15651218Y-17839067D02*
X15632171Y-17839067D01*
X15632171Y-17839067D02*
X15613123Y-17829543D01*
X15613123Y-17829543D02*
X15603599Y-17820019D01*
X15603599Y-17820019D02*
X15594075Y-17800972D01*
X15594075Y-17800972D02*
X15584552Y-17762877D01*
X15584552Y-17762877D02*
X15584552Y-17715257D01*
X15584552Y-17715257D02*
X15594075Y-17677162D01*
X15594075Y-17677162D02*
X15603599Y-17658115D01*
X15603599Y-17658115D02*
X15613123Y-17648591D01*
X15613123Y-17648591D02*
X15632171Y-17639067D01*
X15870266Y-17639067D02*
X15832171Y-17639067D01*
X15832171Y-17639067D02*
X15813123Y-17648591D01*
X15813123Y-17648591D02*
X15803599Y-17658115D01*
X15803599Y-17658115D02*
X15784552Y-17686686D01*
X15784552Y-17686686D02*
X15775028Y-17724781D01*
X15775028Y-17724781D02*
X15775028Y-17800972D01*
X15775028Y-17800972D02*
X15784552Y-17820019D01*
X15784552Y-17820019D02*
X15794075Y-17829543D01*
X15794075Y-17829543D02*
X15813123Y-17839067D01*
X15813123Y-17839067D02*
X15851218Y-17839067D01*
X15851218Y-17839067D02*
X15870266Y-17829543D01*
X15870266Y-17829543D02*
X15879790Y-17820019D01*
X15879790Y-17820019D02*
X15889313Y-17800972D01*
X15889313Y-17800972D02*
X15889313Y-17753353D01*
X15889313Y-17753353D02*
X15879790Y-17734305D01*
X15879790Y-17734305D02*
X15870266Y-17724781D01*
X15870266Y-17724781D02*
X15851218Y-17715257D01*
X15851218Y-17715257D02*
X15813123Y-17715257D01*
X15813123Y-17715257D02*
X15794075Y-17724781D01*
X15794075Y-17724781D02*
X15784552Y-17734305D01*
X15784552Y-17734305D02*
X15775028Y-17753353D01*
X16060742Y-17639067D02*
X16022647Y-17639067D01*
X16022647Y-17639067D02*
X16003599Y-17648591D01*
X16003599Y-17648591D02*
X15994075Y-17658115D01*
X15994075Y-17658115D02*
X15975028Y-17686686D01*
X15975028Y-17686686D02*
X15965504Y-17724781D01*
X15965504Y-17724781D02*
X15965504Y-17800972D01*
X15965504Y-17800972D02*
X15975028Y-17820019D01*
X15975028Y-17820019D02*
X15984552Y-17829543D01*
X15984552Y-17829543D02*
X16003599Y-17839067D01*
X16003599Y-17839067D02*
X16041694Y-17839067D01*
X16041694Y-17839067D02*
X16060742Y-17829543D01*
X16060742Y-17829543D02*
X16070266Y-17820019D01*
X16070266Y-17820019D02*
X16079790Y-17800972D01*
X16079790Y-17800972D02*
X16079790Y-17753353D01*
X16079790Y-17753353D02*
X16070266Y-17734305D01*
X16070266Y-17734305D02*
X16060742Y-17724781D01*
X16060742Y-17724781D02*
X16041694Y-17715257D01*
X16041694Y-17715257D02*
X16003599Y-17715257D01*
X16003599Y-17715257D02*
X15984552Y-17724781D01*
X15984552Y-17724781D02*
X15975028Y-17734305D01*
X15975028Y-17734305D02*
X15965504Y-17753353D01*
X16175028Y-17839067D02*
X16213123Y-17839067D01*
X16213123Y-17839067D02*
X16232171Y-17829543D01*
X16232171Y-17829543D02*
X16241694Y-17820019D01*
X16241694Y-17820019D02*
X16260742Y-17791448D01*
X16260742Y-17791448D02*
X16270266Y-17753353D01*
X16270266Y-17753353D02*
X16270266Y-17677162D01*
X16270266Y-17677162D02*
X16260742Y-17658115D01*
X16260742Y-17658115D02*
X16251218Y-17648591D01*
X16251218Y-17648591D02*
X16232171Y-17639067D01*
X16232171Y-17639067D02*
X16194075Y-17639067D01*
X16194075Y-17639067D02*
X16175028Y-17648591D01*
X16175028Y-17648591D02*
X16165504Y-17658115D01*
X16165504Y-17658115D02*
X16155980Y-17677162D01*
X16155980Y-17677162D02*
X16155980Y-17724781D01*
X16155980Y-17724781D02*
X16165504Y-17743829D01*
X16165504Y-17743829D02*
X16175028Y-17753353D01*
X16175028Y-17753353D02*
X16194075Y-17762877D01*
X16194075Y-17762877D02*
X16232171Y-17762877D01*
X16232171Y-17762877D02*
X16251218Y-17753353D01*
X16251218Y-17753353D02*
X16260742Y-17743829D01*
X16260742Y-17743829D02*
X16270266Y-17724781D01*
X16346456Y-17639067D02*
X16346456Y-17677162D01*
X16422647Y-17639067D02*
X16422647Y-17677162D01*
X16717885Y-17915257D02*
X16708361Y-17905734D01*
X16708361Y-17905734D02*
X16689314Y-17877162D01*
X16689314Y-17877162D02*
X16679790Y-17858115D01*
X16679790Y-17858115D02*
X16670266Y-17829543D01*
X16670266Y-17829543D02*
X16660742Y-17781924D01*
X16660742Y-17781924D02*
X16660742Y-17743829D01*
X16660742Y-17743829D02*
X16670266Y-17696210D01*
X16670266Y-17696210D02*
X16679790Y-17667638D01*
X16679790Y-17667638D02*
X16689314Y-17648591D01*
X16689314Y-17648591D02*
X16708361Y-17620019D01*
X16708361Y-17620019D02*
X16717885Y-17610496D01*
X16879790Y-17639067D02*
X16841695Y-17639067D01*
X16841695Y-17639067D02*
X16822647Y-17648591D01*
X16822647Y-17648591D02*
X16813123Y-17658115D01*
X16813123Y-17658115D02*
X16794076Y-17686686D01*
X16794076Y-17686686D02*
X16784552Y-17724781D01*
X16784552Y-17724781D02*
X16784552Y-17800972D01*
X16784552Y-17800972D02*
X16794076Y-17820019D01*
X16794076Y-17820019D02*
X16803599Y-17829543D01*
X16803599Y-17829543D02*
X16822647Y-17839067D01*
X16822647Y-17839067D02*
X16860742Y-17839067D01*
X16860742Y-17839067D02*
X16879790Y-17829543D01*
X16879790Y-17829543D02*
X16889314Y-17820019D01*
X16889314Y-17820019D02*
X16898837Y-17800972D01*
X16898837Y-17800972D02*
X16898837Y-17753353D01*
X16898837Y-17753353D02*
X16889314Y-17734305D01*
X16889314Y-17734305D02*
X16879790Y-17724781D01*
X16879790Y-17724781D02*
X16860742Y-17715257D01*
X16860742Y-17715257D02*
X16822647Y-17715257D01*
X16822647Y-17715257D02*
X16803599Y-17724781D01*
X16803599Y-17724781D02*
X16794076Y-17734305D01*
X16794076Y-17734305D02*
X16784552Y-17753353D01*
X17136933Y-17839067D02*
X17136933Y-17639067D01*
X17222647Y-17839067D02*
X17222647Y-17734305D01*
X17222647Y-17734305D02*
X17213123Y-17715257D01*
X17213123Y-17715257D02*
X17194076Y-17705734D01*
X17194076Y-17705734D02*
X17165504Y-17705734D01*
X17165504Y-17705734D02*
X17146457Y-17715257D01*
X17146457Y-17715257D02*
X17136933Y-17724781D01*
X17346457Y-17839067D02*
X17327409Y-17829543D01*
X17327409Y-17829543D02*
X17317885Y-17820019D01*
X17317885Y-17820019D02*
X17308361Y-17800972D01*
X17308361Y-17800972D02*
X17308361Y-17743829D01*
X17308361Y-17743829D02*
X17317885Y-17724781D01*
X17317885Y-17724781D02*
X17327409Y-17715257D01*
X17327409Y-17715257D02*
X17346457Y-17705734D01*
X17346457Y-17705734D02*
X17375028Y-17705734D01*
X17375028Y-17705734D02*
X17394076Y-17715257D01*
X17394076Y-17715257D02*
X17403599Y-17724781D01*
X17403599Y-17724781D02*
X17413123Y-17743829D01*
X17413123Y-17743829D02*
X17413123Y-17800972D01*
X17413123Y-17800972D02*
X17403599Y-17820019D01*
X17403599Y-17820019D02*
X17394076Y-17829543D01*
X17394076Y-17829543D02*
X17375028Y-17839067D01*
X17375028Y-17839067D02*
X17346457Y-17839067D01*
X17527409Y-17839067D02*
X17508361Y-17829543D01*
X17508361Y-17829543D02*
X17498838Y-17810496D01*
X17498838Y-17810496D02*
X17498838Y-17639067D01*
X17679790Y-17829543D02*
X17660742Y-17839067D01*
X17660742Y-17839067D02*
X17622647Y-17839067D01*
X17622647Y-17839067D02*
X17603599Y-17829543D01*
X17603599Y-17829543D02*
X17594076Y-17810496D01*
X17594076Y-17810496D02*
X17594076Y-17734305D01*
X17594076Y-17734305D02*
X17603599Y-17715257D01*
X17603599Y-17715257D02*
X17622647Y-17705734D01*
X17622647Y-17705734D02*
X17660742Y-17705734D01*
X17660742Y-17705734D02*
X17679790Y-17715257D01*
X17679790Y-17715257D02*
X17689314Y-17734305D01*
X17689314Y-17734305D02*
X17689314Y-17753353D01*
X17689314Y-17753353D02*
X17594076Y-17772400D01*
X17765504Y-17829543D02*
X17784552Y-17839067D01*
X17784552Y-17839067D02*
X17822647Y-17839067D01*
X17822647Y-17839067D02*
X17841695Y-17829543D01*
X17841695Y-17829543D02*
X17851219Y-17810496D01*
X17851219Y-17810496D02*
X17851219Y-17800972D01*
X17851219Y-17800972D02*
X17841695Y-17781924D01*
X17841695Y-17781924D02*
X17822647Y-17772400D01*
X17822647Y-17772400D02*
X17794076Y-17772400D01*
X17794076Y-17772400D02*
X17775028Y-17762877D01*
X17775028Y-17762877D02*
X17765504Y-17743829D01*
X17765504Y-17743829D02*
X17765504Y-17734305D01*
X17765504Y-17734305D02*
X17775028Y-17715257D01*
X17775028Y-17715257D02*
X17794076Y-17705734D01*
X17794076Y-17705734D02*
X17822647Y-17705734D01*
X17822647Y-17705734D02*
X17841695Y-17715257D01*
X17917885Y-17915257D02*
X17927409Y-17905734D01*
X17927409Y-17905734D02*
X17946457Y-17877162D01*
X17946457Y-17877162D02*
X17955980Y-17858115D01*
X17955980Y-17858115D02*
X17965504Y-17829543D01*
X17965504Y-17829543D02*
X17975028Y-17781924D01*
X17975028Y-17781924D02*
X17975028Y-17743829D01*
X17975028Y-17743829D02*
X17965504Y-17696210D01*
X17965504Y-17696210D02*
X17955980Y-17667638D01*
X17955980Y-17667638D02*
X17946457Y-17648591D01*
X17946457Y-17648591D02*
X17927409Y-17620019D01*
X17927409Y-17620019D02*
X17917885Y-17610496D01*
M02*
