%TF.GenerationSoftware,KiCad,Pcbnew,(6.0.7)*%
%TF.CreationDate,2023-04-08T21:33:57+09:00*%
%TF.ProjectId,motordriver,6d6f746f-7264-4726-9976-65722e6b6963,rev?*%
%TF.SameCoordinates,Original*%
%TF.FileFunction,Legend,Top*%
%TF.FilePolarity,Positive*%
%FSLAX46Y46*%
G04 Gerber Fmt 4.6, Leading zero omitted, Abs format (unit mm)*
G04 Created by KiCad (PCBNEW (6.0.7)) date 2023-04-08 21:33:57*
%MOMM*%
%LPD*%
G01*
G04 APERTURE LIST*
%ADD10C,0.150000*%
%ADD11C,0.254000*%
%ADD12C,0.120000*%
%ADD13C,0.200000*%
G04 APERTURE END LIST*
D10*
%TO.C,R2*%
X134310380Y-95684266D02*
X133834190Y-96017600D01*
X134310380Y-96255695D02*
X133310380Y-96255695D01*
X133310380Y-95874742D01*
X133358000Y-95779504D01*
X133405619Y-95731885D01*
X133500857Y-95684266D01*
X133643714Y-95684266D01*
X133738952Y-95731885D01*
X133786571Y-95779504D01*
X133834190Y-95874742D01*
X133834190Y-96255695D01*
X133405619Y-95303314D02*
X133358000Y-95255695D01*
X133310380Y-95160457D01*
X133310380Y-94922361D01*
X133358000Y-94827123D01*
X133405619Y-94779504D01*
X133500857Y-94731885D01*
X133596095Y-94731885D01*
X133738952Y-94779504D01*
X134310380Y-95350933D01*
X134310380Y-94731885D01*
%TO.C,C3*%
X154367242Y-100929066D02*
X154414861Y-100976685D01*
X154462480Y-101119542D01*
X154462480Y-101214780D01*
X154414861Y-101357638D01*
X154319623Y-101452876D01*
X154224385Y-101500495D01*
X154033909Y-101548114D01*
X153891052Y-101548114D01*
X153700576Y-101500495D01*
X153605338Y-101452876D01*
X153510100Y-101357638D01*
X153462480Y-101214780D01*
X153462480Y-101119542D01*
X153510100Y-100976685D01*
X153557719Y-100929066D01*
X153462480Y-100595733D02*
X153462480Y-99976685D01*
X153843433Y-100310019D01*
X153843433Y-100167161D01*
X153891052Y-100071923D01*
X153938671Y-100024304D01*
X154033909Y-99976685D01*
X154272004Y-99976685D01*
X154367242Y-100024304D01*
X154414861Y-100071923D01*
X154462480Y-100167161D01*
X154462480Y-100452876D01*
X154414861Y-100548114D01*
X154367242Y-100595733D01*
%TO.C,J2*%
X129031166Y-89502780D02*
X129031166Y-90217066D01*
X128983547Y-90359923D01*
X128888309Y-90455161D01*
X128745452Y-90502780D01*
X128650214Y-90502780D01*
X129459738Y-89598019D02*
X129507357Y-89550400D01*
X129602595Y-89502780D01*
X129840690Y-89502780D01*
X129935928Y-89550400D01*
X129983547Y-89598019D01*
X130031166Y-89693257D01*
X130031166Y-89788495D01*
X129983547Y-89931352D01*
X129412119Y-90502780D01*
X130031166Y-90502780D01*
%TO.C,J1*%
X156971166Y-89502780D02*
X156971166Y-90217066D01*
X156923547Y-90359923D01*
X156828309Y-90455161D01*
X156685452Y-90502780D01*
X156590214Y-90502780D01*
X157971166Y-90502780D02*
X157399738Y-90502780D01*
X157685452Y-90502780D02*
X157685452Y-89502780D01*
X157590214Y-89645638D01*
X157494976Y-89740876D01*
X157399738Y-89788495D01*
%TO.C,C5*%
X134062742Y-102808066D02*
X134110361Y-102855685D01*
X134157980Y-102998542D01*
X134157980Y-103093780D01*
X134110361Y-103236638D01*
X134015123Y-103331876D01*
X133919885Y-103379495D01*
X133729409Y-103427114D01*
X133586552Y-103427114D01*
X133396076Y-103379495D01*
X133300838Y-103331876D01*
X133205600Y-103236638D01*
X133157980Y-103093780D01*
X133157980Y-102998542D01*
X133205600Y-102855685D01*
X133253219Y-102808066D01*
X133157980Y-101903304D02*
X133157980Y-102379495D01*
X133634171Y-102427114D01*
X133586552Y-102379495D01*
X133538933Y-102284257D01*
X133538933Y-102046161D01*
X133586552Y-101950923D01*
X133634171Y-101903304D01*
X133729409Y-101855685D01*
X133967504Y-101855685D01*
X134062742Y-101903304D01*
X134110361Y-101950923D01*
X134157980Y-102046161D01*
X134157980Y-102284257D01*
X134110361Y-102379495D01*
X134062742Y-102427114D01*
%TO.C,R3*%
X135497033Y-106726580D02*
X135163700Y-106250390D01*
X134925604Y-106726580D02*
X134925604Y-105726580D01*
X135306557Y-105726580D01*
X135401795Y-105774200D01*
X135449414Y-105821819D01*
X135497033Y-105917057D01*
X135497033Y-106059914D01*
X135449414Y-106155152D01*
X135401795Y-106202771D01*
X135306557Y-106250390D01*
X134925604Y-106250390D01*
X135830366Y-105726580D02*
X136449414Y-105726580D01*
X136116080Y-106107533D01*
X136258938Y-106107533D01*
X136354176Y-106155152D01*
X136401795Y-106202771D01*
X136449414Y-106298009D01*
X136449414Y-106536104D01*
X136401795Y-106631342D01*
X136354176Y-106678961D01*
X136258938Y-106726580D01*
X135973223Y-106726580D01*
X135877985Y-106678961D01*
X135830366Y-106631342D01*
%TO.C,R1*%
X134310380Y-99252066D02*
X133834190Y-99585400D01*
X134310380Y-99823495D02*
X133310380Y-99823495D01*
X133310380Y-99442542D01*
X133358000Y-99347304D01*
X133405619Y-99299685D01*
X133500857Y-99252066D01*
X133643714Y-99252066D01*
X133738952Y-99299685D01*
X133786571Y-99347304D01*
X133834190Y-99442542D01*
X133834190Y-99823495D01*
X134310380Y-98299685D02*
X134310380Y-98871114D01*
X134310380Y-98585400D02*
X133310380Y-98585400D01*
X133453238Y-98680638D01*
X133548476Y-98775876D01*
X133596095Y-98871114D01*
%TO.C,C4*%
X151507242Y-105018466D02*
X151554861Y-105066085D01*
X151602480Y-105208942D01*
X151602480Y-105304180D01*
X151554861Y-105447038D01*
X151459623Y-105542276D01*
X151364385Y-105589895D01*
X151173909Y-105637514D01*
X151031052Y-105637514D01*
X150840576Y-105589895D01*
X150745338Y-105542276D01*
X150650100Y-105447038D01*
X150602480Y-105304180D01*
X150602480Y-105208942D01*
X150650100Y-105066085D01*
X150697719Y-105018466D01*
X150935814Y-104161323D02*
X151602480Y-104161323D01*
X150554861Y-104399419D02*
X151269147Y-104637514D01*
X151269147Y-104018466D01*
D11*
%TO.C,IC1*%
X141281938Y-99304923D02*
X141281938Y-98034923D01*
X142612414Y-99183971D02*
X142551938Y-99244447D01*
X142370509Y-99304923D01*
X142249557Y-99304923D01*
X142068128Y-99244447D01*
X141947176Y-99123495D01*
X141886700Y-99002542D01*
X141826223Y-98760638D01*
X141826223Y-98579209D01*
X141886700Y-98337304D01*
X141947176Y-98216352D01*
X142068128Y-98095400D01*
X142249557Y-98034923D01*
X142370509Y-98034923D01*
X142551938Y-98095400D01*
X142612414Y-98155876D01*
X143821938Y-99304923D02*
X143096223Y-99304923D01*
X143459080Y-99304923D02*
X143459080Y-98034923D01*
X143338128Y-98216352D01*
X143217176Y-98337304D01*
X143096223Y-98397780D01*
D10*
%TO.C,C2*%
X151507242Y-97690266D02*
X151554861Y-97737885D01*
X151602480Y-97880742D01*
X151602480Y-97975980D01*
X151554861Y-98118838D01*
X151459623Y-98214076D01*
X151364385Y-98261695D01*
X151173909Y-98309314D01*
X151031052Y-98309314D01*
X150840576Y-98261695D01*
X150745338Y-98214076D01*
X150650100Y-98118838D01*
X150602480Y-97975980D01*
X150602480Y-97880742D01*
X150650100Y-97737885D01*
X150697719Y-97690266D01*
X150697719Y-97309314D02*
X150650100Y-97261695D01*
X150602480Y-97166457D01*
X150602480Y-96928361D01*
X150650100Y-96833123D01*
X150697719Y-96785504D01*
X150792957Y-96737885D01*
X150888195Y-96737885D01*
X151031052Y-96785504D01*
X151602480Y-97356933D01*
X151602480Y-96737885D01*
%TO.C,C7*%
X135522433Y-91518342D02*
X135474814Y-91565961D01*
X135331957Y-91613580D01*
X135236719Y-91613580D01*
X135093861Y-91565961D01*
X134998623Y-91470723D01*
X134951004Y-91375485D01*
X134903385Y-91185009D01*
X134903385Y-91042152D01*
X134951004Y-90851676D01*
X134998623Y-90756438D01*
X135093861Y-90661200D01*
X135236719Y-90613580D01*
X135331957Y-90613580D01*
X135474814Y-90661200D01*
X135522433Y-90708819D01*
X135855766Y-90613580D02*
X136522433Y-90613580D01*
X136093861Y-91613580D01*
%TO.C,C1*%
X154367242Y-94071066D02*
X154414861Y-94118685D01*
X154462480Y-94261542D01*
X154462480Y-94356780D01*
X154414861Y-94499638D01*
X154319623Y-94594876D01*
X154224385Y-94642495D01*
X154033909Y-94690114D01*
X153891052Y-94690114D01*
X153700576Y-94642495D01*
X153605338Y-94594876D01*
X153510100Y-94499638D01*
X153462480Y-94356780D01*
X153462480Y-94261542D01*
X153510100Y-94118685D01*
X153557719Y-94071066D01*
X154462480Y-93118685D02*
X154462480Y-93690114D01*
X154462480Y-93404400D02*
X153462480Y-93404400D01*
X153605338Y-93499638D01*
X153700576Y-93594876D01*
X153748195Y-93690114D01*
D12*
%TO.C,R2*%
X132017000Y-95754858D02*
X132017000Y-95280342D01*
X133062000Y-95754858D02*
X133062000Y-95280342D01*
%TO.C,C3*%
X153090100Y-100621820D02*
X153090100Y-100902980D01*
X152070100Y-100621820D02*
X152070100Y-100902980D01*
%TO.C,J2*%
X128034500Y-93650400D02*
X130694500Y-93650400D01*
X128034500Y-91050400D02*
X129364500Y-91050400D01*
X130694500Y-93650400D02*
X130694500Y-106410400D01*
X128034500Y-106410400D02*
X130694500Y-106410400D01*
X128034500Y-92380400D02*
X128034500Y-91050400D01*
X128034500Y-93650400D02*
X128034500Y-106410400D01*
%TO.C,J1*%
X155974500Y-106410400D02*
X158634500Y-106410400D01*
X155974500Y-91050400D02*
X157304500Y-91050400D01*
X158634500Y-93650400D02*
X158634500Y-106410400D01*
X155974500Y-93650400D02*
X158634500Y-93650400D01*
X155974500Y-93650400D02*
X155974500Y-106410400D01*
X155974500Y-92380400D02*
X155974500Y-91050400D01*
%TO.C,C5*%
X131851700Y-102782580D02*
X131851700Y-102501420D01*
X132871700Y-102782580D02*
X132871700Y-102501420D01*
%TO.C,R3*%
X132454642Y-106314100D02*
X132929158Y-106314100D01*
X132454642Y-105269100D02*
X132929158Y-105269100D01*
%TO.C,R1*%
X133062000Y-99324058D02*
X133062000Y-98849542D01*
X132017000Y-99324058D02*
X132017000Y-98849542D01*
%TO.C,C4*%
X152070100Y-104992380D02*
X152070100Y-104711220D01*
X153090100Y-104992380D02*
X153090100Y-104711220D01*
D13*
%TO.C,IC1*%
X147771700Y-106680400D02*
X137271700Y-106680400D01*
X134921700Y-92630400D02*
X136921700Y-92630400D01*
X137271700Y-106680400D02*
X137271700Y-90780400D01*
X137271700Y-90780400D02*
X147771700Y-90780400D01*
X147771700Y-90780400D02*
X147771700Y-106680400D01*
D12*
%TO.C,C2*%
X152070100Y-97664180D02*
X152070100Y-97383020D01*
X153090100Y-97664180D02*
X153090100Y-97383020D01*
%TO.C,C7*%
X132633848Y-91086600D02*
X133156352Y-91086600D01*
X132633848Y-92556600D02*
X133156352Y-92556600D01*
%TO.C,C1*%
X152070100Y-93763820D02*
X152070100Y-94044980D01*
X153090100Y-93763820D02*
X153090100Y-94044980D01*
%TD*%
M02*
