0
SECTION
2
HEADER
9
$INSUNITS
70
4
9
$ACADVER
1
AC1014
9
$HANDSEED
5
FFFF
0
ENDSEC
0
SECTION
2
TABLES
0
TABLE
2
VPORT
5
8
100
AcDbSymbolTable
0
ENDTAB
0
TABLE
2
LTYPE
5
5
100
AcDbSymbolTable
0
LTYPE
5
14
100
AcDbSymbolTableRecord
100
AcDbLinetypeTableRecord
2
BYBLOCK
70
0
0
LTYPE
5
15
100
AcDbSymbolTableRecord
100
AcDbLinetypeTableRecord
2
BYLAYER
70
0
0
ENDTAB
0
TABLE
2
LAYER
5
2
100
AcDbSymbolTable
70
2
0
LAYER
5
50
100
AcDbSymbolTableRecord
100
AcDbLayerTableRecord
2
0
70
0
6
CONTINUOUS
0
ENDTAB
0
TABLE
2
STYLE
5
3
100
AcDbSymbolTable
70
1
0
STYLE
5
11
100
AcDbSymbolTableRecord
100
AcDbTextStyleTableRecord
2
STANDARD
70
0
0
ENDTAB
0
TABLE
2
VIEW
5
6
100
AcDbSymbolTable
70
0
0
ENDTAB
0
TABLE
2
UCS
5
7
100
AcDbSymbolTable
70
0
0
ENDTAB
0
TABLE
2
APPID
5
9
100
AcDbSymbolTable
70
2
0
APPID
5
12
100
AcDbSymbolTableRecord
100
AcDbRegAppTableRecord
2
ACAD
70
0
0
ENDTAB
0
TABLE
2
DIMSTYLE
5
A
100
AcDbSymbolTable
70
1
0
ENDTAB
0
TABLE
2
BLOCK_RECORD
5
1
100
AcDbSymbolTable
70
1
0
BLOCK_RECORD
5
1F
100
AcDbSymbolTableRecord
100
AcDbBlockTableRecord
2
*MODEL_SPACE
0
BLOCK_RECORD
5
1B
100
AcDbSymbolTableRecord
100
AcDbBlockTableRecord
2
*PAPER_SPACE
0
ENDTAB
0
ENDSEC
0
SECTION
2
BLOCKS
0
BLOCK
5
20
100
AcDbEntity
100
AcDbBlockBegin
2
*MODEL_SPACE
0
ENDBLK
5
21
100
AcDbEntity
100
AcDbBlockEnd
0
BLOCK
5
1C
100
AcDbEntity
100
AcDbBlockBegin
2
*PAPER_SPACE
0
ENDBLK
5
1D
100
AcDbEntity
100
AcDbBlockEnd
0
ENDSEC
0
SECTION
2
ENTITIES
0
CIRCLE
5
100
100
AcDbEntity
8
0
100
AcDbCircle
10
-78.175989102167804
20
-11.380453765019013
30
0
40
1.1500000000000021
210
0
220
0
230
1
0
CIRCLE
5
101
100
AcDbEntity
8
0
100
AcDbCircle
10
-72.859262472219456
20
30.5373193323225
30
0
40
1.1500000000000021
210
0
220
0
230
1
0
CIRCLE
5
102
100
AcDbEntity
8
0
100
AcDbCircle
10
-35.000000476837151
20
-3.3091914108856635
30
0
40
1.1499999999999977
210
0
220
0
230
1
0
CIRCLE
5
103
100
AcDbEntity
8
0
100
AcDbCircle
10
-35.000000476837137
20
11.435416649820924
30
0
40
1.1500000000000021
210
0
220
0
230
1
0
LWPOLYLINE
5
104
100
AcDbEntity
8
0
100
AcDbPolyline
90
12
70
1
43
0.0
10
-33.500000455683754
20
-5.9072676100260519
42
0.26794919024949465
10
-32.000000476837158
20
-3.3091914108856599
10
-32.000000476837165
20
11.435416649820924
42
0.19891236737965884
10
-32.878680133277513
20
13.556736993380563
10
-51.980582815779087
20
32.658639675882135
42
0.19891236737966048
10
-54.101903159338733
20
33.537319332322497
10
-72.859262472219456
20
33.537319332322497
42
0.30220397619143941
10
-75.626069907873386
20
31.696964370258797
42
0.13619418618111287
10
-81.144697549085606
20
-11.812622895336165
42
0.37247968187501768
10
-78.175989102167804
20
-14.38045376501902
10
-48.97983669255094
20
-14.38045376501902
42
0.13165249965816339
10
-47.479836671397535
20
-13.978529964159407
0
LWPOLYLINE
5
105
100
AcDbEntity
8
0
100
AcDbPolyline
90
4
70
1
43
0.0
10
-70.690478340567168
20
13.231542304171516
10
-70.585683287590669
20
12.999709249497094
42
-1.4795478340388462
10
-73.366842468013928
20
13.117851120727194
10
-73.242764385551496
20
13.339961595610506
42
-0.55863366760018462
0
LWPOLYLINE
5
106
100
AcDbEntity
8
0
100
AcDbPolyline
90
4
70
1
43
0.0
10
-46.690477353549866
20
13.231542312514957
10
-46.585682811362943
20
12.99970965796841
42
-1.4795479059244456
10
-49.366841698854572
20
13.117850785646269
10
-49.242764020428496
20
13.339961653902563
42
-0.55863336702307687
0
LWPOLYLINE
5
107
100
AcDbEntity
8
0
100
AcDbPolyline
90
4
70
1
43
0.0
10
-70.585682850578934
20
-11.999707465094476
10
-70.690481050774892
20
-12.231543759811856
42
-0.55863269667142879
10
-73.242763919887864
20
-12.339959468478384
10
-73.366841890065302
20
-12.117852316954547
42
-1.4795475997230894
0
LWPOLYLINE
5
108
100
AcDbEntity
8
0
100
AcDbPolyline
90
4
70
1
43
0.0
10
-46.585682365596767
20
-11.999707848789637
10
-46.690480133926769
20
-12.231543622137082
42
-0.55863241077700265
10
-49.242763430386383
20
-12.339959474226083
10
-49.366841103459585
20
-12.117852020469982
42
-1.4795476801548089
0
ENDSEC
0
SECTION
2
OBJECTS
0
DICTIONARY
5
C
100
AcDbDictionary
3
ACAD_GROUP
350
D
3
ACAD_MLINESTYLE
350
17
0
DICTIONARY
5
D
100
AcDbDictionary
0
DICTIONARY
5
1A
330
C
100
AcDbDictionary
0
DICTIONARY
5
17
100
AcDbDictionary
0
ENDSEC
0
EOF
