%TF.GenerationSoftware,KiCad,Pcbnew,(6.0.11)*%
%TF.CreationDate,2023-10-13T17:07:21+09:00*%
%TF.ProjectId,main_board,6d61696e-5f62-46f6-9172-642e6b696361,rev?*%
%TF.SameCoordinates,Original*%
%TF.FileFunction,Drillmap*%
%TF.FilePolarity,Positive*%
%FSLAX45Y45*%
G04 Gerber Fmt 4.5, Leading zero omitted, Abs format (unit mm)*
G04 Created by KiCad (PCBNEW (6.0.11)) date 2023-10-13 17:07:21*
%MOMM*%
%LPD*%
G01*
G04 APERTURE LIST*
%ADD10C,0.200000*%
G04 APERTURE END LIST*
D10*
X16662275Y-12943556D02*
G75*
G03*
X16662275Y-12943556I-160000J0D01*
G01*
X16068817Y-13655797D02*
X18277602Y-11802406D01*
X14501476Y-12099056D02*
X15787051Y-13631145D01*
X14219709Y-7409229D02*
X13243240Y-6589875D01*
X16658911Y-6546330D02*
G75*
G03*
X16658911Y-6546330I-160000J0D01*
G01*
X12924276Y-6681885D02*
G75*
G03*
X12924276Y-12801750I9520336J-3059932D01*
G01*
X15787134Y-5852389D02*
X14501476Y-7384578D01*
X14219711Y-7409227D02*
G75*
G03*
X14501476Y-7384578I128559J153197D01*
G01*
X16068798Y-5827658D02*
G75*
G03*
X15787134Y-5852389I-128458J-153292D01*
G01*
X18332646Y-7913776D02*
G75*
G03*
X18331835Y-11568032I4111966J-1828041D01*
G01*
X12924272Y-12801751D02*
G75*
G03*
X13243240Y-12893760I190408J61201D01*
G01*
X13243240Y-12893760D02*
X14219709Y-12074405D01*
X15787050Y-13631146D02*
G75*
G03*
X16068817Y-13655797I153210J128566D01*
G01*
X13326905Y-12574734D02*
G75*
G03*
X13326905Y-12574734I-160000J0D01*
G01*
X14501481Y-12099052D02*
G75*
G03*
X14219709Y-12074405I-153211J-128578D01*
G01*
X18332646Y-7913776D02*
G75*
G03*
X18278350Y-7679238I-182756J81246D01*
G01*
X13326905Y-6874158D02*
G75*
G03*
X13326905Y-6874158I-160000J0D01*
G01*
X18277605Y-11802410D02*
G75*
G03*
X18331835Y-11568032I-128565J153210D01*
G01*
X18278350Y-7679238D02*
X16068801Y-5827655D01*
X13243235Y-6589880D02*
G75*
G03*
X12924276Y-6681885I-128556J-153210D01*
G01*
X12692231Y-14023062D02*
X12692231Y-13823062D01*
X12739850Y-13823062D01*
X12768422Y-13832586D01*
X12787470Y-13851633D01*
X12796993Y-13870681D01*
X12806517Y-13908776D01*
X12806517Y-13937348D01*
X12796993Y-13975443D01*
X12787470Y-13994491D01*
X12768422Y-14013538D01*
X12739850Y-14023062D01*
X12692231Y-14023062D01*
X12892231Y-14023062D02*
X12892231Y-13889729D01*
X12892231Y-13927824D02*
X12901755Y-13908776D01*
X12911279Y-13899252D01*
X12930327Y-13889729D01*
X12949374Y-13889729D01*
X13016041Y-14023062D02*
X13016041Y-13889729D01*
X13016041Y-13823062D02*
X13006517Y-13832586D01*
X13016041Y-13842110D01*
X13025565Y-13832586D01*
X13016041Y-13823062D01*
X13016041Y-13842110D01*
X13139850Y-14023062D02*
X13120803Y-14013538D01*
X13111279Y-13994491D01*
X13111279Y-13823062D01*
X13244612Y-14023062D02*
X13225565Y-14013538D01*
X13216041Y-13994491D01*
X13216041Y-13823062D01*
X13473184Y-14023062D02*
X13473184Y-13823062D01*
X13539850Y-13965919D01*
X13606517Y-13823062D01*
X13606517Y-14023062D01*
X13787470Y-14023062D02*
X13787470Y-13918300D01*
X13777946Y-13899252D01*
X13758898Y-13889729D01*
X13720803Y-13889729D01*
X13701755Y-13899252D01*
X13787470Y-14013538D02*
X13768422Y-14023062D01*
X13720803Y-14023062D01*
X13701755Y-14013538D01*
X13692231Y-13994491D01*
X13692231Y-13975443D01*
X13701755Y-13956395D01*
X13720803Y-13946872D01*
X13768422Y-13946872D01*
X13787470Y-13937348D01*
X13882708Y-13889729D02*
X13882708Y-14089729D01*
X13882708Y-13899252D02*
X13901755Y-13889729D01*
X13939850Y-13889729D01*
X13958898Y-13899252D01*
X13968422Y-13908776D01*
X13977946Y-13927824D01*
X13977946Y-13984967D01*
X13968422Y-14004014D01*
X13958898Y-14013538D01*
X13939850Y-14023062D01*
X13901755Y-14023062D01*
X13882708Y-14013538D01*
X14063660Y-14004014D02*
X14073184Y-14013538D01*
X14063660Y-14023062D01*
X14054136Y-14013538D01*
X14063660Y-14004014D01*
X14063660Y-14023062D01*
X14063660Y-13899252D02*
X14073184Y-13908776D01*
X14063660Y-13918300D01*
X14054136Y-13908776D01*
X14063660Y-13899252D01*
X14063660Y-13918300D01*
M02*
