M48
; DRILL file {KiCad (6.0.11)} date Fri Oct 13 17:07:23 2023
; FORMAT={-:-/ absolute / metric / decimal}
; #@! TF.CreationDate,2023-10-13T17:07:23+09:00
; #@! TF.GenerationSoftware,Kicad,Pcbnew,(6.0.11)
; #@! TF.FileFunction,Plated,1,2,PTH
FMAT,2
METRIC
; #@! TA.AperFunction,Plated,PTH,ViaDrill
T1C0.400
; #@! TA.AperFunction,Plated,PTH,ComponentDrill
T2C0.700
; #@! TA.AperFunction,Plated,PTH,ComponentDrill
T3C0.762
; #@! TA.AperFunction,Plated,PTH,ComponentDrill
T4C0.900
; #@! TA.AperFunction,Plated,PTH,ComponentDrill
T5C0.950
; #@! TA.AperFunction,Plated,PTH,ComponentDrill
T6C1.000
; #@! TA.AperFunction,Plated,PTH,ComponentDrill
T7C1.100
%
G90
G05
T1
X128.651Y-114.681
X128.905Y-103.759
X129.032Y-92.71
X129.159Y-83.82
X131.445Y-81.915
X131.572Y-109.601
X133.35Y-103.759
X133.604Y-118.745
X134.874Y-82.423
X136.652Y-92.964
X137.414Y-114.935
X142.494Y-114.808
X143.764Y-108.585
X146.558Y-106.426
X147.193Y-121.666
X149.098Y-112.014
X150.368Y-118.618
X151.003Y-121.412
X151.511Y-108.712
X151.638Y-105.283
X155.956Y-74.168
X155.956Y-86.868
X157.607Y-120.904
X158.75Y-86.106
X159.0Y-102.366
X159.131Y-99.695
X159.639Y-135.001
X159.766Y-66.548
X160.786Y-86.864
X161.036Y-82.804
X161.544Y-107.696
X161.671Y-109.982
X162.687Y-105.283
X163.068Y-86.868
X163.322Y-70.739
X163.327Y-67.178
X164.084Y-110.871
X164.211Y-131.953
X164.465Y-94.869
X164.719Y-77.343
X165.862Y-96.52
X165.989Y-86.614
X166.497Y-68.834
X166.624Y-82.55
X166.751Y-74.041
X166.751Y-118.237
X167.005Y-105.537
X167.005Y-113.411
X168.275Y-127.508
X168.656Y-82.55
X169.418Y-94.869
X169.418Y-96.647
X171.704Y-96.52
X171.958Y-85.471
X172.339Y-76.581
X172.466Y-88.519
X175.514Y-113.665
X178.308Y-94.742
X178.562Y-87.757
X179.832Y-83.693
X180.34Y-76.581
X181.483Y-116.332
X182.118Y-78.613
T2
X136.906Y-107.696
X136.906Y-109.982
X141.986Y-107.696
X141.986Y-109.982
T3
X135.128Y-105.156
X135.128Y-112.776
X137.668Y-105.156
X137.668Y-112.776
X140.208Y-105.156
X140.208Y-112.776
X142.748Y-105.156
X142.748Y-112.776
X148.812Y-113.538
X151.352Y-110.998
X151.352Y-116.078
X158.274Y-67.818
X158.274Y-72.898
X160.814Y-70.358
X165.1Y-87.979
X167.64Y-85.439
X170.18Y-87.979
T4
X153.507Y-120.779
X158.405Y-126.617
T5
X159.004Y-116.84
X160.919Y-115.233
X162.834Y-113.626
X168.719Y-79.442
X169.032Y-70.256
X170.634Y-81.049
X170.947Y-71.863
X172.549Y-82.656
X172.862Y-73.47
X174.465Y-84.263
X174.777Y-75.077
X176.38Y-85.87
X176.692Y-76.684
X178.607Y-78.291
T6
X128.984Y-77.216
X128.984Y-79.756
X128.984Y-94.996
X128.984Y-97.536
X130.048Y-101.6
X130.048Y-116.84
X131.524Y-77.216
X131.524Y-79.756
X131.524Y-94.996
X131.524Y-97.536
X132.588Y-101.6
X132.588Y-116.84
X134.064Y-77.216
X134.064Y-79.756
X134.064Y-94.996
X134.064Y-97.536
X135.128Y-101.6
X135.128Y-116.84
X136.604Y-77.216
X136.604Y-79.756
X136.604Y-94.996
X136.604Y-97.536
X137.668Y-101.6
X137.668Y-116.84
X139.144Y-77.216
X139.144Y-79.756
X139.144Y-94.996
X139.144Y-97.536
X140.208Y-101.6
X140.208Y-116.84
X141.684Y-77.216
X141.684Y-79.756
X141.684Y-94.996
X141.684Y-97.536
X142.748Y-101.6
X142.748Y-116.84
X144.224Y-77.216
X144.224Y-79.756
X144.224Y-94.996
X144.224Y-97.536
X145.288Y-101.6
X145.288Y-116.84
X146.764Y-77.216
X146.764Y-79.756
X146.764Y-94.996
X146.764Y-97.536
X149.304Y-77.216
X149.304Y-79.756
X149.304Y-94.996
X149.304Y-97.536
X151.844Y-77.216
X151.844Y-79.756
X151.844Y-94.996
X151.844Y-97.536
X154.384Y-77.216
X154.384Y-79.756
X154.384Y-94.996
X154.384Y-97.536
X156.924Y-77.216
X156.924Y-79.756
X156.924Y-94.996
X156.924Y-97.536
X159.464Y-77.216
X159.464Y-79.756
X159.464Y-94.996
X159.464Y-97.536
X162.004Y-77.216
X162.004Y-79.756
X162.004Y-94.996
X162.004Y-97.536
X162.535Y-123.591
X164.45Y-121.984
X169.054Y-99.06
X169.054Y-101.6
X169.054Y-104.14
X169.054Y-106.68
X169.054Y-109.22
X169.054Y-111.76
X169.054Y-114.3
X171.594Y-99.06
X171.594Y-101.6
X171.594Y-104.14
X171.594Y-106.68
X171.594Y-109.22
X171.594Y-111.76
X171.594Y-114.3
T7
X148.388Y-102.906
X148.388Y-107.406
X154.888Y-102.906
X154.888Y-107.406
T0
M30
