%TF.GenerationSoftware,KiCad,Pcbnew,(6.0.11)*%
%TF.CreationDate,2023-10-13T17:07:18+09:00*%
%TF.ProjectId,main_board,6d61696e-5f62-46f6-9172-642e6b696361,rev?*%
%TF.SameCoordinates,Original*%
%TF.FileFunction,Profile,NP*%
%FSLAX46Y46*%
G04 Gerber Fmt 4.6, Leading zero omitted, Abs format (unit mm)*
G04 Created by KiCad (PCBNEW (6.0.11)) date 2023-10-13 17:07:18*
%MOMM*%
%LPD*%
G01*
G04 APERTURE LIST*
%TA.AperFunction,Profile*%
%ADD10C,0.200000*%
%TD*%
G04 APERTURE END LIST*
D10*
X166622754Y-129435558D02*
G75*
G03*
X166622754Y-129435558I-1600000J0D01*
G01*
X160688173Y-136557968D02*
X182776024Y-118024060D01*
X145014756Y-120990565D02*
X157870508Y-136311454D01*
X142197092Y-74092295D02*
X132432400Y-65898746D01*
X166589113Y-65463305D02*
G75*
G03*
X166589113Y-65463305I-1600000J0D01*
G01*
X129242756Y-66818847D02*
G75*
G03*
X129242758Y-128017498I95203364J-30599323D01*
G01*
X157871345Y-58523895D02*
X145014756Y-73845781D01*
X142197115Y-74092268D02*
G75*
G03*
X145014756Y-73845781I1285585J1531968D01*
G01*
X160687979Y-58276585D02*
G75*
G03*
X157871345Y-58523895I-1284579J-1532915D01*
G01*
X183326461Y-79137764D02*
G75*
G03*
X183318350Y-115680320I41119659J-18280406D01*
G01*
X129242716Y-128017512D02*
G75*
G03*
X132432400Y-128937600I1904084J612012D01*
G01*
X132432400Y-128937600D02*
X142197092Y-120744051D01*
X157870503Y-136311458D02*
G75*
G03*
X160688173Y-136557968I1532097J1285658D01*
G01*
X133269047Y-125747339D02*
G75*
G03*
X133269047Y-125747339I-1600000J0D01*
G01*
X145014807Y-120990522D02*
G75*
G03*
X142197092Y-120744051I-1532107J-1285778D01*
G01*
X183326455Y-79137762D02*
G75*
G03*
X182783501Y-76792377I-1827555J812462D01*
G01*
X133269047Y-68741578D02*
G75*
G03*
X133269047Y-68741578I-1600000J0D01*
G01*
X182776054Y-118024096D02*
G75*
G03*
X183318350Y-115680320I-1285654J1532096D01*
G01*
X182783501Y-76792377D02*
X160688012Y-58276546D01*
X132432355Y-65898799D02*
G75*
G03*
X129242758Y-66818848I-1285555J-1532101D01*
G01*
M02*
