%TF.GenerationSoftware,KiCad,Pcbnew,7.0.2-0*%
%TF.CreationDate,2023-08-02T16:53:46+09:00*%
%TF.ProjectId,LCD_board2,4c43445f-626f-4617-9264-322e6b696361,rev?*%
%TF.SameCoordinates,Original*%
%TF.FileFunction,Drillmap*%
%TF.FilePolarity,Positive*%
%FSLAX45Y45*%
G04 Gerber Fmt 4.5, Leading zero omitted, Abs format (unit mm)*
G04 Created by KiCad (PCBNEW 7.0.2-0) date 2023-08-02 16:53:46*
%MOMM*%
%LPD*%
G01*
G04 APERTURE LIST*
%ADD10C,0.200000*%
%ADD11C,0.100000*%
%ADD12C,0.210000*%
G04 APERTURE END LIST*
D10*
X13934400Y-9817100D02*
X15834400Y-9817100D01*
X16284400Y-9467100D02*
X12684400Y-9467100D01*
X16196900Y-11267100D02*
G75*
G03*
X16196900Y-11267100I-112500J0D01*
G01*
X16284400Y-11467100D02*
X16284400Y-9467100D01*
X15834400Y-11117100D02*
X13934400Y-11117100D01*
X12684400Y-9467100D02*
X12684400Y-11467100D01*
X13934400Y-11117100D02*
X13934400Y-9817100D01*
X12684400Y-11467100D02*
X16284400Y-11467100D01*
X15834400Y-9817100D02*
X15834400Y-11117100D01*
D11*
X12900000Y-9906800D02*
X13000000Y-10006800D01*
X13000000Y-9906800D02*
X12900000Y-10006800D01*
X12900000Y-10160800D02*
X13000000Y-10260800D01*
X13000000Y-10160800D02*
X12900000Y-10260800D01*
X12900000Y-10414800D02*
X13000000Y-10514800D01*
X13000000Y-10414800D02*
X12900000Y-10514800D01*
X12900000Y-10668800D02*
X13000000Y-10768800D01*
X13000000Y-10668800D02*
X12900000Y-10768800D01*
X12900000Y-10922800D02*
X13000000Y-11022800D01*
X13000000Y-10922800D02*
X12900000Y-11022800D01*
X13386600Y-9906800D02*
X13486600Y-10006800D01*
X13486600Y-9906800D02*
X13386600Y-10006800D01*
X13386600Y-10160800D02*
X13486600Y-10260800D01*
X13486600Y-10160800D02*
X13386600Y-10260800D01*
X13386600Y-10414800D02*
X13486600Y-10514800D01*
X13486600Y-10414800D02*
X13386600Y-10514800D01*
X13386600Y-10668800D02*
X13486600Y-10768800D01*
X13486600Y-10668800D02*
X13386600Y-10768800D01*
X13386600Y-10922800D02*
X13486600Y-11022800D01*
X13486600Y-10922800D02*
X13386600Y-11022800D01*
X14234400Y-10414800D02*
X14334400Y-10514800D01*
X14334400Y-10414800D02*
X14234400Y-10514800D01*
D10*
X14334400Y-10564800D02*
X14334400Y-10364800D01*
X14334400Y-10364800D02*
G75*
G03*
X14234400Y-10364800I-50000J0D01*
G01*
X14234400Y-10364800D02*
X14234400Y-10564800D01*
X14234400Y-10564800D02*
G75*
G03*
X14334400Y-10564800I50000J0D01*
G01*
D11*
X14834400Y-10414800D02*
X14934400Y-10514800D01*
X14934400Y-10414800D02*
X14834400Y-10514800D01*
D10*
X14934400Y-10564800D02*
X14934400Y-10364800D01*
X14934400Y-10364800D02*
G75*
G03*
X14834400Y-10364800I-50000J0D01*
G01*
X14834400Y-10364800D02*
X14834400Y-10564800D01*
X14834400Y-10564800D02*
G75*
G03*
X14934400Y-10564800I50000J0D01*
G01*
D12*
X16189366Y-11268733D02*
G75*
G03*
X16189366Y-11268733I-105000J0D01*
G01*
D10*
X12922019Y-11789624D02*
X12922019Y-11589624D01*
X12922019Y-11589624D02*
X12969638Y-11589624D01*
X12969638Y-11589624D02*
X12998209Y-11599148D01*
X12998209Y-11599148D02*
X13017257Y-11618195D01*
X13017257Y-11618195D02*
X13026781Y-11637243D01*
X13026781Y-11637243D02*
X13036305Y-11675338D01*
X13036305Y-11675338D02*
X13036305Y-11703909D01*
X13036305Y-11703909D02*
X13026781Y-11742005D01*
X13026781Y-11742005D02*
X13017257Y-11761052D01*
X13017257Y-11761052D02*
X12998209Y-11780100D01*
X12998209Y-11780100D02*
X12969638Y-11789624D01*
X12969638Y-11789624D02*
X12922019Y-11789624D01*
X13122019Y-11789624D02*
X13122019Y-11656290D01*
X13122019Y-11694386D02*
X13131543Y-11675338D01*
X13131543Y-11675338D02*
X13141067Y-11665814D01*
X13141067Y-11665814D02*
X13160114Y-11656290D01*
X13160114Y-11656290D02*
X13179162Y-11656290D01*
X13245828Y-11789624D02*
X13245828Y-11656290D01*
X13245828Y-11589624D02*
X13236305Y-11599148D01*
X13236305Y-11599148D02*
X13245828Y-11608671D01*
X13245828Y-11608671D02*
X13255352Y-11599148D01*
X13255352Y-11599148D02*
X13245828Y-11589624D01*
X13245828Y-11589624D02*
X13245828Y-11608671D01*
X13369638Y-11789624D02*
X13350590Y-11780100D01*
X13350590Y-11780100D02*
X13341067Y-11761052D01*
X13341067Y-11761052D02*
X13341067Y-11589624D01*
X13474400Y-11789624D02*
X13455352Y-11780100D01*
X13455352Y-11780100D02*
X13445828Y-11761052D01*
X13445828Y-11761052D02*
X13445828Y-11589624D01*
X13702971Y-11789624D02*
X13702971Y-11589624D01*
X13702971Y-11589624D02*
X13769638Y-11732481D01*
X13769638Y-11732481D02*
X13836305Y-11589624D01*
X13836305Y-11589624D02*
X13836305Y-11789624D01*
X14017257Y-11789624D02*
X14017257Y-11684862D01*
X14017257Y-11684862D02*
X14007733Y-11665814D01*
X14007733Y-11665814D02*
X13988686Y-11656290D01*
X13988686Y-11656290D02*
X13950590Y-11656290D01*
X13950590Y-11656290D02*
X13931543Y-11665814D01*
X14017257Y-11780100D02*
X13998209Y-11789624D01*
X13998209Y-11789624D02*
X13950590Y-11789624D01*
X13950590Y-11789624D02*
X13931543Y-11780100D01*
X13931543Y-11780100D02*
X13922019Y-11761052D01*
X13922019Y-11761052D02*
X13922019Y-11742005D01*
X13922019Y-11742005D02*
X13931543Y-11722957D01*
X13931543Y-11722957D02*
X13950590Y-11713433D01*
X13950590Y-11713433D02*
X13998209Y-11713433D01*
X13998209Y-11713433D02*
X14017257Y-11703909D01*
X14112495Y-11656290D02*
X14112495Y-11856290D01*
X14112495Y-11665814D02*
X14131543Y-11656290D01*
X14131543Y-11656290D02*
X14169638Y-11656290D01*
X14169638Y-11656290D02*
X14188686Y-11665814D01*
X14188686Y-11665814D02*
X14198209Y-11675338D01*
X14198209Y-11675338D02*
X14207733Y-11694386D01*
X14207733Y-11694386D02*
X14207733Y-11751528D01*
X14207733Y-11751528D02*
X14198209Y-11770576D01*
X14198209Y-11770576D02*
X14188686Y-11780100D01*
X14188686Y-11780100D02*
X14169638Y-11789624D01*
X14169638Y-11789624D02*
X14131543Y-11789624D01*
X14131543Y-11789624D02*
X14112495Y-11780100D01*
X14293448Y-11770576D02*
X14302971Y-11780100D01*
X14302971Y-11780100D02*
X14293448Y-11789624D01*
X14293448Y-11789624D02*
X14283924Y-11780100D01*
X14283924Y-11780100D02*
X14293448Y-11770576D01*
X14293448Y-11770576D02*
X14293448Y-11789624D01*
X14293448Y-11665814D02*
X14302971Y-11675338D01*
X14302971Y-11675338D02*
X14293448Y-11684862D01*
X14293448Y-11684862D02*
X14283924Y-11675338D01*
X14283924Y-11675338D02*
X14293448Y-11665814D01*
X14293448Y-11665814D02*
X14293448Y-11684862D01*
D11*
X12574400Y-12067100D02*
X12674400Y-12167100D01*
X12674400Y-12067100D02*
X12574400Y-12167100D01*
D10*
X13026781Y-12209624D02*
X12912495Y-12209624D01*
X12969638Y-12209624D02*
X12969638Y-12009624D01*
X12969638Y-12009624D02*
X12950590Y-12038195D01*
X12950590Y-12038195D02*
X12931543Y-12057243D01*
X12931543Y-12057243D02*
X12912495Y-12066767D01*
X13112495Y-12190576D02*
X13122019Y-12200100D01*
X13122019Y-12200100D02*
X13112495Y-12209624D01*
X13112495Y-12209624D02*
X13102971Y-12200100D01*
X13102971Y-12200100D02*
X13112495Y-12190576D01*
X13112495Y-12190576D02*
X13112495Y-12209624D01*
X13245828Y-12009624D02*
X13264876Y-12009624D01*
X13264876Y-12009624D02*
X13283924Y-12019148D01*
X13283924Y-12019148D02*
X13293448Y-12028671D01*
X13293448Y-12028671D02*
X13302971Y-12047719D01*
X13302971Y-12047719D02*
X13312495Y-12085814D01*
X13312495Y-12085814D02*
X13312495Y-12133433D01*
X13312495Y-12133433D02*
X13302971Y-12171528D01*
X13302971Y-12171528D02*
X13293448Y-12190576D01*
X13293448Y-12190576D02*
X13283924Y-12200100D01*
X13283924Y-12200100D02*
X13264876Y-12209624D01*
X13264876Y-12209624D02*
X13245828Y-12209624D01*
X13245828Y-12209624D02*
X13226781Y-12200100D01*
X13226781Y-12200100D02*
X13217257Y-12190576D01*
X13217257Y-12190576D02*
X13207733Y-12171528D01*
X13207733Y-12171528D02*
X13198209Y-12133433D01*
X13198209Y-12133433D02*
X13198209Y-12085814D01*
X13198209Y-12085814D02*
X13207733Y-12047719D01*
X13207733Y-12047719D02*
X13217257Y-12028671D01*
X13217257Y-12028671D02*
X13226781Y-12019148D01*
X13226781Y-12019148D02*
X13245828Y-12009624D01*
X13436305Y-12009624D02*
X13455352Y-12009624D01*
X13455352Y-12009624D02*
X13474400Y-12019148D01*
X13474400Y-12019148D02*
X13483924Y-12028671D01*
X13483924Y-12028671D02*
X13493448Y-12047719D01*
X13493448Y-12047719D02*
X13502971Y-12085814D01*
X13502971Y-12085814D02*
X13502971Y-12133433D01*
X13502971Y-12133433D02*
X13493448Y-12171528D01*
X13493448Y-12171528D02*
X13483924Y-12190576D01*
X13483924Y-12190576D02*
X13474400Y-12200100D01*
X13474400Y-12200100D02*
X13455352Y-12209624D01*
X13455352Y-12209624D02*
X13436305Y-12209624D01*
X13436305Y-12209624D02*
X13417257Y-12200100D01*
X13417257Y-12200100D02*
X13407733Y-12190576D01*
X13407733Y-12190576D02*
X13398209Y-12171528D01*
X13398209Y-12171528D02*
X13388686Y-12133433D01*
X13388686Y-12133433D02*
X13388686Y-12085814D01*
X13388686Y-12085814D02*
X13398209Y-12047719D01*
X13398209Y-12047719D02*
X13407733Y-12028671D01*
X13407733Y-12028671D02*
X13417257Y-12019148D01*
X13417257Y-12019148D02*
X13436305Y-12009624D01*
X13626781Y-12009624D02*
X13645829Y-12009624D01*
X13645829Y-12009624D02*
X13664876Y-12019148D01*
X13664876Y-12019148D02*
X13674400Y-12028671D01*
X13674400Y-12028671D02*
X13683924Y-12047719D01*
X13683924Y-12047719D02*
X13693448Y-12085814D01*
X13693448Y-12085814D02*
X13693448Y-12133433D01*
X13693448Y-12133433D02*
X13683924Y-12171528D01*
X13683924Y-12171528D02*
X13674400Y-12190576D01*
X13674400Y-12190576D02*
X13664876Y-12200100D01*
X13664876Y-12200100D02*
X13645829Y-12209624D01*
X13645829Y-12209624D02*
X13626781Y-12209624D01*
X13626781Y-12209624D02*
X13607733Y-12200100D01*
X13607733Y-12200100D02*
X13598209Y-12190576D01*
X13598209Y-12190576D02*
X13588686Y-12171528D01*
X13588686Y-12171528D02*
X13579162Y-12133433D01*
X13579162Y-12133433D02*
X13579162Y-12085814D01*
X13579162Y-12085814D02*
X13588686Y-12047719D01*
X13588686Y-12047719D02*
X13598209Y-12028671D01*
X13598209Y-12028671D02*
X13607733Y-12019148D01*
X13607733Y-12019148D02*
X13626781Y-12009624D01*
X13779162Y-12209624D02*
X13779162Y-12076290D01*
X13779162Y-12095338D02*
X13788686Y-12085814D01*
X13788686Y-12085814D02*
X13807733Y-12076290D01*
X13807733Y-12076290D02*
X13836305Y-12076290D01*
X13836305Y-12076290D02*
X13855352Y-12085814D01*
X13855352Y-12085814D02*
X13864876Y-12104862D01*
X13864876Y-12104862D02*
X13864876Y-12209624D01*
X13864876Y-12104862D02*
X13874400Y-12085814D01*
X13874400Y-12085814D02*
X13893448Y-12076290D01*
X13893448Y-12076290D02*
X13922019Y-12076290D01*
X13922019Y-12076290D02*
X13941067Y-12085814D01*
X13941067Y-12085814D02*
X13950590Y-12104862D01*
X13950590Y-12104862D02*
X13950590Y-12209624D01*
X14045829Y-12209624D02*
X14045829Y-12076290D01*
X14045829Y-12095338D02*
X14055352Y-12085814D01*
X14055352Y-12085814D02*
X14074400Y-12076290D01*
X14074400Y-12076290D02*
X14102971Y-12076290D01*
X14102971Y-12076290D02*
X14122019Y-12085814D01*
X14122019Y-12085814D02*
X14131543Y-12104862D01*
X14131543Y-12104862D02*
X14131543Y-12209624D01*
X14131543Y-12104862D02*
X14141067Y-12085814D01*
X14141067Y-12085814D02*
X14160114Y-12076290D01*
X14160114Y-12076290D02*
X14188686Y-12076290D01*
X14188686Y-12076290D02*
X14207733Y-12085814D01*
X14207733Y-12085814D02*
X14217257Y-12104862D01*
X14217257Y-12104862D02*
X14217257Y-12209624D01*
X14607733Y-12000100D02*
X14436305Y-12257243D01*
X14864876Y-12009624D02*
X14883924Y-12009624D01*
X14883924Y-12009624D02*
X14902972Y-12019148D01*
X14902972Y-12019148D02*
X14912495Y-12028671D01*
X14912495Y-12028671D02*
X14922019Y-12047719D01*
X14922019Y-12047719D02*
X14931543Y-12085814D01*
X14931543Y-12085814D02*
X14931543Y-12133433D01*
X14931543Y-12133433D02*
X14922019Y-12171528D01*
X14922019Y-12171528D02*
X14912495Y-12190576D01*
X14912495Y-12190576D02*
X14902972Y-12200100D01*
X14902972Y-12200100D02*
X14883924Y-12209624D01*
X14883924Y-12209624D02*
X14864876Y-12209624D01*
X14864876Y-12209624D02*
X14845829Y-12200100D01*
X14845829Y-12200100D02*
X14836305Y-12190576D01*
X14836305Y-12190576D02*
X14826781Y-12171528D01*
X14826781Y-12171528D02*
X14817257Y-12133433D01*
X14817257Y-12133433D02*
X14817257Y-12085814D01*
X14817257Y-12085814D02*
X14826781Y-12047719D01*
X14826781Y-12047719D02*
X14836305Y-12028671D01*
X14836305Y-12028671D02*
X14845829Y-12019148D01*
X14845829Y-12019148D02*
X14864876Y-12009624D01*
X15017257Y-12190576D02*
X15026781Y-12200100D01*
X15026781Y-12200100D02*
X15017257Y-12209624D01*
X15017257Y-12209624D02*
X15007733Y-12200100D01*
X15007733Y-12200100D02*
X15017257Y-12190576D01*
X15017257Y-12190576D02*
X15017257Y-12209624D01*
X15150591Y-12009624D02*
X15169638Y-12009624D01*
X15169638Y-12009624D02*
X15188686Y-12019148D01*
X15188686Y-12019148D02*
X15198210Y-12028671D01*
X15198210Y-12028671D02*
X15207733Y-12047719D01*
X15207733Y-12047719D02*
X15217257Y-12085814D01*
X15217257Y-12085814D02*
X15217257Y-12133433D01*
X15217257Y-12133433D02*
X15207733Y-12171528D01*
X15207733Y-12171528D02*
X15198210Y-12190576D01*
X15198210Y-12190576D02*
X15188686Y-12200100D01*
X15188686Y-12200100D02*
X15169638Y-12209624D01*
X15169638Y-12209624D02*
X15150591Y-12209624D01*
X15150591Y-12209624D02*
X15131543Y-12200100D01*
X15131543Y-12200100D02*
X15122019Y-12190576D01*
X15122019Y-12190576D02*
X15112495Y-12171528D01*
X15112495Y-12171528D02*
X15102972Y-12133433D01*
X15102972Y-12133433D02*
X15102972Y-12085814D01*
X15102972Y-12085814D02*
X15112495Y-12047719D01*
X15112495Y-12047719D02*
X15122019Y-12028671D01*
X15122019Y-12028671D02*
X15131543Y-12019148D01*
X15131543Y-12019148D02*
X15150591Y-12009624D01*
X15283924Y-12009624D02*
X15407733Y-12009624D01*
X15407733Y-12009624D02*
X15341067Y-12085814D01*
X15341067Y-12085814D02*
X15369638Y-12085814D01*
X15369638Y-12085814D02*
X15388686Y-12095338D01*
X15388686Y-12095338D02*
X15398210Y-12104862D01*
X15398210Y-12104862D02*
X15407733Y-12123909D01*
X15407733Y-12123909D02*
X15407733Y-12171528D01*
X15407733Y-12171528D02*
X15398210Y-12190576D01*
X15398210Y-12190576D02*
X15388686Y-12200100D01*
X15388686Y-12200100D02*
X15369638Y-12209624D01*
X15369638Y-12209624D02*
X15312495Y-12209624D01*
X15312495Y-12209624D02*
X15293448Y-12200100D01*
X15293448Y-12200100D02*
X15283924Y-12190576D01*
X15502972Y-12209624D02*
X15541067Y-12209624D01*
X15541067Y-12209624D02*
X15560114Y-12200100D01*
X15560114Y-12200100D02*
X15569638Y-12190576D01*
X15569638Y-12190576D02*
X15588686Y-12162005D01*
X15588686Y-12162005D02*
X15598210Y-12123909D01*
X15598210Y-12123909D02*
X15598210Y-12047719D01*
X15598210Y-12047719D02*
X15588686Y-12028671D01*
X15588686Y-12028671D02*
X15579162Y-12019148D01*
X15579162Y-12019148D02*
X15560114Y-12009624D01*
X15560114Y-12009624D02*
X15522019Y-12009624D01*
X15522019Y-12009624D02*
X15502972Y-12019148D01*
X15502972Y-12019148D02*
X15493448Y-12028671D01*
X15493448Y-12028671D02*
X15483924Y-12047719D01*
X15483924Y-12047719D02*
X15483924Y-12095338D01*
X15483924Y-12095338D02*
X15493448Y-12114386D01*
X15493448Y-12114386D02*
X15502972Y-12123909D01*
X15502972Y-12123909D02*
X15522019Y-12133433D01*
X15522019Y-12133433D02*
X15560114Y-12133433D01*
X15560114Y-12133433D02*
X15579162Y-12123909D01*
X15579162Y-12123909D02*
X15588686Y-12114386D01*
X15588686Y-12114386D02*
X15598210Y-12095338D01*
X15769638Y-12076290D02*
X15769638Y-12209624D01*
X15722019Y-12000100D02*
X15674400Y-12142957D01*
X15674400Y-12142957D02*
X15798210Y-12142957D01*
X15864876Y-12009624D02*
X15864876Y-12047719D01*
X15941067Y-12009624D02*
X15941067Y-12047719D01*
X16236305Y-12285814D02*
X16226781Y-12276290D01*
X16226781Y-12276290D02*
X16207734Y-12247719D01*
X16207734Y-12247719D02*
X16198210Y-12228671D01*
X16198210Y-12228671D02*
X16188686Y-12200100D01*
X16188686Y-12200100D02*
X16179162Y-12152481D01*
X16179162Y-12152481D02*
X16179162Y-12114386D01*
X16179162Y-12114386D02*
X16188686Y-12066767D01*
X16188686Y-12066767D02*
X16198210Y-12038195D01*
X16198210Y-12038195D02*
X16207734Y-12019148D01*
X16207734Y-12019148D02*
X16226781Y-11990576D01*
X16226781Y-11990576D02*
X16236305Y-11981052D01*
X16417257Y-12209624D02*
X16302972Y-12209624D01*
X16360114Y-12209624D02*
X16360114Y-12009624D01*
X16360114Y-12009624D02*
X16341067Y-12038195D01*
X16341067Y-12038195D02*
X16322019Y-12057243D01*
X16322019Y-12057243D02*
X16302972Y-12066767D01*
X16541067Y-12009624D02*
X16560115Y-12009624D01*
X16560115Y-12009624D02*
X16579162Y-12019148D01*
X16579162Y-12019148D02*
X16588686Y-12028671D01*
X16588686Y-12028671D02*
X16598210Y-12047719D01*
X16598210Y-12047719D02*
X16607734Y-12085814D01*
X16607734Y-12085814D02*
X16607734Y-12133433D01*
X16607734Y-12133433D02*
X16598210Y-12171528D01*
X16598210Y-12171528D02*
X16588686Y-12190576D01*
X16588686Y-12190576D02*
X16579162Y-12200100D01*
X16579162Y-12200100D02*
X16560115Y-12209624D01*
X16560115Y-12209624D02*
X16541067Y-12209624D01*
X16541067Y-12209624D02*
X16522019Y-12200100D01*
X16522019Y-12200100D02*
X16512495Y-12190576D01*
X16512495Y-12190576D02*
X16502972Y-12171528D01*
X16502972Y-12171528D02*
X16493448Y-12133433D01*
X16493448Y-12133433D02*
X16493448Y-12085814D01*
X16493448Y-12085814D02*
X16502972Y-12047719D01*
X16502972Y-12047719D02*
X16512495Y-12028671D01*
X16512495Y-12028671D02*
X16522019Y-12019148D01*
X16522019Y-12019148D02*
X16541067Y-12009624D01*
X16845829Y-12209624D02*
X16845829Y-12009624D01*
X16931543Y-12209624D02*
X16931543Y-12104862D01*
X16931543Y-12104862D02*
X16922019Y-12085814D01*
X16922019Y-12085814D02*
X16902972Y-12076290D01*
X16902972Y-12076290D02*
X16874400Y-12076290D01*
X16874400Y-12076290D02*
X16855353Y-12085814D01*
X16855353Y-12085814D02*
X16845829Y-12095338D01*
X17055353Y-12209624D02*
X17036305Y-12200100D01*
X17036305Y-12200100D02*
X17026781Y-12190576D01*
X17026781Y-12190576D02*
X17017258Y-12171528D01*
X17017258Y-12171528D02*
X17017258Y-12114386D01*
X17017258Y-12114386D02*
X17026781Y-12095338D01*
X17026781Y-12095338D02*
X17036305Y-12085814D01*
X17036305Y-12085814D02*
X17055353Y-12076290D01*
X17055353Y-12076290D02*
X17083924Y-12076290D01*
X17083924Y-12076290D02*
X17102972Y-12085814D01*
X17102972Y-12085814D02*
X17112496Y-12095338D01*
X17112496Y-12095338D02*
X17122019Y-12114386D01*
X17122019Y-12114386D02*
X17122019Y-12171528D01*
X17122019Y-12171528D02*
X17112496Y-12190576D01*
X17112496Y-12190576D02*
X17102972Y-12200100D01*
X17102972Y-12200100D02*
X17083924Y-12209624D01*
X17083924Y-12209624D02*
X17055353Y-12209624D01*
X17236305Y-12209624D02*
X17217258Y-12200100D01*
X17217258Y-12200100D02*
X17207734Y-12181052D01*
X17207734Y-12181052D02*
X17207734Y-12009624D01*
X17388686Y-12200100D02*
X17369639Y-12209624D01*
X17369639Y-12209624D02*
X17331543Y-12209624D01*
X17331543Y-12209624D02*
X17312496Y-12200100D01*
X17312496Y-12200100D02*
X17302972Y-12181052D01*
X17302972Y-12181052D02*
X17302972Y-12104862D01*
X17302972Y-12104862D02*
X17312496Y-12085814D01*
X17312496Y-12085814D02*
X17331543Y-12076290D01*
X17331543Y-12076290D02*
X17369639Y-12076290D01*
X17369639Y-12076290D02*
X17388686Y-12085814D01*
X17388686Y-12085814D02*
X17398210Y-12104862D01*
X17398210Y-12104862D02*
X17398210Y-12123909D01*
X17398210Y-12123909D02*
X17302972Y-12142957D01*
X17474400Y-12200100D02*
X17493448Y-12209624D01*
X17493448Y-12209624D02*
X17531543Y-12209624D01*
X17531543Y-12209624D02*
X17550591Y-12200100D01*
X17550591Y-12200100D02*
X17560115Y-12181052D01*
X17560115Y-12181052D02*
X17560115Y-12171528D01*
X17560115Y-12171528D02*
X17550591Y-12152481D01*
X17550591Y-12152481D02*
X17531543Y-12142957D01*
X17531543Y-12142957D02*
X17502972Y-12142957D01*
X17502972Y-12142957D02*
X17483924Y-12133433D01*
X17483924Y-12133433D02*
X17474400Y-12114386D01*
X17474400Y-12114386D02*
X17474400Y-12104862D01*
X17474400Y-12104862D02*
X17483924Y-12085814D01*
X17483924Y-12085814D02*
X17502972Y-12076290D01*
X17502972Y-12076290D02*
X17531543Y-12076290D01*
X17531543Y-12076290D02*
X17550591Y-12085814D01*
X17798210Y-12133433D02*
X17950591Y-12133433D01*
X17874401Y-12209624D02*
X17874401Y-12057243D01*
X18188686Y-12028671D02*
X18198210Y-12019148D01*
X18198210Y-12019148D02*
X18217258Y-12009624D01*
X18217258Y-12009624D02*
X18264877Y-12009624D01*
X18264877Y-12009624D02*
X18283924Y-12019148D01*
X18283924Y-12019148D02*
X18293448Y-12028671D01*
X18293448Y-12028671D02*
X18302972Y-12047719D01*
X18302972Y-12047719D02*
X18302972Y-12066767D01*
X18302972Y-12066767D02*
X18293448Y-12095338D01*
X18293448Y-12095338D02*
X18179162Y-12209624D01*
X18179162Y-12209624D02*
X18302972Y-12209624D01*
X18531543Y-12200100D02*
X18550591Y-12209624D01*
X18550591Y-12209624D02*
X18588686Y-12209624D01*
X18588686Y-12209624D02*
X18607734Y-12200100D01*
X18607734Y-12200100D02*
X18617258Y-12181052D01*
X18617258Y-12181052D02*
X18617258Y-12171528D01*
X18617258Y-12171528D02*
X18607734Y-12152481D01*
X18607734Y-12152481D02*
X18588686Y-12142957D01*
X18588686Y-12142957D02*
X18560115Y-12142957D01*
X18560115Y-12142957D02*
X18541067Y-12133433D01*
X18541067Y-12133433D02*
X18531543Y-12114386D01*
X18531543Y-12114386D02*
X18531543Y-12104862D01*
X18531543Y-12104862D02*
X18541067Y-12085814D01*
X18541067Y-12085814D02*
X18560115Y-12076290D01*
X18560115Y-12076290D02*
X18588686Y-12076290D01*
X18588686Y-12076290D02*
X18607734Y-12085814D01*
X18731543Y-12209624D02*
X18712496Y-12200100D01*
X18712496Y-12200100D02*
X18702972Y-12181052D01*
X18702972Y-12181052D02*
X18702972Y-12009624D01*
X18836305Y-12209624D02*
X18817258Y-12200100D01*
X18817258Y-12200100D02*
X18807734Y-12190576D01*
X18807734Y-12190576D02*
X18798210Y-12171528D01*
X18798210Y-12171528D02*
X18798210Y-12114386D01*
X18798210Y-12114386D02*
X18807734Y-12095338D01*
X18807734Y-12095338D02*
X18817258Y-12085814D01*
X18817258Y-12085814D02*
X18836305Y-12076290D01*
X18836305Y-12076290D02*
X18864877Y-12076290D01*
X18864877Y-12076290D02*
X18883924Y-12085814D01*
X18883924Y-12085814D02*
X18893448Y-12095338D01*
X18893448Y-12095338D02*
X18902972Y-12114386D01*
X18902972Y-12114386D02*
X18902972Y-12171528D01*
X18902972Y-12171528D02*
X18893448Y-12190576D01*
X18893448Y-12190576D02*
X18883924Y-12200100D01*
X18883924Y-12200100D02*
X18864877Y-12209624D01*
X18864877Y-12209624D02*
X18836305Y-12209624D01*
X18960115Y-12076290D02*
X19036305Y-12076290D01*
X18988686Y-12009624D02*
X18988686Y-12181052D01*
X18988686Y-12181052D02*
X18998210Y-12200100D01*
X18998210Y-12200100D02*
X19017258Y-12209624D01*
X19017258Y-12209624D02*
X19036305Y-12209624D01*
X19093448Y-12200100D02*
X19112496Y-12209624D01*
X19112496Y-12209624D02*
X19150591Y-12209624D01*
X19150591Y-12209624D02*
X19169639Y-12200100D01*
X19169639Y-12200100D02*
X19179163Y-12181052D01*
X19179163Y-12181052D02*
X19179163Y-12171528D01*
X19179163Y-12171528D02*
X19169639Y-12152481D01*
X19169639Y-12152481D02*
X19150591Y-12142957D01*
X19150591Y-12142957D02*
X19122020Y-12142957D01*
X19122020Y-12142957D02*
X19102972Y-12133433D01*
X19102972Y-12133433D02*
X19093448Y-12114386D01*
X19093448Y-12114386D02*
X19093448Y-12104862D01*
X19093448Y-12104862D02*
X19102972Y-12085814D01*
X19102972Y-12085814D02*
X19122020Y-12076290D01*
X19122020Y-12076290D02*
X19150591Y-12076290D01*
X19150591Y-12076290D02*
X19169639Y-12085814D01*
X19245829Y-12285814D02*
X19255353Y-12276290D01*
X19255353Y-12276290D02*
X19274401Y-12247719D01*
X19274401Y-12247719D02*
X19283924Y-12228671D01*
X19283924Y-12228671D02*
X19293448Y-12200100D01*
X19293448Y-12200100D02*
X19302972Y-12152481D01*
X19302972Y-12152481D02*
X19302972Y-12114386D01*
X19302972Y-12114386D02*
X19293448Y-12066767D01*
X19293448Y-12066767D02*
X19283924Y-12038195D01*
X19283924Y-12038195D02*
X19274401Y-12019148D01*
X19274401Y-12019148D02*
X19255353Y-11990576D01*
X19255353Y-11990576D02*
X19245829Y-11981052D01*
X12674400Y-12381100D02*
G75*
G03*
X12674400Y-12381100I-100000J0D01*
G01*
X12912495Y-12292671D02*
X12922019Y-12283148D01*
X12922019Y-12283148D02*
X12941067Y-12273624D01*
X12941067Y-12273624D02*
X12988686Y-12273624D01*
X12988686Y-12273624D02*
X13007733Y-12283148D01*
X13007733Y-12283148D02*
X13017257Y-12292671D01*
X13017257Y-12292671D02*
X13026781Y-12311719D01*
X13026781Y-12311719D02*
X13026781Y-12330767D01*
X13026781Y-12330767D02*
X13017257Y-12359338D01*
X13017257Y-12359338D02*
X12902971Y-12473624D01*
X12902971Y-12473624D02*
X13026781Y-12473624D01*
X13112495Y-12454576D02*
X13122019Y-12464100D01*
X13122019Y-12464100D02*
X13112495Y-12473624D01*
X13112495Y-12473624D02*
X13102971Y-12464100D01*
X13102971Y-12464100D02*
X13112495Y-12454576D01*
X13112495Y-12454576D02*
X13112495Y-12473624D01*
X13312495Y-12473624D02*
X13198209Y-12473624D01*
X13255352Y-12473624D02*
X13255352Y-12273624D01*
X13255352Y-12273624D02*
X13236305Y-12302195D01*
X13236305Y-12302195D02*
X13217257Y-12321243D01*
X13217257Y-12321243D02*
X13198209Y-12330767D01*
X13436305Y-12273624D02*
X13455352Y-12273624D01*
X13455352Y-12273624D02*
X13474400Y-12283148D01*
X13474400Y-12283148D02*
X13483924Y-12292671D01*
X13483924Y-12292671D02*
X13493448Y-12311719D01*
X13493448Y-12311719D02*
X13502971Y-12349814D01*
X13502971Y-12349814D02*
X13502971Y-12397433D01*
X13502971Y-12397433D02*
X13493448Y-12435528D01*
X13493448Y-12435528D02*
X13483924Y-12454576D01*
X13483924Y-12454576D02*
X13474400Y-12464100D01*
X13474400Y-12464100D02*
X13455352Y-12473624D01*
X13455352Y-12473624D02*
X13436305Y-12473624D01*
X13436305Y-12473624D02*
X13417257Y-12464100D01*
X13417257Y-12464100D02*
X13407733Y-12454576D01*
X13407733Y-12454576D02*
X13398209Y-12435528D01*
X13398209Y-12435528D02*
X13388686Y-12397433D01*
X13388686Y-12397433D02*
X13388686Y-12349814D01*
X13388686Y-12349814D02*
X13398209Y-12311719D01*
X13398209Y-12311719D02*
X13407733Y-12292671D01*
X13407733Y-12292671D02*
X13417257Y-12283148D01*
X13417257Y-12283148D02*
X13436305Y-12273624D01*
X13626781Y-12273624D02*
X13645829Y-12273624D01*
X13645829Y-12273624D02*
X13664876Y-12283148D01*
X13664876Y-12283148D02*
X13674400Y-12292671D01*
X13674400Y-12292671D02*
X13683924Y-12311719D01*
X13683924Y-12311719D02*
X13693448Y-12349814D01*
X13693448Y-12349814D02*
X13693448Y-12397433D01*
X13693448Y-12397433D02*
X13683924Y-12435528D01*
X13683924Y-12435528D02*
X13674400Y-12454576D01*
X13674400Y-12454576D02*
X13664876Y-12464100D01*
X13664876Y-12464100D02*
X13645829Y-12473624D01*
X13645829Y-12473624D02*
X13626781Y-12473624D01*
X13626781Y-12473624D02*
X13607733Y-12464100D01*
X13607733Y-12464100D02*
X13598209Y-12454576D01*
X13598209Y-12454576D02*
X13588686Y-12435528D01*
X13588686Y-12435528D02*
X13579162Y-12397433D01*
X13579162Y-12397433D02*
X13579162Y-12349814D01*
X13579162Y-12349814D02*
X13588686Y-12311719D01*
X13588686Y-12311719D02*
X13598209Y-12292671D01*
X13598209Y-12292671D02*
X13607733Y-12283148D01*
X13607733Y-12283148D02*
X13626781Y-12273624D01*
X13779162Y-12473624D02*
X13779162Y-12340290D01*
X13779162Y-12359338D02*
X13788686Y-12349814D01*
X13788686Y-12349814D02*
X13807733Y-12340290D01*
X13807733Y-12340290D02*
X13836305Y-12340290D01*
X13836305Y-12340290D02*
X13855352Y-12349814D01*
X13855352Y-12349814D02*
X13864876Y-12368862D01*
X13864876Y-12368862D02*
X13864876Y-12473624D01*
X13864876Y-12368862D02*
X13874400Y-12349814D01*
X13874400Y-12349814D02*
X13893448Y-12340290D01*
X13893448Y-12340290D02*
X13922019Y-12340290D01*
X13922019Y-12340290D02*
X13941067Y-12349814D01*
X13941067Y-12349814D02*
X13950590Y-12368862D01*
X13950590Y-12368862D02*
X13950590Y-12473624D01*
X14045829Y-12473624D02*
X14045829Y-12340290D01*
X14045829Y-12359338D02*
X14055352Y-12349814D01*
X14055352Y-12349814D02*
X14074400Y-12340290D01*
X14074400Y-12340290D02*
X14102971Y-12340290D01*
X14102971Y-12340290D02*
X14122019Y-12349814D01*
X14122019Y-12349814D02*
X14131543Y-12368862D01*
X14131543Y-12368862D02*
X14131543Y-12473624D01*
X14131543Y-12368862D02*
X14141067Y-12349814D01*
X14141067Y-12349814D02*
X14160114Y-12340290D01*
X14160114Y-12340290D02*
X14188686Y-12340290D01*
X14188686Y-12340290D02*
X14207733Y-12349814D01*
X14207733Y-12349814D02*
X14217257Y-12368862D01*
X14217257Y-12368862D02*
X14217257Y-12473624D01*
X14607733Y-12264100D02*
X14436305Y-12521243D01*
X14864876Y-12273624D02*
X14883924Y-12273624D01*
X14883924Y-12273624D02*
X14902972Y-12283148D01*
X14902972Y-12283148D02*
X14912495Y-12292671D01*
X14912495Y-12292671D02*
X14922019Y-12311719D01*
X14922019Y-12311719D02*
X14931543Y-12349814D01*
X14931543Y-12349814D02*
X14931543Y-12397433D01*
X14931543Y-12397433D02*
X14922019Y-12435528D01*
X14922019Y-12435528D02*
X14912495Y-12454576D01*
X14912495Y-12454576D02*
X14902972Y-12464100D01*
X14902972Y-12464100D02*
X14883924Y-12473624D01*
X14883924Y-12473624D02*
X14864876Y-12473624D01*
X14864876Y-12473624D02*
X14845829Y-12464100D01*
X14845829Y-12464100D02*
X14836305Y-12454576D01*
X14836305Y-12454576D02*
X14826781Y-12435528D01*
X14826781Y-12435528D02*
X14817257Y-12397433D01*
X14817257Y-12397433D02*
X14817257Y-12349814D01*
X14817257Y-12349814D02*
X14826781Y-12311719D01*
X14826781Y-12311719D02*
X14836305Y-12292671D01*
X14836305Y-12292671D02*
X14845829Y-12283148D01*
X14845829Y-12283148D02*
X14864876Y-12273624D01*
X15017257Y-12454576D02*
X15026781Y-12464100D01*
X15026781Y-12464100D02*
X15017257Y-12473624D01*
X15017257Y-12473624D02*
X15007733Y-12464100D01*
X15007733Y-12464100D02*
X15017257Y-12454576D01*
X15017257Y-12454576D02*
X15017257Y-12473624D01*
X15150591Y-12273624D02*
X15169638Y-12273624D01*
X15169638Y-12273624D02*
X15188686Y-12283148D01*
X15188686Y-12283148D02*
X15198210Y-12292671D01*
X15198210Y-12292671D02*
X15207733Y-12311719D01*
X15207733Y-12311719D02*
X15217257Y-12349814D01*
X15217257Y-12349814D02*
X15217257Y-12397433D01*
X15217257Y-12397433D02*
X15207733Y-12435528D01*
X15207733Y-12435528D02*
X15198210Y-12454576D01*
X15198210Y-12454576D02*
X15188686Y-12464100D01*
X15188686Y-12464100D02*
X15169638Y-12473624D01*
X15169638Y-12473624D02*
X15150591Y-12473624D01*
X15150591Y-12473624D02*
X15131543Y-12464100D01*
X15131543Y-12464100D02*
X15122019Y-12454576D01*
X15122019Y-12454576D02*
X15112495Y-12435528D01*
X15112495Y-12435528D02*
X15102972Y-12397433D01*
X15102972Y-12397433D02*
X15102972Y-12349814D01*
X15102972Y-12349814D02*
X15112495Y-12311719D01*
X15112495Y-12311719D02*
X15122019Y-12292671D01*
X15122019Y-12292671D02*
X15131543Y-12283148D01*
X15131543Y-12283148D02*
X15150591Y-12273624D01*
X15331543Y-12359338D02*
X15312495Y-12349814D01*
X15312495Y-12349814D02*
X15302972Y-12340290D01*
X15302972Y-12340290D02*
X15293448Y-12321243D01*
X15293448Y-12321243D02*
X15293448Y-12311719D01*
X15293448Y-12311719D02*
X15302972Y-12292671D01*
X15302972Y-12292671D02*
X15312495Y-12283148D01*
X15312495Y-12283148D02*
X15331543Y-12273624D01*
X15331543Y-12273624D02*
X15369638Y-12273624D01*
X15369638Y-12273624D02*
X15388686Y-12283148D01*
X15388686Y-12283148D02*
X15398210Y-12292671D01*
X15398210Y-12292671D02*
X15407733Y-12311719D01*
X15407733Y-12311719D02*
X15407733Y-12321243D01*
X15407733Y-12321243D02*
X15398210Y-12340290D01*
X15398210Y-12340290D02*
X15388686Y-12349814D01*
X15388686Y-12349814D02*
X15369638Y-12359338D01*
X15369638Y-12359338D02*
X15331543Y-12359338D01*
X15331543Y-12359338D02*
X15312495Y-12368862D01*
X15312495Y-12368862D02*
X15302972Y-12378386D01*
X15302972Y-12378386D02*
X15293448Y-12397433D01*
X15293448Y-12397433D02*
X15293448Y-12435528D01*
X15293448Y-12435528D02*
X15302972Y-12454576D01*
X15302972Y-12454576D02*
X15312495Y-12464100D01*
X15312495Y-12464100D02*
X15331543Y-12473624D01*
X15331543Y-12473624D02*
X15369638Y-12473624D01*
X15369638Y-12473624D02*
X15388686Y-12464100D01*
X15388686Y-12464100D02*
X15398210Y-12454576D01*
X15398210Y-12454576D02*
X15407733Y-12435528D01*
X15407733Y-12435528D02*
X15407733Y-12397433D01*
X15407733Y-12397433D02*
X15398210Y-12378386D01*
X15398210Y-12378386D02*
X15388686Y-12368862D01*
X15388686Y-12368862D02*
X15369638Y-12359338D01*
X15483924Y-12292671D02*
X15493448Y-12283148D01*
X15493448Y-12283148D02*
X15512495Y-12273624D01*
X15512495Y-12273624D02*
X15560114Y-12273624D01*
X15560114Y-12273624D02*
X15579162Y-12283148D01*
X15579162Y-12283148D02*
X15588686Y-12292671D01*
X15588686Y-12292671D02*
X15598210Y-12311719D01*
X15598210Y-12311719D02*
X15598210Y-12330767D01*
X15598210Y-12330767D02*
X15588686Y-12359338D01*
X15588686Y-12359338D02*
X15474400Y-12473624D01*
X15474400Y-12473624D02*
X15598210Y-12473624D01*
X15664876Y-12273624D02*
X15798210Y-12273624D01*
X15798210Y-12273624D02*
X15712495Y-12473624D01*
X15864876Y-12273624D02*
X15864876Y-12311719D01*
X15941067Y-12273624D02*
X15941067Y-12311719D01*
X16236305Y-12549814D02*
X16226781Y-12540290D01*
X16226781Y-12540290D02*
X16207734Y-12511719D01*
X16207734Y-12511719D02*
X16198210Y-12492671D01*
X16198210Y-12492671D02*
X16188686Y-12464100D01*
X16188686Y-12464100D02*
X16179162Y-12416481D01*
X16179162Y-12416481D02*
X16179162Y-12378386D01*
X16179162Y-12378386D02*
X16188686Y-12330767D01*
X16188686Y-12330767D02*
X16198210Y-12302195D01*
X16198210Y-12302195D02*
X16207734Y-12283148D01*
X16207734Y-12283148D02*
X16226781Y-12254576D01*
X16226781Y-12254576D02*
X16236305Y-12245052D01*
X16417257Y-12473624D02*
X16302972Y-12473624D01*
X16360114Y-12473624D02*
X16360114Y-12273624D01*
X16360114Y-12273624D02*
X16341067Y-12302195D01*
X16341067Y-12302195D02*
X16322019Y-12321243D01*
X16322019Y-12321243D02*
X16302972Y-12330767D01*
X16655353Y-12473624D02*
X16655353Y-12273624D01*
X16741067Y-12473624D02*
X16741067Y-12368862D01*
X16741067Y-12368862D02*
X16731543Y-12349814D01*
X16731543Y-12349814D02*
X16712496Y-12340290D01*
X16712496Y-12340290D02*
X16683924Y-12340290D01*
X16683924Y-12340290D02*
X16664876Y-12349814D01*
X16664876Y-12349814D02*
X16655353Y-12359338D01*
X16864877Y-12473624D02*
X16845829Y-12464100D01*
X16845829Y-12464100D02*
X16836305Y-12454576D01*
X16836305Y-12454576D02*
X16826781Y-12435528D01*
X16826781Y-12435528D02*
X16826781Y-12378386D01*
X16826781Y-12378386D02*
X16836305Y-12359338D01*
X16836305Y-12359338D02*
X16845829Y-12349814D01*
X16845829Y-12349814D02*
X16864877Y-12340290D01*
X16864877Y-12340290D02*
X16893448Y-12340290D01*
X16893448Y-12340290D02*
X16912496Y-12349814D01*
X16912496Y-12349814D02*
X16922019Y-12359338D01*
X16922019Y-12359338D02*
X16931543Y-12378386D01*
X16931543Y-12378386D02*
X16931543Y-12435528D01*
X16931543Y-12435528D02*
X16922019Y-12454576D01*
X16922019Y-12454576D02*
X16912496Y-12464100D01*
X16912496Y-12464100D02*
X16893448Y-12473624D01*
X16893448Y-12473624D02*
X16864877Y-12473624D01*
X17045829Y-12473624D02*
X17026781Y-12464100D01*
X17026781Y-12464100D02*
X17017258Y-12445052D01*
X17017258Y-12445052D02*
X17017258Y-12273624D01*
X17198210Y-12464100D02*
X17179162Y-12473624D01*
X17179162Y-12473624D02*
X17141067Y-12473624D01*
X17141067Y-12473624D02*
X17122019Y-12464100D01*
X17122019Y-12464100D02*
X17112496Y-12445052D01*
X17112496Y-12445052D02*
X17112496Y-12368862D01*
X17112496Y-12368862D02*
X17122019Y-12349814D01*
X17122019Y-12349814D02*
X17141067Y-12340290D01*
X17141067Y-12340290D02*
X17179162Y-12340290D01*
X17179162Y-12340290D02*
X17198210Y-12349814D01*
X17198210Y-12349814D02*
X17207734Y-12368862D01*
X17207734Y-12368862D02*
X17207734Y-12387909D01*
X17207734Y-12387909D02*
X17112496Y-12406957D01*
X17274400Y-12549814D02*
X17283924Y-12540290D01*
X17283924Y-12540290D02*
X17302972Y-12511719D01*
X17302972Y-12511719D02*
X17312496Y-12492671D01*
X17312496Y-12492671D02*
X17322019Y-12464100D01*
X17322019Y-12464100D02*
X17331543Y-12416481D01*
X17331543Y-12416481D02*
X17331543Y-12378386D01*
X17331543Y-12378386D02*
X17322019Y-12330767D01*
X17322019Y-12330767D02*
X17312496Y-12302195D01*
X17312496Y-12302195D02*
X17302972Y-12283148D01*
X17302972Y-12283148D02*
X17283924Y-12254576D01*
X17283924Y-12254576D02*
X17274400Y-12245052D01*
X17636305Y-12549814D02*
X17626781Y-12540290D01*
X17626781Y-12540290D02*
X17607734Y-12511719D01*
X17607734Y-12511719D02*
X17598210Y-12492671D01*
X17598210Y-12492671D02*
X17588686Y-12464100D01*
X17588686Y-12464100D02*
X17579162Y-12416481D01*
X17579162Y-12416481D02*
X17579162Y-12378386D01*
X17579162Y-12378386D02*
X17588686Y-12330767D01*
X17588686Y-12330767D02*
X17598210Y-12302195D01*
X17598210Y-12302195D02*
X17607734Y-12283148D01*
X17607734Y-12283148D02*
X17626781Y-12254576D01*
X17626781Y-12254576D02*
X17636305Y-12245052D01*
X17712496Y-12340290D02*
X17712496Y-12473624D01*
X17712496Y-12359338D02*
X17722019Y-12349814D01*
X17722019Y-12349814D02*
X17741067Y-12340290D01*
X17741067Y-12340290D02*
X17769639Y-12340290D01*
X17769639Y-12340290D02*
X17788686Y-12349814D01*
X17788686Y-12349814D02*
X17798210Y-12368862D01*
X17798210Y-12368862D02*
X17798210Y-12473624D01*
X17922019Y-12473624D02*
X17902972Y-12464100D01*
X17902972Y-12464100D02*
X17893448Y-12454576D01*
X17893448Y-12454576D02*
X17883924Y-12435528D01*
X17883924Y-12435528D02*
X17883924Y-12378386D01*
X17883924Y-12378386D02*
X17893448Y-12359338D01*
X17893448Y-12359338D02*
X17902972Y-12349814D01*
X17902972Y-12349814D02*
X17922019Y-12340290D01*
X17922019Y-12340290D02*
X17950591Y-12340290D01*
X17950591Y-12340290D02*
X17969639Y-12349814D01*
X17969639Y-12349814D02*
X17979162Y-12359338D01*
X17979162Y-12359338D02*
X17988686Y-12378386D01*
X17988686Y-12378386D02*
X17988686Y-12435528D01*
X17988686Y-12435528D02*
X17979162Y-12454576D01*
X17979162Y-12454576D02*
X17969639Y-12464100D01*
X17969639Y-12464100D02*
X17950591Y-12473624D01*
X17950591Y-12473624D02*
X17922019Y-12473624D01*
X18045829Y-12340290D02*
X18122019Y-12340290D01*
X18074400Y-12273624D02*
X18074400Y-12445052D01*
X18074400Y-12445052D02*
X18083924Y-12464100D01*
X18083924Y-12464100D02*
X18102972Y-12473624D01*
X18102972Y-12473624D02*
X18122019Y-12473624D01*
X18341067Y-12340290D02*
X18341067Y-12540290D01*
X18341067Y-12349814D02*
X18360115Y-12340290D01*
X18360115Y-12340290D02*
X18398210Y-12340290D01*
X18398210Y-12340290D02*
X18417258Y-12349814D01*
X18417258Y-12349814D02*
X18426781Y-12359338D01*
X18426781Y-12359338D02*
X18436305Y-12378386D01*
X18436305Y-12378386D02*
X18436305Y-12435528D01*
X18436305Y-12435528D02*
X18426781Y-12454576D01*
X18426781Y-12454576D02*
X18417258Y-12464100D01*
X18417258Y-12464100D02*
X18398210Y-12473624D01*
X18398210Y-12473624D02*
X18360115Y-12473624D01*
X18360115Y-12473624D02*
X18341067Y-12464100D01*
X18550591Y-12473624D02*
X18531543Y-12464100D01*
X18531543Y-12464100D02*
X18522020Y-12445052D01*
X18522020Y-12445052D02*
X18522020Y-12273624D01*
X18712496Y-12473624D02*
X18712496Y-12368862D01*
X18712496Y-12368862D02*
X18702972Y-12349814D01*
X18702972Y-12349814D02*
X18683924Y-12340290D01*
X18683924Y-12340290D02*
X18645829Y-12340290D01*
X18645829Y-12340290D02*
X18626781Y-12349814D01*
X18712496Y-12464100D02*
X18693448Y-12473624D01*
X18693448Y-12473624D02*
X18645829Y-12473624D01*
X18645829Y-12473624D02*
X18626781Y-12464100D01*
X18626781Y-12464100D02*
X18617258Y-12445052D01*
X18617258Y-12445052D02*
X18617258Y-12426005D01*
X18617258Y-12426005D02*
X18626781Y-12406957D01*
X18626781Y-12406957D02*
X18645829Y-12397433D01*
X18645829Y-12397433D02*
X18693448Y-12397433D01*
X18693448Y-12397433D02*
X18712496Y-12387909D01*
X18779162Y-12340290D02*
X18855353Y-12340290D01*
X18807734Y-12273624D02*
X18807734Y-12445052D01*
X18807734Y-12445052D02*
X18817258Y-12464100D01*
X18817258Y-12464100D02*
X18836305Y-12473624D01*
X18836305Y-12473624D02*
X18855353Y-12473624D01*
X18998210Y-12464100D02*
X18979162Y-12473624D01*
X18979162Y-12473624D02*
X18941067Y-12473624D01*
X18941067Y-12473624D02*
X18922020Y-12464100D01*
X18922020Y-12464100D02*
X18912496Y-12445052D01*
X18912496Y-12445052D02*
X18912496Y-12368862D01*
X18912496Y-12368862D02*
X18922020Y-12349814D01*
X18922020Y-12349814D02*
X18941067Y-12340290D01*
X18941067Y-12340290D02*
X18979162Y-12340290D01*
X18979162Y-12340290D02*
X18998210Y-12349814D01*
X18998210Y-12349814D02*
X19007734Y-12368862D01*
X19007734Y-12368862D02*
X19007734Y-12387909D01*
X19007734Y-12387909D02*
X18912496Y-12406957D01*
X19179162Y-12473624D02*
X19179162Y-12273624D01*
X19179162Y-12464100D02*
X19160115Y-12473624D01*
X19160115Y-12473624D02*
X19122020Y-12473624D01*
X19122020Y-12473624D02*
X19102972Y-12464100D01*
X19102972Y-12464100D02*
X19093448Y-12454576D01*
X19093448Y-12454576D02*
X19083924Y-12435528D01*
X19083924Y-12435528D02*
X19083924Y-12378386D01*
X19083924Y-12378386D02*
X19093448Y-12359338D01*
X19093448Y-12359338D02*
X19102972Y-12349814D01*
X19102972Y-12349814D02*
X19122020Y-12340290D01*
X19122020Y-12340290D02*
X19160115Y-12340290D01*
X19160115Y-12340290D02*
X19179162Y-12349814D01*
X19255353Y-12549814D02*
X19264877Y-12540290D01*
X19264877Y-12540290D02*
X19283924Y-12511719D01*
X19283924Y-12511719D02*
X19293448Y-12492671D01*
X19293448Y-12492671D02*
X19302972Y-12464100D01*
X19302972Y-12464100D02*
X19312496Y-12416481D01*
X19312496Y-12416481D02*
X19312496Y-12378386D01*
X19312496Y-12378386D02*
X19302972Y-12330767D01*
X19302972Y-12330767D02*
X19293448Y-12302195D01*
X19293448Y-12302195D02*
X19283924Y-12283148D01*
X19283924Y-12283148D02*
X19264877Y-12254576D01*
X19264877Y-12254576D02*
X19255353Y-12245052D01*
M02*
