0
SECTION
2
HEADER
9
$INSUNITS
70
4
9
$ACADVER
1
AC1014
9
$HANDSEED
5
FFFF
0
ENDSEC
0
SECTION
2
TABLES
0
TABLE
2
VPORT
5
8
100
AcDbSymbolTable
0
ENDTAB
0
TABLE
2
LTYPE
5
5
100
AcDbSymbolTable
0
LTYPE
5
14
100
AcDbSymbolTableRecord
100
AcDbLinetypeTableRecord
2
BYBLOCK
70
0
0
LTYPE
5
15
100
AcDbSymbolTableRecord
100
AcDbLinetypeTableRecord
2
BYLAYER
70
0
0
ENDTAB
0
TABLE
2
LAYER
5
2
100
AcDbSymbolTable
70
2
0
LAYER
5
50
100
AcDbSymbolTableRecord
100
AcDbLayerTableRecord
2
0
70
0
6
CONTINUOUS
0
ENDTAB
0
TABLE
2
STYLE
5
3
100
AcDbSymbolTable
70
1
0
STYLE
5
11
100
AcDbSymbolTableRecord
100
AcDbTextStyleTableRecord
2
STANDARD
70
0
0
ENDTAB
0
TABLE
2
VIEW
5
6
100
AcDbSymbolTable
70
0
0
ENDTAB
0
TABLE
2
UCS
5
7
100
AcDbSymbolTable
70
0
0
ENDTAB
0
TABLE
2
APPID
5
9
100
AcDbSymbolTable
70
2
0
APPID
5
12
100
AcDbSymbolTableRecord
100
AcDbRegAppTableRecord
2
ACAD
70
0
0
ENDTAB
0
TABLE
2
DIMSTYLE
5
A
100
AcDbSymbolTable
70
1
0
ENDTAB
0
TABLE
2
BLOCK_RECORD
5
1
100
AcDbSymbolTable
70
1
0
BLOCK_RECORD
5
1F
100
AcDbSymbolTableRecord
100
AcDbBlockTableRecord
2
*MODEL_SPACE
0
BLOCK_RECORD
5
1B
100
AcDbSymbolTableRecord
100
AcDbBlockTableRecord
2
*PAPER_SPACE
0
ENDTAB
0
ENDSEC
0
SECTION
2
BLOCKS
0
BLOCK
5
20
100
AcDbEntity
100
AcDbBlockBegin
2
*MODEL_SPACE
0
ENDBLK
5
21
100
AcDbEntity
100
AcDbBlockEnd
0
BLOCK
5
1C
100
AcDbEntity
100
AcDbBlockBegin
2
*PAPER_SPACE
0
ENDBLK
5
1D
100
AcDbEntity
100
AcDbBlockEnd
0
ENDSEC
0
SECTION
2
ENTITIES
0
CIRCLE
5
100
100
AcDbEntity
8
0
100
AcDbCircle
10
-35.000000521540642
20
-59.500000886619091
30
0
40
1.7500000000000027
210
0
220
0
230
1
0
CIRCLE
5
101
100
AcDbEntity
8
0
100
AcDbCircle
10
-35
20
31
30
0
40
1.749999999999998
210
0
220
0
230
1
0
CIRCLE
5
102
100
AcDbEntity
8
0
100
AcDbCircle
10
35.000000521540642
20
-59.500000886619091
30
0
40
1.749999999999998
210
0
220
0
230
1
0
CIRCLE
5
103
100
AcDbEntity
8
0
100
AcDbCircle
10
35.000000521540642
20
31
30
0
40
1.749999999999998
210
0
220
0
230
1
0
LWPOLYLINE
5
104
100
AcDbEntity
8
0
100
AcDbPolyline
90
66
70
1
43
0.0
10
-33.246767428176554
20
-40.177809845132458
42
0.43065815766631388
10
-33.327866337067
20
-37.272688733422441
42
-0.027915845265838238
10
-37.272688850007583
20
-33.327866206682366
42
0.43065815865215118
10
-40.177809966138156
20
-33.24676729233375
10
-42.405388246164875
20
-35.474345571595521
42
-0.45121669989716162
10
-45.398686533765485
20
-35.287524134498724
42
-0.13482530629381806
10
-57.053766735425896
20
-7.1496713094754938
42
-0.45121669895350308
10
-55.069287922025609
20
-4.9009870937211417
10
-51.919016495712469
20
-4.9009870937211319
42
0.43065815766631482
10
-49.922131245877388
20
-2.7894106670395624
42
-0.027915845265838572
10
-49.922131236119668
20
2.7894108416735013
42
0.43065815865215251
10
-51.91901648522105
20
4.9009872753404453
10
-55.069287899541671
20
4.90098727588133
42
-0.45121669989716146
10
-57.053766711775964
20
7.1496714981999876
42
-0.12589369048246146
10
-46.61004692584369
20
33.671258130705162
42
-0.44359477791386565
10
-43.662757410896219
20
33.997260290505068
10
-37.3206233585368
20
28.379941369393929
42
0.99999999999999989
10
-32.6793766414632
20
33.620058630606074
10
-35.016971024289482
20
35.690499300010785
42
-0.011573497621559879
10
-33.327866206682359
20
37.27268885000759
42
0.43065815865214968
10
-33.246767292333757
20
40.17780996613817
10
-35.474345571595542
20
42.405388246164868
42
-0.45121669989716068
10
-35.287524134498732
20
45.398686533765478
42
-0.13482530629381828
10
-7.1496713094754574
20
57.053766735425917
42
-0.45121669895349903
10
-4.9009870937211311
20
55.069287922025616
10
-4.9009870937211346
20
51.919016495712469
42
0.43065815766631482
10
-2.7894106670396432
20
49.922131245877381
42
-0.027915845265839016
10
2.7894108416735106
20
49.922131236119668
42
0.43065815865215062
10
4.9009872753404418
20
51.91901648522105
10
4.9009872758813389
20
55.069287899541671
42
-0.45121669989716157
10
7.1496714982000054
20
57.05376671177595
42
-0.13482530629381817
10
35.287524284670155
20
45.398686417040118
42
-0.45121669895349931
10
35.474345716300789
20
42.4053881332567
10
33.246767428176554
20
40.177809845132472
42
0.43065815766631105
10
33.327866337066951
20
37.272688733422498
42
-0.011573498334723218
10
35.016971250938354
20
35.690499077639089
10
32.679377182381913
20
33.620058647769511
42
0.9999999925494194
10
37.320623821657449
20
28.379941317650506
10
45.278426425535187
20
35.428280661770856
42
-0.023154256606897308
10
45.398686533765513
20
35.28752413449871
42
-0.13482530629381806
10
57.05376673542591
20
7.1496713094754707
42
-0.45121669895350219
10
55.069287922025616
20
4.9009870937211248
10
51.919016495712469
20
4.9009870937211248
42
0.43065815766631482
10
49.922131245877381
20
2.7894106670396344
42
-0.027915845265839016
10
49.922131236119668
20
-2.7894108416735195
42
0.43065815865215085
10
51.91901648522105
20
-4.9009872753404524
10
55.069287899541671
20
-4.9009872758813442
42
-0.45121669989716179
10
57.053766711775964
20
-7.1496714981999743
42
-0.13482530629381806
10
45.398686417040153
20
-35.287524284670113
42
-0.45121669895350264
10
42.405388133256714
20
-35.474345716300796
10
40.177809845132472
20
-33.246767428176554
42
0.43065815766631388
10
37.272688733422427
20
-33.327866337067007
42
-0.027915845265838238
10
33.327866206682351
20
-37.27268885000759
42
0.43065815865215357
10
33.24676729233375
20
-40.17780996613817
10
35.474345571595521
20
-42.405388246164875
42
-0.45121669989716118
10
35.287524134498732
20
-45.398686533765506
42
-0.13482530629381828
10
7.1496713094754423
20
-57.053766735425917
42
-0.4512166989534977
10
4.9009870937211257
20
-55.069287922025616
10
4.9009870937211284
20
-51.919016495712469
42
0.43065815766631477
10
2.7894106670396384
20
-49.922131245877381
42
-0.027915845265839016
10
-2.7894108416735159
20
-49.922131236119668
42
0.43065815865215068
10
-4.900987275340448
20
-51.91901648522105
10
-4.9009872758813442
20
-55.069287899541671
42
-0.45121669989716179
10
-7.1496714981999876
20
-57.053766711775964
42
-0.13482530629381828
10
-35.287524284670162
20
-45.398686417040118
42
-0.45121669895349814
10
-35.474345716300803
20
-42.4053881332567
0
LWPOLYLINE
5
105
100
AcDbEntity
8
0
100
AcDbPolyline
90
84
70
1
43
0.0
10
42.509566493037838
20
-40.246825097029422
10
42.966771987313102
20
-40.704030303321318
10
43.5426900860122
20
-41.27994840202075
42
0.18508538601526239
10
59.978660943400968
20
-1.6000723222874624
10
58.517603696497289
20
-1.6000723222874513
42
-0.0081221205907063051
10
58.434751427255364
20
-3.4999999216772193
10
51.380931089177714
20
-3.499999921768925
42
0.03401990882671798
10
51.380931089177707
20
3.4999999217689117
10
58.434751427249871
20
3.4999999217691702
42
-0.0081224305058851323
10
58.517605679865774
20
1.5999997851892223
10
59.164191687026566
20
1.5999999888239875
10
59.97866287302314
20
1.5999999888238032
42
0.18508538601526264
10
43.542739869045874
20
41.279895890089193
10
42.509616382058582
20
40.246772403101843
42
-0.0081221205907063051
10
43.794482669932904
20
38.84473531239221
10
38.806678475671447
20
33.856931118001064
42
0.03401990882671798
10
33.856931118001071
20
38.806678475671447
10
38.844735312323621
20
43.794482669993748
42
-0.008122430505883356
10
40.246825097029202
20
42.509566493037816
10
40.704030303321346
20
42.966771987313088
10
41.27994840202075
20
43.5426900860122
42
0.18508538601526245
10
1.6000723222874447
20
59.978660943400968
10
1.6000723222877751
20
58.517603696497275
42
-0.0081221205907046398
10
3.4999999216771531
20
58.434751427255364
10
3.4999999217689131
20
51.380931089177714
42
0.03401990882671798
10
-3.4999999217689219
20
51.380931089177707
10
-3.4999999217683775
20
58.4347514272499
42
-0.0081224305058816906
10
-1.5999997851892349
20
58.517605679865767
10
-1.5999999888238727
20
59.164191687026502
10
-1.5999999888238314
20
59.97866287302314
42
0.18508538601526245
10
-41.2798958900892
20
43.542739869045874
10
-40.246772403102156
20
42.509616382058304
42
-0.0081221205907079704
10
-38.844735312392224
20
43.794482669932897
10
-33.856931118001079
20
38.806678475671433
42
0.034019908826718188
10
-38.806678475671454
20
33.856931118001057
10
-43.794482669993911
20
38.844735312323408
42
-0.0081224305058851323
10
-42.50956649303771
20
40.246825097029308
10
-42.966771987313095
20
40.704030303321304
10
-43.5426900860122
20
41.279948402020743
42
0.18508538601526234
10
-59.978660943400968
20
1.6000723222874624
10
-58.517603696497289
20
1.6000723222878319
42
-0.0081221205907046398
10
-58.434751427255371
20
3.4999999216772104
10
-51.380931089177722
20
3.4999999217689028
42
0.03401990882671798
10
-51.380931089177714
20
-3.4999999217688833
10
-58.434751427249907
20
-3.4999999217683344
42
-0.0081224305058816906
10
-58.517605679865767
20
-1.5999997851891918
10
-59.164191687026516
20
-1.5999999888239946
10
-59.97866287302314
20
-1.5999999888238106
42
0.18508538601526259
10
-43.542739869045874
20
-41.279895890089193
10
-42.509616382058582
20
-40.246772403101843
42
-0.0081221205907063051
10
-43.794482669932904
20
-38.84473531239221
10
-38.806678475671447
20
-33.856931118001071
42
0.034019908826717779
10
-33.856931118001071
20
-38.806678475671447
10
-38.844735312323401
20
-43.794482669993926
42
-0.0081224305058851323
10
-40.246825097029301
20
-42.509566493037731
10
-40.704030303321304
20
-42.966771987313095
10
-41.27994840202075
20
-43.5426900860122
42
0.034558204424593196
10
-34.888987114747991
20
-48.813508152016183
42
-0.38842982797610726
10
-34.328084921590673
20
-51.454665343543546
10
-38.016770274592837
20
-57.725430443647213
42
0.99999999999999989
10
-31.98323076848844
20
-61.27457132959097
10
-28.294545415486279
20
-55.00380622948731
42
-0.38842982797610043
10
-25.713558372745879
20
-54.210819176723319
42
0.10443384978320998
10
-1.6000723222874491
20
-59.978660943400961
10
-1.6000723222874442
20
-58.517603696497289
42
-0.0081221205907063051
10
-3.4999999216772117
20
-58.434751427255364
10
-3.4999999217689197
20
-51.380931089177714
42
0.03401990882671798
10
3.4999999217689171
20
-51.380931089177707
10
3.4999999217683717
20
-58.4347514272499
42
-0.0081224305058816906
10
1.5999997851892289
20
-58.517605679865767
10
1.5999999888239995
20
-59.164191687026531
10
1.5999999888240846
20
-59.978662873023126
42
0.1044341545681249
10
25.713558372745876
20
-54.210819176723312
42
-0.38842982797610071
10
28.294545415486287
20
-55.003806229487296
10
31.983230768488447
20
-61.27457132959097
42
0.99999999999999989
10
38.016770274592837
20
-57.725430443647227
10
34.32808492159068
20
-51.454665343543518
42
-0.38842982797609749
10
34.888987114747962
20
-48.813508152016212
42
0.03455790256787384
10
41.2798958900892
20
-43.54273986904586
10
40.246772403101843
20
-42.509616382058582
42
-0.0081221205907063051
10
38.84473531239221
20
-43.794482669932904
10
33.856931118001079
20
-38.806678475671447
42
0.034019908826718598
10
38.806678475671454
20
-33.856931118001064
10
43.794482669994181
20
-38.844735312323373
42
-0.0081224305058860205
0
ENDSEC
0
SECTION
2
OBJECTS
0
DICTIONARY
5
C
100
AcDbDictionary
3
ACAD_GROUP
350
D
3
ACAD_MLINESTYLE
350
17
0
DICTIONARY
5
D
100
AcDbDictionary
0
DICTIONARY
5
1A
330
C
100
AcDbDictionary
0
DICTIONARY
5
17
100
AcDbDictionary
0
ENDSEC
0
EOF
