%TF.GenerationSoftware,KiCad,Pcbnew,(6.0.11)*%
%TF.CreationDate,2024-01-27T16:05:06+09:00*%
%TF.ProjectId,engel_line_board_v2,656e6765-6c5f-46c6-996e-655f626f6172,rev?*%
%TF.SameCoordinates,Original*%
%TF.FileFunction,Legend,Bot*%
%TF.FilePolarity,Positive*%
%FSLAX46Y46*%
G04 Gerber Fmt 4.6, Leading zero omitted, Abs format (unit mm)*
G04 Created by KiCad (PCBNEW (6.0.11)) date 2024-01-27 16:05:06*
%MOMM*%
%LPD*%
G01*
G04 APERTURE LIST*
%ADD10C,0.200000*%
%ADD11C,0.150000*%
%ADD12C,0.300000*%
%ADD13C,0.120000*%
%ADD14C,0.010000*%
G04 APERTURE END LIST*
D10*
X187706000Y-84659600D02*
X191770000Y-87199600D01*
X191770000Y-84659600D02*
X187706000Y-87199600D01*
D11*
X243839904Y-86296380D02*
X243268476Y-86296380D01*
X243554190Y-87296380D02*
X243554190Y-86296380D01*
X243030380Y-86296380D02*
X242363714Y-87296380D01*
X242363714Y-86296380D02*
X243030380Y-87296380D01*
D12*
X195230000Y-81635428D02*
X194630000Y-81635428D01*
X194372857Y-82578285D02*
X195230000Y-82578285D01*
X195230000Y-80778285D01*
X194372857Y-80778285D01*
X193601428Y-81378285D02*
X193601428Y-82578285D01*
X193601428Y-81549714D02*
X193515714Y-81464000D01*
X193344285Y-81378285D01*
X193087142Y-81378285D01*
X192915714Y-81464000D01*
X192830000Y-81635428D01*
X192830000Y-82578285D01*
X191201428Y-81378285D02*
X191201428Y-82835428D01*
X191287142Y-83006857D01*
X191372857Y-83092571D01*
X191544285Y-83178285D01*
X191801428Y-83178285D01*
X191972857Y-83092571D01*
X191201428Y-82492571D02*
X191372857Y-82578285D01*
X191715714Y-82578285D01*
X191887142Y-82492571D01*
X191972857Y-82406857D01*
X192058571Y-82235428D01*
X192058571Y-81721142D01*
X191972857Y-81549714D01*
X191887142Y-81464000D01*
X191715714Y-81378285D01*
X191372857Y-81378285D01*
X191201428Y-81464000D01*
X189658571Y-82492571D02*
X189830000Y-82578285D01*
X190172857Y-82578285D01*
X190344285Y-82492571D01*
X190430000Y-82321142D01*
X190430000Y-81635428D01*
X190344285Y-81464000D01*
X190172857Y-81378285D01*
X189830000Y-81378285D01*
X189658571Y-81464000D01*
X189572857Y-81635428D01*
X189572857Y-81806857D01*
X190430000Y-81978285D01*
X188544285Y-82578285D02*
X188715714Y-82492571D01*
X188801428Y-82321142D01*
X188801428Y-80778285D01*
X187001428Y-82578285D02*
X187858571Y-82578285D01*
X187858571Y-80778285D01*
X186401428Y-82578285D02*
X186401428Y-81378285D01*
X186401428Y-80778285D02*
X186487142Y-80864000D01*
X186401428Y-80949714D01*
X186315714Y-80864000D01*
X186401428Y-80778285D01*
X186401428Y-80949714D01*
X185544285Y-81378285D02*
X185544285Y-82578285D01*
X185544285Y-81549714D02*
X185458571Y-81464000D01*
X185287142Y-81378285D01*
X185030000Y-81378285D01*
X184858571Y-81464000D01*
X184772857Y-81635428D01*
X184772857Y-82578285D01*
X183230000Y-82492571D02*
X183401428Y-82578285D01*
X183744285Y-82578285D01*
X183915714Y-82492571D01*
X184001428Y-82321142D01*
X184001428Y-81635428D01*
X183915714Y-81464000D01*
X183744285Y-81378285D01*
X183401428Y-81378285D01*
X183230000Y-81464000D01*
X183144285Y-81635428D01*
X183144285Y-81806857D01*
X184001428Y-81978285D01*
D11*
X244144704Y-81264000D02*
X244239942Y-81216380D01*
X244382800Y-81216380D01*
X244525657Y-81264000D01*
X244620895Y-81359238D01*
X244668514Y-81454476D01*
X244716133Y-81644952D01*
X244716133Y-81787809D01*
X244668514Y-81978285D01*
X244620895Y-82073523D01*
X244525657Y-82168761D01*
X244382800Y-82216380D01*
X244287561Y-82216380D01*
X244144704Y-82168761D01*
X244097085Y-82121142D01*
X244097085Y-81787809D01*
X244287561Y-81787809D01*
X243668514Y-82216380D02*
X243668514Y-81216380D01*
X243097085Y-82216380D01*
X243097085Y-81216380D01*
X242620895Y-82216380D02*
X242620895Y-81216380D01*
X242382800Y-81216380D01*
X242239942Y-81264000D01*
X242144704Y-81359238D01*
X242097085Y-81454476D01*
X242049466Y-81644952D01*
X242049466Y-81787809D01*
X242097085Y-81978285D01*
X242144704Y-82073523D01*
X242239942Y-82168761D01*
X242382800Y-82216380D01*
X242620895Y-82216380D01*
X243244666Y-89836380D02*
X243578000Y-89360190D01*
X243816095Y-89836380D02*
X243816095Y-88836380D01*
X243435142Y-88836380D01*
X243339904Y-88884000D01*
X243292285Y-88931619D01*
X243244666Y-89026857D01*
X243244666Y-89169714D01*
X243292285Y-89264952D01*
X243339904Y-89312571D01*
X243435142Y-89360190D01*
X243816095Y-89360190D01*
X242911333Y-88836380D02*
X242244666Y-89836380D01*
X242244666Y-88836380D02*
X242911333Y-89836380D01*
D12*
X197765714Y-77171071D02*
X197765714Y-75671071D01*
X197265714Y-76742500D01*
X196765714Y-75671071D01*
X196765714Y-77171071D01*
X195408571Y-76171071D02*
X195408571Y-77171071D01*
X196051428Y-76171071D02*
X196051428Y-76956785D01*
X195980000Y-77099642D01*
X195837142Y-77171071D01*
X195622857Y-77171071D01*
X195480000Y-77099642D01*
X195408571Y-77028214D01*
X194694285Y-76171071D02*
X194694285Y-77171071D01*
X194694285Y-76313928D02*
X194622857Y-76242500D01*
X194480000Y-76171071D01*
X194265714Y-76171071D01*
X194122857Y-76242500D01*
X194051428Y-76385357D01*
X194051428Y-77171071D01*
X192694285Y-77171071D02*
X192694285Y-76385357D01*
X192765714Y-76242500D01*
X192908571Y-76171071D01*
X193194285Y-76171071D01*
X193337142Y-76242500D01*
X192694285Y-77099642D02*
X192837142Y-77171071D01*
X193194285Y-77171071D01*
X193337142Y-77099642D01*
X193408571Y-76956785D01*
X193408571Y-76813928D01*
X193337142Y-76671071D01*
X193194285Y-76599642D01*
X192837142Y-76599642D01*
X192694285Y-76528214D01*
X191980000Y-77171071D02*
X191980000Y-75671071D01*
X191837142Y-76599642D02*
X191408571Y-77171071D01*
X191408571Y-76171071D02*
X191980000Y-76742500D01*
X190551428Y-77171071D02*
X190694285Y-77099642D01*
X190765714Y-77028214D01*
X190837142Y-76885357D01*
X190837142Y-76456785D01*
X190765714Y-76313928D01*
X190694285Y-76242500D01*
X190551428Y-76171071D01*
X190337142Y-76171071D01*
X190194285Y-76242500D01*
X190122857Y-76313928D01*
X190051428Y-76456785D01*
X190051428Y-76885357D01*
X190122857Y-77028214D01*
X190194285Y-77099642D01*
X190337142Y-77171071D01*
X190551428Y-77171071D01*
X188337142Y-76742500D02*
X187622857Y-76742500D01*
X188480000Y-77171071D02*
X187980000Y-75671071D01*
X187480000Y-77171071D01*
X186980000Y-77171071D02*
X186980000Y-76171071D01*
X186980000Y-76456785D02*
X186908571Y-76313928D01*
X186837142Y-76242500D01*
X186694285Y-76171071D01*
X186551428Y-76171071D01*
X186265714Y-76171071D02*
X185694285Y-76171071D01*
X186051428Y-75671071D02*
X186051428Y-76956785D01*
X185980000Y-77099642D01*
X185837142Y-77171071D01*
X185694285Y-77171071D01*
X184622857Y-77099642D02*
X184765714Y-77171071D01*
X185051428Y-77171071D01*
X185194285Y-77099642D01*
X185265714Y-76956785D01*
X185265714Y-76385357D01*
X185194285Y-76242500D01*
X185051428Y-76171071D01*
X184765714Y-76171071D01*
X184622857Y-76242500D01*
X184551428Y-76385357D01*
X184551428Y-76528214D01*
X185265714Y-76671071D01*
X183908571Y-77171071D02*
X183908571Y-76171071D01*
X183908571Y-76313928D02*
X183837142Y-76242500D01*
X183694285Y-76171071D01*
X183480000Y-76171071D01*
X183337142Y-76242500D01*
X183265714Y-76385357D01*
X183265714Y-77171071D01*
X183265714Y-76385357D02*
X183194285Y-76242500D01*
X183051428Y-76171071D01*
X182837142Y-76171071D01*
X182694285Y-76242500D01*
X182622857Y-76385357D01*
X182622857Y-77171071D01*
X181908571Y-77171071D02*
X181908571Y-76171071D01*
X181908571Y-75671071D02*
X181980000Y-75742500D01*
X181908571Y-75813928D01*
X181837142Y-75742500D01*
X181908571Y-75671071D01*
X181908571Y-75813928D01*
X181265714Y-77099642D02*
X181122857Y-77171071D01*
X180837142Y-77171071D01*
X180694285Y-77099642D01*
X180622857Y-76956785D01*
X180622857Y-76885357D01*
X180694285Y-76742500D01*
X180837142Y-76671071D01*
X181051428Y-76671071D01*
X181194285Y-76599642D01*
X181265714Y-76456785D01*
X181265714Y-76385357D01*
X181194285Y-76242500D01*
X181051428Y-76171071D01*
X180837142Y-76171071D01*
X180694285Y-76242500D01*
X196372857Y-79514642D02*
X196158571Y-79586071D01*
X195801428Y-79586071D01*
X195658571Y-79514642D01*
X195587142Y-79443214D01*
X195515714Y-79300357D01*
X195515714Y-79157500D01*
X195587142Y-79014642D01*
X195658571Y-78943214D01*
X195801428Y-78871785D01*
X196087142Y-78800357D01*
X196230000Y-78728928D01*
X196301428Y-78657500D01*
X196372857Y-78514642D01*
X196372857Y-78371785D01*
X196301428Y-78228928D01*
X196230000Y-78157500D01*
X196087142Y-78086071D01*
X195730000Y-78086071D01*
X195515714Y-78157500D01*
X194301428Y-79514642D02*
X194444285Y-79586071D01*
X194730000Y-79586071D01*
X194872857Y-79514642D01*
X194944285Y-79371785D01*
X194944285Y-78800357D01*
X194872857Y-78657500D01*
X194730000Y-78586071D01*
X194444285Y-78586071D01*
X194301428Y-78657500D01*
X194230000Y-78800357D01*
X194230000Y-78943214D01*
X194944285Y-79086071D01*
X192944285Y-79586071D02*
X192944285Y-78800357D01*
X193015714Y-78657500D01*
X193158571Y-78586071D01*
X193444285Y-78586071D01*
X193587142Y-78657500D01*
X192944285Y-79514642D02*
X193087142Y-79586071D01*
X193444285Y-79586071D01*
X193587142Y-79514642D01*
X193658571Y-79371785D01*
X193658571Y-79228928D01*
X193587142Y-79086071D01*
X193444285Y-79014642D01*
X193087142Y-79014642D01*
X192944285Y-78943214D01*
X192301428Y-79514642D02*
X192158571Y-79586071D01*
X191872857Y-79586071D01*
X191730000Y-79514642D01*
X191658571Y-79371785D01*
X191658571Y-79300357D01*
X191730000Y-79157500D01*
X191872857Y-79086071D01*
X192087142Y-79086071D01*
X192230000Y-79014642D01*
X192301428Y-78871785D01*
X192301428Y-78800357D01*
X192230000Y-78657500D01*
X192087142Y-78586071D01*
X191872857Y-78586071D01*
X191730000Y-78657500D01*
X190801428Y-79586071D02*
X190944285Y-79514642D01*
X191015714Y-79443214D01*
X191087142Y-79300357D01*
X191087142Y-78871785D01*
X191015714Y-78728928D01*
X190944285Y-78657500D01*
X190801428Y-78586071D01*
X190587142Y-78586071D01*
X190444285Y-78657500D01*
X190372857Y-78728928D01*
X190301428Y-78871785D01*
X190301428Y-79300357D01*
X190372857Y-79443214D01*
X190444285Y-79514642D01*
X190587142Y-79586071D01*
X190801428Y-79586071D01*
X189658571Y-78586071D02*
X189658571Y-79586071D01*
X189658571Y-78728928D02*
X189587142Y-78657500D01*
X189444285Y-78586071D01*
X189230000Y-78586071D01*
X189087142Y-78657500D01*
X189015714Y-78800357D01*
X189015714Y-79586071D01*
X187230000Y-78228928D02*
X187158571Y-78157500D01*
X187015714Y-78086071D01*
X186658571Y-78086071D01*
X186515714Y-78157500D01*
X186444285Y-78228928D01*
X186372857Y-78371785D01*
X186372857Y-78514642D01*
X186444285Y-78728928D01*
X187301428Y-79586071D01*
X186372857Y-79586071D01*
X185444285Y-78086071D02*
X185301428Y-78086071D01*
X185158571Y-78157500D01*
X185087142Y-78228928D01*
X185015714Y-78371785D01*
X184944285Y-78657500D01*
X184944285Y-79014642D01*
X185015714Y-79300357D01*
X185087142Y-79443214D01*
X185158571Y-79514642D01*
X185301428Y-79586071D01*
X185444285Y-79586071D01*
X185587142Y-79514642D01*
X185658571Y-79443214D01*
X185730000Y-79300357D01*
X185801428Y-79014642D01*
X185801428Y-78657500D01*
X185730000Y-78371785D01*
X185658571Y-78228928D01*
X185587142Y-78157500D01*
X185444285Y-78086071D01*
X184372857Y-78228928D02*
X184301428Y-78157500D01*
X184158571Y-78086071D01*
X183801428Y-78086071D01*
X183658571Y-78157500D01*
X183587142Y-78228928D01*
X183515714Y-78371785D01*
X183515714Y-78514642D01*
X183587142Y-78728928D01*
X184444285Y-79586071D01*
X183515714Y-79586071D01*
X182230000Y-78586071D02*
X182230000Y-79586071D01*
X182587142Y-78014642D02*
X182944285Y-79086071D01*
X182015714Y-79086071D01*
D11*
X243166876Y-78676380D02*
X243643066Y-78676380D01*
X243690685Y-79152571D01*
X243643066Y-79104952D01*
X243547828Y-79057333D01*
X243309733Y-79057333D01*
X243214495Y-79104952D01*
X243166876Y-79152571D01*
X243119257Y-79247809D01*
X243119257Y-79485904D01*
X243166876Y-79581142D01*
X243214495Y-79628761D01*
X243309733Y-79676380D01*
X243547828Y-79676380D01*
X243643066Y-79628761D01*
X243690685Y-79581142D01*
X242833542Y-78676380D02*
X242500209Y-79676380D01*
X242166876Y-78676380D01*
X246506761Y-84756380D02*
X246840095Y-84280190D01*
X247078190Y-84756380D02*
X247078190Y-83756380D01*
X246697238Y-83756380D01*
X246602000Y-83804000D01*
X246554380Y-83851619D01*
X246506761Y-83946857D01*
X246506761Y-84089714D01*
X246554380Y-84184952D01*
X246602000Y-84232571D01*
X246697238Y-84280190D01*
X247078190Y-84280190D01*
X246078190Y-84375428D02*
X245316285Y-84375428D01*
X244982952Y-83756380D02*
X244411523Y-83756380D01*
X244697238Y-84756380D02*
X244697238Y-83756380D01*
X244078190Y-84756380D02*
X244078190Y-84089714D01*
X244078190Y-84280190D02*
X244030571Y-84184952D01*
X243982952Y-84137333D01*
X243887714Y-84089714D01*
X243792476Y-84089714D01*
X243459142Y-84756380D02*
X243459142Y-84089714D01*
X243459142Y-83756380D02*
X243506761Y-83804000D01*
X243459142Y-83851619D01*
X243411523Y-83804000D01*
X243459142Y-83756380D01*
X243459142Y-83851619D01*
X242982952Y-84756380D02*
X242982952Y-84089714D01*
X242982952Y-84184952D02*
X242935333Y-84137333D01*
X242840095Y-84089714D01*
X242697238Y-84089714D01*
X242602000Y-84137333D01*
X242554380Y-84232571D01*
X242554380Y-84756380D01*
X242554380Y-84232571D02*
X242506761Y-84137333D01*
X242411523Y-84089714D01*
X242268666Y-84089714D01*
X242173428Y-84137333D01*
X242125809Y-84232571D01*
X242125809Y-84756380D01*
%TO.C,U33*%
X217375714Y-91844761D02*
X217232857Y-91892380D01*
X216994761Y-91892380D01*
X216899523Y-91844761D01*
X216851904Y-91797142D01*
X216804285Y-91701904D01*
X216804285Y-91606666D01*
X216851904Y-91511428D01*
X216899523Y-91463809D01*
X216994761Y-91416190D01*
X217185238Y-91368571D01*
X217280476Y-91320952D01*
X217328095Y-91273333D01*
X217375714Y-91178095D01*
X217375714Y-91082857D01*
X217328095Y-90987619D01*
X217280476Y-90940000D01*
X217185238Y-90892380D01*
X216947142Y-90892380D01*
X216804285Y-90940000D01*
X215994761Y-91844761D02*
X216090000Y-91892380D01*
X216280476Y-91892380D01*
X216375714Y-91844761D01*
X216423333Y-91749523D01*
X216423333Y-91368571D01*
X216375714Y-91273333D01*
X216280476Y-91225714D01*
X216090000Y-91225714D01*
X215994761Y-91273333D01*
X215947142Y-91368571D01*
X215947142Y-91463809D01*
X216423333Y-91559047D01*
X215137619Y-91844761D02*
X215232857Y-91892380D01*
X215423333Y-91892380D01*
X215518571Y-91844761D01*
X215566190Y-91749523D01*
X215566190Y-91368571D01*
X215518571Y-91273333D01*
X215423333Y-91225714D01*
X215232857Y-91225714D01*
X215137619Y-91273333D01*
X215090000Y-91368571D01*
X215090000Y-91463809D01*
X215566190Y-91559047D01*
X214280476Y-91844761D02*
X214375714Y-91892380D01*
X214566190Y-91892380D01*
X214661428Y-91844761D01*
X214709047Y-91749523D01*
X214709047Y-91368571D01*
X214661428Y-91273333D01*
X214566190Y-91225714D01*
X214375714Y-91225714D01*
X214280476Y-91273333D01*
X214232857Y-91368571D01*
X214232857Y-91463809D01*
X214709047Y-91559047D01*
X213375714Y-91892380D02*
X213375714Y-90892380D01*
X213375714Y-91844761D02*
X213470952Y-91892380D01*
X213661428Y-91892380D01*
X213756666Y-91844761D01*
X213804285Y-91797142D01*
X213851904Y-91701904D01*
X213851904Y-91416190D01*
X213804285Y-91320952D01*
X213756666Y-91273333D01*
X213661428Y-91225714D01*
X213470952Y-91225714D01*
X213375714Y-91273333D01*
X212470952Y-91225714D02*
X212470952Y-91892380D01*
X212899523Y-91225714D02*
X212899523Y-91749523D01*
X212851904Y-91844761D01*
X212756666Y-91892380D01*
X212613809Y-91892380D01*
X212518571Y-91844761D01*
X212470952Y-91797142D01*
X211994761Y-91892380D02*
X211994761Y-91225714D01*
X211994761Y-90892380D02*
X212042380Y-90940000D01*
X211994761Y-90987619D01*
X211947142Y-90940000D01*
X211994761Y-90892380D01*
X211994761Y-90987619D01*
X211518571Y-91225714D02*
X211518571Y-91892380D01*
X211518571Y-91320952D02*
X211470952Y-91273333D01*
X211375714Y-91225714D01*
X211232857Y-91225714D01*
X211137619Y-91273333D01*
X211090000Y-91368571D01*
X211090000Y-91892380D01*
X210470952Y-91892380D02*
X210566190Y-91844761D01*
X210613809Y-91797142D01*
X210661428Y-91701904D01*
X210661428Y-91416190D01*
X210613809Y-91320952D01*
X210566190Y-91273333D01*
X210470952Y-91225714D01*
X210328095Y-91225714D01*
X210232857Y-91273333D01*
X210185238Y-91320952D01*
X210137619Y-91416190D01*
X210137619Y-91701904D01*
X210185238Y-91797142D01*
X210232857Y-91844761D01*
X210328095Y-91892380D01*
X210470952Y-91892380D01*
X209804285Y-90892380D02*
X209137619Y-91892380D01*
X209137619Y-90892380D02*
X209804285Y-91892380D01*
X208756666Y-91892380D02*
X208756666Y-90892380D01*
X208328095Y-91606666D02*
X207851904Y-91606666D01*
X208423333Y-91892380D02*
X208090000Y-90892380D01*
X207756666Y-91892380D01*
X207232857Y-90892380D02*
X207042380Y-90892380D01*
X206947142Y-90940000D01*
X206851904Y-91035238D01*
X206804285Y-91225714D01*
X206804285Y-91559047D01*
X206851904Y-91749523D01*
X206947142Y-91844761D01*
X207042380Y-91892380D01*
X207232857Y-91892380D01*
X207328095Y-91844761D01*
X207423333Y-91749523D01*
X207470952Y-91559047D01*
X207470952Y-91225714D01*
X207423333Y-91035238D01*
X207328095Y-90940000D01*
X207232857Y-90892380D01*
D13*
%TO.C,C33*%
X227911400Y-81451400D02*
X227911400Y-79841400D01*
X227871400Y-81561400D02*
X227871400Y-79731400D01*
X225470400Y-83226400D02*
X225470400Y-78066400D01*
X226391400Y-79606400D02*
X226391400Y-78248400D01*
X227391400Y-79606400D02*
X227391400Y-78947400D01*
X225710400Y-79606400D02*
X225710400Y-78081400D01*
X226671400Y-82914400D02*
X226671400Y-81686400D01*
X225750400Y-83207400D02*
X225750400Y-81686400D01*
X227831400Y-81657400D02*
X227831400Y-79635400D01*
X226471400Y-83011400D02*
X226471400Y-81686400D01*
X227191400Y-82547400D02*
X227191400Y-81686400D01*
X226191400Y-79606400D02*
X226191400Y-78178400D01*
X226271400Y-79606400D02*
X226271400Y-78204400D01*
X225510400Y-83225400D02*
X225510400Y-78067400D01*
X227071400Y-82650400D02*
X227071400Y-81686400D01*
X227671400Y-81965400D02*
X227671400Y-81686400D01*
X226871400Y-82795400D02*
X226871400Y-81686400D01*
X226631400Y-79606400D02*
X226631400Y-78356400D01*
X226351400Y-83060400D02*
X226351400Y-81686400D01*
X227471400Y-82251400D02*
X227471400Y-81686400D01*
X226711400Y-79606400D02*
X226711400Y-78399400D01*
X226431400Y-83028400D02*
X226431400Y-81686400D01*
X227151400Y-82583400D02*
X227151400Y-81686400D01*
X227151400Y-79606400D02*
X227151400Y-78709400D01*
X225750400Y-79606400D02*
X225750400Y-78085400D01*
X222875625Y-82371400D02*
X222875625Y-81871400D01*
X225910400Y-79606400D02*
X225910400Y-78110400D01*
X226591400Y-82956400D02*
X226591400Y-81686400D01*
X225430400Y-83226400D02*
X225430400Y-78066400D01*
X226511400Y-79606400D02*
X226511400Y-78298400D01*
X225870400Y-83189400D02*
X225870400Y-81686400D01*
X226911400Y-82768400D02*
X226911400Y-81686400D01*
X226751400Y-82870400D02*
X226751400Y-81686400D01*
X227791400Y-81744400D02*
X227791400Y-79548400D01*
X227351400Y-82389400D02*
X227351400Y-81686400D01*
X226070400Y-83147400D02*
X226070400Y-81686400D01*
X225670400Y-79606400D02*
X225670400Y-78077400D01*
X227551400Y-82146400D02*
X227551400Y-81686400D01*
X226631400Y-82936400D02*
X226631400Y-81686400D01*
X226391400Y-83044400D02*
X226391400Y-81686400D01*
X227511400Y-79606400D02*
X227511400Y-79092400D01*
X226791400Y-79606400D02*
X226791400Y-78446400D01*
X227431400Y-82299400D02*
X227431400Y-81686400D01*
X226791400Y-82846400D02*
X226791400Y-81686400D01*
X226231400Y-79606400D02*
X226231400Y-78191400D01*
X226110400Y-79606400D02*
X226110400Y-78155400D01*
X226831400Y-82821400D02*
X226831400Y-81686400D01*
X227111400Y-79606400D02*
X227111400Y-78675400D01*
X226030400Y-83157400D02*
X226030400Y-81686400D01*
X225590400Y-83222400D02*
X225590400Y-78070400D01*
X226751400Y-79606400D02*
X226751400Y-78422400D01*
X227231400Y-82510400D02*
X227231400Y-81686400D01*
X226951400Y-79606400D02*
X226951400Y-78551400D01*
X227511400Y-82200400D02*
X227511400Y-81686400D01*
X227271400Y-79606400D02*
X227271400Y-78820400D01*
X227071400Y-79606400D02*
X227071400Y-78642400D01*
X227391400Y-82345400D02*
X227391400Y-81686400D01*
X226191400Y-83114400D02*
X226191400Y-81686400D01*
X227111400Y-82617400D02*
X227111400Y-81686400D01*
X226911400Y-79606400D02*
X226911400Y-78524400D01*
X227751400Y-81824400D02*
X227751400Y-79468400D01*
X227951400Y-81323400D02*
X227951400Y-79969400D01*
X225910400Y-83182400D02*
X225910400Y-81686400D01*
X227311400Y-79606400D02*
X227311400Y-78861400D01*
X226551400Y-79606400D02*
X226551400Y-78317400D01*
X226231400Y-83101400D02*
X226231400Y-81686400D01*
X225950400Y-79606400D02*
X225950400Y-78118400D01*
X226311400Y-83074400D02*
X226311400Y-81686400D01*
X226511400Y-82994400D02*
X226511400Y-81686400D01*
X227591400Y-79606400D02*
X227591400Y-79203400D01*
X227311400Y-82431400D02*
X227311400Y-81686400D01*
X226991400Y-79606400D02*
X226991400Y-78581400D01*
X225830400Y-83196400D02*
X225830400Y-81686400D01*
X225550400Y-83224400D02*
X225550400Y-78068400D01*
X225670400Y-83215400D02*
X225670400Y-81686400D01*
X226831400Y-79606400D02*
X226831400Y-78471400D01*
X226151400Y-79606400D02*
X226151400Y-78166400D01*
X226991400Y-82711400D02*
X226991400Y-81686400D01*
X225990400Y-79606400D02*
X225990400Y-78126400D01*
X227471400Y-79606400D02*
X227471400Y-79041400D01*
X226551400Y-82975400D02*
X226551400Y-81686400D01*
X227231400Y-79606400D02*
X227231400Y-78782400D01*
X227031400Y-79606400D02*
X227031400Y-78611400D01*
X225710400Y-83211400D02*
X225710400Y-81686400D01*
X227191400Y-79606400D02*
X227191400Y-78745400D01*
X227351400Y-79606400D02*
X227351400Y-78903400D01*
X226351400Y-79606400D02*
X226351400Y-78232400D01*
X227271400Y-82472400D02*
X227271400Y-81686400D01*
X226471400Y-79606400D02*
X226471400Y-78281400D01*
X227711400Y-79606400D02*
X227711400Y-79395400D01*
X226151400Y-83126400D02*
X226151400Y-81686400D01*
X226110400Y-83137400D02*
X226110400Y-81686400D01*
X227711400Y-81897400D02*
X227711400Y-81686400D01*
X227671400Y-79606400D02*
X227671400Y-79327400D01*
X226951400Y-82741400D02*
X226951400Y-81686400D01*
X227431400Y-79606400D02*
X227431400Y-78993400D01*
X226671400Y-79606400D02*
X226671400Y-78378400D01*
X228031400Y-80930400D02*
X228031400Y-80362400D01*
X226030400Y-79606400D02*
X226030400Y-78135400D01*
X226070400Y-79606400D02*
X226070400Y-78145400D01*
X226431400Y-79606400D02*
X226431400Y-78264400D01*
X226311400Y-79606400D02*
X226311400Y-78218400D01*
X222625625Y-82121400D02*
X223125625Y-82121400D01*
X225950400Y-83174400D02*
X225950400Y-81686400D01*
X227551400Y-79606400D02*
X227551400Y-79146400D01*
X227991400Y-81164400D02*
X227991400Y-80128400D01*
X225790400Y-79606400D02*
X225790400Y-78090400D01*
X225830400Y-79606400D02*
X225830400Y-78096400D01*
X227591400Y-82089400D02*
X227591400Y-81686400D01*
X226871400Y-79606400D02*
X226871400Y-78497400D01*
X227631400Y-82029400D02*
X227631400Y-81686400D01*
X225630400Y-83219400D02*
X225630400Y-78073400D01*
X227031400Y-82681400D02*
X227031400Y-81686400D01*
X227631400Y-79606400D02*
X227631400Y-79263400D01*
X225870400Y-79606400D02*
X225870400Y-78103400D01*
X225990400Y-83166400D02*
X225990400Y-81686400D01*
X225790400Y-83202400D02*
X225790400Y-81686400D01*
X226711400Y-82893400D02*
X226711400Y-81686400D01*
X226271400Y-83088400D02*
X226271400Y-81686400D01*
X226591400Y-79606400D02*
X226591400Y-78336400D01*
X228050400Y-80646400D02*
G75*
G03*
X228050400Y-80646400I-2620000J0D01*
G01*
%TO.C,J1*%
X235004800Y-84503200D02*
X235004800Y-84003200D01*
X235004800Y-79003200D02*
X240504800Y-79003200D01*
X235004800Y-84003200D02*
X240504800Y-84003200D01*
X241114800Y-91813200D02*
X229394800Y-91813200D01*
X240504800Y-87003200D02*
X235004800Y-87003200D01*
X229394800Y-91813200D02*
X229394800Y-90393200D01*
X229394800Y-78113200D02*
X233894800Y-78113200D01*
X240504800Y-86503200D02*
X240504800Y-87003200D01*
X235004800Y-82003200D02*
X235004800Y-81503200D01*
X229394800Y-90393200D02*
X233894800Y-90393200D01*
X230304800Y-79253200D02*
X229704800Y-78953200D01*
X241114800Y-84253200D02*
X241114800Y-76693200D01*
X229704800Y-79553200D02*
X230304800Y-79253200D01*
X235004800Y-89003200D02*
X240504800Y-89003200D01*
X240504800Y-84503200D02*
X235004800Y-84503200D01*
X241114800Y-76693200D02*
X229394800Y-76693200D01*
X240504800Y-81503200D02*
X240504800Y-82003200D01*
X240504800Y-89003200D02*
X240504800Y-89503200D01*
X240504800Y-82003200D02*
X235004800Y-82003200D01*
X235004800Y-86503200D02*
X240504800Y-86503200D01*
X233894800Y-90393200D02*
X233894800Y-84253200D01*
X240504800Y-79003200D02*
X240504800Y-79503200D01*
X235004800Y-87003200D02*
X235004800Y-86503200D01*
X235004800Y-81503200D02*
X240504800Y-81503200D01*
X241114800Y-84253200D02*
X241114800Y-91813200D01*
X240504800Y-84003200D02*
X240504800Y-84503200D01*
X240504800Y-79503200D02*
X235004800Y-79503200D01*
X235004800Y-89503200D02*
X235004800Y-89003200D01*
X229394800Y-76693200D02*
X229394800Y-78113200D01*
X229704800Y-78953200D02*
X229704800Y-79553200D01*
X233894800Y-78113200D02*
X233894800Y-84253200D01*
X240504800Y-89503200D02*
X235004800Y-89503200D01*
X235004800Y-79503200D02*
X235004800Y-79003200D01*
%TO.C,G\u002A\u002A\u002A*%
G36*
X193569922Y-88516168D02*
G01*
X193614262Y-88521638D01*
X193632666Y-88534546D01*
X193635433Y-88539491D01*
X193666302Y-88553502D01*
X193720384Y-88564691D01*
X193740604Y-88567908D01*
X193793600Y-88581761D01*
X193821137Y-88597550D01*
X193845154Y-88615585D01*
X193892170Y-88633200D01*
X193932117Y-88648447D01*
X193950166Y-88666628D01*
X193953731Y-88675289D01*
X193981916Y-88685500D01*
X193996723Y-88689188D01*
X194013666Y-88717250D01*
X194017354Y-88732057D01*
X194045416Y-88749000D01*
X194060223Y-88752688D01*
X194077166Y-88780750D01*
X194080854Y-88795557D01*
X194108916Y-88812500D01*
X194131200Y-88825587D01*
X194140666Y-88876000D01*
X194147210Y-88920568D01*
X194172416Y-88939500D01*
X194180782Y-88941259D01*
X194192477Y-88956847D01*
X194199622Y-88994235D01*
X194203193Y-89060258D01*
X194204166Y-89161750D01*
X194203915Y-89220310D01*
X194201688Y-89302175D01*
X194196347Y-89352189D01*
X194186915Y-89377186D01*
X194172416Y-89384000D01*
X194150133Y-89397087D01*
X194140666Y-89447500D01*
X194134123Y-89492068D01*
X194108916Y-89511000D01*
X194094110Y-89514688D01*
X194077166Y-89542750D01*
X194073294Y-89556216D01*
X194044697Y-89570345D01*
X193981916Y-89574500D01*
X193941517Y-89575791D01*
X193899132Y-89585323D01*
X193886666Y-89606250D01*
X193886416Y-89610075D01*
X193873002Y-89626918D01*
X193833410Y-89635561D01*
X193759666Y-89638000D01*
X193744364Y-89637937D01*
X193676995Y-89634584D01*
X193642420Y-89624686D01*
X193632666Y-89606250D01*
X193619580Y-89583966D01*
X193569166Y-89574500D01*
X193524599Y-89567956D01*
X193505666Y-89542750D01*
X193492580Y-89520466D01*
X193442166Y-89511000D01*
X193397599Y-89504456D01*
X193378666Y-89479250D01*
X193382354Y-89464443D01*
X193410416Y-89447500D01*
X193426202Y-89442963D01*
X193442166Y-89413455D01*
X193442700Y-89405195D01*
X193457479Y-89388666D01*
X193500163Y-89393967D01*
X193542303Y-89408465D01*
X193568955Y-89425991D01*
X193568998Y-89426060D01*
X193597020Y-89438705D01*
X193655606Y-89447897D01*
X193733108Y-89452457D01*
X193817875Y-89451205D01*
X193867090Y-89441491D01*
X193886666Y-89415750D01*
X193890354Y-89400943D01*
X193918416Y-89384000D01*
X193930953Y-89378927D01*
X193940573Y-89357497D01*
X193946443Y-89313184D01*
X193949370Y-89239510D01*
X193950166Y-89130000D01*
X193949532Y-89029705D01*
X193946854Y-88952744D01*
X193941314Y-88905791D01*
X193932105Y-88882368D01*
X193918416Y-88876000D01*
X193903610Y-88872312D01*
X193886666Y-88844250D01*
X193882979Y-88829443D01*
X193854916Y-88812500D01*
X193840110Y-88808812D01*
X193823166Y-88780750D01*
X193810080Y-88758466D01*
X193759666Y-88749000D01*
X193715099Y-88742456D01*
X193696166Y-88717250D01*
X193695916Y-88713424D01*
X193682502Y-88696582D01*
X193642910Y-88687938D01*
X193569166Y-88685500D01*
X193553864Y-88685562D01*
X193486495Y-88688916D01*
X193451920Y-88698814D01*
X193442166Y-88717250D01*
X193429080Y-88739534D01*
X193378666Y-88749000D01*
X193334099Y-88742456D01*
X193315166Y-88717250D01*
X193311479Y-88702443D01*
X193283416Y-88685500D01*
X193268610Y-88681812D01*
X193251666Y-88653750D01*
X193255130Y-88638982D01*
X193281653Y-88622000D01*
X193294439Y-88620059D01*
X193319149Y-88599468D01*
X193323855Y-88593471D01*
X193359389Y-88577151D01*
X193416163Y-88564931D01*
X193439597Y-88561145D01*
X193486866Y-88548305D01*
X193505666Y-88534546D01*
X193505671Y-88534328D01*
X193524570Y-88521494D01*
X193569166Y-88516167D01*
X193569922Y-88516168D01*
G37*
D14*
X193569922Y-88516168D02*
X193614262Y-88521638D01*
X193632666Y-88534546D01*
X193635433Y-88539491D01*
X193666302Y-88553502D01*
X193720384Y-88564691D01*
X193740604Y-88567908D01*
X193793600Y-88581761D01*
X193821137Y-88597550D01*
X193845154Y-88615585D01*
X193892170Y-88633200D01*
X193932117Y-88648447D01*
X193950166Y-88666628D01*
X193953731Y-88675289D01*
X193981916Y-88685500D01*
X193996723Y-88689188D01*
X194013666Y-88717250D01*
X194017354Y-88732057D01*
X194045416Y-88749000D01*
X194060223Y-88752688D01*
X194077166Y-88780750D01*
X194080854Y-88795557D01*
X194108916Y-88812500D01*
X194131200Y-88825587D01*
X194140666Y-88876000D01*
X194147210Y-88920568D01*
X194172416Y-88939500D01*
X194180782Y-88941259D01*
X194192477Y-88956847D01*
X194199622Y-88994235D01*
X194203193Y-89060258D01*
X194204166Y-89161750D01*
X194203915Y-89220310D01*
X194201688Y-89302175D01*
X194196347Y-89352189D01*
X194186915Y-89377186D01*
X194172416Y-89384000D01*
X194150133Y-89397087D01*
X194140666Y-89447500D01*
X194134123Y-89492068D01*
X194108916Y-89511000D01*
X194094110Y-89514688D01*
X194077166Y-89542750D01*
X194073294Y-89556216D01*
X194044697Y-89570345D01*
X193981916Y-89574500D01*
X193941517Y-89575791D01*
X193899132Y-89585323D01*
X193886666Y-89606250D01*
X193886416Y-89610075D01*
X193873002Y-89626918D01*
X193833410Y-89635561D01*
X193759666Y-89638000D01*
X193744364Y-89637937D01*
X193676995Y-89634584D01*
X193642420Y-89624686D01*
X193632666Y-89606250D01*
X193619580Y-89583966D01*
X193569166Y-89574500D01*
X193524599Y-89567956D01*
X193505666Y-89542750D01*
X193492580Y-89520466D01*
X193442166Y-89511000D01*
X193397599Y-89504456D01*
X193378666Y-89479250D01*
X193382354Y-89464443D01*
X193410416Y-89447500D01*
X193426202Y-89442963D01*
X193442166Y-89413455D01*
X193442700Y-89405195D01*
X193457479Y-89388666D01*
X193500163Y-89393967D01*
X193542303Y-89408465D01*
X193568955Y-89425991D01*
X193568998Y-89426060D01*
X193597020Y-89438705D01*
X193655606Y-89447897D01*
X193733108Y-89452457D01*
X193817875Y-89451205D01*
X193867090Y-89441491D01*
X193886666Y-89415750D01*
X193890354Y-89400943D01*
X193918416Y-89384000D01*
X193930953Y-89378927D01*
X193940573Y-89357497D01*
X193946443Y-89313184D01*
X193949370Y-89239510D01*
X193950166Y-89130000D01*
X193949532Y-89029705D01*
X193946854Y-88952744D01*
X193941314Y-88905791D01*
X193932105Y-88882368D01*
X193918416Y-88876000D01*
X193903610Y-88872312D01*
X193886666Y-88844250D01*
X193882979Y-88829443D01*
X193854916Y-88812500D01*
X193840110Y-88808812D01*
X193823166Y-88780750D01*
X193810080Y-88758466D01*
X193759666Y-88749000D01*
X193715099Y-88742456D01*
X193696166Y-88717250D01*
X193695916Y-88713424D01*
X193682502Y-88696582D01*
X193642910Y-88687938D01*
X193569166Y-88685500D01*
X193553864Y-88685562D01*
X193486495Y-88688916D01*
X193451920Y-88698814D01*
X193442166Y-88717250D01*
X193429080Y-88739534D01*
X193378666Y-88749000D01*
X193334099Y-88742456D01*
X193315166Y-88717250D01*
X193311479Y-88702443D01*
X193283416Y-88685500D01*
X193268610Y-88681812D01*
X193251666Y-88653750D01*
X193255130Y-88638982D01*
X193281653Y-88622000D01*
X193294439Y-88620059D01*
X193319149Y-88599468D01*
X193323855Y-88593471D01*
X193359389Y-88577151D01*
X193416163Y-88564931D01*
X193439597Y-88561145D01*
X193486866Y-88548305D01*
X193505666Y-88534546D01*
X193505671Y-88534328D01*
X193524570Y-88521494D01*
X193569166Y-88516167D01*
X193569922Y-88516168D01*
G36*
X195906965Y-88695182D02*
G01*
X195944519Y-88699599D01*
X196012870Y-88711266D01*
X196041341Y-88722657D01*
X196031694Y-88732948D01*
X195985691Y-88741317D01*
X195905094Y-88746942D01*
X195791666Y-88749000D01*
X195691371Y-88749634D01*
X195614411Y-88752313D01*
X195567458Y-88757852D01*
X195544035Y-88767061D01*
X195537666Y-88780750D01*
X195524580Y-88803034D01*
X195474166Y-88812500D01*
X195440651Y-88814445D01*
X195415911Y-88831023D01*
X195410666Y-88876000D01*
X195404123Y-88920568D01*
X195378916Y-88939500D01*
X195365450Y-88943373D01*
X195351322Y-88971969D01*
X195347166Y-89034750D01*
X195348457Y-89075149D01*
X195357990Y-89117534D01*
X195378916Y-89130000D01*
X195401200Y-89143087D01*
X195410666Y-89193500D01*
X195404123Y-89238068D01*
X195378916Y-89257000D01*
X195364110Y-89253312D01*
X195347166Y-89225250D01*
X195343479Y-89210443D01*
X195315416Y-89193500D01*
X195303228Y-89189863D01*
X195291340Y-89167639D01*
X195285330Y-89118486D01*
X195283666Y-89034750D01*
X195284394Y-88973809D01*
X195288839Y-88914367D01*
X195298669Y-88884316D01*
X195315416Y-88876000D01*
X195330223Y-88872312D01*
X195347166Y-88844250D01*
X195350854Y-88829443D01*
X195378916Y-88812500D01*
X195393723Y-88808812D01*
X195410666Y-88780750D01*
X195423290Y-88758692D01*
X195472403Y-88749000D01*
X195517552Y-88742259D01*
X195542089Y-88725149D01*
X195567952Y-88707816D01*
X195626697Y-88695339D01*
X195708989Y-88688565D01*
X195805515Y-88688257D01*
X195906965Y-88695182D01*
G37*
X195906965Y-88695182D02*
X195944519Y-88699599D01*
X196012870Y-88711266D01*
X196041341Y-88722657D01*
X196031694Y-88732948D01*
X195985691Y-88741317D01*
X195905094Y-88746942D01*
X195791666Y-88749000D01*
X195691371Y-88749634D01*
X195614411Y-88752313D01*
X195567458Y-88757852D01*
X195544035Y-88767061D01*
X195537666Y-88780750D01*
X195524580Y-88803034D01*
X195474166Y-88812500D01*
X195440651Y-88814445D01*
X195415911Y-88831023D01*
X195410666Y-88876000D01*
X195404123Y-88920568D01*
X195378916Y-88939500D01*
X195365450Y-88943373D01*
X195351322Y-88971969D01*
X195347166Y-89034750D01*
X195348457Y-89075149D01*
X195357990Y-89117534D01*
X195378916Y-89130000D01*
X195401200Y-89143087D01*
X195410666Y-89193500D01*
X195404123Y-89238068D01*
X195378916Y-89257000D01*
X195364110Y-89253312D01*
X195347166Y-89225250D01*
X195343479Y-89210443D01*
X195315416Y-89193500D01*
X195303228Y-89189863D01*
X195291340Y-89167639D01*
X195285330Y-89118486D01*
X195283666Y-89034750D01*
X195284394Y-88973809D01*
X195288839Y-88914367D01*
X195298669Y-88884316D01*
X195315416Y-88876000D01*
X195330223Y-88872312D01*
X195347166Y-88844250D01*
X195350854Y-88829443D01*
X195378916Y-88812500D01*
X195393723Y-88808812D01*
X195410666Y-88780750D01*
X195423290Y-88758692D01*
X195472403Y-88749000D01*
X195517552Y-88742259D01*
X195542089Y-88725149D01*
X195567952Y-88707816D01*
X195626697Y-88695339D01*
X195708989Y-88688565D01*
X195805515Y-88688257D01*
X195906965Y-88695182D01*
G36*
X196155522Y-88772555D02*
G01*
X196172666Y-88791333D01*
X196169084Y-88801070D01*
X196140916Y-88812500D01*
X196126311Y-88810112D01*
X196109166Y-88791333D01*
X196112749Y-88781596D01*
X196140916Y-88770167D01*
X196155522Y-88772555D01*
G37*
X196155522Y-88772555D02*
X196172666Y-88791333D01*
X196169084Y-88801070D01*
X196140916Y-88812500D01*
X196126311Y-88810112D01*
X196109166Y-88791333D01*
X196112749Y-88781596D01*
X196140916Y-88770167D01*
X196155522Y-88772555D01*
G36*
X190539384Y-88434196D02*
G01*
X190616269Y-88438316D01*
X190664041Y-88444841D01*
X190679308Y-88449890D01*
X190700187Y-88467511D01*
X190709522Y-88504204D01*
X190711666Y-88571552D01*
X190714249Y-88637637D01*
X190724089Y-88674862D01*
X190743416Y-88685500D01*
X190747242Y-88685750D01*
X190764084Y-88699164D01*
X190772728Y-88738757D01*
X190775166Y-88812500D01*
X190775229Y-88827802D01*
X190778583Y-88895171D01*
X190788481Y-88929746D01*
X190806916Y-88939500D01*
X190810742Y-88939750D01*
X190827584Y-88953164D01*
X190836228Y-88992757D01*
X190838666Y-89066500D01*
X190838729Y-89081802D01*
X190842083Y-89149171D01*
X190851981Y-89183746D01*
X190870416Y-89193500D01*
X190874242Y-89193750D01*
X190891084Y-89207164D01*
X190899728Y-89246757D01*
X190902166Y-89320500D01*
X190902229Y-89335802D01*
X190905583Y-89403171D01*
X190915481Y-89437746D01*
X190933916Y-89447500D01*
X190937742Y-89447750D01*
X190954584Y-89461164D01*
X190963228Y-89500757D01*
X190965666Y-89574500D01*
X190965729Y-89589802D01*
X190969083Y-89657171D01*
X190978981Y-89691746D01*
X190997416Y-89701500D01*
X191001242Y-89701750D01*
X191018084Y-89715164D01*
X191026728Y-89754757D01*
X191029166Y-89828500D01*
X191029229Y-89843802D01*
X191032583Y-89911171D01*
X191042481Y-89945746D01*
X191060916Y-89955500D01*
X191074383Y-89959373D01*
X191088511Y-89987969D01*
X191092666Y-90050750D01*
X191092666Y-90146000D01*
X190425916Y-90146000D01*
X190358168Y-90145978D01*
X190183767Y-90145597D01*
X190046132Y-90144588D01*
X189941096Y-90142753D01*
X189864496Y-90139895D01*
X189812168Y-90135813D01*
X189779946Y-90130311D01*
X189763667Y-90123189D01*
X189759166Y-90114250D01*
X189755479Y-90099443D01*
X189727416Y-90082500D01*
X189713950Y-90078627D01*
X189699822Y-90050030D01*
X189695666Y-89987250D01*
X189694376Y-89946851D01*
X189684843Y-89904465D01*
X189663916Y-89892000D01*
X189643207Y-89881643D01*
X189632166Y-89839083D01*
X189632166Y-89786167D01*
X190457666Y-89786167D01*
X190457666Y-89648583D01*
X190457434Y-89617359D01*
X190453624Y-89553005D01*
X190443726Y-89520185D01*
X190425916Y-89511000D01*
X190422091Y-89510749D01*
X190405249Y-89497335D01*
X190396605Y-89457743D01*
X190394166Y-89384000D01*
X190394104Y-89368698D01*
X190390750Y-89301328D01*
X190380852Y-89266753D01*
X190362416Y-89257000D01*
X190358591Y-89256749D01*
X190341749Y-89243335D01*
X190333105Y-89203743D01*
X190330666Y-89130000D01*
X190330604Y-89114698D01*
X190327250Y-89047328D01*
X190317352Y-89012753D01*
X190298916Y-89003000D01*
X190295091Y-89002749D01*
X190278249Y-88989335D01*
X190269605Y-88949743D01*
X190267166Y-88876000D01*
X190267104Y-88860698D01*
X190263750Y-88793328D01*
X190253852Y-88758753D01*
X190235416Y-88749000D01*
X190231591Y-88748749D01*
X190214749Y-88735335D01*
X190206105Y-88695743D01*
X190203666Y-88622000D01*
X190203604Y-88606698D01*
X190200250Y-88539328D01*
X190190352Y-88504753D01*
X190171916Y-88495000D01*
X190165247Y-88494755D01*
X190141541Y-88483436D01*
X190150214Y-88463137D01*
X190187791Y-88444841D01*
X190203776Y-88441762D01*
X190265583Y-88436264D01*
X190350888Y-88433170D01*
X190446539Y-88432481D01*
X190539384Y-88434196D01*
G37*
X190539384Y-88434196D02*
X190616269Y-88438316D01*
X190664041Y-88444841D01*
X190679308Y-88449890D01*
X190700187Y-88467511D01*
X190709522Y-88504204D01*
X190711666Y-88571552D01*
X190714249Y-88637637D01*
X190724089Y-88674862D01*
X190743416Y-88685500D01*
X190747242Y-88685750D01*
X190764084Y-88699164D01*
X190772728Y-88738757D01*
X190775166Y-88812500D01*
X190775229Y-88827802D01*
X190778583Y-88895171D01*
X190788481Y-88929746D01*
X190806916Y-88939500D01*
X190810742Y-88939750D01*
X190827584Y-88953164D01*
X190836228Y-88992757D01*
X190838666Y-89066500D01*
X190838729Y-89081802D01*
X190842083Y-89149171D01*
X190851981Y-89183746D01*
X190870416Y-89193500D01*
X190874242Y-89193750D01*
X190891084Y-89207164D01*
X190899728Y-89246757D01*
X190902166Y-89320500D01*
X190902229Y-89335802D01*
X190905583Y-89403171D01*
X190915481Y-89437746D01*
X190933916Y-89447500D01*
X190937742Y-89447750D01*
X190954584Y-89461164D01*
X190963228Y-89500757D01*
X190965666Y-89574500D01*
X190965729Y-89589802D01*
X190969083Y-89657171D01*
X190978981Y-89691746D01*
X190997416Y-89701500D01*
X191001242Y-89701750D01*
X191018084Y-89715164D01*
X191026728Y-89754757D01*
X191029166Y-89828500D01*
X191029229Y-89843802D01*
X191032583Y-89911171D01*
X191042481Y-89945746D01*
X191060916Y-89955500D01*
X191074383Y-89959373D01*
X191088511Y-89987969D01*
X191092666Y-90050750D01*
X191092666Y-90146000D01*
X190425916Y-90146000D01*
X190358168Y-90145978D01*
X190183767Y-90145597D01*
X190046132Y-90144588D01*
X189941096Y-90142753D01*
X189864496Y-90139895D01*
X189812168Y-90135813D01*
X189779946Y-90130311D01*
X189763667Y-90123189D01*
X189759166Y-90114250D01*
X189755479Y-90099443D01*
X189727416Y-90082500D01*
X189713950Y-90078627D01*
X189699822Y-90050030D01*
X189695666Y-89987250D01*
X189694376Y-89946851D01*
X189684843Y-89904465D01*
X189663916Y-89892000D01*
X189643207Y-89881643D01*
X189632166Y-89839083D01*
X189632166Y-89786167D01*
X190457666Y-89786167D01*
X190457666Y-89648583D01*
X190457434Y-89617359D01*
X190453624Y-89553005D01*
X190443726Y-89520185D01*
X190425916Y-89511000D01*
X190422091Y-89510749D01*
X190405249Y-89497335D01*
X190396605Y-89457743D01*
X190394166Y-89384000D01*
X190394104Y-89368698D01*
X190390750Y-89301328D01*
X190380852Y-89266753D01*
X190362416Y-89257000D01*
X190358591Y-89256749D01*
X190341749Y-89243335D01*
X190333105Y-89203743D01*
X190330666Y-89130000D01*
X190330604Y-89114698D01*
X190327250Y-89047328D01*
X190317352Y-89012753D01*
X190298916Y-89003000D01*
X190295091Y-89002749D01*
X190278249Y-88989335D01*
X190269605Y-88949743D01*
X190267166Y-88876000D01*
X190267104Y-88860698D01*
X190263750Y-88793328D01*
X190253852Y-88758753D01*
X190235416Y-88749000D01*
X190231591Y-88748749D01*
X190214749Y-88735335D01*
X190206105Y-88695743D01*
X190203666Y-88622000D01*
X190203604Y-88606698D01*
X190200250Y-88539328D01*
X190190352Y-88504753D01*
X190171916Y-88495000D01*
X190165247Y-88494755D01*
X190141541Y-88483436D01*
X190150214Y-88463137D01*
X190187791Y-88444841D01*
X190203776Y-88441762D01*
X190265583Y-88436264D01*
X190350888Y-88433170D01*
X190446539Y-88432481D01*
X190539384Y-88434196D01*
G36*
X183536166Y-89828500D02*
G01*
X183536229Y-89843802D01*
X183539583Y-89911171D01*
X183549481Y-89945746D01*
X183567916Y-89955500D01*
X183581383Y-89959373D01*
X183595511Y-89987969D01*
X183599666Y-90050750D01*
X183599666Y-90146000D01*
X183059916Y-90146000D01*
X182979740Y-90145948D01*
X182830171Y-90145367D01*
X182716251Y-90143922D01*
X182633376Y-90141341D01*
X182576936Y-90137355D01*
X182542326Y-90131692D01*
X182524939Y-90124080D01*
X182520166Y-90114250D01*
X182519916Y-90110424D01*
X182506502Y-90093582D01*
X182466910Y-90084938D01*
X182393166Y-90082500D01*
X182377864Y-90082437D01*
X182310495Y-90079084D01*
X182275920Y-90069186D01*
X182266166Y-90050750D01*
X182253080Y-90028466D01*
X182202666Y-90019000D01*
X182158099Y-90012456D01*
X182139166Y-89987250D01*
X182126080Y-89964966D01*
X182075666Y-89955500D01*
X182031099Y-89948956D01*
X182012166Y-89923750D01*
X182008479Y-89908943D01*
X181980416Y-89892000D01*
X181958133Y-89878913D01*
X181948666Y-89828500D01*
X181942123Y-89783932D01*
X181916916Y-89765000D01*
X181903450Y-89761127D01*
X181889322Y-89732530D01*
X181885166Y-89669750D01*
X181883876Y-89629351D01*
X181874343Y-89586965D01*
X181853416Y-89574500D01*
X181844202Y-89572205D01*
X182393166Y-89572205D01*
X182394414Y-89640680D01*
X182401359Y-89680581D01*
X182418707Y-89700411D01*
X182451163Y-89711467D01*
X182494007Y-89727655D01*
X182524447Y-89750803D01*
X182526049Y-89752503D01*
X182557753Y-89762352D01*
X182619151Y-89770713D01*
X182699375Y-89777080D01*
X182787554Y-89780947D01*
X182872818Y-89781810D01*
X182944299Y-89779163D01*
X182991125Y-89772500D01*
X183001650Y-89768342D01*
X183024874Y-89742955D01*
X183023567Y-89714800D01*
X182996416Y-89701500D01*
X182992591Y-89701249D01*
X182975749Y-89687835D01*
X182967105Y-89648243D01*
X182964666Y-89574500D01*
X182964604Y-89559198D01*
X182961250Y-89491828D01*
X182951352Y-89457253D01*
X182932916Y-89447500D01*
X182918110Y-89443812D01*
X182901166Y-89415750D01*
X182897529Y-89403562D01*
X182875305Y-89391673D01*
X182826153Y-89385663D01*
X182742416Y-89384000D01*
X182681476Y-89384727D01*
X182622034Y-89389172D01*
X182591982Y-89399003D01*
X182583666Y-89415750D01*
X182579794Y-89429216D01*
X182551197Y-89443345D01*
X182488416Y-89447500D01*
X182393166Y-89447500D01*
X182393166Y-89572205D01*
X181844202Y-89572205D01*
X181838610Y-89570812D01*
X181821666Y-89542750D01*
X181825354Y-89527943D01*
X181853416Y-89511000D01*
X181875700Y-89497913D01*
X181885166Y-89447500D01*
X181891710Y-89402932D01*
X181916916Y-89384000D01*
X181931723Y-89380312D01*
X181948666Y-89352250D01*
X181952354Y-89337443D01*
X181980416Y-89320500D01*
X181995223Y-89316812D01*
X182012166Y-89288750D01*
X182015854Y-89273943D01*
X182043916Y-89257000D01*
X182058723Y-89253312D01*
X182075666Y-89225250D01*
X182071979Y-89210443D01*
X182043916Y-89193500D01*
X182029110Y-89189812D01*
X182012166Y-89161750D01*
X181999080Y-89139466D01*
X181948666Y-89130000D01*
X181904099Y-89123456D01*
X181885166Y-89098250D01*
X181881479Y-89083443D01*
X181853416Y-89066500D01*
X181839950Y-89062627D01*
X181825822Y-89034030D01*
X181821666Y-88971250D01*
X181820376Y-88930851D01*
X181815180Y-88907750D01*
X182329666Y-88907750D01*
X182330957Y-88948149D01*
X182340490Y-88990534D01*
X182361416Y-89003000D01*
X182376162Y-89006324D01*
X182393166Y-89031873D01*
X182394586Y-89038087D01*
X182425034Y-89059155D01*
X182491371Y-89074206D01*
X182539180Y-89079570D01*
X182639653Y-89084737D01*
X182732479Y-89082552D01*
X182800625Y-89073076D01*
X182810586Y-89068568D01*
X182832129Y-89037704D01*
X182838983Y-88994526D01*
X182830471Y-88956101D01*
X182805916Y-88939500D01*
X182792450Y-88935627D01*
X182778322Y-88907030D01*
X182774166Y-88844250D01*
X182774166Y-88749000D01*
X182583666Y-88749000D01*
X182569823Y-88749017D01*
X182481684Y-88750599D01*
X182427685Y-88755612D01*
X182400590Y-88765260D01*
X182393166Y-88780750D01*
X182389479Y-88795557D01*
X182361416Y-88812500D01*
X182347950Y-88816373D01*
X182333822Y-88844969D01*
X182329666Y-88907750D01*
X181815180Y-88907750D01*
X181810843Y-88888465D01*
X181789916Y-88876000D01*
X181767633Y-88862913D01*
X181758166Y-88812500D01*
X181764710Y-88767932D01*
X181789916Y-88749000D01*
X181812200Y-88735913D01*
X181821666Y-88685500D01*
X181828210Y-88640932D01*
X181853416Y-88622000D01*
X181868223Y-88618312D01*
X181885166Y-88590250D01*
X181888630Y-88575482D01*
X181915153Y-88558500D01*
X181927933Y-88556629D01*
X181952361Y-88536834D01*
X181955829Y-88531924D01*
X181989161Y-88515120D01*
X182044083Y-88501811D01*
X182061106Y-88498708D01*
X182114636Y-88483093D01*
X182143676Y-88465268D01*
X182166278Y-88458577D01*
X182224481Y-88451972D01*
X182310857Y-88445973D01*
X182418154Y-88440755D01*
X182539119Y-88436495D01*
X182666501Y-88433369D01*
X182793046Y-88431554D01*
X182911503Y-88431225D01*
X183014619Y-88432558D01*
X183095141Y-88435731D01*
X183145817Y-88440918D01*
X183146976Y-88441136D01*
X183188254Y-88450864D01*
X183209556Y-88467781D01*
X183217490Y-88503603D01*
X183218666Y-88570042D01*
X183221349Y-88638092D01*
X183231200Y-88674977D01*
X183250416Y-88685500D01*
X183254242Y-88685750D01*
X183271084Y-88699164D01*
X183279728Y-88738757D01*
X183282166Y-88812500D01*
X183282229Y-88827802D01*
X183285583Y-88895171D01*
X183295481Y-88929746D01*
X183313916Y-88939500D01*
X183317742Y-88939750D01*
X183334584Y-88953164D01*
X183343228Y-88992757D01*
X183343287Y-88994526D01*
X183345666Y-89066500D01*
X183345729Y-89081802D01*
X183349083Y-89149171D01*
X183358981Y-89183746D01*
X183377416Y-89193500D01*
X183381242Y-89193750D01*
X183398084Y-89207164D01*
X183406728Y-89246757D01*
X183409166Y-89320500D01*
X183409229Y-89335802D01*
X183412583Y-89403171D01*
X183422481Y-89437746D01*
X183440916Y-89447500D01*
X183444742Y-89447750D01*
X183461584Y-89461164D01*
X183470228Y-89500757D01*
X183472666Y-89574500D01*
X183472729Y-89589802D01*
X183476083Y-89657171D01*
X183485981Y-89691746D01*
X183504416Y-89701500D01*
X183508242Y-89701750D01*
X183525084Y-89715164D01*
X183531152Y-89742955D01*
X183533728Y-89754757D01*
X183536166Y-89828500D01*
G37*
X183536166Y-89828500D02*
X183536229Y-89843802D01*
X183539583Y-89911171D01*
X183549481Y-89945746D01*
X183567916Y-89955500D01*
X183581383Y-89959373D01*
X183595511Y-89987969D01*
X183599666Y-90050750D01*
X183599666Y-90146000D01*
X183059916Y-90146000D01*
X182979740Y-90145948D01*
X182830171Y-90145367D01*
X182716251Y-90143922D01*
X182633376Y-90141341D01*
X182576936Y-90137355D01*
X182542326Y-90131692D01*
X182524939Y-90124080D01*
X182520166Y-90114250D01*
X182519916Y-90110424D01*
X182506502Y-90093582D01*
X182466910Y-90084938D01*
X182393166Y-90082500D01*
X182377864Y-90082437D01*
X182310495Y-90079084D01*
X182275920Y-90069186D01*
X182266166Y-90050750D01*
X182253080Y-90028466D01*
X182202666Y-90019000D01*
X182158099Y-90012456D01*
X182139166Y-89987250D01*
X182126080Y-89964966D01*
X182075666Y-89955500D01*
X182031099Y-89948956D01*
X182012166Y-89923750D01*
X182008479Y-89908943D01*
X181980416Y-89892000D01*
X181958133Y-89878913D01*
X181948666Y-89828500D01*
X181942123Y-89783932D01*
X181916916Y-89765000D01*
X181903450Y-89761127D01*
X181889322Y-89732530D01*
X181885166Y-89669750D01*
X181883876Y-89629351D01*
X181874343Y-89586965D01*
X181853416Y-89574500D01*
X181844202Y-89572205D01*
X182393166Y-89572205D01*
X182394414Y-89640680D01*
X182401359Y-89680581D01*
X182418707Y-89700411D01*
X182451163Y-89711467D01*
X182494007Y-89727655D01*
X182524447Y-89750803D01*
X182526049Y-89752503D01*
X182557753Y-89762352D01*
X182619151Y-89770713D01*
X182699375Y-89777080D01*
X182787554Y-89780947D01*
X182872818Y-89781810D01*
X182944299Y-89779163D01*
X182991125Y-89772500D01*
X183001650Y-89768342D01*
X183024874Y-89742955D01*
X183023567Y-89714800D01*
X182996416Y-89701500D01*
X182992591Y-89701249D01*
X182975749Y-89687835D01*
X182967105Y-89648243D01*
X182964666Y-89574500D01*
X182964604Y-89559198D01*
X182961250Y-89491828D01*
X182951352Y-89457253D01*
X182932916Y-89447500D01*
X182918110Y-89443812D01*
X182901166Y-89415750D01*
X182897529Y-89403562D01*
X182875305Y-89391673D01*
X182826153Y-89385663D01*
X182742416Y-89384000D01*
X182681476Y-89384727D01*
X182622034Y-89389172D01*
X182591982Y-89399003D01*
X182583666Y-89415750D01*
X182579794Y-89429216D01*
X182551197Y-89443345D01*
X182488416Y-89447500D01*
X182393166Y-89447500D01*
X182393166Y-89572205D01*
X181844202Y-89572205D01*
X181838610Y-89570812D01*
X181821666Y-89542750D01*
X181825354Y-89527943D01*
X181853416Y-89511000D01*
X181875700Y-89497913D01*
X181885166Y-89447500D01*
X181891710Y-89402932D01*
X181916916Y-89384000D01*
X181931723Y-89380312D01*
X181948666Y-89352250D01*
X181952354Y-89337443D01*
X181980416Y-89320500D01*
X181995223Y-89316812D01*
X182012166Y-89288750D01*
X182015854Y-89273943D01*
X182043916Y-89257000D01*
X182058723Y-89253312D01*
X182075666Y-89225250D01*
X182071979Y-89210443D01*
X182043916Y-89193500D01*
X182029110Y-89189812D01*
X182012166Y-89161750D01*
X181999080Y-89139466D01*
X181948666Y-89130000D01*
X181904099Y-89123456D01*
X181885166Y-89098250D01*
X181881479Y-89083443D01*
X181853416Y-89066500D01*
X181839950Y-89062627D01*
X181825822Y-89034030D01*
X181821666Y-88971250D01*
X181820376Y-88930851D01*
X181815180Y-88907750D01*
X182329666Y-88907750D01*
X182330957Y-88948149D01*
X182340490Y-88990534D01*
X182361416Y-89003000D01*
X182376162Y-89006324D01*
X182393166Y-89031873D01*
X182394586Y-89038087D01*
X182425034Y-89059155D01*
X182491371Y-89074206D01*
X182539180Y-89079570D01*
X182639653Y-89084737D01*
X182732479Y-89082552D01*
X182800625Y-89073076D01*
X182810586Y-89068568D01*
X182832129Y-89037704D01*
X182838983Y-88994526D01*
X182830471Y-88956101D01*
X182805916Y-88939500D01*
X182792450Y-88935627D01*
X182778322Y-88907030D01*
X182774166Y-88844250D01*
X182774166Y-88749000D01*
X182583666Y-88749000D01*
X182569823Y-88749017D01*
X182481684Y-88750599D01*
X182427685Y-88755612D01*
X182400590Y-88765260D01*
X182393166Y-88780750D01*
X182389479Y-88795557D01*
X182361416Y-88812500D01*
X182347950Y-88816373D01*
X182333822Y-88844969D01*
X182329666Y-88907750D01*
X181815180Y-88907750D01*
X181810843Y-88888465D01*
X181789916Y-88876000D01*
X181767633Y-88862913D01*
X181758166Y-88812500D01*
X181764710Y-88767932D01*
X181789916Y-88749000D01*
X181812200Y-88735913D01*
X181821666Y-88685500D01*
X181828210Y-88640932D01*
X181853416Y-88622000D01*
X181868223Y-88618312D01*
X181885166Y-88590250D01*
X181888630Y-88575482D01*
X181915153Y-88558500D01*
X181927933Y-88556629D01*
X181952361Y-88536834D01*
X181955829Y-88531924D01*
X181989161Y-88515120D01*
X182044083Y-88501811D01*
X182061106Y-88498708D01*
X182114636Y-88483093D01*
X182143676Y-88465268D01*
X182166278Y-88458577D01*
X182224481Y-88451972D01*
X182310857Y-88445973D01*
X182418154Y-88440755D01*
X182539119Y-88436495D01*
X182666501Y-88433369D01*
X182793046Y-88431554D01*
X182911503Y-88431225D01*
X183014619Y-88432558D01*
X183095141Y-88435731D01*
X183145817Y-88440918D01*
X183146976Y-88441136D01*
X183188254Y-88450864D01*
X183209556Y-88467781D01*
X183217490Y-88503603D01*
X183218666Y-88570042D01*
X183221349Y-88638092D01*
X183231200Y-88674977D01*
X183250416Y-88685500D01*
X183254242Y-88685750D01*
X183271084Y-88699164D01*
X183279728Y-88738757D01*
X183282166Y-88812500D01*
X183282229Y-88827802D01*
X183285583Y-88895171D01*
X183295481Y-88929746D01*
X183313916Y-88939500D01*
X183317742Y-88939750D01*
X183334584Y-88953164D01*
X183343228Y-88992757D01*
X183343287Y-88994526D01*
X183345666Y-89066500D01*
X183345729Y-89081802D01*
X183349083Y-89149171D01*
X183358981Y-89183746D01*
X183377416Y-89193500D01*
X183381242Y-89193750D01*
X183398084Y-89207164D01*
X183406728Y-89246757D01*
X183409166Y-89320500D01*
X183409229Y-89335802D01*
X183412583Y-89403171D01*
X183422481Y-89437746D01*
X183440916Y-89447500D01*
X183444742Y-89447750D01*
X183461584Y-89461164D01*
X183470228Y-89500757D01*
X183472666Y-89574500D01*
X183472729Y-89589802D01*
X183476083Y-89657171D01*
X183485981Y-89691746D01*
X183504416Y-89701500D01*
X183508242Y-89701750D01*
X183525084Y-89715164D01*
X183531152Y-89742955D01*
X183533728Y-89754757D01*
X183536166Y-89828500D01*
G36*
X194241032Y-89765071D02*
G01*
X194367953Y-89765895D01*
X194460082Y-89767965D01*
X194522643Y-89771684D01*
X194560861Y-89777453D01*
X194579961Y-89785674D01*
X194585166Y-89796750D01*
X194588854Y-89811557D01*
X194616916Y-89828500D01*
X194635432Y-89836357D01*
X194648666Y-89870833D01*
X194654559Y-89895520D01*
X194680416Y-89913167D01*
X194695223Y-89916854D01*
X194712166Y-89944917D01*
X194715854Y-89959723D01*
X194743916Y-89976667D01*
X194758723Y-89980354D01*
X194775666Y-90008417D01*
X194779354Y-90023223D01*
X194807416Y-90040167D01*
X194822223Y-90043854D01*
X194839166Y-90071917D01*
X194842854Y-90086723D01*
X194870916Y-90103667D01*
X194885522Y-90106055D01*
X194902666Y-90124833D01*
X194906249Y-90134570D01*
X194934416Y-90146000D01*
X194949187Y-90149474D01*
X194966166Y-90176068D01*
X194966174Y-90176536D01*
X194985146Y-90201626D01*
X195029666Y-90220083D01*
X195030901Y-90220358D01*
X195074919Y-90235872D01*
X195093166Y-90253515D01*
X195096735Y-90262463D01*
X195124916Y-90273000D01*
X195139663Y-90276335D01*
X195156666Y-90301963D01*
X195157320Y-90306286D01*
X195183955Y-90328010D01*
X195244384Y-90342691D01*
X195264604Y-90345908D01*
X195317600Y-90359761D01*
X195345137Y-90375550D01*
X195369154Y-90393585D01*
X195416170Y-90411200D01*
X195456144Y-90425787D01*
X195474166Y-90442189D01*
X195486423Y-90450882D01*
X195530597Y-90463075D01*
X195595875Y-90473793D01*
X195648727Y-90482026D01*
X195703402Y-90495099D01*
X195729208Y-90507646D01*
X195751862Y-90515716D01*
X195808583Y-90524793D01*
X195890395Y-90533417D01*
X195988500Y-90540473D01*
X196083060Y-90547240D01*
X196162603Y-90555628D01*
X196216397Y-90564425D01*
X196236166Y-90572559D01*
X196240531Y-90577917D01*
X196274603Y-90586935D01*
X196331416Y-90590500D01*
X196359863Y-90589674D01*
X196407742Y-90583227D01*
X196426666Y-90572477D01*
X196430326Y-90568639D01*
X196464856Y-90558808D01*
X196527998Y-90549223D01*
X196610144Y-90541506D01*
X196644909Y-90538734D01*
X196723390Y-90529882D01*
X196780561Y-90519701D01*
X196805936Y-90509885D01*
X196809810Y-90506082D01*
X196845338Y-90490818D01*
X196901204Y-90478106D01*
X196917200Y-90475246D01*
X196969384Y-90460746D01*
X196996666Y-90444761D01*
X197020379Y-90427276D01*
X197067170Y-90409967D01*
X197107136Y-90395174D01*
X197125166Y-90378220D01*
X197125180Y-90377866D01*
X197144250Y-90361773D01*
X197188667Y-90347083D01*
X197189652Y-90346863D01*
X197233837Y-90328175D01*
X197252167Y-90303068D01*
X197255835Y-90289080D01*
X197283916Y-90273000D01*
X197298723Y-90269312D01*
X197315666Y-90241250D01*
X197319354Y-90226443D01*
X197347416Y-90209500D01*
X197362223Y-90205812D01*
X197379166Y-90177750D01*
X197382854Y-90162943D01*
X197410916Y-90146000D01*
X197433200Y-90132913D01*
X197442666Y-90082500D01*
X197449210Y-90037932D01*
X197474416Y-90019000D01*
X197496700Y-90032087D01*
X197506166Y-90082500D01*
X197499623Y-90127068D01*
X197474416Y-90146000D01*
X197452133Y-90159087D01*
X197442666Y-90209500D01*
X197436123Y-90254068D01*
X197410916Y-90273000D01*
X197396110Y-90276688D01*
X197379166Y-90304750D01*
X197375479Y-90319557D01*
X197347416Y-90336500D01*
X197325133Y-90349587D01*
X197315666Y-90400000D01*
X197309123Y-90444568D01*
X197283916Y-90463500D01*
X197269110Y-90467188D01*
X197252166Y-90495250D01*
X197248479Y-90510057D01*
X197220416Y-90527000D01*
X197205610Y-90530688D01*
X197188666Y-90558750D01*
X197175580Y-90581034D01*
X197125166Y-90590500D01*
X197080599Y-90597043D01*
X197061666Y-90622250D01*
X197057979Y-90637057D01*
X197029916Y-90654000D01*
X197015110Y-90657688D01*
X196998166Y-90685750D01*
X196985080Y-90708034D01*
X196934666Y-90717500D01*
X196890099Y-90724043D01*
X196871166Y-90749250D01*
X196858080Y-90771534D01*
X196807666Y-90781000D01*
X196763099Y-90787543D01*
X196744166Y-90812750D01*
X196743916Y-90816575D01*
X196730502Y-90833418D01*
X196690910Y-90842061D01*
X196617166Y-90844500D01*
X196601864Y-90844562D01*
X196534495Y-90847916D01*
X196499920Y-90857814D01*
X196490166Y-90876250D01*
X196488407Y-90884616D01*
X196472820Y-90896311D01*
X196435431Y-90903455D01*
X196369408Y-90907026D01*
X196267916Y-90908000D01*
X196209356Y-90908251D01*
X196127491Y-90910478D01*
X196077477Y-90915819D01*
X196052480Y-90925251D01*
X196045666Y-90939750D01*
X196041979Y-90954557D01*
X196013916Y-90971500D01*
X195999110Y-90967812D01*
X195982166Y-90939750D01*
X195977093Y-90927213D01*
X195955664Y-90917593D01*
X195911350Y-90911724D01*
X195837677Y-90908796D01*
X195728166Y-90908000D01*
X195627871Y-90907366D01*
X195550911Y-90904687D01*
X195503958Y-90899148D01*
X195480535Y-90889939D01*
X195474166Y-90876250D01*
X195473916Y-90872424D01*
X195460502Y-90855582D01*
X195420910Y-90846938D01*
X195347166Y-90844500D01*
X195331864Y-90844437D01*
X195264495Y-90841084D01*
X195229920Y-90831186D01*
X195220166Y-90812750D01*
X195216294Y-90799283D01*
X195187697Y-90785155D01*
X195124916Y-90781000D01*
X195084517Y-90779709D01*
X195042132Y-90770177D01*
X195029666Y-90749250D01*
X195016580Y-90726966D01*
X194966166Y-90717500D01*
X194921599Y-90710956D01*
X194902666Y-90685750D01*
X194898794Y-90672283D01*
X194870197Y-90658155D01*
X194807416Y-90654000D01*
X194767017Y-90652709D01*
X194724632Y-90643177D01*
X194712166Y-90622250D01*
X194708479Y-90607443D01*
X194680416Y-90590500D01*
X194665610Y-90586812D01*
X194648666Y-90558750D01*
X194635580Y-90536466D01*
X194585166Y-90527000D01*
X194540599Y-90520456D01*
X194521666Y-90495250D01*
X194508580Y-90472966D01*
X194458166Y-90463500D01*
X194413599Y-90456956D01*
X194394666Y-90431750D01*
X194390979Y-90416943D01*
X194362916Y-90400000D01*
X194348110Y-90396312D01*
X194331166Y-90368250D01*
X194327479Y-90353443D01*
X194299416Y-90336500D01*
X194284610Y-90332812D01*
X194267666Y-90304750D01*
X194254580Y-90282466D01*
X194204166Y-90273000D01*
X194159599Y-90266456D01*
X194140666Y-90241250D01*
X194136979Y-90226443D01*
X194108916Y-90209500D01*
X194094110Y-90205812D01*
X194077166Y-90177750D01*
X194073479Y-90162943D01*
X194045416Y-90146000D01*
X194030610Y-90142312D01*
X194013666Y-90114250D01*
X194009979Y-90099443D01*
X193981916Y-90082500D01*
X193959633Y-90069413D01*
X193950166Y-90019000D01*
X193943623Y-89974432D01*
X193918416Y-89955500D01*
X193903610Y-89951812D01*
X193886666Y-89923750D01*
X193882979Y-89908943D01*
X193854916Y-89892000D01*
X193840110Y-89888312D01*
X193823166Y-89860250D01*
X193819479Y-89845443D01*
X193791416Y-89828500D01*
X193776610Y-89824812D01*
X193759666Y-89796750D01*
X193760591Y-89791472D01*
X193771299Y-89781709D01*
X193798213Y-89774622D01*
X193846558Y-89769809D01*
X193921557Y-89766869D01*
X194028435Y-89765400D01*
X194172416Y-89765000D01*
X194241032Y-89765071D01*
G37*
X194241032Y-89765071D02*
X194367953Y-89765895D01*
X194460082Y-89767965D01*
X194522643Y-89771684D01*
X194560861Y-89777453D01*
X194579961Y-89785674D01*
X194585166Y-89796750D01*
X194588854Y-89811557D01*
X194616916Y-89828500D01*
X194635432Y-89836357D01*
X194648666Y-89870833D01*
X194654559Y-89895520D01*
X194680416Y-89913167D01*
X194695223Y-89916854D01*
X194712166Y-89944917D01*
X194715854Y-89959723D01*
X194743916Y-89976667D01*
X194758723Y-89980354D01*
X194775666Y-90008417D01*
X194779354Y-90023223D01*
X194807416Y-90040167D01*
X194822223Y-90043854D01*
X194839166Y-90071917D01*
X194842854Y-90086723D01*
X194870916Y-90103667D01*
X194885522Y-90106055D01*
X194902666Y-90124833D01*
X194906249Y-90134570D01*
X194934416Y-90146000D01*
X194949187Y-90149474D01*
X194966166Y-90176068D01*
X194966174Y-90176536D01*
X194985146Y-90201626D01*
X195029666Y-90220083D01*
X195030901Y-90220358D01*
X195074919Y-90235872D01*
X195093166Y-90253515D01*
X195096735Y-90262463D01*
X195124916Y-90273000D01*
X195139663Y-90276335D01*
X195156666Y-90301963D01*
X195157320Y-90306286D01*
X195183955Y-90328010D01*
X195244384Y-90342691D01*
X195264604Y-90345908D01*
X195317600Y-90359761D01*
X195345137Y-90375550D01*
X195369154Y-90393585D01*
X195416170Y-90411200D01*
X195456144Y-90425787D01*
X195474166Y-90442189D01*
X195486423Y-90450882D01*
X195530597Y-90463075D01*
X195595875Y-90473793D01*
X195648727Y-90482026D01*
X195703402Y-90495099D01*
X195729208Y-90507646D01*
X195751862Y-90515716D01*
X195808583Y-90524793D01*
X195890395Y-90533417D01*
X195988500Y-90540473D01*
X196083060Y-90547240D01*
X196162603Y-90555628D01*
X196216397Y-90564425D01*
X196236166Y-90572559D01*
X196240531Y-90577917D01*
X196274603Y-90586935D01*
X196331416Y-90590500D01*
X196359863Y-90589674D01*
X196407742Y-90583227D01*
X196426666Y-90572477D01*
X196430326Y-90568639D01*
X196464856Y-90558808D01*
X196527998Y-90549223D01*
X196610144Y-90541506D01*
X196644909Y-90538734D01*
X196723390Y-90529882D01*
X196780561Y-90519701D01*
X196805936Y-90509885D01*
X196809810Y-90506082D01*
X196845338Y-90490818D01*
X196901204Y-90478106D01*
X196917200Y-90475246D01*
X196969384Y-90460746D01*
X196996666Y-90444761D01*
X197020379Y-90427276D01*
X197067170Y-90409967D01*
X197107136Y-90395174D01*
X197125166Y-90378220D01*
X197125180Y-90377866D01*
X197144250Y-90361773D01*
X197188667Y-90347083D01*
X197189652Y-90346863D01*
X197233837Y-90328175D01*
X197252167Y-90303068D01*
X197255835Y-90289080D01*
X197283916Y-90273000D01*
X197298723Y-90269312D01*
X197315666Y-90241250D01*
X197319354Y-90226443D01*
X197347416Y-90209500D01*
X197362223Y-90205812D01*
X197379166Y-90177750D01*
X197382854Y-90162943D01*
X197410916Y-90146000D01*
X197433200Y-90132913D01*
X197442666Y-90082500D01*
X197449210Y-90037932D01*
X197474416Y-90019000D01*
X197496700Y-90032087D01*
X197506166Y-90082500D01*
X197499623Y-90127068D01*
X197474416Y-90146000D01*
X197452133Y-90159087D01*
X197442666Y-90209500D01*
X197436123Y-90254068D01*
X197410916Y-90273000D01*
X197396110Y-90276688D01*
X197379166Y-90304750D01*
X197375479Y-90319557D01*
X197347416Y-90336500D01*
X197325133Y-90349587D01*
X197315666Y-90400000D01*
X197309123Y-90444568D01*
X197283916Y-90463500D01*
X197269110Y-90467188D01*
X197252166Y-90495250D01*
X197248479Y-90510057D01*
X197220416Y-90527000D01*
X197205610Y-90530688D01*
X197188666Y-90558750D01*
X197175580Y-90581034D01*
X197125166Y-90590500D01*
X197080599Y-90597043D01*
X197061666Y-90622250D01*
X197057979Y-90637057D01*
X197029916Y-90654000D01*
X197015110Y-90657688D01*
X196998166Y-90685750D01*
X196985080Y-90708034D01*
X196934666Y-90717500D01*
X196890099Y-90724043D01*
X196871166Y-90749250D01*
X196858080Y-90771534D01*
X196807666Y-90781000D01*
X196763099Y-90787543D01*
X196744166Y-90812750D01*
X196743916Y-90816575D01*
X196730502Y-90833418D01*
X196690910Y-90842061D01*
X196617166Y-90844500D01*
X196601864Y-90844562D01*
X196534495Y-90847916D01*
X196499920Y-90857814D01*
X196490166Y-90876250D01*
X196488407Y-90884616D01*
X196472820Y-90896311D01*
X196435431Y-90903455D01*
X196369408Y-90907026D01*
X196267916Y-90908000D01*
X196209356Y-90908251D01*
X196127491Y-90910478D01*
X196077477Y-90915819D01*
X196052480Y-90925251D01*
X196045666Y-90939750D01*
X196041979Y-90954557D01*
X196013916Y-90971500D01*
X195999110Y-90967812D01*
X195982166Y-90939750D01*
X195977093Y-90927213D01*
X195955664Y-90917593D01*
X195911350Y-90911724D01*
X195837677Y-90908796D01*
X195728166Y-90908000D01*
X195627871Y-90907366D01*
X195550911Y-90904687D01*
X195503958Y-90899148D01*
X195480535Y-90889939D01*
X195474166Y-90876250D01*
X195473916Y-90872424D01*
X195460502Y-90855582D01*
X195420910Y-90846938D01*
X195347166Y-90844500D01*
X195331864Y-90844437D01*
X195264495Y-90841084D01*
X195229920Y-90831186D01*
X195220166Y-90812750D01*
X195216294Y-90799283D01*
X195187697Y-90785155D01*
X195124916Y-90781000D01*
X195084517Y-90779709D01*
X195042132Y-90770177D01*
X195029666Y-90749250D01*
X195016580Y-90726966D01*
X194966166Y-90717500D01*
X194921599Y-90710956D01*
X194902666Y-90685750D01*
X194898794Y-90672283D01*
X194870197Y-90658155D01*
X194807416Y-90654000D01*
X194767017Y-90652709D01*
X194724632Y-90643177D01*
X194712166Y-90622250D01*
X194708479Y-90607443D01*
X194680416Y-90590500D01*
X194665610Y-90586812D01*
X194648666Y-90558750D01*
X194635580Y-90536466D01*
X194585166Y-90527000D01*
X194540599Y-90520456D01*
X194521666Y-90495250D01*
X194508580Y-90472966D01*
X194458166Y-90463500D01*
X194413599Y-90456956D01*
X194394666Y-90431750D01*
X194390979Y-90416943D01*
X194362916Y-90400000D01*
X194348110Y-90396312D01*
X194331166Y-90368250D01*
X194327479Y-90353443D01*
X194299416Y-90336500D01*
X194284610Y-90332812D01*
X194267666Y-90304750D01*
X194254580Y-90282466D01*
X194204166Y-90273000D01*
X194159599Y-90266456D01*
X194140666Y-90241250D01*
X194136979Y-90226443D01*
X194108916Y-90209500D01*
X194094110Y-90205812D01*
X194077166Y-90177750D01*
X194073479Y-90162943D01*
X194045416Y-90146000D01*
X194030610Y-90142312D01*
X194013666Y-90114250D01*
X194009979Y-90099443D01*
X193981916Y-90082500D01*
X193959633Y-90069413D01*
X193950166Y-90019000D01*
X193943623Y-89974432D01*
X193918416Y-89955500D01*
X193903610Y-89951812D01*
X193886666Y-89923750D01*
X193882979Y-89908943D01*
X193854916Y-89892000D01*
X193840110Y-89888312D01*
X193823166Y-89860250D01*
X193819479Y-89845443D01*
X193791416Y-89828500D01*
X193776610Y-89824812D01*
X193759666Y-89796750D01*
X193760591Y-89791472D01*
X193771299Y-89781709D01*
X193798213Y-89774622D01*
X193846558Y-89769809D01*
X193921557Y-89766869D01*
X194028435Y-89765400D01*
X194172416Y-89765000D01*
X194241032Y-89765071D01*
G36*
X188150705Y-88389649D02*
G01*
X188226611Y-88393332D01*
X188279079Y-88399849D01*
X188298666Y-88408255D01*
X188312758Y-88418603D01*
X188358769Y-88431437D01*
X188425666Y-88442083D01*
X188483660Y-88450624D01*
X188533498Y-88462314D01*
X188552666Y-88473124D01*
X188555806Y-88477818D01*
X188587459Y-88490670D01*
X188642170Y-88501431D01*
X188664719Y-88505137D01*
X188715405Y-88519511D01*
X188739184Y-88535968D01*
X188744807Y-88545090D01*
X188776680Y-88558500D01*
X188789870Y-88561584D01*
X188806666Y-88588568D01*
X188806674Y-88589036D01*
X188825646Y-88614126D01*
X188870166Y-88632583D01*
X188871401Y-88632858D01*
X188915419Y-88648372D01*
X188933666Y-88666015D01*
X188937235Y-88674963D01*
X188965416Y-88685500D01*
X188980223Y-88689188D01*
X188997166Y-88717250D01*
X189000854Y-88732057D01*
X189028916Y-88749000D01*
X189043723Y-88752688D01*
X189060666Y-88780750D01*
X189064354Y-88795557D01*
X189092416Y-88812500D01*
X189114700Y-88825587D01*
X189124166Y-88876000D01*
X189130710Y-88920568D01*
X189155916Y-88939500D01*
X189170723Y-88943188D01*
X189187666Y-88971250D01*
X189191354Y-88986057D01*
X189219416Y-89003000D01*
X189232883Y-89006873D01*
X189247011Y-89035469D01*
X189251166Y-89098250D01*
X189252457Y-89138649D01*
X189261990Y-89181034D01*
X189282916Y-89193500D01*
X189286512Y-89193815D01*
X189298473Y-89203233D01*
X189306585Y-89230324D01*
X189311531Y-89281249D01*
X189313997Y-89362171D01*
X189314666Y-89479250D01*
X189314631Y-89511605D01*
X189313585Y-89619258D01*
X189310575Y-89692262D01*
X189304917Y-89736779D01*
X189295925Y-89758972D01*
X189282916Y-89765000D01*
X189260633Y-89778087D01*
X189251166Y-89828500D01*
X189244623Y-89873068D01*
X189219416Y-89892000D01*
X189204610Y-89895688D01*
X189187666Y-89923750D01*
X189183979Y-89938557D01*
X189155916Y-89955500D01*
X189141110Y-89959188D01*
X189124166Y-89987250D01*
X189111080Y-90009534D01*
X189060666Y-90019000D01*
X189016099Y-90025543D01*
X188997166Y-90050750D01*
X188984080Y-90073034D01*
X188933666Y-90082500D01*
X188889099Y-90089043D01*
X188870166Y-90114250D01*
X188870041Y-90116372D01*
X188862693Y-90127307D01*
X188840119Y-90135241D01*
X188796900Y-90140626D01*
X188727615Y-90143912D01*
X188626844Y-90145553D01*
X188489166Y-90146000D01*
X188463696Y-90145989D01*
X188332477Y-90145377D01*
X188237271Y-90143496D01*
X188172657Y-90139894D01*
X188133215Y-90134121D01*
X188113525Y-90125723D01*
X188108166Y-90114250D01*
X188104294Y-90100783D01*
X188075697Y-90086655D01*
X188012916Y-90082500D01*
X187972517Y-90081209D01*
X187930132Y-90071677D01*
X187917666Y-90050750D01*
X187913979Y-90035943D01*
X187885916Y-90019000D01*
X187863633Y-90005913D01*
X187854166Y-89955500D01*
X187847623Y-89910932D01*
X187822416Y-89892000D01*
X187808950Y-89888127D01*
X187794822Y-89859530D01*
X187790666Y-89796750D01*
X187789376Y-89756351D01*
X187779843Y-89713965D01*
X187758916Y-89701500D01*
X187744110Y-89697812D01*
X187727166Y-89669750D01*
X187730854Y-89654943D01*
X187758916Y-89638000D01*
X187773522Y-89635612D01*
X187790666Y-89616833D01*
X187794249Y-89607096D01*
X187822416Y-89595667D01*
X187837022Y-89598055D01*
X187854166Y-89616833D01*
X187857749Y-89626570D01*
X187885916Y-89638000D01*
X187900687Y-89641474D01*
X187917666Y-89668068D01*
X187917674Y-89668536D01*
X187936646Y-89693626D01*
X187981166Y-89712083D01*
X187982458Y-89712370D01*
X188026438Y-89727257D01*
X188044666Y-89743437D01*
X188058766Y-89753020D01*
X188104777Y-89765192D01*
X188171666Y-89775583D01*
X188229634Y-89784429D01*
X188279490Y-89797131D01*
X188298666Y-89809411D01*
X188312668Y-89818098D01*
X188358686Y-89825610D01*
X188425666Y-89828500D01*
X188483461Y-89826352D01*
X188533439Y-89819291D01*
X188552666Y-89809015D01*
X188552678Y-89808633D01*
X188571729Y-89790942D01*
X188616166Y-89775583D01*
X188617152Y-89775363D01*
X188661337Y-89756675D01*
X188679666Y-89731568D01*
X188683335Y-89717580D01*
X188711416Y-89701500D01*
X188733700Y-89688413D01*
X188743166Y-89638000D01*
X188749710Y-89593432D01*
X188774916Y-89574500D01*
X188778742Y-89574249D01*
X188795584Y-89560835D01*
X188804228Y-89521243D01*
X188806666Y-89447500D01*
X188806604Y-89432198D01*
X188803250Y-89364828D01*
X188793352Y-89330253D01*
X188774916Y-89320500D01*
X188771091Y-89320249D01*
X188754249Y-89306835D01*
X188745605Y-89267243D01*
X188743166Y-89193500D01*
X188743104Y-89178198D01*
X188739750Y-89110828D01*
X188729852Y-89076253D01*
X188711416Y-89066500D01*
X188696610Y-89062812D01*
X188679666Y-89034750D01*
X188675979Y-89019943D01*
X188647916Y-89003000D01*
X188633110Y-88999312D01*
X188616166Y-88971250D01*
X188612479Y-88956443D01*
X188584416Y-88939500D01*
X188569610Y-88935812D01*
X188552666Y-88907750D01*
X188548979Y-88892943D01*
X188520916Y-88876000D01*
X188506110Y-88872312D01*
X188489166Y-88844250D01*
X188476080Y-88821966D01*
X188425666Y-88812500D01*
X188381099Y-88805956D01*
X188362166Y-88780750D01*
X188360407Y-88772384D01*
X188344820Y-88760689D01*
X188307431Y-88753544D01*
X188241408Y-88749973D01*
X188139916Y-88749000D01*
X188081356Y-88749251D01*
X187999491Y-88751478D01*
X187949477Y-88756819D01*
X187924480Y-88766251D01*
X187917666Y-88780750D01*
X187904580Y-88803034D01*
X187854166Y-88812500D01*
X187809599Y-88819043D01*
X187790666Y-88844250D01*
X187786979Y-88859057D01*
X187758916Y-88876000D01*
X187744110Y-88879688D01*
X187727166Y-88907750D01*
X187714080Y-88930034D01*
X187663666Y-88939500D01*
X187619099Y-88932956D01*
X187600166Y-88907750D01*
X187596479Y-88892943D01*
X187568416Y-88876000D01*
X187554950Y-88872127D01*
X187540822Y-88843530D01*
X187536666Y-88780750D01*
X187535376Y-88740351D01*
X187525843Y-88697965D01*
X187504916Y-88685500D01*
X187497042Y-88684395D01*
X187478732Y-88661239D01*
X187473166Y-88603302D01*
X187475503Y-88566928D01*
X187494270Y-88523541D01*
X187538484Y-88501651D01*
X187616041Y-88495289D01*
X187645705Y-88490927D01*
X187663666Y-88475911D01*
X187677758Y-88465563D01*
X187723769Y-88452730D01*
X187790666Y-88442083D01*
X187848634Y-88433237D01*
X187898490Y-88420535D01*
X187917666Y-88408255D01*
X187922486Y-88403992D01*
X187959237Y-88396387D01*
X188024278Y-88391129D01*
X188108166Y-88389167D01*
X188150705Y-88389649D01*
G37*
X188150705Y-88389649D02*
X188226611Y-88393332D01*
X188279079Y-88399849D01*
X188298666Y-88408255D01*
X188312758Y-88418603D01*
X188358769Y-88431437D01*
X188425666Y-88442083D01*
X188483660Y-88450624D01*
X188533498Y-88462314D01*
X188552666Y-88473124D01*
X188555806Y-88477818D01*
X188587459Y-88490670D01*
X188642170Y-88501431D01*
X188664719Y-88505137D01*
X188715405Y-88519511D01*
X188739184Y-88535968D01*
X188744807Y-88545090D01*
X188776680Y-88558500D01*
X188789870Y-88561584D01*
X188806666Y-88588568D01*
X188806674Y-88589036D01*
X188825646Y-88614126D01*
X188870166Y-88632583D01*
X188871401Y-88632858D01*
X188915419Y-88648372D01*
X188933666Y-88666015D01*
X188937235Y-88674963D01*
X188965416Y-88685500D01*
X188980223Y-88689188D01*
X188997166Y-88717250D01*
X189000854Y-88732057D01*
X189028916Y-88749000D01*
X189043723Y-88752688D01*
X189060666Y-88780750D01*
X189064354Y-88795557D01*
X189092416Y-88812500D01*
X189114700Y-88825587D01*
X189124166Y-88876000D01*
X189130710Y-88920568D01*
X189155916Y-88939500D01*
X189170723Y-88943188D01*
X189187666Y-88971250D01*
X189191354Y-88986057D01*
X189219416Y-89003000D01*
X189232883Y-89006873D01*
X189247011Y-89035469D01*
X189251166Y-89098250D01*
X189252457Y-89138649D01*
X189261990Y-89181034D01*
X189282916Y-89193500D01*
X189286512Y-89193815D01*
X189298473Y-89203233D01*
X189306585Y-89230324D01*
X189311531Y-89281249D01*
X189313997Y-89362171D01*
X189314666Y-89479250D01*
X189314631Y-89511605D01*
X189313585Y-89619258D01*
X189310575Y-89692262D01*
X189304917Y-89736779D01*
X189295925Y-89758972D01*
X189282916Y-89765000D01*
X189260633Y-89778087D01*
X189251166Y-89828500D01*
X189244623Y-89873068D01*
X189219416Y-89892000D01*
X189204610Y-89895688D01*
X189187666Y-89923750D01*
X189183979Y-89938557D01*
X189155916Y-89955500D01*
X189141110Y-89959188D01*
X189124166Y-89987250D01*
X189111080Y-90009534D01*
X189060666Y-90019000D01*
X189016099Y-90025543D01*
X188997166Y-90050750D01*
X188984080Y-90073034D01*
X188933666Y-90082500D01*
X188889099Y-90089043D01*
X188870166Y-90114250D01*
X188870041Y-90116372D01*
X188862693Y-90127307D01*
X188840119Y-90135241D01*
X188796900Y-90140626D01*
X188727615Y-90143912D01*
X188626844Y-90145553D01*
X188489166Y-90146000D01*
X188463696Y-90145989D01*
X188332477Y-90145377D01*
X188237271Y-90143496D01*
X188172657Y-90139894D01*
X188133215Y-90134121D01*
X188113525Y-90125723D01*
X188108166Y-90114250D01*
X188104294Y-90100783D01*
X188075697Y-90086655D01*
X188012916Y-90082500D01*
X187972517Y-90081209D01*
X187930132Y-90071677D01*
X187917666Y-90050750D01*
X187913979Y-90035943D01*
X187885916Y-90019000D01*
X187863633Y-90005913D01*
X187854166Y-89955500D01*
X187847623Y-89910932D01*
X187822416Y-89892000D01*
X187808950Y-89888127D01*
X187794822Y-89859530D01*
X187790666Y-89796750D01*
X187789376Y-89756351D01*
X187779843Y-89713965D01*
X187758916Y-89701500D01*
X187744110Y-89697812D01*
X187727166Y-89669750D01*
X187730854Y-89654943D01*
X187758916Y-89638000D01*
X187773522Y-89635612D01*
X187790666Y-89616833D01*
X187794249Y-89607096D01*
X187822416Y-89595667D01*
X187837022Y-89598055D01*
X187854166Y-89616833D01*
X187857749Y-89626570D01*
X187885916Y-89638000D01*
X187900687Y-89641474D01*
X187917666Y-89668068D01*
X187917674Y-89668536D01*
X187936646Y-89693626D01*
X187981166Y-89712083D01*
X187982458Y-89712370D01*
X188026438Y-89727257D01*
X188044666Y-89743437D01*
X188058766Y-89753020D01*
X188104777Y-89765192D01*
X188171666Y-89775583D01*
X188229634Y-89784429D01*
X188279490Y-89797131D01*
X188298666Y-89809411D01*
X188312668Y-89818098D01*
X188358686Y-89825610D01*
X188425666Y-89828500D01*
X188483461Y-89826352D01*
X188533439Y-89819291D01*
X188552666Y-89809015D01*
X188552678Y-89808633D01*
X188571729Y-89790942D01*
X188616166Y-89775583D01*
X188617152Y-89775363D01*
X188661337Y-89756675D01*
X188679666Y-89731568D01*
X188683335Y-89717580D01*
X188711416Y-89701500D01*
X188733700Y-89688413D01*
X188743166Y-89638000D01*
X188749710Y-89593432D01*
X188774916Y-89574500D01*
X188778742Y-89574249D01*
X188795584Y-89560835D01*
X188804228Y-89521243D01*
X188806666Y-89447500D01*
X188806604Y-89432198D01*
X188803250Y-89364828D01*
X188793352Y-89330253D01*
X188774916Y-89320500D01*
X188771091Y-89320249D01*
X188754249Y-89306835D01*
X188745605Y-89267243D01*
X188743166Y-89193500D01*
X188743104Y-89178198D01*
X188739750Y-89110828D01*
X188729852Y-89076253D01*
X188711416Y-89066500D01*
X188696610Y-89062812D01*
X188679666Y-89034750D01*
X188675979Y-89019943D01*
X188647916Y-89003000D01*
X188633110Y-88999312D01*
X188616166Y-88971250D01*
X188612479Y-88956443D01*
X188584416Y-88939500D01*
X188569610Y-88935812D01*
X188552666Y-88907750D01*
X188548979Y-88892943D01*
X188520916Y-88876000D01*
X188506110Y-88872312D01*
X188489166Y-88844250D01*
X188476080Y-88821966D01*
X188425666Y-88812500D01*
X188381099Y-88805956D01*
X188362166Y-88780750D01*
X188360407Y-88772384D01*
X188344820Y-88760689D01*
X188307431Y-88753544D01*
X188241408Y-88749973D01*
X188139916Y-88749000D01*
X188081356Y-88749251D01*
X187999491Y-88751478D01*
X187949477Y-88756819D01*
X187924480Y-88766251D01*
X187917666Y-88780750D01*
X187904580Y-88803034D01*
X187854166Y-88812500D01*
X187809599Y-88819043D01*
X187790666Y-88844250D01*
X187786979Y-88859057D01*
X187758916Y-88876000D01*
X187744110Y-88879688D01*
X187727166Y-88907750D01*
X187714080Y-88930034D01*
X187663666Y-88939500D01*
X187619099Y-88932956D01*
X187600166Y-88907750D01*
X187596479Y-88892943D01*
X187568416Y-88876000D01*
X187554950Y-88872127D01*
X187540822Y-88843530D01*
X187536666Y-88780750D01*
X187535376Y-88740351D01*
X187525843Y-88697965D01*
X187504916Y-88685500D01*
X187497042Y-88684395D01*
X187478732Y-88661239D01*
X187473166Y-88603302D01*
X187475503Y-88566928D01*
X187494270Y-88523541D01*
X187538484Y-88501651D01*
X187616041Y-88495289D01*
X187645705Y-88490927D01*
X187663666Y-88475911D01*
X187677758Y-88465563D01*
X187723769Y-88452730D01*
X187790666Y-88442083D01*
X187848634Y-88433237D01*
X187898490Y-88420535D01*
X187917666Y-88408255D01*
X187922486Y-88403992D01*
X187959237Y-88396387D01*
X188024278Y-88391129D01*
X188108166Y-88389167D01*
X188150705Y-88389649D01*
G36*
X184340705Y-88389649D02*
G01*
X184416611Y-88393332D01*
X184469079Y-88399849D01*
X184488666Y-88408255D01*
X184502758Y-88418603D01*
X184548769Y-88431437D01*
X184615666Y-88442083D01*
X184673649Y-88450745D01*
X184723495Y-88462837D01*
X184742666Y-88474230D01*
X184742680Y-88474587D01*
X184761748Y-88490830D01*
X184806166Y-88505583D01*
X184807447Y-88505868D01*
X184851434Y-88520874D01*
X184869666Y-88537333D01*
X184869679Y-88537695D01*
X184888745Y-88554215D01*
X184933166Y-88569083D01*
X184934401Y-88569358D01*
X184978419Y-88584872D01*
X184996666Y-88602515D01*
X185000235Y-88611463D01*
X185028416Y-88622000D01*
X185043223Y-88625688D01*
X185060166Y-88653750D01*
X185063854Y-88668557D01*
X185091916Y-88685500D01*
X185106723Y-88689188D01*
X185123666Y-88717250D01*
X185127354Y-88732057D01*
X185155416Y-88749000D01*
X185170223Y-88752688D01*
X185187166Y-88780750D01*
X185190854Y-88795557D01*
X185218916Y-88812500D01*
X185233723Y-88816188D01*
X185250666Y-88844250D01*
X185254354Y-88859057D01*
X185282416Y-88876000D01*
X185304700Y-88889087D01*
X185314166Y-88939500D01*
X185320710Y-88984068D01*
X185345916Y-89003000D01*
X185368200Y-89016087D01*
X185377666Y-89066500D01*
X185384210Y-89111068D01*
X185409416Y-89130000D01*
X185416962Y-89131724D01*
X185427245Y-89145539D01*
X185434218Y-89178140D01*
X185438471Y-89235411D01*
X185440591Y-89323236D01*
X185441166Y-89447500D01*
X185440994Y-89522954D01*
X185439613Y-89625782D01*
X185436352Y-89695516D01*
X185430625Y-89738041D01*
X185421843Y-89759241D01*
X185409416Y-89765000D01*
X185387133Y-89778087D01*
X185377666Y-89828500D01*
X185371123Y-89873068D01*
X185345916Y-89892000D01*
X185331110Y-89895688D01*
X185314166Y-89923750D01*
X185310479Y-89938557D01*
X185282416Y-89955500D01*
X185267610Y-89959188D01*
X185250666Y-89987250D01*
X185237580Y-90009534D01*
X185187166Y-90019000D01*
X185142599Y-90025543D01*
X185123666Y-90050750D01*
X185110580Y-90073034D01*
X185060166Y-90082500D01*
X185015599Y-90089043D01*
X184996666Y-90114250D01*
X184992522Y-90124864D01*
X184974318Y-90133840D01*
X184936344Y-90139929D01*
X184872962Y-90143643D01*
X184778532Y-90145496D01*
X184647416Y-90146000D01*
X184530656Y-90145623D01*
X184431923Y-90143968D01*
X184364946Y-90140516D01*
X184324087Y-90134754D01*
X184303707Y-90126169D01*
X184298166Y-90114250D01*
X184294294Y-90100783D01*
X184265697Y-90086655D01*
X184202916Y-90082500D01*
X184162517Y-90081209D01*
X184120132Y-90071677D01*
X184107666Y-90050750D01*
X184094580Y-90028466D01*
X184044166Y-90019000D01*
X184010651Y-90017054D01*
X183985911Y-90000477D01*
X183980666Y-89955500D01*
X183974123Y-89910932D01*
X183948916Y-89892000D01*
X183938977Y-89889840D01*
X183925748Y-89870408D01*
X183919034Y-89824335D01*
X183917166Y-89743833D01*
X183917629Y-89697447D01*
X183921793Y-89635712D01*
X183931666Y-89604380D01*
X183948916Y-89595667D01*
X183963522Y-89598055D01*
X183980666Y-89616833D01*
X183984249Y-89626570D01*
X184012416Y-89638000D01*
X184027223Y-89641688D01*
X184044166Y-89669750D01*
X184057253Y-89692034D01*
X184107666Y-89701500D01*
X184152089Y-89708190D01*
X184171166Y-89731172D01*
X184178020Y-89744769D01*
X184218541Y-89762246D01*
X184298166Y-89775583D01*
X184356134Y-89784429D01*
X184405990Y-89797131D01*
X184425166Y-89809411D01*
X184439168Y-89818098D01*
X184485186Y-89825610D01*
X184552166Y-89828500D01*
X184609961Y-89826352D01*
X184659939Y-89819291D01*
X184679166Y-89809015D01*
X184679178Y-89808633D01*
X184698229Y-89790942D01*
X184742666Y-89775583D01*
X184743652Y-89775363D01*
X184787837Y-89756675D01*
X184806166Y-89731568D01*
X184809835Y-89717580D01*
X184837916Y-89701500D01*
X184852723Y-89697812D01*
X184869666Y-89669750D01*
X184873354Y-89654943D01*
X184901416Y-89638000D01*
X184909782Y-89636241D01*
X184921477Y-89620653D01*
X184928622Y-89583264D01*
X184932193Y-89517241D01*
X184933166Y-89415750D01*
X184932915Y-89357189D01*
X184930688Y-89275324D01*
X184925347Y-89225310D01*
X184915915Y-89200314D01*
X184901416Y-89193500D01*
X184879133Y-89180413D01*
X184869666Y-89130000D01*
X184863123Y-89085432D01*
X184837916Y-89066500D01*
X184815633Y-89053413D01*
X184806166Y-89003000D01*
X184799623Y-88958432D01*
X184774416Y-88939500D01*
X184759610Y-88935812D01*
X184742666Y-88907750D01*
X184729580Y-88885466D01*
X184679166Y-88876000D01*
X184634599Y-88869456D01*
X184615666Y-88844250D01*
X184602580Y-88821966D01*
X184552166Y-88812500D01*
X184507599Y-88805956D01*
X184488666Y-88780750D01*
X184488566Y-88778443D01*
X184479069Y-88763753D01*
X184448993Y-88754753D01*
X184391104Y-88750237D01*
X184298166Y-88749000D01*
X184284323Y-88749017D01*
X184196184Y-88750599D01*
X184142185Y-88755612D01*
X184115090Y-88765260D01*
X184107666Y-88780750D01*
X184094580Y-88803034D01*
X184044166Y-88812500D01*
X183999599Y-88819043D01*
X183980666Y-88844250D01*
X183967580Y-88866534D01*
X183917166Y-88876000D01*
X183872599Y-88882543D01*
X183853666Y-88907750D01*
X183849979Y-88922557D01*
X183821916Y-88939500D01*
X183807110Y-88943188D01*
X183790166Y-88971250D01*
X183786479Y-88986057D01*
X183758416Y-89003000D01*
X183736133Y-88989913D01*
X183726666Y-88939500D01*
X183720123Y-88894932D01*
X183694916Y-88876000D01*
X183691091Y-88875749D01*
X183674249Y-88862335D01*
X183665605Y-88822743D01*
X183663166Y-88749000D01*
X183663104Y-88733698D01*
X183659750Y-88666328D01*
X183649852Y-88631753D01*
X183631416Y-88622000D01*
X183616610Y-88618312D01*
X183599666Y-88590250D01*
X183603354Y-88575443D01*
X183631416Y-88558500D01*
X183645989Y-88556381D01*
X183663166Y-88539628D01*
X183679214Y-88522602D01*
X183721163Y-88506200D01*
X183763450Y-88491355D01*
X183790860Y-88472710D01*
X183791652Y-88471729D01*
X183820513Y-88460479D01*
X183878875Y-88448988D01*
X183955114Y-88439599D01*
X183964930Y-88438649D01*
X184037214Y-88429100D01*
X184088300Y-88417906D01*
X184107666Y-88407294D01*
X184112486Y-88403246D01*
X184149236Y-88396023D01*
X184214277Y-88391030D01*
X184298166Y-88389167D01*
X184340705Y-88389649D01*
G37*
X184340705Y-88389649D02*
X184416611Y-88393332D01*
X184469079Y-88399849D01*
X184488666Y-88408255D01*
X184502758Y-88418603D01*
X184548769Y-88431437D01*
X184615666Y-88442083D01*
X184673649Y-88450745D01*
X184723495Y-88462837D01*
X184742666Y-88474230D01*
X184742680Y-88474587D01*
X184761748Y-88490830D01*
X184806166Y-88505583D01*
X184807447Y-88505868D01*
X184851434Y-88520874D01*
X184869666Y-88537333D01*
X184869679Y-88537695D01*
X184888745Y-88554215D01*
X184933166Y-88569083D01*
X184934401Y-88569358D01*
X184978419Y-88584872D01*
X184996666Y-88602515D01*
X185000235Y-88611463D01*
X185028416Y-88622000D01*
X185043223Y-88625688D01*
X185060166Y-88653750D01*
X185063854Y-88668557D01*
X185091916Y-88685500D01*
X185106723Y-88689188D01*
X185123666Y-88717250D01*
X185127354Y-88732057D01*
X185155416Y-88749000D01*
X185170223Y-88752688D01*
X185187166Y-88780750D01*
X185190854Y-88795557D01*
X185218916Y-88812500D01*
X185233723Y-88816188D01*
X185250666Y-88844250D01*
X185254354Y-88859057D01*
X185282416Y-88876000D01*
X185304700Y-88889087D01*
X185314166Y-88939500D01*
X185320710Y-88984068D01*
X185345916Y-89003000D01*
X185368200Y-89016087D01*
X185377666Y-89066500D01*
X185384210Y-89111068D01*
X185409416Y-89130000D01*
X185416962Y-89131724D01*
X185427245Y-89145539D01*
X185434218Y-89178140D01*
X185438471Y-89235411D01*
X185440591Y-89323236D01*
X185441166Y-89447500D01*
X185440994Y-89522954D01*
X185439613Y-89625782D01*
X185436352Y-89695516D01*
X185430625Y-89738041D01*
X185421843Y-89759241D01*
X185409416Y-89765000D01*
X185387133Y-89778087D01*
X185377666Y-89828500D01*
X185371123Y-89873068D01*
X185345916Y-89892000D01*
X185331110Y-89895688D01*
X185314166Y-89923750D01*
X185310479Y-89938557D01*
X185282416Y-89955500D01*
X185267610Y-89959188D01*
X185250666Y-89987250D01*
X185237580Y-90009534D01*
X185187166Y-90019000D01*
X185142599Y-90025543D01*
X185123666Y-90050750D01*
X185110580Y-90073034D01*
X185060166Y-90082500D01*
X185015599Y-90089043D01*
X184996666Y-90114250D01*
X184992522Y-90124864D01*
X184974318Y-90133840D01*
X184936344Y-90139929D01*
X184872962Y-90143643D01*
X184778532Y-90145496D01*
X184647416Y-90146000D01*
X184530656Y-90145623D01*
X184431923Y-90143968D01*
X184364946Y-90140516D01*
X184324087Y-90134754D01*
X184303707Y-90126169D01*
X184298166Y-90114250D01*
X184294294Y-90100783D01*
X184265697Y-90086655D01*
X184202916Y-90082500D01*
X184162517Y-90081209D01*
X184120132Y-90071677D01*
X184107666Y-90050750D01*
X184094580Y-90028466D01*
X184044166Y-90019000D01*
X184010651Y-90017054D01*
X183985911Y-90000477D01*
X183980666Y-89955500D01*
X183974123Y-89910932D01*
X183948916Y-89892000D01*
X183938977Y-89889840D01*
X183925748Y-89870408D01*
X183919034Y-89824335D01*
X183917166Y-89743833D01*
X183917629Y-89697447D01*
X183921793Y-89635712D01*
X183931666Y-89604380D01*
X183948916Y-89595667D01*
X183963522Y-89598055D01*
X183980666Y-89616833D01*
X183984249Y-89626570D01*
X184012416Y-89638000D01*
X184027223Y-89641688D01*
X184044166Y-89669750D01*
X184057253Y-89692034D01*
X184107666Y-89701500D01*
X184152089Y-89708190D01*
X184171166Y-89731172D01*
X184178020Y-89744769D01*
X184218541Y-89762246D01*
X184298166Y-89775583D01*
X184356134Y-89784429D01*
X184405990Y-89797131D01*
X184425166Y-89809411D01*
X184439168Y-89818098D01*
X184485186Y-89825610D01*
X184552166Y-89828500D01*
X184609961Y-89826352D01*
X184659939Y-89819291D01*
X184679166Y-89809015D01*
X184679178Y-89808633D01*
X184698229Y-89790942D01*
X184742666Y-89775583D01*
X184743652Y-89775363D01*
X184787837Y-89756675D01*
X184806166Y-89731568D01*
X184809835Y-89717580D01*
X184837916Y-89701500D01*
X184852723Y-89697812D01*
X184869666Y-89669750D01*
X184873354Y-89654943D01*
X184901416Y-89638000D01*
X184909782Y-89636241D01*
X184921477Y-89620653D01*
X184928622Y-89583264D01*
X184932193Y-89517241D01*
X184933166Y-89415750D01*
X184932915Y-89357189D01*
X184930688Y-89275324D01*
X184925347Y-89225310D01*
X184915915Y-89200314D01*
X184901416Y-89193500D01*
X184879133Y-89180413D01*
X184869666Y-89130000D01*
X184863123Y-89085432D01*
X184837916Y-89066500D01*
X184815633Y-89053413D01*
X184806166Y-89003000D01*
X184799623Y-88958432D01*
X184774416Y-88939500D01*
X184759610Y-88935812D01*
X184742666Y-88907750D01*
X184729580Y-88885466D01*
X184679166Y-88876000D01*
X184634599Y-88869456D01*
X184615666Y-88844250D01*
X184602580Y-88821966D01*
X184552166Y-88812500D01*
X184507599Y-88805956D01*
X184488666Y-88780750D01*
X184488566Y-88778443D01*
X184479069Y-88763753D01*
X184448993Y-88754753D01*
X184391104Y-88750237D01*
X184298166Y-88749000D01*
X184284323Y-88749017D01*
X184196184Y-88750599D01*
X184142185Y-88755612D01*
X184115090Y-88765260D01*
X184107666Y-88780750D01*
X184094580Y-88803034D01*
X184044166Y-88812500D01*
X183999599Y-88819043D01*
X183980666Y-88844250D01*
X183967580Y-88866534D01*
X183917166Y-88876000D01*
X183872599Y-88882543D01*
X183853666Y-88907750D01*
X183849979Y-88922557D01*
X183821916Y-88939500D01*
X183807110Y-88943188D01*
X183790166Y-88971250D01*
X183786479Y-88986057D01*
X183758416Y-89003000D01*
X183736133Y-88989913D01*
X183726666Y-88939500D01*
X183720123Y-88894932D01*
X183694916Y-88876000D01*
X183691091Y-88875749D01*
X183674249Y-88862335D01*
X183665605Y-88822743D01*
X183663166Y-88749000D01*
X183663104Y-88733698D01*
X183659750Y-88666328D01*
X183649852Y-88631753D01*
X183631416Y-88622000D01*
X183616610Y-88618312D01*
X183599666Y-88590250D01*
X183603354Y-88575443D01*
X183631416Y-88558500D01*
X183645989Y-88556381D01*
X183663166Y-88539628D01*
X183679214Y-88522602D01*
X183721163Y-88506200D01*
X183763450Y-88491355D01*
X183790860Y-88472710D01*
X183791652Y-88471729D01*
X183820513Y-88460479D01*
X183878875Y-88448988D01*
X183955114Y-88439599D01*
X183964930Y-88438649D01*
X184037214Y-88429100D01*
X184088300Y-88417906D01*
X184107666Y-88407294D01*
X184112486Y-88403246D01*
X184149236Y-88396023D01*
X184214277Y-88391030D01*
X184298166Y-88389167D01*
X184340705Y-88389649D01*
G36*
X187232481Y-89183746D02*
G01*
X187250916Y-89193500D01*
X187254742Y-89193750D01*
X187271584Y-89207164D01*
X187280228Y-89246757D01*
X187282666Y-89320500D01*
X187282729Y-89335802D01*
X187286083Y-89403171D01*
X187295981Y-89437746D01*
X187314416Y-89447500D01*
X187318242Y-89447750D01*
X187335084Y-89461164D01*
X187343728Y-89500757D01*
X187346166Y-89574500D01*
X187346229Y-89589802D01*
X187349583Y-89657171D01*
X187359481Y-89691746D01*
X187377916Y-89701500D01*
X187381742Y-89701750D01*
X187398584Y-89715164D01*
X187407228Y-89754757D01*
X187409666Y-89828500D01*
X187409729Y-89843802D01*
X187413083Y-89911171D01*
X187422981Y-89945746D01*
X187441416Y-89955500D01*
X187454883Y-89959373D01*
X187469011Y-89987969D01*
X187473166Y-90050750D01*
X187473166Y-90146000D01*
X186965166Y-90146000D01*
X186965166Y-90082500D01*
X186958623Y-90037932D01*
X186933416Y-90019000D01*
X186929591Y-90018749D01*
X186912749Y-90005335D01*
X186904105Y-89965743D01*
X186901666Y-89892000D01*
X186901604Y-89876698D01*
X186898250Y-89809328D01*
X186888352Y-89774753D01*
X186869916Y-89765000D01*
X186856450Y-89761127D01*
X186842322Y-89732530D01*
X186838166Y-89669750D01*
X186838166Y-89574500D01*
X186552416Y-89574500D01*
X186520061Y-89574465D01*
X186412409Y-89573418D01*
X186339404Y-89570408D01*
X186294887Y-89564750D01*
X186272695Y-89555759D01*
X186266666Y-89542750D01*
X186266416Y-89538924D01*
X186253002Y-89522082D01*
X186213410Y-89513438D01*
X186139666Y-89511000D01*
X186124364Y-89510937D01*
X186056995Y-89507584D01*
X186022420Y-89497686D01*
X186012666Y-89479250D01*
X185999580Y-89456966D01*
X185949166Y-89447500D01*
X185904599Y-89440956D01*
X185885666Y-89415750D01*
X185881979Y-89400943D01*
X185853916Y-89384000D01*
X185839110Y-89380312D01*
X185822166Y-89352250D01*
X185818479Y-89337443D01*
X185790416Y-89320500D01*
X185775610Y-89316812D01*
X185758666Y-89288750D01*
X185754979Y-89273943D01*
X185726916Y-89257000D01*
X185712110Y-89253312D01*
X185695166Y-89225250D01*
X185691479Y-89210443D01*
X185663416Y-89193500D01*
X185659591Y-89193249D01*
X185642749Y-89179835D01*
X185634105Y-89140243D01*
X185631666Y-89066500D01*
X185631604Y-89051198D01*
X185628250Y-88983828D01*
X185624649Y-88971250D01*
X186139666Y-88971250D01*
X186140957Y-89011649D01*
X186150490Y-89054034D01*
X186171416Y-89066500D01*
X186186223Y-89070188D01*
X186203166Y-89098250D01*
X186206854Y-89113057D01*
X186234916Y-89130000D01*
X186249670Y-89133375D01*
X186266666Y-89159281D01*
X186285131Y-89186672D01*
X186336043Y-89206569D01*
X186409541Y-89214377D01*
X186439219Y-89219200D01*
X186457166Y-89235833D01*
X186470656Y-89245392D01*
X186516519Y-89253787D01*
X186584166Y-89257000D01*
X186711166Y-89257000D01*
X186711166Y-89130000D01*
X186711104Y-89114698D01*
X186707750Y-89047328D01*
X186697852Y-89012753D01*
X186679416Y-89003000D01*
X186675591Y-89002749D01*
X186658749Y-88989335D01*
X186650105Y-88949743D01*
X186647666Y-88876000D01*
X186647666Y-88749000D01*
X186457166Y-88749000D01*
X186443323Y-88749017D01*
X186355184Y-88750599D01*
X186301185Y-88755612D01*
X186274090Y-88765260D01*
X186266666Y-88780750D01*
X186262979Y-88795557D01*
X186234916Y-88812500D01*
X186220110Y-88816188D01*
X186203166Y-88844250D01*
X186199479Y-88859057D01*
X186171416Y-88876000D01*
X186157950Y-88879873D01*
X186143822Y-88908469D01*
X186139666Y-88971250D01*
X185624649Y-88971250D01*
X185618352Y-88949253D01*
X185599916Y-88939500D01*
X185577633Y-88926413D01*
X185568166Y-88876000D01*
X185574710Y-88831432D01*
X185599916Y-88812500D01*
X185622200Y-88799413D01*
X185631666Y-88749000D01*
X185638210Y-88704432D01*
X185663416Y-88685500D01*
X185683822Y-88675562D01*
X185695166Y-88634265D01*
X185695654Y-88622654D01*
X185711696Y-88587833D01*
X185758666Y-88569083D01*
X185759964Y-88568795D01*
X185803940Y-88553973D01*
X185822166Y-88537946D01*
X185838232Y-88522068D01*
X185880163Y-88506200D01*
X185922932Y-88490204D01*
X185952949Y-88467713D01*
X185954867Y-88465829D01*
X185986283Y-88457310D01*
X186055093Y-88450048D01*
X186162527Y-88443970D01*
X186309820Y-88439002D01*
X186498203Y-88435071D01*
X186629552Y-88433039D01*
X186764119Y-88431520D01*
X186864869Y-88431439D01*
X186936583Y-88433027D01*
X186984039Y-88436514D01*
X187012019Y-88442131D01*
X187025301Y-88450109D01*
X187028666Y-88460679D01*
X187032961Y-88477862D01*
X187060416Y-88495000D01*
X187064242Y-88495250D01*
X187081084Y-88508664D01*
X187089728Y-88548257D01*
X187092166Y-88622000D01*
X187092229Y-88637302D01*
X187095583Y-88704671D01*
X187105481Y-88739246D01*
X187123916Y-88749000D01*
X187137383Y-88752873D01*
X187151511Y-88781469D01*
X187155666Y-88844250D01*
X187156957Y-88884649D01*
X187166490Y-88927034D01*
X187187416Y-88939500D01*
X187191242Y-88939750D01*
X187208084Y-88953164D01*
X187216728Y-88992757D01*
X187219166Y-89066500D01*
X187219229Y-89081802D01*
X187221629Y-89130000D01*
X187222583Y-89149171D01*
X187232481Y-89183746D01*
G37*
X187232481Y-89183746D02*
X187250916Y-89193500D01*
X187254742Y-89193750D01*
X187271584Y-89207164D01*
X187280228Y-89246757D01*
X187282666Y-89320500D01*
X187282729Y-89335802D01*
X187286083Y-89403171D01*
X187295981Y-89437746D01*
X187314416Y-89447500D01*
X187318242Y-89447750D01*
X187335084Y-89461164D01*
X187343728Y-89500757D01*
X187346166Y-89574500D01*
X187346229Y-89589802D01*
X187349583Y-89657171D01*
X187359481Y-89691746D01*
X187377916Y-89701500D01*
X187381742Y-89701750D01*
X187398584Y-89715164D01*
X187407228Y-89754757D01*
X187409666Y-89828500D01*
X187409729Y-89843802D01*
X187413083Y-89911171D01*
X187422981Y-89945746D01*
X187441416Y-89955500D01*
X187454883Y-89959373D01*
X187469011Y-89987969D01*
X187473166Y-90050750D01*
X187473166Y-90146000D01*
X186965166Y-90146000D01*
X186965166Y-90082500D01*
X186958623Y-90037932D01*
X186933416Y-90019000D01*
X186929591Y-90018749D01*
X186912749Y-90005335D01*
X186904105Y-89965743D01*
X186901666Y-89892000D01*
X186901604Y-89876698D01*
X186898250Y-89809328D01*
X186888352Y-89774753D01*
X186869916Y-89765000D01*
X186856450Y-89761127D01*
X186842322Y-89732530D01*
X186838166Y-89669750D01*
X186838166Y-89574500D01*
X186552416Y-89574500D01*
X186520061Y-89574465D01*
X186412409Y-89573418D01*
X186339404Y-89570408D01*
X186294887Y-89564750D01*
X186272695Y-89555759D01*
X186266666Y-89542750D01*
X186266416Y-89538924D01*
X186253002Y-89522082D01*
X186213410Y-89513438D01*
X186139666Y-89511000D01*
X186124364Y-89510937D01*
X186056995Y-89507584D01*
X186022420Y-89497686D01*
X186012666Y-89479250D01*
X185999580Y-89456966D01*
X185949166Y-89447500D01*
X185904599Y-89440956D01*
X185885666Y-89415750D01*
X185881979Y-89400943D01*
X185853916Y-89384000D01*
X185839110Y-89380312D01*
X185822166Y-89352250D01*
X185818479Y-89337443D01*
X185790416Y-89320500D01*
X185775610Y-89316812D01*
X185758666Y-89288750D01*
X185754979Y-89273943D01*
X185726916Y-89257000D01*
X185712110Y-89253312D01*
X185695166Y-89225250D01*
X185691479Y-89210443D01*
X185663416Y-89193500D01*
X185659591Y-89193249D01*
X185642749Y-89179835D01*
X185634105Y-89140243D01*
X185631666Y-89066500D01*
X185631604Y-89051198D01*
X185628250Y-88983828D01*
X185624649Y-88971250D01*
X186139666Y-88971250D01*
X186140957Y-89011649D01*
X186150490Y-89054034D01*
X186171416Y-89066500D01*
X186186223Y-89070188D01*
X186203166Y-89098250D01*
X186206854Y-89113057D01*
X186234916Y-89130000D01*
X186249670Y-89133375D01*
X186266666Y-89159281D01*
X186285131Y-89186672D01*
X186336043Y-89206569D01*
X186409541Y-89214377D01*
X186439219Y-89219200D01*
X186457166Y-89235833D01*
X186470656Y-89245392D01*
X186516519Y-89253787D01*
X186584166Y-89257000D01*
X186711166Y-89257000D01*
X186711166Y-89130000D01*
X186711104Y-89114698D01*
X186707750Y-89047328D01*
X186697852Y-89012753D01*
X186679416Y-89003000D01*
X186675591Y-89002749D01*
X186658749Y-88989335D01*
X186650105Y-88949743D01*
X186647666Y-88876000D01*
X186647666Y-88749000D01*
X186457166Y-88749000D01*
X186443323Y-88749017D01*
X186355184Y-88750599D01*
X186301185Y-88755612D01*
X186274090Y-88765260D01*
X186266666Y-88780750D01*
X186262979Y-88795557D01*
X186234916Y-88812500D01*
X186220110Y-88816188D01*
X186203166Y-88844250D01*
X186199479Y-88859057D01*
X186171416Y-88876000D01*
X186157950Y-88879873D01*
X186143822Y-88908469D01*
X186139666Y-88971250D01*
X185624649Y-88971250D01*
X185618352Y-88949253D01*
X185599916Y-88939500D01*
X185577633Y-88926413D01*
X185568166Y-88876000D01*
X185574710Y-88831432D01*
X185599916Y-88812500D01*
X185622200Y-88799413D01*
X185631666Y-88749000D01*
X185638210Y-88704432D01*
X185663416Y-88685500D01*
X185683822Y-88675562D01*
X185695166Y-88634265D01*
X185695654Y-88622654D01*
X185711696Y-88587833D01*
X185758666Y-88569083D01*
X185759964Y-88568795D01*
X185803940Y-88553973D01*
X185822166Y-88537946D01*
X185838232Y-88522068D01*
X185880163Y-88506200D01*
X185922932Y-88490204D01*
X185952949Y-88467713D01*
X185954867Y-88465829D01*
X185986283Y-88457310D01*
X186055093Y-88450048D01*
X186162527Y-88443970D01*
X186309820Y-88439002D01*
X186498203Y-88435071D01*
X186629552Y-88433039D01*
X186764119Y-88431520D01*
X186864869Y-88431439D01*
X186936583Y-88433027D01*
X186984039Y-88436514D01*
X187012019Y-88442131D01*
X187025301Y-88450109D01*
X187028666Y-88460679D01*
X187032961Y-88477862D01*
X187060416Y-88495000D01*
X187064242Y-88495250D01*
X187081084Y-88508664D01*
X187089728Y-88548257D01*
X187092166Y-88622000D01*
X187092229Y-88637302D01*
X187095583Y-88704671D01*
X187105481Y-88739246D01*
X187123916Y-88749000D01*
X187137383Y-88752873D01*
X187151511Y-88781469D01*
X187155666Y-88844250D01*
X187156957Y-88884649D01*
X187166490Y-88927034D01*
X187187416Y-88939500D01*
X187191242Y-88939750D01*
X187208084Y-88953164D01*
X187216728Y-88992757D01*
X187219166Y-89066500D01*
X187219229Y-89081802D01*
X187221629Y-89130000D01*
X187222583Y-89149171D01*
X187232481Y-89183746D01*
G36*
X195584223Y-89641688D02*
G01*
X195601166Y-89669750D01*
X195597479Y-89684557D01*
X195569416Y-89701500D01*
X195554610Y-89697812D01*
X195537666Y-89669750D01*
X195541354Y-89654943D01*
X195569416Y-89638000D01*
X195584223Y-89641688D01*
G37*
X195584223Y-89641688D02*
X195601166Y-89669750D01*
X195597479Y-89684557D01*
X195569416Y-89701500D01*
X195554610Y-89697812D01*
X195537666Y-89669750D01*
X195541354Y-89654943D01*
X195569416Y-89638000D01*
X195584223Y-89641688D01*
G36*
X196282522Y-88836055D02*
G01*
X196299666Y-88854833D01*
X196303249Y-88864570D01*
X196331416Y-88876000D01*
X196346223Y-88879688D01*
X196363166Y-88907750D01*
X196366854Y-88922557D01*
X196394916Y-88939500D01*
X196417200Y-88952587D01*
X196426666Y-89003000D01*
X196433210Y-89047568D01*
X196458416Y-89066500D01*
X196480700Y-89079587D01*
X196490166Y-89130000D01*
X196496710Y-89174568D01*
X196521916Y-89193500D01*
X196534105Y-89197137D01*
X196545993Y-89219361D01*
X196552003Y-89268514D01*
X196553666Y-89352250D01*
X196552939Y-89413190D01*
X196548494Y-89472633D01*
X196538664Y-89502684D01*
X196521916Y-89511000D01*
X196499633Y-89524087D01*
X196490166Y-89574500D01*
X196483623Y-89619068D01*
X196458416Y-89638000D01*
X196443610Y-89641688D01*
X196426666Y-89669750D01*
X196413580Y-89692034D01*
X196363166Y-89701500D01*
X196318599Y-89708043D01*
X196299666Y-89733250D01*
X196297942Y-89740795D01*
X196284127Y-89751078D01*
X196251526Y-89758051D01*
X196194255Y-89762304D01*
X196106430Y-89764424D01*
X195982166Y-89765000D01*
X195973649Y-89764997D01*
X195848584Y-89764117D01*
X195760340Y-89761339D01*
X195703730Y-89756205D01*
X195673568Y-89748259D01*
X195664666Y-89737044D01*
X195669970Y-89726056D01*
X195696833Y-89717500D01*
X195752423Y-89715202D01*
X195843402Y-89718470D01*
X195911470Y-89721116D01*
X196033354Y-89721073D01*
X196139816Y-89715006D01*
X196224155Y-89703656D01*
X196279672Y-89687762D01*
X196299666Y-89668065D01*
X196303335Y-89654079D01*
X196331416Y-89638000D01*
X196346223Y-89634312D01*
X196363166Y-89606250D01*
X196366854Y-89591443D01*
X196394916Y-89574500D01*
X196409723Y-89570812D01*
X196426666Y-89542750D01*
X196430354Y-89527943D01*
X196458416Y-89511000D01*
X196470605Y-89507363D01*
X196482493Y-89485139D01*
X196488503Y-89435986D01*
X196490166Y-89352250D01*
X196489439Y-89291309D01*
X196484994Y-89231867D01*
X196475164Y-89201816D01*
X196458416Y-89193500D01*
X196436133Y-89180413D01*
X196426666Y-89130000D01*
X196420123Y-89085432D01*
X196394916Y-89066500D01*
X196372633Y-89053413D01*
X196363166Y-89003000D01*
X196356623Y-88958432D01*
X196331416Y-88939500D01*
X196316610Y-88935812D01*
X196299666Y-88907750D01*
X196295979Y-88892943D01*
X196267916Y-88876000D01*
X196253311Y-88873612D01*
X196236166Y-88854833D01*
X196239749Y-88845096D01*
X196267916Y-88833667D01*
X196282522Y-88836055D01*
G37*
X196282522Y-88836055D02*
X196299666Y-88854833D01*
X196303249Y-88864570D01*
X196331416Y-88876000D01*
X196346223Y-88879688D01*
X196363166Y-88907750D01*
X196366854Y-88922557D01*
X196394916Y-88939500D01*
X196417200Y-88952587D01*
X196426666Y-89003000D01*
X196433210Y-89047568D01*
X196458416Y-89066500D01*
X196480700Y-89079587D01*
X196490166Y-89130000D01*
X196496710Y-89174568D01*
X196521916Y-89193500D01*
X196534105Y-89197137D01*
X196545993Y-89219361D01*
X196552003Y-89268514D01*
X196553666Y-89352250D01*
X196552939Y-89413190D01*
X196548494Y-89472633D01*
X196538664Y-89502684D01*
X196521916Y-89511000D01*
X196499633Y-89524087D01*
X196490166Y-89574500D01*
X196483623Y-89619068D01*
X196458416Y-89638000D01*
X196443610Y-89641688D01*
X196426666Y-89669750D01*
X196413580Y-89692034D01*
X196363166Y-89701500D01*
X196318599Y-89708043D01*
X196299666Y-89733250D01*
X196297942Y-89740795D01*
X196284127Y-89751078D01*
X196251526Y-89758051D01*
X196194255Y-89762304D01*
X196106430Y-89764424D01*
X195982166Y-89765000D01*
X195973649Y-89764997D01*
X195848584Y-89764117D01*
X195760340Y-89761339D01*
X195703730Y-89756205D01*
X195673568Y-89748259D01*
X195664666Y-89737044D01*
X195669970Y-89726056D01*
X195696833Y-89717500D01*
X195752423Y-89715202D01*
X195843402Y-89718470D01*
X195911470Y-89721116D01*
X196033354Y-89721073D01*
X196139816Y-89715006D01*
X196224155Y-89703656D01*
X196279672Y-89687762D01*
X196299666Y-89668065D01*
X196303335Y-89654079D01*
X196331416Y-89638000D01*
X196346223Y-89634312D01*
X196363166Y-89606250D01*
X196366854Y-89591443D01*
X196394916Y-89574500D01*
X196409723Y-89570812D01*
X196426666Y-89542750D01*
X196430354Y-89527943D01*
X196458416Y-89511000D01*
X196470605Y-89507363D01*
X196482493Y-89485139D01*
X196488503Y-89435986D01*
X196490166Y-89352250D01*
X196489439Y-89291309D01*
X196484994Y-89231867D01*
X196475164Y-89201816D01*
X196458416Y-89193500D01*
X196436133Y-89180413D01*
X196426666Y-89130000D01*
X196420123Y-89085432D01*
X196394916Y-89066500D01*
X196372633Y-89053413D01*
X196363166Y-89003000D01*
X196356623Y-88958432D01*
X196331416Y-88939500D01*
X196316610Y-88935812D01*
X196299666Y-88907750D01*
X196295979Y-88892943D01*
X196267916Y-88876000D01*
X196253311Y-88873612D01*
X196236166Y-88854833D01*
X196239749Y-88845096D01*
X196267916Y-88833667D01*
X196282522Y-88836055D01*
G36*
X195457223Y-89324188D02*
G01*
X195474166Y-89352250D01*
X195470479Y-89367057D01*
X195442416Y-89384000D01*
X195427610Y-89380312D01*
X195410666Y-89352250D01*
X195414354Y-89337443D01*
X195442416Y-89320500D01*
X195457223Y-89324188D01*
G37*
X195457223Y-89324188D02*
X195474166Y-89352250D01*
X195470479Y-89367057D01*
X195442416Y-89384000D01*
X195427610Y-89380312D01*
X195410666Y-89352250D01*
X195414354Y-89337443D01*
X195442416Y-89320500D01*
X195457223Y-89324188D01*
G36*
X191562637Y-88431510D02*
G01*
X191693856Y-88432123D01*
X191789062Y-88434004D01*
X191853676Y-88437605D01*
X191893118Y-88443379D01*
X191912808Y-88451777D01*
X191918166Y-88463250D01*
X191921854Y-88478057D01*
X191949916Y-88495000D01*
X191953742Y-88495250D01*
X191970584Y-88508664D01*
X191979228Y-88548257D01*
X191981666Y-88622000D01*
X191981666Y-88749000D01*
X191791166Y-88749000D01*
X191791166Y-88876000D01*
X191791229Y-88891302D01*
X191794583Y-88958671D01*
X191804481Y-88993246D01*
X191822916Y-89003000D01*
X191826742Y-89003250D01*
X191843584Y-89016664D01*
X191852228Y-89056257D01*
X191854666Y-89130000D01*
X191854729Y-89145302D01*
X191858083Y-89212671D01*
X191867981Y-89247246D01*
X191886416Y-89257000D01*
X191890242Y-89257250D01*
X191907084Y-89270664D01*
X191915728Y-89310257D01*
X191918166Y-89384000D01*
X191918229Y-89399302D01*
X191921583Y-89466671D01*
X191931481Y-89501246D01*
X191949916Y-89511000D01*
X191972200Y-89524087D01*
X191981666Y-89574500D01*
X191988210Y-89619068D01*
X192013416Y-89638000D01*
X192031932Y-89645857D01*
X192045166Y-89680333D01*
X192050839Y-89705036D01*
X192075153Y-89722667D01*
X192087972Y-89724915D01*
X192114054Y-89749125D01*
X192116188Y-89752710D01*
X192140030Y-89763263D01*
X192192514Y-89770144D01*
X192278180Y-89773755D01*
X192401568Y-89774495D01*
X192680166Y-89773407D01*
X192680166Y-89832703D01*
X192686585Y-89873274D01*
X192711916Y-89892000D01*
X192715742Y-89892250D01*
X192732584Y-89905664D01*
X192741228Y-89945257D01*
X192743666Y-90019000D01*
X192743666Y-90146000D01*
X192362666Y-90146000D01*
X192337196Y-90145989D01*
X192205977Y-90145377D01*
X192110771Y-90143496D01*
X192046157Y-90139894D01*
X192006715Y-90134121D01*
X191987025Y-90125723D01*
X191981666Y-90114250D01*
X191977794Y-90100783D01*
X191949197Y-90086655D01*
X191886416Y-90082500D01*
X191846017Y-90081209D01*
X191803632Y-90071677D01*
X191791166Y-90050750D01*
X191787479Y-90035943D01*
X191759416Y-90019000D01*
X191744610Y-90015312D01*
X191727666Y-89987250D01*
X191723979Y-89972443D01*
X191695916Y-89955500D01*
X191681110Y-89951812D01*
X191664166Y-89923750D01*
X191660479Y-89908943D01*
X191632416Y-89892000D01*
X191617610Y-89888312D01*
X191600666Y-89860250D01*
X191596979Y-89845443D01*
X191568916Y-89828500D01*
X191546633Y-89815413D01*
X191537166Y-89765000D01*
X191530623Y-89720432D01*
X191505416Y-89701500D01*
X191491950Y-89697627D01*
X191477822Y-89669030D01*
X191473666Y-89606250D01*
X191472376Y-89565851D01*
X191462843Y-89523465D01*
X191441916Y-89511000D01*
X191428450Y-89507127D01*
X191414322Y-89478530D01*
X191410166Y-89415750D01*
X191408876Y-89375351D01*
X191399343Y-89332965D01*
X191378416Y-89320500D01*
X191374591Y-89320249D01*
X191357749Y-89306835D01*
X191349105Y-89267243D01*
X191346666Y-89193500D01*
X191346604Y-89178198D01*
X191343250Y-89110828D01*
X191333352Y-89076253D01*
X191314916Y-89066500D01*
X191311091Y-89066249D01*
X191294249Y-89052835D01*
X191285605Y-89013243D01*
X191283166Y-88939500D01*
X191283104Y-88924198D01*
X191279750Y-88856828D01*
X191269852Y-88822253D01*
X191251416Y-88812500D01*
X191247591Y-88812249D01*
X191230749Y-88798835D01*
X191222105Y-88759243D01*
X191219666Y-88685500D01*
X191219604Y-88670198D01*
X191216250Y-88602828D01*
X191206352Y-88568253D01*
X191187916Y-88558500D01*
X191165633Y-88545413D01*
X191156166Y-88495000D01*
X191156166Y-88431500D01*
X191537166Y-88431500D01*
X191562637Y-88431510D01*
G37*
X191562637Y-88431510D02*
X191693856Y-88432123D01*
X191789062Y-88434004D01*
X191853676Y-88437605D01*
X191893118Y-88443379D01*
X191912808Y-88451777D01*
X191918166Y-88463250D01*
X191921854Y-88478057D01*
X191949916Y-88495000D01*
X191953742Y-88495250D01*
X191970584Y-88508664D01*
X191979228Y-88548257D01*
X191981666Y-88622000D01*
X191981666Y-88749000D01*
X191791166Y-88749000D01*
X191791166Y-88876000D01*
X191791229Y-88891302D01*
X191794583Y-88958671D01*
X191804481Y-88993246D01*
X191822916Y-89003000D01*
X191826742Y-89003250D01*
X191843584Y-89016664D01*
X191852228Y-89056257D01*
X191854666Y-89130000D01*
X191854729Y-89145302D01*
X191858083Y-89212671D01*
X191867981Y-89247246D01*
X191886416Y-89257000D01*
X191890242Y-89257250D01*
X191907084Y-89270664D01*
X191915728Y-89310257D01*
X191918166Y-89384000D01*
X191918229Y-89399302D01*
X191921583Y-89466671D01*
X191931481Y-89501246D01*
X191949916Y-89511000D01*
X191972200Y-89524087D01*
X191981666Y-89574500D01*
X191988210Y-89619068D01*
X192013416Y-89638000D01*
X192031932Y-89645857D01*
X192045166Y-89680333D01*
X192050839Y-89705036D01*
X192075153Y-89722667D01*
X192087972Y-89724915D01*
X192114054Y-89749125D01*
X192116188Y-89752710D01*
X192140030Y-89763263D01*
X192192514Y-89770144D01*
X192278180Y-89773755D01*
X192401568Y-89774495D01*
X192680166Y-89773407D01*
X192680166Y-89832703D01*
X192686585Y-89873274D01*
X192711916Y-89892000D01*
X192715742Y-89892250D01*
X192732584Y-89905664D01*
X192741228Y-89945257D01*
X192743666Y-90019000D01*
X192743666Y-90146000D01*
X192362666Y-90146000D01*
X192337196Y-90145989D01*
X192205977Y-90145377D01*
X192110771Y-90143496D01*
X192046157Y-90139894D01*
X192006715Y-90134121D01*
X191987025Y-90125723D01*
X191981666Y-90114250D01*
X191977794Y-90100783D01*
X191949197Y-90086655D01*
X191886416Y-90082500D01*
X191846017Y-90081209D01*
X191803632Y-90071677D01*
X191791166Y-90050750D01*
X191787479Y-90035943D01*
X191759416Y-90019000D01*
X191744610Y-90015312D01*
X191727666Y-89987250D01*
X191723979Y-89972443D01*
X191695916Y-89955500D01*
X191681110Y-89951812D01*
X191664166Y-89923750D01*
X191660479Y-89908943D01*
X191632416Y-89892000D01*
X191617610Y-89888312D01*
X191600666Y-89860250D01*
X191596979Y-89845443D01*
X191568916Y-89828500D01*
X191546633Y-89815413D01*
X191537166Y-89765000D01*
X191530623Y-89720432D01*
X191505416Y-89701500D01*
X191491950Y-89697627D01*
X191477822Y-89669030D01*
X191473666Y-89606250D01*
X191472376Y-89565851D01*
X191462843Y-89523465D01*
X191441916Y-89511000D01*
X191428450Y-89507127D01*
X191414322Y-89478530D01*
X191410166Y-89415750D01*
X191408876Y-89375351D01*
X191399343Y-89332965D01*
X191378416Y-89320500D01*
X191374591Y-89320249D01*
X191357749Y-89306835D01*
X191349105Y-89267243D01*
X191346666Y-89193500D01*
X191346604Y-89178198D01*
X191343250Y-89110828D01*
X191333352Y-89076253D01*
X191314916Y-89066500D01*
X191311091Y-89066249D01*
X191294249Y-89052835D01*
X191285605Y-89013243D01*
X191283166Y-88939500D01*
X191283104Y-88924198D01*
X191279750Y-88856828D01*
X191269852Y-88822253D01*
X191251416Y-88812500D01*
X191247591Y-88812249D01*
X191230749Y-88798835D01*
X191222105Y-88759243D01*
X191219666Y-88685500D01*
X191219604Y-88670198D01*
X191216250Y-88602828D01*
X191206352Y-88568253D01*
X191187916Y-88558500D01*
X191165633Y-88545413D01*
X191156166Y-88495000D01*
X191156166Y-88431500D01*
X191537166Y-88431500D01*
X191562637Y-88431510D01*
G36*
X195027290Y-87754262D02*
G01*
X195127887Y-87756163D01*
X195209290Y-87760128D01*
X195263787Y-87765668D01*
X195283666Y-87772294D01*
X195283981Y-87773489D01*
X195307806Y-87784293D01*
X195362059Y-87795405D01*
X195436219Y-87804599D01*
X195444039Y-87805348D01*
X195519013Y-87814905D01*
X195574954Y-87826158D01*
X195600261Y-87836827D01*
X195614775Y-87845422D01*
X195662002Y-87858898D01*
X195728166Y-87870583D01*
X195775893Y-87878580D01*
X195830804Y-87892700D01*
X195857408Y-87906500D01*
X195862618Y-87911398D01*
X195900289Y-87926658D01*
X195957949Y-87938475D01*
X195972545Y-87940619D01*
X196028136Y-87954767D01*
X196042555Y-87969944D01*
X196016436Y-87982053D01*
X195950416Y-87987000D01*
X195910017Y-87985709D01*
X195867632Y-87976177D01*
X195855166Y-87955250D01*
X195851022Y-87944635D01*
X195832818Y-87935660D01*
X195794844Y-87929571D01*
X195731462Y-87925856D01*
X195637032Y-87924004D01*
X195505916Y-87923500D01*
X195389156Y-87923877D01*
X195290423Y-87925531D01*
X195223446Y-87928984D01*
X195182587Y-87934746D01*
X195162207Y-87943330D01*
X195156666Y-87955250D01*
X195156416Y-87959075D01*
X195143002Y-87975918D01*
X195103410Y-87984561D01*
X195029666Y-87987000D01*
X195014364Y-87987062D01*
X194946995Y-87990416D01*
X194912420Y-88000314D01*
X194902666Y-88018750D01*
X194889580Y-88041034D01*
X194839166Y-88050500D01*
X194794599Y-88057043D01*
X194775666Y-88082250D01*
X194771979Y-88097057D01*
X194743916Y-88114000D01*
X194729110Y-88117688D01*
X194712166Y-88145750D01*
X194699080Y-88168034D01*
X194648666Y-88177500D01*
X194615151Y-88179445D01*
X194590411Y-88196023D01*
X194585166Y-88241000D01*
X194578623Y-88285568D01*
X194553416Y-88304500D01*
X194538610Y-88308188D01*
X194521666Y-88336250D01*
X194520742Y-88341528D01*
X194510034Y-88351291D01*
X194483120Y-88358378D01*
X194434775Y-88363190D01*
X194359776Y-88366130D01*
X194252898Y-88367599D01*
X194108916Y-88368000D01*
X194040301Y-88367929D01*
X193913380Y-88367105D01*
X193821251Y-88365035D01*
X193758690Y-88361316D01*
X193720472Y-88355547D01*
X193701372Y-88347325D01*
X193696166Y-88336250D01*
X193699854Y-88321443D01*
X193727916Y-88304500D01*
X193742723Y-88300812D01*
X193759666Y-88272750D01*
X193763354Y-88257943D01*
X193791416Y-88241000D01*
X193806223Y-88237312D01*
X193823166Y-88209250D01*
X193826854Y-88194443D01*
X193854916Y-88177500D01*
X193869723Y-88173812D01*
X193886666Y-88145750D01*
X193890354Y-88130943D01*
X193918416Y-88114000D01*
X193932997Y-88111810D01*
X193950166Y-88094515D01*
X193950178Y-88094133D01*
X193969229Y-88076442D01*
X194013666Y-88061083D01*
X194014652Y-88060863D01*
X194058837Y-88042175D01*
X194077166Y-88017068D01*
X194080835Y-88003080D01*
X194108916Y-87987000D01*
X194123489Y-87984881D01*
X194140666Y-87968128D01*
X194156714Y-87951102D01*
X194198663Y-87934700D01*
X194241162Y-87919352D01*
X194269696Y-87899050D01*
X194274938Y-87893963D01*
X194312724Y-87878209D01*
X194370449Y-87866191D01*
X194392304Y-87862744D01*
X194439396Y-87850691D01*
X194458166Y-87838124D01*
X194472271Y-87829044D01*
X194518281Y-87817306D01*
X194585166Y-87807083D01*
X194643134Y-87798237D01*
X194692990Y-87785535D01*
X194712166Y-87773255D01*
X194713676Y-87771293D01*
X194743637Y-87764573D01*
X194806138Y-87759135D01*
X194893468Y-87755494D01*
X194997916Y-87754167D01*
X195027290Y-87754262D01*
G37*
X195027290Y-87754262D02*
X195127887Y-87756163D01*
X195209290Y-87760128D01*
X195263787Y-87765668D01*
X195283666Y-87772294D01*
X195283981Y-87773489D01*
X195307806Y-87784293D01*
X195362059Y-87795405D01*
X195436219Y-87804599D01*
X195444039Y-87805348D01*
X195519013Y-87814905D01*
X195574954Y-87826158D01*
X195600261Y-87836827D01*
X195614775Y-87845422D01*
X195662002Y-87858898D01*
X195728166Y-87870583D01*
X195775893Y-87878580D01*
X195830804Y-87892700D01*
X195857408Y-87906500D01*
X195862618Y-87911398D01*
X195900289Y-87926658D01*
X195957949Y-87938475D01*
X195972545Y-87940619D01*
X196028136Y-87954767D01*
X196042555Y-87969944D01*
X196016436Y-87982053D01*
X195950416Y-87987000D01*
X195910017Y-87985709D01*
X195867632Y-87976177D01*
X195855166Y-87955250D01*
X195851022Y-87944635D01*
X195832818Y-87935660D01*
X195794844Y-87929571D01*
X195731462Y-87925856D01*
X195637032Y-87924004D01*
X195505916Y-87923500D01*
X195389156Y-87923877D01*
X195290423Y-87925531D01*
X195223446Y-87928984D01*
X195182587Y-87934746D01*
X195162207Y-87943330D01*
X195156666Y-87955250D01*
X195156416Y-87959075D01*
X195143002Y-87975918D01*
X195103410Y-87984561D01*
X195029666Y-87987000D01*
X195014364Y-87987062D01*
X194946995Y-87990416D01*
X194912420Y-88000314D01*
X194902666Y-88018750D01*
X194889580Y-88041034D01*
X194839166Y-88050500D01*
X194794599Y-88057043D01*
X194775666Y-88082250D01*
X194771979Y-88097057D01*
X194743916Y-88114000D01*
X194729110Y-88117688D01*
X194712166Y-88145750D01*
X194699080Y-88168034D01*
X194648666Y-88177500D01*
X194615151Y-88179445D01*
X194590411Y-88196023D01*
X194585166Y-88241000D01*
X194578623Y-88285568D01*
X194553416Y-88304500D01*
X194538610Y-88308188D01*
X194521666Y-88336250D01*
X194520742Y-88341528D01*
X194510034Y-88351291D01*
X194483120Y-88358378D01*
X194434775Y-88363190D01*
X194359776Y-88366130D01*
X194252898Y-88367599D01*
X194108916Y-88368000D01*
X194040301Y-88367929D01*
X193913380Y-88367105D01*
X193821251Y-88365035D01*
X193758690Y-88361316D01*
X193720472Y-88355547D01*
X193701372Y-88347325D01*
X193696166Y-88336250D01*
X193699854Y-88321443D01*
X193727916Y-88304500D01*
X193742723Y-88300812D01*
X193759666Y-88272750D01*
X193763354Y-88257943D01*
X193791416Y-88241000D01*
X193806223Y-88237312D01*
X193823166Y-88209250D01*
X193826854Y-88194443D01*
X193854916Y-88177500D01*
X193869723Y-88173812D01*
X193886666Y-88145750D01*
X193890354Y-88130943D01*
X193918416Y-88114000D01*
X193932997Y-88111810D01*
X193950166Y-88094515D01*
X193950178Y-88094133D01*
X193969229Y-88076442D01*
X194013666Y-88061083D01*
X194014652Y-88060863D01*
X194058837Y-88042175D01*
X194077166Y-88017068D01*
X194080835Y-88003080D01*
X194108916Y-87987000D01*
X194123489Y-87984881D01*
X194140666Y-87968128D01*
X194156714Y-87951102D01*
X194198663Y-87934700D01*
X194241162Y-87919352D01*
X194269696Y-87899050D01*
X194274938Y-87893963D01*
X194312724Y-87878209D01*
X194370449Y-87866191D01*
X194392304Y-87862744D01*
X194439396Y-87850691D01*
X194458166Y-87838124D01*
X194472271Y-87829044D01*
X194518281Y-87817306D01*
X194585166Y-87807083D01*
X194643134Y-87798237D01*
X194692990Y-87785535D01*
X194712166Y-87773255D01*
X194713676Y-87771293D01*
X194743637Y-87764573D01*
X194806138Y-87759135D01*
X194893468Y-87755494D01*
X194997916Y-87754167D01*
X195027290Y-87754262D01*
G36*
X195645734Y-88946043D02*
G01*
X195664666Y-88971250D01*
X195664718Y-88973237D01*
X195680673Y-88998451D01*
X195710626Y-89000094D01*
X195733458Y-88976542D01*
X195744306Y-88965915D01*
X195795073Y-88954026D01*
X195886916Y-88950083D01*
X195945451Y-88951420D01*
X196013299Y-88959981D01*
X196040375Y-88976542D01*
X196046479Y-88987195D01*
X196079180Y-89003000D01*
X196093128Y-89006667D01*
X196109166Y-89034750D01*
X196112854Y-89049557D01*
X196140916Y-89066500D01*
X196155723Y-89070188D01*
X196172666Y-89098250D01*
X196176354Y-89113057D01*
X196204416Y-89130000D01*
X196219223Y-89133688D01*
X196236166Y-89161750D01*
X196239854Y-89176557D01*
X196267916Y-89193500D01*
X196271742Y-89193750D01*
X196288584Y-89207164D01*
X196297228Y-89246757D01*
X196299666Y-89320500D01*
X196299604Y-89335802D01*
X196296250Y-89403171D01*
X196286352Y-89437746D01*
X196267916Y-89447500D01*
X196253110Y-89451188D01*
X196236166Y-89479250D01*
X196235916Y-89483075D01*
X196222502Y-89499918D01*
X196182910Y-89508561D01*
X196109166Y-89511000D01*
X196051812Y-89508752D01*
X196001446Y-89501108D01*
X195982166Y-89489833D01*
X195992612Y-89476580D01*
X196029791Y-89468377D01*
X196037235Y-89468312D01*
X196109153Y-89462569D01*
X196150068Y-89441532D01*
X196168424Y-89396315D01*
X196172666Y-89318031D01*
X196172630Y-89306573D01*
X196169403Y-89238434D01*
X196159510Y-89203403D01*
X196140916Y-89193500D01*
X196118633Y-89180413D01*
X196109166Y-89130000D01*
X196102623Y-89085432D01*
X196077416Y-89066500D01*
X196062610Y-89062812D01*
X196045666Y-89034750D01*
X196045416Y-89030924D01*
X196032002Y-89014082D01*
X195992410Y-89005438D01*
X195918666Y-89003000D01*
X195791666Y-89003000D01*
X195791666Y-89161750D01*
X195792394Y-89222690D01*
X195796839Y-89282133D01*
X195806669Y-89312184D01*
X195823416Y-89320500D01*
X195838223Y-89324188D01*
X195855166Y-89352250D01*
X195858854Y-89367057D01*
X195886916Y-89384000D01*
X195901723Y-89387688D01*
X195918666Y-89415750D01*
X195914979Y-89430557D01*
X195886916Y-89447500D01*
X195872110Y-89451188D01*
X195855166Y-89479250D01*
X195854916Y-89483075D01*
X195841502Y-89499918D01*
X195801910Y-89508561D01*
X195728166Y-89511000D01*
X195712864Y-89510937D01*
X195645495Y-89507584D01*
X195610920Y-89497686D01*
X195601166Y-89479250D01*
X195597479Y-89464443D01*
X195569416Y-89447500D01*
X195554811Y-89445112D01*
X195537666Y-89426333D01*
X195541249Y-89416596D01*
X195569416Y-89405167D01*
X195584022Y-89407555D01*
X195601166Y-89426333D01*
X195601171Y-89426597D01*
X195620081Y-89441369D01*
X195664666Y-89447500D01*
X195688623Y-89446961D01*
X195715697Y-89438562D01*
X195726326Y-89410821D01*
X195728166Y-89352250D01*
X195726876Y-89311851D01*
X195717343Y-89269465D01*
X195696416Y-89257000D01*
X195674133Y-89243913D01*
X195664666Y-89193500D01*
X195658123Y-89148932D01*
X195632916Y-89130000D01*
X195610633Y-89116913D01*
X195601166Y-89066500D01*
X195594623Y-89021932D01*
X195569416Y-89003000D01*
X195554610Y-88999312D01*
X195537666Y-88971250D01*
X195550753Y-88948966D01*
X195601166Y-88939500D01*
X195645734Y-88946043D01*
G37*
X195645734Y-88946043D02*
X195664666Y-88971250D01*
X195664718Y-88973237D01*
X195680673Y-88998451D01*
X195710626Y-89000094D01*
X195733458Y-88976542D01*
X195744306Y-88965915D01*
X195795073Y-88954026D01*
X195886916Y-88950083D01*
X195945451Y-88951420D01*
X196013299Y-88959981D01*
X196040375Y-88976542D01*
X196046479Y-88987195D01*
X196079180Y-89003000D01*
X196093128Y-89006667D01*
X196109166Y-89034750D01*
X196112854Y-89049557D01*
X196140916Y-89066500D01*
X196155723Y-89070188D01*
X196172666Y-89098250D01*
X196176354Y-89113057D01*
X196204416Y-89130000D01*
X196219223Y-89133688D01*
X196236166Y-89161750D01*
X196239854Y-89176557D01*
X196267916Y-89193500D01*
X196271742Y-89193750D01*
X196288584Y-89207164D01*
X196297228Y-89246757D01*
X196299666Y-89320500D01*
X196299604Y-89335802D01*
X196296250Y-89403171D01*
X196286352Y-89437746D01*
X196267916Y-89447500D01*
X196253110Y-89451188D01*
X196236166Y-89479250D01*
X196235916Y-89483075D01*
X196222502Y-89499918D01*
X196182910Y-89508561D01*
X196109166Y-89511000D01*
X196051812Y-89508752D01*
X196001446Y-89501108D01*
X195982166Y-89489833D01*
X195992612Y-89476580D01*
X196029791Y-89468377D01*
X196037235Y-89468312D01*
X196109153Y-89462569D01*
X196150068Y-89441532D01*
X196168424Y-89396315D01*
X196172666Y-89318031D01*
X196172630Y-89306573D01*
X196169403Y-89238434D01*
X196159510Y-89203403D01*
X196140916Y-89193500D01*
X196118633Y-89180413D01*
X196109166Y-89130000D01*
X196102623Y-89085432D01*
X196077416Y-89066500D01*
X196062610Y-89062812D01*
X196045666Y-89034750D01*
X196045416Y-89030924D01*
X196032002Y-89014082D01*
X195992410Y-89005438D01*
X195918666Y-89003000D01*
X195791666Y-89003000D01*
X195791666Y-89161750D01*
X195792394Y-89222690D01*
X195796839Y-89282133D01*
X195806669Y-89312184D01*
X195823416Y-89320500D01*
X195838223Y-89324188D01*
X195855166Y-89352250D01*
X195858854Y-89367057D01*
X195886916Y-89384000D01*
X195901723Y-89387688D01*
X195918666Y-89415750D01*
X195914979Y-89430557D01*
X195886916Y-89447500D01*
X195872110Y-89451188D01*
X195855166Y-89479250D01*
X195854916Y-89483075D01*
X195841502Y-89499918D01*
X195801910Y-89508561D01*
X195728166Y-89511000D01*
X195712864Y-89510937D01*
X195645495Y-89507584D01*
X195610920Y-89497686D01*
X195601166Y-89479250D01*
X195597479Y-89464443D01*
X195569416Y-89447500D01*
X195554811Y-89445112D01*
X195537666Y-89426333D01*
X195541249Y-89416596D01*
X195569416Y-89405167D01*
X195584022Y-89407555D01*
X195601166Y-89426333D01*
X195601171Y-89426597D01*
X195620081Y-89441369D01*
X195664666Y-89447500D01*
X195688623Y-89446961D01*
X195715697Y-89438562D01*
X195726326Y-89410821D01*
X195728166Y-89352250D01*
X195726876Y-89311851D01*
X195717343Y-89269465D01*
X195696416Y-89257000D01*
X195674133Y-89243913D01*
X195664666Y-89193500D01*
X195658123Y-89148932D01*
X195632916Y-89130000D01*
X195610633Y-89116913D01*
X195601166Y-89066500D01*
X195594623Y-89021932D01*
X195569416Y-89003000D01*
X195554610Y-88999312D01*
X195537666Y-88971250D01*
X195550753Y-88948966D01*
X195601166Y-88939500D01*
X195645734Y-88946043D01*
G36*
X194966166Y-88653750D02*
G01*
X194967457Y-88694149D01*
X194976990Y-88736534D01*
X194997916Y-88749000D01*
X195010105Y-88752637D01*
X195021993Y-88774861D01*
X195028003Y-88824014D01*
X195029666Y-88907750D01*
X195030394Y-88968690D01*
X195034839Y-89028133D01*
X195044669Y-89058184D01*
X195061416Y-89066500D01*
X195073605Y-89070137D01*
X195085493Y-89092361D01*
X195091503Y-89141514D01*
X195093166Y-89225250D01*
X195093894Y-89286190D01*
X195098339Y-89345633D01*
X195108169Y-89375684D01*
X195124916Y-89384000D01*
X195138383Y-89387873D01*
X195152511Y-89416469D01*
X195156666Y-89479250D01*
X195155376Y-89519649D01*
X195145843Y-89562034D01*
X195124916Y-89574500D01*
X195110110Y-89578188D01*
X195093166Y-89606250D01*
X195091442Y-89613795D01*
X195077627Y-89624078D01*
X195045026Y-89631051D01*
X194987755Y-89635304D01*
X194899930Y-89637424D01*
X194775666Y-89638000D01*
X194458166Y-89638000D01*
X194458166Y-89574500D01*
X194451623Y-89529932D01*
X194426416Y-89511000D01*
X194411610Y-89507312D01*
X194394666Y-89479250D01*
X194399740Y-89466713D01*
X194421169Y-89457093D01*
X194465483Y-89451224D01*
X194539156Y-89448296D01*
X194648666Y-89447500D01*
X194902666Y-89447500D01*
X194902666Y-89352250D01*
X194901376Y-89311851D01*
X194891843Y-89269465D01*
X194870916Y-89257000D01*
X194858728Y-89253363D01*
X194846840Y-89231139D01*
X194840830Y-89181986D01*
X194839166Y-89098250D01*
X194838439Y-89037309D01*
X194833994Y-88977867D01*
X194824164Y-88947816D01*
X194807416Y-88939500D01*
X194795228Y-88935863D01*
X194783340Y-88913639D01*
X194777330Y-88864486D01*
X194775666Y-88780750D01*
X194774939Y-88719809D01*
X194770494Y-88660367D01*
X194760664Y-88630316D01*
X194743916Y-88622000D01*
X194729110Y-88618312D01*
X194712166Y-88590250D01*
X194712417Y-88586424D01*
X194725831Y-88569582D01*
X194765423Y-88560938D01*
X194839166Y-88558500D01*
X194966166Y-88558500D01*
X194966166Y-88653750D01*
G37*
X194966166Y-88653750D02*
X194967457Y-88694149D01*
X194976990Y-88736534D01*
X194997916Y-88749000D01*
X195010105Y-88752637D01*
X195021993Y-88774861D01*
X195028003Y-88824014D01*
X195029666Y-88907750D01*
X195030394Y-88968690D01*
X195034839Y-89028133D01*
X195044669Y-89058184D01*
X195061416Y-89066500D01*
X195073605Y-89070137D01*
X195085493Y-89092361D01*
X195091503Y-89141514D01*
X195093166Y-89225250D01*
X195093894Y-89286190D01*
X195098339Y-89345633D01*
X195108169Y-89375684D01*
X195124916Y-89384000D01*
X195138383Y-89387873D01*
X195152511Y-89416469D01*
X195156666Y-89479250D01*
X195155376Y-89519649D01*
X195145843Y-89562034D01*
X195124916Y-89574500D01*
X195110110Y-89578188D01*
X195093166Y-89606250D01*
X195091442Y-89613795D01*
X195077627Y-89624078D01*
X195045026Y-89631051D01*
X194987755Y-89635304D01*
X194899930Y-89637424D01*
X194775666Y-89638000D01*
X194458166Y-89638000D01*
X194458166Y-89574500D01*
X194451623Y-89529932D01*
X194426416Y-89511000D01*
X194411610Y-89507312D01*
X194394666Y-89479250D01*
X194399740Y-89466713D01*
X194421169Y-89457093D01*
X194465483Y-89451224D01*
X194539156Y-89448296D01*
X194648666Y-89447500D01*
X194902666Y-89447500D01*
X194902666Y-89352250D01*
X194901376Y-89311851D01*
X194891843Y-89269465D01*
X194870916Y-89257000D01*
X194858728Y-89253363D01*
X194846840Y-89231139D01*
X194840830Y-89181986D01*
X194839166Y-89098250D01*
X194838439Y-89037309D01*
X194833994Y-88977867D01*
X194824164Y-88947816D01*
X194807416Y-88939500D01*
X194795228Y-88935863D01*
X194783340Y-88913639D01*
X194777330Y-88864486D01*
X194775666Y-88780750D01*
X194774939Y-88719809D01*
X194770494Y-88660367D01*
X194760664Y-88630316D01*
X194743916Y-88622000D01*
X194729110Y-88618312D01*
X194712166Y-88590250D01*
X194712417Y-88586424D01*
X194725831Y-88569582D01*
X194765423Y-88560938D01*
X194839166Y-88558500D01*
X194966166Y-88558500D01*
X194966166Y-88653750D01*
G36*
X195457223Y-89578188D02*
G01*
X195474166Y-89606250D01*
X195470479Y-89621057D01*
X195442416Y-89638000D01*
X195427610Y-89634312D01*
X195410666Y-89606250D01*
X195414354Y-89591443D01*
X195442416Y-89574500D01*
X195457223Y-89578188D01*
G37*
X195457223Y-89578188D02*
X195474166Y-89606250D01*
X195470479Y-89621057D01*
X195442416Y-89638000D01*
X195427610Y-89634312D01*
X195410666Y-89606250D01*
X195414354Y-89591443D01*
X195442416Y-89574500D01*
X195457223Y-89578188D01*
G36*
X196807666Y-88685500D02*
G01*
X196807729Y-88700802D01*
X196811083Y-88768171D01*
X196820981Y-88802746D01*
X196839416Y-88812500D01*
X196851605Y-88816137D01*
X196863493Y-88838361D01*
X196869503Y-88887514D01*
X196871166Y-88971250D01*
X196871894Y-89032190D01*
X196876339Y-89091633D01*
X196886169Y-89121684D01*
X196902916Y-89130000D01*
X196906742Y-89130250D01*
X196923584Y-89143664D01*
X196932228Y-89183257D01*
X196934666Y-89257000D01*
X196934729Y-89272302D01*
X196938083Y-89339671D01*
X196947981Y-89374246D01*
X196966416Y-89384000D01*
X196981223Y-89387688D01*
X196998166Y-89415750D01*
X196998417Y-89419575D01*
X197011831Y-89436418D01*
X197051423Y-89445061D01*
X197125166Y-89447500D01*
X197140469Y-89447437D01*
X197207838Y-89444084D01*
X197242413Y-89434186D01*
X197252166Y-89415750D01*
X197252173Y-89415168D01*
X197270955Y-89390974D01*
X197321031Y-89384715D01*
X197395041Y-89397341D01*
X197399573Y-89398773D01*
X197430390Y-89424257D01*
X197444018Y-89461951D01*
X197438260Y-89496114D01*
X197410916Y-89511000D01*
X197396110Y-89514688D01*
X197379166Y-89542750D01*
X197366080Y-89565034D01*
X197315666Y-89574500D01*
X197271099Y-89581043D01*
X197252166Y-89606250D01*
X197251916Y-89610075D01*
X197238502Y-89626918D01*
X197198910Y-89635561D01*
X197125166Y-89638000D01*
X197109864Y-89637937D01*
X197042495Y-89634584D01*
X197007920Y-89624686D01*
X196998166Y-89606250D01*
X196985080Y-89583966D01*
X196934666Y-89574500D01*
X196890099Y-89567956D01*
X196871166Y-89542750D01*
X196867479Y-89527943D01*
X196839416Y-89511000D01*
X196824610Y-89507312D01*
X196807666Y-89479250D01*
X196803979Y-89464443D01*
X196775916Y-89447500D01*
X196753633Y-89434413D01*
X196744166Y-89384000D01*
X196737623Y-89339432D01*
X196712416Y-89320500D01*
X196700228Y-89316863D01*
X196688340Y-89294639D01*
X196682330Y-89245486D01*
X196680666Y-89161750D01*
X196679939Y-89100809D01*
X196675494Y-89041367D01*
X196665664Y-89011316D01*
X196648916Y-89003000D01*
X196636728Y-88999363D01*
X196624840Y-88977139D01*
X196618830Y-88927986D01*
X196617166Y-88844250D01*
X196616439Y-88783309D01*
X196611994Y-88723867D01*
X196602164Y-88693816D01*
X196585416Y-88685500D01*
X196563133Y-88672413D01*
X196553666Y-88622000D01*
X196553666Y-88558500D01*
X196807666Y-88558500D01*
X196807666Y-88685500D01*
G37*
X196807666Y-88685500D02*
X196807729Y-88700802D01*
X196811083Y-88768171D01*
X196820981Y-88802746D01*
X196839416Y-88812500D01*
X196851605Y-88816137D01*
X196863493Y-88838361D01*
X196869503Y-88887514D01*
X196871166Y-88971250D01*
X196871894Y-89032190D01*
X196876339Y-89091633D01*
X196886169Y-89121684D01*
X196902916Y-89130000D01*
X196906742Y-89130250D01*
X196923584Y-89143664D01*
X196932228Y-89183257D01*
X196934666Y-89257000D01*
X196934729Y-89272302D01*
X196938083Y-89339671D01*
X196947981Y-89374246D01*
X196966416Y-89384000D01*
X196981223Y-89387688D01*
X196998166Y-89415750D01*
X196998417Y-89419575D01*
X197011831Y-89436418D01*
X197051423Y-89445061D01*
X197125166Y-89447500D01*
X197140469Y-89447437D01*
X197207838Y-89444084D01*
X197242413Y-89434186D01*
X197252166Y-89415750D01*
X197252173Y-89415168D01*
X197270955Y-89390974D01*
X197321031Y-89384715D01*
X197395041Y-89397341D01*
X197399573Y-89398773D01*
X197430390Y-89424257D01*
X197444018Y-89461951D01*
X197438260Y-89496114D01*
X197410916Y-89511000D01*
X197396110Y-89514688D01*
X197379166Y-89542750D01*
X197366080Y-89565034D01*
X197315666Y-89574500D01*
X197271099Y-89581043D01*
X197252166Y-89606250D01*
X197251916Y-89610075D01*
X197238502Y-89626918D01*
X197198910Y-89635561D01*
X197125166Y-89638000D01*
X197109864Y-89637937D01*
X197042495Y-89634584D01*
X197007920Y-89624686D01*
X196998166Y-89606250D01*
X196985080Y-89583966D01*
X196934666Y-89574500D01*
X196890099Y-89567956D01*
X196871166Y-89542750D01*
X196867479Y-89527943D01*
X196839416Y-89511000D01*
X196824610Y-89507312D01*
X196807666Y-89479250D01*
X196803979Y-89464443D01*
X196775916Y-89447500D01*
X196753633Y-89434413D01*
X196744166Y-89384000D01*
X196737623Y-89339432D01*
X196712416Y-89320500D01*
X196700228Y-89316863D01*
X196688340Y-89294639D01*
X196682330Y-89245486D01*
X196680666Y-89161750D01*
X196679939Y-89100809D01*
X196675494Y-89041367D01*
X196665664Y-89011316D01*
X196648916Y-89003000D01*
X196636728Y-88999363D01*
X196624840Y-88977139D01*
X196618830Y-88927986D01*
X196617166Y-88844250D01*
X196616439Y-88783309D01*
X196611994Y-88723867D01*
X196602164Y-88693816D01*
X196585416Y-88685500D01*
X196563133Y-88672413D01*
X196553666Y-88622000D01*
X196553666Y-88558500D01*
X196807666Y-88558500D01*
X196807666Y-88685500D01*
%TD*%
M02*
