%TF.GenerationSoftware,KiCad,Pcbnew,(6.0.11)*%
%TF.CreationDate,2024-01-27T16:05:06+09:00*%
%TF.ProjectId,engel_line_board_v2,656e6765-6c5f-46c6-996e-655f626f6172,rev?*%
%TF.SameCoordinates,Original*%
%TF.FileFunction,Soldermask,Bot*%
%TF.FilePolarity,Negative*%
%FSLAX46Y46*%
G04 Gerber Fmt 4.6, Leading zero omitted, Abs format (unit mm)*
G04 Created by KiCad (PCBNEW (6.0.11)) date 2024-01-27 16:05:06*
%MOMM*%
%LPD*%
G01*
G04 APERTURE LIST*
G04 Aperture macros list*
%AMRoundRect*
0 Rectangle with rounded corners*
0 $1 Rounding radius*
0 $2 $3 $4 $5 $6 $7 $8 $9 X,Y pos of 4 corners*
0 Add a 4 corners polygon primitive as box body*
4,1,4,$2,$3,$4,$5,$6,$7,$8,$9,$2,$3,0*
0 Add four circle primitives for the rounded corners*
1,1,$1+$1,$2,$3*
1,1,$1+$1,$4,$5*
1,1,$1+$1,$6,$7*
1,1,$1+$1,$8,$9*
0 Add four rect primitives between the rounded corners*
20,1,$1+$1,$2,$3,$4,$5,0*
20,1,$1+$1,$4,$5,$6,$7,0*
20,1,$1+$1,$6,$7,$8,$9,0*
20,1,$1+$1,$8,$9,$2,$3,0*%
%AMRotRect*
0 Rectangle, with rotation*
0 The origin of the aperture is its center*
0 $1 length*
0 $2 width*
0 $3 Rotation angle, in degrees counterclockwise*
0 Add horizontal line*
21,1,$1,$2,0,0,$3*%
G04 Aperture macros list end*
%ADD10R,1.800000X1.800000*%
%ADD11C,1.800000*%
%ADD12C,1.600000*%
%ADD13RotRect,1.800000X1.800000X260.000000*%
%ADD14RotRect,1.800000X1.800000X320.000000*%
%ADD15RotRect,1.800000X1.800000X191.000000*%
%ADD16RotRect,1.800000X1.800000X77.500000*%
%ADD17RotRect,1.800000X1.800000X88.500000*%
%ADD18RotRect,1.800000X1.800000X169.000000*%
%ADD19RotRect,1.800000X1.800000X340.000000*%
%ADD20RotRect,1.800000X1.800000X40.000000*%
%ADD21RotRect,1.800000X1.800000X120.000000*%
%ADD22RotRect,1.800000X1.800000X300.000000*%
%ADD23RotRect,1.800000X1.800000X110.500000*%
%ADD24RotRect,1.800000X1.800000X100.000000*%
%ADD25RotRect,1.800000X1.800000X99.500000*%
%ADD26RotRect,1.800000X1.800000X101.000000*%
%ADD27RotRect,1.800000X1.800000X200.000000*%
%ADD28RotRect,1.800000X1.800000X80.000000*%
%ADD29RotRect,1.800000X1.800000X220.000000*%
%ADD30RotRect,1.800000X1.800000X79.500000*%
%ADD31RotRect,1.800000X1.800000X160.000000*%
%ADD32RotRect,1.800000X1.800000X280.000000*%
%ADD33RotRect,1.800000X1.800000X140.000000*%
%ADD34RotRect,1.800000X1.800000X20.000000*%
%ADD35RotRect,1.800000X1.800000X240.000000*%
%ADD36RotRect,1.800000X1.800000X60.000000*%
%ADD37R,1.600000X1.600000*%
%ADD38C,1.700000*%
%ADD39RoundRect,0.250000X-0.725000X0.600000X-0.725000X-0.600000X0.725000X-0.600000X0.725000X0.600000X0*%
%ADD40O,1.950000X1.700000*%
G04 APERTURE END LIST*
D10*
%TO.C,D28*%
X211061000Y-206986000D03*
D11*
X213601000Y-206986000D03*
%TD*%
D12*
%TO.C,C21*%
X135382000Y-122444000D03*
X135382000Y-124944000D03*
%TD*%
%TO.C,C29*%
X244322719Y-220553934D03*
X243529457Y-218183125D03*
%TD*%
%TO.C,C8*%
X289052000Y-124924000D03*
X289052000Y-122424000D03*
%TD*%
D13*
%TO.C,D15*%
X201843282Y-182994750D03*
D11*
X201402216Y-185496162D03*
%TD*%
D14*
%TO.C,D12*%
X258559889Y-162081293D03*
D11*
X260505642Y-163713974D03*
%TD*%
D12*
%TO.C,C4*%
X257439175Y-79371677D03*
X255640825Y-81108323D03*
%TD*%
%TO.C,C15*%
X206244340Y-186258153D03*
X206505661Y-183771848D03*
%TD*%
%TO.C,C18*%
X154433069Y-149328421D03*
X156716933Y-148311579D03*
%TD*%
%TO.C,C3*%
X239307964Y-66416508D03*
X238212036Y-68663493D03*
%TD*%
%TO.C,C1*%
X196608755Y-62378045D03*
X197213560Y-64803784D03*
%TD*%
D10*
%TO.C,D6*%
X272539000Y-123166000D03*
D11*
X275079000Y-123166000D03*
%TD*%
D10*
%TO.C,D22*%
X111252000Y-124716000D03*
D11*
X111252000Y-122176000D03*
%TD*%
D12*
%TO.C,C10*%
X313656270Y-108503238D03*
X311183730Y-108872762D03*
%TD*%
D10*
%TO.C,D19*%
X151641000Y-123674000D03*
D11*
X149101000Y-123674000D03*
%TD*%
D12*
%TO.C,C17*%
X166740825Y-167468323D03*
X168539175Y-165731677D03*
%TD*%
%TO.C,C6*%
X274931955Y-118887805D03*
X272438045Y-119062196D03*
%TD*%
D15*
%TO.C,D23*%
X114106950Y-142492343D03*
D11*
X111613617Y-142976998D03*
%TD*%
D16*
%TO.C,D32*%
X190181706Y-223415469D03*
D11*
X190731463Y-220935677D03*
%TD*%
D17*
%TO.C,D31*%
X210545424Y-225790587D03*
D11*
X210611913Y-223251457D03*
%TD*%
D12*
%TO.C,C19*%
X149248045Y-127952196D03*
X151741955Y-127777805D03*
%TD*%
%TO.C,C11*%
X310675730Y-138322838D03*
X313148270Y-138692362D03*
%TD*%
%TO.C,C7*%
X272981577Y-140274547D03*
X270578423Y-139585454D03*
%TD*%
D18*
%TO.C,D24*%
X114352246Y-104443098D03*
D11*
X111858913Y-103958443D03*
%TD*%
D10*
%TO.C,D27*%
X211068000Y-190476000D03*
D11*
X213608000Y-190476000D03*
%TD*%
D12*
%TO.C,C22*%
X116332000Y-124924000D03*
X116332000Y-122424000D03*
%TD*%
D10*
%TO.C,D21*%
X130556000Y-124880000D03*
D11*
X130556000Y-122340000D03*
%TD*%
D19*
%TO.C,D7*%
X268980352Y-143856094D03*
D11*
X271367171Y-144724825D03*
%TD*%
D20*
%TO.C,D4*%
X258233352Y-84369556D03*
D11*
X260179105Y-82736875D03*
%TD*%
D21*
%TO.C,D26*%
X181645530Y-71196630D03*
D11*
X180375530Y-68996925D03*
%TD*%
D12*
%TO.C,C25*%
X160913729Y-87125269D03*
X162936271Y-88594732D03*
%TD*%
D22*
%TO.C,D13*%
X242534470Y-175643370D03*
D11*
X243804470Y-177843075D03*
%TD*%
D12*
%TO.C,C28*%
X211094000Y-211558000D03*
X213594000Y-211558000D03*
%TD*%
D10*
%TO.C,D9*%
X313690000Y-124920000D03*
D11*
X313690000Y-122380000D03*
%TD*%
D23*
%TO.C,D29*%
X248134167Y-219099222D03*
D11*
X247244640Y-216720075D03*
%TD*%
D12*
%TO.C,C30*%
X224971621Y-224970947D03*
X224666948Y-222489582D03*
%TD*%
D24*
%TO.C,D1*%
X201343000Y-63933463D03*
D11*
X200901934Y-61432051D03*
%TD*%
D25*
%TO.C,D30*%
X229235945Y-224341177D03*
D11*
X228816724Y-221836012D03*
%TD*%
D12*
%TO.C,C2*%
X218428327Y-60684867D03*
X218167006Y-63171172D03*
%TD*%
D26*
%TO.C,D10*%
X311949898Y-105483693D03*
D11*
X311465243Y-102990360D03*
%TD*%
D27*
%TO.C,D18*%
X155373394Y-144333458D03*
D11*
X152986575Y-145202189D03*
%TD*%
D12*
%TO.C,C9*%
X308610000Y-124924000D03*
X308610000Y-122424000D03*
%TD*%
D28*
%TO.C,D2*%
X222336718Y-63845250D03*
D11*
X222777784Y-61343838D03*
%TD*%
D12*
%TO.C,C16*%
X184872036Y-180423493D03*
X185967964Y-178176508D03*
%TD*%
D29*
%TO.C,D17*%
X165946648Y-162470444D03*
D11*
X164000895Y-164103125D03*
%TD*%
D30*
%TO.C,D11*%
X311018339Y-144005506D03*
D11*
X311481217Y-141508039D03*
%TD*%
D12*
%TO.C,C27*%
X211093000Y-194540000D03*
X213593000Y-194540000D03*
%TD*%
D31*
%TO.C,D20*%
X155199648Y-102983906D03*
D11*
X152812829Y-102115175D03*
%TD*%
D32*
%TO.C,D14*%
X222837000Y-182906537D03*
D11*
X223278066Y-185407949D03*
%TD*%
D33*
%TO.C,D25*%
X165620111Y-84758707D03*
D11*
X163674358Y-83126026D03*
%TD*%
D12*
%TO.C,C24*%
X111094098Y-108527450D03*
X113567279Y-108892658D03*
%TD*%
D34*
%TO.C,D5*%
X268935200Y-102465000D03*
D11*
X271322019Y-101596269D03*
%TD*%
D12*
%TO.C,C20*%
X151198423Y-106565454D03*
X153601577Y-107254547D03*
%TD*%
%TO.C,C14*%
X227632403Y-184322870D03*
X227027598Y-181897131D03*
%TD*%
%TO.C,C5*%
X269746932Y-97511579D03*
X267463068Y-98528421D03*
%TD*%
%TO.C,C26*%
X176466009Y-71583703D03*
X177863991Y-73656297D03*
%TD*%
%TO.C,C13*%
X247741950Y-175490000D03*
X246343968Y-173417406D03*
%TD*%
D10*
%TO.C,D8*%
X294640000Y-124944000D03*
D11*
X294640000Y-122404000D03*
%TD*%
D35*
%TO.C,D16*%
X182085470Y-175897370D03*
D11*
X180815470Y-178097075D03*
%TD*%
D12*
%TO.C,C23*%
X110853629Y-138395450D03*
X113326810Y-138030242D03*
%TD*%
%TO.C,C31*%
X196370792Y-224290862D03*
X196761878Y-221821641D03*
%TD*%
D36*
%TO.C,D3*%
X242094530Y-70942631D03*
D11*
X243364530Y-68742926D03*
%TD*%
D12*
%TO.C,C12*%
X263525000Y-160250000D03*
X261502458Y-158780537D03*
%TD*%
%TO.C,C32*%
X177060359Y-219581672D03*
X177927698Y-217236950D03*
%TD*%
D37*
%TO.C,C33*%
X224180400Y-80646400D03*
D12*
X226680400Y-80646400D03*
%TD*%
D38*
%TO.C,U33*%
X204470000Y-91440000D03*
X204470000Y-88900000D03*
X204470000Y-86360000D03*
X204470000Y-83820000D03*
X204470000Y-81280000D03*
X204470000Y-78740000D03*
X204470000Y-76200000D03*
X219710000Y-76200000D03*
X219710000Y-78740000D03*
X219710000Y-81280000D03*
X219710000Y-83820000D03*
X219710000Y-86360000D03*
X219710000Y-88900000D03*
X219710000Y-91440000D03*
%TD*%
D39*
%TO.C,J1*%
X231804800Y-79253200D03*
D40*
X231804800Y-81753200D03*
X231804800Y-84253200D03*
X231804800Y-86753200D03*
X231804800Y-89253200D03*
%TD*%
M02*
