M48
; DRILL file {KiCad (6.0.11)} date Sat Jan 27 16:05:08 2024
; FORMAT={-:-/ absolute / metric / decimal}
; #@! TF.CreationDate,2024-01-27T16:05:08+09:00
; #@! TF.GenerationSoftware,Kicad,Pcbnew,(6.0.11)
; #@! TF.FileFunction,Plated,1,2,PTH
FMAT,2
METRIC
; #@! TA.AperFunction,Plated,PTH,ViaDrill
T1C0.400
; #@! TA.AperFunction,Plated,PTH,ComponentDrill
T2C0.800
; #@! TA.AperFunction,Plated,PTH,ComponentDrill
T3C0.900
; #@! TA.AperFunction,Plated,PTH,ComponentDrill
T4C0.950
; #@! TA.AperFunction,Plated,PTH,ComponentDrill
T5C1.000
%
G90
G05
T1
X108.876Y-115.825
X110.896Y-106.402
X113.081Y-132.361
X115.011Y-111.99
X115.011Y-119.559
X122.174Y-124.893
X123.038Y-123.674
X133.248Y-124.233
X141.326Y-124.944
X144.856Y-126.239
X147.371Y-123.471
X148.401Y-125.071
X149.682Y-112.777
X151.994Y-112.396
X152.705Y-129.465
X152.806Y-113.87
X152.908Y-133.834
X153.772Y-105.437
X153.822Y-142.165
X154.635Y-109.348
X154.686Y-138.584
X154.838Y-105.107
X155.854Y-99.544
X156.769Y-146.178
X157.06Y-92.622
X157.886Y-155.932
X157.988Y-98.426
X159.004Y-93.042
X159.817Y-153.087
X159.969Y-94.921
X160.02Y-154.56
X160.985Y-88.927
X162.966Y-94.261
X163.728Y-86.234
X163.881Y-91.568
X164.389Y-87.301
X165.303Y-94.667
X166.37Y-83.136
X167.234Y-86.031
X167.742Y-163.603
X168.859Y-167.667
X170.078Y-81.104
X172.415Y-91.162
X172.974Y-78.056
X173.33Y-82.78
X173.38Y-76.786
X174.041Y-169.292
X175.717Y-73.382
X177.394Y-173.61
X177.8Y-172.137
X178.054Y-70.182
X179.578Y-72.264
X180.086Y-175.185
X182.22Y-219.838
X182.372Y-74.246
X183.49Y-218.238
X183.591Y-177.319
X184.252Y-69.064
X184.252Y-73.23
X185.826Y-66.129
X186.893Y-68.962
X186.995Y-70.08
X187.452Y-72.417
X188.265Y-69.47
X189.179Y-219.508
X190.754Y-73.636
X191.059Y-91.314
X191.11Y-180.164
X191.668Y-66.168
X192.71Y-221.413
X193.751Y-67.743
X193.802Y-85.32
X194.513Y-222.886
X197.002Y-181.332
X197.002Y-183.008
X197.409Y-69.115
X198.984Y-183.161
X199.898Y-67.083
X200.558Y-91.619
X202.235Y-225.071
X203.352Y-68.861
X203.505Y-65.406
X203.911Y-182.856
X204.724Y-185.091
X211.074Y-62.917
X211.074Y-201.398
X211.125Y-188.444
X211.379Y-183.212
X211.43Y-186.209
X211.531Y-184.38
X211.734Y-222.023
X212.265Y-219.025
X212.446Y-62.866
X213.258Y-186.728
X213.411Y-216.587
X213.462Y-182.958
X213.766Y-209.272
X213.817Y-188.481
X213.919Y-221.82
X214.173Y-225.528
X214.274Y-218.162
X214.63Y-212.777
X214.782Y-192.152
X215.138Y-220.397
X217.17Y-185.193
X217.576Y-183.161
X218.44Y-223.039
X219.05Y-225.477
X219.151Y-186.615
X219.659Y-221.616
X219.913Y-182.805
X221.488Y-65.813
X221.64Y-68.759
X224.434Y-64.441
X224.79Y-181.942
X225.603Y-183.161
X226.619Y-68.81
X226.619Y-221.87
X227.228Y-63.882
X227.787Y-66.27
X228.905Y-182.754
X231.546Y-220.854
X231.902Y-223.242
X232.207Y-180.214
X233.223Y-221.007
X233.375Y-66.372
X233.832Y-69.064
X233.832Y-180.519
X235.763Y-71.452
X237.134Y-67.388
X237.185Y-220.346
X237.439Y-178.132
X238.354Y-219.229
X238.455Y-180.519
X239.217Y-221.82
X240.182Y-72.061
X240.386Y-69.318
X240.741Y-176.811
X240.944Y-75.414
X241.148Y-72.62
X242.672Y-72.874
X244.196Y-79.021
X244.246Y-75.262
X245.516Y-219.076
X245.77Y-72.823
X247.294Y-73.484
X248.006Y-173.052
X248.514Y-71.756
X250.292Y-76.836
X250.85Y-170.156
X251.765Y-169.191
X254.864Y-166.143
X256.642Y-85.828
X257.404Y-163.603
X258.877Y-89.028
X259.08Y-91.67
X259.74Y-86.031
X262.077Y-88.165
X263.042Y-157.862
X264.465Y-152.681
X265.278Y-155.068
X265.836Y-97.664
X266.954Y-100.255
X267.767Y-100.865
X268.402Y-145.848
X268.669Y-149.734
X269.291Y-95.683
X269.748Y-104.37
X270.459Y-141.352
X271.577Y-107.723
X271.932Y-138.457
X272.034Y-126.62
X272.39Y-134.545
X272.542Y-120.931
X273.355Y-107.469
X273.406Y-117.324
X274.98Y-129.059
X275.336Y-121.083
X275.906Y-127.941
X277.012Y-122.709
X277.673Y-125.554
X282.651Y-124.334
X287.376Y-122.506
X291.49Y-122.658
X302.463Y-124.69
X307.594Y-147.499
X308.305Y-143.435
X310.236Y-122.658
X310.49Y-119.483
X311.201Y-132.767
X311.81Y-115.394
X312.115Y-107.316
X312.623Y-113.92
X312.826Y-147.804
X312.928Y-131.853
X313.69Y-126.874
X313.792Y-143.842
X314.096Y-140.59
X314.757Y-106.808
X314.858Y-114.682
T2
X110.854Y-138.395
X111.094Y-108.527
X113.327Y-138.03
X113.567Y-108.893
X116.332Y-122.424
X116.332Y-124.924
X135.382Y-122.444
X135.382Y-124.944
X149.248Y-127.952
X151.198Y-106.565
X151.742Y-127.778
X153.602Y-107.255
X154.433Y-149.328
X156.717Y-148.312
X160.914Y-87.125
X162.936Y-88.595
X166.741Y-167.468
X168.539Y-165.732
X176.466Y-71.584
X177.06Y-219.582
X177.864Y-73.656
X177.928Y-217.237
X184.872Y-180.423
X185.968Y-178.177
X196.371Y-224.291
X196.609Y-62.378
X196.762Y-221.822
X197.214Y-64.804
X206.244Y-186.258
X206.506Y-183.772
X211.093Y-194.54
X211.094Y-211.558
X213.593Y-194.54
X213.594Y-211.558
X218.167Y-63.171
X218.428Y-60.685
X224.18Y-80.646
X224.667Y-222.49
X224.972Y-224.971
X226.68Y-80.646
X227.028Y-181.897
X227.632Y-184.323
X238.212Y-68.663
X239.308Y-66.417
X243.529Y-218.183
X244.323Y-220.554
X246.344Y-173.417
X247.742Y-175.49
X255.641Y-81.108
X257.439Y-79.372
X261.502Y-158.781
X263.525Y-160.25
X267.463Y-98.528
X269.747Y-97.512
X270.578Y-139.585
X272.438Y-119.062
X272.982Y-140.275
X274.932Y-118.888
X289.052Y-122.424
X289.052Y-124.924
X308.61Y-122.424
X308.61Y-124.924
X310.676Y-138.323
X311.184Y-108.873
X313.148Y-138.692
X313.656Y-108.503
T3
X111.252Y-122.176
X111.252Y-124.716
X111.614Y-142.977
X111.859Y-103.958
X114.107Y-142.492
X114.352Y-104.443
X130.556Y-122.34
X130.556Y-124.88
X149.101Y-123.674
X151.641Y-123.674
X152.813Y-102.115
X152.987Y-145.202
X155.2Y-102.984
X155.373Y-144.333
X163.674Y-83.126
X164.001Y-164.103
X165.62Y-84.759
X165.947Y-162.47
X180.376Y-68.997
X180.815Y-178.097
X181.646Y-71.197
X182.085Y-175.897
X190.182Y-223.415
X190.731Y-220.936
X200.902Y-61.432
X201.343Y-63.933
X201.402Y-185.496
X201.843Y-182.995
X210.545Y-225.791
X210.612Y-223.251
X211.061Y-206.986
X211.068Y-190.476
X213.601Y-206.986
X213.608Y-190.476
X222.337Y-63.845
X222.778Y-61.344
X222.837Y-182.907
X223.278Y-185.408
X228.817Y-221.836
X229.236Y-224.341
X242.095Y-70.943
X242.534Y-175.643
X243.365Y-68.743
X243.804Y-177.843
X247.245Y-216.72
X248.134Y-219.099
X258.233Y-84.37
X258.56Y-162.081
X260.179Y-82.737
X260.506Y-163.714
X268.935Y-102.465
X268.98Y-143.856
X271.322Y-101.596
X271.367Y-144.725
X272.539Y-123.166
X275.079Y-123.166
X294.64Y-122.404
X294.64Y-124.944
X311.018Y-144.006
X311.465Y-102.99
X311.481Y-141.508
X311.95Y-105.484
X313.69Y-122.38
X313.69Y-124.92
T4
X231.805Y-79.253
X231.805Y-81.753
X231.805Y-84.253
X231.805Y-86.753
X231.805Y-89.253
T5
X204.47Y-76.2
X204.47Y-78.74
X204.47Y-81.28
X204.47Y-83.82
X204.47Y-86.36
X204.47Y-88.9
X204.47Y-91.44
X219.71Y-76.2
X219.71Y-78.74
X219.71Y-81.28
X219.71Y-83.82
X219.71Y-86.36
X219.71Y-88.9
X219.71Y-91.44
T0
M30
