%TF.GenerationSoftware,KiCad,Pcbnew,7.0.2-0*%
%TF.CreationDate,2023-08-02T22:48:59+09:00*%
%TF.ProjectId,power_board,706f7765-725f-4626-9f61-72642e6b6963,rev?*%
%TF.SameCoordinates,Original*%
%TF.FileFunction,Copper,L1,Top*%
%TF.FilePolarity,Positive*%
%FSLAX46Y46*%
G04 Gerber Fmt 4.6, Leading zero omitted, Abs format (unit mm)*
G04 Created by KiCad (PCBNEW 7.0.2-0) date 2023-08-02 22:48:59*
%MOMM*%
%LPD*%
G01*
G04 APERTURE LIST*
G04 Aperture macros list*
%AMOutline4P*
0 Free polygon, 4 corners , with rotation*
0 The origin of the aperture is its center*
0 number of corners: always 4*
0 $1 to $8 corner X, Y*
0 $9 Rotation angle, in degrees counterclockwise*
0 create outline with 4 corners*
4,1,4,$1,$2,$3,$4,$5,$6,$7,$8,$1,$2,$9*%
G04 Aperture macros list end*
%TA.AperFunction,ComponentPad*%
%ADD10O,2.000000X4.000000*%
%TD*%
%TA.AperFunction,ComponentPad*%
%ADD11C,1.440000*%
%TD*%
%TA.AperFunction,ComponentPad*%
%ADD12C,1.400000*%
%TD*%
%TA.AperFunction,ComponentPad*%
%ADD13O,1.400000X1.400000*%
%TD*%
%TA.AperFunction,ComponentPad*%
%ADD14C,1.635000*%
%TD*%
%TA.AperFunction,SMDPad,CuDef*%
%ADD15Outline4P,-1.500000X-0.600000X1.500000X-0.600000X1.500000X0.600000X-1.500000X0.600000X270.000000*%
%TD*%
%TA.AperFunction,SMDPad,CuDef*%
%ADD16Outline4P,-2.035000X-0.885000X2.035000X-0.885000X2.035000X0.885000X-2.035000X0.885000X270.000000*%
%TD*%
%TA.AperFunction,SMDPad,CuDef*%
%ADD17Outline4P,-0.600000X-1.500000X0.600000X-1.500000X0.600000X1.500000X-0.600000X1.500000X270.000000*%
%TD*%
%TA.AperFunction,SMDPad,CuDef*%
%ADD18Outline4P,-0.885000X-2.035000X0.885000X-2.035000X0.885000X2.035000X-0.885000X2.035000X270.000000*%
%TD*%
%TA.AperFunction,SMDPad,CuDef*%
%ADD19Outline4P,-0.750000X-0.600000X0.750000X-0.600000X0.750000X0.600000X-0.750000X0.600000X270.000000*%
%TD*%
%TA.AperFunction,SMDPad,CuDef*%
%ADD20Outline4P,-0.500000X-0.600000X0.500000X-0.600000X0.500000X0.600000X-0.500000X0.600000X270.000000*%
%TD*%
%TA.AperFunction,ComponentPad*%
%ADD21C,1.600000*%
%TD*%
%TA.AperFunction,ComponentPad*%
%ADD22R,1.700000X1.700000*%
%TD*%
%TA.AperFunction,ComponentPad*%
%ADD23O,1.700000X1.700000*%
%TD*%
%TA.AperFunction,ViaPad*%
%ADD24C,0.800000*%
%TD*%
%TA.AperFunction,Conductor*%
%ADD25C,1.000000*%
%TD*%
%TA.AperFunction,Conductor*%
%ADD26C,0.500000*%
%TD*%
G04 APERTURE END LIST*
D10*
%TO.P,SW2,1*%
%TO.N,+12V*%
X164000000Y-99000000D03*
%TO.P,SW2,2*%
%TO.N,Net-(U3-VIN)*%
X170000000Y-99000000D03*
%TD*%
D11*
%TO.P,RV1,1,1*%
%TO.N,Net-(R2-Pad1)*%
X165080000Y-121000000D03*
%TO.P,RV1,2,2*%
X162540000Y-121000000D03*
%TO.P,RV1,3,3*%
%TO.N,Net-(U3-TRIM)*%
X160000000Y-121000000D03*
%TD*%
D12*
%TO.P,R1,1*%
%TO.N,Net-(U3-VIN)*%
X138000000Y-100000000D03*
D13*
%TO.P,R1,2*%
%TO.N,Net-(U3-ON{slash}OFF_CTRL)*%
X143080000Y-100000000D03*
%TD*%
D14*
%TO.P,SW1,1*%
%TO.N,GND*%
X167540000Y-113000000D03*
%TO.P,SW1,2*%
%TO.N,Net-(U3-ON{slash}OFF_CTRL)*%
X165000000Y-113000000D03*
%TO.P,SW1,3*%
%TO.N,N/C*%
X162460000Y-113000000D03*
%TD*%
D15*
%TO.P,U3,1,ON/OFF_CTRL*%
%TO.N,Net-(U3-ON{slash}OFF_CTRL)*%
X150000000Y-107800000D03*
%TO.P,U3,2,VIN*%
%TO.N,Net-(U3-VIN)*%
X154580000Y-107800000D03*
D16*
X154580000Y-109965000D03*
D17*
X155600000Y-111110000D03*
%TO.P,U3,3,GND*%
%TO.N,Net-(R2-Pad2)*%
X155600000Y-113400000D03*
D16*
X154580000Y-114545000D03*
D17*
X155600000Y-115690000D03*
D18*
%TO.P,U3,4,VOUT*%
%TO.N,+5V*%
X153435000Y-118000000D03*
D15*
X154580000Y-119000000D03*
%TO.P,U3,5,SENSE*%
X150000000Y-119000000D03*
%TO.P,U3,6,TRIM*%
%TO.N,Net-(U3-TRIM)*%
X145420000Y-119000000D03*
D17*
%TO.P,U3,7,GND*%
%TO.N,Net-(R2-Pad2)*%
X144400000Y-113400000D03*
%TO.P,U3,8*%
%TO.N,N/C*%
X144400000Y-111110000D03*
D15*
%TO.P,U3,9*%
X145420000Y-107800000D03*
%TO.P,U3,10,PG_OUT*%
%TO.N,unconnected-(U3-PG_OUT-Pad10)*%
X147710000Y-107800000D03*
D19*
%TO.P,U3,11*%
%TO.N,N/C*%
X147710000Y-119750000D03*
D17*
%TO.P,U3,12*%
X144400000Y-115690000D03*
D20*
%TO.P,U3,13*%
X147710000Y-118000000D03*
%TD*%
D21*
%TO.P,C1,1*%
%TO.N,Net-(U3-VIN)*%
X146500000Y-94250000D03*
%TO.P,C1,2*%
%TO.N,GND*%
X151500000Y-94250000D03*
%TD*%
D22*
%TO.P,J2,1,Pin_1*%
%TO.N,+5V*%
X140000000Y-107460000D03*
D23*
%TO.P,J2,2,Pin_2*%
%TO.N,GND*%
X140000000Y-110000000D03*
%TO.P,J2,3,Pin_3*%
%TO.N,+12V*%
X140000000Y-112540000D03*
%TD*%
D21*
%TO.P,C2,1*%
%TO.N,+5V*%
X146500000Y-99000000D03*
%TO.P,C2,2*%
%TO.N,GND*%
X151500000Y-99000000D03*
%TD*%
D12*
%TO.P,R2,1*%
%TO.N,Net-(R2-Pad1)*%
X137460000Y-103000000D03*
D13*
%TO.P,R2,2*%
%TO.N,Net-(R2-Pad2)*%
X142540000Y-103000000D03*
%TD*%
D24*
%TO.N,GND*%
X148000000Y-103000000D03*
%TO.N,+5V*%
X150000000Y-116000000D03*
%TD*%
D25*
%TO.N,Net-(U3-VIN)*%
X153210000Y-92250000D02*
X156210000Y-95250000D01*
X148500000Y-92250000D02*
X153210000Y-92250000D01*
X156210000Y-95250000D02*
X166250000Y-95250000D01*
X166250000Y-95250000D02*
X170000000Y-99000000D01*
D26*
%TO.N,Net-(U3-TRIM)*%
X160000000Y-121000000D02*
X156163688Y-121000000D01*
X156163688Y-121000000D02*
X155243688Y-121920000D01*
X155243688Y-121920000D02*
X152482407Y-121920000D01*
X152482407Y-121920000D02*
X151130000Y-123272407D01*
X151130000Y-123272407D02*
X150986506Y-123454873D01*
X150986506Y-123454873D02*
X150508333Y-123933046D01*
X150508333Y-123933046D02*
X148353046Y-123933046D01*
X148353046Y-123933046D02*
X145420000Y-121000000D01*
X145420000Y-121000000D02*
X145420000Y-119000000D01*
D25*
%TO.N,Net-(U3-VIN)*%
X170000000Y-99000000D02*
X170000000Y-113393176D01*
X143750000Y-94250000D02*
X146500000Y-94250000D01*
X167393176Y-116000000D02*
X159000000Y-116000000D01*
X170000000Y-113393176D02*
X167393176Y-116000000D01*
X138000000Y-100000000D02*
X143750000Y-94250000D01*
X148500000Y-92250000D02*
X146500000Y-94250000D01*
X157810000Y-111110000D02*
X155600000Y-111110000D01*
X159000000Y-116000000D02*
X159000000Y-112300000D01*
X159000000Y-112300000D02*
X157810000Y-111110000D01*
%TO.N,GND*%
X151500000Y-94250000D02*
X151500000Y-99000000D01*
D26*
X141800000Y-109402081D02*
X141800000Y-107770509D01*
X146570509Y-103000000D02*
X148000000Y-103000000D01*
X140000000Y-110000000D02*
X141202081Y-110000000D01*
X141800000Y-107770509D02*
X146570509Y-103000000D01*
X141202081Y-110000000D02*
X141800000Y-109402081D01*
D25*
%TO.N,+5V*%
X150000000Y-119000000D02*
X152435000Y-119000000D01*
D26*
X146500000Y-99000000D02*
X146500000Y-101373453D01*
D25*
X152435000Y-119000000D02*
X153435000Y-118000000D01*
D26*
X146500000Y-101373453D02*
X140413453Y-107460000D01*
D25*
X150000000Y-119000000D02*
X150000000Y-116000000D01*
D26*
X140413453Y-107460000D02*
X140000000Y-107460000D01*
X151852408Y-118247592D02*
X151852408Y-118000000D01*
D25*
%TO.N,Net-(U3-ON{slash}OFF_CTRL)*%
X158256119Y-105100000D02*
X152700000Y-105100000D01*
X143080000Y-99010051D02*
X143080000Y-100000000D01*
X147328428Y-97000000D02*
X145090051Y-97000000D01*
X150000000Y-101000000D02*
X148500000Y-99500000D01*
X165000000Y-111843881D02*
X158256119Y-105100000D01*
X145090051Y-97000000D02*
X143080000Y-99010051D01*
X150000000Y-107800000D02*
X150000000Y-101000000D01*
X148500000Y-99500000D02*
X148500000Y-98171572D01*
X152700000Y-105100000D02*
X150000000Y-107800000D01*
X165000000Y-113000000D02*
X165000000Y-111843881D01*
X148500000Y-98171572D02*
X147328428Y-97000000D01*
%TO.N,Net-(R2-Pad1)*%
X165080000Y-121000000D02*
X162540000Y-121000000D01*
%TO.N,Net-(R2-Pad2)*%
X140360000Y-103000000D02*
X142540000Y-103000000D01*
X142039138Y-113400000D02*
X140849138Y-114590000D01*
X137950000Y-113950000D02*
X137950000Y-105410000D01*
X137950000Y-105410000D02*
X140360000Y-103000000D01*
X140849138Y-114590000D02*
X138590000Y-114590000D01*
X138590000Y-114590000D02*
X137950000Y-113950000D01*
X144400000Y-113400000D02*
X142039138Y-113400000D01*
X155600000Y-113400000D02*
X144400000Y-113400000D01*
%TD*%
M02*
