%TF.GenerationSoftware,KiCad,Pcbnew,7.0.2-0*%
%TF.CreationDate,2023-08-02T22:48:59+09:00*%
%TF.ProjectId,power_board,706f7765-725f-4626-9f61-72642e6b6963,rev?*%
%TF.SameCoordinates,Original*%
%TF.FileFunction,Copper,L2,Bot*%
%TF.FilePolarity,Positive*%
%FSLAX46Y46*%
G04 Gerber Fmt 4.6, Leading zero omitted, Abs format (unit mm)*
G04 Created by KiCad (PCBNEW 7.0.2-0) date 2023-08-02 22:48:59*
%MOMM*%
%LPD*%
G01*
G04 APERTURE LIST*
%TA.AperFunction,ComponentPad*%
%ADD10O,2.000000X4.000000*%
%TD*%
%TA.AperFunction,ComponentPad*%
%ADD11C,1.440000*%
%TD*%
%TA.AperFunction,ComponentPad*%
%ADD12C,1.400000*%
%TD*%
%TA.AperFunction,ComponentPad*%
%ADD13O,1.400000X1.400000*%
%TD*%
%TA.AperFunction,ComponentPad*%
%ADD14C,1.635000*%
%TD*%
%TA.AperFunction,ComponentPad*%
%ADD15C,1.600000*%
%TD*%
%TA.AperFunction,ComponentPad*%
%ADD16R,1.700000X1.700000*%
%TD*%
%TA.AperFunction,ComponentPad*%
%ADD17O,1.700000X1.700000*%
%TD*%
%TA.AperFunction,ViaPad*%
%ADD18C,0.800000*%
%TD*%
%TA.AperFunction,Conductor*%
%ADD19C,1.000000*%
%TD*%
G04 APERTURE END LIST*
D10*
%TO.P,SW2,1*%
%TO.N,+12V*%
X164000000Y-99000000D03*
%TO.P,SW2,2*%
%TO.N,Net-(U3-VIN)*%
X170000000Y-99000000D03*
%TD*%
D11*
%TO.P,RV1,1,1*%
%TO.N,Net-(R2-Pad1)*%
X165080000Y-121000000D03*
%TO.P,RV1,2,2*%
X162540000Y-121000000D03*
%TO.P,RV1,3,3*%
%TO.N,Net-(U3-TRIM)*%
X160000000Y-121000000D03*
%TD*%
D12*
%TO.P,R1,1*%
%TO.N,Net-(U3-VIN)*%
X138000000Y-100000000D03*
D13*
%TO.P,R1,2*%
%TO.N,Net-(U3-ON{slash}OFF_CTRL)*%
X143080000Y-100000000D03*
%TD*%
D14*
%TO.P,SW1,1*%
%TO.N,GND*%
X167540000Y-113000000D03*
%TO.P,SW1,2*%
%TO.N,Net-(U3-ON{slash}OFF_CTRL)*%
X165000000Y-113000000D03*
%TO.P,SW1,3*%
%TO.N,N/C*%
X162460000Y-113000000D03*
%TD*%
D15*
%TO.P,C1,1*%
%TO.N,Net-(U3-VIN)*%
X146500000Y-94250000D03*
%TO.P,C1,2*%
%TO.N,GND*%
X151500000Y-94250000D03*
%TD*%
D16*
%TO.P,J2,1,Pin_1*%
%TO.N,+5V*%
X140000000Y-107460000D03*
D17*
%TO.P,J2,2,Pin_2*%
%TO.N,GND*%
X140000000Y-110000000D03*
%TO.P,J2,3,Pin_3*%
%TO.N,+12V*%
X140000000Y-112540000D03*
%TD*%
D15*
%TO.P,C2,1*%
%TO.N,+5V*%
X146500000Y-99000000D03*
%TO.P,C2,2*%
%TO.N,GND*%
X151500000Y-99000000D03*
%TD*%
D12*
%TO.P,R2,1*%
%TO.N,Net-(R2-Pad1)*%
X137460000Y-103000000D03*
D13*
%TO.P,R2,2*%
%TO.N,Net-(R2-Pad2)*%
X142540000Y-103000000D03*
%TD*%
D18*
%TO.N,GND*%
X148000000Y-103000000D03*
%TO.N,+5V*%
X150000000Y-116000000D03*
%TD*%
D19*
%TO.N,GND*%
X157848060Y-102151940D02*
X158848060Y-103151940D01*
X156000000Y-99000000D02*
X157000000Y-99000000D01*
X154696119Y-99000000D02*
X154000000Y-99000000D01*
X158848060Y-103151940D02*
X167540000Y-111843881D01*
X154000000Y-99000000D02*
X154000000Y-99151940D01*
X156848060Y-101151940D02*
X157848060Y-102151940D01*
X152000000Y-100151940D02*
X154000000Y-100151940D01*
X155848060Y-100151940D02*
X156848060Y-101151940D01*
X154000000Y-100151940D02*
X155000000Y-100151940D01*
X153151940Y-99303880D02*
X154000000Y-100151940D01*
X154696119Y-99000000D02*
X155848060Y-100151940D01*
X154000000Y-99000000D02*
X153151940Y-99000000D01*
X150151940Y-101151940D02*
X156848060Y-101151940D01*
X151500000Y-99500000D02*
X150500000Y-100500000D01*
X153151940Y-99000000D02*
X153151940Y-99303880D01*
X150848060Y-100151940D02*
X152000000Y-100151940D01*
X153151940Y-99000000D02*
X152000000Y-100151940D01*
X156000000Y-99000000D02*
X156000000Y-99460000D01*
X167540000Y-111000000D02*
X167540000Y-111843881D01*
X158696120Y-103000000D02*
X148000000Y-103000000D01*
X150000000Y-101000000D02*
X150151940Y-101151940D01*
X149000000Y-102000000D02*
X148000000Y-103000000D01*
X150000000Y-101000000D02*
X149000000Y-102000000D01*
X167540000Y-110000000D02*
X167540000Y-111000000D01*
X154000000Y-100151940D02*
X154000000Y-99000000D01*
X150500000Y-100500000D02*
X150848060Y-100151940D01*
X157000000Y-99000000D02*
X167540000Y-109540000D01*
X158848060Y-103151940D02*
X158696120Y-103000000D01*
X167540000Y-109540000D02*
X167540000Y-110000000D01*
X157696120Y-102000000D02*
X149000000Y-102000000D01*
X156540000Y-99000000D02*
X167540000Y-110000000D01*
X157848060Y-102151940D02*
X157696120Y-102000000D01*
X151500000Y-99000000D02*
X151500000Y-99500000D01*
X155000000Y-100151940D02*
X155848060Y-100151940D01*
X151500000Y-99000000D02*
X154696119Y-99000000D01*
X156000000Y-99460000D02*
X167540000Y-111000000D01*
X156000000Y-99000000D02*
X156540000Y-99000000D01*
X154000000Y-99151940D02*
X155000000Y-100151940D01*
X150500000Y-100500000D02*
X150000000Y-101000000D01*
X151500000Y-99000000D02*
X156000000Y-99000000D01*
X167540000Y-111843881D02*
X167540000Y-113000000D01*
%TO.N,+12V*%
X163000000Y-98000000D02*
X161000000Y-98000000D01*
X141180000Y-99212994D02*
X141180000Y-100000000D01*
X140000000Y-102852994D02*
X140000000Y-103360000D01*
X140000000Y-101000000D02*
X140000000Y-103360000D01*
X161000000Y-98000000D02*
X160000000Y-98000000D01*
X162000000Y-99000000D02*
X161000000Y-99000000D01*
X141180000Y-100000000D02*
X141000000Y-100000000D01*
X143000000Y-96250000D02*
X141750000Y-96250000D01*
X140000000Y-99000000D02*
X140000000Y-100392994D01*
X143000000Y-96250000D02*
X142750000Y-96250000D01*
X138540000Y-112540000D02*
X140000000Y-112540000D01*
X142750000Y-96250000D02*
X140000000Y-99000000D01*
X141180000Y-100000000D02*
X141180000Y-101672994D01*
X141750000Y-96250000D02*
X140000000Y-98000000D01*
X139360000Y-102212994D02*
X139360000Y-104000000D01*
X146000000Y-96250000D02*
X143000000Y-96250000D01*
X160500000Y-98500000D02*
X160000000Y-98000000D01*
X164000000Y-99000000D02*
X161000000Y-99000000D01*
X141180000Y-101672994D02*
X140000000Y-102852994D01*
X162500000Y-98500000D02*
X160500000Y-98500000D01*
X160000000Y-98000000D02*
X159000000Y-97000000D01*
X162000000Y-97000000D02*
X160000000Y-97000000D01*
X144142994Y-96250000D02*
X143392994Y-97000000D01*
X140000000Y-103360000D02*
X139180000Y-104180000D01*
X137950000Y-105410000D02*
X137950000Y-111950000D01*
X162000000Y-97000000D02*
X161000000Y-98000000D01*
X143392994Y-97000000D02*
X141196497Y-99196497D01*
X161250000Y-96250000D02*
X146000000Y-96250000D01*
X139360000Y-104000000D02*
X139180000Y-104180000D01*
X163000000Y-98000000D02*
X162000000Y-97000000D01*
X140000000Y-100392994D02*
X140000000Y-101000000D01*
X139073503Y-101926497D02*
X139360000Y-102212994D01*
X163000000Y-98000000D02*
X162000000Y-99000000D01*
X162000000Y-97000000D02*
X161250000Y-96250000D01*
X160000000Y-97000000D02*
X159000000Y-97000000D01*
X141196497Y-99196497D02*
X140000000Y-100392994D01*
X140000000Y-98000000D02*
X140000000Y-99000000D01*
X140000000Y-101000000D02*
X140507006Y-101000000D01*
X164000000Y-99000000D02*
X163000000Y-98000000D01*
X146000000Y-96250000D02*
X144142994Y-96250000D01*
X140000000Y-101000000D02*
X139073503Y-101926497D01*
X141196497Y-99196497D02*
X141180000Y-99212994D01*
X139180000Y-104180000D02*
X137950000Y-105410000D01*
X161000000Y-99000000D02*
X160500000Y-98500000D01*
X140507006Y-101000000D02*
X141180000Y-101672994D01*
X137950000Y-111950000D02*
X138540000Y-112540000D01*
X141000000Y-100000000D02*
X140000000Y-101000000D01*
X159000000Y-97000000D02*
X143392994Y-97000000D01*
X163000000Y-98000000D02*
X162500000Y-98500000D01*
X160000000Y-97000000D02*
X161000000Y-98000000D01*
%TO.N,+5V*%
X150000000Y-113000000D02*
X144460000Y-107460000D01*
X141460000Y-107460000D02*
X140000000Y-107460000D01*
X150000000Y-116000000D02*
X150000000Y-115000000D01*
X143000000Y-107460000D02*
X143460000Y-107460000D01*
X150000000Y-114000000D02*
X150000000Y-113000000D01*
X144460000Y-107460000D02*
X143000000Y-107460000D01*
X142000000Y-108000000D02*
X141460000Y-107460000D01*
X142000000Y-108000000D02*
X143000000Y-108000000D01*
X143460000Y-107460000D02*
X150000000Y-114000000D01*
X143000000Y-107460000D02*
X141460000Y-107460000D01*
X150000000Y-116000000D02*
X142000000Y-108000000D01*
X150000000Y-115000000D02*
X150000000Y-114000000D01*
X143000000Y-108000000D02*
X150000000Y-115000000D01*
%TO.N,Net-(R2-Pad1)*%
X141080000Y-119080000D02*
X135500000Y-113500000D01*
X134000000Y-111000000D02*
X134000000Y-112000000D01*
X135000000Y-103000000D02*
X134000000Y-104000000D01*
X160258233Y-117700000D02*
X141295836Y-117700000D01*
X160760316Y-118202082D02*
X141797918Y-118202082D01*
X141797918Y-118202082D02*
X141202082Y-118202082D01*
X162540000Y-120824709D02*
X162540000Y-121000000D01*
X135000000Y-103000000D02*
X135000000Y-113000000D01*
X141202082Y-118202082D02*
X135500000Y-112500000D01*
X137460000Y-103000000D02*
X136000000Y-103000000D01*
X162540000Y-119981767D02*
X161279117Y-118720883D01*
X134000000Y-113000000D02*
X140080000Y-119080000D01*
X162540000Y-121000000D02*
X162540000Y-119981767D01*
X135500000Y-113500000D02*
X134000000Y-112000000D01*
X142000000Y-119080000D02*
X142675836Y-119080000D01*
X136000000Y-112000000D02*
X136000000Y-103000000D01*
X141295836Y-117700000D02*
X141297918Y-117702082D01*
X135000000Y-113000000D02*
X135500000Y-113500000D01*
X135500000Y-112500000D02*
X134000000Y-111000000D01*
X161279117Y-118720883D02*
X160258233Y-117700000D01*
X135500000Y-112500000D02*
X136000000Y-112000000D01*
X134000000Y-104000000D02*
X134000000Y-111000000D01*
X161279117Y-118720883D02*
X160760316Y-118202082D01*
X141797918Y-118202082D02*
X142675836Y-119080000D01*
X142000000Y-119080000D02*
X141080000Y-119080000D01*
X137460000Y-103000000D02*
X136250000Y-104210000D01*
X136250000Y-112654164D02*
X141297918Y-117702082D01*
X136250000Y-104210000D02*
X136250000Y-112654164D01*
X140080000Y-119080000D02*
X142000000Y-119080000D01*
X141297918Y-117702082D02*
X141797918Y-118202082D01*
X134000000Y-112000000D02*
X134000000Y-113000000D01*
X142675836Y-119080000D02*
X160795291Y-119080000D01*
X136000000Y-103000000D02*
X135000000Y-103000000D01*
X160795291Y-119080000D02*
X162540000Y-120824709D01*
%TD*%
M02*
