%TF.GenerationSoftware,KiCad,Pcbnew,7.0.9*%
%TF.CreationDate,2024-06-22T15:00:02+09:00*%
%TF.ProjectId,PSU,5053552e-6b69-4636-9164-5f7063625858,rev?*%
%TF.SameCoordinates,Original*%
%TF.FileFunction,Drillmap*%
%TF.FilePolarity,Positive*%
%FSLAX45Y45*%
G04 Gerber Fmt 4.5, Leading zero omitted, Abs format (unit mm)*
G04 Created by KiCad (PCBNEW 7.0.9) date 2024-06-22 15:00:02*
%MOMM*%
%LPD*%
G01*
G04 APERTURE LIST*
%ADD10C,0.200000*%
G04 APERTURE END LIST*
D10*
X18170101Y-9677400D02*
G75*
G03*
X18170101Y-9677400I-110000J0D01*
G01*
X12278478Y-9535979D02*
G75*
G03*
X12419899Y-9877400I141422J-141421D01*
G01*
X18201523Y-9535979D02*
X16601522Y-7935978D01*
X16460101Y-7877400D02*
X14019899Y-7877400D01*
X18060101Y-9877401D02*
G75*
G03*
X18201523Y-9535979I-1J200001D01*
G01*
X16601522Y-7935979D02*
G75*
G03*
X16460101Y-7877400I-141422J-141421D01*
G01*
X14019899Y-7877399D02*
G75*
G03*
X13878478Y-7935978I1J-200001D01*
G01*
X13878478Y-7935978D02*
X12278477Y-9535979D01*
X16570101Y-8077400D02*
G75*
G03*
X16570101Y-8077400I-110000J0D01*
G01*
X12529899Y-9677400D02*
G75*
G03*
X12529899Y-9677400I-110000J0D01*
G01*
X12419899Y-9877400D02*
X18060101Y-9877400D01*
X14129899Y-8077400D02*
G75*
G03*
X14129899Y-8077400I-110000J0D01*
G01*
X12470677Y-10198884D02*
X12470677Y-9998884D01*
X12470677Y-9998884D02*
X12518296Y-9998884D01*
X12518296Y-9998884D02*
X12546867Y-10008408D01*
X12546867Y-10008408D02*
X12565915Y-10027455D01*
X12565915Y-10027455D02*
X12575439Y-10046503D01*
X12575439Y-10046503D02*
X12584962Y-10084598D01*
X12584962Y-10084598D02*
X12584962Y-10113170D01*
X12584962Y-10113170D02*
X12575439Y-10151265D01*
X12575439Y-10151265D02*
X12565915Y-10170312D01*
X12565915Y-10170312D02*
X12546867Y-10189360D01*
X12546867Y-10189360D02*
X12518296Y-10198884D01*
X12518296Y-10198884D02*
X12470677Y-10198884D01*
X12670677Y-10198884D02*
X12670677Y-10065550D01*
X12670677Y-10103646D02*
X12680201Y-10084598D01*
X12680201Y-10084598D02*
X12689724Y-10075074D01*
X12689724Y-10075074D02*
X12708772Y-10065550D01*
X12708772Y-10065550D02*
X12727820Y-10065550D01*
X12794486Y-10198884D02*
X12794486Y-10065550D01*
X12794486Y-9998884D02*
X12784962Y-10008408D01*
X12784962Y-10008408D02*
X12794486Y-10017931D01*
X12794486Y-10017931D02*
X12804010Y-10008408D01*
X12804010Y-10008408D02*
X12794486Y-9998884D01*
X12794486Y-9998884D02*
X12794486Y-10017931D01*
X12918296Y-10198884D02*
X12899248Y-10189360D01*
X12899248Y-10189360D02*
X12889724Y-10170312D01*
X12889724Y-10170312D02*
X12889724Y-9998884D01*
X13023058Y-10198884D02*
X13004010Y-10189360D01*
X13004010Y-10189360D02*
X12994486Y-10170312D01*
X12994486Y-10170312D02*
X12994486Y-9998884D01*
X13251629Y-10198884D02*
X13251629Y-9998884D01*
X13251629Y-9998884D02*
X13318296Y-10141741D01*
X13318296Y-10141741D02*
X13384962Y-9998884D01*
X13384962Y-9998884D02*
X13384962Y-10198884D01*
X13565915Y-10198884D02*
X13565915Y-10094122D01*
X13565915Y-10094122D02*
X13556391Y-10075074D01*
X13556391Y-10075074D02*
X13537343Y-10065550D01*
X13537343Y-10065550D02*
X13499248Y-10065550D01*
X13499248Y-10065550D02*
X13480201Y-10075074D01*
X13565915Y-10189360D02*
X13546867Y-10198884D01*
X13546867Y-10198884D02*
X13499248Y-10198884D01*
X13499248Y-10198884D02*
X13480201Y-10189360D01*
X13480201Y-10189360D02*
X13470677Y-10170312D01*
X13470677Y-10170312D02*
X13470677Y-10151265D01*
X13470677Y-10151265D02*
X13480201Y-10132217D01*
X13480201Y-10132217D02*
X13499248Y-10122693D01*
X13499248Y-10122693D02*
X13546867Y-10122693D01*
X13546867Y-10122693D02*
X13565915Y-10113170D01*
X13661153Y-10065550D02*
X13661153Y-10265550D01*
X13661153Y-10075074D02*
X13680201Y-10065550D01*
X13680201Y-10065550D02*
X13718296Y-10065550D01*
X13718296Y-10065550D02*
X13737343Y-10075074D01*
X13737343Y-10075074D02*
X13746867Y-10084598D01*
X13746867Y-10084598D02*
X13756391Y-10103646D01*
X13756391Y-10103646D02*
X13756391Y-10160789D01*
X13756391Y-10160789D02*
X13746867Y-10179836D01*
X13746867Y-10179836D02*
X13737343Y-10189360D01*
X13737343Y-10189360D02*
X13718296Y-10198884D01*
X13718296Y-10198884D02*
X13680201Y-10198884D01*
X13680201Y-10198884D02*
X13661153Y-10189360D01*
X13842105Y-10179836D02*
X13851629Y-10189360D01*
X13851629Y-10189360D02*
X13842105Y-10198884D01*
X13842105Y-10198884D02*
X13832582Y-10189360D01*
X13832582Y-10189360D02*
X13842105Y-10179836D01*
X13842105Y-10179836D02*
X13842105Y-10198884D01*
X13842105Y-10075074D02*
X13851629Y-10084598D01*
X13851629Y-10084598D02*
X13842105Y-10094122D01*
X13842105Y-10094122D02*
X13832582Y-10084598D01*
X13832582Y-10084598D02*
X13842105Y-10075074D01*
X13842105Y-10075074D02*
X13842105Y-10094122D01*
M02*
