M48
; DRILL file {KiCad 7.0.9} date 
; FORMAT={-:-/ absolute / metric / decimal}
; #@! TF.CreationDate,2024-06-22T15:00:01+09:00
; #@! TF.GenerationSoftware,Kicad,Pcbnew,7.0.9
; #@! TF.FileFunction,Plated,1,2,PTH
FMAT,2
METRIC
; #@! TA.AperFunction,Plated,PTH,ViaDrill
T1C0.400
; #@! TA.AperFunction,Plated,PTH,ComponentDrill
T2C0.500
; #@! TA.AperFunction,Plated,PTH,ComponentDrill
T3C0.700
; #@! TA.AperFunction,Plated,PTH,ComponentDrill
T4C0.800
; #@! TA.AperFunction,Plated,PTH,ComponentDrill
T5C0.950
; #@! TA.AperFunction,Plated,PTH,ComponentDrill
T6C1.000
; #@! TA.AperFunction,Plated,PTH,ComponentDrill
T7C1.090
; #@! TA.AperFunction,Plated,PTH,ComponentDrill
T8C1.700
%
G90
G05
T1
X127.0Y-91.948
X127.0Y-94.996
X127.0Y-98.044
X129.794Y-89.662
X132.842Y-92.202
X133.604Y-89.408
X135.89Y-91.186
X139.446Y-98.298
X139.954Y-95.504
X141.478Y-84.074
X141.478Y-95.758
X143.256Y-79.248
X143.51Y-98.298
X144.78Y-82.042
X147.066Y-79.502
X147.066Y-96.774
X150.114Y-96.266
X151.638Y-79.502
X153.924Y-79.502
X154.432Y-89.408
X154.432Y-91.44
X155.194Y-88.138
X155.194Y-92.71
X157.226Y-89.154
X157.226Y-92.71
X158.242Y-80.01
X162.56Y-88.646
X162.56Y-90.17
X162.56Y-94.234
X163.068Y-97.536
X163.83Y-95.758
X165.354Y-88.392
X165.608Y-91.44
X166.624Y-92.456
X167.64Y-94.234
X168.148Y-88.392
X171.704Y-87.122
X171.704Y-95.504
X173.228Y-87.376
X173.482Y-90.678
X173.482Y-94.234
X174.244Y-89.154
X175.006Y-95.758
X175.26Y-90.678
X175.26Y-98.298
X177.8Y-93.218
X177.8Y-95.758
X177.8Y-98.298
T3
X156.21Y-86.36
X156.21Y-91.44
X173.736Y-92.456
X173.736Y-97.536
T4
X143.256Y-96.012
X145.796Y-96.012
X148.336Y-96.012
X156.464Y-94.254
X156.464Y-96.754
X160.274Y-80.05
X160.274Y-82.55
T5
X143.51Y-85.424
X143.51Y-87.924
X143.51Y-90.424
X150.154Y-81.517
X152.654Y-81.517
X155.154Y-81.517
T6
X131.94Y-88.278
X133.736Y-86.482
T7
X176.53Y-91.948
X176.53Y-94.488
X176.53Y-97.028
T8
X130.302Y-92.306
X130.302Y-96.266
T2
G00X137.122Y-85.074
M15
G01X138.722Y-85.074
M16
G05
G00X137.122Y-88.774
M15
G01X138.722Y-88.774
M16
G05
G00X137.122Y-93.074
M15
G01X138.722Y-93.074
M16
G05
G00X137.122Y-96.774
M15
G01X138.722Y-96.774
M16
G05
T6
G00X151.4Y-87.63
M15
G01X153.4Y-87.63
M16
G05
G00X151.4Y-93.63
M15
G01X153.4Y-93.63
M16
G05
T0
M30
