0
SECTION
2
HEADER
9
$INSUNITS
70
4
9
$ACADVER
1
AC1014
9
$HANDSEED
5
FFFF
0
ENDSEC
0
SECTION
2
TABLES
0
TABLE
2
VPORT
5
8
100
AcDbSymbolTable
0
ENDTAB
0
TABLE
2
LTYPE
5
5
100
AcDbSymbolTable
0
LTYPE
5
14
100
AcDbSymbolTableRecord
100
AcDbLinetypeTableRecord
2
BYBLOCK
70
0
0
LTYPE
5
15
100
AcDbSymbolTableRecord
100
AcDbLinetypeTableRecord
2
BYLAYER
70
0
0
ENDTAB
0
TABLE
2
LAYER
5
2
100
AcDbSymbolTable
70
2
0
LAYER
5
50
100
AcDbSymbolTableRecord
100
AcDbLayerTableRecord
2
0
70
0
6
CONTINUOUS
0
ENDTAB
0
TABLE
2
STYLE
5
3
100
AcDbSymbolTable
70
1
0
STYLE
5
11
100
AcDbSymbolTableRecord
100
AcDbTextStyleTableRecord
2
STANDARD
70
0
0
ENDTAB
0
TABLE
2
VIEW
5
6
100
AcDbSymbolTable
70
0
0
ENDTAB
0
TABLE
2
UCS
5
7
100
AcDbSymbolTable
70
0
0
ENDTAB
0
TABLE
2
APPID
5
9
100
AcDbSymbolTable
70
2
0
APPID
5
12
100
AcDbSymbolTableRecord
100
AcDbRegAppTableRecord
2
ACAD
70
0
0
ENDTAB
0
TABLE
2
DIMSTYLE
5
A
100
AcDbSymbolTable
70
1
0
ENDTAB
0
TABLE
2
BLOCK_RECORD
5
1
100
AcDbSymbolTable
70
1
0
BLOCK_RECORD
5
1F
100
AcDbSymbolTableRecord
100
AcDbBlockTableRecord
2
*MODEL_SPACE
0
BLOCK_RECORD
5
1B
100
AcDbSymbolTableRecord
100
AcDbBlockTableRecord
2
*PAPER_SPACE
0
ENDTAB
0
ENDSEC
0
SECTION
2
BLOCKS
0
BLOCK
5
20
100
AcDbEntity
100
AcDbBlockBegin
2
*MODEL_SPACE
0
ENDBLK
5
21
100
AcDbEntity
100
AcDbBlockEnd
0
BLOCK
5
1C
100
AcDbEntity
100
AcDbBlockBegin
2
*PAPER_SPACE
0
ENDBLK
5
1D
100
AcDbEntity
100
AcDbBlockEnd
0
ENDSEC
0
SECTION
2
ENTITIES
0
LWPOLYLINE
5
100
100
AcDbEntity
8
0
100
AcDbPolyline
90
18
70
1
43
0.0
10
8.7499999999889262
20
-10.500000000012225
10
8.7499999999994298
20
-7.6199985953082026
10
8.7499999999978684
20
-5.0800020485437312
10
8.7499999999963087
20
-2.5400025342464594
10
8.7499999999947455
20
-2.9403327372889976e-06
10
8.7499999999931823
20
2.5399967032069548
10
8.7499999999916209
20
5.0799963815554676
10
8.7499999999900595
20
7.620003913628417
10
8.7499999999704485
20
10.500000000004448
10
-8.7499999999894609
20
10.500000000025928
10
-8.7499999999989093
20
7.6199991802524032
10
-8.7499999999989111
20
5.0799991805097715
10
-8.7499999999989111
20
2.5399991811511868
10
-8.7499999999989111
20
8.1840540566702202e-07
10
-8.7499999999989111
20
-2.5400008181350842
10
-8.7499999999989111
20
-5.0800008174662468
10
-8.7499999999989111
20
-7.6200008161081092
10
-8.749999999998245
20
-10.499999999995557
0
CIRCLE
5
101
100
AcDbEntity
8
0
100
AcDbCircle
10
7.7500000000004174
20
-7.6199999999988481
30
0
40
0.99999999999999978
210
0
220
0
230
1
0
CIRCLE
5
102
100
AcDbEntity
8
0
100
AcDbCircle
10
7.7499999999999671
20
-5.0799999999988472
30
0
40
0.99999999999999978
210
0
220
0
230
1
0
CIRCLE
5
103
100
AcDbEntity
8
0
100
AcDbCircle
10
7.7499999999995195
20
-2.5399999999988476
30
0
40
0.99999999999999978
210
0
220
0
230
1
0
CIRCLE
5
104
100
AcDbEntity
8
0
100
AcDbCircle
10
7.7499999999990692
20
1.1524114995609125e-12
30
0
40
0.99999999999999978
210
0
220
0
230
1
0
CIRCLE
5
105
100
AcDbEntity
8
0
100
AcDbCircle
10
7.749999999998618
20
2.5400000000011524
30
0
40
0.99999999999999978
210
0
220
0
230
1
0
CIRCLE
5
106
100
AcDbEntity
8
0
100
AcDbCircle
10
7.7499999999981686
20
5.0800000000011529
30
0
40
0.99999999999999978
210
0
220
0
230
1
0
CIRCLE
5
107
100
AcDbEntity
8
0
100
AcDbCircle
10
7.7499999999977174
20
7.6200000000011521
30
0
40
0.99999999999999978
210
0
220
0
230
1
0
CIRCLE
5
108
100
AcDbEntity
8
0
100
AcDbCircle
10
-7.749999999999245
20
7.6199999999997807
30
0
40
0.99999999999999978
210
0
220
0
230
1
0
CIRCLE
5
109
100
AcDbEntity
8
0
100
AcDbCircle
10
-7.7499999999992468
20
5.0799999999997798
30
0
40
0.99999999999999978
210
0
220
0
230
1
0
CIRCLE
5
110
100
AcDbEntity
8
0
100
AcDbCircle
10
-7.7499999999992468
20
2.5399999999997802
30
0
40
0.99999999999999978
210
0
220
0
230
1
0
CIRCLE
5
111
100
AcDbEntity
8
0
100
AcDbCircle
10
-7.7499999999992468
20
-2.1954660311962471e-13
30
0
40
0.99999999999999978
210
0
220
0
230
1
0
CIRCLE
5
112
100
AcDbEntity
8
0
100
AcDbCircle
10
-7.7499999999992468
20
-2.5400000000002199
30
0
40
0.99999999999999978
210
0
220
0
230
1
0
CIRCLE
5
113
100
AcDbEntity
8
0
100
AcDbCircle
10
-7.7499999999992468
20
-5.0800000000002203
30
0
40
0.99999999999999978
210
0
220
0
230
1
0
CIRCLE
5
114
100
AcDbEntity
8
0
100
AcDbCircle
10
-7.749999999999245
20
-7.6200000000002195
30
0
40
0.99999999999999978
210
0
220
0
230
1
0
ENDSEC
0
SECTION
2
OBJECTS
0
DICTIONARY
5
C
100
AcDbDictionary
3
ACAD_GROUP
350
D
3
ACAD_MLINESTYLE
350
17
0
DICTIONARY
5
D
100
AcDbDictionary
0
DICTIONARY
5
1A
330
C
100
AcDbDictionary
0
DICTIONARY
5
17
100
AcDbDictionary
0
ENDSEC
0
EOF
