0
SECTION
2
HEADER
9
$INSUNITS
70
4
9
$ACADVER
1
AC1014
9
$HANDSEED
5
FFFF
0
ENDSEC
0
SECTION
2
TABLES
0
TABLE
2
VPORT
5
8
100
AcDbSymbolTable
0
ENDTAB
0
TABLE
2
LTYPE
5
5
100
AcDbSymbolTable
0
LTYPE
5
14
100
AcDbSymbolTableRecord
100
AcDbLinetypeTableRecord
2
BYBLOCK
70
0
0
LTYPE
5
15
100
AcDbSymbolTableRecord
100
AcDbLinetypeTableRecord
2
BYLAYER
70
0
0
ENDTAB
0
TABLE
2
LAYER
5
2
100
AcDbSymbolTable
70
2
0
LAYER
5
50
100
AcDbSymbolTableRecord
100
AcDbLayerTableRecord
2
0
70
0
6
CONTINUOUS
0
ENDTAB
0
TABLE
2
STYLE
5
3
100
AcDbSymbolTable
70
1
0
STYLE
5
11
100
AcDbSymbolTableRecord
100
AcDbTextStyleTableRecord
2
STANDARD
70
0
0
ENDTAB
0
TABLE
2
VIEW
5
6
100
AcDbSymbolTable
70
0
0
ENDTAB
0
TABLE
2
UCS
5
7
100
AcDbSymbolTable
70
0
0
ENDTAB
0
TABLE
2
APPID
5
9
100
AcDbSymbolTable
70
2
0
APPID
5
12
100
AcDbSymbolTableRecord
100
AcDbRegAppTableRecord
2
ACAD
70
0
0
ENDTAB
0
TABLE
2
DIMSTYLE
5
A
100
AcDbSymbolTable
70
1
0
ENDTAB
0
TABLE
2
BLOCK_RECORD
5
1
100
AcDbSymbolTable
70
1
0
BLOCK_RECORD
5
1F
100
AcDbSymbolTableRecord
100
AcDbBlockTableRecord
2
*MODEL_SPACE
0
BLOCK_RECORD
5
1B
100
AcDbSymbolTableRecord
100
AcDbBlockTableRecord
2
*PAPER_SPACE
0
ENDTAB
0
ENDSEC
0
SECTION
2
BLOCKS
0
BLOCK
5
20
100
AcDbEntity
100
AcDbBlockBegin
2
*MODEL_SPACE
0
ENDBLK
5
21
100
AcDbEntity
100
AcDbBlockEnd
0
BLOCK
5
1C
100
AcDbEntity
100
AcDbBlockBegin
2
*PAPER_SPACE
0
ENDBLK
5
1D
100
AcDbEntity
100
AcDbBlockEnd
0
ENDSEC
0
SECTION
2
ENTITIES
0
CIRCLE
5
100
100
AcDbEntity
8
0
100
AcDbCircle
10
-11.550000000000002
20
37.500000506639367
30
0
40
1.0999999999999985
210
0
220
0
230
1
0
CIRCLE
5
101
100
AcDbEntity
8
0
100
AcDbCircle
10
37
20
-12.000000223128398
30
0
40
1.6000000000000014
210
0
220
0
230
1
0
CIRCLE
5
102
100
AcDbEntity
8
0
100
AcDbCircle
10
-37
20
12.00000022351742
30
0
40
1.6000000000000014
210
0
220
0
230
1
0
CIRCLE
5
103
100
AcDbEntity
8
0
100
AcDbCircle
10
11.550000000000008
20
37.500000506639573
30
0
40
1.0999999999999985
210
0
220
0
230
1
0
CIRCLE
5
104
100
AcDbEntity
8
0
100
AcDbCircle
10
37
20
12.00000022351742
30
0
40
1.6000000000000014
210
0
220
0
230
1
0
CIRCLE
5
105
100
AcDbEntity
8
0
100
AcDbCircle
10
-37
20
-12.000000223128398
30
0
40
1.6000000000000014
210
0
220
0
230
1
0
LWPOLYLINE
5
106
100
AcDbEntity
8
0
100
AcDbPolyline
90
24
70
1
43
0.0
10
37.967097682804308
20
19.098415995689209
42
0.08463554934151582
10
29.493897078200245
20
30.600000574191675
42
0.19413361794556935
10
26.024026833706056
20
32.000000506639708
10
-26.02402683370665
20
32.000000506639232
42
0.19413361794557085
10
-29.493897078200838
20
30.600000574191114
42
0.084635549341511684
10
-37.967097682804301
20
19.098415995689187
42
0.46692130213880523
10
-36.143533725494471
20
14.875146044876203
42
-0.33183767652509438
10
-34.000000506618221
20
11.998993669343236
10
-33.999999999610978
20
-12.000000774471356
42
-0.33174451209611328
10
-36.143533629008637
20
-14.875146368578276
42
0.46692130214441985
10
-37.967097682796343
20
-19.098415995705047
42
0.12139175847089796
10
-24.746835763695874
20
-34.552049428140485
42
0.61046824584255566
10
-20.000000298023224
20
-32.113081233212917
10
-20.000000298023224
20
-17.000000208616257
42
-0.41421356237309548
10
-17.000000298023227
20
-14.000000208616257
10
17.000000298023224
20
-14.000000208616255
42
-0.41421356237309509
10
20.000000298023224
20
-17.000000208616257
10
20.000000298023217
20
-32.113081233212924
42
0.61046824584255988
10
24.746835763695891
20
-34.552049428140464
42
0.1213917584734351
10
37.967097682987415
20
-19.098415995325158
42
0.46692130214489569
10
36.143533629041904
20
-14.875146368588187
42
-0.3317445120993241
10
33.999999999610978
20
-12.000000774471358
10
34
20
12.000000178813933
42
-0.33174456722811091
10
36.143533629067882
20
14.87514636857898
42
0.46692130213880589
0
CIRCLE
5
107
100
AcDbEntity
8
0
100
AcDbCircle
10
-1.9984014443252818e-13
20
-1.865174681370263e-13
30
0
40
50
210
0
220
-0
230
1
0
ENDSEC
0
SECTION
2
OBJECTS
0
DICTIONARY
5
C
100
AcDbDictionary
3
ACAD_GROUP
350
D
3
ACAD_MLINESTYLE
350
17
0
DICTIONARY
5
D
100
AcDbDictionary
0
DICTIONARY
5
1A
330
C
100
AcDbDictionary
0
DICTIONARY
5
17
100
AcDbDictionary
0
ENDSEC
0
EOF
