%TF.GenerationSoftware,KiCad,Pcbnew,7.0.9*%
%TF.CreationDate,2024-03-01T00:51:16+09:00*%
%TF.ProjectId,LineStick2,4c696e65-5374-4696-936b-322e6b696361,rev?*%
%TF.SameCoordinates,Original*%
%TF.FileFunction,Copper,L2,Bot*%
%TF.FilePolarity,Positive*%
%FSLAX46Y46*%
G04 Gerber Fmt 4.6, Leading zero omitted, Abs format (unit mm)*
G04 Created by KiCad (PCBNEW 7.0.9) date 2024-03-01 00:51:16*
%MOMM*%
%LPD*%
G01*
G04 APERTURE LIST*
%TA.AperFunction,ComponentPad*%
%ADD10C,1.600000*%
%TD*%
%TA.AperFunction,ComponentPad*%
%ADD11R,1.800000X1.800000*%
%TD*%
%TA.AperFunction,ComponentPad*%
%ADD12C,1.800000*%
%TD*%
%TA.AperFunction,ComponentPad*%
%ADD13C,1.700000*%
%TD*%
%TA.AperFunction,ComponentPad*%
%ADD14O,1.700000X1.700000*%
%TD*%
%TA.AperFunction,ViaPad*%
%ADD15C,0.800000*%
%TD*%
%TA.AperFunction,Conductor*%
%ADD16C,1.000000*%
%TD*%
G04 APERTURE END LIST*
D10*
%TO.P,C4,1*%
%TO.N,+3V3*%
X149606000Y-83038904D03*
%TO.P,C4,2*%
%TO.N,GND*%
X149606000Y-80538904D03*
%TD*%
D11*
%TO.P,D1,1,K*%
%TO.N,Net-(D1-K)*%
X152908000Y-109220000D03*
D12*
%TO.P,D1,2,A*%
%TO.N,LED*%
X152908000Y-106680000D03*
%TD*%
D10*
%TO.P,C1,1*%
%TO.N,+3V3*%
X149606000Y-122662000D03*
%TO.P,C1,2*%
%TO.N,GND*%
X149606000Y-120162000D03*
%TD*%
%TO.P,C2,1*%
%TO.N,+3V3*%
X149606000Y-109180904D03*
%TO.P,C2,2*%
%TO.N,GND*%
X149606000Y-106680904D03*
%TD*%
%TO.P,C3,1*%
%TO.N,+3V3*%
X149606000Y-96246904D03*
%TO.P,C3,2*%
%TO.N,GND*%
X149606000Y-93746904D03*
%TD*%
D13*
%TO.P,J1,1,Pin_1*%
%TO.N,+3V3*%
X150368000Y-135572500D03*
D14*
%TO.P,J1,2,Pin_2*%
%TO.N,GND*%
X152400000Y-135572500D03*
%TO.P,J1,3,Pin_3*%
%TO.N,LED*%
X154432000Y-135572500D03*
%TO.P,J1,4,Pin_4*%
%TO.N,D2*%
X151384000Y-133667500D03*
%TO.P,J1,5,Pin_5*%
%TO.N,D1*%
X153416000Y-133667500D03*
%TD*%
D11*
%TO.P,D4,1,K*%
%TO.N,Net-(D4-K)*%
X152908000Y-83063000D03*
D12*
%TO.P,D4,2,A*%
%TO.N,LED*%
X152908000Y-80523000D03*
%TD*%
D11*
%TO.P,D2,1,K*%
%TO.N,Net-(D2-K)*%
X152908000Y-122687000D03*
D12*
%TO.P,D2,2,A*%
%TO.N,LED*%
X152908000Y-120147000D03*
%TD*%
D11*
%TO.P,D3,1,K*%
%TO.N,Net-(D3-K)*%
X152908000Y-96271000D03*
D12*
%TO.P,D3,2,A*%
%TO.N,LED*%
X152908000Y-93731000D03*
%TD*%
D15*
%TO.N,GND*%
X151638000Y-124968000D03*
X151130000Y-79502000D03*
X155702000Y-79502000D03*
X152908000Y-85090000D03*
X152908000Y-91694000D03*
X152908000Y-104648000D03*
X153162000Y-98044000D03*
X153674299Y-101341701D03*
X151384000Y-114554000D03*
X153416000Y-114554000D03*
X154175508Y-127756903D03*
X152400000Y-132080000D03*
X150622000Y-131826000D03*
X154178000Y-131826000D03*
X153416000Y-137414000D03*
X151384000Y-137414000D03*
%TO.N,+3V3*%
X149606000Y-90932000D03*
X149606000Y-104140000D03*
X149606000Y-117094000D03*
X149606000Y-130302000D03*
%TD*%
D16*
%TO.N,LED*%
X154432000Y-135572500D02*
X155702000Y-134302500D01*
X155702000Y-134302500D02*
X155702000Y-121324000D01*
X155702000Y-121324000D02*
X155282000Y-120904000D01*
%TO.N,+3V3*%
X149606000Y-130302000D02*
X149098000Y-130810000D01*
X149098000Y-130810000D02*
X149098000Y-134302500D01*
X149098000Y-134302500D02*
X150368000Y-135572500D01*
%TO.N,LED*%
X155282000Y-120904000D02*
X155282000Y-119380000D01*
X155282000Y-119380000D02*
X155282000Y-107442000D01*
X152908000Y-120147000D02*
X154515000Y-120147000D01*
X154515000Y-120147000D02*
X155282000Y-119380000D01*
X154525000Y-120147000D02*
X155282000Y-120904000D01*
X152908000Y-120147000D02*
X154525000Y-120147000D01*
X155282000Y-107442000D02*
X155282000Y-105918000D01*
X155282000Y-105918000D02*
X155282000Y-94488000D01*
X154520000Y-106680000D02*
X155282000Y-105918000D01*
X154520000Y-106680000D02*
X155282000Y-107442000D01*
X152908000Y-106680000D02*
X154520000Y-106680000D01*
X155282000Y-94488000D02*
X155282000Y-92964000D01*
X155282000Y-92964000D02*
X155282000Y-81624208D01*
X152908000Y-93731000D02*
X154515000Y-93731000D01*
X154515000Y-93731000D02*
X155282000Y-92964000D01*
X152908000Y-93731000D02*
X154525000Y-93731000D01*
X154525000Y-93731000D02*
X155282000Y-94488000D01*
X155282000Y-81624208D02*
X154180792Y-80523000D01*
X154180792Y-80523000D02*
X152908000Y-80523000D01*
%TO.N,+3V3*%
X149606000Y-130302000D02*
X149606000Y-122662000D01*
X151106000Y-92432000D02*
X149606000Y-90932000D01*
X151106000Y-94746904D02*
X151106000Y-92432000D01*
X149606000Y-96246904D02*
X151106000Y-94746904D01*
X149606000Y-90932000D02*
X149606000Y-83038904D01*
X151106000Y-105640000D02*
X149606000Y-104140000D01*
X151106000Y-107680904D02*
X151106000Y-105640000D01*
X149606000Y-109180904D02*
X151106000Y-107680904D01*
X149606000Y-104140000D02*
X149606000Y-96246904D01*
X151106000Y-118594000D02*
X149606000Y-117094000D01*
X151106000Y-121162000D02*
X151106000Y-118594000D01*
X149606000Y-122662000D02*
X151106000Y-121162000D01*
X149606000Y-117094000D02*
X149606000Y-109180904D01*
%TD*%
%TA.AperFunction,Conductor*%
%TO.N,GND*%
G36*
X148605703Y-135225570D02*
G01*
X148612181Y-135231602D01*
X148986108Y-135605529D01*
X149019593Y-135666852D01*
X149021955Y-135682401D01*
X149032936Y-135807903D01*
X149032938Y-135807913D01*
X149094094Y-136036155D01*
X149094096Y-136036159D01*
X149094097Y-136036163D01*
X149185594Y-136232378D01*
X149193965Y-136250330D01*
X149193967Y-136250334D01*
X149302281Y-136405021D01*
X149329505Y-136443901D01*
X149496599Y-136610995D01*
X149575881Y-136666509D01*
X149690165Y-136746532D01*
X149690167Y-136746533D01*
X149690170Y-136746535D01*
X149904337Y-136846403D01*
X150132592Y-136907563D01*
X150320918Y-136924039D01*
X150367999Y-136928159D01*
X150368000Y-136928159D01*
X150368001Y-136928159D01*
X150407234Y-136924726D01*
X150603408Y-136907563D01*
X150831663Y-136846403D01*
X151045830Y-136746535D01*
X151239401Y-136610995D01*
X151296673Y-136553723D01*
X151357996Y-136520238D01*
X151427688Y-136525222D01*
X151472035Y-136553723D01*
X151528917Y-136610605D01*
X151722421Y-136746100D01*
X151936507Y-136845929D01*
X151936516Y-136845933D01*
X152150000Y-136903134D01*
X152150000Y-136008001D01*
X152257685Y-136057180D01*
X152364237Y-136072500D01*
X152435763Y-136072500D01*
X152542315Y-136057180D01*
X152650000Y-136008001D01*
X152650000Y-136903133D01*
X152863483Y-136845933D01*
X152863492Y-136845929D01*
X153077578Y-136746100D01*
X153271082Y-136610605D01*
X153327965Y-136553723D01*
X153389288Y-136520238D01*
X153458980Y-136525222D01*
X153503327Y-136553723D01*
X153560599Y-136610995D01*
X153639881Y-136666509D01*
X153754165Y-136746532D01*
X153754167Y-136746533D01*
X153754170Y-136746535D01*
X153968337Y-136846403D01*
X154196592Y-136907563D01*
X154384918Y-136924039D01*
X154431999Y-136928159D01*
X154432000Y-136928159D01*
X154432001Y-136928159D01*
X154471234Y-136924726D01*
X154667408Y-136907563D01*
X154895663Y-136846403D01*
X155109830Y-136746535D01*
X155303401Y-136610995D01*
X155470495Y-136443901D01*
X155606035Y-136250330D01*
X155705903Y-136036163D01*
X155767063Y-135807908D01*
X155778043Y-135682401D01*
X155803495Y-135617334D01*
X155813882Y-135605537D01*
X156187819Y-135231601D01*
X156249142Y-135198116D01*
X156318834Y-135203100D01*
X156374767Y-135244972D01*
X156399184Y-135310436D01*
X156399500Y-135319282D01*
X156399500Y-136146976D01*
X156399367Y-136151033D01*
X156394017Y-136232649D01*
X156381015Y-136414438D01*
X156379980Y-136422118D01*
X156356840Y-136538452D01*
X156325474Y-136682639D01*
X156323599Y-136689394D01*
X156283186Y-136808448D01*
X156233843Y-136940738D01*
X156231357Y-136946496D01*
X156174414Y-137061965D01*
X156107826Y-137183911D01*
X156104960Y-137188645D01*
X156033468Y-137295640D01*
X156031550Y-137298350D01*
X155949744Y-137407632D01*
X155946723Y-137411358D01*
X155861533Y-137508498D01*
X155858759Y-137511460D01*
X155762457Y-137607760D01*
X155759496Y-137610534D01*
X155662358Y-137695722D01*
X155658632Y-137698743D01*
X155549354Y-137780547D01*
X155546644Y-137782465D01*
X155439645Y-137853960D01*
X155434911Y-137856826D01*
X155312952Y-137923421D01*
X155197493Y-137980359D01*
X155191734Y-137982845D01*
X155059429Y-138032192D01*
X154940401Y-138072597D01*
X154933645Y-138074472D01*
X154789419Y-138105847D01*
X154673110Y-138128980D01*
X154665431Y-138130015D01*
X154483766Y-138143009D01*
X154409622Y-138147869D01*
X154402012Y-138148368D01*
X154397958Y-138148501D01*
X150402024Y-138148501D01*
X150397974Y-138148368D01*
X150359954Y-138145876D01*
X150316350Y-138143018D01*
X150134560Y-138130016D01*
X150126880Y-138128981D01*
X150010579Y-138105847D01*
X149866352Y-138074473D01*
X149859596Y-138072598D01*
X149827881Y-138061832D01*
X149740578Y-138032197D01*
X149705768Y-138019213D01*
X149608257Y-137982842D01*
X149602499Y-137980356D01*
X149487047Y-137923422D01*
X149365093Y-137856830D01*
X149360358Y-137853964D01*
X149253346Y-137782461D01*
X149250642Y-137780547D01*
X149141349Y-137698731D01*
X149137650Y-137695732D01*
X149048478Y-137617530D01*
X149040496Y-137610530D01*
X149037535Y-137607756D01*
X148941246Y-137511469D01*
X148938482Y-137508518D01*
X148853256Y-137411336D01*
X148850266Y-137407649D01*
X148768443Y-137298345D01*
X148766561Y-137295686D01*
X148695031Y-137188634D01*
X148692165Y-137183900D01*
X148691077Y-137181909D01*
X148625584Y-137061966D01*
X148568642Y-136946499D01*
X148566156Y-136940741D01*
X148539727Y-136869884D01*
X148516812Y-136808448D01*
X148490734Y-136731624D01*
X148476398Y-136689389D01*
X148474524Y-136682641D01*
X148443158Y-136538452D01*
X148420014Y-136422100D01*
X148418985Y-136414461D01*
X148405983Y-136232684D01*
X148402156Y-136174293D01*
X148400633Y-136151034D01*
X148400500Y-136146979D01*
X148400500Y-135319283D01*
X148420185Y-135252244D01*
X148472989Y-135206489D01*
X148542147Y-135196545D01*
X148605703Y-135225570D01*
G37*
%TD.AperFunction*%
%TA.AperFunction,Conductor*%
G36*
X154458257Y-121511026D02*
G01*
X154502606Y-121539527D01*
X154545966Y-121582887D01*
X154549170Y-121586343D01*
X154589131Y-121632893D01*
X154616294Y-121653918D01*
X154622190Y-121659111D01*
X154665181Y-121702102D01*
X154698666Y-121763425D01*
X154701500Y-121789783D01*
X154701500Y-132755580D01*
X154681815Y-132822619D01*
X154629011Y-132868374D01*
X154559853Y-132878318D01*
X154496297Y-132849293D01*
X154475926Y-132826704D01*
X154454495Y-132796098D01*
X154287402Y-132629006D01*
X154287395Y-132629001D01*
X154093834Y-132493467D01*
X154093830Y-132493465D01*
X154093828Y-132493464D01*
X153879663Y-132393597D01*
X153879659Y-132393596D01*
X153879655Y-132393594D01*
X153651413Y-132332438D01*
X153651403Y-132332436D01*
X153416001Y-132311841D01*
X153415999Y-132311841D01*
X153180596Y-132332436D01*
X153180586Y-132332438D01*
X152952344Y-132393594D01*
X152952335Y-132393598D01*
X152738171Y-132493464D01*
X152738169Y-132493465D01*
X152544600Y-132629003D01*
X152487680Y-132685923D01*
X152426356Y-132719407D01*
X152356664Y-132714422D01*
X152312318Y-132685922D01*
X152255402Y-132629006D01*
X152255395Y-132629001D01*
X152061834Y-132493467D01*
X152061830Y-132493465D01*
X152061828Y-132493464D01*
X151847663Y-132393597D01*
X151847659Y-132393596D01*
X151847655Y-132393594D01*
X151619413Y-132332438D01*
X151619403Y-132332436D01*
X151384001Y-132311841D01*
X151383999Y-132311841D01*
X151148596Y-132332436D01*
X151148586Y-132332438D01*
X150920344Y-132393594D01*
X150920335Y-132393598D01*
X150706171Y-132493464D01*
X150706169Y-132493465D01*
X150512597Y-132629005D01*
X150345504Y-132796098D01*
X150324074Y-132826704D01*
X150269497Y-132870329D01*
X150199999Y-132877521D01*
X150137644Y-132845998D01*
X150102231Y-132785768D01*
X150098500Y-132755580D01*
X150098500Y-131275782D01*
X150118185Y-131208743D01*
X150134815Y-131188105D01*
X150304487Y-131018433D01*
X150369053Y-130957059D01*
X150404119Y-130906675D01*
X150406912Y-130902972D01*
X150445697Y-130855408D01*
X150461604Y-130824952D01*
X150465666Y-130818248D01*
X150485295Y-130790049D01*
X150509497Y-130733650D01*
X150511500Y-130729431D01*
X150539909Y-130675049D01*
X150549357Y-130642022D01*
X150551988Y-130634633D01*
X150565540Y-130603058D01*
X150577894Y-130542936D01*
X150579006Y-130538404D01*
X150595886Y-130479418D01*
X150598493Y-130445166D01*
X150599585Y-130437386D01*
X150606500Y-130403741D01*
X150606500Y-130342388D01*
X150606679Y-130337679D01*
X150611336Y-130276524D01*
X150606997Y-130242449D01*
X150606500Y-130234610D01*
X150606500Y-123539588D01*
X150626185Y-123472549D01*
X150628925Y-123468465D01*
X150736568Y-123314734D01*
X150832739Y-123108496D01*
X150891635Y-122888692D01*
X150897039Y-122826906D01*
X150922490Y-122761840D01*
X150932878Y-122750041D01*
X151295821Y-122387098D01*
X151357142Y-122353615D01*
X151426834Y-122358599D01*
X151482767Y-122400471D01*
X151507184Y-122465935D01*
X151507500Y-122474781D01*
X151507500Y-123634870D01*
X151507501Y-123634876D01*
X151513908Y-123694483D01*
X151564202Y-123829328D01*
X151564206Y-123829335D01*
X151650452Y-123944544D01*
X151650455Y-123944547D01*
X151765664Y-124030793D01*
X151765671Y-124030797D01*
X151900517Y-124081091D01*
X151900516Y-124081091D01*
X151907444Y-124081835D01*
X151960127Y-124087500D01*
X153855872Y-124087499D01*
X153915483Y-124081091D01*
X154050331Y-124030796D01*
X154165546Y-123944546D01*
X154251796Y-123829331D01*
X154302091Y-123694483D01*
X154308500Y-123634873D01*
X154308499Y-121739128D01*
X154302091Y-121679517D01*
X154298744Y-121670543D01*
X154293758Y-121600852D01*
X154327242Y-121539528D01*
X154388565Y-121506042D01*
X154458257Y-121511026D01*
G37*
%TD.AperFunction*%
%TA.AperFunction,Conductor*%
G36*
X149220835Y-120287148D02*
G01*
X149278359Y-120400045D01*
X149367955Y-120489641D01*
X149480852Y-120547165D01*
X149561597Y-120559953D01*
X148880526Y-121241025D01*
X148880526Y-121241026D01*
X148953512Y-121292131D01*
X148953515Y-121292132D01*
X148968974Y-121299341D01*
X149021414Y-121345513D01*
X149040567Y-121412706D01*
X149020352Y-121479587D01*
X148968978Y-121524105D01*
X148953269Y-121531430D01*
X148953265Y-121531432D01*
X148766858Y-121661954D01*
X148612181Y-121816632D01*
X148550858Y-121850117D01*
X148481166Y-121845133D01*
X148425233Y-121803261D01*
X148400816Y-121737797D01*
X148400500Y-121728951D01*
X148400500Y-121011729D01*
X148420185Y-120944690D01*
X148472989Y-120898935D01*
X148524359Y-120890087D01*
X149208046Y-120206399D01*
X149220835Y-120287148D01*
G37*
%TD.AperFunction*%
%TA.AperFunction,Conductor*%
G36*
X148605703Y-117324217D02*
G01*
X148639653Y-117371933D01*
X148661894Y-117427613D01*
X148663474Y-117432051D01*
X148681841Y-117490588D01*
X148681844Y-117490595D01*
X148698509Y-117520619D01*
X148701879Y-117527714D01*
X148714622Y-117559614D01*
X148714627Y-117559624D01*
X148748377Y-117610833D01*
X148750818Y-117614863D01*
X148780588Y-117668498D01*
X148780589Y-117668499D01*
X148780591Y-117668502D01*
X148802968Y-117694567D01*
X148807693Y-117700835D01*
X148820263Y-117719906D01*
X148826598Y-117729519D01*
X148869978Y-117772899D01*
X148873169Y-117776343D01*
X148913131Y-117822892D01*
X148913134Y-117822895D01*
X148940294Y-117843918D01*
X148946190Y-117849111D01*
X149746587Y-118649508D01*
X149780072Y-118710831D01*
X149775088Y-118780523D01*
X149733216Y-118836456D01*
X149667752Y-118860873D01*
X149648099Y-118860717D01*
X149606002Y-118857034D01*
X149605998Y-118857034D01*
X149379400Y-118876858D01*
X149379389Y-118876860D01*
X149159682Y-118935730D01*
X149159673Y-118935734D01*
X148953513Y-119031868D01*
X148880526Y-119082973D01*
X149561599Y-119764046D01*
X149480852Y-119776835D01*
X149367955Y-119834359D01*
X149278359Y-119923955D01*
X149220835Y-120036852D01*
X149208046Y-120117599D01*
X148523964Y-119433517D01*
X148466806Y-119422030D01*
X148416624Y-119373414D01*
X148400500Y-119312269D01*
X148400500Y-117417930D01*
X148420185Y-117350891D01*
X148472989Y-117305136D01*
X148542147Y-117295192D01*
X148605703Y-117324217D01*
G37*
%TD.AperFunction*%
%TA.AperFunction,Conductor*%
G36*
X151426834Y-108877503D02*
G01*
X151482767Y-108919375D01*
X151507184Y-108984839D01*
X151507500Y-108993685D01*
X151507500Y-110167870D01*
X151507501Y-110167876D01*
X151513908Y-110227483D01*
X151564202Y-110362328D01*
X151564206Y-110362335D01*
X151650452Y-110477544D01*
X151650455Y-110477547D01*
X151765664Y-110563793D01*
X151765671Y-110563797D01*
X151900517Y-110614091D01*
X151900516Y-110614091D01*
X151907444Y-110614835D01*
X151960127Y-110620500D01*
X153855872Y-110620499D01*
X153915483Y-110614091D01*
X154050331Y-110563796D01*
X154083188Y-110539198D01*
X154148652Y-110514781D01*
X154216925Y-110529632D01*
X154266331Y-110579037D01*
X154281500Y-110638465D01*
X154281500Y-118914218D01*
X154261815Y-118981257D01*
X154245181Y-119001899D01*
X154136899Y-119110181D01*
X154075576Y-119143666D01*
X154049218Y-119146500D01*
X153944464Y-119146500D01*
X153877425Y-119126815D01*
X153860479Y-119113728D01*
X153859794Y-119113098D01*
X153859784Y-119113087D01*
X153709499Y-118996116D01*
X153676628Y-118970531D01*
X153472504Y-118860064D01*
X153472495Y-118860061D01*
X153252984Y-118784702D01*
X153081282Y-118756050D01*
X153024049Y-118746500D01*
X152791951Y-118746500D01*
X152746164Y-118754140D01*
X152563015Y-118784702D01*
X152343504Y-118860061D01*
X152343490Y-118860067D01*
X152289517Y-118889276D01*
X152221189Y-118903871D01*
X152155817Y-118879208D01*
X152114156Y-118823117D01*
X152106500Y-118780221D01*
X152106500Y-118606675D01*
X152108756Y-118517642D01*
X152108755Y-118517641D01*
X152108756Y-118517636D01*
X152097929Y-118457233D01*
X152097282Y-118452620D01*
X152091074Y-118391562D01*
X152091073Y-118391560D01*
X152091073Y-118391557D01*
X152080790Y-118358787D01*
X152078917Y-118351154D01*
X152072858Y-118317348D01*
X152050102Y-118260378D01*
X152048521Y-118255937D01*
X152030157Y-118197407D01*
X152013488Y-118167378D01*
X152010117Y-118160278D01*
X151997378Y-118128386D01*
X151997377Y-118128383D01*
X151963620Y-118077163D01*
X151961180Y-118073134D01*
X151950379Y-118053675D01*
X151931409Y-118019498D01*
X151931407Y-118019495D01*
X151909033Y-117993434D01*
X151904302Y-117987159D01*
X151885402Y-117958481D01*
X151842012Y-117915091D01*
X151838822Y-117911648D01*
X151798867Y-117865106D01*
X151798863Y-117865102D01*
X151771698Y-117844074D01*
X151765803Y-117838882D01*
X150642819Y-116715898D01*
X150609334Y-116654575D01*
X150606500Y-116628217D01*
X150606500Y-110058492D01*
X150626185Y-109991453D01*
X150628925Y-109987369D01*
X150736568Y-109833638D01*
X150832739Y-109627400D01*
X150891635Y-109407596D01*
X150897039Y-109345810D01*
X150922490Y-109280744D01*
X150932878Y-109268945D01*
X151295821Y-108906002D01*
X151357142Y-108872519D01*
X151426834Y-108877503D01*
G37*
%TD.AperFunction*%
%TA.AperFunction,Conductor*%
G36*
X149220835Y-106806052D02*
G01*
X149278359Y-106918949D01*
X149367955Y-107008545D01*
X149480852Y-107066069D01*
X149561597Y-107078857D01*
X148880526Y-107759929D01*
X148880526Y-107759930D01*
X148953512Y-107811035D01*
X148953515Y-107811036D01*
X148968974Y-107818245D01*
X149021414Y-107864417D01*
X149040567Y-107931610D01*
X149020352Y-107998491D01*
X148968978Y-108043009D01*
X148953269Y-108050334D01*
X148953265Y-108050336D01*
X148766858Y-108180858D01*
X148612181Y-108335536D01*
X148550858Y-108369021D01*
X148481166Y-108364037D01*
X148425233Y-108322165D01*
X148400816Y-108256701D01*
X148400500Y-108247855D01*
X148400500Y-107530633D01*
X148420185Y-107463594D01*
X148472989Y-107417839D01*
X148524359Y-107408991D01*
X149208046Y-106725303D01*
X149220835Y-106806052D01*
G37*
%TD.AperFunction*%
%TA.AperFunction,Conductor*%
G36*
X148605703Y-104370217D02*
G01*
X148639653Y-104417933D01*
X148661894Y-104473613D01*
X148663474Y-104478051D01*
X148681841Y-104536588D01*
X148681844Y-104536595D01*
X148698509Y-104566619D01*
X148701879Y-104573714D01*
X148714622Y-104605614D01*
X148714627Y-104605624D01*
X148748377Y-104656833D01*
X148750818Y-104660863D01*
X148780588Y-104714498D01*
X148780589Y-104714499D01*
X148780591Y-104714502D01*
X148802968Y-104740567D01*
X148807693Y-104746835D01*
X148820263Y-104765906D01*
X148826598Y-104775519D01*
X148869978Y-104818899D01*
X148873169Y-104822343D01*
X148913131Y-104868892D01*
X148913134Y-104868895D01*
X148940294Y-104889918D01*
X148946190Y-104895111D01*
X149280720Y-105229641D01*
X149314205Y-105290964D01*
X149309221Y-105360656D01*
X149267349Y-105416589D01*
X149225133Y-105437097D01*
X149159680Y-105454635D01*
X149159673Y-105454638D01*
X148953513Y-105550772D01*
X148880526Y-105601877D01*
X149561599Y-106282950D01*
X149480852Y-106295739D01*
X149367955Y-106353263D01*
X149278359Y-106442859D01*
X149220835Y-106555756D01*
X149208046Y-106636503D01*
X148523964Y-105952421D01*
X148466806Y-105940934D01*
X148416624Y-105892318D01*
X148400500Y-105831173D01*
X148400500Y-104463930D01*
X148420185Y-104396891D01*
X148472989Y-104351136D01*
X148542147Y-104341192D01*
X148605703Y-104370217D01*
G37*
%TD.AperFunction*%
%TA.AperFunction,Conductor*%
G36*
X151426834Y-95943503D02*
G01*
X151482767Y-95985375D01*
X151507184Y-96050839D01*
X151507500Y-96059685D01*
X151507500Y-97218870D01*
X151507501Y-97218876D01*
X151513908Y-97278483D01*
X151564202Y-97413328D01*
X151564206Y-97413335D01*
X151650452Y-97528544D01*
X151650455Y-97528547D01*
X151765664Y-97614793D01*
X151765671Y-97614797D01*
X151900517Y-97665091D01*
X151900516Y-97665091D01*
X151907444Y-97665835D01*
X151960127Y-97671500D01*
X153855872Y-97671499D01*
X153915483Y-97665091D01*
X154050331Y-97614796D01*
X154083188Y-97590198D01*
X154148652Y-97565781D01*
X154216925Y-97580632D01*
X154266331Y-97630037D01*
X154281500Y-97689465D01*
X154281500Y-105452218D01*
X154261815Y-105519257D01*
X154245181Y-105539899D01*
X154141899Y-105643181D01*
X154080576Y-105676666D01*
X154054218Y-105679500D01*
X153944464Y-105679500D01*
X153877425Y-105659815D01*
X153860479Y-105646728D01*
X153859794Y-105646098D01*
X153859784Y-105646087D01*
X153712949Y-105531801D01*
X153676628Y-105503531D01*
X153472504Y-105393064D01*
X153472495Y-105393061D01*
X153252984Y-105317702D01*
X153081282Y-105289050D01*
X153024049Y-105279500D01*
X152791951Y-105279500D01*
X152746164Y-105287140D01*
X152563015Y-105317702D01*
X152343504Y-105393061D01*
X152343490Y-105393067D01*
X152252275Y-105442430D01*
X152183947Y-105457025D01*
X152118575Y-105432362D01*
X152076914Y-105376271D01*
X152074041Y-105367484D01*
X152072858Y-105363352D01*
X152072858Y-105363347D01*
X152050102Y-105306378D01*
X152048521Y-105301937D01*
X152045078Y-105290964D01*
X152030159Y-105243412D01*
X152030158Y-105243410D01*
X152030157Y-105243407D01*
X152013488Y-105213378D01*
X152010117Y-105206278D01*
X151997378Y-105174386D01*
X151997377Y-105174383D01*
X151963620Y-105123163D01*
X151961180Y-105119134D01*
X151950379Y-105099675D01*
X151931409Y-105065498D01*
X151931407Y-105065495D01*
X151909033Y-105039434D01*
X151904302Y-105033159D01*
X151885402Y-105004481D01*
X151842012Y-104961091D01*
X151838822Y-104957648D01*
X151798867Y-104911106D01*
X151798863Y-104911102D01*
X151771698Y-104890074D01*
X151765803Y-104884882D01*
X150642819Y-103761898D01*
X150609334Y-103700575D01*
X150606500Y-103674217D01*
X150606500Y-97124492D01*
X150626185Y-97057453D01*
X150628925Y-97053369D01*
X150736568Y-96899638D01*
X150832739Y-96693400D01*
X150891635Y-96473596D01*
X150897039Y-96411810D01*
X150922490Y-96346744D01*
X150932878Y-96334945D01*
X151295821Y-95972002D01*
X151357142Y-95938519D01*
X151426834Y-95943503D01*
G37*
%TD.AperFunction*%
%TA.AperFunction,Conductor*%
G36*
X149220835Y-93872052D02*
G01*
X149278359Y-93984949D01*
X149367955Y-94074545D01*
X149480852Y-94132069D01*
X149561597Y-94144857D01*
X148880526Y-94825929D01*
X148880526Y-94825930D01*
X148953512Y-94877035D01*
X148953515Y-94877036D01*
X148968974Y-94884245D01*
X149021414Y-94930417D01*
X149040567Y-94997610D01*
X149020352Y-95064491D01*
X148968978Y-95109009D01*
X148953269Y-95116334D01*
X148953265Y-95116336D01*
X148766858Y-95246858D01*
X148612181Y-95401536D01*
X148550858Y-95435021D01*
X148481166Y-95430037D01*
X148425233Y-95388165D01*
X148400816Y-95322701D01*
X148400500Y-95313855D01*
X148400500Y-94596633D01*
X148420185Y-94529594D01*
X148472989Y-94483839D01*
X148524359Y-94474991D01*
X149208046Y-93791303D01*
X149220835Y-93872052D01*
G37*
%TD.AperFunction*%
%TA.AperFunction,Conductor*%
G36*
X148605703Y-91162217D02*
G01*
X148639653Y-91209933D01*
X148661894Y-91265613D01*
X148663474Y-91270051D01*
X148681841Y-91328588D01*
X148681844Y-91328595D01*
X148698509Y-91358619D01*
X148701879Y-91365714D01*
X148714622Y-91397614D01*
X148714627Y-91397624D01*
X148748377Y-91448833D01*
X148750818Y-91452863D01*
X148780588Y-91506498D01*
X148780589Y-91506499D01*
X148780591Y-91506502D01*
X148802968Y-91532567D01*
X148807693Y-91538835D01*
X148820263Y-91557906D01*
X148826598Y-91567519D01*
X148869978Y-91610899D01*
X148873169Y-91614343D01*
X148913131Y-91660892D01*
X148913134Y-91660895D01*
X148940294Y-91681918D01*
X148946190Y-91687111D01*
X149505339Y-92246260D01*
X149538824Y-92307583D01*
X149533840Y-92377275D01*
X149491968Y-92433208D01*
X149428468Y-92457469D01*
X149379398Y-92461762D01*
X149379389Y-92461764D01*
X149159682Y-92520634D01*
X149159673Y-92520638D01*
X148953513Y-92616772D01*
X148880526Y-92667877D01*
X149561599Y-93348950D01*
X149480852Y-93361739D01*
X149367955Y-93419263D01*
X149278359Y-93508859D01*
X149220835Y-93621756D01*
X149208046Y-93702503D01*
X148523964Y-93018421D01*
X148466806Y-93006934D01*
X148416624Y-92958318D01*
X148400500Y-92897173D01*
X148400500Y-91255930D01*
X148420185Y-91188891D01*
X148472989Y-91143136D01*
X148542147Y-91133192D01*
X148605703Y-91162217D01*
G37*
%TD.AperFunction*%
%TA.AperFunction,Conductor*%
G36*
X156342539Y-78759685D02*
G01*
X156388294Y-78812489D01*
X156399500Y-78864000D01*
X156399500Y-81088210D01*
X156379815Y-81155249D01*
X156327011Y-81201004D01*
X156257853Y-81210948D01*
X156194297Y-81181923D01*
X156171963Y-81156446D01*
X156139621Y-81107372D01*
X156137180Y-81103342D01*
X156126379Y-81083883D01*
X156107409Y-81049706D01*
X156107407Y-81049703D01*
X156085033Y-81023642D01*
X156080302Y-81017367D01*
X156061402Y-80988689D01*
X156018012Y-80945299D01*
X156014822Y-80941856D01*
X155974867Y-80895314D01*
X155974863Y-80895310D01*
X155947698Y-80874282D01*
X155941803Y-80869090D01*
X154897243Y-79824531D01*
X154835853Y-79759949D01*
X154835852Y-79759948D01*
X154835851Y-79759947D01*
X154807996Y-79740559D01*
X154785501Y-79724902D01*
X154781738Y-79722064D01*
X154734205Y-79683305D01*
X154734198Y-79683300D01*
X154703751Y-79667397D01*
X154697043Y-79663334D01*
X154668841Y-79643705D01*
X154668838Y-79643703D01*
X154668837Y-79643703D01*
X154668833Y-79643701D01*
X154612472Y-79619514D01*
X154608216Y-79617493D01*
X154553849Y-79589094D01*
X154553842Y-79589091D01*
X154553841Y-79589091D01*
X154547800Y-79587362D01*
X154520822Y-79579642D01*
X154513422Y-79577008D01*
X154481849Y-79563459D01*
X154481850Y-79563459D01*
X154421758Y-79551109D01*
X154417183Y-79549986D01*
X154358212Y-79533113D01*
X154358217Y-79533113D01*
X154323950Y-79530503D01*
X154316172Y-79529412D01*
X154282534Y-79522500D01*
X154282533Y-79522500D01*
X154221194Y-79522500D01*
X154216487Y-79522321D01*
X154210913Y-79521896D01*
X154155316Y-79517662D01*
X154135381Y-79520201D01*
X154121232Y-79522003D01*
X154113403Y-79522500D01*
X153944464Y-79522500D01*
X153877425Y-79502815D01*
X153860479Y-79489728D01*
X153859794Y-79489098D01*
X153859784Y-79489087D01*
X153730524Y-79388480D01*
X153676628Y-79346531D01*
X153472504Y-79236064D01*
X153472495Y-79236061D01*
X153252984Y-79160702D01*
X153081282Y-79132050D01*
X153024049Y-79122500D01*
X152791951Y-79122500D01*
X152746164Y-79130140D01*
X152563015Y-79160702D01*
X152343504Y-79236061D01*
X152343495Y-79236064D01*
X152139371Y-79346531D01*
X152139365Y-79346535D01*
X151956222Y-79489081D01*
X151956219Y-79489084D01*
X151799016Y-79659852D01*
X151672075Y-79854151D01*
X151578842Y-80066699D01*
X151521866Y-80291691D01*
X151521864Y-80291702D01*
X151502700Y-80522993D01*
X151502700Y-80523006D01*
X151521864Y-80754297D01*
X151521866Y-80754308D01*
X151578842Y-80979300D01*
X151672075Y-81191848D01*
X151799016Y-81386147D01*
X151799019Y-81386151D01*
X151799021Y-81386153D01*
X151893803Y-81489114D01*
X151924724Y-81551767D01*
X151916864Y-81621193D01*
X151872716Y-81675348D01*
X151845906Y-81689277D01*
X151765669Y-81719203D01*
X151765664Y-81719206D01*
X151650455Y-81805452D01*
X151650452Y-81805455D01*
X151564206Y-81920664D01*
X151564202Y-81920671D01*
X151513908Y-82055517D01*
X151507501Y-82115116D01*
X151507500Y-82115135D01*
X151507500Y-84010870D01*
X151507501Y-84010876D01*
X151513908Y-84070483D01*
X151564202Y-84205328D01*
X151564206Y-84205335D01*
X151650452Y-84320544D01*
X151650455Y-84320547D01*
X151765664Y-84406793D01*
X151765671Y-84406797D01*
X151900517Y-84457091D01*
X151900516Y-84457091D01*
X151907444Y-84457835D01*
X151960127Y-84463500D01*
X153855872Y-84463499D01*
X153915483Y-84457091D01*
X154050331Y-84406796D01*
X154083188Y-84382198D01*
X154148652Y-84357781D01*
X154216925Y-84372632D01*
X154266331Y-84422037D01*
X154281500Y-84481465D01*
X154281500Y-92498218D01*
X154261815Y-92565257D01*
X154245181Y-92585899D01*
X154136899Y-92694181D01*
X154075576Y-92727666D01*
X154049218Y-92730500D01*
X153944464Y-92730500D01*
X153877425Y-92710815D01*
X153860479Y-92697728D01*
X153859794Y-92697098D01*
X153859784Y-92697087D01*
X153709499Y-92580116D01*
X153676628Y-92554531D01*
X153472504Y-92444064D01*
X153472495Y-92444061D01*
X153252984Y-92368702D01*
X153081282Y-92340050D01*
X153024049Y-92330500D01*
X152791951Y-92330500D01*
X152746164Y-92338140D01*
X152563015Y-92368702D01*
X152343504Y-92444061D01*
X152343494Y-92444065D01*
X152291623Y-92472136D01*
X152223295Y-92486730D01*
X152157923Y-92462066D01*
X152116263Y-92405975D01*
X152108647Y-92359931D01*
X152108756Y-92355636D01*
X152097929Y-92295233D01*
X152097282Y-92290620D01*
X152091074Y-92229562D01*
X152091073Y-92229560D01*
X152091073Y-92229557D01*
X152080790Y-92196787D01*
X152078917Y-92189154D01*
X152072858Y-92155348D01*
X152050102Y-92098378D01*
X152048521Y-92093937D01*
X152030157Y-92035407D01*
X152013488Y-92005378D01*
X152010117Y-91998278D01*
X151997378Y-91966386D01*
X151997377Y-91966383D01*
X151963620Y-91915163D01*
X151961180Y-91911134D01*
X151950379Y-91891675D01*
X151931409Y-91857498D01*
X151931407Y-91857495D01*
X151909033Y-91831434D01*
X151904302Y-91825159D01*
X151885402Y-91796481D01*
X151842012Y-91753091D01*
X151838822Y-91749648D01*
X151798867Y-91703106D01*
X151798863Y-91703102D01*
X151771698Y-91682074D01*
X151765803Y-91676882D01*
X150642819Y-90553898D01*
X150609334Y-90492575D01*
X150606500Y-90466217D01*
X150606500Y-83916492D01*
X150626185Y-83849453D01*
X150628925Y-83845369D01*
X150736568Y-83691638D01*
X150832739Y-83485400D01*
X150891635Y-83265596D01*
X150911468Y-83038904D01*
X150891635Y-82812212D01*
X150832739Y-82592408D01*
X150736568Y-82386170D01*
X150606047Y-82199765D01*
X150606045Y-82199762D01*
X150445141Y-82038858D01*
X150258734Y-81908336D01*
X150258730Y-81908334D01*
X150243022Y-81901009D01*
X150190583Y-81854835D01*
X150171433Y-81787641D01*
X150191650Y-81720761D01*
X150243028Y-81676244D01*
X150258481Y-81669038D01*
X150331472Y-81617929D01*
X149650401Y-80936857D01*
X149731148Y-80924069D01*
X149844045Y-80866545D01*
X149933641Y-80776949D01*
X149991165Y-80664052D01*
X150003953Y-80583304D01*
X150685025Y-81264376D01*
X150736136Y-81191382D01*
X150832264Y-80985235D01*
X150832269Y-80985221D01*
X150891139Y-80765514D01*
X150891141Y-80765503D01*
X150910966Y-80538906D01*
X150910966Y-80538901D01*
X150891141Y-80312304D01*
X150891139Y-80312293D01*
X150832269Y-80092586D01*
X150832265Y-80092577D01*
X150736133Y-79886420D01*
X150736131Y-79886416D01*
X150685026Y-79813430D01*
X150685025Y-79813430D01*
X150003953Y-80494502D01*
X149991165Y-80413756D01*
X149933641Y-80300859D01*
X149844045Y-80211263D01*
X149731148Y-80153739D01*
X149650400Y-80140950D01*
X150331472Y-79459878D01*
X150331471Y-79459877D01*
X150258483Y-79408770D01*
X150258481Y-79408769D01*
X150052326Y-79312638D01*
X150052317Y-79312634D01*
X149832610Y-79253764D01*
X149832599Y-79253762D01*
X149606002Y-79233938D01*
X149605998Y-79233938D01*
X149379400Y-79253762D01*
X149379389Y-79253764D01*
X149159682Y-79312634D01*
X149159673Y-79312638D01*
X148953513Y-79408772D01*
X148880527Y-79459876D01*
X148880526Y-79459877D01*
X149561600Y-80140950D01*
X149480852Y-80153739D01*
X149367955Y-80211263D01*
X149278359Y-80300859D01*
X149220835Y-80413756D01*
X149208046Y-80494503D01*
X148523964Y-79810421D01*
X148466806Y-79798934D01*
X148416624Y-79750318D01*
X148400500Y-79689173D01*
X148400500Y-78864000D01*
X148420185Y-78796961D01*
X148472989Y-78751206D01*
X148524500Y-78740000D01*
X156275500Y-78740000D01*
X156342539Y-78759685D01*
G37*
%TD.AperFunction*%
%TA.AperFunction,Conductor*%
G36*
X149220835Y-80664052D02*
G01*
X149278359Y-80776949D01*
X149367955Y-80866545D01*
X149480852Y-80924069D01*
X149561599Y-80936857D01*
X148880526Y-81617929D01*
X148880526Y-81617930D01*
X148953512Y-81669035D01*
X148953515Y-81669036D01*
X148968974Y-81676245D01*
X149021414Y-81722417D01*
X149040567Y-81789610D01*
X149020352Y-81856491D01*
X148968978Y-81901009D01*
X148953269Y-81908334D01*
X148953265Y-81908336D01*
X148766858Y-82038858D01*
X148612181Y-82193536D01*
X148550858Y-82227021D01*
X148481166Y-82222037D01*
X148425233Y-82180165D01*
X148400816Y-82114701D01*
X148400500Y-82105855D01*
X148400500Y-81388633D01*
X148420185Y-81321594D01*
X148472989Y-81275839D01*
X148524359Y-81266991D01*
X149208046Y-80583303D01*
X149220835Y-80664052D01*
G37*
%TD.AperFunction*%
%TD*%
M02*
