%TF.GenerationSoftware,KiCad,Pcbnew,7.0.9*%
%TF.CreationDate,2024-03-01T00:51:16+09:00*%
%TF.ProjectId,LineStick2,4c696e65-5374-4696-936b-322e6b696361,rev?*%
%TF.SameCoordinates,Original*%
%TF.FileFunction,Legend,Top*%
%TF.FilePolarity,Positive*%
%FSLAX46Y46*%
G04 Gerber Fmt 4.6, Leading zero omitted, Abs format (unit mm)*
G04 Created by KiCad (PCBNEW 7.0.9) date 2024-03-01 00:51:16*
%MOMM*%
%LPD*%
G01*
G04 APERTURE LIST*
%ADD10C,0.120000*%
G04 APERTURE END LIST*
D10*
%TO.C,C4*%
X148686000Y-82417904D02*
X148686000Y-81159904D01*
X150526000Y-82417904D02*
X150526000Y-81159904D01*
%TO.C,D1*%
X151672000Y-109510000D02*
X151828000Y-109510000D01*
X153988000Y-109510000D02*
X154144000Y-109510000D01*
X151829392Y-106277666D02*
G75*
G03*
X151672485Y-109509999I1078608J-1672334D01*
G01*
X151828164Y-106908871D02*
G75*
G03*
X151828001Y-108990960I1079836J-1041129D01*
G01*
X153987999Y-108990960D02*
G75*
G03*
X153987836Y-106908871I-1079999J1040960D01*
G01*
X154143515Y-109509999D02*
G75*
G03*
X153986608Y-106277666I-1235515J1559999D01*
G01*
%TO.C,U3*%
X154940000Y-101346000D02*
X152400000Y-101346000D01*
X152400000Y-101346000D02*
X152400000Y-100076000D01*
X152400000Y-100076000D02*
X154940000Y-100076000D01*
X154940000Y-100076000D02*
X154940000Y-101346000D01*
X154940000Y-102616000D02*
X149860000Y-102616000D01*
X149860000Y-102616000D02*
X149860000Y-100076000D01*
X149860000Y-100076000D02*
X154940000Y-100076000D01*
X154940000Y-100076000D02*
X154940000Y-102616000D01*
%TO.C,U1*%
X154940000Y-114556000D02*
X152400000Y-114556000D01*
X152400000Y-114556000D02*
X152400000Y-113286000D01*
X152400000Y-113286000D02*
X154940000Y-113286000D01*
X154940000Y-113286000D02*
X154940000Y-114556000D01*
X154940000Y-115826000D02*
X149860000Y-115826000D01*
X149860000Y-115826000D02*
X149860000Y-113286000D01*
X149860000Y-113286000D02*
X154940000Y-113286000D01*
X154940000Y-113286000D02*
X154940000Y-115826000D01*
%TO.C,C1*%
X148686000Y-122041000D02*
X148686000Y-120783000D01*
X150526000Y-122041000D02*
X150526000Y-120783000D01*
%TO.C,C2*%
X148686000Y-108559904D02*
X148686000Y-107301904D01*
X150526000Y-108559904D02*
X150526000Y-107301904D01*
%TO.C,U2*%
X154940000Y-127764000D02*
X152400000Y-127764000D01*
X152400000Y-127764000D02*
X152400000Y-126494000D01*
X152400000Y-126494000D02*
X154940000Y-126494000D01*
X154940000Y-126494000D02*
X154940000Y-127764000D01*
X154940000Y-129034000D02*
X149860000Y-129034000D01*
X149860000Y-129034000D02*
X149860000Y-126494000D01*
X149860000Y-126494000D02*
X154940000Y-126494000D01*
X154940000Y-126494000D02*
X154940000Y-129034000D01*
%TO.C,C3*%
X148686000Y-95625904D02*
X148686000Y-94367904D01*
X150526000Y-95625904D02*
X150526000Y-94367904D01*
%TO.C,D4*%
X151672000Y-83353000D02*
X151828000Y-83353000D01*
X153988000Y-83353000D02*
X154144000Y-83353000D01*
X151829392Y-80120666D02*
G75*
G03*
X151672485Y-83352999I1078608J-1672334D01*
G01*
X151828164Y-80751871D02*
G75*
G03*
X151828001Y-82833960I1079836J-1041129D01*
G01*
X153987999Y-82833960D02*
G75*
G03*
X153987836Y-80751871I-1079999J1040960D01*
G01*
X154143515Y-83352999D02*
G75*
G03*
X153986608Y-80120666I-1235515J1559999D01*
G01*
%TO.C,D2*%
X151672000Y-122977000D02*
X151828000Y-122977000D01*
X153988000Y-122977000D02*
X154144000Y-122977000D01*
X151829392Y-119744666D02*
G75*
G03*
X151672485Y-122976999I1078608J-1672334D01*
G01*
X151828164Y-120375871D02*
G75*
G03*
X151828001Y-122457960I1079836J-1041129D01*
G01*
X153987999Y-122457960D02*
G75*
G03*
X153987836Y-120375871I-1079999J1040960D01*
G01*
X154143515Y-122976999D02*
G75*
G03*
X153986608Y-119744666I-1235515J1559999D01*
G01*
%TO.C,D3*%
X151672000Y-96561000D02*
X151828000Y-96561000D01*
X153988000Y-96561000D02*
X154144000Y-96561000D01*
X151829392Y-93328666D02*
G75*
G03*
X151672485Y-96560999I1078608J-1672334D01*
G01*
X151828164Y-93959871D02*
G75*
G03*
X151828001Y-96041960I1079836J-1041129D01*
G01*
X153987999Y-96041960D02*
G75*
G03*
X153987836Y-93959871I-1079999J1040960D01*
G01*
X154143515Y-96560999D02*
G75*
G03*
X153986608Y-93328666I-1235515J1559999D01*
G01*
%TO.C,U4*%
X154940000Y-88158000D02*
X152400000Y-88158000D01*
X152400000Y-88158000D02*
X152400000Y-86888000D01*
X152400000Y-86888000D02*
X154940000Y-86888000D01*
X154940000Y-86888000D02*
X154940000Y-88158000D01*
X154940000Y-89428000D02*
X149860000Y-89428000D01*
X149860000Y-89428000D02*
X149860000Y-86888000D01*
X149860000Y-86888000D02*
X154940000Y-86888000D01*
X154940000Y-86888000D02*
X154940000Y-89428000D01*
%TD*%
M02*
