%TF.GenerationSoftware,KiCad,Pcbnew,(6.0.11)*%
%TF.CreationDate,2023-10-13T17:08:53+09:00*%
%TF.ProjectId,engel_line_board,656e6765-6c5f-46c6-996e-655f626f6172,rev?*%
%TF.SameCoordinates,Original*%
%TF.FileFunction,Legend,Top*%
%TF.FilePolarity,Positive*%
%FSLAX46Y46*%
G04 Gerber Fmt 4.6, Leading zero omitted, Abs format (unit mm)*
G04 Created by KiCad (PCBNEW (6.0.11)) date 2023-10-13 17:08:53*
%MOMM*%
%LPD*%
G01*
G04 APERTURE LIST*
%ADD10C,0.120000*%
G04 APERTURE END LIST*
D10*
%TO.C,D4*%
X212753273Y-80351806D02*
X212792333Y-80502837D01*
X213333154Y-82594036D02*
X213372213Y-82745067D01*
X215310652Y-79851723D02*
G75*
G03*
X213294839Y-80372880I-737598J-1306120D01*
G01*
X215922059Y-79694872D02*
G75*
G03*
X212753395Y-80352274I-1349005J-1462971D01*
G01*
X213835660Y-82464078D02*
G75*
G03*
X215851391Y-81942607I737394J1306235D01*
G01*
X213372092Y-82744598D02*
G75*
G03*
X216462183Y-81783376I1200962J1586755D01*
G01*
%TO.C,U11*%
X111833357Y-143278746D02*
X108241254Y-139686643D01*
X108241254Y-139686643D02*
X110037305Y-137890592D01*
X110037305Y-137890592D02*
X113629408Y-141482695D01*
X113629408Y-141482695D02*
X111833357Y-143278746D01*
X112731382Y-142380720D02*
X110935331Y-140584669D01*
X110935331Y-140584669D02*
X111833357Y-139686643D01*
X111833357Y-139686643D02*
X113629408Y-141482695D01*
X113629408Y-141482695D02*
X112731382Y-142380720D01*
%TO.C,D15*%
X117825931Y-49381754D02*
X117950518Y-49287871D01*
X119675571Y-47987950D02*
X119800158Y-47894067D01*
X116385249Y-47210418D02*
G75*
G03*
X117638153Y-48873348I1488964J-181621D01*
G01*
X119363205Y-47573427D02*
G75*
G03*
X118110041Y-45910693I-1488992J181388D01*
G01*
X116006363Y-46705575D02*
G75*
G03*
X117826317Y-49381462I1867850J-686464D01*
G01*
X119799771Y-47894358D02*
G75*
G03*
X117729191Y-45407330I-1925558J502319D01*
G01*
%TO.C,C7*%
X202233822Y-133854808D02*
X202627148Y-133369092D01*
X205766817Y-135911546D02*
X202627148Y-133369092D01*
X205373492Y-136397263D02*
X205766817Y-135911546D01*
X200839878Y-135576187D02*
X201233203Y-135090470D01*
X203979547Y-138118641D02*
X200839878Y-135576187D01*
X203979547Y-138118641D02*
X204372873Y-137632925D01*
%TO.C,U13*%
X91438000Y-99120000D02*
X93978000Y-99120000D01*
X93978000Y-99120000D02*
X93978000Y-94040000D01*
X93978000Y-94040000D02*
X91438000Y-94040000D01*
X91438000Y-94040000D02*
X91438000Y-99120000D01*
X92708000Y-99120000D02*
X93978000Y-99120000D01*
X93978000Y-99120000D02*
X93978000Y-96580000D01*
X93978000Y-96580000D02*
X92708000Y-96580000D01*
X92708000Y-96580000D02*
X92708000Y-99120000D01*
%TO.C,D3*%
X203533647Y-61314367D02*
X203627530Y-61438954D01*
X202139843Y-59464727D02*
X202233726Y-59589314D01*
X203948170Y-61002001D02*
G75*
G03*
X205610904Y-59748837I181388J1488992D01*
G01*
X203627239Y-61438567D02*
G75*
G03*
X206114267Y-59367987I502319J1925558D01*
G01*
X204311179Y-58024045D02*
G75*
G03*
X202648249Y-59276949I-181621J-1488964D01*
G01*
X204816022Y-57645159D02*
G75*
G03*
X202140135Y-59465113I-686464J-1867850D01*
G01*
%TO.C,D1*%
X164364329Y-37282535D02*
X164518811Y-37304246D01*
X162070868Y-36960210D02*
X162225350Y-36981921D01*
X162587520Y-34406128D02*
G75*
G03*
X162297587Y-36467933I924430J-1181282D01*
G01*
X164436566Y-36768547D02*
G75*
G03*
X164726175Y-34706696I-924616J1181137D01*
G01*
X164518332Y-37304179D02*
G75*
G03*
X164812805Y-34081463I-1006382J1716769D01*
G01*
X162676584Y-33781237D02*
G75*
G03*
X162071348Y-36960277I835366J-1806173D01*
G01*
%TO.C,U5*%
X218442000Y-94040000D02*
X215902000Y-94040000D01*
X215902000Y-94040000D02*
X215902000Y-99120000D01*
X215902000Y-99120000D02*
X218442000Y-99120000D01*
X218442000Y-99120000D02*
X218442000Y-94040000D01*
X217172000Y-94040000D02*
X215902000Y-94040000D01*
X215902000Y-94040000D02*
X215902000Y-96580000D01*
X215902000Y-96580000D02*
X217172000Y-96580000D01*
X217172000Y-96580000D02*
X217172000Y-94040000D01*
%TO.C,D13*%
X95639564Y-87155254D02*
X95661275Y-87000772D01*
X95317239Y-89448715D02*
X95338950Y-89294233D01*
X95125576Y-87083017D02*
G75*
G03*
X93063725Y-86793408I-1181137J-924616D01*
G01*
X95661208Y-87001251D02*
G75*
G03*
X92438492Y-86706778I-1716769J-1006382D01*
G01*
X92763157Y-88932063D02*
G75*
G03*
X94824962Y-89221996I1181282J924430D01*
G01*
X92138266Y-88842999D02*
G75*
G03*
X95317306Y-89448235I1806173J835366D01*
G01*
%TO.C,U6*%
X213406887Y-118048501D02*
X212434871Y-120395155D01*
X212434871Y-120395155D02*
X211261544Y-119909147D01*
X211261544Y-119909147D02*
X212233560Y-117562493D01*
X212233560Y-117562493D02*
X213406887Y-118048501D01*
X214580214Y-118534509D02*
X212636182Y-123227817D01*
X212636182Y-123227817D02*
X210289528Y-122255801D01*
X210289528Y-122255801D02*
X212233560Y-117562493D01*
X212233560Y-117562493D02*
X214580214Y-118534509D01*
%TO.C,C2*%
X171827030Y-34570613D02*
X170679608Y-38444245D01*
X174550078Y-35377217D02*
X173402656Y-39250848D01*
X171278870Y-38621754D02*
X170679608Y-38444245D01*
X173402656Y-39250848D02*
X172803394Y-39073339D01*
X172426292Y-34748123D02*
X171827030Y-34570613D01*
X174550078Y-35377217D02*
X173950816Y-35199707D01*
%TO.C,C5*%
X219008341Y-91273968D02*
X214990473Y-91696263D01*
X218776811Y-89071102D02*
X218711480Y-88449526D01*
X214990473Y-91696263D02*
X214925143Y-91074687D01*
X214758942Y-89493397D02*
X214693612Y-88871821D01*
X218711480Y-88449526D02*
X214693612Y-88871821D01*
X219008341Y-91273968D02*
X218943011Y-90652392D01*
%TO.C,U10*%
X132985491Y-156220214D02*
X128292183Y-154276182D01*
X128292183Y-154276182D02*
X129264199Y-151929528D01*
X129264199Y-151929528D02*
X133957507Y-153873560D01*
X133957507Y-153873560D02*
X132985491Y-156220214D01*
X133471499Y-155046887D02*
X131124845Y-154074871D01*
X131124845Y-154074871D02*
X131610853Y-152901544D01*
X131610853Y-152901544D02*
X133957507Y-153873560D01*
X133957507Y-153873560D02*
X133471499Y-155046887D01*
%TO.C,C16*%
X123573392Y-40476008D02*
X123024131Y-40774232D01*
X125519972Y-39419101D02*
X124970711Y-39717326D01*
X123024131Y-40774232D02*
X124951853Y-44324653D01*
X127447693Y-42969523D02*
X126898433Y-43267747D01*
X125501114Y-44026429D02*
X124951853Y-44324653D01*
X125519972Y-39419101D02*
X127447693Y-42969523D01*
%TO.C,D9*%
X145515671Y-155877465D02*
X145361189Y-155855754D01*
X147809132Y-156199790D02*
X147654650Y-156178079D01*
X147292480Y-158753872D02*
G75*
G03*
X147582413Y-156692067I-924430J1181282D01*
G01*
X147203416Y-159378763D02*
G75*
G03*
X147808652Y-156199723I-835366J1806173D01*
G01*
X145443434Y-156391453D02*
G75*
G03*
X145153825Y-158453304I924616J-1181137D01*
G01*
X145361668Y-155855821D02*
G75*
G03*
X145067195Y-159078537I1006382J-1716769D01*
G01*
%TO.C,U8*%
X181101809Y-153102855D02*
X178755155Y-154074871D01*
X178755155Y-154074871D02*
X178269147Y-152901544D01*
X178269147Y-152901544D02*
X180615801Y-151929528D01*
X180615801Y-151929528D02*
X181101809Y-153102855D01*
X181587817Y-154276182D02*
X176894509Y-156220214D01*
X176894509Y-156220214D02*
X175922493Y-153873560D01*
X175922493Y-153873560D02*
X180615801Y-151929528D01*
X180615801Y-151929528D02*
X181587817Y-154276182D01*
%TO.C,U7*%
X200740720Y-138788618D02*
X198944669Y-140584669D01*
X198944669Y-140584669D02*
X198046643Y-139686643D01*
X198046643Y-139686643D02*
X199842695Y-137890592D01*
X199842695Y-137890592D02*
X200740720Y-138788618D01*
X201638746Y-139686643D02*
X198046643Y-143278746D01*
X198046643Y-143278746D02*
X196250592Y-141482695D01*
X196250592Y-141482695D02*
X199842695Y-137890592D01*
X199842695Y-137890592D02*
X201638746Y-139686643D01*
%TO.C,U2*%
X176408501Y-38113113D02*
X178755155Y-39085129D01*
X178755155Y-39085129D02*
X178269147Y-40258456D01*
X178269147Y-40258456D02*
X175922493Y-39286440D01*
X175922493Y-39286440D02*
X176408501Y-38113113D01*
X176894509Y-36939786D02*
X181587817Y-38883818D01*
X181587817Y-38883818D02*
X180615801Y-41230472D01*
X180615801Y-41230472D02*
X175922493Y-39286440D01*
X175922493Y-39286440D02*
X176894509Y-36939786D01*
%TO.C,C8*%
X182413220Y-150155325D02*
X182962480Y-149857101D01*
X186287521Y-152648840D02*
X186836782Y-152350616D01*
X184340941Y-153705747D02*
X184890202Y-153407522D01*
X186836782Y-152350616D02*
X184909060Y-148800195D01*
X184359799Y-149098419D02*
X184909060Y-148800195D01*
X184340941Y-153705747D02*
X182413220Y-150155325D01*
%TO.C,U12*%
X98417145Y-122741809D02*
X97445129Y-120395155D01*
X97445129Y-120395155D02*
X98618456Y-119909147D01*
X98618456Y-119909147D02*
X99590472Y-122255801D01*
X99590472Y-122255801D02*
X98417145Y-122741809D01*
X97243818Y-123227817D02*
X95299786Y-118534509D01*
X95299786Y-118534509D02*
X97646440Y-117562493D01*
X97646440Y-117562493D02*
X99590472Y-122255801D01*
X99590472Y-122255801D02*
X97243818Y-123227817D01*
%TO.C,U3*%
X197148618Y-50779280D02*
X198944669Y-52575331D01*
X198944669Y-52575331D02*
X198046643Y-53473357D01*
X198046643Y-53473357D02*
X196250592Y-51677305D01*
X196250592Y-51677305D02*
X197148618Y-50779280D01*
X198046643Y-49881254D02*
X201638746Y-53473357D01*
X201638746Y-53473357D02*
X199842695Y-55269408D01*
X199842695Y-55269408D02*
X196250592Y-51677305D01*
X196250592Y-51677305D02*
X198046643Y-49881254D01*
%TO.C,U9*%
X157480000Y-160082000D02*
X152400000Y-160082000D01*
X152400000Y-160082000D02*
X152400000Y-157542000D01*
X152400000Y-157542000D02*
X157480000Y-157542000D01*
X157480000Y-157542000D02*
X157480000Y-160082000D01*
X157480000Y-158812000D02*
X154940000Y-158812000D01*
X154940000Y-158812000D02*
X154940000Y-157542000D01*
X154940000Y-157542000D02*
X157480000Y-157542000D01*
X157480000Y-157542000D02*
X157480000Y-158812000D01*
%TO.C,D7*%
X190187578Y-145149688D02*
X190062991Y-145243571D01*
X192037218Y-143755884D02*
X191912631Y-143849767D01*
X193477900Y-145927220D02*
G75*
G03*
X192224996Y-144264290I-1488964J181621D01*
G01*
X190499944Y-145564211D02*
G75*
G03*
X191753108Y-147226945I1488992J-181388D01*
G01*
X193856786Y-146432063D02*
G75*
G03*
X192036832Y-143756176I-1867850J686464D01*
G01*
X190063378Y-145243280D02*
G75*
G03*
X192133958Y-147730308I1925558J-502319D01*
G01*
%TO.C,C11*%
X117677778Y-143858279D02*
X118163494Y-144251605D01*
X113413945Y-145604004D02*
X115956399Y-142464335D01*
X113413945Y-145604004D02*
X113899661Y-145997330D01*
X115956399Y-142464335D02*
X116442116Y-142857660D01*
X115621040Y-147391274D02*
X118163494Y-144251605D01*
X115135323Y-146997949D02*
X115621040Y-147391274D01*
%TO.C,D10*%
X123539375Y-147759765D02*
X123404960Y-147680589D01*
X125534908Y-148935224D02*
X125400494Y-148856048D01*
X123405378Y-147680835D02*
G75*
G03*
X121900040Y-150545546I272796J-1971213D01*
G01*
X123275942Y-148206985D02*
G75*
G03*
X122219342Y-150001057I402232J-1445063D01*
G01*
X123758760Y-151640417D02*
G75*
G03*
X125534491Y-148934978I-80586J1988369D01*
G01*
X124080180Y-151097175D02*
G75*
G03*
X125137061Y-149303267I-402006J1445127D01*
G01*
%TO.C,C10*%
X135335602Y-157763607D02*
X135934864Y-157941117D01*
X138606810Y-154519070D02*
X139206072Y-154696579D01*
X136483024Y-153889976D02*
X137082286Y-154067485D01*
X135335602Y-157763607D02*
X136483024Y-153889976D01*
X138058650Y-158570211D02*
X139206072Y-154696579D01*
X137459388Y-158392701D02*
X138058650Y-158570211D01*
%TO.C,U4*%
X212636182Y-69932183D02*
X214580214Y-74625491D01*
X214580214Y-74625491D02*
X212233560Y-75597507D01*
X212233560Y-75597507D02*
X210289528Y-70904199D01*
X210289528Y-70904199D02*
X212636182Y-69932183D01*
X211462855Y-70418191D02*
X212434871Y-72764845D01*
X212434871Y-72764845D02*
X211261544Y-73250853D01*
X211261544Y-73250853D02*
X210289528Y-70904199D01*
X210289528Y-70904199D02*
X211462855Y-70418191D01*
%TO.C,C9*%
X162448898Y-160416811D02*
X163070474Y-160351480D01*
X163070474Y-160351480D02*
X162648179Y-156333612D01*
X160246032Y-160648341D02*
X160867608Y-160583011D01*
X162026603Y-156398942D02*
X162648179Y-156333612D01*
X160246032Y-160648341D02*
X159823737Y-156630473D01*
X159823737Y-156630473D02*
X160445313Y-156565143D01*
%TO.C,U14*%
X96473113Y-75111499D02*
X97445129Y-72764845D01*
X97445129Y-72764845D02*
X98618456Y-73250853D01*
X98618456Y-73250853D02*
X97646440Y-75597507D01*
X97646440Y-75597507D02*
X96473113Y-75111499D01*
X95299786Y-74625491D02*
X97243818Y-69932183D01*
X97243818Y-69932183D02*
X99590472Y-70904199D01*
X99590472Y-70904199D02*
X97646440Y-75597507D01*
X97646440Y-75597507D02*
X95299786Y-74625491D01*
%TO.C,C1*%
X150058353Y-36549417D02*
X149436777Y-36614747D01*
X149636058Y-32531549D02*
X149014482Y-32596879D01*
X149636058Y-32531549D02*
X150058353Y-36549417D01*
X147433192Y-32763079D02*
X146811616Y-32828410D01*
X147855487Y-36780948D02*
X147233911Y-36846278D01*
X146811616Y-32828410D02*
X147233911Y-36846278D01*
%TO.C,D2*%
X186339102Y-45402820D02*
X186473517Y-45481996D01*
X184343569Y-44227361D02*
X184477983Y-44306537D01*
X186473099Y-45481750D02*
G75*
G03*
X187978437Y-42617039I-272796J1971213D01*
G01*
X185798297Y-42065410D02*
G75*
G03*
X184741416Y-43859318I402006J-1445127D01*
G01*
X186119717Y-41522168D02*
G75*
G03*
X184343986Y-44227607I80586J-1988369D01*
G01*
X186602535Y-44955600D02*
G75*
G03*
X187659135Y-43161528I-402232J1445063D01*
G01*
%TO.C,C12*%
X102386429Y-126018886D02*
X102684653Y-126568147D01*
X99134232Y-128495869D02*
X102684653Y-126568147D01*
X97779101Y-126000028D02*
X98077326Y-126549289D01*
X98836008Y-127946608D02*
X99134232Y-128495869D01*
X101329523Y-124072307D02*
X101627747Y-124621567D01*
X97779101Y-126000028D02*
X101329523Y-124072307D01*
%TO.C,D5*%
X214240436Y-106004746D02*
X214218725Y-106159228D01*
X214562761Y-103711285D02*
X214541050Y-103865767D01*
X217741734Y-104317001D02*
G75*
G03*
X214562694Y-103711765I-1806173J-835366D01*
G01*
X214218792Y-106158749D02*
G75*
G03*
X217441508Y-106453222I1716769J1006382D01*
G01*
X214754424Y-106076983D02*
G75*
G03*
X216816275Y-106366592I1181137J924616D01*
G01*
X217116843Y-104227937D02*
G75*
G03*
X215055038Y-103938004I-1181282J-924430D01*
G01*
%TO.C,D16*%
X140954787Y-38189750D02*
X141105818Y-38150691D01*
X138712557Y-38769631D02*
X138863588Y-38730571D01*
X140824829Y-37687244D02*
G75*
G03*
X140303358Y-35671513I-1306235J737394D01*
G01*
X138055623Y-35600845D02*
G75*
G03*
X138713025Y-38769509I1462971J-1349005D01*
G01*
X138212474Y-36212252D02*
G75*
G03*
X138733631Y-38228065I1306120J-737598D01*
G01*
X141105349Y-38150812D02*
G75*
G03*
X140144127Y-35060721I-1586755J1200962D01*
G01*
%TO.C,C3*%
X194284132Y-45737640D02*
X191741678Y-48877309D01*
X196491227Y-47524910D02*
X193948773Y-50664579D01*
X194769849Y-46130965D02*
X194284132Y-45737640D01*
X193948773Y-50664579D02*
X193463056Y-50271254D01*
X196491227Y-47524910D02*
X196005511Y-47131584D01*
X192227394Y-49270635D02*
X191741678Y-48877309D01*
%TO.C,U15*%
X108241254Y-53473357D02*
X111833357Y-49881254D01*
X111833357Y-49881254D02*
X113629408Y-51677305D01*
X113629408Y-51677305D02*
X110037305Y-55269408D01*
X110037305Y-55269408D02*
X108241254Y-53473357D01*
X109139280Y-54371382D02*
X110935331Y-52575331D01*
X110935331Y-52575331D02*
X111833357Y-53473357D01*
X111833357Y-53473357D02*
X110037305Y-55269408D01*
X110037305Y-55269408D02*
X109139280Y-54371382D01*
%TO.C,D12*%
X96549750Y-110565213D02*
X96510691Y-110414182D01*
X97129631Y-112807443D02*
X97090571Y-112656412D01*
X96047244Y-110695171D02*
G75*
G03*
X94031513Y-111216642I-737394J-1306235D01*
G01*
X94572252Y-113307526D02*
G75*
G03*
X96588065Y-112786369I737598J1306120D01*
G01*
X93960845Y-113464377D02*
G75*
G03*
X97129509Y-112806975I1349005J1462971D01*
G01*
X96510812Y-110414651D02*
G75*
G03*
X93420721Y-111375873I-1200962J-1586755D01*
G01*
%TO.C,C6*%
X216161960Y-116195758D02*
X216339470Y-115596496D01*
X212288329Y-115048336D02*
X212465838Y-114449074D01*
X216161960Y-116195758D02*
X212288329Y-115048336D01*
X216791054Y-114071972D02*
X216968564Y-113472710D01*
X212917423Y-112924550D02*
X213094932Y-112325288D01*
X216968564Y-113472710D02*
X213094932Y-112325288D01*
%TO.C,C13*%
X91208300Y-104706293D02*
X95226168Y-104283998D01*
X91142969Y-104084717D02*
X91208300Y-104706293D01*
X95160838Y-103662422D02*
X95226168Y-104283998D01*
X94929307Y-101459556D02*
X94994637Y-102081132D01*
X90911439Y-101881851D02*
X94929307Y-101459556D01*
X90911439Y-101881851D02*
X90976769Y-102503427D01*
%TO.C,C15*%
X109024579Y-57571227D02*
X108631254Y-58056944D01*
X105884910Y-55028773D02*
X109024579Y-57571227D01*
X104097640Y-57235868D02*
X107237309Y-59778322D01*
X105884910Y-55028773D02*
X105491584Y-55514489D01*
X107630635Y-59292606D02*
X107237309Y-59778322D01*
X104490965Y-56750151D02*
X104097640Y-57235868D01*
%TO.C,U1*%
X152400000Y-34348000D02*
X154940000Y-34348000D01*
X154940000Y-34348000D02*
X154940000Y-35618000D01*
X154940000Y-35618000D02*
X152400000Y-35618000D01*
X152400000Y-35618000D02*
X152400000Y-34348000D01*
X152400000Y-33078000D02*
X157480000Y-33078000D01*
X157480000Y-33078000D02*
X157480000Y-35618000D01*
X157480000Y-35618000D02*
X152400000Y-35618000D01*
X152400000Y-35618000D02*
X152400000Y-33078000D01*
%TO.C,C14*%
X97610848Y-78117344D02*
X97433339Y-78716606D01*
X93108123Y-79093708D02*
X92930613Y-79692970D01*
X92930613Y-79692970D02*
X96804245Y-80840392D01*
X93737217Y-76969922D02*
X97610848Y-78117344D01*
X96981754Y-80241130D02*
X96804245Y-80840392D01*
X93737217Y-76969922D02*
X93559707Y-77569184D01*
%TO.C,D6*%
X206117180Y-127979102D02*
X206038004Y-128113517D01*
X207292639Y-125983569D02*
X207213463Y-126117983D01*
X206564400Y-128242535D02*
G75*
G03*
X208358472Y-129299135I1445063J402232D01*
G01*
X209454590Y-127438297D02*
G75*
G03*
X207660682Y-126381416I-1445127J-402006D01*
G01*
X209997832Y-127759717D02*
G75*
G03*
X207292393Y-125983986I-1988369J-80586D01*
G01*
X206038250Y-128113099D02*
G75*
G03*
X208902961Y-129618437I1971213J272796D01*
G01*
%TO.C,C4*%
X208550477Y-69087693D02*
X208252253Y-68538433D01*
X211043992Y-65213392D02*
X210745768Y-64664131D01*
X207493571Y-67141114D02*
X207195347Y-66591853D01*
X212100899Y-67159972D02*
X211802674Y-66610711D01*
X210745768Y-64664131D02*
X207195347Y-66591853D01*
X212100899Y-67159972D02*
X208550477Y-69087693D01*
%TO.C,D11*%
X107740157Y-133695273D02*
X107646274Y-133570686D01*
X106346353Y-131845633D02*
X106252470Y-131721046D01*
X105931830Y-132157999D02*
G75*
G03*
X104269096Y-133411163I-181388J-1488992D01*
G01*
X105568821Y-135135955D02*
G75*
G03*
X107231751Y-133883051I181621J1488964D01*
G01*
X106252761Y-131721433D02*
G75*
G03*
X103765733Y-133792013I-502319J-1925558D01*
G01*
X105063978Y-135514841D02*
G75*
G03*
X107739865Y-133694887I686464J1867850D01*
G01*
%TO.C,U16*%
X128778191Y-40057145D02*
X131124845Y-39085129D01*
X131124845Y-39085129D02*
X131610853Y-40258456D01*
X131610853Y-40258456D02*
X129264199Y-41230472D01*
X129264199Y-41230472D02*
X128778191Y-40057145D01*
X128292183Y-38883818D02*
X132985491Y-36939786D01*
X132985491Y-36939786D02*
X133957507Y-39286440D01*
X133957507Y-39286440D02*
X129264199Y-41230472D01*
X129264199Y-41230472D02*
X128292183Y-38883818D01*
%TO.C,D8*%
X168925213Y-154970250D02*
X168774182Y-155009309D01*
X171167443Y-154390369D02*
X171016412Y-154429429D01*
X171667526Y-156947748D02*
G75*
G03*
X171146369Y-154931935I-1306120J737598D01*
G01*
X168774651Y-155009188D02*
G75*
G03*
X169735873Y-158099279I1586755J-1200962D01*
G01*
X171824377Y-157559155D02*
G75*
G03*
X171166975Y-154390491I-1462971J1349005D01*
G01*
X169055171Y-155472756D02*
G75*
G03*
X169576642Y-157488487I1306235J-737394D01*
G01*
%TO.C,D14*%
X102587361Y-67176431D02*
X102666537Y-67042017D01*
X103762820Y-65180898D02*
X103841996Y-65046483D01*
X103315600Y-64917465D02*
G75*
G03*
X101521528Y-63860865I-1445063J-402232D01*
G01*
X99882168Y-65400283D02*
G75*
G03*
X102587607Y-67176014I1988369J80586D01*
G01*
X103841750Y-65046901D02*
G75*
G03*
X100977039Y-63541563I-1971213J-272796D01*
G01*
X100425410Y-65721703D02*
G75*
G03*
X102219318Y-66778584I1445127J402006D01*
G01*
%TD*%
M02*
