%TF.GenerationSoftware,KiCad,Pcbnew,(6.0.11)*%
%TF.CreationDate,2023-10-13T17:08:53+09:00*%
%TF.ProjectId,engel_line_board,656e6765-6c5f-46c6-996e-655f626f6172,rev?*%
%TF.SameCoordinates,Original*%
%TF.FileFunction,Profile,NP*%
%FSLAX46Y46*%
G04 Gerber Fmt 4.6, Leading zero omitted, Abs format (unit mm)*
G04 Created by KiCad (PCBNEW (6.0.11)) date 2023-10-13 17:08:53*
%MOMM*%
%LPD*%
G01*
G04 APERTURE LIST*
%TA.AperFunction,Profile*%
%ADD10C,0.200000*%
%TD*%
G04 APERTURE END LIST*
D10*
X207173525Y-135266620D02*
G75*
G03*
X207334357Y-136627864I803575J-595180D01*
G01*
X102706490Y-57893389D02*
G75*
G03*
X102545644Y-56532136I-803490J595189D01*
G01*
X102706449Y-57893359D02*
G75*
G03*
X102706449Y-135266640I52233551J-38686641D01*
G01*
X102545632Y-136627851D02*
G75*
G03*
X102706449Y-135266640I-642832J766051D01*
G01*
X106402326Y-51935921D02*
G75*
G03*
X107770836Y-51857858I642774J766221D01*
G01*
X101303638Y-55489969D02*
X102545644Y-56532136D01*
X105341613Y-68580011D02*
G75*
G03*
X103570242Y-69651428I-13J-1999989D01*
G01*
X104832000Y-53191836D02*
G75*
G03*
X104832000Y-53191836I-1600000J0D01*
G01*
X204719638Y-50893704D02*
X203477631Y-51935870D01*
X202109164Y-51857858D02*
G75*
G03*
X107770836Y-51857858I-47169164J-44722142D01*
G01*
X106402369Y-51935870D02*
X105160362Y-50893704D01*
X104832000Y-139968164D02*
G75*
G03*
X104832000Y-139968164I-1600000J0D01*
G01*
X107770835Y-141302141D02*
G75*
G03*
X202109165Y-141302141I47169165J44722142D01*
G01*
X206309768Y-69651423D02*
G75*
G03*
X204538387Y-68580000I-1771368J-928577D01*
G01*
X102545643Y-136627864D02*
X101303638Y-137670031D01*
X204719642Y-142266292D02*
G75*
G03*
X208576362Y-137670031I1928358J2298132D01*
G01*
X101303674Y-137670074D02*
G75*
G03*
X105160362Y-142266296I1928326J-2298126D01*
G01*
X207334378Y-56532162D02*
G75*
G03*
X207173551Y-57893359I642722J-766038D01*
G01*
X208576362Y-137670031D02*
X207334357Y-136627864D01*
X203477592Y-141224178D02*
G75*
G03*
X202109165Y-141302141I-642792J-766022D01*
G01*
X202109120Y-51857900D02*
G75*
G03*
X203477631Y-51935870I725680J688100D01*
G01*
X203477632Y-141224130D02*
X204719638Y-142266296D01*
X207334356Y-56532136D02*
X208576362Y-55489969D01*
X208576326Y-55489926D02*
G75*
G03*
X204719638Y-50893704I-1928326J2298126D01*
G01*
X105160362Y-142266296D02*
X106402368Y-141224130D01*
X105160398Y-50893661D02*
G75*
G03*
X101303638Y-55489969I-1928398J-2298139D01*
G01*
X208248000Y-53191836D02*
G75*
G03*
X208248000Y-53191836I-1600000J0D01*
G01*
X207173551Y-135266640D02*
G75*
G03*
X207173551Y-57893359I-52233551J38686640D01*
G01*
X208248000Y-139968164D02*
G75*
G03*
X208248000Y-139968164I-1600000J0D01*
G01*
X107770875Y-141302103D02*
G75*
G03*
X106402368Y-141224130I-725675J-687997D01*
G01*
X204538387Y-68580000D02*
X105341613Y-68580000D01*
X103570242Y-69651428D02*
G75*
G03*
X206309758Y-69651428I51369758J-26928572D01*
G01*
M02*
