M48
; DRILL file {KiCad (6.0.11)} date Fri Oct 13 17:08:55 2023
; FORMAT={-:-/ absolute / metric / decimal}
; #@! TF.CreationDate,2023-10-13T17:08:55+09:00
; #@! TF.GenerationSoftware,Kicad,Pcbnew,(6.0.11)
; #@! TF.FileFunction,Plated,1,2,PTH
FMAT,2
METRIC
; #@! TA.AperFunction,Plated,PTH,ViaDrill
T1C0.400
; #@! TA.AperFunction,Plated,PTH,ComponentDrill
T2C0.762
; #@! TA.AperFunction,Plated,PTH,ComponentDrill
T3C0.800
; #@! TA.AperFunction,Plated,PTH,ComponentDrill
T4C0.900
; #@! TA.AperFunction,Plated,PTH,ComponentDrill
T5C0.950
; #@! TA.AperFunction,Plated,PTH,ComponentDrill
T6C1.000
%
G90
G05
T1
X95.504Y-91.754
X95.758Y-100.136
X96.52Y-108.264
X96.774Y-82.61
X98.552Y-77.784
X99.06Y-115.63
X101.854Y-70.418
X101.854Y-123.25
X104.394Y-128.33
X105.664Y-66.1
X105.918Y-62.29
X113.538Y-138.998
X114.046Y-55.94
X121.412Y-145.856
X122.174Y-48.574
X122.428Y-66.1
X122.936Y-56.448
X130.302Y-48.574
X130.556Y-43.24
X130.556Y-56.448
X131.826Y-151.19
X138.43Y-59.242
X138.938Y-42.224
X139.7Y-66.1
X141.224Y-154.492
X142.748Y-36.89
X144.018Y-64.576
X145.542Y-41.462
X148.59Y-42.986
X149.606Y-37.652
X154.178Y-155.762
X154.94Y-36.89
X154.94Y-67.37
X159.766Y-58.988
X160.528Y-61.02
X162.814Y-42.478
X164.592Y-62.544
X166.37Y-53.4
X166.624Y-37.906
X166.878Y-154.492
X167.64Y-42.732
X168.402Y-39.43
X169.164Y-35.874
X170.434Y-40.192
X172.212Y-63.306
X172.974Y-54.67
X173.228Y-58.734
X174.244Y-152.46
X177.292Y-67.116
X178.308Y-42.732
X179.324Y-150.428
X179.832Y-49.59
X184.658Y-47.304
X187.198Y-146.364
X187.706Y-50.098
X188.214Y-58.48
X189.738Y-47.812
X189.738Y-67.116
X194.056Y-58.48
X195.072Y-53.146
X198.12Y-139.506
X200.914Y-136.458
X203.2Y-67.37
X205.74Y-129.6
X213.36Y-111.82
X214.376Y-83.372
X215.646Y-92.008
X215.9Y-96.58
T2
X91.438Y-94.04
X91.438Y-99.12
X93.978Y-94.04
X93.978Y-99.12
X95.3Y-74.625
X95.3Y-118.535
X97.244Y-69.932
X97.244Y-123.228
X97.646Y-75.598
X97.646Y-117.562
X99.59Y-70.904
X99.59Y-122.256
X108.241Y-53.473
X108.241Y-139.687
X110.037Y-55.269
X110.037Y-137.891
X111.833Y-49.881
X111.833Y-143.279
X113.629Y-51.677
X113.629Y-141.483
X128.292Y-38.884
X128.292Y-154.276
X129.264Y-41.23
X129.264Y-151.93
X132.985Y-36.94
X132.985Y-156.22
X133.958Y-39.286
X133.958Y-153.874
X152.4Y-33.078
X152.4Y-35.618
X152.4Y-157.542
X152.4Y-160.082
X157.48Y-33.078
X157.48Y-35.618
X157.48Y-157.542
X157.48Y-160.082
X175.922Y-39.286
X175.922Y-153.874
X176.895Y-36.94
X176.895Y-156.22
X180.616Y-41.23
X180.616Y-151.93
X181.588Y-38.884
X181.588Y-154.276
X196.251Y-51.677
X196.251Y-141.483
X198.047Y-49.881
X198.047Y-143.279
X199.843Y-55.269
X199.843Y-137.891
X201.639Y-53.473
X201.639Y-139.687
X210.29Y-70.904
X210.29Y-122.256
X212.234Y-75.598
X212.234Y-117.562
X212.636Y-69.932
X212.636Y-123.228
X214.58Y-74.625
X214.58Y-118.535
X215.902Y-94.04
X215.902Y-99.12
X218.442Y-94.04
X218.442Y-99.12
T3
X91.826Y-103.214
X94.072Y-78.55
X94.312Y-102.952
X96.469Y-79.26
X99.133Y-126.881
X101.33Y-125.688
X105.59Y-56.617
X107.533Y-58.19
X115.002Y-145.899
X116.575Y-143.956
X124.639Y-40.773
X125.832Y-42.97
X136.916Y-157.429
X137.626Y-155.032
X148.304Y-33.446
X148.566Y-35.932
X161.316Y-157.248
X161.578Y-159.734
X168.91Y-57.25
X168.91Y-59.75
X172.26Y-38.109
X172.97Y-35.712
X184.029Y-150.154
X185.221Y-152.351
X193.33Y-49.173
X194.903Y-47.23
X202.332Y-134.957
X204.275Y-136.531
X208.55Y-67.472
X210.747Y-66.279
X213.43Y-113.906
X215.608Y-90.204
X215.827Y-114.616
X218.094Y-89.942
T4
X92.687Y-87.831
X94.08Y-112.319
X95.202Y-88.184
X96.539Y-111.683
X100.776Y-64.675
X102.965Y-65.964
X104.736Y-134.411
X106.765Y-132.883
X117.11Y-46.378
X118.639Y-48.406
X123.034Y-150.746
X124.323Y-148.558
X139.201Y-35.72
X139.837Y-38.179
X146.191Y-158.83
X146.545Y-156.315
X163.335Y-36.845
X163.689Y-34.33
X170.043Y-154.981
X170.679Y-157.44
X185.556Y-44.605
X186.845Y-42.416
X191.225Y-144.731
X192.753Y-146.76
X203.115Y-60.277
X205.144Y-58.749
X206.915Y-127.196
X209.104Y-128.485
X213.344Y-81.476
X214.678Y-104.976
X215.803Y-80.84
X217.193Y-105.329
T5
X175.26Y-52.21
X175.26Y-54.71
X175.26Y-57.21
X175.26Y-59.71
X175.26Y-62.21
T6
X147.32Y-49.59
X147.32Y-52.13
X147.32Y-54.67
X147.32Y-57.21
X147.32Y-59.75
X147.32Y-62.29
X147.32Y-64.83
X162.56Y-49.59
X162.56Y-52.13
X162.56Y-54.67
X162.56Y-57.21
X162.56Y-59.75
X162.56Y-62.29
X162.56Y-64.83
T0
M30
