%TF.GenerationSoftware,KiCad,Pcbnew,7.0.9*%
%TF.CreationDate,2024-06-15T23:05:36+09:00*%
%TF.ProjectId,Drive,44726976-652e-46b6-9963-61645f706362,rev?*%
%TF.SameCoordinates,Original*%
%TF.FileFunction,Legend,Top*%
%TF.FilePolarity,Positive*%
%FSLAX46Y46*%
G04 Gerber Fmt 4.6, Leading zero omitted, Abs format (unit mm)*
G04 Created by KiCad (PCBNEW 7.0.9) date 2024-06-15 23:05:36*
%MOMM*%
%LPD*%
G01*
G04 APERTURE LIST*
%ADD10C,0.150000*%
%ADD11C,0.100000*%
%ADD12C,0.500000*%
%ADD13C,0.120000*%
%ADD14C,0.200000*%
G04 APERTURE END LIST*
D10*
X119925402Y-121025258D02*
X119420326Y-121530334D01*
X119420326Y-121530334D02*
X119285639Y-121597678D01*
X119285639Y-121597678D02*
X119150952Y-121597678D01*
X119150952Y-121597678D02*
X119016265Y-121530334D01*
X119016265Y-121530334D02*
X118948921Y-121462991D01*
X119925402Y-122439472D02*
X119521341Y-122035411D01*
X119723372Y-122237441D02*
X120430479Y-121530334D01*
X120430479Y-121530334D02*
X120262120Y-121564006D01*
X120262120Y-121564006D02*
X120127433Y-121564006D01*
X120127433Y-121564006D02*
X120026418Y-121530334D01*
X170273246Y-94431980D02*
X170225627Y-94479600D01*
X170225627Y-94479600D02*
X170082770Y-94527219D01*
X170082770Y-94527219D02*
X169987532Y-94527219D01*
X169987532Y-94527219D02*
X169844675Y-94479600D01*
X169844675Y-94479600D02*
X169749437Y-94384361D01*
X169749437Y-94384361D02*
X169701818Y-94289123D01*
X169701818Y-94289123D02*
X169654199Y-94098647D01*
X169654199Y-94098647D02*
X169654199Y-93955790D01*
X169654199Y-93955790D02*
X169701818Y-93765314D01*
X169701818Y-93765314D02*
X169749437Y-93670076D01*
X169749437Y-93670076D02*
X169844675Y-93574838D01*
X169844675Y-93574838D02*
X169987532Y-93527219D01*
X169987532Y-93527219D02*
X170082770Y-93527219D01*
X170082770Y-93527219D02*
X170225627Y-93574838D01*
X170225627Y-93574838D02*
X170273246Y-93622457D01*
X171130389Y-93860552D02*
X171130389Y-94527219D01*
X170892294Y-93479600D02*
X170654199Y-94193885D01*
X170654199Y-94193885D02*
X171273246Y-94193885D01*
X143324342Y-115252419D02*
X142991009Y-114776228D01*
X142752914Y-115252419D02*
X142752914Y-114252419D01*
X142752914Y-114252419D02*
X143133866Y-114252419D01*
X143133866Y-114252419D02*
X143229104Y-114300038D01*
X143229104Y-114300038D02*
X143276723Y-114347657D01*
X143276723Y-114347657D02*
X143324342Y-114442895D01*
X143324342Y-114442895D02*
X143324342Y-114585752D01*
X143324342Y-114585752D02*
X143276723Y-114680990D01*
X143276723Y-114680990D02*
X143229104Y-114728609D01*
X143229104Y-114728609D02*
X143133866Y-114776228D01*
X143133866Y-114776228D02*
X142752914Y-114776228D01*
X143705295Y-114347657D02*
X143752914Y-114300038D01*
X143752914Y-114300038D02*
X143848152Y-114252419D01*
X143848152Y-114252419D02*
X144086247Y-114252419D01*
X144086247Y-114252419D02*
X144181485Y-114300038D01*
X144181485Y-114300038D02*
X144229104Y-114347657D01*
X144229104Y-114347657D02*
X144276723Y-114442895D01*
X144276723Y-114442895D02*
X144276723Y-114538133D01*
X144276723Y-114538133D02*
X144229104Y-114680990D01*
X144229104Y-114680990D02*
X143657676Y-115252419D01*
X143657676Y-115252419D02*
X144276723Y-115252419D01*
X145181485Y-114252419D02*
X144705295Y-114252419D01*
X144705295Y-114252419D02*
X144657676Y-114728609D01*
X144657676Y-114728609D02*
X144705295Y-114680990D01*
X144705295Y-114680990D02*
X144800533Y-114633371D01*
X144800533Y-114633371D02*
X145038628Y-114633371D01*
X145038628Y-114633371D02*
X145133866Y-114680990D01*
X145133866Y-114680990D02*
X145181485Y-114728609D01*
X145181485Y-114728609D02*
X145229104Y-114823847D01*
X145229104Y-114823847D02*
X145229104Y-115061942D01*
X145229104Y-115061942D02*
X145181485Y-115157180D01*
X145181485Y-115157180D02*
X145133866Y-115204800D01*
X145133866Y-115204800D02*
X145038628Y-115252419D01*
X145038628Y-115252419D02*
X144800533Y-115252419D01*
X144800533Y-115252419D02*
X144705295Y-115204800D01*
X144705295Y-115204800D02*
X144657676Y-115157180D01*
X143324342Y-111544019D02*
X142991009Y-111067828D01*
X142752914Y-111544019D02*
X142752914Y-110544019D01*
X142752914Y-110544019D02*
X143133866Y-110544019D01*
X143133866Y-110544019D02*
X143229104Y-110591638D01*
X143229104Y-110591638D02*
X143276723Y-110639257D01*
X143276723Y-110639257D02*
X143324342Y-110734495D01*
X143324342Y-110734495D02*
X143324342Y-110877352D01*
X143324342Y-110877352D02*
X143276723Y-110972590D01*
X143276723Y-110972590D02*
X143229104Y-111020209D01*
X143229104Y-111020209D02*
X143133866Y-111067828D01*
X143133866Y-111067828D02*
X142752914Y-111067828D01*
X143705295Y-110639257D02*
X143752914Y-110591638D01*
X143752914Y-110591638D02*
X143848152Y-110544019D01*
X143848152Y-110544019D02*
X144086247Y-110544019D01*
X144086247Y-110544019D02*
X144181485Y-110591638D01*
X144181485Y-110591638D02*
X144229104Y-110639257D01*
X144229104Y-110639257D02*
X144276723Y-110734495D01*
X144276723Y-110734495D02*
X144276723Y-110829733D01*
X144276723Y-110829733D02*
X144229104Y-110972590D01*
X144229104Y-110972590D02*
X143657676Y-111544019D01*
X143657676Y-111544019D02*
X144276723Y-111544019D01*
X144610057Y-110544019D02*
X145229104Y-110544019D01*
X145229104Y-110544019D02*
X144895771Y-110924971D01*
X144895771Y-110924971D02*
X145038628Y-110924971D01*
X145038628Y-110924971D02*
X145133866Y-110972590D01*
X145133866Y-110972590D02*
X145181485Y-111020209D01*
X145181485Y-111020209D02*
X145229104Y-111115447D01*
X145229104Y-111115447D02*
X145229104Y-111353542D01*
X145229104Y-111353542D02*
X145181485Y-111448780D01*
X145181485Y-111448780D02*
X145133866Y-111496400D01*
X145133866Y-111496400D02*
X145038628Y-111544019D01*
X145038628Y-111544019D02*
X144752914Y-111544019D01*
X144752914Y-111544019D02*
X144657676Y-111496400D01*
X144657676Y-111496400D02*
X144610057Y-111448780D01*
X137930019Y-63126857D02*
X137453828Y-63460190D01*
X137930019Y-63698285D02*
X136930019Y-63698285D01*
X136930019Y-63698285D02*
X136930019Y-63317333D01*
X136930019Y-63317333D02*
X136977638Y-63222095D01*
X136977638Y-63222095D02*
X137025257Y-63174476D01*
X137025257Y-63174476D02*
X137120495Y-63126857D01*
X137120495Y-63126857D02*
X137263352Y-63126857D01*
X137263352Y-63126857D02*
X137358590Y-63174476D01*
X137358590Y-63174476D02*
X137406209Y-63222095D01*
X137406209Y-63222095D02*
X137453828Y-63317333D01*
X137453828Y-63317333D02*
X137453828Y-63698285D01*
X136930019Y-62793523D02*
X136930019Y-62174476D01*
X136930019Y-62174476D02*
X137310971Y-62507809D01*
X137310971Y-62507809D02*
X137310971Y-62364952D01*
X137310971Y-62364952D02*
X137358590Y-62269714D01*
X137358590Y-62269714D02*
X137406209Y-62222095D01*
X137406209Y-62222095D02*
X137501447Y-62174476D01*
X137501447Y-62174476D02*
X137739542Y-62174476D01*
X137739542Y-62174476D02*
X137834780Y-62222095D01*
X137834780Y-62222095D02*
X137882400Y-62269714D01*
X137882400Y-62269714D02*
X137930019Y-62364952D01*
X137930019Y-62364952D02*
X137930019Y-62650666D01*
X137930019Y-62650666D02*
X137882400Y-62745904D01*
X137882400Y-62745904D02*
X137834780Y-62793523D01*
X136930019Y-61841142D02*
X136930019Y-61222095D01*
X136930019Y-61222095D02*
X137310971Y-61555428D01*
X137310971Y-61555428D02*
X137310971Y-61412571D01*
X137310971Y-61412571D02*
X137358590Y-61317333D01*
X137358590Y-61317333D02*
X137406209Y-61269714D01*
X137406209Y-61269714D02*
X137501447Y-61222095D01*
X137501447Y-61222095D02*
X137739542Y-61222095D01*
X137739542Y-61222095D02*
X137834780Y-61269714D01*
X137834780Y-61269714D02*
X137882400Y-61317333D01*
X137882400Y-61317333D02*
X137930019Y-61412571D01*
X137930019Y-61412571D02*
X137930019Y-61698285D01*
X137930019Y-61698285D02*
X137882400Y-61793523D01*
X137882400Y-61793523D02*
X137834780Y-61841142D01*
X143800533Y-62649019D02*
X143467200Y-62172828D01*
X143229105Y-62649019D02*
X143229105Y-61649019D01*
X143229105Y-61649019D02*
X143610057Y-61649019D01*
X143610057Y-61649019D02*
X143705295Y-61696638D01*
X143705295Y-61696638D02*
X143752914Y-61744257D01*
X143752914Y-61744257D02*
X143800533Y-61839495D01*
X143800533Y-61839495D02*
X143800533Y-61982352D01*
X143800533Y-61982352D02*
X143752914Y-62077590D01*
X143752914Y-62077590D02*
X143705295Y-62125209D01*
X143705295Y-62125209D02*
X143610057Y-62172828D01*
X143610057Y-62172828D02*
X143229105Y-62172828D01*
X144705295Y-61649019D02*
X144229105Y-61649019D01*
X144229105Y-61649019D02*
X144181486Y-62125209D01*
X144181486Y-62125209D02*
X144229105Y-62077590D01*
X144229105Y-62077590D02*
X144324343Y-62029971D01*
X144324343Y-62029971D02*
X144562438Y-62029971D01*
X144562438Y-62029971D02*
X144657676Y-62077590D01*
X144657676Y-62077590D02*
X144705295Y-62125209D01*
X144705295Y-62125209D02*
X144752914Y-62220447D01*
X144752914Y-62220447D02*
X144752914Y-62458542D01*
X144752914Y-62458542D02*
X144705295Y-62553780D01*
X144705295Y-62553780D02*
X144657676Y-62601400D01*
X144657676Y-62601400D02*
X144562438Y-62649019D01*
X144562438Y-62649019D02*
X144324343Y-62649019D01*
X144324343Y-62649019D02*
X144229105Y-62601400D01*
X144229105Y-62601400D02*
X144181486Y-62553780D01*
X132934733Y-47863580D02*
X132887114Y-47911200D01*
X132887114Y-47911200D02*
X132744257Y-47958819D01*
X132744257Y-47958819D02*
X132649019Y-47958819D01*
X132649019Y-47958819D02*
X132506162Y-47911200D01*
X132506162Y-47911200D02*
X132410924Y-47815961D01*
X132410924Y-47815961D02*
X132363305Y-47720723D01*
X132363305Y-47720723D02*
X132315686Y-47530247D01*
X132315686Y-47530247D02*
X132315686Y-47387390D01*
X132315686Y-47387390D02*
X132363305Y-47196914D01*
X132363305Y-47196914D02*
X132410924Y-47101676D01*
X132410924Y-47101676D02*
X132506162Y-47006438D01*
X132506162Y-47006438D02*
X132649019Y-46958819D01*
X132649019Y-46958819D02*
X132744257Y-46958819D01*
X132744257Y-46958819D02*
X132887114Y-47006438D01*
X132887114Y-47006438D02*
X132934733Y-47054057D01*
X133791876Y-46958819D02*
X133601400Y-46958819D01*
X133601400Y-46958819D02*
X133506162Y-47006438D01*
X133506162Y-47006438D02*
X133458543Y-47054057D01*
X133458543Y-47054057D02*
X133363305Y-47196914D01*
X133363305Y-47196914D02*
X133315686Y-47387390D01*
X133315686Y-47387390D02*
X133315686Y-47768342D01*
X133315686Y-47768342D02*
X133363305Y-47863580D01*
X133363305Y-47863580D02*
X133410924Y-47911200D01*
X133410924Y-47911200D02*
X133506162Y-47958819D01*
X133506162Y-47958819D02*
X133696638Y-47958819D01*
X133696638Y-47958819D02*
X133791876Y-47911200D01*
X133791876Y-47911200D02*
X133839495Y-47863580D01*
X133839495Y-47863580D02*
X133887114Y-47768342D01*
X133887114Y-47768342D02*
X133887114Y-47530247D01*
X133887114Y-47530247D02*
X133839495Y-47435009D01*
X133839495Y-47435009D02*
X133791876Y-47387390D01*
X133791876Y-47387390D02*
X133696638Y-47339771D01*
X133696638Y-47339771D02*
X133506162Y-47339771D01*
X133506162Y-47339771D02*
X133410924Y-47387390D01*
X133410924Y-47387390D02*
X133363305Y-47435009D01*
X133363305Y-47435009D02*
X133315686Y-47530247D01*
X131197361Y-75586857D02*
X131102123Y-75539238D01*
X131102123Y-75539238D02*
X131006885Y-75444000D01*
X131006885Y-75444000D02*
X130864028Y-75301142D01*
X130864028Y-75301142D02*
X130768790Y-75253523D01*
X130768790Y-75253523D02*
X130673552Y-75253523D01*
X130721171Y-75491619D02*
X130625933Y-75444000D01*
X130625933Y-75444000D02*
X130530695Y-75348761D01*
X130530695Y-75348761D02*
X130483076Y-75158285D01*
X130483076Y-75158285D02*
X130483076Y-74824952D01*
X130483076Y-74824952D02*
X130530695Y-74634476D01*
X130530695Y-74634476D02*
X130625933Y-74539238D01*
X130625933Y-74539238D02*
X130721171Y-74491619D01*
X130721171Y-74491619D02*
X130911647Y-74491619D01*
X130911647Y-74491619D02*
X131006885Y-74539238D01*
X131006885Y-74539238D02*
X131102123Y-74634476D01*
X131102123Y-74634476D02*
X131149742Y-74824952D01*
X131149742Y-74824952D02*
X131149742Y-75158285D01*
X131149742Y-75158285D02*
X131102123Y-75348761D01*
X131102123Y-75348761D02*
X131006885Y-75444000D01*
X131006885Y-75444000D02*
X130911647Y-75491619D01*
X130911647Y-75491619D02*
X130721171Y-75491619D01*
X132102123Y-75491619D02*
X131530695Y-75491619D01*
X131816409Y-75491619D02*
X131816409Y-74491619D01*
X131816409Y-74491619D02*
X131721171Y-74634476D01*
X131721171Y-74634476D02*
X131625933Y-74729714D01*
X131625933Y-74729714D02*
X131530695Y-74777333D01*
X128197362Y-84635619D02*
X128197362Y-83635619D01*
X128768790Y-84635619D02*
X128340219Y-84064190D01*
X128768790Y-83635619D02*
X128197362Y-84207047D01*
X129721171Y-84635619D02*
X129149743Y-84635619D01*
X129435457Y-84635619D02*
X129435457Y-83635619D01*
X129435457Y-83635619D02*
X129340219Y-83778476D01*
X129340219Y-83778476D02*
X129244981Y-83873714D01*
X129244981Y-83873714D02*
X129149743Y-83921333D01*
X130625933Y-83635619D02*
X130149743Y-83635619D01*
X130149743Y-83635619D02*
X130102124Y-84111809D01*
X130102124Y-84111809D02*
X130149743Y-84064190D01*
X130149743Y-84064190D02*
X130244981Y-84016571D01*
X130244981Y-84016571D02*
X130483076Y-84016571D01*
X130483076Y-84016571D02*
X130578314Y-84064190D01*
X130578314Y-84064190D02*
X130625933Y-84111809D01*
X130625933Y-84111809D02*
X130673552Y-84207047D01*
X130673552Y-84207047D02*
X130673552Y-84445142D01*
X130673552Y-84445142D02*
X130625933Y-84540380D01*
X130625933Y-84540380D02*
X130578314Y-84588000D01*
X130578314Y-84588000D02*
X130483076Y-84635619D01*
X130483076Y-84635619D02*
X130244981Y-84635619D01*
X130244981Y-84635619D02*
X130149743Y-84588000D01*
X130149743Y-84588000D02*
X130102124Y-84540380D01*
X131054505Y-84349904D02*
X131530695Y-84349904D01*
X130959267Y-84635619D02*
X131292600Y-83635619D01*
X131292600Y-83635619D02*
X131625933Y-84635619D01*
X131911648Y-83730857D02*
X131959267Y-83683238D01*
X131959267Y-83683238D02*
X132054505Y-83635619D01*
X132054505Y-83635619D02*
X132292600Y-83635619D01*
X132292600Y-83635619D02*
X132387838Y-83683238D01*
X132387838Y-83683238D02*
X132435457Y-83730857D01*
X132435457Y-83730857D02*
X132483076Y-83826095D01*
X132483076Y-83826095D02*
X132483076Y-83921333D01*
X132483076Y-83921333D02*
X132435457Y-84064190D01*
X132435457Y-84064190D02*
X131864029Y-84635619D01*
X131864029Y-84635619D02*
X132483076Y-84635619D01*
X133102124Y-83635619D02*
X133197362Y-83635619D01*
X133197362Y-83635619D02*
X133292600Y-83683238D01*
X133292600Y-83683238D02*
X133340219Y-83730857D01*
X133340219Y-83730857D02*
X133387838Y-83826095D01*
X133387838Y-83826095D02*
X133435457Y-84016571D01*
X133435457Y-84016571D02*
X133435457Y-84254666D01*
X133435457Y-84254666D02*
X133387838Y-84445142D01*
X133387838Y-84445142D02*
X133340219Y-84540380D01*
X133340219Y-84540380D02*
X133292600Y-84588000D01*
X133292600Y-84588000D02*
X133197362Y-84635619D01*
X133197362Y-84635619D02*
X133102124Y-84635619D01*
X133102124Y-84635619D02*
X133006886Y-84588000D01*
X133006886Y-84588000D02*
X132959267Y-84540380D01*
X132959267Y-84540380D02*
X132911648Y-84445142D01*
X132911648Y-84445142D02*
X132864029Y-84254666D01*
X132864029Y-84254666D02*
X132864029Y-84016571D01*
X132864029Y-84016571D02*
X132911648Y-83826095D01*
X132911648Y-83826095D02*
X132959267Y-83730857D01*
X132959267Y-83730857D02*
X133006886Y-83683238D01*
X133006886Y-83683238D02*
X133102124Y-83635619D01*
X133864029Y-84635619D02*
X133864029Y-83635619D01*
X133864029Y-83635619D02*
X134102124Y-83635619D01*
X134102124Y-83635619D02*
X134244981Y-83683238D01*
X134244981Y-83683238D02*
X134340219Y-83778476D01*
X134340219Y-83778476D02*
X134387838Y-83873714D01*
X134387838Y-83873714D02*
X134435457Y-84064190D01*
X134435457Y-84064190D02*
X134435457Y-84207047D01*
X134435457Y-84207047D02*
X134387838Y-84397523D01*
X134387838Y-84397523D02*
X134340219Y-84492761D01*
X134340219Y-84492761D02*
X134244981Y-84588000D01*
X134244981Y-84588000D02*
X134102124Y-84635619D01*
X134102124Y-84635619D02*
X133864029Y-84635619D01*
X143298942Y-81419619D02*
X142965609Y-80943428D01*
X142727514Y-81419619D02*
X142727514Y-80419619D01*
X142727514Y-80419619D02*
X143108466Y-80419619D01*
X143108466Y-80419619D02*
X143203704Y-80467238D01*
X143203704Y-80467238D02*
X143251323Y-80514857D01*
X143251323Y-80514857D02*
X143298942Y-80610095D01*
X143298942Y-80610095D02*
X143298942Y-80752952D01*
X143298942Y-80752952D02*
X143251323Y-80848190D01*
X143251323Y-80848190D02*
X143203704Y-80895809D01*
X143203704Y-80895809D02*
X143108466Y-80943428D01*
X143108466Y-80943428D02*
X142727514Y-80943428D01*
X144251323Y-81419619D02*
X143679895Y-81419619D01*
X143965609Y-81419619D02*
X143965609Y-80419619D01*
X143965609Y-80419619D02*
X143870371Y-80562476D01*
X143870371Y-80562476D02*
X143775133Y-80657714D01*
X143775133Y-80657714D02*
X143679895Y-80705333D01*
X144632276Y-80514857D02*
X144679895Y-80467238D01*
X144679895Y-80467238D02*
X144775133Y-80419619D01*
X144775133Y-80419619D02*
X145013228Y-80419619D01*
X145013228Y-80419619D02*
X145108466Y-80467238D01*
X145108466Y-80467238D02*
X145156085Y-80514857D01*
X145156085Y-80514857D02*
X145203704Y-80610095D01*
X145203704Y-80610095D02*
X145203704Y-80705333D01*
X145203704Y-80705333D02*
X145156085Y-80848190D01*
X145156085Y-80848190D02*
X144584657Y-81419619D01*
X144584657Y-81419619D02*
X145203704Y-81419619D01*
X143324342Y-113398219D02*
X142991009Y-112922028D01*
X142752914Y-113398219D02*
X142752914Y-112398219D01*
X142752914Y-112398219D02*
X143133866Y-112398219D01*
X143133866Y-112398219D02*
X143229104Y-112445838D01*
X143229104Y-112445838D02*
X143276723Y-112493457D01*
X143276723Y-112493457D02*
X143324342Y-112588695D01*
X143324342Y-112588695D02*
X143324342Y-112731552D01*
X143324342Y-112731552D02*
X143276723Y-112826790D01*
X143276723Y-112826790D02*
X143229104Y-112874409D01*
X143229104Y-112874409D02*
X143133866Y-112922028D01*
X143133866Y-112922028D02*
X142752914Y-112922028D01*
X143705295Y-112493457D02*
X143752914Y-112445838D01*
X143752914Y-112445838D02*
X143848152Y-112398219D01*
X143848152Y-112398219D02*
X144086247Y-112398219D01*
X144086247Y-112398219D02*
X144181485Y-112445838D01*
X144181485Y-112445838D02*
X144229104Y-112493457D01*
X144229104Y-112493457D02*
X144276723Y-112588695D01*
X144276723Y-112588695D02*
X144276723Y-112683933D01*
X144276723Y-112683933D02*
X144229104Y-112826790D01*
X144229104Y-112826790D02*
X143657676Y-113398219D01*
X143657676Y-113398219D02*
X144276723Y-113398219D01*
X144657676Y-112493457D02*
X144705295Y-112445838D01*
X144705295Y-112445838D02*
X144800533Y-112398219D01*
X144800533Y-112398219D02*
X145038628Y-112398219D01*
X145038628Y-112398219D02*
X145133866Y-112445838D01*
X145133866Y-112445838D02*
X145181485Y-112493457D01*
X145181485Y-112493457D02*
X145229104Y-112588695D01*
X145229104Y-112588695D02*
X145229104Y-112683933D01*
X145229104Y-112683933D02*
X145181485Y-112826790D01*
X145181485Y-112826790D02*
X144610057Y-113398219D01*
X144610057Y-113398219D02*
X145229104Y-113398219D01*
X141795419Y-99220257D02*
X141319228Y-99553590D01*
X141795419Y-99791685D02*
X140795419Y-99791685D01*
X140795419Y-99791685D02*
X140795419Y-99410733D01*
X140795419Y-99410733D02*
X140843038Y-99315495D01*
X140843038Y-99315495D02*
X140890657Y-99267876D01*
X140890657Y-99267876D02*
X140985895Y-99220257D01*
X140985895Y-99220257D02*
X141128752Y-99220257D01*
X141128752Y-99220257D02*
X141223990Y-99267876D01*
X141223990Y-99267876D02*
X141271609Y-99315495D01*
X141271609Y-99315495D02*
X141319228Y-99410733D01*
X141319228Y-99410733D02*
X141319228Y-99791685D01*
X141795419Y-98267876D02*
X141795419Y-98839304D01*
X141795419Y-98553590D02*
X140795419Y-98553590D01*
X140795419Y-98553590D02*
X140938276Y-98648828D01*
X140938276Y-98648828D02*
X141033514Y-98744066D01*
X141033514Y-98744066D02*
X141081133Y-98839304D01*
X140795419Y-97934542D02*
X140795419Y-97315495D01*
X140795419Y-97315495D02*
X141176371Y-97648828D01*
X141176371Y-97648828D02*
X141176371Y-97505971D01*
X141176371Y-97505971D02*
X141223990Y-97410733D01*
X141223990Y-97410733D02*
X141271609Y-97363114D01*
X141271609Y-97363114D02*
X141366847Y-97315495D01*
X141366847Y-97315495D02*
X141604942Y-97315495D01*
X141604942Y-97315495D02*
X141700180Y-97363114D01*
X141700180Y-97363114D02*
X141747800Y-97410733D01*
X141747800Y-97410733D02*
X141795419Y-97505971D01*
X141795419Y-97505971D02*
X141795419Y-97791685D01*
X141795419Y-97791685D02*
X141747800Y-97886923D01*
X141747800Y-97886923D02*
X141700180Y-97934542D01*
X117869050Y-54672888D02*
X118374126Y-55177964D01*
X118374126Y-55177964D02*
X118441470Y-55312651D01*
X118441470Y-55312651D02*
X118441470Y-55447338D01*
X118441470Y-55447338D02*
X118374126Y-55582025D01*
X118374126Y-55582025D02*
X118306783Y-55649369D01*
X118138424Y-54403514D02*
X118576157Y-53965781D01*
X118576157Y-53965781D02*
X118609829Y-54470857D01*
X118609829Y-54470857D02*
X118710844Y-54369842D01*
X118710844Y-54369842D02*
X118811859Y-54336170D01*
X118811859Y-54336170D02*
X118879203Y-54336170D01*
X118879203Y-54336170D02*
X118980218Y-54369842D01*
X118980218Y-54369842D02*
X119148577Y-54538201D01*
X119148577Y-54538201D02*
X119182248Y-54639216D01*
X119182248Y-54639216D02*
X119182248Y-54706559D01*
X119182248Y-54706559D02*
X119148577Y-54807575D01*
X119148577Y-54807575D02*
X118946546Y-55009605D01*
X118946546Y-55009605D02*
X118845531Y-55043277D01*
X118845531Y-55043277D02*
X118778187Y-55043277D01*
X143324342Y-118960819D02*
X142991009Y-118484628D01*
X142752914Y-118960819D02*
X142752914Y-117960819D01*
X142752914Y-117960819D02*
X143133866Y-117960819D01*
X143133866Y-117960819D02*
X143229104Y-118008438D01*
X143229104Y-118008438D02*
X143276723Y-118056057D01*
X143276723Y-118056057D02*
X143324342Y-118151295D01*
X143324342Y-118151295D02*
X143324342Y-118294152D01*
X143324342Y-118294152D02*
X143276723Y-118389390D01*
X143276723Y-118389390D02*
X143229104Y-118437009D01*
X143229104Y-118437009D02*
X143133866Y-118484628D01*
X143133866Y-118484628D02*
X142752914Y-118484628D01*
X143705295Y-118056057D02*
X143752914Y-118008438D01*
X143752914Y-118008438D02*
X143848152Y-117960819D01*
X143848152Y-117960819D02*
X144086247Y-117960819D01*
X144086247Y-117960819D02*
X144181485Y-118008438D01*
X144181485Y-118008438D02*
X144229104Y-118056057D01*
X144229104Y-118056057D02*
X144276723Y-118151295D01*
X144276723Y-118151295D02*
X144276723Y-118246533D01*
X144276723Y-118246533D02*
X144229104Y-118389390D01*
X144229104Y-118389390D02*
X143657676Y-118960819D01*
X143657676Y-118960819D02*
X144276723Y-118960819D01*
X145133866Y-118294152D02*
X145133866Y-118960819D01*
X144895771Y-117913200D02*
X144657676Y-118627485D01*
X144657676Y-118627485D02*
X145276723Y-118627485D01*
X143800533Y-64503219D02*
X143467200Y-64027028D01*
X143229105Y-64503219D02*
X143229105Y-63503219D01*
X143229105Y-63503219D02*
X143610057Y-63503219D01*
X143610057Y-63503219D02*
X143705295Y-63550838D01*
X143705295Y-63550838D02*
X143752914Y-63598457D01*
X143752914Y-63598457D02*
X143800533Y-63693695D01*
X143800533Y-63693695D02*
X143800533Y-63836552D01*
X143800533Y-63836552D02*
X143752914Y-63931790D01*
X143752914Y-63931790D02*
X143705295Y-63979409D01*
X143705295Y-63979409D02*
X143610057Y-64027028D01*
X143610057Y-64027028D02*
X143229105Y-64027028D01*
X144657676Y-63503219D02*
X144467200Y-63503219D01*
X144467200Y-63503219D02*
X144371962Y-63550838D01*
X144371962Y-63550838D02*
X144324343Y-63598457D01*
X144324343Y-63598457D02*
X144229105Y-63741314D01*
X144229105Y-63741314D02*
X144181486Y-63931790D01*
X144181486Y-63931790D02*
X144181486Y-64312742D01*
X144181486Y-64312742D02*
X144229105Y-64407980D01*
X144229105Y-64407980D02*
X144276724Y-64455600D01*
X144276724Y-64455600D02*
X144371962Y-64503219D01*
X144371962Y-64503219D02*
X144562438Y-64503219D01*
X144562438Y-64503219D02*
X144657676Y-64455600D01*
X144657676Y-64455600D02*
X144705295Y-64407980D01*
X144705295Y-64407980D02*
X144752914Y-64312742D01*
X144752914Y-64312742D02*
X144752914Y-64074647D01*
X144752914Y-64074647D02*
X144705295Y-63979409D01*
X144705295Y-63979409D02*
X144657676Y-63931790D01*
X144657676Y-63931790D02*
X144562438Y-63884171D01*
X144562438Y-63884171D02*
X144371962Y-63884171D01*
X144371962Y-63884171D02*
X144276724Y-63931790D01*
X144276724Y-63931790D02*
X144229105Y-63979409D01*
X144229105Y-63979409D02*
X144181486Y-64074647D01*
X156762495Y-68645019D02*
X156762495Y-69454542D01*
X156762495Y-69454542D02*
X156810114Y-69549780D01*
X156810114Y-69549780D02*
X156857733Y-69597400D01*
X156857733Y-69597400D02*
X156952971Y-69645019D01*
X156952971Y-69645019D02*
X157143447Y-69645019D01*
X157143447Y-69645019D02*
X157238685Y-69597400D01*
X157238685Y-69597400D02*
X157286304Y-69549780D01*
X157286304Y-69549780D02*
X157333923Y-69454542D01*
X157333923Y-69454542D02*
X157333923Y-68645019D01*
X157714876Y-68645019D02*
X158333923Y-68645019D01*
X158333923Y-68645019D02*
X158000590Y-69025971D01*
X158000590Y-69025971D02*
X158143447Y-69025971D01*
X158143447Y-69025971D02*
X158238685Y-69073590D01*
X158238685Y-69073590D02*
X158286304Y-69121209D01*
X158286304Y-69121209D02*
X158333923Y-69216447D01*
X158333923Y-69216447D02*
X158333923Y-69454542D01*
X158333923Y-69454542D02*
X158286304Y-69549780D01*
X158286304Y-69549780D02*
X158238685Y-69597400D01*
X158238685Y-69597400D02*
X158143447Y-69645019D01*
X158143447Y-69645019D02*
X157857733Y-69645019D01*
X157857733Y-69645019D02*
X157762495Y-69597400D01*
X157762495Y-69597400D02*
X157714876Y-69549780D01*
X143324342Y-117106619D02*
X142991009Y-116630428D01*
X142752914Y-117106619D02*
X142752914Y-116106619D01*
X142752914Y-116106619D02*
X143133866Y-116106619D01*
X143133866Y-116106619D02*
X143229104Y-116154238D01*
X143229104Y-116154238D02*
X143276723Y-116201857D01*
X143276723Y-116201857D02*
X143324342Y-116297095D01*
X143324342Y-116297095D02*
X143324342Y-116439952D01*
X143324342Y-116439952D02*
X143276723Y-116535190D01*
X143276723Y-116535190D02*
X143229104Y-116582809D01*
X143229104Y-116582809D02*
X143133866Y-116630428D01*
X143133866Y-116630428D02*
X142752914Y-116630428D01*
X143705295Y-116201857D02*
X143752914Y-116154238D01*
X143752914Y-116154238D02*
X143848152Y-116106619D01*
X143848152Y-116106619D02*
X144086247Y-116106619D01*
X144086247Y-116106619D02*
X144181485Y-116154238D01*
X144181485Y-116154238D02*
X144229104Y-116201857D01*
X144229104Y-116201857D02*
X144276723Y-116297095D01*
X144276723Y-116297095D02*
X144276723Y-116392333D01*
X144276723Y-116392333D02*
X144229104Y-116535190D01*
X144229104Y-116535190D02*
X143657676Y-117106619D01*
X143657676Y-117106619D02*
X144276723Y-117106619D01*
X144848152Y-116535190D02*
X144752914Y-116487571D01*
X144752914Y-116487571D02*
X144705295Y-116439952D01*
X144705295Y-116439952D02*
X144657676Y-116344714D01*
X144657676Y-116344714D02*
X144657676Y-116297095D01*
X144657676Y-116297095D02*
X144705295Y-116201857D01*
X144705295Y-116201857D02*
X144752914Y-116154238D01*
X144752914Y-116154238D02*
X144848152Y-116106619D01*
X144848152Y-116106619D02*
X145038628Y-116106619D01*
X145038628Y-116106619D02*
X145133866Y-116154238D01*
X145133866Y-116154238D02*
X145181485Y-116201857D01*
X145181485Y-116201857D02*
X145229104Y-116297095D01*
X145229104Y-116297095D02*
X145229104Y-116344714D01*
X145229104Y-116344714D02*
X145181485Y-116439952D01*
X145181485Y-116439952D02*
X145133866Y-116487571D01*
X145133866Y-116487571D02*
X145038628Y-116535190D01*
X145038628Y-116535190D02*
X144848152Y-116535190D01*
X144848152Y-116535190D02*
X144752914Y-116582809D01*
X144752914Y-116582809D02*
X144705295Y-116630428D01*
X144705295Y-116630428D02*
X144657676Y-116725666D01*
X144657676Y-116725666D02*
X144657676Y-116916142D01*
X144657676Y-116916142D02*
X144705295Y-117011380D01*
X144705295Y-117011380D02*
X144752914Y-117059000D01*
X144752914Y-117059000D02*
X144848152Y-117106619D01*
X144848152Y-117106619D02*
X145038628Y-117106619D01*
X145038628Y-117106619D02*
X145133866Y-117059000D01*
X145133866Y-117059000D02*
X145181485Y-117011380D01*
X145181485Y-117011380D02*
X145229104Y-116916142D01*
X145229104Y-116916142D02*
X145229104Y-116725666D01*
X145229104Y-116725666D02*
X145181485Y-116630428D01*
X145181485Y-116630428D02*
X145133866Y-116582809D01*
X145133866Y-116582809D02*
X145038628Y-116535190D01*
X136216019Y-102776257D02*
X135739828Y-103109590D01*
X136216019Y-103347685D02*
X135216019Y-103347685D01*
X135216019Y-103347685D02*
X135216019Y-102966733D01*
X135216019Y-102966733D02*
X135263638Y-102871495D01*
X135263638Y-102871495D02*
X135311257Y-102823876D01*
X135311257Y-102823876D02*
X135406495Y-102776257D01*
X135406495Y-102776257D02*
X135549352Y-102776257D01*
X135549352Y-102776257D02*
X135644590Y-102823876D01*
X135644590Y-102823876D02*
X135692209Y-102871495D01*
X135692209Y-102871495D02*
X135739828Y-102966733D01*
X135739828Y-102966733D02*
X135739828Y-103347685D01*
X135216019Y-102442923D02*
X135216019Y-101823876D01*
X135216019Y-101823876D02*
X135596971Y-102157209D01*
X135596971Y-102157209D02*
X135596971Y-102014352D01*
X135596971Y-102014352D02*
X135644590Y-101919114D01*
X135644590Y-101919114D02*
X135692209Y-101871495D01*
X135692209Y-101871495D02*
X135787447Y-101823876D01*
X135787447Y-101823876D02*
X136025542Y-101823876D01*
X136025542Y-101823876D02*
X136120780Y-101871495D01*
X136120780Y-101871495D02*
X136168400Y-101919114D01*
X136168400Y-101919114D02*
X136216019Y-102014352D01*
X136216019Y-102014352D02*
X136216019Y-102300066D01*
X136216019Y-102300066D02*
X136168400Y-102395304D01*
X136168400Y-102395304D02*
X136120780Y-102442923D01*
X136216019Y-100871495D02*
X136216019Y-101442923D01*
X136216019Y-101157209D02*
X135216019Y-101157209D01*
X135216019Y-101157209D02*
X135358876Y-101252447D01*
X135358876Y-101252447D02*
X135454114Y-101347685D01*
X135454114Y-101347685D02*
X135501733Y-101442923D01*
X127060895Y-96459219D02*
X127060895Y-97268742D01*
X127060895Y-97268742D02*
X127108514Y-97363980D01*
X127108514Y-97363980D02*
X127156133Y-97411600D01*
X127156133Y-97411600D02*
X127251371Y-97459219D01*
X127251371Y-97459219D02*
X127441847Y-97459219D01*
X127441847Y-97459219D02*
X127537085Y-97411600D01*
X127537085Y-97411600D02*
X127584704Y-97363980D01*
X127584704Y-97363980D02*
X127632323Y-97268742D01*
X127632323Y-97268742D02*
X127632323Y-96459219D01*
X128537085Y-96459219D02*
X128346609Y-96459219D01*
X128346609Y-96459219D02*
X128251371Y-96506838D01*
X128251371Y-96506838D02*
X128203752Y-96554457D01*
X128203752Y-96554457D02*
X128108514Y-96697314D01*
X128108514Y-96697314D02*
X128060895Y-96887790D01*
X128060895Y-96887790D02*
X128060895Y-97268742D01*
X128060895Y-97268742D02*
X128108514Y-97363980D01*
X128108514Y-97363980D02*
X128156133Y-97411600D01*
X128156133Y-97411600D02*
X128251371Y-97459219D01*
X128251371Y-97459219D02*
X128441847Y-97459219D01*
X128441847Y-97459219D02*
X128537085Y-97411600D01*
X128537085Y-97411600D02*
X128584704Y-97363980D01*
X128584704Y-97363980D02*
X128632323Y-97268742D01*
X128632323Y-97268742D02*
X128632323Y-97030647D01*
X128632323Y-97030647D02*
X128584704Y-96935409D01*
X128584704Y-96935409D02*
X128537085Y-96887790D01*
X128537085Y-96887790D02*
X128441847Y-96840171D01*
X128441847Y-96840171D02*
X128251371Y-96840171D01*
X128251371Y-96840171D02*
X128156133Y-96887790D01*
X128156133Y-96887790D02*
X128108514Y-96935409D01*
X128108514Y-96935409D02*
X128060895Y-97030647D01*
D11*
X107896419Y-104851104D02*
X108705942Y-104851104D01*
X108705942Y-104851104D02*
X108801180Y-104803485D01*
X108801180Y-104803485D02*
X108848800Y-104755866D01*
X108848800Y-104755866D02*
X108896419Y-104660628D01*
X108896419Y-104660628D02*
X108896419Y-104470152D01*
X108896419Y-104470152D02*
X108848800Y-104374914D01*
X108848800Y-104374914D02*
X108801180Y-104327295D01*
X108801180Y-104327295D02*
X108705942Y-104279676D01*
X108705942Y-104279676D02*
X107896419Y-104279676D01*
X108896419Y-103279676D02*
X108896419Y-103851104D01*
X108896419Y-103565390D02*
X107896419Y-103565390D01*
X107896419Y-103565390D02*
X108039276Y-103660628D01*
X108039276Y-103660628D02*
X108134514Y-103755866D01*
X108134514Y-103755866D02*
X108182133Y-103851104D01*
D12*
X128964657Y-109326081D02*
X128964657Y-107326081D01*
X128964657Y-107326081D02*
X131964657Y-109326081D01*
X131964657Y-109326081D02*
X131964657Y-107326081D01*
X130393228Y-106183224D02*
X130393228Y-105183224D01*
X131964657Y-104754652D02*
X131964657Y-106183224D01*
X131964657Y-106183224D02*
X128964657Y-106183224D01*
X128964657Y-106183224D02*
X128964657Y-104754652D01*
X131964657Y-101754652D02*
X130536085Y-102754652D01*
X131964657Y-103468938D02*
X128964657Y-103468938D01*
X128964657Y-103468938D02*
X128964657Y-102326081D01*
X128964657Y-102326081D02*
X129107514Y-102040366D01*
X129107514Y-102040366D02*
X129250371Y-101897509D01*
X129250371Y-101897509D02*
X129536085Y-101754652D01*
X129536085Y-101754652D02*
X129964657Y-101754652D01*
X129964657Y-101754652D02*
X130250371Y-101897509D01*
X130250371Y-101897509D02*
X130393228Y-102040366D01*
X130393228Y-102040366D02*
X130536085Y-102326081D01*
X130536085Y-102326081D02*
X130536085Y-103468938D01*
X128964657Y-99897509D02*
X128964657Y-99326081D01*
X128964657Y-99326081D02*
X129107514Y-99040366D01*
X129107514Y-99040366D02*
X129393228Y-98754652D01*
X129393228Y-98754652D02*
X129964657Y-98611795D01*
X129964657Y-98611795D02*
X130964657Y-98611795D01*
X130964657Y-98611795D02*
X131536085Y-98754652D01*
X131536085Y-98754652D02*
X131821800Y-99040366D01*
X131821800Y-99040366D02*
X131964657Y-99326081D01*
X131964657Y-99326081D02*
X131964657Y-99897509D01*
X131964657Y-99897509D02*
X131821800Y-100183224D01*
X131821800Y-100183224D02*
X131536085Y-100468938D01*
X131536085Y-100468938D02*
X130964657Y-100611795D01*
X130964657Y-100611795D02*
X129964657Y-100611795D01*
X129964657Y-100611795D02*
X129393228Y-100468938D01*
X129393228Y-100468938D02*
X129107514Y-100183224D01*
X129107514Y-100183224D02*
X128964657Y-99897509D01*
X127108638Y-108186405D02*
X126156257Y-108853072D01*
X127108638Y-109329262D02*
X125108638Y-109329262D01*
X125108638Y-109329262D02*
X125108638Y-108567357D01*
X125108638Y-108567357D02*
X125203876Y-108376881D01*
X125203876Y-108376881D02*
X125299114Y-108281643D01*
X125299114Y-108281643D02*
X125489590Y-108186405D01*
X125489590Y-108186405D02*
X125775304Y-108186405D01*
X125775304Y-108186405D02*
X125965780Y-108281643D01*
X125965780Y-108281643D02*
X126061019Y-108376881D01*
X126061019Y-108376881D02*
X126156257Y-108567357D01*
X126156257Y-108567357D02*
X126156257Y-109329262D01*
X127108638Y-107329262D02*
X125108638Y-107329262D01*
X125108638Y-107329262D02*
X125108638Y-106567357D01*
X125108638Y-106567357D02*
X125203876Y-106376881D01*
X125203876Y-106376881D02*
X125299114Y-106281643D01*
X125299114Y-106281643D02*
X125489590Y-106186405D01*
X125489590Y-106186405D02*
X125775304Y-106186405D01*
X125775304Y-106186405D02*
X125965780Y-106281643D01*
X125965780Y-106281643D02*
X126061019Y-106376881D01*
X126061019Y-106376881D02*
X126156257Y-106567357D01*
X126156257Y-106567357D02*
X126156257Y-107329262D01*
X125299114Y-105424500D02*
X125203876Y-105329262D01*
X125203876Y-105329262D02*
X125108638Y-105138786D01*
X125108638Y-105138786D02*
X125108638Y-104662595D01*
X125108638Y-104662595D02*
X125203876Y-104472119D01*
X125203876Y-104472119D02*
X125299114Y-104376881D01*
X125299114Y-104376881D02*
X125489590Y-104281643D01*
X125489590Y-104281643D02*
X125680066Y-104281643D01*
X125680066Y-104281643D02*
X125965780Y-104376881D01*
X125965780Y-104376881D02*
X127108638Y-105519738D01*
X127108638Y-105519738D02*
X127108638Y-104281643D01*
X125108638Y-103043548D02*
X125108638Y-102853071D01*
X125108638Y-102853071D02*
X125203876Y-102662595D01*
X125203876Y-102662595D02*
X125299114Y-102567357D01*
X125299114Y-102567357D02*
X125489590Y-102472119D01*
X125489590Y-102472119D02*
X125870542Y-102376881D01*
X125870542Y-102376881D02*
X126346733Y-102376881D01*
X126346733Y-102376881D02*
X126727685Y-102472119D01*
X126727685Y-102472119D02*
X126918161Y-102567357D01*
X126918161Y-102567357D02*
X127013400Y-102662595D01*
X127013400Y-102662595D02*
X127108638Y-102853071D01*
X127108638Y-102853071D02*
X127108638Y-103043548D01*
X127108638Y-103043548D02*
X127013400Y-103234024D01*
X127013400Y-103234024D02*
X126918161Y-103329262D01*
X126918161Y-103329262D02*
X126727685Y-103424500D01*
X126727685Y-103424500D02*
X126346733Y-103519738D01*
X126346733Y-103519738D02*
X125870542Y-103519738D01*
X125870542Y-103519738D02*
X125489590Y-103424500D01*
X125489590Y-103424500D02*
X125299114Y-103329262D01*
X125299114Y-103329262D02*
X125203876Y-103234024D01*
X125203876Y-103234024D02*
X125108638Y-103043548D01*
X125775304Y-100662595D02*
X127108638Y-100662595D01*
X125013400Y-101138786D02*
X126441971Y-101614976D01*
X126441971Y-101614976D02*
X126441971Y-100376881D01*
X125108638Y-99234024D02*
X125108638Y-99043547D01*
X125108638Y-99043547D02*
X125203876Y-98853071D01*
X125203876Y-98853071D02*
X125299114Y-98757833D01*
X125299114Y-98757833D02*
X125489590Y-98662595D01*
X125489590Y-98662595D02*
X125870542Y-98567357D01*
X125870542Y-98567357D02*
X126346733Y-98567357D01*
X126346733Y-98567357D02*
X126727685Y-98662595D01*
X126727685Y-98662595D02*
X126918161Y-98757833D01*
X126918161Y-98757833D02*
X127013400Y-98853071D01*
X127013400Y-98853071D02*
X127108638Y-99043547D01*
X127108638Y-99043547D02*
X127108638Y-99234024D01*
X127108638Y-99234024D02*
X127013400Y-99424500D01*
X127013400Y-99424500D02*
X126918161Y-99519738D01*
X126918161Y-99519738D02*
X126727685Y-99614976D01*
X126727685Y-99614976D02*
X126346733Y-99710214D01*
X126346733Y-99710214D02*
X125870542Y-99710214D01*
X125870542Y-99710214D02*
X125489590Y-99614976D01*
X125489590Y-99614976D02*
X125299114Y-99519738D01*
X125299114Y-99519738D02*
X125203876Y-99424500D01*
X125203876Y-99424500D02*
X125108638Y-99234024D01*
D10*
X137879219Y-76214266D02*
X137403028Y-76547599D01*
X137879219Y-76785694D02*
X136879219Y-76785694D01*
X136879219Y-76785694D02*
X136879219Y-76404742D01*
X136879219Y-76404742D02*
X136926838Y-76309504D01*
X136926838Y-76309504D02*
X136974457Y-76261885D01*
X136974457Y-76261885D02*
X137069695Y-76214266D01*
X137069695Y-76214266D02*
X137212552Y-76214266D01*
X137212552Y-76214266D02*
X137307790Y-76261885D01*
X137307790Y-76261885D02*
X137355409Y-76309504D01*
X137355409Y-76309504D02*
X137403028Y-76404742D01*
X137403028Y-76404742D02*
X137403028Y-76785694D01*
X136879219Y-75880932D02*
X136879219Y-75214266D01*
X136879219Y-75214266D02*
X137879219Y-75642837D01*
X143298942Y-83273819D02*
X142965609Y-82797628D01*
X142727514Y-83273819D02*
X142727514Y-82273819D01*
X142727514Y-82273819D02*
X143108466Y-82273819D01*
X143108466Y-82273819D02*
X143203704Y-82321438D01*
X143203704Y-82321438D02*
X143251323Y-82369057D01*
X143251323Y-82369057D02*
X143298942Y-82464295D01*
X143298942Y-82464295D02*
X143298942Y-82607152D01*
X143298942Y-82607152D02*
X143251323Y-82702390D01*
X143251323Y-82702390D02*
X143203704Y-82750009D01*
X143203704Y-82750009D02*
X143108466Y-82797628D01*
X143108466Y-82797628D02*
X142727514Y-82797628D01*
X144251323Y-83273819D02*
X143679895Y-83273819D01*
X143965609Y-83273819D02*
X143965609Y-82273819D01*
X143965609Y-82273819D02*
X143870371Y-82416676D01*
X143870371Y-82416676D02*
X143775133Y-82511914D01*
X143775133Y-82511914D02*
X143679895Y-82559533D01*
X144870371Y-82273819D02*
X144965609Y-82273819D01*
X144965609Y-82273819D02*
X145060847Y-82321438D01*
X145060847Y-82321438D02*
X145108466Y-82369057D01*
X145108466Y-82369057D02*
X145156085Y-82464295D01*
X145156085Y-82464295D02*
X145203704Y-82654771D01*
X145203704Y-82654771D02*
X145203704Y-82892866D01*
X145203704Y-82892866D02*
X145156085Y-83083342D01*
X145156085Y-83083342D02*
X145108466Y-83178580D01*
X145108466Y-83178580D02*
X145060847Y-83226200D01*
X145060847Y-83226200D02*
X144965609Y-83273819D01*
X144965609Y-83273819D02*
X144870371Y-83273819D01*
X144870371Y-83273819D02*
X144775133Y-83226200D01*
X144775133Y-83226200D02*
X144727514Y-83178580D01*
X144727514Y-83178580D02*
X144679895Y-83083342D01*
X144679895Y-83083342D02*
X144632276Y-82892866D01*
X144632276Y-82892866D02*
X144632276Y-82654771D01*
X144632276Y-82654771D02*
X144679895Y-82464295D01*
X144679895Y-82464295D02*
X144727514Y-82369057D01*
X144727514Y-82369057D02*
X144775133Y-82321438D01*
X144775133Y-82321438D02*
X144870371Y-82273819D01*
X143324342Y-100266419D02*
X142991009Y-99790228D01*
X142752914Y-100266419D02*
X142752914Y-99266419D01*
X142752914Y-99266419D02*
X143133866Y-99266419D01*
X143133866Y-99266419D02*
X143229104Y-99314038D01*
X143229104Y-99314038D02*
X143276723Y-99361657D01*
X143276723Y-99361657D02*
X143324342Y-99456895D01*
X143324342Y-99456895D02*
X143324342Y-99599752D01*
X143324342Y-99599752D02*
X143276723Y-99694990D01*
X143276723Y-99694990D02*
X143229104Y-99742609D01*
X143229104Y-99742609D02*
X143133866Y-99790228D01*
X143133866Y-99790228D02*
X142752914Y-99790228D01*
X144276723Y-100266419D02*
X143705295Y-100266419D01*
X143991009Y-100266419D02*
X143991009Y-99266419D01*
X143991009Y-99266419D02*
X143895771Y-99409276D01*
X143895771Y-99409276D02*
X143800533Y-99504514D01*
X143800533Y-99504514D02*
X143705295Y-99552133D01*
X144848152Y-99694990D02*
X144752914Y-99647371D01*
X144752914Y-99647371D02*
X144705295Y-99599752D01*
X144705295Y-99599752D02*
X144657676Y-99504514D01*
X144657676Y-99504514D02*
X144657676Y-99456895D01*
X144657676Y-99456895D02*
X144705295Y-99361657D01*
X144705295Y-99361657D02*
X144752914Y-99314038D01*
X144752914Y-99314038D02*
X144848152Y-99266419D01*
X144848152Y-99266419D02*
X145038628Y-99266419D01*
X145038628Y-99266419D02*
X145133866Y-99314038D01*
X145133866Y-99314038D02*
X145181485Y-99361657D01*
X145181485Y-99361657D02*
X145229104Y-99456895D01*
X145229104Y-99456895D02*
X145229104Y-99504514D01*
X145229104Y-99504514D02*
X145181485Y-99599752D01*
X145181485Y-99599752D02*
X145133866Y-99647371D01*
X145133866Y-99647371D02*
X145038628Y-99694990D01*
X145038628Y-99694990D02*
X144848152Y-99694990D01*
X144848152Y-99694990D02*
X144752914Y-99742609D01*
X144752914Y-99742609D02*
X144705295Y-99790228D01*
X144705295Y-99790228D02*
X144657676Y-99885466D01*
X144657676Y-99885466D02*
X144657676Y-100075942D01*
X144657676Y-100075942D02*
X144705295Y-100171180D01*
X144705295Y-100171180D02*
X144752914Y-100218800D01*
X144752914Y-100218800D02*
X144848152Y-100266419D01*
X144848152Y-100266419D02*
X145038628Y-100266419D01*
X145038628Y-100266419D02*
X145133866Y-100218800D01*
X145133866Y-100218800D02*
X145181485Y-100171180D01*
X145181485Y-100171180D02*
X145229104Y-100075942D01*
X145229104Y-100075942D02*
X145229104Y-99885466D01*
X145229104Y-99885466D02*
X145181485Y-99790228D01*
X145181485Y-99790228D02*
X145133866Y-99742609D01*
X145133866Y-99742609D02*
X145038628Y-99694990D01*
X134008905Y-125784619D02*
X134008905Y-124784619D01*
X134008905Y-124784619D02*
X134247000Y-124784619D01*
X134247000Y-124784619D02*
X134389857Y-124832238D01*
X134389857Y-124832238D02*
X134485095Y-124927476D01*
X134485095Y-124927476D02*
X134532714Y-125022714D01*
X134532714Y-125022714D02*
X134580333Y-125213190D01*
X134580333Y-125213190D02*
X134580333Y-125356047D01*
X134580333Y-125356047D02*
X134532714Y-125546523D01*
X134532714Y-125546523D02*
X134485095Y-125641761D01*
X134485095Y-125641761D02*
X134389857Y-125737000D01*
X134389857Y-125737000D02*
X134247000Y-125784619D01*
X134247000Y-125784619D02*
X134008905Y-125784619D01*
X135532714Y-125784619D02*
X134961286Y-125784619D01*
X135247000Y-125784619D02*
X135247000Y-124784619D01*
X135247000Y-124784619D02*
X135151762Y-124927476D01*
X135151762Y-124927476D02*
X135056524Y-125022714D01*
X135056524Y-125022714D02*
X134961286Y-125070333D01*
X138295095Y-125214619D02*
X138295095Y-124214619D01*
X138866523Y-125214619D02*
X138437952Y-124643190D01*
X138866523Y-124214619D02*
X138295095Y-124786047D01*
X131387838Y-72297142D02*
X131483076Y-72344761D01*
X131483076Y-72344761D02*
X131578314Y-72440000D01*
X131578314Y-72440000D02*
X131721171Y-72582857D01*
X131721171Y-72582857D02*
X131816409Y-72630476D01*
X131816409Y-72630476D02*
X131911647Y-72630476D01*
X131864028Y-72392380D02*
X131959266Y-72440000D01*
X131959266Y-72440000D02*
X132054504Y-72535238D01*
X132054504Y-72535238D02*
X132102123Y-72725714D01*
X132102123Y-72725714D02*
X132102123Y-73059047D01*
X132102123Y-73059047D02*
X132054504Y-73249523D01*
X132054504Y-73249523D02*
X131959266Y-73344761D01*
X131959266Y-73344761D02*
X131864028Y-73392380D01*
X131864028Y-73392380D02*
X131673552Y-73392380D01*
X131673552Y-73392380D02*
X131578314Y-73344761D01*
X131578314Y-73344761D02*
X131483076Y-73249523D01*
X131483076Y-73249523D02*
X131435457Y-73059047D01*
X131435457Y-73059047D02*
X131435457Y-72725714D01*
X131435457Y-72725714D02*
X131483076Y-72535238D01*
X131483076Y-72535238D02*
X131578314Y-72440000D01*
X131578314Y-72440000D02*
X131673552Y-72392380D01*
X131673552Y-72392380D02*
X131864028Y-72392380D01*
X131054504Y-73297142D02*
X131006885Y-73344761D01*
X131006885Y-73344761D02*
X130911647Y-73392380D01*
X130911647Y-73392380D02*
X130673552Y-73392380D01*
X130673552Y-73392380D02*
X130578314Y-73344761D01*
X130578314Y-73344761D02*
X130530695Y-73297142D01*
X130530695Y-73297142D02*
X130483076Y-73201904D01*
X130483076Y-73201904D02*
X130483076Y-73106666D01*
X130483076Y-73106666D02*
X130530695Y-72963809D01*
X130530695Y-72963809D02*
X131102123Y-72392380D01*
X131102123Y-72392380D02*
X130483076Y-72392380D01*
X134387837Y-63248380D02*
X134387837Y-64248380D01*
X133816409Y-63248380D02*
X134244980Y-63819809D01*
X133816409Y-64248380D02*
X134387837Y-63676952D01*
X132864028Y-63248380D02*
X133435456Y-63248380D01*
X133149742Y-63248380D02*
X133149742Y-64248380D01*
X133149742Y-64248380D02*
X133244980Y-64105523D01*
X133244980Y-64105523D02*
X133340218Y-64010285D01*
X133340218Y-64010285D02*
X133435456Y-63962666D01*
X131959266Y-64248380D02*
X132435456Y-64248380D01*
X132435456Y-64248380D02*
X132483075Y-63772190D01*
X132483075Y-63772190D02*
X132435456Y-63819809D01*
X132435456Y-63819809D02*
X132340218Y-63867428D01*
X132340218Y-63867428D02*
X132102123Y-63867428D01*
X132102123Y-63867428D02*
X132006885Y-63819809D01*
X132006885Y-63819809D02*
X131959266Y-63772190D01*
X131959266Y-63772190D02*
X131911647Y-63676952D01*
X131911647Y-63676952D02*
X131911647Y-63438857D01*
X131911647Y-63438857D02*
X131959266Y-63343619D01*
X131959266Y-63343619D02*
X132006885Y-63296000D01*
X132006885Y-63296000D02*
X132102123Y-63248380D01*
X132102123Y-63248380D02*
X132340218Y-63248380D01*
X132340218Y-63248380D02*
X132435456Y-63296000D01*
X132435456Y-63296000D02*
X132483075Y-63343619D01*
X131530694Y-63534095D02*
X131054504Y-63534095D01*
X131625932Y-63248380D02*
X131292599Y-64248380D01*
X131292599Y-64248380D02*
X130959266Y-63248380D01*
X130673551Y-64153142D02*
X130625932Y-64200761D01*
X130625932Y-64200761D02*
X130530694Y-64248380D01*
X130530694Y-64248380D02*
X130292599Y-64248380D01*
X130292599Y-64248380D02*
X130197361Y-64200761D01*
X130197361Y-64200761D02*
X130149742Y-64153142D01*
X130149742Y-64153142D02*
X130102123Y-64057904D01*
X130102123Y-64057904D02*
X130102123Y-63962666D01*
X130102123Y-63962666D02*
X130149742Y-63819809D01*
X130149742Y-63819809D02*
X130721170Y-63248380D01*
X130721170Y-63248380D02*
X130102123Y-63248380D01*
X129483075Y-64248380D02*
X129387837Y-64248380D01*
X129387837Y-64248380D02*
X129292599Y-64200761D01*
X129292599Y-64200761D02*
X129244980Y-64153142D01*
X129244980Y-64153142D02*
X129197361Y-64057904D01*
X129197361Y-64057904D02*
X129149742Y-63867428D01*
X129149742Y-63867428D02*
X129149742Y-63629333D01*
X129149742Y-63629333D02*
X129197361Y-63438857D01*
X129197361Y-63438857D02*
X129244980Y-63343619D01*
X129244980Y-63343619D02*
X129292599Y-63296000D01*
X129292599Y-63296000D02*
X129387837Y-63248380D01*
X129387837Y-63248380D02*
X129483075Y-63248380D01*
X129483075Y-63248380D02*
X129578313Y-63296000D01*
X129578313Y-63296000D02*
X129625932Y-63343619D01*
X129625932Y-63343619D02*
X129673551Y-63438857D01*
X129673551Y-63438857D02*
X129721170Y-63629333D01*
X129721170Y-63629333D02*
X129721170Y-63867428D01*
X129721170Y-63867428D02*
X129673551Y-64057904D01*
X129673551Y-64057904D02*
X129625932Y-64153142D01*
X129625932Y-64153142D02*
X129578313Y-64200761D01*
X129578313Y-64200761D02*
X129483075Y-64248380D01*
X128721170Y-63248380D02*
X128721170Y-64248380D01*
X128721170Y-64248380D02*
X128483075Y-64248380D01*
X128483075Y-64248380D02*
X128340218Y-64200761D01*
X128340218Y-64200761D02*
X128244980Y-64105523D01*
X128244980Y-64105523D02*
X128197361Y-64010285D01*
X128197361Y-64010285D02*
X128149742Y-63819809D01*
X128149742Y-63819809D02*
X128149742Y-63676952D01*
X128149742Y-63676952D02*
X128197361Y-63486476D01*
X128197361Y-63486476D02*
X128244980Y-63391238D01*
X128244980Y-63391238D02*
X128340218Y-63296000D01*
X128340218Y-63296000D02*
X128483075Y-63248380D01*
X128483075Y-63248380D02*
X128721170Y-63248380D01*
X143324342Y-98412219D02*
X142991009Y-97936028D01*
X142752914Y-98412219D02*
X142752914Y-97412219D01*
X142752914Y-97412219D02*
X143133866Y-97412219D01*
X143133866Y-97412219D02*
X143229104Y-97459838D01*
X143229104Y-97459838D02*
X143276723Y-97507457D01*
X143276723Y-97507457D02*
X143324342Y-97602695D01*
X143324342Y-97602695D02*
X143324342Y-97745552D01*
X143324342Y-97745552D02*
X143276723Y-97840790D01*
X143276723Y-97840790D02*
X143229104Y-97888409D01*
X143229104Y-97888409D02*
X143133866Y-97936028D01*
X143133866Y-97936028D02*
X142752914Y-97936028D01*
X144276723Y-98412219D02*
X143705295Y-98412219D01*
X143991009Y-98412219D02*
X143991009Y-97412219D01*
X143991009Y-97412219D02*
X143895771Y-97555076D01*
X143895771Y-97555076D02*
X143800533Y-97650314D01*
X143800533Y-97650314D02*
X143705295Y-97697933D01*
X144610057Y-97412219D02*
X145276723Y-97412219D01*
X145276723Y-97412219D02*
X144848152Y-98412219D01*
X120378619Y-107541257D02*
X119902428Y-107874590D01*
X120378619Y-108112685D02*
X119378619Y-108112685D01*
X119378619Y-108112685D02*
X119378619Y-107731733D01*
X119378619Y-107731733D02*
X119426238Y-107636495D01*
X119426238Y-107636495D02*
X119473857Y-107588876D01*
X119473857Y-107588876D02*
X119569095Y-107541257D01*
X119569095Y-107541257D02*
X119711952Y-107541257D01*
X119711952Y-107541257D02*
X119807190Y-107588876D01*
X119807190Y-107588876D02*
X119854809Y-107636495D01*
X119854809Y-107636495D02*
X119902428Y-107731733D01*
X119902428Y-107731733D02*
X119902428Y-108112685D01*
X119473857Y-107160304D02*
X119426238Y-107112685D01*
X119426238Y-107112685D02*
X119378619Y-107017447D01*
X119378619Y-107017447D02*
X119378619Y-106779352D01*
X119378619Y-106779352D02*
X119426238Y-106684114D01*
X119426238Y-106684114D02*
X119473857Y-106636495D01*
X119473857Y-106636495D02*
X119569095Y-106588876D01*
X119569095Y-106588876D02*
X119664333Y-106588876D01*
X119664333Y-106588876D02*
X119807190Y-106636495D01*
X119807190Y-106636495D02*
X120378619Y-107207923D01*
X120378619Y-107207923D02*
X120378619Y-106588876D01*
X119378619Y-105969828D02*
X119378619Y-105874590D01*
X119378619Y-105874590D02*
X119426238Y-105779352D01*
X119426238Y-105779352D02*
X119473857Y-105731733D01*
X119473857Y-105731733D02*
X119569095Y-105684114D01*
X119569095Y-105684114D02*
X119759571Y-105636495D01*
X119759571Y-105636495D02*
X119997666Y-105636495D01*
X119997666Y-105636495D02*
X120188142Y-105684114D01*
X120188142Y-105684114D02*
X120283380Y-105731733D01*
X120283380Y-105731733D02*
X120331000Y-105779352D01*
X120331000Y-105779352D02*
X120378619Y-105874590D01*
X120378619Y-105874590D02*
X120378619Y-105969828D01*
X120378619Y-105969828D02*
X120331000Y-106065066D01*
X120331000Y-106065066D02*
X120283380Y-106112685D01*
X120283380Y-106112685D02*
X120188142Y-106160304D01*
X120188142Y-106160304D02*
X119997666Y-106207923D01*
X119997666Y-106207923D02*
X119759571Y-106207923D01*
X119759571Y-106207923D02*
X119569095Y-106160304D01*
X119569095Y-106160304D02*
X119473857Y-106112685D01*
X119473857Y-106112685D02*
X119426238Y-106065066D01*
X119426238Y-106065066D02*
X119378619Y-105969828D01*
X143775133Y-75857019D02*
X143441800Y-75380828D01*
X143203705Y-75857019D02*
X143203705Y-74857019D01*
X143203705Y-74857019D02*
X143584657Y-74857019D01*
X143584657Y-74857019D02*
X143679895Y-74904638D01*
X143679895Y-74904638D02*
X143727514Y-74952257D01*
X143727514Y-74952257D02*
X143775133Y-75047495D01*
X143775133Y-75047495D02*
X143775133Y-75190352D01*
X143775133Y-75190352D02*
X143727514Y-75285590D01*
X143727514Y-75285590D02*
X143679895Y-75333209D01*
X143679895Y-75333209D02*
X143584657Y-75380828D01*
X143584657Y-75380828D02*
X143203705Y-75380828D01*
X144251324Y-75857019D02*
X144441800Y-75857019D01*
X144441800Y-75857019D02*
X144537038Y-75809400D01*
X144537038Y-75809400D02*
X144584657Y-75761780D01*
X144584657Y-75761780D02*
X144679895Y-75618923D01*
X144679895Y-75618923D02*
X144727514Y-75428447D01*
X144727514Y-75428447D02*
X144727514Y-75047495D01*
X144727514Y-75047495D02*
X144679895Y-74952257D01*
X144679895Y-74952257D02*
X144632276Y-74904638D01*
X144632276Y-74904638D02*
X144537038Y-74857019D01*
X144537038Y-74857019D02*
X144346562Y-74857019D01*
X144346562Y-74857019D02*
X144251324Y-74904638D01*
X144251324Y-74904638D02*
X144203705Y-74952257D01*
X144203705Y-74952257D02*
X144156086Y-75047495D01*
X144156086Y-75047495D02*
X144156086Y-75285590D01*
X144156086Y-75285590D02*
X144203705Y-75380828D01*
X144203705Y-75380828D02*
X144251324Y-75428447D01*
X144251324Y-75428447D02*
X144346562Y-75476066D01*
X144346562Y-75476066D02*
X144537038Y-75476066D01*
X144537038Y-75476066D02*
X144632276Y-75428447D01*
X144632276Y-75428447D02*
X144679895Y-75380828D01*
X144679895Y-75380828D02*
X144727514Y-75285590D01*
X170273246Y-83357580D02*
X170225627Y-83405200D01*
X170225627Y-83405200D02*
X170082770Y-83452819D01*
X170082770Y-83452819D02*
X169987532Y-83452819D01*
X169987532Y-83452819D02*
X169844675Y-83405200D01*
X169844675Y-83405200D02*
X169749437Y-83309961D01*
X169749437Y-83309961D02*
X169701818Y-83214723D01*
X169701818Y-83214723D02*
X169654199Y-83024247D01*
X169654199Y-83024247D02*
X169654199Y-82881390D01*
X169654199Y-82881390D02*
X169701818Y-82690914D01*
X169701818Y-82690914D02*
X169749437Y-82595676D01*
X169749437Y-82595676D02*
X169844675Y-82500438D01*
X169844675Y-82500438D02*
X169987532Y-82452819D01*
X169987532Y-82452819D02*
X170082770Y-82452819D01*
X170082770Y-82452819D02*
X170225627Y-82500438D01*
X170225627Y-82500438D02*
X170273246Y-82548057D01*
X171225627Y-83452819D02*
X170654199Y-83452819D01*
X170939913Y-83452819D02*
X170939913Y-82452819D01*
X170939913Y-82452819D02*
X170844675Y-82595676D01*
X170844675Y-82595676D02*
X170749437Y-82690914D01*
X170749437Y-82690914D02*
X170654199Y-82738533D01*
X122559019Y-75419333D02*
X123273304Y-75419333D01*
X123273304Y-75419333D02*
X123416161Y-75466952D01*
X123416161Y-75466952D02*
X123511400Y-75562190D01*
X123511400Y-75562190D02*
X123559019Y-75705047D01*
X123559019Y-75705047D02*
X123559019Y-75800285D01*
X122559019Y-74466952D02*
X122559019Y-74943142D01*
X122559019Y-74943142D02*
X123035209Y-74990761D01*
X123035209Y-74990761D02*
X122987590Y-74943142D01*
X122987590Y-74943142D02*
X122939971Y-74847904D01*
X122939971Y-74847904D02*
X122939971Y-74609809D01*
X122939971Y-74609809D02*
X122987590Y-74514571D01*
X122987590Y-74514571D02*
X123035209Y-74466952D01*
X123035209Y-74466952D02*
X123130447Y-74419333D01*
X123130447Y-74419333D02*
X123368542Y-74419333D01*
X123368542Y-74419333D02*
X123463780Y-74466952D01*
X123463780Y-74466952D02*
X123511400Y-74514571D01*
X123511400Y-74514571D02*
X123559019Y-74609809D01*
X123559019Y-74609809D02*
X123559019Y-74847904D01*
X123559019Y-74847904D02*
X123511400Y-74943142D01*
X123511400Y-74943142D02*
X123463780Y-74990761D01*
X156762495Y-86185419D02*
X156762495Y-86994942D01*
X156762495Y-86994942D02*
X156810114Y-87090180D01*
X156810114Y-87090180D02*
X156857733Y-87137800D01*
X156857733Y-87137800D02*
X156952971Y-87185419D01*
X156952971Y-87185419D02*
X157143447Y-87185419D01*
X157143447Y-87185419D02*
X157238685Y-87137800D01*
X157238685Y-87137800D02*
X157286304Y-87090180D01*
X157286304Y-87090180D02*
X157333923Y-86994942D01*
X157333923Y-86994942D02*
X157333923Y-86185419D01*
X158286304Y-86185419D02*
X157810114Y-86185419D01*
X157810114Y-86185419D02*
X157762495Y-86661609D01*
X157762495Y-86661609D02*
X157810114Y-86613990D01*
X157810114Y-86613990D02*
X157905352Y-86566371D01*
X157905352Y-86566371D02*
X158143447Y-86566371D01*
X158143447Y-86566371D02*
X158238685Y-86613990D01*
X158238685Y-86613990D02*
X158286304Y-86661609D01*
X158286304Y-86661609D02*
X158333923Y-86756847D01*
X158333923Y-86756847D02*
X158333923Y-86994942D01*
X158333923Y-86994942D02*
X158286304Y-87090180D01*
X158286304Y-87090180D02*
X158238685Y-87137800D01*
X158238685Y-87137800D02*
X158143447Y-87185419D01*
X158143447Y-87185419D02*
X157905352Y-87185419D01*
X157905352Y-87185419D02*
X157810114Y-87137800D01*
X157810114Y-87137800D02*
X157762495Y-87090180D01*
X127055495Y-101793219D02*
X127055495Y-102602742D01*
X127055495Y-102602742D02*
X127103114Y-102697980D01*
X127103114Y-102697980D02*
X127150733Y-102745600D01*
X127150733Y-102745600D02*
X127245971Y-102793219D01*
X127245971Y-102793219D02*
X127436447Y-102793219D01*
X127436447Y-102793219D02*
X127531685Y-102745600D01*
X127531685Y-102745600D02*
X127579304Y-102697980D01*
X127579304Y-102697980D02*
X127626923Y-102602742D01*
X127626923Y-102602742D02*
X127626923Y-101793219D01*
X128007876Y-101793219D02*
X128674542Y-101793219D01*
X128674542Y-101793219D02*
X128245971Y-102793219D01*
X170273246Y-99969180D02*
X170225627Y-100016800D01*
X170225627Y-100016800D02*
X170082770Y-100064419D01*
X170082770Y-100064419D02*
X169987532Y-100064419D01*
X169987532Y-100064419D02*
X169844675Y-100016800D01*
X169844675Y-100016800D02*
X169749437Y-99921561D01*
X169749437Y-99921561D02*
X169701818Y-99826323D01*
X169701818Y-99826323D02*
X169654199Y-99635847D01*
X169654199Y-99635847D02*
X169654199Y-99492990D01*
X169654199Y-99492990D02*
X169701818Y-99302514D01*
X169701818Y-99302514D02*
X169749437Y-99207276D01*
X169749437Y-99207276D02*
X169844675Y-99112038D01*
X169844675Y-99112038D02*
X169987532Y-99064419D01*
X169987532Y-99064419D02*
X170082770Y-99064419D01*
X170082770Y-99064419D02*
X170225627Y-99112038D01*
X170225627Y-99112038D02*
X170273246Y-99159657D01*
X171178008Y-99064419D02*
X170701818Y-99064419D01*
X170701818Y-99064419D02*
X170654199Y-99540609D01*
X170654199Y-99540609D02*
X170701818Y-99492990D01*
X170701818Y-99492990D02*
X170797056Y-99445371D01*
X170797056Y-99445371D02*
X171035151Y-99445371D01*
X171035151Y-99445371D02*
X171130389Y-99492990D01*
X171130389Y-99492990D02*
X171178008Y-99540609D01*
X171178008Y-99540609D02*
X171225627Y-99635847D01*
X171225627Y-99635847D02*
X171225627Y-99873942D01*
X171225627Y-99873942D02*
X171178008Y-99969180D01*
X171178008Y-99969180D02*
X171130389Y-100016800D01*
X171130389Y-100016800D02*
X171035151Y-100064419D01*
X171035151Y-100064419D02*
X170797056Y-100064419D01*
X170797056Y-100064419D02*
X170701818Y-100016800D01*
X170701818Y-100016800D02*
X170654199Y-99969180D01*
X122559019Y-67338533D02*
X123273304Y-67338533D01*
X123273304Y-67338533D02*
X123416161Y-67386152D01*
X123416161Y-67386152D02*
X123511400Y-67481390D01*
X123511400Y-67481390D02*
X123559019Y-67624247D01*
X123559019Y-67624247D02*
X123559019Y-67719485D01*
X122892352Y-66433771D02*
X123559019Y-66433771D01*
X122511400Y-66671866D02*
X123225685Y-66909961D01*
X123225685Y-66909961D02*
X123225685Y-66290914D01*
X122559019Y-83471133D02*
X123273304Y-83471133D01*
X123273304Y-83471133D02*
X123416161Y-83518752D01*
X123416161Y-83518752D02*
X123511400Y-83613990D01*
X123511400Y-83613990D02*
X123559019Y-83756847D01*
X123559019Y-83756847D02*
X123559019Y-83852085D01*
X122559019Y-82566371D02*
X122559019Y-82756847D01*
X122559019Y-82756847D02*
X122606638Y-82852085D01*
X122606638Y-82852085D02*
X122654257Y-82899704D01*
X122654257Y-82899704D02*
X122797114Y-82994942D01*
X122797114Y-82994942D02*
X122987590Y-83042561D01*
X122987590Y-83042561D02*
X123368542Y-83042561D01*
X123368542Y-83042561D02*
X123463780Y-82994942D01*
X123463780Y-82994942D02*
X123511400Y-82947323D01*
X123511400Y-82947323D02*
X123559019Y-82852085D01*
X123559019Y-82852085D02*
X123559019Y-82661609D01*
X123559019Y-82661609D02*
X123511400Y-82566371D01*
X123511400Y-82566371D02*
X123463780Y-82518752D01*
X123463780Y-82518752D02*
X123368542Y-82471133D01*
X123368542Y-82471133D02*
X123130447Y-82471133D01*
X123130447Y-82471133D02*
X123035209Y-82518752D01*
X123035209Y-82518752D02*
X122987590Y-82566371D01*
X122987590Y-82566371D02*
X122939971Y-82661609D01*
X122939971Y-82661609D02*
X122939971Y-82852085D01*
X122939971Y-82852085D02*
X122987590Y-82947323D01*
X122987590Y-82947323D02*
X123035209Y-82994942D01*
X123035209Y-82994942D02*
X123130447Y-83042561D01*
X142714742Y-92519419D02*
X142381409Y-92043228D01*
X142143314Y-92519419D02*
X142143314Y-91519419D01*
X142143314Y-91519419D02*
X142524266Y-91519419D01*
X142524266Y-91519419D02*
X142619504Y-91567038D01*
X142619504Y-91567038D02*
X142667123Y-91614657D01*
X142667123Y-91614657D02*
X142714742Y-91709895D01*
X142714742Y-91709895D02*
X142714742Y-91852752D01*
X142714742Y-91852752D02*
X142667123Y-91947990D01*
X142667123Y-91947990D02*
X142619504Y-91995609D01*
X142619504Y-91995609D02*
X142524266Y-92043228D01*
X142524266Y-92043228D02*
X142143314Y-92043228D01*
X143667123Y-92519419D02*
X143095695Y-92519419D01*
X143381409Y-92519419D02*
X143381409Y-91519419D01*
X143381409Y-91519419D02*
X143286171Y-91662276D01*
X143286171Y-91662276D02*
X143190933Y-91757514D01*
X143190933Y-91757514D02*
X143095695Y-91805133D01*
X144571885Y-91519419D02*
X144095695Y-91519419D01*
X144095695Y-91519419D02*
X144048076Y-91995609D01*
X144048076Y-91995609D02*
X144095695Y-91947990D01*
X144095695Y-91947990D02*
X144190933Y-91900371D01*
X144190933Y-91900371D02*
X144429028Y-91900371D01*
X144429028Y-91900371D02*
X144524266Y-91947990D01*
X144524266Y-91947990D02*
X144571885Y-91995609D01*
X144571885Y-91995609D02*
X144619504Y-92090847D01*
X144619504Y-92090847D02*
X144619504Y-92328942D01*
X144619504Y-92328942D02*
X144571885Y-92424180D01*
X144571885Y-92424180D02*
X144524266Y-92471800D01*
X144524266Y-92471800D02*
X144429028Y-92519419D01*
X144429028Y-92519419D02*
X144190933Y-92519419D01*
X144190933Y-92519419D02*
X144095695Y-92471800D01*
X144095695Y-92471800D02*
X144048076Y-92424180D01*
X170273246Y-88894780D02*
X170225627Y-88942400D01*
X170225627Y-88942400D02*
X170082770Y-88990019D01*
X170082770Y-88990019D02*
X169987532Y-88990019D01*
X169987532Y-88990019D02*
X169844675Y-88942400D01*
X169844675Y-88942400D02*
X169749437Y-88847161D01*
X169749437Y-88847161D02*
X169701818Y-88751923D01*
X169701818Y-88751923D02*
X169654199Y-88561447D01*
X169654199Y-88561447D02*
X169654199Y-88418590D01*
X169654199Y-88418590D02*
X169701818Y-88228114D01*
X169701818Y-88228114D02*
X169749437Y-88132876D01*
X169749437Y-88132876D02*
X169844675Y-88037638D01*
X169844675Y-88037638D02*
X169987532Y-87990019D01*
X169987532Y-87990019D02*
X170082770Y-87990019D01*
X170082770Y-87990019D02*
X170225627Y-88037638D01*
X170225627Y-88037638D02*
X170273246Y-88085257D01*
X170654199Y-88085257D02*
X170701818Y-88037638D01*
X170701818Y-88037638D02*
X170797056Y-87990019D01*
X170797056Y-87990019D02*
X171035151Y-87990019D01*
X171035151Y-87990019D02*
X171130389Y-88037638D01*
X171130389Y-88037638D02*
X171178008Y-88085257D01*
X171178008Y-88085257D02*
X171225627Y-88180495D01*
X171225627Y-88180495D02*
X171225627Y-88275733D01*
X171225627Y-88275733D02*
X171178008Y-88418590D01*
X171178008Y-88418590D02*
X170606580Y-88990019D01*
X170606580Y-88990019D02*
X171225627Y-88990019D01*
X137955419Y-55665666D02*
X137479228Y-55998999D01*
X137955419Y-56237094D02*
X136955419Y-56237094D01*
X136955419Y-56237094D02*
X136955419Y-55856142D01*
X136955419Y-55856142D02*
X137003038Y-55760904D01*
X137003038Y-55760904D02*
X137050657Y-55713285D01*
X137050657Y-55713285D02*
X137145895Y-55665666D01*
X137145895Y-55665666D02*
X137288752Y-55665666D01*
X137288752Y-55665666D02*
X137383990Y-55713285D01*
X137383990Y-55713285D02*
X137431609Y-55760904D01*
X137431609Y-55760904D02*
X137479228Y-55856142D01*
X137479228Y-55856142D02*
X137479228Y-56237094D01*
X137955419Y-54713285D02*
X137955419Y-55284713D01*
X137955419Y-54998999D02*
X136955419Y-54998999D01*
X136955419Y-54998999D02*
X137098276Y-55094237D01*
X137098276Y-55094237D02*
X137193514Y-55189475D01*
X137193514Y-55189475D02*
X137241133Y-55284713D01*
X156768895Y-103727019D02*
X156768895Y-104536542D01*
X156768895Y-104536542D02*
X156816514Y-104631780D01*
X156816514Y-104631780D02*
X156864133Y-104679400D01*
X156864133Y-104679400D02*
X156959371Y-104727019D01*
X156959371Y-104727019D02*
X157149847Y-104727019D01*
X157149847Y-104727019D02*
X157245085Y-104679400D01*
X157245085Y-104679400D02*
X157292704Y-104631780D01*
X157292704Y-104631780D02*
X157340323Y-104536542D01*
X157340323Y-104536542D02*
X157340323Y-103727019D01*
X157959371Y-104155590D02*
X157864133Y-104107971D01*
X157864133Y-104107971D02*
X157816514Y-104060352D01*
X157816514Y-104060352D02*
X157768895Y-103965114D01*
X157768895Y-103965114D02*
X157768895Y-103917495D01*
X157768895Y-103917495D02*
X157816514Y-103822257D01*
X157816514Y-103822257D02*
X157864133Y-103774638D01*
X157864133Y-103774638D02*
X157959371Y-103727019D01*
X157959371Y-103727019D02*
X158149847Y-103727019D01*
X158149847Y-103727019D02*
X158245085Y-103774638D01*
X158245085Y-103774638D02*
X158292704Y-103822257D01*
X158292704Y-103822257D02*
X158340323Y-103917495D01*
X158340323Y-103917495D02*
X158340323Y-103965114D01*
X158340323Y-103965114D02*
X158292704Y-104060352D01*
X158292704Y-104060352D02*
X158245085Y-104107971D01*
X158245085Y-104107971D02*
X158149847Y-104155590D01*
X158149847Y-104155590D02*
X157959371Y-104155590D01*
X157959371Y-104155590D02*
X157864133Y-104203209D01*
X157864133Y-104203209D02*
X157816514Y-104250828D01*
X157816514Y-104250828D02*
X157768895Y-104346066D01*
X157768895Y-104346066D02*
X157768895Y-104536542D01*
X157768895Y-104536542D02*
X157816514Y-104631780D01*
X157816514Y-104631780D02*
X157864133Y-104679400D01*
X157864133Y-104679400D02*
X157959371Y-104727019D01*
X157959371Y-104727019D02*
X158149847Y-104727019D01*
X158149847Y-104727019D02*
X158245085Y-104679400D01*
X158245085Y-104679400D02*
X158292704Y-104631780D01*
X158292704Y-104631780D02*
X158340323Y-104536542D01*
X158340323Y-104536542D02*
X158340323Y-104346066D01*
X158340323Y-104346066D02*
X158292704Y-104250828D01*
X158292704Y-104250828D02*
X158245085Y-104203209D01*
X158245085Y-104203209D02*
X158149847Y-104155590D01*
X120378619Y-101893057D02*
X119902428Y-102226390D01*
X120378619Y-102464485D02*
X119378619Y-102464485D01*
X119378619Y-102464485D02*
X119378619Y-102083533D01*
X119378619Y-102083533D02*
X119426238Y-101988295D01*
X119426238Y-101988295D02*
X119473857Y-101940676D01*
X119473857Y-101940676D02*
X119569095Y-101893057D01*
X119569095Y-101893057D02*
X119711952Y-101893057D01*
X119711952Y-101893057D02*
X119807190Y-101940676D01*
X119807190Y-101940676D02*
X119854809Y-101988295D01*
X119854809Y-101988295D02*
X119902428Y-102083533D01*
X119902428Y-102083533D02*
X119902428Y-102464485D01*
X120378619Y-100940676D02*
X120378619Y-101512104D01*
X120378619Y-101226390D02*
X119378619Y-101226390D01*
X119378619Y-101226390D02*
X119521476Y-101321628D01*
X119521476Y-101321628D02*
X119616714Y-101416866D01*
X119616714Y-101416866D02*
X119664333Y-101512104D01*
X120378619Y-100464485D02*
X120378619Y-100274009D01*
X120378619Y-100274009D02*
X120331000Y-100178771D01*
X120331000Y-100178771D02*
X120283380Y-100131152D01*
X120283380Y-100131152D02*
X120140523Y-100035914D01*
X120140523Y-100035914D02*
X119950047Y-99988295D01*
X119950047Y-99988295D02*
X119569095Y-99988295D01*
X119569095Y-99988295D02*
X119473857Y-100035914D01*
X119473857Y-100035914D02*
X119426238Y-100083533D01*
X119426238Y-100083533D02*
X119378619Y-100178771D01*
X119378619Y-100178771D02*
X119378619Y-100369247D01*
X119378619Y-100369247D02*
X119426238Y-100464485D01*
X119426238Y-100464485D02*
X119473857Y-100512104D01*
X119473857Y-100512104D02*
X119569095Y-100559723D01*
X119569095Y-100559723D02*
X119807190Y-100559723D01*
X119807190Y-100559723D02*
X119902428Y-100512104D01*
X119902428Y-100512104D02*
X119950047Y-100464485D01*
X119950047Y-100464485D02*
X119997666Y-100369247D01*
X119997666Y-100369247D02*
X119997666Y-100178771D01*
X119997666Y-100178771D02*
X119950047Y-100083533D01*
X119950047Y-100083533D02*
X119902428Y-100035914D01*
X119902428Y-100035914D02*
X119807190Y-99988295D01*
X132764305Y-120298219D02*
X132764305Y-119298219D01*
X132764305Y-119298219D02*
X133002400Y-119298219D01*
X133002400Y-119298219D02*
X133145257Y-119345838D01*
X133145257Y-119345838D02*
X133240495Y-119441076D01*
X133240495Y-119441076D02*
X133288114Y-119536314D01*
X133288114Y-119536314D02*
X133335733Y-119726790D01*
X133335733Y-119726790D02*
X133335733Y-119869647D01*
X133335733Y-119869647D02*
X133288114Y-120060123D01*
X133288114Y-120060123D02*
X133240495Y-120155361D01*
X133240495Y-120155361D02*
X133145257Y-120250600D01*
X133145257Y-120250600D02*
X133002400Y-120298219D01*
X133002400Y-120298219D02*
X132764305Y-120298219D01*
X133716686Y-119393457D02*
X133764305Y-119345838D01*
X133764305Y-119345838D02*
X133859543Y-119298219D01*
X133859543Y-119298219D02*
X134097638Y-119298219D01*
X134097638Y-119298219D02*
X134192876Y-119345838D01*
X134192876Y-119345838D02*
X134240495Y-119393457D01*
X134240495Y-119393457D02*
X134288114Y-119488695D01*
X134288114Y-119488695D02*
X134288114Y-119583933D01*
X134288114Y-119583933D02*
X134240495Y-119726790D01*
X134240495Y-119726790D02*
X133669067Y-120298219D01*
X133669067Y-120298219D02*
X134288114Y-120298219D01*
X137050495Y-119728219D02*
X137050495Y-118728219D01*
X137621923Y-119728219D02*
X137193352Y-119156790D01*
X137621923Y-118728219D02*
X137050495Y-119299647D01*
X136050419Y-63126857D02*
X135574228Y-63460190D01*
X136050419Y-63698285D02*
X135050419Y-63698285D01*
X135050419Y-63698285D02*
X135050419Y-63317333D01*
X135050419Y-63317333D02*
X135098038Y-63222095D01*
X135098038Y-63222095D02*
X135145657Y-63174476D01*
X135145657Y-63174476D02*
X135240895Y-63126857D01*
X135240895Y-63126857D02*
X135383752Y-63126857D01*
X135383752Y-63126857D02*
X135478990Y-63174476D01*
X135478990Y-63174476D02*
X135526609Y-63222095D01*
X135526609Y-63222095D02*
X135574228Y-63317333D01*
X135574228Y-63317333D02*
X135574228Y-63698285D01*
X135050419Y-62793523D02*
X135050419Y-62174476D01*
X135050419Y-62174476D02*
X135431371Y-62507809D01*
X135431371Y-62507809D02*
X135431371Y-62364952D01*
X135431371Y-62364952D02*
X135478990Y-62269714D01*
X135478990Y-62269714D02*
X135526609Y-62222095D01*
X135526609Y-62222095D02*
X135621847Y-62174476D01*
X135621847Y-62174476D02*
X135859942Y-62174476D01*
X135859942Y-62174476D02*
X135955180Y-62222095D01*
X135955180Y-62222095D02*
X136002800Y-62269714D01*
X136002800Y-62269714D02*
X136050419Y-62364952D01*
X136050419Y-62364952D02*
X136050419Y-62650666D01*
X136050419Y-62650666D02*
X136002800Y-62745904D01*
X136002800Y-62745904D02*
X135955180Y-62793523D01*
X135145657Y-61793523D02*
X135098038Y-61745904D01*
X135098038Y-61745904D02*
X135050419Y-61650666D01*
X135050419Y-61650666D02*
X135050419Y-61412571D01*
X135050419Y-61412571D02*
X135098038Y-61317333D01*
X135098038Y-61317333D02*
X135145657Y-61269714D01*
X135145657Y-61269714D02*
X135240895Y-61222095D01*
X135240895Y-61222095D02*
X135336133Y-61222095D01*
X135336133Y-61222095D02*
X135478990Y-61269714D01*
X135478990Y-61269714D02*
X136050419Y-61841142D01*
X136050419Y-61841142D02*
X136050419Y-61222095D01*
X143800533Y-60794819D02*
X143467200Y-60318628D01*
X143229105Y-60794819D02*
X143229105Y-59794819D01*
X143229105Y-59794819D02*
X143610057Y-59794819D01*
X143610057Y-59794819D02*
X143705295Y-59842438D01*
X143705295Y-59842438D02*
X143752914Y-59890057D01*
X143752914Y-59890057D02*
X143800533Y-59985295D01*
X143800533Y-59985295D02*
X143800533Y-60128152D01*
X143800533Y-60128152D02*
X143752914Y-60223390D01*
X143752914Y-60223390D02*
X143705295Y-60271009D01*
X143705295Y-60271009D02*
X143610057Y-60318628D01*
X143610057Y-60318628D02*
X143229105Y-60318628D01*
X144181486Y-59890057D02*
X144229105Y-59842438D01*
X144229105Y-59842438D02*
X144324343Y-59794819D01*
X144324343Y-59794819D02*
X144562438Y-59794819D01*
X144562438Y-59794819D02*
X144657676Y-59842438D01*
X144657676Y-59842438D02*
X144705295Y-59890057D01*
X144705295Y-59890057D02*
X144752914Y-59985295D01*
X144752914Y-59985295D02*
X144752914Y-60080533D01*
X144752914Y-60080533D02*
X144705295Y-60223390D01*
X144705295Y-60223390D02*
X144133867Y-60794819D01*
X144133867Y-60794819D02*
X144752914Y-60794819D01*
X142714742Y-94373619D02*
X142381409Y-93897428D01*
X142143314Y-94373619D02*
X142143314Y-93373619D01*
X142143314Y-93373619D02*
X142524266Y-93373619D01*
X142524266Y-93373619D02*
X142619504Y-93421238D01*
X142619504Y-93421238D02*
X142667123Y-93468857D01*
X142667123Y-93468857D02*
X142714742Y-93564095D01*
X142714742Y-93564095D02*
X142714742Y-93706952D01*
X142714742Y-93706952D02*
X142667123Y-93802190D01*
X142667123Y-93802190D02*
X142619504Y-93849809D01*
X142619504Y-93849809D02*
X142524266Y-93897428D01*
X142524266Y-93897428D02*
X142143314Y-93897428D01*
X143667123Y-94373619D02*
X143095695Y-94373619D01*
X143381409Y-94373619D02*
X143381409Y-93373619D01*
X143381409Y-93373619D02*
X143286171Y-93516476D01*
X143286171Y-93516476D02*
X143190933Y-93611714D01*
X143190933Y-93611714D02*
X143095695Y-93659333D01*
X144524266Y-93706952D02*
X144524266Y-94373619D01*
X144286171Y-93326000D02*
X144048076Y-94040285D01*
X144048076Y-94040285D02*
X144667123Y-94040285D01*
X138061619Y-102776257D02*
X137585428Y-103109590D01*
X138061619Y-103347685D02*
X137061619Y-103347685D01*
X137061619Y-103347685D02*
X137061619Y-102966733D01*
X137061619Y-102966733D02*
X137109238Y-102871495D01*
X137109238Y-102871495D02*
X137156857Y-102823876D01*
X137156857Y-102823876D02*
X137252095Y-102776257D01*
X137252095Y-102776257D02*
X137394952Y-102776257D01*
X137394952Y-102776257D02*
X137490190Y-102823876D01*
X137490190Y-102823876D02*
X137537809Y-102871495D01*
X137537809Y-102871495D02*
X137585428Y-102966733D01*
X137585428Y-102966733D02*
X137585428Y-103347685D01*
X137061619Y-102442923D02*
X137061619Y-101823876D01*
X137061619Y-101823876D02*
X137442571Y-102157209D01*
X137442571Y-102157209D02*
X137442571Y-102014352D01*
X137442571Y-102014352D02*
X137490190Y-101919114D01*
X137490190Y-101919114D02*
X137537809Y-101871495D01*
X137537809Y-101871495D02*
X137633047Y-101823876D01*
X137633047Y-101823876D02*
X137871142Y-101823876D01*
X137871142Y-101823876D02*
X137966380Y-101871495D01*
X137966380Y-101871495D02*
X138014000Y-101919114D01*
X138014000Y-101919114D02*
X138061619Y-102014352D01*
X138061619Y-102014352D02*
X138061619Y-102300066D01*
X138061619Y-102300066D02*
X138014000Y-102395304D01*
X138014000Y-102395304D02*
X137966380Y-102442923D01*
X137061619Y-101204828D02*
X137061619Y-101109590D01*
X137061619Y-101109590D02*
X137109238Y-101014352D01*
X137109238Y-101014352D02*
X137156857Y-100966733D01*
X137156857Y-100966733D02*
X137252095Y-100919114D01*
X137252095Y-100919114D02*
X137442571Y-100871495D01*
X137442571Y-100871495D02*
X137680666Y-100871495D01*
X137680666Y-100871495D02*
X137871142Y-100919114D01*
X137871142Y-100919114D02*
X137966380Y-100966733D01*
X137966380Y-100966733D02*
X138014000Y-101014352D01*
X138014000Y-101014352D02*
X138061619Y-101109590D01*
X138061619Y-101109590D02*
X138061619Y-101204828D01*
X138061619Y-101204828D02*
X138014000Y-101300066D01*
X138014000Y-101300066D02*
X137966380Y-101347685D01*
X137966380Y-101347685D02*
X137871142Y-101395304D01*
X137871142Y-101395304D02*
X137680666Y-101442923D01*
X137680666Y-101442923D02*
X137442571Y-101442923D01*
X137442571Y-101442923D02*
X137252095Y-101395304D01*
X137252095Y-101395304D02*
X137156857Y-101347685D01*
X137156857Y-101347685D02*
X137109238Y-101300066D01*
X137109238Y-101300066D02*
X137061619Y-101204828D01*
X122559019Y-91548333D02*
X123273304Y-91548333D01*
X123273304Y-91548333D02*
X123416161Y-91595952D01*
X123416161Y-91595952D02*
X123511400Y-91691190D01*
X123511400Y-91691190D02*
X123559019Y-91834047D01*
X123559019Y-91834047D02*
X123559019Y-91929285D01*
X122559019Y-91167380D02*
X122559019Y-90500714D01*
X122559019Y-90500714D02*
X123559019Y-90929285D01*
X156762495Y-51119019D02*
X156762495Y-51928542D01*
X156762495Y-51928542D02*
X156810114Y-52023780D01*
X156810114Y-52023780D02*
X156857733Y-52071400D01*
X156857733Y-52071400D02*
X156952971Y-52119019D01*
X156952971Y-52119019D02*
X157143447Y-52119019D01*
X157143447Y-52119019D02*
X157238685Y-52071400D01*
X157238685Y-52071400D02*
X157286304Y-52023780D01*
X157286304Y-52023780D02*
X157333923Y-51928542D01*
X157333923Y-51928542D02*
X157333923Y-51119019D01*
X157762495Y-51214257D02*
X157810114Y-51166638D01*
X157810114Y-51166638D02*
X157905352Y-51119019D01*
X157905352Y-51119019D02*
X158143447Y-51119019D01*
X158143447Y-51119019D02*
X158238685Y-51166638D01*
X158238685Y-51166638D02*
X158286304Y-51214257D01*
X158286304Y-51214257D02*
X158333923Y-51309495D01*
X158333923Y-51309495D02*
X158333923Y-51404733D01*
X158333923Y-51404733D02*
X158286304Y-51547590D01*
X158286304Y-51547590D02*
X157714876Y-52119019D01*
X157714876Y-52119019D02*
X158333923Y-52119019D01*
X135825180Y-90991666D02*
X135872800Y-91039285D01*
X135872800Y-91039285D02*
X135920419Y-91182142D01*
X135920419Y-91182142D02*
X135920419Y-91277380D01*
X135920419Y-91277380D02*
X135872800Y-91420237D01*
X135872800Y-91420237D02*
X135777561Y-91515475D01*
X135777561Y-91515475D02*
X135682323Y-91563094D01*
X135682323Y-91563094D02*
X135491847Y-91610713D01*
X135491847Y-91610713D02*
X135348990Y-91610713D01*
X135348990Y-91610713D02*
X135158514Y-91563094D01*
X135158514Y-91563094D02*
X135063276Y-91515475D01*
X135063276Y-91515475D02*
X134968038Y-91420237D01*
X134968038Y-91420237D02*
X134920419Y-91277380D01*
X134920419Y-91277380D02*
X134920419Y-91182142D01*
X134920419Y-91182142D02*
X134968038Y-91039285D01*
X134968038Y-91039285D02*
X135015657Y-90991666D01*
X134920419Y-90658332D02*
X134920419Y-90039285D01*
X134920419Y-90039285D02*
X135301371Y-90372618D01*
X135301371Y-90372618D02*
X135301371Y-90229761D01*
X135301371Y-90229761D02*
X135348990Y-90134523D01*
X135348990Y-90134523D02*
X135396609Y-90086904D01*
X135396609Y-90086904D02*
X135491847Y-90039285D01*
X135491847Y-90039285D02*
X135729942Y-90039285D01*
X135729942Y-90039285D02*
X135825180Y-90086904D01*
X135825180Y-90086904D02*
X135872800Y-90134523D01*
X135872800Y-90134523D02*
X135920419Y-90229761D01*
X135920419Y-90229761D02*
X135920419Y-90515475D01*
X135920419Y-90515475D02*
X135872800Y-90610713D01*
X135872800Y-90610713D02*
X135825180Y-90658332D01*
X136075819Y-99220257D02*
X135599628Y-99553590D01*
X136075819Y-99791685D02*
X135075819Y-99791685D01*
X135075819Y-99791685D02*
X135075819Y-99410733D01*
X135075819Y-99410733D02*
X135123438Y-99315495D01*
X135123438Y-99315495D02*
X135171057Y-99267876D01*
X135171057Y-99267876D02*
X135266295Y-99220257D01*
X135266295Y-99220257D02*
X135409152Y-99220257D01*
X135409152Y-99220257D02*
X135504390Y-99267876D01*
X135504390Y-99267876D02*
X135552009Y-99315495D01*
X135552009Y-99315495D02*
X135599628Y-99410733D01*
X135599628Y-99410733D02*
X135599628Y-99791685D01*
X135171057Y-98839304D02*
X135123438Y-98791685D01*
X135123438Y-98791685D02*
X135075819Y-98696447D01*
X135075819Y-98696447D02*
X135075819Y-98458352D01*
X135075819Y-98458352D02*
X135123438Y-98363114D01*
X135123438Y-98363114D02*
X135171057Y-98315495D01*
X135171057Y-98315495D02*
X135266295Y-98267876D01*
X135266295Y-98267876D02*
X135361533Y-98267876D01*
X135361533Y-98267876D02*
X135504390Y-98315495D01*
X135504390Y-98315495D02*
X136075819Y-98886923D01*
X136075819Y-98886923D02*
X136075819Y-98267876D01*
X135075819Y-97410733D02*
X135075819Y-97601209D01*
X135075819Y-97601209D02*
X135123438Y-97696447D01*
X135123438Y-97696447D02*
X135171057Y-97744066D01*
X135171057Y-97744066D02*
X135313914Y-97839304D01*
X135313914Y-97839304D02*
X135504390Y-97886923D01*
X135504390Y-97886923D02*
X135885342Y-97886923D01*
X135885342Y-97886923D02*
X135980580Y-97839304D01*
X135980580Y-97839304D02*
X136028200Y-97791685D01*
X136028200Y-97791685D02*
X136075819Y-97696447D01*
X136075819Y-97696447D02*
X136075819Y-97505971D01*
X136075819Y-97505971D02*
X136028200Y-97410733D01*
X136028200Y-97410733D02*
X135980580Y-97363114D01*
X135980580Y-97363114D02*
X135885342Y-97315495D01*
X135885342Y-97315495D02*
X135647247Y-97315495D01*
X135647247Y-97315495D02*
X135552009Y-97363114D01*
X135552009Y-97363114D02*
X135504390Y-97410733D01*
X135504390Y-97410733D02*
X135456771Y-97505971D01*
X135456771Y-97505971D02*
X135456771Y-97696447D01*
X135456771Y-97696447D02*
X135504390Y-97791685D01*
X135504390Y-97791685D02*
X135552009Y-97839304D01*
X135552009Y-97839304D02*
X135647247Y-97886923D01*
X143298942Y-79565419D02*
X142965609Y-79089228D01*
X142727514Y-79565419D02*
X142727514Y-78565419D01*
X142727514Y-78565419D02*
X143108466Y-78565419D01*
X143108466Y-78565419D02*
X143203704Y-78613038D01*
X143203704Y-78613038D02*
X143251323Y-78660657D01*
X143251323Y-78660657D02*
X143298942Y-78755895D01*
X143298942Y-78755895D02*
X143298942Y-78898752D01*
X143298942Y-78898752D02*
X143251323Y-78993990D01*
X143251323Y-78993990D02*
X143203704Y-79041609D01*
X143203704Y-79041609D02*
X143108466Y-79089228D01*
X143108466Y-79089228D02*
X142727514Y-79089228D01*
X144251323Y-79565419D02*
X143679895Y-79565419D01*
X143965609Y-79565419D02*
X143965609Y-78565419D01*
X143965609Y-78565419D02*
X143870371Y-78708276D01*
X143870371Y-78708276D02*
X143775133Y-78803514D01*
X143775133Y-78803514D02*
X143679895Y-78851133D01*
X145203704Y-79565419D02*
X144632276Y-79565419D01*
X144917990Y-79565419D02*
X144917990Y-78565419D01*
X144917990Y-78565419D02*
X144822752Y-78708276D01*
X144822752Y-78708276D02*
X144727514Y-78803514D01*
X144727514Y-78803514D02*
X144632276Y-78851133D01*
X122538019Y-104431533D02*
X123252304Y-104431533D01*
X123252304Y-104431533D02*
X123395161Y-104479152D01*
X123395161Y-104479152D02*
X123490400Y-104574390D01*
X123490400Y-104574390D02*
X123538019Y-104717247D01*
X123538019Y-104717247D02*
X123538019Y-104812485D01*
X122633257Y-104002961D02*
X122585638Y-103955342D01*
X122585638Y-103955342D02*
X122538019Y-103860104D01*
X122538019Y-103860104D02*
X122538019Y-103622009D01*
X122538019Y-103622009D02*
X122585638Y-103526771D01*
X122585638Y-103526771D02*
X122633257Y-103479152D01*
X122633257Y-103479152D02*
X122728495Y-103431533D01*
X122728495Y-103431533D02*
X122823733Y-103431533D01*
X122823733Y-103431533D02*
X122966590Y-103479152D01*
X122966590Y-103479152D02*
X123538019Y-104050580D01*
X123538019Y-104050580D02*
X123538019Y-103431533D01*
X143800533Y-66357419D02*
X143467200Y-65881228D01*
X143229105Y-66357419D02*
X143229105Y-65357419D01*
X143229105Y-65357419D02*
X143610057Y-65357419D01*
X143610057Y-65357419D02*
X143705295Y-65405038D01*
X143705295Y-65405038D02*
X143752914Y-65452657D01*
X143752914Y-65452657D02*
X143800533Y-65547895D01*
X143800533Y-65547895D02*
X143800533Y-65690752D01*
X143800533Y-65690752D02*
X143752914Y-65785990D01*
X143752914Y-65785990D02*
X143705295Y-65833609D01*
X143705295Y-65833609D02*
X143610057Y-65881228D01*
X143610057Y-65881228D02*
X143229105Y-65881228D01*
X144657676Y-65690752D02*
X144657676Y-66357419D01*
X144419581Y-65309800D02*
X144181486Y-66024085D01*
X144181486Y-66024085D02*
X144800533Y-66024085D01*
X137066419Y-110980457D02*
X136590228Y-111313790D01*
X137066419Y-111551885D02*
X136066419Y-111551885D01*
X136066419Y-111551885D02*
X136066419Y-111170933D01*
X136066419Y-111170933D02*
X136114038Y-111075695D01*
X136114038Y-111075695D02*
X136161657Y-111028076D01*
X136161657Y-111028076D02*
X136256895Y-110980457D01*
X136256895Y-110980457D02*
X136399752Y-110980457D01*
X136399752Y-110980457D02*
X136494990Y-111028076D01*
X136494990Y-111028076D02*
X136542609Y-111075695D01*
X136542609Y-111075695D02*
X136590228Y-111170933D01*
X136590228Y-111170933D02*
X136590228Y-111551885D01*
X136161657Y-110599504D02*
X136114038Y-110551885D01*
X136114038Y-110551885D02*
X136066419Y-110456647D01*
X136066419Y-110456647D02*
X136066419Y-110218552D01*
X136066419Y-110218552D02*
X136114038Y-110123314D01*
X136114038Y-110123314D02*
X136161657Y-110075695D01*
X136161657Y-110075695D02*
X136256895Y-110028076D01*
X136256895Y-110028076D02*
X136352133Y-110028076D01*
X136352133Y-110028076D02*
X136494990Y-110075695D01*
X136494990Y-110075695D02*
X137066419Y-110647123D01*
X137066419Y-110647123D02*
X137066419Y-110028076D01*
X137066419Y-109075695D02*
X137066419Y-109647123D01*
X137066419Y-109361409D02*
X136066419Y-109361409D01*
X136066419Y-109361409D02*
X136209276Y-109456647D01*
X136209276Y-109456647D02*
X136304514Y-109551885D01*
X136304514Y-109551885D02*
X136352133Y-109647123D01*
X143800533Y-58940619D02*
X143467200Y-58464428D01*
X143229105Y-58940619D02*
X143229105Y-57940619D01*
X143229105Y-57940619D02*
X143610057Y-57940619D01*
X143610057Y-57940619D02*
X143705295Y-57988238D01*
X143705295Y-57988238D02*
X143752914Y-58035857D01*
X143752914Y-58035857D02*
X143800533Y-58131095D01*
X143800533Y-58131095D02*
X143800533Y-58273952D01*
X143800533Y-58273952D02*
X143752914Y-58369190D01*
X143752914Y-58369190D02*
X143705295Y-58416809D01*
X143705295Y-58416809D02*
X143610057Y-58464428D01*
X143610057Y-58464428D02*
X143229105Y-58464428D01*
X144133867Y-57940619D02*
X144752914Y-57940619D01*
X144752914Y-57940619D02*
X144419581Y-58321571D01*
X144419581Y-58321571D02*
X144562438Y-58321571D01*
X144562438Y-58321571D02*
X144657676Y-58369190D01*
X144657676Y-58369190D02*
X144705295Y-58416809D01*
X144705295Y-58416809D02*
X144752914Y-58512047D01*
X144752914Y-58512047D02*
X144752914Y-58750142D01*
X144752914Y-58750142D02*
X144705295Y-58845380D01*
X144705295Y-58845380D02*
X144657676Y-58893000D01*
X144657676Y-58893000D02*
X144562438Y-58940619D01*
X144562438Y-58940619D02*
X144276724Y-58940619D01*
X144276724Y-58940619D02*
X144181486Y-58893000D01*
X144181486Y-58893000D02*
X144133867Y-58845380D01*
X143775133Y-77711219D02*
X143441800Y-77235028D01*
X143203705Y-77711219D02*
X143203705Y-76711219D01*
X143203705Y-76711219D02*
X143584657Y-76711219D01*
X143584657Y-76711219D02*
X143679895Y-76758838D01*
X143679895Y-76758838D02*
X143727514Y-76806457D01*
X143727514Y-76806457D02*
X143775133Y-76901695D01*
X143775133Y-76901695D02*
X143775133Y-77044552D01*
X143775133Y-77044552D02*
X143727514Y-77139790D01*
X143727514Y-77139790D02*
X143679895Y-77187409D01*
X143679895Y-77187409D02*
X143584657Y-77235028D01*
X143584657Y-77235028D02*
X143203705Y-77235028D01*
X144346562Y-77139790D02*
X144251324Y-77092171D01*
X144251324Y-77092171D02*
X144203705Y-77044552D01*
X144203705Y-77044552D02*
X144156086Y-76949314D01*
X144156086Y-76949314D02*
X144156086Y-76901695D01*
X144156086Y-76901695D02*
X144203705Y-76806457D01*
X144203705Y-76806457D02*
X144251324Y-76758838D01*
X144251324Y-76758838D02*
X144346562Y-76711219D01*
X144346562Y-76711219D02*
X144537038Y-76711219D01*
X144537038Y-76711219D02*
X144632276Y-76758838D01*
X144632276Y-76758838D02*
X144679895Y-76806457D01*
X144679895Y-76806457D02*
X144727514Y-76901695D01*
X144727514Y-76901695D02*
X144727514Y-76949314D01*
X144727514Y-76949314D02*
X144679895Y-77044552D01*
X144679895Y-77044552D02*
X144632276Y-77092171D01*
X144632276Y-77092171D02*
X144537038Y-77139790D01*
X144537038Y-77139790D02*
X144346562Y-77139790D01*
X144346562Y-77139790D02*
X144251324Y-77187409D01*
X144251324Y-77187409D02*
X144203705Y-77235028D01*
X144203705Y-77235028D02*
X144156086Y-77330266D01*
X144156086Y-77330266D02*
X144156086Y-77520742D01*
X144156086Y-77520742D02*
X144203705Y-77615980D01*
X144203705Y-77615980D02*
X144251324Y-77663600D01*
X144251324Y-77663600D02*
X144346562Y-77711219D01*
X144346562Y-77711219D02*
X144537038Y-77711219D01*
X144537038Y-77711219D02*
X144632276Y-77663600D01*
X144632276Y-77663600D02*
X144679895Y-77615980D01*
X144679895Y-77615980D02*
X144727514Y-77520742D01*
X144727514Y-77520742D02*
X144727514Y-77330266D01*
X144727514Y-77330266D02*
X144679895Y-77235028D01*
X144679895Y-77235028D02*
X144632276Y-77187409D01*
X144632276Y-77187409D02*
X144537038Y-77139790D01*
X133654895Y-47291019D02*
X133654895Y-48100542D01*
X133654895Y-48100542D02*
X133702514Y-48195780D01*
X133702514Y-48195780D02*
X133750133Y-48243400D01*
X133750133Y-48243400D02*
X133845371Y-48291019D01*
X133845371Y-48291019D02*
X134035847Y-48291019D01*
X134035847Y-48291019D02*
X134131085Y-48243400D01*
X134131085Y-48243400D02*
X134178704Y-48195780D01*
X134178704Y-48195780D02*
X134226323Y-48100542D01*
X134226323Y-48100542D02*
X134226323Y-47291019D01*
X135131085Y-47624352D02*
X135131085Y-48291019D01*
X134892990Y-47243400D02*
X134654895Y-47957685D01*
X134654895Y-47957685D02*
X135273942Y-47957685D01*
X135499361Y-68450485D02*
X133499361Y-69783818D01*
X135499361Y-69783818D02*
X133499361Y-68450485D01*
X133499361Y-71498104D02*
X133499361Y-70545723D01*
X133499361Y-70545723D02*
X135499361Y-70545723D01*
X135499361Y-73021914D02*
X135499361Y-72640961D01*
X135499361Y-72640961D02*
X135404123Y-72450485D01*
X135404123Y-72450485D02*
X135308885Y-72355247D01*
X135308885Y-72355247D02*
X135023171Y-72164771D01*
X135023171Y-72164771D02*
X134642219Y-72069533D01*
X134642219Y-72069533D02*
X133880314Y-72069533D01*
X133880314Y-72069533D02*
X133689838Y-72164771D01*
X133689838Y-72164771D02*
X133594600Y-72260009D01*
X133594600Y-72260009D02*
X133499361Y-72450485D01*
X133499361Y-72450485D02*
X133499361Y-72831438D01*
X133499361Y-72831438D02*
X133594600Y-73021914D01*
X133594600Y-73021914D02*
X133689838Y-73117152D01*
X133689838Y-73117152D02*
X133880314Y-73212390D01*
X133880314Y-73212390D02*
X134356504Y-73212390D01*
X134356504Y-73212390D02*
X134546980Y-73117152D01*
X134546980Y-73117152D02*
X134642219Y-73021914D01*
X134642219Y-73021914D02*
X134737457Y-72831438D01*
X134737457Y-72831438D02*
X134737457Y-72450485D01*
X134737457Y-72450485D02*
X134642219Y-72260009D01*
X134642219Y-72260009D02*
X134546980Y-72164771D01*
X134546980Y-72164771D02*
X134356504Y-72069533D01*
X135499361Y-74450485D02*
X135499361Y-74640962D01*
X135499361Y-74640962D02*
X135404123Y-74831438D01*
X135404123Y-74831438D02*
X135308885Y-74926676D01*
X135308885Y-74926676D02*
X135118409Y-75021914D01*
X135118409Y-75021914D02*
X134737457Y-75117152D01*
X134737457Y-75117152D02*
X134261266Y-75117152D01*
X134261266Y-75117152D02*
X133880314Y-75021914D01*
X133880314Y-75021914D02*
X133689838Y-74926676D01*
X133689838Y-74926676D02*
X133594600Y-74831438D01*
X133594600Y-74831438D02*
X133499361Y-74640962D01*
X133499361Y-74640962D02*
X133499361Y-74450485D01*
X133499361Y-74450485D02*
X133594600Y-74260009D01*
X133594600Y-74260009D02*
X133689838Y-74164771D01*
X133689838Y-74164771D02*
X133880314Y-74069533D01*
X133880314Y-74069533D02*
X134261266Y-73974295D01*
X134261266Y-73974295D02*
X134737457Y-73974295D01*
X134737457Y-73974295D02*
X135118409Y-74069533D01*
X135118409Y-74069533D02*
X135308885Y-74164771D01*
X135308885Y-74164771D02*
X135404123Y-74260009D01*
X135404123Y-74260009D02*
X135499361Y-74450485D01*
X135499361Y-76355247D02*
X135499361Y-76545724D01*
X135499361Y-76545724D02*
X135404123Y-76736200D01*
X135404123Y-76736200D02*
X135308885Y-76831438D01*
X135308885Y-76831438D02*
X135118409Y-76926676D01*
X135118409Y-76926676D02*
X134737457Y-77021914D01*
X134737457Y-77021914D02*
X134261266Y-77021914D01*
X134261266Y-77021914D02*
X133880314Y-76926676D01*
X133880314Y-76926676D02*
X133689838Y-76831438D01*
X133689838Y-76831438D02*
X133594600Y-76736200D01*
X133594600Y-76736200D02*
X133499361Y-76545724D01*
X133499361Y-76545724D02*
X133499361Y-76355247D01*
X133499361Y-76355247D02*
X133594600Y-76164771D01*
X133594600Y-76164771D02*
X133689838Y-76069533D01*
X133689838Y-76069533D02*
X133880314Y-75974295D01*
X133880314Y-75974295D02*
X134261266Y-75879057D01*
X134261266Y-75879057D02*
X134737457Y-75879057D01*
X134737457Y-75879057D02*
X135118409Y-75974295D01*
X135118409Y-75974295D02*
X135308885Y-76069533D01*
X135308885Y-76069533D02*
X135404123Y-76164771D01*
X135404123Y-76164771D02*
X135499361Y-76355247D01*
X133499361Y-77974295D02*
X133499361Y-78355247D01*
X133499361Y-78355247D02*
X133594600Y-78545724D01*
X133594600Y-78545724D02*
X133689838Y-78640962D01*
X133689838Y-78640962D02*
X133975552Y-78831438D01*
X133975552Y-78831438D02*
X134356504Y-78926676D01*
X134356504Y-78926676D02*
X135118409Y-78926676D01*
X135118409Y-78926676D02*
X135308885Y-78831438D01*
X135308885Y-78831438D02*
X135404123Y-78736200D01*
X135404123Y-78736200D02*
X135499361Y-78545724D01*
X135499361Y-78545724D02*
X135499361Y-78164771D01*
X135499361Y-78164771D02*
X135404123Y-77974295D01*
X135404123Y-77974295D02*
X135308885Y-77879057D01*
X135308885Y-77879057D02*
X135118409Y-77783819D01*
X135118409Y-77783819D02*
X134642219Y-77783819D01*
X134642219Y-77783819D02*
X134451742Y-77879057D01*
X134451742Y-77879057D02*
X134356504Y-77974295D01*
X134356504Y-77974295D02*
X134261266Y-78164771D01*
X134261266Y-78164771D02*
X134261266Y-78545724D01*
X134261266Y-78545724D02*
X134356504Y-78736200D01*
X134356504Y-78736200D02*
X134451742Y-78831438D01*
X134451742Y-78831438D02*
X134642219Y-78926676D01*
X135186819Y-110980457D02*
X134710628Y-111313790D01*
X135186819Y-111551885D02*
X134186819Y-111551885D01*
X134186819Y-111551885D02*
X134186819Y-111170933D01*
X134186819Y-111170933D02*
X134234438Y-111075695D01*
X134234438Y-111075695D02*
X134282057Y-111028076D01*
X134282057Y-111028076D02*
X134377295Y-110980457D01*
X134377295Y-110980457D02*
X134520152Y-110980457D01*
X134520152Y-110980457D02*
X134615390Y-111028076D01*
X134615390Y-111028076D02*
X134663009Y-111075695D01*
X134663009Y-111075695D02*
X134710628Y-111170933D01*
X134710628Y-111170933D02*
X134710628Y-111551885D01*
X134282057Y-110599504D02*
X134234438Y-110551885D01*
X134234438Y-110551885D02*
X134186819Y-110456647D01*
X134186819Y-110456647D02*
X134186819Y-110218552D01*
X134186819Y-110218552D02*
X134234438Y-110123314D01*
X134234438Y-110123314D02*
X134282057Y-110075695D01*
X134282057Y-110075695D02*
X134377295Y-110028076D01*
X134377295Y-110028076D02*
X134472533Y-110028076D01*
X134472533Y-110028076D02*
X134615390Y-110075695D01*
X134615390Y-110075695D02*
X135186819Y-110647123D01*
X135186819Y-110647123D02*
X135186819Y-110028076D01*
X134186819Y-109694742D02*
X134186819Y-109028076D01*
X134186819Y-109028076D02*
X135186819Y-109456647D01*
X139336542Y-101658819D02*
X139003209Y-101182628D01*
X138765114Y-101658819D02*
X138765114Y-100658819D01*
X138765114Y-100658819D02*
X139146066Y-100658819D01*
X139146066Y-100658819D02*
X139241304Y-100706438D01*
X139241304Y-100706438D02*
X139288923Y-100754057D01*
X139288923Y-100754057D02*
X139336542Y-100849295D01*
X139336542Y-100849295D02*
X139336542Y-100992152D01*
X139336542Y-100992152D02*
X139288923Y-101087390D01*
X139288923Y-101087390D02*
X139241304Y-101135009D01*
X139241304Y-101135009D02*
X139146066Y-101182628D01*
X139146066Y-101182628D02*
X138765114Y-101182628D01*
X139717495Y-100754057D02*
X139765114Y-100706438D01*
X139765114Y-100706438D02*
X139860352Y-100658819D01*
X139860352Y-100658819D02*
X140098447Y-100658819D01*
X140098447Y-100658819D02*
X140193685Y-100706438D01*
X140193685Y-100706438D02*
X140241304Y-100754057D01*
X140241304Y-100754057D02*
X140288923Y-100849295D01*
X140288923Y-100849295D02*
X140288923Y-100944533D01*
X140288923Y-100944533D02*
X140241304Y-101087390D01*
X140241304Y-101087390D02*
X139669876Y-101658819D01*
X139669876Y-101658819D02*
X140288923Y-101658819D01*
X140765114Y-101658819D02*
X140955590Y-101658819D01*
X140955590Y-101658819D02*
X141050828Y-101611200D01*
X141050828Y-101611200D02*
X141098447Y-101563580D01*
X141098447Y-101563580D02*
X141193685Y-101420723D01*
X141193685Y-101420723D02*
X141241304Y-101230247D01*
X141241304Y-101230247D02*
X141241304Y-100849295D01*
X141241304Y-100849295D02*
X141193685Y-100754057D01*
X141193685Y-100754057D02*
X141146066Y-100706438D01*
X141146066Y-100706438D02*
X141050828Y-100658819D01*
X141050828Y-100658819D02*
X140860352Y-100658819D01*
X140860352Y-100658819D02*
X140765114Y-100706438D01*
X140765114Y-100706438D02*
X140717495Y-100754057D01*
X140717495Y-100754057D02*
X140669876Y-100849295D01*
X140669876Y-100849295D02*
X140669876Y-101087390D01*
X140669876Y-101087390D02*
X140717495Y-101182628D01*
X140717495Y-101182628D02*
X140765114Y-101230247D01*
X140765114Y-101230247D02*
X140860352Y-101277866D01*
X140860352Y-101277866D02*
X141050828Y-101277866D01*
X141050828Y-101277866D02*
X141146066Y-101230247D01*
X141146066Y-101230247D02*
X141193685Y-101182628D01*
X141193685Y-101182628D02*
X141241304Y-101087390D01*
X143324342Y-102120619D02*
X142991009Y-101644428D01*
X142752914Y-102120619D02*
X142752914Y-101120619D01*
X142752914Y-101120619D02*
X143133866Y-101120619D01*
X143133866Y-101120619D02*
X143229104Y-101168238D01*
X143229104Y-101168238D02*
X143276723Y-101215857D01*
X143276723Y-101215857D02*
X143324342Y-101311095D01*
X143324342Y-101311095D02*
X143324342Y-101453952D01*
X143324342Y-101453952D02*
X143276723Y-101549190D01*
X143276723Y-101549190D02*
X143229104Y-101596809D01*
X143229104Y-101596809D02*
X143133866Y-101644428D01*
X143133866Y-101644428D02*
X142752914Y-101644428D01*
X144276723Y-102120619D02*
X143705295Y-102120619D01*
X143991009Y-102120619D02*
X143991009Y-101120619D01*
X143991009Y-101120619D02*
X143895771Y-101263476D01*
X143895771Y-101263476D02*
X143800533Y-101358714D01*
X143800533Y-101358714D02*
X143705295Y-101406333D01*
X145133866Y-101120619D02*
X144943390Y-101120619D01*
X144943390Y-101120619D02*
X144848152Y-101168238D01*
X144848152Y-101168238D02*
X144800533Y-101215857D01*
X144800533Y-101215857D02*
X144705295Y-101358714D01*
X144705295Y-101358714D02*
X144657676Y-101549190D01*
X144657676Y-101549190D02*
X144657676Y-101930142D01*
X144657676Y-101930142D02*
X144705295Y-102025380D01*
X144705295Y-102025380D02*
X144752914Y-102073000D01*
X144752914Y-102073000D02*
X144848152Y-102120619D01*
X144848152Y-102120619D02*
X145038628Y-102120619D01*
X145038628Y-102120619D02*
X145133866Y-102073000D01*
X145133866Y-102073000D02*
X145181485Y-102025380D01*
X145181485Y-102025380D02*
X145229104Y-101930142D01*
X145229104Y-101930142D02*
X145229104Y-101692047D01*
X145229104Y-101692047D02*
X145181485Y-101596809D01*
X145181485Y-101596809D02*
X145133866Y-101549190D01*
X145133866Y-101549190D02*
X145038628Y-101501571D01*
X145038628Y-101501571D02*
X144848152Y-101501571D01*
X144848152Y-101501571D02*
X144752914Y-101549190D01*
X144752914Y-101549190D02*
X144705295Y-101596809D01*
X144705295Y-101596809D02*
X144657676Y-101692047D01*
D13*
%TO.C,J1*%
X124124311Y-124863798D02*
X125008194Y-123979914D01*
X124124311Y-124453676D02*
X128345738Y-120232249D01*
X128345738Y-120232249D02*
X121189818Y-113076328D01*
X124124311Y-124439534D02*
X124654641Y-123909204D01*
X124654641Y-123909204D02*
X123381849Y-122636412D01*
X125715301Y-122848544D02*
X125184971Y-122318214D01*
X125184971Y-122318214D02*
X127270936Y-120232249D01*
X127270936Y-120232249D02*
X124230377Y-117191689D01*
X123240427Y-123979914D02*
X124124311Y-124863798D01*
X122851518Y-123166742D02*
X124124311Y-124439534D01*
X123381849Y-122636412D02*
X122851518Y-123166742D01*
X121790858Y-122106082D02*
X122321188Y-121575751D01*
X122321188Y-121575751D02*
X119846315Y-119100878D01*
X119315985Y-119631208D02*
X121790858Y-122106082D01*
X119846315Y-119100878D02*
X119315985Y-119631208D01*
X118255324Y-118570548D02*
X118785654Y-118040218D01*
X118785654Y-118040218D02*
X117512862Y-116767425D01*
X119103853Y-116237095D02*
X121189818Y-114151130D01*
X121189818Y-114151130D02*
X124230377Y-117191689D01*
X116982532Y-117297755D02*
X118255324Y-118570548D01*
X117512862Y-116767425D02*
X116982532Y-117297755D01*
X118573522Y-115706765D02*
X119103853Y-116237095D01*
X116968390Y-117297755D02*
X124124311Y-124453676D01*
X121189818Y-113076328D02*
X116968390Y-117297755D01*
%TO.C,C4*%
X173244688Y-91797400D02*
X172744688Y-91797400D01*
X172994688Y-92047400D02*
X172994688Y-91547400D01*
X170439913Y-92902400D02*
X170439913Y-87742400D01*
X170399913Y-92902400D02*
X170399913Y-87742400D01*
X170359913Y-92901400D02*
X170359913Y-87743400D01*
X170319913Y-92900400D02*
X170319913Y-87744400D01*
X170279913Y-92898400D02*
X170279913Y-87746400D01*
X170239913Y-92895400D02*
X170239913Y-87749400D01*
X170199913Y-92891400D02*
X170199913Y-91362400D01*
X170199913Y-89282400D02*
X170199913Y-87753400D01*
X170159913Y-92887400D02*
X170159913Y-91362400D01*
X170159913Y-89282400D02*
X170159913Y-87757400D01*
X170119913Y-92883400D02*
X170119913Y-91362400D01*
X170119913Y-89282400D02*
X170119913Y-87761400D01*
X170079913Y-92878400D02*
X170079913Y-91362400D01*
X170079913Y-89282400D02*
X170079913Y-87766400D01*
X170039913Y-92872400D02*
X170039913Y-91362400D01*
X170039913Y-89282400D02*
X170039913Y-87772400D01*
X169999913Y-92865400D02*
X169999913Y-91362400D01*
X169999913Y-89282400D02*
X169999913Y-87779400D01*
X169959913Y-92858400D02*
X169959913Y-91362400D01*
X169959913Y-89282400D02*
X169959913Y-87786400D01*
X169919913Y-92850400D02*
X169919913Y-91362400D01*
X169919913Y-89282400D02*
X169919913Y-87794400D01*
X169879913Y-92842400D02*
X169879913Y-91362400D01*
X169879913Y-89282400D02*
X169879913Y-87802400D01*
X169839913Y-92833400D02*
X169839913Y-91362400D01*
X169839913Y-89282400D02*
X169839913Y-87811400D01*
X169799913Y-92823400D02*
X169799913Y-91362400D01*
X169799913Y-89282400D02*
X169799913Y-87821400D01*
X169759913Y-92813400D02*
X169759913Y-91362400D01*
X169759913Y-89282400D02*
X169759913Y-87831400D01*
X169718913Y-92802400D02*
X169718913Y-91362400D01*
X169718913Y-89282400D02*
X169718913Y-87842400D01*
X169678913Y-92790400D02*
X169678913Y-91362400D01*
X169678913Y-89282400D02*
X169678913Y-87854400D01*
X169638913Y-92777400D02*
X169638913Y-91362400D01*
X169638913Y-89282400D02*
X169638913Y-87867400D01*
X169598913Y-92764400D02*
X169598913Y-91362400D01*
X169598913Y-89282400D02*
X169598913Y-87880400D01*
X169558913Y-92750400D02*
X169558913Y-91362400D01*
X169558913Y-89282400D02*
X169558913Y-87894400D01*
X169518913Y-92736400D02*
X169518913Y-91362400D01*
X169518913Y-89282400D02*
X169518913Y-87908400D01*
X169478913Y-92720400D02*
X169478913Y-91362400D01*
X169478913Y-89282400D02*
X169478913Y-87924400D01*
X169438913Y-92704400D02*
X169438913Y-91362400D01*
X169438913Y-89282400D02*
X169438913Y-87940400D01*
X169398913Y-92687400D02*
X169398913Y-91362400D01*
X169398913Y-89282400D02*
X169398913Y-87957400D01*
X169358913Y-92670400D02*
X169358913Y-91362400D01*
X169358913Y-89282400D02*
X169358913Y-87974400D01*
X169318913Y-92651400D02*
X169318913Y-91362400D01*
X169318913Y-89282400D02*
X169318913Y-87993400D01*
X169278913Y-92632400D02*
X169278913Y-91362400D01*
X169278913Y-89282400D02*
X169278913Y-88012400D01*
X169238913Y-92612400D02*
X169238913Y-91362400D01*
X169238913Y-89282400D02*
X169238913Y-88032400D01*
X169198913Y-92590400D02*
X169198913Y-91362400D01*
X169198913Y-89282400D02*
X169198913Y-88054400D01*
X169158913Y-92569400D02*
X169158913Y-91362400D01*
X169158913Y-89282400D02*
X169158913Y-88075400D01*
X169118913Y-92546400D02*
X169118913Y-91362400D01*
X169118913Y-89282400D02*
X169118913Y-88098400D01*
X169078913Y-92522400D02*
X169078913Y-91362400D01*
X169078913Y-89282400D02*
X169078913Y-88122400D01*
X169038913Y-92497400D02*
X169038913Y-91362400D01*
X169038913Y-89282400D02*
X169038913Y-88147400D01*
X168998913Y-92471400D02*
X168998913Y-91362400D01*
X168998913Y-89282400D02*
X168998913Y-88173400D01*
X168958913Y-92444400D02*
X168958913Y-91362400D01*
X168958913Y-89282400D02*
X168958913Y-88200400D01*
X168918913Y-92417400D02*
X168918913Y-91362400D01*
X168918913Y-89282400D02*
X168918913Y-88227400D01*
X168878913Y-92387400D02*
X168878913Y-91362400D01*
X168878913Y-89282400D02*
X168878913Y-88257400D01*
X168838913Y-92357400D02*
X168838913Y-91362400D01*
X168838913Y-89282400D02*
X168838913Y-88287400D01*
X168798913Y-92326400D02*
X168798913Y-91362400D01*
X168798913Y-89282400D02*
X168798913Y-88318400D01*
X168758913Y-92293400D02*
X168758913Y-91362400D01*
X168758913Y-89282400D02*
X168758913Y-88351400D01*
X168718913Y-92259400D02*
X168718913Y-91362400D01*
X168718913Y-89282400D02*
X168718913Y-88385400D01*
X168678913Y-92223400D02*
X168678913Y-91362400D01*
X168678913Y-89282400D02*
X168678913Y-88421400D01*
X168638913Y-92186400D02*
X168638913Y-91362400D01*
X168638913Y-89282400D02*
X168638913Y-88458400D01*
X168598913Y-92148400D02*
X168598913Y-91362400D01*
X168598913Y-89282400D02*
X168598913Y-88496400D01*
X168558913Y-92107400D02*
X168558913Y-91362400D01*
X168558913Y-89282400D02*
X168558913Y-88537400D01*
X168518913Y-92065400D02*
X168518913Y-91362400D01*
X168518913Y-89282400D02*
X168518913Y-88579400D01*
X168478913Y-92021400D02*
X168478913Y-91362400D01*
X168478913Y-89282400D02*
X168478913Y-88623400D01*
X168438913Y-91975400D02*
X168438913Y-91362400D01*
X168438913Y-89282400D02*
X168438913Y-88669400D01*
X168398913Y-91927400D02*
X168398913Y-91362400D01*
X168398913Y-89282400D02*
X168398913Y-88717400D01*
X168358913Y-91876400D02*
X168358913Y-91362400D01*
X168358913Y-89282400D02*
X168358913Y-88768400D01*
X168318913Y-91822400D02*
X168318913Y-91362400D01*
X168318913Y-89282400D02*
X168318913Y-88822400D01*
X168278913Y-91765400D02*
X168278913Y-91362400D01*
X168278913Y-89282400D02*
X168278913Y-88879400D01*
X168238913Y-91705400D02*
X168238913Y-91362400D01*
X168238913Y-89282400D02*
X168238913Y-88939400D01*
X168198913Y-91641400D02*
X168198913Y-91362400D01*
X168198913Y-89282400D02*
X168198913Y-89003400D01*
X168158913Y-91573400D02*
X168158913Y-91362400D01*
X168158913Y-89282400D02*
X168158913Y-89071400D01*
X168118913Y-91500400D02*
X168118913Y-89144400D01*
X168078913Y-91420400D02*
X168078913Y-89224400D01*
X168038913Y-91333400D02*
X168038913Y-89311400D01*
X167998913Y-91237400D02*
X167998913Y-89407400D01*
X167958913Y-91127400D02*
X167958913Y-89517400D01*
X167918913Y-90999400D02*
X167918913Y-89645400D01*
X167878913Y-90840400D02*
X167878913Y-89804400D01*
X167838913Y-90606400D02*
X167838913Y-90038400D01*
X173059913Y-90322400D02*
G75*
G03*
X173059913Y-90322400I-2620000J0D01*
G01*
%TO.C,R25*%
X145887200Y-113797600D02*
X142047200Y-113797600D01*
X145887200Y-111957600D02*
X142047200Y-111957600D01*
%TO.C,R23*%
X145887200Y-110089200D02*
X142047200Y-110089200D01*
X145887200Y-108249200D02*
X142047200Y-108249200D01*
%TO.C,R33*%
X138475200Y-64404000D02*
X138475200Y-60564000D01*
X140315200Y-64404000D02*
X140315200Y-60564000D01*
%TO.C,R5*%
X145887200Y-61194200D02*
X142047200Y-61194200D01*
X145887200Y-59354200D02*
X142047200Y-59354200D01*
%TO.C,C6*%
X129001400Y-48304000D02*
X129001400Y-49554000D01*
X129291400Y-48594000D02*
X129291400Y-54564000D01*
X129291400Y-54564000D02*
X136911400Y-54564000D01*
X129301400Y-48604000D02*
X129301400Y-49354000D01*
X129301400Y-49354000D02*
X131101400Y-49354000D01*
X129301400Y-50854000D02*
X130051400Y-50854000D01*
X130051400Y-50854000D02*
X130051400Y-53804000D01*
X130051400Y-53804000D02*
X133101400Y-53804000D01*
X130251400Y-48304000D02*
X129001400Y-48304000D01*
X131101400Y-48604000D02*
X129301400Y-48604000D01*
X131101400Y-49354000D02*
X131101400Y-48604000D01*
X132601400Y-48604000D02*
X132601400Y-49354000D01*
X132601400Y-49354000D02*
X133601400Y-49354000D01*
X133601400Y-48604000D02*
X132601400Y-48604000D01*
X133601400Y-49354000D02*
X133601400Y-48604000D01*
X135101400Y-48604000D02*
X135101400Y-49354000D01*
X135101400Y-49354000D02*
X136901400Y-49354000D01*
X136151400Y-50854000D02*
X136151400Y-53804000D01*
X136151400Y-53804000D02*
X133101400Y-53804000D01*
X136901400Y-48604000D02*
X135101400Y-48604000D01*
X136901400Y-49354000D02*
X136901400Y-48604000D01*
X136901400Y-50854000D02*
X136151400Y-50854000D01*
X136911400Y-48594000D02*
X129291400Y-48594000D01*
X136911400Y-54564000D02*
X136911400Y-48594000D01*
%TO.C,Q1*%
X126212600Y-74020800D02*
X136372600Y-74020800D01*
X126212600Y-81640800D02*
X136372600Y-81640800D01*
X126212600Y-89260800D02*
X126212600Y-74020800D01*
X136372600Y-74020800D02*
X136372600Y-89260800D01*
X136372600Y-89260800D02*
X126212600Y-89260800D01*
X132892600Y-77830800D02*
G75*
G03*
X132892600Y-77830800I-1600000J0D01*
G01*
X129260600Y-90784800D02*
X128244600Y-90784800D01*
X128244600Y-89260800D01*
X129260600Y-89260800D01*
X129260600Y-90784800D01*
G36*
X129260600Y-90784800D02*
G01*
X128244600Y-90784800D01*
X128244600Y-89260800D01*
X129260600Y-89260800D01*
X129260600Y-90784800D01*
G37*
X131800600Y-90784800D02*
X130784600Y-90784800D01*
X130784600Y-89260800D01*
X131800600Y-89260800D01*
X131800600Y-90784800D01*
G36*
X131800600Y-90784800D02*
G01*
X130784600Y-90784800D01*
X130784600Y-89260800D01*
X131800600Y-89260800D01*
X131800600Y-90784800D01*
G37*
X134340600Y-90784800D02*
X133324600Y-90784800D01*
X133324600Y-89260800D01*
X134340600Y-89260800D01*
X134340600Y-90784800D01*
G36*
X134340600Y-90784800D02*
G01*
X133324600Y-90784800D01*
X133324600Y-89260800D01*
X134340600Y-89260800D01*
X134340600Y-90784800D01*
G37*
%TO.C,R12*%
X145861800Y-79964800D02*
X142021800Y-79964800D01*
X145861800Y-78124800D02*
X142021800Y-78124800D01*
%TO.C,R22*%
X145887200Y-111943400D02*
X142047200Y-111943400D01*
X145887200Y-110103400D02*
X142047200Y-110103400D01*
%TO.C,R13*%
X140340600Y-96657400D02*
X140340600Y-100497400D01*
X138500600Y-96657400D02*
X138500600Y-100497400D01*
%TO.C,J3*%
X116156802Y-58287511D02*
X117040686Y-59171394D01*
X116566924Y-58287511D02*
X120788351Y-62508938D01*
X120788351Y-62508938D02*
X126176505Y-57120784D01*
X116581066Y-58287511D02*
X117111396Y-58817841D01*
X117111396Y-58817841D02*
X118384188Y-57545049D01*
X118172056Y-59878501D02*
X118702386Y-59348171D01*
X118702386Y-59348171D02*
X120788351Y-61434136D01*
X120788351Y-61434136D02*
X122945027Y-59277460D01*
X117040686Y-57403627D02*
X116156802Y-58287511D01*
X117853858Y-57014718D02*
X116581066Y-58287511D01*
X118384188Y-57545049D02*
X117853858Y-57014718D01*
X118914518Y-55954058D02*
X119444849Y-56484388D01*
X119444849Y-56484388D02*
X120151955Y-55777282D01*
X119621625Y-55246952D02*
X118914518Y-55954058D01*
X120151955Y-55777282D02*
X119621625Y-55246952D01*
X120682285Y-54186291D02*
X121212616Y-54716621D01*
X121212616Y-54716621D02*
X122485408Y-53443829D01*
X123015738Y-55034819D02*
X125101703Y-57120784D01*
X125101703Y-57120784D02*
X122945027Y-59277460D01*
X121955078Y-52913499D02*
X120682285Y-54186291D01*
X122485408Y-53443829D02*
X121955078Y-52913499D01*
X123546068Y-54504489D02*
X123015738Y-55034819D01*
X121955078Y-52899357D02*
X116566924Y-58287511D01*
X126176505Y-57120784D02*
X121955078Y-52899357D01*
%TO.C,R24*%
X145887200Y-117506000D02*
X142047200Y-117506000D01*
X145887200Y-115666000D02*
X142047200Y-115666000D01*
%TO.C,R6*%
X145887200Y-63048400D02*
X142047200Y-63048400D01*
X145887200Y-61208400D02*
X142047200Y-61208400D01*
%TO.C,U3*%
X149424400Y-70090200D02*
X149424400Y-71290200D01*
X149424400Y-71290200D02*
X147724400Y-71290200D01*
X149424400Y-87490200D02*
X149424400Y-86290200D01*
X149524400Y-70090200D02*
X149424400Y-70090200D01*
X165524400Y-70090200D02*
X149524400Y-70090200D01*
X165524400Y-70090200D02*
X165624400Y-70090200D01*
X165524400Y-87490200D02*
X149424400Y-87490200D01*
X165524400Y-87490200D02*
X165624400Y-87490200D01*
X165624400Y-70090200D02*
X165624400Y-71290200D01*
X165624400Y-87490200D02*
X165624400Y-86290200D01*
%TO.C,R28*%
X145887200Y-115651800D02*
X142047200Y-115651800D01*
X145887200Y-113811800D02*
X142047200Y-113811800D01*
%TO.C,R31*%
X134761200Y-100213400D02*
X134761200Y-104053400D01*
X132921200Y-100213400D02*
X132921200Y-104053400D01*
%TO.C,U6*%
X125172800Y-98004400D02*
X125172800Y-103204400D01*
X125172800Y-103204400D02*
X130472800Y-103204400D01*
X126822800Y-98004400D02*
X125172800Y-98004400D01*
X130472800Y-98004400D02*
X128822800Y-98004400D01*
X130472800Y-103204400D02*
X130472800Y-98004400D01*
X126822800Y-98004400D02*
G75*
G03*
X128822800Y-98004400I1000000J0D01*
G01*
D11*
%TO.C,U1*%
X114019000Y-112979200D02*
X134339000Y-112979200D01*
X112749000Y-111709200D02*
X112749000Y-96469200D01*
X135609000Y-111709200D02*
X135609000Y-96469200D01*
X114019000Y-110439200D02*
X113384000Y-110439200D01*
X114019000Y-110439200D02*
X132434000Y-110439200D01*
D14*
X117676600Y-109728000D02*
X117676600Y-98450400D01*
D11*
X114019000Y-97739200D02*
X113384000Y-97739200D01*
X132434000Y-97739200D02*
X114019000Y-97739200D01*
X114019000Y-95199200D02*
X134339000Y-95199200D01*
X112749000Y-111709200D02*
G75*
G03*
X114019000Y-112979200I1269999J-1D01*
G01*
X134339000Y-112979200D02*
G75*
G03*
X135609000Y-111709200I1J1269999D01*
G01*
X112749000Y-109804200D02*
G75*
G03*
X113384000Y-110439200I634999J-1D01*
G01*
X113384000Y-97739200D02*
G75*
G03*
X112749000Y-98374200I0J-635000D01*
G01*
X114019000Y-95199200D02*
G75*
G03*
X112749000Y-96469200I0J-1270000D01*
G01*
X135609000Y-96469200D02*
G75*
G03*
X134339000Y-95199200I-1270000J0D01*
G01*
X115035000Y-111709200D02*
G75*
G03*
X115035000Y-111709200I-1016000J0D01*
G01*
X117575000Y-111709200D02*
G75*
G03*
X117575000Y-111709200I-1016000J0D01*
G01*
X120115000Y-111709200D02*
G75*
G03*
X120115000Y-111709200I-1016000J0D01*
G01*
X122655000Y-111709200D02*
G75*
G03*
X122655000Y-111709200I-1016000J0D01*
G01*
X125195000Y-111709200D02*
G75*
G03*
X125195000Y-111709200I-1016000J0D01*
G01*
X127735000Y-111709200D02*
G75*
G03*
X127735000Y-111709200I-1016000J0D01*
G01*
X130275000Y-111709200D02*
G75*
G03*
X130275000Y-111709200I-1016000J0D01*
G01*
X132815000Y-111709200D02*
G75*
G03*
X132815000Y-111709200I-1016000J0D01*
G01*
X135355000Y-111709200D02*
G75*
G03*
X135355000Y-111709200I-1016000J0D01*
G01*
X115035000Y-96469200D02*
G75*
G03*
X115035000Y-96469200I-1016000J0D01*
G01*
X117575000Y-96469200D02*
G75*
G03*
X117575000Y-96469200I-1016000J0D01*
G01*
X120115000Y-96469200D02*
G75*
G03*
X120115000Y-96469200I-1016000J0D01*
G01*
X122655000Y-96469200D02*
G75*
G03*
X122655000Y-96469200I-1016000J0D01*
G01*
X125195000Y-96469200D02*
G75*
G03*
X125195000Y-96469200I-1016000J0D01*
G01*
X127735000Y-96469200D02*
G75*
G03*
X127735000Y-96469200I-1016000J0D01*
G01*
X130275000Y-96469200D02*
G75*
G03*
X130275000Y-96469200I-1016000J0D01*
G01*
X132815000Y-96469200D02*
G75*
G03*
X132815000Y-96469200I-1016000J0D01*
G01*
X135355000Y-96469200D02*
G75*
G03*
X135355000Y-96469200I-1016000J0D01*
G01*
X113003000Y-110439200D02*
X115035000Y-110439200D01*
X115035000Y-111455200D01*
X114781000Y-110947200D01*
X114273000Y-110693200D01*
X113765000Y-110693200D01*
X113257000Y-110947200D01*
X113003000Y-111455200D01*
X113003000Y-111963200D01*
X113257000Y-112471200D01*
X113765000Y-112725200D01*
X114273000Y-112725200D01*
X114781000Y-112471200D01*
X115035000Y-111963200D01*
X115035000Y-112979200D01*
X113638000Y-112852200D01*
X113003000Y-112471200D01*
X112749000Y-111455200D01*
X112749000Y-109982000D01*
X113003000Y-110439200D01*
G36*
X113003000Y-110439200D02*
G01*
X115035000Y-110439200D01*
X115035000Y-111455200D01*
X114781000Y-110947200D01*
X114273000Y-110693200D01*
X113765000Y-110693200D01*
X113257000Y-110947200D01*
X113003000Y-111455200D01*
X113003000Y-111963200D01*
X113257000Y-112471200D01*
X113765000Y-112725200D01*
X114273000Y-112725200D01*
X114781000Y-112471200D01*
X115035000Y-111963200D01*
X115035000Y-112979200D01*
X113638000Y-112852200D01*
X113003000Y-112471200D01*
X112749000Y-111455200D01*
X112749000Y-109982000D01*
X113003000Y-110439200D01*
G37*
X115035000Y-96215200D02*
X114781000Y-95707200D01*
X114273000Y-95453200D01*
X113765000Y-95453200D01*
X113257000Y-95707200D01*
X113003000Y-96215200D01*
X113003000Y-96723200D01*
X113257000Y-97231200D01*
X113765000Y-97485200D01*
X114273000Y-97485200D01*
X114781000Y-97231200D01*
X115035000Y-96723200D01*
X115035000Y-97739200D01*
X113003000Y-97739200D01*
X112749000Y-98196400D01*
X112749000Y-96723200D01*
X113003000Y-95707200D01*
X113638000Y-95326200D01*
X115035000Y-95199200D01*
X115035000Y-96215200D01*
G36*
X115035000Y-96215200D02*
G01*
X114781000Y-95707200D01*
X114273000Y-95453200D01*
X113765000Y-95453200D01*
X113257000Y-95707200D01*
X113003000Y-96215200D01*
X113003000Y-96723200D01*
X113257000Y-97231200D01*
X113765000Y-97485200D01*
X114273000Y-97485200D01*
X114781000Y-97231200D01*
X115035000Y-96723200D01*
X115035000Y-97739200D01*
X113003000Y-97739200D01*
X112749000Y-98196400D01*
X112749000Y-96723200D01*
X113003000Y-95707200D01*
X113638000Y-95326200D01*
X115035000Y-95199200D01*
X115035000Y-96215200D01*
G37*
X117575000Y-111556800D02*
X117473400Y-111099600D01*
X117219400Y-110896400D01*
X116914600Y-110693200D01*
X116457400Y-110642400D01*
X116051000Y-110744000D01*
X115746200Y-110998000D01*
X115543000Y-111404400D01*
X115492200Y-111861600D01*
X115695400Y-112369600D01*
X116101800Y-112674400D01*
X116508200Y-112776000D01*
X116813000Y-112725200D01*
X116965400Y-112674400D01*
X117168600Y-112572800D01*
X117371800Y-112420400D01*
X117575000Y-111912400D01*
X117575000Y-112979200D01*
X115035000Y-112979200D01*
X115035000Y-110439200D01*
X117575000Y-110439200D01*
X117575000Y-111556800D01*
G36*
X117575000Y-111556800D02*
G01*
X117473400Y-111099600D01*
X117219400Y-110896400D01*
X116914600Y-110693200D01*
X116457400Y-110642400D01*
X116051000Y-110744000D01*
X115746200Y-110998000D01*
X115543000Y-111404400D01*
X115492200Y-111861600D01*
X115695400Y-112369600D01*
X116101800Y-112674400D01*
X116508200Y-112776000D01*
X116813000Y-112725200D01*
X116965400Y-112674400D01*
X117168600Y-112572800D01*
X117371800Y-112420400D01*
X117575000Y-111912400D01*
X117575000Y-112979200D01*
X115035000Y-112979200D01*
X115035000Y-110439200D01*
X117575000Y-110439200D01*
X117575000Y-111556800D01*
G37*
X120115000Y-111556800D02*
X120013400Y-111099600D01*
X119759400Y-110896400D01*
X119454600Y-110693200D01*
X118997400Y-110642400D01*
X118591000Y-110744000D01*
X118286200Y-110998000D01*
X118083000Y-111404400D01*
X118032200Y-111861600D01*
X118235400Y-112369600D01*
X118641800Y-112674400D01*
X119048200Y-112776000D01*
X119353000Y-112725200D01*
X119505400Y-112674400D01*
X119708600Y-112572800D01*
X119911800Y-112420400D01*
X120115000Y-111912400D01*
X120115000Y-112979200D01*
X117575000Y-112979200D01*
X117575000Y-110439200D01*
X120115000Y-110439200D01*
X120115000Y-111556800D01*
G36*
X120115000Y-111556800D02*
G01*
X120013400Y-111099600D01*
X119759400Y-110896400D01*
X119454600Y-110693200D01*
X118997400Y-110642400D01*
X118591000Y-110744000D01*
X118286200Y-110998000D01*
X118083000Y-111404400D01*
X118032200Y-111861600D01*
X118235400Y-112369600D01*
X118641800Y-112674400D01*
X119048200Y-112776000D01*
X119353000Y-112725200D01*
X119505400Y-112674400D01*
X119708600Y-112572800D01*
X119911800Y-112420400D01*
X120115000Y-111912400D01*
X120115000Y-112979200D01*
X117575000Y-112979200D01*
X117575000Y-110439200D01*
X120115000Y-110439200D01*
X120115000Y-111556800D01*
G37*
X122655000Y-111556800D02*
X122553400Y-111099600D01*
X122299400Y-110896400D01*
X121994600Y-110693200D01*
X121537400Y-110642400D01*
X121131000Y-110744000D01*
X120826200Y-110998000D01*
X120623000Y-111404400D01*
X120572200Y-111861600D01*
X120775400Y-112369600D01*
X121181800Y-112674400D01*
X121588200Y-112776000D01*
X121893000Y-112725200D01*
X122045400Y-112674400D01*
X122248600Y-112572800D01*
X122451800Y-112420400D01*
X122655000Y-111912400D01*
X122655000Y-112979200D01*
X120115000Y-112979200D01*
X120115000Y-110439200D01*
X122655000Y-110439200D01*
X122655000Y-111556800D01*
G36*
X122655000Y-111556800D02*
G01*
X122553400Y-111099600D01*
X122299400Y-110896400D01*
X121994600Y-110693200D01*
X121537400Y-110642400D01*
X121131000Y-110744000D01*
X120826200Y-110998000D01*
X120623000Y-111404400D01*
X120572200Y-111861600D01*
X120775400Y-112369600D01*
X121181800Y-112674400D01*
X121588200Y-112776000D01*
X121893000Y-112725200D01*
X122045400Y-112674400D01*
X122248600Y-112572800D01*
X122451800Y-112420400D01*
X122655000Y-111912400D01*
X122655000Y-112979200D01*
X120115000Y-112979200D01*
X120115000Y-110439200D01*
X122655000Y-110439200D01*
X122655000Y-111556800D01*
G37*
X125195000Y-111556800D02*
X125093400Y-111099600D01*
X124839400Y-110896400D01*
X124534600Y-110693200D01*
X124077400Y-110642400D01*
X123671000Y-110744000D01*
X123366200Y-110998000D01*
X123163000Y-111404400D01*
X123112200Y-111861600D01*
X123315400Y-112369600D01*
X123721800Y-112674400D01*
X124128200Y-112776000D01*
X124433000Y-112725200D01*
X124585400Y-112674400D01*
X124788600Y-112572800D01*
X124991800Y-112420400D01*
X125195000Y-111912400D01*
X125195000Y-112979200D01*
X122655000Y-112979200D01*
X122655000Y-110439200D01*
X125195000Y-110439200D01*
X125195000Y-111556800D01*
G36*
X125195000Y-111556800D02*
G01*
X125093400Y-111099600D01*
X124839400Y-110896400D01*
X124534600Y-110693200D01*
X124077400Y-110642400D01*
X123671000Y-110744000D01*
X123366200Y-110998000D01*
X123163000Y-111404400D01*
X123112200Y-111861600D01*
X123315400Y-112369600D01*
X123721800Y-112674400D01*
X124128200Y-112776000D01*
X124433000Y-112725200D01*
X124585400Y-112674400D01*
X124788600Y-112572800D01*
X124991800Y-112420400D01*
X125195000Y-111912400D01*
X125195000Y-112979200D01*
X122655000Y-112979200D01*
X122655000Y-110439200D01*
X125195000Y-110439200D01*
X125195000Y-111556800D01*
G37*
X127735000Y-111556800D02*
X127633400Y-111099600D01*
X127379400Y-110896400D01*
X127074600Y-110693200D01*
X126617400Y-110642400D01*
X126211000Y-110744000D01*
X125906200Y-110998000D01*
X125703000Y-111404400D01*
X125652200Y-111861600D01*
X125855400Y-112369600D01*
X126261800Y-112674400D01*
X126668200Y-112776000D01*
X126973000Y-112725200D01*
X127125400Y-112674400D01*
X127328600Y-112572800D01*
X127531800Y-112420400D01*
X127735000Y-111912400D01*
X127735000Y-112979200D01*
X125195000Y-112979200D01*
X125195000Y-110439200D01*
X127735000Y-110439200D01*
X127735000Y-111556800D01*
G36*
X127735000Y-111556800D02*
G01*
X127633400Y-111099600D01*
X127379400Y-110896400D01*
X127074600Y-110693200D01*
X126617400Y-110642400D01*
X126211000Y-110744000D01*
X125906200Y-110998000D01*
X125703000Y-111404400D01*
X125652200Y-111861600D01*
X125855400Y-112369600D01*
X126261800Y-112674400D01*
X126668200Y-112776000D01*
X126973000Y-112725200D01*
X127125400Y-112674400D01*
X127328600Y-112572800D01*
X127531800Y-112420400D01*
X127735000Y-111912400D01*
X127735000Y-112979200D01*
X125195000Y-112979200D01*
X125195000Y-110439200D01*
X127735000Y-110439200D01*
X127735000Y-111556800D01*
G37*
X130275000Y-111556800D02*
X130173400Y-111099600D01*
X129919400Y-110896400D01*
X129614600Y-110693200D01*
X129157400Y-110642400D01*
X128751000Y-110744000D01*
X128446200Y-110998000D01*
X128243000Y-111404400D01*
X128192200Y-111861600D01*
X128395400Y-112369600D01*
X128801800Y-112674400D01*
X129208200Y-112776000D01*
X129513000Y-112725200D01*
X129665400Y-112674400D01*
X129868600Y-112572800D01*
X130071800Y-112420400D01*
X130275000Y-111912400D01*
X130275000Y-112979200D01*
X127735000Y-112979200D01*
X127735000Y-110439200D01*
X130275000Y-110439200D01*
X130275000Y-111556800D01*
G36*
X130275000Y-111556800D02*
G01*
X130173400Y-111099600D01*
X129919400Y-110896400D01*
X129614600Y-110693200D01*
X129157400Y-110642400D01*
X128751000Y-110744000D01*
X128446200Y-110998000D01*
X128243000Y-111404400D01*
X128192200Y-111861600D01*
X128395400Y-112369600D01*
X128801800Y-112674400D01*
X129208200Y-112776000D01*
X129513000Y-112725200D01*
X129665400Y-112674400D01*
X129868600Y-112572800D01*
X130071800Y-112420400D01*
X130275000Y-111912400D01*
X130275000Y-112979200D01*
X127735000Y-112979200D01*
X127735000Y-110439200D01*
X130275000Y-110439200D01*
X130275000Y-111556800D01*
G37*
X132815000Y-111506000D02*
X132611800Y-110998000D01*
X132408600Y-110845600D01*
X132205400Y-110744000D01*
X132053000Y-110693200D01*
X131748200Y-110642400D01*
X131341800Y-110744000D01*
X130935400Y-111048800D01*
X130732200Y-111556800D01*
X130783000Y-112014000D01*
X130986200Y-112420400D01*
X131291000Y-112674400D01*
X131697400Y-112776000D01*
X132154600Y-112725200D01*
X132459400Y-112522000D01*
X132713400Y-112318800D01*
X132815000Y-111861600D01*
X132815000Y-112979200D01*
X130275000Y-112979200D01*
X130275000Y-110439200D01*
X132815000Y-110439200D01*
X132815000Y-111506000D01*
G36*
X132815000Y-111506000D02*
G01*
X132611800Y-110998000D01*
X132408600Y-110845600D01*
X132205400Y-110744000D01*
X132053000Y-110693200D01*
X131748200Y-110642400D01*
X131341800Y-110744000D01*
X130935400Y-111048800D01*
X130732200Y-111556800D01*
X130783000Y-112014000D01*
X130986200Y-112420400D01*
X131291000Y-112674400D01*
X131697400Y-112776000D01*
X132154600Y-112725200D01*
X132459400Y-112522000D01*
X132713400Y-112318800D01*
X132815000Y-111861600D01*
X132815000Y-112979200D01*
X130275000Y-112979200D01*
X130275000Y-110439200D01*
X132815000Y-110439200D01*
X132815000Y-111506000D01*
G37*
X117575000Y-96266000D02*
X117371800Y-95758000D01*
X117168600Y-95605600D01*
X116965400Y-95504000D01*
X116813000Y-95453200D01*
X116508200Y-95402400D01*
X116101800Y-95504000D01*
X115695400Y-95808800D01*
X115492200Y-96316800D01*
X115543000Y-96774000D01*
X115746200Y-97180400D01*
X116051000Y-97434400D01*
X116457400Y-97536000D01*
X116914600Y-97485200D01*
X117219400Y-97282000D01*
X117473400Y-97078800D01*
X117575000Y-96621600D01*
X117575000Y-97739200D01*
X115035000Y-97739200D01*
X115035000Y-95199200D01*
X117575000Y-95199200D01*
X117575000Y-96266000D01*
G36*
X117575000Y-96266000D02*
G01*
X117371800Y-95758000D01*
X117168600Y-95605600D01*
X116965400Y-95504000D01*
X116813000Y-95453200D01*
X116508200Y-95402400D01*
X116101800Y-95504000D01*
X115695400Y-95808800D01*
X115492200Y-96316800D01*
X115543000Y-96774000D01*
X115746200Y-97180400D01*
X116051000Y-97434400D01*
X116457400Y-97536000D01*
X116914600Y-97485200D01*
X117219400Y-97282000D01*
X117473400Y-97078800D01*
X117575000Y-96621600D01*
X117575000Y-97739200D01*
X115035000Y-97739200D01*
X115035000Y-95199200D01*
X117575000Y-95199200D01*
X117575000Y-96266000D01*
G37*
X120115000Y-96266000D02*
X119911800Y-95758000D01*
X119708600Y-95605600D01*
X119505400Y-95504000D01*
X119353000Y-95453200D01*
X119048200Y-95402400D01*
X118641800Y-95504000D01*
X118235400Y-95808800D01*
X118032200Y-96316800D01*
X118083000Y-96774000D01*
X118286200Y-97180400D01*
X118591000Y-97434400D01*
X118997400Y-97536000D01*
X119454600Y-97485200D01*
X119759400Y-97282000D01*
X120013400Y-97078800D01*
X120115000Y-96621600D01*
X120115000Y-97739200D01*
X117575000Y-97739200D01*
X117575000Y-95199200D01*
X120115000Y-95199200D01*
X120115000Y-96266000D01*
G36*
X120115000Y-96266000D02*
G01*
X119911800Y-95758000D01*
X119708600Y-95605600D01*
X119505400Y-95504000D01*
X119353000Y-95453200D01*
X119048200Y-95402400D01*
X118641800Y-95504000D01*
X118235400Y-95808800D01*
X118032200Y-96316800D01*
X118083000Y-96774000D01*
X118286200Y-97180400D01*
X118591000Y-97434400D01*
X118997400Y-97536000D01*
X119454600Y-97485200D01*
X119759400Y-97282000D01*
X120013400Y-97078800D01*
X120115000Y-96621600D01*
X120115000Y-97739200D01*
X117575000Y-97739200D01*
X117575000Y-95199200D01*
X120115000Y-95199200D01*
X120115000Y-96266000D01*
G37*
X122655000Y-96266000D02*
X122451800Y-95758000D01*
X122248600Y-95605600D01*
X122045400Y-95504000D01*
X121893000Y-95453200D01*
X121588200Y-95402400D01*
X121181800Y-95504000D01*
X120775400Y-95808800D01*
X120572200Y-96316800D01*
X120623000Y-96774000D01*
X120826200Y-97180400D01*
X121131000Y-97434400D01*
X121537400Y-97536000D01*
X121994600Y-97485200D01*
X122299400Y-97282000D01*
X122553400Y-97078800D01*
X122655000Y-96621600D01*
X122655000Y-97739200D01*
X120115000Y-97739200D01*
X120115000Y-95199200D01*
X122655000Y-95199200D01*
X122655000Y-96266000D01*
G36*
X122655000Y-96266000D02*
G01*
X122451800Y-95758000D01*
X122248600Y-95605600D01*
X122045400Y-95504000D01*
X121893000Y-95453200D01*
X121588200Y-95402400D01*
X121181800Y-95504000D01*
X120775400Y-95808800D01*
X120572200Y-96316800D01*
X120623000Y-96774000D01*
X120826200Y-97180400D01*
X121131000Y-97434400D01*
X121537400Y-97536000D01*
X121994600Y-97485200D01*
X122299400Y-97282000D01*
X122553400Y-97078800D01*
X122655000Y-96621600D01*
X122655000Y-97739200D01*
X120115000Y-97739200D01*
X120115000Y-95199200D01*
X122655000Y-95199200D01*
X122655000Y-96266000D01*
G37*
X125195000Y-96266000D02*
X124991800Y-95758000D01*
X124788600Y-95605600D01*
X124585400Y-95504000D01*
X124433000Y-95453200D01*
X124128200Y-95402400D01*
X123721800Y-95504000D01*
X123315400Y-95808800D01*
X123112200Y-96316800D01*
X123163000Y-96774000D01*
X123366200Y-97180400D01*
X123671000Y-97434400D01*
X124077400Y-97536000D01*
X124534600Y-97485200D01*
X124839400Y-97282000D01*
X125093400Y-97078800D01*
X125195000Y-96621600D01*
X125195000Y-97739200D01*
X122655000Y-97739200D01*
X122655000Y-95199200D01*
X125195000Y-95199200D01*
X125195000Y-96266000D01*
G36*
X125195000Y-96266000D02*
G01*
X124991800Y-95758000D01*
X124788600Y-95605600D01*
X124585400Y-95504000D01*
X124433000Y-95453200D01*
X124128200Y-95402400D01*
X123721800Y-95504000D01*
X123315400Y-95808800D01*
X123112200Y-96316800D01*
X123163000Y-96774000D01*
X123366200Y-97180400D01*
X123671000Y-97434400D01*
X124077400Y-97536000D01*
X124534600Y-97485200D01*
X124839400Y-97282000D01*
X125093400Y-97078800D01*
X125195000Y-96621600D01*
X125195000Y-97739200D01*
X122655000Y-97739200D01*
X122655000Y-95199200D01*
X125195000Y-95199200D01*
X125195000Y-96266000D01*
G37*
X127735000Y-96266000D02*
X127531800Y-95758000D01*
X127328600Y-95605600D01*
X127125400Y-95504000D01*
X126973000Y-95453200D01*
X126668200Y-95402400D01*
X126261800Y-95504000D01*
X125855400Y-95808800D01*
X125652200Y-96316800D01*
X125703000Y-96774000D01*
X125906200Y-97180400D01*
X126211000Y-97434400D01*
X126617400Y-97536000D01*
X127074600Y-97485200D01*
X127379400Y-97282000D01*
X127633400Y-97078800D01*
X127735000Y-96621600D01*
X127735000Y-97739200D01*
X125195000Y-97739200D01*
X125195000Y-95199200D01*
X127735000Y-95199200D01*
X127735000Y-96266000D01*
G36*
X127735000Y-96266000D02*
G01*
X127531800Y-95758000D01*
X127328600Y-95605600D01*
X127125400Y-95504000D01*
X126973000Y-95453200D01*
X126668200Y-95402400D01*
X126261800Y-95504000D01*
X125855400Y-95808800D01*
X125652200Y-96316800D01*
X125703000Y-96774000D01*
X125906200Y-97180400D01*
X126211000Y-97434400D01*
X126617400Y-97536000D01*
X127074600Y-97485200D01*
X127379400Y-97282000D01*
X127633400Y-97078800D01*
X127735000Y-96621600D01*
X127735000Y-97739200D01*
X125195000Y-97739200D01*
X125195000Y-95199200D01*
X127735000Y-95199200D01*
X127735000Y-96266000D01*
G37*
X130275000Y-96266000D02*
X130071800Y-95758000D01*
X129868600Y-95605600D01*
X129665400Y-95504000D01*
X129513000Y-95453200D01*
X129208200Y-95402400D01*
X128801800Y-95504000D01*
X128395400Y-95808800D01*
X128192200Y-96316800D01*
X128243000Y-96774000D01*
X128446200Y-97180400D01*
X128751000Y-97434400D01*
X129157400Y-97536000D01*
X129614600Y-97485200D01*
X129919400Y-97282000D01*
X130173400Y-97078800D01*
X130275000Y-96621600D01*
X130275000Y-97739200D01*
X127735000Y-97739200D01*
X127735000Y-95199200D01*
X130275000Y-95199200D01*
X130275000Y-96266000D01*
G36*
X130275000Y-96266000D02*
G01*
X130071800Y-95758000D01*
X129868600Y-95605600D01*
X129665400Y-95504000D01*
X129513000Y-95453200D01*
X129208200Y-95402400D01*
X128801800Y-95504000D01*
X128395400Y-95808800D01*
X128192200Y-96316800D01*
X128243000Y-96774000D01*
X128446200Y-97180400D01*
X128751000Y-97434400D01*
X129157400Y-97536000D01*
X129614600Y-97485200D01*
X129919400Y-97282000D01*
X130173400Y-97078800D01*
X130275000Y-96621600D01*
X130275000Y-97739200D01*
X127735000Y-97739200D01*
X127735000Y-95199200D01*
X130275000Y-95199200D01*
X130275000Y-96266000D01*
G37*
X132815000Y-96266000D02*
X132611800Y-95758000D01*
X132408600Y-95605600D01*
X132205400Y-95504000D01*
X132053000Y-95453200D01*
X131748200Y-95402400D01*
X131341800Y-95504000D01*
X130935400Y-95808800D01*
X130732200Y-96316800D01*
X130783000Y-96774000D01*
X130986200Y-97180400D01*
X131291000Y-97434400D01*
X131697400Y-97536000D01*
X132154600Y-97485200D01*
X132459400Y-97282000D01*
X132713400Y-97078800D01*
X132815000Y-96621600D01*
X132815000Y-97739200D01*
X130275000Y-97739200D01*
X130275000Y-95199200D01*
X132815000Y-95199200D01*
X132815000Y-96266000D01*
G36*
X132815000Y-96266000D02*
G01*
X132611800Y-95758000D01*
X132408600Y-95605600D01*
X132205400Y-95504000D01*
X132053000Y-95453200D01*
X131748200Y-95402400D01*
X131341800Y-95504000D01*
X130935400Y-95808800D01*
X130732200Y-96316800D01*
X130783000Y-96774000D01*
X130986200Y-97180400D01*
X131291000Y-97434400D01*
X131697400Y-97536000D01*
X132154600Y-97485200D01*
X132459400Y-97282000D01*
X132713400Y-97078800D01*
X132815000Y-96621600D01*
X132815000Y-97739200D01*
X130275000Y-97739200D01*
X130275000Y-95199200D01*
X132815000Y-95199200D01*
X132815000Y-96266000D01*
G37*
X135558200Y-111810800D02*
X135507400Y-112166400D01*
X135304200Y-112522000D01*
X134999400Y-112776000D01*
X134694600Y-112928400D01*
X134339000Y-112979200D01*
X132815000Y-112979200D01*
X132815000Y-111556800D01*
X133272200Y-111556800D01*
X133323000Y-111963200D01*
X133526200Y-112369600D01*
X133881800Y-112674400D01*
X134288200Y-112776000D01*
X134694600Y-112725200D01*
X135050200Y-112471200D01*
X135355000Y-112115600D01*
X135405800Y-111709200D01*
X135355000Y-111658400D01*
X135405800Y-111658400D01*
X135355000Y-111353600D01*
X135151800Y-111048800D01*
X134948600Y-110845600D01*
X134643800Y-110693200D01*
X134288200Y-110642400D01*
X134034200Y-110693200D01*
X133678600Y-110896400D01*
X133424600Y-111150400D01*
X133272200Y-111556800D01*
X132815000Y-111556800D01*
X132815000Y-110439200D01*
X133069000Y-110439200D01*
X135609000Y-110439200D01*
X135609000Y-111658400D01*
X135558200Y-111810800D01*
G36*
X135558200Y-111810800D02*
G01*
X135507400Y-112166400D01*
X135304200Y-112522000D01*
X134999400Y-112776000D01*
X134694600Y-112928400D01*
X134339000Y-112979200D01*
X132815000Y-112979200D01*
X132815000Y-111556800D01*
X133272200Y-111556800D01*
X133323000Y-111963200D01*
X133526200Y-112369600D01*
X133881800Y-112674400D01*
X134288200Y-112776000D01*
X134694600Y-112725200D01*
X135050200Y-112471200D01*
X135355000Y-112115600D01*
X135405800Y-111709200D01*
X135355000Y-111658400D01*
X135405800Y-111658400D01*
X135355000Y-111353600D01*
X135151800Y-111048800D01*
X134948600Y-110845600D01*
X134643800Y-110693200D01*
X134288200Y-110642400D01*
X134034200Y-110693200D01*
X133678600Y-110896400D01*
X133424600Y-111150400D01*
X133272200Y-111556800D01*
X132815000Y-111556800D01*
X132815000Y-110439200D01*
X133069000Y-110439200D01*
X135609000Y-110439200D01*
X135609000Y-111658400D01*
X135558200Y-111810800D01*
G37*
X135609000Y-97739200D02*
X133069000Y-97739200D01*
X132815000Y-97739200D01*
X132815000Y-96621600D01*
X133272200Y-96621600D01*
X133424600Y-97028000D01*
X133678600Y-97282000D01*
X134034200Y-97485200D01*
X134288200Y-97536000D01*
X134643800Y-97485200D01*
X134948600Y-97332800D01*
X135151800Y-97129600D01*
X135355000Y-96824800D01*
X135405800Y-96520000D01*
X135355000Y-96520000D01*
X135405800Y-96469200D01*
X135355000Y-96062800D01*
X135050200Y-95707200D01*
X134694600Y-95453200D01*
X134288200Y-95402400D01*
X133881800Y-95504000D01*
X133526200Y-95808800D01*
X133323000Y-96215200D01*
X133272200Y-96621600D01*
X132815000Y-96621600D01*
X132815000Y-95199200D01*
X134339000Y-95199200D01*
X134694600Y-95250000D01*
X134999400Y-95402400D01*
X135304200Y-95656400D01*
X135507400Y-96012000D01*
X135558200Y-96367600D01*
X135609000Y-96520000D01*
X135609000Y-97739200D01*
G36*
X135609000Y-97739200D02*
G01*
X133069000Y-97739200D01*
X132815000Y-97739200D01*
X132815000Y-96621600D01*
X133272200Y-96621600D01*
X133424600Y-97028000D01*
X133678600Y-97282000D01*
X134034200Y-97485200D01*
X134288200Y-97536000D01*
X134643800Y-97485200D01*
X134948600Y-97332800D01*
X135151800Y-97129600D01*
X135355000Y-96824800D01*
X135405800Y-96520000D01*
X135355000Y-96520000D01*
X135405800Y-96469200D01*
X135355000Y-96062800D01*
X135050200Y-95707200D01*
X134694600Y-95453200D01*
X134288200Y-95402400D01*
X133881800Y-95504000D01*
X133526200Y-95808800D01*
X133323000Y-96215200D01*
X133272200Y-96621600D01*
X132815000Y-96621600D01*
X132815000Y-95199200D01*
X134339000Y-95199200D01*
X134694600Y-95250000D01*
X134999400Y-95402400D01*
X135304200Y-95656400D01*
X135507400Y-96012000D01*
X135558200Y-96367600D01*
X135609000Y-96520000D01*
X135609000Y-97739200D01*
G37*
D13*
%TO.C,R7*%
X138424400Y-77967600D02*
X138424400Y-74127600D01*
X140264400Y-77967600D02*
X140264400Y-74127600D01*
%TO.C,R10*%
X145861800Y-81819000D02*
X142021800Y-81819000D01*
X145861800Y-79979000D02*
X142021800Y-79979000D01*
%TO.C,R18*%
X145887200Y-98811600D02*
X142047200Y-98811600D01*
X145887200Y-96971600D02*
X142047200Y-96971600D01*
%TO.C,D1*%
X137467000Y-124329800D02*
X132027000Y-124329800D01*
X137467000Y-123999800D02*
X137467000Y-124329800D01*
X137467000Y-121719800D02*
X137467000Y-121389800D01*
X137467000Y-121389800D02*
X132027000Y-121389800D01*
X136687000Y-124329800D02*
X136687000Y-121389800D01*
X136567000Y-124329800D02*
X136567000Y-121389800D01*
X136447000Y-124329800D02*
X136447000Y-121389800D01*
X132027000Y-124329800D02*
X132027000Y-123999800D01*
X132027000Y-121389800D02*
X132027000Y-121719800D01*
%TO.C,Q2*%
X136372600Y-73863200D02*
X126212600Y-73863200D01*
X136372600Y-66243200D02*
X126212600Y-66243200D01*
X136372600Y-58623200D02*
X136372600Y-73863200D01*
X126212600Y-73863200D02*
X126212600Y-58623200D01*
X126212600Y-58623200D02*
X136372600Y-58623200D01*
X132892600Y-70053200D02*
G75*
G03*
X132892600Y-70053200I-1600000J0D01*
G01*
X134340600Y-58623200D02*
X133324600Y-58623200D01*
X133324600Y-57099200D01*
X134340600Y-57099200D01*
X134340600Y-58623200D01*
G36*
X134340600Y-58623200D02*
G01*
X133324600Y-58623200D01*
X133324600Y-57099200D01*
X134340600Y-57099200D01*
X134340600Y-58623200D01*
G37*
X131800600Y-58623200D02*
X130784600Y-58623200D01*
X130784600Y-57099200D01*
X131800600Y-57099200D01*
X131800600Y-58623200D01*
G36*
X131800600Y-58623200D02*
G01*
X130784600Y-58623200D01*
X130784600Y-57099200D01*
X131800600Y-57099200D01*
X131800600Y-58623200D01*
G37*
X129260600Y-58623200D02*
X128244600Y-58623200D01*
X128244600Y-57099200D01*
X129260600Y-57099200D01*
X129260600Y-58623200D01*
G36*
X129260600Y-58623200D02*
G01*
X128244600Y-58623200D01*
X128244600Y-57099200D01*
X129260600Y-57099200D01*
X129260600Y-58623200D01*
G37*
%TO.C,R17*%
X145887200Y-96957400D02*
X142047200Y-96957400D01*
X145887200Y-95117400D02*
X142047200Y-95117400D01*
%TO.C,R20*%
X121143801Y-107431267D02*
G75*
G03*
X122593158Y-107528305I699999J-417133D01*
G01*
%TO.C,R9*%
X145861800Y-74402200D02*
X142021800Y-74402200D01*
X145861800Y-72562200D02*
X142021800Y-72562200D01*
%TO.C,C1*%
X173244688Y-80723000D02*
X172744688Y-80723000D01*
X172994688Y-80973000D02*
X172994688Y-80473000D01*
X170439913Y-81828000D02*
X170439913Y-76668000D01*
X170399913Y-81828000D02*
X170399913Y-76668000D01*
X170359913Y-81827000D02*
X170359913Y-76669000D01*
X170319913Y-81826000D02*
X170319913Y-76670000D01*
X170279913Y-81824000D02*
X170279913Y-76672000D01*
X170239913Y-81821000D02*
X170239913Y-76675000D01*
X170199913Y-81817000D02*
X170199913Y-80288000D01*
X170199913Y-78208000D02*
X170199913Y-76679000D01*
X170159913Y-81813000D02*
X170159913Y-80288000D01*
X170159913Y-78208000D02*
X170159913Y-76683000D01*
X170119913Y-81809000D02*
X170119913Y-80288000D01*
X170119913Y-78208000D02*
X170119913Y-76687000D01*
X170079913Y-81804000D02*
X170079913Y-80288000D01*
X170079913Y-78208000D02*
X170079913Y-76692000D01*
X170039913Y-81798000D02*
X170039913Y-80288000D01*
X170039913Y-78208000D02*
X170039913Y-76698000D01*
X169999913Y-81791000D02*
X169999913Y-80288000D01*
X169999913Y-78208000D02*
X169999913Y-76705000D01*
X169959913Y-81784000D02*
X169959913Y-80288000D01*
X169959913Y-78208000D02*
X169959913Y-76712000D01*
X169919913Y-81776000D02*
X169919913Y-80288000D01*
X169919913Y-78208000D02*
X169919913Y-76720000D01*
X169879913Y-81768000D02*
X169879913Y-80288000D01*
X169879913Y-78208000D02*
X169879913Y-76728000D01*
X169839913Y-81759000D02*
X169839913Y-80288000D01*
X169839913Y-78208000D02*
X169839913Y-76737000D01*
X169799913Y-81749000D02*
X169799913Y-80288000D01*
X169799913Y-78208000D02*
X169799913Y-76747000D01*
X169759913Y-81739000D02*
X169759913Y-80288000D01*
X169759913Y-78208000D02*
X169759913Y-76757000D01*
X169718913Y-81728000D02*
X169718913Y-80288000D01*
X169718913Y-78208000D02*
X169718913Y-76768000D01*
X169678913Y-81716000D02*
X169678913Y-80288000D01*
X169678913Y-78208000D02*
X169678913Y-76780000D01*
X169638913Y-81703000D02*
X169638913Y-80288000D01*
X169638913Y-78208000D02*
X169638913Y-76793000D01*
X169598913Y-81690000D02*
X169598913Y-80288000D01*
X169598913Y-78208000D02*
X169598913Y-76806000D01*
X169558913Y-81676000D02*
X169558913Y-80288000D01*
X169558913Y-78208000D02*
X169558913Y-76820000D01*
X169518913Y-81662000D02*
X169518913Y-80288000D01*
X169518913Y-78208000D02*
X169518913Y-76834000D01*
X169478913Y-81646000D02*
X169478913Y-80288000D01*
X169478913Y-78208000D02*
X169478913Y-76850000D01*
X169438913Y-81630000D02*
X169438913Y-80288000D01*
X169438913Y-78208000D02*
X169438913Y-76866000D01*
X169398913Y-81613000D02*
X169398913Y-80288000D01*
X169398913Y-78208000D02*
X169398913Y-76883000D01*
X169358913Y-81596000D02*
X169358913Y-80288000D01*
X169358913Y-78208000D02*
X169358913Y-76900000D01*
X169318913Y-81577000D02*
X169318913Y-80288000D01*
X169318913Y-78208000D02*
X169318913Y-76919000D01*
X169278913Y-81558000D02*
X169278913Y-80288000D01*
X169278913Y-78208000D02*
X169278913Y-76938000D01*
X169238913Y-81538000D02*
X169238913Y-80288000D01*
X169238913Y-78208000D02*
X169238913Y-76958000D01*
X169198913Y-81516000D02*
X169198913Y-80288000D01*
X169198913Y-78208000D02*
X169198913Y-76980000D01*
X169158913Y-81495000D02*
X169158913Y-80288000D01*
X169158913Y-78208000D02*
X169158913Y-77001000D01*
X169118913Y-81472000D02*
X169118913Y-80288000D01*
X169118913Y-78208000D02*
X169118913Y-77024000D01*
X169078913Y-81448000D02*
X169078913Y-80288000D01*
X169078913Y-78208000D02*
X169078913Y-77048000D01*
X169038913Y-81423000D02*
X169038913Y-80288000D01*
X169038913Y-78208000D02*
X169038913Y-77073000D01*
X168998913Y-81397000D02*
X168998913Y-80288000D01*
X168998913Y-78208000D02*
X168998913Y-77099000D01*
X168958913Y-81370000D02*
X168958913Y-80288000D01*
X168958913Y-78208000D02*
X168958913Y-77126000D01*
X168918913Y-81343000D02*
X168918913Y-80288000D01*
X168918913Y-78208000D02*
X168918913Y-77153000D01*
X168878913Y-81313000D02*
X168878913Y-80288000D01*
X168878913Y-78208000D02*
X168878913Y-77183000D01*
X168838913Y-81283000D02*
X168838913Y-80288000D01*
X168838913Y-78208000D02*
X168838913Y-77213000D01*
X168798913Y-81252000D02*
X168798913Y-80288000D01*
X168798913Y-78208000D02*
X168798913Y-77244000D01*
X168758913Y-81219000D02*
X168758913Y-80288000D01*
X168758913Y-78208000D02*
X168758913Y-77277000D01*
X168718913Y-81185000D02*
X168718913Y-80288000D01*
X168718913Y-78208000D02*
X168718913Y-77311000D01*
X168678913Y-81149000D02*
X168678913Y-80288000D01*
X168678913Y-78208000D02*
X168678913Y-77347000D01*
X168638913Y-81112000D02*
X168638913Y-80288000D01*
X168638913Y-78208000D02*
X168638913Y-77384000D01*
X168598913Y-81074000D02*
X168598913Y-80288000D01*
X168598913Y-78208000D02*
X168598913Y-77422000D01*
X168558913Y-81033000D02*
X168558913Y-80288000D01*
X168558913Y-78208000D02*
X168558913Y-77463000D01*
X168518913Y-80991000D02*
X168518913Y-80288000D01*
X168518913Y-78208000D02*
X168518913Y-77505000D01*
X168478913Y-80947000D02*
X168478913Y-80288000D01*
X168478913Y-78208000D02*
X168478913Y-77549000D01*
X168438913Y-80901000D02*
X168438913Y-80288000D01*
X168438913Y-78208000D02*
X168438913Y-77595000D01*
X168398913Y-80853000D02*
X168398913Y-80288000D01*
X168398913Y-78208000D02*
X168398913Y-77643000D01*
X168358913Y-80802000D02*
X168358913Y-80288000D01*
X168358913Y-78208000D02*
X168358913Y-77694000D01*
X168318913Y-80748000D02*
X168318913Y-80288000D01*
X168318913Y-78208000D02*
X168318913Y-77748000D01*
X168278913Y-80691000D02*
X168278913Y-80288000D01*
X168278913Y-78208000D02*
X168278913Y-77805000D01*
X168238913Y-80631000D02*
X168238913Y-80288000D01*
X168238913Y-78208000D02*
X168238913Y-77865000D01*
X168198913Y-80567000D02*
X168198913Y-80288000D01*
X168198913Y-78208000D02*
X168198913Y-77929000D01*
X168158913Y-80499000D02*
X168158913Y-80288000D01*
X168158913Y-78208000D02*
X168158913Y-77997000D01*
X168118913Y-80426000D02*
X168118913Y-78070000D01*
X168078913Y-80346000D02*
X168078913Y-78150000D01*
X168038913Y-80259000D02*
X168038913Y-78237000D01*
X167998913Y-80163000D02*
X167998913Y-78333000D01*
X167958913Y-80053000D02*
X167958913Y-78443000D01*
X167918913Y-79925000D02*
X167918913Y-78571000D01*
X167878913Y-79766000D02*
X167878913Y-78730000D01*
X167838913Y-79532000D02*
X167838913Y-78964000D01*
X173059913Y-79248000D02*
G75*
G03*
X173059913Y-79248000I-2620000J0D01*
G01*
%TO.C,J5*%
X122014200Y-71276000D02*
X122014200Y-72696000D01*
X110294200Y-71276000D02*
X122014200Y-71276000D01*
X122014200Y-72696000D02*
X117514200Y-72696000D01*
X117514200Y-72696000D02*
X117514200Y-75086000D01*
X121704200Y-73536000D02*
X121704200Y-74136000D01*
X116404200Y-73586000D02*
X110904200Y-73586000D01*
X110904200Y-73586000D02*
X110904200Y-74086000D01*
X121104200Y-73836000D02*
X121704200Y-73536000D01*
X116404200Y-74086000D02*
X116404200Y-73586000D01*
X110904200Y-74086000D02*
X116404200Y-74086000D01*
X121704200Y-74136000D02*
X121104200Y-73836000D01*
X110294200Y-75086000D02*
X110294200Y-71276000D01*
X110294200Y-75086000D02*
X110294200Y-78896000D01*
X116404200Y-76086000D02*
X110904200Y-76086000D01*
X110904200Y-76086000D02*
X110904200Y-76586000D01*
X116404200Y-76586000D02*
X116404200Y-76086000D01*
X110904200Y-76586000D02*
X116404200Y-76586000D01*
X122014200Y-77476000D02*
X117514200Y-77476000D01*
X117514200Y-77476000D02*
X117514200Y-75086000D01*
X122014200Y-78896000D02*
X122014200Y-77476000D01*
X110294200Y-78896000D02*
X122014200Y-78896000D01*
%TO.C,U5*%
X149424400Y-87630600D02*
X149424400Y-88830600D01*
X149424400Y-88830600D02*
X147724400Y-88830600D01*
X149424400Y-105030600D02*
X149424400Y-103830600D01*
X149524400Y-87630600D02*
X149424400Y-87630600D01*
X165524400Y-87630600D02*
X149524400Y-87630600D01*
X165524400Y-87630600D02*
X165624400Y-87630600D01*
X165524400Y-105030600D02*
X149424400Y-105030600D01*
X165524400Y-105030600D02*
X165624400Y-105030600D01*
X165624400Y-87630600D02*
X165624400Y-88830600D01*
X165624400Y-105030600D02*
X165624400Y-103830600D01*
%TO.C,U7*%
X125167400Y-103338400D02*
X125167400Y-108538400D01*
X125167400Y-108538400D02*
X130467400Y-108538400D01*
X126817400Y-103338400D02*
X125167400Y-103338400D01*
X130467400Y-103338400D02*
X128817400Y-103338400D01*
X130467400Y-108538400D02*
X130467400Y-103338400D01*
X126817400Y-103338400D02*
G75*
G03*
X128817400Y-103338400I1000000J0D01*
G01*
%TO.C,C5*%
X173244688Y-97334600D02*
X172744688Y-97334600D01*
X172994688Y-97584600D02*
X172994688Y-97084600D01*
X170439913Y-98439600D02*
X170439913Y-93279600D01*
X170399913Y-98439600D02*
X170399913Y-93279600D01*
X170359913Y-98438600D02*
X170359913Y-93280600D01*
X170319913Y-98437600D02*
X170319913Y-93281600D01*
X170279913Y-98435600D02*
X170279913Y-93283600D01*
X170239913Y-98432600D02*
X170239913Y-93286600D01*
X170199913Y-98428600D02*
X170199913Y-96899600D01*
X170199913Y-94819600D02*
X170199913Y-93290600D01*
X170159913Y-98424600D02*
X170159913Y-96899600D01*
X170159913Y-94819600D02*
X170159913Y-93294600D01*
X170119913Y-98420600D02*
X170119913Y-96899600D01*
X170119913Y-94819600D02*
X170119913Y-93298600D01*
X170079913Y-98415600D02*
X170079913Y-96899600D01*
X170079913Y-94819600D02*
X170079913Y-93303600D01*
X170039913Y-98409600D02*
X170039913Y-96899600D01*
X170039913Y-94819600D02*
X170039913Y-93309600D01*
X169999913Y-98402600D02*
X169999913Y-96899600D01*
X169999913Y-94819600D02*
X169999913Y-93316600D01*
X169959913Y-98395600D02*
X169959913Y-96899600D01*
X169959913Y-94819600D02*
X169959913Y-93323600D01*
X169919913Y-98387600D02*
X169919913Y-96899600D01*
X169919913Y-94819600D02*
X169919913Y-93331600D01*
X169879913Y-98379600D02*
X169879913Y-96899600D01*
X169879913Y-94819600D02*
X169879913Y-93339600D01*
X169839913Y-98370600D02*
X169839913Y-96899600D01*
X169839913Y-94819600D02*
X169839913Y-93348600D01*
X169799913Y-98360600D02*
X169799913Y-96899600D01*
X169799913Y-94819600D02*
X169799913Y-93358600D01*
X169759913Y-98350600D02*
X169759913Y-96899600D01*
X169759913Y-94819600D02*
X169759913Y-93368600D01*
X169718913Y-98339600D02*
X169718913Y-96899600D01*
X169718913Y-94819600D02*
X169718913Y-93379600D01*
X169678913Y-98327600D02*
X169678913Y-96899600D01*
X169678913Y-94819600D02*
X169678913Y-93391600D01*
X169638913Y-98314600D02*
X169638913Y-96899600D01*
X169638913Y-94819600D02*
X169638913Y-93404600D01*
X169598913Y-98301600D02*
X169598913Y-96899600D01*
X169598913Y-94819600D02*
X169598913Y-93417600D01*
X169558913Y-98287600D02*
X169558913Y-96899600D01*
X169558913Y-94819600D02*
X169558913Y-93431600D01*
X169518913Y-98273600D02*
X169518913Y-96899600D01*
X169518913Y-94819600D02*
X169518913Y-93445600D01*
X169478913Y-98257600D02*
X169478913Y-96899600D01*
X169478913Y-94819600D02*
X169478913Y-93461600D01*
X169438913Y-98241600D02*
X169438913Y-96899600D01*
X169438913Y-94819600D02*
X169438913Y-93477600D01*
X169398913Y-98224600D02*
X169398913Y-96899600D01*
X169398913Y-94819600D02*
X169398913Y-93494600D01*
X169358913Y-98207600D02*
X169358913Y-96899600D01*
X169358913Y-94819600D02*
X169358913Y-93511600D01*
X169318913Y-98188600D02*
X169318913Y-96899600D01*
X169318913Y-94819600D02*
X169318913Y-93530600D01*
X169278913Y-98169600D02*
X169278913Y-96899600D01*
X169278913Y-94819600D02*
X169278913Y-93549600D01*
X169238913Y-98149600D02*
X169238913Y-96899600D01*
X169238913Y-94819600D02*
X169238913Y-93569600D01*
X169198913Y-98127600D02*
X169198913Y-96899600D01*
X169198913Y-94819600D02*
X169198913Y-93591600D01*
X169158913Y-98106600D02*
X169158913Y-96899600D01*
X169158913Y-94819600D02*
X169158913Y-93612600D01*
X169118913Y-98083600D02*
X169118913Y-96899600D01*
X169118913Y-94819600D02*
X169118913Y-93635600D01*
X169078913Y-98059600D02*
X169078913Y-96899600D01*
X169078913Y-94819600D02*
X169078913Y-93659600D01*
X169038913Y-98034600D02*
X169038913Y-96899600D01*
X169038913Y-94819600D02*
X169038913Y-93684600D01*
X168998913Y-98008600D02*
X168998913Y-96899600D01*
X168998913Y-94819600D02*
X168998913Y-93710600D01*
X168958913Y-97981600D02*
X168958913Y-96899600D01*
X168958913Y-94819600D02*
X168958913Y-93737600D01*
X168918913Y-97954600D02*
X168918913Y-96899600D01*
X168918913Y-94819600D02*
X168918913Y-93764600D01*
X168878913Y-97924600D02*
X168878913Y-96899600D01*
X168878913Y-94819600D02*
X168878913Y-93794600D01*
X168838913Y-97894600D02*
X168838913Y-96899600D01*
X168838913Y-94819600D02*
X168838913Y-93824600D01*
X168798913Y-97863600D02*
X168798913Y-96899600D01*
X168798913Y-94819600D02*
X168798913Y-93855600D01*
X168758913Y-97830600D02*
X168758913Y-96899600D01*
X168758913Y-94819600D02*
X168758913Y-93888600D01*
X168718913Y-97796600D02*
X168718913Y-96899600D01*
X168718913Y-94819600D02*
X168718913Y-93922600D01*
X168678913Y-97760600D02*
X168678913Y-96899600D01*
X168678913Y-94819600D02*
X168678913Y-93958600D01*
X168638913Y-97723600D02*
X168638913Y-96899600D01*
X168638913Y-94819600D02*
X168638913Y-93995600D01*
X168598913Y-97685600D02*
X168598913Y-96899600D01*
X168598913Y-94819600D02*
X168598913Y-94033600D01*
X168558913Y-97644600D02*
X168558913Y-96899600D01*
X168558913Y-94819600D02*
X168558913Y-94074600D01*
X168518913Y-97602600D02*
X168518913Y-96899600D01*
X168518913Y-94819600D02*
X168518913Y-94116600D01*
X168478913Y-97558600D02*
X168478913Y-96899600D01*
X168478913Y-94819600D02*
X168478913Y-94160600D01*
X168438913Y-97512600D02*
X168438913Y-96899600D01*
X168438913Y-94819600D02*
X168438913Y-94206600D01*
X168398913Y-97464600D02*
X168398913Y-96899600D01*
X168398913Y-94819600D02*
X168398913Y-94254600D01*
X168358913Y-97413600D02*
X168358913Y-96899600D01*
X168358913Y-94819600D02*
X168358913Y-94305600D01*
X168318913Y-97359600D02*
X168318913Y-96899600D01*
X168318913Y-94819600D02*
X168318913Y-94359600D01*
X168278913Y-97302600D02*
X168278913Y-96899600D01*
X168278913Y-94819600D02*
X168278913Y-94416600D01*
X168238913Y-97242600D02*
X168238913Y-96899600D01*
X168238913Y-94819600D02*
X168238913Y-94476600D01*
X168198913Y-97178600D02*
X168198913Y-96899600D01*
X168198913Y-94819600D02*
X168198913Y-94540600D01*
X168158913Y-97110600D02*
X168158913Y-96899600D01*
X168158913Y-94819600D02*
X168158913Y-94608600D01*
X168118913Y-97037600D02*
X168118913Y-94681600D01*
X168078913Y-96957600D02*
X168078913Y-94761600D01*
X168038913Y-96870600D02*
X168038913Y-94848600D01*
X167998913Y-96774600D02*
X167998913Y-94944600D01*
X167958913Y-96664600D02*
X167958913Y-95054600D01*
X167918913Y-96536600D02*
X167918913Y-95182600D01*
X167878913Y-96377600D02*
X167878913Y-95341600D01*
X167838913Y-96143600D02*
X167838913Y-95575600D01*
X173059913Y-95859600D02*
G75*
G03*
X173059913Y-95859600I-2620000J0D01*
G01*
%TO.C,J4*%
X122014200Y-63195200D02*
X122014200Y-64615200D01*
X110294200Y-63195200D02*
X122014200Y-63195200D01*
X122014200Y-64615200D02*
X117514200Y-64615200D01*
X117514200Y-64615200D02*
X117514200Y-67005200D01*
X121704200Y-65455200D02*
X121704200Y-66055200D01*
X116404200Y-65505200D02*
X110904200Y-65505200D01*
X110904200Y-65505200D02*
X110904200Y-66005200D01*
X121104200Y-65755200D02*
X121704200Y-65455200D01*
X116404200Y-66005200D02*
X116404200Y-65505200D01*
X110904200Y-66005200D02*
X116404200Y-66005200D01*
X121704200Y-66055200D02*
X121104200Y-65755200D01*
X110294200Y-67005200D02*
X110294200Y-63195200D01*
X110294200Y-67005200D02*
X110294200Y-70815200D01*
X116404200Y-68005200D02*
X110904200Y-68005200D01*
X110904200Y-68005200D02*
X110904200Y-68505200D01*
X116404200Y-68505200D02*
X116404200Y-68005200D01*
X110904200Y-68505200D02*
X116404200Y-68505200D01*
X122014200Y-69395200D02*
X117514200Y-69395200D01*
X117514200Y-69395200D02*
X117514200Y-67005200D01*
X122014200Y-70815200D02*
X122014200Y-69395200D01*
X110294200Y-70815200D02*
X122014200Y-70815200D01*
%TO.C,J6*%
X122014200Y-79327800D02*
X122014200Y-80747800D01*
X110294200Y-79327800D02*
X122014200Y-79327800D01*
X122014200Y-80747800D02*
X117514200Y-80747800D01*
X117514200Y-80747800D02*
X117514200Y-83137800D01*
X121704200Y-81587800D02*
X121704200Y-82187800D01*
X116404200Y-81637800D02*
X110904200Y-81637800D01*
X110904200Y-81637800D02*
X110904200Y-82137800D01*
X121104200Y-81887800D02*
X121704200Y-81587800D01*
X116404200Y-82137800D02*
X116404200Y-81637800D01*
X110904200Y-82137800D02*
X116404200Y-82137800D01*
X121704200Y-82187800D02*
X121104200Y-81887800D01*
X110294200Y-83137800D02*
X110294200Y-79327800D01*
X110294200Y-83137800D02*
X110294200Y-86947800D01*
X116404200Y-84137800D02*
X110904200Y-84137800D01*
X110904200Y-84137800D02*
X110904200Y-84637800D01*
X116404200Y-84637800D02*
X116404200Y-84137800D01*
X110904200Y-84637800D02*
X116404200Y-84637800D01*
X122014200Y-85527800D02*
X117514200Y-85527800D01*
X117514200Y-85527800D02*
X117514200Y-83137800D01*
X122014200Y-86947800D02*
X122014200Y-85527800D01*
X110294200Y-86947800D02*
X122014200Y-86947800D01*
%TO.C,R15*%
X145277600Y-91064600D02*
X141437600Y-91064600D01*
X145277600Y-89224600D02*
X141437600Y-89224600D01*
%TO.C,C2*%
X173244688Y-86260200D02*
X172744688Y-86260200D01*
X172994688Y-86510200D02*
X172994688Y-86010200D01*
X170439913Y-87365200D02*
X170439913Y-82205200D01*
X170399913Y-87365200D02*
X170399913Y-82205200D01*
X170359913Y-87364200D02*
X170359913Y-82206200D01*
X170319913Y-87363200D02*
X170319913Y-82207200D01*
X170279913Y-87361200D02*
X170279913Y-82209200D01*
X170239913Y-87358200D02*
X170239913Y-82212200D01*
X170199913Y-87354200D02*
X170199913Y-85825200D01*
X170199913Y-83745200D02*
X170199913Y-82216200D01*
X170159913Y-87350200D02*
X170159913Y-85825200D01*
X170159913Y-83745200D02*
X170159913Y-82220200D01*
X170119913Y-87346200D02*
X170119913Y-85825200D01*
X170119913Y-83745200D02*
X170119913Y-82224200D01*
X170079913Y-87341200D02*
X170079913Y-85825200D01*
X170079913Y-83745200D02*
X170079913Y-82229200D01*
X170039913Y-87335200D02*
X170039913Y-85825200D01*
X170039913Y-83745200D02*
X170039913Y-82235200D01*
X169999913Y-87328200D02*
X169999913Y-85825200D01*
X169999913Y-83745200D02*
X169999913Y-82242200D01*
X169959913Y-87321200D02*
X169959913Y-85825200D01*
X169959913Y-83745200D02*
X169959913Y-82249200D01*
X169919913Y-87313200D02*
X169919913Y-85825200D01*
X169919913Y-83745200D02*
X169919913Y-82257200D01*
X169879913Y-87305200D02*
X169879913Y-85825200D01*
X169879913Y-83745200D02*
X169879913Y-82265200D01*
X169839913Y-87296200D02*
X169839913Y-85825200D01*
X169839913Y-83745200D02*
X169839913Y-82274200D01*
X169799913Y-87286200D02*
X169799913Y-85825200D01*
X169799913Y-83745200D02*
X169799913Y-82284200D01*
X169759913Y-87276200D02*
X169759913Y-85825200D01*
X169759913Y-83745200D02*
X169759913Y-82294200D01*
X169718913Y-87265200D02*
X169718913Y-85825200D01*
X169718913Y-83745200D02*
X169718913Y-82305200D01*
X169678913Y-87253200D02*
X169678913Y-85825200D01*
X169678913Y-83745200D02*
X169678913Y-82317200D01*
X169638913Y-87240200D02*
X169638913Y-85825200D01*
X169638913Y-83745200D02*
X169638913Y-82330200D01*
X169598913Y-87227200D02*
X169598913Y-85825200D01*
X169598913Y-83745200D02*
X169598913Y-82343200D01*
X169558913Y-87213200D02*
X169558913Y-85825200D01*
X169558913Y-83745200D02*
X169558913Y-82357200D01*
X169518913Y-87199200D02*
X169518913Y-85825200D01*
X169518913Y-83745200D02*
X169518913Y-82371200D01*
X169478913Y-87183200D02*
X169478913Y-85825200D01*
X169478913Y-83745200D02*
X169478913Y-82387200D01*
X169438913Y-87167200D02*
X169438913Y-85825200D01*
X169438913Y-83745200D02*
X169438913Y-82403200D01*
X169398913Y-87150200D02*
X169398913Y-85825200D01*
X169398913Y-83745200D02*
X169398913Y-82420200D01*
X169358913Y-87133200D02*
X169358913Y-85825200D01*
X169358913Y-83745200D02*
X169358913Y-82437200D01*
X169318913Y-87114200D02*
X169318913Y-85825200D01*
X169318913Y-83745200D02*
X169318913Y-82456200D01*
X169278913Y-87095200D02*
X169278913Y-85825200D01*
X169278913Y-83745200D02*
X169278913Y-82475200D01*
X169238913Y-87075200D02*
X169238913Y-85825200D01*
X169238913Y-83745200D02*
X169238913Y-82495200D01*
X169198913Y-87053200D02*
X169198913Y-85825200D01*
X169198913Y-83745200D02*
X169198913Y-82517200D01*
X169158913Y-87032200D02*
X169158913Y-85825200D01*
X169158913Y-83745200D02*
X169158913Y-82538200D01*
X169118913Y-87009200D02*
X169118913Y-85825200D01*
X169118913Y-83745200D02*
X169118913Y-82561200D01*
X169078913Y-86985200D02*
X169078913Y-85825200D01*
X169078913Y-83745200D02*
X169078913Y-82585200D01*
X169038913Y-86960200D02*
X169038913Y-85825200D01*
X169038913Y-83745200D02*
X169038913Y-82610200D01*
X168998913Y-86934200D02*
X168998913Y-85825200D01*
X168998913Y-83745200D02*
X168998913Y-82636200D01*
X168958913Y-86907200D02*
X168958913Y-85825200D01*
X168958913Y-83745200D02*
X168958913Y-82663200D01*
X168918913Y-86880200D02*
X168918913Y-85825200D01*
X168918913Y-83745200D02*
X168918913Y-82690200D01*
X168878913Y-86850200D02*
X168878913Y-85825200D01*
X168878913Y-83745200D02*
X168878913Y-82720200D01*
X168838913Y-86820200D02*
X168838913Y-85825200D01*
X168838913Y-83745200D02*
X168838913Y-82750200D01*
X168798913Y-86789200D02*
X168798913Y-85825200D01*
X168798913Y-83745200D02*
X168798913Y-82781200D01*
X168758913Y-86756200D02*
X168758913Y-85825200D01*
X168758913Y-83745200D02*
X168758913Y-82814200D01*
X168718913Y-86722200D02*
X168718913Y-85825200D01*
X168718913Y-83745200D02*
X168718913Y-82848200D01*
X168678913Y-86686200D02*
X168678913Y-85825200D01*
X168678913Y-83745200D02*
X168678913Y-82884200D01*
X168638913Y-86649200D02*
X168638913Y-85825200D01*
X168638913Y-83745200D02*
X168638913Y-82921200D01*
X168598913Y-86611200D02*
X168598913Y-85825200D01*
X168598913Y-83745200D02*
X168598913Y-82959200D01*
X168558913Y-86570200D02*
X168558913Y-85825200D01*
X168558913Y-83745200D02*
X168558913Y-83000200D01*
X168518913Y-86528200D02*
X168518913Y-85825200D01*
X168518913Y-83745200D02*
X168518913Y-83042200D01*
X168478913Y-86484200D02*
X168478913Y-85825200D01*
X168478913Y-83745200D02*
X168478913Y-83086200D01*
X168438913Y-86438200D02*
X168438913Y-85825200D01*
X168438913Y-83745200D02*
X168438913Y-83132200D01*
X168398913Y-86390200D02*
X168398913Y-85825200D01*
X168398913Y-83745200D02*
X168398913Y-83180200D01*
X168358913Y-86339200D02*
X168358913Y-85825200D01*
X168358913Y-83745200D02*
X168358913Y-83231200D01*
X168318913Y-86285200D02*
X168318913Y-85825200D01*
X168318913Y-83745200D02*
X168318913Y-83285200D01*
X168278913Y-86228200D02*
X168278913Y-85825200D01*
X168278913Y-83745200D02*
X168278913Y-83342200D01*
X168238913Y-86168200D02*
X168238913Y-85825200D01*
X168238913Y-83745200D02*
X168238913Y-83402200D01*
X168198913Y-86104200D02*
X168198913Y-85825200D01*
X168198913Y-83745200D02*
X168198913Y-83466200D01*
X168158913Y-86036200D02*
X168158913Y-85825200D01*
X168158913Y-83745200D02*
X168158913Y-83534200D01*
X168118913Y-85963200D02*
X168118913Y-83607200D01*
X168078913Y-85883200D02*
X168078913Y-83687200D01*
X168038913Y-85796200D02*
X168038913Y-83774200D01*
X167998913Y-85700200D02*
X167998913Y-83870200D01*
X167958913Y-85590200D02*
X167958913Y-83980200D01*
X167918913Y-85462200D02*
X167918913Y-84108200D01*
X167878913Y-85303200D02*
X167878913Y-84267200D01*
X167838913Y-85069200D02*
X167838913Y-84501200D01*
X173059913Y-84785200D02*
G75*
G03*
X173059913Y-84785200I-2620000J0D01*
G01*
%TO.C,R1*%
X138500600Y-57419000D02*
X138500600Y-53579000D01*
X140340600Y-57419000D02*
X140340600Y-53579000D01*
%TO.C,U8*%
X149430800Y-105172200D02*
X149430800Y-106372200D01*
X149430800Y-106372200D02*
X147730800Y-106372200D01*
X149430800Y-122572200D02*
X149430800Y-121372200D01*
X149530800Y-105172200D02*
X149430800Y-105172200D01*
X165530800Y-105172200D02*
X149530800Y-105172200D01*
X165530800Y-105172200D02*
X165630800Y-105172200D01*
X165530800Y-122572200D02*
X149430800Y-122572200D01*
X165530800Y-122572200D02*
X165630800Y-122572200D01*
X165630800Y-105172200D02*
X165630800Y-106372200D01*
X165630800Y-122572200D02*
X165630800Y-121372200D01*
%TO.C,R19*%
X121143801Y-101783067D02*
G75*
G03*
X122593158Y-101880105I699999J-417133D01*
G01*
%TO.C,D2*%
X136222400Y-118843400D02*
X130782400Y-118843400D01*
X136222400Y-118513400D02*
X136222400Y-118843400D01*
X136222400Y-116233400D02*
X136222400Y-115903400D01*
X136222400Y-115903400D02*
X130782400Y-115903400D01*
X135442400Y-118843400D02*
X135442400Y-115903400D01*
X135322400Y-118843400D02*
X135322400Y-115903400D01*
X135202400Y-118843400D02*
X135202400Y-115903400D01*
X130782400Y-118843400D02*
X130782400Y-118513400D01*
X130782400Y-115903400D02*
X130782400Y-116233400D01*
%TO.C,R32*%
X136595600Y-64404000D02*
X136595600Y-60564000D01*
X138435600Y-64404000D02*
X138435600Y-60564000D01*
%TO.C,R2*%
X145887200Y-59340000D02*
X142047200Y-59340000D01*
X145887200Y-57500000D02*
X142047200Y-57500000D01*
%TO.C,R14*%
X145277600Y-92918800D02*
X141437600Y-92918800D01*
X145277600Y-91078800D02*
X141437600Y-91078800D01*
%TO.C,R30*%
X136606800Y-100213400D02*
X136606800Y-104053400D01*
X134766800Y-100213400D02*
X134766800Y-104053400D01*
%TO.C,J7*%
X122014200Y-87405000D02*
X122014200Y-88825000D01*
X110294200Y-87405000D02*
X122014200Y-87405000D01*
X122014200Y-88825000D02*
X117514200Y-88825000D01*
X117514200Y-88825000D02*
X117514200Y-91215000D01*
X121704200Y-89665000D02*
X121704200Y-90265000D01*
X116404200Y-89715000D02*
X110904200Y-89715000D01*
X110904200Y-89715000D02*
X110904200Y-90215000D01*
X121104200Y-89965000D02*
X121704200Y-89665000D01*
X116404200Y-90215000D02*
X116404200Y-89715000D01*
X110904200Y-90215000D02*
X116404200Y-90215000D01*
X121704200Y-90265000D02*
X121104200Y-89965000D01*
X110294200Y-91215000D02*
X110294200Y-87405000D01*
X110294200Y-91215000D02*
X110294200Y-95025000D01*
X116404200Y-92215000D02*
X110904200Y-92215000D01*
X110904200Y-92215000D02*
X110904200Y-92715000D01*
X116404200Y-92715000D02*
X116404200Y-92215000D01*
X110904200Y-92715000D02*
X116404200Y-92715000D01*
X122014200Y-93605000D02*
X117514200Y-93605000D01*
X117514200Y-93605000D02*
X117514200Y-91215000D01*
X122014200Y-95025000D02*
X122014200Y-93605000D01*
X110294200Y-95025000D02*
X122014200Y-95025000D01*
%TO.C,U2*%
X149424400Y-52564200D02*
X149424400Y-53764200D01*
X149424400Y-53764200D02*
X147724400Y-53764200D01*
X149424400Y-69964200D02*
X149424400Y-68764200D01*
X149524400Y-52564200D02*
X149424400Y-52564200D01*
X165524400Y-52564200D02*
X149524400Y-52564200D01*
X165524400Y-52564200D02*
X165624400Y-52564200D01*
X165524400Y-69964200D02*
X149424400Y-69964200D01*
X165524400Y-69964200D02*
X165624400Y-69964200D01*
X165624400Y-52564200D02*
X165624400Y-53764200D01*
X165624400Y-69964200D02*
X165624400Y-68764200D01*
%TO.C,C3*%
X136595600Y-91454000D02*
X136595600Y-90196000D01*
X138435600Y-91454000D02*
X138435600Y-90196000D01*
%TO.C,R26*%
X136621000Y-100497400D02*
X136621000Y-96657400D01*
X138461000Y-100497400D02*
X138461000Y-96657400D01*
%TO.C,R11*%
X145861800Y-78110600D02*
X142021800Y-78110600D01*
X145861800Y-76270600D02*
X142021800Y-76270600D01*
%TO.C,J2*%
X121993200Y-97788200D02*
X121993200Y-99208200D01*
X110273200Y-97788200D02*
X121993200Y-97788200D01*
X121993200Y-99208200D02*
X117493200Y-99208200D01*
X117493200Y-99208200D02*
X117493200Y-104098200D01*
X121683200Y-100048200D02*
X121683200Y-100648200D01*
X116383200Y-100098200D02*
X110883200Y-100098200D01*
X110883200Y-100098200D02*
X110883200Y-100598200D01*
X121083200Y-100348200D02*
X121683200Y-100048200D01*
X116383200Y-100598200D02*
X116383200Y-100098200D01*
X110883200Y-100598200D02*
X116383200Y-100598200D01*
X121683200Y-100648200D02*
X121083200Y-100348200D01*
X116383200Y-102598200D02*
X110883200Y-102598200D01*
X110883200Y-102598200D02*
X110883200Y-103098200D01*
X116383200Y-103098200D02*
X116383200Y-102598200D01*
X110883200Y-103098200D02*
X116383200Y-103098200D01*
X110273200Y-104098200D02*
X110273200Y-97788200D01*
X110273200Y-104098200D02*
X110273200Y-110408200D01*
X116383200Y-105098200D02*
X110883200Y-105098200D01*
X110883200Y-105098200D02*
X110883200Y-105598200D01*
X116383200Y-105598200D02*
X116383200Y-105098200D01*
X110883200Y-105598200D02*
X116383200Y-105598200D01*
X116383200Y-107598200D02*
X110883200Y-107598200D01*
X110883200Y-107598200D02*
X110883200Y-108098200D01*
X116383200Y-108098200D02*
X116383200Y-107598200D01*
X110883200Y-108098200D02*
X116383200Y-108098200D01*
X121993200Y-108988200D02*
X117493200Y-108988200D01*
X117493200Y-108988200D02*
X117493200Y-104098200D01*
X121993200Y-110408200D02*
X121993200Y-108988200D01*
X110273200Y-110408200D02*
X121993200Y-110408200D01*
%TO.C,R4*%
X145887200Y-64902600D02*
X142047200Y-64902600D01*
X145887200Y-63062600D02*
X142047200Y-63062600D01*
%TO.C,R21*%
X137611600Y-112257600D02*
X137611600Y-108417600D01*
X139451600Y-112257600D02*
X139451600Y-108417600D01*
%TO.C,R3*%
X145887200Y-57485800D02*
X142047200Y-57485800D01*
X145887200Y-55645800D02*
X142047200Y-55645800D01*
%TO.C,R8*%
X145861800Y-76256400D02*
X142021800Y-76256400D01*
X145861800Y-74416400D02*
X142021800Y-74416400D01*
D11*
%TO.C,U4*%
X124637800Y-94056200D02*
X124637800Y-53416200D01*
X125526800Y-52527200D02*
X143306800Y-52527200D01*
X126056590Y-93167200D02*
X126056590Y-54305200D01*
X126415800Y-53945990D02*
X142417800Y-53945990D01*
X142417800Y-93526410D02*
X126415800Y-93526410D01*
X142777010Y-54305200D02*
X142777010Y-93167200D01*
X143306800Y-94945200D02*
X125526800Y-94945200D01*
X144195800Y-53416200D02*
X144195800Y-94056200D01*
X126161800Y-54051200D02*
G75*
G03*
X126056590Y-54305200I253998J-253999D01*
G01*
X126415800Y-53945990D02*
G75*
G03*
X126161800Y-54051200I-1J-359208D01*
G01*
X126056590Y-93167200D02*
G75*
G03*
X126161800Y-93421200I359208J-1D01*
G01*
X126161800Y-93421200D02*
G75*
G03*
X126415800Y-93526410I253999J253998D01*
G01*
X142671800Y-54051200D02*
G75*
G03*
X142417800Y-53945990I-254000J-254000D01*
G01*
X142777010Y-54305200D02*
G75*
G03*
X142671800Y-54051200I-359210J0D01*
G01*
X142417800Y-93526410D02*
G75*
G03*
X142671800Y-93421200I0J359210D01*
G01*
X142671800Y-93421200D02*
G75*
G03*
X142777010Y-93167200I-254000J254000D01*
G01*
X126415800Y-53416200D02*
G75*
G03*
X126415800Y-53416200I-889000J0D01*
G01*
X126415800Y-94056200D02*
G75*
G03*
X126415800Y-94056200I-889000J0D01*
G01*
X144195800Y-53416200D02*
G75*
G03*
X144195800Y-53416200I-889000J0D01*
G01*
X144195800Y-94056200D02*
G75*
G03*
X144195800Y-94056200I-889000J0D01*
G01*
X126365000Y-93548200D02*
X142555264Y-93499067D01*
X142392400Y-93903800D01*
X142392400Y-94234000D01*
X142621000Y-94691200D01*
X142951200Y-94919800D01*
X125933200Y-94919800D01*
X126365000Y-94488000D01*
X126466600Y-94157800D01*
X126415800Y-93776800D01*
X126212600Y-93472000D01*
X126365000Y-93548200D01*
G36*
X126365000Y-93548200D02*
G01*
X142555264Y-93499067D01*
X142392400Y-93903800D01*
X142392400Y-94234000D01*
X142621000Y-94691200D01*
X142951200Y-94919800D01*
X125933200Y-94919800D01*
X126365000Y-94488000D01*
X126466600Y-94157800D01*
X126415800Y-93776800D01*
X126212600Y-93472000D01*
X126365000Y-93548200D01*
G37*
X142468600Y-52959000D02*
X142367000Y-53289200D01*
X142392400Y-53670200D01*
X142621000Y-54000400D01*
X142494000Y-53924200D01*
X126278336Y-53947933D01*
X126441200Y-53543200D01*
X126441200Y-53213000D01*
X126212600Y-52755800D01*
X125882400Y-52527200D01*
X142900400Y-52527200D01*
X142468600Y-52959000D01*
G36*
X142468600Y-52959000D02*
G01*
X142367000Y-53289200D01*
X142392400Y-53670200D01*
X142621000Y-54000400D01*
X142494000Y-53924200D01*
X126278336Y-53947933D01*
X126441200Y-53543200D01*
X126441200Y-53213000D01*
X126212600Y-52755800D01*
X125882400Y-52527200D01*
X142900400Y-52527200D01*
X142468600Y-52959000D01*
G37*
X124783395Y-53968962D02*
X125113595Y-54248362D01*
X125519995Y-54324562D01*
X125824795Y-54273762D01*
X126077128Y-54161698D01*
X126049785Y-54299162D01*
X126049785Y-93161162D01*
X126077128Y-93298626D01*
X125875595Y-93186562D01*
X125494595Y-93110362D01*
X125088195Y-93211962D01*
X124783395Y-93491362D01*
X124656395Y-93719962D01*
X124630995Y-93567562D01*
X124630995Y-53968962D01*
X124656395Y-53714962D01*
X124783395Y-53968962D01*
G36*
X124783395Y-53968962D02*
G01*
X125113595Y-54248362D01*
X125519995Y-54324562D01*
X125824795Y-54273762D01*
X126077128Y-54161698D01*
X126049785Y-54299162D01*
X126049785Y-93161162D01*
X126077128Y-93298626D01*
X125875595Y-93186562D01*
X125494595Y-93110362D01*
X125088195Y-93211962D01*
X124783395Y-93491362D01*
X124656395Y-93719962D01*
X124630995Y-93567562D01*
X124630995Y-53968962D01*
X124656395Y-53714962D01*
X124783395Y-53968962D01*
G37*
X144195800Y-53898800D02*
X144195800Y-93497400D01*
X144170400Y-93751400D01*
X144043400Y-93497400D01*
X143713200Y-93218000D01*
X143306800Y-93141800D01*
X143002000Y-93192600D01*
X142749667Y-93304664D01*
X142777010Y-93167200D01*
X142777010Y-54305200D01*
X142749667Y-54167736D01*
X142951200Y-54279800D01*
X143332200Y-54356000D01*
X143738600Y-54254400D01*
X144043400Y-53975000D01*
X144170400Y-53746400D01*
X144195800Y-53898800D01*
G36*
X144195800Y-53898800D02*
G01*
X144195800Y-93497400D01*
X144170400Y-93751400D01*
X144043400Y-93497400D01*
X143713200Y-93218000D01*
X143306800Y-93141800D01*
X143002000Y-93192600D01*
X142749667Y-93304664D01*
X142777010Y-93167200D01*
X142777010Y-54305200D01*
X142749667Y-54167736D01*
X142951200Y-54279800D01*
X143332200Y-54356000D01*
X143738600Y-54254400D01*
X144043400Y-53975000D01*
X144170400Y-53746400D01*
X144195800Y-53898800D01*
G37*
D13*
%TO.C,R27*%
X135732000Y-112257600D02*
X135732000Y-108417600D01*
X137572000Y-112257600D02*
X137572000Y-108417600D01*
%TO.C,R29*%
X138059400Y-102204000D02*
X141899400Y-102204000D01*
X138059400Y-104044000D02*
X141899400Y-104044000D01*
%TO.C,R16*%
X145887200Y-100665800D02*
X142047200Y-100665800D01*
X145887200Y-98825800D02*
X142047200Y-98825800D01*
%TD*%
M02*
